<svg width="61" height="56" viewBox="0 0 61 56" fill="none" xmlns="http://www.w3.org/2000/svg">
<g opacity="0.2">
<path d="M47.0415 14.9325L46.6011 14.264C46.4876 14.0932 46.4506 14.108 46.4901 14.3086C46.5468 14.6057 46.6948 14.8496 46.9341 15.0402C52.1 23.322 55.8929 33.5574 53.199 43.4176C52.5773 45.7053 51.6855 47.6365 49.876 49.2594C44.8064 53.8088 37.9014 55.844 31.1962 56C31.1706 56.0002 31.1455 55.9928 31.124 55.9787C31.1026 55.9646 31.086 55.9445 31.0763 55.921C31.0666 55.8976 31.0644 55.872 31.07 55.8476C31.0755 55.8232 31.0886 55.8012 31.1073 55.7846C36.4693 50.7375 33.7051 44.9588 30.482 39.83C30.2377 39.4413 30.2673 39.4202 30.5708 39.7669C33.1463 42.7008 37.2316 46.6337 41.3169 46.3329C45.1209 46.0531 47.6126 44.0229 48.7918 40.2422C48.8063 40.2017 48.8345 40.1675 48.8714 40.1455C48.9083 40.1235 48.9517 40.1151 48.9941 40.1217C49.0365 40.1283 49.0753 40.1495 49.1039 40.1816C49.1325 40.2138 49.149 40.2549 49.1507 40.2979C49.1088 43.2467 48.4365 46.0296 47.134 48.6466C46.8577 49.2012 46.8897 49.2198 47.2302 48.7023C50.8307 43.2022 49.9944 35.9973 47.0674 30.2335C44.9482 26.0641 42.2765 22.2785 39.0522 18.8766C36.9577 16.6669 33.4497 11.2261 33.9308 8.05823C33.9777 7.74379 34.0406 7.74132 34.1195 8.0508C34.4106 9.18971 34.8843 10.2395 35.5405 11.2001C35.5832 11.2639 35.6447 11.3127 35.7164 11.3396C35.7881 11.3665 35.8665 11.3702 35.9404 11.3501C36.0143 11.33 36.08 11.2872 36.1285 11.2276C36.1769 11.1681 36.2055 11.0948 36.2103 11.0181C36.288 9.84458 35.892 8.93469 35.1667 7.84283C33.5903 5.47341 31.8659 -1.39346 37.7052 0.251769C42.9377 1.7274 47.2425 4.58704 50.6198 8.8307C50.6963 8.92726 50.7937 8.99411 50.9121 9.03125C54.5756 10.2048 59.1419 12.8899 60.9662 16.4329C60.9892 16.4768 61.0008 16.5258 61 16.5754C60.9993 16.625 60.9862 16.6736 60.9619 16.7168C60.9376 16.76 60.9029 16.7965 60.861 16.8228C60.8191 16.8491 60.7713 16.8644 60.722 16.8674L55.83 17.1422C55.7956 17.1441 55.7622 17.154 55.7323 17.1713C55.7025 17.1886 55.6772 17.2127 55.6584 17.2416C55.6397 17.2706 55.628 17.3036 55.6244 17.338C55.6208 17.3723 55.6253 17.4071 55.6376 17.4394C58.8052 25.632 58.783 35.0503 54.7717 42.9793C54.7544 43.0125 54.7258 43.0385 54.6909 43.0527C54.6561 43.0669 54.6176 43.0682 54.5824 43.0564C54.5472 43.0446 54.5177 43.0205 54.4994 42.9886C54.4812 42.9567 54.4754 42.9191 54.483 42.8828C56.2778 33.0374 52.9067 22.9061 47.0415 14.9325ZM39.5556 10.3951C39.6497 10.3554 39.7335 10.2937 39.8021 10.2135C39.8708 10.1333 39.9231 10.0362 39.9559 9.92768C39.9887 9.81918 40.0015 9.70143 39.9935 9.58115C39.9855 9.46087 39.9568 9.34042 39.9092 9.22667C39.813 8.99695 39.6452 8.80848 39.4428 8.70272C39.2404 8.59696 39.02 8.58258 38.83 8.66273C38.7359 8.70242 38.6522 8.76412 38.5835 8.84432C38.5148 8.92452 38.4626 9.02164 38.4297 9.13013C38.3969 9.23863 38.3841 9.35638 38.3921 9.47666C38.4002 9.59693 38.4288 9.71739 38.4764 9.83113C38.5727 10.0609 38.7404 10.2493 38.9428 10.3551C39.1452 10.4608 39.3656 10.4752 39.5556 10.3951Z" fill="white"/>
<path d="M15.0881 5.65911C11.9908 8.46305 11.0361 13.5361 11.2877 17.5136C11.7355 24.6628 16.7792 31.4702 21.2604 36.6955C24.6056 40.5988 26.404 43.2765 27.0886 47.9967C27.1281 48.2765 27.0948 48.2852 26.9887 48.0227C26.6334 47.1537 25.849 44.6468 24.8609 44.4649C24.7154 44.4376 24.6377 44.4995 24.6278 44.6506C24.5464 46.1918 24.8942 47.0051 25.8119 48.4424C26.6211 49.71 27.0454 51.1163 27.0849 52.6613C27.1663 55.8552 26.0155 56.5237 22.8257 55.5655C17.7684 54.0428 13.6042 51.2216 10.333 47.1017C10.2565 47.0051 10.1591 46.9383 10.0407 46.9011C6.1774 45.683 2.16982 43.1836 0.0346671 39.6146C0.013331 39.5799 0.00142062 39.5401 0.000119404 39.4993C-0.00118181 39.4585 0.008171 39.4181 0.0272491 39.3821C0.0463272 39.346 0.0744664 39.3156 0.108874 39.2939C0.143281 39.2721 0.18276 39.2598 0.223389 39.2581L5.23009 39.0204C5.41018 39.013 5.47062 38.9226 5.41141 38.7493C2.35114 29.9921 2.21053 21.7066 6.12189 13.1982C6.13288 13.1719 6.15321 13.1506 6.17895 13.1385C6.20468 13.1264 6.23397 13.1243 6.26116 13.1326C6.28835 13.1409 6.31149 13.1591 6.32609 13.1835C6.3407 13.208 6.34573 13.237 6.34022 13.265C4.44559 24.0463 8.60119 34.9872 15.4544 43.2245C15.4766 43.2517 15.5124 43.2653 15.5617 43.2653C15.6111 43.2678 15.6209 43.2492 15.5913 43.2096C9.08595 33.8136 3.89053 20.9192 8.91943 9.76289C10.0888 7.16321 13.3267 4.84207 15.7023 3.64251C20.1059 1.42412 24.729 0.269115 29.5716 0.177508C29.598 0.177073 29.6238 0.184729 29.6458 0.199449C29.6677 0.21417 29.6846 0.235254 29.6942 0.259884C29.7039 0.284514 29.7058 0.311516 29.6998 0.337278C29.6937 0.363041 29.68 0.386336 29.6604 0.404051C24.4539 4.94977 27.0664 11.5752 30.4227 16.121C30.9112 16.782 30.884 16.8043 30.3413 16.1878C27.7695 13.2502 24.0764 9.6032 19.9319 9.61434C15.7208 9.62548 13.5191 12.0469 12.0278 15.7496C11.8946 16.0813 11.828 16.069 11.828 15.7124C11.8243 12.266 12.9862 8.41477 15.1547 5.72225C15.3964 5.42267 15.3742 5.40162 15.0881 5.65911ZM22.2095 47.4534C22.4168 47.3496 22.5671 47.1525 22.6272 46.9052C22.6874 46.658 22.6526 46.3809 22.5304 46.135C22.4082 45.889 22.2087 45.6944 21.9758 45.5938C21.7428 45.4933 21.4955 45.495 21.2882 45.5987C21.0809 45.7025 20.9307 45.8996 20.8705 46.1469C20.8103 46.3941 20.8452 46.6712 20.9673 46.9171C21.0895 47.163 21.289 47.3577 21.522 47.4583C21.7549 47.5588 22.0023 47.5571 22.2095 47.4534Z" fill="white"/>
<path d="M42.6157 31.9196C40.0624 29.4796 39.4555 24.2803 39.3889 20.949C39.3889 20.9078 39.4017 20.8675 39.4255 20.8337C39.4492 20.8 39.4827 20.7745 39.5212 20.7609C39.5597 20.7474 39.6012 20.7464 39.6399 20.7582C39.6786 20.7699 39.7125 20.7938 39.7368 20.8264L44.8286 27.5893C44.8896 27.6697 44.9272 27.7658 44.937 27.8668C44.9468 27.9678 44.9285 28.0697 44.8841 28.1612L43.1227 31.8268C43.1002 31.8721 43.0675 31.9115 43.0273 31.9419C42.9871 31.9724 42.9404 31.993 42.8911 32.002C42.8417 32.011 42.7911 32.0083 42.7433 31.994C42.6955 31.9797 42.6517 31.9542 42.6157 31.9196Z" fill="white"/>
<path d="M18.1743 24.258C20.9644 26.2449 21.0088 31.6634 21.5306 34.9761C21.5824 35.3153 21.4997 35.3524 21.2826 35.0875C19.4595 32.8914 17.7561 30.6049 16.1723 28.2281C16.0958 28.1142 16.0872 27.9966 16.1464 27.8753L17.8412 24.3471C17.9177 24.1862 18.0287 24.1565 18.1743 24.258Z" fill="white"/>
</g>
</svg>
