<svg width="18" height="18" viewBox="0 0 18 18" fill="none" xmlns="http://www.w3.org/2000/svg">
<path fill-rule="evenodd" clip-rule="evenodd" d="M4.31641 0.769035C7.42888 0.423993 10.5699 0.423993 13.6824 0.769035C15.5094 0.973035 16.9844 2.41104 17.1984 4.24904C17.5684 7.40504 17.5684 10.595 17.1984 13.752C16.9834 15.588 15.5084 17.027 13.6824 17.232C10.5699 17.5771 7.42888 17.5771 4.31641 17.232C2.48941 17.027 1.01441 15.588 0.800413 13.752C0.431112 10.5948 0.431112 7.40527 0.800413 4.24804C1.01441 2.41104 2.49041 0.973035 4.31641 0.768035M9.99941 4.99904C9.99948 5.13036 9.97368 5.26041 9.92348 5.38176C9.87329 5.50311 9.79969 5.61338 9.70687 5.70629C9.61406 5.79919 9.50386 5.87291 9.38256 5.92322C9.26126 5.97354 9.13124 5.99947 8.99991 5.99954C8.7347 5.99967 8.48029 5.89444 8.29266 5.707C8.10503 5.51955 7.99955 5.26525 7.99941 5.00004C7.99941 4.73482 8.10477 4.48047 8.29231 4.29293C8.47984 4.10539 8.7342 4.00004 8.99941 4.00004C9.26463 4.00004 9.51898 4.10539 9.70652 4.29293C9.89406 4.48047 9.99941 4.73382 9.99941 4.99904ZM8.99941 7.75004C9.19833 7.75004 9.38909 7.82905 9.52974 7.96971C9.6704 8.11036 9.74941 8.30112 9.74941 8.50004V13.5C9.74941 13.699 9.6704 13.8897 9.52974 14.0304C9.38909 14.171 9.19833 14.25 8.99941 14.25C8.8005 14.25 8.60974 14.171 8.46908 14.0304C8.32843 13.8897 8.24941 13.699 8.24941 13.5V8.50004C8.24941 8.30112 8.32843 8.11036 8.46908 7.96971C8.60974 7.82905 8.8005 7.75004 8.99941 7.75004Z" fill="#193C63"/>
</svg>
