<svg width="468" height="479" viewBox="0 0 468 479" fill="none" xmlns="http://www.w3.org/2000/svg">
<rect x="10.2871" y="10.2856" width="442.286" height="5.14284" transform="rotate(90 10.2871 10.2856)" fill="#B6B1C9"/>
<rect x="462.857" y="10.2857" width="442.286" height="5.14284" transform="rotate(90 462.857 10.2857)" fill="#B6B1C9"/>
<rect x="5.14453" y="15.4286" width="447.429" height="5.14284" transform="rotate(90 5.14453 15.4286)" fill="#030500"/>
<rect x="452.572" y="5.14288" width="5.14288" height="442.286" transform="rotate(90 452.572 5.14288)" fill="#B6B1C9"/>
<rect x="10.2871" y="10.2857" width="5.14286" height="5.14286" transform="rotate(90 10.2871 10.2857)" fill="#030500"/>
<rect x="15.4297" y="5.14288" width="5.14286" height="5.14286" transform="rotate(90 15.4297 5.14288)" fill="#030500"/>
<rect x="15.4297" y="10.2857" width="5.14286" height="5.14286" transform="rotate(90 15.4297 10.2857)" fill="#B6B1C9"/>
<rect x="457.715" y="10.2857" width="5.14286" height="5.14286" transform="rotate(90 457.715 10.2857)" fill="#B6B1C9"/>
<rect x="462.857" y="10.2857" width="5.14286" height="5.14286" transform="rotate(90 462.857 10.2857)" fill="#030500"/>
<rect x="457.715" y="5.14288" width="5.14286" height="5.14286" transform="rotate(90 457.715 5.14288)" fill="#030500"/>
<rect x="468" y="15.4286" width="447.429" height="5.14284" transform="rotate(90 468 15.4286)" fill="#030500"/>
<rect x="452.572" width="5.14288" height="437.143" transform="rotate(90 452.572 0)" fill="#030500"/>
<rect x="452.572" y="468" width="5.14287" height="437.143" transform="rotate(90 452.572 468)" fill="#8381AD"/>
<rect x="452.572" y="462.857" width="5.14287" height="437.143" transform="rotate(90 452.572 462.857)" fill="#DEDBE4"/>
<rect x="10.2852" y="457.714" width="5.14286" height="5.14286" transform="rotate(90 10.2852 457.714)" fill="#8381AD"/>
<rect x="10.2852" y="452.572" width="5.14286" height="5.14286" transform="rotate(90 10.2852 452.572)" fill="#DEDBE4"/>
<rect x="15.4297" y="462.857" width="5.14286" height="5.14286" transform="rotate(90 15.4297 462.857)" fill="#8381AD"/>
<rect x="15.4297" y="457.714" width="5.14286" height="5.14286" transform="rotate(90 15.4297 457.714)" fill="#DEDBE4"/>
<rect x="457.715" y="468" width="5.14286" height="5.14286" transform="rotate(90 457.715 468)" fill="#030500"/>
<rect x="15.4297" y="468" width="5.14286" height="5.14286" transform="rotate(90 15.4297 468)" fill="#030500"/>
<rect x="462.857" y="462.857" width="5.14286" height="5.14286" transform="rotate(90 462.857 462.857)" fill="#030500"/>
<rect x="10.2852" y="462.857" width="5.14286" height="5.14286" transform="rotate(90 10.2852 462.857)" fill="#030500"/>
<rect x="462.857" y="457.714" width="5.14286" height="5.14286" transform="rotate(90 462.857 457.714)" fill="#8381AD"/>
<rect x="462.857" y="452.572" width="5.14286" height="5.14286" transform="rotate(90 462.857 452.572)" fill="#DEDBE4"/>
<rect x="457.715" y="462.857" width="5.14286" height="5.14286" transform="rotate(90 457.715 462.857)" fill="#8381AD"/>
<rect x="457.715" y="457.714" width="5.14286" height="5.14286" transform="rotate(90 457.715 457.714)" fill="#DEDBE4"/>
<rect x="452.572" y="473.143" width="5.14287" height="437.143" transform="rotate(90 452.572 473.143)" fill="#030500"/>
</svg>
