<svg width="59" height="16" viewBox="0 0 59 16" fill="none" xmlns="http://www.w3.org/2000/svg">
<path fill-rule="evenodd" clip-rule="evenodd" d="M40.7508 15.9998H41.5066L42.5072 2.61352C41.5642 2.21758 40.612 1.86607 39.6719 1.56738L40.7508 15.9998Z" fill="#F9F5E9"/>
<path fill-rule="evenodd" clip-rule="evenodd" d="M36.8274 16.0002H37.5836L38.6847 1.27782C37.6932 0.996985 36.6828 0.76022 35.6738 0.572266L36.8274 16.0002Z" fill="#F9F5E9"/>
<path fill-rule="evenodd" clip-rule="evenodd" d="M32.9052 15.9999H33.6614L34.8259 0.426235C33.8057 0.263778 32.761 0.146853 31.7148 0.0791016L32.9052 15.9999Z" fill="#F9F5E9"/>
<path fill-rule="evenodd" clip-rule="evenodd" d="M25.0593 16H25.8155L27.0048 0.0966797C25.9736 0.172444 24.9304 0.298112 23.8984 0.471497L25.0593 16Z" fill="#F9F5E9"/>
<path fill-rule="evenodd" clip-rule="evenodd" d="M9.36915 15.9998H10.1253L10.9023 5.61316C10.1457 6.11656 9.4103 6.6491 8.71094 7.19948L9.36915 15.9998Z" fill="#F9F5E9"/>
<path fill-rule="evenodd" clip-rule="evenodd" d="M17.2133 15.9996H17.9695L19.0415 1.6626C18.0707 1.9795 17.1237 2.33574 16.2207 2.72367L17.2133 15.9996Z" fill="#F9F5E9"/>
<path fill-rule="evenodd" clip-rule="evenodd" d="M13.2917 15.9998H14.0479L14.999 3.28369C14.1357 3.69712 13.2779 4.15462 12.4434 4.64746L13.2917 15.9998Z" fill="#F9F5E9"/>
<path fill-rule="evenodd" clip-rule="evenodd" d="M21.1379 16H21.8937L23.0437 0.621948C22.0493 0.815731 21.0414 1.0616 20.043 1.3541L21.1379 16Z" fill="#F9F5E9"/>
<path fill-rule="evenodd" clip-rule="evenodd" d="M44.6737 15.9997H45.4299L46.2899 4.49108C45.4587 4.01136 44.5937 3.56078 43.7129 3.14954L44.6737 15.9997Z" fill="#F9F5E9"/>
<path fill-rule="evenodd" clip-rule="evenodd" d="M27.791 0.0494516L28.9832 15.9998H29.7398L30.9334 0.0352457C29.766 -0.0157498 28.9778 -0.011743 27.791 0.0494516Z" fill="#F9F5E9"/>
<path fill-rule="evenodd" clip-rule="evenodd" d="M5.44557 15.9997H6.20176L6.73393 8.88074C6.16497 9.40636 5.59601 9.96986 5.03906 10.561L5.44557 15.9997Z" fill="#F9F5E9"/>
<path fill-rule="evenodd" clip-rule="evenodd" d="M52.5194 15.9994H53.2756L53.7025 10.2868C53.1605 9.72439 52.578 9.1638 51.9668 8.61523L52.5194 15.9994Z" fill="#F9F5E9"/>
<path fill-rule="evenodd" clip-rule="evenodd" d="M48.5978 15.9995H49.354L50.0275 6.99192C49.3289 6.45246 48.5832 5.92503 47.8066 5.4209L48.5978 15.9995Z" fill="#F9F5E9"/>
<path fill-rule="evenodd" clip-rule="evenodd" d="M2.5152 15.9996L2.63213 13.3555C2.07518 14.1098 1.36744 15.1913 0.869141 15.9996H2.5152Z" fill="#F9F5E9"/>
<path fill-rule="evenodd" clip-rule="evenodd" d="M56.2081 15.9994H58.1302C57.5463 15.0516 56.7351 13.8339 56.0605 12.9487L56.2081 15.9994Z" fill="#F9F5E9"/>
</svg>