<svg width="138" height="44" viewBox="0 0 138 44" fill="none" xmlns="http://www.w3.org/2000/svg">
<path fill-rule="evenodd" clip-rule="evenodd" d="M75.9379 10.6514H76.441L77.1072 1.73989C76.4793 1.4763 75.8455 1.2423 75.2196 1.04346L75.9379 10.6514Z" fill="#F9F5E9"/>
<path fill-rule="evenodd" clip-rule="evenodd" d="M73.3259 10.6513H73.8293L74.5623 0.850319C73.9023 0.663359 73.2296 0.50574 72.5579 0.380615L73.3259 10.6513Z" fill="#F9F5E9"/>
<path fill-rule="evenodd" clip-rule="evenodd" d="M70.7145 10.6513H71.2179L71.9931 0.283584C71.3139 0.175433 70.6184 0.0975935 69.922 0.0524902L70.7145 10.6513Z" fill="#F9F5E9"/>
<path fill-rule="evenodd" clip-rule="evenodd" d="M65.4913 10.6513H65.9947L66.7865 0.064209C66.1 0.114647 65.4055 0.198306 64.7185 0.313732L65.4913 10.6513Z" fill="#F9F5E9"/>
<path fill-rule="evenodd" clip-rule="evenodd" d="M55.0462 10.6514H55.5496L56.0668 3.73682C55.5631 4.07194 55.0736 4.42646 54.608 4.79286L55.0462 10.6514Z" fill="#F9F5E9"/>
<path fill-rule="evenodd" clip-rule="evenodd" d="M60.2684 10.6514H60.7718L61.4855 1.10693C60.8392 1.3179 60.2087 1.55506 59.6076 1.81331L60.2684 10.6514Z" fill="#F9F5E9"/>
<path fill-rule="evenodd" clip-rule="evenodd" d="M57.6573 10.6514H58.1607L58.7938 2.18604C58.2191 2.46126 57.6481 2.76583 57.0925 3.09392L57.6573 10.6514Z" fill="#F9F5E9"/>
<path fill-rule="evenodd" clip-rule="evenodd" d="M62.8803 10.6513H63.3835L64.149 0.413818C63.487 0.542823 62.816 0.706504 62.1514 0.901224L62.8803 10.6513Z" fill="#F9F5E9"/>
<path fill-rule="evenodd" clip-rule="evenodd" d="M78.5486 10.6515H79.052L79.6245 2.99002C79.0711 2.67066 78.4953 2.3707 77.9089 2.09692L78.5486 10.6515Z" fill="#F9F5E9"/>
<path fill-rule="evenodd" clip-rule="evenodd" d="M67.3095 0.0329208L68.1032 10.6513H68.6068L69.4015 0.0234637C68.6243 -0.010485 68.0995 -0.00781756 67.3095 0.0329208Z" fill="#F9F5E9"/>
<path fill-rule="evenodd" clip-rule="evenodd" d="M52.4341 10.6513H52.9375L53.2918 5.91211C52.9131 6.26202 52.5343 6.63716 52.1635 7.03072L52.4341 10.6513Z" fill="#F9F5E9"/>
<path fill-rule="evenodd" clip-rule="evenodd" d="M83.772 10.6514H84.2754L84.5596 6.84838C84.1988 6.47398 83.8111 6.10079 83.4042 5.7356L83.772 10.6514Z" fill="#F9F5E9"/>
<path fill-rule="evenodd" clip-rule="evenodd" d="M81.1608 10.6513H81.6642L82.1126 4.65475C81.6475 4.29562 81.1511 3.94449 80.6341 3.60889L81.1608 10.6513Z" fill="#F9F5E9"/>
<path fill-rule="evenodd" clip-rule="evenodd" d="M50.4831 10.6514L50.5609 8.89111C50.1902 9.39331 49.719 10.1133 49.3873 10.6514H50.4831Z" fill="#F9F5E9"/>
<path fill-rule="evenodd" clip-rule="evenodd" d="M86.2271 10.6512H87.5067C87.118 10.0203 86.5779 9.20961 86.1288 8.62036L86.2271 10.6512Z" fill="#F9F5E9"/>
<path fill-rule="evenodd" clip-rule="evenodd" d="M43.0314 41.9604H44.2596V42.716L44.2281 42.7477C44.1988 42.7766 44.1486 42.8147 44.0787 42.861C44.0072 42.9083 43.9228 42.9565 43.8275 43.004C43.7349 43.0506 43.6131 43.0901 43.4652 43.1219C43.3168 43.1534 43.1585 43.1697 42.9955 43.1697C42.5052 43.1697 42.0857 42.998 41.7477 42.659C41.4099 42.32 41.2384 41.901 41.2384 41.4131C41.2384 40.9252 41.4104 40.5066 41.7494 40.1688C42.0881 39.8313 42.5074 39.6599 42.9955 39.6599C43.1798 39.6599 43.3566 39.686 43.5212 39.737C43.6881 39.7891 43.8244 39.8458 43.9262 39.9055C44.029 39.9656 44.1265 40.0381 44.2157 40.1211C44.3285 40.2251 44.3719 40.2721 44.3886 40.293C44.4143 40.3255 44.4337 40.351 44.4476 40.3689L44.4934 40.4295L45.0773 39.8415L44.9658 39.6996C44.9102 39.6295 44.8263 39.549 44.7094 39.4537C44.5955 39.3606 44.4614 39.2658 44.3113 39.1717C44.1573 39.0755 43.9611 38.993 43.7281 38.9266C43.4953 38.8599 43.2487 38.8264 42.9955 38.8264C42.247 38.8264 41.6102 39.0791 41.1022 39.5772C40.5944 40.076 40.3371 40.6936 40.3371 41.4131C40.3371 42.1328 40.5944 42.7502 41.1022 43.2487C41.6099 43.747 42.2467 43.9997 42.9955 43.9997C43.2596 43.9997 43.5193 43.966 43.7664 43.8998C44.0118 43.8346 44.2143 43.7601 44.3687 43.6789C44.521 43.5986 44.6658 43.5033 44.7999 43.3949C44.9352 43.2856 45.0206 43.2106 45.0606 43.1653C45.0994 43.1221 45.128 43.0884 45.1469 43.0647L45.1612 43.0467V41.1269H43.0314V41.9604Z" fill="#F9F5E9"/>
<path fill-rule="evenodd" clip-rule="evenodd" d="M54.7433 39.7285H55.9732C56.1849 39.7285 56.357 39.7976 56.4994 39.9399C56.6417 40.082 56.7108 40.2547 56.7108 40.4676C56.7108 40.6807 56.6417 40.8534 56.4994 40.9955C56.357 41.1378 56.1849 41.2069 55.9732 41.2069H54.7433V39.7285ZM56.6919 41.9228C56.7671 41.8927 56.8529 41.8393 56.9545 41.7593C57.0522 41.6827 57.1514 41.592 57.2487 41.4897C57.3503 41.3835 57.4376 41.2377 57.5086 41.0561C57.5799 40.875 57.616 40.6776 57.616 40.4695C57.616 40.0265 57.4582 39.6492 57.1478 39.348C56.8381 39.0475 56.4429 38.8953 55.9732 38.8953H53.8417V43.9315H54.7433V42.0404H55.76L56.8098 43.9315H57.804L56.6618 41.9363L56.6919 41.9228Z" fill="#F9F5E9"/>
<path fill-rule="evenodd" clip-rule="evenodd" d="M68.6727 43.1697C68.1838 43.1697 67.7648 42.998 67.4267 42.659C67.0892 42.32 66.9178 41.901 66.9178 41.4131C66.9178 40.9252 67.0892 40.5066 67.4267 40.1688C67.7645 39.8308 68.1836 39.6596 68.6727 39.6596C69.162 39.6596 69.581 39.8308 69.9188 40.1688C70.2566 40.5066 70.4278 40.9252 70.4278 41.4131C70.4278 41.901 70.2566 42.32 69.9186 42.659C69.5808 42.998 69.1618 43.1697 68.6727 43.1697ZM68.6727 38.8264C67.9253 38.8264 67.2893 39.0791 66.7815 39.5772C66.2735 40.0755 66.0162 40.6933 66.0162 41.4131C66.0162 42.1328 66.2735 42.7504 66.7815 43.249C67.289 43.7468 67.9253 43.9995 68.6727 43.9995C69.4203 43.9995 70.0568 43.7468 70.5641 43.249C71.0721 42.7502 71.3294 42.1323 71.3294 41.4131C71.3294 40.6936 71.0721 40.0757 70.5641 39.5772C70.0563 39.0791 69.42 38.8264 68.6727 38.8264Z" fill="#F9F5E9"/>
<path fill-rule="evenodd" clip-rule="evenodd" d="M83.1622 41.9058C83.1622 42.2487 83.039 42.5481 82.7963 42.7965C82.5538 43.0443 82.2638 43.1699 81.934 43.1699C81.6039 43.1699 81.3139 43.0448 81.0712 42.7984C80.8285 42.5511 80.7055 42.2506 80.7055 41.9058V38.8953H79.8005V41.9058C79.8005 42.4798 80.0101 42.9781 80.4237 43.3859C80.8372 43.7933 81.3454 43.9999 81.934 43.9999C82.5225 43.9999 83.0305 43.7938 83.4437 43.3876C83.8574 42.9812 84.0672 42.4827 84.0672 41.9058V38.8953H83.1622V41.9058Z" fill="#F9F5E9"/>
<path fill-rule="evenodd" clip-rule="evenodd" d="M93.7178 39.7285H94.842C95.0675 39.7285 95.2547 39.8048 95.4145 39.9622C95.5738 40.1198 95.6514 40.3085 95.6514 40.5393C95.6514 40.7704 95.5738 40.9586 95.4148 41.1148C95.255 41.2712 95.0675 41.3473 94.842 41.3473H93.7178V39.7285ZM96.0627 39.3739C95.7356 39.0565 95.325 38.8953 94.842 38.8953H92.8162V43.9315H93.7178V42.1805H94.842C95.3248 42.1805 95.7356 42.02 96.0627 41.7035C96.3903 41.3869 96.5564 40.995 96.5564 40.5393C96.5564 40.0842 96.3903 39.6921 96.0627 39.3739Z" fill="#F9F5E9"/>
<path fill-rule="evenodd" clip-rule="evenodd" d="M9.89119 22.1867C9.89119 22.7905 9.67319 23.2609 9.24374 23.5883C8.82666 23.9035 8.23013 24.0636 7.47138 24.0636H2.00782V20.1013H7.47138C8.23013 20.1013 8.82666 20.2638 9.24374 20.579C9.67319 20.9039 9.89119 21.3744 9.89119 21.9806V22.1867ZM10.769 19.3229C9.98334 18.6682 8.89213 18.3384 7.52691 18.3384H0V30.3126H2.00782V25.8265H7.52691C8.89213 25.8265 9.986 25.4967 10.769 24.842C11.545 24.1994 11.9378 23.3046 11.9378 22.1867V21.9806C11.9378 20.8482 11.5547 19.9776 10.769 19.3229Z" fill="#F9F5E9"/>
<path fill-rule="evenodd" clip-rule="evenodd" d="M18.2617 25.7343L20.8152 20.1255L23.3686 25.7343H18.2617ZM22.0034 18.3384H19.627L14.0594 30.1622V30.3126H16.1642L17.4395 27.4972H24.1906L25.4661 30.3126H27.5731V30.1622L22.0034 18.3384Z" fill="#F9F5E9"/>
<path fill-rule="evenodd" clip-rule="evenodd" d="M34.0656 28.5497V18.3384H32.0599V30.3126H42.7758V28.5497H34.0656Z" fill="#F9F5E9"/>
<path fill-rule="evenodd" clip-rule="evenodd" d="M49.075 28.5497V18.3384H47.0674V30.3126H57.7853V28.5497H49.075Z" fill="#F9F5E9"/>
<path fill-rule="evenodd" clip-rule="evenodd" d="M64.9874 25.7343L67.5408 20.1255L70.0918 25.7343H64.9874ZM68.7266 18.3384H66.3502L60.7826 30.1622V30.3126H62.8877L64.1653 27.4972H70.9139L72.1893 30.3126H74.2968V30.1622L68.7266 18.3384Z" fill="#F9F5E9"/>
<path fill-rule="evenodd" clip-rule="evenodd" d="M89.2563 24.4952C89.2563 25.8556 88.8586 26.8813 88.0802 27.5506C87.3067 28.2126 86.1233 28.5497 84.5641 28.5497H80.7885V20.1013H84.5447C87.6704 20.1013 89.2563 21.4811 89.2563 24.1945V24.4952ZM89.6033 19.8345C88.4709 18.8428 86.7734 18.3384 84.5641 18.3384H78.7831V30.3126H84.5641C86.7759 30.3126 88.4709 29.813 89.6033 28.8261C90.7307 27.844 91.3007 26.3745 91.3007 24.4564V24.2139C91.3007 22.2958 90.7307 20.8239 89.6033 19.8345Z" fill="#F9F5E9"/>
<path fill-rule="evenodd" clip-rule="evenodd" d="M96.5746 30.3126H98.5822V18.3384H96.5746V30.3126Z" fill="#F9F5E9"/>
<path fill-rule="evenodd" clip-rule="evenodd" d="M114.244 18.3384V25.0942C114.244 26.2169 113.898 27.1068 113.214 27.7422C112.535 28.3775 111.582 28.7 110.377 28.7C109.174 28.7 108.223 28.3775 107.549 27.7422C106.873 27.1068 106.529 26.2145 106.529 25.0942V18.3384H104.52V25.0578C104.52 26.149 104.765 27.119 105.248 27.9386C105.731 28.7582 106.419 29.4032 107.292 29.8543C107.731 30.0822 108.211 30.2519 108.725 30.3659C109.239 30.4799 109.792 30.5381 110.377 30.5381C111.545 30.5381 112.586 30.3077 113.471 29.8518C114.351 29.4008 115.042 28.7582 115.525 27.9386C116.007 27.1165 116.252 26.149 116.252 25.0578V18.3384H114.244Z" fill="#F9F5E9"/>
<path fill-rule="evenodd" clip-rule="evenodd" d="M134.601 18.3384L129.747 28.2174L124.873 18.3384H121.846V30.3126H123.832V20.499L128.634 30.3126H130.843L135.642 20.5378V30.3126H137.63V18.3384H134.601Z" fill="#F9F5E9"/>
</svg>
