<svg width="19" height="19" viewBox="0 0 19 19" fill="none" xmlns="http://www.w3.org/2000/svg">
<path d="M-0.840034 18.5H21.31C22.2 18.43 22.98 17.9 23.38 17.12H-2.91003C-2.51003 17.91 -1.71003 18.43 -0.840034 18.5Z" fill="#ED5565"/>
<path d="M-3.17004 15.73V16.24C-3.14004 16.54 -3.05004 16.84 -2.91004 17.11H23.37C23.51 16.84 23.6 16.55 23.63 16.24V15.73H-3.17004Z" fill="white"/>
<path d="M23.63 14.34H-3.17004V15.73H23.63V14.34Z" fill="#ED5565"/>
<path d="M23.63 12.96H-3.17004V14.34H23.63V12.96Z" fill="white"/>
<path d="M23.63 11.58H-3.17004V12.96H23.63V11.58Z" fill="#ED5565"/>
<path d="M23.63 10.2H-3.17004V11.58H23.63V10.19V10.2Z" fill="white"/>
<path d="M23.63 8.8H-3.17004V10.2H23.63V8.8Z" fill="#ED5565"/>
<path d="M23.63 7.42H-3.17004V8.81H23.63V7.42Z" fill="white"/>
<path d="M23.63 6.03999H-3.17004V7.41999H23.63V6.03999Z" fill="#ED5565"/>
<path d="M23.63 4.64999H-3.17004V6.03999H23.63V4.64999Z" fill="white"/>
<path d="M23.63 3.27H-3.17004V4.65H23.63V3.27Z" fill="#ED5565"/>
<path d="M23.63 3.27V2.75C23.6 2.45 23.51 2.15 23.38 1.88H-2.91004C-3.04004 2.15 -3.13004 2.45 -3.17004 2.75V3.27H23.63Z" fill="white"/>
<path d="M21.31 0.5H-0.830024C-1.72002 0.57 -2.50002 1.1 -2.90002 1.88H23.38C23.1815 1.49236 22.887 1.16201 22.5247 0.920434C22.1623 0.678862 21.7441 0.534118 21.31 0.5Z" fill="#ED5565"/>
<path d="M9.54997 10.2V0.5H-0.840034C-1.42866 0.549684 -1.98177 0.802185 -2.40491 1.21438C-2.82804 1.62657 -3.09495 2.17288 -3.16003 2.76V10.19H9.54997V10.2Z" fill="#4A89DC"/>
<path d="M1.26996 2.49L1.16996 2.81H0.829956L1.10996 3.01L1.00996 3.33L1.26996 3.13L1.54996 3.33L1.44996 3.01L1.71996 2.81H1.37996L1.27996 2.49H1.26996ZM1.26996 4.11L1.16996 4.43H0.829956L1.10996 4.63L1.00996 4.95L1.26996 4.75L1.54996 4.95L1.44996 4.63L1.71996 4.43H1.37996L1.27996 4.11H1.26996ZM1.26996 5.74L1.16996 6.06H0.829956L1.10996 6.26L1.00996 6.58L1.26996 6.38L1.54996 6.58L1.44996 6.26L1.71996 6.06H1.37996L1.27996 5.74H1.26996ZM1.37996 7.68L1.27996 7.37L1.16996 7.68H0.829956L1.10996 7.88L1.00996 8.21L1.26996 8.01L1.54996 8.21L1.44996 7.88L1.71996 7.68H1.37996ZM2.22996 1.67L2.12996 2H1.78996L2.05996 2.2L1.95996 2.51L2.22996 2.31L2.49996 2.51L2.39996 2.19L2.66996 1.99H2.33996L2.23996 1.67H2.22996ZM2.22996 3.3L2.12996 3.62H1.78996L2.05996 3.82L1.95996 4.14L2.22996 3.94L2.49996 4.14L2.39996 3.82L2.66996 3.62H2.33996L2.23996 3.3H2.22996ZM2.22996 4.92L2.12996 5.25H1.78996L2.05996 5.45L1.95996 5.77L2.22996 5.57L2.49996 5.77L2.39996 5.45L2.66996 5.25H2.33996L2.23996 4.92H2.22996ZM2.22996 6.55L2.12996 6.87H1.78996L2.05996 7.07L1.95996 7.39L2.22996 7.19L2.49996 7.39L2.39996 7.07L2.66996 6.87H2.33996L2.23996 6.55H2.22996ZM2.32996 8.5L2.22996 8.18L2.12996 8.5H1.78996L2.05996 8.7L1.95996 9.02L2.22996 8.82L2.49996 9.02L2.39996 8.7L2.66996 8.5H2.33996H2.32996ZM3.18996 2.49L3.08996 2.81H2.74996L3.01996 3.01L2.91996 3.33L3.18996 3.13L3.45996 3.33L3.35996 3.01L3.62996 2.81H3.28996L3.18996 2.49ZM3.18996 4.11L3.08996 4.43H2.74996L3.01996 4.63L2.91996 4.95L3.18996 4.75L3.45996 4.95L3.35996 4.63L3.62996 4.43H3.28996L3.18996 4.11ZM3.18996 5.74L3.08996 6.06H2.74996L3.01996 6.26L2.91996 6.58L3.18996 6.38L3.45996 6.58L3.35996 6.26L3.62996 6.06H3.28996L3.18996 5.74ZM3.28996 7.68L3.18996 7.37L3.08996 7.68H2.74996L3.01996 7.88L2.91996 8.21L3.18996 8.01L3.45996 8.21L3.35996 7.88L3.62996 7.68H3.28996ZM4.13996 1.67L4.03996 2H3.69996L3.97996 2.2L3.87996 2.51L4.13996 2.31L4.41996 2.51L4.31996 2.19L4.58996 1.99H4.24996L4.14996 1.67H4.13996ZM4.13996 3.3L4.03996 3.62H3.69996L3.97996 3.82L3.87996 4.14L4.13996 3.94L4.41996 4.14L4.31996 3.82L4.58996 3.62H4.24996L4.14996 3.3H4.13996ZM4.13996 4.92L4.03996 5.25H3.69996L3.97996 5.45L3.87996 5.77L4.13996 5.57L4.41996 5.77L4.31996 5.45L4.58996 5.25H4.24996L4.14996 4.92H4.13996ZM4.13996 6.55L4.03996 6.87H3.69996L3.97996 7.07L3.87996 7.39L4.13996 7.19L4.41996 7.39L4.31996 7.07L4.58996 6.87H4.24996L4.14996 6.55H4.13996ZM4.24996 8.5L4.14996 8.18L4.04996 8.5H3.69996L3.97996 8.7L3.87996 9.02L4.13996 8.82L4.41996 9.02L4.31996 8.7L4.58996 8.5H4.24996ZM5.09996 2.49L4.99996 2.81H4.65996L4.92996 3.01L4.82996 3.33L5.09996 3.13L5.37996 3.33L5.26996 3.01L5.53996 2.81H5.20996L5.09996 2.49ZM5.09996 4.11L4.99996 4.43H4.65996L4.92996 4.63L4.82996 4.95L5.09996 4.75L5.37996 4.95L5.26996 4.63L5.53996 4.43H5.20996L5.09996 4.11ZM5.09996 5.74L4.99996 6.06H4.65996L4.92996 6.26L4.82996 6.58L5.09996 6.38L5.37996 6.58L5.26996 6.26L5.53996 6.06H5.20996L5.09996 5.74ZM5.20996 7.68L5.09996 7.37L4.99996 7.68H4.65996L4.92996 7.88L4.82996 8.21L5.09996 8.01L5.37996 8.21L5.26996 7.88L5.53996 7.68H5.20996ZM6.05996 1.67L5.95996 2H5.61996L5.88996 2.2L5.78996 2.51L6.05996 2.31L6.32996 2.51L6.22996 2.19L6.49996 1.99H6.15996L6.05996 1.67ZM6.05996 3.3L5.95996 3.62H5.61996L5.88996 3.82L5.78996 4.14L6.05996 3.94L6.32996 4.14L6.22996 3.82L6.49996 3.62H6.15996L6.05996 3.3ZM6.05996 4.92L5.95996 5.25H5.61996L5.88996 5.45L5.78996 5.77L6.05996 5.57L6.32996 5.77L6.22996 5.45L6.49996 5.25H6.15996L6.05996 4.92ZM6.05996 6.55L5.95996 6.87H5.61996L5.88996 7.07L5.78996 7.39L6.05996 7.19L6.32996 7.39L6.22996 7.07L6.49996 6.87H6.15996L6.05996 6.55ZM6.15996 8.5L6.05996 8.18L5.95996 8.5H5.61996L5.88996 8.7L5.78996 9.02L6.05996 8.82L6.32996 9.02L6.22996 8.7L6.49996 8.5H6.15996ZM7.00996 2.49L6.90996 2.81H6.56996L6.83996 3.01L6.73996 3.33L7.00996 3.13L7.28996 3.33L7.18996 3.01L7.45996 2.81H7.11996L7.01996 2.49H7.00996ZM7.00996 4.11L6.90996 4.43H6.56996L6.83996 4.63L6.73996 4.95L7.00996 4.75L7.28996 4.95L7.18996 4.63L7.45996 4.43H7.11996L7.01996 4.11H7.00996ZM7.00996 5.74L6.90996 6.06H6.56996L6.83996 6.26L6.73996 6.58L7.00996 6.38L7.28996 6.58L7.18996 6.26L7.45996 6.06H7.11996L7.01996 5.74H7.00996ZM7.11996 7.68L7.01996 7.37L6.90996 7.68H6.56996L6.83996 7.88L6.73996 8.21L7.00996 8.01L7.28996 8.21L7.18996 7.88L7.45996 7.68H7.11996ZM7.79996 2.2L7.69996 2.51L7.96996 2.31L8.23996 2.51L8.13996 2.19L8.40996 1.99H8.06996L7.96996 1.67L7.86996 2H7.52996L7.79996 2.2ZM7.96996 3.3L7.86996 3.62H7.52996L7.79996 3.82L7.69996 4.14L7.96996 3.94L8.23996 4.14L8.13996 3.82L8.40996 3.62H8.06996L7.96996 3.3ZM7.96996 4.92L7.86996 5.25H7.52996L7.79996 5.45L7.69996 5.77L7.96996 5.57L8.23996 5.77L8.13996 5.45L8.40996 5.25H8.06996L7.96996 4.92ZM7.96996 6.55L7.86996 6.87H7.52996L7.79996 7.07L7.69996 7.39L7.96996 7.19L8.23996 7.39L8.13996 7.07L8.40996 6.87H8.06996L7.96996 6.55ZM8.06996 8.5L7.96996 8.18L7.86996 8.5H7.52996L7.79996 8.7L7.69996 9.02L7.96996 8.82L8.23996 9.02L8.13996 8.7L8.40996 8.5H8.06996Z" fill="white"/>
</svg>
