<svg width="33" height="34" viewBox="0 0 33 34" fill="none" xmlns="http://www.w3.org/2000/svg">
<path d="M10.663 22.5295V25.3558H21.2978V28.0863H10.663V33.6911H5.8247V28.0863H0.938477V25.3558H5.8247V0.158203H18.9984C23.3736 0.158203 26.7908 1.13225 29.2499 3.08036C31.7089 4.99653 32.9385 7.74303 32.9385 11.3199C32.9385 14.9287 31.7089 17.7071 29.2499 19.6552C26.7908 21.5714 23.3736 22.5295 18.9984 22.5295H10.663ZM28.1002 11.3678C28.1002 9.10032 27.3177 7.3598 25.7528 6.14623C24.188 4.93265 21.9365 4.32587 18.9984 4.32587H10.663V18.5534H18.9984C21.9045 18.5534 24.1401 17.9307 25.7049 16.6851C27.3018 15.4077 28.1002 13.6352 28.1002 11.3678Z" fill="#F46046"/>
</svg>
