<svg width="37" height="37" viewBox="0 0 37 37" fill="none" xmlns="http://www.w3.org/2000/svg">
<path d="M31.4854 28.3592C32.8144 29.7062 34.8884 31.5436 35.9938 32.9442C36.565 33.6677 36.5502 34.245 36.0326 34.9962C35.809 35.3218 34.2618 36.778 33.9198 36.8742C33.454 37.0056 33.1712 36.8761 32.807 36.5967C30.9752 34.7982 29.1988 32.9313 27.3688 31.1402C26.951 30.7313 25.3484 29.486 25.3244 29.0179C25.3096 28.696 25.6386 28.4961 25.4741 28.2334C25.012 28.0706 24.0119 26.6607 23.6995 26.5811C23.4888 26.5274 22.9712 27.0252 22.742 27.1639C11.2389 34.1599 -2.44173 23.5947 1.48076 10.7759C4.86348 -0.277671 19.8103 -2.61643 26.6072 6.77562C30.5057 12.1618 30.123 19.711 25.7236 24.679L27.4261 26.3776C27.805 26.4775 28.1414 25.3729 28.8697 25.7522L31.4798 28.3592H31.4854ZM14.337 4.707C7.05024 5.26394 2.45121 12.9445 5.64909 19.6314C9.28876 27.2435 19.9397 27.6728 24.1191 20.3197C28.2339 13.0795 22.5646 4.07976 14.337 4.70885V4.707Z" fill="#F46046"/>
</svg>
