<svg width="29" height="44" viewBox="0 0 29 44" fill="none" xmlns="http://www.w3.org/2000/svg">
<path d="M28.924 13.8925C28.7533 13.9201 28.6597 13.7731 28.5551 13.6647C27.1456 12.2116 26.4996 11.2949 24.4533 10.5252C23.1154 10.0218 19.131 9.75731 17.9124 10.4333C17.0315 10.922 18.5529 10.8375 18.7805 10.8853C24.033 11.9599 26.6134 18.318 23.3723 22.6902C23.1025 23.0557 22.0454 24.1874 21.6416 24.259C21.4416 24.2939 21.5022 24.1653 21.5003 24.0257C21.4948 23.6326 21.7499 22.9565 21.783 22.4716C22.0179 19.0289 19.6816 14.9158 16.2184 14.0027C16.1102 13.9752 15.8257 13.9458 15.7468 13.9972C15.4843 14.5373 15.7247 15.1454 15.7376 15.6781C15.8349 19.9125 15.978 24.1194 16.2845 28.3391C16.5781 32.3843 17.0535 36.3983 17.4921 40.4306C17.6224 40.877 18.8667 40.8035 19.2503 40.8715C20.6378 41.1177 22.2326 41.5034 23.5613 41.9664C24.4202 42.2658 25.3874 42.6571 26.0848 43.245C25.2406 43.3129 24.4055 43.1109 23.5687 43.0594C18.6593 42.7508 13.7427 42.7526 8.81131 42.7839L2.08322 43.2468C2.03367 42.9951 2.14745 43.0907 2.26858 43.0245C4.77922 41.6725 7.62756 41.1415 10.4043 40.6639C10.5805 39.5451 10.8503 38.4356 11.0485 37.3205C12.4066 29.7114 13.0691 21.8304 12.9829 14.034L12.8966 13.8429C9.29581 13.7419 6.03271 16.3983 5.14995 19.8574C4.96275 20.5923 4.92972 21.3546 4.82694 22.1023C4.80859 22.2327 4.9132 22.3724 4.6948 22.3338C4.40299 22.2162 3.76249 20.9854 3.62301 20.6547C1.43721 15.4522 5.038 9.89509 10.6466 9.76282C11.0485 9.75363 11.4981 10.0145 11.7899 9.72424C8.67366 6.86027 3.51106 6.87129 0.295671 9.58646C0.227766 8.05619 1.45189 6.25588 2.58975 5.27857C5.50048 2.7765 10.2153 2.79855 12.7057 5.87561C12.9443 6.17138 13.082 6.52225 13.2728 6.77577C13.3518 6.88048 13.3701 6.96315 13.5334 6.92641C13.6949 6.09422 13.717 5.26203 14.0693 4.48129C14.7667 2.94367 16.3047 1.46852 17.883 0.869639C20.9571 -0.295054 23.9412 0.533458 26.1747 2.84447C26.0683 3.09982 24.813 2.88121 24.4771 2.88672C22.473 2.91979 20.3551 3.73361 18.8465 5.04526C17.9271 5.84438 16.9874 6.92824 16.6497 8.11865L18.4923 6.8915C22.1684 4.93871 26.9345 6.72249 28.4083 10.6079C28.5569 10.9992 28.924 12.2079 28.924 12.568V13.898V13.8925Z" fill="#F46046"/>
</svg>
