<svg width="486" height="441" viewBox="0 0 486 441" fill="none" xmlns="http://www.w3.org/2000/svg">
<g opacity="0.05">
<g clip-path="url(#clip0_264_318)">
<mask id="mask0_264_318" style="mask-type:luminance" maskUnits="userSpaceOnUse" x="0" y="-9" width="486" height="487">
<path d="M486 -8.34937H0V477.434H486V-8.34937Z" fill="white"/>
</mask>
<g mask="url(#mask0_264_318)">
<path d="M474.427 460.094C458.73 460.094 446.494 452.892 434.651 445.925C422.857 438.993 411.725 432.431 397.293 432.431C382.86 432.431 371.716 438.993 359.935 445.925C348.091 452.892 335.843 460.094 320.159 460.094C304.474 460.094 292.226 452.892 280.383 445.925C268.589 438.993 257.457 432.431 243.025 432.431C228.592 432.431 217.448 438.993 205.666 445.925C193.823 452.892 181.575 460.094 165.89 460.094C150.206 460.094 137.958 452.892 126.115 445.925C114.32 438.993 103.189 432.431 88.7564 432.431C74.3237 432.431 63.18 438.993 51.3982 445.925C39.555 452.892 27.3068 460.094 11.6223 460.094C4.72503 460.094 -2.09861 458.694 -9.24133 455.81L-7.51088 447.713C-0.932696 450.361 5.32639 451.643 11.6223 451.643C26.055 451.643 37.1987 445.082 48.9805 438.149C60.8237 431.183 73.0718 423.981 88.7564 423.981C104.441 423.981 116.689 431.183 128.532 438.149C140.326 445.082 151.458 451.643 165.89 451.643C180.323 451.643 191.467 445.082 203.249 438.149C215.092 431.183 227.34 423.981 243.025 423.981C258.709 423.981 270.957 431.183 282.8 438.149C294.595 445.082 305.726 451.643 320.159 451.643C334.591 451.643 345.735 445.082 357.517 438.149C369.36 431.183 381.608 423.981 397.293 423.981C412.977 423.981 425.225 431.183 437.069 438.149C448.863 445.082 459.994 451.643 474.427 451.643C480.735 451.643 486.994 450.361 493.56 447.713L495.291 455.81C488.148 458.694 481.324 460.094 474.427 460.094Z" fill="white"/>
<path d="M474.427 418.583C458.73 418.583 446.494 411.381 434.651 404.414C422.857 397.482 411.725 390.92 397.293 390.92C382.86 390.92 371.716 397.482 359.935 404.414C348.091 411.381 335.843 418.583 320.159 418.583C304.474 418.583 292.226 411.381 280.383 404.414C268.589 397.482 257.457 390.92 243.025 390.92C228.592 390.92 217.448 397.482 205.666 404.414C193.823 411.381 181.575 418.583 165.89 418.583C150.206 418.583 137.958 411.381 126.115 404.414C114.32 397.482 103.189 390.92 88.7564 390.92C74.3237 390.92 63.18 397.482 51.3982 404.414C39.555 411.381 27.3068 418.583 11.6223 418.583C4.72503 418.583 -2.09861 417.183 -9.24133 414.299L-7.51088 406.202C-0.932696 408.85 5.32639 410.132 11.6223 410.132C26.055 410.132 37.1987 403.571 48.9805 396.638C60.8237 389.672 73.0718 382.47 88.7564 382.47C104.441 382.47 116.689 389.672 128.532 396.638C140.326 403.571 151.458 410.132 165.89 410.132C180.323 410.132 191.467 403.571 203.249 396.638C215.092 389.672 227.34 382.47 243.025 382.47C258.709 382.47 270.957 389.672 282.8 396.638C294.595 403.571 305.726 410.132 320.159 410.132C334.591 410.132 345.735 403.571 357.517 396.638C369.36 389.672 381.608 382.47 397.293 382.47C412.977 382.47 425.225 389.672 437.069 396.638C448.863 403.571 459.994 410.132 474.427 410.132C480.735 410.132 486.994 408.85 493.56 406.202L495.291 414.299C488.148 417.183 481.324 418.583 474.427 418.583Z" fill="white"/>
<path d="M474.427 377.089C458.73 377.089 446.494 369.887 434.651 362.92C422.857 355.988 411.725 349.426 397.293 349.426C382.86 349.426 371.716 355.988 359.935 362.92C348.091 369.887 335.843 377.089 320.159 377.089C304.474 377.089 292.226 369.887 280.383 362.92C268.589 355.988 257.457 349.426 243.025 349.426C228.592 349.426 217.448 355.988 205.666 362.92C193.823 369.887 181.575 377.089 165.89 377.089C150.206 377.089 137.958 369.887 126.115 362.92C114.32 355.988 103.189 349.426 88.7564 349.426C74.3237 349.426 63.18 355.988 51.3982 362.92C39.555 369.887 27.3068 377.089 11.6223 377.089C4.72503 377.089 -2.09861 375.689 -9.24133 372.805L-7.51088 364.708C-0.932696 367.357 5.32639 368.638 11.6223 368.638C26.055 368.638 37.1987 362.077 48.9805 355.144C60.8237 348.178 73.0718 340.976 88.7564 340.976C104.441 340.976 116.689 348.178 128.532 355.144C140.326 362.077 151.458 368.638 165.89 368.638C180.323 368.638 191.467 362.077 203.249 355.144C215.092 348.178 227.34 340.976 243.025 340.976C258.709 340.976 270.957 348.178 282.8 355.144C294.595 362.077 305.726 368.638 320.159 368.638C334.591 368.638 345.735 362.077 357.517 355.144C369.36 348.178 381.608 340.976 397.293 340.976C412.977 340.976 425.225 348.178 437.069 355.144C448.863 362.077 459.994 368.638 474.427 368.638C480.735 368.638 486.994 367.357 493.56 364.708L495.291 372.805C488.148 375.689 481.324 377.089 474.427 377.089Z" fill="white"/>
<path d="M474.427 335.595C458.73 335.595 446.494 328.393 434.651 321.426C422.857 314.494 411.726 307.932 397.293 307.932C382.86 307.932 371.717 314.494 359.935 321.426C348.092 328.393 335.843 335.595 320.159 335.595C304.474 335.595 292.226 328.393 280.383 321.426C268.589 314.494 257.458 307.932 243.025 307.932C228.592 307.932 217.448 314.494 205.667 321.426C193.823 328.393 181.575 335.595 165.891 335.595C150.206 335.595 137.958 328.393 126.115 321.426C114.321 314.494 103.189 307.932 88.7566 307.932C74.3239 307.932 63.1803 314.494 51.3985 321.426C39.5553 328.393 27.3071 335.595 11.6225 335.595C4.72528 335.595 -2.09836 334.195 -9.24109 331.311L-7.51063 323.214C-0.932452 325.862 5.32664 327.144 11.6225 327.144C26.0553 327.144 37.1989 320.583 48.9807 313.65C60.8239 306.684 73.0721 299.482 88.7566 299.482C104.441 299.482 116.689 306.684 128.533 313.65C140.327 320.583 151.458 327.144 165.891 327.144C180.323 327.144 191.467 320.583 203.249 313.65C215.092 306.684 227.34 299.482 243.025 299.482C258.709 299.482 270.958 306.684 282.801 313.65C294.595 320.583 305.726 327.144 320.159 327.144C334.592 327.144 345.735 320.583 357.517 313.65C369.36 306.684 381.608 299.482 397.293 299.482C412.978 299.482 425.226 306.684 437.069 313.65C448.863 320.583 459.994 327.144 474.427 327.144C480.723 327.144 486.982 325.862 493.56 323.214L495.291 331.311C488.148 334.195 481.324 335.595 474.427 335.595Z" fill="white"/>
<path d="M474.427 294.084C458.73 294.084 446.494 286.882 434.651 279.916C422.857 272.983 411.725 266.422 397.293 266.422C382.86 266.422 371.716 272.983 359.935 279.916C348.091 286.882 335.843 294.084 320.159 294.084C304.474 294.084 292.226 286.882 280.383 279.916C268.589 272.983 257.457 266.422 243.025 266.422C228.592 266.422 217.448 272.983 205.666 279.916C193.823 286.882 181.575 294.084 165.89 294.084C150.206 294.084 137.958 286.882 126.115 279.916C114.32 272.983 103.189 266.422 88.7564 266.422C74.3237 266.422 63.18 272.983 51.3982 279.916C39.555 286.882 27.3068 294.084 11.6223 294.084C4.72503 294.084 -2.09861 292.684 -9.24133 289.8L-7.51088 281.704C-0.932696 284.352 5.32639 285.634 11.6223 285.634C26.055 285.634 37.1987 279.072 48.9805 272.14C60.8237 265.173 73.0718 257.971 88.7564 257.971C104.441 257.971 116.689 265.173 128.532 272.14C140.326 279.072 151.458 285.634 165.89 285.634C180.323 285.634 191.467 279.072 203.249 272.14C215.092 265.173 227.34 257.971 243.025 257.971C258.709 257.971 270.957 265.173 282.8 272.14C294.595 279.072 305.726 285.634 320.159 285.634C334.591 285.634 345.735 279.072 357.517 272.14C369.36 265.173 381.608 257.971 397.293 257.971C412.977 257.971 425.225 265.173 437.069 272.14C448.863 279.072 459.994 285.634 474.427 285.634C480.723 285.634 486.982 284.352 493.56 281.704L495.291 289.8C488.148 292.684 481.324 294.084 474.427 294.084Z" fill="white"/>
<path d="M474.427 252.59C458.73 252.59 446.494 245.388 434.651 238.421C422.857 231.489 411.726 224.927 397.293 224.927C382.86 224.927 371.717 231.489 359.935 238.421C348.092 245.388 335.843 252.59 320.159 252.59C304.474 252.59 292.226 245.388 280.383 238.421C268.589 231.489 257.458 224.927 243.025 224.927C228.592 224.927 217.448 231.489 205.667 238.421C193.823 245.388 181.575 252.59 165.891 252.59C150.206 252.59 137.958 245.388 126.115 238.421C114.321 231.489 103.189 224.927 88.7566 224.927C74.3239 224.927 63.1803 231.489 51.3985 238.421C39.5553 245.388 27.3071 252.59 11.6225 252.59C4.72528 252.59 -2.09836 251.19 -9.24109 248.306L-7.51063 240.209C-0.932452 242.858 5.32664 244.139 11.6225 244.139C26.0553 244.139 37.1989 237.578 48.9807 230.645C60.8239 223.679 73.0721 216.477 88.7566 216.477C104.441 216.477 116.689 223.679 128.533 230.645C140.327 237.578 151.458 244.139 165.891 244.139C180.323 244.139 191.467 237.578 203.249 230.645C215.092 223.679 227.34 216.477 243.025 216.477C258.709 216.477 270.958 223.679 282.801 230.645C294.595 237.578 305.726 244.139 320.159 244.139C334.592 244.139 345.735 237.578 357.517 230.645C369.36 223.679 381.608 216.477 397.293 216.477C412.978 216.477 425.226 223.679 437.069 230.645C448.863 237.578 459.994 244.139 474.427 244.139C480.735 244.139 486.994 242.858 493.56 240.209L495.291 248.306C488.148 251.19 481.324 252.59 474.427 252.59Z" fill="white"/>
<path d="M474.427 211.096C458.73 211.096 446.494 203.894 434.651 196.928C422.857 189.995 411.725 183.434 397.293 183.434C382.86 183.434 371.716 189.995 359.935 196.928C348.091 203.894 335.843 211.096 320.159 211.096C304.474 211.096 292.226 203.894 280.383 196.928C268.589 189.995 257.457 183.434 243.025 183.434C228.592 183.434 217.448 189.995 205.666 196.928C193.823 203.894 181.575 211.096 165.89 211.096C150.206 211.096 137.958 203.894 126.115 196.928C114.32 189.995 103.189 183.434 88.7564 183.434C74.3237 183.434 63.18 189.995 51.3982 196.928C39.555 203.894 27.3068 211.096 11.6223 211.096C4.72503 211.096 -2.09861 209.696 -9.24133 206.812L-7.51088 198.716C-0.932696 201.364 5.32639 202.646 11.6223 202.646C26.055 202.646 37.1987 196.084 48.9805 189.152C60.8237 182.186 73.0718 174.983 88.7564 174.983C104.441 174.983 116.689 182.186 128.532 189.152C140.326 196.084 151.458 202.646 165.89 202.646C180.323 202.646 191.467 196.084 203.249 189.152C215.092 182.186 227.34 174.983 243.025 174.983C258.709 174.983 270.957 182.186 282.8 189.152C294.595 196.084 305.726 202.646 320.159 202.646C334.591 202.646 345.735 196.084 357.517 189.152C369.36 182.186 381.608 174.983 397.293 174.983C412.977 174.983 425.225 182.186 437.069 189.152C448.863 196.084 459.994 202.646 474.427 202.646C480.735 202.646 486.994 201.364 493.56 198.716L495.291 206.812C488.148 209.696 481.324 211.096 474.427 211.096Z" fill="white"/>
<path d="M474.427 169.586C458.73 169.586 446.494 162.383 434.651 155.417C422.857 148.484 411.725 141.923 397.293 141.923C382.86 141.923 371.716 148.484 359.935 155.417C348.091 162.383 335.843 169.586 320.159 169.586C304.474 169.586 292.226 162.383 280.383 155.417C268.589 148.484 257.457 141.923 243.025 141.923C228.592 141.923 217.448 148.484 205.666 155.417C193.823 162.383 181.575 169.586 165.89 169.586C150.206 169.586 137.958 162.383 126.115 155.417C114.32 148.484 103.189 141.923 88.7564 141.923C74.3237 141.923 63.18 148.484 51.3982 155.417C39.555 162.383 27.3068 169.586 11.6223 169.586C4.72503 169.586 -2.09861 168.186 -9.24133 165.301L-7.51088 157.205C-0.932696 159.853 5.32639 161.135 11.6223 161.135C26.055 161.135 37.1987 154.573 48.9805 147.641C60.8237 140.675 73.0718 133.472 88.7564 133.472C104.441 133.472 116.689 140.675 128.532 147.641C140.326 154.573 151.458 161.135 165.89 161.135C180.323 161.135 191.467 154.573 203.249 147.641C215.092 140.675 227.34 133.472 243.025 133.472C258.709 133.472 270.957 140.675 282.8 147.641C294.595 154.573 305.726 161.135 320.159 161.135C334.591 161.135 345.735 154.573 357.517 147.641C369.36 140.675 381.608 133.472 397.293 133.472C412.977 133.472 425.225 140.675 437.069 147.641C448.863 154.573 459.994 161.135 474.427 161.135C480.735 161.135 486.994 159.853 493.56 157.205L495.291 165.301C488.148 168.186 481.324 169.586 474.427 169.586Z" fill="white"/>
<path d="M474.427 128.092C458.73 128.092 446.494 120.889 434.651 113.923C422.857 106.99 411.725 100.429 397.293 100.429C382.86 100.429 371.716 106.99 359.935 113.923C348.091 120.889 335.843 128.092 320.159 128.092C304.474 128.092 292.226 120.889 280.383 113.923C268.589 106.99 257.457 100.429 243.025 100.429C228.592 100.429 217.448 106.99 205.666 113.923C193.823 120.889 181.575 128.092 165.89 128.092C150.206 128.092 137.958 120.889 126.115 113.923C114.32 106.99 103.189 100.429 88.7564 100.429C74.3237 100.429 63.18 106.99 51.3982 113.923C39.555 120.889 27.3068 128.092 11.6223 128.092C4.72503 128.092 -2.09861 126.692 -9.24133 123.807L-7.51088 115.711C-0.932696 118.359 5.32639 119.641 11.6223 119.641C26.055 119.641 37.1987 113.079 48.9805 106.147C60.8237 99.1807 73.0718 91.9783 88.7564 91.9783C104.441 91.9783 116.689 99.1807 128.532 106.147C140.326 113.079 151.458 119.641 165.89 119.641C180.323 119.641 191.467 113.079 203.249 106.147C215.092 99.1807 227.34 91.9783 243.025 91.9783C258.709 91.9783 270.957 99.1807 282.8 106.147C294.595 113.079 305.726 119.641 320.159 119.641C334.591 119.641 345.735 113.079 357.517 106.147C369.36 99.1807 381.608 91.9783 397.293 91.9783C412.977 91.9783 425.225 99.1807 437.069 106.147C448.863 113.079 459.994 119.641 474.427 119.641C480.735 119.641 486.994 118.359 493.56 115.711L495.291 123.807C488.148 126.692 481.324 128.092 474.427 128.092Z" fill="white"/>
<path d="M474.427 86.5976C458.73 86.5976 446.494 79.3952 434.651 72.4289C422.857 65.4964 411.725 58.935 397.293 58.935C382.86 58.935 371.716 65.4964 359.935 72.4289C348.091 79.3952 335.843 86.5976 320.159 86.5976C304.474 86.5976 292.226 79.3952 280.383 72.4289C268.589 65.4964 257.457 58.935 243.025 58.935C228.592 58.935 217.448 65.4964 205.666 72.4289C193.823 79.3952 181.575 86.5976 165.89 86.5976C150.206 86.5976 137.958 79.3952 126.115 72.4289C114.32 65.4964 103.189 58.935 88.7564 58.935C74.3237 58.935 63.18 65.4964 51.3982 72.4289C39.555 79.3952 27.3068 86.5976 11.6223 86.5976C4.72503 86.5976 -2.09861 85.1976 -9.24133 82.3133L-7.51088 74.2169C-0.932696 76.8651 5.32639 78.147 11.6223 78.147C26.055 78.147 37.1987 71.5856 48.9805 64.653C60.8237 57.6868 73.0718 50.4844 88.7564 50.4844C104.441 50.4844 116.689 57.6868 128.532 64.653C140.326 71.5856 151.458 78.147 165.89 78.147C180.323 78.147 191.467 71.5856 203.249 64.653C215.092 57.6868 227.34 50.4844 243.025 50.4844C258.709 50.4844 270.957 57.6868 282.8 64.653C294.595 71.5856 305.726 78.147 320.159 78.147C334.591 78.147 345.735 71.5856 357.517 64.653C369.36 57.6868 381.608 50.4844 397.293 50.4844C412.977 50.4844 425.225 57.6868 437.069 64.653C448.863 71.5856 459.994 78.147 474.427 78.147C480.723 78.147 486.982 76.8651 493.56 74.2169L495.291 82.3133C488.148 85.1976 481.324 86.5976 474.427 86.5976Z" fill="white"/>
<path d="M474.427 8.29877C458.73 8.29877 446.494 1.09637 434.651 -5.8699C422.857 -12.8024 411.726 -19.3639 397.293 -19.3639C382.86 -19.3639 371.716 -12.8024 359.935 -5.8699C348.091 1.09637 335.843 8.29877 320.159 8.29877C304.474 8.29877 292.226 1.09637 280.383 -5.8699C268.589 -12.8024 257.457 -19.3639 243.025 -19.3639C228.592 -19.3639 217.448 -12.8024 205.666 -5.8699C193.823 1.09637 181.575 8.29877 165.891 8.29877C150.206 8.29877 137.921 1.09637 126.078 -5.8699C114.284 -12.8024 103.152 -19.3639 88.7196 -19.3639C74.2869 -19.3639 63.1432 -12.8024 51.3614 -5.8699C39.5182 1.09637 27.27 8.29877 11.5732 8.29877C4.68823 8.29877 -2.13541 6.89878 -9.29041 4.01444L-7.55995 -4.06508C-0.981768 -1.41689 5.27732 -0.13496 11.5732 -0.13496C26.006 -0.13496 37.1496 -6.6964 48.9314 -13.6289C60.7746 -20.5952 73.0228 -27.7976 88.7073 -27.7976C104.392 -27.7976 116.64 -20.5952 128.483 -13.6289C140.277 -6.6964 151.409 -0.13496 165.841 -0.13496C180.274 -0.13496 191.418 -6.6964 203.2 -13.6289C215.043 -20.5952 227.291 -27.7976 242.976 -27.7976C258.66 -27.7976 270.908 -20.5952 282.751 -13.6289C294.546 -6.6964 305.677 -0.13496 320.11 -0.13496C334.542 -0.13496 345.686 -6.6964 357.468 -13.6289C369.311 -20.5952 381.559 -27.7976 397.244 -27.7976C412.928 -27.7976 425.176 -20.5952 437.02 -13.6289C448.814 -6.6964 459.945 -0.13496 474.378 -0.13496C480.674 -0.13496 486.933 -1.41689 493.511 -4.06508L495.241 4.0313C488.099 6.91564 481.275 8.31564 474.378 8.31564L474.427 8.29877Z" fill="white"/>
<path d="M474.427 45.7617C458.73 45.7617 446.494 38.5593 434.651 31.593C422.857 24.6605 411.726 18.099 397.293 18.099C382.86 18.099 371.716 24.6605 359.935 31.593C348.091 38.5593 335.843 45.7617 320.159 45.7617C304.474 45.7617 292.226 38.5593 280.383 31.593C268.589 24.6605 257.457 18.099 243.025 18.099C228.592 18.099 217.448 24.6605 205.666 31.593C193.823 38.5593 181.575 45.7617 165.891 45.7617C150.206 45.7617 137.921 38.5593 126.078 31.593C114.284 24.6605 103.152 18.099 88.7196 18.099C74.2869 18.099 63.1432 24.6605 51.3614 31.593C39.5182 38.5593 27.27 45.7617 11.5732 45.7617C4.68823 45.7617 -2.13541 44.3617 -9.29041 41.4773L-7.55995 33.3978C-0.981768 36.046 5.27732 37.3279 11.5732 37.3279C26.006 37.3279 37.1496 30.7665 48.9314 23.834C60.7746 16.8677 73.0228 9.66528 88.7073 9.66528C104.392 9.66528 116.64 16.8677 128.483 23.834C140.277 30.7665 151.409 37.3279 165.841 37.3279C180.274 37.3279 191.418 30.7665 203.2 23.834C215.043 16.8677 227.291 9.66528 242.976 9.66528C258.66 9.66528 270.908 16.8677 282.751 23.834C294.546 30.7665 305.677 37.3279 320.11 37.3279C334.542 37.3279 345.686 30.7665 357.468 23.834C369.311 16.8677 381.559 9.66528 397.244 9.66528C412.928 9.66528 425.176 16.8677 437.02 23.834C448.814 30.7665 459.945 37.3279 474.378 37.3279C480.674 37.3279 486.933 36.046 493.511 33.3978L495.241 41.4942C488.099 44.3785 481.275 45.7785 474.378 45.7785L474.427 45.7617Z" fill="white"/>
</g>
</g>
</g>
<defs>
<clipPath id="clip0_264_318">
<rect width="486" height="441" rx="220.5" fill="white"/>
</clipPath>
</defs>
</svg>
