<svg viewBox="0 0 22 23" xmlns="http://www.w3.org/2000/svg">
<path d="M10.9282 0.946777C4.96008 0.946777 0.122993 5.78386 0.122993 11.7519C0.122993 16.5251 3.21808 20.5757 7.51241 22.0057C8.05299 22.1032 8.24799 21.7706 8.24799 21.4846C8.24799 21.2279 8.23933 20.5475 8.23608 19.6473C5.22983 20.2994 4.59499 18.1978 4.59499 18.1978C4.10533 16.9498 3.39574 16.6172 3.39574 16.6172C2.41533 15.9466 3.47049 15.9618 3.47049 15.9618C4.55599 16.0376 5.12474 17.0754 5.12474 17.0754C6.08891 18.7264 7.65541 18.2498 8.26858 17.9735C8.36716 17.2748 8.64883 16.7981 8.95649 16.5284C6.55799 16.2564 4.03599 15.3291 4.03599 11.1875C4.03599 10.0099 4.45741 9.04361 5.14533 8.28961C5.03591 8.01553 4.66216 6.91595 5.25258 5.42961C5.25258 5.42961 6.15933 5.1382 8.22308 6.5357C9.10447 6.29592 10.0137 6.17353 10.9271 6.1717C11.8405 6.17318 12.7498 6.29557 13.6311 6.5357C15.6959 5.13711 16.6016 5.42961 16.6016 5.42961C17.192 6.91595 16.8215 8.01553 16.7088 8.28961C17.4022 9.04361 17.8182 10.0089 17.8182 11.1875C17.8182 15.3399 15.294 16.2521 12.8868 16.5197C13.2714 16.8534 13.6181 17.512 13.6181 18.5195C13.6181 19.9647 13.6051 21.1304 13.6051 21.4846C13.6051 21.7739 13.7979 22.1097 14.3493 22.0035C18.6415 20.5714 21.7333 16.524 21.7333 11.7519C21.7333 5.78386 16.8962 0.946777 10.9282 0.946777Z"/>
</svg>
