<svg xmlns="http://www.w3.org/2000/svg" version="1.1" xmlns:xlink="http://www.w3.org/1999/xlink" width="512" height="512" x="0" y="0" viewBox="0 0 487.619 487.619"><g><path d="M113.252 37.856A243.644 243.644 0 0 1 243.861 0a243.737 243.737 0 0 1 172.364 71.41 243.833 243.833 0 0 1 71.395 172.399 243.831 243.831 0 0 1-71.395 172.4 243.738 243.738 0 0 1-172.364 71.409H22.288a22.166 22.166 0 0 1-21.87-26.271 22.167 22.167 0 0 1 5.92-11.381l49.5-50.968a243.784 243.784 0 0 1-32.579-259.179 243.712 243.712 0 0 1 89.993-101.963zM74.47 443.238h169.391c46.058-.017 90.69-15.987 126.306-45.195s60.021-69.854 69.061-115.024a199.39 199.39 0 0 0-19.463-132.753 199.32 199.32 0 0 0-99.172-90.35c-42.501-17.751-89.836-20.233-133.959-7.022S104.323 94.192 78.563 132.38a199.388 199.388 0 0 0 23.433 251.605c4.055 4.145 6.326 9.711 6.326 15.509s-2.271 11.364-6.326 15.506zm51.848-230.437a37.259 37.259 0 0 1 47.032 4.595 37.278 37.278 0 0 1-11.992 60.8 37.26 37.26 0 0 1-40.644-8.021 37.272 37.272 0 0 1 5.604-57.374zm117.355-6.289a37.26 37.26 0 0 0-34.471 22.999 37.282 37.282 0 0 0 8.09 40.647 37.252 37.252 0 0 0 40.65 8.041 37.27 37.27 0 0 0 22.95-34.507 37.324 37.324 0 0 0-10.945-26.265 37.304 37.304 0 0 0-26.274-10.915zm75.896 6.289a37.257 37.257 0 0 1 47.031 4.595 37.277 37.277 0 0 1 10.947 26.296 37.262 37.262 0 0 1-6.234 20.734 37.266 37.266 0 0 1-16.703 13.77 37.267 37.267 0 0 1-48.764-48.652 37.232 37.232 0 0 1 13.723-16.743z"></path></g></svg>