<svg width="217" height="56" viewBox="0 0 217 56" fill="none" xmlns="http://www.w3.org/2000/svg">
<path d="M205.524 36.3364V20.1143H208.692V33.5718H217V36.3364H205.524Z" fill="#26579D"/>
<path d="M200.76 33.5718V36.3364H189.445V20.1143H200.553V22.8789H192.613V26.7859H199.475V29.3449H192.613V33.5718H200.76Z" fill="#26579D"/>
<path d="M177.291 36.4507C176.235 36.4507 175.233 36.2374 174.284 35.8109C173.351 35.3844 172.524 34.798 171.805 34.0516C171.101 33.29 170.551 32.4065 170.153 31.4012C169.755 30.3959 169.556 29.3068 169.556 28.1339C169.556 27.022 169.755 25.9786 170.153 25.0037C170.551 24.0137 171.109 23.1454 171.828 22.3991C172.547 21.6527 173.389 21.0662 174.353 20.6397C175.317 20.2132 176.365 20 177.497 20C179.027 20 180.335 20.3275 181.422 20.9825C182.523 21.6222 183.35 22.4752 183.9 23.5415L181.536 25.2779C181.123 24.4706 180.542 23.8537 179.792 23.4272C179.058 23.0007 178.254 22.7875 177.382 22.7875C176.694 22.7875 176.066 22.9322 175.5 23.2216C174.934 23.511 174.445 23.907 174.032 24.4097C173.618 24.9123 173.297 25.4912 173.068 26.1461C172.853 26.8011 172.746 27.4942 172.746 28.2253C172.746 29.0022 172.861 29.7181 173.091 30.3731C173.335 31.028 173.672 31.5992 174.1 32.0867C174.544 32.5741 175.057 32.9625 175.638 33.2519C176.219 33.5261 176.862 33.6632 177.566 33.6632C178.392 33.6632 179.18 33.4499 179.93 33.0234C180.695 32.5969 181.406 31.9724 182.064 31.1499V34.2572C180.703 35.7195 179.111 36.4507 177.291 36.4507ZM181.835 30.3045H178.553V27.9968H184.451V36.3364H181.835V30.3045Z" fill="#26579D"/>
<path d="M155.018 20.1143L159.425 32.5893L163.785 20.1143H167.113L160.94 36.3364H157.887L151.69 20.1143H155.018Z" fill="#92ABCE"/>
<path d="M149.025 22.8789H143.815V36.3364H140.671V22.8789H135.461V20.1143H149.025V22.8789Z" fill="#26579D"/>
<path d="M131.144 20.1143V36.3364H128V29.4134H120.61V36.3364H117.442V20.1143H120.61V26.6717H128V20.1143H131.144Z" fill="#26579D"/>
<path d="M98.4263 28.1111C98.4263 27.121 98.6022 26.1537 98.9541 25.2094C99.3213 24.2497 99.8492 23.3815 100.538 22.6047C101.226 21.8126 102.068 21.1881 103.062 20.7311C104.057 20.2589 105.189 20.0228 106.459 20.0228C107.958 20.0228 109.251 20.3503 110.338 21.0053C111.439 21.6603 112.258 22.5133 112.793 23.5643L110.361 25.2322C110.085 24.6229 109.726 24.1431 109.282 23.7928C108.838 23.4272 108.364 23.1759 107.859 23.0388C107.354 22.8865 106.857 22.8103 106.367 22.8103C105.572 22.8103 104.875 22.9702 104.279 23.2901C103.697 23.61 103.208 24.0289 102.81 24.5468C102.412 25.0646 102.114 25.6435 101.915 26.2832C101.731 26.923 101.639 27.5627 101.639 28.2025C101.639 28.9184 101.754 29.6114 101.984 30.2816C102.213 30.9366 102.534 31.5231 102.948 32.0409C103.376 32.5436 103.881 32.9473 104.462 33.2519C105.059 33.5413 105.709 33.686 106.413 33.686C106.918 33.686 107.431 33.6022 107.951 33.4347C108.471 33.2671 108.953 33.0006 109.397 32.635C109.84 32.2694 110.185 31.7972 110.429 31.2184L113.023 32.7035C112.702 33.5108 112.174 34.1963 111.439 34.7599C110.72 35.3235 109.909 35.75 109.007 36.0394C108.104 36.3288 107.209 36.4735 106.321 36.4735C105.158 36.4735 104.095 36.2374 103.131 35.7652C102.167 35.2778 101.333 34.638 100.63 33.8459C99.941 33.0386 99.3978 32.14 99 31.1499C98.6175 30.1445 98.4263 29.1316 98.4263 28.1111Z" fill="#26579D"/>
<path d="M86.7553 20.1143H89.9684L95.9585 36.3364H92.6995L91.1848 32.2923H85.493L84.0012 36.3364H80.7422L86.7553 20.1143ZM90.611 30.076L88.3618 23.3815L86.0208 30.076H90.611Z" fill="#26579D"/>
<path d="M68.4416 20.1143L72.458 27.7455L76.5432 20.1143H79.9629L74.0416 30.6701V36.3364H70.8974V30.6244L64.999 20.1143H68.4416Z" fill="#26579D"/>
<mask id="mask0_50_117" style="mask-type:luminance" maskUnits="userSpaceOnUse" x="0" y="5" width="62" height="47">
<path d="M61.3211 5H0L15.3302 28.015L30.6607 51.0303L45.9909 28.015L61.3214 5H61.3211ZM32.0947 20.6176L37.2961 12.8087H46.7079L30.6604 36.9004L14.613 12.8087H24.0247L29.2262 20.6176L30.6604 22.7708L32.0947 20.6176Z" fill="white"/>
</mask>
<g mask="url(#mask0_50_117)">
<path d="M61.3214 5H0V51.0303H61.3214V5Z" fill="#26579D"/>
</g>
</svg>
