<svg width="182" height="47" viewBox="0 0 182 47" fill="none" xmlns="http://www.w3.org/2000/svg">
<path d="M172.375 30.4964V16.8813H175.032V28.1761H182V30.4964H172.375Z" fill="#000014"/>
<path d="M168.38 28.1761V30.4964H158.89V16.8813H168.207V19.2017H161.546V22.4808H167.302V24.6285H161.546V28.1761H168.38Z" fill="#000014"/>
<path d="M148.696 30.5924C147.81 30.5924 146.97 30.4135 146.174 30.0555C145.391 29.6976 144.699 29.2054 144.095 28.579C143.505 27.9397 143.043 27.1983 142.709 26.3545C142.376 25.5108 142.209 24.5967 142.209 23.6123C142.209 22.6791 142.376 21.8034 142.709 20.9852C143.043 20.1542 143.511 19.4256 144.115 18.7991C144.718 18.1727 145.424 17.6805 146.232 17.3226C147.04 16.9646 147.92 16.7856 148.869 16.7856C150.152 16.7856 151.25 17.0605 152.161 17.6102C153.085 18.1471 153.778 18.8631 154.24 19.7579L152.257 21.2153C151.91 20.5378 151.423 20.02 150.794 19.6621C150.178 19.3041 149.504 19.1251 148.773 19.1251C148.195 19.1251 147.669 19.2466 147.194 19.4895C146.72 19.7324 146.309 20.0648 145.963 20.4866C145.616 20.9085 145.347 21.3943 145.154 21.944C144.974 22.4937 144.885 23.0754 144.885 23.689C144.885 24.341 144.981 24.9419 145.173 25.4916C145.379 26.0413 145.661 26.5207 146.02 26.9298C146.392 27.3389 146.822 27.6649 147.31 27.9078C147.798 28.1379 148.337 28.253 148.927 28.253C149.62 28.253 150.281 28.074 150.91 27.716C151.551 27.3581 152.148 26.8339 152.7 26.1436V28.7515C151.558 29.9788 150.223 30.5924 148.696 30.5924ZM152.507 25.4341H149.755V23.4973H154.702V30.4966H152.507V25.4341Z" fill="#000014"/>
<path d="M130.016 16.8813L133.712 27.3515L137.369 16.8813H140.16L134.982 30.4964H132.422L127.225 16.8813H130.016Z" fill="#000014"/>
<path d="M124.989 19.2017H120.619V30.4964H117.982V19.2017H113.613V16.8813H124.989V19.2017Z" fill="#000014"/>
<path d="M109.992 16.8813V30.4964H107.355V24.686H101.157V30.4964H98.5005V16.8813H101.157V22.3849H107.355V16.8813H109.992Z" fill="#000014"/>
<path d="M82.5518 23.593C82.5518 22.7621 82.6993 21.9503 82.9945 21.1577C83.3025 20.3523 83.7452 19.6236 84.3227 18.9716C84.9001 18.3068 85.6059 17.7827 86.44 17.3991C87.2742 17.0028 88.2238 16.8047 89.2889 16.8047C90.5465 16.8047 91.6309 17.0795 92.542 17.6293C93.4659 18.179 94.1525 18.8949 94.6016 19.777L92.5612 21.1768C92.3302 20.6655 92.0287 20.2628 91.6565 19.9687C91.2844 19.6619 90.8866 19.451 90.4631 19.3359C90.0396 19.2081 89.6225 19.1442 89.2119 19.1442C88.5446 19.1442 87.9607 19.2784 87.4602 19.5469C86.9726 19.8153 86.562 20.1669 86.2283 20.6016C85.8947 21.0362 85.6444 21.522 85.4776 22.0589C85.3236 22.5959 85.2466 23.1328 85.2466 23.6697C85.2466 24.2706 85.3429 24.8523 85.5353 25.4148C85.7278 25.9645 85.9973 26.4567 86.3438 26.8913C86.7031 27.3132 87.1266 27.652 87.6142 27.9077C88.1147 28.1506 88.6601 28.272 89.2504 28.272C89.6739 28.272 90.1038 28.2017 90.5401 28.0611C90.9764 27.9204 91.3806 27.6967 91.7528 27.3899C92.1249 27.0831 92.4136 26.6868 92.619 26.201L94.7941 27.4474C94.5246 28.125 94.0819 28.7003 93.4659 29.1733C92.8628 29.6463 92.1827 30.0042 91.4255 30.2471C90.6684 30.49 89.9177 30.6115 89.1734 30.6115C88.1981 30.6115 87.3063 30.4133 86.4978 30.017C85.6893 29.6079 84.99 29.071 84.3997 28.4062C83.8222 27.7287 83.3666 26.9744 83.033 26.1435C82.7122 25.2997 82.5518 24.4496 82.5518 23.593Z" fill="#000014"/>
<path d="M72.763 16.8813H75.4578L80.4818 30.4964H77.7484L76.478 27.1022H71.7043L70.4531 30.4964H67.7197L72.763 16.8813ZM75.9968 25.2421L74.1104 19.6235L72.147 25.2421H75.9968Z" fill="#000014"/>
<path d="M57.403 16.8813L60.7715 23.2862L64.1979 16.8813H67.066L62.0997 25.7407V30.4964H59.4626V25.7024L54.5156 16.8813H57.403Z" fill="#000014"/>
<mask id="mask0_50_6092" style="mask-type:luminance" maskUnits="userSpaceOnUse" x="0" y="4" width="52" height="39">
<path d="M51.4306 4.19629H0L12.8576 23.5125L25.7154 42.8289L38.573 23.5125L51.4308 4.19629H51.4306ZM26.9181 17.3039L31.2806 10.75H39.1744L25.7152 30.9699L12.256 10.75H20.1498L24.5123 17.3039L25.7152 19.1111L26.9181 17.3039Z" fill="white"/>
</mask>
<g mask="url(#mask0_50_6092)">
<path d="M51.4308 4.19629H0V42.8289H51.4308V4.19629Z" fill="#000014"/>
</g>
</svg>
