<svg width="120" height="120" viewBox="0 0 120 120" fill="none" xmlns="http://www.w3.org/2000/svg">
<rect width="120" height="120" fill="white"/>
<path d="M12.618 0L0.857178 10.769V24.3633L27.4737 0H12.618Z" fill="#5387CD"/>
<path d="M39.494 0L0.857178 35.3575V48.9723L54.3497 0H39.494Z" fill="#5387CD"/>
<path d="M101.113 37.5278V12.6935H87.1156V24.7319L63.2147 2.84583L0.83667 59.9461V88.0766C54.4291 39.0018 28.0921 63.1195 60 33.9244L119.163 88.0766V54.0498L101.113 37.5278Z" fill="#5387CD"/>
<path d="M81.6246 64.7573H65.7705V81.0132H81.6246V64.7573Z" fill="#5387CD"/>
<path d="M55.2874 64.7573H39.4333V81.0132H55.2874V64.7573Z" fill="#5387CD"/>
<path d="M81.6246 90.308H65.7705V106.564H81.6246V90.308Z" fill="#5387CD"/>
<path d="M55.2874 90.308H39.4333V106.564H55.2874V90.308Z" fill="#5387CD"/>
</svg>
