<svg width="173" height="50" viewBox="0 0 173 50" fill="none" xmlns="http://www.w3.org/2000/svg">
<path d="M5.10512 0L0.00878906 4.66657V10.5574L11.5426 0H5.10512Z" fill="#5387CD"/>
<path d="M16.7514 0L0.00878906 15.3216V21.2213L23.1889 0H16.7514Z" fill="#5387CD"/>
<path d="M43.453 16.262V5.50049H37.3876V10.7171L27.0305 1.23315L0 25.9766V38.1665C23.2234 16.9008 11.8107 27.3517 25.6374 14.7006L51.2749 38.1665V23.4215L43.453 16.262Z" fill="#5387CD"/>
<path d="M35.0083 28.0615H28.1382V35.1057H35.0083V28.0615Z" fill="#5387CD"/>
<path d="M23.5952 28.0615H16.7251V35.1057H23.5952V28.0615Z" fill="#5387CD"/>
<path d="M35.0083 39.1335H28.1382V46.1777H35.0083V39.1335Z" fill="#5387CD"/>
<path d="M23.5952 39.1335H16.7251V46.1777H23.5952V39.1335Z" fill="#5387CD"/>
<path d="M69.6753 16.3777H72.8397V30.1694H69.6753V24.5148H63.4637V30.1694H60.2993V16.3777H63.4637V21.8156H69.6753V16.3777Z" fill="#29456A"/>
<path d="M80.9535 30.3271C77.6133 30.3271 75.1716 28.0613 75.1716 24.8695C75.1716 21.6777 77.6133 19.4119 80.9535 19.4119C84.2937 19.4119 86.7158 21.6777 86.7158 24.8695C86.7158 28.0613 84.2937 30.3271 80.9535 30.3271ZM80.9535 27.8051C82.4771 27.8051 83.6296 26.7018 83.6296 24.8695C83.6296 23.0371 82.4771 21.9338 80.9535 21.9338C79.4299 21.9338 78.2579 23.0371 78.2579 24.8695C78.2579 26.7018 79.4299 27.8051 80.9535 27.8051Z" fill="#29456A"/>
<path d="M96.8399 24.633C98.0704 25.0468 98.6955 25.894 98.6955 27.155C98.6955 29.0267 97.3087 30.1694 94.4177 30.1694H88.8117V19.5695H94.1833C96.8203 19.5695 98.383 20.5743 98.383 22.3081C98.383 23.3721 97.8165 24.1799 96.8399 24.633ZM91.6049 21.658V23.9237H93.9099C94.9647 23.9237 95.5116 23.5297 95.5116 22.781C95.5116 22.0126 94.9647 21.658 93.9099 21.658H91.6049ZM94.1638 28.081C95.2772 28.081 95.8437 27.7066 95.8437 26.9185C95.8437 26.1107 95.3358 25.7364 94.2224 25.7364H91.6049V28.081H94.1638Z" fill="#29456A"/>
<path d="M105.885 30.3271C102.545 30.3271 100.103 28.0613 100.103 24.8695C100.103 21.6777 102.545 19.4119 105.885 19.4119C109.225 19.4119 111.647 21.6777 111.647 24.8695C111.647 28.0613 109.225 30.3271 105.885 30.3271ZM105.885 27.8051C107.409 27.8051 108.561 26.7018 108.561 24.8695C108.561 23.0371 107.409 21.9338 105.885 21.9338C104.362 21.9338 103.19 23.0371 103.19 24.8695C103.19 26.7018 104.362 27.8051 105.885 27.8051Z" fill="#29456A"/>
<path d="M118.744 30.3271C115.326 30.3271 112.884 28.0613 112.884 24.8695C112.884 21.6777 115.326 19.4119 118.744 19.4119C120.951 19.4119 122.69 20.3773 123.451 22.1111L121.088 23.3918C120.521 22.387 119.681 21.9338 118.724 21.9338C117.181 21.9338 115.97 23.0174 115.97 24.8695C115.97 26.7215 117.181 27.8051 118.724 27.8051C119.681 27.8051 120.521 27.3717 121.088 26.3472L123.451 27.6475C122.69 29.3419 120.951 30.3271 118.744 30.3271Z" fill="#29456A"/>
<path d="M134.094 19.5695V22.0914H130.539V30.1694H127.511V22.0914H123.956V19.5695H134.094Z" fill="#29456A"/>
<path d="M141.91 19.4119C144.86 19.4119 147.145 21.5397 147.145 24.8695C147.145 28.1992 144.86 30.3271 141.91 30.3271C140.602 30.3271 139.527 29.9133 138.746 29.0464V33.9917H135.699V19.5695H138.609V20.7911C139.371 19.865 140.504 19.4119 141.91 19.4119ZM141.383 27.8051C142.907 27.8051 144.059 26.7018 144.059 24.8695C144.059 23.0371 142.907 21.9338 141.383 21.9338C139.859 21.9338 138.707 23.0371 138.707 24.8695C138.707 26.7018 139.859 27.8051 141.383 27.8051Z" fill="#29456A"/>
<path d="M154.203 30.3271C150.863 30.3271 148.421 28.0613 148.421 24.8695C148.421 21.6777 150.863 19.4119 154.203 19.4119C157.544 19.4119 159.966 21.6777 159.966 24.8695C159.966 28.0613 157.544 30.3271 154.203 30.3271ZM154.203 27.8051C155.727 27.8051 156.879 26.7018 156.879 24.8695C156.879 23.0371 155.727 21.9338 154.203 21.9338C152.68 21.9338 151.508 23.0371 151.508 24.8695C151.508 26.7018 152.68 27.8051 154.203 27.8051Z" fill="#29456A"/>
<path d="M167.335 18.4268C165.05 18.4268 163.898 17.4219 163.878 15.3729H165.87C165.89 16.2792 166.359 16.8308 167.316 16.8308C168.254 16.8308 168.781 16.2792 168.781 15.3729H170.812C170.793 17.4219 169.621 18.4268 167.335 18.4268ZM162.061 30.1694V19.5695H165.089V25.8743L170.207 19.5695H173V30.1694H169.972V23.8646L164.874 30.1694H162.061Z" fill="#29456A"/>
<path d="M68.4838 35.5778V38.0997H63.0926V46.1777H60.0649V35.5778H68.4838Z" fill="#29456A"/>
<path d="M74.1811 35.4202C77.3846 35.4202 79.2402 36.9175 79.2402 40.129V46.1777H76.3884V44.8576C75.8219 45.8231 74.728 46.3353 73.1849 46.3353C70.7237 46.3353 69.2587 44.9562 69.2587 43.1238C69.2587 41.2521 70.5674 39.9517 73.7709 39.9517H76.193C76.193 38.6317 75.4117 37.8633 73.7709 37.8633C72.6575 37.8633 71.505 38.2376 70.7432 38.8484L69.6494 36.7008C70.8018 35.8733 72.5012 35.4202 74.1811 35.4202ZM73.9467 44.2666C74.9624 44.2666 75.8414 43.7937 76.193 42.8283V41.7447H74.103C72.677 41.7447 72.2278 42.2766 72.2278 42.9859C72.2278 43.7543 72.8724 44.2666 73.9467 44.2666Z" fill="#29456A"/>
<path d="M88.0793 35.4202C91.0289 35.4202 93.3143 37.548 93.3143 40.8777C93.3143 44.2075 91.0289 46.3353 88.0793 46.3353C86.7706 46.3353 85.6963 45.9216 84.9149 45.0547V50H81.8677V35.5778H84.7782V36.7993C85.54 35.8733 86.6729 35.4202 88.0793 35.4202ZM87.5519 43.8134C89.0755 43.8134 90.228 42.7101 90.228 40.8777C90.228 39.0454 89.0755 37.9421 87.5519 37.9421C86.0283 37.9421 84.8759 39.0454 84.8759 40.8777C84.8759 42.7101 86.0283 43.8134 87.5519 43.8134Z" fill="#29456A"/>
<path d="M99.3607 35.4202C102.564 35.4202 104.42 36.9175 104.42 40.129V46.1777H101.568V44.8576C101.002 45.8231 99.9076 46.3353 98.3645 46.3353C95.9033 46.3353 94.4383 44.9562 94.4383 43.1238C94.4383 41.2521 95.7471 39.9517 98.9505 39.9517H101.373C101.373 38.6317 100.591 37.8633 98.9505 37.8633C97.8371 37.8633 96.6847 38.2376 95.9229 38.8484L94.829 36.7008C95.9815 35.8733 97.6809 35.4202 99.3607 35.4202ZM99.1263 44.2666C100.142 44.2666 101.021 43.7937 101.373 42.8283V41.7447H99.2826C97.8567 41.7447 97.4074 42.2766 97.4074 42.9859C97.4074 43.7543 98.052 44.2666 99.1263 44.2666Z" fill="#29456A"/>
<path d="M107.067 46.1777V35.5778H110.095V39.7153H114.665V35.5778H117.713V46.1777H114.665V42.2175H110.095V46.1777H107.067Z" fill="#29456A"/>
<path d="M129.459 35.5778V38.0997H125.904V46.1777H122.876V38.0997H119.321V35.5778H129.459Z" fill="#29456A"/>
</svg>
