<svg width="197" height="56" viewBox="0 0 197 56" fill="none" xmlns="http://www.w3.org/2000/svg">
<path d="M5.81311 0L0.00976562 5.22656V11.8243L13.1436 0H5.81311Z" fill="#5387CD"/>
<path d="M19.0751 0L0.00976562 17.1602V23.7679L26.4056 0H19.0751Z" fill="#5387CD"/>
<path d="M49.4811 18.2136V6.16077H42.5743V12.0034L30.7804 1.38135L0 29.094V42.7467C26.4451 18.9291 13.4492 30.6342 29.1941 16.4648L58.3881 42.7467V26.2323L49.4811 18.2136Z" fill="#5387CD"/>
<path d="M39.8647 31.4287H32.0415V39.3182H39.8647V31.4287Z" fill="#5387CD"/>
<path d="M26.8686 31.4287H19.0454V39.3182H26.8686V31.4287Z" fill="#5387CD"/>
<path d="M39.8647 43.8296H32.0415V51.7191H39.8647V43.8296Z" fill="#5387CD"/>
<path d="M26.8686 43.8296H19.0454V51.7191H26.8686V43.8296Z" fill="#5387CD"/>
<path d="M79.3411 18.3432H82.9445V33.7899H79.3411V27.4568H72.2678V33.7899H68.6644V18.3432H72.2678V24.4336H79.3411V18.3432Z" fill="white"/>
<path d="M92.1839 33.9665C88.3803 33.9665 85.5999 31.4288 85.5999 27.854C85.5999 24.2791 88.3803 21.7415 92.1839 21.7415C95.9874 21.7415 98.7456 24.2791 98.7456 27.854C98.7456 31.4288 95.9874 33.9665 92.1839 33.9665ZM92.1839 31.1419C93.9188 31.1419 95.2312 29.9062 95.2312 27.854C95.2312 25.8018 93.9188 24.566 92.1839 24.566C90.4489 24.566 89.1143 25.8018 89.1143 27.854C89.1143 29.9062 90.4489 31.1419 92.1839 31.1419Z" fill="white"/>
<path d="M110.274 27.5892C111.675 28.0526 112.387 29.0014 112.387 30.4137C112.387 32.5101 110.808 33.7899 107.516 33.7899H101.132V21.918H107.249C110.252 21.918 112.031 23.0434 112.031 24.9853C112.031 26.1769 111.386 27.0816 110.274 27.5892ZM104.313 24.2571V26.7948H106.938C108.139 26.7948 108.762 26.3534 108.762 25.5149C108.762 24.6543 108.139 24.2571 106.938 24.2571H104.313ZM107.227 31.4509C108.495 31.4509 109.14 31.0316 109.14 30.1489C109.14 29.2442 108.561 28.8249 107.294 28.8249H104.313V31.4509H107.227Z" fill="white"/>
<path d="M120.574 33.9665C116.771 33.9665 113.99 31.4288 113.99 27.854C113.99 24.2791 116.771 21.7415 120.574 21.7415C124.378 21.7415 127.136 24.2791 127.136 27.854C127.136 31.4288 124.378 33.9665 120.574 33.9665ZM120.574 31.1419C122.309 31.1419 123.622 29.9062 123.622 27.854C123.622 25.8018 122.309 24.566 120.574 24.566C118.839 24.566 117.505 25.8018 117.505 27.854C117.505 29.9062 118.839 31.1419 120.574 31.1419Z" fill="white"/>
<path d="M135.217 33.9665C131.324 33.9665 128.544 31.4288 128.544 27.854C128.544 24.2791 131.324 21.7415 135.217 21.7415C137.73 21.7415 139.71 22.8227 140.577 24.7646L137.886 26.199C137.241 25.0736 136.284 24.566 135.195 24.566C133.437 24.566 132.058 25.7797 132.058 27.854C132.058 29.9282 133.437 31.1419 135.195 31.1419C136.284 31.1419 137.241 30.6565 137.886 29.509L140.577 30.9654C139.71 32.8631 137.73 33.9665 135.217 33.9665Z" fill="white"/>
<path d="M152.696 21.918V24.7425H148.648V33.7899H145.2V24.7425H141.152V21.918H152.696Z" fill="white"/>
<path d="M161.597 21.7415C164.956 21.7415 167.558 24.1247 167.558 27.854C167.558 31.5833 164.956 33.9665 161.597 33.9665C160.107 33.9665 158.883 33.5031 157.994 32.5321V38.0709H154.524V21.918H157.838V23.2861C158.705 22.249 159.996 21.7415 161.597 21.7415ZM160.997 31.1419C162.731 31.1419 164.044 29.9062 164.044 27.854C164.044 25.8018 162.731 24.566 160.997 24.566C159.262 24.566 157.949 25.8018 157.949 27.854C157.949 29.9062 159.262 31.1419 160.997 31.1419Z" fill="white"/>
<path d="M175.595 33.9665C171.792 33.9665 169.012 31.4288 169.012 27.854C169.012 24.2791 171.792 21.7415 175.595 21.7415C179.399 21.7415 182.157 24.2791 182.157 27.854C182.157 31.4288 179.399 33.9665 175.595 33.9665ZM175.595 31.1419C177.33 31.1419 178.643 29.9062 178.643 27.854C178.643 25.8018 177.33 24.566 175.595 24.566C173.861 24.566 172.526 25.8018 172.526 27.854C172.526 29.9062 173.861 31.1419 175.595 31.1419Z" fill="white"/>
<path d="M190.549 20.6381C187.947 20.6381 186.635 19.5127 186.612 17.2178H188.881C188.903 18.2328 189.437 18.8507 190.527 18.8507C191.595 18.8507 192.195 18.2328 192.195 17.2178H194.509C194.486 19.5127 193.152 20.6381 190.549 20.6381ZM184.544 33.7899V21.918H187.991V28.9794L193.819 21.918H197V33.7899H193.552V26.7286L187.747 33.7899H184.544Z" fill="white"/>
<path d="M77.9842 39.8473V42.6718H71.8451V51.7192H68.3975V39.8473H77.9842Z" fill="white"/>
<path d="M84.4719 39.6707C88.1198 39.6707 90.2329 41.3478 90.2329 44.9447V51.7192H86.9854V50.2407C86.3403 51.322 85.0947 51.8957 83.3375 51.8957C80.5349 51.8957 78.8667 50.3511 78.8667 48.2989C78.8667 46.2025 80.357 44.7461 84.0048 44.7461H86.763C86.763 43.2676 85.8732 42.407 84.0048 42.407C82.737 42.407 81.4246 42.8263 80.5571 43.5104L79.3115 41.1051C80.6239 40.1783 82.559 39.6707 84.4719 39.6707ZM84.205 49.5787C85.3616 49.5787 86.3626 49.0491 86.763 47.9678V46.7542H84.383C82.7592 46.7542 82.2476 47.35 82.2476 48.1444C82.2476 49.005 82.9816 49.5787 84.205 49.5787Z" fill="white"/>
<path d="M100.298 39.6707C103.657 39.6707 106.259 42.0539 106.259 45.7832C106.259 49.5125 103.657 51.8957 100.298 51.8957C98.8079 51.8957 97.5846 51.4323 96.6949 50.4614V56.0002H93.2249V39.8473H96.5392V41.2154C97.4066 40.1783 98.6967 39.6707 100.298 39.6707ZM99.6977 49.0712C101.433 49.0712 102.745 47.8354 102.745 45.7832C102.745 43.731 101.433 42.4953 99.6977 42.4953C97.9627 42.4953 96.6504 43.731 96.6504 45.7832C96.6504 47.8354 97.9627 49.0712 99.6977 49.0712Z" fill="white"/>
<path d="M113.145 39.6707C116.793 39.6707 118.906 41.3478 118.906 44.9447V51.7192H115.658V50.2407C115.013 51.322 113.767 51.8957 112.01 51.8957C109.208 51.8957 107.539 50.3511 107.539 48.2989C107.539 46.2025 109.03 44.7461 112.678 44.7461H115.436C115.436 43.2676 114.546 42.407 112.678 42.407C111.41 42.407 110.097 42.8263 109.23 43.5104L107.984 41.1051C109.297 40.1783 111.232 39.6707 113.145 39.6707ZM112.878 49.5787C114.034 49.5787 115.035 49.0491 115.436 47.9678V46.7542H113.056C111.432 46.7542 110.92 47.35 110.92 48.1444C110.92 49.005 111.654 49.5787 112.878 49.5787Z" fill="white"/>
<path d="M121.92 51.7192V39.8473H125.368V44.4813H130.572V39.8473H134.042V51.7192H130.572V47.2838H125.368V51.7192H121.92Z" fill="white"/>
<path d="M147.418 39.8473V42.6718H143.37V51.7192H139.922V42.6718H135.874V39.8473H147.418Z" fill="white"/>
</svg>
