<svg width="512" height="512" viewBox="0 0 512 512" fill="none" xmlns="http://www.w3.org/2000/svg">
<path d="M256 24.5C169.742 24.5 99.5557 101.058 99.5557 195.167C99.5557 285.392 238.82 466.427 244.75 474.093C246.079 475.811 247.784 477.202 249.734 478.159C251.684 479.116 253.828 479.614 256 479.614C258.172 479.614 260.316 479.116 262.266 478.159C264.216 477.202 265.921 475.811 267.25 474.093C273.181 466.427 412.445 285.392 412.445 195.167C412.445 101.058 342.258 24.5 256 24.5ZM256 60.5557C241.936 60.5557 156.194 133.814 144.5 126C132.806 118.186 195.684 221.151 190.302 208.157C184.92 195.164 183.512 180.866 186.255 167.071C188.999 153.277 195.772 140.606 205.717 130.661C215.662 120.716 228.333 113.944 242.127 111.2C255.921 108.456 270.219 109.864 283.213 115.246C296.207 120.629 307.313 129.743 315.127 141.437C322.941 153.131 327.111 166.88 327.111 180.944C327.089 199.797 319.589 217.872 306.258 231.203C391.5 141.437 274.853 60.5331 256 60.5557Z" fill="#5387CD"/>
<path fill-rule="evenodd" clip-rule="evenodd" d="M307.174 248.878L301.536 249.185L301.507 195.866L307.174 196.003V248.878ZM326.44 196.47V247.83L309.184 248.767V196.052L326.44 196.47ZM357.229 246.17L352.367 246.456L352.343 197.168L357.229 197.296V246.17ZM373.599 197.726V245.202L358.865 246.073V197.34L373.599 197.726ZM385.568 195.634V246.848L290.331 252.182V192.235L385.568 195.634ZM245.038 249.009L238.384 249.508L238.356 195.082L245.038 195.403V249.009ZM264.651 196.346L265.176 247.507L247.047 248.86V195.5L264.651 196.346ZM272.736 249.585L208.823 253.427V182.186L289.859 185.573V187.013L272.269 188.978L272.736 249.585ZM115.899 185.177V188.669L196.994 176.471V171.817L115.899 185.177ZM394.154 177.435L207.378 165.253L201.177 170.528L405 182.047V178.497L256.732 127.789H246.486L114 182.061V184.565L196.84 169.726L246.76 130.441L255.802 130.578L394.154 177.435ZM272.743 253.274L272.744 253.347L290.07 255.629L387.669 249.241C387.669 227.797 387.659 206.355 387.562 184.941L204.901 177.227V256.196L203.038 254.811V182.435L194.127 183.899V257.656L202.742 257.058L205.073 258.789L208.823 258.785V256.976L272.743 253.274ZM188.866 182.766V257.688L125.604 245.354V188.467L203.038 177.2V180.53L188.866 182.766Z" fill="white"/>
</svg>
