<svg width="22" height="20" viewBox="0 0 22 20" xmlns="http://www.w3.org/2000/svg">
<path fill-rule="evenodd" clip-rule="evenodd" d="M17.6214 19.6305C18.6357 19.4861 20.6643 18.3309 21.099 17.1758C21.5337 16.0206 21.5337 15.0098 21.3888 14.5767C21.2439 14.4323 20.9541 14.2879 20.3745 13.9991C19.9398 13.7103 17.3316 12.4107 16.8969 12.2663C16.4622 12.122 16.0276 11.9776 15.7378 12.5551C15.448 13.1327 14.4337 14.2879 14.1439 14.5767C13.8541 14.8655 13.5643 15.0099 12.9847 14.7211C12.8968 14.6773 12.7857 14.6269 12.6532 14.5668C11.9119 14.2306 10.5037 13.592 8.78264 12.1219C7.18876 10.678 6.17447 9.08965 5.88467 8.51207C5.59487 8.07888 5.88467 7.79009 6.17446 7.5013C6.23448 7.44149 6.31936 7.33213 6.4188 7.20401C6.55943 7.02282 6.72919 6.8041 6.89895 6.63493C7.18875 6.34614 7.33365 6.05735 7.47855 5.76856C7.62345 5.47977 7.62345 5.19098 7.47855 4.90219C7.383 4.80697 6.9094 3.64433 6.47324 2.57361C6.24798 2.02062 6.03271 1.49215 5.88467 1.14792C5.4961 0.244399 5.10753 0.263908 4.82245 0.27822C4.78861 0.279919 4.75623 0.281545 4.72548 0.281545H3.7112C3.2765 0.281545 2.69691 0.281544 2.26221 0.859124C2.2047 0.93554 2.13197 1.02206 2.04906 1.12071C1.50528 1.76764 0.523438 2.93574 0.523438 5.19098C0.523438 7.79009 2.40712 10.2448 2.69691 10.5336C2.70495 10.5456 2.71533 10.5613 2.72803 10.5805C3.17307 11.2529 6.46408 16.2251 11.5357 18.3309C12.3439 18.7336 13.0817 18.996 13.6999 19.2158C13.9684 19.3112 14.2143 19.3987 14.4337 19.4861C15.5929 19.7749 16.752 19.7749 17.6214 19.6305Z"/>
</svg>
