<svg width="16" height="16" viewBox="0 0 16 16" fill="none" xmlns="http://www.w3.org/2000/svg">
<path fill-rule="evenodd" clip-rule="evenodd" d="M6.80188 2.72631C7.30698 1.75781 8.69288 1.75782 9.19798 2.72631L10.5429 5.30504C10.5455 5.31017 10.5505 5.31369 10.5563 5.31447L13.4987 5.71908C14.6301 5.87466 15.0702 7.27654 14.2308 8.05085L12.1511 9.96925C12.1466 9.97339 12.1445 9.97954 12.1456 9.98555L12.6431 12.7305C12.8414 13.8245 11.7072 14.6765 10.7117 14.1812L8.00788 12.836C8.00287 12.8335 7.99699 12.8335 7.99198 12.836L5.28814 14.1812C4.29268 14.6765 3.15847 13.8245 3.35675 12.7305L3.85425 9.98555C3.85534 9.97954 3.85328 9.97339 3.84879 9.96924L1.76908 8.05085C0.929652 7.27654 1.36979 5.87466 2.50115 5.71908L5.44361 5.31447C5.44934 5.31369 5.45433 5.31017 5.45701 5.30504L6.80188 2.72631ZM7.9889 3.33544C7.98886 3.33548 7.98697 3.33737 7.9841 3.34287L6.63922 5.9216C6.4368 6.30973 6.0589 6.57575 5.62524 6.63538L2.68278 7.03999C2.67905 7.0405 2.67663 7.04111 2.6753 7.04149C2.67454 7.04172 2.67401 7.0419 2.67367 7.04203C2.67363 7.04205 2.67358 7.04207 2.67354 7.04209C2.67275 7.04295 2.67012 7.04614 2.66818 7.05233C2.66624 7.05851 2.66657 7.06264 2.66672 7.0638C2.66691 7.06408 2.66726 7.06458 2.66783 7.06529C2.6687 7.06637 2.67034 7.06824 2.67311 7.0708L4.75282 8.98919C5.09273 9.30273 5.24868 9.76832 5.16621 10.2233L4.66871 12.9683C4.66809 12.9717 4.66792 12.974 4.66787 12.9753C4.66783 12.9766 4.6679 12.9773 4.66791 12.9775C4.66793 12.9776 4.66794 12.9776 4.6679 12.9774C4.66786 12.9773 4.66783 12.9772 4.66785 12.9773C4.66799 12.9776 4.66988 12.9815 4.67555 12.9857C4.68123 12.99 4.68547 12.9907 4.68583 12.9908C4.68589 12.9908 4.68581 12.9908 4.68566 12.9908C4.6855 12.9908 4.68547 12.9908 4.68565 12.9908C4.68577 12.9908 4.68617 12.9907 4.68687 12.9905C4.68712 12.9904 4.6874 12.9903 4.68772 12.9902C4.68896 12.9898 4.69113 12.989 4.69423 12.9875L7.39807 11.6423C7.77715 11.4537 8.22271 11.4537 8.60179 11.6423L11.3056 12.9875C11.3087 12.989 11.3109 12.9898 11.3121 12.9902C11.3128 12.9904 11.3133 12.9906 11.3136 12.9906C11.3139 12.9907 11.3141 12.9908 11.3142 12.9908C11.3144 12.9908 11.3144 12.9908 11.3142 12.9908C11.314 12.9908 11.314 12.9908 11.314 12.9908C11.3144 12.9907 11.3186 12.99 11.3243 12.9857C11.33 12.9815 11.3319 12.9776 11.332 12.9773C11.332 12.9772 11.332 12.9773 11.332 12.9774C11.3319 12.9776 11.3319 12.9776 11.3319 12.9775C11.332 12.9773 11.332 12.9766 11.332 12.9753C11.3319 12.974 11.3318 12.9717 11.3311 12.9683L10.8336 10.2233C10.7512 9.76832 10.9071 9.30273 11.247 8.98919L13.3268 7.0708C13.3295 7.06824 13.3312 7.06637 13.332 7.06529C13.3326 7.06464 13.3329 7.06417 13.3331 7.06387L13.3331 7.06402L13.3331 7.0641L13.3331 7.06413C13.3331 7.06411 13.3331 7.064 13.3331 7.0638C13.3332 7.06365 13.3333 7.06356 13.3333 7.06352C13.3334 7.06342 13.3333 7.06351 13.3332 7.06375L13.3331 7.06387C13.3331 7.06385 13.3331 7.06382 13.3331 7.0638C13.3333 7.06264 13.3336 7.05851 13.3317 7.05233C13.3297 7.04614 13.3271 7.04295 13.3263 7.04209C13.3265 7.04215 13.3266 7.0422 13.3266 7.04221C13.3267 7.04226 13.3266 7.04222 13.3264 7.04208L13.3262 7.04192C13.3261 7.04187 13.3261 7.04184 13.3261 7.04184C13.3261 7.04185 13.3262 7.04193 13.3263 7.04209C13.326 7.04196 13.3254 7.04175 13.3246 7.04149C13.3232 7.04111 13.3208 7.0405 13.3171 7.03999L10.3746 6.63538C9.94096 6.57575 9.56306 6.30973 9.36064 5.9216L8.01576 3.34287C8.01289 3.33737 8.011 3.33548 8.01096 3.33544C8.01082 3.33529 8.01092 3.33539 8.0109 3.33537C8.01045 3.33511 8.0067 3.33327 7.99993 3.33327C7.99316 3.33327 7.98941 3.33511 7.98896 3.33537C7.98894 3.33539 7.98904 3.33529 7.9889 3.33544Z" fill="#26579D"/>
</svg>
