<svg width="16" height="16" viewBox="0 0 16 16" fill="none" xmlns="http://www.w3.org/2000/svg">
<path fill-rule="evenodd" clip-rule="evenodd" d="M2.1665 4.66665C2.1665 2.8257 3.65889 1.33331 5.49984 1.33331H7.99984C9.84079 1.33331 11.3332 2.8257 11.3332 4.66665V5.41181C12.734 5.74483 13.8332 7.09603 13.8332 8.66665V10.9174C13.8332 11.3073 13.9471 11.6887 14.1611 12.0147L15.2239 13.6342C15.3583 13.839 15.3695 14.1011 15.2531 14.3167C15.1368 14.5323 14.9115 14.6666 14.6665 14.6666H7.99984C6.15889 14.6666 4.6665 13.1743 4.6665 11.3333V10.6666H1.33317C1.08817 10.6666 0.862918 10.5323 0.746532 10.3167C0.630146 10.1011 0.641387 9.83904 0.775806 9.63421L1.8386 8.01471C2.05253 7.68873 2.1665 7.30731 2.1665 6.9174V4.66665ZM5.99984 10.6666V11.3333C5.99984 12.4379 6.89527 13.3333 7.99984 13.3333H13.4316L13.0463 12.7463C12.6898 12.2029 12.4998 11.5673 12.4998 10.9174V8.66665C12.4998 7.81532 11.9788 7.11391 11.3332 6.81797V7.33331C11.3332 9.17426 9.84079 10.6666 7.99984 10.6666H5.99984ZM2.56807 9.33331L2.95333 8.74625C3.30988 8.20294 3.49984 7.56726 3.49984 6.9174V4.66665C3.49984 3.56208 4.39527 2.66665 5.49984 2.66665H7.99984C9.10441 2.66665 9.99984 3.56208 9.99984 4.66665V7.33331C9.99984 8.43788 9.10441 9.33331 7.99984 9.33331H2.56807Z" fill="#26579D"/>
</svg>
