<svg width="16" height="16" viewBox="0 0 16 16" fill="none" xmlns="http://www.w3.org/2000/svg">
<path fill-rule="evenodd" clip-rule="evenodd" d="M3.45933 2.29368C4.14782 1.97978 4.92408 1.91522 5.65497 2.11106C6.01061 2.20635 6.22167 2.57191 6.12637 2.92756C6.03108 3.2832 5.66552 3.49425 5.30988 3.39896C4.87799 3.28324 4.41929 3.32139 4.01245 3.50687C3.60562 3.69236 3.276 4.01362 3.08012 4.41556C2.88425 4.8175 2.83433 5.27506 2.93892 5.70978C3.04351 6.1445 3.2961 6.52928 3.65337 6.79813C3.84719 6.94399 3.94649 7.18362 3.91266 7.42382C3.87882 7.66402 3.71718 7.86688 3.49061 7.95352C3.03771 8.12669 2.62166 8.39417 2.27221 8.74362C2.15449 8.86135 2.04609 8.98661 1.94747 9.11827C1.74198 9.3926 1.75538 9.62242 1.86352 9.82821C1.99122 10.0712 2.28463 10.3231 2.69967 10.4537C3.05089 10.5642 3.24605 10.9385 3.13556 11.2897C3.02508 11.6409 2.65079 11.8361 2.29957 11.7256C1.61837 11.5113 1.00587 11.0624 0.683232 10.4484C0.341041 9.79727 0.359691 9.01398 0.880305 8.31893C1.01673 8.1368 1.16665 7.96356 1.3294 7.80081C1.58034 7.54987 1.85614 7.32949 2.15099 7.14206C1.91366 6.80671 1.7401 6.42702 1.64258 6.02168C1.46558 5.286 1.55006 4.51166 1.88154 3.83146C2.21302 3.15126 2.77084 2.60758 3.45933 2.29368ZM11.9869 3.50687C11.58 3.32139 11.1213 3.28324 10.6894 3.39896C10.3338 3.49425 9.96823 3.2832 9.87294 2.92756C9.77765 2.57191 9.9887 2.20635 10.3443 2.11106C11.0752 1.91522 11.8515 1.97978 12.54 2.29368C13.2285 2.60758 13.7863 3.15126 14.1178 3.83146C14.4493 4.51166 14.5337 5.286 14.3567 6.02168C14.2592 6.42702 14.0857 6.80671 13.8483 7.14206C14.1432 7.32949 14.419 7.54987 14.6699 7.80081C14.8327 7.96356 14.9826 8.1368 15.119 8.31893C15.6396 9.01398 15.6583 9.79727 15.3161 10.4484C14.9934 11.0624 14.3809 11.5113 13.6997 11.7256C13.3485 11.8361 12.9742 11.6409 12.8637 11.2897C12.7533 10.9385 12.9484 10.5642 13.2996 10.4537C13.7147 10.3231 14.0081 10.0712 14.1358 9.82821C14.2439 9.62242 14.2573 9.3926 14.0518 9.11827C13.9532 8.98661 13.8448 8.86135 13.7271 8.74362C13.3777 8.39417 12.9616 8.12669 12.5087 7.95352C12.2821 7.86688 12.1205 7.66402 12.0867 7.42382C12.0528 7.18362 12.1521 6.94399 12.3459 6.79813C12.7032 6.52928 12.9558 6.1445 13.0604 5.70978C13.165 5.27506 13.1151 4.8175 12.9192 4.41556C12.7233 4.01362 12.3937 3.69236 11.9869 3.50687ZM7.99974 4.66667C6.93608 4.66667 6.07382 5.52893 6.07382 6.59259C6.07382 7.65626 6.9361 8.51856 7.99976 8.51856C9.0634 8.51856 9.92567 7.65627 9.92567 6.59259C9.92567 5.52893 9.0634 4.66667 7.99974 4.66667ZM10.162 9.03138C10.8349 8.4343 11.259 7.56296 11.259 6.59259C11.259 4.79255 9.79978 3.33333 7.99974 3.33333C6.1997 3.33333 4.74048 4.79255 4.74048 6.59259C4.74048 7.56297 5.16456 8.43431 5.83748 9.03139C5.38229 9.26016 4.96216 9.56179 4.59517 9.92878C4.43241 10.0915 4.28249 10.2648 4.14607 10.4469C3.84032 10.8551 3.69634 11.3101 3.72169 11.7692C3.74665 12.2212 3.93261 12.626 4.19844 12.9527C4.72157 13.5957 5.59872 14 6.51827 14H9.48124C10.4008 14 11.2779 13.5957 11.8011 12.9527C12.0669 12.626 12.2529 12.2212 12.2778 11.7692C12.3032 11.3101 12.1592 10.8551 11.8534 10.4469C11.717 10.2648 11.5671 10.0915 11.4043 9.92878C11.0373 9.56179 10.6172 9.26016 10.162 9.03138ZM7.99976 9.85189C7.07641 9.85189 6.19088 10.2187 5.53798 10.8716C5.42025 10.9893 5.31185 11.1146 5.21323 11.2462C5.07752 11.4274 5.0465 11.578 5.053 11.6957C5.05988 11.8204 5.11263 11.9637 5.23272 12.1113C5.48144 12.417 5.96507 12.6667 6.51827 12.6667H9.48124C10.0344 12.6667 10.5181 12.417 10.7668 12.1113C10.8869 11.9637 10.9396 11.8204 10.9465 11.6957C10.953 11.578 10.922 11.4274 10.7863 11.2462C10.6877 11.1146 10.5793 10.9893 10.4615 10.8716C9.80863 10.2187 8.9231 9.85189 7.99976 9.85189Z" fill="#26579D"/>
</svg>
