<svg width="16" height="16" viewBox="0 0 16 16" fill="none" xmlns="http://www.w3.org/2000/svg">
<path fill-rule="evenodd" clip-rule="evenodd" d="M2.6665 4.66665C2.6665 2.8257 4.15889 1.33331 5.99984 1.33331L9.99984 1.33331C11.8408 1.33331 13.3332 2.8257 13.3332 4.66665L13.3332 12.4344C13.3332 14.1431 11.3289 15.0649 10.0316 13.9529L8.4337 12.5832C8.18404 12.3693 7.81564 12.3693 7.56598 12.5832L5.96809 13.9529C4.67074 15.0649 2.6665 14.1431 2.6665 12.4344L2.6665 4.66665ZM5.99984 2.66665C4.89527 2.66665 3.99984 3.56208 3.99984 4.66665L3.99984 12.4344C3.99984 13.0039 4.66792 13.3112 5.10036 12.9405L6.69825 11.5709C7.44723 10.9289 8.55244 10.9289 9.30142 11.5709L10.8993 12.9405C11.3318 13.3112 11.9998 13.0039 11.9998 12.4344L11.9998 4.66665C11.9998 3.56208 11.1044 2.66665 9.99984 2.66665L5.99984 2.66665Z" fill="#26579D"/>
</svg>
