<svg width="60" height="60" viewBox="0 0 60 60" fill="none" xmlns="http://www.w3.org/2000/svg">
<path fill-rule="evenodd" clip-rule="evenodd" d="M7.5 5C8.88071 5 10 6.11929 10 7.5V47.5C10 48.8807 11.1193 50 12.5 50H52.5C53.8807 50 55 51.1193 55 52.5C55 53.8807 53.8807 55 52.5 55H12.5C8.35786 55 5 51.6421 5 47.5V7.5C5 6.11929 6.11929 5 7.5 5ZM16.1132 12.9199C17.2621 12.154 18.8142 12.4644 19.5801 13.6132L28.0046 26.25H35.8333C36.6692 26.25 37.4498 26.6677 37.9135 27.3632L43.8671 36.2938L44.9502 31.6028C45.2608 30.2575 46.6032 29.4187 47.9485 29.7293C49.2938 30.0399 50.1326 31.3823 49.822 32.7276L47.4359 43.0624C47.1253 44.4077 45.7829 45.2465 44.4376 44.9359L34.103 42.5499C32.7577 42.2393 31.9189 40.897 32.2295 39.5516C32.5401 38.2063 33.8824 37.3675 35.2278 37.6781L39.4271 38.6476L34.4954 31.25H26.6667C25.8308 31.25 25.0502 30.8322 24.5865 30.1367L15.4199 16.3867C14.654 15.2379 14.9644 13.6858 16.1132 12.9199Z" fill="#00984E"/>
</svg>
