<svg width="60" height="60" viewBox="0 0 60 60" fill="none" xmlns="http://www.w3.org/2000/svg">
<path fill-rule="evenodd" clip-rule="evenodd" d="M18.75 2.5C20.1307 2.5 21.25 3.61929 21.25 5V7.5H38.75V5C38.75 3.61929 39.8693 2.5 41.25 2.5C42.6307 2.5 43.75 3.61929 43.75 5V7.56172C50.0666 8.18888 55 13.5183 55 20V42.5C55 49.4036 49.4035 55 42.5 55H17.5C10.5964 55 5 49.4036 5 42.5V20C5 13.5183 9.93335 8.18888 16.25 7.56172V5C16.25 3.61929 17.3693 2.5 18.75 2.5ZM10.4268 17.5H49.5732C48.5436 14.587 45.7655 12.5 42.5 12.5H17.5C14.2345 12.5 11.4564 14.587 10.4268 17.5ZM50 22.5H10V42.5C10 46.6421 13.3579 50 17.5 50H42.5C46.6421 50 50 46.6421 50 42.5V22.5ZM15 30C15 28.6193 16.1193 27.5 17.5 27.5H27.5C28.8807 27.5 30 28.6193 30 30V40C30 41.3807 28.8807 42.5 27.5 42.5H17.5C16.1193 42.5 15 41.3807 15 40V30ZM25 32.5H20V37.5H25V32.5Z" fill="#9054EA"/>
</svg>
