<svg width="60" height="60" viewBox="0 0 60 60" fill="none" xmlns="http://www.w3.org/2000/svg">
<path fill-rule="evenodd" clip-rule="evenodd" d="M8.125 17.5C8.125 10.5964 13.7214 5 20.625 5H30C36.9036 5 42.5 10.5964 42.5 17.5V20.2944C47.7532 21.5432 51.875 26.6102 51.875 32.5V40.9403C51.875 42.4025 52.3024 43.8328 53.1046 45.0552L57.0901 51.1283C57.5942 51.8965 57.6364 52.8792 57.1999 53.6876C56.7635 54.4961 55.9188 55 55 55H30C23.0964 55 17.5 49.4035 17.5 42.5V40H5C4.08126 40 3.23655 39.4961 2.8001 38.6876C2.36366 37.8792 2.40581 36.8965 2.90988 36.1284L6.89536 30.0552C7.6976 28.8328 8.125 27.4025 8.125 25.9403V17.5ZM22.5 40V42.5C22.5 46.6421 25.8579 50 30 50H50.3691L48.9244 47.7985C47.5874 45.7611 46.875 43.3773 46.875 40.9403V32.5C46.875 29.3075 44.9211 26.6772 42.5 25.5675V27.5C42.5 34.4036 36.9036 40 30 40H22.5ZM9.63089 35L11.0756 32.7985C12.4127 30.7611 13.125 28.3773 13.125 25.9403V17.5C13.125 13.3579 16.4829 10 20.625 10H30C34.1421 10 37.5 13.3579 37.5 17.5V27.5C37.5 31.6421 34.1421 35 30 35H9.63089Z" fill="#FF9D0C"/>
</svg>
