<svg width="60" height="60" viewBox="0 0 60 60" fill="none" xmlns="http://www.w3.org/2000/svg">
<path fill-rule="evenodd" clip-rule="evenodd" d="M22.5 10C18.3579 10 15 13.3579 15 17.5V42.5C15 46.6421 18.3579 50 22.5 50H37.5C41.6421 50 45 46.6421 45 42.5V25H37.5C33.3579 25 30 21.6421 30 17.5V10H22.5ZM35 13.5355L41.4645 20H37.5C36.1193 20 35 18.8807 35 17.5V13.5355ZM10 17.5C10 10.5964 15.5964 5 22.5 5H32.5C33.163 5 33.7989 5.26339 34.2678 5.73223L49.2678 20.7322C49.7366 21.2011 50 21.837 50 22.5V42.5C50 49.4035 44.4036 55 37.5 55H22.5C15.5964 55 10 49.4035 10 42.5V17.5ZM20 35C20 33.6193 21.1193 32.5 22.5 32.5H37.5C38.8807 32.5 40 33.6193 40 35C40 36.3807 38.8807 37.5 37.5 37.5H22.5C21.1193 37.5 20 36.3807 20 35ZM20 42.5C20 41.1193 21.1193 40 22.5 40H37.5C38.8807 40 40 41.1193 40 42.5C40 43.8807 38.8807 45 37.5 45H22.5C21.1193 45 20 43.8807 20 42.5Z" fill="#FF4040"/>
</svg>
