<svg width="209" height="32" viewBox="0 0 209 32" fill="none" xmlns="http://www.w3.org/2000/svg">
<g clip-path="url(#clip0_827_41)">
<path d="M3.29609 15.74V14.26L9.41609 11.62V13.22L5.19609 15L9.41609 16.78V18.38L3.29609 15.74Z" fill="#6D95FC"/>
<path d="M14.6671 20.54L18.7471 10.5H14.8671V8.5H21.1071V10.46L17.0271 20.5H21.1071V22.5H14.6671V20.54ZM26.1532 8.5H28.3532V14.2H30.7132V8.5H32.9132V22.5H30.7132V16.2H28.3532V22.5H26.1532V8.5ZM41.5516 22.7C40.485 22.7 39.6716 22.4 39.1116 21.8C38.5516 21.1867 38.2716 20.3133 38.2716 19.18V8.5H40.4716V19.34C40.4716 19.82 40.565 20.1667 40.7516 20.38C40.9516 20.5933 41.2316 20.7 41.5916 20.7C41.9516 20.7 42.225 20.5933 42.4116 20.38C42.6116 20.1667 42.7116 19.82 42.7116 19.34V8.5H44.8316V19.18C44.8316 20.3133 44.5516 21.1867 43.9916 21.8C43.4316 22.4 42.6183 22.7 41.5516 22.7ZM50.1985 8.5H53.4585C54.5919 8.5 55.4185 8.76667 55.9385 9.3C56.4585 9.82 56.7185 10.6267 56.7185 11.72V12.58C56.7185 14.0333 56.2385 14.9533 55.2785 15.34V15.38C55.8119 15.54 56.1852 15.8667 56.3985 16.36C56.6252 16.8533 56.7385 17.5133 56.7385 18.34V20.8C56.7385 21.2 56.7519 21.5267 56.7785 21.78C56.8052 22.02 56.8719 22.26 56.9785 22.5H54.7385C54.6585 22.2733 54.6052 22.06 54.5785 21.86C54.5519 21.66 54.5385 21.3 54.5385 20.78V18.22C54.5385 17.58 54.4319 17.1333 54.2185 16.88C54.0185 16.6267 53.6652 16.5 53.1585 16.5H52.3985V22.5H50.1985V8.5ZM53.1985 14.5C53.6385 14.5 53.9652 14.3867 54.1785 14.16C54.4052 13.9333 54.5185 13.5533 54.5185 13.02V11.94C54.5185 11.4333 54.4252 11.0667 54.2385 10.84C54.0652 10.6133 53.7852 10.5 53.3985 10.5H52.3985V14.5H53.1985ZM62.0649 8.5H64.2649V22.5H62.0649V8.5ZM69.7126 8.5H72.4726L74.6126 16.88H74.6526V8.5H76.6126V22.5H74.3526L71.7126 12.28H71.6726V22.5H69.7126V8.5ZM88.4709 8.5H90.6909L92.1309 19.36H92.1709L93.6109 8.5H95.6309L93.5109 22.5H90.5909L88.4709 8.5ZM100.488 8.5H102.688V20.5H106.308V22.5H100.488V8.5ZM112.941 8.5H115.921L118.201 22.5H116.001L115.601 19.72V19.76H113.101L112.701 22.5H110.661L112.941 8.5ZM115.341 17.86L114.361 10.94H114.321L113.361 17.86H115.341ZM123.068 8.5H126.428C127.521 8.5 128.341 8.79333 128.888 9.38C129.435 9.96667 129.708 10.8267 129.708 11.96V19.04C129.708 20.1733 129.435 21.0333 128.888 21.62C128.341 22.2067 127.521 22.5 126.428 22.5H123.068V8.5ZM126.388 20.5C126.748 20.5 127.021 20.3933 127.208 20.18C127.408 19.9667 127.508 19.62 127.508 19.14V11.86C127.508 11.38 127.408 11.0333 127.208 10.82C127.021 10.6067 126.748 10.5 126.388 10.5H125.268V20.5H126.388ZM134.993 8.5H137.193V22.5H134.993V8.5ZM145.501 22.7C144.434 22.7 143.627 22.4 143.081 21.8C142.534 21.1867 142.261 20.3133 142.261 19.18V18.38H144.341V19.34C144.341 20.2467 144.721 20.7 145.481 20.7C145.854 20.7 146.134 20.5933 146.321 20.38C146.521 20.1533 146.621 19.7933 146.621 19.3C146.621 18.7133 146.487 18.2 146.221 17.76C145.954 17.3067 145.461 16.7667 144.741 16.14C143.834 15.34 143.201 14.62 142.841 13.98C142.481 13.3267 142.301 12.5933 142.301 11.78C142.301 10.6733 142.581 9.82 143.141 9.22C143.701 8.60667 144.514 8.3 145.581 8.3C146.634 8.3 147.427 8.60667 147.961 9.22C148.507 9.82 148.781 10.6867 148.781 11.82V12.4H146.701V11.68C146.701 11.2 146.607 10.8533 146.421 10.64C146.234 10.4133 145.961 10.3 145.601 10.3C144.867 10.3 144.501 10.7467 144.501 11.64C144.501 12.1467 144.634 12.62 144.901 13.06C145.181 13.5 145.681 14.0333 146.401 14.66C147.321 15.46 147.954 16.1867 148.301 16.84C148.647 17.4933 148.821 18.26 148.821 19.14C148.821 20.2867 148.534 21.1667 147.961 21.78C147.401 22.3933 146.581 22.7 145.501 22.7ZM153.882 8.5H156.082V20.5H159.702V22.5H153.882V8.5ZM166.335 8.5H169.315L171.595 22.5H169.395L168.995 19.72V19.76H166.495L166.095 22.5H164.055L166.335 8.5ZM168.735 17.86L167.755 10.94H167.715L166.755 17.86H168.735ZM175.316 8.5H177.536L178.976 19.36H179.016L180.456 8.5H182.476L180.356 22.5H177.436L175.316 8.5Z" fill="white"/>
<path d="M194.559 8.5H196.459L190.939 22.5H189.039L194.559 8.5ZM197.213 17.28L201.433 15.5L197.213 13.72V12.12L203.333 14.76V16.24L197.213 18.88V17.28Z" fill="#6D95FC"/>
</g>
<defs>
<clipPath id="clip0_827_41">
<rect width="209" height="32" fill="white"/>
</clipPath>
</defs>
</svg>
