<svg width="296" height="32" viewBox="0 0 296 32" fill="none" xmlns="http://www.w3.org/2000/svg">
<path d="M2.65531 15.488V13.712L9.99931 10.544V12.464L4.93531 14.6L9.99931 16.736V18.656L2.65531 15.488Z" fill="#6D95FC"/>
<path d="M22.7507 22.56L28.8707 7.5H23.0507V4.5H32.4107V7.44L26.2907 22.5H32.4107V25.5H22.7507V22.56ZM39.9798 4.5H43.2798V13.05H46.8198V4.5H50.1198V25.5H46.8198V16.05H43.2798V25.5H39.9798V4.5ZM63.0775 25.8C61.4775 25.8 60.2575 25.35 59.4175 24.45C58.5775 23.53 58.1575 22.22 58.1575 20.52V4.5H61.4575V20.76C61.4575 21.48 61.5975 22 61.8775 22.32C62.1775 22.64 62.5975 22.8 63.1375 22.8C63.6775 22.8 64.0875 22.64 64.3675 22.32C64.6675 22 64.8175 21.48 64.8175 20.76V4.5H67.9975V20.52C67.9975 22.22 67.5775 23.53 66.7375 24.45C65.8975 25.35 64.6775 25.8 63.0775 25.8ZM76.0478 4.5H80.9378C82.6378 4.5 83.8778 4.9 84.6578 5.7C85.4378 6.48 85.8278 7.69 85.8278 9.33V10.62C85.8278 12.8 85.1078 14.18 83.6678 14.76V14.82C84.4678 15.06 85.0278 15.55 85.3478 16.29C85.6878 17.03 85.8578 18.02 85.8578 19.26V22.95C85.8578 23.55 85.8778 24.04 85.9178 24.42C85.9578 24.78 86.0578 25.14 86.2178 25.5H82.8578C82.7378 25.16 82.6578 24.84 82.6178 24.54C82.5778 24.24 82.5578 23.7 82.5578 22.92V19.08C82.5578 18.12 82.3978 17.45 82.0778 17.07C81.7778 16.69 81.2478 16.5 80.4878 16.5H79.3478V25.5H76.0478V4.5ZM80.5478 13.5C81.2078 13.5 81.6978 13.33 82.0178 12.99C82.3578 12.65 82.5278 12.08 82.5278 11.28V9.66C82.5278 8.9 82.3878 8.35 82.1078 8.01C81.8478 7.67 81.4278 7.5 80.8478 7.5H79.3478V13.5H80.5478ZM93.8474 4.5H97.1474V25.5H93.8474V4.5ZM105.319 4.5H109.459L112.669 17.07H112.729V4.5H115.669V25.5H112.279L108.319 10.17H108.259V25.5H105.319V4.5ZM133.456 4.5H136.786L138.946 20.79H139.006L141.166 4.5H144.196L141.016 25.5H136.636L133.456 4.5ZM151.481 4.5H154.781V22.5H160.211V25.5H151.481V4.5ZM170.161 4.5H174.631L178.051 25.5H174.751L174.151 21.33V21.39H170.401L169.801 25.5H166.741L170.161 4.5ZM173.761 18.54L172.291 8.16H172.231L170.791 18.54H173.761ZM185.352 4.5H190.392C192.032 4.5 193.262 4.94 194.082 5.82C194.902 6.7 195.312 7.99 195.312 9.69V20.31C195.312 22.01 194.902 23.3 194.082 24.18C193.262 25.06 192.032 25.5 190.392 25.5H185.352V4.5ZM190.332 22.5C190.872 22.5 191.282 22.34 191.562 22.02C191.862 21.7 192.012 21.18 192.012 20.46V9.54C192.012 8.82 191.862 8.3 191.562 7.98C191.282 7.66 190.872 7.5 190.332 7.5H188.652V22.5H190.332ZM203.24 4.5H206.54V25.5H203.24V4.5ZM219.001 25.8C217.401 25.8 216.191 25.35 215.371 24.45C214.551 23.53 214.141 22.22 214.141 20.52V19.32H217.261V20.76C217.261 22.12 217.831 22.8 218.971 22.8C219.531 22.8 219.951 22.64 220.231 22.32C220.531 21.98 220.681 21.44 220.681 20.7C220.681 19.82 220.481 19.05 220.081 18.39C219.681 17.71 218.941 16.9 217.861 15.96C216.501 14.76 215.551 13.68 215.011 12.72C214.471 11.74 214.201 10.64 214.201 9.42C214.201 7.76 214.621 6.48 215.461 5.58C216.301 4.66 217.521 4.2 219.121 4.2C220.701 4.2 221.891 4.66 222.691 5.58C223.511 6.48 223.921 7.78 223.921 9.48V10.35H220.801V9.27C220.801 8.55 220.661 8.03 220.381 7.71C220.101 7.37 219.691 7.2 219.151 7.2C218.051 7.2 217.501 7.87 217.501 9.21C217.501 9.97 217.701 10.68 218.101 11.34C218.521 12 219.271 12.8 220.351 13.74C221.731 14.94 222.681 16.03 223.201 17.01C223.721 17.99 223.981 19.14 223.981 20.46C223.981 22.18 223.551 23.5 222.691 24.42C221.851 25.34 220.621 25.8 219.001 25.8ZM231.573 4.5H234.873V22.5H240.303V25.5H231.573V4.5ZM250.253 4.5H254.723L258.143 25.5H254.843L254.243 21.33V21.39H250.493L249.893 25.5H246.833L250.253 4.5ZM253.853 18.54L252.383 8.16H252.323L250.883 18.54H253.853ZM263.724 4.5H267.054L269.214 20.79H269.274L271.434 4.5H274.464L271.284 25.5H266.904L263.724 4.5Z" fill="white"/>
<path d="M286.491 17.236L291.555 15.1L286.491 12.964V11.044L293.835 14.212V15.988L286.491 19.156V17.236Z" fill="#6D95FC"/>
</svg>
