<svg width="30" height="30" viewBox="0 0 30 30" fill="none" xmlns="http://www.w3.org/2000/svg">
<path d="M4.01519 13.0969L3.98379 13.375H4.26361H24.285H24.5648L24.5334 13.0969C23.9366 7.8122 19.5604 3.9782 14.2743 3.9782C8.98817 3.9782 4.61198 7.8122 4.01519 13.0969ZM17.3438 25.5542C18.5122 25.5542 19.4688 24.6185 19.4688 23.4595V22.75H21.3125V23.4595C21.3125 25.6291 19.5338 27.3979 17.3438 27.3979C15.1537 27.3979 13.375 25.6291 13.375 23.4595V17.5937H15.2188V23.4595C15.2188 24.6184 16.1753 25.5542 17.3438 25.5542ZM2.125 14.2887C2.125 7.5776 7.58495 2.12634 14.2969 2.12634C21.0088 2.12634 26.4688 7.5776 26.4688 14.2887V15.2187H2.125V14.2887Z" fill="#453D36" stroke="#9D8C7C" stroke-width="0.5"/>
</svg>
