<svg width="29" height="30" viewBox="0 0 29 30" fill="none" xmlns="http://www.w3.org/2000/svg">
<path d="M22.9277 23.9617L22.6834 24.0148L22.6834 24.0148L22.6834 24.015L22.6836 24.0159L22.6844 24.0195L22.6874 24.0334L22.6988 24.086L22.7396 24.2738L22.8634 24.844L22.8966 24.9972C22.9675 25.3235 23.0326 25.6235 23.0438 25.6746L23.0437 25.6746C23.3932 27.2834 22.3811 28.9202 20.7246 29.2799C20.3681 29.3573 20.0772 29.4213 19.8366 29.4743C18.8471 29.6921 18.7091 29.7225 18.3603 29.7225C17.2222 29.7225 16.079 29.0384 15.5851 27.9028L15.5095 27.7289L15.3215 27.7549C14.6398 27.8496 13.8889 27.879 13.2495 27.87C12.6022 27.8609 12.0953 27.8127 11.8915 27.7617L11.6862 27.7104L11.6017 27.9044C11.3139 28.5652 10.8012 29.0844 10.1776 29.397C9.1761 29.8991 8.4622 29.7353 7.14546 29.4334C6.9346 29.385 6.70827 29.3331 6.46284 29.2798C4.95712 28.9529 3.96008 27.5585 4.08845 26.0623L4.08845 26.0622C4.1102 25.8077 4.12931 25.7209 4.30285 24.9327C4.36426 24.6538 4.44502 24.287 4.55209 23.7938L4.57662 23.6809L4.50644 23.589C2.80037 21.356 2.17931 18.5574 2.87456 15.8424L2.93599 15.6025L2.69672 15.5388C1.78031 15.2947 1.04659 14.7967 0.621479 13.9701C-0.624035 11.5454 1.45524 8.77475 4.07147 9.20025L3.64369 11.0064C3.4299 10.993 3.16695 11.0236 2.89115 11.1657C1.5492 11.8552 2.00393 13.773 3.51657 13.8034L3.66694 13.8065L3.74006 13.675C6.29199 9.08805 12.352 7.00971 17.5883 8.93555L17.7124 8.98208C18.6541 9.33526 19.1949 9.66501 19.6189 9.92353C19.7399 9.99732 19.8514 10.0653 19.96 10.1264L20.0677 10.187L20.1813 10.1381C22.3605 9.20066 24.7838 8.66077 27.2848 8.68873L24.9752 14.2365L24.8937 14.4322L25.0735 14.5446C26.112 15.1937 27.2819 15.6066 27.853 15.8072L27.0743 22.3113C26.9626 22.3341 26.8457 22.3573 26.7249 22.3814C26.2041 22.485 25.6083 22.6035 25.0217 22.7641C24.2249 22.9823 23.4116 23.2862 22.7776 23.7617L22.6493 23.858L22.6833 24.0147L22.9277 23.9617ZM25.2292 20.8111L25.4015 20.7723L25.4226 20.5969L25.8298 17.1967L25.8517 17.0139L25.6836 16.9387C24.8221 16.5534 24.3847 16.2875 23.1383 15.5298C22.9685 15.4266 22.7836 15.3143 22.5807 15.1912L24.2422 11.2001L24.4249 10.7613L23.9598 10.8594C22.3655 11.1956 21.1393 11.728 20.0874 12.1848C20.0176 12.2151 19.9485 12.2451 19.8802 12.2747L18.9408 11.6635C15.8921 9.68017 12.2722 9.66611 9.41591 10.9446C6.56103 12.2225 4.43747 14.8096 4.43747 18.0469C4.43747 20.5199 5.6482 22.0715 6.43404 23.0785C6.47711 23.1337 6.51891 23.1873 6.55916 23.2392C6.48584 23.577 6.40819 23.9347 6.32963 24.2967C6.1989 24.899 6.06564 25.5129 5.94556 26.0657L5.94555 26.0658C5.80662 26.7058 6.21394 27.3391 6.854 27.4781C7.12049 27.5359 7.36143 27.5914 7.57834 27.6413C7.90626 27.7168 8.17927 27.7797 8.40266 27.819C8.7725 27.8842 9.0886 27.9032 9.36084 27.7654C9.63307 27.6277 9.80662 27.3609 9.97514 27.0189C10.0845 26.7969 10.205 26.5131 10.3519 26.1671C10.412 26.0255 10.4766 25.8734 10.5466 25.7109C10.6566 25.7263 10.7624 25.7412 10.8646 25.7556C12.1466 25.9359 12.8343 26.0327 13.5363 26.0347C14.2914 26.0368 15.0634 25.9296 16.6121 25.7144C16.6218 25.713 16.6316 25.7117 16.6414 25.7103C16.7148 25.881 16.7822 26.0404 16.8446 26.1882C16.9838 26.5176 17.0988 26.7899 17.2034 27.0043C17.3697 27.345 17.5414 27.6126 17.8122 27.7531C18.0837 27.8939 18.4004 27.879 18.7734 27.8162C19.0134 27.7757 19.3083 27.7087 19.6665 27.6272C19.8683 27.5813 20.0901 27.5309 20.3334 27.478L20.3334 27.478C20.9735 27.339 21.3808 26.7057 21.2419 26.0656L21.2419 26.0656C21.2016 25.8799 21.1843 25.8004 21.1695 25.7323C21.1261 25.5323 21.1039 25.4305 20.5806 23.0197C20.7027 22.9368 20.8197 22.857 20.9325 22.7799C21.5543 22.3553 22.051 22.0162 22.6024 21.7245C23.2837 21.3641 24.0506 21.076 25.2292 20.8111ZM13.125 2.09375C10.8677 2.09375 9.19354 4.19114 9.67595 6.37673C9.07426 6.54462 8.49014 6.74979 7.9272 6.99052C7.02832 3.60408 9.60109 0.25 13.125 0.25C16.49 0.25 19.0798 3.34394 18.3856 6.69932C17.8064 6.48806 17.2134 6.31524 16.6096 6.18143C16.9586 4.03184 15.284 2.09375 13.125 2.09375ZM19 17.3438C19 16.7052 19.5177 16.1875 20.1562 16.1875C20.7947 16.1875 21.3125 16.7052 21.3125 17.3438C21.3125 17.9823 20.7947 18.5 20.1562 18.5C19.5177 18.5 19 17.9823 19 17.3438Z" fill="#453D36" stroke="#9D8C7C" stroke-width="0.5"/>
</svg>
