<svg width="30" height="30" viewBox="0 0 30 30" fill="none" xmlns="http://www.w3.org/2000/svg">
<path d="M11.25 25.5625H11.5V25.3125V11.0312H26.9375V27.4062H16.1875V23.6875H18.0312V25.3125V25.5625H18.2812H24.8438H25.0938V25.3125V13.125V12.875H24.8438H13.5938H13.3438V13.125V27.4062H2.59375V2.59375H18.0312V8.65625H16.1875V4.6875V4.4375H15.9375H4.6875H4.4375V4.6875V25.3125V25.5625H4.6875H11.25ZM22.25 19.4688V21.3125H20.4062V19.4688H22.25ZM16.1875 17.0938V15.25H18.0312V17.0938H16.1875ZM18.0312 19.4688V21.3125H16.1875V19.4688H18.0312ZM20.4062 17.0938V15.25H22.25V17.0938H20.4062ZM9.125 19.4688V21.3125H7.28125V19.4688H9.125ZM7.28125 8.65625V6.8125H9.125V8.65625H7.28125ZM11.5 6.8125H13.3438V8.65625H11.5V6.8125ZM7.28125 12.875V11.0312H9.125V12.875H7.28125ZM7.28125 17.0938V15.25H9.125V17.0938H7.28125Z" fill="#161616" stroke="#9D8C7C" stroke-width="0.5"/>
</svg>
