<svg width="30" height="30" viewBox="0 0 30 30" fill="none" xmlns="http://www.w3.org/2000/svg">
<path d="M13.0837 10.9951C13.9972 10.9951 14.74 11.7378 14.74 12.6513C14.74 13.5649 13.9972 14.3076 13.0837 14.3076C12.1701 14.3076 11.4274 13.5649 11.4274 12.6513L13.0837 10.9951ZM13.0837 10.9951C12.1701 10.9951 11.4273 11.7378 11.4274 12.6513L13.0837 10.9951ZM22.9688 18.5312H23.2188V18.2812V7.03125V6.78125H22.9688H3.28125H3.03125V7.03125V18.2812V18.5312H3.28125H22.9688ZM27.1875 22.75H27.4375V22.5V8.21875H29.2812V24.5938H4.46875V22.75H27.1875ZM1.1875 4.9375H25.0625V20.375H1.1875V4.9375ZM16.5838 12.6513C16.5838 14.5809 15.0133 16.1513 13.0837 16.1513C11.1539 16.1513 9.58356 14.5809 9.58361 12.6513C9.58361 10.7217 11.1539 9.15137 13.0837 9.15137C15.0133 9.15137 16.5838 10.7217 16.5838 12.6513ZM18.49 12.6562C18.49 12.2553 18.6379 11.973 18.8456 11.7884C19.0579 11.5997 19.348 11.5 19.6463 11.5C19.9446 11.5 20.2347 11.5997 20.447 11.7884C20.6547 11.973 20.8025 12.2553 20.8025 12.6562C20.8025 13.0572 20.6547 13.3395 20.447 13.5241C20.2347 13.7128 19.9446 13.8125 19.6463 13.8125C19.348 13.8125 19.0579 13.7128 18.8456 13.5241C18.6379 13.3395 18.49 13.0572 18.49 12.6562ZM5.36472 12.6562C5.36472 12.2553 5.51257 11.973 5.72026 11.7884C5.93255 11.5997 6.22267 11.5 6.52097 11.5C6.81926 11.5 7.10939 11.5997 7.32167 11.7884C7.52936 11.973 7.67722 12.2553 7.67722 12.6562C7.67722 13.0572 7.52936 13.3395 7.32167 13.5241C7.10939 13.7128 6.81926 13.8125 6.52097 13.8125C6.22267 13.8125 5.93255 13.7128 5.72026 13.5241C5.51257 13.3395 5.36472 13.0572 5.36472 12.6562Z" fill="#453D36" stroke="#9D8C7C" stroke-width="0.5"/>
</svg>
