<svg width="30" height="30" viewBox="0 0 30 30" fill="none" xmlns="http://www.w3.org/2000/svg">
<path d="M6.25794 7.22761L3.53217 9.95919L2.35317 8.77527L7.53768 3.58974L12.7208 8.77465L11.5327 9.96011L8.78728 7.22125L8.36071 6.79571L8.36071 7.39824L8.36071 12.7237C8.36071 13.4028 8.51726 13.9947 8.85677 14.5157C9.19445 15.0338 9.70182 15.4645 10.3758 15.842L10.3758 15.842C11.3489 16.3868 13.7056 17.8296 14.8004 18.5044L14.9316 18.5852L15.0628 18.5044C16.1582 17.8293 18.5055 16.3867 19.4785 15.842L19.4785 15.842C20.1529 15.4642 20.6572 15.0333 20.9916 14.5146C21.3277 13.9934 21.4804 13.4017 21.4804 12.7237L21.4804 7.4042L21.4804 6.79967L21.0534 7.22763L18.3279 9.95939L17.1455 8.77506L22.3331 3.58968L27.5163 8.77465L26.3282 9.96011L23.5828 7.22125L23.1562 6.79571L23.1562 7.39824L23.1562 12.7237C23.1562 14.6938 22.2075 16.2299 20.2897 17.304C19.3505 17.8299 16.7455 19.312 15.8585 19.977L15.7585 20.052L15.7585 20.1771L15.7585 27.7496L14.0827 27.7466L14.0826 20.1771L14.0826 20.0521L13.9826 19.9771C13.0956 19.312 10.4901 17.8299 9.55139 17.304L9.55138 17.304C7.63362 16.2299 6.6849 14.6938 6.6849 12.7237L6.6849 7.4042L6.6849 6.79974L6.25794 7.22761Z" fill="#453D36" stroke="#9D8C7C" stroke-width="0.5"/>
</svg>
