<svg width="30" height="30" viewBox="0 0 30 30" fill="none" xmlns="http://www.w3.org/2000/svg">
<path d="M14.2106 14.7812L14.4685 14.3929L18.626 8.13495L17.5176 6.47381L12.0706 14.6696L11.9964 14.7812H11.8624H11.852H11.7182L11.6439 14.6699L10.3067 12.6641L10.2144 12.5257L10.3066 12.3871L15.2588 4.9375H13.0448L9.3137 10.5464L9.10589 10.8588L8.89761 10.5467L7.73764 8.80869L7.64506 8.66998L7.73757 8.53122C8.24568 7.76913 8.68983 7.11137 9.11719 6.4785C9.9151 5.29686 10.6544 4.20197 11.6421 2.67662L11.716 2.5625H11.852L14.2106 14.7812ZM14.2106 14.7812H14.6768M14.2106 14.7812H14.6768M14.6768 14.7812V14.5312V14.7812ZM14.7478 29.2725C11.5809 29.2725 9.40416 26.2157 10.3111 23.2463L12.0499 23.876C11.7722 24.9241 12.1167 26.0663 12.9884 26.7852L12.9884 26.7853C14.6233 28.1329 17.1139 27.2638 17.519 25.178C17.8326 23.563 16.8247 22.3169 15.663 21.9227C14.5736 21.5528 13.8447 20.5014 13.8447 19.2952V16.875V16.625H13.5947H10.7315L5.42937 8.67188L10.7315 0.71875H10.7319H10.733H10.7342H10.7353H10.7364H10.7376H10.7387H10.7398H10.741H10.7421H10.7432H10.7444H10.7455H10.7466H10.7477H10.7488H10.75H10.7511H10.7522H10.7533H10.7544H10.7555H10.7566H10.7577H10.7588H10.76H10.7611H10.7622H10.7633H10.7644H10.7654H10.7665H10.7676H10.7687H10.7698H10.7709H10.772H10.7731H10.7742H10.7752H10.7763H10.7774H10.7785H10.7795H10.7806H10.7817H10.7828H10.7838H10.7849H10.786H10.787H10.7881H10.7892H10.7902H10.7913H10.7923H10.7934H10.7944H10.7955H10.7965H10.7976H10.7986H10.7997H10.8007H10.8018H10.8028H10.8039H10.8049H10.8059H10.807H10.808H10.809H10.8101H10.8111H10.8121H10.8132H10.8142H10.8152H10.8162H10.8172H10.8183H10.8193H10.8203H10.8213H10.8223H10.8233H10.8243H10.8253H10.8264H10.8274H10.8284H10.8294H10.8304H10.8314H10.8324H10.8334H10.8344H10.8353H10.8363H10.8373H10.8383H10.8393H10.8403H10.8413H10.8423H10.8432H10.8442H10.8452H10.8462H10.8472H10.8481H10.8491H10.8501H10.851H10.852H10.853H10.8539H10.8549H10.8559H10.8568H10.8578H10.8587H10.8597H10.8607H10.8616H10.8626H10.8635H10.8645H10.8654H10.8663H10.8673H10.8682H10.8692H10.8701H10.8711H10.872H10.8729H10.8739H10.8748H10.8757H10.8767H10.8776H10.8785H10.8794H10.8804H10.8813H10.8822H10.8831H10.884H10.885H10.8859H10.8868H10.8877H10.8886H10.8895H10.8904H10.8913H10.8922H10.8931H10.894H10.8949H10.8958H10.8967H10.8976H10.8985H10.8994H10.9003H10.9012H10.9021H10.903H10.9039H10.9048H10.9056H10.9065H10.9074H10.9083H10.9092H10.91H10.9109H10.9118H10.9127H10.9135H10.9144H10.9153H10.9161H10.917H10.9179H10.9187H10.9196H10.9205H10.9213H10.9222H10.923H10.9239H10.9247H10.9256H10.9264H10.9273H10.9281H10.929H10.9298H10.9307H10.9315H10.9323H10.9332H10.934H10.9349H10.9357H10.9365H10.9374H10.9382H10.939H10.9398H10.9407H10.9415H10.9423H10.9431H10.944H10.9448H10.9456H10.9464H10.9472H10.948H10.9489H10.9497H10.9505H10.9513H10.9521H10.9529H10.9537H10.9545H10.9553H10.9561H10.9569H10.9577H10.9585H10.9593H10.9601H10.9609H10.9617H10.9625H10.9633H10.964H10.9648H10.9656H10.9664H10.9672H10.968H10.9687H10.9695H10.9703H10.9711H10.9718H10.9726H10.9734H10.9741H10.9749H10.9757H10.9764H10.9772H10.978H10.9787H10.9795H10.9803H10.981H10.9818H10.9825H10.9833H10.984H10.9848H10.9855H10.9863H10.987H10.9878H10.9885H10.9893H10.99H10.9907H10.9915H10.9922H10.9929H10.9937H10.9944H10.9951H10.9959H10.9966H10.9973H10.9981H10.9988H10.9995H11.0002H11.001H11.0017H11.0024H11.0031H11.0038H11.0045H11.0053H11.006H11.0067H11.0074H11.0081H11.0088H11.0095H11.0102H11.0109H11.0116H11.0123H11.013H11.0137H11.0144H11.0151H11.0158H11.0165H11.0172H11.0179H11.0186H11.0193H11.02H11.0206H11.0213H11.022H11.0227H11.0234H11.024H11.0247H11.0254H11.0261H11.0268H11.0274H11.0281H11.0288H11.0294H11.0301H11.0308H11.0314H11.0321H11.0328H11.0334H11.0341H11.0347H11.0354H11.0361H11.0367H11.0374H11.038H11.0387H11.0393H11.04H11.0406H11.0413H11.0419H11.0426H11.0432H11.0438H11.0445H11.0451H11.0458H11.0464H11.047H11.0477H11.0483H11.0489H11.0496H11.0502H11.0508H11.0514H11.0521H11.0527H11.0533H11.0539H11.0546H11.0552H11.0558H11.0564H11.057H11.0576H11.0583H11.0589H11.0595H11.0601H11.0607H11.0613H11.0619H11.0625H11.0631H11.0637H11.0643H11.0649H11.0655H11.0661H11.0667H11.0673H11.0679H11.0685H11.0691H11.0697H11.0703H11.0709H11.0714H11.072H11.0726H11.0732H11.0738H11.0738H11.0738H11.0738H11.0738H11.0738H11.0738H11.0738H11.0738H11.0739H11.0739H11.0739H11.0739H11.0739H11.0739H11.0739H11.074H11.074H11.074H11.074H11.074H11.0741H11.0741H11.0741H11.0741H11.0742H11.0742H11.0742H11.0743H11.0743H11.0743H11.0744H11.0744H11.0744H11.0745H11.0745H11.0745H11.0746H11.0746H11.0747H11.0747H11.0747H11.0748H11.0748H11.0749H11.0749H11.075H11.075H11.0751H11.0751H11.0752H11.0752H11.0753H11.0754H11.0754H11.0755H11.0755H11.0756H11.0757H11.0757H11.0758H11.0758H11.0759H11.076H11.0761H11.0761H11.0762H11.0763H11.0763H11.0764H11.0765H11.0766H11.0766H11.0767H11.0768H11.0769H11.077H11.077H11.0771H11.0772H11.0773H11.0774H11.0775H11.0776H11.0777H11.0777H11.0778H11.0779H11.078H11.0781H11.0782H11.0783H11.0784H11.0785H11.0786H11.0787H11.0788H11.0789H11.079H11.0791H11.0793H11.0794H11.0795H11.0796H11.0797H11.0798H11.0799H11.08H11.0802H11.0803H11.0804H11.0805H11.0806H11.0808H11.0809H11.081H11.0812H11.0813H11.0814H11.0815H11.0817H11.0818H11.0819H11.0821H11.0822H11.0824H11.0825H11.0826H11.0828H11.0829H11.0831H11.0832H11.0833H11.0835H11.0836H11.0838H11.0839H11.0841H11.0843H11.0844H11.0846H11.0847H11.0849H11.085H11.0852H11.0854H11.0855H11.0857H11.0859H11.086H11.0862H11.0864H11.0865H11.0867H11.0869H11.0871H11.0872H11.0874H11.0876H11.0878H11.0879H11.0881H11.0883H11.0885H11.0887H11.0889H11.0891H11.0892H11.0894H11.0896H11.0898H11.09H11.0902H11.0904H11.0906H11.0908H11.091H11.0912H11.0914H11.0916H11.0918H11.092H11.0922H11.0925H11.0927H11.0929H11.0931H11.0933H11.0935H11.0937H11.094H11.0942H11.0944H11.0946H11.0949H11.0951H11.0953H11.0955H11.0958H11.096H11.0962H11.0965H11.0967H11.0969H11.0972H11.0974H11.0976H11.0979H11.0981H11.0984H11.0986H11.0989H11.0991H11.0994H11.0996H11.0999H11.1001H11.1004H11.1006H11.1009H11.1012H11.1014H11.1017H11.1019H11.1022H11.1025H11.1027H11.103H11.1033H11.1035H11.1038H11.1041H11.1044H11.1046H11.1049H11.1052H11.1055H11.1058H11.1061H11.1063H11.1066H11.1069H11.1072H11.1075H11.1078H11.1081H11.1084H11.1087H11.109H11.1093H11.1096H11.1099H11.1102H11.1105H11.1108H11.1111H11.1114H11.1117H11.112H11.1123H11.1127H11.113H11.1133H11.1136H11.1139H11.1142H11.1146H11.1149H11.1152H11.1156H11.1159H11.1162H11.1165H11.1169H11.1172H11.1175H11.1179H11.1182H11.1186H11.1189H11.1193H11.1196H11.1199H11.1203H11.1206H11.121H11.1213H11.1217H11.1221H11.1224H11.1228H11.1231H11.1235H11.1239H11.1242H11.1246H11.125H11.1253H11.1257H11.1261H11.1264H11.1268H11.1272H11.1276H11.1279H11.1283H11.1287H11.1291H11.1295H11.1299H11.1303H11.1306H11.131H11.1314H11.1318H11.1322H11.1326H11.133H11.1334H11.1338H11.1342H11.1346H11.135H11.1354H11.1358H11.1363H11.1367H11.1371H11.1375H11.1379H11.1383H11.1388H11.1392H11.1396H11.14H11.1405H11.1409H11.1413H11.1417H11.1422H11.1426H11.1431H11.1435H11.1439H11.1444H11.1448H11.1453H11.1457H11.1461H11.1466H11.147H11.1475H11.148H11.1484H11.1489H11.1493H11.1498H11.1502H11.1507H11.1512H11.1516H11.1521H11.1526H11.153H11.1535H11.154H11.1545H11.1549H11.1554H11.1559H11.1564H11.1569H11.1574H11.1578H11.1583H11.1588H11.1593H11.1598H11.1603H11.1608H11.1613H11.1618H11.1623H11.1628H11.1633H11.1638H11.1643H11.1648H11.1653H11.1659H11.1664H11.1669H11.1674H11.1679H11.1685H11.169H11.1695H11.17H11.1706H11.1711H11.1716H11.1722H11.1727H11.1732H11.1738H11.1743H11.1748H11.1754H11.1759H11.1765H11.177H11.1776H11.1781H11.1787H11.1792H11.1798H11.1804H11.1809H11.1815H11.182H11.1826H11.1832H11.1837H11.1843H11.1849H11.1855H11.186H11.1866H11.1872H11.1878H11.1884H11.1889H11.1895H11.1901H11.1907H11.1913H11.1919H11.1925H11.1931H11.1937H11.1943H11.1949H11.1955H11.1961H11.1967H11.1973H11.1979H11.1985H11.1991H11.1997H11.2004H11.201H11.2016H11.2022H11.2029H11.2035H11.2041H11.2047H11.2054H11.206H11.2066H11.2073H11.2079H11.2086H11.2092H11.2098H11.2105H11.2111H11.2118H11.2124H11.2131H11.2137H11.2144H11.2151H11.2157H11.2164H11.217H11.2177H11.2184H11.219H11.2197H11.2204H11.2211H11.2217H11.2224H11.2231H11.2238H11.2245H11.2251H11.2258H11.2265H11.2272H11.2279H11.2286H11.2293H11.23H11.2307H11.2314H11.2321H11.2328H11.2335H11.2342H11.2349H11.2356H11.2364H11.2371H11.2378H11.2385H11.2392H11.24H11.2428H11.2457H11.2486H11.2515H11.2545H11.2574H11.2605H11.2635H11.2666H11.2697H11.2728H11.276H11.2792H11.2824H11.2857H11.2889H11.2923H11.2956H11.299H11.3024H11.3058H11.3093H11.3128H11.3163H11.3199H11.3235H11.3271H11.3308H11.3345H11.3382H11.3419H11.3457H11.3495H11.3534H11.3573H11.3612H11.3651H11.3691H11.3731H11.3772H11.3812H11.3854H11.3895H11.3937H11.3979H11.4021H11.4064H11.4107H11.4151H11.4195H11.4239H11.4283H11.4328H11.4373H11.4419H11.4465H11.4511H11.4557H11.4604H11.4652H11.4699H11.4747H11.4795H11.4844H11.4893H11.4943H11.4992H11.5042H11.5093H11.5144H11.5195H11.5246H11.5298H11.5351H11.5403H11.5456H11.551H11.5563H11.5618H11.5672H11.5727H11.5782H11.5838H11.5894H11.595H11.6007H11.6064H11.6122H11.618H11.6238H11.6297H11.6356H11.6415H11.6475H11.6535H11.6596H11.6657H11.6718H11.678H11.6842H11.6905H11.6968H11.7031H11.7095H11.7159H11.7224H11.7289H11.7354H11.742H11.7486H11.7553H11.762H11.7687H11.7755H11.7823H11.7892H11.7961H11.803H11.81H11.8171H11.8241H11.8313H11.8384H11.8456H11.8529H11.8601H11.8675H11.8748H11.8822H11.8897H11.8972H11.9047H11.9123H11.9199H11.9276H11.9353H11.9431H11.9509H11.9587H11.9666H11.9745H11.9825H11.9905H11.9986H12.0067H12.0148H12.023H12.0313H12.0396H12.0479H12.0563H12.0647H12.0732H12.0817H12.0902H12.0988H12.1075H12.1162H12.1249H12.1337H12.1425H12.1514H12.1603H12.1693H12.1783H12.1874H12.1965H12.2057H12.2149H12.2241H12.2334H12.2428H12.2522H12.2616H12.2711H12.2806H12.2902H12.2998H12.3095H12.3193H12.329H12.3389H12.3487H12.3587H12.3686H12.3786H12.3887H12.3988H12.409H12.4192H12.4295H12.4398H12.4502H12.4606H12.471H12.4816H12.4921H12.5027H12.5134H12.5241H12.5349H12.5457H12.5566H12.5675H12.5785H12.5895H12.6005H12.6117H12.6228H12.6341H12.6453H12.6567H12.668H12.6795H12.691H12.7025H12.7141H12.7257H12.7374H12.7492H12.761H12.7728H12.7847H12.7967H12.8087H12.8207H12.8329H12.845H12.8573H12.8695H12.8819H12.8942H12.9067H12.9192H12.9317H12.9443H12.957H12.9697H12.9825H12.9953H13.0081H13.0211H13.0341H13.0471H13.0602H13.0733H13.0865H13.0998H13.1131H13.1265H13.1399H13.1534H13.1669H13.1805H13.1942H13.2079H13.2217H13.2355H13.2494H13.2633H13.2773H13.2914H13.3055H13.3196H13.3338H13.3481H13.3625H13.3769H13.3913H13.4058H13.4204H13.435H13.4497H13.4645H13.4793H13.4941H13.509H13.524H13.5391H13.5542H13.5693H13.5845H13.5998H13.6151H13.6305H13.646H13.6615H13.6771H13.6927H13.7084H13.7242H13.74H13.7558H13.7718H13.7878H13.8038H13.8199H13.8361H13.8524H13.8687H13.885H13.9015H13.9179H13.9345H13.9511H13.9678H13.9845H14.0013H14.0182H14.0351H14.0521H14.0691H14.0862H14.1034H14.1206H14.1379H14.1553H14.1727H14.1902H14.2077H14.2254H14.243H14.2608H14.2786H14.2964H14.3144H14.3324H14.3504H14.3686H14.3867H14.405H14.4233H14.4417H14.4602H14.4787H14.4973H14.5159H14.5346H14.5534H14.5722H14.5911H14.6101H14.6291H14.6482H14.6674H14.6867H14.706H14.7253H14.7448H14.7643H14.7838H14.8035H14.8232H14.843H14.8628H14.8827H14.9027H14.9227H14.9428H14.963H14.9833H15.0036H15.0239H15.0444H15.0649H15.0855H15.1062H15.1269H15.1477H15.1685H15.1895H15.2105H15.2315H15.2527H15.2739H15.2951H15.3165H15.3379H15.3594H15.381H15.4026H15.4243H15.446H15.4679H15.4898H15.5118H15.5338H15.5559H15.5781H15.6004H15.6227H15.6451H15.6676H15.6901H15.7128H15.7355H15.7582H15.7811H15.804H15.8269H15.85H15.8731H15.8963H15.9196H15.9429H15.9663H15.9898H16.0134H16.037H16.0607H16.0845H16.1083H16.1323H16.1563H16.1804H16.2045H16.2287H16.253H16.2774H16.3018H16.3264H16.3509H16.3756H16.4004H16.4252H16.4501H16.475H16.5001H16.5252H16.5504H16.5757H16.601H16.6264H16.6519H16.6775H16.7032H16.7289H16.7547H16.7806H16.8065H16.8325H16.8587H16.8848H16.9111H16.9374H16.9639H16.9903H17.0169H17.0436H17.0703H17.0971H17.124H17.1509H17.178H17.2051H17.2323H17.2596H17.2869H17.3143H17.3418H17.3694H17.3971H17.4248H17.4527H17.4806H17.5086H17.5366H17.5648H17.593H17.6213H17.6497H17.6781H17.7067H17.7353H17.764H17.7928H17.8216H17.8506H17.8796H17.9087H17.9379H17.9672H17.9965H18.0259H18.0554H18.085H18.1147H18.1445H18.1743H18.2042H18.2342H18.2643H18.2945H18.3247H18.3551H18.3855H18.416H18.4466H18.4772H18.508H18.5388H18.5697H18.6007H18.6318H18.6629H18.6942H18.7255H18.745C19.611 2.09662 21.3851 4.72145 22.7522 6.74411C23.2662 7.50463 23.7227 8.18003 24.0518 8.67199L18.7496 16.625H15.9384H15.6884V16.875V19.2952C15.6884 19.6675 15.8852 20.0513 16.2563 20.177C21.2002 21.8543 20.0503 29.2725 14.7478 29.2725ZM17.6292 2.8125L17.8346 2.67011L17.7601 2.5625H17.6292H17.608H17.587H17.5661H17.5452H17.5245H17.5039H17.4834H17.463H17.4427H17.4224H17.4023H17.3823H17.3624H17.3426H17.3228H17.3032H17.2837H17.2643H17.2449H17.2257H17.2065H17.1875H17.1685H17.1497H17.1309H17.1123H17.0937H17.0752H17.0568H17.0385H17.0203H17.0022H16.9842H16.9662H16.9484H16.9306H16.913H16.8954H16.8779H16.8605H16.8432H16.826H16.8089H16.7919H16.7749H16.758H16.7412H16.7245H16.7079H16.6914H16.675H16.6586H16.6423H16.6261H16.61H16.594H16.5781H16.5622H16.5464H16.5307H16.5151H16.4996H16.4841H16.4687H16.4534H16.4382H16.4231H16.408H16.393H16.3781H16.3633H16.3485H16.3338H16.3192H16.3047H16.2902H16.2759H16.2615H16.2473H16.2332H16.2191H16.2051H16.1911H16.1773H16.1635H16.1497H16.1361H16.1225H16.109H16.0955H16.0822H16.0688H16.0556H16.0424H16.0293H16.0163H16.0033H15.9904H15.9776H15.9648H15.9521H15.9395H15.9269H15.9144H15.902H15.8896H15.8773H15.865H15.8528H15.8407H15.8286H15.8166H15.8047H15.7928H15.7809H15.7692H15.7575H15.7458H15.7342H15.7227H15.7112H15.6998H15.6885H15.6772H15.6659H15.6547H15.6436H15.6325H15.6215H15.6105H15.5996H15.5887H15.5779H15.5672H15.5565H15.5458H15.5352H15.5247H15.5142H15.5037H15.4933H15.483H15.4727H15.4625H15.4523H15.4421H15.432H15.422H15.4119H15.402H15.3921H15.3822H15.3724H15.3626H15.3529H15.3432H15.3336H15.324H15.3144H15.3049H15.2954H15.286H15.2766H15.2673H15.258H15.2487H15.2395H15.2303H15.2212H15.2121H15.203H15.194H15.185H15.176H15.1671H15.1583H15.1494H15.1406H15.1319H15.1231H15.1144H15.1058H15.0972H15.0886H15.08H15.0715H15.063H15.0545H15.0461H15.0377H15.0293H15.021H15.0127H15.0044H14.9962H14.988H14.9798H14.9716H14.9635H14.9554H14.9474H14.9393H14.9313H14.9233H14.9153H14.9074H14.8995H14.8916H14.8837H14.8759H14.8681H14.8603H14.8525H14.8448H14.837H14.8293H14.8217H14.814H14.8064H14.7987H14.7911H14.7836H14.776H14.7684H14.7609H14.7534H14.7459H14.7385H14.731H14.7236H14.7161H14.7087H14.7014H14.694H14.6866H14.6793H14.6719H14.6646H14.6573H14.65H14.6427H14.6355H14.6282H14.621H14.6137H14.6065H14.5993H14.5921H14.5849H14.5777H14.5705H14.5634H14.5562H14.549H14.5419H14.5347H14.5276H14.5205H14.5134H14.5062H14.4991H14.492H14.4849H14.4778H14.4707H14.4636H14.4565H14.4494H14.4423H14.4353H14.4282H14.4211H14.414H14.4069H14.3998H14.3927H14.3857H14.3786H14.3715H14.3644H14.3573H14.3502H14.3431H14.336H14.3289H14.3217H14.3146H14.3075H14.3003H14.2932H14.2861H14.2789H14.2717L17.6292 2.8125Z" fill="#453D36" stroke="#9D8C7C" stroke-width="0.5"/>
</svg>
