<svg width="58" height="44" viewBox="0 0 58 44" fill="none" xmlns="http://www.w3.org/2000/svg">
<path d="M44.028 20.9446C40.887 20.4034 38.5042 19.2128 36.8796 17.3727C35.3632 15.5326 34.605 13.3137 34.605 10.7159C34.605 7.46864 35.6881 4.87085 37.8543 2.92251C40.1289 0.97417 42.7825 0 45.8151 0C49.1727 0 52.0429 1.02829 54.4258 3.08487C56.8086 5.14145 58 8.11808 58 12.0148C58 14.6125 57.296 17.5351 55.888 20.7823C54.4799 23.9213 52.2596 28.0344 49.2269 33.1218L43.0532 44H30.7059L44.028 20.9446ZM13.3221 20.9446C10.1811 20.4034 7.79832 19.2128 6.17367 17.3727C4.65733 15.5326 3.89916 13.3137 3.89916 10.7159C3.89916 7.46864 4.98226 4.87085 7.14846 2.92251C9.42297 0.97417 12.0766 0 15.1092 0C18.4669 0 21.3371 1.02829 23.7199 3.08487C26.1027 5.14145 27.2941 8.11808 27.2941 12.0148C27.2941 14.6125 26.5901 17.5351 25.1821 20.7823C23.774 23.9213 21.5537 28.0344 18.521 33.1218L12.3473 44H0L13.3221 20.9446Z" fill="#1F58E0"/>
</svg>
