<svg width="58" height="44" viewBox="0 0 58 44" fill="none" xmlns="http://www.w3.org/2000/svg">
<path d="M13.972 23.0554C17.113 23.5966 19.4958 24.7872 21.1204 26.6273C22.6368 28.4674 23.395 30.6863 23.395 33.2841C23.395 36.5314 22.3119 39.1292 20.1457 41.0775C17.8711 43.0258 15.2175 44 12.1849 44C8.82726 44 5.95705 42.9717 3.57423 40.9151C1.19141 38.8586 -7.09705e-07 35.8819 -1.05036e-06 31.9852C-1.27747e-06 29.3875 0.704012 26.465 2.11204 23.2177C3.52007 20.0787 5.74043 15.9656 8.77311 10.8782L14.9468 3.76383e-06L27.2941 2.68439e-06L13.972 23.0554ZM44.6779 23.0554C47.8189 23.5966 50.2017 24.7872 51.8263 26.6273C53.3427 28.4674 54.1008 30.6863 54.1008 33.2841C54.1008 36.5314 53.0177 39.1292 50.8515 41.0775C48.577 43.0258 45.9234 44 42.8908 44C39.5331 44 36.6629 42.9717 34.2801 40.9151C31.8973 38.8586 30.7059 35.8819 30.7059 31.9852C30.7059 29.3875 31.4099 26.465 32.8179 23.2177C34.226 20.0787 36.4463 15.9656 39.479 10.8782L45.6527 1.07944e-06L58 0L44.6779 23.0554Z" fill="#1F58E0"/>
</svg>
