<svg width="272" height="29" viewBox="0 0 272 29" fill="none" xmlns="http://www.w3.org/2000/svg">
<g clip-path="url(#clip0_4_34)">
<path d="M12.0077 8.1817L10.0683 12.9389C11.8342 13.9077 13.03 15.7772 13.03 17.9245C13.03 18.017 13.03 18.1096 13.0238 18.196C12.968 19.393 12.5405 20.4974 11.8466 21.386H6.61103L5.8923 23.1445L5.78697 23.4036L3.66178 28.5989H0L2.94925 21.5834L3.07317 21.2934L4.37431 18.196H12.7388C12.7388 18.1034 12.745 18.0109 12.745 17.9245C12.745 15.8945 11.6173 14.1236 9.95681 13.2043C9.17613 12.7662 8.27153 12.5132 7.31116 12.5132C7.11909 12.5132 6.92702 12.5255 6.74114 12.544L6.86506 12.254L12.0138 0H12.2431L24.2941 28.5989H20.0561L12.0077 8.1817Z" fill="#303235"/>
<path d="M37.3118 1.09833C38.712 1.09833 40.0008 1.28343 41.1842 1.64748C42.3676 2.01769 43.3961 2.56067 44.276 3.28258C45.1558 4.0045 45.8435 4.89918 46.3392 5.96045C46.8349 7.02173 47.0827 8.24343 47.0827 9.60705C47.0827 10.6992 46.9216 11.7605 46.6056 12.797C46.2896 13.8336 45.763 14.7777 45.0381 15.6292C44.3131 16.4807 43.359 17.1656 42.1756 17.6839C40.9921 18.2022 39.5237 18.4613 37.7641 18.4613H33.681V28.5743H29.9758V1.09833H37.3056H37.3118ZM37.6959 14.8949C38.7864 14.8949 39.6972 14.7283 40.4221 14.4013C41.147 14.0743 41.7109 13.6485 42.1198 13.1302C42.5287 12.6119 42.8199 12.0628 42.9996 11.4766C43.1793 10.8966 43.266 10.3228 43.266 9.76748C43.266 9.21216 43.1731 8.63833 42.981 8.05833C42.789 7.47833 42.4854 6.92301 42.064 6.40471C41.6427 5.88641 41.0975 5.46067 40.4221 5.13365C39.7468 4.80663 38.9289 4.64003 37.9623 4.64003H33.6872V14.8949H37.6959ZM42.2375 17.0236L49.4495 28.5805H45.1744L37.8074 17.1409L42.2375 17.0236Z" fill="#303235"/>
<path d="M75.5962 26.5258C75.1377 26.8281 74.5119 27.1736 73.725 27.55C72.9381 27.9326 72.015 28.2472 70.9555 28.5002C69.896 28.7532 68.7373 28.8828 67.461 28.8828C65.3482 28.8581 63.4336 28.4755 61.7174 27.7413C60.0011 27.007 58.5389 26.0075 57.3307 24.7364C56.1225 23.4715 55.1993 22.003 54.5611 20.3432C53.9229 18.6834 53.6069 16.9187 53.6069 15.043C53.6069 12.9883 53.9353 11.0941 54.5983 9.36022C55.2612 7.62639 56.2092 6.11469 57.4422 4.83745C58.6752 3.56022 60.125 2.56065 61.7917 1.85107C63.4584 1.1415 65.2862 0.789795 67.2689 0.789795C68.9232 0.789795 70.4226 1.01192 71.7733 1.45618C73.124 1.90043 74.2765 2.41256 75.2492 2.99256L73.7622 6.49107C73.0001 5.96043 72.0707 5.46682 70.974 5.01022C69.8774 4.55362 68.6816 4.32533 67.3866 4.32533C66.0917 4.32533 64.7657 4.59065 63.5699 5.12128C62.3741 5.65192 61.3208 6.39852 60.4038 7.36107C59.4868 8.32363 58.7681 9.44043 58.2477 10.7053C57.7272 11.9702 57.467 13.3523 57.467 14.8455C57.467 16.3387 57.7024 17.69 58.1733 18.9672C58.6442 20.2445 59.3196 21.3613 60.1994 22.3115C61.0792 23.2617 62.1387 24.0021 63.3841 24.5328C64.6294 25.0634 66.0297 25.3287 67.5849 25.3287C68.9852 25.3287 70.2305 25.1128 71.3272 24.6809C72.4239 24.2489 73.3223 23.7677 74.0348 23.237L75.6024 26.5072L75.5962 26.5258Z" fill="#303235"/>
<path d="M104.147 1.09833V28.5805H100.442V16.53H86.0116V28.5805H82.3064V1.09833H86.0116V12.9945H100.442V1.09833H104.147Z" fill="#303235"/>
<path d="M112.239 1.09833H115.944V28.5805H112.239V1.09833Z" fill="#303235"/>
<path d="M121.929 1.09833H140.288V4.63386H132.884V28.5805H129.178V4.63386H121.923V1.09833H121.929Z" fill="#303235"/>
<path d="M146.663 1.09833H164.6V4.63386H150.362V12.9945H163.07V16.567H150.362V25.0449H165.133V28.5805H146.657V1.09833H146.663Z" fill="#303235"/>
<path d="M192.315 26.5258C191.856 26.8281 191.23 27.1736 190.444 27.55C189.657 27.9326 188.733 28.2472 187.674 28.5002C186.614 28.7532 185.456 28.8828 184.179 28.8828C182.067 28.8581 180.152 28.4755 178.436 27.7413C176.72 27.007 175.257 26.0075 174.049 24.7364C172.841 23.4715 171.918 22.003 171.28 20.3432C170.641 18.6834 170.325 16.9187 170.325 15.043C170.325 12.9883 170.654 11.0941 171.317 9.36022C171.98 7.62639 172.928 6.11469 174.161 4.83745C175.394 3.56022 176.844 2.56065 178.51 1.85107C180.177 1.1415 182.005 0.789795 183.987 0.789795C185.642 0.789795 187.141 1.01192 188.492 1.45618C189.843 1.90043 190.995 2.41256 191.968 2.99256L190.481 6.49107C189.719 5.96043 188.789 5.46682 187.693 5.01022C186.596 4.55362 185.4 4.32533 184.105 4.32533C182.81 4.32533 181.484 4.59065 180.288 5.12128C179.093 5.65192 178.039 6.39852 177.122 7.36107C176.205 8.32363 175.487 9.44043 174.966 10.7053C174.446 11.9702 174.185 13.3523 174.185 14.8455C174.185 16.3387 174.421 17.69 174.892 18.9672C175.363 20.2445 176.038 21.3613 176.918 22.3115C177.798 23.2617 178.857 24.0021 180.103 24.5328C181.348 25.0634 182.748 25.3287 184.303 25.3287C185.704 25.3287 186.949 25.1128 188.046 24.6809C189.142 24.2489 190.041 23.7677 190.753 23.237L192.321 26.5072L192.315 26.5258Z" fill="#303235"/>
<path d="M196.974 1.09833H215.332V4.63386H207.928V28.5805H204.223V4.63386H196.968V1.09833H196.974Z" fill="#1F58E0"/>
<path d="M219.992 14.8579C219.992 12.9575 220.351 11.1558 221.082 9.45894C221.807 7.76214 222.817 6.26277 224.118 4.95469C225.413 3.65277 226.913 2.62852 228.604 1.89426C230.295 1.16001 232.123 0.789795 234.081 0.789795C236.039 0.789795 237.799 1.16001 239.503 1.89426C241.206 2.62852 242.712 3.6466 244.026 4.95469C245.339 6.26277 246.361 7.76214 247.099 9.45894C247.836 11.1558 248.208 12.9698 248.208 14.8949C248.208 16.82 247.836 18.6341 247.099 20.3309C246.361 22.0277 245.345 23.5209 244.044 24.7981C242.749 26.0753 241.244 27.0811 239.54 27.803C237.836 28.5249 236.014 28.8889 234.081 28.8889C232.148 28.8889 230.295 28.5311 228.604 27.8215C226.913 27.1119 225.419 26.1185 224.118 24.8351C222.823 23.5579 221.807 22.0709 221.082 20.3864C220.357 18.7019 219.992 16.857 219.992 14.8579ZM223.808 14.8579C223.808 16.3264 224.069 17.69 224.589 18.9426C225.11 20.1951 225.847 21.3058 226.801 22.2683C227.755 23.2309 228.852 23.9836 230.085 24.5328C231.318 25.0758 232.662 25.3472 234.112 25.3472C235.562 25.3472 236.907 25.0758 238.139 24.5328C239.372 23.9898 240.457 23.2432 241.386 22.293C242.316 21.3428 243.047 20.2321 243.579 18.9672C244.112 17.7023 244.379 16.3449 244.379 14.9011C244.379 13.4572 244.112 12.0628 243.579 10.7979C243.047 9.53299 242.316 8.41001 241.386 7.43511C240.457 6.46022 239.36 5.70128 238.102 5.15214C236.845 4.60916 235.5 4.3315 234.075 4.3315C232.65 4.3315 231.268 4.60916 230.01 5.17065C228.753 5.72597 227.656 6.49107 226.727 7.45362C225.797 8.41618 225.079 9.53916 224.57 10.8164C224.062 12.0936 223.808 13.4449 223.808 14.864V14.8579Z" fill="#1F58E0"/>
<path d="M261.975 1.09833C263.983 1.09833 265.705 1.43152 267.13 2.10407C268.555 2.77663 269.658 3.74535 270.432 5.01024C271.207 6.27514 271.597 7.81152 271.597 9.60705C271.597 10.6992 271.43 11.7666 271.102 12.8217C270.773 13.8707 270.24 14.8209 269.515 15.6724C268.791 16.5239 267.843 17.2087 266.672 17.727C265.501 18.2453 264.075 18.5045 262.396 18.5045H258.313V28.5805H254.608V1.09833H261.975ZM262.359 14.8949C263.456 14.8949 264.354 14.7222 265.067 14.3828C265.779 14.0434 266.337 13.593 266.746 13.0315C267.155 12.47 267.446 11.9024 267.626 11.3224C267.805 10.7424 267.892 10.1932 267.892 9.68726C267.892 9.13194 267.805 8.55194 267.626 7.9596C267.446 7.36726 267.149 6.81811 266.727 6.3245C266.306 5.83088 265.761 5.42365 265.085 5.10897C264.41 4.79428 263.58 4.63386 262.582 4.63386H258.307V14.8949H262.353H262.359Z" fill="#1F58E0"/>
</g>
<defs>
<clipPath id="clip0_4_34">
<rect width="272" height="29" fill="white"/>
</clipPath>
</defs>
</svg>
