<svg width="272" height="29" viewBox="0 0 272 29" fill="none" xmlns="http://www.w3.org/2000/svg">
<g clip-path="url(#clip0_58_1514)">
<path d="M12.0077 8.1817L10.0683 12.9389C11.8342 13.9077 13.03 15.7772 13.03 17.9245C13.03 18.017 13.03 18.1096 13.0238 18.196C12.968 19.393 12.5405 20.4974 11.8466 21.386H6.61103L5.8923 23.1445L5.78697 23.4036L3.66178 28.5989H0L2.94925 21.5834L3.07317 21.2934L4.37431 18.196H12.7388C12.7388 18.1034 12.745 18.0109 12.745 17.9245C12.745 15.8945 11.6173 14.1236 9.95681 13.2043C9.17613 12.7662 8.27153 12.5132 7.31116 12.5132C7.11909 12.5132 6.92702 12.5255 6.74114 12.544L6.86506 12.254L12.0138 0H12.2431L24.2941 28.5989H20.0561L12.0077 8.1817Z" fill="#F6F6F6"/>
<path d="M37.3117 1.09839C38.7119 1.09839 40.0007 1.2835 41.1841 1.64754C42.3675 2.01775 43.396 2.56073 44.2758 3.28264C45.1557 4.00456 45.8434 4.89924 46.3391 5.96052C46.8348 7.02179 47.0826 8.24349 47.0826 9.60711C47.0826 10.6992 46.9215 11.7605 46.6055 12.7971C46.2895 13.8337 45.7629 14.7777 45.0379 15.6292C44.313 16.4807 43.3589 17.1656 42.1754 17.6839C40.992 18.2022 39.5236 18.4614 37.764 18.4614H33.6809V28.5743H29.9757V1.09839H37.3055H37.3117ZM37.6958 14.895C38.7863 14.895 39.6971 14.7284 40.422 14.4014C41.1469 14.0743 41.7107 13.6486 42.1197 13.1303C42.5286 12.612 42.8198 12.0629 42.9995 11.4767C43.1792 10.8967 43.2659 10.3229 43.2659 9.76754C43.2659 9.21222 43.173 8.63839 42.9809 8.05839C42.7888 7.47839 42.4852 6.92307 42.0639 6.40477C41.6426 5.88647 41.0973 5.46073 40.422 5.13371C39.7466 4.80669 38.9288 4.64009 37.9622 4.64009H33.6871V14.895H37.6958ZM42.2374 17.0237L49.4494 28.5805H45.1743L37.8073 17.1409L42.2374 17.0237Z" fill="#F6F6F6"/>
<path d="M75.5961 26.5258C75.1376 26.8281 74.5118 27.1736 73.7249 27.55C72.938 27.9326 72.0148 28.2472 70.9553 28.5002C69.8958 28.7532 68.7372 28.8828 67.4608 28.8828C65.348 28.8581 63.4335 28.4755 61.7172 27.7413C60.001 27.007 58.5387 26.0075 57.3305 24.7364C56.1223 23.4715 55.1992 22.003 54.561 20.3432C53.9228 18.6834 53.6068 16.9187 53.6068 15.043C53.6068 12.9883 53.9352 11.0941 54.5982 9.36022C55.2611 7.62639 56.2091 6.11469 57.4421 4.83745C58.6751 3.56022 60.1249 2.56065 61.7916 1.85107C63.4583 1.1415 65.2861 0.789795 67.2688 0.789795C68.9231 0.789795 70.4225 1.01192 71.7732 1.45618C73.1239 1.90043 74.2763 2.41256 75.2491 2.99256L73.7621 6.49107C73 5.96043 72.0706 5.46682 70.9739 5.01022C69.8772 4.55362 68.6814 4.32533 67.3865 4.32533C66.0916 4.32533 64.7656 4.59065 63.5698 5.12128C62.374 5.65192 61.3207 6.39852 60.4037 7.36107C59.4867 8.32363 58.768 9.44043 58.2475 10.7053C57.7271 11.9702 57.4669 13.3523 57.4669 14.8455C57.4669 16.3387 57.7023 17.69 58.1732 18.9672C58.6441 20.2445 59.3194 21.3613 60.1993 22.3115C61.0791 23.2617 62.1386 24.0021 63.3839 24.5328C64.6293 25.0634 66.0296 25.3287 67.5848 25.3287C68.985 25.3287 70.2304 25.1128 71.3271 24.6809C72.4238 24.2489 73.3222 23.7677 74.0347 23.237L75.6023 26.5072L75.5961 26.5258Z" fill="#F6F6F6"/>
<path d="M104.147 1.09839V28.5805H100.442V16.5301H86.0114V28.5805H82.3063V1.09839H86.0114V12.9946H100.442V1.09839H104.147Z" fill="#F6F6F6"/>
<path d="M112.239 1.09839H115.944V28.5805H112.239V1.09839Z" fill="#F6F6F6"/>
<path d="M121.929 1.09839H140.288V4.63392H132.883V28.5805H129.178V4.63392H121.923V1.09839H121.929Z" fill="#F6F6F6"/>
<path d="M146.663 1.09839H164.6V4.63392H150.362V12.9946H163.07V16.5671H150.362V25.045H165.133V28.5805H146.657V1.09839H146.663Z" fill="#F6F6F6"/>
<path d="M192.314 26.5258C191.856 26.8281 191.23 27.1736 190.443 27.55C189.656 27.9326 188.733 28.2472 187.674 28.5002C186.614 28.7532 185.456 28.8828 184.179 28.8828C182.066 28.8581 180.152 28.4755 178.436 27.7413C176.719 27.007 175.257 26.0075 174.049 24.7364C172.841 23.4715 171.918 22.003 171.279 20.3432C170.641 18.6834 170.325 16.9187 170.325 15.043C170.325 12.9883 170.654 11.0941 171.317 9.36022C171.98 7.62639 172.927 6.11469 174.16 4.83745C175.393 3.56022 176.843 2.56065 178.51 1.85107C180.177 1.1415 182.004 0.789795 183.987 0.789795C185.641 0.789795 187.141 1.01192 188.492 1.45618C189.842 1.90043 190.995 2.41256 191.967 2.99256L190.48 6.49107C189.718 5.96043 188.789 5.46682 187.692 5.01022C186.596 4.55362 185.4 4.32533 184.105 4.32533C182.81 4.32533 181.484 4.59065 180.288 5.12128C179.092 5.65192 178.039 6.39852 177.122 7.36107C176.205 8.32363 175.486 9.44043 174.966 10.7053C174.445 11.9702 174.185 13.3523 174.185 14.8455C174.185 16.3387 174.421 17.69 174.892 18.9672C175.362 20.2445 176.038 21.3613 176.918 22.3115C177.797 23.2617 178.857 24.0021 180.102 24.5328C181.348 25.0634 182.748 25.3287 184.303 25.3287C185.703 25.3287 186.949 25.1128 188.045 24.6809C189.142 24.2489 190.041 23.7677 190.753 23.237L192.321 26.5072L192.314 26.5258Z" fill="#F6F6F6"/>
<path d="M196.974 1.09839H215.332V4.63392H207.928V28.5805H204.223V4.63392H196.968V1.09839H196.974Z" fill="#1F58E0"/>
<path d="M219.991 14.8579C219.991 12.9575 220.351 11.1558 221.082 9.45894C221.807 7.76214 222.817 6.26277 224.118 4.95469C225.413 3.65277 226.912 2.62852 228.604 1.89426C230.295 1.16001 232.123 0.789795 234.081 0.789795C236.039 0.789795 237.798 1.16001 239.502 1.89426C241.206 2.62852 242.712 3.6466 244.025 4.95469C245.339 6.26277 246.361 7.76214 247.099 9.45894C247.836 11.1558 248.208 12.9698 248.208 14.8949C248.208 16.82 247.836 18.6341 247.099 20.3309C246.361 22.0277 245.345 23.5209 244.044 24.7981C242.749 26.0753 241.243 27.0811 239.54 27.803C237.836 28.5249 236.014 28.8889 234.081 28.8889C232.148 28.8889 230.295 28.5311 228.604 27.8215C226.912 27.1119 225.419 26.1185 224.118 24.8351C222.823 23.5579 221.807 22.0709 221.082 20.3864C220.357 18.7019 219.991 16.857 219.991 14.8579ZM223.808 14.8579C223.808 16.3264 224.068 17.69 224.589 18.9426C225.109 20.1951 225.847 21.3058 226.801 22.2683C227.755 23.2309 228.852 23.9836 230.085 24.5328C231.318 25.0758 232.662 25.3472 234.112 25.3472C235.562 25.3472 236.906 25.0758 238.139 24.5328C239.372 23.9898 240.457 23.2432 241.386 22.293C242.315 21.3428 243.046 20.2321 243.579 18.9672C244.112 17.7023 244.379 16.3449 244.379 14.9011C244.379 13.4572 244.112 12.0628 243.579 10.7979C243.046 9.53299 242.315 8.41001 241.386 7.43511C240.457 6.46022 239.36 5.70128 238.102 5.15214C236.844 4.60916 235.5 4.3315 234.075 4.3315C232.65 4.3315 231.268 4.60916 230.01 5.17065C228.752 5.72597 227.656 6.49107 226.726 7.45362C225.797 8.41618 225.078 9.53916 224.57 10.8164C224.062 12.0936 223.808 13.4449 223.808 14.864V14.8579Z" fill="#1F58E0"/>
<path d="M261.975 1.09839C263.983 1.09839 265.705 1.43158 267.13 2.10413C268.555 2.77669 269.658 3.74541 270.432 5.0103C271.207 6.2752 271.597 7.81158 271.597 9.60711C271.597 10.6992 271.43 11.7667 271.102 12.8218C270.773 13.8707 270.24 14.8209 269.515 15.6724C268.791 16.5239 267.843 17.2088 266.672 17.7271C265.501 18.2454 264.075 18.5046 262.396 18.5046H258.313V28.5805H254.608V1.09839H261.975ZM262.359 14.895C263.456 14.895 264.354 14.7222 265.067 14.3829C265.779 14.0435 266.337 13.5931 266.746 13.0316C267.155 12.4701 267.446 11.9024 267.626 11.3224C267.805 10.7424 267.892 10.1933 267.892 9.68732C267.892 9.132 267.805 8.552 267.626 7.95966C267.446 7.36732 267.149 6.81818 266.727 6.32456C266.306 5.83094 265.761 5.42371 265.085 5.10903C264.41 4.79435 263.58 4.63392 262.582 4.63392H258.307V14.895H262.353H262.359Z" fill="#1F58E0"/>
</g>
<defs>
<clipPath id="clip0_58_1514">
<rect width="272" height="29" fill="white"/>
</clipPath>
</defs>
</svg>
