<svg width="64" height="59" viewBox="0 0 64 59" fill="none" xmlns="http://www.w3.org/2000/svg">
<g id="logo">
<path id="Vector" d="M49.3549 15.7325L48.8929 15.0282C48.7738 14.8482 48.735 14.8638 48.7764 15.0751C48.8359 15.3882 48.9912 15.6451 49.2423 15.8459C54.6622 24.5714 58.6417 35.3551 55.8153 45.7435C55.163 48.1538 54.2273 50.1884 52.3288 51.8983C47.0099 56.6915 39.7653 58.8357 32.7303 59C32.7035 59.0003 32.6771 58.9924 32.6546 58.9776C32.6322 58.9627 32.6147 58.9415 32.6046 58.9168C32.5944 58.8921 32.5921 58.8651 32.5979 58.8394C32.6038 58.8137 32.6174 58.7906 32.6371 58.7731C38.2628 53.4556 35.3626 47.3673 31.981 41.9638C31.7248 41.5542 31.7558 41.532 32.0742 41.8972C34.7764 44.9883 39.0626 49.132 43.3488 48.815C47.3399 48.5203 49.9541 46.3813 51.1913 42.3981C51.2065 42.3554 51.2361 42.3193 51.2748 42.2962C51.3135 42.273 51.3591 42.2641 51.4036 42.2711C51.4481 42.278 51.4888 42.3003 51.5188 42.3342C51.5488 42.3681 51.5661 42.4114 51.5679 42.4568C51.5239 45.5635 50.8186 48.4955 49.4519 51.2527C49.1621 51.837 49.1957 51.8566 49.5529 51.3114C53.3305 45.5166 52.4531 37.9258 49.3821 31.8531C47.1587 27.4604 44.3556 23.472 40.9727 19.8878C38.7753 17.5597 35.0947 11.8275 35.5994 8.48992C35.6486 8.15864 35.7146 8.15603 35.7974 8.48209C36.1029 9.68201 36.5998 10.788 37.2883 11.8001C37.3331 11.8673 37.3976 11.9187 37.4729 11.9471C37.5481 11.9754 37.6303 11.9793 37.7078 11.9581C37.7854 11.937 37.8544 11.8918 37.9052 11.8291C37.956 11.7664 37.986 11.6892 37.991 11.6084C38.0725 10.372 37.6571 9.41334 36.8962 8.26298C35.2422 5.76662 33.433 -1.46811 39.5595 0.265256C45.0493 1.81993 49.5658 4.83277 53.1092 9.30378C53.1894 9.40551 53.2917 9.47594 53.4159 9.51507C57.2595 10.7515 62.0504 13.5804 63.9645 17.3132C63.9886 17.3595 64.0008 17.4111 64 17.4634C63.9992 17.5156 63.9854 17.5669 63.9599 17.6124C63.9344 17.6579 63.8981 17.6963 63.8541 17.724C63.8101 17.7517 63.76 17.7679 63.7082 17.771L58.5757 18.0606C58.5396 18.0625 58.5045 18.073 58.4732 18.0912C58.4419 18.1094 58.4153 18.1348 58.3957 18.1653C58.376 18.1958 58.3637 18.2306 58.3599 18.2668C58.3561 18.303 58.3609 18.3396 58.3738 18.3736C61.6971 27.0052 61.6738 36.928 57.4653 45.2818C57.4472 45.3167 57.4171 45.3442 57.3806 45.3591C57.3441 45.374 57.3036 45.3754 57.2667 45.363C57.2297 45.3506 57.1988 45.3252 57.1797 45.2916C57.1605 45.2579 57.1544 45.2183 57.1625 45.1801C59.0454 34.8073 55.5085 24.1332 49.3549 15.7325ZM41.5009 10.952C41.5996 10.9101 41.6875 10.8451 41.7595 10.7606C41.8316 10.6761 41.8864 10.5738 41.9209 10.4595C41.9553 10.3452 41.9687 10.2211 41.9603 10.0944C41.9519 9.96771 41.9218 9.8408 41.8719 9.72096C41.7709 9.47893 41.5949 9.28036 41.3826 9.16894C41.1702 9.05751 40.939 9.04236 40.7396 9.1268C40.6409 9.16862 40.553 9.23363 40.481 9.31812C40.4089 9.40262 40.3541 9.50494 40.3196 9.61925C40.2852 9.73355 40.2718 9.85761 40.2802 9.98433C40.2886 10.1111 40.3187 10.238 40.3686 10.3578C40.4696 10.5998 40.6456 10.7984 40.8579 10.9098C41.0703 11.0212 41.3015 11.0364 41.5009 10.952Z" fill="#E41E23"/>
<path id="Vector_2" d="M15.8301 5.96226C12.5805 8.91641 11.5788 14.2613 11.8428 18.4519C12.3126 25.984 17.6044 33.1561 22.306 38.6614C25.8157 42.7737 27.7026 45.5948 28.4208 50.568C28.4622 50.8627 28.4273 50.8718 28.316 50.5953C27.9433 49.6798 27.1202 47.0386 26.0836 46.8469C25.9309 46.8182 25.8494 46.8834 25.839 47.0425C25.7536 48.6663 26.1185 49.5232 27.0814 51.0375C27.9303 52.3731 28.3755 53.8547 28.4169 55.4824C28.5024 58.8474 27.2949 59.5517 23.9483 58.5422C18.6423 56.938 14.2732 53.9656 10.8412 49.625C10.7609 49.5232 10.6587 49.4528 10.5345 49.4137C6.48121 48.1303 2.27653 45.497 0.036372 41.7368C0.0139866 41.7002 0.00149048 41.6583 0.000125276 41.6154C-0.00123993 41.5724 0.00857286 41.5298 0.0285892 41.4918C0.0486055 41.4539 0.0781287 41.4218 0.114228 41.3989C0.150328 41.376 0.191748 41.363 0.234375 41.3612L5.4873 41.1108C5.67625 41.1029 5.73966 41.0077 5.67754 40.8251C2.46677 31.5988 2.31924 22.8694 6.42297 13.9052C6.4345 13.8775 6.45583 13.8551 6.48283 13.8423C6.50982 13.8295 6.54056 13.8273 6.56909 13.8361C6.59761 13.8449 6.62189 13.864 6.63721 13.8898C6.65254 13.9156 6.65782 13.9462 6.65203 13.9756C4.66423 25.3344 9.0242 36.8615 16.2145 45.54C16.2378 45.5687 16.2753 45.5831 16.3271 45.5831C16.3788 45.5857 16.3892 45.5661 16.3581 45.5244C9.5328 35.6251 4.08186 22.0399 9.35809 10.2859C10.5849 7.54694 13.9821 5.10145 16.4746 3.83762C21.0947 1.50039 25.9451 0.283515 31.0259 0.187C31.0536 0.186542 31.0807 0.194607 31.1037 0.210116C31.1267 0.225626 31.1445 0.247839 31.1546 0.273789C31.1647 0.299738 31.1668 0.328186 31.1604 0.355329C31.1541 0.382472 31.1397 0.407016 31.1191 0.425679C25.6565 5.21492 28.3975 12.1953 31.9189 16.9846C32.4314 17.681 32.4029 17.7045 31.8335 17.055C29.1352 13.96 25.2605 10.1176 20.9122 10.1294C16.494 10.1411 14.184 12.6922 12.6193 16.5933C12.4796 16.9428 12.4097 16.9298 12.4097 16.5542C12.4058 12.9231 13.6249 8.86555 15.9 6.02878C16.1536 5.71315 16.1303 5.69098 15.8301 5.96226ZM23.3018 49.9955C23.5193 49.8862 23.6769 49.6785 23.74 49.418C23.8032 49.1575 23.7666 48.8656 23.6384 48.6065C23.5103 48.3474 23.3009 48.1423 23.0565 48.0363C22.8121 47.9304 22.5526 47.9322 22.3352 48.0415C22.1177 48.1508 21.96 48.3585 21.8969 48.619C21.8338 48.8795 21.8703 49.1714 21.9985 49.4305C22.1267 49.6896 22.336 49.8947 22.5804 50.0007C22.8248 50.1066 23.0843 50.1047 23.3018 49.9955Z" fill="#363D8D"/>
<path id="Vector_3" d="M44.7115 33.6295C42.0326 31.0588 41.3959 25.5809 41.326 22.0712C41.3261 22.0278 41.3395 21.9853 41.3644 21.9497C41.3893 21.9142 41.4244 21.8874 41.4648 21.8731C41.5052 21.8588 41.5488 21.8578 41.5894 21.8701C41.63 21.8825 41.6655 21.9077 41.691 21.9421L47.0332 29.0672C47.0973 29.152 47.1367 29.2532 47.147 29.3596C47.1573 29.466 47.138 29.5734 47.0915 29.6698L45.2434 33.5317C45.2198 33.5794 45.1856 33.621 45.1434 33.6531C45.1012 33.6851 45.0522 33.7068 45.0004 33.7163C44.9487 33.7258 44.8956 33.7229 44.8454 33.7079C44.7952 33.6928 44.7494 33.666 44.7115 33.6295Z" fill="#E41E23"/>
<path id="Vector_4" d="M19.0681 25.5575C21.9954 27.6508 22.042 33.3596 22.5894 36.8498C22.6438 37.2071 22.5571 37.2463 22.3293 36.9671C20.4166 34.6534 18.6294 32.2444 16.9677 29.7402C16.8874 29.6202 16.8784 29.4963 16.9405 29.3685L18.7187 25.6514C18.7989 25.4818 18.9154 25.4505 19.0681 25.5575Z" fill="#363D8D"/>
</g>
</svg>
