<svg xmlns="http://www.w3.org/2000/svg" width="320" height="276" fill="none" viewBox="0 0 320 276"><path fill="#F9F5E9" fill-opacity=".1" d="M1.45 258.88c.39-1.14-.34-2.35-1.63-2.7-1.28-.34-2.64.3-3.03 1.45-.4 1.14.34 2.34 1.62 2.69 1.29.34 2.65-.3 3.04-1.44ZM8.4 272.83c.7-1.02.35-2.35-.8-2.98a2.63 2.63 0 0 0-3.36.7c-.71 1.02-.36 2.35.8 2.98 1.14.63 2.65.31 3.36-.7ZM1.45 228.6c.15-1.1-.72-2.1-1.96-2.23-1.23-.13-2.36.64-2.51 1.74-.15 1.1.73 2.09 1.96 2.22 1.24.14 2.36-.64 2.51-1.73ZM6.28 243.84c1.16-.42 1.7-1.6 1.23-2.62-.48-1.03-1.8-1.51-2.96-1.09-1.16.43-1.7 1.6-1.23 2.63.48 1.02 1.8 1.5 2.96 1.08ZM14.34 256c.37-1.07-.31-2.2-1.52-2.52-1.2-.32-2.47.28-2.84 1.35-.36 1.06.32 2.2 1.52 2.51 1.2.33 2.48-.28 2.84-1.34ZM19.62 270.56c1.27 0 2.3-.9 2.3-2.03 0-1.12-1.03-2.03-2.3-2.03-1.27 0-2.3.91-2.3 2.03 0 1.13 1.03 2.03 2.3 2.03ZM2.33 198.84c.2-1.04-.61-2.03-1.8-2.2-1.17-.17-2.28.54-2.47 1.59-.2 1.05.6 2.03 1.79 2.2 1.18.17 2.29-.54 2.48-1.59ZM5.8 214.09c-1.2 0-2.18-.87-2.18-1.93s.98-1.93 2.18-1.93c1.2 0 2.17.87 2.17 1.93s-.97 1.93-2.17 1.93ZM11.74 227.61c1.2 0 2.19-.87 2.19-1.94 0-1.07-.98-1.94-2.2-1.94-1.2 0-2.18.87-2.18 1.94 0 1.07.98 1.94 2.19 1.94ZM18.14 240.97c-1.22 0-2.2-.87-2.2-1.95s.98-1.95 2.2-1.95c1.21 0 2.2.87 2.2 1.95s-.99 1.95-2.2 1.95ZM25.12 254.1c1.22 0 2.21-.88 2.21-1.96 0-1.09-.99-1.96-2.21-1.96s-2.21.87-2.21 1.96c0 1.08.99 1.96 2.2 1.96ZM34.89 265.69c.47-1.01-.07-2.16-1.2-2.58-1.14-.42-2.44.06-2.91 1.07-.47 1 .07 2.16 1.2 2.57 1.14.42 2.44-.06 2.9-1.06ZM1.44 170.87c-1.15 0-2.08-.83-2.08-1.84 0-1.02.93-1.84 2.08-1.84s2.08.82 2.08 1.84c0 1.01-.93 1.84-2.08 1.84ZM8.29 183.83a1.7 1.7 0 0 0 0-2.62 2.28 2.28 0 0 0-2.96 0 1.7 1.7 0 0 0 0 2.62c.82.72 2.14.72 2.96 0ZM14.4 196.15c.1-1.03-.74-1.94-1.9-2.04-1.15-.1-2.18.65-2.3 1.67-.1 1.02.74 1.94 1.9 2.04 1.15.1 2.18-.65 2.3-1.67ZM19.57 210.66c.82-.73.82-1.92 0-2.65a2.3 2.3 0 0 0-3 0 1.72 1.72 0 0 0 0 2.65 2.3 2.3 0 0 0 3 0ZM24.2 224.46c1.17 0 2.12-.85 2.12-1.89 0-1.03-.95-1.88-2.13-1.88-1.17 0-2.12.84-2.12 1.88s.95 1.89 2.12 1.89ZM30.78 237.53c-1.18 0-2.13-.85-2.13-1.9 0-1.04.95-1.89 2.13-1.89s2.14.85 2.14 1.9c0 1.04-.96 1.89-2.14 1.89ZM39.96 249.17c.46-.97-.06-2.08-1.16-2.48-1.09-.4-2.34.06-2.8 1.03-.45.97.07 2.08 1.16 2.48 1.1.4 2.35-.06 2.8-1.03ZM48.02 261.22c.19-1.04-.61-2.02-1.79-2.19-1.17-.17-2.28.54-2.47 1.58-.2 1.04.6 2.02 1.78 2.2 1.18.16 2.28-.55 2.48-1.59ZM54.62 274.86c-1.2 0-2.17-.86-2.17-1.92s.97-1.92 2.17-1.92 2.16.86 2.16 1.92-.97 1.92-2.16 1.92ZM4.54 140.22c.17-.97-.58-1.87-1.67-2.02-1.09-.14-2.1.52-2.28 1.49-.16.96.59 1.86 1.68 2.01 1.09.15 2.1-.51 2.27-1.48ZM9.92 153.55c.21-.96-.5-1.9-1.59-2.08-1.09-.18-2.14.45-2.35 1.41-.2.97.5 1.9 1.6 2.08 1.08.19 2.13-.44 2.34-1.4ZM15.31 166.8c.18-.97-.56-1.9-1.66-2.05-1.1-.16-2.14.5-2.32 1.48-.18.97.57 1.89 1.67 2.05 1.1.16 2.14-.5 2.31-1.48ZM18.76 181.57c1.12 0 2.03-.8 2.03-1.8 0-.99-.9-1.8-2.03-1.8-1.12 0-2.02.81-2.02 1.8 0 1 .9 1.8 2.02 1.8ZM24.38 194.78c-1.12 0-2.03-.8-2.03-1.8s.9-1.8 2.03-1.8 2.04.8 2.04 1.8-.91 1.8-2.04 1.8ZM32.3 206.26c.1-1-.72-1.88-1.84-1.98-1.13-.1-2.13.63-2.24 1.62-.11 1 .7 1.89 1.83 1.99 1.13.1 2.13-.63 2.24-1.63ZM38.55 219.5c.26-.98-.42-1.96-1.53-2.2-1.1-.22-2.21.38-2.47 1.36-.26.98.42 1.96 1.53 2.2 1.1.22 2.2-.38 2.47-1.36ZM44.77 233.12c.8-.71.8-1.87 0-2.59a2.26 2.26 0 0 0-2.92 0c-.8.72-.8 1.88 0 2.6.8.7 2.11.7 2.92 0ZM51.49 246.04c1.06-.39 1.56-1.47 1.12-2.4-.44-.94-1.65-1.39-2.71-1-1.06.39-1.56 1.47-1.13 2.4.44.94 1.66 1.39 2.72 1ZM58.94 258.33c1.15-.1 1.98-1 1.87-2.02-.11-1.01-1.14-1.75-2.28-1.65-1.15.1-1.98 1-1.87 2.02.11 1.01 1.13 1.75 2.28 1.65ZM67.65 270.05c-1.16 0-2.1-.83-2.1-1.85 0-1.03.95-1.86 2.1-1.86 1.16 0 2.1.83 2.1 1.86 0 1.02-.94 1.85-2.1 1.85ZM-1.33 99.72c.75-.66.75-1.73 0-2.39a2.09 2.09 0 0 0-2.7 0 1.56 1.56 0 0 0 0 2.4c.75.65 1.95.65 2.7 0ZM5.05 111.83c.25-.91-.4-1.83-1.43-2.04-1.03-.22-2.06.35-2.3 1.27-.24.9.4 1.82 1.43 2.04 1.03.21 2.06-.36 2.3-1.27ZM8.82 126.13c1.07 0 1.93-.77 1.93-1.7 0-.95-.86-1.72-1.93-1.72-1.06 0-1.93.77-1.93 1.71s.87 1.7 1.93 1.7ZM15.65 138.68c.76-.67.76-1.76 0-2.43a2.12 2.12 0 0 0-2.73 0 1.58 1.58 0 0 0 0 2.43c.75.67 1.98.67 2.73 0ZM19.69 152.25c1.07 0 1.94-.77 1.94-1.72s-.87-1.72-1.94-1.72c-1.08 0-1.95.77-1.95 1.72s.87 1.72 1.95 1.72ZM27 164.01c.25-.93-.4-1.86-1.45-2.08-1.05-.22-2.1.36-2.35 1.29s.4 1.86 1.45 2.08c1.05.22 2.1-.36 2.35-1.29ZM31.08 178.28c1.05-.22 1.7-1.15 1.46-2.09-.25-.93-1.3-1.51-2.36-1.29-1.06.22-1.7 1.16-1.46 2.1.25.93 1.3 1.5 2.36 1.28ZM37.12 191.19c1-.37 1.48-1.4 1.06-2.28-.41-.9-1.56-1.32-2.57-.95-1 .37-1.48 1.4-1.07 2.28.42.9 1.57 1.32 2.58.95ZM44.28 202.94c.31-.93-.28-1.91-1.32-2.2-1.05-.27-2.16.25-2.47 1.18-.32.93.27 1.9 1.32 2.18 1.05.28 2.15-.24 2.47-1.16ZM49.04 216.87c1.09-.12 1.86-1 1.73-1.97-.13-.96-1.13-1.65-2.22-1.53-1.08.12-1.86 1-1.73 1.96.14.97 1.13 1.66 2.22 1.54ZM55.7 229.39c1.11 0 2-.8 2-1.77 0-.98-.89-1.77-2-1.77-1.1 0-1.99.79-1.99 1.77 0 .97.9 1.77 2 1.77ZM65.23 239.96c.08-.98-.75-1.83-1.86-1.9-1.1-.07-2.06.67-2.14 1.65-.08.97.75 1.82 1.86 1.9 1.1.06 2.06-.67 2.14-1.65ZM71.44 253.47c1.1 0 2.01-.8 2.01-1.78 0-.99-.9-1.79-2.01-1.79-1.12 0-2.02.8-2.02 1.79s.9 1.78 2.02 1.78ZM80.44 264.88c-1.11 0-2.02-.8-2.02-1.8 0-.98.9-1.79 2.02-1.79s2.03.8 2.03 1.8c0 .98-.9 1.79-2.03 1.79ZM88.29 273.9c0-1 .9-1.8 2.03-1.8 1.12 0 2.03.8 2.03 1.8M3.44 85.17c1-.14 1.69-.98 1.53-1.87-.17-.89-1.11-1.49-2.12-1.35-1 .15-1.68.99-1.52 1.88.17.89 1.11 1.49 2.11 1.34ZM9.16 97.83c1.02 0 1.85-.73 1.85-1.64 0-.9-.83-1.63-1.85-1.63s-1.85.73-1.85 1.63c0 .9.83 1.64 1.85 1.64ZM14.9 110.58c-1.02 0-1.85-.74-1.85-1.65 0-.9.83-1.65 1.86-1.65 1.02 0 1.85.74 1.85 1.65 0 .9-.83 1.64-1.85 1.64ZM20.46 123.39c1.03 0 1.86-.74 1.86-1.66 0-.9-.83-1.65-1.86-1.65-1.03 0-1.86.74-1.86 1.66 0 .9.83 1.65 1.86 1.65ZM27.78 134.72c.08-.92-.68-1.72-1.71-1.8-1.03-.07-1.94.6-2.02 1.52-.09.91.68 1.72 1.7 1.8 1.04.07 1.94-.61 2.03-1.53ZM31.32 149.1c-1.04 0-1.88-.75-1.88-1.67 0-.92.84-1.67 1.88-1.67s1.88.75 1.88 1.67c0 .92-.84 1.66-1.88 1.66ZM36.79 161.93c1.04 0 1.89-.75 1.89-1.67 0-.92-.85-1.67-1.9-1.67-1.03 0-1.88.75-1.88 1.67 0 .93.85 1.67 1.89 1.67ZM42.4 174.73c-1.06 0-1.9-.75-1.9-1.68 0-.93.84-1.68 1.9-1.68 1.04 0 1.89.75 1.89 1.68 0 .93-.85 1.68-1.9 1.68ZM49.56 186.95c.74-.66.74-1.72 0-2.38a2.08 2.08 0 0 0-2.7 0 1.55 1.55 0 0 0 0 2.38c.75.66 1.96.66 2.7 0ZM54.36 200.05c1.05 0 1.9-.76 1.9-1.7 0-.93-.85-1.69-1.9-1.69-1.06 0-1.91.76-1.91 1.7 0 .93.85 1.69 1.9 1.69ZM61.64 212.36c.98-.36 1.45-1.35 1.04-2.22-.4-.87-1.53-1.28-2.5-.92-.98.36-1.45 1.35-1.04 2.22.4.87 1.52 1.28 2.5.92ZM68.96 224.48c.9-.5 1.18-1.55.62-2.35a2.08 2.08 0 0 0-2.65-.55c-.9.5-1.18 1.54-.62 2.35.56.8 1.74 1.05 2.65.55ZM76.33 236.52c.98-.36 1.45-1.36 1.04-2.24-.4-.87-1.54-1.29-2.52-.92-1 .36-1.46 1.36-1.05 2.24.4.87 1.54 1.29 2.53.92ZM83.9 248.23c-1.08 0-1.95-.77-1.95-1.72s.87-1.72 1.94-1.72c1.08 0 1.94.77 1.94 1.72s-.87 1.72-1.94 1.72ZM92.98 259.34c-1.08 0-1.95-.77-1.95-1.73 0-.95.87-1.73 1.95-1.73 1.07 0 1.95.78 1.95 1.73 0 .96-.88 1.73-1.95 1.73ZM102.9 269.88c1.07 0 1.95-.78 1.95-1.74 0-.95-.88-1.73-1.96-1.73s-1.96.78-1.96 1.73c0 .96.88 1.74 1.96 1.74ZM3.95 56.57c.1-.86-.61-1.62-1.58-1.7-.98-.1-1.84.54-1.93 1.4-.1.86.6 1.62 1.58 1.7.97.1 1.83-.54 1.93-1.4ZM10.47 69c.23-.85-.36-1.7-1.32-1.9-.95-.2-1.9.33-2.13 1.17-.22.84.37 1.69 1.32 1.89.95.2 1.9-.32 2.13-1.17ZM14.93 82.58c.98 0 1.77-.7 1.77-1.57 0-.87-.8-1.58-1.77-1.58-.99 0-1.78.7-1.78 1.58 0 .87.8 1.57 1.78 1.57ZM22.27 94.38c.56-.72.36-1.7-.45-2.2a1.94 1.94 0 0 0-2.48.39c-.57.72-.37 1.7.44 2.2.81.5 1.93.32 2.49-.4ZM28.23 106.3c.17-.86-.5-1.68-1.47-1.83-.98-.14-1.9.44-2.06 1.3-.17.87.5 1.7 1.47 1.84.97.14 1.9-.44 2.06-1.3ZM32.65 120.13c.92-.34 1.35-1.27.96-2.09-.38-.8-1.43-1.2-2.35-.85-.92.34-1.35 1.27-.97 2.09.39.8 1.44 1.2 2.36.85ZM39.15 131.68c.24-.85-.35-1.72-1.32-1.93-.97-.21-1.95.31-2.19 1.17-.24.86.35 1.73 1.32 1.94.97.2 1.95-.32 2.19-1.18ZM44.61 144.32c.23-.87-.37-1.73-1.35-1.94-.97-.2-1.95.33-2.18 1.2-.23.86.37 1.73 1.35 1.93.97.2 1.95-.33 2.18-1.2ZM48.36 158.14c-1 0-1.82-.72-1.82-1.6 0-.9.82-1.62 1.82-1.62s1.82.72 1.82 1.61c0 .9-.81 1.61-1.82 1.61ZM54.04 170.7c1.01 0 1.83-.72 1.83-1.62 0-.9-.82-1.62-1.83-1.62-1 0-1.83.73-1.83 1.62 0 .9.82 1.62 1.83 1.62ZM59.96 183.17c-1.01 0-1.84-.73-1.84-1.62 0-.9.83-1.63 1.84-1.63 1.01 0 1.83.73 1.83 1.63 0 .9-.82 1.62-1.83 1.62ZM68.03 194.15c.16-.89-.52-1.73-1.53-1.87-1-.15-1.94.46-2.1 1.35-.17.89.51 1.72 1.51 1.87 1 .14 1.95-.46 2.12-1.35ZM72.85 207.7c-1.02 0-1.85-.74-1.85-1.64 0-.9.83-1.64 1.85-1.64s1.85.74 1.85 1.64c0 .9-.83 1.64-1.85 1.64ZM80.22 219.63c1.02-.1 1.74-.93 1.61-1.83-.12-.9-1.05-1.54-2.06-1.43-1.02.11-1.74.93-1.62 1.83.13.9 1.05 1.54 2.07 1.43ZM89.56 229.93c.17-.9-.52-1.74-1.54-1.89-1.01-.14-1.97.47-2.14 1.37-.16.9.53 1.74 1.54 1.89 1.02.14 1.98-.47 2.14-1.37ZM97.42 242.13c.73-.64.73-1.7 0-2.34a2.04 2.04 0 0 0-2.64 0c-.73.65-.73 1.7 0 2.34.73.65 1.91.65 2.64 0ZM107.1 252.06c.16-.9-.53-1.75-1.56-1.9-1.02-.15-1.98.47-2.15 1.37-.17.9.53 1.76 1.55 1.9 1.02.16 1.99-.46 2.15-1.37ZM115.15 263.74c1.04 0 1.88-.75 1.88-1.67 0-.92-.84-1.67-1.88-1.67s-1.88.75-1.88 1.67c0 .92.84 1.67 1.88 1.67ZM127.76 271.94c.17-.91-.53-1.77-1.56-1.92-1.03-.15-2 .47-2.17 1.39-.16.9.53 1.77 1.56 1.92 1.04.15 2-.47 2.17-1.39ZM.26 31.67c.93 0 1.69-.67 1.69-1.5s-.76-1.5-1.7-1.5c-.93 0-1.68.67-1.68 1.5s.75 1.5 1.69 1.5ZM9.13 42.08c.13-.83-.53-1.58-1.46-1.69-.93-.1-1.78.47-1.9 1.3-.12.82.53 1.58 1.46 1.68.93.11 1.78-.47 1.9-1.3ZM15.83 54.14c.22-.81-.35-1.62-1.27-1.81-.91-.2-1.83.31-2.04 1.12-.22.81.35 1.63 1.27 1.82.91.19 1.83-.32 2.04-1.13ZM22.2 66.05c.11-.83-.56-1.59-1.5-1.69-.93-.1-1.79.5-1.9 1.32-.12.83.55 1.59 1.49 1.69.94.1 1.79-.49 1.9-1.32ZM26.51 79.61c.95 0 1.72-.68 1.72-1.52 0-.83-.77-1.52-1.72-1.52s-1.71.69-1.71 1.52c0 .84.77 1.52 1.71 1.52ZM32.28 91.93c-.95 0-1.73-.68-1.73-1.53 0-.84.78-1.52 1.73-1.52S34 89.56 34 90.4c0 .85-.77 1.53-1.72 1.53ZM37.86 104.3c.96 0 1.73-.68 1.73-1.53 0-.84-.77-1.53-1.73-1.53-.95 0-1.73.69-1.73 1.53 0 .85.78 1.54 1.73 1.54ZM43.34 116.72c.96 0 1.73-.69 1.73-1.53 0-.85-.77-1.54-1.73-1.54s-1.73.69-1.73 1.54c0 .84.77 1.53 1.73 1.53ZM48.78 129.15c.96 0 1.74-.69 1.74-1.54 0-.85-.78-1.54-1.74-1.54s-1.74.69-1.74 1.54c0 .85.78 1.54 1.74 1.54ZM54.25 141.57c-.97 0-1.75-.7-1.75-1.55 0-.85.78-1.54 1.75-1.54.96 0 1.74.69 1.74 1.54 0 .86-.78 1.55-1.74 1.55ZM59.82 153.96c.97 0 1.75-.7 1.75-1.56 0-.86-.78-1.55-1.75-1.55s-1.75.7-1.75 1.55c0 .86.78 1.56 1.75 1.56ZM66.8 165.82c.7-.6.7-1.6 0-2.2-.68-.61-1.8-.61-2.48 0-.69.6-.69 1.6 0 2.2.69.6 1.8.6 2.49 0ZM73.04 177.77c.51-.74.26-1.7-.57-2.15a1.9 1.9 0 0 0-2.43.5c-.51.74-.26 1.7.57 2.16a1.9 1.9 0 0 0 2.43-.51ZM79.61 189.42c.23-.84-.36-1.69-1.31-1.89-.96-.2-1.91.32-2.14 1.17-.22.84.37 1.69 1.32 1.89.95.2 1.9-.33 2.13-1.17ZM84.62 202.52c.98 0 1.78-.7 1.78-1.57 0-.87-.8-1.58-1.78-1.58s-1.78.7-1.78 1.58c0 .87.8 1.57 1.78 1.57ZM91.84 214.22c-.98 0-1.78-.71-1.78-1.58 0-.88.8-1.58 1.78-1.58s1.78.7 1.78 1.58c0 .87-.8 1.58-1.78 1.58ZM99.92 225.6c.98-.14 1.64-.96 1.48-1.82-.15-.87-1.07-1.45-2.05-1.31-.97.14-1.64.95-1.48 1.82.16.86 1.08 1.45 2.05 1.3ZM109.86 235.2c.08-.87-.66-1.64-1.64-1.71-.99-.07-1.86.58-1.94 1.45-.08.88.65 1.65 1.64 1.72.99.07 1.86-.58 1.94-1.46ZM117.2 247.25c1 0 1.8-.72 1.8-1.6 0-.88-.8-1.6-1.8-1.6s-1.8.72-1.8 1.6c0 .88.8 1.6 1.8 1.6ZM127.09 257.29c1 0 1.8-.72 1.8-1.6 0-.89-.8-1.6-1.8-1.6s-1.81.71-1.81 1.6c0 .88.8 1.6 1.8 1.6ZM139.03 266.2c.71-.62.71-1.63 0-2.26a1.98 1.98 0 0 0-2.56 0c-.7.63-.7 1.64 0 2.27.7.63 1.85.63 2.56 0ZM150.48 274.86c.7-.63.7-1.65 0-2.28a1.99 1.99 0 0 0-2.58 0 1.49 1.49 0 0 0 0 2.28c.71.63 1.87.63 2.58 0ZM5.77 17.31c.83-.3 1.22-1.14.88-1.88-.34-.73-1.3-1.08-2.12-.78-.83.3-1.22 1.15-.88 1.88.34.74 1.3 1.09 2.12.78ZM13.13 28.71c.83-.3 1.23-1.15.88-1.88-.34-.74-1.3-1.09-2.13-.78-.83.3-1.22 1.15-.88 1.88.35.74 1.3 1.09 2.13.78ZM20.55 40.03c.63-.56.63-1.48 0-2.05a1.79 1.79 0 0 0-2.32 0 1.34 1.34 0 0 0 0 2.05c.64.57 1.68.57 2.32 0ZM27.4 51.35c.34-.74-.06-1.59-.9-1.9-.83-.3-1.8.06-2.14.8-.34.74.06 1.59.9 1.9.84.3 1.8-.06 2.14-.8ZM32.03 64.21c.91 0 1.65-.65 1.65-1.46 0-.8-.74-1.45-1.65-1.45-.9 0-1.65.65-1.65 1.45 0 .81.74 1.46 1.65 1.46ZM39.07 75.84c.65-.57.65-1.5 0-2.07a1.8 1.8 0 0 0-2.33 0c-.65.57-.65 1.5 0 2.07.64.57 1.69.57 2.33 0ZM43.58 88.4c.92 0 1.66-.65 1.66-1.47 0-.8-.74-1.46-1.66-1.46-.91 0-1.65.65-1.65 1.46 0 .82.74 1.47 1.65 1.47ZM49.36 100.56c.91-.13 1.53-.88 1.4-1.68-.14-.8-.99-1.36-1.9-1.24-.9.13-1.53.88-1.39 1.68.14.8.99 1.36 1.9 1.24ZM56 112.1c.48-.7.23-1.6-.55-2.03-.79-.43-1.81-.21-2.3.48-.48.7-.23 1.6.55 2.03.79.43 1.81.21 2.3-.48ZM61.57 124.12c.35-.76-.05-1.62-.9-1.94-.85-.32-1.83.04-2.19.8-.35.75.05 1.62.9 1.93.85.32 1.83-.03 2.19-.8ZM67.2 135.83c.07-.82-.63-1.53-1.55-1.59-.93-.06-1.73.56-1.8 1.38-.06.82.63 1.53 1.56 1.59.92.05 1.73-.56 1.8-1.38ZM72.78 148.24c.21-.8-.35-1.6-1.25-1.79-.9-.19-1.81.3-2.03 1.1-.21.81.35 1.61 1.26 1.8.9.2 1.8-.3 2.02-1.1ZM76.95 161.45c.93 0 1.69-.67 1.69-1.5 0-.82-.76-1.49-1.7-1.49-.93 0-1.68.67-1.68 1.5 0 .82.75 1.5 1.69 1.5ZM83.29 173.42c.92-.13 1.55-.9 1.4-1.72-.15-.82-1.02-1.38-1.94-1.25-.93.14-1.55.9-1.4 1.73.15.81 1.02 1.37 1.94 1.24ZM91.06 184.16c.22-.81-.35-1.62-1.26-1.81-.92-.2-1.83.3-2.05 1.12-.21.8.35 1.62 1.27 1.8.91.2 1.82-.3 2.04-1.11ZM97.1 196.76c.8-.44 1.05-1.37.56-2.08-.5-.7-1.55-.93-2.35-.49-.8.44-1.05 1.37-.55 2.08.49.7 1.54.93 2.34.49ZM103.47 208.4c-.94 0-1.7-.67-1.7-1.51s.76-1.51 1.7-1.51c.95 0 1.71.67 1.71 1.51s-.76 1.52-1.7 1.52ZM111.3 219.56c.94 0 1.71-.68 1.71-1.52s-.77-1.52-1.72-1.52c-.94 0-1.71.68-1.71 1.52s.77 1.52 1.71 1.52ZM121.46 228.9c.06-.84-.67-1.56-1.62-1.6-.95-.05-1.76.6-1.81 1.44-.05.83.67 1.55 1.62 1.6.95.05 1.76-.6 1.81-1.44ZM128.85 240.7c.96 0 1.73-.68 1.73-1.52 0-.85-.77-1.53-1.73-1.53-.95 0-1.72.68-1.72 1.53 0 .84.77 1.53 1.72 1.53ZM138.69 250.53c.96 0 1.73-.69 1.73-1.53 0-.85-.77-1.54-1.73-1.54s-1.73.7-1.73 1.54c0 .84.77 1.53 1.73 1.53ZM150.88 258.78c.37-.78-.06-1.68-.94-2-.89-.33-1.9.04-2.27.83-.37.78.05 1.68.94 2 .89.33 1.9-.04 2.27-.83ZM160.56 268.23c-.96 0-1.74-.7-1.74-1.55 0-.85.78-1.54 1.74-1.54s1.74.69 1.74 1.54c0 .86-.78 1.55-1.74 1.55ZM170.8 274.39c0-.86.79-1.55 1.76-1.55.96 0 1.74.69 1.74 1.55M11.4 2.1c.13-.76-.44-1.47-1.3-1.59-.84-.12-1.64.4-1.78 1.14-.14.76.44 1.47 1.29 1.59.85.12 1.65-.4 1.79-1.14ZM17.37 14.34c.87 0 1.57-.62 1.57-1.38 0-.76-.7-1.38-1.57-1.38-.86 0-1.56.62-1.56 1.38 0 .76.7 1.38 1.56 1.38ZM24.43 25.67c-.87 0-1.57-.62-1.57-1.39 0-.76.7-1.38 1.57-1.38.86 0 1.56.62 1.56 1.38 0 .77-.7 1.4-1.56 1.4ZM31.07 37.2c.87 0 1.57-.63 1.57-1.4 0-.77-.7-1.39-1.57-1.39-.87 0-1.57.62-1.57 1.4 0 .76.7 1.38 1.57 1.38ZM37.36 48.87c.87 0 1.57-.63 1.57-1.4 0-.77-.7-1.4-1.57-1.4-.87 0-1.58.63-1.58 1.4 0 .77.7 1.4 1.58 1.4ZM43.36 60.66c.87 0 1.58-.62 1.58-1.4 0-.77-.7-1.4-1.58-1.4-.88 0-1.58.63-1.58 1.4 0 .78.7 1.4 1.58 1.4ZM49.13 72.55c-.88 0-1.59-.63-1.59-1.4 0-.78.71-1.41 1.59-1.41.87 0 1.58.63 1.58 1.4 0 .78-.7 1.4-1.58 1.4ZM54.73 84.5c.88 0 1.6-.64 1.6-1.41 0-.78-.72-1.41-1.6-1.41-.87 0-1.59.63-1.59 1.4 0 .78.72 1.41 1.6 1.41ZM60.23 96.48c-.88 0-1.6-.63-1.6-1.41 0-.78.72-1.42 1.6-1.42.88 0 1.6.64 1.6 1.42 0 .78-.72 1.41-1.6 1.41ZM65.67 108.49c.89 0 1.6-.64 1.6-1.42 0-.78-.71-1.42-1.6-1.42-.88 0-1.6.64-1.6 1.42 0 .78.72 1.42 1.6 1.42ZM71.13 120.49c.89 0 1.6-.64 1.6-1.42 0-.79-.71-1.43-1.6-1.43-.89 0-1.6.64-1.6 1.42 0 .79.71 1.43 1.6 1.43ZM76.66 132.46c.88 0 1.6-.64 1.6-1.42 0-.79-.72-1.43-1.6-1.43-.9 0-1.61.64-1.61 1.43 0 .78.72 1.42 1.6 1.42ZM82.32 144.39c-.9 0-1.62-.64-1.62-1.43 0-.79.73-1.43 1.62-1.43.89 0 1.6.64 1.6 1.43 0 .79-.71 1.43-1.6 1.43ZM88.17 156.24c-.9 0-1.62-.64-1.62-1.43 0-.8.73-1.44 1.62-1.44.9 0 1.62.65 1.62 1.44 0 .79-.72 1.43-1.62 1.43ZM94.29 167.99c.9 0 1.62-.64 1.62-1.44 0-.8-.73-1.44-1.62-1.44-.9 0-1.62.65-1.62 1.44 0 .8.72 1.44 1.62 1.44ZM102.33 178.3c.09-.79-.57-1.5-1.46-1.57-.9-.08-1.7.5-1.78 1.29-.09.79.56 1.5 1.46 1.57.9.08 1.69-.5 1.78-1.29ZM107.57 191.03c.9 0 1.63-.65 1.63-1.44 0-.8-.73-1.45-1.63-1.45-.9 0-1.63.65-1.63 1.45 0 .8.73 1.44 1.63 1.44ZM116.03 201.8c.64-.56.64-1.48 0-2.04a1.79 1.79 0 0 0-2.32 0 1.34 1.34 0 0 0 0 2.05c.64.56 1.68.56 2.32 0ZM124.3 212.06c.21-.78-.34-1.57-1.22-1.75-.88-.19-1.76.3-1.97 1.08-.21.78.34 1.57 1.22 1.75.88.19 1.76-.3 1.97-1.08ZM131.13 223.72c-.9 0-1.65-.66-1.65-1.46 0-.8.74-1.46 1.65-1.46.9 0 1.65.65 1.65 1.46 0 .8-.74 1.46-1.65 1.46ZM140.2 233.85c-.91 0-1.65-.65-1.65-1.46 0-.8.74-1.46 1.65-1.46.91 0 1.65.65 1.65 1.46 0 .8-.74 1.46-1.65 1.46ZM149.95 243.48c.91 0 1.65-.66 1.65-1.47 0-.8-.74-1.46-1.65-1.46-.92 0-1.66.65-1.66 1.46 0 .81.74 1.47 1.66 1.47ZM160.4 252.51c-.92 0-1.66-.66-1.66-1.47 0-.81.74-1.47 1.66-1.47.91 0 1.66.66 1.66 1.47 0 .81-.75 1.47-1.66 1.47ZM172.7 260.44c.66-.58.66-1.51 0-2.09a1.82 1.82 0 0 0-2.34 0c-.65.58-.65 1.51 0 2.09.65.57 1.7.57 2.35 0ZM184 268.37c.84-.32 1.25-1.18.9-1.94-.36-.75-1.33-1.1-2.18-.8-.85.32-1.26 1.18-.9 1.94.35.75 1.32 1.1 2.17.8ZM195.75 275.29c.93 0 1.67-.66 1.67-1.48s-.74-1.48-1.67-1.48c-.92 0-1.67.66-1.67 1.48s.75 1.48 1.67 1.48ZM29.27 10.9c.8 0 1.43-.57 1.43-1.27 0-.7-.64-1.27-1.43-1.27-.79 0-1.43.57-1.43 1.27 0 .7.64 1.27 1.43 1.27ZM36.06 22.13c.8 0 1.44-.57 1.44-1.27 0-.7-.64-1.28-1.44-1.28-.8 0-1.44.57-1.44 1.28 0 .7.65 1.27 1.44 1.27ZM42.5 33.53c.79 0 1.44-.57 1.44-1.28 0-.7-.65-1.28-1.45-1.28-.8 0-1.44.57-1.44 1.28 0 .7.64 1.28 1.44 1.28ZM48.61 45.06c.8 0 1.46-.58 1.46-1.29 0-.7-.65-1.28-1.46-1.28-.8 0-1.45.57-1.45 1.28 0 .71.65 1.29 1.45 1.29ZM55.94 55.6c.13-.7-.41-1.36-1.2-1.47-.8-.12-1.55.36-1.68 1.06-.13.7.41 1.37 1.2 1.48.8.12 1.55-.36 1.68-1.06ZM60.17 68.4c.81 0 1.46-.58 1.46-1.3 0-.72-.65-1.3-1.46-1.3-.8 0-1.46.58-1.46 1.3 0 .72.66 1.3 1.46 1.3ZM65.72 80.15c-.81 0-1.47-.58-1.47-1.3 0-.72.66-1.3 1.47-1.3.81 0 1.47.58 1.47 1.3 0 .72-.66 1.3-1.47 1.3ZM71.19 91.94c.8 0 1.47-.59 1.47-1.3 0-.73-.66-1.31-1.47-1.31-.82 0-1.48.58-1.48 1.3 0 .72.66 1.31 1.48 1.31ZM78.08 102.52c.07-.72-.54-1.36-1.36-1.41-.81-.06-1.52.48-1.59 1.2-.06.72.55 1.35 1.36 1.41.82.06 1.53-.48 1.6-1.2ZM83.23 115.06c.54-.55.47-1.39-.15-1.86a1.62 1.62 0 0 0-2.1.14c-.53.55-.46 1.38.16 1.86.62.47 1.56.4 2.1-.14ZM87.64 127.28c.83 0 1.5-.6 1.5-1.32 0-.73-.67-1.32-1.5-1.32-.82 0-1.5.59-1.5 1.32 0 .73.68 1.32 1.5 1.32ZM94.82 137.87c.13-.73-.42-1.4-1.24-1.53-.81-.11-1.58.38-1.72 1.1-.13.72.43 1.4 1.24 1.53.82.11 1.59-.38 1.72-1.1ZM99.23 150.6c-.83 0-1.5-.59-1.5-1.33 0-.73.66-1.33 1.5-1.33.83 0 1.5.6 1.5 1.33 0 .74-.67 1.34-1.5 1.34ZM106.79 161.3c.32-.69-.05-1.47-.82-1.75-.77-.28-1.66.04-1.97.72-.32.69.04 1.47.81 1.75s1.66-.04 1.98-.72ZM111.86 173.5c-.84 0-1.52-.6-1.52-1.34 0-.74.68-1.34 1.52-1.34.83 0 1.51.6 1.51 1.34 0 .74-.68 1.34-1.51 1.34ZM118.72 184.7c-.84 0-1.53-.6-1.53-1.35 0-.74.69-1.34 1.53-1.34.84 0 1.52.6 1.52 1.34 0 .75-.68 1.35-1.52 1.35ZM126.03 195.67c-.85 0-1.53-.6-1.53-1.35 0-.75.68-1.35 1.53-1.35.84 0 1.53.6 1.53 1.35 0 .75-.69 1.35-1.53 1.35ZM133.84 206.37c-.84 0-1.53-.61-1.53-1.36 0-.75.69-1.36 1.53-1.36.85 0 1.54.6 1.54 1.36 0 .75-.69 1.36-1.54 1.36ZM142.23 216.72c-.85 0-1.54-.61-1.54-1.37 0-.75.69-1.36 1.54-1.36.85 0 1.54.61 1.54 1.36 0 .76-.7 1.37-1.54 1.37ZM151.22 226.66c-.85 0-1.54-.62-1.54-1.37 0-.76.69-1.37 1.54-1.37.86 0 1.55.61 1.55 1.37 0 .76-.7 1.37-1.55 1.37ZM160.87 236.11c-.86 0-1.56-.61-1.56-1.37 0-.76.7-1.38 1.56-1.38.85 0 1.55.62 1.55 1.38 0 .76-.7 1.37-1.55 1.37ZM171.17 245c-.86 0-1.56-.62-1.56-1.38 0-.77.7-1.38 1.56-1.38.86 0 1.56.61 1.56 1.38 0 .76-.7 1.38-1.56 1.38ZM182.13 253.24c-.86 0-1.56-.62-1.56-1.39 0-.76.7-1.38 1.56-1.38.86 0 1.56.62 1.56 1.38 0 .77-.7 1.39-1.56 1.39ZM193.72 260.77c-.87 0-1.57-.62-1.57-1.39 0-.76.7-1.39 1.57-1.39.87 0 1.57.63 1.57 1.4 0 .76-.7 1.38-1.57 1.38ZM206.02 267.55c.86-.08 1.5-.76 1.41-1.53-.08-.76-.86-1.32-1.72-1.25-.87.08-1.5.76-1.41 1.53.08.77.85 1.33 1.72 1.25ZM220.17 272.26c.07-.77-.57-1.44-1.44-1.5-.88-.07-1.64.5-1.71 1.27-.07.77.57 1.45 1.44 1.51.88.07 1.64-.5 1.71-1.28ZM41.4 7.11c.71-.26 1.04-.97.75-1.6-.29-.61-1.1-.9-1.8-.65-.7.26-1.03.97-.74 1.59.3.62 1.1.92 1.8.66ZM47.44 18.32c.76 0 1.38-.55 1.38-1.22 0-.68-.62-1.23-1.38-1.23-.76 0-1.38.55-1.38 1.23 0 .67.62 1.22 1.38 1.22ZM53.69 29.58c.76 0 1.38-.55 1.38-1.23 0-.68-.62-1.23-1.38-1.23-.77 0-1.39.55-1.39 1.23 0 .68.62 1.23 1.39 1.23ZM59.67 40.95c.77 0 1.4-.55 1.4-1.23 0-.68-.63-1.24-1.4-1.24-.77 0-1.39.56-1.39 1.24 0 .68.62 1.23 1.4 1.23ZM66 52.31c.7-.26 1.04-.99.74-1.62-.3-.63-1.11-.93-1.82-.66-.71.26-1.05.99-.75 1.62.3.63 1.11.92 1.82.66ZM71.05 63.92c.78 0 1.4-.55 1.4-1.24 0-.68-.62-1.24-1.4-1.24-.77 0-1.4.56-1.4 1.24 0 .69.63 1.24 1.4 1.24ZM76.55 75.49c.78 0 1.4-.56 1.4-1.25s-.62-1.25-1.4-1.25c-.78 0-1.4.56-1.4 1.25s.62 1.25 1.4 1.25ZM81.99 87.07c-.78 0-1.41-.56-1.41-1.25 0-.7.63-1.25 1.4-1.25.79 0 1.42.56 1.42 1.25s-.63 1.25-1.41 1.25ZM87.42 98.66c.78 0 1.42-.57 1.42-1.26 0-.7-.64-1.25-1.42-1.25-.78 0-1.42.56-1.42 1.25 0 .7.64 1.26 1.42 1.26ZM93.9 109.86c.55-.5.55-1.29 0-1.78-.56-.5-1.46-.5-2.01 0-.56.49-.56 1.29 0 1.78.55.5 1.45.5 2 0ZM98.46 121.76c-.78 0-1.42-.56-1.42-1.26s.64-1.26 1.42-1.26c.8 0 1.43.56 1.43 1.26s-.64 1.26-1.43 1.26ZM104.75 133.13c.73-.28 1.06-1.03.74-1.67-.32-.64-1.16-.93-1.89-.65-.72.28-1.05 1.03-.73 1.67.31.64 1.16.93 1.88.65ZM110.1 144.64c-.8 0-1.44-.57-1.44-1.27 0-.7.65-1.28 1.44-1.28.8 0 1.44.57 1.44 1.28 0 .7-.65 1.27-1.44 1.27ZM116.28 155.93c-.8 0-1.44-.57-1.44-1.28 0-.7.64-1.28 1.44-1.28.8 0 1.44.58 1.44 1.28 0 .7-.65 1.28-1.44 1.28ZM122.77 167.08c-.8 0-1.45-.57-1.45-1.28 0-.71.65-1.29 1.45-1.29.8 0 1.45.58 1.45 1.29 0 .7-.65 1.28-1.45 1.28ZM129.63 178.05c-.8 0-1.45-.57-1.45-1.28 0-.72.65-1.3 1.45-1.3.8 0 1.46.59 1.46 1.3 0 .7-.65 1.28-1.46 1.28ZM138.38 187.72c.13-.7-.41-1.37-1.2-1.48-.8-.12-1.55.36-1.68 1.07-.13.7.41 1.36 1.2 1.48.8.11 1.55-.37 1.68-1.07ZM144.71 199.28c-.8 0-1.46-.58-1.46-1.3 0-.7.65-1.29 1.46-1.29.8 0 1.46.58 1.46 1.3 0 .71-.65 1.3-1.46 1.3ZM153.03 209.43c-.81 0-1.47-.58-1.47-1.3 0-.72.66-1.3 1.47-1.3.81 0 1.47.58 1.47 1.3 0 .72-.66 1.3-1.47 1.3ZM161.93 219.19c-.81 0-1.47-.58-1.47-1.3 0-.72.66-1.3 1.47-1.3.81 0 1.47.57 1.47 1.3 0 .72-.66 1.3-1.47 1.3ZM172.02 228.38c.75-.27 1.11-1.04.8-1.7-.31-.68-1.18-1-1.93-.72s-1.11 1.05-.8 1.71c.31.67 1.18.99 1.93.71ZM181.58 237.24c-.82 0-1.48-.6-1.48-1.32 0-.72.66-1.31 1.48-1.31s1.48.59 1.48 1.31c0 .73-.66 1.32-1.48 1.32ZM192.6 245.36c.8-.12 1.36-.8 1.22-1.51-.13-.72-.9-1.2-1.7-1.1-.81.13-1.37.8-1.23 1.52.13.72.9 1.2 1.7 1.1ZM203.7 252.86c-.82 0-1.48-.6-1.48-1.32 0-.73.66-1.33 1.49-1.33.82 0 1.5.6 1.5 1.33-.01.73-.68 1.32-1.5 1.32ZM215.63 259.62c.83 0 1.5-.6 1.5-1.33 0-.73-.67-1.33-1.5-1.33s-1.5.6-1.5 1.33c0 .74.67 1.33 1.5 1.33ZM228.05 265.63c-.83 0-1.5-.6-1.5-1.33 0-.74.67-1.33 1.5-1.33s1.5.6 1.5 1.33c0 .74-.67 1.33-1.5 1.33ZM241.5 270.78c.77-.28 1.13-1.06.81-1.74-.32-.69-1.2-1.01-1.97-.73s-1.13 1.07-.81 1.75c.31.68 1.2 1 1.97.72ZM252.3 274.7c0-.74.67-1.34 1.5-1.34.84 0 1.52.6 1.52 1.34M52.2 3.18c-.73 0-1.32-.53-1.32-1.17 0-.64.6-1.17 1.32-1.17.72 0 1.31.53 1.31 1.17 0 .64-.59 1.17-1.31 1.17ZM59.86 13.28c.17-.63-.27-1.26-.98-1.41-.7-.15-1.42.24-1.58.87-.17.63.27 1.26.98 1.4.7.15 1.42-.24 1.58-.86ZM65.6 24.92c.52-.46.52-1.2 0-1.66a1.45 1.45 0 0 0-1.87 0c-.52.46-.52 1.2 0 1.66.51.46 1.35.46 1.87 0ZM71.83 35.58c.17-.63-.27-1.27-.99-1.42-.71-.15-1.43.25-1.6.88-.17.63.28 1.27 1 1.42.7.14 1.42-.25 1.59-.88ZM76.55 47.7c.7-.17 1.13-.82.93-1.45-.19-.63-.92-1-1.63-.83-.71.17-1.13.82-.94 1.45.2.63.92 1 1.64.83ZM81.76 59.07c-.74 0-1.34-.53-1.34-1.18 0-.66.6-1.19 1.34-1.19.74 0 1.34.53 1.34 1.19 0 .65-.6 1.18-1.34 1.18ZM87.22 70.43c.74 0 1.34-.53 1.34-1.18 0-.66-.6-1.2-1.34-1.2-.74 0-1.34.54-1.34 1.2 0 .65.6 1.18 1.34 1.18ZM93.97 80.8c.12-.64-.38-1.26-1.11-1.36-.74-.1-1.43.34-1.55.99-.12.65.38 1.26 1.12 1.36.73.1 1.42-.33 1.54-.98ZM98.06 93.19c-.75 0-1.35-.54-1.35-1.2 0-.66.6-1.2 1.35-1.2.74 0 1.35.54 1.35 1.2 0 .66-.6 1.2-1.35 1.2ZM104.5 104.2a1.1 1.1 0 0 0 0-1.7 1.48 1.48 0 0 0-1.92 0 1.1 1.1 0 0 0 0 1.7c.52.46 1.38.46 1.91 0ZM110.44 114.92c.16-.64-.3-1.29-1.04-1.43-.73-.14-1.46.26-1.62.91-.16.65.3 1.3 1.03 1.44.74.14 1.46-.27 1.63-.92ZM114.85 127.12c.75 0 1.36-.54 1.36-1.2 0-.67-.6-1.22-1.36-1.22-.75 0-1.37.55-1.37 1.21 0 .67.61 1.21 1.37 1.21ZM120.78 138.3c-.75 0-1.37-.55-1.37-1.22 0-.67.62-1.2 1.37-1.2.76 0 1.37.53 1.37 1.2 0 .67-.61 1.22-1.37 1.22ZM126.97 149.36c-.76 0-1.38-.54-1.38-1.21 0-.67.62-1.22 1.38-1.22.75 0 1.37.55 1.37 1.22 0 .67-.62 1.21-1.38 1.21ZM134.43 159.94c.53-.48.53-1.25 0-1.73a1.5 1.5 0 0 0-1.95 0 1.12 1.12 0 0 0 0 1.72c.54.48 1.41.48 1.95 0ZM140.3 171.05c.77 0 1.39-.55 1.39-1.23 0-.67-.62-1.22-1.38-1.22-.76 0-1.38.55-1.38 1.22 0 .68.62 1.23 1.38 1.23ZM147.57 181.59c-.77 0-1.39-.55-1.39-1.23 0-.68.62-1.23 1.39-1.23.76 0 1.38.55 1.38 1.23 0 .68-.62 1.23-1.38 1.23ZM155.3 191.86c-.78 0-1.4-.55-1.4-1.23 0-.68.63-1.23 1.4-1.23.76 0 1.38.55 1.38 1.23 0 .68-.62 1.23-1.39 1.23ZM163.53 201.83c-.78 0-1.4-.56-1.4-1.24 0-.68.63-1.23 1.4-1.23.76 0 1.39.55 1.39 1.23 0 .68-.63 1.24-1.4 1.24ZM173.67 210.5c.18-.67-.28-1.34-1.04-1.5-.75-.15-1.5.26-1.68.92-.18.67.29 1.34 1.04 1.5.75.15 1.5-.26 1.68-.93ZM182.22 220.47c.72-.27 1.06-1 .76-1.63-.3-.63-1.12-.93-1.83-.67-.72.26-1.06 1-.76 1.63.3.63 1.12.93 1.83.67ZM193 228.28c.18-.67-.29-1.35-1.04-1.5-.76-.16-1.52.25-1.7.92-.18.67.3 1.34 1.05 1.5.75.16 1.51-.25 1.7-.92ZM202.18 237.27c-.78 0-1.41-.56-1.41-1.25 0-.7.63-1.25 1.4-1.25.79 0 1.42.56 1.42 1.25s-.63 1.25-1.41 1.25ZM213.3 244.7c.78 0 1.42-.56 1.42-1.25 0-.7-.64-1.25-1.42-1.25-.78 0-1.42.56-1.42 1.25 0 .7.64 1.25 1.42 1.25ZM226.35 250.53c.18-.68-.3-1.35-1.06-1.51-.76-.16-1.53.26-1.7.93-.19.68.29 1.36 1.05 1.52.76.16 1.53-.26 1.7-.94ZM237.1 257.51c-.78 0-1.42-.56-1.42-1.26s.64-1.26 1.42-1.26c.8 0 1.43.56 1.43 1.26s-.64 1.26-1.43 1.26ZM249.68 262.83c-.8 0-1.43-.56-1.43-1.26s.64-1.27 1.43-1.27c.79 0 1.43.57 1.43 1.27 0 .7-.64 1.26-1.43 1.26ZM262.44 267.8c-.8 0-1.44-.58-1.44-1.28 0-.7.65-1.27 1.44-1.27.79 0 1.43.57 1.43 1.27 0 .7-.64 1.27-1.43 1.27ZM274.96 273.21c-.8 0-1.44-.57-1.44-1.27 0-.7.64-1.27 1.44-1.27.79 0 1.43.57 1.43 1.27 0 .7-.64 1.27-1.43 1.27ZM69.47 9.63c.7 0 1.26-.5 1.26-1.11 0-.62-.57-1.12-1.26-1.12-.7 0-1.26.5-1.26 1.12 0 .61.56 1.11 1.26 1.11ZM75.43 20.58c-.7 0-1.26-.5-1.26-1.12 0-.62.56-1.12 1.26-1.12s1.26.5 1.26 1.12c0 .62-.56 1.12-1.26 1.12ZM81.19 31.6c-.7 0-1.26-.5-1.26-1.11 0-.62.56-1.12 1.26-1.12s1.26.5 1.26 1.12c0 .61-.56 1.12-1.26 1.12ZM86.8 42.7c-.7 0-1.27-.5-1.27-1.13 0-.62.57-1.12 1.27-1.12.7 0 1.27.5 1.27 1.12 0 .62-.57 1.13-1.27 1.13ZM92.29 53.83c-.7 0-1.27-.5-1.27-1.12 0-.63.57-1.13 1.27-1.13.7 0 1.27.5 1.27 1.13 0 .62-.57 1.12-1.27 1.12ZM98.5 64.75c.55-.39.63-1.1.19-1.59a1.4 1.4 0 0 0-1.8-.16c-.55.4-.63 1.11-.18 1.6a1.4 1.4 0 0 0 1.8.15ZM103.11 76.17c-.7 0-1.28-.5-1.28-1.13 0-.63.58-1.14 1.28-1.14.7 0 1.28.51 1.28 1.14 0 .62-.57 1.13-1.28 1.13ZM108.53 87.33c-.71 0-1.29-.5-1.29-1.13 0-.63.58-1.14 1.29-1.14.7 0 1.28.5 1.28 1.14 0 .63-.58 1.13-1.28 1.13ZM114 98.48c.72 0 1.3-.51 1.3-1.14 0-.63-.58-1.14-1.3-1.14-.7 0-1.28.5-1.28 1.14 0 .63.57 1.14 1.28 1.14ZM119.59 109.58c-.72 0-1.3-.51-1.3-1.15 0-.63.58-1.14 1.3-1.14.71 0 1.29.51 1.29 1.14 0 .64-.58 1.15-1.3 1.15ZM125.32 120.62c-.71 0-1.3-.52-1.3-1.15 0-.63.59-1.14 1.3-1.14.72 0 1.3.5 1.3 1.14 0 .63-.58 1.15-1.3 1.15ZM131.25 131.58c.72 0 1.3-.52 1.3-1.15 0-.64-.58-1.16-1.3-1.16-.71 0-1.3.52-1.3 1.16 0 .63.59 1.15 1.3 1.15ZM137.44 142.43c-.72 0-1.3-.52-1.3-1.16 0-.64.58-1.15 1.3-1.15.71 0 1.3.51 1.3 1.15 0 .64-.59 1.16-1.3 1.16ZM143.9 153.14c-.71 0-1.3-.52-1.3-1.16 0-.63.59-1.15 1.3-1.15.73 0 1.31.51 1.31 1.15 0 .64-.58 1.16-1.3 1.16ZM150.72 163.69c-.72 0-1.3-.52-1.3-1.16 0-.65.58-1.16 1.3-1.16.73 0 1.31.52 1.31 1.16 0 .64-.58 1.16-1.3 1.16ZM159.22 173.16c.16-.63-.27-1.25-.98-1.4-.7-.15-1.41.24-1.58.86-.17.63.27 1.25.98 1.4.7.15 1.41-.24 1.58-.86ZM165.58 184.1c.72 0 1.31-.51 1.31-1.16 0-.64-.58-1.16-1.31-1.16-.73 0-1.32.52-1.32 1.16 0 .65.6 1.17 1.32 1.17ZM173.7 193.9c-.72 0-1.31-.53-1.31-1.17 0-.65.59-1.17 1.32-1.17.72 0 1.32.52 1.32 1.17 0 .64-.6 1.17-1.32 1.17ZM183.29 202.99c.51-.46.51-1.2 0-1.66a1.45 1.45 0 0 0-1.87 0c-.52.45-.52 1.2 0 1.66.51.45 1.35.45 1.87 0ZM191.55 212.34c.73 0 1.33-.52 1.33-1.17 0-.65-.6-1.18-1.33-1.18-.73 0-1.33.53-1.33 1.18 0 .65.6 1.18 1.33 1.18ZM201.3 220.88c-.73 0-1.32-.52-1.32-1.17 0-.66.6-1.18 1.33-1.18.73 0 1.33.52 1.33 1.18 0 .65-.6 1.17-1.33 1.17ZM211.63 228.89c-.74 0-1.34-.53-1.34-1.18 0-.66.6-1.19 1.34-1.19.73 0 1.33.53 1.33 1.19 0 .65-.6 1.18-1.33 1.18ZM222.5 236.3c-.74 0-1.34-.53-1.34-1.19 0-.65.6-1.18 1.34-1.18.74 0 1.34.53 1.34 1.18 0 .66-.6 1.19-1.34 1.19ZM235.22 242.07c.12-.65-.38-1.26-1.1-1.36-.74-.1-1.43.33-1.55.98-.12.65.38 1.26 1.11 1.36.73.1 1.42-.33 1.54-.98ZM245.74 249.17c-.74 0-1.34-.54-1.34-1.2 0-.66.6-1.19 1.34-1.19.74 0 1.35.53 1.35 1.2 0 .65-.6 1.19-1.35 1.19ZM258.02 254.58c-.75 0-1.35-.54-1.35-1.2 0-.66.6-1.2 1.35-1.2.75 0 1.35.54 1.35 1.2 0 .66-.6 1.2-1.35 1.2ZM270.6 259.42c.74 0 1.35-.54 1.35-1.2 0-.66-.6-1.2-1.35-1.2-.75 0-1.36.54-1.36 1.2 0 .66.61 1.2 1.36 1.2ZM283 264.59c.75 0 1.36-.54 1.36-1.2 0-.67-.6-1.2-1.36-1.2-.74 0-1.35.53-1.35 1.2 0 .66.6 1.2 1.36 1.2ZM295.16 270.21c-.75 0-1.36-.53-1.36-1.2 0-.67.6-1.2 1.36-1.2.75 0 1.36.53 1.36 1.2 0 .67-.61 1.2-1.36 1.2ZM305.7 275.04c0-.67.6-1.2 1.36-1.2.75 0 1.36.53 1.36 1.2M80.15 4.75c-.66 0-1.2-.47-1.2-1.05 0-.59.54-1.06 1.2-1.06.66 0 1.19.47 1.19 1.06 0 .58-.53 1.05-1.2 1.05ZM86 15.53c.65 0 1.2-.48 1.2-1.06-.01-.59-.55-1.06-1.2-1.06-.67 0-1.2.47-1.2 1.06 0 .58.53 1.06 1.2 1.06ZM92.86 25.48c.1-.58-.34-1.12-1-1.22-.65-.1-1.26.3-1.37.88-.1.58.34 1.13 1 1.22.65.1 1.26-.3 1.37-.88ZM97.35 37.27c.66-.08 1.13-.6 1.05-1.2-.09-.58-.69-.99-1.35-.92-.65.07-1.12.6-1.04 1.19.08.58.68 1 1.34.93ZM102.65 48.22c.66 0 1.2-.48 1.2-1.07 0-.59-.54-1.07-1.2-1.07-.67 0-1.2.48-1.2 1.07 0 .6.53 1.07 1.2 1.07ZM108.04 59.18c-.67 0-1.21-.48-1.21-1.07 0-.6.54-1.07 1.2-1.07.67 0 1.22.48 1.22 1.07 0 .6-.55 1.07-1.21 1.07ZM113.42 70.15c-.67 0-1.22-.48-1.22-1.08 0-.59.55-1.07 1.22-1.07.66 0 1.2.48 1.2 1.07 0 .6-.54 1.08-1.2 1.08ZM118.82 81.1c.67 0 1.21-.48 1.21-1.07 0-.6-.54-1.08-1.21-1.08-.67 0-1.22.48-1.22 1.08 0 .6.55 1.08 1.22 1.08ZM124.29 92.04c-.67 0-1.22-.49-1.22-1.08 0-.6.55-1.08 1.22-1.08.67 0 1.22.48 1.22 1.08 0 .6-.55 1.08-1.22 1.08ZM130.33 102.83c.62-.23.92-.86.66-1.41-.25-.56-.96-.82-1.59-.6-.62.23-.92.87-.66 1.42.25.55.97.82 1.59.59ZM135.6 113.75c-.68 0-1.23-.49-1.23-1.08 0-.6.55-1.09 1.22-1.09.68 0 1.23.49 1.23 1.09 0 .6-.55 1.08-1.22 1.08ZM141.52 124.5c-.68 0-1.23-.5-1.23-1.1 0-.6.55-1.08 1.23-1.08.67 0 1.22.49 1.22 1.09 0 .6-.55 1.08-1.22 1.08ZM147.68 135.13c-.68 0-1.23-.49-1.23-1.09 0-.6.55-1.09 1.23-1.09.68 0 1.23.49 1.23 1.1 0 .6-.55 1.08-1.23 1.08ZM154.12 145.64c-.68 0-1.23-.49-1.23-1.1 0-.6.55-1.09 1.23-1.09.68 0 1.23.5 1.23 1.1 0 .6-.55 1.09-1.23 1.09ZM160.89 155.98c-.69 0-1.24-.49-1.24-1.1 0-.6.55-1.09 1.24-1.09.68 0 1.23.5 1.23 1.1 0 .6-.55 1.1-1.23 1.1ZM168.03 166.13c-.69 0-1.25-.5-1.25-1.1 0-.6.56-1.1 1.25-1.1.68 0 1.23.5 1.23 1.1 0 .6-.55 1.1-1.23 1.1ZM175.58 176.03c-.69 0-1.24-.5-1.24-1.1 0-.6.55-1.1 1.24-1.1.68 0 1.24.5 1.24 1.1 0 .6-.56 1.1-1.24 1.1ZM183.59 185.65c-.7 0-1.25-.49-1.25-1.1 0-.6.56-1.1 1.25-1.1.68 0 1.24.5 1.24 1.1 0 .61-.56 1.1-1.25 1.1ZM192.96 194.62c.49-.43.49-1.13 0-1.57a1.37 1.37 0 0 0-1.77 0 1.02 1.02 0 0 0 0 1.57c.5.43 1.28.43 1.77 0ZM201.1 203.84c.69 0 1.25-.5 1.25-1.1 0-.62-.56-1.12-1.25-1.12-.7 0-1.26.5-1.26 1.11 0 .61.56 1.11 1.25 1.11ZM210.64 212.3c-.7 0-1.26-.5-1.26-1.12 0-.61.56-1.11 1.26-1.11.69 0 1.25.5 1.25 1.11 0 .61-.56 1.11-1.25 1.11ZM220.72 220.24c-.7 0-1.26-.5-1.26-1.11 0-.62.56-1.12 1.26-1.12s1.25.5 1.25 1.12c0 .61-.56 1.11-1.25 1.11ZM231.32 227.63c-.7 0-1.26-.5-1.26-1.11 0-.62.56-1.12 1.26-1.12s1.26.5 1.26 1.12c0 .61-.56 1.11-1.26 1.11ZM242.42 234.43c-.7 0-1.26-.5-1.26-1.12 0-.62.56-1.12 1.26-1.12s1.26.5 1.26 1.12c0 .62-.56 1.12-1.26 1.12ZM253.98 240.6c-.7 0-1.26-.51-1.26-1.13 0-.62.56-1.12 1.26-1.12s1.27.5 1.27 1.12c0 .62-.57 1.12-1.27 1.12ZM265.96 246.1c-.7 0-1.27-.5-1.27-1.13 0-.62.57-1.12 1.27-1.12.7 0 1.27.5 1.27 1.12 0 .63-.57 1.13-1.27 1.13ZM278.29 250.95c-.7 0-1.27-.5-1.27-1.13 0-.62.56-1.13 1.27-1.13.7 0 1.27.5 1.27 1.13 0 .62-.57 1.13-1.27 1.13ZM290.6 255.84c-.7 0-1.28-.5-1.28-1.13 0-.62.57-1.13 1.28-1.13.7 0 1.27.5 1.27 1.13 0 .63-.57 1.13-1.27 1.13ZM303.55 260.88c.5-.44.5-1.16 0-1.6a1.4 1.4 0 0 0-1.81 0c-.5.44-.5 1.16 0 1.6.5.44 1.31.44 1.8 0ZM314.45 267c.71 0 1.29-.5 1.29-1.13 0-.63-.58-1.13-1.29-1.13-.7 0-1.28.5-1.28 1.13 0 .63.58 1.14 1.28 1.14ZM97.48 9.27c.1-.55-.32-1.06-.93-1.15-.62-.09-1.2.28-1.3.83-.1.54.32 1.06.93 1.15.62.09 1.2-.28 1.3-.83ZM102.75 20.49a.93.93 0 0 0 0-1.42c-.45-.4-1.16-.4-1.6 0a.92.92 0 0 0 0 1.42c.44.39 1.15.39 1.6 0ZM107.43 31.49c-.63 0-1.14-.45-1.14-1 0-.56.51-1.01 1.14-1.01.62 0 1.13.45 1.13 1 0 .56-.5 1.01-1.13 1.01ZM112.83 42.23c-.63 0-1.14-.45-1.14-1 0-.56.5-1.01 1.14-1.01.62 0 1.13.45 1.13 1 0 .56-.5 1.01-1.13 1.01ZM118.18 53c-.63 0-1.14-.46-1.14-1.02s.51-1 1.14-1c.63 0 1.14.44 1.14 1s-.5 1.01-1.14 1.01ZM123.54 63.75c-.63 0-1.15-.45-1.15-1.01s.52-1.01 1.15-1.01c.63 0 1.14.45 1.14 1.01s-.51 1.01-1.14 1.01ZM128.92 74.5c-.63 0-1.14-.45-1.14-1.01s.51-1.02 1.14-1.02c.64 0 1.15.46 1.15 1.02s-.51 1.01-1.15 1.01ZM134.38 85.22c-.63 0-1.15-.45-1.15-1.02 0-.56.52-1.01 1.15-1.01.64 0 1.15.45 1.15 1.01 0 .57-.51 1.02-1.15 1.02ZM139.95 95.9c-.64 0-1.15-.46-1.15-1.02s.51-1.02 1.15-1.02c.63 0 1.15.46 1.15 1.02s-.52 1.02-1.15 1.02ZM145.66 106.52c-.64 0-1.15-.46-1.15-1.03 0-.56.51-1.02 1.15-1.02.64 0 1.15.46 1.15 1.02 0 .57-.51 1.03-1.15 1.03ZM151.56 117.05c-.64 0-1.15-.46-1.15-1.02 0-.57.51-1.03 1.15-1.03.64 0 1.16.46 1.16 1.03 0 .56-.52 1.02-1.16 1.02ZM157.69 127.48c-.64 0-1.16-.46-1.16-1.02 0-.57.52-1.03 1.16-1.03.63 0 1.15.46 1.15 1.03 0 .56-.51 1.02-1.15 1.02ZM164.08 137.79c.64 0 1.16-.46 1.16-1.03 0-.57-.52-1.03-1.16-1.03-.64 0-1.16.46-1.16 1.03 0 .57.52 1.03 1.16 1.03ZM170.79 147.94c-.64 0-1.16-.46-1.16-1.03 0-.57.52-1.03 1.16-1.03.64 0 1.16.46 1.16 1.03 0 .57-.52 1.03-1.16 1.03ZM179 157.03c.1-.56-.32-1.1-.96-1.19-.63-.09-1.23.3-1.34.86-.1.56.33 1.1.97 1.18.63.1 1.23-.29 1.34-.85ZM185.29 167.63c-.65 0-1.17-.46-1.17-1.03 0-.57.52-1.04 1.17-1.04.64 0 1.17.47 1.17 1.04 0 .57-.53 1.03-1.17 1.03ZM193.16 177.1c-.65 0-1.17-.47-1.17-1.04 0-.57.52-1.04 1.17-1.04.65 0 1.17.47 1.17 1.04 0 .57-.52 1.04-1.17 1.04ZM201.5 186.25c-.65 0-1.18-.46-1.18-1.04 0-.57.53-1.04 1.17-1.04.65 0 1.18.47 1.18 1.04 0 .58-.53 1.04-1.18 1.04ZM210.3 195.04c-.64 0-1.17-.46-1.17-1.04 0-.57.53-1.04 1.18-1.04.65 0 1.17.47 1.17 1.04 0 .58-.52 1.04-1.17 1.04ZM219.63 203.41c.65 0 1.18-.46 1.18-1.04 0-.57-.53-1.04-1.18-1.04-.65 0-1.18.47-1.18 1.04 0 .58.53 1.04 1.18 1.04ZM230.28 211.02a.96.96 0 0 0 0-1.48c-.46-.41-1.2-.41-1.67 0a.96.96 0 0 0 0 1.48c.46.4 1.2.4 1.67 0ZM239.78 218.71c-.66 0-1.19-.47-1.19-1.05 0-.58.53-1.05 1.19-1.05.65 0 1.18.47 1.18 1.05 0 .58-.53 1.05-1.19 1.05ZM250.58 225.54c.66 0 1.19-.47 1.19-1.05 0-.58-.53-1.05-1.19-1.05-.66 0-1.19.47-1.19 1.05 0 .58.54 1.05 1.19 1.05ZM261.84 231.77c.65 0 1.18-.47 1.18-1.06 0-.58-.53-1.05-1.18-1.05-.66 0-1.2.47-1.2 1.06 0 .58.54 1.05 1.2 1.05ZM273.5 237.38c-.66 0-1.2-.47-1.2-1.06 0-.58.54-1.05 1.2-1.05.65 0 1.19.47 1.19 1.05 0 .59-.54 1.06-1.2 1.06ZM285.51 242.36c-.65 0-1.19-.47-1.19-1.06 0-.58.54-1.05 1.2-1.05.65 0 1.19.47 1.19 1.06 0 .58-.54 1.05-1.2 1.05ZM297.7 247c-.65 0-1.19-.47-1.19-1.06 0-.59.54-1.06 1.2-1.06.66 0 1.2.47 1.2 1.06 0 .59-.54 1.06-1.2 1.06ZM309.67 252.08c-.66 0-1.2-.47-1.2-1.06 0-.58.54-1.06 1.2-1.06.66 0 1.2.48 1.2 1.06 0 .59-.54 1.06-1.2 1.06ZM106.52 4.33c.59 0 1.07-.42 1.07-.94s-.48-.94-1.07-.94c-.58 0-1.06.42-1.06.94s.48.94 1.06.94ZM112.05 14.8c.58 0 1.06-.42 1.06-.94s-.48-.94-1.06-.94c-.6 0-1.07.42-1.07.94s.48.95 1.06.95ZM117.47 25.33c-.6 0-1.07-.43-1.07-.95s.48-.95 1.07-.95c.59 0 1.06.43 1.06.95s-.47.95-1.06.95ZM122.82 35.87c-.59 0-1.07-.42-1.07-.95 0-.52.48-.94 1.07-.94.6 0 1.07.42 1.07.94 0 .53-.48.95-1.07.95ZM128.15 46.43c-.6 0-1.07-.43-1.07-.95s.48-.95 1.07-.95c.59 0 1.07.42 1.07.95 0 .52-.48.95-1.07.95ZM133.47 56.98c-.59 0-1.07-.42-1.07-.95 0-.52.48-.95 1.07-.95.6 0 1.08.43 1.08.95 0 .53-.48.95-1.08.95ZM138.84 67.53c.6 0 1.08-.43 1.08-.96 0-.52-.49-.95-1.08-.95-.6 0-1.07.43-1.07.95 0 .53.48.96 1.07.96ZM145.32 77.24c.1-.52-.31-1-.9-1.09-.59-.08-1.14.28-1.23.8-.09.52.31 1 .9 1.09.59.08 1.14-.28 1.23-.8ZM149.82 88.5c.6 0 1.08-.42 1.08-.95s-.48-.95-1.08-.95c-.6 0-1.08.42-1.08.95s.48.96 1.08.96ZM156.58 98.11c.1-.52-.3-1.01-.89-1.1-.59-.08-1.14.27-1.24.8-.1.51.3 1 .9 1.1.58.08 1.14-.28 1.23-.8ZM161.38 109.25c.6 0 1.08-.43 1.08-.96s-.49-.96-1.08-.96c-.6 0-1.09.43-1.09.96s.49.96 1.09.96ZM167.46 119.48c-.6 0-1.09-.43-1.09-.96s.49-.96 1.09-.96c.6 0 1.08.42 1.08.96 0 .53-.48.96-1.08.96ZM173.8 129.59c-.6 0-1.1-.43-1.1-.97 0-.53.5-.96 1.1-.96.6 0 1.08.43 1.08.97 0 .53-.49.96-1.09.96ZM180.42 139.55c-.6 0-1.09-.43-1.09-.97 0-.53.49-.96 1.1-.96.6 0 1.08.43 1.08.96 0 .54-.49.97-1.09.97ZM187.38 149.33c-.6 0-1.1-.43-1.1-.97 0-.53.5-.96 1.1-.96.6 0 1.1.43 1.1.97 0 .53-.5.96-1.1.96ZM194.7 158.9c-.6 0-1.1-.43-1.1-.97 0-.53.5-.97 1.1-.97.6 0 1.1.44 1.1.97 0 .54-.5.97-1.1.97ZM202.43 168.22c-.6 0-1.1-.43-1.1-.97 0-.53.5-.97 1.1-.97.6 0 1.09.44 1.09.97 0 .54-.49.97-1.1.97ZM211.67 176.43c.1-.53-.3-1.03-.9-1.11-.6-.09-1.16.27-1.26.8-.1.53.3 1.03.9 1.12.6.08 1.17-.28 1.26-.8ZM219.96 185.66a.9.9 0 0 0 0-1.38 1.2 1.2 0 0 0-1.55 0 .9.9 0 0 0 0 1.38 1.2 1.2 0 0 0 1.55 0ZM229.35 193.53c.14-.53-.23-1.05-.82-1.18-.6-.12-1.18.2-1.32.73-.14.52.22 1.05.81 1.17.6.13 1.19-.2 1.33-.72ZM237.83 202.11c-.6 0-1.1-.44-1.1-.97 0-.54.5-.98 1.1-.98.6 0 1.1.44 1.1.98s-.5.97-1.1.97ZM247.87 209.5c-.61 0-1.1-.44-1.1-.98s.49-.97 1.1-.97c.61 0 1.1.44 1.1.97 0 .54-.49.98-1.1.98ZM258.37 216.37c-.61 0-1.1-.44-1.1-.98s.49-.98 1.1-.98c.61 0 1.1.44 1.1.98s-.49.98-1.1.98ZM269.3 222.68c-.6 0-1.1-.44-1.1-.98 0-.55.5-.99 1.1-.99.62 0 1.11.44 1.11.99 0 .54-.5.98-1.1.98ZM280.64 228.4c-.61 0-1.1-.44-1.1-.98s.49-.98 1.1-.98c.62 0 1.11.44 1.11.98s-.5.98-1.1.98ZM292.34 233.53c-.61 0-1.11-.44-1.11-.99 0-.54.5-.98 1.11-.98.62 0 1.11.44 1.11.98 0 .55-.5 1-1.11 1ZM305.41 237.34c.16-.53-.2-1.07-.8-1.2-.6-.14-1.2.17-1.36.7-.15.53.21 1.07.8 1.2.6.14 1.21-.18 1.36-.7ZM316.21 242.86c-.61 0-1.11-.44-1.11-.99s.5-.99 1.11-.99c.62 0 1.12.44 1.12 1 0 .54-.5.98-1.12.98ZM122.94 7.72c.09-.48-.28-.93-.82-1-.55-.09-1.06.24-1.14.72-.1.48.28.93.82 1.01.54.08 1.05-.25 1.14-.73ZM127.32 18.8c-.55 0-1-.4-1-.9 0-.48.45-.87 1-.87s1 .4 1 .88c0 .49-.45.88-1 .88ZM132.63 29.14c-.55 0-1-.4-1-.89s.45-.88 1-.88 1 .4 1 .88c0 .5-.45.89-1 .89ZM137.92 39.5c.55 0 1-.4 1-.9 0-.48-.45-.88-1-.88s-1 .4-1 .89.45.88 1 .88ZM144.22 49.02c.05-.48-.36-.91-.92-.95-.55-.04-1.03.32-1.08.8-.04.5.37.93.92.97.55.04 1.03-.33 1.08-.82ZM148.56 60.18c-.55 0-1-.4-1-.89s.45-.88 1-.88 1 .4 1 .88c0 .5-.45.9-1 .9ZM153.97 70.49c-.56 0-1-.4-1-.89 0-.5.44-.89 1-.89.55 0 1 .4 1 .89 0 .5-.45.89-1 .89ZM159.49 80.75c-.56 0-1.01-.4-1.01-.89s.45-.89 1-.89c.56 0 1.01.4 1.01.9 0 .48-.45.88-1 .88ZM165.26 90.97c.55-.06.95-.5.88-.99-.07-.49-.57-.84-1.13-.78-.55.06-.94.5-.87 1 .07.49.57.84 1.12.77ZM170.96 101.09c-.56 0-1.01-.4-1.01-.9 0-.49.45-.89 1-.89.56 0 1.02.4 1.02.9 0 .49-.46.89-1.01.89ZM177.94 110.44c.13-.48-.2-.96-.75-1.07-.54-.12-1.09.18-1.22.66-.12.48.21.97.76 1.08.54.11 1.08-.19 1.21-.67ZM183.25 121.05c-.56 0-1.01-.4-1.01-.9s.45-.9 1.01-.9 1.01.4 1.01.9-.45.9-1.01.9ZM189.79 130.82c-.56 0-1.01-.4-1.01-.9s.45-.9 1-.9c.57 0 1.02.4 1.02.9s-.45.9-1.01.9ZM196.64 140.44c-.56 0-1.02-.4-1.02-.9s.46-.9 1.02-.9 1.01.4 1.01.9-.45.9-1.01.9ZM204.83 149.19c.13-.49-.21-.97-.76-1.09-.55-.11-1.1.19-1.22.67-.13.49.2.97.75 1.09.55.11 1.1-.19 1.23-.68ZM211.39 159.03c-.56 0-1.02-.4-1.02-.9s.46-.9 1.02-.9 1.02.4 1.02.9-.46.9-1.02.9ZM219.36 167.94c-.57 0-1.02-.4-1.02-.9s.45-.91 1.02-.91c.56 0 1.01.4 1.01.9s-.45.9-1.01.9ZM228.16 176.46c.52-.19.77-.72.55-1.18-.22-.46-.81-.68-1.34-.5-.52.2-.77.73-.55 1.2.22.45.81.67 1.34.48ZM236.59 184.77c-.57 0-1.03-.4-1.03-.9s.46-.9 1.03-.9c.56 0 1.02.4 1.02.9s-.46.9-1.02.9ZM245.88 192.61c-.57 0-1.03-.4-1.03-.9s.46-.91 1.03-.91c.56 0 1.02.4 1.02.9s-.46.91-1.03.91ZM256.64 199.24c.1-.5-.28-.96-.84-1.04-.56-.08-1.1.26-1.18.75-.1.5.29.97.85 1.05.56.08 1.08-.26 1.17-.76ZM265.8 206.91c.58 0 1.03-.42 1.02-.92 0-.5-.47-.9-1.04-.9-.57 0-1.02.42-1.01.92 0 .5.47.91 1.04.9ZM276.41 213.3c-.57 0-1.03-.4-1.03-.9s.46-.92 1.03-.92c.57 0 1.03.41 1.03.92 0 .5-.46.9-1.03.9ZM287.42 219.15c-.57 0-1.04-.4-1.04-.91 0-.5.47-.92 1.04-.92.56 0 1.03.41 1.03.92 0 .5-.46.91-1.03.91ZM298.77 224.43c.58 0 1.04-.41 1.04-.92 0-.5-.46-.91-1.04-.91-.56 0-1.03.4-1.03.91 0 .5.46.92 1.03.92ZM310.45 229.13c-.57 0-1.03-.4-1.03-.91s.46-.92 1.03-.92c.57 0 1.04.41 1.04.92 0 .5-.47.91-1.04.91ZM131.66 1.76c.5 0 .92-.37.92-.82 0-.45-.41-.82-.92-.82s-.93.37-.93.82c0 .45.42.82.93.82ZM137.89 11.28c.12-.44-.2-.88-.69-.99-.5-.1-1 .17-1.11.61-.12.44.19.88.69.99.5.1 1-.17 1.1-.61ZM142.25 22.03c.5 0 .92-.36.92-.82 0-.45-.41-.82-.92-.82s-.93.37-.93.82c0 .46.42.82.93.82ZM147.5 32.19c.51 0 .93-.37.93-.82 0-.46-.42-.82-.93-.82s-.93.36-.93.82c0 .45.42.82.93.82ZM153.69 41.61c.05-.45-.32-.85-.83-.9-.5-.05-.97.28-1.02.73-.05.46.32.86.83.9.5.05.97-.27 1.02-.73ZM158.07 52.47c.52 0 .93-.37.93-.82 0-.46-.41-.82-.93-.82-.51 0-.93.36-.93.82 0 .45.42.82.93.82ZM163.45 62.58c-.51 0-.93-.37-.93-.83 0-.45.42-.82.93-.82s.93.37.93.82c0 .46-.42.83-.93.83ZM168.93 72.64c-.52 0-.93-.37-.93-.83 0-.45.41-.82.93-.82.51 0 .93.37.93.82 0 .46-.42.83-.93.83ZM174.53 82.65c.52 0 .94-.37.94-.83 0-.46-.42-.83-.94-.83-.51 0-.93.37-.93.83 0 .46.42.83.93.83ZM180.3 92.58c-.51 0-.93-.37-.93-.83 0-.46.42-.83.93-.83.52 0 .94.37.94.83 0 .46-.42.83-.94.83ZM186.26 102.42c.52 0 .94-.37.94-.83 0-.45-.42-.82-.94-.82-.51 0-.93.37-.93.83 0 .45.42.83.93.83ZM192.45 112.16c-.52 0-.94-.37-.94-.83 0-.46.42-.83.94-.83s.94.37.94.83c0 .46-.42.83-.94.83ZM199.11 121.72c.5-.11.8-.57.68-1.01-.13-.45-.64-.72-1.14-.6-.5.1-.8.56-.68 1 .13.45.64.72 1.14.6ZM205.62 131.2c.52 0 .94-.36.94-.82 0-.46-.42-.84-.94-.84s-.94.38-.94.84c0 .46.42.83.94.83ZM212.66 140.47c-.51 0-.94-.37-.94-.83 0-.46.43-.84.94-.84.53 0 .95.38.95.84 0 .46-.43.83-.95.83ZM220.06 149.51c.52 0 .94-.37.94-.83 0-.46-.42-.83-.94-.83s-.94.37-.94.83c0 .46.42.83.94.83ZM227.83 158.31c-.52 0-.94-.37-.94-.83 0-.47.42-.84.94-.84s.94.37.94.84c0 .46-.42.83-.94.83ZM236.93 166.21c.12-.45-.2-.9-.7-1-.51-.11-1.02.16-1.14.61-.12.46.2.9.7 1.01.5.1 1.02-.17 1.14-.62ZM244.58 175c-.52 0-.94-.37-.94-.84 0-.46.42-.83.94-.83s.95.37.95.83c0 .47-.43.84-.95.84ZM253.6 182.81c-.53 0-.95-.37-.95-.83 0-.47.42-.84.94-.84.53 0 .95.37.95.84 0 .46-.42.83-.94.83ZM263.98 189.51c.09-.46-.26-.89-.78-.96-.52-.08-1 .23-1.09.7-.08.45.27.88.79.95.51.08 1-.23 1.08-.69ZM272.9 197.17c-.53 0-.95-.37-.95-.84 0-.46.42-.84.95-.84.52 0 .95.38.95.84 0 .47-.43.84-.95.84ZM283.17 203.65c-.52 0-.95-.38-.95-.85 0-.46.43-.84.95-.84.53 0 .95.38.95.84 0 .47-.42.84-.95.84ZM293.83 209.6c.53 0 .96-.37.96-.84 0-.46-.43-.84-.96-.84-.52 0-.95.38-.95.84 0 .47.43.85.95.85ZM304.85 215.04c-.53 0-.96-.38-.96-.85s.43-.84.96-.84c.52 0 .95.38.95.84 0 .47-.43.85-.95.85ZM317.08 219.29c.13-.46-.2-.91-.7-1.02-.52-.1-1.03.17-1.15.63-.12.45.2.9.7 1.02.52.1 1.03-.18 1.15-.63ZM146.43 4.62c-.47 0-.85-.34-.85-.76 0-.41.38-.75.85-.75s.85.34.85.75c0 .42-.38.76-.85.76ZM151.66 14.57c.47 0 .85-.34.85-.76s-.38-.76-.85-.76-.85.34-.85.76.38.76.85.76ZM156.88 24.52c-.47 0-.86-.34-.86-.76 0-.41.39-.75.86-.75s.85.34.85.75c0 .42-.38.76-.85.76ZM162.1 34.47c-.47 0-.85-.34-.85-.76s.38-.76.85-.76c.48 0 .86.34.86.76s-.38.76-.86.76ZM167.38 44.4c-.48 0-.86-.34-.86-.76 0-.41.38-.75.86-.75.47 0 .85.34.85.75 0 .42-.38.76-.85.76ZM172.71 54.3c-.47 0-.86-.33-.86-.75s.39-.76.86-.76.86.34.86.76-.39.76-.86.76ZM178.15 64.17c-.48 0-.86-.34-.86-.76s.38-.76.86-.76c.47 0 .85.34.85.76s-.38.76-.85.76ZM183.7 73.98c-.47 0-.86-.34-.86-.76s.39-.76.86-.76.86.34.86.76-.39.76-.86.76ZM190.27 83.07c.06-.41-.28-.8-.75-.85-.47-.05-.9.25-.95.67-.06.41.27.8.74.85.47.05.9-.25.96-.67ZM196.15 92.72c.07-.41-.26-.8-.73-.86-.47-.06-.9.23-.98.64-.06.42.26.8.73.87.47.06.9-.23.98-.65ZM201.39 102.93c.47 0 .86-.34.86-.76s-.39-.76-.86-.76c-.48 0-.86.34-.86.76s.38.76.86.76ZM207.72 112.36c-.47 0-.86-.34-.86-.76s.38-.76.86-.76.86.34.86.76-.38.76-.86.76ZM214.32 121.65c-.48 0-.86-.34-.86-.76 0-.43.38-.77.86-.77s.86.34.86.77c0 .42-.38.76-.86.76ZM221.22 130.76c-.48 0-.87-.34-.87-.76s.39-.77.87-.77c.47 0 .86.35.86.77 0 .42-.39.76-.86.76ZM228.44 139.68c.47 0 .86-.34.86-.76 0-.43-.39-.77-.87-.77-.47 0-.86.34-.86.77 0 .42.39.76.87.76ZM236 148.37c-.48 0-.86-.34-.86-.77 0-.42.39-.76.86-.76.48 0 .87.34.87.76 0 .43-.39.77-.87.77ZM244.8 156.24c.1-.42-.18-.83-.65-.93-.46-.1-.93.16-1.04.57-.1.41.18.83.64.93.47.1.94-.16 1.05-.57ZM252.27 164.92c-.48 0-.87-.35-.87-.77 0-.43.39-.77.87-.77s.87.34.87.77c0 .42-.4.77-.87.77ZM261 172.7c-.48 0-.87-.34-.87-.76 0-.43.39-.78.87-.78s.87.35.87.78c0 .42-.4.76-.87.76ZM270.13 180.12c-.48 0-.87-.35-.87-.78 0-.42.4-.77.87-.77.48 0 .87.35.87.78 0 .42-.39.77-.87.77ZM279.67 187.12c-.48 0-.87-.35-.87-.77 0-.43.39-.77.87-.77s.87.34.87.77c0 .42-.39.77-.87.77ZM289.6 193.67c.49 0 .88-.34.88-.77s-.4-.77-.88-.77-.87.34-.87.77.4.77.88.77ZM299.92 199.75c-.49 0-.88-.34-.88-.77s.4-.77.88-.77.87.34.87.77-.4.77-.88.77ZM310.58 205.34c-.48 0-.88-.35-.88-.78 0-.42.4-.77.88-.77s.87.34.87.77-.39.78-.87.78ZM160.87 6.73c.43 0 .78-.3.78-.69 0-.38-.35-.69-.78-.69-.43 0-.78.31-.78.7 0 .37.35.68.78.68ZM166.04 16.49c-.43 0-.77-.31-.77-.7 0-.37.34-.68.77-.68.44 0 .78.3.78.69 0 .38-.34.69-.78.69ZM171.23 26.24c-.43 0-.78-.31-.78-.7 0-.37.35-.68.78-.68.43 0 .78.3.78.69 0 .38-.35.69-.78.69ZM176.46 35.97c.43 0 .78-.3.78-.7 0-.37-.35-.68-.78-.68-.43 0-.78.3-.78.69 0 .38.35.69.78.69ZM181.75 45.68c-.43 0-.78-.31-.78-.7 0-.38.35-.69.78-.69.44 0 .79.31.79.7 0 .38-.35.69-.79.69ZM187.13 55.34c-.43 0-.78-.3-.78-.69 0-.38.35-.7.78-.7.44 0 .78.32.78.7 0 .38-.34.7-.78.7ZM192.63 64.96c-.43 0-.78-.31-.78-.7 0-.38.35-.69.78-.69.43 0 .78.31.78.7 0 .38-.35.69-.78.69ZM198.27 74.51c.43 0 .78-.3.78-.7 0-.37-.35-.68-.78-.68-.44 0-.79.3-.79.69 0 .38.36.7.79.7ZM204.07 83.99c-.43 0-.78-.31-.78-.7 0-.38.35-.7.78-.7.43 0 .78.32.78.7 0 .39-.35.7-.78.7ZM210.07 93.36c-.44 0-.79-.3-.79-.7 0-.37.35-.69.79-.69.43 0 .78.32.78.7 0 .38-.35.7-.78.7ZM216.28 102.63c-.43 0-.78-.31-.78-.7 0-.38.35-.7.78-.7.44 0 .79.32.79.7 0 .39-.35.7-.78.7ZM222.75 111.76c.44 0 .79-.31.79-.7 0-.38-.35-.7-.79-.7-.43 0-.78.32-.78.7 0 .39.35.7.78.7ZM229.49 120.73c-.44 0-.79-.31-.79-.7 0-.38.36-.7.79-.7.43 0 .79.32.79.7 0 .39-.36.7-.8.7ZM236.53 129.52c-.44 0-.8-.31-.8-.7 0-.38.36-.7.8-.7.43 0 .78.32.78.7 0 .39-.35.7-.78.7ZM243.88 138.1c-.43 0-.78-.31-.78-.7 0-.38.35-.7.78-.7.44 0 .8.32.8.7 0 .39-.36.7-.8.7ZM251.59 146.44c-.44 0-.79-.31-.79-.7 0-.38.35-.7.79-.7.44 0 .79.32.79.7 0 .39-.35.7-.8.7ZM259.65 154.51c-.43 0-.78-.31-.78-.7 0-.38.35-.7.78-.7.44 0 .8.32.8.7 0 .39-.36.7-.8.7ZM268.1 162.27c-.44 0-.8-.31-.8-.7 0-.38.36-.7.8-.7.43 0 .78.31.78.7 0 .39-.35.7-.79.7ZM276.92 169.7c-.44 0-.8-.32-.8-.7 0-.4.36-.7.8-.7.43 0 .79.3.79.7 0 .38-.35.7-.8.7ZM286.13 176.73c.43 0 .79-.31.79-.7 0-.38-.36-.7-.8-.7-.43 0-.78.32-.78.7 0 .39.35.7.79.7ZM295.71 183.37c-.43 0-.79-.31-.79-.7 0-.39.36-.7.8-.7.43 0 .79.31.79.7 0 .38-.36.7-.8.7ZM305.67 189.56c-.44 0-.8-.3-.8-.7 0-.38.36-.7.8-.7.44 0 .79.32.79.7 0 .4-.36.7-.8.7ZM315.97 195.3c-.44 0-.8-.31-.8-.7 0-.4.36-.7.8-.7.44 0 .8.3.8.7 0 .39-.36.7-.8.7ZM175 8.1c-.39 0-.7-.29-.7-.63 0-.35.31-.63.7-.63.4 0 .7.28.7.63 0 .34-.3.62-.7.62ZM180.15 17.64c-.4 0-.7-.28-.7-.62 0-.35.3-.62.7-.62.38 0 .7.27.7.62 0 .34-.32.62-.7.62ZM185.32 27.18c-.38 0-.7-.28-.7-.63 0-.34.31-.62.7-.62.4 0 .7.28.7.62 0 .35-.3.63-.7.63ZM190.56 36.69c-.38 0-.7-.28-.7-.63 0-.34.31-.62.7-.62.4 0 .7.28.7.62 0 .35-.3.63-.7.63ZM195.89 46.16c-.4 0-.7-.28-.7-.62 0-.35.3-.63.7-.63.39 0 .7.28.7.63 0 .34-.31.62-.7.62ZM201.32 55.59c-.4 0-.7-.28-.7-.63 0-.34.3-.62.7-.62.39 0 .7.28.7.62 0 .35-.31.63-.7.63ZM206.88 64.95c-.4 0-.7-.28-.7-.62 0-.35.3-.63.7-.63.39 0 .7.28.7.63 0 .34-.31.62-.7.62ZM212.6 74.25c-.4 0-.71-.28-.71-.63 0-.34.31-.62.7-.62.4 0 .7.28.7.62.01.35-.3.63-.7.63ZM218.49 83.45c.38 0 .7-.28.7-.62 0-.35-.31-.63-.7-.63-.4 0-.71.28-.71.63 0 .34.31.62.7.62ZM224.58 92.55c-.39 0-.7-.28-.7-.62 0-.35.31-.63.7-.63.4 0 .71.28.71.63 0 .34-.32.62-.7.62ZM230.9 101.53c-.39 0-.7-.28-.7-.63 0-.34.32-.63.7-.63.4 0 .71.29.71.63 0 .35-.31.63-.7.63ZM237.48 110.36c-.39 0-.7-.28-.7-.62 0-.35.31-.63.7-.63.4 0 .71.28.71.63 0 .34-.32.62-.7.62ZM244.33 119.03c-.39 0-.7-.28-.7-.63 0-.34.31-.62.7-.62.4 0 .71.28.71.62 0 .35-.31.63-.7.63ZM251.48 127.5c-.4 0-.71-.28-.71-.62 0-.35.32-.63.7-.63.4 0 .72.28.72.63 0 .34-.32.63-.71.63ZM258.95 135.76c-.4 0-.71-.28-.71-.62 0-.35.32-.63.7-.63.4 0 .72.28.72.63 0 .34-.32.63-.71.63ZM266.75 143.78c.39 0 .7-.28.7-.63s-.31-.63-.7-.63c-.4 0-.71.28-.71.63 0 .34.32.63.7.63ZM274.9 151.51c-.4 0-.7-.28-.7-.63s.3-.63.7-.63c.4 0 .71.28.71.63s-.31.63-.7.63ZM283.41 158.93c-.39 0-.7-.28-.7-.63 0-.34.31-.63.7-.63.4 0 .71.29.71.63 0 .35-.31.63-.7.63ZM292.29 166.01c-.4 0-.71-.28-.71-.63 0-.34.32-.62.7-.62.4 0 .72.28.72.63 0 .34-.32.63-.71.63ZM301.52 172.72c-.39 0-.7-.28-.7-.63 0-.34.31-.63.7-.63.4 0 .72.28.72.63s-.32.63-.72.63ZM311.12 179.03c.39 0 .7-.28.7-.63s-.31-.63-.7-.63c-.4 0-.72.28-.72.63s.32.63.72.63ZM188.75 8.79c-.35 0-.63-.25-.63-.56 0-.3.28-.55.63-.55s.63.25.63.55c0 .31-.28.56-.63.56ZM193.88 18.13c-.35 0-.63-.25-.63-.56 0-.3.28-.55.63-.55.34 0 .62.25.62.55 0 .31-.28.56-.62.56ZM199.06 27.45c-.35 0-.63-.25-.63-.56 0-.3.28-.55.63-.55s.63.24.63.55c0 .3-.28.56-.63.56ZM204.32 36.73c-.35 0-.63-.25-.63-.56 0-.3.28-.55.63-.55s.63.24.63.55c0 .31-.28.56-.63.56ZM209.68 45.97c-.35 0-.63-.25-.63-.56 0-.3.28-.56.63-.56.34 0 .63.25.63.56 0 .3-.29.56-.63.56ZM215.16 55.15c-.35 0-.63-.25-.63-.56 0-.3.28-.55.63-.55.34 0 .62.25.62.55 0 .31-.28.56-.62.56ZM220.77 64.27c-.34 0-.63-.25-.63-.56 0-.3.29-.56.63-.56.35 0 .63.25.63.56 0 .3-.28.56-.63.56ZM226.56 73.3c-.35 0-.63-.25-.63-.56 0-.3.28-.55.63-.55.34 0 .63.25.63.55 0 .31-.28.56-.63.56ZM232.53 82.24c-.35 0-.63-.25-.63-.56 0-.3.28-.56.63-.56.34 0 .63.25.63.56 0 .3-.28.56-.63.56ZM238.7 91.06c-.34 0-.62-.25-.62-.55 0-.31.28-.56.63-.56.34 0 .63.25.63.56 0 .3-.28.55-.63.55ZM245.12 99.76c-.35 0-.63-.25-.63-.56 0-.3.28-.56.63-.56s.63.25.63.56c0 .31-.28.56-.63.56ZM251.78 108.3c-.34 0-.63-.25-.63-.55 0-.31.29-.56.63-.56.35 0 .63.25.63.56 0 .3-.28.55-.63.55ZM258.72 116.67c-.34 0-.63-.25-.63-.56 0-.3.29-.55.63-.55.35 0 .63.25.63.55 0 .31-.28.56-.63.56ZM265.95 124.84c-.35 0-.63-.25-.63-.56 0-.3.28-.55.63-.55s.63.25.63.55c0 .31-.28.56-.63.56ZM273.5 132.8c-.35 0-.63-.26-.63-.57 0-.3.28-.55.63-.55.34 0 .63.25.63.55 0 .31-.29.56-.63.56ZM281.37 140.5c-.35 0-.64-.26-.64-.57 0-.3.29-.56.63-.56.35 0 .63.25.63.56 0 .31-.28.56-.63.56ZM289.57 147.9c-.35 0-.63-.24-.63-.55 0-.3.28-.56.63-.56s.63.25.63.56c0 .3-.28.56-.63.56ZM298.12 155.02c-.35 0-.64-.25-.64-.56 0-.31.29-.56.64-.56.34 0 .63.25.63.56 0 .3-.29.56-.63.56ZM307 161.78c.36 0 .64-.25.64-.55 0-.31-.28-.56-.63-.56s-.63.25-.63.56c0 .3.28.56.63.56ZM316.24 168.19c-.35 0-.63-.25-.63-.56 0-.31.28-.56.63-.56s.63.25.63.56c0 .3-.28.56-.63.56ZM202.33 8.59c-.3 0-.55-.22-.55-.49s.25-.49.55-.49c.3 0 .55.22.55.49s-.25.49-.55.49ZM207.45 17.71c-.3 0-.55-.22-.55-.49 0-.26.25-.48.55-.48.3 0 .55.22.55.48 0 .27-.25.5-.55.5ZM212.65 26.8c-.3 0-.55-.21-.55-.48s.24-.49.55-.49c.3 0 .54.22.54.49s-.24.48-.54.48ZM217.93 35.86c-.3 0-.55-.22-.55-.49s.24-.49.55-.49c.3 0 .55.22.55.49s-.25.49-.55.49ZM223.32 44.86c-.3 0-.55-.22-.55-.49s.24-.48.55-.48c.3 0 .55.21.55.48s-.25.49-.55.49ZM228.84 53.8c.3 0 .55-.22.55-.49s-.25-.48-.55-.48c-.3 0-.55.21-.55.48s.24.49.55.49ZM234.5 62.67c-.3 0-.54-.22-.54-.5 0-.26.24-.48.55-.48.3 0 .55.22.55.49s-.25.49-.55.49ZM240.34 71.44c-.3 0-.55-.21-.55-.48s.25-.5.56-.5c.3 0 .55.23.55.5s-.25.48-.56.48ZM246.38 80.12c-.3 0-.56-.22-.56-.49s.25-.48.56-.48c.3 0 .55.21.55.48s-.25.5-.56.5ZM252.62 88.68c-.3 0-.55-.22-.55-.49s.24-.48.55-.48c.3 0 .55.21.55.48s-.25.5-.55.5ZM259.09 97.1c-.3 0-.55-.21-.55-.48s.25-.5.55-.5c.3 0 .55.23.55.5s-.25.48-.55.48ZM265.81 105.37c-.3 0-.55-.22-.55-.49s.25-.48.55-.48c.3 0 .55.21.55.48s-.24.5-.55.5ZM272.8 113.46c-.3 0-.55-.22-.55-.49s.25-.49.55-.49c.3 0 .56.22.56.5 0 .26-.25.48-.56.48ZM280.08 121.35c-.3 0-.55-.22-.55-.49s.25-.49.55-.49c.3 0 .55.22.55.5 0 .26-.24.48-.55.48ZM287.66 129.01c-.3 0-.55-.22-.55-.48 0-.28.25-.5.55-.5.3 0 .55.23.55.5 0 .26-.25.48-.55.48ZM295.55 136.43c.3 0 .55-.22.55-.5 0-.26-.24-.48-.55-.48-.3 0-.55.22-.55.49s.25.49.55.49ZM303.76 143.56c-.3 0-.55-.22-.55-.49 0-.26.25-.48.55-.48.3 0 .55.22.55.48 0 .27-.24.5-.55.5ZM312.3 150.4c-.3 0-.55-.23-.55-.5s.25-.48.55-.48c.3 0 .55.21.55.48s-.25.5-.55.5ZM527 269.1c-.18-.17-.16-.43.03-.59.2-.15.5-.13.67.05.17.16.15.43-.05.58-.08.07-.2.1-.3.1a.48.48 0 0 1-.35-.13Zm-7.56-7.42a.38.38 0 0 1 .03-.58.52.52 0 0 1 .67.02c.16.17.16.44-.03.59a.5.5 0 0 1-.32.1.48.48 0 0 1-.35-.13Zm-7.75-7.25a.39.39 0 0 1 .02-.6.5.5 0 0 1 .66.02c.19.16.18.43 0 .59a.52.52 0 0 1-.68-.01Zm-7.93-7.1a.37.37 0 0 1 0-.58.5.5 0 0 1 .66 0c.19.15.19.42 0 .59a.51.51 0 0 1-.66 0Zm-8.13-6.9c-.19-.17-.2-.43-.02-.6a.5.5 0 0 1 .66-.02c.19.16.2.43.02.6a.5.5 0 0 1-.34.12.5.5 0 0 1-.32-.1Zm-8.33-6.73c-.2-.16-.22-.42-.05-.6.18-.17.47-.18.67-.02.2.15.2.41.04.58a.5.5 0 0 1-.66.04Zm-8.54-6.53c-.2-.15-.22-.4-.05-.58a.5.5 0 0 1 .66-.05c.2.14.22.4.05.58-.1.1-.22.15-.36.15a.5.5 0 0 1-.3-.1Zm-8.74-6.3a.38.38 0 0 1-.07-.59c.16-.18.45-.2.66-.06.2.14.23.4.07.58-.1.1-.23.16-.37.16-.1 0-.2-.03-.29-.1Zm-8.94-6.07c-.21-.14-.26-.4-.1-.58a.5.5 0 0 1 .66-.08c.2.13.24.39.1.57a.48.48 0 0 1-.38.18c-.1 0-.2-.04-.29-.09ZM451.9 209c-.2-.13-.26-.4-.11-.58a.5.5 0 0 1 .64-.1c.22.12.28.39.13.57a.49.49 0 0 1-.39.19.54.54 0 0 1-.27-.08Zm-9.37-5.53c-.22-.13-.28-.38-.14-.58a.5.5 0 0 1 .65-.12c.21.12.28.38.14.58a.48.48 0 0 1-.4.19.57.57 0 0 1-.25-.07Zm-9.6-5.22v-.01c-.22-.12-.3-.37-.17-.57.13-.2.43-.26.65-.15.23.12.3.38.17.58a.5.5 0 0 1-.41.2.61.61 0 0 1-.24-.05Zm-9.81-4.9c-.23-.1-.32-.36-.2-.56.12-.2.41-.28.64-.17.23.1.32.36.2.56-.09.15-.26.22-.43.22a.46.46 0 0 1-.21-.05Zm-10.04-4.51c-.24-.1-.33-.35-.22-.56.1-.2.39-.3.62-.2.24.1.34.36.23.57a.49.49 0 0 1-.43.23c-.07 0-.14-.01-.2-.04Zm-10.26-4.1c-.24-.1-.35-.34-.25-.56.1-.2.38-.3.62-.21.23.09.35.33.24.54a.46.46 0 0 1-.43.25c-.06 0-.12 0-.18-.03Zm-10.45-3.75c-.24-.08-.36-.32-.26-.54a.5.5 0 0 1 .62-.22c.23.09.34.33.25.54a.49.49 0 0 1-.61.22Zm-10.36-4c-.23-.1-.34-.34-.22-.55.1-.2.38-.3.62-.2.23.1.33.34.23.55a.5.5 0 0 1-.43.25.58.58 0 0 1-.2-.05Zm-10.13-4.4c-.23-.11-.32-.36-.2-.56.12-.2.4-.28.63-.19.23.11.32.36.2.57a.5.5 0 0 1-.42.23.5.5 0 0 1-.21-.05Zm-9.9-4.8c-.22-.12-.3-.37-.16-.57.12-.2.41-.27.64-.15.22.11.3.36.17.56a.48.48 0 0 1-.4.21.57.57 0 0 1-.24-.05Zm-9.63-5.2a.39.39 0 0 1-.14-.57.5.5 0 0 1 .65-.13c.22.13.28.39.14.58a.48.48 0 0 1-.4.19.47.47 0 0 1-.25-.07Zm-9.36-5.56c-.2-.13-.26-.4-.11-.58a.52.52 0 0 1 .66-.1c.2.13.26.39.1.58a.49.49 0 0 1-.38.18.54.54 0 0 1-.27-.08Zm-9.07-5.93c-.2-.14-.24-.4-.08-.6.16-.17.45-.2.65-.06.21.13.25.4.09.58a.52.52 0 0 1-.66.08Zm-8.78-6.28a.39.39 0 0 1-.06-.58c.17-.18.48-.2.67-.05.2.15.23.4.06.58a.5.5 0 0 1-.37.15c-.1 0-.2-.03-.3-.1Zm-8.47-6.59c-.19-.16-.2-.42-.03-.59a.5.5 0 0 1 .66-.03c.2.16.2.42.03.59a.47.47 0 0 1-.34.14.5.5 0 0 1-.32-.1Zm-8.17-6.9a.38.38 0 0 1 0-.58.52.52 0 0 1 .66 0c.19.16.19.42 0 .59a.47.47 0 0 1-.33.12.47.47 0 0 1-.33-.12Zm-7.84-7.13a.39.39 0 0 1 .02-.6.5.5 0 0 1 .66.03c.19.17.17.43-.02.58a.5.5 0 0 1-.32.12.46.46 0 0 1-.34-.13Zm-7.56-7.4a.38.38 0 0 1 .04-.59.5.5 0 0 1 .66.04c.17.17.15.44-.05.59a.5.5 0 0 1-.3.1.48.48 0 0 1-.35-.15Zm-7.3-7.64a.4.4 0 0 1 .07-.6c.2-.14.5-.11.66.06.16.19.14.45-.07.6a.52.52 0 0 1-.3.09.5.5 0 0 1-.36-.15Zm-7.03-7.87c-.16-.18-.12-.44.09-.58.2-.14.5-.1.65.08.16.18.13.44-.08.59a.57.57 0 0 1-.28.08.5.5 0 0 1-.38-.17Zm-6.75-8a.4.4 0 0 1 .1-.59c.22-.13.51-.1.66.1.15.18.1.44-.1.58a.48.48 0 0 1-.27.08.51.51 0 0 1-.39-.18Zm-6.5-8.18c-.15-.19-.1-.45.12-.58a.5.5 0 0 1 .66.1c.14.2.08.46-.13.6a.52.52 0 0 1-.27.06.49.49 0 0 1-.38-.18Zm-6.28-8.3c-.14-.2-.08-.46.14-.58a.5.5 0 0 1 .65.11c.14.2.08.45-.14.58a.5.5 0 0 1-.65-.12Zm-6.07-8.45c-.14-.19-.07-.45.15-.57.22-.12.51-.06.65.13a.4.4 0 0 1-.15.58.57.57 0 0 1-.25.06.48.48 0 0 1-.4-.2Zm-5.87-8.53c-.14-.2-.07-.45.16-.58a.5.5 0 0 1 .64.15c.13.2.06.45-.16.57a.5.5 0 0 1-.25.06.45.45 0 0 1-.39-.2Zm-5.7-8.63c-.14-.2-.06-.46.16-.58.23-.1.51-.04.64.16s.06.45-.17.57a.49.49 0 0 1-.23.06.48.48 0 0 1-.4-.21Zm-5.56-8.71a.4.4 0 0 1 .18-.57c.23-.1.51-.04.64.17.13.19.04.45-.18.56a.5.5 0 0 1-.64-.16Zm-5.42-8.78c-.12-.2-.03-.45.2-.56a.5.5 0 0 1 .63.17c.12.2.04.46-.19.56a.56.56 0 0 1-.22.05.48.48 0 0 1-.42-.22Zm-5.3-8.83c-.12-.2-.03-.46.2-.56.23-.1.52-.03.64.18.11.2.03.45-.2.56a.56.56 0 0 1-.22.05.48.48 0 0 1-.42-.23Zm-5.2-8.88c-.12-.2-.02-.45.2-.56a.5.5 0 0 1 .64.19c.11.2.03.45-.2.56a.48.48 0 0 1-.22.04.48.48 0 0 1-.42-.23Zm-5.12-8.9c-.12-.22-.03-.47.2-.57.24-.1.52-.02.64.19.12.2.03.46-.21.56a.48.48 0 0 1-.2.05.47.47 0 0 1-.43-.24ZM319.56 9.55c-.53 0-.96-.39-.96-.86s.43-.85.96-.85.96.38.96.85-.43.86-.96.86ZM316.06 23.08c.11-.42-.18-.84-.65-.94-.48-.1-.95.16-1.06.58-.12.42.18.84.65.94.48.1.95-.16 1.06-.58ZM307.95 14.77c-.48 0-.88-.35-.88-.78 0-.43.4-.78.88-.78.49 0 .88.35.88.78 0 .43-.39.78-.88.78ZM301.79 4.96c0-.43-.38-.78-.87-.79-.48 0-.88.34-.89.77 0 .43.38.78.87.79.48 0 .88-.34.89-.77ZM318.6 46.62c-.44 0-.8-.32-.8-.7 0-.4.36-.72.8-.72.44 0 .8.32.8.71 0 .4-.36.71-.8.71ZM311.15 38.1c.45 0 .8-.32.8-.71 0-.4-.35-.71-.8-.71-.44 0-.8.32-.8.7 0 .4.36.72.8.72ZM303.92 29.44c-.44 0-.8-.32-.8-.71 0-.4.36-.7.8-.7.44 0 .8.3.8.7 0 .39-.36.7-.8.7ZM296.9 20.64c-.45 0-.8-.32-.8-.7 0-.4.35-.71.8-.71.43 0 .8.31.8.7 0 .4-.37.71-.8.71ZM290.07 11.72c-.44 0-.8-.32-.8-.7 0-.4.36-.71.8-.71.44 0 .8.31.8.7 0 .4-.36.71-.8.71ZM283.45 2.68c.44 0 .8-.32.8-.7 0-.4-.36-.71-.8-.71-.44 0-.8.31-.8.7 0 .4.36.71.8.71ZM314.89 61.1c-.4 0-.72-.28-.72-.64 0-.35.32-.63.72-.63.4 0 .72.28.72.63 0 .36-.32.64-.72.64ZM307.45 52.83c-.4 0-.72-.29-.72-.64 0-.35.32-.64.72-.64.4 0 .72.29.72.64 0 .35-.32.64-.72.64ZM300.21 44.4c-.4 0-.71-.28-.71-.63s.32-.63.71-.63c.4 0 .72.28.72.63s-.32.64-.72.64ZM293.18 35.85c-.4 0-.72-.28-.72-.63s.33-.64.72-.64c.4 0 .72.29.72.64 0 .35-.32.63-.72.63ZM286.36 27.17c-.4 0-.72-.28-.72-.63s.32-.64.72-.64c.4 0 .71.29.71.64 0 .35-.32.63-.71.63ZM279.73 18.37c-.4 0-.72-.28-.72-.63s.32-.64.72-.64c.4 0 .71.29.71.64 0 .35-.32.63-.71.63ZM273.3 9.46c.4 0 .71-.29.71-.64 0-.35-.32-.63-.71-.63-.4 0-.72.28-.72.63s.32.64.72.64ZM319.3 83.62c-.35 0-.63-.25-.63-.56 0-.31.28-.57.63-.57s.64.26.64.57c0 .3-.29.56-.64.56ZM311.64 75.76c-.35 0-.64-.25-.64-.56 0-.31.29-.57.64-.57.35 0 .64.26.64.57 0 .3-.29.56-.64.56ZM304.19 67.75c-.35 0-.64-.26-.64-.57 0-.31.29-.56.64-.56.35 0 .63.25.63.56 0 .31-.28.57-.63.57ZM296.94 59.58c-.35 0-.63-.25-.63-.56 0-.31.28-.56.63-.56.36 0 .64.25.64.56 0 .31-.28.56-.64.56ZM289.9 51.28c-.35 0-.63-.25-.63-.56 0-.31.28-.57.63-.57s.64.26.64.57c0 .3-.29.56-.64.56ZM283.06 42.85c.35 0 .63-.25.63-.57 0-.3-.28-.56-.63-.56s-.64.25-.64.56c0 .32.29.57.64.57ZM276.41 34.3c-.35 0-.63-.26-.63-.57 0-.31.28-.56.63-.56s.64.25.64.56c0 .3-.29.56-.64.56ZM269.97 25.62c.35 0 .63-.25.63-.56 0-.31-.28-.56-.63-.56s-.64.25-.64.56c0 .31.29.56.64.56ZM263.71 16.84c-.35 0-.63-.25-.63-.56 0-.31.28-.56.63-.56s.64.25.64.56c0 .3-.29.56-.64.56ZM257.65 7.95c-.35 0-.63-.25-.63-.56 0-.3.28-.56.63-.56s.63.25.63.56c0 .31-.28.56-.63.56ZM316.38 98.33c-.3 0-.55-.22-.55-.49s.25-.49.55-.49c.3 0 .56.22.56.5 0 .26-.25.48-.56.48ZM308.69 90.76c-.3 0-.55-.22-.55-.49s.24-.49.55-.49c.3 0 .55.22.55.5 0 .26-.25.48-.55.48ZM301.2 83.03c-.3 0-.55-.22-.55-.5 0-.26.25-.48.56-.48.3 0 .55.22.55.49s-.25.49-.56.49ZM293.93 75.13c-.3 0-.55-.21-.55-.49 0-.27.25-.49.55-.49.3 0 .55.22.55.5 0 .27-.24.48-.55.48ZM286.86 67.1c-.3 0-.55-.22-.55-.5 0-.26.25-.48.55-.48.3 0 .55.22.55.49s-.24.49-.55.49ZM279.99 58.93c-.3 0-.55-.22-.55-.5 0-.26.25-.48.55-.48.3 0 .55.22.55.49s-.24.49-.55.49ZM273.31 50.63c-.3 0-.55-.22-.55-.49s.25-.49.55-.49c.31 0 .56.22.56.5 0 .26-.25.48-.56.48ZM266.83 42.21c-.3 0-.55-.21-.55-.49 0-.27.25-.49.55-.49.31 0 .56.22.56.5 0 .27-.25.48-.56.48ZM260.54 33.68c-.3 0-.55-.21-.55-.49 0-.27.25-.48.55-.48.3 0 .55.21.55.48 0 .28-.24.5-.55.5ZM254.44 25.05c-.3 0-.55-.22-.55-.49s.25-.49.55-.49c.3 0 .55.22.55.5 0 .26-.24.48-.55.48ZM248.53 16.31c.3 0 .55-.21.55-.49 0-.27-.25-.48-.55-.48-.3 0-.55.21-.55.48 0 .28.24.5.55.5ZM242.8 7.48c-.3 0-.55-.22-.55-.49s.25-.49.56-.49c.3 0 .55.22.55.49s-.25.49-.56.49ZM515.4 268.3c-.13-.2-.06-.45.16-.57.22-.12.51-.05.65.14a.4.4 0 0 1-.17.58.5.5 0 0 1-.24.06.48.48 0 0 1-.4-.2Zm-5.94-8.48c-.14-.2-.07-.45.15-.58a.5.5 0 0 1 .64.14c.15.19.08.45-.14.57a.54.54 0 0 1-.25.06.48.48 0 0 1-.4-.2Zm-6.18-8.34c-.14-.19-.08-.45.13-.57.22-.13.51-.09.65.1.15.2.1.46-.12.58a.51.51 0 0 1-.66-.1Zm-6.45-8.18c-.15-.18-.1-.45.11-.58.21-.13.5-.09.65.1.15.18.1.44-.1.58a.47.47 0 0 1-.27.08.48.48 0 0 1-.39-.18Zm-6.73-8c-.16-.17-.12-.43.09-.58.2-.13.5-.1.65.08.16.18.13.45-.08.58a.5.5 0 0 1-.66-.07Zm-7.03-7.77c-.17-.18-.13-.44.07-.58a.5.5 0 0 1 .65.05c.17.17.14.44-.05.59-.1.06-.2.09-.31.09a.5.5 0 0 1-.36-.15Zm-7.37-7.57a.39.39 0 0 1 .04-.6.52.52 0 0 1 .67.04.4.4 0 0 1-.04.6c-.1.06-.2.1-.32.1a.5.5 0 0 1-.35-.14Zm-7.67-7.29a.38.38 0 0 1 0-.6.5.5 0 0 1 .67.02c.18.16.18.42-.01.59-.1.07-.2.12-.33.12a.47.47 0 0 1-.33-.13Zm-7.99-6.98a.38.38 0 0 1-.02-.59.52.52 0 0 1 .67-.02.4.4 0 0 1 .02.6.52.52 0 0 1-.35.13.52.52 0 0 1-.32-.12Zm-8.34-6.67a.38.38 0 0 1-.05-.58.5.5 0 0 1 .66-.05c.2.15.22.42.06.59-.1.1-.23.14-.36.14a.5.5 0 0 1-.3-.1Zm-8.67-6.32c-.21-.14-.25-.4-.08-.58.15-.19.45-.22.66-.08.2.14.23.41.07.59-.1.1-.22.16-.36.16-.1 0-.2-.03-.3-.09Zm-9-5.95c-.22-.13-.27-.39-.12-.57.15-.2.44-.24.66-.1.2.12.26.39.1.57a.49.49 0 0 1-.38.18.53.53 0 0 1-.27-.08Zm-9.33-5.54a.39.39 0 0 1-.14-.58.5.5 0 0 1 .64-.12c.22.12.29.38.15.57a.47.47 0 0 1-.4.2.48.48 0 0 1-.25-.07Zm-9.63-5.13c-.22-.11-.3-.37-.18-.56.12-.2.42-.28.64-.16.23.1.3.37.18.57a.48.48 0 0 1-.41.2.52.52 0 0 1-.23-.05Zm-9.93-4.7c-.22-.1-.31-.34-.2-.55.11-.2.4-.28.63-.18.23.1.33.35.2.55-.07.15-.24.24-.41.24a.52.52 0 0 1-.22-.05Zm-10.18-4.27c-.23-.1-.32-.35-.22-.55.11-.21.4-.3.63-.2.23.1.34.35.22.55a.48.48 0 0 1-.42.24.6.6 0 0 1-.2-.04Zm-10.07-4.53c-.23-.1-.31-.36-.2-.56.13-.2.41-.28.65-.17.23.1.3.37.19.57a.48.48 0 0 1-.42.21.52.52 0 0 1-.22-.05Zm-9.8-4.99c-.22-.12-.29-.38-.16-.57.13-.2.43-.26.65-.14.22.12.3.37.16.57a.5.5 0 0 1-.4.2.5.5 0 0 1-.25-.06Zm-9.51-5.4a.38.38 0 0 1-.13-.58c.14-.19.44-.24.65-.11.21.12.27.39.13.57a.5.5 0 0 1-.65.12Zm-9.25-5.76a.38.38 0 0 1-.1-.59.5.5 0 0 1 .66-.08c.2.13.26.4.1.58a.51.51 0 0 1-.67.09Zm-8.97-6.08c-.2-.15-.23-.41-.07-.6.16-.17.46-.2.65-.06.21.15.24.4.08.58-.1.11-.23.16-.37.16a.5.5 0 0 1-.29-.08Zm-8.71-6.38c-.2-.15-.23-.41-.06-.59.17-.17.47-.19.67-.04.2.14.22.41.05.59-.1.1-.23.14-.36.14a.5.5 0 0 1-.3-.1Zm-8.47-6.62c-.19-.16-.2-.43-.03-.6a.5.5 0 0 1 .67-.02c.19.16.2.42.03.6a.54.54 0 0 1-.35.12.57.57 0 0 1-.32-.1Zm-8.23-6.87a.39.39 0 0 1 0-.59.52.52 0 0 1 .66 0c.2.15.2.42.01.58a.52.52 0 0 1-.67 0Zm-7.99-7.07a.38.38 0 0 1 .01-.59.52.52 0 0 1 .67 0c.18.18.17.43-.02.6a.46.46 0 0 1-.32.12.5.5 0 0 1-.34-.13Zm-7.77-7.27a.38.38 0 0 1 .03-.58c.2-.16.49-.15.67.02a.4.4 0 0 1-.03.59.5.5 0 0 1-.32.1.5.5 0 0 1-.35-.13Zm-7.55-7.44a.39.39 0 0 1 .05-.59.5.5 0 0 1 .66.04c.17.17.15.44-.05.59a.5.5 0 0 1-.3.1.52.52 0 0 1-.36-.14Zm-7.34-7.6a.38.38 0 0 1 .07-.6.5.5 0 0 1 .65.06c.17.17.15.44-.05.58a.52.52 0 0 1-.67-.05Zm-7.13-7.76a.4.4 0 0 1 .07-.6c.2-.14.5-.1.66.07.17.19.13.44-.07.6-.09.05-.2.08-.3.08a.51.51 0 0 1-.36-.15Zm-6.93-7.9c-.16-.19-.12-.45.08-.59.2-.14.5-.1.66.08.16.19.12.44-.08.59a.59.59 0 0 1-.3.08.46.46 0 0 1-.36-.17Zm-6.74-8.03a.4.4 0 0 1 .1-.59c.2-.13.51-.09.66.1a.4.4 0 0 1-.1.58.53.53 0 0 1-.66-.1Zm-6.54-8.17c-.15-.18-.1-.45.1-.57.23-.13.52-.08.67.1.15.19.09.45-.12.58a.54.54 0 0 1-.27.08.5.5 0 0 1-.38-.19Zm-6.36-8.27c-.14-.19-.08-.45.13-.57.22-.13.51-.08.65.12.15.19.09.44-.13.57a.46.46 0 0 1-.25.07.47.47 0 0 1-.4-.19Zm-6.17-8.38a.39.39 0 0 1 .15-.57c.22-.13.51-.08.64.12.15.2.08.45-.14.58a.51.51 0 0 1-.25.07.52.52 0 0 1-.4-.2Zm-5.97-8.5c-.14-.18-.07-.44.15-.56.22-.12.51-.06.64.14a.4.4 0 0 1-.15.57.55.55 0 0 1-.24.06c-.16 0-.32-.07-.4-.2Zm-5.8-8.57c-.13-.2-.06-.46.17-.57a.5.5 0 0 1 .63.15c.14.2.06.45-.16.56a.44.44 0 0 1-.24.06.49.49 0 0 1-.4-.2Zm-5.62-8.69c-.13-.2-.04-.45.18-.56.23-.12.52-.04.64.16.13.2.05.45-.18.56a.5.5 0 0 1-.64-.16Zm-5.43-8.77c-.12-.2-.04-.45.2-.56.22-.11.5-.04.63.17.12.2.04.45-.19.56a.56.56 0 0 1-.22.05.47.47 0 0 1-.42-.22Z"/></svg>