<svg width="190" height="36" viewBox="0 0 190 36" xmlns="http://www.w3.org/2000/svg">
<path fill-rule="evenodd" clip-rule="evenodd" d="M17.5891 14.7845H60.0104C60.0447 14.7006 60.1047 14.6166 60.1818 14.5578C76.4594 1.91418 85.7426 6.91791 94.6314 12.9879C103.092 6.5653 110.926 0.646456 131.044 14.7845H172.145C172.231 14.7845 172.308 14.8013 172.385 14.8265L172.994 13.9869L175.248 15.0951L176.825 12.9291L179.92 14.4487L182.097 11.4515L190.009 15.3386L182.191 19.5868L179.868 16.4888L176.877 18.1091L175.197 15.8759L173.028 17.0513L172.402 16.2118C172.325 16.2369 172.239 16.2537 172.154 16.2537H116.044C115.761 17.0009 115.272 17.6894 114.612 18.2771C113.806 18.9991 112.743 19.5784 111.483 19.9478C110.712 20.1744 109.863 20.3172 108.955 20.3675C109.718 20.8041 110.258 21.4086 110.575 22.0802C110.875 22.7099 110.978 23.3815 110.892 24.0448C110.806 24.708 110.532 25.3461 110.078 25.9002C109.092 27.1007 107.249 27.8563 104.635 27.3694C103.04 27.0756 100.914 25.833 98.4973 24.1623C98.0772 24.5485 97.6744 24.9683 97.3144 25.3965C96.6715 26.1521 96.1143 26.958 95.6686 27.7724C95.7457 27.9235 95.8143 28.0746 95.8829 28.2341C96.44 29.5019 96.7658 30.7696 96.8086 31.9114C96.8601 33.3302 96.4915 34.5728 95.6172 35.4459C95.5915 35.5466 95.54 35.6474 95.4629 35.7397C95.1972 36.0504 94.7257 36.0924 94.4086 35.8321C93.2942 34.917 92.8228 33.5149 92.8828 31.903C92.9257 30.736 93.2514 29.4431 93.8257 28.1586C93.9371 27.8983 94.0657 27.6381 94.2028 27.3778C93.7828 26.6558 93.2771 25.9506 92.7114 25.2789C92.3085 24.8088 91.8713 24.3554 91.3999 23.9272C88.957 25.6315 86.8055 26.8993 85.2111 27.1931C82.6739 27.6632 80.891 26.9328 79.9481 25.7826C79.5195 25.2537 79.2538 24.6493 79.1767 24.0196C79.0995 23.3899 79.1938 22.7435 79.4767 22.1474C79.7767 21.5261 80.2738 20.9552 80.9767 20.5354C80.0338 20.4935 79.151 20.3424 78.3452 20.1073C77.0595 19.7379 75.9709 19.1418 75.1394 18.3946C74.4365 17.7649 73.9222 17.0345 73.6394 16.2369H17.572L16.9719 17.0345L14.8033 15.8591L13.1318 18.0924L10.1403 16.472L7.81738 19.57L0 15.3386L7.91167 11.4515L10.0889 14.4487L13.1833 12.9291L14.7519 15.0951L17.0062 13.9869L17.5891 14.7845ZM98.7716 7.74067L94.8029 0L90.4656 7.65672L94.6143 10.6371L98.763 7.74067H98.7716ZM95.9086 13.861L96.32 14.1465C96.6201 14.3563 96.9286 14.5662 97.2372 14.7761H101.926C107.249 11.0737 112.212 8.55504 114.741 11.2332C115.829 12.3834 116.318 13.6091 116.309 14.7761H128.455C110.798 2.98881 103.537 8.07649 95.9086 13.861ZM104.146 19.7463C102.715 19.3265 101.214 18.6716 99.6973 17.7397C98.6858 18.4869 97.6744 19.2593 96.6715 20.0149L96.0029 20.5187C96.8258 21.1399 97.6315 21.736 98.4115 22.2901C100.057 21.0056 102.012 20.0653 104.155 19.7379L104.146 19.7463ZM94.7771 21.4506C93.9371 22.0802 93.1057 22.6931 92.3085 23.2724C92.7542 23.6838 93.1657 24.1203 93.56 24.5737C94.0228 25.1194 94.4514 25.6903 94.8286 26.278C95.2229 25.6483 95.6686 25.0354 96.1743 24.4562C96.5172 24.0532 96.8858 23.667 97.2801 23.2892C96.4743 22.7099 95.6429 22.0886 94.7943 21.4506H94.7771ZM95.0514 34.3965C95.5229 33.7668 95.72 32.9104 95.6857 31.945C95.6515 31.0634 95.4286 30.0896 95.0343 29.0905C94.6314 30.0896 94.4 31.0634 94.3657 31.945C94.3314 32.9272 94.5457 33.7836 95.0514 34.3881V34.3965ZM85.7254 19.9394C87.8684 20.2752 89.8056 21.2323 91.4513 22.5336C92.2314 21.9795 93.0371 21.3834 93.86 20.7621L93.0799 20.166C92.1113 19.4356 91.1342 18.6968 90.157 17.9664C88.6484 18.8731 87.1569 19.5196 85.7254 19.931V19.9394ZM95.0857 19.847L95.9857 19.167C96.8858 18.4869 97.7944 17.7985 98.703 17.1185C98.283 16.8414 97.8544 16.5476 97.4258 16.2537H92.7199C92.3085 16.5476 91.8971 16.8414 91.477 17.1269C92.3171 17.7565 93.1571 18.3946 93.9885 19.0243C94.3571 19.3013 94.7171 19.5784 95.0857 19.8554V19.847ZM87.7998 16.2537H75.2594C75.4737 16.6399 75.7737 17.0093 76.1423 17.3368C76.8023 17.9328 77.6938 18.4114 78.7652 18.722C81.3796 19.486 85.0054 19.2006 88.8712 17.0261C88.5112 16.7659 88.1598 16.5056 87.7998 16.2537ZM94.9914 14.5746L94.7 14.7929H95.3086L94.9914 14.5746ZM73.3736 14.7929C73.3736 13.584 73.8708 12.3162 74.9937 11.1325C77.6509 8.31996 82.7854 10.9729 88.2627 14.7929H92.2399C92.7371 14.4319 93.2257 14.0625 93.7143 13.6931C85.4083 8.05131 76.6652 3.57649 61.7076 14.7929H73.3736ZM85.674 14.7929C81.4567 11.9972 77.7795 10.3265 76.0823 12.1147C75.2423 13.0047 74.8651 13.9282 74.8651 14.7929H85.674ZM99.6801 23.2052C101.797 24.6576 103.623 25.7071 104.909 25.9422C106.906 26.3116 108.243 25.8078 108.912 24.9935C109.186 24.6576 109.349 24.2715 109.4 23.8769C109.452 23.4823 109.392 23.0793 109.212 22.7015C108.809 21.8535 107.798 21.1651 106.126 21.0979C103.717 21.014 101.514 21.8619 99.6716 23.1968L99.6801 23.2052ZM103.872 14.7929H115.195C115.195 13.8862 114.801 12.9207 113.926 11.9972C112.118 10.083 108.252 11.8713 103.872 14.7929ZM114.818 16.2537H101.754C101.394 16.514 101.026 16.7743 100.666 17.0429C104.677 19.3685 108.449 19.6875 111.166 18.8983C112.263 18.5793 113.181 18.084 113.858 17.4711C114.269 17.1017 114.595 16.6903 114.826 16.2537H114.818ZM99.8773 16.2537H99.3973L99.6459 16.4216L99.8687 16.2537H99.8773ZM84.9968 26.1185C86.3597 25.8666 88.2884 24.7416 90.5084 23.2052C88.597 21.7612 86.2826 20.8293 83.7368 20.9132C81.9882 20.972 80.9167 21.7108 80.4881 22.6175C80.2996 23.0205 80.231 23.4571 80.2824 23.8937C80.3339 24.3218 80.5139 24.7416 80.8139 25.1026C81.5253 25.9674 82.9311 26.5047 84.9968 26.1185Z"/>
</svg>
