<svg width="26" height="26" viewBox="0 0 26 26" xmlns="http://www.w3.org/2000/svg">
<g clip-path="url(#clip0_211_1139)">
<g clip-path="url(#clip1_211_1139)">
<path d="M13 2.34227C16.471 2.34227 16.8821 2.3556 18.253 2.418C19.5205 2.47585 20.2088 2.68775 20.6667 2.86552C21.2735 3.10147 21.7068 3.38325 22.1618 3.83792C22.6168 4.2926 22.8985 4.72582 23.1341 5.33292C23.3123 5.79117 23.5242 6.47952 23.5817 7.7467C23.6441 9.11755 23.6574 9.52868 23.6574 13C23.6574 16.4713 23.6441 16.8825 23.5817 18.2533C23.5238 19.5208 23.3123 20.2091 23.1341 20.6671C22.8985 21.2738 22.6168 21.7071 22.1618 22.1621C21.7068 22.6171 21.2738 22.8988 20.6667 23.1345C20.2085 23.3126 19.5201 23.5245 18.253 23.582C16.8825 23.6447 16.4713 23.6577 13 23.6577C9.52868 23.6577 9.11755 23.6447 7.7467 23.582C6.4792 23.5241 5.79085 23.3123 5.3326 23.1345C4.72582 22.8985 4.2926 22.6167 3.8376 22.1621C3.3826 21.7074 3.10115 21.2742 2.8652 20.6671C2.6871 20.2091 2.4752 19.5208 2.41767 18.2533C2.35527 16.8825 2.34195 16.4713 2.34195 13C2.34195 9.52868 2.35527 9.11755 2.41767 7.7467C2.47552 6.4792 2.68743 5.79085 2.8652 5.3326C3.10115 4.72582 3.3826 4.2926 3.8376 3.8376C4.2926 3.3826 4.7255 3.10083 5.3326 2.8652C5.79085 2.6871 6.4792 2.4752 7.74638 2.41767C9.11722 2.35527 9.52835 2.34195 12.9997 2.34195M13 0C9.46952 0 9.02655 0.01495 7.6401 0.078325C6.25365 0.1417 5.31147 0.361075 4.485 0.6825C3.63025 1.01465 2.90517 1.45925 2.18237 2.18205C1.45958 2.90485 1.01465 3.6296 0.6825 4.485C0.361075 5.31212 0.141375 6.2569 0.078 7.64075C0.014625 9.0246 0 9.46952 0 13C0 16.5305 0.01495 16.9734 0.078 18.3599C0.14105 19.7463 0.361075 20.6885 0.6825 21.515C1.01465 22.3697 1.45925 23.0948 2.18205 23.8176C2.90485 24.5404 3.6296 24.9853 4.485 25.3175C5.3118 25.6389 6.2569 25.8586 7.64075 25.9217C9.0246 25.9847 9.46952 26 13 26C16.5305 26 16.9734 25.9851 18.3599 25.9217C19.7463 25.8583 20.6885 25.6389 21.515 25.3175C22.3697 24.9853 23.0948 24.5407 23.8176 23.8179C24.5404 23.0951 24.9853 22.3704 25.3175 21.515C25.6389 20.6879 25.8586 19.7431 25.9217 18.3593C25.9847 16.9754 26 16.5305 26 13C26 9.46952 25.985 9.02687 25.922 7.6401C25.8589 6.25332 25.6389 5.31147 25.3175 4.485C24.9853 3.63025 24.5407 2.90517 23.8179 2.18237C23.0951 1.45958 22.3704 1.01465 21.515 0.6825C20.6882 0.361075 19.7431 0.141375 18.3593 0.078325C16.9754 0.015275 16.5305 0 13 0Z"/>
<path d="M13 6.32488C9.31324 6.32488 6.32422 9.31488 6.32422 13.0004C6.32422 16.6859 9.31422 19.6759 13 19.6759C16.6859 19.6759 19.6755 16.6859 19.6755 13.0004C19.6755 9.31488 16.6855 6.32488 13 6.32488ZM13 17.3336C12.143 17.3336 11.3052 17.0795 10.5926 16.6033C9.88004 16.1272 9.32464 15.4504 8.99667 14.6586C8.66869 13.8668 8.58288 12.9956 8.75008 12.155C8.91728 11.3144 9.32998 10.5423 9.93599 9.93632C10.542 9.33031 11.3141 8.91761 12.1547 8.75041C12.9952 8.58321 13.8665 8.66903 14.6583 8.997C15.4501 9.32497 16.1268 9.88037 16.603 10.593C17.0791 11.3056 17.3333 12.1433 17.3333 13.0004C17.3333 14.1496 16.8767 15.2518 16.0641 16.0644C15.2515 16.8771 14.1493 17.3336 13 17.3336ZM21.4994 6.06098C21.4994 6.36952 21.408 6.67113 21.2365 6.92767C21.0651 7.18421 20.8215 7.38416 20.5364 7.50223C20.2514 7.6203 19.9377 7.65119 19.6351 7.591C19.3325 7.53081 19.0545 7.38223 18.8364 7.16406C18.6182 6.94589 18.4696 6.66793 18.4094 6.36532C18.3492 6.06271 18.3801 5.74904 18.4982 5.46399C18.6163 5.17894 18.8162 4.9353 19.0728 4.76388C19.3293 4.59247 19.6309 4.50098 19.9394 4.50098C20.3532 4.50098 20.75 4.66533 21.0425 4.95789C21.3351 5.25045 21.4994 5.64724 21.4994 6.06098Z"/>
</g>
</g>
<defs>
<clipPath id="clip0_211_1139">
<rect width="26" height="26"/>
</clipPath>
<clipPath id="clip1_211_1139">
<rect width="26" height="26"/>
</clipPath>
</defs>
</svg>
