<svg width="16" height="16" viewBox="0 0 16 16" xmlns="http://www.w3.org/2000/svg">
<path fill-rule="evenodd" clip-rule="evenodd" d="M0.917969 7.99996C0.917969 4.08794 4.08929 0.916626 8.0013 0.916626C11.9133 0.916626 15.0846 4.08794 15.0846 7.99996C15.0846 11.912 11.9133 15.0833 8.0013 15.0833C4.08929 15.0833 0.917969 11.912 0.917969 7.99996ZM8.6263 3.83329C8.6263 3.48811 8.34648 3.20829 8.0013 3.20829C7.65612 3.20829 7.3763 3.48811 7.3763 3.83329V7.99996C7.3763 8.21545 7.48731 8.41575 7.67005 8.52996L10.1701 10.0925C10.4628 10.2754 10.8484 10.1864 11.0313 9.89371C11.2142 9.601 11.1253 9.2154 10.8326 9.03246L8.6263 7.65355V3.83329Z"/>
</svg>
