<svg width="39" height="31" viewBox="0 0 39 31" fill="none" xmlns="http://www.w3.org/2000/svg">
<path d="M34.5 27.2283H30.75V10.822L19.5 17.8533L8.25 10.822V27.2283H4.5V4.72827H6.75L19.5 12.697L32.25 4.72827H34.5M34.5 0.978271H4.5C2.41875 0.978271 0.75 2.64702 0.75 4.72827V27.2283C0.75 28.2228 1.14509 29.1767 1.84835 29.8799C2.55161 30.5832 3.50544 30.9783 4.5 30.9783H34.5C35.4946 30.9783 36.4484 30.5832 37.1516 29.8799C37.8549 29.1767 38.25 28.2228 38.25 27.2283V4.72827C38.25 2.64702 36.5625 0.978271 34.5 0.978271Z" fill="#6D95FC"/>
</svg>
