<svg width="20" height="21" viewBox="0 0 20 21" xmlns="http://www.w3.org/2000/svg">
<path d="M9.99 0.780029C4.53 0.780029 0.0800002 5.23003 0.0800002 10.69C0.0800002 12.44 0.54 14.14 1.4 15.64L0 20.78L5.25 19.4C6.7 20.19 8.33 20.61 9.99 20.61C15.45 20.61 19.9 16.16 19.9 10.7C19.9 8.05003 18.87 5.56003 17 3.69003C15.13 1.81003 12.64 0.780029 9.99 0.780029ZM10 2.45003C12.2 2.45003 14.26 3.31003 15.82 4.87003C17.37 6.43003 18.23 8.50003 18.23 10.7C18.23 15.24 14.53 18.93 9.99 18.93C8.51 18.93 7.06 18.54 5.8 17.78L5.5 17.61L2.38 18.43L3.21 15.39L3.01 15.07C2.19 13.78 1.75 12.25 1.75 10.69C1.76 6.15003 5.45 2.45003 10 2.45003ZM6.48 6.11003C6.32 6.11003 6.05 6.17003 5.82 6.42003C5.6 6.67003 4.95 7.28003 4.95 8.49003C4.95 9.71003 5.84 10.88 5.95 11.05C6.09 11.22 7.71 13.72 10.2 14.78C10.79 15.05 11.25 15.2 11.61 15.31C12.2 15.5 12.74 15.47 13.17 15.41C13.65 15.34 14.63 14.81 14.84 14.23C15.05 13.65 15.05 13.16 14.99 13.05C14.92 12.95 14.76 12.89 14.51 12.78C14.26 12.64 13.04 12.04 12.82 11.96C12.59 11.88 12.45 11.84 12.26 12.08C12.1 12.33 11.62 12.89 11.48 13.05C11.33 13.22 11.19 13.24 10.95 13.12C10.69 12.99 9.89 12.73 8.95 11.89C8.21 11.23 7.72 10.42 7.57 10.17C7.45 9.93003 7.56 9.78003 7.68 9.67003C7.79 9.56003 7.95 9.38003 8.05 9.23003C8.18 9.09003 8.22 8.98003 8.3 8.82003C8.38 8.65003 8.34 8.51003 8.28 8.39003C8.22 8.28003 7.72 7.04003 7.51 6.55003C7.31 6.07003 7.11 6.13003 6.95 6.12003C6.81 6.12003 6.65 6.11003 6.48 6.11003Z"/>
</svg>
