<svg width="24" height="24" viewBox="0 0 24 24" fill="none" xmlns="http://www.w3.org/2000/svg">
<g filter="url(#filter0_d_132_99890)">
<path d="M5 11.333H6V12.333H5V11.333Z" fill="white"/>
<path d="M14 17.333H15V18.333H14V17.333Z" fill="white"/>
<path d="M13 16.333H14V17.333H13V16.333Z" fill="white"/>
<path d="M11 12.333H12V13.333H11V12.333Z" fill="white"/>
<path d="M12 11.333H13V12.333H12V11.333Z" fill="white"/>
<path d="M13 10.333H14V11.333H13V10.333Z" fill="white"/>
<path d="M14 9.33301H15V10.333H14V9.33301Z" fill="white"/>
<path d="M15 8.33301H16V9.33301H15V8.33301Z" fill="white"/>
<path d="M16 7.33301H17V8.33301H16V7.33301Z" fill="white"/>
<path d="M6 10.333V11.333H8V10.333H6Z" fill="white"/>
<path d="M8 13.333V12.333H6V13.333H8Z" fill="white"/>
<path d="M11 16.333H10V14.333H11V13.333H8V14.333H9V18.333H10V17.333H11V16.333Z" fill="white"/>
<path d="M13 15.333H12V14.333H11V16.333H13V15.333Z" fill="white"/>
<path d="M16 14.333H15V17.333H16V14.333Z" fill="white"/>
<path d="M17 11.333H16V14.333H17V11.333Z" fill="white"/>
<path d="M8 9.33301V10.333H10V9.33301H8Z" fill="white"/>
<path d="M10 8.33301V9.33301H12V8.33301H10Z" fill="white"/>
<path d="M12 7.33301V8.33301H14V7.33301H12Z" fill="white"/>
<path d="M16 7.33301V6.33301H14V7.33301H16Z" fill="white"/>
<path d="M16 5.33301V6.33301H18V5.33301H16Z" fill="white"/>
<path d="M19 6.33301H18V8.33301H19V6.33301Z" fill="white"/>
<path d="M18 8.33301H17V11.333H18V8.33301Z" fill="white"/>
<path fill-rule="evenodd" clip-rule="evenodd" d="M15.75 5.08301H18.25V6.08301H19.25V8.58301H18.25V11.583H17.25V14.583H16.25V17.583H15.25V18.583H13.75V17.583H12.75V16.583H11.25V17.583H10.25V18.583H8.75V14.583H7.75V13.583H5.75V12.583H4.75V11.083H5.75V10.083H7.75V9.08301H9.75V8.08301H11.75V7.08301H13.75V6.08301H15.75V5.08301ZM15.75 6.58301H14.25V7.08301H15.75V6.58301ZM16.25 7.08301V6.58301H17.75V8.08301H17.25V7.08301H16.25ZM15.75 7.58301H14.25V8.58301H12.25V9.58301H10.25V10.583H8.25V11.583H6.25V12.083H8.25V13.083H10.75V12.083H11.75V11.083H12.75V10.083H13.75V9.08301H14.75V8.08301H15.75V7.58301ZM16.25 8.08301V7.58301H16.75V8.08301H16.25ZM15.75 8.58301H15.25V9.08301H15.75V8.58301ZM15.25 9.58301H16.25V8.58301H16.75V11.083H15.75V14.083H14.75V17.083H14.25V16.083H13.25V15.083H12.25V14.083H11.25V13.583H12.25V12.583H13.25V11.583H14.25V10.583H15.25V9.58301ZM14.75 9.58301H14.25V10.083H14.75V9.58301ZM13.75 10.583H13.25V11.083H13.75V10.583ZM12.75 11.583H12.25V12.083H12.75V11.583ZM11.75 12.583H11.25V13.083H11.75V12.583ZM10.75 13.583H8.25V14.083H9.25V18.083H9.75V17.083H10.75V16.583H9.75V14.083H10.75V13.583ZM10.75 14.583H10.25V16.083H10.75V14.583ZM11.25 16.083H12.75V15.583H11.75V14.583H11.25V16.083ZM13.25 16.583V17.083H13.75V16.583H13.25ZM14.25 17.583V18.083H14.75V17.583H14.25ZM15.25 17.083H15.75V14.583H15.25V17.083ZM16.25 14.083H16.75V11.583H16.25V14.083ZM17.25 11.083H17.75V8.58301H17.25V11.083ZM7.75 13.083V12.583H6.25V13.083H7.75ZM5.75 12.083V11.583H5.25V12.083H5.75ZM6.25 11.083H7.75V10.583H6.25V11.083ZM8.25 10.083H9.75V9.58301H8.25V10.083ZM10.25 9.08301H11.75V8.58301H10.25V9.08301ZM12.25 8.08301H13.75V7.58301H12.25V8.08301ZM18.25 8.08301H18.75V6.58301H18.25V8.08301ZM17.75 6.08301H16.25V5.58301H17.75V6.08301Z" fill="white"/>
</g>
<defs>
<filter id="filter0_d_132_99890" x="-1" y="0" width="25" height="25" filterUnits="userSpaceOnUse" color-interpolation-filters="sRGB">
<feFlood flood-opacity="0" result="BackgroundImageFix"/>
<feColorMatrix in="SourceAlpha" type="matrix" values="0 0 0 0 0 0 0 0 0 0 0 0 0 0 0 0 0 0 127 0" result="hardAlpha"/>
<feOffset dx="-1" dy="1"/>
<feComposite in2="hardAlpha" operator="out"/>
<feColorMatrix type="matrix" values="0 0 0 0 0.329412 0 0 0 0 0.45098 0 0 0 0 0.054902 0 0 0 1 0"/>
<feBlend mode="normal" in2="BackgroundImageFix" result="effect1_dropShadow_132_99890"/>
<feBlend mode="normal" in="SourceGraphic" in2="effect1_dropShadow_132_99890" result="shape"/>
</filter>
</defs>
</svg>
