<svg width="24" height="24" viewBox="0 0 24 24" fill="none" xmlns="http://www.w3.org/2000/svg">
<g filter="url(#filter0_d_132_99932)">
<path d="M7 8.66699H8V9.66699H7V8.66699Z" fill="white"/>
<path d="M9 11.667H10V12.667H9V11.667Z" fill="white"/>
<path d="M16 8.66699H17V9.66699H16V8.66699Z" fill="white"/>
<path d="M18 13.667H19V14.667H18V13.667Z" fill="white"/>
<path d="M19 14.667H20V15.667H19V14.667Z" fill="white"/>
<path d="M8 14.667H9V15.667H8V14.667Z" fill="white"/>
<path d="M7 13.667H8V14.667H7V13.667Z" fill="white"/>
<path d="M7 8.66699V7.66699H4V9.66699H5V8.66699H7Z" fill="white"/>
<path d="M6 9.66699H5V11.667H6V9.66699Z" fill="white"/>
<path d="M9 9.66699H8V11.667H9V9.66699Z" fill="white"/>
<path d="M10 11.667H11V8.66699H13V12.667H15V11.667H14V7.66699H10V11.667Z" fill="white"/>
<path d="M15 11.667H16V9.66699H15V11.667Z" fill="white"/>
<path d="M17 7.66699V8.66699H19V9.66699H20V7.66699H17Z" fill="white"/>
<path d="M19 9.66699H18V11.667H19V9.66699Z" fill="white"/>
<path d="M18 11.667H17V13.667H18V11.667Z" fill="white"/>
<path d="M19 16.667V15.667H15V16.667H19Z" fill="white"/>
<path d="M15 15.667V14.667H13V15.667H15Z" fill="white"/>
<path d="M9 15.667V16.667H13V15.667H9Z" fill="white"/>
<path d="M6 13.667H7V11.667H6V13.667Z" fill="white"/>
<path fill-rule="evenodd" clip-rule="evenodd" d="M3.75 7.41699H7.25V8.41699H8.25V9.41699H9.25V11.417H9.75V7.41699H14.25V11.417H14.75V9.41699H15.75V8.41699H16.75V7.41699H20.25V9.91699H19.25V11.917H18.25V13.417H19.25V14.417H20.25V15.917H19.25V16.917H14.75V15.917H13.25V16.917H8.75V15.917H7.75V14.917H6.75V13.917H5.75V11.917H4.75V9.91699H3.75V7.41699ZM5.25 9.91699V11.417H5.75V9.91699H5.25ZM6.25 11.417V9.41699H5.25V8.91699H6.75V9.91699H7.75V11.917H8.75V12.917H10.25V11.917H11.25V8.91699H12.75V12.917H15.25V11.917H16.25V9.91699H17.25V8.91699H18.75V9.41699H17.75V11.417H16.75V13.917H17.75V14.917H18.75V15.417H15.25V14.417H12.75V15.417H9.25V14.417H8.25V13.417H7.25V11.417H6.25ZM6.25 11.917V13.417H6.75V11.917H6.25ZM7.25 13.917V14.417H7.75V13.917H7.25ZM8.25 14.917V15.417H8.75V14.917H8.25ZM9.25 15.917V16.417H12.75V15.917H9.25ZM13.25 15.417H14.75V14.917H13.25V15.417ZM15.25 15.917V16.417H18.75V15.917H15.25ZM19.25 15.417H19.75V14.917H19.25V15.417ZM18.75 14.417V13.917H18.25V14.417H18.75ZM17.75 13.417V11.917H17.25V13.417H17.75ZM18.25 11.417H18.75V9.91699H18.25V11.417ZM19.25 9.41699H19.75V7.91699H17.25V8.41699H19.25V9.41699ZM16.75 8.91699H16.25V9.41699H16.75V8.91699ZM15.75 9.91699H15.25V11.417H15.75V9.91699ZM14.75 11.917H13.75V7.91699H10.25V11.417H10.75V8.41699H13.25V12.417H14.75V11.917ZM9.75 11.917H9.25V12.417H9.75V11.917ZM8.75 11.417V9.91699H8.25V11.417H8.75ZM7.75 9.41699V8.91699H7.25V9.41699H7.75ZM6.75 8.41699H4.75V9.41699H4.25V7.91699H6.75V8.41699Z" fill="white"/>
</g>
<defs>
<filter id="filter0_d_132_99932" x="-1" y="0" width="25" height="25" filterUnits="userSpaceOnUse" color-interpolation-filters="sRGB">
<feFlood flood-opacity="0" result="BackgroundImageFix"/>
<feColorMatrix in="SourceAlpha" type="matrix" values="0 0 0 0 0 0 0 0 0 0 0 0 0 0 0 0 0 0 127 0" result="hardAlpha"/>
<feOffset dx="-1" dy="1"/>
<feComposite in2="hardAlpha" operator="out"/>
<feColorMatrix type="matrix" values="0 0 0 0 0.329412 0 0 0 0 0.45098 0 0 0 0 0.054902 0 0 0 1 0"/>
<feBlend mode="normal" in2="BackgroundImageFix" result="effect1_dropShadow_132_99932"/>
<feBlend mode="normal" in="SourceGraphic" in2="effect1_dropShadow_132_99932" result="shape"/>
</filter>
</defs>
</svg>
