<svg width="24" height="24" viewBox="0 0 24 24" fill="none" xmlns="http://www.w3.org/2000/svg">
<g filter="url(#filter0_d_132_99974)">
<path d="M18 7H19V8H18V7Z" fill="white"/>
<path d="M5 16H6V17H5V16Z" fill="white"/>
<path d="M5 7H6V8H5V7Z" fill="white"/>
<path d="M18 16H19V17H18V16Z" fill="white"/>
<path d="M12 15V14H10V10H12V9H9V15H12Z" fill="white"/>
<path d="M12 10V11H14V10H12Z" fill="white"/>
<path d="M15 11H14V13H15V11Z" fill="white"/>
<path d="M12 13V14H14V13H12Z" fill="white"/>
<path d="M6 6V7H18V6H6Z" fill="white"/>
<path d="M19 16H20V8H19V16Z" fill="white"/>
<path d="M4 16H5V8H4V16Z" fill="white"/>
<path d="M6 17V18H18V17H6Z" fill="white"/>
<path fill-rule="evenodd" clip-rule="evenodd" d="M5.75 5.75H18.25V6.75H19.25V7.75H20.25V16.25H19.25V17.25H18.25V18.25H5.75V17.25H4.75V16.25H3.75V7.75H4.75V6.75H5.75V5.75ZM5.75 7.25H5.25V7.75H5.75V7.25ZM5.25 8.25H6.25V7.25H17.75V8.25H18.75V15.75H17.75V16.75H6.25V15.75H5.25V8.25ZM4.75 8.25H4.25V15.75H4.75V8.25ZM5.25 16.25V16.75H5.75V16.25H5.25ZM6.25 17.25V17.75H17.75V17.25H6.25ZM18.25 16.75H18.75V16.25H18.25V16.75ZM19.25 15.75H19.75V8.25H19.25V15.75ZM18.75 7.75V7.25H18.25V7.75H18.75ZM17.75 6.75H6.25V6.25H17.75V6.75ZM8.75 8.75H12.25V9.75H14.25V10.75H15.25V13.25H14.25V14.25H12.25V15.25H8.75V8.75ZM12.25 13.75H13.75V13.25H12.25V13.75ZM13.75 12.75H11.75V13.75H10.25V10.25H11.75V11.25H13.75V12.75ZM14.25 12.75H14.75V11.25H14.25V12.75ZM13.75 10.75V10.25H12.25V10.75H13.75ZM11.75 9.75H9.75V14.25H11.75V14.75H9.25V9.25H11.75V9.75Z" fill="white"/>
</g>
<defs>
<filter id="filter0_d_132_99974" x="-1" y="0" width="25" height="25" filterUnits="userSpaceOnUse" color-interpolation-filters="sRGB">
<feFlood flood-opacity="0" result="BackgroundImageFix"/>
<feColorMatrix in="SourceAlpha" type="matrix" values="0 0 0 0 0 0 0 0 0 0 0 0 0 0 0 0 0 0 127 0" result="hardAlpha"/>
<feOffset dx="-1" dy="1"/>
<feComposite in2="hardAlpha" operator="out"/>
<feColorMatrix type="matrix" values="0 0 0 0 0.329412 0 0 0 0 0.45098 0 0 0 0 0.054902 0 0 0 1 0"/>
<feBlend mode="normal" in2="BackgroundImageFix" result="effect1_dropShadow_132_99974"/>
<feBlend mode="normal" in="SourceGraphic" in2="effect1_dropShadow_132_99974" result="shape"/>
</filter>
</defs>
</svg>
