<svg width="120" height="120" viewBox="0 0 120 120" fill="none" xmlns="http://www.w3.org/2000/svg">
<g clip-path="url(#clip0_2203_32)">
<rect width="120" height="120" fill="#E9E5DE"/>
<path fill-rule="evenodd" clip-rule="evenodd" d="M1.89077 46.0933H1.6083L0.011451 56.1874H0.187557C0.124598 57.2615 0.0934726 58.3425 0.0934726 59.4289C0.0934726 65.8706 1.31164 72.1176 3.99911 77.9943C7.11057 84.7965 12.0493 89.9569 18.6117 93.5727C25.1065 97.1514 32.2132 98.7171 39.6208 98.7171C49.7211 98.7171 59.0668 95.8005 67.66 90.5899C71.7599 96.6344 77.7777 99 85.0464 99C91.8645 99 97.8936 97.3204 103.478 93.3348C108.939 89.4384 113.102 84.3617 116.156 78.4248C117.394 75.8956 118.393 73.2679 119.057 70.562C119.045 70.9363 119.036 71.313 119.036 71.6948C119.036 72.6562 119.076 73.5955 119.155 74.512L119.554 70.9269L120 63.9835C119.983 64.0461 119.967 64.1088 119.951 64.1716C119.96 63.8711 119.965 63.5702 119.965 63.2683C119.965 57.4017 117.328 53.2714 111.708 51.297C109.399 50.4856 105.735 50.4392 103.3 50.4392C100.919 50.4392 98.531 50.4808 96.1482 50.5224L95.4332 50.5348V49.9873C95.4332 45.7323 94.2586 41.4333 89.638 40.2848L88.725 40.0582L89.0697 40.9284C90.0483 43.3986 90.3933 46.1003 90.3933 48.7418C90.3933 49.3425 90.3395 49.9467 90.2537 50.543C88.5149 50.543 86.7758 50.539 85.0379 50.517C84.8665 50.5149 84.6876 50.5142 84.5049 50.5135C83.8644 50.511 83.1754 50.5083 82.5851 50.4427C80.2855 50.1352 77.582 49.3141 77.582 46.5627C77.582 41.1952 81.1891 37.1129 85.3188 34.0835C88.9589 31.4137 93.5345 28.8859 98.1848 28.8859C100.051 28.8859 100.832 29.7958 100.832 31.6209C100.832 32.7403 100.684 33.9651 100.548 35.0863L100.523 35.2948L100.001 39.0302C99.9615 39.3635 99.9235 39.7053 99.885 40.0515C99.7506 41.261 99.61 42.525 99.3806 43.6672L99.2643 44.2431H116.706V41.5015L111.299 41.5015C109.437 41.5018 107.982 41.502 107.982 39.1131C107.982 37.4517 108.28 35.3877 108.535 33.6289C108.573 33.367 108.61 33.1119 108.644 32.8659C109.127 29.4639 109.719 26.0525 110.454 22.6959L110.607 22L109.901 22.1186C105.16 22.9127 100.074 23.8983 95.5216 25.4585C90.8798 27.0495 86.5211 29.2686 82.645 32.279C79.5906 34.651 76.9969 37.5072 74.8207 40.6844C72.6737 43.6934 70.6632 47.4426 70.6632 51.2314C70.6632 55.1153 74.181 56.7089 77.5193 57.4099C80.514 58.0378 84.375 58.0427 87.4325 58.0427H89.2539C88.2913 63.0243 85.8486 67.8933 83.16 72.1427C80.559 76.2537 77.1125 80.7452 72.9232 83.4263C71.3699 79.9933 70.2048 75.848 69.2132 72.2711C68.1023 68.2613 67.0046 64.2478 65.9061 60.2315L65.9036 60.2225C65.3365 58.1491 64.7692 56.0749 64.1998 54.0001C62.2947 48.09 59.7584 41.7851 56.0897 36.7342C49.6657 27.8898 40.864 23.564 29.912 23.564C20.4779 23.564 12.939 27.2708 7.38882 34.8652C4.84425 38.3472 3.05825 42.1252 1.89077 46.0933ZM74.1598 86.3579C77.1394 92.5198 80.1469 95.3392 87.4474 95.3392C94.0707 95.3392 99.5824 93.3148 104.429 88.7554C107.235 86.1153 109.342 82.921 110.895 79.4162C112.434 75.9415 113.359 72.266 113.359 68.4563C113.359 61.4999 109.206 58.5755 102.533 58.1452C100.502 57.9769 98.4435 57.9389 96.4103 57.9389H94.2883C92.9044 63.6149 89.9891 68.9084 86.5721 73.6151C83.0984 78.4002 79.0011 82.9024 74.1598 86.3579ZM66.2395 87.8605C64.9595 85.0264 63.9406 81.8128 63.0102 78.8739C61.2923 73.4487 59.7497 67.9496 58.2568 62.4599C56.1838 54.8371 53.2502 45.5636 48.8215 38.9435C43.9597 31.6755 37.3675 27.2253 28.451 27.2253C20.6637 27.2253 14.1953 29.893 9.965 36.5471C6.55266 41.9152 5.34204 48.1704 5.34204 54.4485C5.34204 65.0733 8.68928 74.4588 16.0667 82.2375C23.5879 90.1671 32.8372 94.1228 43.796 94.1228C51.7438 94.1228 59.3177 91.6032 66.2395 87.8605Z" fill="#1D1D1F"/>
<path d="M-34 97.2958V96.8669L-33.3879 97.2958H-34Z" fill="#1D1D1F"/>
</g>
<defs>
<clipPath id="clip0_2203_32">
<rect width="120" height="120" fill="white"/>
</clipPath>
</defs>
</svg>
