<svg width="300" height="48" viewBox="0 0 300 48" fill="none" xmlns="http://www.w3.org/2000/svg">
<path fill-rule="evenodd" clip-rule="evenodd" d="M277.916 40.6452V15.0191H270.778V46.9377H300V40.6452H277.916ZM109.526 43.7749C109.526 45.6039 110.98 46.9375 113.067 46.9375C115.118 46.9375 116.572 45.6039 116.572 43.7749C116.572 41.984 115.118 40.5742 113.067 40.5742C110.98 40.5742 109.526 41.984 109.526 43.7749ZM33.193 46.9375H40.9111L24.3595 15.019H16.5519L0.000244141 46.9375H7.62956L10.9754 40.1889H29.8469L33.193 46.9375ZM117.168 15.019H81.8475V21.3114H95.41V46.9375H102.548V21.3114H116.136C116.098 21.981 116.079 22.6549 116.079 23.3321C116.079 27.3478 116.817 31.242 118.446 34.9054C120.333 39.1457 123.327 42.3626 127.305 44.6166C131.243 46.8475 135.551 47.8235 140.042 47.8235C146.165 47.8235 151.831 46.0054 157.04 42.7572C159.526 46.5252 163.174 47.9999 167.58 47.9999C171.714 47.9999 175.369 46.9529 178.754 44.4683C182.065 42.0394 184.589 38.8747 186.44 35.1738C187.19 33.5971 187.796 31.9591 188.199 30.2723C188.191 30.5056 188.186 30.7404 188.186 30.9784C188.186 41.6484 195.86 47.9409 208.04 47.9409C220.219 47.9409 227.893 41.6484 227.893 30.9784C227.893 20.3084 220.219 14.0159 208.04 14.0159C197.77 14.0159 190.704 18.4893 188.741 26.2886C188.746 26.1013 188.749 25.9137 188.749 25.7255C188.749 22.0684 187.15 19.4937 183.744 18.2629C182.344 17.7571 180.123 17.7281 178.646 17.7281C177.058 17.7281 175.466 17.7595 173.877 17.7877V17.4464C173.877 14.794 173.165 12.114 170.364 11.3981L169.81 11.2568L170.019 11.7993C170.613 13.3392 170.822 15.0234 170.822 16.67C170.822 17.0445 170.789 17.4211 170.737 17.7928C169.683 17.7928 168.629 17.7904 167.575 17.7766C167.107 17.7706 166.548 17.7829 166.088 17.7303C164.694 17.5386 163.055 17.0268 163.055 15.3116C163.055 11.9656 165.242 9.42083 167.745 7.53238C169.952 5.86806 172.726 4.29228 175.545 4.29228C176.677 4.29228 177.15 4.85947 177.15 5.99722C177.15 6.73857 177.049 7.554 176.963 8.28747L176.646 10.616C176.539 11.5498 176.449 12.5907 176.27 13.5066L176.2 13.8656H186.774V12.1566H183.531C182.386 12.1566 181.485 12.1726 181.485 10.6677C181.485 9.47781 181.724 7.95668 181.886 6.77335C182.179 4.65258 182.538 2.52597 182.984 0.433552L183.076 -0.000244141L182.648 0.0736868C179.774 0.568702 176.691 1.18309 173.931 2.15573C171.117 3.14752 168.474 4.53087 166.125 6.40749C164.273 7.88611 162.7 9.66659 161.381 11.6472C160.08 13.523 158.861 15.8601 158.861 18.222C158.861 20.6431 160.993 21.6365 163.017 22.0735C164.833 22.465 167.173 22.468 169.027 22.468C169.395 22.468 169.763 22.468 170.131 22.468C169.548 25.5734 168.067 28.6087 166.437 31.2576C164.86 33.8204 162.771 36.6202 160.231 38.2916C159.289 36.1515 158.583 33.5675 157.982 31.3377C156.96 27.5457 155.957 23.7485 154.942 19.9479C153.787 16.2637 152.25 12.3334 150.026 9.18472C146.131 3.67132 140.795 0.974738 134.156 0.974738C128.437 0.974738 123.866 3.28544 120.501 8.01965C118.959 10.1902 117.876 12.5454 117.168 15.019ZM80.3754 46.9375L70.7387 35.5836C75.9139 34.3525 79.4384 30.9783 79.4384 25.5521C79.4384 18.6213 73.6831 15.0191 66.0546 15.0191H44.5057V46.9377H51.5992V36.0855H62.8866L71.8541 46.9377L80.3754 46.9375ZM51.5546 30.0663V21.1292H65.6525C69.4003 21.1292 72.1662 22.0411 72.1662 25.5975C72.1662 29.1544 69.4003 30.0663 65.6525 30.0663H51.5546ZM13.9198 34.2612L20.3888 21.2658L26.8579 34.2612H13.9198ZM208.04 41.6484C200.277 41.6484 195.458 37.8183 195.458 30.9784C195.458 24.1388 200.321 20.3084 208.04 20.3084C215.758 20.3084 220.621 24.1388 220.621 30.9784C220.621 37.8183 215.758 41.6484 208.04 41.6484ZM259.73 15.0191V31.3434C259.73 37.727 256.072 41.5572 249.336 41.5572C242.599 41.5572 238.94 37.7272 238.94 31.3434V15.0191H231.802V31.8904C231.802 41.4659 238.004 47.9409 249.336 47.9409C260.667 47.9409 266.869 41.4659 266.869 31.8904V15.0191H259.73ZM160.98 40.1191C162.787 43.9603 164.61 45.7178 169.036 45.7178C173.051 45.7178 176.393 44.4559 179.331 41.6136C181.032 39.9679 182.309 37.9766 183.251 35.7918C184.184 33.6257 184.745 31.3345 184.745 28.9596C184.745 24.6231 182.227 22.8001 178.181 22.5319C176.95 22.427 175.702 22.4033 174.47 22.4033H173.183C172.344 25.9416 170.577 29.2415 168.505 32.1755C166.399 35.1584 163.915 37.965 160.98 40.1191ZM156.179 41.0558C155.403 39.2891 154.785 37.2858 154.221 35.4537C153.18 32.0717 152.245 28.6437 151.339 25.2216C150.083 20.4697 148.304 14.6888 145.619 10.5619C142.672 6.03126 138.676 3.2571 133.27 3.2571C128.549 3.2571 124.628 4.92011 122.063 9.06813C119.995 12.4144 119.261 16.3138 119.261 20.2275C119.261 26.8507 121.29 32.7015 125.762 37.5505C130.322 42.4937 135.929 44.9595 142.573 44.9595C147.391 44.9595 151.983 43.3889 156.179 41.0558Z" fill="white"/>
</svg>
