<svg width="26" height="17" viewBox="0 0 26 17" xmlns="http://www.w3.org/2000/svg">
<path d="M22.4161 10.9536C23.2453 11.8692 24.1206 12.7307 24.8644 13.7387C25.193 14.1866 25.504 14.6489 25.742 15.1687C26.0792 15.9077 25.7738 16.7209 25.1879 16.765L21.5458 16.7631C20.6064 16.8513 19.8571 16.4236 19.227 15.6973C18.7227 15.1164 18.2558 14.4982 17.7709 13.8977C17.5721 13.6523 17.3641 13.4214 17.1155 13.2388C16.6183 12.8739 16.1868 12.9856 15.9026 13.572C15.6133 14.1685 15.5476 14.829 15.5192 15.4937C15.4802 16.4636 15.221 16.7186 14.3595 16.763C12.5184 16.8612 10.7711 16.5462 9.14798 15.4959C7.71694 14.5699 6.60723 13.2627 5.64135 11.7828C3.76077 8.90117 2.32061 5.7347 1.02626 2.47952C0.734911 1.74612 0.947981 1.35244 1.6635 1.33851C2.85165 1.3124 4.03963 1.31426 5.22918 1.33665C5.71208 1.34464 6.03177 1.65787 6.21822 2.17381C6.86105 3.96136 7.64761 5.66206 8.63493 7.23846C8.89786 7.65815 9.16596 8.07785 9.54775 8.37325C9.97011 8.70033 10.2917 8.59192 10.4904 8.05983C10.6165 7.72244 10.6717 7.35904 10.7001 6.99768C10.7942 5.75449 10.8066 4.51343 10.6415 3.2746C10.5402 2.50144 10.1551 2.00093 9.47292 1.85462C9.12481 1.78003 9.17664 1.63354 9.34519 1.40883C9.63794 1.02127 9.91327 0.780029 10.4621 0.780029H14.5782C15.2262 0.924665 15.3701 1.25388 15.4588 1.99127L15.4624 7.16201C15.4553 7.44747 15.5885 8.29457 16.0431 8.48351C16.407 8.61802 16.6468 8.28881 16.8652 8.02787C17.8507 6.84496 18.554 5.44701 19.1824 3.99944C19.4613 3.36294 19.701 2.70191 19.9334 2.04143C20.1056 1.55133 20.3757 1.31017 20.8639 1.32086L24.8254 1.32485C24.9428 1.32485 25.0617 1.3268 25.1755 1.34882C25.843 1.47747 26.0259 1.80223 25.8198 2.53944C25.4949 3.69605 24.8628 4.65992 24.2448 5.62824C23.5842 6.66206 22.8776 7.66048 22.2225 8.70042C21.6205 9.65007 21.6684 10.1288 22.4161 10.9536Z"/>
</svg>
