<svg width="8" height="4" viewBox="0 0 8 4" xmlns="http://www.w3.org/2000/svg">
  <path d="M4.12051 3.95764L7.97601 0.146684C7.99041 0.132447 7.99865 0.115923 7.99985 0.0988668C8.00105 0.0818109 7.99517 0.0648605 7.98284 0.0498164C7.9705 0.0347723 7.95218 0.0221966 7.9298 0.0134252C7.90743 0.0046538 7.88184 1.44032e-05 7.85576 -6.30474e-09L0.144331 -3.43382e-07C0.11823 2.75272e-06 0.0926174 0.00463912 0.070221 0.0134153C0.0478245 0.0221915 0.0294818 0.034779 0.0171442 0.0498384C0.00480665 0.0648978 -0.0010636 0.0818655 0.00015793 0.0989358C0.00137946 0.116006 0.00964705 0.13254 0.0240811 0.146778L3.87958 3.95764C3.89274 3.97066 3.91063 3.98135 3.93163 3.98874C3.95264 3.99613 3.97612 4 3.99998 4C4.02383 4 4.04731 3.99613 4.06832 3.98874C4.08932 3.98135 4.10735 3.97066 4.12051 3.95764Z" />
</svg>