<svg width="14" height="20" viewBox="0 0 14 20" xmlns="http://www.w3.org/2000/svg">
<path d="M9.50291 14.1513C9.50186 14.2055 9.53549 14.2485 9.55861 14.2932C10.4355 15.9745 11.5846 17.6164 12.4184 19.3061C12.5576 19.5887 12.5807 19.739 12.2051 19.7963C11.3008 19.7311 10.2852 19.8788 9.39416 19.7963C9.31009 19.7884 9.23023 19.7795 9.16403 19.7211L7.01408 14.9741L4.86413 19.7206C4.79531 19.78 4.72123 19.7879 4.63453 19.7963C3.7445 19.8793 2.72785 19.7306 1.82363 19.7963C1.66496 19.7978 1.51364 19.707 1.50471 19.5383L4.55677 14.1661C3.06989 13.7925 1.64867 13.1347 0.469667 12.1496C0.419229 12.0697 0.420805 11.9615 0.471244 11.8827L1.94605 9.87877C2.03694 9.81782 2.11523 9.80679 2.21453 9.85565C2.38161 9.93867 2.68529 10.2339 2.86813 10.3616C5.79567 12.406 8.72112 12.1616 11.531 10.0916C11.7359 9.94077 11.9129 9.64707 12.1567 9.95601L13.5643 11.8748C13.6084 11.9473 13.6053 12.0545 13.5701 12.1296C13.5396 12.1947 13.1024 12.5089 13.0095 12.5757C11.9671 13.3223 10.7492 13.8498 9.50239 14.1508L9.50291 14.1513Z"/>
<path d="M6.81019 0.186141L7.16747 0.177734C10.7617 0.323796 13.0325 4.14505 11.3092 7.36787C9.61742 10.5308 5.14677 10.8019 3.05514 7.88802C0.782251 4.72142 2.98054 0.363727 6.81019 0.186141ZM6.81019 2.87095C5.08582 3.03382 4.21418 5.09866 5.32173 6.44579C6.27691 7.60798 8.13579 7.47925 8.89762 6.17731C9.80079 4.63367 8.58763 2.70282 6.81019 2.87095Z"/>
</svg>
