<svg width="512" height="512" viewBox="0 0 512 512" fill="none" xmlns="http://www.w3.org/2000/svg">
<path d="M497 0H87.94C79.656 0 72.94 6.716 72.94 15V202.911H15C6.716 202.911 0 209.627 0 217.911V460.588C0 488.936 23.089 512 51.47 512H446.999C482.84 512 512 482.875 512 447.077V15C512 6.716 505.284 0 497 0ZM30 460.587V232.911H72.94V460.588C72.94 472.395 63.309 482.001 51.47 482.001C39.631 482 30 472.395 30 460.587ZM482 447.077C482 466.333 466.298 482 446.999 482H98.245C101.342 475.287 102.944 467.98 102.94 460.587V30H482V447.077Z" fill="black"/>
<path d="M147.942 270.876H437.013C445.297 270.876 452.013 264.16 452.013 255.876C452.013 247.592 445.297 240.876 437.013 240.876H147.942C139.658 240.876 132.942 247.592 132.942 255.876C132.942 264.16 139.658 270.876 147.942 270.876ZM147.942 210.968H437.013C445.297 210.968 452.013 204.252 452.013 195.968C452.013 187.684 445.297 180.968 437.013 180.968H147.942C139.658 180.968 132.942 187.684 132.942 195.968C132.942 204.252 139.658 210.968 147.942 210.968ZM147.942 330.783H245.561C253.845 330.783 260.561 324.067 260.561 315.783C260.561 307.499 253.845 300.783 245.561 300.783H147.942C139.658 300.783 132.942 307.499 132.942 315.783C132.942 324.067 139.658 330.783 147.942 330.783ZM147.942 390.69H245.561C253.845 390.69 260.561 383.974 260.561 375.69C260.561 367.406 253.845 360.69 245.561 360.69H147.942C139.658 360.69 132.942 367.406 132.942 375.69C132.942 383.975 139.658 390.69 147.942 390.69ZM147.942 450.598H245.561C253.845 450.598 260.561 443.882 260.561 435.598C260.561 427.314 253.845 420.598 245.561 420.598H147.942C139.658 420.598 132.942 427.314 132.942 435.598C132.942 443.882 139.658 450.598 147.942 450.598ZM437.013 300.783H305.562C297.278 300.783 290.562 307.499 290.562 315.783V435.598C290.562 443.882 297.278 450.598 305.562 450.598H437.013C445.297 450.598 452.013 443.882 452.013 435.598V315.783C452.013 307.499 445.297 300.783 437.013 300.783ZM422.013 420.598H320.562V330.783H422.013V420.598Z" fill="black"/>
<path d="M147.942 150.908H437.013C445.297 150.908 452.013 144.192 452.013 135.908C452.013 127.624 445.297 120.908 437.013 120.908H147.942C139.658 120.908 132.942 127.624 132.942 135.908C132.942 144.192 139.658 150.908 147.942 150.908ZM147.942 91H437.013C445.297 91 452.013 84.284 452.013 76C452.013 67.716 445.297 61 437.013 61H147.942C139.658 61 132.942 67.716 132.942 76C132.942 84.284 139.658 91 147.942 91Z" fill="black"/>
</svg>
