<svg width="12" height="11" viewBox="0 0 12 11" xmlns="http://www.w3.org/2000/svg">
<path d="M1.28031 -0.200001H7.68031C8.72565 -0.200001 9.49365 0.0399993 9.98431 0.52C10.475 0.989333 10.7203 1.70933 10.7203 2.68C10.7203 3.32 10.5816 3.84267 10.3043 4.248C10.027 4.64267 9.68565 4.92 9.28031 5.08C10.1443 5.31467 10.731 5.89067 11.0403 6.808C11.147 7.13867 11.2003 7.52267 11.2003 7.96C11.2003 9.00533 10.955 9.77333 10.4643 10.264C9.97365 10.7547 9.20565 11 8.16031 11H1.28031V-0.200001ZM8.32031 7.48C8.32031 6.84 8.00031 6.52 7.36031 6.52H4.16031V8.76H7.36031C8.00031 8.76 8.32031 8.44 8.32031 7.8V7.48ZM7.84031 3C7.84031 2.36 7.52031 2.04 6.88031 2.04H4.16031V4.28H6.88031C7.52031 4.28 7.84031 3.96 7.84031 3.32V3Z" />
</svg>
