<svg width="86" height="86" viewBox="0 0 86 86" fill="none" xmlns="http://www.w3.org/2000/svg">
<rect x="0.5" y="0.423828" width="84.7207" height="84.7207" rx="42.3604" fill="#1C2231"/>
<path d="M39.0422 20.0996C38.42 20.0996 37.8252 20.3551 37.3969 20.8064L29.355 29.2788L20.4585 37.7232C20.278 37.8946 20.1758 38.1325 20.1758 38.3813L20.1758 55.381C20.1758 55.8822 20.582 56.2884 21.0831 56.2884H29.355L29.355 29.2788H55.4572C55.9583 29.2788 56.3646 28.8726 56.3646 28.3714V21.007C56.3646 20.5058 55.9583 20.0996 55.4572 20.0996H39.0422Z" fill="#E8F30F"/>
<path d="M47.262 65.4676C47.5109 65.4676 47.7488 65.3654 47.9201 65.1849L56.3646 56.2884L65.4215 47.6947C65.4995 47.6207 65.5438 47.5178 65.5438 47.4101V38.5864C65.5438 38.3697 65.3681 38.194 65.1514 38.194L38.9265 38.194C38.7098 38.194 38.5342 38.3697 38.5342 38.5863V46.9809C38.5342 47.1976 38.7098 47.3732 38.9265 47.3732L56.3646 47.3732V56.2884L29.355 56.2884L29.355 64.5603C29.355 65.0614 29.7612 65.4676 30.2623 65.4676L47.262 65.4676Z" fill="#E8F30F"/>
</svg>
