<svg width="143" height="36" viewBox="0 0 143 36" fill="none" xmlns="http://www.w3.org/2000/svg">
<path d="M14.7509 0.264189C14.2645 0.264189 13.7994 0.463967 13.4645 0.816764L7.17685 7.44104L0.22103 14.0434C0.0799116 14.1774 -8.50484e-09 14.3634 0 14.558L5.80986e-07 27.8494C5.98113e-07 28.2412 0.317623 28.5588 0.709431 28.5588H7.17686L7.17685 7.44104H27.5852C27.977 7.44104 28.2946 7.12342 28.2946 6.73161V0.973619C28.2946 0.581811 27.977 0.264189 27.5852 0.264189H14.7509Z" fill="#1C2231"/>
<path d="M21.1777 35.7357C21.3723 35.7357 21.5583 35.6558 21.6922 35.5146L28.2946 28.5588L35.3759 21.8398C35.4369 21.7818 35.4715 21.7014 35.4715 21.6172V14.7183C35.4715 14.5488 35.3342 14.4115 35.1647 14.4115L14.6605 14.4115C14.491 14.4115 14.3537 14.5488 14.3537 14.7183V21.2816C14.3537 21.451 14.491 21.5884 14.6605 21.5884L28.2946 21.5884L28.2946 28.5588L7.17686 28.5588L7.17686 35.0262C7.17686 35.4181 7.49448 35.7357 7.88629 35.7357L21.1777 35.7357Z" fill="#1C2231"/>
<path d="M55.2991 24.5565C55.0922 25.02 54.8066 25.4338 54.4425 25.798C54.0783 26.1622 53.6562 26.4726 53.1761 26.7291C52.6961 26.9857 52.1622 27.1802 51.5746 27.3126C50.9952 27.4451 50.3745 27.5113 49.7123 27.5113C48.4791 27.5113 47.3576 27.3002 46.3479 26.8781C45.3464 26.456 44.4897 25.8477 43.778 25.0531C43.0662 24.2503 42.5158 23.2736 42.1268 22.1232C41.746 20.9727 41.5557 19.665 41.5557 18.2C41.5557 16.793 41.7543 15.5184 42.1516 14.3762C42.5489 13.234 43.1117 12.2574 43.84 11.4462C44.5767 10.6351 45.4581 10.0102 46.4844 9.57158C47.5107 9.12464 48.6488 8.90117 49.8986 8.90117C51.8436 8.90117 53.4575 9.35639 54.7404 10.2668C56.0233 11.1773 56.9503 12.5595 57.5214 14.4134L54.877 14.8852C54.7197 14.3224 54.488 13.8217 54.1817 13.383C53.8755 12.9443 53.5113 12.576 53.0892 12.2781C52.6754 11.9801 52.2036 11.7525 51.6739 11.5952C51.1525 11.438 50.5855 11.3593 49.973 11.3593C49.0792 11.3593 48.2805 11.5125 47.5769 11.8187C46.8817 12.1249 46.2899 12.5719 45.8016 13.1595C45.3215 13.7472 44.9532 14.4714 44.6967 15.3322C44.4401 16.1846 44.3118 17.1572 44.3118 18.2497C44.3118 19.3174 44.4318 20.2733 44.6718 21.1176C44.9201 21.9618 45.2802 22.6736 45.7519 23.2529C46.232 23.8323 46.8238 24.2751 47.5273 24.5813C48.2308 24.8876 49.0378 25.0407 49.9482 25.0407C50.7262 25.0407 51.4256 24.929 52.0464 24.7055C52.6754 24.482 53.2092 24.1551 53.6479 23.7247C54.0866 23.286 54.43 22.7522 54.6783 22.1232C54.9266 21.4859 55.0632 20.7575 55.088 19.9381H48.9178V17.4924H57.9062V27.1388H55.2991V24.5565Z" fill="#1C2231"/>
<path d="M65.4922 25.0904C66.3447 25.0904 67.0482 24.9124 67.6028 24.5565C68.1656 24.1923 68.6125 23.6585 68.9436 22.955L71.5011 23.7371C70.9714 24.9455 70.1851 25.8766 69.1422 26.5305C68.1076 27.1844 66.891 27.5113 65.4922 27.5113C64.499 27.5113 63.5968 27.3416 62.7857 27.0023C61.9829 26.6546 61.2918 26.1705 60.7124 25.5497C60.1331 24.929 59.6861 24.1841 59.3716 23.315C59.0571 22.446 58.8998 21.4859 58.8998 20.4347C58.8998 19.367 59.0571 18.3987 59.3716 17.5296C59.6861 16.6606 60.1331 15.9157 60.7124 15.2949C61.2918 14.6742 61.9829 14.1982 62.7857 13.8672C63.5968 13.5278 64.4907 13.3582 65.4674 13.3582C66.5102 13.3582 67.4331 13.5402 68.2359 13.9044C69.0388 14.2686 69.705 14.79 70.2347 15.4687C70.7727 16.1391 71.1617 16.9585 71.4018 17.9269C71.6501 18.887 71.7411 19.9671 71.6749 21.1672H61.6932C61.8091 22.417 62.1981 23.3854 62.8602 24.0723C63.5224 24.751 64.3997 25.0904 65.4922 25.0904ZM69.0057 19.1436C68.9146 18.0345 68.5629 17.182 67.9504 16.5861C67.3379 15.9901 66.5102 15.6922 65.4674 15.6922C64.4328 15.6922 63.5968 15.9901 62.9595 16.5861C62.3305 17.182 61.9291 18.0345 61.7553 19.1436H69.0057Z" fill="#1C2231"/>
<path d="M71.9773 13.7306H74.5472V9.2612H77.1544V13.7306H81.1396V16.164H77.1544V22.9301C77.1544 23.6006 77.2951 24.0806 77.5765 24.3703C77.8662 24.66 78.3421 24.8048 79.0042 24.8048H81.1396V27.1388H78.4331C77.8289 27.1388 77.2827 27.0561 76.7943 26.8905C76.3143 26.725 75.9087 26.4891 75.5777 26.1829C75.2466 25.8684 74.99 25.4876 74.8079 25.0407C74.6341 24.5938 74.5472 24.0847 74.5472 23.5137V16.164H71.9773V13.7306Z" fill="#1C2231"/>
<path d="M83.2216 27.1388V8.88876H85.8164V27.1388H83.2216Z" fill="#1C2231"/>
<path d="M94.374 27.5113C93.3725 27.5113 92.4662 27.3375 91.6551 26.9899C90.8523 26.6422 90.1653 26.1581 89.5942 25.5373C89.0231 24.9083 88.5803 24.1592 88.2658 23.2902C87.9596 22.4211 87.8065 21.4652 87.8065 20.4223C87.8065 19.3794 87.9596 18.4235 88.2658 17.5544C88.5803 16.6854 89.0231 15.9405 89.5942 15.3197C90.1736 14.699 90.8647 14.2189 91.6675 13.8796C92.4786 13.532 93.3808 13.3582 94.374 13.3582C95.3755 13.3582 96.2818 13.532 97.0929 13.8796C97.904 14.2189 98.5951 14.7031 99.1662 15.3322C99.7373 15.9529 100.176 16.6978 100.482 17.5669C100.797 18.4276 100.954 19.3794 100.954 20.4223C100.954 21.4734 100.797 22.4335 100.482 23.3026C100.176 24.1716 99.7373 24.9207 99.1662 25.5497C98.5951 26.1705 97.904 26.6546 97.0929 27.0023C96.2818 27.3416 95.3755 27.5113 94.374 27.5113ZM94.374 25.0655C94.9948 25.0655 95.541 24.9579 96.0128 24.7427C96.4928 24.5275 96.8942 24.2213 97.217 23.824C97.5398 23.4185 97.784 22.9301 97.9495 22.3591C98.1151 21.7797 98.1978 21.1341 98.1978 20.4223C98.1978 19.7022 98.1151 19.0567 97.9495 18.4856C97.784 17.9145 97.5398 17.4303 97.217 17.033C96.8942 16.6357 96.4928 16.3336 96.0128 16.1267C95.541 15.9115 94.9948 15.8039 94.374 15.8039C93.745 15.8039 93.1904 15.9115 92.7104 16.1267C92.2386 16.3419 91.8413 16.6481 91.5185 17.0454C91.204 17.4427 90.964 17.9269 90.7985 18.498C90.6412 19.0691 90.5626 19.7105 90.5626 20.4223C90.5626 21.1424 90.6454 21.7921 90.8109 22.3715C90.9764 22.9426 91.2206 23.4267 91.5434 23.824C91.8662 24.2213 92.2635 24.5275 92.7352 24.7427C93.2153 24.9579 93.7615 25.0655 94.374 25.0655Z" fill="#1C2231"/>
<path d="M108.027 13.3582C109.07 13.3582 109.943 13.5527 110.647 13.9417C111.351 14.3307 111.913 14.8811 112.335 15.5929V13.7306H114.93V26.4312C114.93 27.4492 114.789 28.3886 114.508 29.2494C114.227 30.1102 113.813 30.8509 113.267 31.4717C112.72 32.1007 112.042 32.589 111.23 32.9366C110.428 33.2925 109.501 33.4705 108.45 33.4705C107.729 33.4705 107.051 33.3795 106.413 33.1974C105.784 33.0236 105.209 32.767 104.688 32.4276C104.175 32.0883 103.724 31.6662 103.335 31.1613C102.954 30.6564 102.652 30.0729 102.428 29.4108L105.073 28.79C105.338 29.5184 105.755 30.0729 106.327 30.4536C106.906 30.8344 107.614 31.0247 108.45 31.0247C109.087 31.0247 109.646 30.913 110.126 30.6895C110.606 30.4661 111.011 30.1515 111.342 29.746C111.673 29.3404 111.922 28.8521 112.087 28.281C112.253 27.7182 112.335 27.0892 112.335 26.3939V24.7924C111.913 25.5042 111.346 26.0546 110.635 26.4436C109.931 26.8243 109.062 27.0147 108.027 27.0147C107.15 27.0147 106.339 26.8533 105.594 26.5305C104.849 26.2077 104.204 25.7525 103.657 25.1648C103.119 24.5689 102.697 23.853 102.391 23.017C102.093 22.1728 101.944 21.2334 101.944 20.1988C101.944 19.1477 102.097 18.2 102.403 17.3558C102.71 16.5116 103.132 15.7956 103.67 15.208C104.208 14.6121 104.849 14.1569 105.594 13.8423C106.339 13.5196 107.15 13.3582 108.027 13.3582ZM108.524 24.5689C109.136 24.5689 109.679 24.4655 110.15 24.2586C110.622 24.0516 111.019 23.7578 111.342 23.3771C111.665 22.9964 111.909 22.537 112.075 21.999C112.249 21.461 112.335 20.861 112.335 20.1988C112.335 19.5119 112.244 18.8994 112.062 18.3614C111.888 17.8152 111.636 17.3517 111.305 16.9709C110.982 16.5902 110.585 16.3005 110.113 16.1019C109.641 15.9032 109.112 15.8039 108.524 15.8039C107.928 15.8039 107.39 15.9074 106.91 16.1143C106.438 16.3212 106.037 16.6192 105.706 17.0082C105.383 17.3889 105.135 17.8524 104.961 18.3987C104.787 18.9366 104.7 19.5367 104.7 20.1988C104.7 20.8775 104.787 21.49 104.961 22.0363C105.143 22.5742 105.395 23.0336 105.718 23.4143C106.049 23.7868 106.451 24.0723 106.922 24.271C107.394 24.4696 107.928 24.5689 108.524 24.5689Z" fill="#1C2231"/>
<path d="M117.657 11.5332V9.01291H120.252V11.5332H117.657ZM117.657 27.1388V13.7306H120.252V27.1388H117.657Z" fill="#1C2231"/>
<path d="M128.139 27.4989C126.5 27.4989 125.176 27.1513 124.166 26.456C123.156 25.7525 122.515 24.7262 122.242 23.3771L124.911 22.955C125.3 24.4613 126.392 25.2145 128.188 25.2145C129.016 25.2145 129.674 25.0572 130.162 24.7427C130.651 24.4199 130.895 23.9647 130.895 23.3771C130.895 23.2116 130.874 23.0626 130.833 22.9301C130.8 22.7894 130.734 22.6611 130.634 22.5453C130.543 22.4294 130.415 22.3218 130.249 22.2225C130.092 22.1232 129.889 22.0238 129.641 21.9245C129.409 21.8418 129.099 21.7424 128.71 21.6266C128.329 21.5107 127.882 21.3824 127.369 21.2417C126.641 21.0513 125.983 20.8486 125.395 20.6334C124.816 20.4099 124.323 20.1492 123.918 19.8512C123.52 19.5533 123.214 19.2015 122.999 18.7959C122.784 18.3904 122.676 17.9062 122.676 17.3434C122.676 16.7475 122.8 16.2053 123.049 15.717C123.305 15.2287 123.661 14.8107 124.116 14.4631C124.58 14.1072 125.134 13.8341 125.78 13.6437C126.425 13.4533 127.137 13.3582 127.915 13.3582C128.677 13.3582 129.376 13.4533 130.013 13.6437C130.659 13.8258 131.222 14.0865 131.702 14.4259C132.19 14.7652 132.587 15.179 132.894 15.6674C133.2 16.1557 133.394 16.6978 133.477 17.2937L130.82 17.7779C130.771 17.4468 130.663 17.1489 130.498 16.884C130.34 16.6192 130.133 16.3957 129.877 16.2136C129.62 16.0233 129.318 15.8784 128.971 15.7791C128.623 15.6798 128.242 15.6301 127.828 15.6301C127.464 15.6301 127.125 15.6715 126.81 15.7543C126.496 15.8288 126.223 15.9405 125.991 16.0895C125.768 16.2302 125.59 16.3998 125.457 16.5985C125.333 16.7888 125.271 17.004 125.271 17.2441C125.271 17.4758 125.333 17.6744 125.457 17.84C125.581 18.0055 125.747 18.1504 125.954 18.2745C126.169 18.3987 126.409 18.5063 126.674 18.5973C126.947 18.6883 127.232 18.7794 127.53 18.8704C127.878 18.9698 128.263 19.0856 128.685 19.2181C129.115 19.3422 129.571 19.4746 130.051 19.6153C130.68 19.8057 131.214 20.0168 131.652 20.2485C132.099 20.4802 132.463 20.741 132.745 21.0306C133.026 21.3203 133.229 21.6514 133.353 22.0238C133.486 22.388 133.552 22.8019 133.552 23.2653C133.552 23.9192 133.428 24.511 133.179 25.0407C132.931 25.5621 132.571 26.0049 132.099 26.3691C131.636 26.7333 131.069 27.0105 130.398 27.2009C129.736 27.3995 128.983 27.4989 128.139 27.4989Z" fill="#1C2231"/>
<path d="M133.816 13.7306H136.386V9.2612H138.993V13.7306H142.978V16.164H138.993V22.9301C138.993 23.6006 139.133 24.0806 139.415 24.3703C139.705 24.66 140.181 24.8048 140.843 24.8048H142.978V27.1388H140.272C139.667 27.1388 139.121 27.0561 138.633 26.8905C138.153 26.725 137.747 26.4891 137.416 26.1829C137.085 25.8684 136.828 25.4876 136.646 25.0407C136.473 24.5938 136.386 24.0847 136.386 23.5137V16.164H133.816V13.7306Z" fill="#1C2231"/>
</svg>
