<svg width="41" height="41" viewBox="0 0 41 41" fill="none" xmlns="http://www.w3.org/2000/svg">
<g clip-path="url(#clip0_1055_80)">
<path fill-rule="evenodd" clip-rule="evenodd" d="M22.8956 13.143C22.529 12.7 22.5909 12.0433 23.0342 11.6767C23.4771 11.3101 24.1339 11.3723 24.5005 11.8151L27.3368 15.2489C29.1802 12.5866 31.5122 9.34958 34.3325 5.53866C34.6743 5.07781 35.3254 4.98092 35.7866 5.32285C36.2475 5.66471 36.3443 6.31598 36.0026 6.77691C32.818 11.0793 30.2506 14.661 28.2996 17.5214C28.2398 17.6186 28.1644 17.7053 28.0765 17.778C27.6331 18.1445 26.9768 18.0824 26.6101 17.6393L22.8956 13.143ZM29.4318 0.489258C35.5503 0.489258 40.5102 5.4493 40.5102 11.5676C40.5102 17.6863 35.5503 22.6461 29.4318 22.6461C23.3132 22.6461 18.3533 17.6863 18.3533 11.5676C18.3533 5.44938 23.3132 0.489258 29.4318 0.489258ZM16.1588 25.6104C13.2654 25.6104 10.9202 27.9561 10.9202 30.8489V39.6693C10.921 39.8221 10.88 39.9721 10.8016 40.1033C10.7232 40.2344 10.6104 40.3415 10.4755 40.4131C10.3405 40.4847 10.1885 40.518 10.036 40.5093C9.88352 40.5007 9.73628 40.4505 9.61026 40.3642C4.14757 36.5715 1.99923 31.1399 3.16477 24.0694C3.34439 22.9809 3.12722 22.7261 2.62769 21.8481C0.253692 17.6796 -0.031146 13.0666 1.2216 8.63673C3.21106 3.36478 7.0259 2.52308 12.6668 6.1117C14.3827 6.77627 16.2707 6.92978 18.0659 6.57183C17.7375 7.31827 17.484 8.09541 17.309 8.89186C16.9267 8.92888 16.5429 8.9474 16.1589 8.94735C14.6932 8.94801 13.2401 8.67699 11.8732 8.14801C11.5604 8.02725 11.208 8.18308 11.0868 8.49635C11.0288 8.64679 11.0329 8.8141 11.0981 8.96155C11.1633 9.10901 11.2844 9.22457 11.4347 9.28288C12.9578 9.87241 14.5596 10.1676 16.1589 10.1676C16.4731 10.1676 16.7877 10.156 17.1016 10.1335C17.0465 10.6096 17.0188 11.0884 17.0187 11.5677C17.0187 18.3251 22.4182 23.8208 29.1379 23.9771L29.1524 24.0695C30.3181 31.14 28.1699 36.5716 22.7071 40.3642C22.5811 40.4506 22.4339 40.5008 22.2814 40.5094C22.1289 40.518 21.9769 40.4847 21.842 40.4131C21.7071 40.3415 21.5943 40.2344 21.5159 40.1033C21.4375 39.9722 21.3965 39.8221 21.3974 39.6694V30.849C21.3973 27.9561 19.0517 25.6104 16.1588 25.6104Z" fill="#2A6495"/>
</g>
<defs>
<clipPath id="clip0_1055_80">
<rect width="41" height="41" fill="white"/>
</clipPath>
</defs>
</svg>
