<svg width="41" height="41" viewBox="0 0 41 41" fill="none" xmlns="http://www.w3.org/2000/svg">
<g id="&#208;&#152;&#208;&#188;&#208;&#191;&#208;&#187;&#208;&#176;&#208;&#189;&#209;&#130;&#208;&#176;&#209;&#134;&#208;&#184;&#209;&#143;">
<g id="Group">
<path id="Vector" fill-rule="evenodd" clip-rule="evenodd" d="M13.4594 16.9571V18.1284C18.105 19.2421 22.8948 19.2421 27.5403 18.1284V16.9573C22.9049 18.0025 18.0948 18.0025 13.4594 16.9571ZM15.546 19.9069H15.5686C18.7796 20.4188 22.0507 20.4276 25.2645 19.9332V21.8636C21.7528 22.4482 21.7528 23.0474 25.2645 23.6608V25.0154C21.7528 25.6003 21.7528 26.1996 25.2645 26.8129V28.1674C21.9084 28.832 21.7778 29.4081 24.8732 29.8956C24.1603 30.6451 23.2935 31.1173 22.2717 31.3113C21.7292 32.1273 21.1068 32.561 20.4054 32.6129C19.704 32.5611 19.0821 32.1273 18.5388 31.3113C17.5169 31.1173 16.6504 30.6452 15.9375 29.8956C19.0329 29.4081 18.9023 28.832 15.5459 28.1674V26.8129C19.058 26.1996 19.058 25.6003 15.5459 25.0154V23.6608C19.058 23.0474 19.058 22.4481 15.5459 21.8636L15.546 19.9069ZM16.6033 7.39673C16.2612 7.26445 16.0909 6.87951 16.223 6.5371C16.3553 6.195 16.7403 6.02468 17.0823 6.15712C18.1724 6.57861 19.3312 6.79448 20.5 6.79383C21.6626 6.79383 22.8216 6.58138 23.9173 6.15712C23.9987 6.12566 24.0855 6.11054 24.1727 6.11262C24.2599 6.1147 24.3459 6.13394 24.4257 6.16924C24.5055 6.20455 24.5776 6.25523 24.6378 6.31838C24.698 6.38154 24.7452 6.45594 24.7767 6.53734C24.8081 6.61873 24.8233 6.70552 24.8212 6.79276C24.8191 6.88 24.7999 6.96598 24.7645 7.04578C24.7292 7.12558 24.6786 7.19765 24.6154 7.25787C24.5522 7.31808 24.4778 7.36527 24.3965 7.39673C23.1539 7.87886 21.8328 8.12651 20.5 8.12713C19.1671 8.12652 17.8459 7.87887 16.6033 7.39673ZM8.58487 15.4406C9.74115 15.9045 10.9236 16.3003 12.1261 16.6261V18.0057C10.7532 17.6497 9.40445 17.2063 8.08806 16.6783L7.53737 16.4575L7.33301 15.9008C7.277 15.7483 7.22353 15.5949 7.17261 15.4407H0.49826V34.9393C0.49826 36.684 1.92117 38.1071 3.66599 38.1071H37.3341C39.0789 38.1071 40.5018 36.684 40.5018 34.9393V15.4406H33.8274C33.7764 15.5948 33.723 15.7482 33.6673 15.9007L33.4623 16.4574L32.9121 16.6783C31.5956 17.2062 30.2468 17.6495 28.8739 18.0056V16.6263C30.0765 16.3004 31.2592 15.9044 32.4156 15.4405C33.4553 12.6127 33.4477 9.61466 32.627 6.71319C31.0121 2.43277 27.9144 1.74955 23.335 4.66263C22.4297 5.01345 21.4648 5.18906 20.5 5.18906C19.5352 5.18906 18.5704 5.01353 17.6649 4.66271C13.0854 1.74963 9.988 2.43285 8.37322 6.71327C7.55266 9.61474 7.54465 12.6129 8.58487 15.4406Z" fill="#2A6495"/>
</g>
</g>
</svg>
