<svg width="41" height="41" viewBox="0 0 41 41" fill="none" xmlns="http://www.w3.org/2000/svg">
<g id="&#208;&#160;&#208;&#181;&#208;&#189;&#209;&#130;&#208;&#179;&#208;&#181;&#208;&#189;-&#208;&#186;&#208;&#176;&#208;&#177;&#208;&#184;&#208;&#189;&#208;&#181;&#209;&#130;">
<g id="Group">
<path id="Vector" fill-rule="evenodd" clip-rule="evenodd" d="M21.1674 10.9364C21.4393 10.9136 21.7114 10.8767 21.9825 10.826C22.4718 10.7349 22.9515 10.5985 23.4156 10.4187C23.5802 10.3552 23.7632 10.3596 23.9245 10.4309C24.0859 10.5023 24.2123 10.6348 24.276 10.7993C24.4083 11.1422 24.2378 11.5273 23.8952 11.6596C23.3552 11.8691 22.7969 12.028 22.2275 12.1343C21.8775 12.2001 21.5236 12.2454 21.1675 12.2702V10.9364H21.1674ZM16.8303 31.516V32.7223C16.8314 32.9405 16.7114 33.1411 16.5189 33.2433C16.3264 33.3455 16.0925 33.332 15.9126 33.209C15.1634 32.6887 14.5036 32.1245 13.9323 31.516H16.8303V31.516ZM16.8303 28.7707V30.1816H12.8684C12.5691 29.7338 12.3076 29.2619 12.0866 28.7707H16.8303ZM16.9253 25.7107C16.862 25.9838 16.8302 26.2633 16.8303 26.5437V27.436H11.6002C11.4422 26.8828 11.3294 26.3078 11.2611 25.7107H16.9253ZM19.8328 22.9349C18.8946 23.107 18.0816 23.6363 17.5391 24.3763H11.1827C11.1797 23.8681 11.2059 23.3453 11.2611 22.8082H19.8328V21.4734H11.4366C11.4706 20.9653 11.3162 20.7567 11.0213 20.2388C10.9589 20.1286 10.8981 20.0175 10.839 19.9055H19.8328V18.5709H10.2398C10.0486 18.0601 9.89516 17.5359 9.78062 17.0027H19.8328V15.6686H9.57538C9.52672 15.1473 9.51255 14.6233 9.53294 14.1002H19.8328V12.7656H9.65546C9.73234 12.2371 9.84002 11.7135 9.97794 11.1975H19.8328V9.86323H10.5516C12.0432 7.19863 14.5439 6.98226 18.0539 9.21492C18.625 9.43552 19.2235 9.57733 19.8328 9.63645V5.96815C19.8328 5.88051 19.85 5.79372 19.8835 5.71274C19.917 5.63176 19.9662 5.55818 20.0281 5.49621C20.0901 5.43423 20.1637 5.38507 20.2446 5.35154C20.3256 5.318 20.4124 5.30076 20.5 5.30078C20.677 5.30078 20.8468 5.37109 20.9719 5.49624C21.0971 5.6214 21.1674 5.79115 21.1674 5.96815V9.63645C21.7767 9.57746 22.375 9.43575 22.946 9.21524C26.8976 6.70166 29.57 7.2912 30.9635 10.9843C31.8409 14.087 31.6416 17.3183 29.9786 20.2388C29.6286 20.8535 29.4766 21.0324 29.6024 21.7945C30.4188 26.7478 28.9136 30.5526 25.0872 33.2091C24.9988 33.2695 24.8957 33.3046 24.7888 33.3106C24.682 33.3167 24.5755 33.2934 24.481 33.2434C24.3864 33.1933 24.3074 33.1182 24.2525 33.0264C24.1976 32.9345 24.1689 32.8294 24.1695 32.7224V26.5437C24.1695 24.7451 22.8753 23.2489 21.1675 22.9351V35.0318C21.1675 35.2088 21.0972 35.3785 20.972 35.5037C20.8469 35.6288 20.6771 35.6992 20.5001 35.6992C20.4125 35.6992 20.3257 35.6819 20.2447 35.6484C20.1638 35.6148 20.0902 35.5657 20.0283 35.5037C19.9663 35.4417 19.9171 35.3681 19.8836 35.2872C19.8501 35.2062 19.8329 35.1194 19.8329 35.0318V22.9349H19.8328ZM35.1204 36.0726C34.9434 36.0726 34.7736 36.0022 34.6485 35.8771C34.5233 35.7519 34.453 35.5822 34.453 35.4052C34.453 35.2282 34.5233 35.0584 34.6485 34.9333C34.7736 34.8081 34.9434 34.7378 35.1204 34.7378H37.6835V32.1745C37.6862 31.9993 37.7577 31.8322 37.8826 31.7093C38.0074 31.5864 38.1756 31.5175 38.3508 31.5175C38.526 31.5175 38.6942 31.5864 38.819 31.7093C38.9439 31.8322 39.0154 31.9993 39.0181 32.1745V35.4052C39.0181 35.5822 38.9478 35.7519 38.8227 35.8771C38.6975 36.0022 38.5278 36.0725 38.3508 36.0726H35.1204ZM35.1204 6.26203C34.9434 6.26203 34.7736 6.19172 34.6485 6.06657C34.5233 5.94141 34.453 5.77166 34.453 5.59466C34.453 5.41767 34.5233 5.24792 34.6485 5.12276C34.7736 4.9976 34.9434 4.92729 35.1204 4.92729H38.3508C38.7192 4.92729 39.0181 5.22646 39.0181 5.59466V8.82533C39.0181 8.91296 39.0008 8.99973 38.9673 9.08068C38.9338 9.16164 38.8846 9.2352 38.8227 9.29715C38.7607 9.35911 38.6871 9.40826 38.6062 9.44178C38.5252 9.47531 38.4384 9.49256 38.3508 9.49255C38.2632 9.49256 38.1764 9.47531 38.0955 9.44178C38.0145 9.40826 37.9409 9.35911 37.879 9.29715C37.817 9.2352 37.7679 9.16164 37.7343 9.08068C37.7008 8.99973 37.6835 8.91296 37.6835 8.82533V6.26203H35.1204ZM5.8797 4.92729C6.24806 4.92729 6.54683 5.22646 6.54683 5.59466C6.54685 5.68229 6.52961 5.76906 6.49609 5.85002C6.46258 5.93099 6.41344 6.00456 6.35149 6.06653C6.28954 6.1285 6.21599 6.17766 6.13504 6.21121C6.05409 6.24475 5.96732 6.26202 5.8797 6.26203H3.3164V8.82533C3.31642 8.91296 3.29918 8.99973 3.26565 9.08069C3.23213 9.16165 3.18298 9.23521 3.12102 9.29717C3.05906 9.35913 2.9855 9.40828 2.90454 9.4418C2.82358 9.47532 2.73681 9.49257 2.64919 9.49255C2.56156 9.49257 2.47479 9.47532 2.39383 9.4418C2.31287 9.40828 2.23931 9.35913 2.17735 9.29717C2.11539 9.23521 2.06624 9.16165 2.03272 9.08069C1.9992 8.99973 1.98195 8.91296 1.98198 8.82533V5.59466C1.98198 5.22646 2.28059 4.92729 2.64919 4.92729H5.8797ZM5.8797 34.7378C6.24806 34.7378 6.54683 35.0368 6.54683 35.4052C6.54685 35.4928 6.52961 35.5796 6.49609 35.6605C6.46258 35.7415 6.41344 35.8151 6.35149 35.877C6.28954 35.939 6.21599 35.9882 6.13504 36.0217C6.05409 36.0553 5.96732 36.0725 5.8797 36.0726H2.64919C2.56155 36.0726 2.47477 36.0553 2.39381 36.0218C2.31284 35.9882 2.23928 35.9391 2.17732 35.8771C2.11536 35.8151 2.06621 35.7416 2.0327 35.6606C1.99918 35.5796 1.98194 35.4928 1.98198 35.4052V32.1745C1.98198 31.9976 2.05227 31.8279 2.1774 31.7027C2.30252 31.5776 2.47223 31.5073 2.64919 31.5073C2.82614 31.5073 2.99585 31.5776 3.12098 31.7027C3.2461 31.8279 3.3164 31.9976 3.3164 32.1745V34.7378H5.8797ZM0.480591 3.42615H40.5193V37.5739H0.480591V3.42615Z" fill="#2A6495"/>
</g>
</g>
</svg>
