<svg width="41" height="41" viewBox="0 0 41 41" fill="none" xmlns="http://www.w3.org/2000/svg">
<path fill-rule="evenodd" clip-rule="evenodd" d="M15.3345 6.33667C15.2515 6.3063 15.1754 6.2597 15.1107 6.1996C15.0459 6.13949 14.9938 6.06709 14.9573 5.98661C14.9209 5.90614 14.9008 5.8192 14.8983 5.73089C14.8958 5.64257 14.911 5.55464 14.9428 5.47224C14.9747 5.38984 15.0227 5.31461 15.0839 5.25096C15.1452 5.1873 15.2186 5.13649 15.2997 5.1015C15.3808 5.0665 15.4681 5.04802 15.5564 5.04714C15.6448 5.04625 15.7324 5.06298 15.8142 5.09634C17.3175 5.67875 18.9071 5.97008 20.4996 5.97008C22.0924 5.97008 23.6819 5.67875 25.1856 5.09634C25.3501 5.03275 25.5332 5.0371 25.6945 5.10843C25.8558 5.17976 25.9822 5.31223 26.0458 5.47671C26.1093 5.64126 26.1049 5.82429 26.0335 5.98556C25.962 6.14682 25.8295 6.27312 25.665 6.33667C24.0178 6.97558 22.2664 7.30362 20.4996 7.30418C18.7329 7.30356 16.9816 6.97552 15.3345 6.33667ZM10.5556 19.3212C17.0945 20.8717 23.9054 20.8717 30.4443 19.3212V21.3681C23.8883 23.0005 17.1118 23.0005 10.5556 21.3681V19.3212ZM4.45139 17.3855C6.00893 18.0103 7.60168 18.5434 9.22148 18.9822V22.3977C10.7472 22.8174 12.2951 23.1524 13.8578 23.401H13.8273V26.0361C18.5575 26.824 18.5575 27.631 13.8273 28.4572V30.2815C18.5575 31.0694 18.5575 31.8765 13.8273 32.7026V34.527C18.3483 35.4222 18.5241 36.1982 14.355 36.8546C15.3145 37.8647 16.4826 38.5001 17.8587 38.7614C18.5903 39.8603 19.428 40.4447 20.3726 40.5145C21.317 40.4447 22.1548 39.8603 22.8867 38.7614C24.2626 38.5001 25.4304 37.8647 26.3901 36.8546C22.221 36.1981 22.397 35.4222 26.9175 34.527V32.7026C22.1876 31.8765 22.1876 31.0694 26.9175 30.2815V28.4572C22.1876 27.631 22.1876 26.8239 26.9175 26.0361V23.4363C28.5566 23.1843 30.1797 22.8375 31.7787 22.3977V18.9824C33.3984 18.5435 34.9912 18.0103 36.5487 17.3855C37.9492 13.577 37.9387 9.5386 36.8338 5.6307C34.6582 -0.1342 30.4865 -1.05462 24.3185 2.86905C23.099 3.34159 21.7997 3.57798 20.4999 3.57774C19.2007 3.5779 17.9011 3.34159 16.6816 2.86905C10.5135 -1.05462 6.34171 -0.1342 4.16623 5.6307C3.06131 9.5386 3.05074 13.577 4.45139 17.3855Z" fill="#2A6495"/>
</svg>
