<svg width="41" height="41" viewBox="0 0 41 41" fill="none" xmlns="http://www.w3.org/2000/svg">
<path fill-rule="evenodd" clip-rule="evenodd" d="M5.97686 29.7261C5.88069 30.0746 5.5201 30.2786 5.17192 30.1824C4.82358 30.0864 4.6193 29.7258 4.71547 29.3774L5.35177 27.0794C5.49455 26.5647 5.80614 26.1393 6.21606 25.8526C6.63811 25.5577 7.15 25.4195 7.66315 25.4621L9.87923 25.6439C10.2401 25.6718 10.5102 25.9876 10.4817 26.3489C10.475 26.4347 10.4514 26.5184 10.4123 26.5952C10.3732 26.6719 10.3194 26.7402 10.2539 26.7962C10.1884 26.8521 10.1125 26.8946 10.0306 26.9212C9.94871 26.9478 9.86236 26.9581 9.77649 26.9513L7.56065 26.77C7.33747 26.7517 7.12927 26.8099 6.96479 26.9249C6.79903 27.0403 6.6721 27.2148 6.61309 27.4282L5.97686 29.7261ZM7.53879 24.085C7.44253 24.4336 7.0821 24.638 6.73392 24.5415C6.65111 24.5186 6.57362 24.4797 6.50587 24.4268C6.43812 24.374 6.38144 24.3083 6.33907 24.2336C6.29669 24.1588 6.26946 24.0765 6.25892 23.9912C6.24838 23.906 6.25474 23.8195 6.27764 23.7366L6.56312 22.7056C6.7055 22.1904 7.017 21.7652 7.42732 21.4788C7.84936 21.1838 8.36122 21.0455 8.87441 21.0878L10.2429 21.2002C10.3287 21.207 10.4124 21.2305 10.4891 21.2696C10.5659 21.3087 10.6341 21.3625 10.6901 21.4279C10.746 21.4934 10.7885 21.5692 10.8151 21.6511C10.8417 21.733 10.852 21.8193 10.8452 21.9052C10.8385 21.9911 10.8149 22.0748 10.7759 22.1515C10.7368 22.2283 10.683 22.2966 10.6175 22.3526C10.552 22.4086 10.4762 22.4511 10.3943 22.4777C10.3124 22.5044 10.226 22.5147 10.1401 22.5079L8.77183 22.3958C8.54865 22.3776 8.34045 22.436 8.17605 22.5507C8.01021 22.6666 7.8832 22.8413 7.82427 23.0545L7.53879 24.085ZM8.87185 19.291C8.77143 19.6379 8.40852 19.8376 8.0617 19.7374C7.71504 19.6366 7.51508 19.2738 7.61566 18.9271L7.89129 17.9805C8.02775 17.5122 8.33909 17.1404 8.73492 16.9159L8.73419 16.9148C9.13074 16.6906 9.61081 16.6155 10.0826 16.7401L10.9984 16.9825C11.348 17.0741 11.557 17.4324 11.465 17.7821C11.4432 17.8653 11.4052 17.9433 11.3531 18.0118C11.3011 18.0803 11.2361 18.1379 11.1618 18.1812C11.0875 18.2245 11.0054 18.2528 10.9202 18.2644C10.835 18.276 10.7484 18.2707 10.6652 18.2488L9.74934 18.0066C9.62509 17.9734 9.49279 17.99 9.38058 18.0529L9.37978 18.0521L9.37778 18.0529C9.26593 18.1163 9.18331 18.221 9.14756 18.3446L8.87185 19.291ZM10.5315 15.168C10.3306 15.4679 9.924 15.548 9.62386 15.3472C9.47974 15.2506 9.37988 15.1008 9.34624 14.9306C9.3126 14.7604 9.34794 14.5839 9.44449 14.4397C9.53287 14.3074 9.62421 14.177 9.71843 14.0487C9.81325 13.9202 9.91075 13.7937 10.0109 13.6693C10.1675 13.475 10.3527 13.3208 10.5644 13.2076C10.7739 13.0955 11.0043 13.0276 11.2531 13.0049C11.5033 12.9822 11.7422 13.0075 11.9681 13.0804C12.1951 13.1534 12.4047 13.2723 12.5943 13.4359L13.1417 13.909C13.4149 14.1453 13.4446 14.5585 13.2084 14.8317C13.0948 14.9628 12.9338 15.0435 12.7607 15.056C12.5877 15.0686 12.4167 15.0119 12.2854 14.8985L11.738 14.4257C11.6833 14.3783 11.6263 14.3448 11.5681 14.3263C11.5088 14.3072 11.4428 14.301 11.3712 14.3072C11.2985 14.3139 11.2344 14.3321 11.1795 14.3613C11.1273 14.389 11.0774 14.432 11.0312 14.4896C10.9432 14.5989 10.8576 14.7102 10.7745 14.8232C10.691 14.9363 10.61 15.0513 10.5315 15.168ZM36.2844 29.3774C36.3806 29.7258 36.1763 30.0864 35.828 30.1824C35.4797 30.2786 35.1192 30.0745 35.023 29.7261L34.3866 27.4282C34.3277 27.2149 34.201 27.0407 34.035 26.925C33.8706 26.81 33.6626 26.7518 33.4391 26.7701L31.2233 26.9514C31.0499 26.965 30.8782 26.9091 30.746 26.7962C30.6137 26.6832 30.5318 26.5223 30.5181 26.349C30.4897 25.9876 30.7597 25.6719 31.1208 25.644L33.3365 25.4622C33.8497 25.4196 34.3616 25.5577 34.7837 25.8527C35.1934 26.1391 35.5054 26.5648 35.6479 27.0795L36.2844 29.3774ZM34.7223 23.7366C34.7685 23.9039 34.7464 24.0826 34.6608 24.2335C34.5753 24.3845 34.4333 24.4952 34.2661 24.5415C34.1832 24.5644 34.0967 24.5708 34.0114 24.5603C33.9261 24.5498 33.8437 24.5225 33.7689 24.4801C33.6942 24.4377 33.6285 24.381 33.5756 24.3132C33.5228 24.2454 33.4839 24.1678 33.461 24.085L33.1756 23.0545C33.1167 22.8413 32.9899 22.6666 32.8239 22.5507C32.6594 22.436 32.4513 22.3777 32.2279 22.3958L30.8595 22.5079C30.4985 22.5363 30.1828 22.2661 30.1544 21.9052C30.1409 21.7318 30.1968 21.5602 30.3097 21.428C30.4227 21.2958 30.5836 21.2139 30.757 21.2002L32.1254 21.0878C32.6386 21.0455 33.1505 21.1838 33.5725 21.4788C33.9827 21.7652 34.2945 22.1905 34.4368 22.7056L34.7223 23.7366ZM33.3842 18.9271C33.4324 19.0937 33.4125 19.2726 33.3289 19.4245C33.2452 19.5764 33.1047 19.689 32.9382 19.7374C32.7716 19.7855 32.5926 19.7656 32.4407 19.6819C32.2888 19.5982 32.1763 19.4576 32.128 19.291L31.8525 18.3447C31.8167 18.2212 31.7341 18.1165 31.6223 18.0529L31.6203 18.0521L31.6195 18.0529C31.5073 17.9901 31.375 17.9735 31.2507 18.0067L30.3349 18.2489C29.9852 18.3408 29.6269 18.1322 29.5351 17.7822C29.443 17.4325 29.6519 17.0741 30.0016 16.9825L30.9174 16.7401C31.3891 16.6155 31.8693 16.6907 32.2658 16.9149L32.2651 16.916C32.6607 17.1404 32.9724 17.5123 33.1087 17.9806L33.3842 18.9271ZM31.5555 14.4397C31.652 14.5839 31.6873 14.7604 31.6536 14.9306C31.62 15.1008 31.5201 15.2506 31.376 15.3472C31.0758 15.548 30.6693 15.4679 30.4683 15.168C30.3899 15.0512 30.3089 14.9363 30.2253 14.8232C30.1423 14.7101 30.0567 14.5989 29.9688 14.4896C29.9225 14.432 29.8728 14.389 29.8203 14.3613C29.7658 14.3321 29.7015 14.3139 29.6288 14.3072C29.5571 14.301 29.4911 14.3072 29.4317 14.3263C29.3734 14.3448 29.3165 14.3783 29.2619 14.4257L28.7144 14.8985C28.6494 14.9547 28.574 14.9976 28.4925 15.0246C28.411 15.0517 28.3249 15.0624 28.2392 15.0562C28.1535 15.05 28.0699 15.027 27.9931 14.9885C27.9163 14.95 27.8478 14.8967 27.7916 14.8318C27.7354 14.7668 27.6926 14.6914 27.6655 14.6098C27.6384 14.5283 27.6277 14.4422 27.6339 14.3565C27.6401 14.2709 27.6631 14.1872 27.7016 14.1104C27.7401 14.0336 27.7934 13.9652 27.8584 13.909L28.4055 13.4359C28.5952 13.2723 28.8047 13.1534 29.0318 13.0804C29.2575 13.0075 29.4966 12.9821 29.7469 13.0049C29.9956 13.0276 30.2259 13.0955 30.4357 13.2076C30.6475 13.3208 30.8326 13.475 30.9891 13.6693C31.0893 13.7936 31.1868 13.9201 31.2815 14.0487C31.3757 14.177 31.4671 14.3074 31.5555 14.4397ZM14.0234 12.7295C13.9483 12.7713 13.8657 12.7979 13.7804 12.8078C13.695 12.8176 13.6085 12.8106 13.5259 12.787C13.4433 12.7635 13.3661 12.7239 13.2988 12.6705C13.2315 12.6171 13.1753 12.5509 13.1336 12.4758C12.9581 12.1602 13.0718 11.7617 13.3875 11.5861C15.6027 10.3586 18.0528 9.74475 20.4999 9.74475C22.9473 9.74475 25.3971 10.3586 27.6123 11.5861C27.928 11.7617 28.0418 12.1602 27.8659 12.4758C27.8242 12.5509 27.7681 12.6171 27.7008 12.6705C27.6335 12.7239 27.5563 12.7635 27.4737 12.7871C27.3911 12.8106 27.3046 12.8177 27.2193 12.8078C27.1339 12.7979 27.0514 12.7713 26.9763 12.7295C24.9648 11.6148 22.7338 11.0572 20.4999 11.0572C18.2661 11.0572 16.035 11.6148 14.0234 12.7295ZM21.3873 5.55811H22.749C29.4335 5.67382 35.234 10.201 36.9706 16.6569L40.0577 27.8065C40.3945 29.024 40.1081 30.2528 39.3481 31.1747C39.5462 30.3334 39.5366 29.4335 39.2906 28.5448L36.0684 16.907C34.3722 10.7818 29.0398 6.64076 22.7186 6.4983C22.3769 6.06082 21.9139 5.73378 21.3873 5.55811ZM1.65176 31.1747C0.891904 30.2528 0.605304 29.024 0.942353 27.8065L4.02912 16.6569C5.76578 10.201 11.5664 5.6739 18.2509 5.55811H19.6126C19.0861 5.73365 18.623 6.06068 18.2814 6.49822C11.96 6.64068 6.62758 10.7818 4.93152 16.9069L1.70934 28.5447C1.46326 29.4335 1.45389 30.3334 1.65176 31.1747ZM19.0603 7.80702C19.1512 7.49556 19.3407 7.22199 19.6003 7.02734C19.8598 6.83269 20.1755 6.72748 20.5 6.72748C20.8244 6.72748 21.1401 6.83269 21.3997 7.02734C21.6593 7.22199 21.8487 7.49556 21.9396 7.80702H22.3811C28.2594 7.80702 33.2344 11.5918 34.8031 17.2572L38.0255 28.8951C38.511 30.6484 37.7821 32.4466 36.2128 33.3672L33.3292 35.0588C32.4991 35.5454 31.5549 35.5695 30.7011 35.1253C29.8474 34.6817 29.3244 33.8952 29.246 32.9361L28.1429 19.4536C27.3583 15.8607 24.1773 13.2994 20.5 13.2994C16.8224 13.2994 13.6415 15.8606 12.8571 19.4536L11.7539 32.9361C11.6756 33.8952 11.1525 34.6817 10.2988 35.1253C9.44505 35.5695 8.50069 35.5454 7.6706 35.0588L4.78722 33.3672C3.21777 32.4466 2.48898 30.6484 2.97442 28.8951L6.19692 17.2572C7.76549 11.5918 12.7404 7.80702 18.6189 7.80702H19.0603Z" fill="#2A6495"/>
</svg>
