<svg width="41" height="41" viewBox="0 0 41 41" fill="none" xmlns="http://www.w3.org/2000/svg">
<path fill-rule="evenodd" clip-rule="evenodd" d="M14.5972 35.6306C17.2717 37.641 20.5964 38.8328 24.1999 38.8328C26.5534 38.8328 28.7884 38.3245 30.8008 37.4117L38.8228 38.6247C39.114 38.6687 39.3858 38.5619 39.5692 38.3315C39.7525 38.1011 39.7955 37.8122 39.6871 37.5383L37.4298 31.8322C39.1772 29.2681 40.1992 26.1703 40.1992 22.8334C40.1992 16.6709 36.7146 11.3234 31.6088 8.65088C33.3756 11.3947 34.4011 14.6609 34.4011 18.1666C34.4011 27.8869 26.5203 35.7676 16.8001 35.7676C16.0637 35.7677 15.328 35.722 14.5972 35.6306ZM16.8001 2.16736C25.6364 2.16736 32.7995 9.33051 32.7995 18.1667C32.7995 27.0029 25.6364 34.1661 16.8001 34.1661C14.4466 34.1661 12.2116 33.6578 10.1992 32.745L2.17716 33.958C1.886 34.002 1.61421 33.8952 1.43084 33.6648C1.24746 33.4343 1.20454 33.1455 1.31288 32.8716L3.5702 27.1655C1.82282 24.6015 0.800781 21.5036 0.800781 18.1667C0.800781 9.33051 7.96393 2.16736 16.8001 2.16736ZM19.1981 11.1599C19.4186 11.1599 19.5985 11.3397 19.5985 11.5603V15.3685H23.4067C23.6272 15.3685 23.8071 15.5483 23.8071 15.7689V20.5647C23.8071 20.7853 23.6272 20.9651 23.4067 20.9651H19.5985V24.7733C19.5985 24.9939 19.4186 25.1737 19.1981 25.1737H14.4022C14.2961 25.1735 14.1944 25.1313 14.1193 25.0562C14.0443 24.9812 14.002 24.8795 14.0018 24.7733V20.9651H10.1936C10.0875 20.9649 9.98578 20.9227 9.91074 20.8476C9.8357 20.7726 9.79345 20.6709 9.79323 20.5647V15.7689C9.79323 15.5483 9.97309 15.3685 10.1936 15.3685H14.0018V11.5603C14.0018 11.3397 14.1817 11.1599 14.4022 11.1599H19.1981Z" fill="#2A6495"/>
</svg>
