<svg width="41" height="41" viewBox="0 0 41 41" fill="none" xmlns="http://www.w3.org/2000/svg">
<path fill-rule="evenodd" clip-rule="evenodd" d="M12.1277 13.909L13.1591 17.2654L16.5156 18.2966L13.1591 19.3277L12.1277 22.6841L11.0967 19.3277L7.74034 18.2966L11.0967 17.2654L12.1277 13.909ZM14.1576 6.35446C14.0761 6.32299 14.0017 6.27579 13.9385 6.21555C13.8753 6.15531 13.8246 6.08322 13.7893 6.00339C13.754 5.92355 13.7347 5.83754 13.7327 5.75027C13.7306 5.663 13.7457 5.57617 13.7772 5.49474C13.8087 5.4133 13.8559 5.33885 13.9161 5.27565C13.9763 5.21245 14.0484 5.16173 14.1283 5.12639C14.2081 5.09106 14.2941 5.07179 14.3814 5.0697C14.4687 5.06761 14.5555 5.08274 14.637 5.11421C16.1403 5.69662 17.7294 5.98795 19.322 5.98795C20.9146 5.98795 22.5036 5.69662 24.0071 5.11421C24.3493 4.982 24.7345 5.15217 24.8667 5.49474C24.9303 5.65918 24.9259 5.84213 24.8546 6.00335C24.7833 6.16457 24.6509 6.29087 24.4864 6.35446C22.8215 6.99917 21.07 7.32181 19.322 7.32181C17.5556 7.32104 15.8045 6.99306 14.1576 6.35446ZM6.23503 9.09073L5.43217 6.47746L4.62938 9.09073C4.59759 9.19454 4.54083 9.28897 4.46407 9.36575C4.38732 9.44254 4.29291 9.49933 4.18911 9.53116L1.57568 10.334L4.18911 11.1366C4.29293 11.1684 4.38736 11.2251 4.46412 11.3019C4.54088 11.3787 4.59763 11.4732 4.62938 11.577L5.43217 14.1903L6.23503 11.577C6.26686 11.4732 6.32365 11.3787 6.40043 11.302C6.47721 11.2252 6.57164 11.1684 6.67546 11.1366L9.28865 10.334L6.67546 9.53116C6.57165 9.49932 6.47722 9.44253 6.40044 9.36575C6.32366 9.28897 6.26687 9.19454 6.23503 9.09073ZM31.4846 32.2103C32.0381 30.9452 32.5339 29.764 32.9726 28.6671L32.0158 27.265C31.9665 27.1928 31.9319 27.1117 31.914 27.0261C31.8961 26.9406 31.8953 26.8523 31.9115 26.7664C31.9277 26.6805 31.9606 26.5987 32.0085 26.5255C32.0563 26.4524 32.1181 26.3894 32.1903 26.3401C32.2625 26.2908 32.3436 26.2563 32.4292 26.2384C32.5147 26.2205 32.603 26.2196 32.6889 26.2358C32.7747 26.252 32.8566 26.285 32.9297 26.3328C33.0029 26.3806 33.0659 26.4424 33.1152 26.5146L33.5575 27.1631C33.7373 26.6877 33.9114 26.2102 34.0799 25.7306C34.8422 23.5562 35.289 21.8545 35.4195 20.6257C35.4579 20.2604 35.7857 19.9957 36.151 20.0341C36.3264 20.0528 36.4872 20.1404 36.5981 20.2775C36.709 20.4147 36.7608 20.5903 36.7423 20.7657C36.6682 21.4649 36.5041 22.2921 36.2505 23.2471L36.6277 23.0804C36.7894 23.0092 36.9728 23.0052 37.1374 23.0692C37.3021 23.1332 37.4346 23.26 37.5057 23.4217C37.5769 23.5834 37.5809 23.7668 37.5169 23.9314C37.4529 24.0961 37.3261 24.2286 37.1644 24.2997L35.7563 24.9219C35.6222 25.3396 35.4824 25.7555 35.3369 26.1693C34.7803 27.7569 34.0611 29.5815 33.1797 31.6433C35.575 30.0513 37.2454 28.1053 37.886 24.906C38.5771 21.4544 37.5006 18.5673 35.4941 15.8265C32.5662 20.3859 26.0597 22.4167 31.4846 32.2103ZM19.3221 24.2056C16.1592 24.2056 13.5949 26.7697 13.5949 29.9328V39.576C13.5959 39.743 13.5511 39.9072 13.4654 40.0505C13.3797 40.1939 13.2564 40.3111 13.1088 40.3894C12.9612 40.4676 12.795 40.504 12.6282 40.4945C12.4615 40.485 12.3005 40.43 12.1627 40.3355C6.19067 36.1894 3.84165 30.2511 5.11586 22.5205C5.31221 21.3306 5.07494 21.0517 4.52888 20.0924C3.04328 17.4839 2.30632 14.7165 2.20398 11.9185L3.46136 12.3047L4.79651 16.6509C4.83837 16.7868 4.9227 16.9058 5.03712 16.9902C5.15153 17.0747 5.29002 17.1203 5.43225 17.1203C5.57447 17.1203 5.71296 17.0747 5.82738 16.9902C5.94179 16.9058 6.02612 16.7868 6.06799 16.6509L7.40321 12.3047L11.7491 10.9698C11.853 10.9381 11.9474 10.8813 12.0242 10.8045C12.101 10.7277 12.1577 10.6332 12.1895 10.5293C12.2973 10.1784 12.1002 9.80599 11.7491 9.69829L7.40321 8.36306L6.06799 4.01714C6.03625 3.91328 5.97949 3.8188 5.90269 3.74201C5.8259 3.66521 5.73142 3.60845 5.62756 3.57671C5.27657 3.46877 4.90413 3.66592 4.79651 4.01714L3.46136 8.36306L2.35909 8.70171C2.4929 7.67928 2.70551 6.65964 2.99138 5.64857C5.16631 -0.115369 9.33734 -1.03571 15.5044 2.8874C17.9431 3.83232 20.7011 3.83232 23.1397 2.8874C29.3068 -1.03571 33.4778 -0.115449 35.6529 5.64857C36.5023 8.65271 36.7047 11.734 36.1168 14.7286C38.8183 17.4887 39.9511 21.3862 39.1941 25.1682C38.4404 28.9318 35.8864 32.0846 32.3638 33.6047C31.1453 36.2155 29.1843 38.4592 26.4814 40.3357C26.3436 40.4301 26.1826 40.485 26.0159 40.4945C25.8491 40.504 25.6829 40.4676 25.5353 40.3894C25.3878 40.3111 25.2645 40.1939 25.1788 40.0506C25.0932 39.9072 25.0483 39.7432 25.0491 39.5762V29.933C25.0491 26.7697 22.4852 24.2056 19.3221 24.2056Z" fill="#2A6495"/>
</svg>
