<svg width="28" height="28" viewBox="0 0 28 28" fill="none" xmlns="http://www.w3.org/2000/svg">
<path fill-rule="evenodd" clip-rule="evenodd" d="M7.33366 0.666664C5.56555 0.666664 3.86986 1.36904 2.61961 2.61929C1.36937 3.86953 0.666992 5.56522 0.666992 7.33333V20.6667C0.666992 22.4348 1.36937 24.1305 2.61961 25.3807C3.86986 26.631 5.56555 27.3333 7.33366 27.3333H20.667C22.4351 27.3333 24.1308 26.631 25.381 25.3807C26.6313 24.1305 27.3337 22.4348 27.3337 20.6667V7.33333C27.3337 5.56522 26.6313 3.86953 25.381 2.61929C24.1308 1.36904 22.4351 0.666664 20.667 0.666664H7.33366ZM18.9737 12.2453C19.0934 12.1175 19.1868 11.9674 19.2486 11.8034C19.3103 11.6395 19.3392 11.465 19.3335 11.29C19.3278 11.1149 19.2876 10.9427 19.2154 10.7831C19.1431 10.6235 19.0401 10.4798 18.9123 10.36C18.7845 10.2402 18.6343 10.1468 18.4704 10.0851C18.3065 10.0233 18.132 9.9945 17.957 10.0002C17.7819 10.0059 17.6097 10.046 17.4501 10.1183C17.2905 10.1905 17.1468 10.2935 17.027 10.4213L12.9163 14.808L10.8857 13.004C10.6196 12.7828 10.278 12.6737 9.93299 12.6998C9.58799 12.7258 9.26661 12.8849 9.03676 13.1435C8.8069 13.4021 8.68656 13.7399 8.70116 14.0856C8.71576 14.4312 8.86415 14.7577 9.11499 14.996L12.115 17.6627C12.3746 17.8932 12.7139 18.0135 13.0607 17.9978C13.4076 17.9821 13.7346 17.8317 13.9723 17.5787L18.9737 12.2453Z" fill="white"/>
</svg>
