<svg width="254" height="64" viewBox="0 0 254 64" fill="none" xmlns="http://www.w3.org/2000/svg">
<rect x="250" y="12" width="40" height="246" transform="rotate(90 250 12)" fill="#B6B1C9"/>
<rect x="242" y="4" width="4" height="230" transform="rotate(90 242 4)" fill="#B6B1C9"/>
<rect x="242" y="8" width="4" height="230" transform="rotate(90 242 8)" fill="#B6B1C9"/>
<rect x="240" y="12" width="36" height="226" transform="rotate(90 240 12)" fill="#719F09"/>
<rect x="250" y="12" width="4" height="4" transform="rotate(90 250 12)" fill="#030500"/>
<rect x="246" y="52" width="4" height="4" transform="rotate(90 246 52)" fill="#030500"/>
<rect x="12" y="52" width="4" height="4" transform="rotate(90 12 52)" fill="#030500"/>
<rect x="242" y="56" width="4" height="4" transform="rotate(90 242 56)" fill="#030500"/>
<rect x="240" y="44" width="4" height="4" transform="rotate(90 240 44)" fill="#030500"/>
<rect x="18" y="44" width="4" height="4" transform="rotate(90 18 44)" fill="#030500"/>
<rect x="16" y="56" width="4" height="4" transform="rotate(90 16 56)" fill="#030500"/>
<rect x="246" y="8" width="4" height="4" transform="rotate(90 246 8)" fill="#030500"/>
<rect x="240" y="12" width="4" height="4" transform="rotate(90 240 12)" fill="#030500"/>
<rect x="242" y="4" width="4" height="4" transform="rotate(90 242 4)" fill="#030500"/>
<rect x="16" y="4" width="4" height="4" transform="rotate(90 16 4)" fill="#030500"/>
<rect x="12" y="8" width="4" height="4" transform="rotate(90 12 8)" fill="#030500"/>
<rect x="18" y="12" width="4" height="4" transform="rotate(90 18 12)" fill="#030500"/>
<rect x="8" y="12" width="4" height="4" transform="rotate(90 8 12)" fill="#030500"/>
<rect x="238" y="56" width="4" height="222" transform="rotate(90 238 56)" fill="#8381AD"/>
<rect x="242" y="52" width="4" height="226" transform="rotate(90 242 52)" fill="#DEDBE4"/>
<rect x="16" y="52" width="4" height="4" transform="rotate(90 16 52)" fill="#8381AD"/>
<rect x="242" y="52" width="4" height="4" transform="rotate(90 242 52)" fill="#8381AD"/>
<rect x="12" y="48" width="4" height="4" transform="rotate(90 12 48)" fill="#DEDBE4"/>
<rect x="246" y="48" width="4" height="4" transform="rotate(90 246 48)" fill="#DEDBE4"/>
<rect x="254" y="16" width="32" height="4" transform="rotate(90 254 16)" fill="#030500"/>
<rect x="244" y="16" width="28" height="4" transform="rotate(90 244 16)" fill="#030500"/>
<rect x="18" y="16" width="28" height="4" transform="rotate(90 18 16)" fill="#54730E"/>
<rect x="240" y="16" width="28" height="4" transform="rotate(90 240 16)" fill="#B2D26B"/>
<rect x="236" y="48" width="218" height="3.99998" transform="rotate(-180 236 48)" fill="#54730E"/>
<rect x="236" y="16" width="218" height="3.99998" transform="rotate(-180 236 16)" fill="#B2D26B"/>
<rect x="14" y="16" width="28" height="4" transform="rotate(90 14 16)" fill="#030500"/>
<rect x="4" y="16" width="32" height="4" transform="rotate(90 4 16)" fill="#030500"/>
<rect x="238" y="64" width="222" height="3.99998" transform="rotate(-180 238 64)" fill="#030500"/>
<rect x="238" y="4" width="222" height="3.99998" transform="rotate(-180 238 4)" fill="#030500"/>
<rect x="236" y="12" width="218" height="3.99998" transform="rotate(-180 236 12)" fill="#030500"/>
<rect x="236" y="52" width="218" height="3.99998" transform="rotate(-180 236 52)" fill="#030500"/>
<rect x="250" y="48" width="4" height="4" transform="rotate(90 250 48)" fill="#030500"/>
<rect x="8" y="48" width="4" height="4" transform="rotate(90 8 48)" fill="#030500"/>
</svg>
