<svg width="237" height="125" viewBox="0 0 237 125" fill="none" xmlns="http://www.w3.org/2000/svg">
<g clip-path="url(#clip0_27_186)">
<path d="M15.974 81.6863L16.1873 86.2066H15.6471C15.5429 85.4106 15.4007 84.842 15.2207 84.5008C14.9269 83.9512 14.5336 83.5485 14.0408 83.2926C13.5575 83.0272 12.9179 82.8946 12.1219 82.8946H9.40686V97.621C9.40686 98.8056 9.53479 99.5447 9.79066 99.8385C10.1508 100.236 10.7051 100.436 11.4538 100.436H12.1219V100.961H3.94842V100.436H4.63072C5.4457 100.436 6.02376 100.189 6.36492 99.6963C6.5734 99.3931 6.67764 98.7013 6.67764 97.621V82.8946H4.36064C3.46038 82.8946 2.82072 82.9609 2.44166 83.0936C1.94889 83.2736 1.52718 83.6195 1.17655 84.1313C0.825925 84.643 0.617443 85.3348 0.551108 86.2066H0.0109494L0.238384 81.6863H15.974ZM36.5996 100.961H31.4538L24.9293 91.9493C24.446 91.9683 24.0527 91.9778 23.7495 91.9778C23.6263 91.9778 23.4936 91.9778 23.3515 91.9778C23.2093 91.9683 23.0624 91.9588 22.9108 91.9493V97.5499C22.9108 98.7629 23.0435 99.5163 23.3088 99.8101C23.6689 100.227 24.2091 100.436 24.9293 100.436H25.6827V100.961H17.4239V100.436H18.1489C18.9639 100.436 19.5467 100.17 19.8973 99.6395C20.0963 99.3457 20.1958 98.6492 20.1958 97.5499V85.0979C20.1958 83.8849 20.0631 83.1315 19.7978 82.8377C19.4282 82.4208 18.8786 82.2123 18.1489 82.2123H17.4239V81.6863H24.446C26.4929 81.6863 27.9997 81.838 28.9663 82.1412C29.9423 82.435 30.7668 82.9846 31.4396 83.7901C32.1219 84.5861 32.4631 85.5385 32.4631 86.6473C32.4631 87.8318 32.0746 88.86 31.2975 89.7318C30.5299 90.6037 29.3359 91.2196 27.7154 91.5798L31.6955 97.1093C32.6052 98.3791 33.387 99.2225 34.0409 99.6395C34.6948 100.056 35.5477 100.322 36.5996 100.436V100.961ZM22.9108 91.0538C23.0909 91.0538 23.2472 91.0585 23.3799 91.068C23.5126 91.068 23.6215 91.068 23.7068 91.068C25.5453 91.068 26.9288 90.67 27.8575 89.874C28.7957 89.078 29.2648 88.064 29.2648 86.832C29.2648 85.6285 28.8857 84.6525 28.1276 83.9038C27.379 83.1457 26.3839 82.7666 25.1425 82.7666C24.5929 82.7666 23.849 82.8567 22.9108 83.0367V91.0538ZM49.6629 94.508H42.2001L40.8924 97.5499C40.5702 98.2986 40.4091 98.8577 40.4091 99.2273C40.4091 99.521 40.5465 99.7816 40.8213 100.009C41.1056 100.227 41.7121 100.369 42.6408 100.436V100.961H36.5711V100.436C37.3766 100.293 37.8978 100.109 38.1347 99.8811C38.618 99.4263 39.1535 98.5023 39.741 97.1093L46.5214 81.2457H47.0189L53.7283 97.2798C54.2684 98.5686 54.7565 99.4073 55.1924 99.7958C55.6378 100.175 56.2537 100.388 57.0403 100.436V100.961H49.4354V100.436C50.203 100.398 50.7195 100.27 50.9848 100.052C51.2596 99.8337 51.3971 99.5684 51.3971 99.2557C51.3971 98.8387 51.2075 98.1801 50.8285 97.2798L49.6629 94.508ZM49.2648 93.4561L45.9955 85.6664L42.6408 93.4561H49.2648ZM74.2969 81.6863V82.2123C73.6146 82.3355 73.0981 82.5534 72.7475 82.8661C72.2453 83.3305 71.7999 84.0412 71.4113 84.9984L64.6878 101.402H64.1618L56.9408 84.7851C56.5712 83.9323 56.3106 83.411 56.159 83.2215C55.9221 82.9277 55.6283 82.7003 55.2777 82.5392C54.9365 82.3686 54.4722 82.2597 53.8846 82.2123V81.6863H61.7596V82.2123C60.8688 82.2976 60.2907 82.4492 60.0254 82.6671C59.76 82.8851 59.6274 83.1647 59.6274 83.5058C59.6274 83.9796 59.8453 84.7188 60.2812 85.7233L65.1853 97.024L69.734 85.8654C70.1794 84.7662 70.4021 84.0033 70.4021 83.5769C70.4021 83.3021 70.2647 83.0415 69.9899 82.7951C69.7151 82.5392 69.2507 82.3592 68.5968 82.2549C68.5494 82.2454 68.4689 82.2312 68.3552 82.2123V81.6863H74.2969ZM80.7504 82.7382V90.3573H84.9864C86.0856 90.3573 86.8201 90.1915 87.1896 89.8598C87.6824 89.4239 87.9572 88.6563 88.0141 87.557H88.54V94.2663H88.0141C87.8814 93.3282 87.7488 92.7264 87.6161 92.4611C87.4455 92.1294 87.166 91.8688 86.7774 91.6793C86.3889 91.4897 85.7919 91.395 84.9864 91.395H80.7504V97.7489C80.7504 98.6018 80.7883 99.123 80.8641 99.3125C80.9399 99.4926 81.0726 99.6395 81.2621 99.7532C81.4516 99.8574 81.8118 99.9096 82.3424 99.9096H85.6118C86.7016 99.9096 87.4929 99.8337 87.9857 99.6821C88.4784 99.5305 88.9523 99.232 89.4071 98.7866C89.9947 98.1991 90.5964 97.313 91.2124 96.1285H91.781L90.1179 100.961H75.2635V100.436H75.9458C76.4007 100.436 76.8319 100.327 77.2394 100.109C77.5426 99.9569 77.7464 99.7295 77.8506 99.4263C77.9643 99.123 78.0212 98.5023 78.0212 97.5641V85.041C78.0212 83.8185 77.898 83.0652 77.6516 82.7809C77.3104 82.4018 76.7418 82.2123 75.9458 82.2123H75.2635V81.6863H90.1179L90.3311 85.9081H89.7767C89.5777 84.8941 89.355 84.1976 89.1086 83.8185C88.8717 83.4395 88.5164 83.1504 88.0425 82.9514C87.6635 82.8093 86.9954 82.7382 86.0383 82.7382H80.7504ZM109.151 95.6309L109.62 95.7304L107.972 100.961H93.0461V100.436H93.771C94.586 100.436 95.1688 100.17 95.5194 99.6395C95.7185 99.3362 95.818 98.635 95.818 97.5357V85.0979C95.818 83.8943 95.6853 83.141 95.4199 82.8377C95.0504 82.4208 94.5007 82.2123 93.771 82.2123H93.0461V81.6863H101.774V82.2123C100.75 82.2028 100.03 82.2976 99.6133 82.4966C99.2058 82.6956 98.9262 82.9467 98.7746 83.2499C98.623 83.5532 98.5472 84.2781 98.5472 85.4248V97.5357C98.5472 98.3223 98.623 98.8624 98.7746 99.1562C98.8883 99.3552 99.0636 99.5021 99.3006 99.5968C99.5375 99.6916 100.277 99.739 101.518 99.739H102.925C104.404 99.739 105.441 99.63 106.038 99.412C106.635 99.1941 107.18 98.8103 107.673 98.2607C108.166 97.7015 108.659 96.825 109.151 95.6309ZM134.326 81.2457L134.823 87.3296H134.326C133.823 85.8133 133.174 84.6714 132.378 83.9038C131.231 82.7951 129.758 82.2407 127.957 82.2407C125.503 82.2407 123.636 83.212 122.357 85.1547C121.286 86.7941 120.751 88.7463 120.751 91.0112C120.751 92.8496 121.106 94.5269 121.817 96.0432C122.527 97.5594 123.456 98.6729 124.603 99.3836C125.759 100.085 126.943 100.436 128.156 100.436C128.867 100.436 129.554 100.345 130.218 100.165C130.881 99.9854 131.521 99.72 132.136 99.3694V93.7972C132.136 92.8306 132.061 92.2005 131.909 91.9067C131.767 91.6034 131.539 91.376 131.227 91.2244C130.924 91.0633 130.383 90.9827 129.606 90.9827V90.4426H137.069V90.9827H136.714C135.974 90.9827 135.467 91.2291 135.193 91.7219C135.003 92.0725 134.908 92.7643 134.908 93.7972V99.6963C133.819 100.284 132.743 100.715 131.682 100.99C130.62 101.265 129.44 101.402 128.142 101.402C124.418 101.402 121.589 100.208 119.656 97.82C118.206 96.029 117.481 93.9631 117.481 91.6224C117.481 89.9261 117.889 88.3009 118.704 86.7468C119.67 84.8988 120.997 83.4774 122.684 82.4824C124.096 81.6579 125.764 81.2457 127.687 81.2457C128.389 81.2457 129.023 81.3025 129.592 81.4163C130.17 81.53 130.985 81.7811 132.037 82.1696C132.568 82.3686 132.923 82.4681 133.103 82.4681C133.283 82.4681 133.435 82.3876 133.558 82.2265C133.691 82.0559 133.771 81.729 133.8 81.2457H134.326ZM157.169 100.961H152.023L145.498 91.9493C145.015 91.9683 144.622 91.9778 144.318 91.9778C144.195 91.9778 144.063 91.9778 143.92 91.9778C143.778 91.9683 143.631 91.9588 143.48 91.9493V97.5499C143.48 98.7629 143.612 99.5163 143.878 99.8101C144.238 100.227 144.778 100.436 145.498 100.436H146.252V100.961H137.993V100.436H138.718C139.533 100.436 140.116 100.17 140.466 99.6395C140.665 99.3457 140.765 98.6492 140.765 97.5499V85.0979C140.765 83.8849 140.632 83.1315 140.367 82.8377C139.997 82.4208 139.448 82.2123 138.718 82.2123H137.993V81.6863H145.015C147.062 81.6863 148.569 81.838 149.535 82.1412C150.511 82.435 151.336 82.9846 152.009 83.7901C152.691 84.5861 153.032 85.5385 153.032 86.6473C153.032 87.8318 152.644 88.86 151.866 89.7318C151.099 90.6037 149.905 91.2196 148.284 91.5798L152.264 97.1093C153.174 98.3791 153.956 99.2225 154.61 99.6395C155.264 100.056 156.117 100.322 157.169 100.436V100.961ZM143.48 91.0538C143.66 91.0538 143.816 91.0585 143.949 91.068C144.082 91.068 144.191 91.068 144.276 91.068C146.114 91.068 147.498 90.67 148.427 89.874C149.365 89.078 149.834 88.064 149.834 86.832C149.834 85.6285 149.455 84.6525 148.697 83.9038C147.948 83.1457 146.953 82.7666 145.712 82.7666C145.162 82.7666 144.418 82.8567 143.48 83.0367V91.0538ZM170.232 94.508H162.769L161.461 97.5499C161.139 98.2986 160.978 98.8577 160.978 99.2273C160.978 99.521 161.115 99.7816 161.39 100.009C161.675 100.227 162.281 100.369 163.21 100.436V100.961H157.14V100.436C157.946 100.293 158.467 100.109 158.704 99.8811C159.187 99.4263 159.722 98.5023 160.31 97.1093L167.09 81.2457H167.588L174.297 97.2798C174.837 98.5686 175.325 99.4073 175.761 99.7958C176.207 100.175 176.823 100.388 177.609 100.436V100.961H170.004V100.436C170.772 100.398 171.288 100.27 171.554 100.052C171.829 99.8337 171.966 99.5684 171.966 99.2557C171.966 98.8387 171.777 98.1801 171.397 97.2798L170.232 94.508ZM169.834 93.4561L166.564 85.6664L163.21 93.4561H169.834ZM177.567 81.6863H182.798L194.582 96.1427V85.0268C194.582 83.8422 194.449 83.1031 194.184 82.8093C193.833 82.4113 193.279 82.2123 192.52 82.2123H191.852V81.6863H198.562V82.2123H197.879C197.064 82.2123 196.486 82.4587 196.145 82.9514C195.937 83.2547 195.833 83.9465 195.833 85.0268V101.274H195.321L182.613 85.7517V97.621C182.613 98.8056 182.741 99.5447 182.997 99.8385C183.357 100.236 183.911 100.436 184.66 100.436H185.342V100.961H178.633V100.436H179.301C180.125 100.436 180.708 100.189 181.049 99.6963C181.258 99.3931 181.362 98.7013 181.362 97.621V84.2165C180.803 83.5627 180.376 83.1315 180.083 82.923C179.798 82.7145 179.377 82.5203 178.818 82.3402C178.543 82.2549 178.126 82.2123 177.567 82.2123V81.6863ZM199.486 100.961V100.436H200.211C201.026 100.436 201.604 100.175 201.945 99.6537C202.153 99.341 202.258 98.6397 202.258 97.5499V85.0979C202.258 83.8943 202.125 83.141 201.86 82.8377C201.49 82.4208 200.94 82.2123 200.211 82.2123H199.486V81.6863H207.332C210.213 81.6863 212.402 82.0133 213.899 82.6671C215.406 83.321 216.614 84.4108 217.524 85.9365C218.443 87.4622 218.903 89.2249 218.903 91.2244C218.903 93.9062 218.088 96.1474 216.458 97.9479C214.629 99.9569 211.843 100.961 208.1 100.961H199.486ZM204.987 99.5684C206.19 99.8337 207.2 99.9664 208.015 99.9664C210.213 99.9664 212.037 99.1941 213.487 97.6494C214.937 96.1048 215.662 94.0105 215.662 91.3665C215.662 88.7036 214.937 86.6046 213.487 85.0694C212.037 83.5342 210.175 82.7666 207.901 82.7666C207.048 82.7666 206.077 82.9041 204.987 83.1789V99.5684ZM226.11 82.7382V90.3573H230.346C231.445 90.3573 232.179 90.1915 232.549 89.8598C233.042 89.4239 233.317 88.6563 233.374 87.557H233.899V94.2663H233.374C233.241 93.3282 233.108 92.7264 232.975 92.4611C232.805 92.1294 232.525 91.8688 232.137 91.6793C231.748 91.4897 231.151 91.395 230.346 91.395H226.11V97.7489C226.11 98.6018 226.148 99.123 226.224 99.3125C226.299 99.4926 226.432 99.6395 226.622 99.7532C226.811 99.8574 227.171 99.9096 227.702 99.9096H230.971C232.061 99.9096 232.852 99.8337 233.345 99.6821C233.838 99.5305 234.312 99.232 234.767 98.7866C235.354 98.1991 235.956 97.313 236.572 96.1285H237.14L235.477 100.961H220.623V100.436H221.305C221.76 100.436 222.191 100.327 222.599 100.109C222.902 99.9569 223.106 99.7295 223.21 99.4263C223.324 99.123 223.381 98.5023 223.381 97.5641V85.041C223.381 83.8185 223.257 83.0652 223.011 82.7809C222.67 82.4018 222.101 82.2123 221.305 82.2123H220.623V81.6863H235.477L235.69 85.9081H235.136C234.937 84.8941 234.714 84.1976 234.468 83.8185C234.231 83.4395 233.876 83.1504 233.402 82.9514C233.023 82.8093 232.355 82.7382 231.398 82.7382H226.11Z" fill="white"/>
<path d="M53.1569 114.478V114.264H55.9309V114.478H55.6362C55.328 114.478 55.091 114.607 54.9253 114.865C54.8444 114.984 54.804 115.262 54.804 115.697V118.876C54.804 119.662 54.725 120.272 54.567 120.708C54.4129 121.139 54.1066 121.511 53.6481 121.823C53.1935 122.131 52.5732 122.285 51.7873 122.285C50.9319 122.285 50.2827 122.137 49.8397 121.84C49.3966 121.544 49.0826 121.145 48.8977 120.644C48.7744 120.301 48.7127 119.658 48.7127 118.714V115.651C48.7127 115.169 48.6453 114.853 48.5105 114.703C48.3795 114.553 48.1657 114.478 47.869 114.478H47.5743V114.264H50.9608V114.478H50.6603C50.3367 114.478 50.1055 114.58 49.9668 114.784C49.8705 114.923 49.8223 115.212 49.8223 115.651V119.066C49.8223 119.371 49.8493 119.719 49.9033 120.112C49.961 120.505 50.0631 120.812 50.2095 121.031C50.356 121.251 50.5659 121.432 50.8395 121.574C51.1169 121.717 51.4559 121.788 51.8566 121.788C52.369 121.788 52.8275 121.677 53.232 121.453C53.6366 121.23 53.9121 120.945 54.0585 120.598C54.2087 120.247 54.2838 119.656 54.2838 118.824V115.651C54.2838 115.162 54.2299 114.855 54.122 114.732C53.9718 114.562 53.7483 114.478 53.4517 114.478H53.1569ZM57.9767 117.772C58.597 117.024 59.1884 116.651 59.7509 116.651C60.0399 116.651 60.2884 116.724 60.4964 116.87C60.7045 117.013 60.8702 117.25 60.9934 117.581C61.0782 117.812 61.1206 118.167 61.1206 118.644V120.904C61.1206 121.239 61.1476 121.467 61.2015 121.586C61.2439 121.682 61.3113 121.757 61.4038 121.811C61.5001 121.865 61.6754 121.892 61.9297 121.892V122.1H59.3117V121.892H59.4215C59.6681 121.892 59.8395 121.856 59.9359 121.783C60.036 121.705 60.1054 121.594 60.1439 121.447C60.1593 121.39 60.167 121.208 60.167 120.904V118.737C60.167 118.255 60.1035 117.907 59.9763 117.691C59.853 117.471 59.6431 117.361 59.3464 117.361C58.8879 117.361 58.4314 117.612 57.9767 118.113V120.904C57.9767 121.262 57.9979 121.484 58.0403 121.569C58.0942 121.68 58.1674 121.763 58.2599 121.817C58.3562 121.867 58.5489 121.892 58.8378 121.892V122.1H56.2199V121.892H56.3354C56.6051 121.892 56.7862 121.825 56.8787 121.69C56.975 121.551 57.0232 121.289 57.0232 120.904V118.939C57.0232 118.303 57.0078 117.916 56.9769 117.778C56.95 117.639 56.9057 117.544 56.844 117.494C56.7862 117.444 56.7072 117.419 56.6071 117.419C56.4992 117.419 56.3701 117.448 56.2199 117.506L56.1332 117.298L57.7282 116.651H57.9767V117.772ZM63.6981 113.882C63.8599 113.882 63.9967 113.94 64.1084 114.056C64.224 114.168 64.2818 114.304 64.2818 114.466C64.2818 114.628 64.224 114.767 64.1084 114.882C63.9967 114.998 63.8599 115.056 63.6981 115.056C63.5363 115.056 63.3976 114.998 63.282 114.882C63.1664 114.767 63.1086 114.628 63.1086 114.466C63.1086 114.304 63.1645 114.168 63.2762 114.056C63.3918 113.94 63.5324 113.882 63.6981 113.882ZM64.1778 116.651V120.904C64.1778 121.235 64.2009 121.457 64.2471 121.569C64.2972 121.677 64.3685 121.757 64.4609 121.811C64.5573 121.865 64.7306 121.892 64.9811 121.892V122.1H62.4093V121.892C62.6675 121.892 62.8409 121.867 62.9295 121.817C63.0181 121.767 63.0874 121.684 63.1375 121.569C63.1915 121.453 63.2184 121.232 63.2184 120.904V118.864C63.2184 118.29 63.2011 117.918 63.1664 117.749C63.1394 117.625 63.0971 117.541 63.0393 117.494C62.9815 117.444 62.9025 117.419 62.8023 117.419C62.6944 117.419 62.5635 117.448 62.4093 117.506L62.3284 117.298L63.9235 116.651H64.1778ZM70.3326 116.651V123.458C70.3326 123.798 70.3557 124.015 70.4019 124.112C70.4481 124.208 70.5194 124.283 70.6157 124.337C70.7159 124.391 70.9085 124.418 71.1937 124.418V124.632H68.5237V124.418H68.6335C68.8492 124.418 69.013 124.387 69.1247 124.325C69.2018 124.283 69.2634 124.206 69.3097 124.094C69.3559 123.986 69.379 123.774 69.379 123.458V121.182C69.0284 121.598 68.7221 121.883 68.4601 122.037C68.1981 122.187 67.9265 122.262 67.6453 122.262C67.1328 122.262 66.6744 122.029 66.2698 121.563C65.8691 121.097 65.6688 120.473 65.6688 119.69C65.6688 118.793 65.9346 118.063 66.4663 117.5C66.998 116.934 67.6395 116.651 68.3908 116.651C68.6104 116.651 68.8126 116.681 68.9976 116.743C69.1825 116.805 69.3482 116.897 69.4946 117.021C69.718 116.913 69.9319 116.789 70.1361 116.651H70.3326ZM69.379 120.817V118.332C69.379 118.043 69.3405 117.816 69.2634 117.65C69.1902 117.485 69.0573 117.344 68.8647 117.229C68.672 117.113 68.4543 117.055 68.2116 117.055C67.7801 117.055 67.4102 117.238 67.102 117.604C66.7938 117.97 66.6397 118.525 66.6397 119.269C66.6397 119.981 66.7957 120.523 67.1078 120.893C67.4237 121.262 67.8032 121.447 68.2463 121.447C68.4736 121.447 68.6759 121.399 68.8531 121.303C69.0303 121.203 69.2056 121.041 69.379 120.817ZM76.2042 116.807V120.014C76.2042 120.627 76.2177 121.002 76.2446 121.141C76.2755 121.276 76.3217 121.37 76.3833 121.424C76.4488 121.478 76.524 121.505 76.6087 121.505C76.7282 121.505 76.863 121.472 77.0133 121.407L77.0942 121.609L75.5107 122.262H75.2506V121.141C74.796 121.634 74.4492 121.944 74.2104 122.071C73.9715 122.199 73.7191 122.262 73.4533 122.262C73.1566 122.262 72.8985 122.177 72.6789 122.008C72.4631 121.835 72.3129 121.613 72.2281 121.343C72.1434 121.074 72.101 120.692 72.101 120.199V117.835C72.101 117.585 72.074 117.412 72.0201 117.315C71.9661 117.219 71.8852 117.146 71.7773 117.096C71.6733 117.042 71.4826 117.017 71.2052 117.021V116.807H73.0603V120.349C73.0603 120.842 73.1451 121.166 73.3146 121.32C73.488 121.474 73.696 121.551 73.9388 121.551C74.1044 121.551 74.2913 121.499 74.4993 121.395C74.7112 121.291 74.9617 121.093 75.2506 120.8V117.801C75.2506 117.5 75.1948 117.298 75.083 117.194C74.9751 117.086 74.7478 117.028 74.4011 117.021V116.807H76.2042ZM78.3714 118.8C78.3675 119.586 78.5582 120.203 78.9435 120.65C79.3288 121.097 79.7815 121.32 80.3016 121.32C80.6484 121.32 80.9489 121.226 81.2032 121.037C81.4613 120.844 81.677 120.517 81.8504 120.055L82.0296 120.17C81.9487 120.698 81.7136 121.18 81.3245 121.615C80.9354 122.046 80.448 122.262 79.8624 122.262C79.2267 122.262 78.6815 122.016 78.2269 121.522C77.7761 121.025 77.5507 120.359 77.5507 119.523C77.5507 118.617 77.7819 117.912 78.2442 117.408C78.7104 116.899 79.2941 116.645 79.9953 116.645C80.5886 116.645 81.076 116.841 81.4574 117.234C81.8389 117.623 82.0296 118.146 82.0296 118.8H78.3714ZM78.3714 118.465H80.8217C80.8025 118.126 80.762 117.887 80.7004 117.749C80.604 117.533 80.4596 117.363 80.2669 117.24C80.0781 117.117 79.8797 117.055 79.6717 117.055C79.3519 117.055 79.0649 117.18 78.8106 117.431C78.5602 117.677 78.4137 118.022 78.3714 118.465ZM87.7625 117.899H91.4034V115.657C91.4034 115.256 91.3783 114.992 91.3282 114.865C91.2897 114.769 91.2088 114.686 91.0855 114.616C90.9198 114.524 90.7445 114.478 90.5596 114.478H90.2822V114.264H93.6341V114.478H93.3567C93.1718 114.478 92.9965 114.522 92.8308 114.611C92.7075 114.672 92.6228 114.767 92.5765 114.894C92.5341 115.017 92.513 115.271 92.513 115.657V120.713C92.513 121.11 92.538 121.372 92.5881 121.499C92.6266 121.596 92.7056 121.679 92.825 121.748C92.9946 121.84 93.1718 121.887 93.3567 121.887H93.6341V122.1H90.2822V121.887H90.5596C90.8794 121.887 91.1125 121.792 91.2589 121.603C91.3552 121.48 91.4034 121.183 91.4034 120.713V118.327H87.7625V120.713C87.7625 121.11 87.7875 121.372 87.8376 121.499C87.8761 121.596 87.9571 121.679 88.0803 121.748C88.246 121.84 88.4213 121.887 88.6062 121.887H88.8894V122.1H85.5317V121.887H85.8091C86.1328 121.887 86.3678 121.792 86.5142 121.603C86.6067 121.48 86.6529 121.183 86.6529 120.713V115.657C86.6529 115.256 86.6279 114.992 86.5778 114.865C86.5392 114.769 86.4603 114.686 86.3408 114.616C86.1713 114.524 85.9941 114.478 85.8091 114.478H85.5317V114.264H88.8894V114.478H88.6062C88.4213 114.478 88.246 114.522 88.0803 114.611C87.9609 114.672 87.8781 114.767 87.8318 114.894C87.7856 115.017 87.7625 115.271 87.7625 115.657V117.899ZM96.8415 116.651C97.6429 116.651 98.2863 116.955 98.7718 117.564C99.184 118.084 99.3901 118.681 99.3901 119.355C99.3901 119.829 99.2765 120.309 99.0492 120.794C98.8219 121.28 98.5079 121.646 98.1072 121.892C97.7103 122.139 97.2673 122.262 96.778 122.262C95.9804 122.262 95.3467 121.944 94.8766 121.309C94.4798 120.773 94.2814 120.172 94.2814 119.506C94.2814 119.02 94.4008 118.539 94.6397 118.061C94.8824 117.579 95.2003 117.225 95.5932 116.997C95.9862 116.766 96.4023 116.651 96.8415 116.651ZM96.6624 117.026C96.4582 117.026 96.2521 117.088 96.044 117.211C95.8398 117.331 95.6742 117.543 95.547 117.847C95.4199 118.151 95.3563 118.542 95.3563 119.02C95.3563 119.791 95.5085 120.455 95.8129 121.014C96.1211 121.573 96.5256 121.852 97.0265 121.852C97.4002 121.852 97.7084 121.698 97.9511 121.39C98.1939 121.081 98.3152 120.552 98.3152 119.8C98.3152 118.86 98.113 118.12 97.7084 117.581C97.4349 117.211 97.0862 117.026 96.6624 117.026ZM104.811 116.807V120.014C104.811 120.627 104.824 121.002 104.851 121.141C104.882 121.276 104.929 121.37 104.99 121.424C105.056 121.478 105.131 121.505 105.216 121.505C105.335 121.505 105.47 121.472 105.62 121.407L105.701 121.609L104.117 122.262H103.857V121.141C103.403 121.634 103.056 121.944 102.817 122.071C102.578 122.199 102.326 122.262 102.06 122.262C101.763 122.262 101.505 122.177 101.286 122.008C101.07 121.835 100.92 121.613 100.835 121.343C100.75 121.074 100.708 120.692 100.708 120.199V117.835C100.708 117.585 100.681 117.412 100.627 117.315C100.573 117.219 100.492 117.146 100.384 117.096C100.28 117.042 100.089 117.017 99.812 117.021V116.807H101.667V120.349C101.667 120.842 101.752 121.166 101.921 121.32C102.095 121.474 102.303 121.551 102.546 121.551C102.711 121.551 102.898 121.499 103.106 121.395C103.318 121.291 103.568 121.093 103.857 120.8V117.801C103.857 117.5 103.802 117.298 103.69 117.194C103.582 117.086 103.355 117.028 103.008 117.021V116.807H104.811ZM109.509 116.651V118.454H109.319C109.172 117.887 108.984 117.502 108.752 117.298C108.525 117.094 108.234 116.992 107.88 116.992C107.61 116.992 107.392 117.063 107.227 117.205C107.061 117.348 106.978 117.506 106.978 117.679C106.978 117.895 107.04 118.08 107.163 118.234C107.283 118.392 107.525 118.56 107.891 118.737L108.735 119.147C109.517 119.529 109.908 120.031 109.908 120.656C109.908 121.137 109.725 121.526 109.359 121.823C108.997 122.116 108.591 122.262 108.14 122.262C107.816 122.262 107.446 122.204 107.03 122.089C106.903 122.05 106.799 122.031 106.718 122.031C106.63 122.031 106.56 122.081 106.51 122.181H106.319V120.292H106.51C106.618 120.831 106.824 121.237 107.128 121.511C107.433 121.784 107.774 121.921 108.151 121.921C108.417 121.921 108.633 121.844 108.799 121.69C108.968 121.532 109.053 121.343 109.053 121.124C109.053 120.858 108.959 120.634 108.77 120.453C108.585 120.272 108.213 120.043 107.654 119.766C107.096 119.488 106.73 119.238 106.556 119.014C106.383 118.795 106.296 118.517 106.296 118.182C106.296 117.747 106.445 117.383 106.741 117.09C107.042 116.797 107.429 116.651 107.903 116.651C108.111 116.651 108.363 116.695 108.66 116.784C108.856 116.841 108.987 116.87 109.053 116.87C109.115 116.87 109.163 116.857 109.197 116.83C109.232 116.803 109.273 116.743 109.319 116.651H109.509ZM111.59 118.8C111.586 119.586 111.777 120.203 112.162 120.65C112.547 121.097 113 121.32 113.52 121.32C113.867 121.32 114.167 121.226 114.422 121.037C114.68 120.844 114.896 120.517 115.069 120.055L115.248 120.17C115.167 120.698 114.932 121.18 114.543 121.615C114.154 122.046 113.667 122.262 113.081 122.262C112.445 122.262 111.9 122.016 111.445 121.522C110.995 121.025 110.769 120.359 110.769 119.523C110.769 118.617 111 117.912 111.463 117.408C111.929 116.899 112.513 116.645 113.214 116.645C113.807 116.645 114.295 116.841 114.676 117.234C115.057 117.623 115.248 118.146 115.248 118.8H111.59ZM111.59 118.465H114.04C114.021 118.126 113.981 117.887 113.919 117.749C113.823 117.533 113.678 117.363 113.486 117.24C113.297 117.117 113.098 117.055 112.89 117.055C112.57 117.055 112.283 117.18 112.029 117.431C111.779 117.677 111.632 118.022 111.59 118.465ZM119.38 116.651V118.454H119.19C119.043 117.887 118.854 117.502 118.623 117.298C118.396 117.094 118.105 116.992 117.751 116.992C117.481 116.992 117.263 117.063 117.097 117.205C116.932 117.348 116.849 117.506 116.849 117.679C116.849 117.895 116.911 118.08 117.034 118.234C117.153 118.392 117.396 118.56 117.762 118.737L118.606 119.147C119.388 119.529 119.779 120.031 119.779 120.656C119.779 121.137 119.596 121.526 119.23 121.823C118.868 122.116 118.461 122.262 118.011 122.262C117.687 122.262 117.317 122.204 116.901 122.089C116.774 122.05 116.67 122.031 116.589 122.031C116.5 122.031 116.431 122.081 116.381 122.181H116.19V120.292H116.381C116.489 120.831 116.695 121.237 116.999 121.511C117.304 121.784 117.645 121.921 118.022 121.921C118.288 121.921 118.504 121.844 118.669 121.69C118.839 121.532 118.924 121.343 118.924 121.124C118.924 120.858 118.829 120.634 118.641 120.453C118.456 120.272 118.084 120.043 117.525 119.766C116.966 119.488 116.6 119.238 116.427 119.014C116.254 118.795 116.167 118.517 116.167 118.182C116.167 117.747 116.315 117.383 116.612 117.09C116.913 116.797 117.3 116.651 117.774 116.651C117.982 116.651 118.234 116.695 118.531 116.784C118.727 116.841 118.858 116.87 118.924 116.87C118.985 116.87 119.033 116.857 119.068 116.83C119.103 116.803 119.143 116.743 119.19 116.651H119.38ZM129.199 117.055H131.626V117.269C131.291 117.296 131.043 117.371 130.881 117.494C130.723 117.614 130.474 117.98 130.135 118.592C129.796 119.205 129.415 119.777 128.991 120.309C129.334 120.71 129.64 120.991 129.91 121.153C130.18 121.311 130.451 121.39 130.725 121.39C130.991 121.39 131.216 121.318 131.401 121.176C131.586 121.029 131.717 120.815 131.794 120.534L132.008 120.69C131.865 121.234 131.636 121.634 131.32 121.892C131.004 122.15 130.636 122.28 130.216 122.28C129.9 122.28 129.579 122.195 129.251 122.025C128.927 121.852 128.573 121.561 128.188 121.153C127.71 121.576 127.278 121.871 126.893 122.037C126.512 122.199 126.103 122.28 125.668 122.28C125.032 122.28 124.528 122.11 124.154 121.771C123.78 121.432 123.593 121.027 123.593 120.557C123.593 120.091 123.761 119.627 124.096 119.165C124.431 118.698 125.061 118.217 125.986 117.72C125.805 117.319 125.681 116.992 125.616 116.737C125.55 116.479 125.518 116.233 125.518 115.998C125.518 115.339 125.76 114.836 126.246 114.489C126.623 114.22 127.053 114.085 127.535 114.085C127.993 114.085 128.367 114.221 128.656 114.495C128.945 114.765 129.089 115.098 129.089 115.495C129.089 115.903 128.949 116.262 128.667 116.57C128.39 116.878 127.897 117.215 127.188 117.581C127.677 118.452 128.188 119.249 128.719 119.974C129.397 119.165 129.736 118.483 129.736 117.928C129.736 117.751 129.679 117.593 129.563 117.454C129.478 117.35 129.357 117.288 129.199 117.269V117.055ZM126.991 117.205C127.469 116.978 127.826 116.72 128.061 116.431C128.299 116.142 128.419 115.82 128.419 115.466C128.419 115.189 128.332 114.959 128.159 114.778C127.989 114.597 127.777 114.507 127.523 114.507C127.188 114.507 126.934 114.624 126.76 114.859C126.591 115.09 126.506 115.318 126.506 115.541C126.506 115.73 126.539 115.942 126.604 116.177C126.67 116.408 126.799 116.751 126.991 117.205ZM127.887 120.817C127.379 120.124 127.026 119.617 126.83 119.297C126.633 118.978 126.417 118.581 126.182 118.107C125.72 118.373 125.371 118.666 125.136 118.985C124.905 119.305 124.79 119.652 124.79 120.026C124.79 120.438 124.922 120.8 125.188 121.112C125.454 121.424 125.812 121.58 126.263 121.58C126.506 121.58 126.739 121.532 126.962 121.436C127.19 121.339 127.498 121.133 127.887 120.817ZM140.087 119.477H137.053L136.521 120.713C136.39 121.018 136.325 121.245 136.325 121.395C136.325 121.515 136.381 121.621 136.492 121.713C136.608 121.802 136.854 121.86 137.232 121.887V122.1H134.764V121.887C135.092 121.829 135.304 121.754 135.4 121.661C135.597 121.476 135.814 121.101 136.053 120.534L138.81 114.085H139.012L141.74 120.604C141.959 121.128 142.158 121.469 142.335 121.626C142.516 121.781 142.767 121.867 143.086 121.887V122.1H139.994V121.887C140.307 121.871 140.517 121.819 140.624 121.731C140.736 121.642 140.792 121.534 140.792 121.407C140.792 121.237 140.715 120.97 140.561 120.604L140.087 119.477ZM139.925 119.049L138.596 115.882L137.232 119.049H139.925ZM143.213 117.333L144.843 116.674H145.063V117.911C145.336 117.444 145.61 117.119 145.883 116.934C146.161 116.745 146.452 116.651 146.756 116.651C147.288 116.651 147.731 116.859 148.085 117.275C148.521 117.783 148.738 118.446 148.738 119.263C148.738 120.176 148.476 120.931 147.952 121.528C147.521 122.018 146.978 122.262 146.323 122.262C146.038 122.262 145.791 122.222 145.583 122.141C145.429 122.083 145.255 121.967 145.063 121.794V123.406C145.063 123.769 145.084 123.998 145.126 124.094C145.173 124.194 145.25 124.273 145.358 124.331C145.469 124.389 145.67 124.418 145.959 124.418V124.632H143.185V124.418H143.329C143.541 124.422 143.722 124.381 143.872 124.296C143.945 124.254 144.001 124.185 144.04 124.088C144.082 123.996 144.103 123.757 144.103 123.372V118.367C144.103 118.024 144.088 117.806 144.057 117.714C144.026 117.622 143.976 117.552 143.907 117.506C143.841 117.46 143.751 117.437 143.635 117.437C143.543 117.437 143.425 117.464 143.283 117.518L143.213 117.333ZM145.063 118.251V120.228C145.063 120.656 145.08 120.937 145.115 121.072C145.169 121.295 145.3 121.492 145.508 121.661C145.72 121.831 145.986 121.915 146.305 121.915C146.691 121.915 147.003 121.765 147.242 121.465C147.554 121.072 147.71 120.519 147.71 119.806C147.71 118.997 147.532 118.375 147.178 117.939C146.931 117.639 146.639 117.489 146.3 117.489C146.115 117.489 145.932 117.535 145.751 117.627C145.612 117.697 145.383 117.905 145.063 118.251ZM152.512 121.338C151.969 121.757 151.628 122 151.489 122.066C151.281 122.162 151.06 122.21 150.825 122.21C150.459 122.21 150.156 122.085 149.917 121.835C149.682 121.584 149.565 121.255 149.565 120.846C149.565 120.588 149.623 120.365 149.738 120.176C149.896 119.914 150.17 119.667 150.559 119.436C150.952 119.205 151.603 118.924 152.512 118.592V118.384C152.512 117.857 152.427 117.494 152.258 117.298C152.092 117.101 151.849 117.003 151.53 117.003C151.287 117.003 151.094 117.069 150.952 117.2C150.805 117.331 150.732 117.481 150.732 117.65L150.744 117.986C150.744 118.163 150.697 118.3 150.605 118.396C150.516 118.492 150.399 118.54 150.252 118.54C150.11 118.54 149.992 118.49 149.9 118.39C149.811 118.29 149.767 118.153 149.767 117.98C149.767 117.649 149.937 117.344 150.276 117.067C150.615 116.789 151.09 116.651 151.703 116.651C152.173 116.651 152.558 116.73 152.859 116.888C153.086 117.007 153.254 117.194 153.362 117.448C153.431 117.614 153.466 117.953 153.466 118.465V120.263C153.466 120.767 153.475 121.077 153.495 121.193C153.514 121.305 153.545 121.38 153.587 121.418C153.633 121.457 153.685 121.476 153.743 121.476C153.805 121.476 153.859 121.463 153.905 121.436C153.986 121.386 154.142 121.245 154.373 121.014V121.338C153.942 121.915 153.529 122.204 153.136 122.204C152.947 122.204 152.797 122.139 152.686 122.008C152.574 121.877 152.516 121.653 152.512 121.338ZM152.512 120.962V118.945C151.93 119.176 151.555 119.34 151.385 119.436C151.081 119.606 150.863 119.783 150.732 119.968C150.601 120.153 150.536 120.355 150.536 120.575C150.536 120.852 150.618 121.083 150.784 121.268C150.95 121.449 151.141 121.54 151.356 121.54C151.649 121.54 152.034 121.347 152.512 120.962ZM156.321 116.651V117.841C156.764 117.047 157.218 116.651 157.684 116.651C157.896 116.651 158.072 116.716 158.21 116.847C158.349 116.974 158.418 117.123 158.418 117.292C158.418 117.442 158.368 117.57 158.268 117.674C158.168 117.778 158.049 117.83 157.91 117.83C157.775 117.83 157.623 117.764 157.453 117.633C157.288 117.498 157.164 117.431 157.083 117.431C157.014 117.431 156.939 117.469 156.858 117.546C156.685 117.704 156.506 117.964 156.321 118.327V120.864C156.321 121.156 156.357 121.378 156.43 121.528C156.48 121.632 156.569 121.719 156.696 121.788C156.823 121.858 157.006 121.892 157.245 121.892V122.1H154.535V121.892C154.805 121.892 155.005 121.85 155.136 121.765C155.232 121.704 155.3 121.605 155.338 121.47C155.357 121.405 155.367 121.218 155.367 120.91V118.858C155.367 118.242 155.354 117.876 155.327 117.76C155.303 117.641 155.257 117.554 155.188 117.5C155.122 117.446 155.04 117.419 154.939 117.419C154.82 117.419 154.685 117.448 154.535 117.506L154.477 117.298L156.078 116.651H156.321ZM160.25 115.067V116.807H161.487V117.211H160.25V120.644C160.25 120.987 160.299 121.218 160.395 121.338C160.495 121.457 160.622 121.517 160.776 121.517C160.903 121.517 161.027 121.478 161.146 121.401C161.266 121.32 161.358 121.203 161.424 121.049H161.649C161.514 121.426 161.323 121.711 161.077 121.904C160.83 122.093 160.576 122.187 160.314 122.187C160.137 122.187 159.963 122.139 159.794 122.043C159.624 121.942 159.499 121.802 159.418 121.621C159.337 121.436 159.297 121.153 159.297 120.771V117.211H158.459V117.021C158.671 116.936 158.887 116.793 159.106 116.593C159.33 116.389 159.528 116.148 159.701 115.87C159.79 115.724 159.913 115.456 160.071 115.067H160.25ZM163.579 117.778C163.964 117.392 164.192 117.171 164.261 117.113C164.435 116.967 164.621 116.853 164.822 116.772C165.022 116.691 165.22 116.651 165.417 116.651C165.748 116.651 166.033 116.747 166.272 116.94C166.511 117.132 166.671 117.412 166.752 117.778C167.149 117.315 167.484 117.013 167.758 116.87C168.031 116.724 168.312 116.651 168.601 116.651C168.883 116.651 169.131 116.724 169.347 116.87C169.566 117.013 169.74 117.248 169.867 117.575C169.952 117.799 169.994 118.149 169.994 118.627V120.904C169.994 121.235 170.019 121.463 170.069 121.586C170.108 121.671 170.179 121.744 170.283 121.806C170.387 121.863 170.557 121.892 170.792 121.892V122.1H168.179V121.892H168.289C168.517 121.892 168.694 121.848 168.821 121.759C168.91 121.698 168.973 121.6 169.012 121.465C169.027 121.399 169.035 121.212 169.035 120.904V118.627C169.035 118.196 168.983 117.891 168.879 117.714C168.728 117.467 168.488 117.344 168.156 117.344C167.952 117.344 167.746 117.396 167.538 117.5C167.334 117.6 167.085 117.789 166.792 118.067L166.781 118.13L166.792 118.379V120.904C166.792 121.266 166.812 121.492 166.85 121.58C166.893 121.669 166.97 121.744 167.081 121.806C167.193 121.863 167.384 121.892 167.654 121.892V122.1H164.978V121.892C165.271 121.892 165.471 121.858 165.579 121.788C165.691 121.719 165.768 121.615 165.81 121.476C165.829 121.411 165.839 121.22 165.839 120.904V118.627C165.839 118.196 165.775 117.885 165.648 117.697C165.479 117.45 165.242 117.327 164.937 117.327C164.729 117.327 164.523 117.383 164.319 117.494C163.999 117.664 163.753 117.855 163.579 118.067V120.904C163.579 121.251 163.602 121.476 163.649 121.58C163.699 121.684 163.77 121.763 163.862 121.817C163.959 121.867 164.151 121.892 164.44 121.892V122.1H161.822V121.892C162.065 121.892 162.235 121.867 162.331 121.817C162.427 121.763 162.5 121.68 162.551 121.569C162.601 121.453 162.626 121.232 162.626 120.904V118.881C162.626 118.3 162.608 117.924 162.574 117.754C162.547 117.627 162.504 117.541 162.447 117.494C162.389 117.444 162.31 117.419 162.21 117.419C162.102 117.419 161.973 117.448 161.822 117.506L161.736 117.298L163.331 116.651H163.579V117.778ZM172.109 118.8C172.105 119.586 172.296 120.203 172.681 120.65C173.067 121.097 173.519 121.32 174.039 121.32C174.386 121.32 174.687 121.226 174.941 121.037C175.199 120.844 175.415 120.517 175.588 120.055L175.767 120.17C175.687 120.698 175.452 121.18 175.062 121.615C174.673 122.046 174.186 122.262 173.6 122.262C172.965 122.262 172.419 122.016 171.965 121.522C171.514 121.025 171.289 120.359 171.289 119.523C171.289 118.617 171.52 117.912 171.982 117.408C172.448 116.899 173.032 116.645 173.733 116.645C174.327 116.645 174.814 116.841 175.195 117.234C175.577 117.623 175.767 118.146 175.767 118.8H172.109ZM172.109 118.465H174.56C174.54 118.126 174.5 117.887 174.438 117.749C174.342 117.533 174.197 117.363 174.005 117.24C173.816 117.117 173.618 117.055 173.41 117.055C173.09 117.055 172.803 117.18 172.548 117.431C172.298 117.677 172.152 118.022 172.109 118.465ZM178.021 117.772C178.642 117.024 179.233 116.651 179.796 116.651C180.084 116.651 180.333 116.724 180.541 116.87C180.749 117.013 180.915 117.25 181.038 117.581C181.123 117.812 181.165 118.167 181.165 118.644V120.904C181.165 121.239 181.192 121.467 181.246 121.586C181.288 121.682 181.356 121.757 181.448 121.811C181.545 121.865 181.72 121.892 181.974 121.892V122.1H179.356V121.892H179.466C179.713 121.892 179.884 121.856 179.98 121.783C180.081 121.705 180.15 121.594 180.188 121.447C180.204 121.39 180.212 121.208 180.212 120.904V118.737C180.212 118.255 180.148 117.907 180.021 117.691C179.898 117.471 179.688 117.361 179.391 117.361C178.932 117.361 178.476 117.612 178.021 118.113V120.904C178.021 121.262 178.043 121.484 178.085 121.569C178.139 121.68 178.212 121.763 178.304 121.817C178.401 121.867 178.593 121.892 178.882 121.892V122.1H176.264V121.892H176.38C176.65 121.892 176.831 121.825 176.923 121.69C177.02 121.551 177.068 121.289 177.068 120.904V118.939C177.068 118.303 177.052 117.916 177.022 117.778C176.995 117.639 176.95 117.544 176.889 117.494C176.831 117.444 176.752 117.419 176.652 117.419C176.544 117.419 176.415 117.448 176.264 117.506L176.178 117.298L177.773 116.651H178.021V117.772ZM183.933 115.067V116.807H185.17V117.211H183.933V120.644C183.933 120.987 183.982 121.218 184.078 121.338C184.178 121.457 184.305 121.517 184.459 121.517C184.586 121.517 184.71 121.478 184.829 121.401C184.949 121.32 185.041 121.203 185.107 121.049H185.332C185.197 121.426 185.006 121.711 184.76 121.904C184.513 122.093 184.259 122.187 183.997 122.187C183.82 122.187 183.646 122.139 183.477 122.043C183.307 121.942 183.182 121.802 183.101 121.621C183.02 121.436 182.98 121.153 182.98 120.771V117.211H182.142V117.021C182.354 116.936 182.57 116.793 182.789 116.593C183.013 116.389 183.211 116.148 183.384 115.87C183.473 115.724 183.596 115.456 183.754 115.067H183.933ZM189.112 116.651V118.454H188.921C188.774 117.887 188.586 117.502 188.354 117.298C188.127 117.094 187.836 116.992 187.482 116.992C187.212 116.992 186.994 117.063 186.829 117.205C186.663 117.348 186.58 117.506 186.58 117.679C186.58 117.895 186.642 118.08 186.765 118.234C186.885 118.392 187.127 118.56 187.493 118.737L188.337 119.147C189.119 119.529 189.51 120.031 189.51 120.656C189.51 121.137 189.327 121.526 188.961 121.823C188.599 122.116 188.193 122.262 187.742 122.262C187.418 122.262 187.048 122.204 186.632 122.089C186.505 122.05 186.401 122.031 186.32 122.031C186.232 122.031 186.162 122.081 186.112 122.181H185.921V120.292H186.112C186.22 120.831 186.426 121.237 186.731 121.511C187.035 121.784 187.376 121.921 187.753 121.921C188.019 121.921 188.235 121.844 188.401 121.69C188.57 121.532 188.655 121.343 188.655 121.124C188.655 120.858 188.561 120.634 188.372 120.453C188.187 120.272 187.815 120.043 187.256 119.766C186.698 119.488 186.332 119.238 186.158 119.014C185.985 118.795 185.898 118.517 185.898 118.182C185.898 117.747 186.047 117.383 186.343 117.09C186.644 116.797 187.031 116.651 187.505 116.651C187.713 116.651 187.965 116.695 188.262 116.784C188.458 116.841 188.589 116.87 188.655 116.87C188.717 116.87 188.765 116.857 188.799 116.83C188.834 116.803 188.875 116.743 188.921 116.651H189.112Z" fill="white"/>
<path d="M89.6374 29.7757C87.6524 30.081 86.1241 30.4907 85.0194 31.2058C84.0145 31.8486 83.3085 32.8127 82.86 34.2589C82.3616 35.8497 82.6025 37.4888 83.3915 38.8626C84.1889 40.2446 85.551 41.3533 87.2786 41.8595C93.2172 43.5949 97.993 41.3614 102.619 39.2001C106.59 37.3441 110.46 35.5364 115.045 35.906L115.767 35.9622C111.149 33.6885 108.757 29.8882 106.349 26.0638C103.724 21.9019 101.083 17.6999 95.3352 16.0207C93.6076 15.5145 91.8385 15.7074 90.3767 16.4385C88.9315 17.1536 87.7936 18.3989 87.2952 19.9817C86.8467 21.4279 86.8799 22.6009 87.3451 23.6775C87.86 24.8586 88.8899 26.0156 90.3767 27.3412L92.6026 29.3257L89.6125 29.7837L89.6374 29.7757ZM83.3998 28.8437C84.2885 28.2732 85.3101 27.8554 86.4979 27.526C85.7005 26.6262 85.0859 25.7263 84.6706 24.7702C83.9231 23.0589 83.84 21.2752 84.5045 19.1541C85.2354 16.8 86.9215 14.9682 89.0477 13.9157C91.1574 12.8632 93.7073 12.5739 96.1907 13.3051C99.5296 14.2772 101.93 15.8921 103.857 17.8284C102.47 15.4985 101.531 12.815 101.481 9.44851L101.473 9.43245H101.481C101.448 6.9257 102.437 4.64391 104.065 2.98078C105.701 1.30158 107.985 0.241034 110.535 0.208896L110.551 0.200861V0.208896C112.835 0.184792 114.58 0.747204 116.066 1.90416C116.897 2.55496 117.628 3.37447 118.301 4.37074C118.948 3.3584 119.654 2.51478 120.468 1.84792C121.922 0.65079 123.658 0.0401723 125.95 0.00803445L125.967 0V0.00803445C128.5 -0.0160689 130.809 0.980203 132.487 2.6112C134.156 4.24219 135.211 6.50791 135.244 9.01466L135.253 9.03072H135.244C135.261 10.5894 135.111 11.9151 134.829 13.0721C135.909 12.2927 137.113 11.6098 138.475 11.0554C140.867 10.0913 143.434 10.1234 145.643 10.959C147.869 11.8026 149.738 13.4577 150.718 15.7315C151.598 17.7722 151.706 19.5559 151.142 21.3315C150.826 22.3197 150.311 23.2758 149.605 24.256C150.818 24.4649 151.889 24.7782 152.828 25.2603C154.522 26.12 155.76 27.4537 156.64 29.5025C157.62 31.7682 157.52 34.2187 156.574 36.3398C155.635 38.4449 153.849 40.2365 151.457 41.2007C148.26 42.4942 145.352 42.7272 142.603 42.4219C145.178 43.37 147.637 44.8563 149.863 47.4033C151.54 49.3235 152.279 51.7017 152.122 53.9915C151.964 56.2974 150.892 58.5229 148.949 60.1057C147.196 61.5359 145.469 62.1706 143.55 62.1867C142.479 62.1947 141.382 62.0099 140.211 61.6564C140.377 62.8374 140.386 63.9141 140.195 64.9344C139.854 66.7583 138.924 68.3009 137.171 69.731C135.228 71.3138 132.786 71.9646 130.41 71.7316C128.043 71.4986 125.743 70.3979 124.073 68.4857C121.922 66.0271 120.801 63.5123 120.236 60.9815C119.987 63.4802 119.231 66.0593 117.553 68.7669C116.191 70.9603 114.065 72.4306 111.739 73.0332C109.389 73.6438 106.83 73.3706 104.613 72.0851C102.611 70.9201 101.407 69.5221 100.759 67.7465C100.393 66.7422 100.219 65.6415 100.186 64.4122C99.0479 64.9666 97.9598 65.3362 96.8718 65.4968C94.9531 65.7781 93.1176 65.4085 91.1076 64.2515C88.8899 62.966 87.4364 60.9011 86.8882 58.6033C86.3401 56.3295 86.6889 53.8308 88.0427 51.6374C90.2936 48.0058 93.2754 45.9892 96.5146 44.6474C93.4913 45.4509 90.2106 45.6598 86.4231 44.551C83.9397 43.8279 81.9878 42.221 80.825 40.2124C79.6622 38.1877 79.3051 35.7613 80.036 33.4153C80.7005 31.2942 81.7885 29.848 83.3832 28.8276L83.3998 28.8437ZM103.89 41.739C102.661 42.3175 101.415 42.8959 100.144 43.4182C101.307 43.0807 102.486 42.7835 103.649 42.4942C107.204 41.6024 110.684 40.7266 113.276 38.702C110.053 38.8626 107.005 40.2847 103.89 41.739ZM117.445 38.6778L116.523 39.6339C113.292 42.9924 108.899 44.0931 104.388 45.2259C99.1808 46.5355 93.7903 47.8853 90.5594 53.0997C89.6042 54.6343 89.3634 56.3938 89.7454 57.9846C90.1192 59.5514 91.1076 60.9574 92.6109 61.8331C93.9814 62.6286 95.2023 62.8857 96.4399 62.7089C97.7771 62.5161 99.2306 61.809 100.95 60.7164L103.483 59.1095L103.209 62.026C103.026 64.0024 103.068 65.5772 103.516 66.8145C103.932 67.9554 104.737 68.8713 106.108 69.6667C107.611 70.5425 109.364 70.7192 110.975 70.3015C112.603 69.8756 114.09 68.8472 115.036 67.3207C118.226 62.1786 117.47 57.3419 116.723 52.5292C116.025 48.038 115.335 43.5789 117.437 38.6778H117.445ZM119.63 52.1115L119.771 53.0354L119.821 51.8704C119.953 48.7611 120.086 45.716 119.206 42.9602C118.683 46.0294 119.156 49.0664 119.63 52.1195V52.1115ZM120.585 39.0073L120.934 39.6339C123.11 43.5628 122.927 47.7166 122.744 51.9749C122.528 56.9402 122.304 62.0742 126.307 66.6538C127.47 67.9875 129.065 68.7588 130.693 68.9195C132.312 69.0802 133.965 68.6383 135.278 67.5697C136.474 66.5976 137.105 65.5933 137.313 64.4363C137.545 63.1749 137.337 61.6483 136.831 59.7683L136.083 56.9402L138.841 58.1293C140.676 58.9247 142.196 59.3826 143.517 59.3666C144.721 59.3585 145.851 58.9247 147.047 57.9445C148.359 56.8759 149.082 55.3654 149.19 53.7987C149.298 52.2159 148.783 50.5688 147.62 49.2351C143.741 44.8001 138.716 44.1172 133.724 43.4423C129.131 42.8236 124.571 42.205 120.585 39.0073ZM134.131 40.6383C134.862 40.7347 135.585 40.8311 136.308 40.9436C135.626 40.7266 134.945 40.4936 134.264 40.2687C131.083 39.1921 127.919 38.1235 124.58 38.2119C127.495 39.7464 130.801 40.1883 134.123 40.6383H134.131ZM121.465 35.7292C126.515 34.6526 130.867 36.1149 135.236 37.5932C139.995 39.2001 144.788 40.815 150.336 38.5814C151.997 37.9065 153.235 36.6692 153.883 35.215C154.53 33.7688 154.597 32.1137 153.932 30.5791C153.334 29.1892 152.537 28.3054 151.466 27.759C150.294 27.1645 148.733 26.8993 146.723 26.7949L143.7 26.6342L145.71 24.4488C147.047 22.9946 147.952 21.7332 148.343 20.512C148.7 19.3952 148.608 18.2221 148.01 16.8241C147.354 15.2976 146.083 14.1728 144.58 13.6023C143.052 13.0238 141.266 12.9997 139.605 13.6746C133.824 16.0046 131.108 21.6448 128.774 26.4896C126.822 30.539 125.111 34.0982 121.939 35.4319L121.482 35.7372L121.465 35.7292ZM126.108 25.2844C126.532 24.4087 126.964 23.5168 127.42 22.617C125.336 24.6979 123.284 27.3814 122.03 31.9852C123.542 30.6032 124.763 28.0804 126.108 25.2844ZM118.583 33.9054L118.724 33.2144C120.41 25.0273 124.115 21.6689 127.337 18.7444C130.062 16.2698 132.396 14.1567 132.329 9.04679L132.321 9.03072H132.329C132.304 7.29528 131.573 5.72856 130.419 4.60374C129.273 3.48695 127.711 2.80402 125.992 2.82813L125.975 2.83616V2.82813C124.43 2.85223 123.284 3.23788 122.362 4.00116C121.349 4.82871 120.518 6.13832 119.671 7.89787L118.392 10.5492L117.038 7.93C116.141 6.18653 115.269 4.90102 114.247 4.1056C113.301 3.36644 112.146 3.00488 110.585 3.02899L110.568 3.03702V3.02899C108.865 3.05309 107.329 3.77619 106.216 4.91708C105.086 6.07405 104.405 7.66487 104.43 9.40834L104.438 9.42441H104.43C104.513 15.2173 107.952 18.8328 111.365 22.4161C114.497 25.7102 117.611 28.9883 118.6 33.9054H118.583ZM109.198 24.3364C108.691 23.798 108.176 23.2597 107.678 22.7214C108.076 23.3401 108.475 23.9587 108.865 24.5854C110.618 27.3734 112.37 30.1533 115.003 32.1378C113.757 29.141 111.49 26.7467 109.206 24.3444L109.198 24.3364Z" fill="white"/>
</g>
<defs>
<clipPath id="clip0_27_186">
<rect width="237" height="125" fill="white"/>
</clipPath>
</defs>
</svg>
