<svg width="32" height="32" viewBox="0 0 32 32" fill="none" xmlns="http://www.w3.org/2000/svg">
<path d="M4.112 12.9911C3.2942 13.1243 2.66459 13.303 2.2095 13.615C1.79546 13.8954 1.50461 14.3161 1.31984 14.9471C1.11453 15.6411 1.21376 16.3562 1.53883 16.9557C1.86732 17.5586 2.42849 18.0423 3.14022 18.2632C5.58679 19.0204 7.55431 18.0459 9.46023 17.1029C11.0958 16.2931 12.6904 15.5044 14.5792 15.6657L14.8769 15.6902C12.9744 14.6982 11.9889 13.0401 10.9966 11.3715C9.91533 9.55575 8.8272 7.72242 6.45934 6.98979C5.74761 6.76895 5.01877 6.85308 4.41654 7.17207C3.82115 7.48405 3.35237 8.02739 3.14706 8.71795C2.96229 9.34893 2.97597 9.86072 3.16759 10.3304C3.37974 10.8457 3.80404 11.3505 4.41654 11.9289L5.33357 12.7947L4.10174 12.9946L4.112 12.9911ZM1.54225 12.5844C1.90838 12.3355 2.32926 12.1533 2.81857 12.0095C2.49008 11.6169 2.23687 11.2243 2.06578 10.8072C1.75782 10.0605 1.7236 9.28233 1.99734 8.3569C2.29846 7.32981 2.99308 6.53058 3.86906 6.07137C4.73819 5.61216 5.78867 5.48597 6.81178 5.80496C8.18733 6.22911 9.17622 6.9337 9.97008 7.77851C9.39864 6.76194 9.01198 5.59113 8.99145 4.12236L8.98803 4.11535H8.99145C8.97776 3.02166 9.38495 2.02613 10.0556 1.30051C10.7297 0.567876 11.6707 0.105162 12.7212 0.0911407L12.728 0.0876353V0.0911407C13.669 0.0806244 14.3876 0.326003 15.0001 0.830782C15.3423 1.11472 15.6434 1.47227 15.9205 1.90694C16.1874 1.46526 16.4783 1.09719 16.8136 0.806244C17.4124 0.283938 18.1276 0.017527 19.072 0.00350541L19.0788 0V0.00350541C20.1225 -0.00701082 21.0737 0.42766 21.7649 1.13926C22.4527 1.85086 22.8873 2.83938 22.901 3.93307L22.9044 3.94008H22.901C22.9078 4.62013 22.8462 5.19852 22.7299 5.7033C23.1747 5.36328 23.6709 5.06532 24.232 4.82344C25.2175 4.4028 26.2748 4.41682 27.185 4.78138C28.1021 5.14945 28.872 5.87156 29.2757 6.86359C29.6384 7.75397 29.6829 8.53217 29.4502 9.30686C29.3202 9.73803 29.108 10.1552 28.8172 10.5828C29.3168 10.674 29.7582 10.8107 30.1448 11.021C30.8429 11.3961 31.3527 11.978 31.7154 12.8719C32.1192 13.8604 32.0781 14.9295 31.6881 15.855C31.3014 16.7734 30.5657 17.5551 29.5803 17.9757C28.2629 18.5401 27.0653 18.6418 25.9326 18.5086C26.9934 18.9222 28.0062 19.5707 28.9233 20.6819C29.6145 21.5197 29.919 22.5573 29.854 23.5564C29.789 24.5624 29.3476 25.5334 28.5469 26.224C27.8249 26.8479 27.1132 27.1249 26.3227 27.1319C25.8813 27.1354 25.4296 27.0548 24.9472 26.9005C25.0156 27.4158 25.019 27.8855 24.9403 28.3307C24.8 29.1265 24.4168 29.7995 23.6948 30.4235C22.8941 31.114 21.8881 31.398 20.9095 31.2963C19.9343 31.1946 18.9865 30.7144 18.2987 29.8801C17.4124 28.8075 16.9505 27.7103 16.7178 26.6061C16.6152 27.6962 16.3038 28.8215 15.6126 30.0028C15.0514 30.9598 14.1754 31.6013 13.2173 31.8642C12.249 32.1306 11.1951 32.0114 10.2815 31.4505C9.45681 30.9423 8.96065 30.3323 8.69375 29.5576C8.5432 29.1194 8.47134 28.6392 8.45765 28.1029C7.98887 28.3447 7.54062 28.506 7.09236 28.5761C6.30193 28.6988 5.54572 28.5375 4.71766 28.0328C3.80404 27.4719 3.20523 26.571 2.97939 25.5685C2.75356 24.5764 2.89727 23.4862 3.45502 22.5293C4.38232 20.9448 5.61074 20.065 6.94523 19.4796C5.6997 19.8301 4.3481 19.9212 2.78778 19.4375C1.76467 19.122 0.960548 18.4209 0.4815 17.5446C0.00245136 16.6612 -0.144684 15.6026 0.156432 14.579C0.430174 13.6536 0.878426 13.0226 1.53541 12.5774L1.54225 12.5844ZM9.98376 18.2106C9.47734 18.463 8.96407 18.7154 8.44054 18.9432C8.91959 18.796 9.40548 18.6663 9.88453 18.5401C11.3491 18.151 12.7828 17.7689 13.8504 16.8856C12.5227 16.9557 11.2669 17.5761 9.98376 18.2106ZM15.5681 16.875L15.1883 17.2922C13.8572 18.7575 12.0471 19.2377 10.1891 19.732C8.04362 20.3033 5.82289 20.8922 4.49182 23.1673C4.09831 23.8368 3.99908 24.6045 4.15649 25.2985C4.31046 25.9821 4.71765 26.5955 5.337 26.9776C5.90159 27.3247 6.40459 27.4368 6.91443 27.3597C7.46534 27.2756 8.06415 26.9671 8.77246 26.4904L9.81609 25.7893L9.70318 27.0618C9.6279 27.9241 9.64501 28.6112 9.82978 29.151C10.0009 29.6488 10.3328 30.0484 10.8974 30.3954C11.5167 30.7775 12.2387 30.8546 12.9025 30.6723C13.5732 30.4866 14.1857 30.0379 14.5758 29.3718C15.8897 27.1284 15.5784 25.0181 15.2704 22.9184C14.983 20.9588 14.699 19.0133 15.5647 16.875H15.5681ZM16.468 22.7361L16.5262 23.1392L16.5467 22.6309C16.6015 21.2743 16.6562 19.9458 16.2935 18.7434C16.0779 20.0825 16.273 21.4075 16.468 22.7396V22.7361ZM16.8615 17.0188L17.0052 17.2922C17.9017 19.0063 17.8265 20.8186 17.7512 22.6765C17.6622 24.8428 17.5698 27.0828 19.2191 29.0809C19.6982 29.6628 20.3552 29.9993 21.0258 30.0694C21.6931 30.1395 22.374 29.9467 22.9146 29.4805C23.4074 29.0563 23.6674 28.6182 23.753 28.1134C23.8488 27.563 23.7632 26.897 23.5545 26.0767L23.2466 24.8428L24.3826 25.3616C25.1388 25.7087 25.765 25.9085 26.309 25.9015C26.8052 25.898 27.2706 25.7087 27.7633 25.281C28.3039 24.8148 28.6016 24.1558 28.6461 23.4722C28.6906 22.7817 28.4784 22.063 27.9994 21.4812C26.4014 19.5462 24.3313 19.2482 22.2748 18.9538C20.3825 18.6838 18.504 18.4139 16.8615 17.0188ZM22.4424 17.7304C22.7436 17.7724 23.0412 17.8145 23.3389 17.8636C23.0584 17.7689 22.7778 17.6673 22.4972 17.5691C21.1866 17.0994 19.883 16.6332 18.5074 16.6717C19.7084 17.3413 21.0703 17.5341 22.439 17.7304H22.4424ZM17.2242 15.5886C19.3047 15.1188 21.0977 15.7568 22.8975 16.4018C24.8582 17.1029 26.8326 17.8075 29.1183 16.833C29.8027 16.5385 30.3125 15.9987 30.5794 15.3642C30.8463 14.7332 30.8737 14.0111 30.5999 13.3416C30.3536 12.7352 30.0251 12.3496 29.5837 12.1112C29.1012 11.8518 28.4579 11.7361 27.6298 11.6905L26.3843 11.6204L27.2124 10.667C27.7633 10.0325 28.1363 9.48213 28.2971 8.94931C28.4442 8.46206 28.4066 7.95027 28.1602 7.34033C27.8899 6.6743 27.3664 6.18354 26.747 5.93466C26.1174 5.68227 25.3817 5.67175 24.6974 5.96621C22.3158 6.98278 21.1969 9.44357 20.2354 11.5573C19.4313 13.3241 18.7264 14.877 17.4193 15.4589L17.2311 15.5921L17.2242 15.5886ZM19.137 11.0315C19.3115 10.6494 19.4894 10.2603 19.6776 9.86773C18.8188 10.7756 17.9736 11.9464 17.4569 13.955C18.0797 13.3521 18.5827 12.2514 19.137 11.0315ZM16.0369 14.7928L16.0951 14.4914C16.7897 10.9194 18.3158 9.45409 19.6434 8.17812C20.7658 7.09846 21.7273 6.17653 21.6999 3.94709L21.6965 3.94008H21.6999C21.6896 3.18291 21.3885 2.49936 20.9129 2.0086C20.4407 1.52135 19.7974 1.22339 19.0891 1.2339L19.0823 1.23741V1.2339C18.4458 1.24442 17.9736 1.41268 17.5938 1.74569C17.1763 2.10675 16.8342 2.67813 16.4851 3.44582L15.9582 4.6026L15.4004 3.45984C15.0309 2.69917 14.6716 2.1383 14.2507 1.79126C13.8606 1.46877 13.385 1.31102 12.7417 1.32154L12.7349 1.32504V1.32154C12.0334 1.33206 11.4004 1.64754 10.9419 2.14531C10.4765 2.65009 10.1959 3.34416 10.2062 4.10484L10.2096 4.11185H10.2062C10.2404 6.63925 11.657 8.21668 13.0634 9.78009C14.3534 11.2173 15.6365 12.6475 16.0437 14.7928H16.0369ZM12.1703 10.6179C11.9615 10.383 11.7494 10.1482 11.5441 9.9133C11.7083 10.1832 11.8726 10.4531 12.0334 10.7266C12.7554 11.9429 13.4774 13.1558 14.5621 14.0216C14.0488 12.7141 13.1147 11.6695 12.1737 10.6214L12.1703 10.6179Z" fill="#C8AC71"/>
</svg>
