<svg width="209" height="32" viewBox="0 0 209 32" fill="none" xmlns="http://www.w3.org/2000/svg">
<g clip-path="url(#clip0_827_33)">
<path d="M3.29609 15.74V14.26L9.41609 11.62V13.22L5.19609 15L9.41609 16.78V18.38L3.29609 15.74Z" fill="#6D95FC"/>
<path d="M20.6671 20.54L24.7471 10.5H20.8671V8.5H27.1071V10.46L23.0271 20.5H27.1071V22.5H20.6671V20.54ZM32.1532 8.5H34.3532V14.2H36.7132V8.5H38.9132V22.5H36.7132V16.2H34.3532V22.5H32.1532V8.5ZM47.5516 22.7C46.485 22.7 45.6716 22.4 45.1116 21.8C44.5516 21.1867 44.2716 20.3133 44.2716 19.18V8.5H46.4716V19.34C46.4716 19.82 46.565 20.1667 46.7516 20.38C46.9516 20.5933 47.2316 20.7 47.5916 20.7C47.9516 20.7 48.225 20.5933 48.4116 20.38C48.6116 20.1667 48.7116 19.82 48.7116 19.34V8.5H50.8316V19.18C50.8316 20.3133 50.5516 21.1867 49.9916 21.8C49.4316 22.4 48.6183 22.7 47.5516 22.7ZM56.1985 8.5H59.4585C60.5919 8.5 61.4185 8.76667 61.9385 9.3C62.4585 9.82 62.7185 10.6267 62.7185 11.72V12.58C62.7185 14.0333 62.2385 14.9533 61.2785 15.34V15.38C61.8119 15.54 62.1852 15.8667 62.3985 16.36C62.6252 16.8533 62.7385 17.5133 62.7385 18.34V20.8C62.7385 21.2 62.7519 21.5267 62.7785 21.78C62.8052 22.02 62.8719 22.26 62.9785 22.5H60.7385C60.6585 22.2733 60.6052 22.06 60.5785 21.86C60.5519 21.66 60.5385 21.3 60.5385 20.78V18.22C60.5385 17.58 60.4319 17.1333 60.2185 16.88C60.0185 16.6267 59.6652 16.5 59.1585 16.5H58.3985V22.5H56.1985V8.5ZM59.1985 14.5C59.6385 14.5 59.9652 14.3867 60.1785 14.16C60.4052 13.9333 60.5185 13.5533 60.5185 13.02V11.94C60.5185 11.4333 60.4252 11.0667 60.2385 10.84C60.0652 10.6133 59.7852 10.5 59.3985 10.5H58.3985V14.5H59.1985ZM68.0649 8.5H70.2649V22.5H68.0649V8.5ZM75.7126 8.5H78.4726L80.6126 16.88H80.6526V8.5H82.6126V22.5H80.3526L77.7126 12.28H77.6726V22.5H75.7126V8.5ZM94.4709 8.5H96.6909L98.1309 19.36H98.1709L99.6109 8.5H101.631L99.5109 22.5H96.5909L94.4709 8.5ZM106.488 8.5H108.688V20.5H112.308V22.5H106.488V8.5ZM118.941 8.5H121.921L124.201 22.5H122.001L121.601 19.72V19.76H119.101L118.701 22.5H116.661L118.941 8.5ZM121.341 17.86L120.361 10.94H120.321L119.361 17.86H121.341ZM129.068 8.5H132.428C133.521 8.5 134.341 8.79333 134.888 9.38C135.435 9.96667 135.708 10.8267 135.708 11.96V19.04C135.708 20.1733 135.435 21.0333 134.888 21.62C134.341 22.2067 133.521 22.5 132.428 22.5H129.068V8.5ZM132.388 20.5C132.748 20.5 133.021 20.3933 133.208 20.18C133.408 19.9667 133.508 19.62 133.508 19.14V11.86C133.508 11.38 133.408 11.0333 133.208 10.82C133.021 10.6067 132.748 10.5 132.388 10.5H131.268V20.5H132.388ZM140.993 8.5H143.193V22.5H140.993V8.5ZM151.501 22.7C150.434 22.7 149.627 22.4 149.081 21.8C148.534 21.1867 148.261 20.3133 148.261 19.18V18.38H150.341V19.34C150.341 20.2467 150.721 20.7 151.481 20.7C151.854 20.7 152.134 20.5933 152.321 20.38C152.521 20.1533 152.621 19.7933 152.621 19.3C152.621 18.7133 152.487 18.2 152.221 17.76C151.954 17.3067 151.461 16.7667 150.741 16.14C149.834 15.34 149.201 14.62 148.841 13.98C148.481 13.3267 148.301 12.5933 148.301 11.78C148.301 10.6733 148.581 9.82 149.141 9.22C149.701 8.60667 150.514 8.3 151.581 8.3C152.634 8.3 153.427 8.60667 153.961 9.22C154.507 9.82 154.781 10.6867 154.781 11.82V12.4H152.701V11.68C152.701 11.2 152.607 10.8533 152.421 10.64C152.234 10.4133 151.961 10.3 151.601 10.3C150.867 10.3 150.501 10.7467 150.501 11.64C150.501 12.1467 150.634 12.62 150.901 13.06C151.181 13.5 151.681 14.0333 152.401 14.66C153.321 15.46 153.954 16.1867 154.301 16.84C154.647 17.4933 154.821 18.26 154.821 19.14C154.821 20.2867 154.534 21.1667 153.961 21.78C153.401 22.3933 152.581 22.7 151.501 22.7ZM159.882 8.5H162.082V20.5H165.702V22.5H159.882V8.5ZM172.335 8.5H175.315L177.595 22.5H175.395L174.995 19.72V19.76H172.495L172.095 22.5H170.055L172.335 8.5ZM174.735 17.86L173.755 10.94H173.715L172.755 17.86H174.735ZM181.316 8.5H183.536L184.976 19.36H185.016L186.456 8.5H188.476L186.356 22.5H183.436L181.316 8.5Z" fill="white"/>
<path d="M199.576 17.28L203.796 15.5L199.576 13.72V12.12L205.696 14.76V16.24L199.576 18.88V17.28Z" fill="#6D95FC"/>
</g>
<defs>
<clipPath id="clip0_827_33">
<rect width="209" height="32" fill="white"/>
</clipPath>
</defs>
</svg>
