<svg width="40" height="40" viewBox="0 0 40 40" fill="none" xmlns="http://www.w3.org/2000/svg">
<path d="M29.5455 22.75V11.75C29.5455 10.2375 28.3182 9 26.8182 9H7.72727C6.22727 9 5 10.2375 5 11.75V22.75C5 24.2625 6.22727 25.5 7.72727 25.5H26.8182C28.3182 25.5 29.5455 24.2625 29.5455 22.75ZM17.2727 21.375C15.0091 21.375 13.1818 19.5325 13.1818 17.25C13.1818 14.9675 15.0091 13.125 17.2727 13.125C19.5364 13.125 21.3636 14.9675 21.3636 17.25C21.3636 19.5325 19.5364 21.375 17.2727 21.375ZM35 13.125V28.25C35 29.7625 33.7727 31 32.2727 31H9.09091V28.25H32.2727V13.125H35Z" fill="#3AAA35"/>
</svg>
