<svg width="40" height="40" viewBox="0 0 40 40" fill="none" xmlns="http://www.w3.org/2000/svg">
<path d="M13.7892 8.1935C13.7892 10.3025 13.766 11.486 13.7247 11.6915C13.5665 12.4355 13.0272 13.1442 12.3477 13.484C11.762 13.7772 11.621 13.7892 8.19275 13.7892H5V24.0425C5 34.208 5 34.3025 5.117 34.5305C5.1935 34.6827 5.3165 34.8057 5.46875 34.8822C5.6975 35 5.79725 35 13.0272 35H20.3517V33.7812C20.3517 32.3517 20.4162 31.9707 20.7672 31.25C20.9607 30.8577 21.1197 30.6522 21.488 30.2772C22.2792 29.486 23.1462 29.1462 24.353 29.1402C24.893 29.1402 24.9222 29.135 24.9222 29.0172C24.9222 28.9527 24.746 27.1775 24.5352 25.0797C24.113 20.891 24.0957 20.4515 24.3357 19.6775C24.8157 18.125 26.0645 16.994 27.6935 16.637L27.851 16.6017V11.1462C27.851 5.8025 27.851 5.6915 27.7347 5.46875C27.6585 5.31636 27.5348 5.1929 27.3822 5.117C27.155 5 27.0552 5 20.4695 5H13.79V8.1935H13.7892ZM23.867 8.633C24.131 8.768 24.3357 9.10175 24.3357 9.39425C24.3357 9.6875 24.131 10.0212 23.867 10.1562C23.6442 10.2672 23.5272 10.2732 19.9355 10.2732H16.238L16.004 10.1442C15.4115 9.8105 15.4062 9.008 15.992 8.65625L16.2207 8.516H19.9295C23.5332 8.516 23.6442 8.52125 23.867 8.633ZM23.867 12.1482C24.131 12.2832 24.3357 12.617 24.3357 12.9102C24.3357 13.2027 24.131 13.5372 23.867 13.6715C23.6442 13.7832 23.5272 13.7892 19.9415 13.7892C16.3558 13.7892 16.238 13.7832 16.0152 13.6722C15.4182 13.367 15.4062 12.5232 15.9927 12.1722L16.2207 12.0312H19.9295C23.5332 12.0312 23.6442 12.0372 23.867 12.1482ZM22.1097 15.6642C22.373 15.7992 22.5785 16.133 22.5785 16.4255C22.5785 16.7187 22.373 17.0525 22.1097 17.1875C21.881 17.3045 21.7752 17.3045 15.5472 17.3045C9.3185 17.3045 9.21275 17.3045 8.98475 17.1875C8.387 16.883 8.375 16.0392 8.96075 15.6875L9.1895 15.5472H15.5345C21.7812 15.5472 21.881 15.5472 22.1097 15.6642ZM22.1097 19.1795C22.373 19.3145 22.5785 19.6482 22.5785 19.9415C22.5785 20.234 22.373 20.5685 22.1097 20.7027C21.881 20.8205 21.7752 20.8205 15.5412 20.8205H9.20675L8.97275 20.6915C8.38025 20.3577 8.375 19.5545 8.96075 19.2027L9.1895 19.0625H15.5345C21.7812 19.0625 21.881 19.0625 22.1097 19.1795ZM13.7712 22.79C14.6233 22.9576 15.4042 23.3806 16.01 24.0027C16.5837 24.5885 16.9587 25.2275 17.1702 26.0007C17.3052 26.4927 17.3052 27.6882 17.1702 28.1802C16.7187 29.8212 15.4122 31.0512 13.7772 31.3917C10.736 32.018 7.98275 29.27 8.60975 26.2235C9.09575 23.8565 11.4275 22.3032 13.7712 22.79Z" fill="#3AAA35"/>
<path d="M12.2953 24.536C11.8085 24.653 11.4395 24.8637 11.0585 25.2387C10.0213 26.282 10.0213 27.905 11.0585 28.9362C12.1078 29.9787 13.7248 29.9787 14.756 28.9422C15.7985 27.893 15.7985 26.282 14.762 25.2387C14.0938 24.5712 13.1975 24.3132 12.2945 24.536H12.2953ZM8.75005 8.77997L5.49805 12.0305H8.41555C11.1643 12.0305 11.3458 12.0245 11.5505 11.9195C11.6966 11.8375 11.8183 11.7182 11.903 11.5737L12.0313 11.339L12.0193 8.43272L12.002 5.52722L8.75005 8.77997ZM27.9395 18.383C26.8033 18.6582 25.9243 19.7307 25.9183 20.8377C25.9123 21.008 26.0938 22.9415 26.3105 25.139L26.7088 29.141H30.4003L30.7993 25.139C31.016 22.9415 31.1968 21.008 31.1915 20.8377C31.1915 20.6735 31.139 20.375 31.0805 20.1815C30.6643 18.8457 29.2813 18.0545 27.9395 18.383ZM23.5925 30.98C22.994 31.1735 22.5605 31.5485 22.2913 32.129C22.1443 32.4395 22.139 32.492 22.121 33.7227L22.1038 35H28.2035C34.1975 35 34.3025 35 34.5313 34.883C34.6835 34.8065 34.8065 34.6835 34.889 34.5252C35 34.3025 35.006 34.2027 34.988 33.365C34.9708 32.4687 34.9655 32.4395 34.778 32.0585C34.5719 31.6226 34.216 31.2752 33.7753 31.0797L33.4475 30.9275L28.6423 30.9162C24.7873 30.9042 23.7913 30.9222 23.5918 30.9807L23.5925 30.98Z" fill="#3AAA35"/>
</svg>
