<svg width="40" height="40" viewBox="0 0 40 40" fill="none" xmlns="http://www.w3.org/2000/svg">
<path d="M34.3956 5.78193L20.6166 1.08544C20.4181 1.02537 20.2114 0.99665 20.0041 1.00031C19.7809 1.00031 19.5577 1.02938 19.3916 1.08544L5.6125 5.78193C5.27614 5.89612 5 6.28438 5 6.6415V26.204C5 26.5601 5.2315 27.0303 5.51076 27.2535L19.4891 38.1466C19.6314 38.2556 19.813 38.3127 19.9999 38.3127C20.1868 38.3127 20.3736 38.2556 20.5107 38.1466L34.4891 27.2535C34.7694 27.0355 34.9998 26.5642 34.9998 26.204V6.6415C35.0081 6.28438 34.732 5.89924 34.3956 5.78193ZM27.4049 12.7083L18.7832 24.5772C18.7225 24.6599 18.6431 24.727 18.5516 24.7733C18.4601 24.8196 18.3589 24.8437 18.2564 24.8437C18.1538 24.8437 18.0527 24.8196 17.9612 24.7733C17.8696 24.727 17.7903 24.6599 17.7295 24.5772L12.6032 17.5211C12.5687 17.4724 12.5481 17.4153 12.5438 17.3557C12.5394 17.2962 12.5515 17.2367 12.5787 17.1836C12.6059 17.1304 12.6472 17.0858 12.698 17.0545C12.7488 17.0233 12.8073 17.0065 12.8669 17.0062H15.1051C15.3128 17.0062 15.51 17.1079 15.6325 17.274L18.2559 20.8836L24.3756 12.4561C24.4364 12.3732 24.5158 12.3059 24.6074 12.2596C24.699 12.2132 24.8003 12.1891 24.903 12.1893H27.1412C27.2011 12.1902 27.2596 12.2074 27.3104 12.2391C27.3613 12.2708 27.4025 12.3158 27.4296 12.3693C27.4567 12.4227 27.4688 12.4825 27.4644 12.5422C27.46 12.602 27.4395 12.6594 27.4049 12.7083Z" fill="#3AAA35"/>
</svg>
