<svg width="40" height="40" viewBox="0 0 40 40" fill="none" xmlns="http://www.w3.org/2000/svg">
<path d="M15.6748 8.16417C15.6748 11.2226 15.6688 11.3396 15.5576 11.5623C15.4813 11.7147 15.3575 11.8382 15.2048 11.9141C14.9826 12.0251 14.8655 12.0311 11.7447 12.0311H8.51953V21.4058C8.51953 30.6929 8.51953 30.7866 8.63665 31.0154C8.71247 31.1676 8.83559 31.2906 8.98799 31.3663C9.21696 31.4841 9.3108 31.4841 19.1349 31.4841C28.959 31.4841 29.0528 31.4841 29.2818 31.3663C29.434 31.2907 29.5574 31.1674 29.6331 31.0154C29.751 30.7926 29.751 30.6809 29.751 25.6477V20.5029L27.9207 22.3201C25.8682 24.3473 25.4403 24.681 24.0672 25.3432L23.3285 25.701L22.3548 26.6557C21.276 27.7162 20.9652 27.9217 20.2257 28.0327C18.5133 28.3027 16.9825 26.7787 17.2528 25.062C17.3639 24.324 17.5689 24.0135 18.6304 22.9351C19.4862 22.0681 19.6161 21.9098 19.8391 21.4651C20.0151 21.1147 20.2067 20.7724 20.4134 20.4391C21.2054 19.1679 21.4103 18.9452 25.6512 14.6973L29.7502 10.5949V8.14692C29.7502 5.80923 29.745 5.68698 29.6331 5.46949C29.5572 5.31734 29.4339 5.19391 29.2818 5.11775C29.0528 5 28.953 5 22.3608 5H15.6748V8.16417ZM25.7623 8.63291C26.0266 8.76791 26.2316 9.10165 26.2316 9.39414C26.2316 9.68738 26.0266 10.0211 25.7623 10.1561C25.5394 10.2671 25.4223 10.2731 21.833 10.2731C18.2438 10.2731 18.1259 10.2671 17.9029 10.1561C17.6394 10.0211 17.4337 9.68738 17.4337 9.39414C17.4337 9.1129 17.6394 8.76716 17.8917 8.63891C18.1026 8.52716 18.2438 8.52116 21.821 8.51516C25.4283 8.51516 25.5394 8.52116 25.7623 8.63291ZM25.7623 12.1481C26.0266 12.2831 26.2316 12.6168 26.2316 12.9101C26.2316 13.2025 26.0266 13.537 25.7623 13.6713C25.5394 13.783 25.4223 13.789 21.833 13.789C18.2438 13.789 18.1259 13.783 17.9029 13.672C17.6394 13.537 17.4337 13.2025 17.4337 12.9101C17.4337 12.6288 17.6394 12.2831 17.8917 12.1541C18.1026 12.0431 18.2438 12.0371 21.821 12.0311C25.4283 12.0311 25.5394 12.0371 25.7623 12.1481ZM16.9653 22.6951C17.2348 22.8301 17.4337 23.1698 17.4337 23.4803C17.4337 23.6265 17.1582 24.2303 16.4548 25.6365C15.4751 27.5699 15.4691 27.5872 15.2056 27.7214C14.6485 28.0034 14.4195 27.8804 13.2056 26.6437C12.3137 25.7362 12.1553 25.5247 12.1553 25.2082C12.1553 24.7868 12.6073 24.3353 13.0292 24.3353C13.3107 24.3353 13.5457 24.4823 14.0727 24.9915L14.5487 25.4602L15.2168 24.1478C15.8272 22.9471 15.8977 22.8293 16.1147 22.7123C16.4075 22.5481 16.6657 22.5428 16.9653 22.6951Z" fill="#3AAA35"/>
<path d="M11.4753 7.89492L9.06543 10.2446L11.4693 10.2619C12.7951 10.2679 13.8859 10.2679 13.8979 10.2566C13.9092 10.2446 13.9092 9.17814 13.9031 7.88892L13.8859 5.54523L11.4753 7.89492Z" fill="#3AAA35"/>
<path d="M5.45795 8.63891C5.31287 8.71795 5.19432 8.83794 5.11711 8.9839C5 9.21339 5 9.30714 5 21.7583C5 34.2155 5 34.3025 5.11711 34.5313C5.19369 34.6835 5.31681 34.8065 5.46921 34.883C5.69818 35 5.79202 35 15.6161 35C25.4402 35 25.5333 35 25.7622 34.883C26.1143 34.7015 26.2315 34.4255 26.2315 33.7693V33.2421H17.7332C12.2025 33.2421 9.12903 33.2188 8.92408 33.1835C8.40346 33.0818 7.92503 32.8274 7.54993 32.4526C7.17483 32.0779 6.92009 31.5999 6.81827 31.0799C6.78299 30.8751 6.75972 27.3419 6.75972 20.8269C6.75972 9.85238 6.73644 10.5319 7.12908 9.86363C7.23418 9.68813 7.53973 9.31314 7.80924 9.0319L8.30172 8.51666H6.98794C5.79728 8.52116 5.65689 8.53241 5.45795 8.63891ZM32.7065 10.3789C32.3019 10.5191 32.1375 10.6601 30.7471 12.0543L29.5459 13.2618L30.7944 14.5098L32.0384 15.7517L33.3874 14.398C34.9234 12.8576 35 12.7518 35 12.0311C35 11.5331 34.8769 11.1986 34.5661 10.8416C34.1434 10.3669 33.3169 10.1561 32.7065 10.3789ZM25.6279 17.1752C24.185 18.6167 23.0056 19.8234 23.0056 19.8526C23.0056 19.8879 23.5461 20.4504 24.2022 21.1066C25.2405 22.1378 25.4109 22.2901 25.5047 22.2376C25.5686 22.2023 26.7772 21.0129 28.1961 19.5954L30.7771 17.011L29.5459 15.781C28.8703 15.1067 28.302 14.5503 28.2847 14.5503C28.2667 14.5503 27.0708 15.7277 25.6279 17.1752Z" fill="#3AAA35"/>
<path d="M21.6923 21.6518C21.5805 21.8566 21.4048 22.2203 21.3049 22.4603C21.1293 22.8645 21.0414 22.9755 20.103 23.925C19.2817 24.7515 19.076 24.9975 19.0175 25.1962C18.971 25.3448 18.966 25.5032 19.003 25.6543C19.04 25.8055 19.1176 25.9437 19.2275 26.0541C19.3373 26.1644 19.4752 26.2427 19.6264 26.2806C19.7775 26.3184 19.9361 26.3143 20.085 26.2687C20.2907 26.2102 20.5369 26.0047 21.3635 25.185C22.3139 24.2475 22.425 24.1598 22.8297 23.9835C23.0699 23.8838 23.44 23.7083 23.645 23.5913L24.0143 23.3858L22.9708 22.3373C22.6224 21.9821 22.2685 21.6323 21.9093 21.2881C21.9033 21.2881 21.8042 21.4531 21.6916 21.6518H21.6923Z" fill="#3AAA35"/>
</svg>
