<svg width="40" height="40" viewBox="0 0 40 40" fill="none" xmlns="http://www.w3.org/2000/svg">
<path d="M12.4997 5.93859C12.4997 5.69002 12.4009 5.45164 12.2252 5.27587C12.0494 5.10011 11.811 5.00136 11.5624 5.00136C11.3139 5.00136 11.0755 5.10011 10.8997 5.27587C10.7239 5.45164 10.6252 5.69002 10.6252 5.93859V6.87673H8.74892C7.75472 6.87697 6.80131 7.27203 6.0983 7.97503C5.39529 8.67804 5.00024 9.63145 5 10.6257L5 12.501H34.9986V10.6266C34.9986 9.63205 34.6036 8.67826 33.9003 7.97503C33.1971 7.2718 32.2433 6.87673 31.2488 6.87673H29.3743V5.93768C29.3743 5.689 29.2756 5.45049 29.0997 5.27464C28.9239 5.09879 28.6854 5 28.4367 5C28.188 5 27.9495 5.09879 27.7736 5.27464C27.5978 5.45049 27.499 5.689 27.499 5.93768V6.87582H12.4997V5.93768V5.93859ZM34.9986 31.2502V14.3764H5V31.2502C5 32.2447 5.39507 33.1985 6.0983 33.9017C6.80153 34.6049 7.75531 35 8.74983 35H31.2488C32.2433 35 33.1971 34.6049 33.9003 33.9017C34.6036 33.1985 34.9986 32.2447 34.9986 31.2502ZM22.8119 18.1262H24.6864C24.8095 18.1261 24.9314 18.1502 25.0451 18.1972C25.1589 18.2442 25.2623 18.3131 25.3494 18.4001C25.4365 18.487 25.5056 18.5903 25.5528 18.7039C25.6 18.8176 25.6244 18.9395 25.6245 19.0625V20.9379C25.6246 21.0611 25.6005 21.1832 25.5533 21.2971C25.5062 21.4109 25.4371 21.5144 25.35 21.6015C25.2629 21.6887 25.1594 21.7578 25.0455 21.8049C24.9317 21.852 24.8096 21.8762 24.6864 21.8761H22.8119C22.6887 21.8762 22.5666 21.852 22.4528 21.8049C22.3389 21.7578 22.2354 21.6887 22.1483 21.6015C22.0611 21.5144 21.9921 21.4109 21.9449 21.2971C21.8978 21.1832 21.8737 21.0611 21.8738 20.9379V19.0644C21.8738 18.9412 21.8981 18.8193 21.9452 18.7055C21.9924 18.5917 22.0615 18.4884 22.1486 18.4013C22.2357 18.3143 22.3392 18.2453 22.453 18.1982C22.5668 18.1512 22.6888 18.127 22.8119 18.1271V18.1262ZM28.4362 18.1262H30.3116C30.56 18.1262 30.7982 18.2248 30.974 18.4004C31.1497 18.576 31.2486 18.8141 31.2488 19.0625V20.9379C31.2489 21.0611 31.2248 21.183 31.1777 21.2969C31.1307 21.4107 31.0617 21.5141 30.9746 21.6012C30.8876 21.6883 30.7842 21.7575 30.6704 21.8046C30.5567 21.8518 30.4347 21.8761 30.3116 21.8761H28.4353C28.3121 21.8761 28.1902 21.8518 28.0764 21.8046C27.9627 21.7575 27.8593 21.6883 27.7723 21.6012C27.6852 21.5141 27.6162 21.4107 27.5691 21.2969C27.5221 21.183 27.4979 21.0611 27.4981 20.9379V19.0644C27.4981 18.8158 27.5968 18.5774 27.7726 18.4016C27.9483 18.2259 28.1867 18.1271 28.4353 18.1271L28.4362 18.1262ZM8.74983 24.6877C8.74983 24.4392 8.84857 24.2008 9.02434 24.025C9.2001 23.8493 9.43849 23.7505 9.68706 23.7505H11.5633C11.8119 23.7505 12.0503 23.8493 12.2261 24.025C12.4018 24.2008 12.5006 24.4392 12.5006 24.6877V26.5631C12.5006 26.6862 12.4763 26.8081 12.4292 26.9218C12.3821 27.0355 12.3131 27.1388 12.2261 27.2258C12.139 27.3129 12.0357 27.3819 11.922 27.429C11.8083 27.4761 11.6864 27.5003 11.5633 27.5003H9.68706C9.43849 27.5003 9.2001 27.4016 9.02434 27.2258C8.84857 27.0501 8.74983 26.8117 8.74983 26.5631V24.6877ZM15.3123 23.7505H17.1867C17.4353 23.7505 17.6737 23.8493 17.8494 24.025C18.0252 24.2008 18.1239 24.4392 18.1239 24.6877V26.5631C18.1239 26.8115 18.0253 27.0498 17.8498 27.2255C17.6742 27.4013 17.436 27.5001 17.1876 27.5003H15.3123C15.1892 27.5003 15.0673 27.4761 14.9536 27.429C14.8399 27.3819 14.7366 27.3129 14.6495 27.2258C14.5625 27.1388 14.4935 27.0355 14.4464 26.9218C14.3993 26.8081 14.375 26.6862 14.375 26.5631V24.6877C14.375 24.4393 14.4736 24.2011 14.6492 24.0253C14.8248 23.8496 15.0638 23.7508 15.3123 23.7505Z" fill="#3AAA35"/>
</svg>
