<svg width="40" height="40" viewBox="0 0 40 40" fill="none" xmlns="http://www.w3.org/2000/svg">
<path d="M7.93459 5.09221C6.89181 5.32086 5.89551 6.09976 5.42172 7.06007C4.97043 7.96791 5.00041 7.03084 5.00041 19.9978C5.00041 32.9647 4.97043 32.0276 5.42172 32.9354C5.90151 33.9077 6.89181 34.6746 7.96308 34.9033C8.57256 35.0322 31.414 35.0322 32.0228 34.9033C33.4231 34.6109 34.6061 33.4272 34.8985 32.0276C35.0274 31.4181 35.0274 8.57739 34.8985 7.96791C34.6061 6.56829 33.4231 5.38533 32.0228 5.09221C31.4313 4.96926 8.51408 4.96926 7.93459 5.09221ZM30.6936 8.87576C30.8285 8.94023 31.004 9.08116 31.0744 9.18012L31.2094 9.36753V13.918C31.2094 18.422 31.2094 18.4684 31.0857 18.6274C30.8578 18.9377 30.6704 19.0314 30.3008 19.0314C29.9319 19.0314 29.7445 18.9377 29.5166 18.6266C29.3937 18.4692 29.3937 18.3927 29.3757 15.2359L29.3585 12.0093L26.2016 15.1654L23.0388 18.329L22.3828 17.6671L21.7209 17.0111L24.913 13.819L28.105 10.627H24.8957C21.3873 10.627 21.4458 10.633 21.1474 10.2821C20.7606 9.81883 20.936 9.07517 21.487 8.83527C21.6272 8.77005 22.535 8.75881 26.0494 8.75281C30.3825 8.75281 30.4417 8.75281 30.6936 8.87576ZM10.2008 21.093C10.2833 21.1515 10.4055 21.2804 10.4707 21.3681C10.5929 21.5263 10.5929 21.6028 10.6109 24.7596L10.6281 27.9862L13.785 24.8301L16.9478 21.6665L17.6037 22.3285L18.2657 22.9844L15.0736 26.1765L11.8876 29.3685L15.1733 29.3805C18.3886 29.3978 18.4644 29.3978 18.6225 29.5207C18.9336 29.7494 19.0274 29.9368 19.0274 30.3056C19.0274 30.6744 18.9336 30.8619 18.6225 31.0905C18.4651 31.2135 18.4179 31.2135 13.9371 31.2135H9.41668L9.17603 31.0553C8.71874 30.7569 8.74273 31.038 8.75997 26.0123L8.77796 21.5383L8.94739 21.3209C9.04109 21.1987 9.19927 21.0638 9.29898 21.0165C9.53887 20.9056 10.0014 20.9468 10.2008 21.093Z" fill="#3AAA35"/>
</svg>
