<svg width="1527" height="278" viewBox="0 0 1527 278" fill="none" xmlns="http://www.w3.org/2000/svg">
<g filter="url(#filter0_d_242_7910)">
<rect x="1523" y="8" width="250" height="1511" transform="rotate(90 1523 8)" fill="#615F83"/>
<rect x="12" y="12" width="246" height="3.99999" transform="rotate(90 12 12)" fill="#030500"/>
<rect x="16" y="8" width="4" height="4" transform="rotate(90 16 8)" fill="#030500"/>
<rect x="1515" y="266" width="4.00001" height="1495" transform="rotate(90 1515 266)" fill="#030500"/>
<rect x="1515" y="262" width="4.00001" height="1495" transform="rotate(90 1515 262)" fill="#42415E"/>
<rect x="1515" y="258" width="4.00001" height="1495" transform="rotate(90 1515 258)" fill="#908EBA"/>
<rect x="16" y="258" width="4" height="4" transform="rotate(90 16 258)" fill="#030500"/>
<rect x="16" y="254" width="4" height="4" transform="rotate(90 16 254)" fill="#42415E"/>
<rect x="20" y="262" width="4" height="4" transform="rotate(90 20 262)" fill="#030500"/>
<rect x="16" y="250" width="4" height="4" transform="rotate(90 16 250)" fill="#908EBA"/>
<rect x="20" y="258" width="4" height="4" transform="rotate(90 20 258)" fill="#42415E"/>
<rect x="20" y="254" width="4" height="4" transform="rotate(90 20 254)" fill="#908EBA"/>
<rect x="1523" y="258" width="4" height="4" transform="rotate(90 1523 258)" fill="#030500"/>
<rect x="1523" y="254" width="4" height="4" transform="rotate(90 1523 254)" fill="#42415E"/>
<rect x="1523" y="250" width="4" height="4" transform="rotate(90 1523 250)" fill="#908EBA"/>
<rect x="1519" y="262" width="4" height="4" transform="rotate(90 1519 262)" fill="#030500"/>
<rect x="1519" y="258" width="4" height="4" transform="rotate(90 1519 258)" fill="#42415E"/>
<rect x="1519" y="254" width="4" height="4" transform="rotate(90 1519 254)" fill="#908EBA"/>
<rect x="1519" y="252" width="2" height="4" transform="rotate(90 1519 252)" fill="#75739C"/>
<rect x="1523" y="248" width="2" height="4" transform="rotate(90 1523 248)" fill="#75739C"/>
<rect x="1527" y="12" width="246" height="3.99999" transform="rotate(90 1527 12)" fill="#030500"/>
<rect x="1515" y="4" width="4.00007" height="1495" transform="rotate(90 1515 4)" fill="#615F83"/>
<rect x="1515" width="4.00001" height="1495" transform="rotate(90 1515 0)" fill="#030500"/>
<rect x="20" y="4" width="4" height="4" transform="rotate(90 20 4)" fill="#030500"/>
<rect x="1523" y="8" width="4" height="4" transform="rotate(90 1523 8)" fill="#030500"/>
<rect x="1519" y="4" width="4" height="4" transform="rotate(90 1519 4)" fill="#030500"/>
<rect x="1515" y="256" width="2.00002" height="498" transform="rotate(90 1515 256)" fill="#75739C"/>
<rect x="1523" y="112" width="4.00003" height="650" transform="rotate(90 1523 112)" fill="#75739C"/>
<rect x="1523" y="120" width="4.00003" height="642" transform="rotate(90 1523 120)" fill="#75739C"/>
<rect x="1523" y="116" width="4.00003" height="646" transform="rotate(90 1523 116)" fill="#75739C"/>
<rect x="1523" y="124" width="4.00003" height="638" transform="rotate(90 1523 124)" fill="#75739C"/>
<rect x="1523" y="128" width="4.00003" height="634" transform="rotate(90 1523 128)" fill="#75739C"/>
<rect x="1523" y="136" width="4.00003" height="626" transform="rotate(90 1523 136)" fill="#75739C"/>
<rect x="1523" y="144" width="4.00003" height="618" transform="rotate(90 1523 144)" fill="#75739C"/>
<rect x="1523" y="160" width="4.00003" height="602" transform="rotate(90 1523 160)" fill="#75739C"/>
<rect x="1523" y="140" width="4.00003" height="622" transform="rotate(90 1523 140)" fill="#75739C"/>
<rect x="1523" y="148" width="4.00003" height="614" transform="rotate(90 1523 148)" fill="#75739C"/>
<rect x="1523" y="152" width="4.00003" height="610" transform="rotate(90 1523 152)" fill="#75739C"/>
<rect x="1523" y="168" width="4.00003" height="594" transform="rotate(90 1523 168)" fill="#75739C"/>
<rect x="1523" y="132" width="4.00003" height="630" transform="rotate(90 1523 132)" fill="#75739C"/>
<rect x="1523" y="156" width="4.00003" height="606" transform="rotate(90 1523 156)" fill="#75739C"/>
<rect x="1523" y="164" width="4.00003" height="598" transform="rotate(90 1523 164)" fill="#75739C"/>
<rect x="1523" y="172" width="4.00003" height="590" transform="rotate(90 1523 172)" fill="#75739C"/>
<rect x="1523" y="184" width="4.00003" height="578" transform="rotate(90 1523 184)" fill="#75739C"/>
<rect x="1523" y="176" width="4.00003" height="586" transform="rotate(90 1523 176)" fill="#75739C"/>
<rect x="1523" y="188" width="4.00003" height="574" transform="rotate(90 1523 188)" fill="#75739C"/>
<rect x="1523" y="200" width="4.00002" height="562" transform="rotate(90 1523 200)" fill="#75739C"/>
<rect x="1523" y="216" width="4.00002" height="546" transform="rotate(90 1523 216)" fill="#75739C"/>
<rect x="1523" y="220" width="4.00002" height="542" transform="rotate(90 1523 220)" fill="#75739C"/>
<rect x="1523" y="192" width="4.00002" height="570" transform="rotate(90 1523 192)" fill="#75739C"/>
<rect x="1523" y="196" width="4.00002" height="566" transform="rotate(90 1523 196)" fill="#75739C"/>
<rect x="1523" y="204" width="4.00002" height="558" transform="rotate(90 1523 204)" fill="#75739C"/>
<rect x="1523" y="208" width="4.00002" height="554" transform="rotate(90 1523 208)" fill="#75739C"/>
<rect x="1523" y="212" width="4.00002" height="550" transform="rotate(90 1523 212)" fill="#75739C"/>
<rect x="1523" y="232" width="4.00002" height="530" transform="rotate(90 1523 232)" fill="#75739C"/>
<rect x="1519" y="248" width="4.00002" height="510" transform="rotate(90 1519 248)" fill="#75739C"/>
<rect x="1515" y="252" width="4.00002" height="502" transform="rotate(90 1515 252)" fill="#75739C"/>
<rect x="1523" y="180" width="4.00003" height="582" transform="rotate(90 1523 180)" fill="#75739C"/>
<rect x="1523" y="224" width="4.00002" height="538" transform="rotate(90 1523 224)" fill="#75739C"/>
<rect x="1523" y="228" width="4.00002" height="534" transform="rotate(90 1523 228)" fill="#75739C"/>
<rect x="1523" y="236" width="4.00002" height="526" transform="rotate(90 1523 236)" fill="#75739C"/>
<rect x="1523" y="240" width="4.00002" height="522" transform="rotate(90 1523 240)" fill="#75739C"/>
<rect x="1523" y="244" width="4.00002" height="518" transform="rotate(90 1523 244)" fill="#75739C"/>
<g clip-path="url(#clip0_242_7910)">
<path d="M202.597 -161.893H207.484H202.597ZM207.484 -156.975H212.371H207.484ZM212.371 -152.057H217.258H212.371ZM217.258 -147.139H222.145H217.258ZM222.145 -142.221H227.032H222.145ZM227.032 -137.303H231.919H227.032ZM231.919 -132.385H236.806H231.919ZM236.806 -127.467H241.694H236.806ZM241.694 -122.549H246.581H241.694ZM246.581 -117.631H251.468H246.581ZM251.468 -112.713H256.355H251.468ZM251.468 -107.795H256.355H251.468ZM569.129 -38.9445H574.016H569.129ZM569.129 -34.0266H574.016H569.129ZM569.129 -29.1087H574.016H569.129ZM569.129 -24.1908H574.016H569.129ZM569.129 -19.2728H574.016H569.129ZM569.129 -14.3549H574.016H569.129ZM569.129 -9.43698H574.016H569.129ZM569.129 -4.51906H574.016H569.129ZM569.129 0.398865H574.016H569.129ZM564.242 5.31679H569.129H564.242ZM564.242 10.2347H569.129H564.242ZM564.242 15.1526H569.129H564.242ZM564.242 20.0706H569.129H564.242ZM564.242 24.9885H569.129H564.242ZM564.242 29.9064H569.129H564.242ZM559.355 34.8243H564.242H559.355ZM559.355 39.7422H564.242H559.355ZM559.355 44.6602H564.242H559.355ZM554.468 49.5781H564.242H554.468ZM554.468 54.496H559.355H554.468ZM554.468 59.4139H559.355H554.468ZM549.581 64.3318H554.468H549.581ZM544.694 69.2498H549.581H544.694ZM539.806 74.1677H544.694H539.806ZM530.032 79.0856H539.806H530.032ZM1013.85 79.0856H1018.74H1013.85ZM530.032 84.0036H534.919H530.032ZM1013.85 84.0036H1018.74H1013.85ZM530.032 88.9214H534.919H530.032ZM1008.97 88.9214H1013.85H1008.97ZM530.032 93.8394H534.919H530.032ZM1008.97 93.8394H1013.85H1008.97ZM534.919 98.7573H539.806H534.919ZM1004.08 98.7573H1008.97H1004.08ZM534.919 103.675H539.806H534.919ZM1004.08 103.675H1008.97H1004.08ZM55.9839 108.593H60.871H55.9839ZM539.806 108.593H544.694H539.806ZM999.194 108.593H1004.08H999.194ZM1111.6 108.593H1145.81H1111.6ZM60.871 113.511H65.7581H60.871ZM539.806 113.511H544.694H539.806ZM999.194 113.511H1004.08H999.194ZM1101.82 113.511H1111.6H1101.82ZM1126.26 113.511H1131.15H1126.26ZM1145.81 113.511H1175.13H1145.81ZM65.7581 118.429H70.6452H65.7581ZM544.694 118.429H549.581H544.694ZM994.306 118.429H999.194H994.306ZM1087.16 118.429H1101.82H1087.16ZM1131.15 118.429H1136.03H1131.15ZM1175.13 118.429H1204.45H1175.13ZM70.6452 123.347H75.5323H70.6452ZM549.581 123.347H554.468H549.581ZM989.419 123.347H994.306H989.419ZM1062.73 123.347H1087.16H1062.73ZM1136.03 123.347H1140.92H1136.03ZM1204.45 123.347H1224H1204.45ZM75.5323 128.265H80.4193H75.5323ZM554.468 128.265H559.355H554.468ZM989.419 128.265H994.306H989.419ZM1057.84 128.265H1062.73H1057.84ZM1136.03 128.265H1140.92H1136.03ZM80.4193 133.183H85.3064H80.4193ZM559.355 133.183H564.242H559.355ZM984.532 133.183H989.419H984.532ZM1038.29 133.183H1057.84H1038.29ZM85.3064 138.101H90.1936H85.3064ZM564.242 138.101H569.129H564.242ZM974.758 138.101H984.532H974.758ZM1023.63 138.101H1038.29H1023.63ZM90.1936 143.019H95.0807H90.1936ZM564.242 143.019H574.016H564.242ZM969.871 143.019H979.645H969.871ZM994.306 143.019H1023.63H994.306ZM95.0807 147.937H104.855H95.0807ZM574.016 147.937H578.903H574.016ZM891.677 147.937H994.306H891.677ZM104.855 152.854H109.742H104.855ZM578.903 152.854H583.79H578.903ZM881.903 152.854H891.677H881.903ZM109.742 157.772H114.629H109.742ZM583.79 157.772H593.565H583.79ZM877.016 157.772H881.903H877.016ZM114.629 162.69H119.516H114.629ZM593.565 162.69H598.452H593.565ZM867.242 162.69H877.016H867.242ZM119.516 167.608H124.403H119.516ZM598.452 167.608H608.226H598.452ZM862.355 167.608H867.242H862.355ZM119.516 172.526H134.177H119.516ZM608.226 172.526H622.887H608.226ZM857.468 172.526H862.355H857.468ZM119.516 177.444H124.403H119.516ZM134.177 177.444H143.952H134.177ZM622.887 177.444H637.548H622.887ZM852.581 177.444H857.468H852.581ZM114.629 182.362H119.516H114.629ZM143.952 182.362H158.613H143.952ZM637.548 182.362H647.323H637.548ZM842.806 182.362H852.581H842.806ZM109.742 187.28H114.629H109.742ZM158.613 187.28H163.5H158.613ZM490.935 187.28H495.823H490.935ZM647.323 187.28H652.21H647.323ZM833.032 187.28H842.806H833.032ZM99.9677 192.198H109.742H99.9677ZM163.5 192.198H168.387H163.5ZM490.935 192.198H495.823H490.935ZM627.774 192.198H637.548H627.774ZM652.21 192.198H671.758H652.21ZM828.145 192.198H833.032H828.145ZM12 197.116H16.8871H12ZM95.0807 197.116H99.9677H95.0807ZM168.387 197.116H178.161H168.387ZM490.935 197.116H495.823H490.935ZM603.339 197.116H627.774H603.339ZM637.548 197.116H720.629H637.548ZM823.258 197.116H828.145H823.258ZM16.8871 202.034H26.6613H16.8871ZM85.3064 202.034H95.0807H85.3064ZM178.161 202.034H183.048H178.161ZM231.919 202.034H275.903H231.919ZM490.935 202.034H495.823H490.935ZM574.016 202.034H603.339H574.016ZM720.629 202.034H725.516H720.629ZM813.484 202.034H823.258H813.484ZM26.6613 206.952H55.9839H26.6613ZM75.5323 206.952H85.3064H75.5323ZM183.048 206.952H187.935H183.048ZM227.032 206.952H231.919H227.032ZM275.903 206.952H290.565H275.903ZM490.935 206.952H495.823H490.935ZM549.581 206.952H574.016H549.581ZM725.516 206.952H730.403H725.516ZM808.597 206.952H813.484H808.597ZM55.9839 211.87H75.5323H55.9839ZM187.935 211.87H192.823H187.935ZM207.484 211.87H231.919H207.484ZM290.565 211.87H300.339H290.565ZM495.823 211.87H500.71H495.823ZM534.919 211.87H549.581H534.919ZM730.403 211.87H735.29H730.403ZM803.71 211.87H808.597H803.71ZM60.871 216.787H65.7581H60.871ZM70.6452 216.787H75.5323H70.6452ZM192.823 216.787H207.484H192.823ZM300.339 216.787H310.113H300.339ZM495.823 216.787H500.71H495.823ZM520.258 216.787H534.919H520.258ZM730.403 216.787H803.71H730.403ZM65.7581 221.705H70.6452H65.7581ZM75.5323 221.705H80.4193H75.5323ZM310.113 221.705H315H310.113ZM495.823 221.705H520.258H495.823ZM774.387 221.705H803.71H774.387ZM70.6452 226.623H75.5323H70.6452ZM80.4193 226.623H85.3064H80.4193ZM315 226.623H319.887H315ZM486.048 226.623H500.71H486.048ZM798.823 226.623H803.71H798.823ZM85.3064 231.541H90.1936H85.3064ZM319.887 231.541H334.548H319.887ZM481.161 231.541H486.048H481.161ZM798.823 231.541H803.71H798.823ZM334.548 236.459H339.435H334.548ZM466.5 236.459H481.161H466.5ZM798.823 236.459H803.71H798.823ZM339.435 241.377H344.323H339.435ZM451.839 241.377H466.5H451.839ZM803.71 241.377H808.597H803.71ZM344.323 246.295H349.21H344.323ZM432.29 246.295H451.839H432.29ZM803.71 246.295H808.597H803.71ZM349.21 251.213H354.097H349.21ZM412.742 251.213H432.29H412.742ZM803.71 251.213H808.597H803.71ZM344.323 256.131H349.21H344.323ZM354.097 256.131H368.758H354.097ZM388.306 256.131H412.742H388.306ZM368.758 261.049H388.306H368.758Z" fill="black"/>
<path fill-rule="evenodd" clip-rule="evenodd" d="M207.484 -160.085H202.597V-163.7H207.484V-160.085ZM212.371 -155.168H207.484V-158.782H212.371V-155.168ZM217.258 -150.25H212.371V-153.865H217.258V-150.25ZM222.145 -145.332H217.258V-148.947H222.145V-145.332ZM227.032 -140.414H222.145V-144.029H227.032V-140.414ZM231.919 -135.496H227.032V-139.111H231.919V-135.496ZM236.806 -130.578H231.919V-134.193H236.806V-130.578ZM241.694 -125.66H236.806V-129.275H241.694V-125.66ZM246.581 -120.742H241.694V-124.357H246.581V-120.742ZM251.468 -115.824H246.581V-119.439H251.468V-115.824ZM256.355 -110.906H251.468V-114.521H256.355V-110.906ZM256.355 -105.988H251.468V-109.603H256.355V-105.988ZM574.016 -37.1374H569.129V-40.7523H574.016V-37.1374ZM574.016 -32.2195H569.129V-35.8344H574.016V-32.2195ZM574.016 -27.3016H569.129V-30.9165H574.016V-27.3016ZM574.016 -22.3837H569.129V-25.9985H574.016V-22.3837ZM574.016 -17.4657H569.129V-21.0806H574.016V-17.4657ZM574.016 -12.5478H569.129V-16.1627H574.016V-12.5478ZM574.016 -7.6299H569.129V-11.2448H574.016V-7.6299ZM574.016 -2.71198H569.129V-6.32686H574.016V-2.71198ZM574.016 2.20596H569.129V-1.40892H574.016V2.20596ZM569.129 7.12389H564.242V3.509H569.129V7.12389ZM569.129 12.0418H564.242V8.42691H569.129V12.0418ZM569.129 16.9597H564.242V13.3448H569.129V16.9597ZM569.129 21.8776H564.242V18.2628H569.129V21.8776ZM569.129 26.7956H564.242V23.1807H569.129V26.7956ZM569.129 31.7135H564.242V28.0986H569.129V31.7135ZM564.242 36.6314H559.355V33.0165H564.242V36.6314ZM564.242 41.5493H559.355V37.9344H564.242V41.5493ZM564.242 46.4673H559.355V42.8524H564.242V46.4673ZM564.242 47.7703V51.3852H554.468V47.7703H564.242ZM559.355 56.3031H554.468V52.6882H559.355V56.3031ZM559.355 61.221H554.468V57.6061H559.355V61.221ZM554.468 66.1389H549.581V62.5241H554.468V66.1389ZM549.581 71.0569H544.694V67.442H549.581V71.0569ZM544.694 75.9748H539.806V72.3599H544.694V75.9748ZM539.806 80.8927H530.032V77.2778H539.806V80.8927ZM1018.74 80.8927H1013.85V77.2778H1018.74V80.8927ZM534.919 85.8107H530.032V82.1958H534.919V85.8107ZM1018.74 85.8107H1013.85V82.1958H1018.74V85.8107ZM534.919 90.7285H530.032V87.1137H534.919V90.7285ZM1013.85 90.7285H1008.97V87.1137H1013.85V90.7285ZM534.919 95.6465H530.032V92.0316H534.919V95.6465ZM1013.85 95.6465H1008.97V92.0316H1013.85V95.6465ZM539.806 100.564H534.919V96.9495H539.806V100.564ZM1008.97 100.564H1004.08V96.9495H1008.97V100.564ZM539.806 105.482H534.919V101.867H539.806V105.482ZM1008.97 105.482H1004.08V101.867H1008.97V105.482ZM60.871 110.4H55.9839V106.785H60.871V110.4ZM544.694 110.4H539.806V106.785H544.694V110.4ZM1004.08 110.4H999.194V106.785H1004.08V110.4ZM1145.81 110.4H1111.6V106.785H1145.81V110.4ZM65.7581 115.318H60.871V111.703H65.7581V115.318ZM544.694 115.318H539.806V111.703H544.694V115.318ZM1004.08 115.318H999.194V111.703H1004.08V115.318ZM1111.6 115.318H1101.82V111.703H1111.6V115.318ZM1131.15 115.318H1126.26V111.703H1131.15V115.318ZM1175.13 115.318H1145.81V111.703H1175.13V115.318ZM70.6452 120.236H65.7581V116.621H70.6452V120.236ZM549.581 120.236H544.694V116.621H549.581V120.236ZM999.194 120.236H994.306V116.621H999.194V120.236ZM1101.82 120.236H1087.16V116.621H1101.82V120.236ZM1136.03 120.236H1131.15V116.621H1136.03V120.236ZM1204.45 120.236H1175.13V116.621H1204.45V120.236ZM75.5323 125.154H70.6452V121.539H75.5323V125.154ZM554.468 125.154H549.581V121.539H554.468V125.154ZM994.306 125.154H989.419V121.539H994.306V125.154ZM1087.16 125.154H1062.73V121.539H1087.16V125.154ZM1140.92 125.154H1136.03V121.539H1140.92V125.154ZM1224 125.154H1204.45V121.539H1224V125.154ZM80.4193 130.072H75.5323V126.457H80.4193V130.072ZM559.355 130.072H554.468V126.457H559.355V130.072ZM994.306 130.072H989.419V126.457H994.306V130.072ZM1062.73 130.072H1057.84V126.457H1062.73V130.072ZM1140.92 130.072H1136.03V126.457H1140.92V130.072ZM85.3064 134.99H80.4193V131.375H85.3064V134.99ZM564.242 134.99H559.355V131.375H564.242V134.99ZM989.419 134.99H984.532V131.375H989.419V134.99ZM1057.84 134.99H1038.29V131.375H1057.84V134.99ZM90.1936 139.908H85.3064V136.293H90.1936V139.908ZM569.129 139.908H564.242V136.293H569.129V139.908ZM984.532 139.908H974.758V136.293H984.532V139.908ZM1038.29 139.908H1023.63V136.293H1038.29V139.908ZM95.0807 144.826H90.1936V141.211H95.0807V144.826ZM574.016 141.211V144.826H564.242V141.211H574.016ZM979.645 141.211V144.826H969.871V141.211H979.645ZM1023.63 144.826H994.306V141.211H1023.63V144.826ZM104.855 149.744H95.0807V146.129H104.855V149.744ZM578.903 149.744H574.016V146.129H578.903V149.744ZM994.306 149.744H891.677V146.129H994.306V149.744ZM109.742 154.662H104.855V151.047H109.742V154.662ZM583.79 154.662H578.903V151.047H583.79V154.662ZM891.677 154.662H881.903V151.047H891.677V154.662ZM114.629 159.579H109.742V155.965H114.629V159.579ZM593.565 159.579H583.79V155.965H593.565V159.579ZM881.903 159.579H877.016V155.965H881.903V159.579ZM119.516 164.497H114.629V160.883H119.516V164.497ZM598.452 164.497H593.565V160.883H598.452V164.497ZM877.016 164.497H867.242V160.883H877.016V164.497ZM124.403 169.415H119.516V165.8H124.403V169.415ZM608.226 169.415H598.452V165.8H608.226V169.415ZM867.242 169.415H862.355V165.8H867.242V169.415ZM134.177 174.333H119.516V170.718H134.177V174.333ZM622.887 174.333H608.226V170.718H622.887V174.333ZM862.355 174.333H857.468V170.718H862.355V174.333ZM124.403 179.251H119.516V175.636H124.403V179.251ZM143.952 179.251H134.177V175.636H143.952V179.251ZM637.548 179.251H622.887V175.636H637.548V179.251ZM857.468 179.251H852.581V175.636H857.468V179.251ZM119.516 184.169H114.629V180.554H119.516V184.169ZM158.613 184.169H143.952V180.554H158.613V184.169ZM647.323 184.169H637.548V180.554H647.323V184.169ZM852.581 184.169H842.806V180.554H852.581V184.169ZM114.629 189.087H109.742V185.472H114.629V189.087ZM163.5 189.087H158.613V185.472H163.5V189.087ZM495.823 189.087H490.935V185.472H495.823V189.087ZM652.21 189.087H647.323V185.472H652.21V189.087ZM842.806 189.087H833.032V185.472H842.806V189.087ZM109.742 194.005H99.9677V190.39H109.742V194.005ZM168.387 194.005H163.5V190.39H168.387V194.005ZM495.823 194.005H490.935V190.39H495.823V194.005ZM637.548 194.005H627.774V190.39H637.548V194.005ZM671.758 194.005H652.21V190.39H671.758V194.005ZM833.032 194.005H828.145V190.39H833.032V194.005ZM16.8871 198.923H12V195.308H16.8871V198.923ZM99.9677 198.923H95.0807V195.308H99.9677V198.923ZM178.161 198.923H168.387V195.308H178.161V198.923ZM495.823 198.923H490.935V195.308H495.823V198.923ZM627.774 198.923H603.339V195.308H627.774V198.923ZM720.629 198.923H637.548V195.308H720.629V198.923ZM828.145 198.923H823.258V195.308H828.145V198.923ZM26.6613 203.841H16.8871V200.226H26.6613V203.841ZM95.0807 200.226V203.841H85.3064V200.226H95.0807ZM183.048 203.841H178.161V200.226H183.048V203.841ZM275.903 203.841H231.919V200.226H275.903V203.841ZM495.823 203.841H490.935V200.226H495.823V203.841ZM603.339 203.841H574.016V200.226H603.339V203.841ZM725.516 203.841H720.629V200.226H725.516V203.841ZM823.258 203.841H813.484V200.226H823.258V203.841ZM55.9839 208.759H26.6613V205.144H55.9839V208.759ZM85.3064 205.144V208.759H75.5323V205.144H85.3064ZM187.935 208.759H183.048V205.144H187.935V208.759ZM231.919 208.759H227.032V205.144H231.919V208.759ZM290.565 208.759H275.903V205.144H290.565V208.759ZM495.823 208.759H490.935V205.144H495.823V208.759ZM574.016 208.759H549.581V205.144H574.016V208.759ZM730.403 208.759H725.516V205.144H730.403V208.759ZM813.484 208.759H808.597V205.144H813.484V208.759ZM75.5323 213.677H55.9839V210.062H75.5323V213.677ZM192.823 213.677H187.935V210.062H192.823V213.677ZM231.919 213.677H207.484V210.062H231.919V213.677ZM300.339 213.677H290.565V210.062H300.339V213.677ZM500.71 213.677H495.823V210.062H500.71V213.677ZM549.581 213.677H534.919V210.062H549.581V213.677ZM735.29 213.677H730.403V210.062H735.29V213.677ZM808.597 213.677H803.71V210.062H808.597V213.677ZM65.7581 218.595H60.871V214.98H65.7581V218.595ZM75.5323 218.595H70.6452V214.98H75.5323V218.595ZM207.484 218.595H192.823V214.98H207.484V218.595ZM310.113 218.595H300.339V214.98H310.113V218.595ZM500.71 218.595H495.823V214.98H500.71V218.595ZM534.919 218.595H520.258V214.98H534.919V218.595ZM803.71 218.595H730.403V214.98H803.71V218.595ZM70.6452 223.512H65.7581V219.898H70.6452V223.512ZM80.4193 223.512H75.5323V219.898H80.4193V223.512ZM315 223.512H310.113V219.898H315V223.512ZM520.258 223.512H495.823V219.898H520.258V223.512ZM803.71 223.512H774.387V219.898H803.71V223.512ZM75.5323 228.43H70.6452V224.815H75.5323V228.43ZM85.3064 228.43H80.4193V224.815H85.3064V228.43ZM319.887 228.43H315V224.815H319.887V228.43ZM500.71 228.43H486.048V224.815H500.71V228.43ZM803.71 228.43H798.823V224.815H803.71V228.43ZM90.1936 233.348H85.3064V229.733H90.1936V233.348ZM334.548 233.348H319.887V229.733H334.548V233.348ZM486.048 233.348H481.161V229.733H486.048V233.348ZM803.71 233.348H798.823V229.733H803.71V233.348ZM339.435 238.266H334.548V234.651H339.435V238.266ZM481.161 238.266H466.5V234.651H481.161V238.266ZM803.71 238.266H798.823V234.651H803.71V238.266ZM344.323 243.184H339.435V239.569H344.323V243.184ZM466.5 243.184H451.839V239.569H466.5V243.184ZM808.597 243.184H803.71V239.569H808.597V243.184ZM349.21 248.102H344.323V244.487H349.21V248.102ZM451.839 248.102H432.29V244.487H451.839V248.102ZM808.597 248.102H803.71V244.487H808.597V248.102ZM354.097 253.02H349.21V249.405H354.097V253.02ZM432.29 253.02H412.742V249.405H432.29V253.02ZM808.597 253.02H803.71V249.405H808.597V253.02ZM349.21 257.938H344.323V254.323H349.21V257.938ZM368.758 257.938H354.097V254.323H368.758V257.938ZM412.742 257.938H388.306V254.323H412.742V257.938ZM388.306 262.856H368.758V259.241H388.306V262.856Z" fill="#4E4C6C"/>
</g>
<rect x="1515" y="4" width="4.00003" height="750" transform="rotate(90 1515 4)" fill="#75739C"/>
<rect x="1523" y="12" width="4.00003" height="750" transform="rotate(90 1523 12)" fill="#75739C"/>
<rect x="1519" y="8" width="4.00003" height="750" transform="rotate(90 1519 8)" fill="#75739C"/>
<rect x="1523" y="16" width="4" height="746" transform="rotate(90 1523 16)" fill="#75739C"/>
<rect x="1523" y="20" width="4" height="742" transform="rotate(90 1523 20)" fill="#75739C"/>
<rect x="1523" y="28" width="4.00003" height="734" transform="rotate(90 1523 28)" fill="#75739C"/>
<rect x="1523" y="36" width="4.00003" height="726" transform="rotate(90 1523 36)" fill="#75739C"/>
<rect x="1523" y="52" width="4.00003" height="710" transform="rotate(90 1523 52)" fill="#75739C"/>
<rect x="1523" y="32" width="4.00003" height="730" transform="rotate(90 1523 32)" fill="#75739C"/>
<rect x="1523" y="40" width="4.00003" height="722" transform="rotate(90 1523 40)" fill="#75739C"/>
<rect x="1523" y="44" width="4.00003" height="718" transform="rotate(90 1523 44)" fill="#75739C"/>
<rect x="1523" y="60.0001" width="4.00003" height="702" transform="rotate(90 1523 60.0001)" fill="#75739C"/>
<rect x="1523" y="24" width="4" height="738" transform="rotate(90 1523 24)" fill="#75739C"/>
<rect x="1523" y="48" width="4.00003" height="714" transform="rotate(90 1523 48)" fill="#75739C"/>
<rect x="1523" y="56" width="4.00003" height="706" transform="rotate(90 1523 56)" fill="#75739C"/>
<rect x="1523" y="64" width="4.00003" height="698" transform="rotate(90 1523 64)" fill="#75739C"/>
<rect x="1523" y="76" width="4.00003" height="686" transform="rotate(90 1523 76)" fill="#75739C"/>
<rect x="1523" y="68" width="4.00003" height="694" transform="rotate(90 1523 68)" fill="#75739C"/>
<rect x="1523" y="80" width="4.00003" height="682" transform="rotate(90 1523 80)" fill="#75739C"/>
<rect x="1523" y="92" width="4.00003" height="670" transform="rotate(90 1523 92)" fill="#75739C"/>
<rect x="1523" y="108" width="4.00003" height="654" transform="rotate(90 1523 108)" fill="#75739C"/>
<rect x="1523" y="72" width="4.00003" height="690" transform="rotate(90 1523 72)" fill="#75739C"/>
<rect x="1523" y="84" width="4.00003" height="678" transform="rotate(90 1523 84)" fill="#75739C"/>
<rect x="1523" y="88" width="4.00003" height="674" transform="rotate(90 1523 88)" fill="#75739C"/>
<rect x="1523" y="96" width="4.00003" height="666" transform="rotate(90 1523 96)" fill="#75739C"/>
<rect x="1523" y="100" width="4.00003" height="662" transform="rotate(90 1523 100)" fill="#75739C"/>
<rect x="1523" y="104" width="4.00003" height="658" transform="rotate(90 1523 104)" fill="#75739C"/>
<g clip-path="url(#clip1_242_7910)">
<path d="M1623.07 57.5186H1620.53H1623.07ZM1620.53 60.0961H1617.98H1620.53ZM1617.98 62.6736H1615.44H1617.98ZM1615.44 65.2511H1612.89H1615.44ZM1612.89 67.8286H1610.34H1612.89ZM1610.34 70.4062H1607.8H1610.34ZM1607.8 72.9837H1605.25H1607.8ZM1605.25 75.5612H1602.71H1605.25ZM1602.71 78.1387H1600.16H1602.71ZM1600.16 80.7162H1597.62H1600.16ZM1597.62 83.2937H1595.07H1597.62ZM1597.62 85.8713H1595.07H1597.62ZM1432.14 121.957H1429.59H1432.14ZM1432.14 124.534H1429.59H1432.14ZM1432.14 127.112H1429.59H1432.14ZM1432.14 129.689H1429.59H1432.14ZM1432.14 132.267H1429.59H1432.14ZM1432.14 134.844H1429.59H1432.14ZM1432.14 137.422H1429.59H1432.14ZM1432.14 139.999H1429.59H1432.14ZM1432.14 142.577H1429.59H1432.14ZM1434.68 145.154H1432.14H1434.68ZM1434.68 147.732H1432.14H1434.68ZM1434.68 150.309H1432.14H1434.68ZM1434.68 152.887H1432.14H1434.68ZM1434.68 155.464H1432.14H1434.68ZM1434.68 158.042H1432.14H1434.68ZM1437.23 160.619H1434.68H1437.23ZM1437.23 163.197H1434.68H1437.23ZM1437.23 165.774H1434.68H1437.23ZM1439.78 168.352H1434.68H1439.78ZM1439.78 170.929H1437.23H1439.78ZM1439.78 173.507H1437.23H1439.78ZM1442.32 176.084H1439.78H1442.32ZM1444.87 178.662H1442.32H1444.87ZM1447.41 181.239H1444.87H1447.41ZM1452.5 183.817H1447.41H1452.5ZM1200.47 183.817H1197.92H1200.47ZM1452.5 186.395H1449.96H1452.5ZM1200.47 186.395H1197.92H1200.47ZM1452.5 188.972H1449.96H1452.5ZM1203.02 188.972H1200.47H1203.02ZM1452.5 191.55H1449.96H1452.5ZM1203.02 191.55H1200.47H1203.02ZM1449.96 194.127H1447.41H1449.96ZM1205.56 194.127H1203.02H1205.56ZM1449.96 196.705H1447.41H1449.96ZM1205.56 196.705H1203.02H1205.56ZM1699.45 199.282H1696.9H1699.45ZM1447.41 199.282H1444.87H1447.41ZM1208.11 199.282H1205.56H1208.11ZM1149.55 199.282H1131.73H1149.55ZM1696.9 201.86H1694.36H1696.9ZM1447.41 201.86H1444.87H1447.41ZM1208.11 201.86H1205.56H1208.11ZM1154.65 201.86H1149.55H1154.65ZM1141.92 201.86H1139.37H1141.92ZM1131.73 201.86H1116.46H1131.73ZM1694.36 204.437H1691.81H1694.36ZM1444.87 204.437H1442.32H1444.87ZM1210.65 204.437H1208.11H1210.65ZM1162.28 204.437H1154.65H1162.28ZM1139.37 204.437H1136.82H1139.37ZM1116.46 204.437H1101.18H1116.46ZM1691.81 207.015H1689.26H1691.81ZM1442.32 207.015H1439.78H1442.32ZM1213.2 207.015H1210.65H1213.2ZM1175.01 207.015H1162.28H1175.01ZM1136.82 207.015H1134.28H1136.82ZM1101.18 207.015H1091H1101.18ZM1689.26 209.592H1686.72H1689.26ZM1439.78 209.592H1437.23H1439.78ZM1213.2 209.592H1210.65H1213.2ZM1177.56 209.592H1175.01H1177.56ZM1136.82 209.592H1134.28H1136.82ZM1686.72 212.17H1684.17H1686.72ZM1437.23 212.17H1434.68H1437.23ZM1215.74 212.17H1213.2H1215.74ZM1187.74 212.17H1177.56H1187.74ZM1684.17 214.747H1681.63H1684.17ZM1434.68 214.747H1432.14H1434.68ZM1220.84 214.747H1215.74H1220.84ZM1195.38 214.747H1187.74H1195.38ZM1681.63 217.325H1679.08H1681.63ZM1434.68 217.325H1429.59H1434.68ZM1223.38 217.325H1218.29H1223.38ZM1210.65 217.325H1195.38H1210.65ZM1679.08 219.902H1673.99H1679.08ZM1429.59 219.902H1427.05H1429.59ZM1264.11 219.902H1210.65H1264.11ZM1673.99 222.48H1671.44H1673.99ZM1427.05 222.48H1424.5H1427.05ZM1269.21 222.48H1264.11H1269.21ZM1671.44 225.057H1668.9H1671.44ZM1424.5 225.057H1419.41H1424.5ZM1271.75 225.057H1269.21H1271.75ZM1668.9 227.635H1666.35H1668.9ZM1419.41 227.635H1416.86H1419.41ZM1276.84 227.635H1271.75H1276.84ZM1666.35 230.212H1663.81H1666.35ZM1416.86 230.212H1411.77H1416.86ZM1279.39 230.212H1276.84H1279.39ZM1666.35 232.79H1658.71H1666.35ZM1411.77 232.79H1404.13H1411.77ZM1281.94 232.79H1279.39H1281.94ZM1666.35 235.367H1663.81H1666.35ZM1658.71 235.367H1653.62H1658.71ZM1404.13 235.367H1396.5H1404.13ZM1284.48 235.367H1281.94H1284.48ZM1668.9 237.945H1666.35H1668.9ZM1653.62 237.945H1645.99H1653.62ZM1396.5 237.945H1391.41H1396.5ZM1289.57 237.945H1284.48H1289.57ZM1671.44 240.522H1668.9H1671.44ZM1645.99 240.522H1643.44H1645.99ZM1472.87 240.522H1470.32H1472.87ZM1391.41 240.522H1388.86H1391.41ZM1294.66 240.522H1289.57H1294.66ZM1676.53 243.1H1671.44H1676.53ZM1643.44 243.1H1640.89H1643.44ZM1472.87 243.1H1470.32H1472.87ZM1401.59 243.1H1396.5H1401.59ZM1388.86 243.1H1378.68H1388.86ZM1297.21 243.1H1294.66H1297.21ZM1722.36 245.677H1719.81H1722.36ZM1679.08 245.677H1676.53H1679.08ZM1640.89 245.677H1635.8H1640.89ZM1472.87 245.677H1470.32H1472.87ZM1414.32 245.677H1401.59H1414.32ZM1396.5 245.677H1353.22H1396.5ZM1299.76 245.677H1297.21H1299.76ZM1719.81 248.255H1714.72H1719.81ZM1684.17 248.255H1679.08H1684.17ZM1635.8 248.255H1633.26H1635.8ZM1607.8 248.255H1584.89H1607.8ZM1472.87 248.255H1470.32H1472.87ZM1429.59 248.255H1414.32H1429.59ZM1353.22 248.255H1350.67H1353.22ZM1304.85 248.255H1299.76H1304.85ZM1714.72 250.833H1699.45H1714.72ZM1689.26 250.833H1684.17H1689.26ZM1633.26 250.833H1630.71H1633.26ZM1610.34 250.833H1607.8H1610.34ZM1584.89 250.833H1577.25H1584.89ZM1472.87 250.833H1470.32H1472.87ZM1442.32 250.833H1429.59H1442.32ZM1350.67 250.833H1348.13H1350.67ZM1307.39 250.833H1304.85H1307.39ZM1699.45 253.41H1689.26H1699.45ZM1630.71 253.41H1628.16H1630.71ZM1620.53 253.41H1607.8H1620.53ZM1577.25 253.41H1572.16H1577.25ZM1470.32 253.41H1467.78H1470.32ZM1449.96 253.41H1442.32H1449.96ZM1348.13 253.41H1345.58H1348.13ZM1309.94 253.41H1307.39H1309.94ZM1696.9 255.988H1694.36H1696.9ZM1691.81 255.988H1689.26H1691.81ZM1628.16 255.988H1620.53H1628.16ZM1572.16 255.988H1567.07H1572.16ZM1470.32 255.988H1467.78H1470.32ZM1457.6 255.988H1449.96H1457.6ZM1348.13 255.988H1309.94H1348.13ZM1694.36 258.565H1691.81H1694.36ZM1689.26 258.565H1686.72H1689.26ZM1567.07 258.565H1564.52H1567.07ZM1470.32 258.565H1457.6H1470.32ZM1325.21 258.565H1309.94H1325.21ZM1691.81 261.143H1689.26H1691.81ZM1686.72 261.143H1684.17H1686.72ZM1564.52 261.143H1561.97H1564.52ZM1475.42 261.143H1467.78H1475.42ZM1312.49 261.143H1309.94H1312.49ZM1684.17 263.72H1681.63H1684.17ZM1561.97 263.72H1554.34H1561.97ZM1477.96 263.72H1475.42H1477.96ZM1312.49 263.72H1309.94H1312.49ZM1554.34 266.298H1551.79H1554.34ZM1485.6 266.298H1477.96H1485.6ZM1312.49 266.298H1309.94H1312.49ZM1551.79 268.875H1549.24H1551.79ZM1493.24 268.875H1485.6H1493.24ZM1309.94 268.875H1307.39H1309.94ZM1549.24 271.453H1546.7H1549.24ZM1503.42 271.453H1493.24H1503.42ZM1309.94 271.453H1307.39H1309.94ZM1546.7 274.03H1544.15H1546.7ZM1513.6 274.03H1503.42H1513.6ZM1309.94 274.03H1307.39H1309.94ZM1549.24 276.608H1546.7H1549.24ZM1544.15 276.608H1536.52H1544.15ZM1526.33 276.608H1513.6H1526.33ZM1536.52 279.185H1526.33H1536.52Z" fill="black"/>
<path fill-rule="evenodd" clip-rule="evenodd" d="M1450.53 49.3971H1453.07V47.5186H1450.53V49.3971ZM1447.98 51.9528H1450.53V50.0742H1447.98V51.9528ZM1445.44 54.5084H1447.98V52.6299H1445.44V54.5084ZM1442.89 57.0641H1445.44V55.1856H1442.89V57.0641ZM1440.34 59.6198H1442.89V57.7413H1440.34V59.6198ZM1437.8 62.1755H1440.34V60.2969H1437.8V62.1755ZM1435.25 64.7311H1437.8V62.8526H1435.25V64.7311ZM1432.71 67.2868H1435.25V65.4083H1432.71V67.2868ZM1430.16 69.8425H1432.71V67.964H1430.16V69.8425ZM1427.62 72.3982H1430.16V70.5196H1427.62V72.3982ZM1425.07 74.9538H1427.62V73.0753H1425.07V74.9538ZM1425.07 77.5095H1427.62V75.631H1425.07V77.5095ZM1259.59 113.289H1262.14V111.41H1259.59V113.289ZM1259.59 115.845H1262.14V113.966H1259.59V115.845ZM1259.59 118.4H1262.14V116.522H1259.59V118.4ZM1259.59 120.956H1262.14V119.077H1259.59V120.956ZM1259.59 123.512H1262.14V121.633H1259.59V123.512ZM1259.59 126.067H1262.14V124.189H1259.59V126.067ZM1259.59 128.623H1262.14V126.745H1259.59V128.623ZM1259.59 131.179H1262.14V129.3H1259.59V131.179ZM1259.59 133.734H1262.14V131.856H1259.59V133.734ZM1262.14 136.29H1264.68V134.412H1262.14V136.29ZM1262.14 138.846H1264.68V136.967H1262.14V138.846ZM1262.14 141.401H1264.68V139.523H1262.14V141.401ZM1262.14 143.957H1264.68V142.079H1262.14V143.957ZM1262.14 146.513H1264.68V144.634H1262.14V146.513ZM1262.14 149.068H1264.68V147.19H1262.14V149.068ZM1264.68 151.624H1267.23V149.746H1264.68V151.624ZM1264.68 154.18H1267.23V152.301H1264.68V154.18ZM1264.68 156.735H1267.23V154.857H1264.68V156.735ZM1264.68 157.413V159.291H1269.78V157.413H1264.68ZM1267.23 161.847H1269.78V159.968H1267.23V161.847ZM1267.23 164.403H1269.78V162.524H1267.23V164.403ZM1269.78 166.958H1272.32V165.08H1269.78V166.958ZM1272.32 169.514H1274.87V167.635H1272.32V169.514ZM1274.87 172.07H1277.41V170.191H1274.87V172.07ZM1277.41 174.625H1282.5V172.747H1277.41V174.625ZM1027.92 174.625H1030.47V172.747H1027.92V174.625ZM1279.96 177.181H1282.5V175.302H1279.96V177.181ZM1027.92 177.181H1030.47V175.302H1027.92V177.181ZM1279.96 179.737H1282.5V177.858H1279.96V179.737ZM1030.47 179.737H1033.02V177.858H1030.47V179.737ZM1279.96 182.292H1282.5V180.414H1279.96V182.292ZM1030.47 182.292H1033.02V180.414H1030.47V182.292ZM1277.41 184.848H1279.96V182.969H1277.41V184.848ZM1033.02 184.848H1035.56V182.969H1033.02V184.848ZM1277.41 187.404H1279.96V185.525H1277.41V187.404ZM1033.02 187.404H1035.56V185.525H1033.02V187.404ZM1526.9 189.959H1529.45V188.081H1526.9V189.959ZM1274.87 189.959H1277.41V188.081H1274.87V189.959ZM1035.56 189.959H1038.11V188.081H1035.56V189.959ZM961.733 189.959H979.554V188.081H961.733V189.959ZM1524.36 192.515H1526.9V190.636H1524.36V192.515ZM1274.87 192.515H1277.41V190.636H1274.87V192.515ZM1035.56 192.515H1038.11V190.636H1035.56V192.515ZM979.554 192.515H984.645V190.636H979.554V192.515ZM969.371 192.515H971.916V190.636H969.371V192.515ZM946.458 192.515H961.733V190.636H946.458V192.515ZM1521.81 195.071H1524.36V193.192H1521.81V195.071ZM1272.32 195.071H1274.87V193.192H1272.32V195.071ZM1038.11 195.071H1040.65V193.192H1038.11V195.071ZM984.645 195.071H992.283V193.192H984.645V195.071ZM966.825 195.071H969.371V193.192H966.825V195.071ZM931.184 195.071H946.458V193.192H931.184V195.071ZM1519.26 197.626H1521.81V195.748H1519.26V197.626ZM1269.78 197.626H1272.32V195.748H1269.78V197.626ZM1040.65 197.626H1043.2V195.748H1040.65V197.626ZM992.283 197.626H1005.01V195.748H992.283V197.626ZM964.279 197.626H966.825V195.748H964.279V197.626ZM921 197.626H931.184V195.748H921V197.626ZM1516.72 200.182H1519.26V198.303H1516.72V200.182ZM1267.23 200.182H1269.78V198.303H1267.23V200.182ZM1040.65 200.182H1043.2V198.303H1040.65V200.182ZM1005.01 200.182H1007.56V198.303H1005.01V200.182ZM964.279 200.182H966.825V198.303H964.279V200.182ZM1514.17 202.738H1516.72V200.859H1514.17V202.738ZM1264.68 202.738H1267.23V200.859H1264.68V202.738ZM1043.2 202.738H1045.74V200.859H1043.2V202.738ZM1007.56 202.738H1017.74V200.859H1007.56V202.738ZM1511.63 205.293H1514.17V203.415H1511.63V205.293ZM1262.14 205.293H1264.68V203.415H1262.14V205.293ZM1045.74 205.293H1050.84V203.415H1045.74V205.293ZM1017.74 205.293H1025.38V203.415H1017.74V205.293ZM1509.08 207.849H1511.63V205.97H1509.08V207.849ZM1259.59 205.97V207.849H1264.68V205.97H1259.59ZM1048.29 205.97V207.849H1053.38V205.97H1048.29ZM1025.38 207.849H1040.65V205.97H1025.38V207.849ZM1503.99 210.405H1509.08V208.526H1503.99V210.405ZM1257.05 210.405H1259.59V208.526H1257.05V210.405ZM1040.65 210.405H1094.11V208.526H1040.65V210.405ZM1501.44 212.96H1503.99V211.082H1501.44V212.96ZM1254.5 212.96H1257.05V211.082H1254.5V212.96ZM1094.11 212.96H1099.21V211.082H1094.11V212.96ZM1498.9 215.516H1501.44V213.637H1498.9V215.516ZM1249.41 215.516H1254.5V213.637H1249.41V215.516ZM1099.21 215.516H1101.75V213.637H1099.21V215.516ZM1496.35 218.072H1498.9V216.193H1496.35V218.072ZM1246.86 218.072H1249.41V216.193H1246.86V218.072ZM1101.75 218.072H1106.84V216.193H1101.75V218.072ZM1493.81 220.627H1496.35V218.749H1493.81V220.627ZM1241.77 220.627H1246.86V218.749H1241.77V220.627ZM1106.84 220.627H1109.39V218.749H1106.84V220.627ZM1488.71 223.183H1496.35V221.305H1488.71V223.183ZM1234.13 223.183H1241.77V221.305H1234.13V223.183ZM1109.39 223.183H1111.94V221.305H1109.39V223.183ZM1493.81 225.739H1496.35V223.86H1493.81V225.739ZM1483.62 225.739H1488.71V223.86H1483.62V225.739ZM1226.5 225.739H1234.13V223.86H1226.5V225.739ZM1111.94 225.739H1114.48V223.86H1111.94V225.739ZM1496.35 228.294H1498.9V226.416H1496.35V228.294ZM1475.99 228.294H1483.62V226.416H1475.99V228.294ZM1221.41 228.294H1226.5V226.416H1221.41V228.294ZM1114.48 228.294H1119.57V226.416H1114.48V228.294ZM1498.9 230.85H1501.44V228.972H1498.9V230.85ZM1473.44 230.85H1475.99V228.972H1473.44V230.85ZM1300.32 230.85H1302.87V228.972H1300.32V230.85ZM1218.86 230.85H1221.41V228.972H1218.86V230.85ZM1119.57 230.85H1124.66V228.972H1119.57V230.85ZM1501.44 233.406H1506.53V231.527H1501.44V233.406ZM1470.89 233.406H1473.44V231.527H1470.89V233.406ZM1300.32 233.406H1302.87V231.527H1300.32V233.406ZM1226.5 233.406H1231.59V231.527H1226.5V233.406ZM1208.68 233.406H1218.86V231.527H1208.68V233.406ZM1124.66 233.406H1127.21V231.527H1124.66V233.406ZM1549.81 235.961H1552.36V234.083H1549.81V235.961ZM1506.53 235.961H1509.08V234.083H1506.53V235.961ZM1465.8 235.961H1470.89V234.083H1465.8V235.961ZM1300.32 235.961H1302.87V234.083H1300.32V235.961ZM1231.59 235.961H1244.32V234.083H1231.59V235.961ZM1183.22 235.961H1226.5V234.083H1183.22V235.961ZM1127.21 235.961H1129.76V234.083H1127.21V235.961ZM1544.72 238.517H1549.81V236.639H1544.72V238.517ZM1509.08 236.639V238.517H1514.17V236.639H1509.08ZM1463.26 238.517H1465.8V236.639H1463.26V238.517ZM1414.89 238.517H1437.8V236.639H1414.89V238.517ZM1300.32 238.517H1302.87V236.639H1300.32V238.517ZM1244.32 238.517H1259.59V236.639H1244.32V238.517ZM1180.67 238.517H1183.22V236.639H1180.67V238.517ZM1129.76 238.517H1134.85V236.639H1129.76V238.517ZM1529.45 241.073H1544.72V239.194H1529.45V241.073ZM1514.17 239.194V241.073H1519.26V239.194H1514.17ZM1460.71 241.073H1463.26V239.194H1460.71V241.073ZM1437.8 241.073H1440.34V239.194H1437.8V241.073ZM1407.25 241.073H1414.89V239.194H1407.25V241.073ZM1300.32 241.073H1302.87V239.194H1300.32V241.073ZM1259.59 241.073H1272.32V239.194H1259.59V241.073ZM1178.13 241.073H1180.67V239.194H1178.13V241.073ZM1134.85 241.073H1137.39V239.194H1134.85V241.073ZM1519.26 243.628H1529.45V241.75H1519.26V243.628ZM1458.16 243.628H1460.71V241.75H1458.16V243.628ZM1437.8 243.628H1450.53V241.75H1437.8V243.628ZM1402.16 243.628H1407.25V241.75H1402.16V243.628ZM1297.78 243.628H1300.32V241.75H1297.78V243.628ZM1272.32 243.628H1279.96V241.75H1272.32V243.628ZM1175.58 243.628H1178.13V241.75H1175.58V243.628ZM1137.39 243.628H1139.94V241.75H1137.39V243.628ZM1524.36 246.184H1526.9V244.306H1524.36V246.184ZM1519.26 246.184H1521.81V244.306H1519.26V246.184ZM1450.53 246.184H1458.16V244.306H1450.53V246.184ZM1397.07 246.184H1402.16V244.306H1397.07V246.184ZM1297.78 246.184H1300.32V244.306H1297.78V246.184ZM1279.96 246.184H1287.6V244.306H1279.96V246.184ZM1139.94 246.184H1178.13V244.306H1139.94V246.184ZM1521.81 248.74H1524.36V246.861H1521.81V248.74ZM1516.72 248.74H1519.26V246.861H1516.72V248.74ZM1394.52 248.74H1397.07V246.861H1394.52V248.74ZM1287.6 248.74H1300.32V246.861H1287.6V248.74ZM1139.94 248.74H1155.21V246.861H1139.94V248.74ZM1519.26 251.295H1521.81V249.417H1519.26V251.295ZM1514.17 251.295H1516.72V249.417H1514.17V251.295ZM1391.97 251.295H1394.52V249.417H1391.97V251.295ZM1297.78 251.295H1305.42V249.417H1297.78V251.295ZM1139.94 251.295H1142.49V249.417H1139.94V251.295ZM1511.63 253.851H1514.17V251.973H1511.63V253.851ZM1384.34 253.851H1391.97V251.973H1384.34V253.851ZM1305.42 253.851H1307.96V251.973H1305.42V253.851ZM1139.94 253.851H1142.49V251.973H1139.94V253.851ZM1381.79 256.407H1384.34V254.528H1381.79V256.407ZM1307.96 256.407H1315.6V254.528H1307.96V256.407ZM1139.94 256.407H1142.49V254.528H1139.94V256.407ZM1379.24 258.963H1381.79V257.084H1379.24V258.963ZM1315.6 258.963H1323.24V257.084H1315.6V258.963ZM1137.39 258.963H1139.94V257.084H1137.39V258.963ZM1376.7 261.518H1379.24V259.64H1376.7V261.518ZM1323.24 261.518H1333.42V259.64H1323.24V261.518ZM1137.39 261.518H1139.94V259.64H1137.39V261.518ZM1374.15 264.074H1376.7V262.195H1374.15V264.074ZM1333.42 264.074H1343.6V262.195H1333.42V264.074ZM1137.39 264.074H1139.94V262.195H1137.39V264.074ZM1376.7 266.63H1379.24V264.751H1376.7V266.63ZM1366.52 266.63H1374.15V264.751H1366.52V266.63ZM1343.6 266.63H1356.33V264.751H1343.6V266.63ZM1356.33 269.185H1366.52V267.307H1356.33V269.185Z" fill="#4E4C6C"/>
</g>
</g>
<defs>
<filter id="filter0_d_242_7910" x="0" y="0" width="1527" height="278" filterUnits="userSpaceOnUse" color-interpolation-filters="sRGB">
<feFlood flood-opacity="0" result="BackgroundImageFix"/>
<feColorMatrix in="SourceAlpha" type="matrix" values="0 0 0 0 0 0 0 0 0 0 0 0 0 0 0 0 0 0 127 0" result="hardAlpha"/>
<feOffset dx="-8" dy="8"/>
<feComposite in2="hardAlpha" operator="out"/>
<feColorMatrix type="matrix" values="0 0 0 0 0 0 0 0 0 0 0 0 0 0 0 0 0 0 0.35 0"/>
<feBlend mode="normal" in2="BackgroundImageFix" result="effect1_dropShadow_242_7910"/>
<feBlend mode="normal" in="SourceGraphic" in2="effect1_dropShadow_242_7910" result="shape"/>
</filter>
<clipPath id="clip0_242_7910">
<rect width="1212" height="254" fill="white" transform="translate(12 4)"/>
</clipPath>
<clipPath id="clip1_242_7910">
<rect width="432" height="108" fill="white" transform="matrix(-1 0 0 1 1523 150)"/>
</clipPath>
</defs>
</svg>
