<svg width="432" height="108" viewBox="0 0 432 108" fill="none" xmlns="http://www.w3.org/2000/svg">
<path fill-rule="evenodd" clip-rule="evenodd" d="M359.527 -100.603H362.073V-102.481H359.527V-100.603ZM356.981 -98.0472H359.527V-99.9258H356.981V-98.0472ZM354.436 -95.4916H356.981V-97.3701H354.436V-95.4916ZM351.89 -92.9359H354.436V-94.8144H351.89V-92.9359ZM349.344 -90.3802H351.89V-92.2587H349.344V-90.3802ZM346.798 -87.8245H349.344V-89.7031H346.798V-87.8245ZM344.252 -85.2689H346.798V-87.1474H344.252V-85.2689ZM341.707 -82.7132H344.252V-84.5917H341.707V-82.7132ZM339.161 -80.1575H341.707V-82.036H339.161V-80.1575ZM336.615 -77.6018H339.161V-79.4804H336.615V-77.6018ZM334.069 -75.0462H336.615V-76.9247H334.069V-75.0462ZM334.069 -72.4905H336.615V-74.369H334.069V-72.4905ZM168.592 -36.711H171.138V-38.5895H168.592V-36.711ZM168.592 -34.1553H171.138V-36.0339H168.592V-34.1553ZM168.592 -31.5997H171.138V-33.4782H168.592V-31.5997ZM168.592 -29.044H171.138V-30.9225H168.592V-29.044ZM168.592 -26.4883H171.138V-28.3668H168.592V-26.4883ZM168.592 -23.9326H171.138V-25.8112H168.592V-23.9326ZM168.592 -21.377H171.138V-23.2555H168.592V-21.377ZM168.592 -18.8213H171.138V-20.6998H168.592V-18.8213ZM168.592 -16.2656H171.138V-18.1441H168.592V-16.2656ZM171.138 -13.7099H173.684V-15.5885H171.138V-13.7099ZM171.138 -11.1543H173.684V-13.0328H171.138V-11.1543ZM171.138 -8.59858H173.684V-10.4771H171.138V-8.59858ZM171.138 -6.0429H173.684V-7.92143H171.138V-6.0429ZM171.138 -3.48723H173.684V-5.36575H171.138V-3.48723ZM171.138 -0.931557H173.684V-2.81009H171.138V-0.931557ZM173.684 1.62412H176.229V-0.25441H173.684V1.62412ZM173.684 4.1798H176.229V2.30127H173.684V4.1798ZM173.684 6.73548H176.229V4.85695H173.684V6.73548ZM173.684 7.41262V9.29115H178.775V7.41262H173.684ZM176.229 11.8468H178.775V9.96829H176.229V11.8468ZM176.229 14.4025H178.775V12.524H176.229V14.4025ZM178.775 16.9582H181.321V15.0797H178.775V16.9582ZM181.321 19.5139H183.867V17.6353H181.321V19.5139ZM183.867 22.0695H186.413V20.191H183.867V22.0695ZM186.413 24.6252H191.504V22.7467H186.413V24.6252ZM-63.076 24.6252H-60.5302V22.7467H-63.076V24.6252ZM188.958 27.1809H191.504V25.3024H188.958V27.1809ZM-63.076 27.1809H-60.5302V25.3024H-63.076V27.1809ZM188.958 29.7366H191.504V27.858H188.958V29.7366ZM-60.5302 29.7366H-57.9844V27.858H-60.5302V29.7366ZM188.958 32.2922H191.504V30.4137H188.958V32.2922ZM-60.5302 32.2922H-57.9844V30.4137H-60.5302V32.2922ZM186.413 34.8479H188.958V32.9694H186.413V34.8479ZM-57.9844 34.8479H-55.4385V32.9694H-57.9844V34.8479ZM186.413 37.4036H188.958V35.5251H186.413V37.4036ZM-57.9844 37.4036H-55.4385V35.5251H-57.9844V37.4036ZM435.901 39.9593H438.447V38.0807H435.901V39.9593ZM183.867 39.9593H186.413V38.0807H183.867V39.9593ZM-55.4385 39.9593H-52.8928V38.0807H-55.4385V39.9593ZM-129.267 39.9593H-111.446V38.0807H-129.267V39.9593ZM433.356 42.5149H435.901V40.6364H433.356V42.5149ZM183.867 42.5149H186.413V40.6364H183.867V42.5149ZM-55.4385 42.5149H-52.8928V40.6364H-55.4385V42.5149ZM-111.446 42.5149H-106.355V40.6364H-111.446V42.5149ZM-121.629 42.5149H-119.084V40.6364H-121.629V42.5149ZM-144.542 42.5149H-129.267V40.6364H-144.542V42.5149ZM430.81 45.0706H433.356V43.1921H430.81V45.0706ZM181.321 45.0706H183.867V43.1921H181.321V45.0706ZM-52.8928 45.0706H-50.3469V43.1921H-52.8928V45.0706ZM-106.355 45.0706H-98.7172V43.1921H-106.355V45.0706ZM-124.175 45.0706H-121.629V43.1921H-124.175V45.0706ZM-159.816 45.0706H-144.542V43.1921H-159.816V45.0706ZM428.264 47.6263H430.81V45.7478H428.264V47.6263ZM178.775 47.6263H181.321V45.7478H178.775V47.6263ZM-50.3469 47.6263H-47.8012V45.7478H-50.3469V47.6263ZM-98.7172 47.6263H-85.9882V45.7478H-98.7172V47.6263ZM-126.721 47.6263H-124.175V45.7478H-126.721V47.6263ZM-170 47.6263H-159.816V45.7478H-170V47.6263ZM425.718 50.182H428.264V48.3034H425.718V50.182ZM176.229 50.182H178.775V48.3034H176.229V50.182ZM-50.3469 50.182H-47.8012V48.3034H-50.3469V50.182ZM-85.9882 50.182H-83.4424V48.3034H-85.9882V50.182ZM-126.721 50.182H-124.175V48.3034H-126.721V50.182ZM423.172 52.7376H425.718V50.8591H423.172V52.7376ZM173.684 52.7376H176.229V50.8591H173.684V52.7376ZM-47.8012 52.7376H-45.2553V50.8591H-47.8012V52.7376ZM-83.4424 52.7376H-73.2592V50.8591H-83.4424V52.7376ZM420.627 55.2933H423.172V53.4148H420.627V55.2933ZM171.138 55.2933H173.684V53.4148H171.138V55.2933ZM-45.2553 55.2933H-40.1637V53.4148H-45.2553V55.2933ZM-73.2592 55.2933H-65.6218V53.4148H-73.2592V55.2933ZM418.081 57.849H420.627V55.9705H418.081V57.849ZM168.592 55.9705V57.849H173.684V55.9705H168.592ZM-42.7096 55.9705V57.849H-37.618V55.9705H-42.7096ZM-65.6218 57.849H-50.3469V55.9705H-65.6218V57.849ZM412.989 60.4047H418.081V58.5261H412.989V60.4047ZM166.046 60.4047H168.592V58.5261H166.046V60.4047ZM-50.3469 60.4047H3.1149V58.5261H-50.3469V60.4047ZM410.443 62.9603H412.989V61.0818H410.443V62.9603ZM163.5 62.9603H166.046V61.0818H163.5V62.9603ZM3.1149 62.9603H8.20651V61.0818H3.1149V62.9603ZM407.898 65.516H410.443V63.6375H407.898V65.516ZM158.409 65.516H163.5V63.6375H158.409V65.516ZM8.20651 65.516H10.7523V63.6375H8.20651V65.516ZM405.352 68.0717H407.898V66.1932H405.352V68.0717ZM155.863 68.0717H158.409V66.1932H155.863V68.0717ZM10.7523 68.0717H15.8439V66.1932H10.7523V68.0717ZM402.806 70.6274H405.352V68.7489H402.806V70.6274ZM150.771 70.6274H155.863V68.7489H150.771V70.6274ZM15.8439 70.6274H18.3897V68.7489H15.8439V70.6274ZM397.714 73.1831H405.352V71.3045H397.714V73.1831ZM143.134 73.1831H150.771V71.3045H143.134V73.1831ZM18.3897 73.1831H20.9355V71.3045H18.3897V73.1831ZM402.806 75.7387H405.352V73.8602H402.806V75.7387ZM392.623 75.7387H397.714V73.8602H392.623V75.7387ZM135.497 75.7387H143.134V73.8602H135.497V75.7387ZM20.9355 75.7387H23.4813V73.8602H20.9355V75.7387ZM405.352 78.2944H407.898V76.4159H405.352V78.2944ZM384.985 78.2944H392.623V76.4159H384.985V78.2944ZM130.405 78.2944H135.497V76.4159H130.405V78.2944ZM23.4813 78.2944H28.5729V76.4159H23.4813V78.2944ZM407.898 80.8501H410.443V78.9715H407.898V80.8501ZM382.439 80.8501H384.985V78.9715H382.439V80.8501ZM209.325 80.8501H211.871V78.9715H209.325V80.8501ZM127.859 80.8501H130.405V78.9715H127.859V80.8501ZM28.5729 80.8501H33.6645V78.9715H28.5729V80.8501ZM410.443 83.4057H415.535V81.5272H410.443V83.4057ZM379.894 83.4057H382.439V81.5272H379.894V83.4057ZM209.325 83.4057H211.871V81.5272H209.325V83.4057ZM135.497 83.4057H140.588V81.5272H135.497V83.4057ZM117.676 83.4057H127.859V81.5272H117.676V83.4057ZM33.6645 83.4057H36.2103V81.5272H33.6645V83.4057ZM458.814 85.9614H461.359V84.0829H458.814V85.9614ZM415.535 85.9614H418.081V84.0829H415.535V85.9614ZM374.802 85.9614H379.894V84.0829H374.802V85.9614ZM209.325 85.9614H211.871V84.0829H209.325V85.9614ZM140.588 85.9614H153.317V84.0829H140.588V85.9614ZM92.218 85.9614H135.497V84.0829H92.218V85.9614ZM36.2103 85.9614H38.7561V84.0829H36.2103V85.9614ZM453.722 88.5171H458.814V86.6386H453.722V88.5171ZM418.081 86.6386V88.5171H423.172V86.6386H418.081ZM372.256 88.5171H374.802V86.6386H372.256V88.5171ZM323.886 88.5171H346.798V86.6386H323.886V88.5171ZM209.325 88.5171H211.871V86.6386H209.325V88.5171ZM153.317 88.5171H168.592V86.6386H153.317V88.5171ZM89.6722 88.5171H92.218V86.6386H89.6722V88.5171ZM38.7561 88.5171H43.8477V86.6386H38.7561V88.5171ZM438.447 91.0728H453.722V89.1943H438.447V91.0728ZM423.172 89.1943V91.0728H428.264V89.1943H423.172ZM369.71 91.0728H372.256V89.1943H369.71V91.0728ZM346.798 91.0728H349.344V89.1943H346.798V91.0728ZM316.249 91.0728H323.886V89.1943H316.249V91.0728ZM209.325 91.0728H211.871V89.1943H209.325V91.0728ZM168.592 91.0728H181.321V89.1943H168.592V91.0728ZM87.1264 91.0728H89.6722V89.1943H87.1264V91.0728ZM43.8477 91.0728H46.3936V89.1943H43.8477V91.0728ZM428.264 93.6285H438.447V91.7499H428.264V93.6285ZM367.165 93.6285H369.71V91.7499H367.165V93.6285ZM346.798 93.6285H359.527V91.7499H346.798V93.6285ZM311.157 93.6285H316.249V91.7499H311.157V93.6285ZM206.779 93.6285H209.325V91.7499H206.779V93.6285ZM181.321 93.6285H188.958V91.7499H181.321V93.6285ZM84.5806 93.6285H87.1264V91.7499H84.5806V93.6285ZM46.3936 93.6285H48.9393V91.7499H46.3936V93.6285ZM433.356 96.1841H435.901V94.3056H433.356V96.1841ZM428.264 96.1841H430.81V94.3056H428.264V96.1841ZM359.527 96.1841H367.165V94.3056H359.527V96.1841ZM306.065 96.1841H311.157V94.3056H306.065V96.1841ZM206.779 96.1841H209.325V94.3056H206.779V96.1841ZM188.958 96.1841H196.596V94.3056H188.958V96.1841ZM48.9393 96.1841H87.1264V94.3056H48.9393V96.1841ZM430.81 98.7398H433.356V96.8613H430.81V98.7398ZM425.718 98.7398H428.264V96.8613H425.718V98.7398ZM303.52 98.7398H306.065V96.8613H303.52V98.7398ZM196.596 98.7398H209.325V96.8613H196.596V98.7398ZM48.9393 98.7398H64.2142V96.8613H48.9393V98.7398ZM428.264 101.295H430.81V99.4169H428.264V101.295ZM423.172 101.295H425.718V99.4169H423.172V101.295ZM300.974 101.295H303.52V99.4169H300.974V101.295ZM206.779 101.295H214.417V99.4169H206.779V101.295ZM48.9393 101.295H51.4851V99.4169H48.9393V101.295ZM420.627 103.851H423.172V101.973H420.627V103.851ZM293.336 103.851H300.974V101.973H293.336V103.851ZM214.417 103.851H216.962V101.973H214.417V103.851ZM48.9393 103.851H51.4851V101.973H48.9393V103.851ZM290.791 106.407H293.336V104.528H290.791V106.407ZM216.962 106.407H224.6V104.528H216.962V106.407ZM48.9393 106.407H51.4851V104.528H48.9393V106.407ZM288.245 108.963H290.791V107.084H288.245V108.963ZM224.6 108.963H232.237V107.084H224.6V108.963ZM46.3936 108.963H48.9393V107.084H46.3936V108.963ZM285.699 111.518H288.245V109.64H285.699V111.518ZM232.237 111.518H242.42V109.64H232.237V111.518ZM46.3936 111.518H48.9393V109.64H46.3936V111.518ZM283.153 114.074H285.699V112.195H283.153V114.074ZM242.42 114.074H252.604V112.195H242.42V114.074ZM46.3936 114.074H48.9393V112.195H46.3936V114.074ZM285.699 116.63H288.245V114.751H285.699V116.63ZM275.516 116.63H283.153V114.751H275.516V116.63ZM252.604 116.63H265.333V114.751H252.604V116.63ZM265.333 119.185H275.516V117.307H265.333V119.185Z" fill="#4E4C6C"/>
</svg>
