<svg width="515" height="108" viewBox="0 0 515 108" fill="none" xmlns="http://www.w3.org/2000/svg">
<path fill-rule="evenodd" clip-rule="evenodd" d="M83.0645 -69.7686H80.9879V-71.3057H83.0645V-69.7686ZM85.1411 -67.6775H83.0645V-69.2146H85.1411V-67.6775ZM87.2177 -65.5865H85.1411V-67.1235H87.2177V-65.5865ZM89.2944 -63.4954H87.2177V-65.0324H89.2944V-63.4954ZM91.371 -61.4043H89.2944V-62.9413H91.371V-61.4043ZM93.4476 -59.3132H91.371V-60.8502H93.4476V-59.3132ZM95.5242 -57.2221H93.4476V-58.7592H95.5242V-57.2221ZM97.6008 -55.131H95.5242V-56.6681H97.6008V-55.131ZM99.6774 -53.0399H97.6008V-54.577H99.6774V-53.0399ZM101.754 -50.9489H99.6774V-52.4859H101.754V-50.9489ZM103.831 -48.8578H101.754V-50.3948H103.831V-48.8578ZM103.831 -46.7667H101.754V-48.3037H103.831V-46.7667ZM238.81 -17.4915H236.734V-19.0285H238.81V-17.4915ZM238.81 -15.4004H236.734V-16.9374H238.81V-15.4004ZM238.81 -13.3093H236.734V-14.8464H238.81V-13.3093ZM238.81 -11.2182H236.734V-12.7553H238.81V-11.2182ZM238.81 -9.12715H236.734V-10.6642H238.81V-9.12715ZM238.81 -7.03607H236.734V-8.57311H238.81V-7.03607ZM238.81 -4.94498H236.734V-6.48202H238.81V-4.94498ZM238.81 -2.8539H236.734V-4.39093H238.81V-2.8539ZM238.81 -0.76281H236.734V-2.29985H238.81V-0.76281ZM236.734 1.32828H234.657V-0.208761H236.734V1.32828ZM236.734 3.41936H234.657V1.88232H236.734V3.41936ZM236.734 5.51044H234.657V3.97341H236.734V5.51044ZM236.734 7.60153H234.657V6.06449H236.734V7.60153ZM236.734 9.69262H234.657V8.15558H236.734V9.69262ZM236.734 11.7837H234.657V10.2467H236.734V11.7837ZM234.657 13.8748H232.581V12.3377H234.657V13.8748ZM234.657 15.9659H232.581V14.4288H234.657V15.9659ZM234.657 18.057H232.581V16.5199H234.657V18.057ZM234.657 18.611V20.148H230.504V18.611H234.657ZM232.581 22.2391H230.504V20.7021H232.581V22.2391ZM232.581 24.3302H230.504V22.7932H232.581V24.3302ZM230.504 26.4213H228.427V24.8843H230.504V26.4213ZM228.427 28.5124H226.351V26.9753H228.427V28.5124ZM226.351 30.6035H224.274V29.0664H226.351V30.6035ZM224.274 32.6946H220.121V31.1575H224.274V32.6946ZM427.782 32.6946H425.706V31.1575H427.782V32.6946ZM222.198 34.7856H220.121V33.2486H222.198V34.7856ZM427.782 34.7856H425.706V33.2486H427.782V34.7856ZM222.198 36.8767H220.121V35.3397H222.198V36.8767ZM425.706 36.8767H423.629V35.3397H425.706V36.8767ZM222.198 38.9678H220.121V37.4308H222.198V38.9678ZM425.706 38.9678H423.629V37.4308H425.706V38.9678ZM224.274 41.0589H222.198V39.5219H224.274V41.0589ZM423.629 41.0589H421.552V39.5219H423.629V41.0589ZM224.274 43.15H222.198V41.6129H224.274V43.15ZM423.629 43.15H421.552V41.6129H423.629V43.15ZM20.7661 45.2411H18.6895V43.704H20.7661V45.2411ZM226.351 45.2411H224.274V43.704H226.351V45.2411ZM421.552 45.2411H419.476V43.704H421.552V45.2411ZM481.774 45.2411H467.238V43.704H481.774V45.2411ZM22.8427 47.3322H20.7661V45.7951H22.8427V47.3322ZM226.351 47.3322H224.274V45.7951H226.351V47.3322ZM421.552 47.3322H419.476V45.7951H421.552V47.3322ZM467.238 47.3322H463.085V45.7951H467.238V47.3322ZM475.544 47.3322H473.468V45.7951H475.544V47.3322ZM494.234 47.3322H481.774V45.7951H494.234V47.3322ZM24.9194 49.4232H22.8427V47.8862H24.9194V49.4232ZM228.427 49.4232H226.351V47.8862H228.427V49.4232ZM419.476 49.4232H417.399V47.8862H419.476V49.4232ZM463.085 49.4232H456.855V47.8862H463.085V49.4232ZM477.621 49.4232H475.544V47.8862H477.621V49.4232ZM506.694 49.4232H494.234V47.8862H506.694V49.4232ZM26.996 51.5143H24.9194V49.9773H26.996V51.5143ZM230.504 51.5143H228.427V49.9773H230.504V51.5143ZM417.399 51.5143H415.323V49.9773H417.399V51.5143ZM456.855 51.5143H446.472V49.9773H456.855V51.5143ZM479.698 51.5143H477.621V49.9773H479.698V51.5143ZM515 51.5143H506.694V49.9773H515V51.5143ZM29.0726 53.6054H26.996V52.0684H29.0726V53.6054ZM232.581 53.6054H230.504V52.0684H232.581V53.6054ZM417.399 53.6054H415.323V52.0684H417.399V53.6054ZM446.472 53.6054H444.395V52.0684H446.472V53.6054ZM479.698 53.6054H477.621V52.0684H479.698V53.6054ZM31.1492 55.6965H29.0726V54.1595H31.1492V55.6965ZM234.657 55.6965H232.581V54.1595H234.657V55.6965ZM415.323 55.6965H413.246V54.1595H415.323V55.6965ZM444.395 55.6965H436.089V54.1595H444.395V55.6965ZM33.2258 57.7876H31.1492V56.2505H33.2258V57.7876ZM236.734 57.7876H234.657V56.2505H236.734V57.7876ZM413.246 57.7876H409.093V56.2505H413.246V57.7876ZM436.089 57.7876H429.859V56.2505H436.089V57.7876ZM35.3024 59.8787H33.2258V58.3416H35.3024V59.8787ZM238.81 58.3416V59.8787H234.657V58.3416H238.81ZM411.169 58.3416V59.8787H407.016V58.3416H411.169ZM429.859 59.8787H417.399V58.3416H429.859V59.8787ZM39.4556 61.9697H35.3024V60.4327H39.4556V61.9697ZM240.887 61.9697H238.81V60.4327H240.887V61.9697ZM417.399 61.9697H373.79V60.4327H417.399V61.9697ZM41.5323 64.0608H39.4556V62.5238H41.5323V64.0608ZM242.964 64.0608H240.887V62.5238H242.964V64.0608ZM373.79 64.0608H369.637V62.5238H373.79V64.0608ZM43.6089 66.1519H41.5323V64.6149H43.6089V66.1519ZM247.117 66.1519H242.964V64.6149H247.117V66.1519ZM369.637 66.1519H367.56V64.6149H369.637V66.1519ZM45.6855 68.243H43.6089V66.706H45.6855V68.243ZM249.194 68.243H247.117V66.706H249.194V68.243ZM367.56 68.243H363.407V66.706H367.56V68.243ZM47.7621 70.3341H45.6855V68.7971H47.7621V70.3341ZM253.347 70.3341H249.194V68.7971H253.347V70.3341ZM363.407 70.3341H361.331V68.7971H363.407V70.3341ZM51.9153 72.4252H45.6855V70.8881H51.9153V72.4252ZM259.577 72.4252H253.347V70.8881H259.577V72.4252ZM361.331 72.4252H359.254V70.8881H361.331V72.4252ZM47.7621 74.5163H45.6855V72.9792H47.7621V74.5163ZM56.0686 74.5163H51.9153V72.9792H56.0686V74.5163ZM265.806 74.5163H259.577V72.9792H265.806V74.5163ZM359.254 74.5163H357.177V72.9792H359.254V74.5163ZM45.6855 76.6073H43.6089V75.0703H45.6855V76.6073ZM62.2984 76.6073H56.0686V75.0703H62.2984V76.6073ZM269.96 76.6073H265.806V75.0703H269.96V76.6073ZM357.177 76.6073H353.024V75.0703H357.177V76.6073ZM43.6089 78.6984H41.5323V77.1614H43.6089V78.6984ZM64.375 78.6984H62.2984V77.1614H64.375V78.6984ZM205.585 78.6984H203.508V77.1614H205.585V78.6984ZM272.036 78.6984H269.96V77.1614H272.036V78.6984ZM353.024 78.6984H348.871V77.1614H353.024V78.6984ZM41.5323 80.7895H37.379V79.2525H41.5323V80.7895ZM66.4516 80.7895H64.375V79.2525H66.4516V80.7895ZM205.585 80.7895H203.508V79.2525H205.585V80.7895ZM265.806 80.7895H261.653V79.2525H265.806V80.7895ZM280.343 80.7895H272.036V79.2525H280.343V80.7895ZM348.871 80.7895H346.794V79.2525H348.871V80.7895ZM2.07661 82.8806H0V81.3436H2.07661V82.8806ZM37.379 82.8806H35.3024V81.3436H37.379V82.8806ZM70.6048 82.8806H66.4516V81.3436H70.6048V82.8806ZM205.585 82.8806H203.508V81.3436H205.585V82.8806ZM261.653 82.8806H251.27V81.3436H261.653V82.8806ZM301.109 82.8806H265.806V81.3436H301.109V82.8806ZM346.794 82.8806H344.718V81.3436H346.794V82.8806ZM6.22984 84.9717H2.07661V83.4347H6.22984V84.9717ZM35.3024 83.4347V84.9717H31.1492V83.4347H35.3024ZM72.6815 84.9717H70.6048V83.4347H72.6815V84.9717ZM112.137 84.9717H93.4476V83.4347H112.137V84.9717ZM205.585 84.9717H203.508V83.4347H205.585V84.9717ZM251.27 84.9717H238.81V83.4347H251.27V84.9717ZM303.185 84.9717H301.109V83.4347H303.185V84.9717ZM344.718 84.9717H340.565V83.4347H344.718V84.9717ZM18.6895 87.0628H6.22984V85.5257H18.6895V87.0628ZM31.1492 85.5257V87.0628H26.996V85.5257H31.1492ZM74.7581 87.0628H72.6815V85.5257H74.7581V87.0628ZM93.4476 87.0628H91.371V85.5257H93.4476V87.0628ZM118.367 87.0628H112.137V85.5257H118.367V87.0628ZM205.585 87.0628H203.508V85.5257H205.585V87.0628ZM238.81 87.0628H228.427V85.5257H238.81V87.0628ZM305.262 87.0628H303.185V85.5257H305.262V87.0628ZM340.565 87.0628H338.488V85.5257H340.565V87.0628ZM26.996 89.1539H18.6895V87.6168H26.996V89.1539ZM76.8347 89.1539H74.7581V87.6168H76.8347V89.1539ZM93.4476 89.1539H83.0645V87.6168H93.4476V89.1539ZM122.52 89.1539H118.367V87.6168H122.52V89.1539ZM207.661 89.1539H205.585V87.6168H207.661V89.1539ZM228.427 89.1539H222.198V87.6168H228.427V89.1539ZM307.339 89.1539H305.262V87.6168H307.339V89.1539ZM338.488 89.1539H336.411V87.6168H338.488V89.1539ZM22.8427 91.2449H20.7661V89.7079H22.8427V91.2449ZM26.996 91.2449H24.9194V89.7079H26.996V91.2449ZM83.0645 91.2449H76.8347V89.7079H83.0645V91.2449ZM126.673 91.2449H122.52V89.7079H126.673V91.2449ZM207.661 91.2449H205.585V89.7079H207.661V91.2449ZM222.198 91.2449H215.968V89.7079H222.198V91.2449ZM336.411 91.2449H305.262V89.7079H336.411V91.2449ZM24.9194 93.336H22.8427V91.799H24.9194V93.336ZM29.0726 93.336H26.996V91.799H29.0726V93.336ZM128.75 93.336H126.673V91.799H128.75V93.336ZM215.968 93.336H205.585V91.799H215.968V93.336ZM336.411 93.336H323.952V91.799H336.411V93.336ZM26.996 95.4271H24.9194V93.8901H26.996V95.4271ZM31.1492 95.4271H29.0726V93.8901H31.1492V95.4271ZM130.827 95.4271H128.75V93.8901H130.827V95.4271ZM207.661 95.4271H201.431V93.8901H207.661V95.4271ZM336.411 95.4271H334.335V93.8901H336.411V95.4271ZM33.2258 97.5182H31.1492V95.9812H33.2258V97.5182ZM137.056 97.5182H130.827V95.9812H137.056V97.5182ZM201.431 97.5182H199.355V95.9812H201.431V97.5182ZM336.411 97.5182H334.335V95.9812H336.411V97.5182ZM139.133 99.6093H137.056V98.0722H139.133V99.6093ZM199.355 99.6093H193.125V98.0722H199.355V99.6093ZM336.411 99.6093H334.335V98.0722H336.411V99.6093ZM141.21 101.7H139.133V100.163H141.21V101.7ZM193.125 101.7H186.895V100.163H193.125V101.7ZM338.488 101.7H336.411V100.163H338.488V101.7ZM143.286 103.791H141.21V102.254H143.286V103.791ZM186.895 103.791H178.589V102.254H186.895V103.791ZM338.488 103.791H336.411V102.254H338.488V103.791ZM145.363 105.883H143.286V104.346H145.363V105.883ZM178.589 105.883H170.282V104.346H178.589V105.883ZM338.488 105.883H336.411V104.346H338.488V105.883ZM143.286 107.974H141.21V106.437H143.286V107.974ZM151.593 107.974H145.363V106.437H151.593V107.974ZM170.282 107.974H159.899V106.437H170.282V107.974ZM159.899 110.065H151.593V108.528H159.899V110.065Z" fill="#4E4C6C"/>
</svg>
