<svg width="1527" height="132" viewBox="0 0 1527 132" fill="none" xmlns="http://www.w3.org/2000/svg">
<g filter="url(#filter0_d_242_9578)">
<rect x="1523" y="8" width="104" height="1511" transform="rotate(90 1523 8)" fill="#615F83"/>
<rect x="12" y="12" width="100" height="4" transform="rotate(90 12 12)" fill="#030500"/>
<rect x="1515" y="120" width="4.00001" height="1495" transform="rotate(90 1515 120)" fill="#030500"/>
<rect x="1515" y="116" width="4.00001" height="1495" transform="rotate(90 1515 116)" fill="#42415E"/>
<rect x="1515" y="112" width="4.00001" height="1495" transform="rotate(90 1515 112)" fill="#908EBA"/>
<rect x="16" y="112" width="4" height="4" transform="rotate(90 16 112)" fill="#030500"/>
<rect x="16" y="8" width="4" height="4" transform="rotate(90 16 8)" fill="#030500"/>
<rect x="16" y="108" width="4" height="4" transform="rotate(90 16 108)" fill="#42415E"/>
<rect x="20" y="116" width="4" height="4" transform="rotate(90 20 116)" fill="#030500"/>
<rect x="16" y="104" width="4" height="4" transform="rotate(90 16 104)" fill="#908EBA"/>
<rect x="20" y="112" width="4" height="4" transform="rotate(90 20 112)" fill="#42415E"/>
<rect x="20" y="108" width="4" height="4" transform="rotate(90 20 108)" fill="#908EBA"/>
<rect x="1523" y="112" width="4" height="4" transform="rotate(90 1523 112)" fill="#030500"/>
<rect x="1523" y="108" width="4" height="4" transform="rotate(90 1523 108)" fill="#42415E"/>
<rect x="1523" y="104" width="4" height="4" transform="rotate(90 1523 104)" fill="#908EBA"/>
<rect x="1519" y="116" width="4" height="4" transform="rotate(90 1519 116)" fill="#030500"/>
<rect x="1519" y="112" width="4" height="4" transform="rotate(90 1519 112)" fill="#42415E"/>
<rect x="1519" y="108" width="4" height="4" transform="rotate(90 1519 108)" fill="#908EBA"/>
<rect x="1527" y="12" width="100" height="4" transform="rotate(90 1527 12)" fill="#030500"/>
<rect x="1515" y="4" width="4.00007" height="1495" transform="rotate(90 1515 4)" fill="#615F83"/>
<rect x="1515" width="4.00001" height="1495" transform="rotate(90 1515 0)" fill="#030500"/>
<rect x="20" y="4" width="4" height="4" transform="rotate(90 20 4)" fill="#030500"/>
<rect x="1523" y="8" width="4" height="4" transform="rotate(90 1523 8)" fill="#030500"/>
<rect x="1519" y="4" width="4" height="4" transform="rotate(90 1519 4)" fill="#030500"/>
<rect x="1515" y="4.00006" width="4.00003" height="750" transform="rotate(90 1515 4.00006)" fill="#75739C"/>
<rect x="1523" y="12.0001" width="4.00003" height="750" transform="rotate(90 1523 12.0001)" fill="#75739C"/>
<rect x="1519" y="8.00006" width="4.00003" height="750" transform="rotate(90 1519 8.00006)" fill="#75739C"/>
<rect x="1523" y="16.0001" width="4" height="746" transform="rotate(90 1523 16.0001)" fill="#75739C"/>
<rect x="1523" y="20.0001" width="4" height="742" transform="rotate(90 1523 20.0001)" fill="#75739C"/>
<rect x="1523" y="92" width="4.00003" height="670" transform="rotate(90 1523 92)" fill="#75739C"/>
<rect x="1515" y="108" width="4.00003" height="646" transform="rotate(90 1515 108)" fill="#75739C"/>
<rect x="1523" y="24.0001" width="4" height="738" transform="rotate(90 1523 24.0001)" fill="#75739C"/>
<rect x="1523" y="88" width="4.00003" height="674" transform="rotate(90 1523 88)" fill="#75739C"/>
<rect x="1523" y="28" width="4.00003" height="734" transform="rotate(90 1523 28)" fill="#75739C"/>
<rect x="1523" y="32.0001" width="4.00003" height="730" transform="rotate(90 1523 32.0001)" fill="#75739C"/>
<rect x="1523" y="36" width="4.00003" height="726" transform="rotate(90 1523 36)" fill="#75739C"/>
<rect x="1523" y="40" width="4.00003" height="722" transform="rotate(90 1523 40)" fill="#75739C"/>
<rect x="1523" y="44" width="4.00003" height="718" transform="rotate(90 1523 44)" fill="#75739C"/>
<rect x="1523" y="48" width="4.00003" height="714" transform="rotate(90 1523 48)" fill="#75739C"/>
<rect x="1523" y="52" width="4.00003" height="710" transform="rotate(90 1523 52)" fill="#75739C"/>
<rect x="1523" y="56" width="4.00003" height="706" transform="rotate(90 1523 56)" fill="#75739C"/>
<rect x="1523" y="60" width="4.00003" height="702" transform="rotate(90 1523 60)" fill="#75739C"/>
<rect x="1523" y="64" width="4.00003" height="698" transform="rotate(90 1523 64)" fill="#75739C"/>
<rect x="1523" y="68" width="4.00003" height="694" transform="rotate(90 1523 68)" fill="#75739C"/>
<rect x="1523" y="72" width="4.00003" height="690" transform="rotate(90 1523 72)" fill="#75739C"/>
<rect x="1523" y="76" width="4.00003" height="686" transform="rotate(90 1523 76)" fill="#75739C"/>
<rect x="1523" y="80" width="4.00003" height="682" transform="rotate(90 1523 80)" fill="#75739C"/>
<rect x="1523" y="84" width="4.00003" height="678" transform="rotate(90 1523 84)" fill="#75739C"/>
<rect x="1523" y="96" width="4.00003" height="666" transform="rotate(90 1523 96)" fill="#75739C"/>
<rect x="1523" y="100" width="4.00003" height="662" transform="rotate(90 1523 100)" fill="#75739C"/>
<rect x="1519" y="104" width="4.00003" height="654" transform="rotate(90 1519 104)" fill="#75739C"/>
<g clip-path="url(#clip0_242_9578)">
<path d="M1623.07 -88.4814H1620.53H1623.07ZM1620.53 -85.9039H1617.98H1620.53ZM1617.98 -83.3264H1615.44H1617.98ZM1615.44 -80.7489H1612.89H1615.44ZM1612.89 -78.1714H1610.34H1612.89ZM1610.34 -75.5938H1607.8H1610.34ZM1607.8 -73.0163H1605.25H1607.8ZM1605.25 -70.4388H1602.71H1605.25ZM1602.71 -67.8613H1600.16H1602.71ZM1600.16 -65.2838H1597.62H1600.16ZM1597.62 -62.7063H1595.07H1597.62ZM1597.62 -60.1287H1595.07H1597.62ZM1432.14 -24.0435H1429.59H1432.14ZM1432.14 -21.4659H1429.59H1432.14ZM1432.14 -18.8884H1429.59H1432.14ZM1432.14 -16.3109H1429.59H1432.14ZM1432.14 -13.7334H1429.59H1432.14ZM1432.14 -11.1559H1429.59H1432.14ZM1432.14 -8.57835H1429.59H1432.14ZM1432.14 -6.00082H1429.59H1432.14ZM1432.14 -3.4233H1429.59H1432.14ZM1434.68 -0.845787H1432.14H1434.68ZM1434.68 1.73173H1432.14H1434.68ZM1434.68 4.30925H1432.14H1434.68ZM1434.68 6.88677H1432.14H1434.68ZM1434.68 9.46429H1432.14H1434.68ZM1434.68 12.0418H1432.14H1434.68ZM1437.23 14.6193H1434.68H1437.23ZM1437.23 17.1968H1434.68H1437.23ZM1437.23 19.7744H1434.68H1437.23ZM1439.78 22.3519H1434.68H1439.78ZM1439.78 24.9294H1437.23H1439.78ZM1439.78 27.5069H1437.23H1439.78ZM1442.32 30.0844H1439.78H1442.32ZM1444.87 32.662H1442.32H1444.87ZM1447.41 35.2395H1444.87H1447.41ZM1452.5 37.817H1447.41H1452.5ZM1200.47 37.817H1197.92H1200.47ZM1452.5 40.3945H1449.96H1452.5ZM1200.47 40.3945H1197.92H1200.47ZM1452.5 42.972H1449.96H1452.5ZM1203.02 42.972H1200.47H1203.02ZM1452.5 45.5496H1449.96H1452.5ZM1203.02 45.5496H1200.47H1203.02ZM1449.96 48.1271H1447.41H1449.96ZM1205.56 48.1271H1203.02H1205.56ZM1449.96 50.7046H1447.41H1449.96ZM1205.56 50.7046H1203.02H1205.56ZM1699.45 53.2821H1696.9H1699.45ZM1447.41 53.2821H1444.87H1447.41ZM1208.11 53.2821H1205.56H1208.11ZM1149.55 53.2821H1131.73H1149.55ZM1696.9 55.8596H1694.36H1696.9ZM1447.41 55.8596H1444.87H1447.41ZM1208.11 55.8596H1205.56H1208.11ZM1154.65 55.8596H1149.55H1154.65ZM1141.92 55.8596H1139.37H1141.92ZM1131.73 55.8596H1116.46H1131.73ZM1694.36 58.4372H1691.81H1694.36ZM1444.87 58.4372H1442.32H1444.87ZM1210.65 58.4372H1208.11H1210.65ZM1162.28 58.4372H1154.65H1162.28ZM1139.37 58.4372H1136.82H1139.37ZM1116.46 58.4372H1101.18H1116.46ZM1691.81 61.0147H1689.26H1691.81ZM1442.32 61.0147H1439.78H1442.32ZM1213.2 61.0147H1210.65H1213.2ZM1175.01 61.0147H1162.28H1175.01ZM1136.82 61.0147H1134.28H1136.82ZM1101.18 61.0147H1091H1101.18ZM1689.26 63.5922H1686.72H1689.26ZM1439.78 63.5922H1437.23H1439.78ZM1213.2 63.5922H1210.65H1213.2ZM1177.56 63.5922H1175.01H1177.56ZM1136.82 63.5922H1134.28H1136.82ZM1686.72 66.1697H1684.17H1686.72ZM1437.23 66.1697H1434.68H1437.23ZM1215.74 66.1697H1213.2H1215.74ZM1187.74 66.1697H1177.56H1187.74ZM1684.17 68.7472H1681.63H1684.17ZM1434.68 68.7472H1432.14H1434.68ZM1220.84 68.7472H1215.74H1220.84ZM1195.38 68.7472H1187.74H1195.38ZM1681.63 71.3248H1679.08H1681.63ZM1434.68 71.3248H1429.59H1434.68ZM1223.38 71.3248H1218.29H1223.38ZM1210.65 71.3248H1195.38H1210.65ZM1679.08 73.9023H1673.99H1679.08ZM1429.59 73.9023H1427.05H1429.59ZM1264.11 73.9023H1210.65H1264.11ZM1673.99 76.4798H1671.44H1673.99ZM1427.05 76.4798H1424.5H1427.05ZM1269.21 76.4798H1264.11H1269.21ZM1671.44 79.0573H1668.9H1671.44ZM1424.5 79.0573H1419.41H1424.5ZM1271.75 79.0573H1269.21H1271.75ZM1668.9 81.6348H1666.35H1668.9ZM1419.41 81.6348H1416.86H1419.41ZM1276.84 81.6348H1271.75H1276.84ZM1666.35 84.2124H1663.81H1666.35ZM1416.86 84.2124H1411.77H1416.86ZM1279.39 84.2124H1276.84H1279.39ZM1666.35 86.7899H1658.71H1666.35ZM1411.77 86.7899H1404.13H1411.77ZM1281.94 86.7899H1279.39H1281.94ZM1666.35 89.3674H1663.81H1666.35ZM1658.71 89.3674H1653.62H1658.71ZM1404.13 89.3674H1396.5H1404.13ZM1284.48 89.3674H1281.94H1284.48ZM1668.9 91.9449H1666.35H1668.9ZM1653.62 91.9449H1645.99H1653.62ZM1396.5 91.9449H1391.41H1396.5ZM1289.57 91.9449H1284.48H1289.57ZM1671.44 94.5224H1668.9H1671.44ZM1645.99 94.5224H1643.44H1645.99ZM1472.87 94.5224H1470.32H1472.87ZM1391.41 94.5224H1388.86H1391.41ZM1294.66 94.5224H1289.57H1294.66ZM1676.53 97.0999H1671.44H1676.53ZM1643.44 97.0999H1640.89H1643.44ZM1472.87 97.0999H1470.32H1472.87ZM1401.59 97.0999H1396.5H1401.59ZM1388.86 97.0999H1378.68H1388.86ZM1297.21 97.0999H1294.66H1297.21ZM1722.36 99.6775H1719.81H1722.36ZM1679.08 99.6775H1676.53H1679.08ZM1640.89 99.6775H1635.8H1640.89ZM1472.87 99.6775H1470.32H1472.87ZM1414.32 99.6775H1401.59H1414.32ZM1396.5 99.6775H1353.22H1396.5ZM1299.76 99.6775H1297.21H1299.76ZM1719.81 102.255H1714.72H1719.81ZM1684.17 102.255H1679.08H1684.17ZM1635.8 102.255H1633.26H1635.8ZM1607.8 102.255H1584.89H1607.8ZM1472.87 102.255H1470.32H1472.87ZM1429.59 102.255H1414.32H1429.59ZM1353.22 102.255H1350.67H1353.22ZM1304.85 102.255H1299.76H1304.85ZM1714.72 104.833H1699.45H1714.72ZM1689.26 104.833H1684.17H1689.26ZM1633.26 104.833H1630.71H1633.26ZM1610.34 104.833H1607.8H1610.34ZM1584.89 104.833H1577.25H1584.89ZM1472.87 104.833H1470.32H1472.87ZM1442.32 104.833H1429.59H1442.32ZM1350.67 104.833H1348.13H1350.67ZM1307.39 104.833H1304.85H1307.39ZM1699.45 107.41H1689.26H1699.45ZM1630.71 107.41H1628.16H1630.71ZM1620.53 107.41H1607.8H1620.53ZM1577.25 107.41H1572.16H1577.25ZM1470.32 107.41H1467.78H1470.32ZM1449.96 107.41H1442.32H1449.96ZM1348.13 107.41H1345.58H1348.13ZM1309.94 107.41H1307.39H1309.94ZM1696.9 109.988H1694.36H1696.9ZM1691.81 109.988H1689.26H1691.81ZM1628.16 109.988H1620.53H1628.16ZM1572.16 109.988H1567.07H1572.16ZM1470.32 109.988H1467.78H1470.32ZM1457.6 109.988H1449.96H1457.6ZM1348.13 109.988H1309.94H1348.13ZM1694.36 112.565H1691.81H1694.36ZM1689.26 112.565H1686.72H1689.26ZM1567.07 112.565H1564.52H1567.07ZM1470.32 112.565H1457.6H1470.32ZM1325.21 112.565H1309.94H1325.21ZM1691.81 115.143H1689.26H1691.81ZM1686.72 115.143H1684.17H1686.72ZM1564.52 115.143H1561.97H1564.52ZM1475.42 115.143H1467.78H1475.42ZM1312.49 115.143H1309.94H1312.49ZM1684.17 117.72H1681.63H1684.17ZM1561.97 117.72H1554.34H1561.97ZM1477.96 117.72H1475.42H1477.96ZM1312.49 117.72H1309.94H1312.49ZM1554.34 120.298H1551.79H1554.34ZM1485.6 120.298H1477.96H1485.6ZM1312.49 120.298H1309.94H1312.49ZM1551.79 122.875H1549.24H1551.79ZM1493.24 122.875H1485.6H1493.24ZM1309.94 122.875H1307.39H1309.94ZM1549.24 125.453H1546.7H1549.24ZM1503.42 125.453H1493.24H1503.42ZM1309.94 125.453H1307.39H1309.94ZM1546.7 128.03H1544.15H1546.7ZM1513.6 128.03H1503.42H1513.6ZM1309.94 128.03H1307.39H1309.94ZM1549.24 130.608H1546.7H1549.24ZM1544.15 130.608H1536.52H1544.15ZM1526.33 130.608H1513.6H1526.33ZM1536.52 133.185H1526.33H1536.52Z" fill="black"/>
<path fill-rule="evenodd" clip-rule="evenodd" d="M1450.53 -96.6029H1453.07V-98.4814H1450.53V-96.6029ZM1447.98 -94.0472H1450.53V-95.9258H1447.98V-94.0472ZM1445.44 -91.4916H1447.98V-93.3701H1445.44V-91.4916ZM1442.89 -88.9359H1445.44V-90.8144H1442.89V-88.9359ZM1440.34 -86.3802H1442.89V-88.2587H1440.34V-86.3802ZM1437.8 -83.8245H1440.34V-85.7031H1437.8V-83.8245ZM1435.25 -81.2689H1437.8V-83.1474H1435.25V-81.2689ZM1432.71 -78.7132H1435.25V-80.5917H1432.71V-78.7132ZM1430.16 -76.1575H1432.71V-78.036H1430.16V-76.1575ZM1427.62 -73.6018H1430.16V-75.4804H1427.62V-73.6018ZM1425.07 -71.0462H1427.62V-72.9247H1425.07V-71.0462ZM1425.07 -68.4905H1427.62V-70.369H1425.07V-68.4905ZM1259.59 -32.711H1262.14V-34.5895H1259.59V-32.711ZM1259.59 -30.1553H1262.14V-32.0339H1259.59V-30.1553ZM1259.59 -27.5997H1262.14V-29.4782H1259.59V-27.5997ZM1259.59 -25.044H1262.14V-26.9225H1259.59V-25.044ZM1259.59 -22.4883H1262.14V-24.3668H1259.59V-22.4883ZM1259.59 -19.9326H1262.14V-21.8112H1259.59V-19.9326ZM1259.59 -17.377H1262.14V-19.2555H1259.59V-17.377ZM1259.59 -14.8213H1262.14V-16.6998H1259.59V-14.8213ZM1259.59 -12.2656H1262.14V-14.1441H1259.59V-12.2656ZM1262.14 -9.70993H1264.68V-11.5885H1262.14V-9.70993ZM1262.14 -7.15426H1264.68V-9.03279H1262.14V-7.15426ZM1262.14 -4.59858H1264.68V-6.47711H1262.14V-4.59858ZM1262.14 -2.0429H1264.68V-3.92143H1262.14V-2.0429ZM1262.14 0.512772H1264.68V-1.36575H1262.14V0.512772ZM1262.14 3.06844H1264.68V1.18991H1262.14V3.06844ZM1264.68 5.62412H1267.23V3.74559H1264.68V5.62412ZM1264.68 8.1798H1267.23V6.30127H1264.68V8.1798ZM1264.68 10.7355H1267.23V8.85695H1264.68V10.7355ZM1264.68 11.4126V13.2912H1269.78V11.4126H1264.68ZM1267.23 15.8468H1269.78V13.9683H1267.23V15.8468ZM1267.23 18.4025H1269.78V16.524H1267.23V18.4025ZM1269.78 20.9582H1272.32V19.0797H1269.78V20.9582ZM1272.32 23.5139H1274.87V21.6353H1272.32V23.5139ZM1274.87 26.0695H1277.41V24.191H1274.87V26.0695ZM1277.41 28.6252H1282.5V26.7467H1277.41V28.6252ZM1027.92 28.6252H1030.47V26.7467H1027.92V28.6252ZM1279.96 31.1809H1282.5V29.3024H1279.96V31.1809ZM1027.92 31.1809H1030.47V29.3024H1027.92V31.1809ZM1279.96 33.7366H1282.5V31.858H1279.96V33.7366ZM1030.47 33.7366H1033.02V31.858H1030.47V33.7366ZM1279.96 36.2922H1282.5V34.4137H1279.96V36.2922ZM1030.47 36.2922H1033.02V34.4137H1030.47V36.2922ZM1277.41 38.8479H1279.96V36.9694H1277.41V38.8479ZM1033.02 38.8479H1035.56V36.9694H1033.02V38.8479ZM1277.41 41.4036H1279.96V39.5251H1277.41V41.4036ZM1033.02 41.4036H1035.56V39.5251H1033.02V41.4036ZM1526.9 43.9593H1529.45V42.0807H1526.9V43.9593ZM1274.87 43.9593H1277.41V42.0807H1274.87V43.9593ZM1035.56 43.9593H1038.11V42.0807H1035.56V43.9593ZM961.733 43.9593H979.554V42.0807H961.733V43.9593ZM1524.36 46.5149H1526.9V44.6364H1524.36V46.5149ZM1274.87 46.5149H1277.41V44.6364H1274.87V46.5149ZM1035.56 46.5149H1038.11V44.6364H1035.56V46.5149ZM979.554 46.5149H984.645V44.6364H979.554V46.5149ZM969.371 46.5149H971.916V44.6364H969.371V46.5149ZM946.458 46.5149H961.733V44.6364H946.458V46.5149ZM1521.81 49.0706H1524.36V47.1921H1521.81V49.0706ZM1272.32 49.0706H1274.87V47.1921H1272.32V49.0706ZM1038.11 49.0706H1040.65V47.1921H1038.11V49.0706ZM984.645 49.0706H992.283V47.1921H984.645V49.0706ZM966.825 49.0706H969.371V47.1921H966.825V49.0706ZM931.184 49.0706H946.458V47.1921H931.184V49.0706ZM1519.26 51.6263H1521.81V49.7478H1519.26V51.6263ZM1269.78 51.6263H1272.32V49.7478H1269.78V51.6263ZM1040.65 51.6263H1043.2V49.7478H1040.65V51.6263ZM992.283 51.6263H1005.01V49.7478H992.283V51.6263ZM964.279 51.6263H966.825V49.7478H964.279V51.6263ZM921 51.6263H931.184V49.7478H921V51.6263ZM1516.72 54.182H1519.26V52.3034H1516.72V54.182ZM1267.23 54.182H1269.78V52.3034H1267.23V54.182ZM1040.65 54.182H1043.2V52.3034H1040.65V54.182ZM1005.01 54.182H1007.56V52.3034H1005.01V54.182ZM964.279 54.182H966.825V52.3034H964.279V54.182ZM1514.17 56.7376H1516.72V54.8591H1514.17V56.7376ZM1264.68 56.7376H1267.23V54.8591H1264.68V56.7376ZM1043.2 56.7376H1045.74V54.8591H1043.2V56.7376ZM1007.56 56.7376H1017.74V54.8591H1007.56V56.7376ZM1511.63 59.2933H1514.17V57.4148H1511.63V59.2933ZM1262.14 59.2933H1264.68V57.4148H1262.14V59.2933ZM1045.74 59.2933H1050.84V57.4148H1045.74V59.2933ZM1017.74 59.2933H1025.38V57.4148H1017.74V59.2933ZM1509.08 61.849H1511.63V59.9705H1509.08V61.849ZM1259.59 59.9705V61.849H1264.68V59.9705H1259.59ZM1048.29 59.9705V61.849H1053.38V59.9705H1048.29ZM1025.38 61.849H1040.65V59.9705H1025.38V61.849ZM1503.99 64.4047H1509.08V62.5261H1503.99V64.4047ZM1257.05 64.4047H1259.59V62.5261H1257.05V64.4047ZM1040.65 64.4047H1094.11V62.5261H1040.65V64.4047ZM1501.44 66.9603H1503.99V65.0818H1501.44V66.9603ZM1254.5 66.9603H1257.05V65.0818H1254.5V66.9603ZM1094.11 66.9603H1099.21V65.0818H1094.11V66.9603ZM1498.9 69.516H1501.44V67.6375H1498.9V69.516ZM1249.41 69.516H1254.5V67.6375H1249.41V69.516ZM1099.21 69.516H1101.75V67.6375H1099.21V69.516ZM1496.35 72.0717H1498.9V70.1932H1496.35V72.0717ZM1246.86 72.0717H1249.41V70.1932H1246.86V72.0717ZM1101.75 72.0717H1106.84V70.1932H1101.75V72.0717ZM1493.81 74.6274H1496.35V72.7489H1493.81V74.6274ZM1241.77 74.6274H1246.86V72.7489H1241.77V74.6274ZM1106.84 74.6274H1109.39V72.7489H1106.84V74.6274ZM1488.71 77.1831H1496.35V75.3045H1488.71V77.1831ZM1234.13 77.1831H1241.77V75.3045H1234.13V77.1831ZM1109.39 77.1831H1111.94V75.3045H1109.39V77.1831ZM1493.81 79.7387H1496.35V77.8602H1493.81V79.7387ZM1483.62 79.7387H1488.71V77.8602H1483.62V79.7387ZM1226.5 79.7387H1234.13V77.8602H1226.5V79.7387ZM1111.94 79.7387H1114.48V77.8602H1111.94V79.7387ZM1496.35 82.2944H1498.9V80.4159H1496.35V82.2944ZM1475.99 82.2944H1483.62V80.4159H1475.99V82.2944ZM1221.41 82.2944H1226.5V80.4159H1221.41V82.2944ZM1114.48 82.2944H1119.57V80.4159H1114.48V82.2944ZM1498.9 84.8501H1501.44V82.9715H1498.9V84.8501ZM1473.44 84.8501H1475.99V82.9715H1473.44V84.8501ZM1300.32 84.8501H1302.87V82.9715H1300.32V84.8501ZM1218.86 84.8501H1221.41V82.9715H1218.86V84.8501ZM1119.57 84.8501H1124.66V82.9715H1119.57V84.8501ZM1501.44 87.4057H1506.53V85.5272H1501.44V87.4057ZM1470.89 87.4057H1473.44V85.5272H1470.89V87.4057ZM1300.32 87.4057H1302.87V85.5272H1300.32V87.4057ZM1226.5 87.4057H1231.59V85.5272H1226.5V87.4057ZM1208.68 87.4057H1218.86V85.5272H1208.68V87.4057ZM1124.66 87.4057H1127.21V85.5272H1124.66V87.4057ZM1549.81 89.9614H1552.36V88.0829H1549.81V89.9614ZM1506.53 89.9614H1509.08V88.0829H1506.53V89.9614ZM1465.8 89.9614H1470.89V88.0829H1465.8V89.9614ZM1300.32 89.9614H1302.87V88.0829H1300.32V89.9614ZM1231.59 89.9614H1244.32V88.0829H1231.59V89.9614ZM1183.22 89.9614H1226.5V88.0829H1183.22V89.9614ZM1127.21 89.9614H1129.76V88.0829H1127.21V89.9614ZM1544.72 92.5171H1549.81V90.6386H1544.72V92.5171ZM1509.08 90.6386V92.5171H1514.17V90.6386H1509.08ZM1463.26 92.5171H1465.8V90.6386H1463.26V92.5171ZM1414.89 92.5171H1437.8V90.6386H1414.89V92.5171ZM1300.32 92.5171H1302.87V90.6386H1300.32V92.5171ZM1244.32 92.5171H1259.59V90.6386H1244.32V92.5171ZM1180.67 92.5171H1183.22V90.6386H1180.67V92.5171ZM1129.76 92.5171H1134.85V90.6386H1129.76V92.5171ZM1529.45 95.0728H1544.72V93.1943H1529.45V95.0728ZM1514.17 93.1943V95.0728H1519.26V93.1943H1514.17ZM1460.71 95.0728H1463.26V93.1943H1460.71V95.0728ZM1437.8 95.0728H1440.34V93.1943H1437.8V95.0728ZM1407.25 95.0728H1414.89V93.1943H1407.25V95.0728ZM1300.32 95.0728H1302.87V93.1943H1300.32V95.0728ZM1259.59 95.0728H1272.32V93.1943H1259.59V95.0728ZM1178.13 95.0728H1180.67V93.1943H1178.13V95.0728ZM1134.85 95.0728H1137.39V93.1943H1134.85V95.0728ZM1519.26 97.6285H1529.45V95.7499H1519.26V97.6285ZM1458.16 97.6285H1460.71V95.7499H1458.16V97.6285ZM1437.8 97.6285H1450.53V95.7499H1437.8V97.6285ZM1402.16 97.6285H1407.25V95.7499H1402.16V97.6285ZM1297.78 97.6285H1300.32V95.7499H1297.78V97.6285ZM1272.32 97.6285H1279.96V95.7499H1272.32V97.6285ZM1175.58 97.6285H1178.13V95.7499H1175.58V97.6285ZM1137.39 97.6285H1139.94V95.7499H1137.39V97.6285ZM1524.36 100.184H1526.9V98.3056H1524.36V100.184ZM1519.26 100.184H1521.81V98.3056H1519.26V100.184ZM1450.53 100.184H1458.16V98.3056H1450.53V100.184ZM1397.07 100.184H1402.16V98.3056H1397.07V100.184ZM1297.78 100.184H1300.32V98.3056H1297.78V100.184ZM1279.96 100.184H1287.6V98.3056H1279.96V100.184ZM1139.94 100.184H1178.13V98.3056H1139.94V100.184ZM1521.81 102.74H1524.36V100.861H1521.81V102.74ZM1516.72 102.74H1519.26V100.861H1516.72V102.74ZM1394.52 102.74H1397.07V100.861H1394.52V102.74ZM1287.6 102.74H1300.32V100.861H1287.6V102.74ZM1139.94 102.74H1155.21V100.861H1139.94V102.74ZM1519.26 105.295H1521.81V103.417H1519.26V105.295ZM1514.17 105.295H1516.72V103.417H1514.17V105.295ZM1391.97 105.295H1394.52V103.417H1391.97V105.295ZM1297.78 105.295H1305.42V103.417H1297.78V105.295ZM1139.94 105.295H1142.49V103.417H1139.94V105.295ZM1511.63 107.851H1514.17V105.973H1511.63V107.851ZM1384.34 107.851H1391.97V105.973H1384.34V107.851ZM1305.42 107.851H1307.96V105.973H1305.42V107.851ZM1139.94 107.851H1142.49V105.973H1139.94V107.851ZM1381.79 110.407H1384.34V108.528H1381.79V110.407ZM1307.96 110.407H1315.6V108.528H1307.96V110.407ZM1139.94 110.407H1142.49V108.528H1139.94V110.407ZM1379.24 112.963H1381.79V111.084H1379.24V112.963ZM1315.6 112.963H1323.24V111.084H1315.6V112.963ZM1137.39 112.963H1139.94V111.084H1137.39V112.963ZM1376.7 115.518H1379.24V113.64H1376.7V115.518ZM1323.24 115.518H1333.42V113.64H1323.24V115.518ZM1137.39 115.518H1139.94V113.64H1137.39V115.518ZM1374.15 118.074H1376.7V116.195H1374.15V118.074ZM1333.42 118.074H1343.6V116.195H1333.42V118.074ZM1137.39 118.074H1139.94V116.195H1137.39V118.074ZM1376.7 120.63H1379.24V118.751H1376.7V120.63ZM1366.52 120.63H1374.15V118.751H1366.52V120.63ZM1343.6 120.63H1356.33V118.751H1343.6V120.63ZM1356.33 123.185H1366.52V121.307H1356.33V123.185Z" fill="#4E4C6C"/>
</g>
<g clip-path="url(#clip1_242_9578)">
<path d="M92.9879 -66.5371H95.0645H92.9879ZM95.0645 -64.446H97.1411H95.0645ZM97.1411 -62.3549H99.2177H97.1411ZM99.2177 -60.2639H101.294H99.2177ZM101.294 -58.1728H103.371H101.294ZM103.371 -56.0817H105.448H103.371ZM105.448 -53.9906H107.524H105.448ZM107.524 -51.8995H109.601H107.524ZM109.601 -49.8084H111.677H109.601ZM111.677 -47.7173H113.754H111.677ZM113.754 -45.6263H115.831H113.754ZM113.754 -43.5352H115.831H113.754ZM248.734 -14.26H250.81H248.734ZM248.734 -12.1689H250.81H248.734ZM248.734 -10.0778H250.81H248.734ZM248.734 -7.98672H250.81H248.734ZM248.734 -5.89564H250.81H248.734ZM248.734 -3.80456H250.81H248.734ZM248.734 -1.71347H250.81H248.734ZM248.734 0.377617H250.81H248.734ZM248.734 2.4687H250.81H248.734ZM246.657 4.55979H248.734H246.657ZM246.657 6.65087H248.734H246.657ZM246.657 8.74196H248.734H246.657ZM246.657 10.833H248.734H246.657ZM246.657 12.9241H248.734H246.657ZM246.657 15.0152H248.734H246.657ZM244.581 17.1063H246.657H244.581ZM244.581 19.1974H246.657H244.581ZM244.581 21.2885H246.657H244.581ZM242.504 23.3796H246.657H242.504ZM242.504 25.4706H244.581H242.504ZM242.504 27.5617H244.581H242.504ZM240.427 29.6528H242.504H240.427ZM238.351 31.7439H240.427H238.351ZM236.274 33.835H238.351H236.274ZM232.121 35.9261H236.274H232.121ZM437.706 35.9261H439.782H437.706ZM232.121 38.0172H234.198H232.121ZM437.706 38.0172H439.782H437.706ZM232.121 40.1082H234.198H232.121ZM435.629 40.1082H437.706H435.629ZM232.121 42.1993H234.198H232.121ZM435.629 42.1993H437.706H435.629ZM234.198 44.2904H236.274H234.198ZM433.552 44.2904H435.629H433.552ZM234.198 46.3815H236.274H234.198ZM433.552 46.3815H435.629H433.552ZM30.6895 48.4726H32.7661H30.6895ZM236.274 48.4726H238.351H236.274ZM431.476 48.4726H433.552H431.476ZM479.238 48.4726H493.774H479.238ZM32.7661 50.5637H34.8427H32.7661ZM236.274 50.5637H238.351H236.274ZM431.476 50.5637H433.552H431.476ZM475.085 50.5637H479.238H475.085ZM485.468 50.5637H487.544H485.468ZM493.774 50.5637H506.234H493.774ZM34.8427 52.6547H36.9194H34.8427ZM238.351 52.6547H240.427H238.351ZM429.399 52.6547H431.476H429.399ZM468.855 52.6547H475.085H468.855ZM487.544 52.6547H489.621H487.544ZM506.234 52.6547H518.694H506.234ZM36.9194 54.7458H38.996H36.9194ZM240.427 54.7458H242.504H240.427ZM427.323 54.7458H429.399H427.323ZM458.472 54.7458H468.855H458.472ZM489.621 54.7458H491.698H489.621ZM518.694 54.7458H527H518.694ZM38.996 56.8369H41.0726H38.996ZM242.504 56.8369H244.581H242.504ZM427.323 56.8369H429.399H427.323ZM456.395 56.8369H458.472H456.395ZM489.621 56.8369H491.698H489.621ZM41.0726 58.928H43.1492H41.0726ZM244.581 58.928H246.657H244.581ZM425.246 58.928H427.323H425.246ZM448.089 58.928H456.395H448.089ZM43.1492 61.0191H45.2258H43.1492ZM246.657 61.0191H248.734H246.657ZM421.093 61.0191H425.246H421.093ZM441.859 61.0191H448.089H441.859ZM45.2258 63.1102H47.3024H45.2258ZM246.657 63.1102H250.81H246.657ZM419.016 63.1102H423.169H419.016ZM429.399 63.1102H441.859H429.399ZM47.3024 65.2012H51.4556H47.3024ZM250.81 65.2012H252.887H250.81ZM385.79 65.2012H429.399H385.79ZM51.4556 67.2923H53.5323H51.4556ZM252.887 67.2923H254.964H252.887ZM381.637 67.2923H385.79H381.637ZM53.5323 69.3834H55.6089H53.5323ZM254.964 69.3834H259.117H254.964ZM379.56 69.3834H381.637H379.56ZM55.6089 71.4745H57.6855H55.6089ZM259.117 71.4745H261.194H259.117ZM375.407 71.4745H379.56H375.407ZM57.6855 73.5656H59.7621H57.6855ZM261.194 73.5656H265.347H261.194ZM373.331 73.5656H375.407H373.331ZM57.6855 75.6567H63.9153H57.6855ZM265.347 75.6567H271.577H265.347ZM371.254 75.6567H373.331H371.254ZM57.6855 77.7478H59.7621H57.6855ZM63.9153 77.7478H68.0686H63.9153ZM271.577 77.7478H277.806H271.577ZM369.177 77.7478H371.254H369.177ZM55.6089 79.8389H57.6855H55.6089ZM68.0686 79.8389H74.2984H68.0686ZM277.806 79.8389H281.96H277.806ZM365.024 79.8389H369.177H365.024ZM53.5323 81.9299H55.6089H53.5323ZM74.2984 81.9299H76.375H74.2984ZM215.508 81.9299H217.585H215.508ZM281.96 81.9299H284.036H281.96ZM360.871 81.9299H365.024H360.871ZM49.379 84.021H53.5323H49.379ZM76.375 84.021H78.4516H76.375ZM215.508 84.021H217.585H215.508ZM273.653 84.021H277.806H273.653ZM284.036 84.021H292.343H284.036ZM358.794 84.021H360.871H358.794ZM12 86.1121H14.0766H12ZM47.3024 86.1121H49.379H47.3024ZM78.4516 86.1121H82.6048H78.4516ZM215.508 86.1121H217.585H215.508ZM263.27 86.1121H273.653H263.27ZM277.806 86.1121H313.109H277.806ZM356.718 86.1121H358.794H356.718ZM14.0766 88.2032H18.2298H14.0766ZM43.1492 88.2032H47.3024H43.1492ZM82.6048 88.2032H84.6815H82.6048ZM105.448 88.2032H124.137H105.448ZM215.508 88.2032H217.585H215.508ZM250.81 88.2032H263.27H250.81ZM313.109 88.2032H315.185H313.109ZM352.565 88.2032H356.718H352.565ZM18.2298 90.2943H30.6895H18.2298ZM38.996 90.2943H43.1492H38.996ZM84.6815 90.2943H86.7581H84.6815ZM103.371 90.2943H105.448H103.371ZM124.137 90.2943H130.367H124.137ZM215.508 90.2943H217.585H215.508ZM240.427 90.2943H250.81H240.427ZM315.185 90.2943H317.262H315.185ZM350.488 90.2943H352.565H350.488ZM30.6895 92.3854H38.996H30.6895ZM86.7581 92.3854H88.8347H86.7581ZM95.0645 92.3854H105.448H95.0645ZM130.367 92.3854H134.52H130.367ZM217.585 92.3854H219.661H217.585ZM234.198 92.3854H240.427H234.198ZM317.262 92.3854H319.339H317.262ZM348.411 92.3854H350.488H348.411ZM32.7661 94.4765H34.8427H32.7661ZM36.9194 94.4765H38.996H36.9194ZM88.8347 94.4765H95.0645H88.8347ZM134.52 94.4765H138.673H134.52ZM217.585 94.4765H219.661H217.585ZM227.968 94.4765H234.198H227.968ZM317.262 94.4765H348.411H317.262ZM34.8427 96.5675H36.9194H34.8427ZM38.996 96.5675H41.0726H38.996ZM138.673 96.5675H140.75H138.673ZM217.585 96.5675H227.968H217.585ZM335.952 96.5675H348.411H335.952ZM36.9194 98.6586H38.996H36.9194ZM41.0726 98.6586H43.1492H41.0726ZM140.75 98.6586H142.827H140.75ZM213.431 98.6586H219.661H213.431ZM346.335 98.6586H348.411H346.335ZM43.1492 100.75H45.2258H43.1492ZM142.827 100.75H149.056H142.827ZM211.355 100.75H213.431H211.355ZM346.335 100.75H348.411H346.335ZM149.056 102.841H151.133H149.056ZM205.125 102.841H211.355H205.125ZM346.335 102.841H348.411H346.335ZM151.133 104.932H153.21H151.133ZM198.895 104.932H205.125H198.895ZM348.411 104.932H350.488H348.411ZM153.21 107.023H155.286H153.21ZM190.589 107.023H198.895H190.589ZM348.411 107.023H350.488H348.411ZM155.286 109.114H157.363H155.286ZM182.282 109.114H190.589H182.282ZM348.411 109.114H350.488H348.411ZM153.21 111.205H155.286H153.21ZM157.363 111.205H163.593H157.363ZM171.899 111.205H182.282H171.899ZM163.593 113.296H171.899H163.593Z" fill="black"/>
<path fill-rule="evenodd" clip-rule="evenodd" d="M95.0645 -65.7686H92.9879V-67.3057H95.0645V-65.7686ZM97.1411 -63.6775H95.0645V-65.2146H97.1411V-63.6775ZM99.2177 -61.5865H97.1411V-63.1235H99.2177V-61.5865ZM101.294 -59.4954H99.2177V-61.0324H101.294V-59.4954ZM103.371 -57.4043H101.294V-58.9413H103.371V-57.4043ZM105.448 -55.3132H103.371V-56.8502H105.448V-55.3132ZM107.524 -53.2221H105.448V-54.7592H107.524V-53.2221ZM109.601 -51.131H107.524V-52.6681H109.601V-51.131ZM111.677 -49.0399H109.601V-50.577H111.677V-49.0399ZM113.754 -46.9489H111.677V-48.4859H113.754V-46.9489ZM115.831 -44.8578H113.754V-46.3948H115.831V-44.8578ZM115.831 -42.7667H113.754V-44.3037H115.831V-42.7667ZM250.81 -13.4915H248.734V-15.0285H250.81V-13.4915ZM250.81 -11.4004H248.734V-12.9374H250.81V-11.4004ZM250.81 -9.30932H248.734V-10.8464H250.81V-9.30932ZM250.81 -7.21824H248.734V-8.75528H250.81V-7.21824ZM250.81 -5.12715H248.734V-6.66419H250.81V-5.12715ZM250.81 -3.03607H248.734V-4.57311H250.81V-3.03607ZM250.81 -0.944984H248.734V-2.48202H250.81V-0.944984ZM250.81 1.1461H248.734V-0.39093H250.81V1.1461ZM250.81 3.23719H248.734V1.70015H250.81V3.23719ZM248.734 5.32828H246.657V3.79124H248.734V5.32828ZM248.734 7.41936H246.657V5.88232H248.734V7.41936ZM248.734 9.51044H246.657V7.9734H248.734V9.51044ZM248.734 11.6015H246.657V10.0645H248.734V11.6015ZM248.734 13.6926H246.657V12.1556H248.734V13.6926ZM248.734 15.7837H246.657V14.2467H248.734V15.7837ZM246.657 17.8748H244.581V16.3377H246.657V17.8748ZM246.657 19.9659H244.581V18.4288H246.657V19.9659ZM246.657 22.057H244.581V20.5199H246.657V22.057ZM246.657 22.611V24.148H242.504V22.611H246.657ZM244.581 26.2391H242.504V24.7021H244.581V26.2391ZM244.581 28.3302H242.504V26.7932H244.581V28.3302ZM242.504 30.4213H240.427V28.8843H242.504V30.4213ZM240.427 32.5124H238.351V30.9753H240.427V32.5124ZM238.351 34.6035H236.274V33.0664H238.351V34.6035ZM236.274 36.6946H232.121V35.1575H236.274V36.6946ZM439.782 36.6946H437.706V35.1575H439.782V36.6946ZM234.198 38.7856H232.121V37.2486H234.198V38.7856ZM439.782 38.7856H437.706V37.2486H439.782V38.7856ZM234.198 40.8767H232.121V39.3397H234.198V40.8767ZM437.706 40.8767H435.629V39.3397H437.706V40.8767ZM234.198 42.9678H232.121V41.4308H234.198V42.9678ZM437.706 42.9678H435.629V41.4308H437.706V42.9678ZM236.274 45.0589H234.198V43.5219H236.274V45.0589ZM435.629 45.0589H433.552V43.5219H435.629V45.0589ZM236.274 47.15H234.198V45.6129H236.274V47.15ZM435.629 47.15H433.552V45.6129H435.629V47.15ZM32.7661 49.2411H30.6895V47.704H32.7661V49.2411ZM238.351 49.2411H236.274V47.704H238.351V49.2411ZM433.552 49.2411H431.476V47.704H433.552V49.2411ZM493.774 49.2411H479.238V47.704H493.774V49.2411ZM34.8427 51.3322H32.7661V49.7951H34.8427V51.3322ZM238.351 51.3322H236.274V49.7951H238.351V51.3322ZM433.552 51.3322H431.476V49.7951H433.552V51.3322ZM479.238 51.3322H475.085V49.7951H479.238V51.3322ZM487.544 51.3322H485.468V49.7951H487.544V51.3322ZM506.234 51.3322H493.774V49.7951H506.234V51.3322ZM36.9194 53.4232H34.8427V51.8862H36.9194V53.4232ZM240.427 53.4232H238.351V51.8862H240.427V53.4232ZM431.476 53.4232H429.399V51.8862H431.476V53.4232ZM475.085 53.4232H468.855V51.8862H475.085V53.4232ZM489.621 53.4232H487.544V51.8862H489.621V53.4232ZM518.694 53.4232H506.234V51.8862H518.694V53.4232ZM38.996 55.5143H36.9194V53.9773H38.996V55.5143ZM242.504 55.5143H240.427V53.9773H242.504V55.5143ZM429.399 55.5143H427.323V53.9773H429.399V55.5143ZM468.855 55.5143H458.472V53.9773H468.855V55.5143ZM491.698 55.5143H489.621V53.9773H491.698V55.5143ZM527 55.5143H518.694V53.9773H527V55.5143ZM41.0726 57.6054H38.996V56.0684H41.0726V57.6054ZM244.581 57.6054H242.504V56.0684H244.581V57.6054ZM429.399 57.6054H427.323V56.0684H429.399V57.6054ZM458.472 57.6054H456.395V56.0684H458.472V57.6054ZM491.698 57.6054H489.621V56.0684H491.698V57.6054ZM43.1492 59.6965H41.0726V58.1594H43.1492V59.6965ZM246.657 59.6965H244.581V58.1594H246.657V59.6965ZM427.323 59.6965H425.246V58.1594H427.323V59.6965ZM456.395 59.6965H448.089V58.1594H456.395V59.6965ZM45.2258 61.7876H43.1492V60.2505H45.2258V61.7876ZM248.734 61.7876H246.657V60.2505H248.734V61.7876ZM425.246 61.7876H421.093V60.2505H425.246V61.7876ZM448.089 61.7876H441.859V60.2505H448.089V61.7876ZM47.3024 63.8787H45.2258V62.3416H47.3024V63.8787ZM250.81 62.3416V63.8787H246.657V62.3416H250.81ZM423.169 62.3416V63.8787H419.016V62.3416H423.169ZM441.859 63.8787H429.399V62.3416H441.859V63.8787ZM51.4556 65.9697H47.3024V64.4327H51.4556V65.9697ZM252.887 65.9697H250.81V64.4327H252.887V65.9697ZM429.399 65.9697H385.79V64.4327H429.399V65.9697ZM53.5323 68.0608H51.4556V66.5238H53.5323V68.0608ZM254.964 68.0608H252.887V66.5238H254.964V68.0608ZM385.79 68.0608H381.637V66.5238H385.79V68.0608ZM55.6089 70.1519H53.5323V68.6149H55.6089V70.1519ZM259.117 70.1519H254.964V68.6149H259.117V70.1519ZM381.637 70.1519H379.56V68.6149H381.637V70.1519ZM57.6855 72.243H55.6089V70.706H57.6855V72.243ZM261.194 72.243H259.117V70.706H261.194V72.243ZM379.56 72.243H375.407V70.706H379.56V72.243ZM59.7621 74.3341H57.6855V72.7971H59.7621V74.3341ZM265.347 74.3341H261.194V72.7971H265.347V74.3341ZM375.407 74.3341H373.331V72.7971H375.407V74.3341ZM63.9153 76.4252H57.6855V74.8881H63.9153V76.4252ZM271.577 76.4252H265.347V74.8881H271.577V76.4252ZM373.331 76.4252H371.254V74.8881H373.331V76.4252ZM59.7621 78.5163H57.6855V76.9792H59.7621V78.5163ZM68.0686 78.5163H63.9153V76.9792H68.0686V78.5163ZM277.806 78.5163H271.577V76.9792H277.806V78.5163ZM371.254 78.5163H369.177V76.9792H371.254V78.5163ZM57.6855 80.6073H55.6089V79.0703H57.6855V80.6073ZM74.2984 80.6073H68.0686V79.0703H74.2984V80.6073ZM281.96 80.6073H277.806V79.0703H281.96V80.6073ZM369.177 80.6073H365.024V79.0703H369.177V80.6073ZM55.6089 82.6984H53.5323V81.1614H55.6089V82.6984ZM76.375 82.6984H74.2984V81.1614H76.375V82.6984ZM217.585 82.6984H215.508V81.1614H217.585V82.6984ZM284.036 82.6984H281.96V81.1614H284.036V82.6984ZM365.024 82.6984H360.871V81.1614H365.024V82.6984ZM53.5323 84.7895H49.379V83.2525H53.5323V84.7895ZM78.4516 84.7895H76.375V83.2525H78.4516V84.7895ZM217.585 84.7895H215.508V83.2525H217.585V84.7895ZM277.806 84.7895H273.653V83.2525H277.806V84.7895ZM292.343 84.7895H284.036V83.2525H292.343V84.7895ZM360.871 84.7895H358.794V83.2525H360.871V84.7895ZM14.0766 86.8806H12V85.3436H14.0766V86.8806ZM49.379 86.8806H47.3024V85.3436H49.379V86.8806ZM82.6048 86.8806H78.4516V85.3436H82.6048V86.8806ZM217.585 86.8806H215.508V85.3436H217.585V86.8806ZM273.653 86.8806H263.27V85.3436H273.653V86.8806ZM313.109 86.8806H277.806V85.3436H313.109V86.8806ZM358.794 86.8806H356.718V85.3436H358.794V86.8806ZM18.2298 88.9717H14.0766V87.4346H18.2298V88.9717ZM47.3024 87.4346V88.9717H43.1492V87.4346H47.3024ZM84.6815 88.9717H82.6048V87.4346H84.6815V88.9717ZM124.137 88.9717H105.448V87.4346H124.137V88.9717ZM217.585 88.9717H215.508V87.4346H217.585V88.9717ZM263.27 88.9717H250.81V87.4346H263.27V88.9717ZM315.185 88.9717H313.109V87.4346H315.185V88.9717ZM356.718 88.9717H352.565V87.4346H356.718V88.9717ZM30.6895 91.0628H18.2298V89.5257H30.6895V91.0628ZM43.1492 89.5257V91.0628H38.996V89.5257H43.1492ZM86.7581 91.0628H84.6815V89.5257H86.7581V91.0628ZM105.448 91.0628H103.371V89.5257H105.448V91.0628ZM130.367 91.0628H124.137V89.5257H130.367V91.0628ZM217.585 91.0628H215.508V89.5257H217.585V91.0628ZM250.81 91.0628H240.427V89.5257H250.81V91.0628ZM317.262 91.0628H315.185V89.5257H317.262V91.0628ZM352.565 91.0628H350.488V89.5257H352.565V91.0628ZM38.996 93.1539H30.6895V91.6168H38.996V93.1539ZM88.8347 93.1539H86.7581V91.6168H88.8347V93.1539ZM105.448 93.1539H95.0645V91.6168H105.448V93.1539ZM134.52 93.1539H130.367V91.6168H134.52V93.1539ZM219.661 93.1539H217.585V91.6168H219.661V93.1539ZM240.427 93.1539H234.198V91.6168H240.427V93.1539ZM319.339 93.1539H317.262V91.6168H319.339V93.1539ZM350.488 93.1539H348.411V91.6168H350.488V93.1539ZM34.8427 95.2449H32.7661V93.7079H34.8427V95.2449ZM38.996 95.2449H36.9194V93.7079H38.996V95.2449ZM95.0645 95.2449H88.8347V93.7079H95.0645V95.2449ZM138.673 95.2449H134.52V93.7079H138.673V95.2449ZM219.661 95.2449H217.585V93.7079H219.661V95.2449ZM234.198 95.2449H227.968V93.7079H234.198V95.2449ZM348.411 95.2449H317.262V93.7079H348.411V95.2449ZM36.9194 97.336H34.8427V95.799H36.9194V97.336ZM41.0726 97.336H38.996V95.799H41.0726V97.336ZM140.75 97.336H138.673V95.799H140.75V97.336ZM227.968 97.336H217.585V95.799H227.968V97.336ZM348.411 97.336H335.952V95.799H348.411V97.336ZM38.996 99.4271H36.9194V97.8901H38.996V99.4271ZM43.1492 99.4271H41.0726V97.8901H43.1492V99.4271ZM142.827 99.4271H140.75V97.8901H142.827V99.4271ZM219.661 99.4271H213.431V97.8901H219.661V99.4271ZM348.411 99.4271H346.335V97.8901H348.411V99.4271ZM45.2258 101.518H43.1492V99.9812H45.2258V101.518ZM149.056 101.518H142.827V99.9812H149.056V101.518ZM213.431 101.518H211.355V99.9812H213.431V101.518ZM348.411 101.518H346.335V99.9812H348.411V101.518ZM151.133 103.609H149.056V102.072H151.133V103.609ZM211.355 103.609H205.125V102.072H211.355V103.609ZM348.411 103.609H346.335V102.072H348.411V103.609ZM153.21 105.7H151.133V104.163H153.21V105.7ZM205.125 105.7H198.895V104.163H205.125V105.7ZM350.488 105.7H348.411V104.163H350.488V105.7ZM155.286 107.791H153.21V106.254H155.286V107.791ZM198.895 107.791H190.589V106.254H198.895V107.791ZM350.488 107.791H348.411V106.254H350.488V107.791ZM157.363 109.883H155.286V108.346H157.363V109.883ZM190.589 109.883H182.282V108.346H190.589V109.883ZM350.488 109.883H348.411V108.346H350.488V109.883ZM155.286 111.974H153.21V110.437H155.286V111.974ZM163.593 111.974H157.363V110.437H163.593V111.974ZM182.282 111.974H171.899V110.437H182.282V111.974ZM171.899 114.065H163.593V112.528H171.899V114.065Z" fill="#4E4C6C"/>
</g>
</g>
<defs>
<filter id="filter0_d_242_9578" x="0" y="0" width="1527" height="132" filterUnits="userSpaceOnUse" color-interpolation-filters="sRGB">
<feFlood flood-opacity="0" result="BackgroundImageFix"/>
<feColorMatrix in="SourceAlpha" type="matrix" values="0 0 0 0 0 0 0 0 0 0 0 0 0 0 0 0 0 0 127 0" result="hardAlpha"/>
<feOffset dx="-8" dy="8"/>
<feComposite in2="hardAlpha" operator="out"/>
<feColorMatrix type="matrix" values="0 0 0 0 0 0 0 0 0 0 0 0 0 0 0 0 0 0 0.35 0"/>
<feBlend mode="normal" in2="BackgroundImageFix" result="effect1_dropShadow_242_9578"/>
<feBlend mode="normal" in="SourceGraphic" in2="effect1_dropShadow_242_9578" result="shape"/>
</filter>
<clipPath id="clip0_242_9578">
<rect width="432" height="108" fill="white" transform="matrix(-1 0 0 1 1523 4)"/>
</clipPath>
<clipPath id="clip1_242_9578">
<rect width="515" height="108" fill="white" transform="translate(12 4)"/>
</clipPath>
</defs>
</svg>
