<svg width="963" height="202" viewBox="0 0 963 202" fill="none" xmlns="http://www.w3.org/2000/svg">
<g clip-path="url(#clip0_348_60194)">
<path d="M151.44 -131.93H155.323H151.44ZM155.323 -128.019H159.206H155.323ZM159.206 -124.108H163.089H159.206ZM163.089 -120.197H166.972H163.089ZM166.972 -116.286H170.855H166.972ZM170.855 -112.375H174.738H170.855ZM174.738 -108.464H178.621H174.738ZM178.621 -104.553H182.504H178.621ZM182.504 -100.642H186.387H182.504ZM186.387 -96.7305H190.27H186.387ZM190.27 -92.8194H194.153H190.27ZM190.27 -88.9083H194.153H190.27ZM442.669 -34.1528H446.552H442.669ZM442.669 -30.2417H446.552H442.669ZM442.669 -26.3306H446.552H442.669ZM442.669 -22.4195H446.552H442.669ZM442.669 -18.5084H446.552H442.669ZM442.669 -14.5973H446.552H442.669ZM442.669 -10.6862H446.552H442.669ZM442.669 -6.77511H446.552H442.669ZM442.669 -2.864H446.552H442.669ZM438.786 1.0471H442.669H438.786ZM438.786 4.95821H442.669H438.786ZM438.786 8.86931H442.669H438.786ZM438.786 12.7804H442.669H438.786ZM438.786 16.6915H442.669H438.786ZM438.786 20.6026H442.669H438.786ZM434.903 24.5137H438.786H434.903ZM434.903 28.4248H438.786H434.903ZM434.903 32.3359H438.786H434.903ZM431.02 36.247H438.786H431.02ZM431.02 40.1581H434.903H431.02ZM431.02 44.0692H434.903H431.02ZM427.137 47.9803H431.02H427.137ZM423.254 51.8914H427.137H423.254ZM419.371 55.8026H423.254H419.371ZM411.605 59.7137H419.371H411.605ZM796.028 59.7137H799.911H796.028ZM411.605 63.6248H415.488H411.605ZM796.028 63.6248H799.911H796.028ZM411.605 67.5358H415.488H411.605ZM792.145 67.5358H796.028H792.145ZM411.605 71.447H415.488H411.605ZM792.145 71.447H796.028H792.145ZM415.488 75.3581H419.371H415.488ZM788.262 75.3581H792.145H788.262ZM415.488 79.2692H419.371H415.488ZM788.262 79.2692H792.145H788.262ZM34.9476 83.1803H38.8306H34.9476ZM419.371 83.1803H423.254H419.371ZM784.379 83.1803H788.262H784.379ZM873.69 83.1803H900.871H873.69ZM38.8306 87.0914H42.7137H38.8306ZM419.371 87.0914H423.254H419.371ZM784.379 87.0914H788.262H784.379ZM865.923 87.0914H873.69H865.923ZM885.339 87.0914H889.222H885.339ZM900.871 87.0914H924.169H900.871ZM42.7137 91.0025H46.5968H42.7137ZM423.254 91.0025H427.137H423.254ZM780.496 91.0025H784.379H780.496ZM854.274 91.0025H865.923H854.274ZM889.222 91.0025H893.105H889.222ZM924.169 91.0025H947.468H924.169ZM46.5968 94.9136H50.4798H46.5968ZM427.137 94.9136H431.02H427.137ZM776.613 94.9136H780.496H776.613ZM834.859 94.9136H854.274H834.859ZM893.105 94.9136H896.988H893.105ZM947.468 94.9136H963H947.468ZM50.4798 98.8247H54.3629H50.4798ZM431.02 98.8247H434.903H431.02ZM776.613 98.8247H780.496H776.613ZM830.976 98.8247H834.859H830.976ZM893.105 98.8247H896.988H893.105ZM54.3629 102.736H58.246H54.3629ZM434.903 102.736H438.786H434.903ZM772.73 102.736H776.613H772.73ZM815.444 102.736H830.976H815.444ZM58.246 106.647H62.129H58.246ZM438.786 106.647H442.669H438.786ZM764.964 106.647H772.73H764.964ZM803.794 106.647H815.444H803.794ZM62.129 110.558H66.0121H62.129ZM438.786 110.558H446.552H438.786ZM761.081 110.558H768.847H761.081ZM780.496 110.558H803.794H780.496ZM66.0121 114.469H73.7782H66.0121ZM446.552 114.469H450.435H446.552ZM698.952 114.469H780.496H698.952ZM73.7782 118.38H77.6613H73.7782ZM450.435 118.38H454.319H450.435ZM691.185 118.38H698.952H691.185ZM77.6613 122.291H81.5444H77.6613ZM454.319 122.291H462.085H454.319ZM687.302 122.291H691.185H687.302ZM81.5444 126.202H85.4274H81.5444ZM462.085 126.202H465.968H462.085ZM679.536 126.202H687.302H679.536ZM85.4274 130.114H89.3105H85.4274ZM465.968 130.114H473.734H465.968ZM675.653 130.114H679.536H675.653ZM85.4274 134.025H97.0766H85.4274ZM473.734 134.025H485.383H473.734ZM671.77 134.025H675.653H671.77ZM85.4274 137.936H89.3105H85.4274ZM97.0766 137.936H104.843H97.0766ZM485.383 137.936H497.032H485.383ZM667.887 137.936H671.77H667.887ZM81.5444 141.847H85.4274H81.5444ZM104.843 141.847H116.492H104.843ZM497.032 141.847H504.798H497.032ZM660.121 141.847H667.887H660.121ZM77.6613 145.758H81.5444H77.6613ZM116.492 145.758H120.375H116.492ZM380.54 145.758H384.423H380.54ZM504.798 145.758H508.681H504.798ZM652.355 145.758H660.121H652.355ZM69.8952 149.669H77.6613H69.8952ZM120.375 149.669H124.258H120.375ZM380.54 149.669H384.423H380.54ZM489.266 149.669H497.032H489.266ZM508.681 149.669H524.214H508.681ZM648.472 149.669H652.355H648.472ZM0 153.58H3.88306H0ZM66.0121 153.58H69.8952H66.0121ZM124.258 153.58H132.024H124.258ZM380.54 153.58H384.423H380.54ZM469.851 153.58H489.266H469.851ZM497.032 153.58H563.044H497.032ZM644.589 153.58H648.472H644.589ZM3.88306 157.491H11.6492H3.88306ZM58.246 157.491H66.0121H58.246ZM132.024 157.491H135.907H132.024ZM174.738 157.491H209.686H174.738ZM380.54 157.491H384.423H380.54ZM446.552 157.491H469.851H446.552ZM563.044 157.491H566.927H563.044ZM636.823 157.491H644.589H636.823ZM11.6492 161.402H34.9476H11.6492ZM50.4798 161.402H58.246H50.4798ZM135.907 161.402H139.79H135.907ZM170.855 161.402H174.738H170.855ZM209.686 161.402H221.335H209.686ZM380.54 161.402H384.423H380.54ZM427.137 161.402H446.552H427.137ZM566.927 161.402H570.81H566.927ZM632.94 161.402H636.823H632.94ZM34.9476 165.313H50.4798H34.9476ZM139.79 165.313H143.673H139.79ZM155.323 165.313H174.738H155.323ZM221.335 165.313H229.101H221.335ZM384.423 165.313H388.306H384.423ZM415.488 165.313H427.137H415.488ZM570.81 165.313H574.694H570.81ZM629.056 165.313H632.94H629.056ZM38.8306 169.225H42.7137H38.8306ZM46.5968 169.225H50.4798H46.5968ZM143.673 169.225H155.323H143.673ZM229.101 169.225H236.867H229.101ZM384.423 169.225H388.306H384.423ZM403.839 169.225H415.488H403.839ZM570.81 169.225H629.056H570.81ZM42.7137 173.136H46.5968H42.7137ZM50.4798 173.136H54.3629H50.4798ZM236.867 173.136H240.75H236.867ZM384.423 173.136H403.839H384.423ZM605.758 173.136H629.056H605.758ZM46.5968 177.047H50.4798H46.5968ZM54.3629 177.047H58.246H54.3629ZM240.75 177.047H244.633H240.75ZM376.657 177.047H388.306H376.657ZM625.173 177.047H629.056H625.173ZM58.246 180.958H62.129H58.246ZM244.633 180.958H256.282H244.633ZM372.774 180.958H376.657H372.774ZM625.173 180.958H629.056H625.173ZM256.282 184.869H260.165H256.282ZM361.125 184.869H372.774H361.125ZM625.173 184.869H629.056H625.173ZM260.165 188.78H264.048H260.165ZM349.476 188.78H361.125H349.476ZM629.056 188.78H632.94H629.056ZM264.048 192.691H267.931H264.048ZM333.944 192.691H349.476H333.944ZM629.056 192.691H632.94H629.056ZM267.931 196.602H271.815H267.931ZM318.411 196.602H333.944H318.411ZM629.056 196.602H632.94H629.056ZM264.048 200.513H267.931H264.048ZM271.815 200.513H283.464H271.815ZM298.996 200.513H318.411H298.996ZM283.464 204.424H298.996H283.464Z" fill="black"/>
<path fill-rule="evenodd" clip-rule="evenodd" d="M155.323 -130.493H151.44V-133.368H155.323V-130.493ZM159.206 -126.582H155.323V-129.457H159.206V-126.582ZM163.089 -122.671H159.206V-125.546H163.089V-122.671ZM166.972 -118.76H163.089V-121.635H166.972V-118.76ZM170.855 -114.849H166.972V-117.724H170.855V-114.849ZM174.738 -110.938H170.855V-113.812H174.738V-110.938ZM178.621 -107.026H174.738V-109.901H178.621V-107.026ZM182.504 -103.115H178.621V-105.99H182.504V-103.115ZM186.387 -99.2043H182.504V-102.079H186.387V-99.2043ZM190.27 -95.2932H186.387V-98.168H190.27V-95.2932ZM194.153 -91.3821H190.27V-94.2569H194.153V-91.3821ZM194.153 -87.471H190.27V-90.3458H194.153V-87.471ZM446.552 -32.7155H442.669V-35.5903H446.552V-32.7155ZM446.552 -28.8044H442.669V-31.6792H446.552V-28.8044ZM446.552 -24.8933H442.669V-27.7681H446.552V-24.8933ZM446.552 -20.9822H442.669V-23.857H446.552V-20.9822ZM446.552 -17.0711H442.669V-19.9459H446.552V-17.0711ZM446.552 -13.16H442.669V-16.0348H446.552V-13.16ZM446.552 -9.24888H442.669V-12.1237H446.552V-9.24888ZM446.552 -5.33777H442.669V-8.2126H446.552V-5.33777ZM446.552 -1.42667H442.669V-4.3015H446.552V-1.42667ZM442.669 2.48444H438.786V-0.390381H442.669V2.48444ZM442.669 6.39554H438.786V3.52071H442.669V6.39554ZM442.669 10.3066H438.786V7.43182H442.669V10.3066ZM442.669 14.2178H438.786V11.3429H442.669V14.2178ZM442.669 18.1289H438.786V15.254H442.669V18.1289ZM442.669 22.0399H438.786V19.1651H442.669V22.0399ZM438.786 25.9511H434.903V23.0762H438.786V25.9511ZM438.786 29.8622H434.903V26.9873H438.786V29.8622ZM438.786 33.7733H434.903V30.8984H438.786V33.7733ZM438.786 34.8096V37.6844H431.02V34.8096H438.786ZM434.903 41.5955H431.02V38.7206H434.903V41.5955ZM434.903 45.5066H431.02V42.6317H434.903V45.5066ZM431.02 49.4177H427.137V46.5429H431.02V49.4177ZM427.137 53.3288H423.254V50.454H427.137V53.3288ZM423.254 57.2399H419.371V54.3651H423.254V57.2399ZM419.371 61.151H411.605V58.2762H419.371V61.151ZM799.911 61.151H796.028V58.2762H799.911V61.151ZM415.488 65.0621H411.605V62.1873H415.488V65.0621ZM799.911 65.0621H796.028V62.1873H799.911V65.0621ZM415.488 68.9732H411.605V66.0984H415.488V68.9732ZM796.028 68.9732H792.145V66.0984H796.028V68.9732ZM415.488 72.8843H411.605V70.0095H415.488V72.8843ZM796.028 72.8843H792.145V70.0095H796.028V72.8843ZM419.371 76.7954H415.488V73.9206H419.371V76.7954ZM792.145 76.7954H788.262V73.9206H792.145V76.7954ZM419.371 80.7065H415.488V77.8317H419.371V80.7065ZM792.145 80.7065H788.262V77.8317H792.145V80.7065ZM38.8306 84.6176H34.9476V81.7428H38.8306V84.6176ZM423.254 84.6176H419.371V81.7428H423.254V84.6176ZM788.262 84.6176H784.379V81.7428H788.262V84.6176ZM900.871 84.6176H873.69V81.7428H900.871V84.6176ZM42.7137 88.5287H38.8306V85.6539H42.7137V88.5287ZM423.254 88.5287H419.371V85.6539H423.254V88.5287ZM788.262 88.5287H784.379V85.6539H788.262V88.5287ZM873.69 88.5287H865.923V85.6539H873.69V88.5287ZM889.222 88.5287H885.339V85.6539H889.222V88.5287ZM924.169 88.5287H900.871V85.6539H924.169V88.5287ZM46.5968 92.4398H42.7137V89.565H46.5968V92.4398ZM427.137 92.4398H423.254V89.565H427.137V92.4398ZM784.379 92.4398H780.496V89.565H784.379V92.4398ZM865.923 92.4398H854.274V89.565H865.923V92.4398ZM893.105 92.4398H889.222V89.565H893.105V92.4398ZM947.468 92.4398H924.169V89.565H947.468V92.4398ZM50.4798 96.3509H46.5968V93.4761H50.4798V96.3509ZM431.02 96.3509H427.137V93.4761H431.02V96.3509ZM780.496 96.3509H776.613V93.4761H780.496V96.3509ZM854.274 96.3509H834.859V93.4761H854.274V96.3509ZM896.988 96.3509H893.105V93.4761H896.988V96.3509ZM963 96.3509H947.468V93.4761H963V96.3509ZM54.3629 100.262H50.4798V97.3872H54.3629V100.262ZM434.903 100.262H431.02V97.3872H434.903V100.262ZM780.496 100.262H776.613V97.3872H780.496V100.262ZM834.859 100.262H830.976V97.3872H834.859V100.262ZM896.988 100.262H893.105V97.3872H896.988V100.262ZM58.246 104.173H54.3629V101.298H58.246V104.173ZM438.786 104.173H434.903V101.298H438.786V104.173ZM776.613 104.173H772.73V101.298H776.613V104.173ZM830.976 104.173H815.444V101.298H830.976V104.173ZM62.129 108.084H58.246V105.209H62.129V108.084ZM442.669 108.084H438.786V105.209H442.669V108.084ZM772.73 108.084H764.964V105.209H772.73V108.084ZM815.444 108.084H803.794V105.209H815.444V108.084ZM66.0121 111.995H62.129V109.121H66.0121V111.995ZM446.552 109.121V111.995H438.786V109.121H446.552ZM768.847 109.121V111.995H761.081V109.121H768.847ZM803.794 111.995H780.496V109.121H803.794V111.995ZM73.7782 115.906H66.0121V113.032H73.7782V115.906ZM450.435 115.906H446.552V113.032H450.435V115.906ZM780.496 115.906H698.952V113.032H780.496V115.906ZM77.6613 119.818H73.7782V116.943H77.6613V119.818ZM454.319 119.818H450.435V116.943H454.319V119.818ZM698.952 119.818H691.185V116.943H698.952V119.818ZM81.5444 123.729H77.6613V120.854H81.5444V123.729ZM462.085 123.729H454.319V120.854H462.085V123.729ZM691.185 123.729H687.302V120.854H691.185V123.729ZM85.4274 127.64H81.5444V124.765H85.4274V127.64ZM465.968 127.64H462.085V124.765H465.968V127.64ZM687.302 127.64H679.536V124.765H687.302V127.64ZM89.3105 131.551H85.4274V128.676H89.3105V131.551ZM473.734 131.551H465.968V128.676H473.734V131.551ZM679.536 131.551H675.653V128.676H679.536V131.551ZM97.0766 135.462H85.4274V132.587H97.0766V135.462ZM485.383 135.462H473.734V132.587H485.383V135.462ZM675.653 135.462H671.77V132.587H675.653V135.462ZM89.3105 139.373H85.4274V136.498H89.3105V139.373ZM104.843 139.373H97.0766V136.498H104.843V139.373ZM497.032 139.373H485.383V136.498H497.032V139.373ZM671.77 139.373H667.887V136.498H671.77V139.373ZM85.4274 143.284H81.5444V140.409H85.4274V143.284ZM116.492 143.284H104.843V140.409H116.492V143.284ZM504.798 143.284H497.032V140.409H504.798V143.284ZM667.887 143.284H660.121V140.409H667.887V143.284ZM81.5444 147.195H77.6613V144.32H81.5444V147.195ZM120.375 147.195H116.492V144.32H120.375V147.195ZM384.423 147.195H380.54V144.32H384.423V147.195ZM508.681 147.195H504.798V144.32H508.681V147.195ZM660.121 147.195H652.355V144.32H660.121V147.195ZM77.6613 151.106H69.8952V148.232H77.6613V151.106ZM124.258 151.106H120.375V148.232H124.258V151.106ZM384.423 151.106H380.54V148.232H384.423V151.106ZM497.032 151.106H489.266V148.232H497.032V151.106ZM524.214 151.106H508.681V148.232H524.214V151.106ZM652.355 151.106H648.472V148.232H652.355V151.106ZM3.88306 155.017H0V152.143H3.88306V155.017ZM69.8952 155.017H66.0121V152.143H69.8952V155.017ZM132.024 155.017H124.258V152.143H132.024V155.017ZM384.423 155.017H380.54V152.143H384.423V155.017ZM489.266 155.017H469.851V152.143H489.266V155.017ZM563.044 155.017H497.032V152.143H563.044V155.017ZM648.472 155.017H644.589V152.143H648.472V155.017ZM11.6492 158.929H3.88306V156.054H11.6492V158.929ZM66.0121 156.054V158.929H58.246V156.054H66.0121ZM135.907 158.929H132.024V156.054H135.907V158.929ZM209.686 158.929H174.738V156.054H209.686V158.929ZM384.423 158.929H380.54V156.054H384.423V158.929ZM469.851 158.929H446.552V156.054H469.851V158.929ZM566.927 158.929H563.044V156.054H566.927V158.929ZM644.589 158.929H636.823V156.054H644.589V158.929ZM34.9476 162.84H11.6492V159.965H34.9476V162.84ZM58.246 159.965V162.84H50.4798V159.965H58.246ZM139.79 162.84H135.907V159.965H139.79V162.84ZM174.738 162.84H170.855V159.965H174.738V162.84ZM221.335 162.84H209.686V159.965H221.335V162.84ZM384.423 162.84H380.54V159.965H384.423V162.84ZM446.552 162.84H427.137V159.965H446.552V162.84ZM570.81 162.84H566.927V159.965H570.81V162.84ZM636.823 162.84H632.94V159.965H636.823V162.84ZM50.4798 166.751H34.9476V163.876H50.4798V166.751ZM143.673 166.751H139.79V163.876H143.673V166.751ZM174.738 166.751H155.323V163.876H174.738V166.751ZM229.101 166.751H221.335V163.876H229.101V166.751ZM388.306 166.751H384.423V163.876H388.306V166.751ZM427.137 166.751H415.488V163.876H427.137V166.751ZM574.694 166.751H570.81V163.876H574.694V166.751ZM632.94 166.751H629.056V163.876H632.94V166.751ZM42.7137 170.662H38.8306V167.787H42.7137V170.662ZM50.4798 170.662H46.5968V167.787H50.4798V170.662ZM155.323 170.662H143.673V167.787H155.323V170.662ZM236.867 170.662H229.101V167.787H236.867V170.662ZM388.306 170.662H384.423V167.787H388.306V170.662ZM415.488 170.662H403.839V167.787H415.488V170.662ZM629.056 170.662H570.81V167.787H629.056V170.662ZM46.5968 174.573H42.7137V171.698H46.5968V174.573ZM54.3629 174.573H50.4798V171.698H54.3629V174.573ZM240.75 174.573H236.867V171.698H240.75V174.573ZM403.839 174.573H384.423V171.698H403.839V174.573ZM629.056 174.573H605.758V171.698H629.056V174.573ZM50.4798 178.484H46.5968V175.609H50.4798V178.484ZM58.246 178.484H54.3629V175.609H58.246V178.484ZM244.633 178.484H240.75V175.609H244.633V178.484ZM388.306 178.484H376.657V175.609H388.306V178.484ZM629.056 178.484H625.173V175.609H629.056V178.484ZM62.129 182.395H58.246V179.52H62.129V182.395ZM256.282 182.395H244.633V179.52H256.282V182.395ZM376.657 182.395H372.774V179.52H376.657V182.395ZM629.056 182.395H625.173V179.52H629.056V182.395ZM260.165 186.306H256.282V183.431H260.165V186.306ZM372.774 186.306H361.125V183.431H372.774V186.306ZM629.056 186.306H625.173V183.431H629.056V186.306ZM264.048 190.217H260.165V187.343H264.048V190.217ZM361.125 190.217H349.476V187.343H361.125V190.217ZM632.94 190.217H629.056V187.343H632.94V190.217ZM267.931 194.129H264.048V191.254H267.931V194.129ZM349.476 194.129H333.944V191.254H349.476V194.129ZM632.94 194.129H629.056V191.254H632.94V194.129ZM271.815 198.04H267.931V195.165H271.815V198.04ZM333.944 198.04H318.411V195.165H333.944V198.04ZM632.94 198.04H629.056V195.165H632.94V198.04ZM267.931 201.951H264.048V199.076H267.931V201.951ZM283.464 201.951H271.815V199.076H283.464V201.951ZM318.411 201.951H298.996V199.076H318.411V201.951ZM298.996 205.862H283.464V202.987H298.996V205.862Z" fill="#4E4C6C"/>
</g>
<defs>
<clipPath id="clip0_348_60194">
<rect width="963" height="202" fill="white"/>
</clipPath>
</defs>
</svg>
