<svg width="860" height="104" viewBox="0 0 860 104" fill="none" xmlns="http://www.w3.org/2000/svg">
<rect x="4" y="12" width="81" height="4" transform="rotate(90 4 12)" fill="#030500"/>
<rect x="848" y="100" width="4.00001" height="836" transform="rotate(90 848 100)" fill="#19182C"/>
<rect x="848" width="4.00001" height="836" transform="rotate(90 848 0)" fill="#19182C"/>
<rect x="848" y="96" width="4.00001" height="836" transform="rotate(90 848 96)" fill="#6471AB"/>
<rect x="848" y="4" width="4.00001" height="836" transform="rotate(90 848 4)" fill="#8D9FF7"/>
<rect x="848" y="92" width="4.00001" height="836" transform="rotate(90 848 92)" fill="#8D9FF7"/>
<rect x="12" y="8" width="84" height="8" transform="rotate(90 12 8)" fill="#7C8CD9"/>
<rect x="856" y="8" width="84" height="8" transform="rotate(90 856 8)" fill="#7C8CD9"/>
<rect x="8" y="92" width="4" height="4" transform="rotate(90 8 92)" fill="#030500"/>
<rect x="8" y="8" width="4" height="4" transform="rotate(90 8 8)" fill="#030500"/>
<rect x="8" y="88" width="4" height="4" transform="rotate(90 8 88)" fill="#615F83"/>
<rect x="8" y="84" width="4" height="4" transform="rotate(90 8 84)" fill="#B1A7C6"/>
<rect x="12" y="96" width="4" height="4" transform="rotate(90 12 96)" fill="#030500"/>
<rect x="12" y="4" width="4" height="4" transform="rotate(90 12 4)" fill="#030500"/>
<rect x="12" y="92" width="4" height="4" transform="rotate(90 12 92)" fill="#615F83"/>
<rect x="12" y="88" width="4" height="4" transform="rotate(90 12 88)" fill="#B1A7C6"/>
<rect x="856" y="92" width="4" height="4" transform="rotate(90 856 92)" fill="#030500"/>
<rect x="856" y="8" width="4" height="4" transform="rotate(90 856 8)" fill="#030500"/>
<rect x="856" y="88" width="4" height="4" transform="rotate(90 856 88)" fill="#6471AB"/>
<rect x="856" y="84" width="4" height="4" transform="rotate(90 856 84)" fill="#8D9FF7"/>
<rect x="852" y="96" width="4" height="4" transform="rotate(90 852 96)" fill="#030500"/>
<rect x="852" y="4" width="4" height="4" transform="rotate(90 852 4)" fill="#030500"/>
<rect x="852" y="92" width="4" height="4" transform="rotate(90 852 92)" fill="#6471AB"/>
<rect x="852" y="88" width="4" height="4" transform="rotate(90 852 88)" fill="#8D9FF7"/>
<rect x="860" y="12" width="80" height="4" transform="rotate(90 860 12)" fill="#19182C"/>
</svg>
