<svg width="1519" height="124" viewBox="0 0 1519 124" fill="none" xmlns="http://www.w3.org/2000/svg">
<rect x="12" y="8" width="104" height="8" transform="rotate(90 12 8)" fill="#615F83"/>
<rect x="12" y="8" width="104" height="8" transform="rotate(90 12 8)" fill="#615F83"/>
<rect x="1515" y="8" width="104" height="8" transform="rotate(90 1515 8)" fill="#615F83"/>
<rect x="4" y="12" width="100" height="4" transform="rotate(90 4 12)" fill="#030500"/>
<rect x="1507" y="120" width="4.00001" height="1495" transform="rotate(90 1507 120)" fill="#030500"/>
<rect x="1507" y="116" width="4.00001" height="1495" transform="rotate(90 1507 116)" fill="#42415E"/>
<rect x="1507" y="112" width="4.00001" height="1495" transform="rotate(90 1507 112)" fill="#908EBA"/>
<rect x="8" y="112" width="4" height="4" transform="rotate(90 8 112)" fill="#030500"/>
<rect x="8" y="8" width="4" height="4" transform="rotate(90 8 8)" fill="#030500"/>
<rect x="8" y="108" width="4" height="4" transform="rotate(90 8 108)" fill="#42415E"/>
<rect x="12" y="116" width="4" height="4" transform="rotate(90 12 116)" fill="#030500"/>
<rect x="8" y="104" width="4" height="4" transform="rotate(90 8 104)" fill="#908EBA"/>
<rect x="12" y="112" width="4" height="4" transform="rotate(90 12 112)" fill="#42415E"/>
<rect x="12" y="108" width="4" height="4" transform="rotate(90 12 108)" fill="#908EBA"/>
<rect x="1515" y="112" width="4" height="4" transform="rotate(90 1515 112)" fill="#030500"/>
<rect x="1515" y="108" width="4" height="4" transform="rotate(90 1515 108)" fill="#42415E"/>
<rect x="1515" y="104" width="4" height="4" transform="rotate(90 1515 104)" fill="#908EBA"/>
<rect x="1511" y="116" width="4" height="4" transform="rotate(90 1511 116)" fill="#030500"/>
<rect x="1511" y="112" width="4" height="4" transform="rotate(90 1511 112)" fill="#42415E"/>
<rect x="1511" y="108" width="4" height="4" transform="rotate(90 1511 108)" fill="#908EBA"/>
<rect x="1519" y="12" width="100" height="4" transform="rotate(90 1519 12)" fill="#030500"/>
<rect x="1507" y="4" width="4.00007" height="1495" transform="rotate(90 1507 4)" fill="#615F83"/>
<rect x="1507" width="4.00001" height="1495" transform="rotate(90 1507 0)" fill="#030500"/>
<rect x="12" y="4" width="4" height="4" transform="rotate(90 12 4)" fill="#030500"/>
<rect x="1515" y="8" width="4" height="4" transform="rotate(90 1515 8)" fill="#030500"/>
<rect x="1511" y="4" width="4" height="4" transform="rotate(90 1511 4)" fill="#030500"/>
</svg>
