<svg width="153" height="53" viewBox="0 0 153 53" fill="none" xmlns="http://www.w3.org/2000/svg">
<path d="M8.62833 22.0574C10.2137 22.0574 11.4623 22.4432 12.3743 23.2148C13.3002 23.9724 13.7632 25.0106 13.7632 26.3294V26.5609C13.7632 27.8797 13.3002 28.925 12.3743 29.6966C11.4623 30.4542 10.2137 30.833 8.62833 30.833H2.63059V35.8627H0V22.0574H8.62833ZM8.56519 28.476C9.37892 28.476 10.0032 28.3147 10.4382 27.992C10.8731 27.6553 11.0906 27.1782 11.0906 26.5609V26.3294C11.0906 25.7121 10.8731 25.2421 10.4382 24.9195C10.0032 24.5827 9.37892 24.4144 8.56519 24.4144H2.63059V28.476H8.56519Z" fill="white"/>
<path d="M30.9829 35.4628V35.8627H28.3102L26.8792 32.706H19.5556L18.1246 35.8627H15.4519V35.4628L21.7653 22.0574H24.6695L30.9829 35.4628ZM25.7848 30.349L23.2174 24.709L20.6499 30.349H25.7848Z" fill="white"/>
<path d="M37.9388 22.0574V33.5057H47.7036V35.8627H35.3082V22.0574H37.9388Z" fill="white"/>
<path d="M54.5962 22.0574V33.5057H64.3609V35.8627H51.9656V22.0574H54.5962Z" fill="white"/>
<path d="M82.7019 35.4628V35.8627H80.0292L78.5982 32.706H71.2746L69.8436 35.8627H67.1709V35.4628L73.4843 22.0574H76.3885L82.7019 35.4628ZM77.5038 30.349L74.9364 24.709L72.3689 30.349H77.5038Z" fill="white"/>
<path d="M93.6984 22.0574C96.2378 22.0574 98.1599 22.6326 99.4646 23.783C100.783 24.9335 101.443 26.6171 101.443 28.8338V29.1073C101.443 31.3241 100.783 33.0076 99.4646 34.1581C98.1599 35.2945 96.2378 35.8627 93.6984 35.8627H87.0272V22.0574H93.6984ZM93.6984 33.5057C95.41 33.5057 96.6797 33.1479 97.5075 32.4324C98.3493 31.7169 98.7702 30.6226 98.7702 29.1494V28.8127C98.7702 25.8805 97.0725 24.4144 93.6773 24.4144H89.6578V33.5057H93.6984Z" fill="white"/>
<path d="M109.296 22.0574V35.8627H106.666V22.0574H109.296Z" fill="white"/>
<path d="M121.667 36.1152C120.32 36.1152 119.134 35.8557 118.11 35.3366C117.1 34.8034 116.314 34.0599 115.753 33.1058C115.192 32.1518 114.911 31.0435 114.911 29.7808V22.0574H117.542V29.8229C117.542 31.0294 117.9 31.9764 118.615 32.6639C119.345 33.3373 120.362 33.674 121.667 33.674C122.972 33.674 123.989 33.3373 124.718 32.6639C125.448 31.9764 125.813 31.0294 125.813 29.8229V22.0574H128.443V29.7808C128.443 31.0435 128.163 32.1518 127.601 33.1058C127.04 34.0599 126.248 34.8034 125.223 35.3366C124.199 35.8557 123.014 36.1152 121.667 36.1152Z" fill="white"/>
<path d="M152.097 35.8627H149.487V25.5297L144.415 35.8627H141.701L136.629 25.4877V35.8627H134.019V22.0574H137.723L143.069 32.8954L148.393 22.0574H152.097V35.8627Z" fill="white"/>
<path fill-rule="evenodd" clip-rule="evenodd" d="M75.9172 13.3353H76.776L77.7337 0.53123C77.5242 0.53123 77.3134 0.523518 77.1013 0.515758C76.8866 0.507903 76.6706 0.5 76.4533 0.5C76.0213 0.5 75.4539 0.5 74.9595 0.546844L75.9172 13.3353ZM78.9931 13.3353L78.0354 0.552065C78.9559 0.601654 79.8732 0.698942 80.7836 0.843538L79.8467 13.3353H78.9931ZM83.8129 1.53581C82.934 1.28406 82.0428 1.07733 81.1428 0.91642L82.0693 13.3353H82.9281L83.8129 1.53581ZM86.8109 2.60284C85.9831 2.24763 85.1369 1.93663 84.2761 1.67116L85.1453 13.3354H86.0093L86.8109 2.60284ZM74.6419 0.562478C73.7208 0.623681 72.8034 0.733135 71.8937 0.890388L72.8254 13.3353H73.6842L74.6419 0.562478ZM60.5207 13.3353L60.0002 6.22541C60.656 5.70492 61.3326 5.22086 62.0249 4.76283L61.3847 13.3353H60.5207ZM68.3958 1.74396C67.537 2.01982 66.6938 2.33211 65.8766 2.68604L66.673 13.3353H67.5318L68.3958 1.74396ZM62.9516 4.21106C63.7036 3.76171 64.4784 3.3517 65.273 2.9827L64.4974 13.3353H63.6334L62.9516 4.21106ZM71.5503 0.952865C70.6514 1.12189 69.7619 1.33732 68.8854 1.59828L69.765 13.3353H70.6238L71.5503 0.952865ZM87.4405 2.87867C88.216 3.24302 89.0176 3.649 89.7775 4.08621L89.0852 13.3353H88.2212L87.4405 2.87867ZM58.3244 13.3354H57.4656L57.1325 8.87477C57.6599 8.31264 58.2099 7.77307 58.7825 7.25604L58.3244 13.3354ZM94.3788 13.3353H95.2376L95.5863 8.6509C95.0519 8.09224 94.4916 7.5596 93.9051 7.05299L94.3788 13.3353ZM90.6209 4.61705C91.3462 5.06814 92.0401 5.54873 92.7029 6.05881L92.1616 13.3353H91.2976L90.6209 4.61705ZM53.7441 13.3353H55.2379L55.4253 10.8682C54.8189 11.6582 54.2576 12.4819 53.7441 13.3353ZM99.1673 13.3353H97.4549L97.2467 10.5663C97.9444 11.448 98.5859 12.3729 99.1673 13.3353Z" fill="white"/>
<path d="M44.2116 49.7387H42.6939L43.4549 47.6904L44.2116 49.7387ZM44.6552 50.8954L45.1901 52.3653H46.6164L44.1638 46.1292H42.7417L40.2891 52.3653H41.7154L42.2503 50.8954H44.6552Z" fill="white"/>
<path d="M51.0704 46.1292V52.3653H53.3882C54.2928 52.3653 55.0538 52.0652 55.6713 51.4608C56.2845 50.8606 56.5932 50.1214 56.5932 49.2473C56.5932 48.3775 56.2845 47.6382 55.6713 47.0338C55.0538 46.4336 54.2928 46.1292 53.3882 46.1292H51.0704ZM53.3882 47.3338C53.9188 47.3338 54.3667 47.5208 54.7233 47.8905C55.0799 48.2645 55.2582 48.7167 55.2582 49.2516C55.2582 49.7865 55.0755 50.2388 54.7102 50.6084C54.3449 50.9824 53.9014 51.165 53.3882 51.165H52.4098V47.3338H53.3882Z" fill="white"/>
<path d="M62.7345 52.3653H64.1608L66.4787 46.1292H65.0523L63.4476 50.7606L61.8473 46.1292H60.4209L62.7345 52.3653Z" fill="white"/>
<path d="M71.0153 52.3653H72.3547V46.1292H71.0153V52.3653Z" fill="white"/>
<path d="M80.2354 50.5388C80.2354 50.7737 80.1441 50.965 79.9614 51.1129C79.7788 51.2651 79.5309 51.339 79.2091 51.339C78.9308 51.339 78.6611 51.2781 78.4089 51.152C78.1523 51.0302 77.9871 50.9302 77.9132 50.8563C77.8392 50.7824 77.7827 50.7215 77.7436 50.6736L76.9391 51.4738L77.0391 51.5825C77.0956 51.6521 77.1913 51.7391 77.3261 51.8391C77.4566 51.9435 77.6131 52.0435 77.7871 52.1391C77.961 52.2392 78.1871 52.3261 78.4568 52.3957C78.7264 52.4653 79.009 52.5001 79.2961 52.5001C80.0353 52.5001 80.6137 52.3174 81.0312 51.9522C81.4487 51.5869 81.6574 51.1172 81.6574 50.5388C81.6574 50.13 81.553 49.7952 81.3399 49.5256C81.1312 49.2603 80.8746 49.069 80.5702 48.9515C80.2658 48.8385 79.9658 48.7341 79.6657 48.6471C79.3656 48.5602 79.1091 48.4558 78.9003 48.3297C78.6916 48.2036 78.5829 48.034 78.5829 47.8252C78.5829 47.6426 78.6611 47.4817 78.8177 47.3512C78.9743 47.2208 79.1786 47.1555 79.4309 47.1555C79.644 47.1555 79.8483 47.2077 80.0484 47.3034C80.2484 47.4034 80.3832 47.4817 80.4441 47.5426C80.505 47.6035 80.5528 47.6513 80.5876 47.6948L81.3878 46.8468L81.3095 46.7598C81.2617 46.6989 81.179 46.625 81.066 46.5424C80.9529 46.4597 80.8181 46.3771 80.6659 46.2988C80.5137 46.2206 80.318 46.151 80.0788 46.0901C79.844 46.0292 79.5961 46.0031 79.3395 46.0031C78.6959 46.0031 78.1697 46.1814 77.7653 46.538C77.3609 46.8946 77.1565 47.3251 77.1565 47.8296C77.1565 48.2384 77.2652 48.5732 77.4739 48.8428C77.687 49.1081 77.9436 49.2994 78.2437 49.4169C78.5437 49.5299 78.8438 49.6299 79.1482 49.7169C79.4526 49.8039 79.7092 49.9083 79.9179 50.0387C80.1267 50.1648 80.2354 50.3301 80.2354 50.5388Z" fill="white"/>
<path d="M87.4464 49.2516C87.4464 48.6776 87.6377 48.1905 88.0291 47.7948C88.4162 47.3991 88.8902 47.199 89.4468 47.199C90.0034 47.199 90.4774 47.3991 90.8645 47.7948C91.2559 48.1905 91.4472 48.6776 91.4472 49.2516C91.4472 49.8256 91.2559 50.3127 90.8645 50.7041C90.4774 51.0998 90.0034 51.2955 89.4468 51.2955C88.8902 51.2955 88.4162 51.0998 88.0291 50.7041C87.6377 50.3127 87.4464 49.8256 87.4464 49.2516ZM86.0635 49.2473C86.0635 50.1431 86.3897 50.9128 87.042 51.5477C87.6943 52.1826 88.4988 52.5001 89.4468 52.5001C90.3948 52.5001 91.1993 52.1826 91.8516 51.5477C92.5039 50.9128 92.8301 50.1431 92.8301 49.2473C92.8301 48.3514 92.5039 47.5861 91.8516 46.9511C91.1993 46.3162 90.3948 45.9988 89.4468 45.9988C88.4988 45.9988 87.6943 46.3162 87.042 46.9511C86.3897 47.5861 86.0635 48.3514 86.0635 49.2473Z" fill="white"/>
<path d="M97.645 52.3653H98.9844V50.1822H100.141L101.341 52.3653H102.768L101.433 50.0039L101.546 49.9431C101.624 49.9083 101.715 49.843 101.828 49.7474C101.937 49.6517 102.046 49.5386 102.15 49.4038C102.255 49.2734 102.346 49.0951 102.424 48.8776C102.502 48.6602 102.542 48.4297 102.542 48.1775C102.542 47.6035 102.342 47.1207 101.937 46.725C101.533 46.3293 101.02 46.1292 100.402 46.1292H97.6406L97.645 52.3653ZM101.207 48.1775C101.207 48.4036 101.128 48.595 100.967 48.7515C100.806 48.9081 100.602 48.982 100.359 48.982H98.98V47.3338H100.359C100.602 47.3338 100.806 47.4165 100.967 47.573C101.128 47.7339 101.207 47.934 101.207 48.1775Z" fill="white"/>
<path d="M107.887 46.1292H106.461L108.687 50.1387V52.3653H110.027V50.1387L112.253 46.1292H110.827L109.357 48.8037L107.887 46.1292Z" fill="white"/>
</svg>
