<svg width="55" height="12" viewBox="0 0 55 12" xmlns="http://www.w3.org/2000/svg">
<path d="M7.99779 10.7986L7.83675 11.9925H0.133789C0.452509 11.1665 0.432379 10.701 0.432379 10.1041V1.89705C0.432379 1.31888 0.452509 0.812047 0.133789 0.00861687H2.44199H7.64887L7.66229 1.22503C7.52138 1.1612 7.40732 1.10489 7.30331 1.05233C7.02485 0.935941 6.67258 0.827064 6.30689 0.830819C5.72313 0.830819 3.27402 0.830819 2.18702 0.830819V5.52375H7.0215L6.7833 6.44732H2.18702V11.144C3.07608 11.144 5.91772 11.144 6.54509 11.144C7.27983 11.159 8.01121 10.6935 8.01121 10.6935L7.99108 10.7949C7.99108 10.7986 7.99443 10.7986 7.99779 10.7986ZM19.5925 11.9925C19.6965 11.4031 19.6965 10.5696 19.6126 9.89006L18.9282 4.24352L15.1908 11.9887H14.4795L10.6817 3.89437L9.94366 10.014C9.86314 10.7198 9.83965 11.6133 9.90675 11.9925H8.57148C8.82981 11.3805 8.89356 11.114 9.01434 10.1078L10.2221 0.00861687H10.8361L15.268 9.43203L19.6965 0.00861687H20.1595L21.4075 10.0853C21.5316 11.0877 21.6256 11.3768 21.8739 11.9925H19.5925ZM30.8416 11.9925L29.0635 7.60366H25.4871L23.7325 11.9925H23.5815H22.3435H22.3368C22.7797 11.3768 22.9307 11.0914 23.2427 10.3256L27.3894 0.00861687H27.8557L31.9353 10.0365C32.3715 11.0164 32.5761 11.3205 33.2002 11.9925H30.8416ZM42.0304 11.9925L40.2523 7.60366H36.6759L34.9212 11.9925H34.7736H33.5323H33.5256C33.9684 11.3768 34.1194 11.0914 34.4314 10.3256L38.5781 0.00861687H39.0445L43.1274 10.0365C43.5636 11.0164 43.7682 11.3205 44.3923 11.9925H42.0304ZM52.169 12C51.0988 10.9075 49.7132 9.45831 47.9787 7.16065C47.4822 6.51115 47.1333 6.42855 46.9085 6.41353V10.1041C46.9085 10.6972 46.9085 11.1665 47.2104 11.9925H44.8552C45.174 11.1665 45.1538 10.701 45.1538 10.1041V1.88954C45.1538 1.31138 45.174 0.804538 44.8552 0.00110817H47.1635C48.7403 0.00110817 52.4676 -0.156575 52.4676 3.28992C52.4676 5.11077 51.176 6.09066 49.6595 6.33845L49.21 6.38725C49.21 6.38725 54.1283 11.7672 54.3397 12H52.169ZM49.3811 5.6514L49.3777 5.65515C50.3708 5.23467 50.7063 4.1797 50.6727 3.28616C50.6358 2.42642 50.2903 0.556751 46.9118 0.706925V5.81659C46.9118 5.81659 48.804 5.93298 49.3341 5.67393C49.3643 5.65891 49.3811 5.6514 49.3811 5.6514ZM37.0181 6.76644H39.9067L38.4506 3.18855L37.0181 6.76644ZM25.8327 6.76644H28.7213L27.2653 3.18855L25.8327 6.76644Z" fill="#F9F5E9"/>
</svg>
