<svg width="168" height="60" viewBox="0 0 168 60" xmlns="http://www.w3.org/2000/svg">
<path d="M58.4853 36.3981L58.2706 37.99H48C48.425 36.8887 48.3981 36.268 48.3981 35.4721V24.5294C48.3981 23.7585 48.425 23.0827 48 22.0115H51.0776H58.0201L58.038 23.6334C57.8501 23.5483 57.698 23.4732 57.5594 23.4031C57.1881 23.2479 56.7184 23.1028 56.2308 23.1078C55.4525 23.1078 52.187 23.1078 50.7376 23.1078V29.365H57.1836L56.866 30.5964H50.7376V36.8587C51.9231 36.8587 55.7119 36.8587 56.5484 36.8587C57.5281 36.8787 58.5032 36.258 58.5032 36.258L58.4764 36.3931C58.4764 36.3981 58.4809 36.3981 58.4853 36.3981ZM73.9449 37.99C74.0836 37.2041 74.0836 36.0928 73.9718 35.1867L73.0592 27.658L68.076 37.985H67.1277L62.0639 27.1925L61.0798 35.3519C60.9725 36.293 60.9412 37.4844 61.0306 37.99H59.2503C59.5947 37.174 59.6797 36.8186 59.8407 35.4771L61.4511 22.0115H62.2697L68.1789 34.576L74.0836 22.0115H74.7009L76.365 35.447C76.5305 36.7836 76.6557 37.169 76.9868 37.99H73.9449ZM88.9438 37.99L86.573 32.1382H81.8045L79.4649 37.99H79.2636H77.613H77.6041C78.1945 37.169 78.3958 36.7886 78.8118 35.7674L84.3408 22.0115H84.9626L90.4021 35.382C90.9836 36.6885 91.2565 37.094 92.0885 37.99H88.9438ZM103.862 37.99L101.491 32.1382H96.7228L94.3833 37.99H94.1865H92.5313H92.5224C93.1129 37.169 93.3142 36.7886 93.7302 35.7674L99.2591 22.0115H99.8809L105.325 35.382C105.906 36.6885 106.179 37.094 107.011 37.99H103.862ZM117.38 38C115.953 36.5433 114.106 34.6111 111.793 31.5475C111.131 30.6815 110.666 30.5714 110.366 30.5514V35.4721C110.366 36.263 110.366 36.8887 110.769 37.99H107.629C108.054 36.8887 108.027 36.268 108.027 35.4721V24.5194C108.027 23.7485 108.054 23.0727 107.629 22.0015H110.706C112.809 22.0015 117.778 21.7912 117.778 26.3866C117.778 28.8144 116.056 30.1209 114.034 30.4513L113.435 30.5163C113.435 30.5163 119.993 37.6896 120.275 38H117.38ZM113.663 29.5352L113.659 29.5402C114.983 28.9796 115.43 27.5729 115.385 26.3815C115.336 25.2352 114.875 22.7423 110.371 22.9426V29.7555C110.371 29.7555 112.894 29.9106 113.6 29.5652C113.641 29.5452 113.663 29.5352 113.663 29.5352ZM97.1791 31.0219H101.031L99.0891 26.2514L97.1791 31.0219ZM82.2652 31.0219H86.1167L84.1753 26.2514L82.2652 31.0219Z" fill="#F9F5E9"/>
</svg>
