<svg width="188" height="72" viewBox="0 0 188 72" xmlns="http://www.w3.org/2000/svg">
<path d="M65.7336 42.3981L65.4933 43.99H54C54.4756 42.8887 54.4455 42.268 54.4455 41.4721V30.5294C54.4455 29.7585 54.4756 29.0827 54 28.0115H57.444H65.213L65.233 29.6334C65.0228 29.5483 64.8526 29.4732 64.6974 29.4031C64.2819 29.2479 63.7563 29.1028 63.2107 29.1078C62.3397 29.1078 58.6854 29.1078 57.0635 29.1078V35.365H64.2769L63.9215 36.5964H57.0635V42.8587C58.3901 42.8587 62.63 42.8587 63.5661 42.8587C64.6623 42.8787 65.7536 42.258 65.7536 42.258L65.7236 42.3931C65.7236 42.3981 65.7286 42.3981 65.7336 42.3981ZM83.0336 43.99C83.1888 43.2041 83.1888 42.0928 83.0637 41.1867L82.0425 33.658L76.466 43.985H75.4048L69.7382 33.1925L68.6369 41.3519C68.5168 42.293 68.4818 43.4844 68.5819 43.99H66.5896C66.975 43.174 67.0701 42.8186 67.2503 41.4771L69.0524 28.0115H69.9685L76.5811 40.576L83.1888 28.0115H83.8796L85.7418 41.447C85.927 42.7836 86.0671 43.169 86.4376 43.99H83.0336ZM99.8181 43.99L97.165 38.1382H91.8288L89.2108 43.99H88.9855H87.1384H87.1284C87.7891 43.169 88.0144 42.7886 88.4799 41.7674L94.6671 28.0115H95.3629L101.45 41.382C102.101 42.6885 102.406 43.094 103.337 43.99H99.8181ZM116.512 43.99L113.859 38.1382H108.523L105.905 43.99H105.685H103.833H103.823C104.483 43.169 104.709 42.7886 105.174 41.7674L111.361 28.0115H112.057L118.149 41.382C118.8 42.6885 119.105 43.094 120.036 43.99H116.512ZM131.64 44C130.043 42.5433 127.976 40.6111 125.388 37.5475C124.647 36.6815 124.126 36.5714 123.791 36.5514V41.4721C123.791 42.263 123.791 42.8887 124.241 43.99H120.727C121.203 42.8887 121.173 42.268 121.173 41.4721V30.5194C121.173 29.7485 121.203 29.0727 120.727 28.0015H124.171C126.524 28.0015 132.085 27.7912 132.085 32.3866C132.085 34.8144 130.158 36.1209 127.896 36.4513L127.225 36.5163C127.225 36.5163 134.563 43.6896 134.879 44H131.64ZM127.48 35.5352L127.475 35.5402C128.957 34.9796 129.457 33.5729 129.407 32.3815C129.352 31.2352 128.837 28.7423 123.796 28.9426V35.7555C123.796 35.7555 126.619 35.9106 127.41 35.5652C127.455 35.5452 127.48 35.5352 127.48 35.5352ZM109.034 37.0219H113.344L111.171 32.2514L109.034 37.0219ZM92.3444 37.0219H96.6544L94.4819 32.2514L92.3444 37.0219Z" fill="#F9F5E9"/>
</svg>
