<svg width="168" height="60" viewBox="0 0 168 60" xmlns="http://www.w3.org/2000/svg">
<path fill-rule="evenodd" clip-rule="evenodd" d="M35.2181 21.2347C35.0981 21.3545 35 25.3282 35 30.0654V38.6778H36.3007H37.6018L37.6907 32.709L37.78 26.7401L41.4931 32.709L45.2062 38.6778H46.5253H47.8443L47.6896 30.3535C47.5257 21.55 47.4024 20.8802 45.9853 21.0827C45.3266 21.1765 45.2965 21.4022 45.1389 27.4728L44.9753 33.7657L41.7047 28.3143C39.9059 25.3158 38.0897 22.4475 37.6691 21.9396C36.9575 21.0807 35.7261 20.7265 35.2181 21.2347ZM56.1689 21.4254C55.7189 21.7646 50.0447 37.4837 50.0447 38.3907C50.0447 38.5486 50.6214 38.6778 51.3262 38.6778H52.6079L53.3042 36.5853L54.0005 34.4931L56.947 34.2599C58.5673 34.1317 59.9471 34.0807 60.0129 34.1464C60.0789 34.2121 60.4894 35.2218 60.925 36.39C61.7123 38.5002 61.7267 38.515 63.0764 38.6147C63.8238 38.6703 64.4354 38.6379 64.4354 38.5431C64.4354 37.885 58.7023 22.0439 58.2994 21.589C57.7032 20.9155 56.9241 20.8557 56.1689 21.4254ZM66.7248 29.8472V38.6778H68.0232H69.3217L69.4132 34.5078L69.5048 30.3378L71.9254 33.6084C75.1741 37.9982 76.1552 39.0059 77.173 39C79.1397 38.9882 79.0317 38.6072 75.8177 34.22C74.1216 31.9047 72.6259 29.8295 72.4941 29.6085C72.3443 29.3573 73.368 27.9084 75.213 25.759C76.8404 23.8633 78.1719 22.1649 78.1719 21.9844C78.1719 21.8042 77.799 21.4869 77.3434 21.2792C76.586 20.9342 76.3875 21.0261 75.0315 22.349C74.2154 23.1451 72.7319 24.7902 71.7344 26.0043C70.7372 27.2183 69.7907 28.2119 69.6314 28.2119C69.4718 28.2119 69.3413 26.7454 69.3413 24.9528C69.3413 22.0655 69.269 21.655 68.7087 21.3551C68.3607 21.169 67.772 21.0166 67.4005 21.0166C66.7343 21.0166 66.7248 21.1409 66.7248 29.8472ZM81.4425 29.8472V38.6778H82.7403H84.0384L84.1303 34.8349L84.2225 30.9919L87.7384 30.8974L91.2543 30.8026V34.7404V38.6778H92.5625H93.8708V30.3885C93.8708 22.7732 93.822 22.055 93.2726 21.5579C92.9435 21.2603 92.3548 21.0166 91.9643 21.0166C91.2788 21.0166 91.2543 21.1399 91.2543 24.6143V28.2119H87.6566H84.059V24.9528C84.059 22.0655 83.9867 21.655 83.4264 21.3551C83.0784 21.169 82.4897 21.0166 82.1182 21.0166C81.452 21.0166 81.4425 21.1409 81.4425 29.8472ZM122.87 21.2347C122.593 21.5111 122.588 34.6668 122.864 36.9608L123.07 38.6778H127.767C132.793 38.6778 132.975 38.6088 132.125 37.0209C131.828 36.4653 131.418 36.3884 128.742 36.3884H125.697L125.467 29.1257C125.329 24.7791 125.095 21.693 124.886 21.4398C124.516 20.994 123.24 20.8642 122.87 21.2347ZM96.8143 30.0107V38.6778H101.884H106.953V37.9256C106.953 36.5997 106.381 36.3884 102.786 36.3884H99.4043L99.4995 33.6902L99.5943 30.9919L102.312 30.8968L105.029 30.8012L104.928 29.5885L104.827 28.3754L102.129 28.2806L99.4308 28.1854V25.9094V23.6331H102.636C106.045 23.6331 106.626 23.4094 106.626 22.0959C106.626 21.3443 106.622 21.3437 101.72 21.3437H96.8143V30.0107ZM109.897 30.0107V38.6778H114.966H120.036V37.9256C120.036 36.6003 119.463 36.3884 115.882 36.3884H112.513V33.6215V30.8549L115.211 30.7597L117.91 30.6649V29.5202V28.3754L115.211 28.2806L112.513 28.1854V25.9094V23.6331H115.718C119.128 23.6331 119.708 23.4094 119.708 22.0959C119.708 21.3443 119.704 21.3437 114.803 21.3437H109.897V30.0107ZM58.353 28.4742C58.8201 29.9676 59.2024 31.3288 59.2024 31.4995C59.2024 31.6699 58.2458 31.8096 57.0765 31.8096C55.9073 31.8096 54.9506 31.6997 54.9506 31.5649C54.9506 30.7721 57.0311 25.2586 57.245 25.4849C57.3872 25.6357 57.886 26.9809 58.353 28.4742Z" fill="#F9F5E9"/>
</svg>
