<svg width="83" height="10" viewBox="0 0 83 10" xmlns="http://www.w3.org/2000/svg">
<path fill-rule="evenodd" clip-rule="evenodd" d="M31.4055 0.897204C31.4055 1.878 31.4556 2.04875 31.8551 2.42852L32.09 2.65191V6.28857V9.92522H32.7746H33.4591V6.97828V4.03133L36.4068 6.97828C38.028 8.59912 39.3971 9.92522 39.4492 9.92522C39.5237 9.92522 39.5439 8.93713 39.5439 5.28556V0.645902H38.8974H38.2509V3.6883C38.2509 5.36162 38.2253 6.7307 38.1941 6.7307C38.163 6.7307 36.6227 5.21627 34.7714 3.36535L31.4055 0V0.897204ZM46.2372 0.690244C45.0915 0.992507 44.08 1.79471 43.5928 2.7876C42.8287 4.34455 42.8432 6.318 43.6297 7.81836C44.3785 9.24692 45.734 9.99641 47.5751 9.99999C48.718 10.0021 49.6468 9.70472 50.4775 9.07061L50.8768 8.76584V7.10172V5.43768H49.2416H47.6063V6.00813V6.57858H48.557H49.5078V7.40969V8.24087L49.1084 8.42684C48.5033 8.70879 47.9639 8.80988 47.3104 8.76386C45.9349 8.66704 45.0383 7.93656 44.6001 6.55561C44.2733 5.52606 44.3638 4.30416 44.8359 3.37265C45.4382 2.18399 46.7097 1.55406 48.0436 1.78345C48.6373 1.88553 49.2466 2.14398 49.6536 2.4664L49.9386 2.69207L50.3316 2.29412C50.5479 2.07522 50.7247 1.86043 50.7247 1.81685C50.7247 1.71302 50.0011 1.12523 49.6553 0.948241C48.9213 0.57258 47.181 0.441224 46.2372 0.690244ZM65.4534 0.690321C63.9967 1.04293 62.8829 2.18962 62.428 3.80505C62.2092 4.58216 62.1927 5.90849 62.3926 6.65464C62.6264 7.52713 63.0201 8.24042 63.5716 8.79033C64.41 9.62661 65.4048 9.99725 66.8183 9.99999C69.4744 10.005 71.1922 8.2913 71.3171 5.51184C71.3499 4.78052 71.3297 4.52831 71.195 3.99064C70.7496 2.21274 69.7037 1.09306 68.1075 0.685605C67.536 0.539646 66.0648 0.542308 65.4534 0.690321ZM0.677246 5.2864V9.92697L3.70063 9.90704L6.72402 9.88719L6.74623 9.29773L6.76843 8.70826H4.40738H2.04633V7.33918V5.9701H3.87177H5.69721V5.36162V4.75314H3.87177H2.04633V3.308V1.86286H4.40419H6.76205V1.25438V0.645902H3.71965H0.677246V5.2864ZM10.1847 5.28556V9.92522H12.6187H15.0526V9.31674V8.70826H13.3032H11.5538V4.67708V0.645902H10.8693H10.1847V5.28556ZM18.4753 5.28556V9.92522H20.9092H23.3431V9.31674V8.70826H21.5937H19.8444V4.67708V0.645902H19.1598H18.4753V5.28556ZM26.7842 5.26655L26.8039 9.88719L27.4694 9.90917L28.1349 9.93115V5.28853V0.645902H27.4498H26.7647L26.7842 5.26655ZM53.4629 1.25438V1.86286H54.7939H56.125V5.89404V9.92522H56.8095H57.4941V5.89404V1.86286H58.8251H60.1562V1.25438V0.645902H56.8095H53.4629V1.25438ZM80.9205 3.68534C80.9205 5.36025 80.8951 6.7307 80.8639 6.7307C80.8327 6.7307 79.4651 5.389 77.8249 3.74915C75.8092 1.73402 74.829 0.803346 74.8005 0.877885C74.7773 0.938581 74.7671 2.99045 74.7779 5.43768L74.7977 9.88719L75.4632 9.90917L76.1288 9.93115V6.99988C76.1288 5.38771 76.1542 4.0686 76.1854 4.0686C76.2166 4.0686 77.5678 5.39395 79.1881 7.01387C81.2103 9.03555 82.1586 9.9345 82.2124 9.88073C82.265 9.82817 82.2844 8.29693 82.2712 5.24312L82.2516 0.683932L81.5861 0.66195L80.9205 0.639969V3.68534ZM67.8956 1.90918C69.36 2.3822 70.2647 4.32462 69.8625 6.13241C69.5987 7.31796 69.05 8.09613 68.1758 8.52488C67.7533 8.73199 67.6653 8.74629 66.8114 8.74629C65.9662 8.74629 65.8636 8.73009 65.4245 8.52724C63.4384 7.60988 62.9799 4.26233 64.6106 2.58437C65.3713 1.80171 66.7105 1.52645 67.8956 1.90918Z" fill="#F9F5E9"/>
</svg>
