<svg width="188" height="72" viewBox="0 0 188 72" xmlns="http://www.w3.org/2000/svg">
<path fill-rule="evenodd" clip-rule="evenodd" d="M45.2181 27.2347C45.0981 27.3545 45 31.3282 45 36.0654V44.6778H46.3007H47.6018L47.6907 38.709L47.78 32.7401L51.4931 38.709L55.2062 44.6778H56.5253H57.8443L57.6896 36.3535C57.5257 27.55 57.4024 26.8802 55.9853 27.0827C55.3266 27.1765 55.2965 27.4022 55.1389 33.4728L54.9753 39.7657L51.7047 34.3143C49.9059 31.3158 48.0897 28.4475 47.6691 27.9396C46.9575 27.0807 45.7261 26.7265 45.2181 27.2347ZM66.1689 27.4254C65.7189 27.7646 60.0447 43.4837 60.0447 44.3907C60.0447 44.5486 60.6214 44.6778 61.3262 44.6778H62.6079L63.3042 42.5853L64.0005 40.4931L66.947 40.2599C68.5673 40.1317 69.9471 40.0807 70.0129 40.1464C70.0789 40.2121 70.4894 41.2218 70.925 42.39C71.7123 44.5002 71.7267 44.515 73.0764 44.6147C73.8238 44.6703 74.4354 44.6379 74.4354 44.5431C74.4354 43.885 68.7023 28.0439 68.2994 27.589C67.7032 26.9155 66.9241 26.8557 66.1689 27.4254ZM76.7248 35.8472V44.6778H78.0232H79.3217L79.4132 40.5078L79.5048 36.3378L81.9254 39.6084C85.1741 43.9982 86.1552 45.0059 87.173 45C89.1397 44.9882 89.0317 44.6072 85.8177 40.22C84.1216 37.9047 82.6259 35.8295 82.4941 35.6085C82.3443 35.3573 83.368 33.9084 85.213 31.759C86.8404 29.8633 88.1719 28.1649 88.1719 27.9844C88.1719 27.8042 87.799 27.4869 87.3434 27.2792C86.586 26.9342 86.3875 27.0261 85.0315 28.349C84.2154 29.1451 82.7319 30.7902 81.7344 32.0043C80.7372 33.2183 79.7907 34.2119 79.6314 34.2119C79.4718 34.2119 79.3413 32.7454 79.3413 30.9528C79.3413 28.0655 79.269 27.655 78.7087 27.3551C78.3607 27.169 77.772 27.0166 77.4005 27.0166C76.7343 27.0166 76.7248 27.1409 76.7248 35.8472ZM91.4425 35.8472V44.6778H92.7403H94.0384L94.1303 40.8349L94.2225 36.9919L97.7384 36.8974L101.254 36.8026V40.7404V44.6778H102.563H103.871V36.3885C103.871 28.7732 103.822 28.055 103.273 27.5579C102.944 27.2603 102.355 27.0166 101.964 27.0166C101.279 27.0166 101.254 27.1399 101.254 30.6143V34.2119H97.6566H94.059V30.9528C94.059 28.0655 93.9867 27.655 93.4264 27.3551C93.0784 27.169 92.4897 27.0166 92.1182 27.0166C91.452 27.0166 91.4425 27.1409 91.4425 35.8472ZM132.87 27.2347C132.593 27.5111 132.588 40.6668 132.864 42.9608L133.07 44.6778H137.767C142.793 44.6778 142.975 44.6088 142.125 43.0209C141.828 42.4653 141.418 42.3884 138.742 42.3884H135.697L135.467 35.1257C135.329 30.7791 135.095 27.693 134.886 27.4398C134.516 26.994 133.24 26.8642 132.87 27.2347ZM106.814 36.0107V44.6778H111.884H116.953V43.9256C116.953 42.5997 116.381 42.3884 112.786 42.3884H109.404L109.499 39.6902L109.594 36.9919L112.312 36.8968L115.029 36.8012L114.928 35.5885L114.827 34.3754L112.129 34.2806L109.431 34.1854V31.9094V29.6331H112.636C116.045 29.6331 116.626 29.4094 116.626 28.0959C116.626 27.3443 116.622 27.3437 111.72 27.3437H106.814V36.0107ZM119.897 36.0107V44.6778H124.966H130.036V43.9256C130.036 42.6003 129.463 42.3884 125.882 42.3884H122.513V39.6215V36.8549L125.211 36.7597L127.91 36.6649V35.5202V34.3754L125.211 34.2806L122.513 34.1854V31.9094V29.6331H125.718C129.128 29.6331 129.708 29.4094 129.708 28.0959C129.708 27.3443 129.704 27.3437 124.803 27.3437H119.897V36.0107ZM68.353 34.4742C68.8201 35.9676 69.2024 37.3288 69.2024 37.4995C69.2024 37.6699 68.2458 37.8096 67.0765 37.8096C65.9073 37.8096 64.9506 37.6997 64.9506 37.5649C64.9506 36.7721 67.0311 31.2586 67.245 31.4849C67.3872 31.6357 67.886 32.9809 68.353 34.4742Z" fill="#F9F5E9"/>
</svg>
