<svg width="102" height="18" viewBox="0 0 102 18" xmlns="http://www.w3.org/2000/svg">
<path fill-rule="evenodd" clip-rule="evenodd" d="M6.82624 0.142141C3.54487 1.0997 1.28259 3.27029 0.537964 6.17555C0.275391 7.20014 0.275391 7.19985 0.275391 12.8594V17.9608H1.98597H3.69654L3.69658 12.9614C3.69658 9.84326 3.71243 7.79351 3.73861 7.51407C4.0446 4.2516 6.33001 1.40605 9.64283 0.16279L10.0705 0.00228077L8.68572 0.00293242L7.30097 0.00358406L6.82624 0.142141ZM10.7832 0.103368C10.3168 0.258419 9.21779 0.822543 8.81234 1.11505C7.12759 2.33054 6.06239 4.11308 5.62127 6.45514L5.51387 7.02533L5.49981 12.4931L5.48576 17.9608H7.19777H8.90973V13.0754C8.90973 9.63995 8.92321 8.12605 8.95514 7.97426C8.9801 7.85558 9.04743 7.65825 9.10481 7.53578C9.22129 7.28705 9.66323 6.80267 9.7174 6.86434C10.1033 7.30338 11.0369 8.349 11.0431 8.349C11.0476 8.349 11.352 8.00965 11.7194 7.59487L12.3876 6.84076L12.5616 7.01161C12.7705 7.21655 12.9974 7.63666 13.0595 7.93353C13.0912 8.08475 13.1047 9.61832 13.1047 13.0551V17.9608H14.8153H16.5259V12.9159C16.5259 8.54486 16.5174 7.82263 16.4628 7.50939C16.1004 5.43096 14.4173 3.76416 12.2069 3.29469C11.8667 3.22244 11.6419 3.20375 11.0887 3.20171C10.3716 3.1991 10.0201 3.24484 9.36429 3.42604C9.19987 3.47149 9.05692 3.5002 9.04661 3.4899C9.00426 3.44754 9.60951 3.03684 9.98902 2.85043C10.7132 2.49467 11.3635 2.37554 12.3512 2.41757C12.7043 2.4326 13.1225 2.47765 13.342 2.52432C15.6192 3.00837 17.4249 4.55482 18.0706 6.57391C18.3401 7.41685 18.3318 7.23455 18.3565 12.8494L18.379 17.9404L20.1015 17.9511L21.824 17.9617L21.8096 12.7582C21.7968 8.11627 21.7878 7.50865 21.7265 7.12715C21.4336 5.30576 20.7207 3.84542 19.5223 2.61225C18.7954 1.86424 18.0353 1.31747 17.0757 0.852274C16.3778 0.513987 15.8921 0.332707 15.1783 0.144259L14.632 0L12.8603 0.000936744L11.0887 0.00183276L10.7832 0.103368ZM58.0684 4.09292V4.60202H58.5164H58.9644V4.09292V3.58382H58.5164H58.0684V4.09292ZM45.4427 6.63842V9.00064H42.5203H39.5978L39.625 8.64427C39.64 8.44829 39.6539 7.75184 39.6558 7.09661L39.6594 5.90531H39.2114H38.7633L38.7602 7.19843C38.7567 8.64688 38.7409 8.76067 38.5221 8.90811L38.3847 9.00064H36.6876C34.8137 9.00064 34.7496 8.99356 34.3792 8.74573C34.143 8.58766 33.9313 8.25666 33.894 7.987C33.7881 7.2216 33.63 6.80455 33.32 6.47315C33.0895 6.22674 32.8636 6.08684 32.5269 5.98205C32.3022 5.91212 32.1315 5.90531 30.6023 5.90531C28.788 5.90531 28.6764 5.91607 28.2505 6.13184C27.8305 6.34469 27.5184 6.79559 27.3751 7.39665C27.3204 7.6262 27.305 7.99242 27.2898 9.41811L27.2712 11.1592H27.743H28.2148V9.55601C28.2148 8.66162 28.2327 7.85826 28.2554 7.73889C28.353 7.22401 28.6784 6.77596 29.0243 6.67984C29.1055 6.65732 29.4154 6.63879 29.713 6.63866L30.2541 6.63842L30.1498 6.79115C29.9031 7.15224 29.8044 7.94204 29.9416 8.45749C30.1711 9.31946 30.8807 9.81683 31.8776 9.81459C32.4378 9.81333 32.9226 9.62496 33.2685 9.27417L33.4606 9.07929L33.6879 9.30663C33.8151 9.43383 34.0127 9.57857 34.1365 9.63523C34.643 9.86709 33.9542 9.85446 46.1197 9.85524L57.3249 9.85593L57.7105 9.7581C57.9225 9.70434 58.1889 9.61327 58.3023 9.55577L58.5086 9.45126L58.7467 9.5701C59.3041 9.84831 59.0465 9.83341 63.5117 9.84624L67.5499 9.85784L67.7882 9.76955C68.1021 9.65323 68.3692 9.38731 68.4991 9.06174L68.5966 8.81737L68.6084 6.54678L68.6202 4.2762H68.1725H67.7249L67.7128 6.44496L67.7006 8.61373L67.6038 8.76943C67.5505 8.85504 67.4623 8.94212 67.4077 8.96289C67.2721 9.01441 59.6563 9.01205 59.5754 8.96044C59.5241 8.92774 59.5306 8.91055 59.6161 8.85341C59.8402 8.70353 60.226 8.25915 60.3491 8.00912C60.4214 7.8623 60.497 7.62172 60.5224 7.45819C60.6709 6.49889 60.0975 5.65394 59.122 5.3943C58.8681 5.32669 58.1718 5.31798 57.9066 5.37907C57.4199 5.49123 56.8829 5.8755 56.6724 6.26234C56.4213 6.72378 56.3766 7.34265 56.5597 7.82495C56.6826 8.14878 56.9755 8.55145 57.2208 8.734C57.3398 8.82258 57.4458 8.90147 57.4563 8.90933C57.556 8.98362 57.0098 8.99946 54.3316 9.00003L51.3076 9.00064V8.74503C51.3076 7.76381 51.0415 6.93598 50.5766 6.47115C50.1792 6.07368 49.7141 5.90531 49.0138 5.90531C48.0647 5.90531 47.1261 6.43938 46.4471 7.36582C46.3427 7.50829 46.2576 7.59993 46.258 7.56946C46.2584 7.539 46.2947 6.82679 46.3388 5.98677C46.3828 5.14676 46.4191 4.41821 46.4195 4.36783C46.4202 4.27786 46.4114 4.2762 45.9315 4.2762H45.4427V6.63842ZM70.1239 7.06606V9.85593H70.5719H71.0199V7.06606V4.2762H70.5719H70.1239V7.06606ZM87.727 6.54678L87.7388 8.81737L87.8442 9.04206C87.9609 9.29091 88.2794 9.64195 88.495 9.75945C88.6288 9.83231 88.8298 9.83601 93.2137 9.84644L97.7927 9.85732L98.0214 10.0755C98.1472 10.1956 98.3267 10.3328 98.4202 10.3805C98.9855 10.6689 99.8392 10.658 100.395 10.3555C100.665 10.2088 101.001 9.83593 101.166 9.50135L101.301 9.22636V8.573C101.301 7.91997 101.301 7.91952 101.171 7.65576C101.024 7.35886 100.659 6.96094 100.421 6.83998C100.155 6.70411 99.8179 6.63842 99.387 6.63842C98.4974 6.63842 97.9702 6.93223 97.6247 7.62062C97.4321 8.00431 97.3558 8.3505 97.3857 8.70537L97.4106 9.00064H93.2583C88.6646 9.00064 88.9186 9.01526 88.7528 8.74141C88.6799 8.62094 88.6749 8.49134 88.664 6.44496L88.6524 4.2762H88.1838H87.7152L87.727 6.54678ZM74.4003 6.28062V6.66742L74.7203 6.69413C75.847 6.78809 76.424 7.35837 76.6212 8.573C76.654 8.7746 76.6809 8.95332 76.6809 8.9701C76.681 8.98688 75.9022 9.00064 74.9502 9.00064H73.2192V9.42829V9.85593H80.0053H86.7913L86.7702 9.07192C86.7552 8.51402 86.7293 8.21785 86.6804 8.045C86.3952 7.03731 85.7235 6.38436 84.6842 6.10456C84.2382 5.98453 83.363 5.97394 82.8921 6.08293C82.4732 6.17986 82.037 6.38114 81.7414 6.6139C81.4761 6.82288 81.3915 6.93708 81.4246 7.04159C81.4468 7.11147 82.1317 7.72121 82.1547 7.69165C82.161 7.68358 82.2239 7.59158 82.2944 7.48719C82.6044 7.02835 82.9783 6.84157 83.6456 6.81212C84.9334 6.75527 85.6476 7.38431 85.7489 8.66464L85.7755 9.00064H81.6819H77.5883L77.5611 8.76866C77.4124 7.50381 76.8939 6.62661 76.051 6.21395C75.6555 6.02037 75.3498 5.94572 74.8382 5.91774L74.4003 5.89379V6.28062ZM59.0329 6.2302C59.2895 6.34371 59.365 6.41629 59.4789 6.65878C59.6579 7.03992 59.5804 7.48788 59.2632 7.90526C59.0862 8.13802 58.6786 8.43045 58.531 8.43045C58.3753 8.43045 57.9753 8.20779 57.8178 8.03347C57.7387 7.94587 57.6213 7.76658 57.557 7.63507C57.2444 6.99634 57.4887 6.33658 58.1019 6.16316C58.3555 6.09144 58.7899 6.12272 59.0329 6.2302ZM49.4977 6.75111C49.8337 6.92335 50.0963 7.29243 50.2326 7.78414C50.266 7.90441 50.3042 8.2273 50.3176 8.50173L50.3419 9.00064H48.3376H46.3333L46.3616 8.90901C46.4103 8.75196 46.5874 8.42055 46.7588 8.16572C47.2476 7.43909 47.8585 6.94025 48.5381 6.71287C48.8313 6.61476 49.2655 6.63207 49.4977 6.75111ZM32.3476 6.81888C32.609 6.97206 32.7465 7.27178 32.7687 7.73677C32.7967 8.32122 32.68 8.68512 32.3975 8.89438C32.2613 8.99531 31.7531 9.03644 31.5168 8.96562C31.3254 8.90827 31.1157 8.70312 31.0115 8.47118C30.8962 8.21451 30.8722 7.7013 30.9612 7.39523C31.1394 6.78235 31.8097 6.50369 32.3476 6.81888ZM99.8057 7.43477C100.191 7.59569 100.326 7.89431 100.32 8.573C100.315 9.10629 100.22 9.41114 99.9983 9.6057C99.7483 9.82522 99.215 9.86733 98.9243 9.69053C98.5953 9.49044 98.3554 8.92701 98.4035 8.46702C98.4547 7.97707 98.7619 7.51326 99.1002 7.41486C99.2998 7.35686 99.6423 7.36651 99.8057 7.43477ZM83.4509 11.088L83.4623 11.5869L83.9205 11.5984L84.3787 11.6099V11.0995V10.589H83.9091H83.4394L83.4509 11.088ZM37.175 11.1185V11.6072H37.623H38.071V11.1185V10.6298H37.623H37.175V11.1185ZM38.7226 11.1198V11.6098L39.2012 11.5984L39.6797 11.5869L39.6912 11.1083L39.7027 10.6298H39.2127H38.7226V11.1198ZM27.2781 15.5782V17.9608H27.7052H28.1324L28.143 16.3632L28.1537 14.7655L28.9035 16.3646L29.6534 17.9638L29.9954 17.9521L30.3374 17.9404L31.0783 16.382L31.8192 14.8236L31.8299 16.3922L31.8405 17.9608H32.227H32.6134V15.5769V13.1931L32.1352 13.2045L31.657 13.216L30.836 14.9469C30.3844 15.8989 30.0035 16.6779 29.9896 16.6779C29.9757 16.6779 29.5936 15.8947 29.1405 14.9375L28.3166 13.1971L27.7973 13.1964L27.2781 13.1956V15.5782ZM34.8734 15.5477C34.2945 16.8413 33.8138 17.9134 33.8052 17.9303C33.7967 17.9471 34.0074 17.9608 34.2735 17.9608H34.7573L35.5452 16.1586C35.9786 15.1674 36.3455 14.3419 36.3606 14.3242C36.3756 14.3066 36.5338 14.6273 36.712 15.037L37.0361 15.7819L36.6198 15.7934L36.2036 15.8049L36.0784 16.1329C36.0095 16.3132 35.9531 16.4772 35.9531 16.4971C35.9531 16.5171 36.2762 16.5385 36.6712 16.5446L37.3892 16.5557L37.6948 17.2582L38.0006 17.9608H38.5085C38.9754 17.9608 39.0142 17.9551 38.9893 17.8895C38.9744 17.8503 38.4835 16.7781 37.8984 15.5069L36.8347 13.1956H36.3804H35.9261L34.8734 15.5477ZM40.6368 14.9571C40.6367 16.5536 40.63 16.7317 40.5655 16.8583C40.4551 17.0747 40.3204 17.1486 39.9502 17.1959L39.6186 17.2382V17.5995V17.9608L39.8325 17.9594C40.4097 17.9555 41.0393 17.7357 41.2767 17.4551C41.3352 17.386 41.4304 17.2287 41.4885 17.1055L41.5939 16.8815L41.6064 15.0386L41.6189 13.1956H41.1279H40.6368L40.6368 14.9571ZM43.3656 15.5782V17.9608H43.834H44.3024V15.5782V13.1956H43.834H43.3656V15.5782ZM46.0635 15.5643L46.074 17.9404H47.2959C48.3318 17.9404 48.5655 17.9292 48.8316 17.8668C49.9467 17.6051 50.4971 16.8148 50.499 15.4725C50.5007 14.2804 50.0657 13.6336 49.0538 13.324C48.7345 13.2263 48.6686 13.2216 47.3872 13.2052L46.053 13.1881L46.0635 15.5643ZM56.0101 13.4094C55.9537 13.527 55.461 14.5946 54.9152 15.7819L53.9229 17.9404L54.3938 17.952C54.7299 17.9602 54.8735 17.9494 54.8953 17.9141C54.9122 17.8869 55.2784 17.0607 55.7093 16.0781C56.1402 15.0956 56.5064 14.3062 56.5231 14.324C56.5515 14.3543 57.2131 15.7584 57.2131 15.7885C57.2131 15.796 57.0147 15.8022 56.7721 15.8022H56.3311L56.2019 16.1423C56.1309 16.3294 56.0727 16.4943 56.0727 16.5088C56.0727 16.5234 56.3946 16.5353 56.7879 16.5353H57.5031L57.845 17.2481L58.1869 17.9608H58.6571C58.9157 17.9608 59.1273 17.9471 59.1274 17.9303C59.1274 17.9134 58.6395 16.8413 58.0433 15.5477L56.9593 13.1956H56.5359H56.1126L56.0101 13.4094ZM60.3085 15.5782V17.9608H62.019H63.7296V17.5948V17.2289L62.4772 17.2181L61.2248 17.2073L61.2143 15.2015L61.2037 13.1956H60.7561H60.3085V15.5782ZM67.558 15.5782V17.9608H68.0061H68.4541V16.9426V15.9244H69.6555H70.857V15.5578V15.1913H69.6555H68.4541V14.56V13.9287H69.7166H70.9792V13.5622V13.1956H69.2686H67.558V15.5782ZM72.2016 14.7942C72.2021 16.0621 72.2147 16.4457 72.2626 16.6486C72.4105 17.2762 72.7549 17.6415 73.408 17.8635C73.8246 18.0051 74.586 18.0434 75.045 17.9459C75.8094 17.7833 76.277 17.3626 76.4558 16.6764C76.5068 16.4805 76.5182 16.1407 76.5182 14.8162V13.1956H76.0723H75.6265L75.6141 14.8349C75.6023 16.4078 75.5983 16.4816 75.5153 16.6575C75.3425 17.0236 75.0403 17.208 74.5347 17.2559C74.2461 17.2833 73.8422 17.2156 73.6213 17.1028C73.4404 17.0105 73.2515 16.7902 73.1774 16.5846C73.1363 16.4709 73.119 16.0329 73.1074 14.8146L73.092 13.1956H72.6465H72.201L72.2016 14.7942ZM77.74 13.5622V13.9287H78.5342H79.3284V15.9448V17.9608H79.7764H80.2244V15.9448V13.9287H80.9779H81.7314V13.5622V13.1956H79.7357H77.74V13.5622ZM82.6274 13.5622V13.9287H83.3809H84.1343V15.9461V17.9635L84.5925 17.952L85.0507 17.9404L85.0613 15.9346L85.0719 13.9287H85.8249H86.578V13.5622V13.1956H84.6027H82.6274V13.5622ZM88.9856 13.2685C88.9494 13.3361 87.2263 17.0761 86.941 17.7063L86.8258 17.9608H87.307H87.7881L88.5947 16.1265C89.0384 15.1175 89.4149 14.3066 89.4315 14.3242C89.4598 14.3543 90.1213 15.7586 90.1213 15.7885C90.1213 15.796 89.9234 15.8022 89.6814 15.8022H89.2414L89.1554 16.0771C89.108 16.2283 89.0574 16.3933 89.0428 16.4437L89.0162 16.5353H89.7445H90.4727L90.7778 17.2379L91.0829 17.9404L91.5592 17.9519C91.8212 17.9582 92.0356 17.948 92.0356 17.9292C92.0356 17.9103 91.5634 16.8422 90.9863 15.5555L89.9369 13.216L89.4815 13.2045C89.0728 13.1942 89.0218 13.2008 88.9856 13.2685ZM93.3389 15.5782V17.9608H93.7869H94.2349V15.5782V13.1956H93.7869H93.3389V15.5782ZM96.0269 15.577V17.9608H96.4546H96.8822L96.8825 16.3622L96.8828 14.7637L97.6287 16.352L98.3746 17.9404L98.7178 17.9518L99.0611 17.9633L99.7835 16.3838L100.506 14.8044L100.506 16.3841L100.507 17.9637L100.904 17.9521L101.301 17.9404L101.312 15.5668L101.322 13.1931L100.825 13.2045L100.327 13.216L99.5329 14.9569C99.0963 15.9145 98.7248 16.6836 98.7073 16.6661C98.6898 16.6487 98.3112 15.8652 97.8659 14.9252L97.0562 13.216L96.5415 13.2046L96.0269 13.1932V15.577ZM48.7328 14.0415C49.3358 14.2373 49.5978 14.6721 49.5964 15.4748C49.5953 16.1042 49.4179 16.607 49.1014 16.8779C48.8244 17.115 48.5184 17.1886 47.693 17.2164L46.9904 17.24V15.5794V13.9188L47.7337 13.9386C48.3321 13.9546 48.5268 13.9747 48.7328 14.0415Z" fill="#F9F5E9"/>
</svg>
