<svg width="168" height="60" viewBox="0 0 168 60" xmlns="http://www.w3.org/2000/svg">
<path fill-rule="evenodd" clip-rule="evenodd" d="M30.0066 19.1737C25.996 20.3441 23.231 22.997 22.3209 26.5479C22 27.8002 22 27.7998 22 34.717V40.9521H24.0907H26.1814L26.1815 34.8418C26.1815 31.0307 26.2008 28.5254 26.2328 28.1839C26.6068 24.1964 29.4001 20.7185 33.4491 19.199L33.9718 19.0028L32.2793 19.0036L30.5868 19.0044L30.0066 19.1737ZM34.8429 19.1263C34.2728 19.3158 32.9296 20.0053 32.4341 20.3628C30.3749 21.8484 29.073 24.0271 28.5338 26.8896L28.4026 27.5865L28.3854 34.2693L28.3682 40.9521H30.4607H32.5531V34.9811C32.5531 30.7822 32.5696 28.9318 32.6086 28.7463C32.6391 28.6013 32.7214 28.3601 32.7915 28.2104C32.9339 27.9064 33.474 27.3144 33.5402 27.3897C34.0119 27.9264 35.153 29.2043 35.1605 29.2043C35.166 29.2043 35.5381 28.7896 35.9872 28.2826L36.8038 27.3609L37.0165 27.5697C37.2718 27.8202 37.5491 28.3337 37.625 28.6965C37.6638 28.8814 37.6803 30.7557 37.6803 34.9562V40.9521H39.771H41.8617V34.7861C41.8617 29.4437 41.8514 28.561 41.7846 28.1781C41.3416 25.6378 39.2845 23.6006 36.583 23.0268C36.1671 22.9385 35.8924 22.9157 35.2162 22.9132C34.3398 22.91 33.9102 22.9659 33.1087 23.1874C32.9077 23.2429 32.733 23.278 32.7204 23.2654C32.6686 23.2137 33.4084 22.7117 33.8722 22.4839C34.7573 22.049 35.5521 21.9034 36.7594 21.9548C37.1909 21.9732 37.702 22.0282 37.9703 22.0853C40.7535 22.6769 42.9605 24.567 43.7497 27.0348C44.0791 28.065 44.069 27.8422 44.0992 34.7049L44.1266 40.9272L46.2319 40.9402L48.3371 40.9532L48.3196 34.5934C48.3039 28.9199 48.2929 28.1772 48.218 27.711C47.86 25.4848 46.9887 23.7 45.524 22.1928C44.6356 21.2785 43.7066 20.6102 42.5337 20.0417C41.6807 19.6282 41.087 19.4066 40.2147 19.1763L39.547 19L37.3816 19.0011L35.2162 19.0022L34.8429 19.1263ZM92.6359 24.0025V24.6247H93.1835H93.731V24.0025V23.3802H93.1835H92.6359V24.0025ZM77.2045 27.1136V30.0008H73.6326H70.0607L70.094 29.5652C70.1123 29.3257 70.1292 28.4745 70.1316 27.6736L70.136 26.2176H69.5884H69.0408L69.037 27.7981C69.0327 29.5684 69.0134 29.7075 68.7459 29.8877L68.5781 30.0008H66.5038C64.2135 30.0008 64.1351 29.9921 63.6824 29.6892C63.3937 29.496 63.135 29.0915 63.0894 28.7619C62.96 27.8264 62.7667 27.3167 62.3879 26.9116C62.1062 26.6105 61.83 26.4395 61.4185 26.3114C61.1439 26.2259 60.9353 26.2176 59.0662 26.2176C56.8487 26.2176 56.7123 26.2307 56.1918 26.4945C55.6785 26.7546 55.297 27.3057 55.1219 28.0404C55.055 28.3209 55.0362 28.7685 55.0176 30.511L54.9949 32.6391H55.5716H56.1482V30.6796C56.1482 29.5864 56.1701 28.6045 56.1977 28.4586C56.3171 27.8293 56.7147 27.2817 57.1376 27.1642C57.2368 27.1367 57.6156 27.1141 57.9793 27.1139L58.6407 27.1136L58.5131 27.3003C58.2116 27.7416 58.091 28.7069 58.2587 29.3369C58.5392 30.3905 59.4065 30.9983 60.625 30.9956C61.3096 30.9941 61.9022 30.7638 62.3249 30.3351L62.5597 30.0969L62.8375 30.3748C62.993 30.5302 63.2345 30.7071 63.3858 30.7764C64.0048 31.0598 63.163 31.0443 78.0319 31.0453L91.7271 31.0461L92.1984 30.9266C92.4576 30.8609 92.7831 30.7496 92.9218 30.6793L93.1739 30.5515L93.4649 30.6968C94.1461 31.0368 93.8314 31.0186 99.2888 31.0343L104.224 31.0485L104.516 30.9406C104.899 30.7984 105.226 30.4734 105.385 30.0755L105.504 29.7768L105.518 27.0016L105.533 24.2265H104.985H104.438L104.423 26.8772L104.409 29.5279L104.29 29.7182C104.225 29.8228 104.117 29.9293 104.051 29.9546C103.885 30.0176 94.5766 30.0147 94.4777 29.9517C94.4151 29.9117 94.423 29.8907 94.5275 29.8208C94.8014 29.6376 95.273 29.0945 95.4234 28.7889C95.5118 28.6095 95.6042 28.3154 95.6352 28.1156C95.8167 26.9431 95.1159 25.9104 93.9236 25.593C93.6133 25.5104 92.7622 25.4997 92.4382 25.5744C91.8433 25.7115 91.187 26.1812 90.9297 26.654C90.6227 27.218 90.5682 27.9743 90.792 28.5638C90.9422 28.9596 91.3001 29.4518 91.5999 29.6749C91.7453 29.7832 91.8749 29.8796 91.8878 29.8892C92.0096 29.98 91.3421 29.9993 88.0687 30L84.3727 30.0008V29.6884C84.3727 28.4891 84.0474 27.4773 83.4793 26.9092C82.9935 26.4234 82.4251 26.2176 81.5692 26.2176C80.4092 26.2176 79.262 26.8704 78.4321 28.0027C78.3045 28.1768 78.2005 28.2888 78.2009 28.2516C78.2014 28.2143 78.2458 27.3438 78.2997 26.3172C78.3535 25.2905 78.3979 24.4 78.3984 24.3385C78.3992 24.2285 78.3884 24.2265 77.8019 24.2265H77.2045V27.1136ZM107.37 27.6363V31.0461H107.918H108.466V27.6363V24.2265H107.918H107.37V27.6363ZM128.885 27.0016L128.9 29.7768L129.028 30.0514C129.171 30.3556 129.56 30.7846 129.824 30.9282C129.988 31.0173 130.233 31.0218 135.591 31.0345L141.188 31.0478L141.467 31.3145C141.621 31.4612 141.841 31.6289 141.955 31.6873C142.646 32.0397 143.689 32.0265 144.369 31.6567C144.698 31.4774 145.109 31.0217 145.31 30.6128L145.476 30.2767V29.4781C145.476 28.68 145.476 28.6794 145.317 28.357C145.137 27.9942 144.69 27.5078 144.401 27.36C144.075 27.1939 143.663 27.1136 143.136 27.1136C142.049 27.1136 141.405 27.4727 140.982 28.3141C140.747 28.783 140.654 29.2062 140.69 29.6399L140.721 30.0008H135.646C130.031 30.0008 130.342 30.0187 130.139 29.6839C130.05 29.5367 130.044 29.3783 130.03 26.8772L130.016 24.2265H129.444H128.871L128.885 27.0016ZM112.597 26.6763V27.1491L112.988 27.1817C114.365 27.2966 115.071 27.9936 115.312 29.4781C115.352 29.7245 115.384 29.9429 115.385 29.9635C115.385 29.984 114.433 30.0008 113.269 30.0008H111.154V30.5235V31.0461H119.448H127.742L127.716 30.0879C127.698 29.406 127.666 29.044 127.606 28.8328C127.258 27.6012 126.437 26.8031 125.166 26.4611C124.621 26.3144 123.551 26.3015 122.976 26.4347C122.464 26.5532 121.931 26.7992 121.57 27.0837C121.245 27.3391 121.142 27.4787 121.182 27.6064C121.21 27.6918 122.047 28.437 122.075 28.4009C122.082 28.391 122.159 28.2786 122.245 28.151C122.624 27.5902 123.081 27.3619 123.897 27.3259C125.471 27.2564 126.344 28.0253 126.468 29.5901L126.5 30.0008H121.497H116.494L116.46 29.7172C116.279 28.1713 115.645 27.0992 114.615 26.5948C114.131 26.3582 113.758 26.267 113.132 26.2328L112.597 26.2035V26.6763ZM93.8148 26.6147C94.1283 26.7534 94.2206 26.8421 94.3598 27.1385C94.5786 27.6043 94.4839 28.1519 94.0962 28.662C93.8799 28.9465 93.3816 29.3039 93.2013 29.3039C93.011 29.3039 92.5221 29.0317 92.3296 28.8187C92.2329 28.7116 92.0894 28.4925 92.0108 28.3318C91.6288 27.5511 91.9274 26.7447 92.6768 26.5328C92.9868 26.4451 93.5177 26.4833 93.8148 26.6147ZM82.1606 27.2514C82.5713 27.4619 82.8922 27.913 83.0588 28.5139C83.0996 28.6609 83.1464 29.0556 83.1627 29.391L83.1925 30.0008H80.7427H78.2929L78.3276 29.8888C78.3871 29.6968 78.6035 29.2918 78.813 28.9803C79.4105 28.0922 80.1572 27.4825 80.9877 27.2046C81.3461 27.0847 81.8769 27.1059 82.1606 27.2514ZM61.1993 27.3342C61.5188 27.5214 61.6869 27.8877 61.7141 28.4561C61.7482 29.1704 61.6056 29.6152 61.2604 29.8709C61.0939 29.9943 60.4727 30.0445 60.184 29.958C59.95 29.8879 59.6937 29.6372 59.5664 29.3537C59.4255 29.04 59.3961 28.4127 59.5049 28.0386C59.7227 27.2895 60.542 26.949 61.1993 27.3342ZM143.648 28.0869C144.119 28.2836 144.284 28.6486 144.276 29.4781C144.27 30.1299 144.154 30.5025 143.884 30.7403C143.578 31.0086 142.926 31.0601 142.571 30.844C142.169 30.5994 141.876 29.9108 141.934 29.3486C141.997 28.7497 142.372 28.1829 142.786 28.0626C143.03 27.9917 143.448 28.0035 143.648 28.0869ZM123.659 32.5519L123.673 33.1617L124.233 33.1758L124.793 33.1899V32.566V31.9422H124.219H123.645L123.659 32.5519ZM67.0995 32.5893V33.1866H67.647H68.1946V32.5893V31.9919H67.647H67.0995V32.5893ZM68.9911 32.5909V33.1898L69.576 33.1758L70.1609 33.1617L70.1749 32.5768L70.1889 31.9919H69.59H68.9911V32.5909ZM55.0033 38.04V40.9521H55.5253H56.0475L56.0604 38.9994L56.0735 37.0468L56.99 39.0012L57.9064 40.9557L58.3244 40.9415L58.7424 40.9272L59.648 39.0225L60.5536 37.1177L60.5666 39.0349L60.5796 40.9521H61.052H61.5243V38.0384V35.1249L60.9398 35.1388L60.3553 35.1529L59.3518 37.2685C58.7999 38.432 58.3344 39.3841 58.3174 39.3841C58.3004 39.3841 57.8334 38.4269 57.2795 37.2569L56.2726 35.1298L55.6379 35.1289L55.0033 35.128V38.04ZM64.2865 38.0027C63.5789 39.5838 62.9913 40.8942 62.9809 40.9148C62.9705 40.9353 63.228 40.9521 63.5532 40.9521H64.1445L65.1075 38.7494C65.6372 37.5379 66.0857 36.529 66.1041 36.5074C66.1225 36.4858 66.3158 36.8778 66.5337 37.3785L66.9297 38.2889L66.421 38.303L65.9122 38.3171L65.7592 38.718C65.675 38.9384 65.6061 39.1388 65.6061 39.1631C65.6061 39.1876 66.001 39.2137 66.4837 39.2211L67.3613 39.2347L67.7349 40.0934L68.1085 40.9521H68.7293C69.3 40.9521 69.3475 40.9451 69.3171 40.865C69.2988 40.8171 68.6988 39.5066 67.9837 37.9529L66.6836 35.128H66.1283H65.573L64.2865 38.0027ZM71.3305 37.2809C71.3305 39.2322 71.3223 39.4498 71.2434 39.6045C71.1085 39.8691 70.9439 39.9595 70.4914 40.0172L70.0862 40.069V40.5105V40.9521L70.3475 40.9503C71.053 40.9457 71.8226 40.6769 72.1127 40.334C72.1842 40.2496 72.3006 40.0573 72.3715 39.9067L72.5004 39.633L72.5157 37.3805L72.5309 35.128H71.9308H71.3306L71.3305 37.2809ZM74.6658 38.04V40.9521H75.2383H75.8107V38.04V35.128H75.2383H74.6658V38.04ZM77.9633 38.023L77.9761 40.9272H79.4695C80.7356 40.9272 81.0212 40.9135 81.3465 40.8372C82.7094 40.5173 83.3821 39.5514 83.3844 37.9109C83.3865 36.4538 82.8548 35.6633 81.618 35.2849C81.2278 35.1655 81.1472 35.1597 79.5811 35.1397L77.9504 35.1188L77.9633 38.023ZM90.1201 35.3893C90.0512 35.533 89.449 36.8379 88.782 38.2889L87.5691 40.9272L88.1447 40.9413C88.5556 40.9513 88.7311 40.9381 88.7577 40.895C88.7783 40.8617 89.2259 39.852 89.7525 38.6511C90.2791 37.4502 90.7268 36.4853 90.7472 36.5071C90.7819 36.5441 91.5906 38.2603 91.5906 38.297C91.5906 38.3063 91.348 38.3138 91.0516 38.3138H90.5126L90.3547 38.7295C90.2678 38.9581 90.1968 39.1597 90.1968 39.1775C90.1968 39.1953 90.5901 39.2098 91.0709 39.2098H91.945L92.3628 40.081L92.7807 40.9521H93.3554C93.6715 40.9521 93.9302 40.9353 93.9302 40.9148C93.9302 40.8942 93.334 39.5838 92.6052 38.0027L91.2803 35.128H90.7629H90.2454L90.1201 35.3893ZM95.3737 38.04V40.9521H97.4644H99.5551V40.5048V40.0575L98.0245 40.0443L96.4938 40.0312L96.4809 37.5796L96.4679 35.128H95.9209H95.3737V38.04ZM104.234 38.04V40.9521H104.782H105.329V39.7076V38.4632H106.798H108.266V38.0151V37.5671H106.798H105.329V36.7956V36.024H106.873H108.416V35.576V35.128H106.325H104.234V38.04ZM109.91 37.0818C109.91 38.6314 109.926 39.1003 109.984 39.3483C110.165 40.1153 110.586 40.5618 111.384 40.8331C111.893 41.0062 112.824 41.053 113.385 40.9338C114.319 40.7352 114.891 40.221 115.109 39.3823C115.172 39.1429 115.186 38.7276 115.186 37.1087V35.128H114.641H114.096L114.081 37.1316C114.066 39.054 114.061 39.1442 113.96 39.3592C113.749 39.8067 113.379 40.032 112.761 40.0906C112.409 40.124 111.915 40.0413 111.645 39.9035C111.424 39.7907 111.193 39.5213 111.102 39.2701C111.052 39.1311 111.031 38.5958 111.017 37.1067L110.998 35.128H110.454H109.909L109.91 37.0818ZM116.679 35.576V36.024H117.65H118.62V38.488V40.9521H119.168H119.715V38.488V36.024H120.636H121.557V35.576V35.128H119.118H116.679V35.576ZM122.652 35.576V36.024H123.573H124.494V38.4897V40.9554L125.054 40.9413L125.614 40.9272L125.627 38.4756L125.64 36.024H126.561H127.481V35.576V35.128H125.067H122.652V35.576ZM130.424 35.217C130.379 35.2997 128.273 39.8707 127.925 40.641L127.784 40.9521H128.372H128.96L129.946 38.7101C130.488 37.477 130.948 36.4858 130.969 36.5074C131.003 36.5442 131.812 38.2605 131.812 38.297C131.812 38.3063 131.57 38.3138 131.274 38.3138H130.736L130.631 38.6498C130.573 38.8346 130.511 39.0362 130.493 39.0978L130.461 39.2098H131.351H132.241L132.614 40.0685L132.987 40.9272L133.569 40.9412C133.889 40.949 134.151 40.9364 134.151 40.9134C134.151 40.8904 133.574 39.5849 132.869 38.0123L131.586 35.1529L131.03 35.1388C130.53 35.1262 130.468 35.1343 130.424 35.217ZM135.744 38.04V40.9521H136.292H136.839V38.04V35.128H136.292H135.744V38.04ZM139.03 38.0385V40.9521H139.552H140.075L140.075 38.9983L140.076 37.0445L140.987 38.9858L141.899 40.9272L142.319 40.9411L142.738 40.9551L143.621 39.0247L144.504 37.0942L144.505 39.025L144.505 40.9557L144.991 40.9414L145.476 40.9272L145.489 38.0261L145.502 35.1249L144.893 35.1389L144.285 35.1529L143.315 37.2807C142.781 38.451 142.327 39.3911 142.306 39.3697C142.284 39.3484 141.822 38.3908 141.277 37.2419L140.288 35.1529L139.659 35.1389L139.03 35.125V38.0385ZM81.2257 36.1619C81.9627 36.4012 82.2829 36.9326 82.2812 37.9136C82.2799 38.6829 82.0631 39.2974 81.6762 39.6286C81.3377 39.9183 80.9636 40.0082 79.9548 40.0422L79.0961 40.0712V38.0415V36.0119L80.0046 36.0361C80.736 36.0557 80.974 36.0802 81.2257 36.1619Z" fill="#F9F5E9"/>
</svg>
