<svg width="188" height="72" viewBox="0 0 188 72" xmlns="http://www.w3.org/2000/svg">
<path fill-rule="evenodd" clip-rule="evenodd" d="M40.0066 25.1737C35.996 26.3441 33.231 28.997 32.3209 32.5479C32 33.8002 32 33.7998 32 40.717V46.9521H34.0907H36.1814L36.1815 40.8418C36.1815 37.0307 36.2008 34.5254 36.2328 34.1839C36.6068 30.1964 39.4001 26.7185 43.4491 25.199L43.9718 25.0028L42.2793 25.0036L40.5868 25.0044L40.0066 25.1737ZM44.8429 25.1263C44.2728 25.3158 42.9296 26.0053 42.4341 26.3628C40.3749 27.8484 39.073 30.0271 38.5338 32.8896L38.4026 33.5865L38.3854 40.2693L38.3682 46.9521H40.4607H42.5531V40.9811C42.5531 36.7822 42.5696 34.9318 42.6086 34.7463C42.6391 34.6013 42.7214 34.3601 42.7915 34.2104C42.9339 33.9064 43.474 33.3144 43.5402 33.3897C44.0119 33.9264 45.153 35.2043 45.1605 35.2043C45.166 35.2043 45.5381 34.7896 45.9872 34.2826L46.8038 33.3609L47.0165 33.5697C47.2718 33.8202 47.5491 34.3337 47.625 34.6965C47.6638 34.8814 47.6803 36.7557 47.6803 40.9562V46.9521H49.771H51.8617V40.7861C51.8617 35.4437 51.8514 34.561 51.7846 34.1781C51.3416 31.6378 49.2845 29.6006 46.583 29.0268C46.1671 28.9385 45.8924 28.9157 45.2162 28.9132C44.3398 28.91 43.9102 28.9659 43.1087 29.1874C42.9077 29.2429 42.733 29.278 42.7204 29.2654C42.6686 29.2137 43.4084 28.7117 43.8722 28.4839C44.7573 28.049 45.5521 27.9034 46.7594 27.9548C47.1909 27.9732 47.702 28.0282 47.9703 28.0853C50.7535 28.6769 52.9605 30.567 53.7497 33.0348C54.0791 34.065 54.069 33.8422 54.0992 40.7049L54.1266 46.9272L56.2319 46.9402L58.3371 46.9532L58.3196 40.5934C58.3039 34.9199 58.2929 34.1772 58.218 33.711C57.86 31.4848 56.9887 29.7 55.524 28.1928C54.6356 27.2785 53.7066 26.6102 52.5337 26.0417C51.6807 25.6282 51.087 25.4066 50.2147 25.1763L49.547 25L47.3816 25.0011L45.2162 25.0022L44.8429 25.1263ZM102.636 30.0025V30.6247H103.183H103.731V30.0025V29.3802H103.183H102.636V30.0025ZM87.2045 33.1136V36.0008H83.6326H80.0607L80.094 35.5652C80.1123 35.3257 80.1292 34.4745 80.1316 33.6736L80.136 32.2176H79.5884H79.0408L79.037 33.7981C79.0327 35.5684 79.0134 35.7075 78.7459 35.8877L78.5781 36.0008H76.5038C74.2135 36.0008 74.1351 35.9921 73.6824 35.6892C73.3937 35.496 73.135 35.0915 73.0894 34.7619C72.96 33.8264 72.7667 33.3167 72.3879 32.9116C72.1062 32.6105 71.83 32.4395 71.4185 32.3114C71.1439 32.2259 70.9353 32.2176 69.0662 32.2176C66.8487 32.2176 66.7123 32.2307 66.1918 32.4945C65.6785 32.7546 65.297 33.3057 65.1219 34.0404C65.055 34.3209 65.0362 34.7685 65.0176 36.511L64.9949 38.6391H65.5716H66.1482V36.6796C66.1482 35.5864 66.1701 34.6045 66.1977 34.4586C66.3171 33.8293 66.7147 33.2817 67.1376 33.1642C67.2368 33.1367 67.6156 33.1141 67.9793 33.1139L68.6407 33.1136L68.5131 33.3003C68.2116 33.7416 68.091 34.7069 68.2587 35.3369C68.5392 36.3905 69.4065 36.9983 70.625 36.9956C71.3096 36.9941 71.9022 36.7638 72.3249 36.3351L72.5597 36.0969L72.8375 36.3748C72.993 36.5302 73.2345 36.7071 73.3858 36.7764C74.0048 37.0598 73.163 37.0443 88.0319 37.0453L101.727 37.0461L102.198 36.9266C102.458 36.8609 102.783 36.7496 102.922 36.6793L103.174 36.5515L103.465 36.6968C104.146 37.0368 103.831 37.0186 109.289 37.0343L114.224 37.0485L114.516 36.9406C114.899 36.7984 115.226 36.4734 115.385 36.0755L115.504 35.7768L115.518 33.0016L115.533 30.2265H114.985H114.438L114.423 32.8772L114.409 35.5279L114.29 35.7182C114.225 35.8228 114.117 35.9293 114.051 35.9546C113.885 36.0176 104.577 36.0147 104.478 35.9517C104.415 35.9117 104.423 35.8907 104.528 35.8208C104.801 35.6376 105.273 35.0945 105.423 34.7889C105.512 34.6095 105.604 34.3154 105.635 34.1156C105.817 32.9431 105.116 31.9104 103.924 31.593C103.613 31.5104 102.762 31.4997 102.438 31.5744C101.843 31.7115 101.187 32.1812 100.93 32.654C100.623 33.218 100.568 33.9743 100.792 34.5638C100.942 34.9596 101.3 35.4518 101.6 35.6749C101.745 35.7832 101.875 35.8796 101.888 35.8892C102.01 35.98 101.342 35.9993 98.0687 36L94.3727 36.0008V35.6884C94.3727 34.4891 94.0474 33.4773 93.4793 32.9092C92.9935 32.4234 92.4251 32.2176 91.5692 32.2176C90.4092 32.2176 89.262 32.8704 88.4321 34.0027C88.3045 34.1768 88.2005 34.2888 88.2009 34.2516C88.2014 34.2143 88.2458 33.3438 88.2997 32.3172C88.3535 31.2905 88.3979 30.4 88.3984 30.3385C88.3992 30.2285 88.3884 30.2265 87.8019 30.2265H87.2045V33.1136ZM117.37 33.6363V37.0461H117.918H118.466V33.6363V30.2265H117.918H117.37V33.6363ZM138.885 33.0016L138.9 35.7768L139.028 36.0514C139.171 36.3556 139.56 36.7846 139.824 36.9282C139.988 37.0173 140.233 37.0218 145.591 37.0345L151.188 37.0478L151.467 37.3145C151.621 37.4612 151.841 37.6289 151.955 37.6873C152.646 38.0397 153.689 38.0265 154.369 37.6567C154.698 37.4774 155.109 37.0217 155.31 36.6128L155.476 36.2767V35.4781C155.476 34.68 155.476 34.6794 155.317 34.357C155.137 33.9942 154.69 33.5078 154.401 33.36C154.075 33.1939 153.663 33.1136 153.136 33.1136C152.049 33.1136 151.405 33.4727 150.982 34.3141C150.747 34.783 150.654 35.2062 150.69 35.6399L150.721 36.0008H145.646C140.031 36.0008 140.342 36.0187 140.139 35.6839C140.05 35.5367 140.044 35.3783 140.03 32.8772L140.016 30.2265H139.444H138.871L138.885 33.0016ZM122.597 32.6763V33.1491L122.988 33.1817C124.365 33.2966 125.071 33.9936 125.312 35.4781C125.352 35.7245 125.384 35.9429 125.385 35.9635C125.385 35.984 124.433 36.0008 123.269 36.0008H121.154V36.5235V37.0461H129.448H137.742L137.716 36.0879C137.698 35.406 137.666 35.044 137.606 34.8328C137.258 33.6012 136.437 32.8031 135.166 32.4611C134.621 32.3144 133.551 32.3015 132.976 32.4347C132.464 32.5532 131.931 32.7992 131.57 33.0837C131.245 33.3391 131.142 33.4787 131.182 33.6064C131.21 33.6918 132.047 34.437 132.075 34.4009C132.082 34.391 132.159 34.2786 132.245 34.151C132.624 33.5902 133.081 33.3619 133.897 33.3259C135.471 33.2564 136.344 34.0253 136.468 35.5901L136.5 36.0008H131.497H126.494L126.46 35.7172C126.279 34.1713 125.645 33.0992 124.615 32.5948C124.131 32.3582 123.758 32.267 123.132 32.2328L122.597 32.2035V32.6763ZM103.815 32.6147C104.128 32.7534 104.221 32.8421 104.36 33.1385C104.579 33.6043 104.484 34.1519 104.096 34.662C103.88 34.9465 103.382 35.3039 103.201 35.3039C103.011 35.3039 102.522 35.0317 102.33 34.8187C102.233 34.7116 102.089 34.4925 102.011 34.3318C101.629 33.5511 101.927 32.7447 102.677 32.5328C102.987 32.4451 103.518 32.4833 103.815 32.6147ZM92.1606 33.2514C92.5713 33.4619 92.8922 33.913 93.0588 34.5139C93.0996 34.6609 93.1464 35.0556 93.1627 35.391L93.1925 36.0008H90.7427H88.2929L88.3276 35.8888C88.3871 35.6968 88.6035 35.2918 88.813 34.9803C89.4105 34.0922 90.1572 33.4825 90.9877 33.2046C91.3461 33.0847 91.8769 33.1059 92.1606 33.2514ZM71.1993 33.3342C71.5188 33.5214 71.6869 33.8877 71.7141 34.4561C71.7482 35.1704 71.6056 35.6152 71.2604 35.8709C71.0939 35.9943 70.4727 36.0445 70.184 35.958C69.95 35.8879 69.6937 35.6372 69.5664 35.3537C69.4255 35.04 69.3961 34.4127 69.5049 34.0386C69.7227 33.2895 70.542 32.949 71.1993 33.3342ZM153.648 34.0869C154.119 34.2836 154.284 34.6486 154.276 35.4781C154.27 36.1299 154.154 36.5025 153.884 36.7403C153.578 37.0086 152.926 37.0601 152.571 36.844C152.169 36.5994 151.876 35.9108 151.934 35.3486C151.997 34.7497 152.372 34.1829 152.786 34.0626C153.03 33.9917 153.448 34.0035 153.648 34.0869ZM133.659 38.5519L133.673 39.1617L134.233 39.1758L134.793 39.1899V38.566V37.9422H134.219H133.645L133.659 38.5519ZM77.0995 38.5893V39.1866H77.647H78.1946V38.5893V37.9919H77.647H77.0995V38.5893ZM78.9911 38.5909V39.1898L79.576 39.1758L80.1609 39.1617L80.1749 38.5768L80.1889 37.9919H79.59H78.9911V38.5909ZM65.0033 44.04V46.9521H65.5253H66.0475L66.0604 44.9994L66.0735 43.0468L66.99 45.0012L67.9064 46.9557L68.3244 46.9415L68.7424 46.9272L69.648 45.0225L70.5536 43.1177L70.5666 45.0349L70.5796 46.9521H71.052H71.5243V44.0384V41.1249L70.9398 41.1388L70.3553 41.1529L69.3518 43.2685C68.7999 44.432 68.3344 45.3841 68.3174 45.3841C68.3004 45.3841 67.8334 44.4269 67.2795 43.2569L66.2726 41.1298L65.6379 41.1289L65.0033 41.128V44.04ZM74.2865 44.0027C73.5789 45.5838 72.9913 46.8942 72.9809 46.9148C72.9705 46.9353 73.228 46.9521 73.5532 46.9521H74.1445L75.1075 44.7494C75.6372 43.5379 76.0857 42.529 76.1041 42.5074C76.1225 42.4858 76.3158 42.8778 76.5337 43.3785L76.9297 44.2889L76.421 44.303L75.9122 44.3171L75.7592 44.718C75.675 44.9384 75.6061 45.1388 75.6061 45.1631C75.6061 45.1876 76.001 45.2137 76.4837 45.2211L77.3613 45.2347L77.7349 46.0934L78.1085 46.9521H78.7293C79.3 46.9521 79.3475 46.9451 79.3171 46.865C79.2988 46.8171 78.6988 45.5066 77.9837 43.9529L76.6836 41.128H76.1283H75.573L74.2865 44.0027ZM81.3305 43.2809C81.3305 45.2322 81.3223 45.4498 81.2434 45.6045C81.1085 45.8691 80.9439 45.9595 80.4914 46.0172L80.0862 46.069V46.5105V46.9521L80.3475 46.9503C81.053 46.9457 81.8226 46.6769 82.1127 46.334C82.1842 46.2496 82.3006 46.0573 82.3715 45.9067L82.5004 45.633L82.5157 43.3805L82.5309 41.128H81.9308H81.3306L81.3305 43.2809ZM84.6658 44.04V46.9521H85.2383H85.8107V44.04V41.128H85.2383H84.6658V44.04ZM87.9633 44.023L87.9761 46.9272H89.4695C90.7356 46.9272 91.0212 46.9135 91.3465 46.8372C92.7094 46.5173 93.3821 45.5514 93.3844 43.9109C93.3865 42.4538 92.8548 41.6633 91.618 41.2849C91.2278 41.1655 91.1472 41.1597 89.5811 41.1397L87.9504 41.1188L87.9633 44.023ZM100.12 41.3893C100.051 41.533 99.449 42.8379 98.782 44.2889L97.5691 46.9272L98.1447 46.9413C98.5556 46.9513 98.7311 46.9381 98.7577 46.895C98.7783 46.8617 99.2259 45.852 99.7525 44.6511C100.279 43.4502 100.727 42.4853 100.747 42.5071C100.782 42.5441 101.591 44.2603 101.591 44.297C101.591 44.3063 101.348 44.3138 101.052 44.3138H100.513L100.355 44.7295C100.268 44.9581 100.197 45.1597 100.197 45.1775C100.197 45.1953 100.59 45.2098 101.071 45.2098H101.945L102.363 46.081L102.781 46.9521H103.355C103.672 46.9521 103.93 46.9353 103.93 46.9148C103.93 46.8942 103.334 45.5838 102.605 44.0027L101.28 41.128H100.763H100.245L100.12 41.3893ZM105.374 44.04V46.9521H107.464H109.555V46.5048V46.0575L108.024 46.0443L106.494 46.0312L106.481 43.5796L106.468 41.128H105.921H105.374V44.04ZM114.234 44.04V46.9521H114.782H115.329V45.7076V44.4632H116.798H118.266V44.0151V43.5671H116.798H115.329V42.7956V42.024H116.873H118.416V41.576V41.128H116.325H114.234V44.04ZM119.91 43.0818C119.91 44.6314 119.926 45.1003 119.984 45.3483C120.165 46.1153 120.586 46.5618 121.384 46.8331C121.893 47.0062 122.824 47.053 123.385 46.9338C124.319 46.7352 124.891 46.221 125.109 45.3823C125.172 45.1429 125.186 44.7276 125.186 43.1087V41.128H124.641H124.096L124.081 43.1316C124.066 45.054 124.061 45.1442 123.96 45.3592C123.749 45.8067 123.379 46.032 122.761 46.0906C122.409 46.124 121.915 46.0413 121.645 45.9035C121.424 45.7907 121.193 45.5213 121.102 45.2701C121.052 45.1311 121.031 44.5958 121.017 43.1067L120.998 41.128H120.454H119.909L119.91 43.0818ZM126.679 41.576V42.024H127.65H128.62V44.488V46.9521H129.168H129.715V44.488V42.024H130.636H131.557V41.576V41.128H129.118H126.679V41.576ZM132.652 41.576V42.024H133.573H134.494V44.4897V46.9554L135.054 46.9413L135.614 46.9272L135.627 44.4756L135.64 42.024H136.561H137.481V41.576V41.128H135.067H132.652V41.576ZM140.424 41.217C140.379 41.2997 138.273 45.8707 137.925 46.641L137.784 46.9521H138.372H138.96L139.946 44.7101C140.488 43.477 140.948 42.4858 140.969 42.5074C141.003 42.5442 141.812 44.2605 141.812 44.297C141.812 44.3063 141.57 44.3138 141.274 44.3138H140.736L140.631 44.6498C140.573 44.8346 140.511 45.0362 140.493 45.0978L140.461 45.2098H141.351H142.241L142.614 46.0685L142.987 46.9272L143.569 46.9412C143.889 46.949 144.151 46.9364 144.151 46.9134C144.151 46.8904 143.574 45.5849 142.869 44.0123L141.586 41.1529L141.03 41.1388C140.53 41.1262 140.468 41.1343 140.424 41.217ZM145.744 44.04V46.9521H146.292H146.839V44.04V41.128H146.292H145.744V44.04ZM149.03 44.0385V46.9521H149.552H150.075L150.075 44.9983L150.076 43.0445L150.987 44.9858L151.899 46.9272L152.319 46.9411L152.738 46.9551L153.621 45.0247L154.504 43.0942L154.505 45.025L154.505 46.9557L154.991 46.9414L155.476 46.9272L155.489 44.0261L155.502 41.1249L154.893 41.1389L154.285 41.1529L153.315 43.2807C152.781 44.451 152.327 45.3911 152.306 45.3697C152.284 45.3484 151.822 44.3908 151.277 43.2419L150.288 41.1529L149.659 41.1389L149.03 41.125V44.0385ZM91.2257 42.1619C91.9627 42.4012 92.2829 42.9326 92.2812 43.9136C92.2799 44.6829 92.0631 45.2974 91.6762 45.6286C91.3377 45.9183 90.9636 46.0082 89.9548 46.0422L89.0961 46.0712V44.0415V42.0119L90.0046 42.0361C90.736 42.0557 90.974 42.0802 91.2257 42.1619Z" fill="#F9F5E9"/>
</svg>
