<svg width="80" height="20" viewBox="0 0 80 20" xmlns="http://www.w3.org/2000/svg">
<path fill-rule="evenodd" clip-rule="evenodd" d="M3.61215 0.0488645C3.58527 0.0756776 3.56329 0.504249 3.56329 1.00125V1.90476H10.2666H16.9699V0.952381V0H10.3155C6.65545 0 3.63897 0.021978 3.61215 0.0488645ZM0.339844 10.0366V16.7766H1.25559H2.17135V10.0366V3.2967H1.25559H0.339844V10.0366ZM18.7464 3.35033L18.4351 3.37839V10.0774V16.7766H19.3508H20.2666V10.0366V3.2967L19.6622 3.30952C19.3297 3.31656 18.9177 3.33495 18.7464 3.35033ZM74.8087 5.34293C73.5068 5.557 72.6495 6.09055 72.2278 6.9493C72.0492 7.31289 72.0248 7.44637 72.0249 8.05861C72.025 8.86769 72.1638 9.25824 72.6028 9.68462C73.1423 10.2086 73.8638 10.4708 75.6913 10.8072C76.2535 10.9106 76.8524 11.0621 77.0221 11.1439C77.8363 11.5359 77.8276 12.5689 77.0065 12.9973C76.7569 13.1275 76.5832 13.1502 75.8344 13.1502C74.9958 13.1502 74.9322 13.1393 74.4562 12.9138C74.1535 12.7704 73.7788 12.507 73.5038 12.2443L73.0505 11.8112L72.3912 12.4321L71.7318 13.053L72.2515 13.5412C72.8186 14.0738 73.4376 14.4193 74.186 14.621C74.7932 14.7846 76.524 14.8086 77.1164 14.6615C78.2063 14.3911 79.0745 13.7263 79.3966 12.9155C79.6491 12.28 79.6377 11.3133 79.3717 10.8012C78.909 9.91026 78.0835 9.46249 76.3377 9.15546C74.2975 8.7967 73.9296 8.60161 73.9296 7.87832C73.9296 7.4156 74.0598 7.23326 74.5523 7.0063C74.822 6.88205 75.022 6.85516 75.6512 6.85839C76.7309 6.86403 77.1667 7.07802 77.6855 7.85714C77.7862 8.00828 77.8764 8.13187 77.886 8.13187C77.9166 8.13187 79.4231 7.45956 79.4495 7.43414C79.4635 7.42066 79.3682 7.20938 79.2378 6.96469C78.8348 6.20879 78.1671 5.72037 77.1649 5.4485C76.7029 5.32315 75.3089 5.26073 74.8087 5.34293ZM4.80871 10.0366V14.5788H5.72446H6.64021V10.0366V5.49451H5.72446H4.80871V10.0366ZM9.35084 10.0366V14.5788H10.3032H11.2556V10.0366V5.49451H10.3032H9.35084V10.0366ZM13.9662 10.0366V14.5788H14.882H15.7977V10.0366V5.49451H14.882H13.9662V10.0366ZM24.3692 10.0366V14.5788H25.2595H26.1498L26.0982 12.7552C26.0699 11.7522 26.07 10.3804 26.0984 9.70659L26.1502 8.48161L26.4691 9.38733C26.6445 9.88549 27.155 11.2573 27.6036 12.4359L28.4192 14.5788H29.1601H29.9011L31.0363 11.5568L32.1714 8.5348L32.1905 11.5568L32.2096 14.5788H33.0879H33.9662V10.0347V5.4907L32.8533 5.51092L31.7404 5.53114L31.5697 5.9707C31.4759 6.21245 30.9391 7.63231 30.377 9.12593C29.1486 12.3897 29.1539 12.3768 29.1015 12.2344C29.0793 12.174 28.899 11.663 28.701 11.0989C28.401 10.2444 27.4366 7.63026 26.7889 5.91575L26.6297 5.49451H25.4994H24.3692V10.0366ZM35.7245 10.0366V14.5788H39.0578H42.3911V13.7729V12.967H40.0102H37.6292V11.8315V10.696H39.7904H41.9516V9.89011V9.08425H39.7904H37.6292V8.09524V7.10623H39.9736H42.3179V6.30037V5.49451H39.0212H35.7245V10.0366ZM44.0761 10.0366V14.5788H45.0285H45.9809V12.8571V11.1355H46.9335H47.8861L48.7459 12.8571L49.6058 14.5788H50.6552H51.7046L50.7475 12.7198C50.2211 11.6974 49.7913 10.832 49.7923 10.7967C49.7933 10.7615 49.9605 10.6198 50.1638 10.4818C50.9015 9.98132 51.2195 9.22879 51.169 8.103C51.1427 7.51692 51.1091 7.37985 50.8921 6.97429C50.6016 6.43136 50.3573 6.20747 49.7382 5.9167C49.0034 5.57172 48.3826 5.49993 46.1091 5.49707L44.0761 5.49451V10.0366ZM54.2324 9.89692C53.2707 12.3179 52.4674 14.3618 52.4473 14.4388C52.4126 14.5713 52.4615 14.5788 53.3652 14.5788H54.3197L54.5359 14.011C54.6548 13.6988 54.827 13.2372 54.9184 12.9853L55.0848 12.5275H56.8944H58.704L59.0721 13.5348L59.4402 14.5421L60.4452 14.5626C61.27 14.5793 61.446 14.5648 61.4262 14.4818C61.413 14.4262 60.6109 12.3818 59.6439 9.93853L57.8857 5.49641L56.9333 5.49575L55.9809 5.49517L54.2324 9.89692ZM65.4755 6.13582C65.3386 6.48821 64.552 8.47436 63.7273 10.5495C62.9026 12.6245 62.2111 14.381 62.1905 14.4527C62.1558 14.5738 62.2228 14.5817 63.1268 14.5626L64.1003 14.5421L64.4728 13.5355L64.8454 12.5289L66.6533 12.5282L68.4612 12.5275L68.6166 12.9487C68.7021 13.1804 68.8736 13.642 68.9979 13.9744L69.2238 14.5788H70.2332H71.2427L70.8598 13.6081C70.6492 13.0742 69.8385 11.0303 69.0582 9.06593L67.6395 5.49451L66.682 5.4948L65.7245 5.49502L65.4755 6.13582ZM47.9867 7.10872C48.6765 7.20842 48.9601 7.35714 49.1426 7.71495C49.3347 8.09128 49.3059 8.76454 49.085 9.06689C48.7886 9.47253 48.4805 9.55597 47.1714 9.58535L45.9809 9.61216V8.32256V7.03297L46.7318 7.03443C47.1448 7.03524 47.7095 7.06864 47.9867 7.10872ZM57.1209 8.22344C57.25 8.55582 57.5289 9.29758 57.7405 9.8718L58.1251 10.9158H56.8913H55.6575L55.9197 10.2015C56.0639 9.80857 56.3309 9.06681 56.513 8.55311C56.6952 8.03941 56.8536 7.61905 56.8651 7.61905C56.8766 7.61905 56.9917 7.89106 57.1209 8.22344ZM67.0314 8.58989C67.2265 9.12374 67.4978 9.86535 67.6345 10.2381L67.883 10.9158H66.6496H65.4161L66.0099 9.26923C66.3364 8.36366 66.6201 7.62198 66.6402 7.6211C66.6604 7.62015 66.8364 8.05612 67.0314 8.58989ZM3.56329 19.0842V20H10.2666H16.9699V19.0842V18.1685H10.2666H3.56329V19.0842Z" fill="#F9F5E9"/>
</svg>
