<svg width="168" height="60" viewBox="0 0 168 60" xmlns="http://www.w3.org/2000/svg">
<path fill-rule="evenodd" clip-rule="evenodd" d="M29.9085 15.0733C29.8681 15.1135 29.8352 15.7564 29.8352 16.5019V17.8571H39.8901H49.9451V16.4286V15H39.9634C34.4734 15 29.9487 15.033 29.9085 15.0733ZM25 30.0549V40.1648H26.3736H27.7473V30.0549V19.9451H26.3736H25V30.0549ZM52.6099 20.0255L52.1429 20.0676V30.1162V40.1648H53.5165H54.8901V30.0549V19.9451L53.9835 19.9643C53.4848 19.9748 52.8667 20.0024 52.6099 20.0255ZM136.703 23.0144C134.75 23.3355 133.465 24.1358 132.832 25.424C132.564 25.9693 132.528 26.1696 132.528 27.0879C132.528 28.3015 132.736 28.8874 133.394 29.5269C134.204 30.3129 135.286 30.7063 138.027 31.2108C138.87 31.3659 139.769 31.5932 140.023 31.7158C141.245 32.3038 141.232 33.8533 140 34.4959C139.626 34.6913 139.365 34.7253 138.242 34.7253C136.984 34.7253 136.889 34.7089 136.175 34.3707C135.72 34.1556 135.158 33.7605 134.746 33.3665L134.066 32.7168L133.077 33.6481L132.088 34.5796L132.868 35.3118C133.718 36.1108 134.647 36.629 135.769 36.9315C136.68 37.1769 139.276 37.2129 140.165 36.9923C141.8 36.5866 143.102 35.5895 143.585 34.3733C143.964 33.42 143.947 31.9699 143.548 31.2019C142.854 29.8654 141.615 29.1937 138.997 28.7332C135.937 28.1951 135.385 27.9024 135.385 26.8175C135.385 26.1234 135.58 25.8499 136.319 25.5095C136.723 25.3231 137.023 25.2827 137.967 25.2876C139.587 25.296 140.24 25.617 141.019 26.7857C141.17 27.0124 141.305 27.1978 141.319 27.1978C141.365 27.1978 143.625 26.1893 143.664 26.1512C143.685 26.131 143.542 25.8141 143.347 25.447C142.742 24.3132 141.741 23.5805 140.238 23.1727C139.545 22.9847 137.454 22.8911 136.703 23.0144ZM31.7033 30.0549V36.8681H33.0769H34.4506V30.0549V23.2418H33.0769H31.7033V30.0549ZM38.5165 30.0549V36.8681H39.9451H41.3736V30.0549V23.2418H39.9451H38.5165V30.0549ZM45.4396 30.0549V36.8681H46.8132H48.1868V30.0549V23.2418H46.8132H45.4396V30.0549ZM61.044 30.0549V36.8681H62.3795H63.715L63.6376 34.1327C63.5951 32.6284 63.5952 30.5705 63.6378 29.5599L63.7155 27.7224L64.1939 29.081C64.4569 29.8282 65.2228 31.8859 65.8956 33.6538L67.119 36.8681H68.2305H69.3419L71.0446 32.3352L72.7473 27.8022L72.776 32.3352L72.8046 36.8681H74.1221H75.4396V30.0521V23.236L73.7702 23.2664L72.1009 23.2967L71.8449 23.956C71.7041 24.3187 70.8989 26.4485 70.0557 28.6889C68.2132 33.5846 68.2211 33.5652 68.1425 33.3516C68.1092 33.261 67.8388 32.4945 67.5418 31.6484C67.0917 30.3666 65.6451 26.4454 64.6735 23.8736L64.4347 23.2418H62.7394H61.044V30.0549ZM78.0769 30.0549V36.8681H83.077H88.077V35.6593V34.4505H84.5055H80.9341V32.7473V31.044H84.1759H87.4176V29.8352V28.6264H84.1759H80.9341V27.1429V25.6593H84.4506H87.9671V24.4505V23.2418H83.022H78.0769V30.0549ZM90.6044 30.0549V36.8681H92.033H93.4616V34.2857V31.7033H94.8905H96.3194L97.6092 34.2857L98.8989 36.8681H100.473H102.047L100.611 34.0797C99.8219 32.546 99.1772 31.248 99.1787 31.1951C99.1803 31.1422 99.431 30.9297 99.736 30.7227C100.842 29.972 101.319 28.8432 101.244 27.1545C101.204 26.2754 101.154 26.0698 100.828 25.4614C100.393 24.647 100.026 24.3112 99.0975 23.8751C97.9953 23.3576 97.0642 23.2499 93.6539 23.2456L90.6044 23.2418V30.0549ZM105.839 29.8454C104.396 33.4769 103.191 36.5426 103.161 36.6581C103.109 36.8569 103.183 36.8681 104.538 36.8681H105.97L106.294 36.0165C106.472 35.5481 106.731 34.8558 106.868 34.478L107.117 33.7912H109.832H112.546L113.098 35.3022L113.65 36.8132L115.158 36.8438C116.395 36.8689 116.659 36.8473 116.63 36.7227C116.61 36.6393 115.407 33.5726 113.956 29.9078L111.319 23.2446L109.89 23.2436L108.462 23.2427L105.839 29.8454ZM122.704 24.2037C122.498 24.7323 121.318 27.7115 120.081 30.8242C118.844 33.9368 117.807 36.5715 117.776 36.6791C117.724 36.8607 117.824 36.8725 119.18 36.844L120.641 36.8132L121.199 35.3033L121.758 33.7934L124.47 33.7923L127.182 33.7912L127.415 34.4231C127.543 34.7705 127.801 35.463 127.987 35.9615L128.326 36.8681H129.84H131.354L130.78 35.4121C130.464 34.6113 129.248 31.5454 128.078 28.5989L125.95 23.2418L124.513 23.2422L123.077 23.2425L122.704 24.2037ZM96.4703 25.6631C97.505 25.8126 97.9304 26.0357 98.2042 26.5724C98.4922 27.1369 98.4492 28.1468 98.1177 28.6003C97.6731 29.2088 97.211 29.334 95.2473 29.378L93.4616 29.4182V27.4838V25.5495L94.5879 25.5516C95.2075 25.5529 96.0544 25.603 96.4703 25.6631ZM110.172 27.3352C110.365 27.8337 110.784 28.9464 111.101 29.8077L111.678 31.3736H109.827H107.977L108.37 30.3022C108.586 29.7129 108.987 28.6002 109.26 27.8297C109.533 27.0591 109.771 26.4286 109.788 26.4286C109.805 26.4286 109.978 26.8366 110.172 27.3352ZM125.037 27.8848C125.33 28.6856 125.737 29.798 125.942 30.3571L126.315 31.3736H124.465H122.614L123.505 28.9038C123.995 27.5455 124.42 26.433 124.451 26.4316C124.481 26.4302 124.745 27.0842 125.037 27.8848ZM29.8352 43.6264V45H39.8901H49.9451V43.6264V42.2527H39.8901H29.8352V43.6264Z" fill="#F9F5E9"/>
</svg>
