<svg width="188" height="72" viewBox="0 0 188 72" xmlns="http://www.w3.org/2000/svg">
<path fill-rule="evenodd" clip-rule="evenodd" d="M39.9085 21.0733C39.8681 21.1135 39.8352 21.7564 39.8352 22.5019V23.8571H49.8901H59.9451V22.4286V21H49.9634C44.4734 21 39.9487 21.033 39.9085 21.0733ZM35 36.0549V46.1648H36.3736H37.7473V36.0549V25.9451H36.3736H35V36.0549ZM62.6099 26.0255L62.1429 26.0676V36.1162V46.1648H63.5165H64.8901V36.0549V25.9451L63.9835 25.9643C63.4848 25.9748 62.8667 26.0024 62.6099 26.0255ZM146.703 29.0144C144.75 29.3355 143.465 30.1358 142.832 31.424C142.564 31.9693 142.528 32.1696 142.528 33.0879C142.528 34.3015 142.736 34.8874 143.394 35.5269C144.204 36.3129 145.286 36.7063 148.027 37.2108C148.87 37.3659 149.769 37.5932 150.023 37.7158C151.245 38.3038 151.232 39.8533 150 40.4959C149.626 40.6913 149.365 40.7253 148.242 40.7253C146.984 40.7253 146.889 40.7089 146.175 40.3707C145.72 40.1556 145.158 39.7605 144.746 39.3665L144.066 38.7168L143.077 39.6481L142.088 40.5796L142.868 41.3118C143.718 42.1108 144.647 42.629 145.769 42.9315C146.68 43.1769 149.276 43.2129 150.165 42.9923C151.8 42.5866 153.102 41.5895 153.585 40.3733C153.964 39.42 153.947 37.9699 153.548 37.2019C152.854 35.8654 151.615 35.1937 148.997 34.7332C145.937 34.1951 145.385 33.9024 145.385 32.8175C145.385 32.1234 145.58 31.8499 146.319 31.5095C146.723 31.3231 147.023 31.2827 147.967 31.2876C149.587 31.296 150.24 31.617 151.019 32.7857C151.17 33.0124 151.305 33.1978 151.319 33.1978C151.365 33.1978 153.625 32.1893 153.664 32.1512C153.685 32.131 153.542 31.8141 153.347 31.447C152.742 30.3132 151.741 29.5805 150.238 29.1727C149.545 28.9847 147.454 28.8911 146.703 29.0144ZM41.7033 36.0549V42.8681H43.0769H44.4506V36.0549V29.2418H43.0769H41.7033V36.0549ZM48.5165 36.0549V42.8681H49.9451H51.3736V36.0549V29.2418H49.9451H48.5165V36.0549ZM55.4396 36.0549V42.8681H56.8132H58.1868V36.0549V29.2418H56.8132H55.4396V36.0549ZM71.044 36.0549V42.8681H72.3795H73.715L73.6376 40.1327C73.5951 38.6284 73.5952 36.5705 73.6378 35.5599L73.7155 33.7224L74.1939 35.081C74.4569 35.8282 75.2228 37.8859 75.8956 39.6538L77.119 42.8681H78.2305H79.3419L81.0446 38.3352L82.7473 33.8022L82.776 38.3352L82.8046 42.8681H84.1221H85.4396V36.0521V29.236L83.7702 29.2664L82.1009 29.2967L81.8449 29.956C81.7041 30.3187 80.8989 32.4485 80.0557 34.6889C78.2132 39.5846 78.2211 39.5652 78.1425 39.3516C78.1092 39.261 77.8388 38.4945 77.5418 37.6484C77.0917 36.3666 75.6451 32.4454 74.6735 29.8736L74.4347 29.2418H72.7394H71.044V36.0549ZM88.077 36.0549V42.8681H93.077H98.077V41.6593V40.4506H94.5055H90.9341V38.7473V37.044H94.1759H97.4176V35.8352V34.6264H94.1759H90.9341V33.1429V31.6593H94.4506H97.9671V30.4505V29.2418H93.022H88.077V36.0549ZM100.604 36.0549V42.8681H102.033H103.462V40.2857V37.7033H104.89H106.319L107.609 40.2857L108.899 42.8681H110.473H112.047L110.611 40.0797C109.822 38.546 109.177 37.248 109.179 37.1951C109.18 37.1422 109.431 36.9297 109.736 36.7227C110.842 35.972 111.319 34.8432 111.244 33.1545C111.204 32.2754 111.154 32.0698 110.828 31.4614C110.393 30.647 110.026 30.3112 109.098 29.8751C107.995 29.3576 107.064 29.2499 103.654 29.2456L100.604 29.2418V36.0549ZM115.839 35.8454C114.396 39.4769 113.191 42.5426 113.161 42.6581C113.109 42.8569 113.183 42.8681 114.538 42.8681H115.97L116.294 42.0165C116.472 41.5481 116.731 40.8558 116.868 40.478L117.117 39.7912H119.832H122.546L123.098 41.3022L123.65 42.8132L125.158 42.8438C126.395 42.8689 126.659 42.8473 126.63 42.7227C126.61 42.6393 125.407 39.5726 123.956 35.9078L121.319 29.2446L119.89 29.2436L118.462 29.2427L115.839 35.8454ZM132.704 30.2037C132.498 30.7323 131.318 33.7115 130.081 36.8242C128.844 39.9368 127.807 42.5715 127.776 42.6791C127.724 42.8607 127.824 42.8725 129.18 42.844L130.641 42.8132L131.199 41.3033L131.758 39.7934L134.47 39.7923L137.182 39.7912L137.415 40.4231C137.543 40.7705 137.801 41.463 137.987 41.9615L138.326 42.8681H139.84H141.354L140.78 41.4121C140.464 40.6113 139.248 37.5454 138.078 34.5989L135.95 29.2418L134.513 29.2422L133.077 29.2425L132.704 30.2037ZM106.47 31.6631C107.505 31.8126 107.93 32.0357 108.204 32.5724C108.492 33.1369 108.449 34.1468 108.118 34.6003C107.673 35.2088 107.211 35.334 105.247 35.378L103.462 35.4182V33.4838V31.5495L104.588 31.5516C105.208 31.5529 106.054 31.603 106.47 31.6631ZM120.172 33.3352C120.365 33.8337 120.784 34.9464 121.101 35.8077L121.678 37.3736H119.827H117.977L118.37 36.3022C118.586 35.7129 118.987 34.6002 119.26 33.8297C119.533 33.0591 119.771 32.4286 119.788 32.4286C119.805 32.4286 119.978 32.8366 120.172 33.3352ZM135.037 33.8848C135.33 34.6856 135.737 35.798 135.942 36.3571L136.315 37.3736H134.465H132.614L133.505 34.9038C133.995 33.5455 134.42 32.433 134.451 32.4316C134.481 32.4302 134.745 33.0842 135.037 33.8848ZM39.8352 49.6264V51H49.8901H59.9451V49.6264V48.2527H49.8901H39.8352V49.6264Z" fill="#F9F5E9"/>
</svg>
