<svg width="82" height="10" viewBox="0 0 82 10" xmlns="http://www.w3.org/2000/svg">
<path fill-rule="evenodd" clip-rule="evenodd" d="M59.3618 0.0512174L57.9923 0.0712114L52.9938 4.78349C50.2447 7.37524 47.9873 9.47639 47.9774 9.4527C47.9675 9.42894 48.8108 7.36175 49.8514 4.85881C50.892 2.35593 51.7588 0.254238 51.7775 0.188299C51.8095 0.0760045 51.6757 0.0684725 49.6423 0.0684725H47.473L44.8926 2.10464C43.4734 3.22451 41.6859 4.6601 40.9204 5.29484C40.155 5.92951 39.5108 6.43094 39.4889 6.4091C39.467 6.38718 39.7317 5.6459 40.077 4.76178L40.7049 3.15425L39.9344 1.61136L39.1639 0.0684725H36.9712H34.7786L32.8419 4.74282C31.7767 7.31369 30.8835 9.45201 30.857 9.4946C30.8305 9.53719 30.3004 7.43399 29.679 4.82088L28.5492 0.069705L26.14 0.0690887L23.7308 0.0684725L18.4892 5.01561L13.2475 9.96275L14.5521 9.98138L15.8565 10L17.2015 8.69683L18.5465 7.39373L21.8703 7.41153L25.1941 7.42927L25.3826 8.35365C25.4864 8.86205 25.6041 9.43983 25.6443 9.63751L25.7173 9.99699L29.2559 9.99644L32.7945 9.99589L34.0915 6.86868C34.8047 5.14879 35.4568 3.55448 35.5405 3.32578C35.6241 3.09715 35.707 2.9563 35.7246 3.01279C35.7423 3.06928 35.7861 3.22382 35.822 3.35618C35.9462 3.81358 38.2028 8.91848 38.2968 8.95449C38.3486 8.97442 38.4636 8.96291 38.5523 8.92895C38.7941 8.83631 44.8238 4.01954 45.4771 3.39706C45.7889 3.10002 46.0439 2.87763 46.0439 2.90289C46.0439 2.92823 45.9623 3.10961 45.8626 3.30606C45.6552 3.71491 43.0996 9.84895 43.0996 9.93824C43.0996 9.97056 45.2444 9.99699 47.8658 9.99699H52.6319L53.9674 8.69539L55.3029 7.3938L58.7655 7.41153L62.2282 7.42927L62.4957 8.69601C62.6428 9.39272 62.7714 9.97117 62.7816 9.98151C62.7918 9.99178 63.3375 9.99178 63.9942 9.98151L65.1883 9.96275L64.0506 5.16967C63.4248 2.53348 62.8913 0.29183 62.865 0.188299L62.8171 0L61.7742 0.0156117C61.2006 0.0242392 60.115 0.0402618 59.3618 0.0512174ZM4.39931 0.800923L4.09173 1.54063L6.93971 1.58151C9.31543 1.61554 9.85588 1.64149 10.1986 1.7379C11.0947 1.98995 11.5815 2.50151 11.6501 3.26319C11.6944 3.75496 11.5502 4.36642 11.1765 5.26978C10.5216 6.85328 10.0096 7.46282 9.00032 7.86051C8.1475 8.1965 7.85019 8.23163 5.56403 8.26634L3.39448 8.29928L4.18335 6.42635C4.61726 5.39625 4.99995 4.48331 5.03378 4.39765L5.09533 4.2418L4.02586 4.2607L2.95646 4.27953L1.76771 7.12114C1.11393 8.68403 0.578819 9.97288 0.578613 9.98521C0.578408 9.99753 2.52707 9.99411 4.90909 9.97747C8.97088 9.94919 9.28825 9.93824 10.017 9.80109C11.9088 9.44503 13.2594 8.75359 14.5136 7.49911C15.5134 6.49914 16.2041 5.35469 16.5344 4.15108C16.7439 3.3872 16.7094 2.45481 16.451 1.90217C16.094 1.13856 15.3482 0.615226 14.1532 0.28957L13.4853 0.10757L9.09611 0.0843582L4.70689 0.0611459L4.39931 0.800923ZM73.0906 0.113048C71.5577 0.345512 70.6602 0.59845 69.721 1.06269C67.9766 1.92504 66.6272 3.372 65.9642 5.09134C65.0568 7.4444 65.7819 9.17607 67.9018 9.71824C68.8109 9.9507 69.7743 9.99699 73.7064 9.99699H77.5165L77.8283 9.2151L78.1402 8.43314L75.4956 8.40233C72.5522 8.36809 72.1641 8.32324 71.38 7.92699C71.0263 7.74828 70.9023 7.64126 70.7694 7.40051C70.3719 6.67984 70.7175 5.11182 71.5433 3.88979C72.3111 2.75362 73.4608 1.98776 74.8194 1.70736C75.3444 1.59904 75.7498 1.57651 77.1864 1.57576C78.8636 1.57487 78.9186 1.57911 78.8784 1.70606C78.8554 1.77816 78.7164 2.11874 78.5694 2.46282C78.3785 2.90919 78.3263 3.09776 78.3869 3.12105C78.4337 3.13899 78.912 3.14508 79.4498 3.1346L80.4277 3.1155L81.0385 1.64334C81.3744 0.833653 81.6494 0.148038 81.6494 0.119827C81.6496 0.0691572 73.4228 0.0627208 73.0906 0.113048ZM61.4492 3.7716C61.6748 4.84183 61.8757 5.78682 61.8957 5.87152L61.9322 6.02558L59.3118 6.02524L56.6914 6.02483L58.8483 3.91088C60.0346 2.74814 61.0129 1.80336 61.0222 1.8113C61.0316 1.81925 61.2238 2.70138 61.4492 3.7716ZM24.5432 4.10007C24.7345 5.13112 24.8793 5.98662 24.8649 6.00107C24.8503 6.01552 23.7444 6.01921 22.407 6.00935L19.9755 5.99134L22.037 3.99743C23.6302 2.45645 24.1095 2.0287 24.1469 2.11443C24.1736 2.17544 24.3519 3.06901 24.5432 4.10007Z" fill="#F9F5E9"/>
</svg>
