<svg width="168" height="60" viewBox="0 0 168 60" xmlns="http://www.w3.org/2000/svg">
<path fill-rule="evenodd" clip-rule="evenodd" d="M109.296 23.0717L107.379 23.0997L100.381 29.6969C96.5326 33.3253 93.3722 36.2669 93.3583 36.2338C93.3444 36.2005 94.525 33.3065 95.9819 29.8023C97.4387 26.2983 98.6523 23.3559 98.6784 23.2636C98.7232 23.1064 98.5359 23.0959 95.6892 23.0959H92.6521L89.0396 25.9465C87.0526 27.5143 84.5502 29.5241 83.4785 30.4128C82.4069 31.3013 81.505 32.0033 81.4744 31.9727C81.4438 31.9421 81.8143 30.9043 82.2978 29.6665L83.1769 27.416L82.0981 25.2559L81.0194 23.0959H77.9496H74.8799L72.1686 29.6399C70.6773 33.2392 69.4269 36.2328 69.3898 36.2924C69.3527 36.3521 68.6105 33.4076 67.7406 29.7492L66.1588 23.0976L62.786 23.0967L59.4131 23.0959L52.0748 30.0219L44.7365 36.9479L46.5628 36.9739L48.3891 37L50.2721 35.1756L52.155 33.3512L56.8083 33.3761L61.4616 33.401L61.7256 34.6951C61.8709 35.4069 62.0357 36.2158 62.0919 36.4925L62.1942 36.9958L67.1482 36.995L72.1023 36.9942L73.918 32.6162C74.9166 30.2083 75.8295 27.9763 75.9466 27.6561C76.0636 27.336 76.1797 27.1388 76.2044 27.2179C76.2291 27.297 76.2905 27.5134 76.3408 27.6987C76.5146 28.339 79.6739 35.4859 79.8054 35.5363C79.878 35.5642 80.039 35.5481 80.1632 35.5005C80.5017 35.3708 88.9432 28.6274 89.8578 27.7559C90.2944 27.34 90.6515 27.0287 90.6515 27.064C90.6515 27.0995 90.5372 27.3535 90.3976 27.6285C90.1072 28.2009 86.5294 36.7885 86.5294 36.9135C86.5294 36.9588 89.5321 36.9958 93.2021 36.9958H99.8746L101.744 35.1735L103.614 33.3513L108.462 33.3761L113.309 33.401L113.684 35.1744C113.89 36.1498 114.07 36.9596 114.084 36.9741C114.098 36.9885 114.862 36.9885 115.782 36.9741L117.454 36.9479L115.861 30.2375C114.985 26.5469 114.238 23.4086 114.201 23.2636L114.134 23L112.674 23.0219C111.871 23.0339 110.351 23.0564 109.296 23.0717ZM32.349 24.1213L31.9184 25.1569L35.9055 25.2141C39.2315 25.2618 39.9882 25.2981 40.468 25.4331C41.7225 25.7859 42.4041 26.5021 42.5001 27.5685C42.5622 28.2569 42.3602 29.113 41.8371 30.3777C40.9201 32.5946 40.2034 33.4479 38.7904 34.0047C37.5964 34.4751 37.1802 34.5243 33.9796 34.5729L30.9422 34.619L32.0466 31.9969C32.6541 30.5548 33.1899 29.2766 33.2372 29.1567L33.3234 28.9385L31.8261 28.965L30.329 28.9913L28.6647 32.9696C27.7494 35.1576 27.0003 36.962 27 36.9793C26.9997 36.9965 29.7278 36.9918 33.0627 36.9685C38.7492 36.9289 39.1935 36.9135 40.2137 36.7215C42.8622 36.223 44.7531 35.255 46.509 33.4988C47.9086 32.0988 48.8757 30.4966 49.338 28.8115C49.6314 27.7421 49.5831 26.4367 49.2213 25.663C48.7215 24.594 47.6774 23.8613 46.0044 23.4054L45.0693 23.1506L38.9245 23.1181L32.7796 23.0856L32.349 24.1213ZM128.517 23.1583C126.371 23.4837 125.114 23.8378 123.799 24.4878C121.357 25.6951 119.468 27.7208 118.54 30.1279C117.269 33.4222 118.285 35.8465 121.252 36.6055C122.525 36.931 123.874 36.9958 129.379 36.9958H134.713L135.15 35.9011L135.586 34.8064L131.884 34.7633C127.763 34.7153 127.22 34.6525 126.122 34.0978C125.627 33.8476 125.453 33.6978 125.267 33.3607C124.711 32.3518 125.194 30.1565 126.351 28.4457C127.425 26.8551 129.035 25.7829 130.937 25.3903C131.672 25.2387 132.24 25.2071 134.251 25.2061C136.599 25.2048 136.676 25.2108 136.62 25.3885C136.588 25.4894 136.393 25.9662 136.187 26.4479C135.92 27.0729 135.847 27.3369 135.932 27.3695C135.997 27.3946 136.667 27.4031 137.42 27.3884L138.789 27.3617L139.644 25.3007C140.114 24.1671 140.499 23.2073 140.499 23.1678C140.499 23.0968 128.982 23.0878 128.517 23.1583ZM112.219 28.2802C112.535 29.7786 112.816 31.1015 112.844 31.2201L112.895 31.4358L109.226 31.4353L105.558 31.4348L108.578 28.4752C110.238 26.8474 111.608 25.5247 111.621 25.5358C111.634 25.5469 111.903 26.7819 112.219 28.2802ZM60.5505 28.7401C60.8183 30.1836 61.021 31.3813 61.0007 31.4015C60.9804 31.4217 59.4321 31.4269 57.5598 31.4131L54.1556 31.3879L57.0417 28.5964C59.2723 26.439 59.9433 25.8402 59.9956 25.9602C60.0329 26.0456 60.2826 27.2966 60.5505 28.7401Z" fill="#F9F5E9"/>
</svg>
