<svg width="188" height="72" viewBox="0 0 188 72" xmlns="http://www.w3.org/2000/svg">
<path fill-rule="evenodd" clip-rule="evenodd" d="M120.296 29.0717L118.379 29.0997L111.381 35.6969C107.533 39.3253 104.372 42.2669 104.358 42.2338C104.344 42.2005 105.525 39.3065 106.982 35.8023C108.439 32.2983 109.652 29.3559 109.678 29.2636C109.723 29.1064 109.536 29.0959 106.689 29.0959H103.652L100.04 31.9465C98.0526 33.5143 95.5502 35.5241 94.4785 36.4128C93.4069 37.3013 92.505 38.0033 92.4744 37.9727C92.4438 37.9421 92.8143 36.9043 93.2978 35.6665L94.1769 33.416L93.0981 31.2559L92.0194 29.0959H88.9496H85.8799L83.1686 35.6399C81.6773 39.2392 80.4269 42.2328 80.3898 42.2924C80.3527 42.3521 79.6105 39.4076 78.7406 35.7492L77.1588 29.0976L73.786 29.0967L70.4131 29.0959L63.0748 36.0219L55.7365 42.9479L57.5628 42.9739L59.3891 43L61.2721 41.1756L63.155 39.3512L67.8083 39.3761L72.4616 39.401L72.7256 40.6951C72.8709 41.4069 73.0357 42.2158 73.0919 42.4925L73.1942 42.9958L78.1482 42.995L83.1023 42.9942L84.918 38.6162C85.9166 36.2083 86.8295 33.9763 86.9466 33.6561C87.0636 33.336 87.1797 33.1388 87.2044 33.2179C87.2291 33.297 87.2905 33.5134 87.3408 33.6987C87.5146 34.339 90.6739 41.4859 90.8054 41.5363C90.878 41.5642 91.039 41.5481 91.1632 41.5005C91.5017 41.3708 99.9432 34.6274 100.858 33.7559C101.294 33.34 101.651 33.0287 101.651 33.064C101.651 33.0995 101.537 33.3535 101.398 33.6285C101.107 34.2009 97.5294 42.7885 97.5294 42.9135C97.5294 42.9588 100.532 42.9958 104.202 42.9958H110.875L112.744 41.1735L114.614 39.3513L119.462 39.3761L124.309 39.401L124.684 41.1744C124.89 42.1498 125.07 42.9596 125.084 42.9741C125.098 42.9885 125.862 42.9885 126.782 42.9741L128.454 42.9479L126.861 36.2375C125.985 32.5469 125.238 29.4086 125.201 29.2636L125.134 29L123.674 29.0219C122.871 29.0339 121.351 29.0564 120.296 29.0717ZM43.349 30.1213L42.9184 31.1569L46.9055 31.2141C50.2315 31.2618 50.9882 31.2981 51.468 31.4331C52.7225 31.7859 53.4041 32.5021 53.5001 33.5685C53.5622 34.2569 53.3602 35.113 52.8371 36.3777C51.9201 38.5946 51.2034 39.4479 49.7904 40.0047C48.5964 40.4751 48.1802 40.5243 44.9796 40.5729L41.9422 40.619L43.0466 37.9969C43.6541 36.5547 44.1899 35.2766 44.2372 35.1567L44.3234 34.9385L42.8261 34.965L41.329 34.9913L39.6647 38.9696C38.7494 41.1576 38.0003 42.962 38 42.9793C37.9997 42.9965 40.7278 42.9918 44.0627 42.9685C49.7492 42.9289 50.1935 42.9135 51.2137 42.7215C53.8622 42.223 55.7531 41.255 57.509 39.4988C58.9086 38.0988 59.8757 36.4966 60.338 34.8115C60.6314 33.7421 60.5831 32.4367 60.2213 31.663C59.7215 30.594 58.6774 29.8613 57.0044 29.4054L56.0693 29.1506L49.9245 29.1181L43.7796 29.0856L43.349 30.1213ZM139.517 29.1583C137.371 29.4837 136.114 29.8378 134.799 30.4878C132.357 31.6951 130.468 33.7208 129.54 36.1279C128.269 39.4222 129.285 41.8465 132.252 42.6055C133.525 42.931 134.874 42.9958 140.379 42.9958H145.713L146.15 41.9011L146.586 40.8064L142.884 40.7633C138.763 40.7153 138.22 40.6525 137.122 40.0978C136.627 39.8476 136.453 39.6978 136.267 39.3607C135.711 38.3518 136.194 36.1565 137.351 34.4457C138.425 32.8551 140.035 31.7829 141.937 31.3903C142.672 31.2387 143.24 31.2071 145.251 31.2061C147.599 31.2048 147.676 31.2108 147.62 31.3885C147.588 31.4894 147.393 31.9662 147.187 32.4479C146.92 33.0729 146.847 33.3369 146.932 33.3695C146.997 33.3946 147.667 33.4031 148.42 33.3884L149.789 33.3617L150.644 31.3007C151.114 30.1671 151.499 29.2073 151.499 29.1678C151.499 29.0968 139.982 29.0878 139.517 29.1583ZM123.219 34.2802C123.535 35.7786 123.816 37.1015 123.844 37.2201L123.895 37.4358L120.226 37.4353L116.558 37.4348L119.578 34.4752C121.238 32.8474 122.608 31.5247 122.621 31.5358C122.634 31.5469 122.903 32.7819 123.219 34.2802ZM71.5505 34.7401C71.8183 36.1836 72.021 37.3813 72.0007 37.4015C71.9804 37.4217 70.4321 37.4269 68.5598 37.4131L65.1556 37.3879L68.0417 34.5964C70.2723 32.439 70.9433 31.8402 70.9956 31.9602C71.0329 32.0456 71.2826 33.2966 71.5505 34.7401Z" fill="#F9F5E9"/>
</svg>
