<svg width="62" height="40" viewBox="0 0 62 40" xmlns="http://www.w3.org/2000/svg">
<path fill-rule="evenodd" clip-rule="evenodd" d="M60.3856 0.0403852C60.3731 0.0749176 59.9019 0.600882 59.3385 1.20932C58.775 1.81769 57.8415 2.83202 57.264 3.46337C55.8209 5.04094 55.6855 5.18858 54.7778 6.17406C54.339 6.65049 53.0464 8.05885 51.9054 9.30374C50.7644 10.5486 49.6408 11.7674 49.4085 12.0122L48.9862 12.4573L47.6532 11.2534C46.92 10.5912 46.2913 10.0184 46.256 9.98041C46.2207 9.94243 46.0484 9.78375 45.873 9.62775C45.5462 9.33694 44.5794 8.46143 43.8956 7.83685C43.6841 7.64376 43.4124 7.39961 43.2917 7.29429C43.0875 7.11614 43.0791 7.1139 43.1709 7.26237C43.4419 7.70057 47 13.3666 48.4466 15.6635C48.9797 16.5101 49.416 17.2353 49.416 17.275C49.416 17.3148 48.4916 18.8482 47.3616 20.6826C44.2464 25.7401 43.1606 27.5117 43.1606 27.5373C43.1606 27.55 43.5986 27.5603 44.134 27.5601L45.1074 27.5596L47.0224 24.3058C48.0756 22.5162 48.9516 21.052 48.9692 21.0522C48.9868 21.0522 49.116 21.2648 49.2564 21.5247C49.3969 21.7845 50.2155 23.2484 51.0756 24.7776L52.6395 27.5581L54.1212 27.5593L55.6029 27.5605L54.9434 26.4594C52.5053 22.3886 49.5348 17.3988 49.5081 17.3293C49.4907 17.2837 50.2565 16.0269 51.21 14.5364C52.1636 13.0458 54.042 10.1028 55.3841 7.99643C56.7263 5.89002 58.4186 3.2369 59.1447 2.10052C59.8708 0.964206 60.4522 0.0216829 60.4366 0.00610818C60.4209 -0.00953033 60.398 0.0059167 60.3856 0.0403852ZM0.649414 22.4211V27.5711L3.72924 27.542C7.16052 27.5096 7.32795 27.493 8.60316 27.0601C10.5058 26.4141 11.7962 25.1733 12.2316 23.5711C12.4762 22.6712 12.4098 21.4155 12.0763 20.6378C11.3891 19.0345 9.6893 17.929 7.19863 17.4655C6.56875 17.3483 6.16515 17.3301 3.56967 17.3023L0.649414 17.271V22.4211ZM15.8411 20.8786C15.8411 23.9986 15.8547 24.5192 15.944 24.8201C16.347 26.1785 17.4507 27.131 19.1284 27.5684C20.1416 27.8326 21.9695 27.8466 23.1193 27.599C24.5178 27.298 25.6313 26.5457 26.1244 25.5688C26.4986 24.8274 26.5008 24.8004 26.5008 20.8768V17.2838H25.6072H24.7136V20.7492C24.7136 24.4394 24.7028 24.5884 24.3913 25.2355C23.9497 26.1531 22.9181 26.7409 21.7422 26.7451C20.8308 26.7484 20.2143 26.5305 19.6181 25.9944C19.2286 25.6442 19.001 25.2814 18.8337 24.744C18.722 24.3851 18.7135 24.1057 18.7135 20.8207V17.2838H17.2773H15.8411V20.8786ZM29.9477 22.4222V27.5605H33.1027C35.0235 27.5605 36.453 27.5334 36.757 27.4912C38.3419 27.2712 39.59 26.49 40.0117 25.4541C40.0893 25.2636 40.1287 25.0051 40.1287 24.6868C40.1287 24.046 39.8705 23.4976 39.3506 23.0342C38.9985 22.7204 38.1791 22.2626 37.9696 22.2626C37.7783 22.2626 37.8594 22.1709 38.2471 21.9488C39.1239 21.4468 39.5421 20.8098 39.5491 19.9659C39.5523 19.567 39.5234 19.4255 39.3778 19.1279C38.9182 18.1889 37.6941 17.5349 36.0541 17.352C35.7143 17.3141 34.2204 17.2838 32.6949 17.2838H29.9477V22.4222ZM58.9906 22.4222V27.5605H60.4268H61.863V22.4222V17.2838H60.4268H58.9906V22.4222ZM6.13789 18.213C7.58231 18.5534 8.70663 19.6758 9.04346 21.1136C9.19187 21.7473 9.19238 23.0019 9.04435 23.6979C8.7889 24.8995 8.05351 25.8356 6.96724 26.3421C6.2577 26.673 5.83929 26.7472 4.63883 26.7553L3.55371 26.7626L3.5373 22.4381L3.5209 18.1136L4.62242 18.1145C5.38456 18.1152 5.85148 18.1455 6.13789 18.213ZM35.0394 18.2098C36.0681 18.4523 36.5331 18.9247 36.6261 19.8214C36.6943 20.4795 36.4389 21.0683 35.9428 21.3966C35.5225 21.6747 35.0768 21.7519 33.8918 21.7519H32.82V19.9328V18.1136L33.7296 18.1145C34.3059 18.1151 34.7858 18.15 35.0394 18.2098ZM35.4882 22.8669C35.9993 22.9913 36.2377 23.1123 36.5436 23.4026C36.9771 23.814 37.0648 24.0519 37.0648 24.8158C37.0648 25.4129 37.0473 25.5174 36.9044 25.7733C36.7168 26.1091 36.2749 26.4291 35.7978 26.5743C35.3359 26.715 34.38 26.8032 33.5541 26.7813L32.852 26.7626L32.835 24.8164C32.8257 23.7461 32.8337 22.8298 32.8527 22.7802C32.8814 22.7054 33.0729 22.6968 33.9866 22.7296C34.617 22.7522 35.2575 22.8107 35.4882 22.8669ZM16.3517 32.536C15.4191 32.6681 14.716 33.0197 14.0534 33.6855C11.7614 35.9885 13.3669 39.8097 16.7032 39.9919C18.9274 40.1133 20.7609 38.5465 20.8684 36.4327C20.886 36.0871 20.8673 35.6718 20.8249 35.4676C20.5574 34.1791 19.3764 32.9828 18.0377 32.6442C17.5513 32.5212 16.7978 32.4728 16.3517 32.536ZM58.7991 32.5204C58.352 32.5694 57.7893 32.8003 57.5032 33.0522C57.0936 33.4128 56.926 33.7984 56.9217 34.3904C56.915 35.3207 57.3188 35.7637 58.9587 36.6256C60.3644 37.3643 60.7684 37.7349 60.8264 38.3384C60.8946 39.0488 60.2824 39.5607 59.3646 39.5607C58.5949 39.5607 57.8988 39.1298 57.5641 38.4462C57.4688 38.2517 57.3798 38.0926 57.3662 38.0926C57.3527 38.0926 57.2081 38.1498 57.0451 38.2197L56.7485 38.3468L56.955 38.7343C57.3766 39.5253 58.0579 39.9306 59.0682 39.9914C60.0779 40.0522 60.8797 39.7892 61.3798 39.233C61.996 38.5477 62.03 37.5817 61.4605 36.9399C61.1626 36.604 60.6489 36.2579 59.6663 35.7308C58.1352 34.9095 57.6771 34.427 57.8432 33.8103C57.9896 33.2665 58.4878 32.9575 59.214 32.96C59.9919 32.9627 60.5508 33.3127 60.9122 34.0234C61.0149 34.2253 61.1122 34.3904 61.1286 34.3904C61.2497 34.3904 61.6715 34.1693 61.6715 34.1057C61.6715 33.9479 61.3365 33.395 61.0824 33.1334C60.7683 32.8102 60.3614 32.6254 59.7778 32.541C59.34 32.4778 59.2125 32.4751 58.7991 32.5204ZM0.649414 36.2415V39.816H1.25581H1.8622V38.158V36.5L2.06965 36.5463C2.18377 36.5717 2.66487 36.5916 3.13881 36.5905C4.15927 36.588 4.53102 36.4759 5.04198 36.0165C5.48037 35.6224 5.64888 35.212 5.61601 34.6189C5.57542 33.8866 5.22588 33.3641 4.54647 33.0198C3.97173 32.7285 3.54701 32.6689 2.03773 32.6679L0.649414 32.667V36.2415ZM6.71332 36.2415V39.816H7.31972H7.92611V38.1216V36.4272L8.35224 36.446L8.77837 36.4649L10.0169 38.1404L11.2554 39.816H11.9206C12.2864 39.816 12.5857 39.8019 12.5857 39.7847C12.5857 39.7675 12.0256 39.0075 11.341 38.0958C10.6565 37.1841 10.0963 36.4142 10.0963 36.385C10.0963 36.3557 10.2483 36.2801 10.4339 36.217C11.5505 35.8374 12.0641 34.8235 11.6498 33.8159C11.525 33.5123 11.211 33.1977 10.8476 33.0119C10.2841 32.7239 9.86573 32.6689 8.2293 32.6679L6.71332 32.667V36.2415ZM22.4157 36.2415V39.816H23.022H23.6284V38.1496C23.6284 36.5881 23.6355 36.486 23.7401 36.5278C23.8015 36.5523 24.1965 36.5878 24.6178 36.6067C25.4834 36.6453 25.985 36.5536 26.4735 36.2673C27.2987 35.7838 27.6122 34.759 27.1975 33.9009C26.9291 33.3453 26.2307 32.881 25.4453 32.7358C25.2406 32.6979 24.4752 32.667 23.7444 32.667H22.4157V36.2415ZM28.4796 36.2415V39.816H30.969H33.4584V39.6245V39.433H31.5766H29.6948L29.6596 39.2894C29.6403 39.2104 29.6325 38.4708 29.6424 37.6458L29.6604 36.1457L30.9211 36.1284L32.1817 36.1111V35.9223V35.7335L30.9211 35.7162L29.6604 35.6989V34.4223V33.1457L31.5594 33.1288L33.4584 33.1119V32.8894V32.667H30.969H28.4796V36.2415ZM34.7988 36.2368V39.816H35.4052H36.0116V38.1216V36.4272L36.4412 36.446L36.8709 36.4649L38.1096 38.1404L39.3483 39.816H40.0098C40.3736 39.816 40.6712 39.8019 40.6712 39.7847C40.6712 39.7675 40.1111 39.0075 39.4265 38.0958C38.7419 37.1841 38.1818 36.4083 38.1818 36.3718C38.1818 36.3352 38.2241 36.3053 38.2758 36.3053C38.4847 36.3053 39.1254 35.9398 39.4058 35.6606C39.7069 35.3608 39.9053 34.9072 39.9053 34.5181C39.9053 33.8014 39.3545 33.1047 38.5866 32.8501C38.1869 32.7176 38.0079 32.7033 36.4744 32.6815L34.7988 32.6576V36.2368ZM40.5436 32.8904V33.1138H41.8521H43.1606V36.4649V39.816H43.7351H44.3096V36.4649V33.1138H45.6181H46.9266V32.8904V32.667H43.7351H40.5436V32.8904ZM48.0756 36.2415V39.816H48.65H49.2245V36.2415V32.667H48.65H48.0756V36.2415ZM51.0756 36.2415V39.816H53.565H56.0544V39.6245V39.433H54.1714H52.2884V37.7734V36.1138H53.5331H54.7778V35.9223V35.7308H53.5331H52.2884V34.4223V33.1138H54.1714H56.0544V32.8904V32.667H53.565H51.0756V36.2415ZM18.0022 33.074C18.9603 33.5685 19.4801 34.688 19.479 36.2548C19.4782 37.4193 19.1376 38.4243 18.5419 39.02C17.6713 39.8906 16.1811 39.8906 15.3105 39.02C14.9195 38.629 14.6377 38.0586 14.4957 37.3707C14.1132 35.5172 14.6716 33.6784 15.7906 33.1068C16.2276 32.8835 16.347 32.8616 17.022 32.88C17.574 32.8952 17.7065 32.9214 18.0022 33.074ZM9.54064 33.1818C9.67385 33.2187 9.90811 33.3694 10.0612 33.5165C10.6641 34.0958 10.661 35.0401 10.0543 35.6157C9.71802 35.9348 9.29974 36.0728 8.58037 36.1018L7.92611 36.1283V34.621V33.1138L8.61229 33.1142C8.98965 33.1144 9.40742 33.1447 9.54064 33.1818ZM37.7694 33.2493C38.6497 33.6631 38.885 34.8064 38.2351 35.5115C37.8636 35.9146 37.4538 36.0686 36.6658 36.1012L36.0116 36.1283V34.621V33.1138H36.7463C37.3622 33.1138 37.5278 33.1357 37.7694 33.2493ZM3.39413 33.3104C4.17823 33.6653 4.54315 34.5336 4.25336 35.3549C4.1354 35.6893 3.89903 35.9512 3.55371 36.1302C3.25128 36.287 2.4841 36.3163 2.10156 36.1856L1.8622 36.1039V34.6407V33.1776L2.48454 33.179C2.97196 33.1801 3.16919 33.2086 3.39413 33.3104ZM25.285 33.3704C26.1115 33.8306 26.3525 34.9561 25.7908 35.7317C25.4601 36.1881 24.7776 36.3814 24.0433 36.2265L23.6604 36.1457L23.6432 34.6546L23.6261 33.1634L24.3134 33.1878C24.8985 33.2085 25.0431 33.2357 25.285 33.3704Z" fill="#F9F5E9"/>
</svg>
