<svg width="168" height="60" viewBox="0 0 168 60" xmlns="http://www.w3.org/2000/svg">
<path fill-rule="evenodd" clip-rule="evenodd" d="M120.67 5.05048C120.655 5.09365 120.066 5.7511 119.361 6.51164C118.657 7.27211 117.49 8.54002 116.768 9.32921C114.964 11.3012 114.795 11.4857 113.66 12.7176C113.112 13.3131 111.496 15.0736 110.07 16.6297C108.644 18.1857 107.239 19.7093 106.949 20.0153L106.421 20.5716L104.755 19.0667C103.838 18.239 103.052 17.523 103.008 17.4755C102.964 17.428 102.749 17.2297 102.53 17.0347C102.121 16.6712 100.913 15.5768 100.058 14.7961C99.7933 14.5547 99.4537 14.2495 99.3029 14.1179C99.0476 13.8952 99.0371 13.8924 99.1518 14.078C99.4905 14.6257 103.938 21.7083 105.746 24.5794C106.413 25.6376 106.958 26.5442 106.958 26.5938C106.958 26.6435 105.803 28.5603 104.39 30.8533C100.496 37.1752 99.139 39.3897 99.139 39.4216C99.139 39.4376 99.6865 39.4504 100.356 39.4501L101.573 39.4495L103.966 35.3822C105.283 33.1453 106.378 31.315 106.4 31.3152C106.422 31.3153 106.583 31.581 106.759 31.9059C106.934 32.2307 107.958 34.0605 109.033 35.972L110.988 39.4476L112.84 39.4491L114.692 39.4506L113.868 38.0743C110.82 32.9858 107.107 26.7485 107.073 26.6616C107.052 26.6047 108.009 25.0336 109.201 23.1705C110.393 21.3073 112.741 17.6285 114.418 14.9955C116.096 12.3625 118.212 9.04612 119.119 7.62565C120.027 6.20526 120.753 5.0271 120.734 5.00764C120.714 4.98809 120.686 5.0074 120.67 5.05048ZM46 33.0263V39.4639L49.8498 39.4275C54.1389 39.387 54.3482 39.3663 55.9422 38.8251C58.3204 38.0177 59.9334 36.4666 60.4777 34.4639C60.7835 33.339 60.7004 31.7694 60.2836 30.7972C59.4246 28.7932 57.2999 27.4113 54.1865 26.8319C53.3992 26.6853 52.8947 26.6627 49.6503 26.6279L46 26.5888V33.0263ZM64.9896 31.0982C64.9896 34.9983 65.0066 35.6491 65.1182 36.0252C65.6219 37.7231 67.0016 38.9138 69.0987 39.4605C70.3652 39.7907 72.6501 39.8083 74.0874 39.4988C75.8355 39.1225 77.2273 38.1822 77.8437 36.961C78.3115 36.0342 78.3143 36.0005 78.3143 31.096V26.6047H77.1972H76.0802V30.9364C76.0802 35.5492 76.0668 35.7355 75.6774 36.5444C75.1254 37.6913 73.8358 38.4262 72.366 38.4314C71.2267 38.4355 70.4561 38.1631 69.7108 37.493C69.224 37.0552 68.9395 36.6018 68.7304 35.93C68.5908 35.4814 68.5801 35.1322 68.5801 31.0259V26.6047H66.7848H64.9896V31.0982ZM82.6228 33.0277V39.4506H86.5666C88.9677 39.4506 90.7544 39.4167 91.1345 39.364C93.1156 39.089 94.6757 38.1125 95.2029 36.8176C95.2998 36.5795 95.3491 36.2564 95.3491 35.8585C95.3491 35.0575 95.0263 34.372 94.3765 33.7928C93.9364 33.4005 92.9121 32.8282 92.6502 32.8282C92.4111 32.8282 92.5124 32.7136 92.9971 32.4361C94.0931 31.8084 94.6159 31.0122 94.6246 29.9574C94.6286 29.4588 94.5925 29.2819 94.4104 28.9099C93.836 27.7361 92.3059 26.9186 90.2559 26.69C89.8311 26.6426 87.9638 26.6047 86.0568 26.6047H82.6228V33.0277ZM118.926 33.0277V39.4506H120.722H122.517V33.0277V26.6047H120.722H118.926V33.0277ZM52.8606 27.7663C54.6661 28.1918 56.0715 29.5948 56.4926 31.392C56.6781 32.1842 56.6787 33.7523 56.4937 34.6223C56.1744 36.1244 55.2551 37.2945 53.8973 37.9276C53.0104 38.3412 52.4873 38.434 50.9868 38.4441L49.6304 38.4533L49.6099 33.0476L49.5894 27.642L50.9663 27.6432C51.9189 27.644 52.5026 27.6819 52.8606 27.7663ZM88.9875 27.7623C90.2733 28.0654 90.8547 28.6559 90.9708 29.7768C91.0561 30.5993 90.7368 31.3354 90.1168 31.7457C89.5914 32.0934 89.0342 32.1899 87.5529 32.1899H86.2133V29.9159V27.642L87.3503 27.6432C88.0706 27.6439 88.6705 27.6875 88.9875 27.7623ZM89.5484 33.5836C90.1873 33.7391 90.4854 33.8904 90.8677 34.2532C91.4096 34.7676 91.5192 35.0648 91.5192 36.0198C91.5192 36.7661 91.4974 36.8967 91.3187 37.2166C91.0842 37.6364 90.5318 38.0363 89.9355 38.2179C89.3581 38.3938 88.1632 38.504 87.1309 38.4766L86.2532 38.4533L86.232 36.0205C86.2204 34.6826 86.2304 33.5372 86.2541 33.4753C86.29 33.3817 86.5294 33.371 87.6715 33.412C88.4595 33.4402 89.2602 33.5134 89.5484 33.5836ZM65.6279 45.67C64.4621 45.8351 63.5833 46.2746 62.755 47.1069C59.8899 49.9857 61.8969 54.7621 66.0672 54.9898C68.8475 55.1417 71.1394 53.1832 71.2737 50.5409C71.2958 50.1088 71.2723 49.5897 71.2193 49.3345C70.8849 47.7239 69.4088 46.2285 67.7354 45.8053C67.1273 45.6515 66.1855 45.591 65.6279 45.67ZM118.687 45.6505C118.128 45.7118 117.425 46.0004 117.067 46.3152C116.555 46.766 116.346 47.248 116.34 47.988C116.332 49.1508 116.837 49.7046 118.887 50.7819C120.644 51.7054 121.149 52.1686 121.221 52.9231C121.307 53.811 120.541 54.4508 119.394 54.4508C118.432 54.4508 117.562 53.9122 117.143 53.0577C117.024 52.8146 116.913 52.6157 116.896 52.6157C116.879 52.6157 116.698 52.6872 116.495 52.7747L116.124 52.9335L116.382 53.4179C116.909 54.4066 117.761 54.9132 119.024 54.9893C120.286 55.0653 121.288 54.7365 121.913 54.0413C122.683 53.1846 122.726 51.9771 122.014 51.1748C121.641 50.7551 120.999 50.3224 119.771 49.6635C117.857 48.6369 117.285 48.0338 117.492 47.2629C117.675 46.5831 118.298 46.1968 119.206 46.1999C120.178 46.2034 120.877 46.6408 121.329 47.5292C121.457 47.7816 121.579 47.988 121.599 47.988C121.75 47.988 122.278 47.7116 122.278 47.6321C122.278 47.4348 121.859 46.7438 121.541 46.4168C121.149 46.0128 120.64 45.7818 119.91 45.6763C119.363 45.5972 119.204 45.5939 118.687 45.6505ZM46 50.3019V54.77H46.758H47.516V52.6975V50.625L47.7753 50.6828C47.918 50.7147 48.5193 50.7395 49.1117 50.7381C50.3873 50.735 50.852 50.5949 51.4907 50.0207C52.0387 49.528 52.2493 49.015 52.2082 48.2736C52.1575 47.3583 51.7206 46.7051 50.8713 46.2747C50.1529 45.9106 49.622 45.8362 47.7354 45.8349L46 45.8337V50.3019ZM53.5799 50.3019V54.77H54.3379H55.0959V52.6519V50.534L55.6285 50.5575L56.1612 50.5811L57.7093 52.6756L59.2575 54.77H60.0889C60.5463 54.77 60.9204 54.7524 60.9204 54.7309C60.9204 54.7094 60.2203 53.7594 59.3645 52.6198C58.5088 51.4802 57.8087 50.5178 57.8087 50.4812C57.8087 50.4446 57.9986 50.3501 58.2306 50.2713C59.6264 49.7968 60.2683 48.5294 59.7505 47.2699C59.5945 46.8903 59.202 46.4971 58.7477 46.2649C58.0433 45.9049 57.5204 45.8362 55.4749 45.8349L53.5799 45.8337V50.3019ZM73.2078 50.3019V54.77H73.9658H74.7238V52.687C74.7238 50.7351 74.7326 50.6074 74.8634 50.6597C74.9402 50.6904 75.4339 50.7348 75.9605 50.7583C77.0425 50.8067 77.6695 50.692 78.2801 50.3342C79.3116 49.7297 79.7035 48.4488 79.1851 47.3761C78.8496 46.6816 77.9766 46.1012 76.9949 45.9197C76.739 45.8724 75.7822 45.8337 74.8687 45.8337H73.2078V50.3019ZM80.7877 50.3019V54.77H83.8994H87.0112V54.5306V54.2913H84.6589H82.3067L82.2627 54.1117C82.2386 54.013 82.2289 53.0885 82.2413 52.0572L82.2638 50.1822L83.8396 50.1606L85.4154 50.1389V49.9029V49.6669L83.8396 49.6453L82.2638 49.6237V48.0279V46.4321L84.6375 46.411L87.0112 46.3898V46.1118V45.8337H83.8994H80.7877V50.3019ZM88.6867 50.296V54.77H89.4447H90.2027V52.6519V50.534L90.7398 50.5575L91.2768 50.5811L92.8252 52.6756L94.3736 54.77H95.2005C95.6552 54.77 96.0273 54.7524 96.0273 54.7309C96.0273 54.7094 95.3271 53.7594 94.4714 52.6198C93.6157 51.4802 92.9155 50.5103 92.9155 50.4647C92.9155 50.419 92.9684 50.3816 93.033 50.3816C93.2941 50.3816 94.0949 49.9247 94.4455 49.5758C94.8219 49.2009 95.0698 48.634 95.0698 48.1476C95.0698 47.2517 94.3813 46.3808 93.4215 46.0626C92.9219 45.897 92.6982 45.8791 90.7812 45.8518L88.6867 45.822V50.296ZM95.8677 46.113V46.3922H97.5033H99.139V50.5811V54.77H99.8571H100.575V50.5811V46.3922H102.211H103.847V46.113V45.8337H99.8571H95.8677V46.113ZM105.283 50.3019V54.77H106.001H106.719V50.3019V45.8337H106.001H105.283V50.3019ZM109.033 50.3019V54.77H112.144H115.256V54.5306V54.2913H112.902H110.549V52.2168V50.1423H112.105H113.66V49.9029V49.6635H112.105H110.549V48.0279V46.3922H112.902H115.256V46.113V45.8337H112.144H109.033V50.3019ZM67.6909 46.3425C68.8886 46.9606 69.5383 48.36 69.537 50.3185C69.536 51.7742 69.1103 53.0304 68.3656 53.775C67.2774 54.8633 65.4146 54.8633 64.3264 53.775C63.8376 53.2863 63.4854 52.5733 63.3079 51.7134C62.8297 49.3965 63.5277 47.098 64.9265 46.3835C65.4727 46.1044 65.6219 46.077 66.4657 46.1C67.1558 46.119 67.3213 46.1517 67.6909 46.3425ZM57.114 46.4772C57.2805 46.5234 57.5734 46.7117 57.7648 46.8956C58.5183 47.6197 58.5145 48.8001 57.7562 49.5196C57.3358 49.9186 56.8129 50.091 55.9137 50.1273L55.0959 50.1604V48.2763V46.3922L55.9536 46.3927C56.4253 46.3929 56.9475 46.4309 57.114 46.4772ZM92.3999 46.5616C93.5004 47.0789 93.7945 48.508 92.9821 49.3893C92.5177 49.8933 92.0054 50.0857 91.0205 50.1265L90.2027 50.1604V48.2763V46.3922H91.1212C91.891 46.3922 92.0979 46.4197 92.3999 46.5616ZM49.4309 46.6381C50.411 47.0817 50.8672 48.167 50.5049 49.1936C50.3575 49.6116 50.062 49.939 49.6304 50.1628C49.2523 50.3587 48.2934 50.3954 47.8152 50.232L47.516 50.1299V48.3009V46.472L48.2939 46.4738C48.9032 46.4751 49.1497 46.5108 49.4309 46.6381ZM76.7945 46.713C77.8276 47.2883 78.1289 48.6952 77.4267 49.6646C77.0133 50.2352 76.1603 50.4768 75.2424 50.2832L74.7637 50.1822L74.7422 48.3182L74.7208 46.4542L75.58 46.4847C76.3114 46.5106 76.4921 46.5446 76.7945 46.713Z" fill="#F9F5E9"/>
</svg>
