<svg width="188" height="72" viewBox="0 0 188 72" xmlns="http://www.w3.org/2000/svg">
<path fill-rule="evenodd" clip-rule="evenodd" d="M130.67 11.0505C130.655 11.0936 130.066 11.7511 129.361 12.5116C128.657 13.2721 127.49 14.54 126.768 15.3292C124.964 17.3012 124.795 17.4857 123.66 18.7176C123.112 19.3131 121.496 21.0736 120.07 22.6297C118.644 24.1857 117.239 25.7093 116.949 26.0153L116.421 26.5716L114.755 25.0667C113.838 24.239 113.052 23.523 113.008 23.4755C112.964 23.428 112.749 23.2297 112.53 23.0347C112.121 22.6712 110.913 21.5768 110.058 20.7961C109.793 20.5547 109.454 20.2495 109.303 20.1179C109.048 19.8952 109.037 19.8924 109.152 20.078C109.491 20.6257 113.938 27.7083 115.746 30.5794C116.413 31.6376 116.958 32.5442 116.958 32.5938C116.958 32.6435 115.803 34.5603 114.39 36.8533C110.496 43.1752 109.139 45.3897 109.139 45.4216C109.139 45.4376 109.687 45.4504 110.356 45.4501L111.573 45.4495L113.966 41.3822C115.283 39.1453 116.378 37.315 116.4 37.3152C116.422 37.3153 116.583 37.581 116.759 37.9059C116.934 38.2307 117.958 40.0605 119.033 41.972L120.988 45.4476L122.84 45.4491L124.692 45.4506L123.868 44.0743C120.82 38.9858 117.107 32.7485 117.073 32.6616C117.052 32.6047 118.009 31.0336 119.201 29.1705C120.393 27.3073 122.741 23.6285 124.418 20.9955C126.096 18.3625 128.212 15.0461 129.119 13.6256C130.027 12.2053 130.753 11.0271 130.734 11.0076C130.714 10.9881 130.686 11.0074 130.67 11.0505ZM56 39.0263V45.4639L59.8498 45.4275C64.1389 45.387 64.3482 45.3663 65.9422 44.8251C68.3204 44.0177 69.9334 42.4666 70.4777 40.4639C70.7835 39.339 70.7004 37.7694 70.2836 36.7972C69.4246 34.7932 67.2999 33.4113 64.1865 32.8319C63.3992 32.6853 62.8947 32.6627 59.6503 32.6279L56 32.5888V39.0263ZM74.9896 37.0982C74.9896 40.9983 75.0066 41.6491 75.1182 42.0252C75.6219 43.7231 77.0016 44.9137 79.0987 45.4605C80.3652 45.7907 82.6501 45.8083 84.0874 45.4988C85.8355 45.1225 87.2273 44.1822 87.8437 42.961C88.3115 42.0342 88.3143 42.0005 88.3143 37.096V32.6047H87.1972H86.0802V36.9364C86.0802 41.5492 86.0668 41.7355 85.6774 42.5444C85.1254 43.6913 83.8358 44.4262 82.366 44.4314C81.2267 44.4355 80.4561 44.1631 79.7108 43.493C79.224 43.0552 78.9395 42.6018 78.7304 41.93C78.5908 41.4814 78.5801 41.1322 78.5801 37.0259V32.6047H76.7848H74.9896V37.0982ZM92.6228 39.0277V45.4506H96.5666C98.9677 45.4506 100.754 45.4167 101.134 45.364C103.116 45.089 104.676 44.1125 105.203 42.8176C105.3 42.5795 105.349 42.2564 105.349 41.8585C105.349 41.0575 105.026 40.372 104.377 39.7928C103.936 39.4005 102.912 38.8282 102.65 38.8282C102.411 38.8282 102.512 38.7136 102.997 38.4361C104.093 37.8084 104.616 37.0122 104.625 35.9574C104.629 35.4588 104.593 35.2819 104.41 34.9099C103.836 33.7361 102.306 32.9186 100.256 32.69C99.8311 32.6426 97.9638 32.6047 96.0568 32.6047H92.6228V39.0277ZM128.926 39.0277V45.4506H130.722H132.517V39.0277V32.6047H130.722H128.926V39.0277ZM62.8606 33.7663C64.6661 34.1918 66.0715 35.5948 66.4926 37.392C66.6781 38.1842 66.6787 39.7523 66.4937 40.6223C66.1744 42.1244 65.2551 43.2945 63.8973 43.9276C63.0104 44.3412 62.4873 44.434 60.9868 44.4441L59.6304 44.4533L59.6099 39.0476L59.5894 33.642L60.9663 33.6432C61.9189 33.644 62.5026 33.6819 62.8606 33.7663ZM98.9875 33.7623C100.273 34.0654 100.855 34.6559 100.971 35.7768C101.056 36.5993 100.737 37.3354 100.117 37.7457C99.5914 38.0934 99.0342 38.1899 97.5529 38.1899H96.2133V35.9159V33.642L97.3503 33.6432C98.0706 33.6439 98.6705 33.6875 98.9875 33.7623ZM99.5484 39.5836C100.187 39.7391 100.485 39.8904 100.868 40.2532C101.41 40.7676 101.519 41.0648 101.519 42.0198C101.519 42.7661 101.497 42.8967 101.319 43.2166C101.084 43.6364 100.532 44.0363 99.9355 44.2179C99.3581 44.3938 98.1632 44.504 97.1309 44.4766L96.2532 44.4533L96.232 42.0205C96.2204 40.6826 96.2304 39.5372 96.2541 39.4753C96.29 39.3817 96.5294 39.371 97.6715 39.412C98.4595 39.4402 99.2602 39.5134 99.5484 39.5836ZM75.6279 51.67C74.4621 51.8351 73.5833 52.2746 72.755 53.1069C69.8899 55.9857 71.8969 60.7621 76.0672 60.9898C78.8475 61.1417 81.1394 59.1832 81.2737 56.5409C81.2958 56.1088 81.2723 55.5897 81.2193 55.3345C80.8849 53.7239 79.4088 52.2285 77.7354 51.8053C77.1273 51.6515 76.1855 51.591 75.6279 51.67ZM128.687 51.6505C128.128 51.7118 127.425 52.0004 127.067 52.3152C126.555 52.766 126.346 53.248 126.34 53.988C126.332 55.1508 126.837 55.7046 128.887 56.7819C130.644 57.7054 131.149 58.1686 131.221 58.9231C131.307 59.811 130.541 60.4508 129.394 60.4508C128.432 60.4508 127.562 59.9122 127.143 59.0577C127.024 58.8146 126.913 58.6157 126.896 58.6157C126.879 58.6157 126.698 58.6872 126.495 58.7747L126.124 58.9335L126.382 59.4179C126.909 60.4066 127.761 60.9132 129.024 60.9893C130.286 61.0653 131.288 60.7365 131.913 60.0413C132.683 59.1846 132.726 57.9771 132.014 57.1748C131.641 56.7551 130.999 56.3224 129.771 55.6636C127.857 54.6369 127.285 54.0338 127.492 53.2629C127.675 52.5831 128.298 52.1968 129.206 52.1999C130.178 52.2034 130.877 52.6409 131.329 53.5292C131.457 53.7816 131.578 53.988 131.599 53.988C131.75 53.988 132.278 53.7116 132.278 53.6321C132.278 53.4348 131.859 52.7438 131.541 52.4168C131.149 52.0128 130.64 51.7818 129.91 51.6763C129.363 51.5972 129.204 51.5939 128.687 51.6505ZM56 56.3019V60.77H56.758H57.516V58.6975V56.625L57.7753 56.6828C57.918 56.7147 58.5193 56.7395 59.1117 56.7381C60.3873 56.735 60.852 56.5949 61.4907 56.0207C62.0387 55.528 62.2493 55.015 62.2082 54.2736C62.1575 53.3583 61.7206 52.7051 60.8713 52.2747C60.1529 51.9106 59.622 51.8362 57.7354 51.8349L56 51.8337V56.3019ZM63.5799 56.3019V60.77H64.3379H65.0959V58.6519V56.534L65.6285 56.5575L66.1612 56.5811L67.7093 58.6756L69.2575 60.77H70.0889C70.5463 60.77 70.9204 60.7524 70.9204 60.7309C70.9204 60.7094 70.2203 59.7594 69.3645 58.6198C68.5088 57.4802 67.8087 56.5178 67.8087 56.4812C67.8087 56.4446 67.9986 56.3501 68.2306 56.2713C69.6264 55.7968 70.2683 54.5294 69.7505 53.2699C69.5945 52.8903 69.202 52.4971 68.7477 52.2649C68.0433 51.9049 67.5204 51.8362 65.4749 51.8349L63.5799 51.8337V56.3019ZM83.2078 56.3019V60.77H83.9658H84.7238V58.687C84.7238 56.7351 84.7326 56.6074 84.8634 56.6597C84.9402 56.6904 85.4339 56.7348 85.9605 56.7583C87.0425 56.8067 87.6695 56.692 88.2801 56.3342C89.3116 55.7297 89.7035 54.4488 89.1851 53.3761C88.8496 52.6816 87.9766 52.1012 86.9949 51.9197C86.739 51.8724 85.7822 51.8337 84.8687 51.8337H83.2078V56.3019ZM90.7877 56.3019V60.77H93.8994H97.0112V60.5306V60.2913H94.6589H92.3067L92.2627 60.1117C92.2386 60.0131 92.2289 59.0885 92.2413 58.0572L92.2638 56.1822L93.8396 56.1606L95.4154 56.1389V55.9029V55.6669L93.8396 55.6453L92.2638 55.6237V54.0279V52.4321L94.6375 52.411L97.0112 52.3898V52.1118V51.8337H93.8994H90.7877V56.3019ZM98.6867 56.296V60.77H99.4447H100.203V58.6519V56.534L100.74 56.5575L101.277 56.5811L102.825 58.6756L104.374 60.77H105.2C105.655 60.77 106.027 60.7524 106.027 60.7309C106.027 60.7094 105.327 59.7594 104.471 58.6198C103.616 57.4802 102.916 56.5103 102.916 56.4647C102.916 56.419 102.968 56.3816 103.033 56.3816C103.294 56.3816 104.095 55.9247 104.445 55.5758C104.822 55.2009 105.07 54.634 105.07 54.1476C105.07 53.2517 104.381 52.3808 103.422 52.0626C102.922 51.897 102.698 51.8791 100.781 51.8518L98.6867 51.822V56.296ZM105.868 52.113V52.3922H107.503H109.139V56.5811V60.77H109.857H110.575V56.5811V52.3922H112.211H113.847V52.113V51.8337H109.857H105.868V52.113ZM115.283 56.3019V60.77H116.001H116.719V56.3019V51.8337H116.001H115.283V56.3019ZM119.033 56.3019V60.77H122.144H125.256V60.5306V60.2913H122.902H120.549V58.2168V56.1423H122.105H123.66V55.9029V55.6636H122.105H120.549V54.0279V52.3922H122.902H125.256V52.113V51.8337H122.144H119.033V56.3019ZM77.6909 52.3425C78.8886 52.9606 79.5383 54.36 79.537 56.3185C79.536 57.7742 79.1103 59.0304 78.3656 59.775C77.2774 60.8633 75.4146 60.8633 74.3264 59.775C73.8376 59.2863 73.4854 58.5733 73.3079 57.7134C72.8297 55.3965 73.5277 53.098 74.9265 52.3835C75.4727 52.1044 75.6219 52.077 76.4657 52.1C77.1558 52.119 77.3213 52.1517 77.6909 52.3425ZM67.114 52.4772C67.2805 52.5234 67.5734 52.7117 67.7648 52.8956C68.5183 53.6197 68.5145 54.8001 67.7562 55.5196C67.3358 55.9186 66.8129 56.091 65.9137 56.1273L65.0959 56.1604V54.2763V52.3922L65.9536 52.3927C66.4253 52.3929 66.9475 52.4309 67.114 52.4772ZM102.4 52.5616C103.5 53.0789 103.795 54.508 102.982 55.3893C102.518 55.8933 102.005 56.0857 101.021 56.1265L100.203 56.1604V54.2763V52.3922H101.121C101.891 52.3922 102.098 52.4197 102.4 52.5616ZM59.4309 52.6381C60.411 53.0817 60.8672 54.167 60.5049 55.1936C60.3575 55.6116 60.062 55.939 59.6304 56.1628C59.2523 56.3587 58.2934 56.3954 57.8152 56.232L57.516 56.1299V54.3009V52.472L58.2939 52.4738C58.9032 52.4751 59.1497 52.5108 59.4309 52.6381ZM86.7945 52.713C87.8276 53.2883 88.1289 54.6952 87.4267 55.6646C87.0133 56.2352 86.1603 56.4768 85.2424 56.2832L84.7637 56.1822L84.7422 54.3182L84.7208 52.4542L85.58 52.4847C86.3114 52.5106 86.4921 52.5446 86.7945 52.713Z" fill="#F9F5E9"/>
</svg>
