<svg width="67" height="26" viewBox="0 0 67 26" xmlns="http://www.w3.org/2000/svg">
<path fill-rule="evenodd" clip-rule="evenodd" d="M6.32337 0.5486C4.32399 2.32347 2.37854 5.02971 1.40577 7.38947C0.856598 8.7215 0.70374 9.48674 0.704593 10.8981C0.705352 12.1241 0.72004 12.2207 1.05779 13.2163C1.48149 14.4653 2.30083 16.0581 3.26982 17.5165C4.57351 19.4786 5.08042 20.9163 4.98082 22.369C4.91202 23.3729 4.57569 24.0894 3.66158 25.1793C3.25939 25.6588 2.99225 26.0275 3.06787 25.9984C3.14359 25.9694 3.20547 25.905 3.20547 25.8554C3.20547 25.8057 3.25882 25.7959 3.32393 25.8333C3.38913 25.8708 3.41073 25.8666 3.37216 25.8239C3.3335 25.7813 3.34942 25.6892 3.40742 25.6192C3.5363 25.4639 3.71711 25.449 3.62291 25.6015C3.58065 25.6698 3.59695 25.6851 3.66622 25.6423C3.72725 25.6045 3.75208 25.5332 3.72147 25.4836C3.69086 25.4341 3.89868 25.1491 4.18345 24.8505C4.46813 24.5518 4.81621 24.1687 4.95693 23.9992C5.09766 23.8297 5.25109 23.7146 5.2979 23.7435C5.34462 23.7724 5.35874 23.733 5.32918 23.656C5.29487 23.5666 5.37248 23.4632 5.54344 23.3705C5.6909 23.2906 5.75695 23.2235 5.69023 23.2215C5.61044 23.219 5.64077 23.1205 5.77913 22.9334C5.89474 22.777 6.03461 22.6497 6.08996 22.6505C6.1453 22.6513 6.12663 22.6933 6.04845 22.7438C5.94516 22.8106 5.94023 22.8361 6.03035 22.8372C6.10427 22.838 6.12559 22.8865 6.08323 22.9571C6.02902 23.0473 6.04798 23.0464 6.16264 22.9536C6.32962 22.8183 6.28176 22.4292 6.10872 22.5152C6.04949 22.5446 6.09517 22.4855 6.21022 22.3837C6.32536 22.282 6.38932 22.1653 6.35236 22.1245C6.3155 22.0835 6.34156 22.0826 6.41017 22.1222C6.48911 22.1678 6.52853 22.1472 6.51735 22.0663C6.48333 21.8183 6.52332 21.6909 6.61705 21.7488C6.76791 21.842 6.72896 21.9772 6.47916 22.2269C6.35123 22.3548 6.28726 22.4595 6.33701 22.4595C6.38676 22.4595 6.45955 22.4595 6.49859 22.4595C6.53763 22.4595 6.57061 22.4063 6.57175 22.3411C6.57298 22.276 6.65827 22.232 6.76128 22.2436C6.86439 22.255 6.89547 22.2408 6.83027 22.212C6.63458 22.1252 6.69693 21.9682 6.90134 22.0331C7.01431 22.0689 7.09088 22.0502 7.09088 21.9865C7.09088 21.9278 7.14423 21.9099 7.20933 21.9467C7.29785 21.9966 7.2969 21.9803 7.20535 21.8819C7.10111 21.7699 7.06974 21.7714 6.99365 21.8917C6.91651 22.0137 6.90409 22.0118 6.90277 21.8774C6.90115 21.7048 7.15039 21.5677 7.23037 21.6972C7.29623 21.8037 7.51154 21.7719 7.53685 21.6519C7.54765 21.601 7.53154 21.4602 7.50121 21.3391C7.47079 21.218 7.49648 21.0688 7.55826 21.0074C7.64478 20.9217 7.65654 20.9331 7.60934 21.0572C7.50671 21.3267 7.65436 21.451 7.8581 21.2667C8.00518 21.1336 8.01646 21.0777 7.9197 20.9585C7.82171 20.8378 7.8273 20.8227 7.9522 20.8694C8.05379 20.9074 8.15832 20.8317 8.27327 20.6371C8.36709 20.4784 8.52251 20.2698 8.61879 20.1735C8.89304 19.8993 9.91178 17.798 10.2278 16.8545C10.8607 14.9658 10.6489 12.7018 9.65297 10.7086C9.45766 10.3176 8.94744 9.46475 8.51919 8.81324C7.41791 7.13778 6.56502 5.37304 6.36876 4.3636C6.12114 3.09004 6.28726 1.73242 6.83795 0.529647C6.97128 0.238336 7.04908 0 7.01089 0C6.9727 0 6.66329 0.246865 6.32337 0.5486ZM13.6549 4.11891C12.5054 4.37772 12.1176 4.80189 12.04 5.88478C11.9748 6.79671 12.1772 7.30997 12.7296 7.63378C13.3881 8.01967 13.6433 8.0607 16.209 8.19281C18.981 8.33552 19.171 8.38651 19.3889 9.04541C19.5318 9.47726 19.4076 10.3551 19.166 10.6221C18.8852 10.9324 18.1319 11.0347 16.141 11.0332C14.5861 11.032 14.1946 11.0044 13.9612 10.8798C13.4993 10.6333 13.3215 10.3691 13.2722 9.85661L13.2266 9.38183H12.562H11.8974L11.9501 9.89234C12.0184 10.5545 12.2207 10.932 12.6886 11.271C13.2739 11.695 13.977 11.7755 16.757 11.7371L19.1735 11.7036L19.7379 11.4193C20.5648 11.0028 20.6838 10.792 20.7184 9.68319C20.7421 8.92326 20.7161 8.70947 20.5667 8.43721C20.1438 7.66676 19.5806 7.51693 16.6521 7.3963C15.4328 7.34607 14.2817 7.26031 14.0941 7.20572C13.5735 7.05419 13.4068 6.80789 13.3634 6.12596C13.3296 5.59394 13.3513 5.50401 13.5794 5.23288C13.9406 4.80369 14.3855 4.71688 16.2832 4.70551C18.6096 4.69149 19.0829 4.84974 19.194 5.67857L19.2459 6.06502H19.9088H20.5717L20.5256 5.58418C20.4652 4.95598 20.2368 4.6587 19.5483 4.31185L18.984 4.02756L16.6149 4.00671C14.8603 3.99126 14.0925 4.02045 13.6549 4.11891ZM21.7796 7.86558V11.751H25.5703H29.3609V11.3732V10.9954L26.2573 10.9705L23.1537 10.9455L23.1275 9.54768L23.1013 8.14988H26.0889H29.0766V7.77214V7.3944L26.1152 7.36938L23.1537 7.34437V6.06502V4.78568L26.2573 4.76067L29.3609 4.73574V4.35791V3.98017H25.5703H21.7796V7.86558ZM30.4033 7.86672V11.7532L34.0755 11.7284L37.7477 11.7036L37.7768 11.3008L37.806 10.8981H34.768H31.73V7.43913V3.98017H31.0667H30.4033V7.86672ZM38.8375 7.86558V11.751H42.5808H46.324V11.3732V10.9954L43.2204 10.9705L40.1168 10.9455L40.0906 9.54768L40.0644 8.14988H43.052H46.0397V7.77214V7.3944L43.0783 7.36938L40.1168 7.34437V6.06502V4.78568L43.2204 4.76067L46.324 4.73574V4.35791V3.98017H42.5808H38.8375V7.86558ZM49.6408 4.08347C49.3542 4.1318 48.8534 4.30143 48.5281 4.46045C48.0556 4.6913 47.8839 4.83894 47.6752 5.19403L47.4138 5.63858V7.58128C47.4138 9.95147 47.4967 10.37 48.0816 10.955C48.7427 11.6159 49.0884 11.685 51.9626 11.7303C54.6243 11.7723 55.4014 11.6984 56.0342 11.3435C56.5595 11.0488 56.7691 10.6381 56.823 9.79767L56.868 9.09754H56.1922H55.5163V9.62349C55.5163 10.2812 55.3293 10.6548 54.9269 10.8008C54.4629 10.9691 52.1755 11.0829 50.9495 10.9987C49.6282 10.908 49.3252 10.7744 49.0412 10.1569C48.8574 9.75711 48.8346 9.52237 48.8084 7.77081C48.7661 4.9356 48.817 4.87021 51.1831 4.72333C52.6464 4.63245 53.9509 4.67793 54.5872 4.84207C55.0194 4.95351 55.3268 5.32604 55.3268 5.73837C55.3268 6.30175 55.3829 6.34932 56.0477 6.34932H56.6535V5.89558C56.6535 5.15328 56.3385 4.65187 55.6585 4.31185L55.0899 4.02756L52.626 4.01154C51.2708 4.00273 49.9275 4.03504 49.6408 4.08347ZM57.5064 4.40662V4.83307H59.4017H61.297V8.29203V11.751H61.9604H62.6238V8.29203V4.83307H64.5191H66.4144V4.40662V3.98017H61.9604H57.5064V4.40662ZM4.93087 10.6766C6.96948 13.3462 8.08289 16.0102 7.88577 17.7467L7.81868 18.3372L7.7006 17.7686C7.53324 16.9625 7.31784 16.519 6.38885 15.0678C4.91552 12.7663 4.16545 11.0641 3.92493 9.4766L3.8603 9.05015L4.1844 9.58681C4.36266 9.88201 4.69851 10.3724 4.93087 10.6766ZM14.53 14.214C13.5794 14.3276 13.1443 14.5055 12.6802 14.9704C12.0739 15.5776 11.9988 15.8764 11.949 17.882C11.8891 20.29 12.0512 20.8808 12.9194 21.4173C13.5557 21.8107 14.1388 21.9041 16.2935 21.9583C19.8189 22.0471 20.9781 21.7866 21.4041 20.8099C21.5946 20.3728 21.7393 18.9416 21.6442 18.4345L21.5815 18.1003H19.0745H16.5675V18.4794V18.8584H18.4767H20.3859L20.325 19.5792C20.2481 20.4892 20.121 20.7539 19.6474 20.9907C19.2986 21.165 19.0788 21.1802 16.8992 21.1802C14.6706 21.1802 14.5037 21.1681 14.0866 20.9753C13.3924 20.6544 13.307 20.4142 13.2667 18.6693C13.2175 16.5381 13.2942 15.8908 13.6432 15.4934C14.1012 14.9717 14.3656 14.9256 16.8992 14.9256C19.3656 14.9256 19.7286 14.9821 20.0723 15.4191C20.1774 15.5527 20.2634 15.7806 20.2634 15.9257C20.2634 16.4387 20.3291 16.4893 20.9952 16.4893H21.6122L21.5743 15.8947C21.5493 15.5022 21.473 15.2124 21.35 15.0421C21.0755 14.6621 20.3176 14.3236 19.5049 14.2182C18.7005 14.1138 15.3919 14.111 14.53 14.214ZM36.3288 14.2186C35.3571 14.329 34.473 14.7441 34.1503 15.2415C33.7501 15.8581 33.6999 16.2237 33.7381 18.2457C33.7674 19.7943 33.8044 20.2066 33.9416 20.5168C34.4813 21.737 35.6014 22.0417 39.2563 21.9623C41.7159 21.9089 42.3744 21.7657 42.9898 21.1503C43.519 20.621 43.5975 20.2768 43.6456 18.2732C43.6941 16.2536 43.5943 15.6904 43.0854 15.1107C42.4375 14.3728 41.7665 14.2132 39.1218 14.1677C38.0012 14.1485 36.7443 14.1713 36.3288 14.2186ZM23.1063 18.046V21.8909H23.7673H24.4283L24.4544 20.351L24.4804 18.8111L26.9444 18.8139C29.6083 18.8169 30.0163 18.8731 30.4095 19.2911C30.6241 19.5193 30.6424 19.6188 30.6717 20.7138L30.7031 21.8909H31.3588H32.0143V20.7444C32.0143 19.3015 31.9069 19.0269 31.216 18.7052C30.9514 18.582 30.6497 18.478 30.5455 18.4741C30.4412 18.4701 30.5801 18.4065 30.854 18.3328C31.7662 18.0871 32.0488 17.7465 32.1658 16.751C32.3021 15.5916 31.8507 14.799 30.8539 14.4474C30.4101 14.2909 29.9611 14.2679 26.7311 14.2363L23.1063 14.201V18.046ZM45.5838 17.3659C45.6117 20.3447 45.6239 20.5349 45.8079 20.8482C45.915 21.0305 46.1458 21.276 46.3208 21.394C46.9571 21.8227 47.4763 21.9112 49.6503 21.9611C51.6369 22.0068 52.7301 21.9329 53.5567 21.6972C54.0464 21.5577 54.6369 21.0068 54.7558 20.5786C54.8114 20.3783 54.8521 18.9653 54.8524 17.2237L54.853 14.2149H54.1896H53.5262V17.2962V20.3774L53.2182 20.7104C52.819 21.1419 52.3168 21.2263 50.143 21.227C48.263 21.2277 47.661 21.1291 47.2384 20.7518L46.94 20.4853L46.9115 17.35L46.883 14.2149H46.2186H45.5543L45.5838 17.3659ZM56.7483 18.0467V21.8909H57.4093H58.0702L58.0963 20.3984L58.1224 18.9058L61.0601 18.8584C63.8953 18.8127 64.0135 18.8034 64.4458 18.5904C65.3032 18.1682 65.6152 17.5246 65.5395 16.3343C65.4711 15.257 65.0664 14.6897 64.1512 14.3882C63.9197 14.312 62.6619 14.2635 60.2783 14.2389L56.7483 14.2025V18.0467ZM41.493 15.1382C42.2423 15.5052 42.2918 15.6708 42.327 17.9292C42.355 19.7332 42.342 19.925 42.1648 20.3256C42.0079 20.6804 41.888 20.8 41.5183 20.9707C41.0876 21.1695 40.9414 21.1802 38.648 21.1802C36.421 21.1802 36.2017 21.1653 35.8524 20.9907C35.5811 20.855 35.4111 20.6759 35.2545 20.3602C35.0509 19.9501 35.0343 19.7907 35.0176 18.0858C35.0008 16.3849 35.0143 16.2203 35.2044 15.809C35.5803 14.9955 36.0496 14.8822 38.9323 14.9087C40.9192 14.927 41.0937 14.9426 41.493 15.1382ZM30.2924 15.1925C30.7241 15.4282 30.9067 15.8979 30.8589 16.6501C30.8274 17.1439 30.7758 17.2912 30.5535 17.5233C30.1232 17.9725 29.6137 18.0458 26.897 18.0496L24.4804 18.0529L24.4544 16.5065L24.4283 14.9601L27.2026 14.9903C29.6689 15.0171 30.0119 15.0396 30.2924 15.1925ZM63.3889 15.0682C63.5752 15.1199 63.8311 15.2723 63.9575 15.4069C64.1676 15.6304 64.1874 15.7292 64.1874 16.5522C64.1874 17.4174 64.1771 17.4618 63.9266 17.6775C63.4955 18.0487 63.0869 18.0993 60.5152 18.0997L58.075 18.1003V16.5367V14.973L60.5626 14.9736C61.9308 14.9739 63.2026 15.0164 63.3889 15.0682ZM8.17453 20.5543C8.20343 20.601 8.16543 20.6628 8.09018 20.6916C7.99892 20.7267 7.97097 20.6984 8.00613 20.6068C8.06725 20.4476 8.10194 20.4368 8.17453 20.5543ZM7.849 21.1746C7.849 21.1976 7.80636 21.2427 7.75424 21.275C7.70212 21.3072 7.65947 21.2883 7.65947 21.2332C7.65947 21.178 7.70212 21.1328 7.75424 21.1328C7.80636 21.1328 7.849 21.1516 7.849 21.1746ZM7.48207 21.5748C7.59996 21.7177 7.59219 21.7219 7.39887 21.6189C7.17835 21.5014 7.12404 21.4171 7.26885 21.4171C7.31452 21.4171 7.41052 21.4881 7.48207 21.5748ZM5.85892 23.0225C5.85892 23.0716 5.90109 23.1378 5.95264 23.1696C6.00628 23.2028 6.0222 23.1648 5.98988 23.0805C5.92687 22.9163 5.85892 22.8863 5.85892 23.0225ZM5.23697 24.2838L4.95864 24.5918L5.26663 24.3134C5.43607 24.1604 5.57462 24.0218 5.57462 24.0055C5.57462 23.9322 5.49644 23.9967 5.23697 24.2838Z" fill="#F9F5E9"/>
</svg>
