<svg width="168" height="60" viewBox="0 0 168 60" xmlns="http://www.w3.org/2000/svg">
<path fill-rule="evenodd" clip-rule="evenodd" d="M44.2121 11.8018C41.2899 14.3958 38.4465 18.3511 37.0248 21.8C36.2222 23.7468 35.9988 24.8652 36 26.928C36.0011 28.7198 36.0226 28.8611 36.5162 30.3161C37.1355 32.1416 38.333 34.4695 39.7492 36.6011C41.6546 39.4687 42.3954 41.5699 42.2499 43.6932C42.1493 45.1604 41.6578 46.2076 40.3218 47.8006C39.7339 48.5014 39.3435 49.0402 39.454 48.9976C39.5647 48.9553 39.6551 48.8612 39.6551 48.7886C39.6551 48.7161 39.7331 48.7017 39.8283 48.7564C39.9236 48.8112 39.9551 48.805 39.8988 48.7427C39.8423 48.6803 39.8655 48.5457 39.9503 48.4435C40.1386 48.2165 40.4029 48.1947 40.2652 48.4176C40.2035 48.5175 40.2273 48.5398 40.3285 48.4771C40.4177 48.422 40.454 48.3177 40.4093 48.2453C40.3645 48.1729 40.6683 47.7564 41.0845 47.3199C41.5006 46.8834 42.0093 46.3235 42.215 46.0758C42.4206 45.828 42.6449 45.6598 42.7133 45.7021C42.7816 45.7443 42.8022 45.6867 42.759 45.5741C42.7089 45.4435 42.8223 45.2924 43.0722 45.1569C43.2877 45.0402 43.3842 44.9421 43.2867 44.9391C43.1701 44.9355 43.2144 44.7916 43.4166 44.518C43.5856 44.2895 43.79 44.1035 43.8709 44.1046C43.9518 44.1058 43.9245 44.1672 43.8103 44.241C43.6593 44.3385 43.6521 44.3759 43.7838 44.3774C43.8918 44.3787 43.923 44.4494 43.8611 44.5526C43.7819 44.6845 43.8096 44.6832 43.9772 44.5475C44.2212 44.3499 44.1513 43.7812 43.8983 43.9068C43.8118 43.9499 43.8785 43.8634 44.0467 43.7147C44.215 43.5661 44.3085 43.3954 44.2544 43.3357C44.2006 43.2759 44.2387 43.2745 44.3389 43.3324C44.4543 43.399 44.5119 43.369 44.4956 43.2507C44.4459 42.8882 44.5043 42.7021 44.6413 42.7867C44.8618 42.923 44.8049 43.1205 44.4398 43.4855C44.2528 43.6724 44.1593 43.8255 44.232 43.8255C44.3047 43.8255 44.4111 43.8255 44.4682 43.8255C44.5252 43.8255 44.5734 43.7476 44.5751 43.6524C44.5769 43.5572 44.7015 43.4929 44.8521 43.5098C45.0028 43.5266 45.0482 43.5058 44.9529 43.4637C44.6669 43.3368 44.758 43.1073 45.0568 43.2022C45.2219 43.2546 45.3338 43.2271 45.3338 43.1341C45.3338 43.0483 45.4118 43.0222 45.5069 43.0759C45.6363 43.1489 45.6349 43.1251 45.5011 42.9813C45.3488 42.8176 45.3029 42.8197 45.1917 42.9956C45.079 43.1738 45.0608 43.1711 45.0589 42.9747C45.0565 42.7224 45.4208 42.522 45.5377 42.7112C45.6339 42.8669 45.9486 42.8205 45.9856 42.6452C46.0014 42.5706 45.9778 42.365 45.9335 42.188C45.8891 42.0109 45.9266 41.7928 46.0169 41.7032C46.1434 41.5778 46.1605 41.5946 46.0916 41.7759C45.9416 42.1698 46.1573 42.3515 46.4551 42.0821C46.6701 41.8875 46.6866 41.8058 46.5452 41.6317C46.4019 41.4553 46.4101 41.4331 46.5927 41.5014C46.7411 41.5569 46.8939 41.4464 47.0619 41.1619C47.199 40.9299 47.4262 40.6251 47.5669 40.4844C47.9677 40.0835 49.4567 37.0125 49.9186 35.6335C50.8435 32.8731 50.5339 29.5641 49.0784 26.651C48.7929 26.0796 48.0472 24.8331 47.4213 23.8809C45.8118 21.4321 44.5652 18.8529 44.2784 17.3776C43.9165 15.5162 44.1593 13.532 44.9641 11.7741C45.159 11.3483 45.2727 11 45.2169 11C45.1611 11 44.7089 11.3608 44.2121 11.8018ZM54.9274 17.0199C53.2474 17.3982 52.6805 18.0181 52.5672 19.6008C52.4719 20.9337 52.7676 21.6838 53.5751 22.1571C54.5374 22.7211 54.9104 22.781 58.6603 22.9741C62.7116 23.1827 62.9893 23.2572 63.3079 24.2202C63.5166 24.8514 63.3352 26.1343 62.982 26.5247C62.5716 26.9781 61.4706 27.1277 58.561 27.1255C56.2884 27.1237 55.7162 27.0834 55.3751 26.9012C54.7 26.541 54.44 26.1548 54.368 25.4058L54.3014 24.7119H53.3301H52.3587L52.4357 25.458C52.5356 26.4258 52.8312 26.9776 53.5151 27.473C54.3705 28.0927 55.3982 28.2104 59.4612 28.1542L62.9931 28.1053L63.8179 27.6898C65.0265 27.081 65.2004 26.7729 65.251 25.1524C65.2856 24.0417 65.2475 23.7292 65.0292 23.3313C64.4111 22.2053 63.588 21.9863 59.3079 21.81C57.5259 21.7366 55.8435 21.6112 55.5693 21.5314C54.8085 21.31 54.5648 20.95 54.5014 19.9533C54.4519 19.1758 54.4837 19.0443 54.817 18.6481C55.3449 18.0208 55.9952 17.8939 58.7687 17.8773C62.1688 17.8568 62.8605 18.0881 63.023 19.2994L63.0988 19.8643H64.0677H65.0366L64.9691 19.1615C64.8809 18.2434 64.5471 17.8089 63.5409 17.3019L62.7161 16.8864L59.2535 16.856C56.6891 16.8334 55.5669 16.876 54.9274 17.0199ZM66.802 22.4958V28.1745H72.3421H77.8823V27.6224V27.0702L73.3463 27.0338L68.8103 26.9972L68.7719 24.9543L68.7337 22.9114H73.1002H77.4668V22.3593V21.8072L73.1385 21.7706L68.8103 21.7341V19.8643V17.9945L73.3463 17.9579L77.8823 17.9215V17.3693V16.8172H72.3421H66.802V22.4958ZM79.4058 22.4975V28.1777L84.7729 28.1416L90.1399 28.1053L90.1824 27.5166L90.2251 26.928H85.7849H81.3449V21.8726V16.8172H80.3754H79.4058V22.4975ZM91.7327 22.4958V28.1745H97.2036H102.675V27.6224V27.0702L98.1385 27.0338L93.6025 26.9972L93.5641 24.9543L93.5259 22.9114H97.8924H102.259V22.3593V21.8072L97.9308 21.7706L93.6025 21.7341V19.8643V17.9945L98.1385 17.9579L102.675 17.9215V17.3693V16.8172H97.2036H91.7327V22.4958ZM107.522 16.9681C107.103 17.0388 106.371 17.2867 105.896 17.5191C105.205 17.8565 104.954 18.0723 104.649 18.5913L104.267 19.241V22.0803C104.267 25.5445 104.388 26.1561 105.243 27.0111C106.21 27.9771 106.715 28.0781 110.916 28.1443C114.806 28.2057 115.941 28.0976 116.866 27.5789C117.634 27.1482 117.94 26.5481 118.019 25.3197L118.085 24.2964H117.097H116.109V25.0651C116.109 26.0263 115.836 26.5724 115.248 26.7857C114.57 27.0317 111.227 27.1981 109.435 27.0751C107.504 26.9425 107.061 26.7472 106.646 25.8447C106.377 25.2604 106.344 24.9173 106.306 22.3573C106.244 18.2136 106.318 18.118 109.776 17.9033C111.915 17.7705 113.821 17.837 114.752 18.0769C115.383 18.2398 115.832 18.7842 115.832 19.3868C115.832 20.2103 115.914 20.2798 116.886 20.2798H117.771V19.6166C117.771 18.5317 117.311 17.7989 116.317 17.3019L115.486 16.8864L111.885 16.863C109.904 16.8501 107.941 16.8974 107.522 16.9681ZM119.018 17.4404V18.0637H121.788H124.558V23.1191V28.1745H125.528H126.497V23.1191V18.0637H129.267H132.037V17.4404V16.8172H125.528H119.018V17.4404ZM42.1769 26.6043C45.1564 30.506 46.7837 34.3996 46.4956 36.9375L46.3975 37.8006L46.2249 36.9695C45.9803 35.7913 45.6655 35.1432 44.3078 33.0222C42.1544 29.6584 41.0582 27.1706 40.7067 24.8504L40.6122 24.2271L41.0859 25.0115C41.3464 25.4429 41.8373 26.1597 42.1769 26.6043ZM56.2064 31.7744C54.817 31.9403 54.1812 32.2003 53.5028 32.8798C52.6166 33.7673 52.5069 34.204 52.4341 37.1352C52.3465 40.6546 52.5835 41.5181 53.8524 42.3022C54.7824 42.8771 55.6346 43.0137 58.7838 43.0929C63.9363 43.2227 65.6305 42.842 66.2531 41.4144C66.5316 40.7756 66.7431 38.6839 66.604 37.9427L66.5123 37.4543H62.8483H59.1842V38.0083V38.5623H61.9747H64.765L64.6761 39.6158C64.5636 40.9457 64.3779 41.3326 63.6856 41.6787C63.1759 41.9335 62.8546 41.9557 59.669 41.9557C56.4119 41.9557 56.1679 41.938 55.5583 41.6562C54.5438 41.1873 54.4188 40.8362 54.36 38.2859C54.2881 35.1711 54.4001 34.2251 54.9103 33.6442C55.5796 32.8817 55.9661 32.8144 59.669 32.8144C63.2738 32.8144 63.8043 32.897 64.3067 33.5356C64.4603 33.7309 64.5859 34.064 64.5859 34.276C64.5859 35.0258 64.682 35.0997 65.6556 35.0997H66.5572L66.5018 34.2307C66.4654 33.6571 66.3539 33.2335 66.1741 32.9846C65.7729 32.4292 64.6651 31.9345 63.4774 31.7805C62.3017 31.6278 57.4661 31.6238 56.2064 31.7744ZM88.0661 31.781C86.646 31.9424 85.3539 32.549 84.8822 33.276C84.2972 34.1773 84.224 34.7115 84.2798 37.6668C84.3226 39.9302 84.3766 40.5327 84.5772 40.9862C85.3659 42.7695 87.0031 43.2148 92.3448 43.0988C95.9396 43.0206 96.902 42.8114 97.8014 41.9119C98.575 41.1384 98.6896 40.6353 98.76 37.7069C98.8308 34.7553 98.6849 33.9321 97.9412 33.0849C96.9942 32.0064 96.0136 31.7731 92.1482 31.7066C90.5104 31.6785 88.6734 31.7119 88.0661 31.781ZM68.741 37.3749V42.9945H69.7071H70.6731L70.7112 40.7438L70.7493 38.4931L74.3504 38.4972C78.2439 38.5017 78.8402 38.5838 79.4148 39.1947C79.7286 39.5283 79.7553 39.6737 79.7981 41.274L79.8439 42.9945H80.8022H81.7604V41.3187C81.7604 39.2098 81.6033 38.8086 80.5936 38.3384C80.2069 38.1583 79.7659 38.0064 79.6136 38.0006C79.4612 37.9947 79.6641 37.9018 80.0646 37.794C81.3978 37.435 81.8108 36.9371 81.9817 35.4823C82.1809 33.7877 81.5212 32.6294 80.0644 32.1154C79.4158 31.8867 78.7596 31.853 74.0388 31.8069L68.741 31.7553V37.3749ZM101.593 36.3809C101.633 40.7346 101.651 41.0126 101.92 41.4705C102.077 41.7368 102.414 42.0957 102.67 42.2681C103.6 42.8947 104.359 43.0241 107.536 43.097C110.439 43.1637 112.037 43.0558 113.245 42.7114C113.961 42.5073 114.824 41.7022 114.998 41.0765C115.079 40.7837 115.139 38.7186 115.139 36.1731L115.14 31.7756H114.17H113.201V36.2791V40.7824L112.751 41.269C112.167 41.8997 111.433 42.023 108.256 42.0241C105.508 42.0251 104.629 41.881 104.011 41.3295L103.575 40.94L103.533 36.3578L103.492 31.7756H102.521H101.55L101.593 36.3809ZM117.91 37.3759V42.9945H118.876H119.842L119.88 40.813L119.918 38.6316L124.212 38.5623C128.356 38.4954 128.528 38.4819 129.16 38.1706C130.413 37.5535 130.869 36.6129 130.759 34.8733C130.659 33.2988 130.067 32.4695 128.73 32.0289C128.391 31.9176 126.553 31.8467 123.069 31.8107L117.91 31.7575V37.3759ZM95.6139 33.1251C96.709 33.6615 96.7813 33.9035 96.8327 37.2042C96.8737 39.8409 96.8547 40.1212 96.5957 40.7066C96.3664 41.2252 96.1912 41.4 95.6509 41.6494C95.0214 41.94 94.8076 41.9557 91.4557 41.9557C88.2009 41.9557 87.8804 41.9339 87.3698 41.6787C86.9733 41.4803 86.725 41.2186 86.496 40.7572C86.1985 40.1579 86.1743 39.9249 86.1497 37.4331C86.1252 34.9472 86.1449 34.7066 86.4227 34.1054C86.9722 32.9165 87.6581 32.751 91.8712 32.7896C94.7752 32.8163 95.0302 32.8392 95.6139 33.1251ZM79.2436 33.2044C79.8747 33.5489 80.1416 34.2355 80.0716 35.3348C80.0256 36.0565 79.9503 36.2717 79.6254 36.6109C78.9964 37.2675 78.2518 37.3747 74.2812 37.3802L70.7493 37.385L70.7112 35.1249L70.6731 32.8648L74.7279 32.9089C78.3324 32.9481 78.8338 32.9809 79.2436 33.2044ZM127.616 33.0227C127.888 33.0983 128.262 33.3211 128.447 33.5177C128.754 33.8445 128.783 33.9888 128.783 35.1917C128.783 36.4562 128.767 36.5211 128.401 36.8363C127.771 37.3788 127.174 37.4528 123.416 37.4535L119.849 37.4543V35.169V32.8837L123.485 32.8845C125.485 32.8849 127.343 32.9471 127.616 33.0227ZM46.9176 41.0409C46.9598 41.1091 46.9043 41.1994 46.7943 41.2416C46.6609 41.2928 46.6201 41.2515 46.6715 41.1176C46.7608 40.8849 46.8115 40.8691 46.9176 41.0409ZM46.4418 41.9475C46.4418 41.9812 46.3795 42.0471 46.3033 42.0942C46.2272 42.1413 46.1648 42.1137 46.1648 42.0331C46.1648 41.9525 46.2272 41.8864 46.3033 41.8864C46.3795 41.8864 46.4418 41.9139 46.4418 41.9475ZM45.9055 42.5324C46.0778 42.7413 46.0665 42.7474 45.7839 42.5968C45.4616 42.4251 45.3823 42.3019 45.5939 42.3019C45.6607 42.3019 45.801 42.4057 45.9055 42.5324ZM43.5332 44.6483C43.5332 44.7201 43.5949 44.8168 43.6702 44.8633C43.7486 44.9118 43.7719 44.8562 43.7247 44.733C43.6326 44.4931 43.5332 44.4492 43.5332 44.6483ZM42.6242 46.4917L42.2175 46.9418L42.6676 46.535C42.9152 46.3114 43.1177 46.1087 43.1177 46.0849C43.1177 45.9778 43.0035 46.0722 42.6242 46.4917Z" fill="#F9F5E9"/>
</svg>
