<svg width="188" height="72" viewBox="0 0 188 72" xmlns="http://www.w3.org/2000/svg">
<path fill-rule="evenodd" clip-rule="evenodd" d="M54.2121 17.8018C51.2899 20.3958 48.4465 24.3511 47.0248 27.8C46.2222 29.7468 45.9988 30.8652 46 32.928C46.0011 34.7198 46.0226 34.8611 46.5162 36.3161C47.1355 38.1416 48.333 40.4695 49.7492 42.6011C51.6546 45.4687 52.3954 47.5699 52.2499 49.6932C52.1493 51.1604 51.6578 52.2076 50.3218 53.8006C49.7339 54.5014 49.3435 55.0402 49.454 54.9976C49.5647 54.9553 49.6551 54.8612 49.6551 54.7886C49.6551 54.7161 49.7331 54.7017 49.8283 54.7564C49.9236 54.8112 49.9551 54.805 49.8988 54.7427C49.8423 54.6803 49.8655 54.5457 49.9503 54.4435C50.1386 54.2165 50.4029 54.1947 50.2652 54.4176C50.2035 54.5175 50.2273 54.5398 50.3285 54.4771C50.4177 54.422 50.454 54.3177 50.4093 54.2453C50.3645 54.1729 50.6683 53.7564 51.0845 53.3199C51.5006 52.8834 52.0093 52.3235 52.215 52.0758C52.4206 51.828 52.6449 51.6598 52.7133 51.7021C52.7816 51.7443 52.8022 51.6867 52.759 51.5741C52.7089 51.4435 52.8223 51.2924 53.0722 51.1569C53.2877 51.0402 53.3842 50.9421 53.2867 50.9391C53.1701 50.9355 53.2144 50.7916 53.4166 50.518C53.5856 50.2895 53.79 50.1035 53.8709 50.1046C53.9518 50.1058 53.9245 50.1672 53.8103 50.241C53.6593 50.3385 53.6521 50.3759 53.7838 50.3774C53.8918 50.3787 53.923 50.4494 53.8611 50.5526C53.7819 50.6845 53.8096 50.6832 53.9772 50.5475C54.2212 50.3499 54.1513 49.7812 53.8983 49.9068C53.8118 49.9499 53.8785 49.8634 54.0467 49.7147C54.215 49.5661 54.3085 49.3954 54.2544 49.3357C54.2006 49.2759 54.2387 49.2745 54.3389 49.3324C54.4543 49.399 54.5119 49.369 54.4956 49.2507C54.4459 48.8882 54.5043 48.7021 54.6413 48.7867C54.8618 48.923 54.8049 49.1205 54.4398 49.4855C54.2528 49.6724 54.1593 49.8255 54.232 49.8255C54.3047 49.8255 54.4111 49.8255 54.4682 49.8255C54.5252 49.8255 54.5734 49.7476 54.5751 49.6524C54.5769 49.5572 54.7015 49.4929 54.8521 49.5098C55.0028 49.5266 55.0482 49.5058 54.9529 49.4637C54.6669 49.3368 54.758 49.1073 55.0568 49.2022C55.2219 49.2546 55.3338 49.2271 55.3338 49.1341C55.3338 49.0483 55.4118 49.0222 55.5069 49.0759C55.6363 49.1489 55.6349 49.1251 55.5011 48.9813C55.3488 48.8176 55.3029 48.8197 55.1917 48.9956C55.079 49.1738 55.0608 49.1711 55.0589 48.9747C55.0565 48.7224 55.4208 48.522 55.5377 48.7112C55.6339 48.8669 55.9486 48.8205 55.9856 48.6452C56.0014 48.5706 55.9778 48.365 55.9335 48.188C55.8891 48.0109 55.9266 47.7928 56.0169 47.7032C56.1434 47.5778 56.1605 47.5946 56.0916 47.7759C55.9416 48.1698 56.1573 48.3515 56.4551 48.0821C56.6701 47.8875 56.6866 47.8058 56.5452 47.6317C56.4019 47.4553 56.4101 47.4331 56.5927 47.5014C56.7411 47.5569 56.8939 47.4464 57.0619 47.1619C57.199 46.9299 57.4262 46.6251 57.5669 46.4844C57.9677 46.0835 59.4567 43.0125 59.9186 41.6335C60.8435 38.8731 60.5339 35.5641 59.0784 32.651C58.7929 32.0796 58.0472 30.8331 57.4213 29.8809C55.8118 27.4321 54.5652 24.8529 54.2784 23.3776C53.9165 21.5162 54.1593 19.532 54.9641 17.7741C55.159 17.3483 55.2727 17 55.2169 17C55.1611 17 54.7089 17.3608 54.2121 17.8018ZM64.9274 23.0199C63.2474 23.3982 62.6805 24.0181 62.5672 25.6008C62.4719 26.9337 62.7676 27.6838 63.5751 28.1571C64.5374 28.7211 64.9104 28.781 68.6603 28.9741C72.7116 29.1827 72.9893 29.2572 73.3079 30.2202C73.5166 30.8514 73.3352 32.1343 72.982 32.5247C72.5716 32.9781 71.4706 33.1277 68.561 33.1255C66.2884 33.1237 65.7162 33.0834 65.3751 32.9012C64.7 32.541 64.44 32.1548 64.368 31.4058L64.3014 30.7119H63.3301H62.3587L62.4357 31.458C62.5356 32.4258 62.8312 32.9776 63.5151 33.473C64.3705 34.0927 65.3982 34.2104 69.4612 34.1542L72.9931 34.1053L73.8179 33.6898C75.0265 33.081 75.2004 32.7729 75.251 31.1524C75.2856 30.0417 75.2475 29.7292 75.0292 29.3313C74.4111 28.2053 73.588 27.9863 69.3079 27.81C67.5259 27.7366 65.8435 27.6112 65.5693 27.5314C64.8085 27.31 64.5648 26.95 64.5014 25.9533C64.4519 25.1758 64.4837 25.0443 64.817 24.6481C65.3449 24.0208 65.9952 23.8939 68.7687 23.8773C72.1688 23.8568 72.8605 24.0881 73.023 25.2994L73.0988 25.8643H74.0677H75.0366L74.9691 25.1615C74.8809 24.2434 74.5471 23.8089 73.5409 23.3019L72.7161 22.8864L69.2535 22.856C66.6891 22.8334 65.5669 22.876 64.9274 23.0199ZM76.802 28.4958V34.1745H82.3421H87.8823V33.6224V33.0702L83.3463 33.0338L78.8103 32.9972L78.7719 30.9543L78.7337 28.9114H83.1002H87.4668V28.3593V27.8072L83.1385 27.7706L78.8103 27.7341V25.8643V23.9945L83.3463 23.9579L87.8823 23.9215V23.3693V22.8172H82.3421H76.802V28.4958ZM89.4058 28.4975V34.1777L94.7729 34.1416L100.14 34.1053L100.182 33.5166L100.225 32.928H95.7849H91.3449V27.8726V22.8172H90.3754H89.4058V28.4975ZM101.733 28.4958V34.1745H107.204H112.675V33.6224V33.0702L108.139 33.0338L103.603 32.9972L103.564 30.9543L103.526 28.9114H107.892H112.259V28.3593V27.8072L107.931 27.7706L103.603 27.7341V25.8643V23.9945L108.139 23.9579L112.675 23.9215V23.3693V22.8172H107.204H101.733V28.4958ZM117.522 22.9681C117.103 23.0388 116.371 23.2867 115.896 23.5191C115.205 23.8565 114.954 24.0723 114.649 24.5913L114.267 25.241V28.0803C114.267 31.5445 114.388 32.1561 115.243 33.0111C116.21 33.9771 116.715 34.0781 120.916 34.1443C124.806 34.2057 125.941 34.0976 126.866 33.5789C127.634 33.1482 127.94 32.5481 128.019 31.3197L128.085 30.2964H127.097H126.109V31.0651C126.109 32.0263 125.836 32.5724 125.248 32.7857C124.57 33.0317 121.227 33.1981 119.435 33.0751C117.504 32.9425 117.061 32.7472 116.646 31.8447C116.377 31.2604 116.344 30.9173 116.306 28.3573C116.244 24.2136 116.318 24.118 119.776 23.9033C121.915 23.7705 123.821 23.837 124.752 24.0769C125.383 24.2398 125.832 24.7842 125.832 25.3868C125.832 26.2102 125.914 26.2798 126.886 26.2798H127.771V25.6166C127.771 24.5317 127.311 23.7989 126.317 23.3019L125.486 22.8864L121.885 22.863C119.904 22.8501 117.941 22.8974 117.522 22.9681ZM129.018 23.4404V24.0637H131.788H134.558V29.1191V34.1745H135.528H136.497V29.1191V24.0637H139.267H142.037V23.4404V22.8172H135.528H129.018V23.4404ZM52.1769 32.6043C55.1564 36.506 56.7837 40.3996 56.4956 42.9375L56.3975 43.8006L56.2249 42.9695C55.9803 41.7913 55.6655 41.1432 54.3078 39.0222C52.1544 35.6584 51.0582 33.1706 50.7067 30.8504L50.6122 30.2271L51.0859 31.0115C51.3464 31.4429 51.8373 32.1597 52.1769 32.6043ZM66.2064 37.7744C64.817 37.9403 64.1812 38.2003 63.5028 38.8798C62.6166 39.7673 62.5069 40.204 62.4341 43.1352C62.3465 46.6546 62.5835 47.5181 63.8524 48.3022C64.7824 48.8771 65.6346 49.0137 68.7838 49.0929C73.9363 49.2227 75.6305 48.842 76.2531 47.4144C76.5316 46.7756 76.7431 44.6839 76.604 43.9427L76.5123 43.4543H72.8483H69.1842V44.0083V44.5623H71.9747H74.765L74.6761 45.6158C74.5636 46.9457 74.3779 47.3326 73.6856 47.6787C73.1759 47.9335 72.8546 47.9557 69.669 47.9557C66.4119 47.9557 66.1679 47.938 65.5583 47.6562C64.5438 47.1873 64.4188 46.8362 64.36 44.2859C64.2881 41.1711 64.4001 40.2251 64.9103 39.6442C65.5796 38.8817 65.9661 38.8144 69.669 38.8144C73.2738 38.8144 73.8043 38.897 74.3067 39.5356C74.4603 39.7309 74.5859 40.064 74.5859 40.276C74.5859 41.0258 74.682 41.0997 75.6556 41.0997H76.5572L76.5018 40.2307C76.4654 39.6571 76.3539 39.2335 76.1741 38.9846C75.7729 38.4292 74.6651 37.9345 73.4774 37.7805C72.3017 37.6278 67.4661 37.6238 66.2064 37.7744ZM98.0661 37.781C96.646 37.9424 95.3539 38.549 94.8822 39.276C94.2972 40.1773 94.224 40.7115 94.2798 43.6668C94.3226 45.9302 94.3766 46.5327 94.5772 46.9862C95.3659 48.7695 97.0031 49.2148 102.345 49.0988C105.94 49.0206 106.902 48.8114 107.801 47.9119C108.575 47.1384 108.69 46.6353 108.76 43.7069C108.831 40.7553 108.685 39.9321 107.941 39.0849C106.994 38.0064 106.014 37.7731 102.148 37.7066C100.51 37.6785 98.6734 37.7119 98.0661 37.781ZM78.741 43.3749V48.9945H79.7071H80.6731L80.7112 46.7438L80.7493 44.4931L84.3504 44.4972C88.2439 44.5017 88.8402 44.5838 89.4148 45.1947C89.7285 45.5283 89.7553 45.6737 89.7981 47.274L89.8439 48.9945H90.8022H91.7604V47.3187C91.7604 45.2098 91.6033 44.8086 90.5936 44.3384C90.2069 44.1583 89.7659 44.0064 89.6136 44.0006C89.4612 43.9947 89.6641 43.9018 90.0646 43.794C91.3978 43.435 91.8108 42.9371 91.9817 41.4823C92.1809 39.7877 91.5212 38.6294 90.0644 38.1154C89.4158 37.8867 88.7596 37.853 84.0388 37.8069L78.741 37.7553V43.3749ZM111.593 42.3809C111.633 46.7346 111.651 47.0126 111.92 47.4705C112.077 47.7368 112.414 48.0957 112.67 48.2681C113.6 48.8947 114.359 49.0241 117.536 49.097C120.439 49.1637 122.037 49.0558 123.245 48.7114C123.961 48.5073 124.824 47.7022 124.998 47.0765C125.079 46.7837 125.139 44.7186 125.139 42.1731L125.14 37.7756H124.17H123.201V42.2791V46.7824L122.751 47.269C122.167 47.8997 121.433 48.023 118.256 48.0241C115.508 48.0251 114.629 47.881 114.011 47.3295L113.575 46.94L113.533 42.3578L113.492 37.7756H112.521H111.55L111.593 42.3809ZM127.91 43.3759V48.9945H128.876H129.842L129.88 46.813L129.918 44.6316L134.212 44.5623C138.356 44.4954 138.528 44.4819 139.16 44.1706C140.413 43.5535 140.869 42.6129 140.759 40.8733C140.659 39.2988 140.067 38.4695 138.73 38.0289C138.391 37.9176 136.553 37.8467 133.069 37.8107L127.91 37.7575V43.3759ZM105.614 39.1251C106.709 39.6615 106.781 39.9035 106.833 43.2042C106.874 45.8409 106.855 46.1212 106.596 46.7066C106.366 47.2252 106.191 47.4 105.651 47.6494C105.021 47.94 104.808 47.9557 101.456 47.9557C98.2009 47.9557 97.8804 47.9339 97.3698 47.6787C96.9733 47.4803 96.725 47.2186 96.496 46.7572C96.1985 46.1579 96.1743 45.9249 96.1497 43.4331C96.1252 40.9472 96.1449 40.7066 96.4227 40.1054C96.9722 38.9165 97.6581 38.751 101.871 38.7896C104.775 38.8163 105.03 38.8392 105.614 39.1251ZM89.2436 39.2044C89.8747 39.5489 90.1416 40.2355 90.0716 41.3348C90.0256 42.0565 89.9503 42.2717 89.6254 42.6109C88.9964 43.2675 88.2518 43.3747 84.2812 43.3802L80.7493 43.385L80.7112 41.1249L80.6731 38.8648L84.7279 38.9089C88.3324 38.9481 88.8338 38.9809 89.2436 39.2044ZM137.616 39.0227C137.888 39.0983 138.262 39.3211 138.447 39.5177C138.754 39.8445 138.783 39.9888 138.783 41.1917C138.783 42.4562 138.767 42.5211 138.401 42.8363C137.771 43.3788 137.174 43.4528 133.416 43.4535L129.849 43.4543V41.169V38.8837L133.485 38.8845C135.485 38.8849 137.343 38.9471 137.616 39.0227ZM56.9176 47.0409C56.9598 47.1091 56.9043 47.1994 56.7943 47.2416C56.6609 47.2928 56.6201 47.2515 56.6715 47.1176C56.7608 46.8849 56.8115 46.8691 56.9176 47.0409ZM56.4418 47.9475C56.4418 47.9812 56.3795 48.0471 56.3033 48.0942C56.2272 48.1413 56.1648 48.1137 56.1648 48.0331C56.1648 47.9525 56.2272 47.8864 56.3033 47.8864C56.3795 47.8864 56.4418 47.9139 56.4418 47.9475ZM55.9055 48.5324C56.0778 48.7413 56.0665 48.7474 55.7839 48.5968C55.4616 48.4251 55.3823 48.3019 55.5939 48.3019C55.6607 48.3019 55.801 48.4057 55.9055 48.5324ZM53.5332 50.6483C53.5332 50.7201 53.5949 50.8168 53.6702 50.8633C53.7486 50.9118 53.7719 50.8562 53.7247 50.733C53.6326 50.4931 53.5332 50.4492 53.5332 50.6483ZM52.6242 52.4917L52.2175 52.9418L52.6676 52.535C52.9152 52.3114 53.1177 52.1087 53.1177 52.0849C53.1177 51.9778 53.0035 52.0722 52.6242 52.4917Z" fill="#F9F5E9"/>
</svg>
