<svg width="60" height="12" viewBox="0 0 60 12" xmlns="http://www.w3.org/2000/svg">
<path fill-rule="evenodd" clip-rule="evenodd" d="M2.79203 0.0750123C1.49351 0.349807 0.583018 1.23147 0.494488 2.30025C0.383916 3.63329 0.913159 4.35267 3.31546 6.1349C5.58612 7.81927 6.12832 8.52255 6.00443 9.62197C5.87678 10.7546 5.07262 11.282 3.49567 11.2676C2.42544 11.2578 1.54873 11.0007 0.822449 10.4835C0.325905 10.13 0.30023 10.1895 0.66743 10.8427C0.953609 11.352 1.09022 11.4675 1.61304 11.643C2.96449 12.0967 4.87437 11.9883 6.05287 11.391C7.13206 10.8442 7.71774 9.75458 7.57605 8.55755C7.42381 7.27259 6.53512 6.22137 4.43547 4.84243C2.74819 3.7343 2.37082 3.41845 2.04818 2.84451C1.54886 1.95606 1.90721 1.13265 2.9697 0.726938C3.74685 0.430101 4.77385 0.556054 6.09332 1.10988C6.32512 1.20713 6.325 1.20144 6.08726 0.793063C5.95404 0.56441 5.69257 0.303665 5.50631 0.213681C5.08352 0.00937169 3.48756 -0.0721341 2.79203 0.0750123ZM14.7587 0.598321C12.3579 1.16063 10.6665 3.46265 10.6498 6.19049C10.6349 8.6267 11.8447 10.6577 13.8796 11.6121C14.6251 11.9618 14.8062 11.9964 15.9093 11.9999C17.3744 12.0045 18.0785 11.7909 19.1157 11.0274C20.5081 10.0024 21.1827 8.60127 21.2694 6.55381C21.3205 5.34818 21.2954 5.13116 21.0056 4.26899C20.4701 2.67617 19.6115 1.66286 18.2137 0.973877C17.5184 0.631141 17.1851 0.544064 16.3937 0.498285C15.8222 0.465344 15.1516 0.506278 14.7587 0.598321ZM54.6955 0.576037C54.6598 0.666505 53.6162 3.19876 52.3764 6.20296C51.1367 9.20729 50.1223 11.7007 50.1223 11.7437C50.1223 11.7868 50.2508 11.822 50.4079 11.822C50.6604 11.822 50.7698 11.6361 51.3523 10.2173L52.0112 8.61265L54.2021 8.57971L56.3931 8.54677L56.9659 9.9119C57.2809 10.6628 57.5854 11.3997 57.6424 11.5495C57.7366 11.7969 57.8256 11.822 58.6098 11.822C59.2516 11.822 59.4584 11.7831 59.4145 11.6706C59.1093 10.889 54.9176 0.700778 54.8499 0.576037C54.7746 0.437247 54.7503 0.437247 54.6955 0.576037ZM25.4163 6.26013V11.8402L27.8081 11.7968C29.9666 11.7577 30.2689 11.7261 30.9063 11.4725C32.2678 10.931 32.9351 10.0474 32.9412 8.77772C32.9454 7.89388 32.5136 6.91205 31.9228 6.46226C31.4346 6.09058 30.676 5.70715 30.2 5.59173L29.8367 5.50356L30.2 5.31754C30.7562 5.03294 31.1181 4.66416 31.3639 4.13165C31.648 3.51618 31.6478 2.92965 31.3631 2.31503C30.7942 1.08602 29.7545 0.680069 27.1762 0.680069H25.4163V6.26013ZM37.1637 6.25104V11.822H37.9489H38.7339L38.7664 8.82459L38.7987 5.82717H41.8264H44.8541L44.8864 8.82459L44.9189 11.822H45.7039H46.4891V6.25104V0.680069H45.7019H44.9147V2.92057V5.16107H41.8264H38.7381V2.92057V0.680069H37.9509H37.1637V6.25104ZM16.8758 1.17855C18.5009 1.62968 19.5263 3.32883 19.6809 5.82644C19.8705 8.88599 18.4632 11.1977 16.2737 11.4237C14.4643 11.6104 12.8988 10.1522 12.4543 7.8659C12.2387 6.75764 12.3534 4.66634 12.6789 3.76833C13.4336 1.6866 15.0695 0.677162 16.8758 1.17855ZM29.1725 1.50784C29.4046 1.63004 29.6898 1.9161 29.8062 2.14366C30.0421 2.60448 30.0874 3.65049 29.8997 4.30496C29.7702 4.75621 29.2203 5.40329 28.9663 5.40329C28.6392 5.40329 28.8267 5.59258 29.3787 5.81954C30.1145 6.12231 30.9319 6.94015 31.0985 7.54072C31.3777 8.54592 31.2012 9.73254 30.6806 10.3513C30.1647 10.9645 29.4429 11.2165 28.2031 11.2165H27.1118V6.25104V1.28561H27.9312C28.4918 1.28561 28.8837 1.35573 29.1725 1.50784ZM55.2299 5.64793L56.1594 7.94656H54.2207C53.1403 7.94656 52.3 7.89884 52.3225 7.83889C52.6911 6.85562 54.185 3.34505 54.2339 3.34687C54.2706 3.3482 54.7187 4.38368 55.2299 5.64793Z" fill="#F9F5E9"/>
</svg>
