<svg width="168" height="60" viewBox="0 0 168 60" xmlns="http://www.w3.org/2000/svg">
<path fill-rule="evenodd" clip-rule="evenodd" d="M43.5618 21.1125C41.614 21.5247 40.2483 22.8472 40.1155 24.4504C39.9497 26.4499 40.7435 27.529 44.347 30.2024C47.753 32.7289 48.5663 33.7838 48.3804 35.433C48.1889 37.1319 46.9827 37.923 44.6173 37.9014C43.0119 37.8867 41.6969 37.501 40.6075 36.7253C39.8626 36.195 39.8241 36.2842 40.3749 37.2641C40.8042 38.028 41.0091 38.2013 41.7933 38.4645C43.8205 39.145 46.6853 38.9825 48.4531 38.0865C50.0719 37.2663 50.9504 35.6319 50.7378 33.8363C50.5095 31.9089 49.1765 30.3321 46.027 28.2637C43.4961 26.6014 42.93 26.1277 42.4461 25.2668C41.6971 23.9341 42.2346 22.699 43.8283 22.0904C44.9941 21.6452 46.5345 21.8341 48.5138 22.6648C48.8615 22.8107 48.8613 22.8022 48.5047 22.1896C48.3048 21.8466 47.9126 21.4555 47.6332 21.3205C46.9991 21.0141 44.6051 20.8918 43.5618 21.1125ZM61.5119 21.8975C57.9106 22.7409 55.3735 26.194 55.3484 30.2857C55.3261 33.9401 57.1409 36.9865 60.1932 38.4182C61.3115 38.9427 61.5831 38.9946 63.2377 38.9999C65.4354 39.0068 66.4916 38.6863 68.0474 37.5411C70.1359 36.0036 71.1478 33.9019 71.2779 30.8307C71.3545 29.0223 71.3169 28.6967 70.8822 27.4035C70.0789 25.0143 68.7911 23.4943 66.6943 22.4608C65.6514 21.9467 65.1515 21.8161 63.9643 21.7474C63.107 21.698 62.1012 21.7594 61.5119 21.8975ZM121.417 21.8641C121.363 21.9998 119.798 25.7981 117.938 30.3044C116.079 34.8109 114.557 38.551 114.557 38.6155C114.557 38.6802 114.75 38.733 114.986 38.733C115.364 38.733 115.528 38.4542 116.402 36.326L117.391 33.919L120.677 33.8696L123.963 33.8202L124.823 35.8679C125.295 36.9942 125.752 38.0996 125.837 38.3243C125.979 38.6954 126.112 38.733 127.288 38.733C128.251 38.733 128.561 38.6747 128.495 38.5059C128.038 37.3335 121.75 22.0512 121.649 21.8641C121.536 21.6559 121.499 21.6559 121.417 21.8641ZM77.4981 30.3902V38.7603L81.086 38.6952C84.3237 38.6366 84.7772 38.5892 85.7333 38.2088C87.7755 37.3965 88.7765 36.0711 88.7855 34.1666C88.7919 32.8408 88.1441 31.3681 87.258 30.6934C86.5257 30.1359 85.3877 29.5607 84.6738 29.3876L84.1288 29.2553L84.6738 28.9763C85.508 28.5494 86.051 27.9962 86.4196 27.1975C86.8458 26.2743 86.8454 25.3945 86.4185 24.4725C85.565 22.629 84.0055 22.0201 80.1381 22.0201H77.4981V30.3902ZM95.1194 30.3766V38.733H96.2971H97.4746L97.5233 34.2369L97.5718 29.7407H102.113H106.655L106.703 34.2369L106.752 38.733H107.93H109.107V30.3766V22.0201H107.927H106.746V25.3809V28.7416H102.113H97.481V25.3809V22.0201H96.3002H95.1194V30.3766ZM64.6875 22.7678C67.1251 23.4445 68.6632 25.9932 68.8952 29.7397C69.1795 34.329 67.0686 37.7966 63.7843 38.1355C61.0703 38.4157 58.7219 36.2283 58.0552 32.7988C57.7318 31.1365 57.9039 27.9995 58.3922 26.6525C59.5241 23.5299 61.978 22.0157 64.6875 22.7678ZM83.1326 23.2618C83.4807 23.4451 83.9085 23.8741 84.083 24.2155C84.4369 24.9067 84.5049 26.4757 84.2233 27.4574C84.0291 28.1343 83.2042 29.1049 82.8232 29.1049C82.3325 29.1049 82.6138 29.3889 83.4418 29.7293C84.5456 30.1835 85.7716 31.4102 86.0216 32.3111C86.4403 33.8189 86.1756 35.5988 85.3946 36.5269C84.6208 37.4467 83.5381 37.8247 81.6784 37.8247H80.0414V30.3766V22.9284H81.2705C82.1115 22.9284 82.6993 23.0336 83.1326 23.2618ZM122.219 29.4719L123.613 32.9198H120.705C119.084 32.9198 117.824 32.8483 117.858 32.7583C118.41 31.2834 120.651 26.0176 120.725 26.0203C120.78 26.0223 121.452 27.5755 122.219 29.4719Z" fill="#F9F5E9"/>
</svg>
