<svg width="188" height="72" viewBox="0 0 188 72" xmlns="http://www.w3.org/2000/svg">
<path fill-rule="evenodd" clip-rule="evenodd" d="M53.5618 27.1125C51.614 27.5247 50.2483 28.8472 50.1155 30.4504C49.9497 32.4499 50.7435 33.529 54.347 36.2024C57.753 38.7289 58.5663 39.7838 58.3804 41.433C58.1889 43.1319 56.9827 43.923 54.6173 43.9014C53.0119 43.8867 51.6969 43.501 50.6075 42.7253C49.8626 42.195 49.8241 42.2842 50.3749 43.2641C50.8042 44.028 51.0091 44.2013 51.7933 44.4645C53.8205 45.145 56.6853 44.9825 58.4531 44.0865C60.0719 43.2663 60.9504 41.6319 60.7378 39.8363C60.5095 37.9089 59.1765 36.3321 56.027 34.2637C53.4961 32.6014 52.93 32.1277 52.4461 31.2668C51.6971 29.9341 52.2346 28.699 53.8283 28.0904C54.9941 27.6452 56.5345 27.8341 58.5138 28.6648C58.8615 28.8107 58.8613 28.8022 58.5047 28.1896C58.3048 27.8466 57.9126 27.4555 57.6332 27.3205C56.9991 27.0141 54.6051 26.8918 53.5618 27.1125ZM71.5119 27.8975C67.9106 28.7409 65.3735 32.194 65.3484 36.2857C65.3261 39.9401 67.1409 42.9865 70.1932 44.4182C71.3115 44.9427 71.5831 44.9946 73.2377 44.9999C75.4354 45.0068 76.4916 44.6863 78.0474 43.5411C80.1359 42.0036 81.1478 39.9019 81.2779 36.8307C81.3545 35.0223 81.3169 34.6967 80.8822 33.4035C80.0789 31.0143 78.7911 29.4943 76.6943 28.4608C75.6514 27.9467 75.1515 27.8161 73.9643 27.7474C73.107 27.698 72.1012 27.7594 71.5119 27.8975ZM131.417 27.8641C131.363 27.9998 129.798 31.7981 127.938 36.3044C126.079 40.8109 124.557 44.551 124.557 44.6155C124.557 44.6802 124.75 44.733 124.986 44.733C125.364 44.733 125.528 44.4542 126.402 42.326L127.391 39.919L130.677 39.8696L133.963 39.8202L134.823 41.8679C135.295 42.9942 135.752 44.0996 135.837 44.3243C135.979 44.6954 136.112 44.733 137.288 44.733C138.251 44.733 138.561 44.6747 138.495 44.5059C138.038 43.3335 131.75 28.0512 131.649 27.8641C131.536 27.6559 131.499 27.6559 131.417 27.8641ZM87.4981 36.3902V44.7603L91.086 44.6952C94.3237 44.6366 94.7772 44.5892 95.7333 44.2087C97.7755 43.3965 98.7765 42.0711 98.7855 40.1666C98.7919 38.8408 98.1441 37.3681 97.258 36.6934C96.5257 36.1359 95.3877 35.5607 94.6738 35.3876L94.1288 35.2553L94.6738 34.9763C95.508 34.5494 96.051 33.9962 96.4196 33.1975C96.8458 32.2743 96.8454 31.3945 96.4185 30.4725C95.565 28.629 94.0055 28.0201 90.1381 28.0201H87.4981V36.3902ZM105.119 36.3766V44.733H106.297H107.475L107.523 40.2369L107.572 35.7407H112.113H116.655L116.703 40.2369L116.752 44.733H117.93H119.107V36.3766V28.0201H117.927H116.746V31.3809V34.7416H112.113H107.481V31.3809V28.0201H106.3H105.119V36.3766ZM74.6875 28.7678C77.1251 29.4445 78.6632 31.9932 78.8952 35.7397C79.1795 40.329 77.0686 43.7966 73.7843 44.1355C71.0703 44.4157 68.7219 42.2283 68.0552 38.7988C67.7318 37.1365 67.9039 33.9995 68.3922 32.6525C69.5241 29.5299 71.978 28.0157 74.6875 28.7678ZM93.1326 29.2618C93.4807 29.4451 93.9085 29.8741 94.083 30.2155C94.4369 30.9067 94.5049 32.4757 94.2233 33.4574C94.0291 34.1343 93.2042 35.1049 92.8232 35.1049C92.3325 35.1049 92.6138 35.3889 93.4418 35.7293C94.5456 36.1835 95.7716 37.4102 96.0216 38.3111C96.4403 39.8189 96.1756 41.5988 95.3946 42.5269C94.6208 43.4467 93.5381 43.8247 91.6784 43.8247H90.0414V36.3766V28.9284H91.2705C92.1115 28.9284 92.6993 29.0336 93.1326 29.2618ZM132.219 35.4719L133.613 38.9198H130.705C129.084 38.9198 127.824 38.8483 127.857 38.7583C128.41 37.2834 130.651 32.0176 130.725 32.0203C130.78 32.0223 131.452 33.5755 132.219 35.4719Z" fill="#F9F5E9"/>
</svg>
