<svg width="75" height="10" viewBox="0 0 75 10" xmlns="http://www.w3.org/2000/svg">
<path fill-rule="evenodd" clip-rule="evenodd" d="M57.6016 4.90082C56.2649 7.5963 55.158 9.82409 55.142 9.85147C55.1259 9.87885 55.4959 9.90124 55.964 9.90118L56.8152 9.90105L57.3626 8.82134C58.4429 6.6901 60.0468 3.55763 60.0688 3.53563C60.0896 3.51477 60.8743 5.04229 62.6135 8.48921L63.326 9.90131H64.174C64.6404 9.90131 65.022 9.88736 65.022 9.87028C65.022 9.80243 60.1025 0 60.0685 0C60.0484 0 58.9383 2.2054 57.6016 4.90082ZM4.1593 0.263282C2.41727 0.690965 0.932135 2.17596 0.522859 3.89946C0.378459 4.50736 0.378459 5.68109 0.522792 6.24646C0.671844 6.83031 1.08371 7.65963 1.45418 8.12187C2.0979 8.925 3.13681 9.60088 4.15219 9.87719C4.75524 10.0413 6.21133 10.0409 6.8064 9.87646C9.1669 9.22423 10.7281 7.12476 10.5759 4.80725C10.5223 3.99196 10.4385 3.66794 10.097 2.9571C9.43789 1.58487 8.16421 0.566767 6.69749 0.239625C6.04287 0.0935641 4.80355 0.105126 4.1593 0.263282ZM13.9006 0.241486C13.8751 0.26707 13.8541 2.45094 13.8541 5.09466V9.90131H14.651H15.4478L15.465 6.53606L15.4822 3.17088L16.9047 5.3067C17.687 6.48144 18.3463 7.4426 18.3697 7.4426C18.393 7.4426 19.0388 6.49679 19.8046 5.34079L21.1971 3.23899L21.2143 6.57015L21.2315 9.90131H22.0283H22.8251V5.05033V0.199355L22.144 0.201282L21.4629 0.203143L19.9383 2.49513C19.0998 3.75572 18.3894 4.77894 18.3596 4.76904C18.3299 4.75914 17.6217 3.73432 16.7859 2.49181L15.2663 0.232581L14.6067 0.213775C14.244 0.203475 13.9262 0.215902 13.9006 0.241486ZM27.0116 5.05033V9.90131H27.8084H28.6052L28.6225 6.46615L28.6397 3.03093L30.2031 4.82147C31.0631 5.80622 32.4077 7.35202 33.1912 8.25663L34.6158 9.90131H35.2327H35.8497V5.05033V0.199355H35.0523H34.2548V3.65843V7.11751L33.8332 6.63215C33.6013 6.36521 32.8762 5.53111 32.2217 4.77861C31.5673 4.02611 30.4085 2.68791 29.6466 1.8049L28.2613 0.199355H27.6364H27.0116V5.05033ZM40.0361 5.05033V9.90131H40.8336H41.631V5.05033V0.199355H40.8336H40.0361V5.05033ZM45.4187 0.262218C45.4187 0.31631 46.0872 1.50241 48.5832 5.87666L49.0736 6.73615V8.31876V9.90131H49.871H50.6684V8.3476V6.79389L52.5036 3.57969C53.513 1.81187 54.3535 0.328139 54.3714 0.28242C54.3965 0.21836 54.1916 0.199355 53.4773 0.199355H52.5505L51.9991 1.21274C51.6958 1.77014 51.1476 2.77934 50.7808 3.45549C49.9715 4.94753 49.8943 5.07651 49.854 5.00601C49.8365 4.97557 49.2757 3.9489 48.6078 2.72452C47.9398 1.50015 47.352 0.431072 47.3016 0.348872C47.2138 0.205734 47.1715 0.199355 46.3143 0.199355C45.7955 0.199355 45.4187 0.225803 45.4187 0.262218ZM66.6168 0.930324V1.66129H68.0788H69.5407V5.7813V9.90131H70.3376H71.1346L71.1516 5.79792L71.1688 1.69452L72.6141 1.67658L74.0594 1.6587V0.928996V0.199355H70.3381H66.6168V0.930324ZM6.44245 1.76316C6.65755 1.81918 6.98529 1.94597 7.17076 2.04499C7.58901 2.26813 8.25286 2.91663 8.50431 3.34764C9.05527 4.29185 9.07925 5.64262 8.56326 6.66092C8.35606 7.06987 7.68616 7.78914 7.30333 8.01381C5.93203 8.81861 4.15259 8.58789 3.02636 7.45921C1.17528 5.60414 2.00879 2.48762 4.5509 1.75891C4.97087 1.6385 5.97257 1.64076 6.44245 1.76316Z" fill="#F9F5E9"/>
</svg>
