<svg width="168" height="60" viewBox="0 0 168 60" xmlns="http://www.w3.org/2000/svg">
<path fill-rule="evenodd" clip-rule="evenodd" d="M112.062 29.8611C110.19 33.6348 108.641 36.7537 108.618 36.7921C108.596 36.8304 109.114 36.8617 109.769 36.8616L110.961 36.8615L111.727 35.3499C113.24 32.3661 115.485 27.9807 115.516 27.9499C115.545 27.9207 116.644 30.0592 119.079 34.8849L120.076 36.8618H121.263C121.916 36.8618 122.45 36.8423 122.45 36.8184C122.45 36.7234 115.563 23 115.516 23C115.487 23 113.933 26.0876 112.062 29.8611ZM37.2426 23.3686C34.8038 23.9674 32.7246 26.0463 32.1516 28.4592C31.9495 29.3103 31.9495 30.9535 32.1515 31.7451C32.3602 32.5624 32.9368 33.7235 33.4555 34.3706C34.3567 35.495 35.8112 36.4412 37.2327 36.8281C38.077 37.0578 40.1155 37.0572 40.9486 36.827C44.2533 35.9139 46.439 32.9747 46.2259 29.7302C46.1509 28.5887 46.0335 28.1351 45.5555 27.1399C44.6327 25.2188 42.8495 23.7935 40.7961 23.3355C39.8797 23.131 38.1446 23.1472 37.2426 23.3686ZM50.8805 23.3381C50.8447 23.3739 50.8154 26.4313 50.8154 30.1325V36.8618H51.931H53.0465L53.0706 32.1505L53.0947 27.4392L55.0862 30.4294C56.1815 32.074 57.1044 33.4196 57.1372 33.4196C57.1698 33.4196 58.0739 32.0955 59.1461 30.4771L61.0955 27.5346L61.1196 32.1982L61.1437 36.8618H62.2593H63.3748V30.0705V23.2791L62.4212 23.2818L61.4676 23.2844L59.3333 26.4932C58.1594 28.258 57.1648 29.6905 57.1231 29.6767C57.0814 29.6628 56.09 28.2281 54.9199 26.4885L52.7925 23.3256L51.869 23.2993C51.3612 23.2849 50.9163 23.3023 50.8805 23.3381ZM69.2359 30.0705V36.8618H70.3514H71.467L71.4911 32.0526L71.5152 27.2433L73.704 29.7501C74.908 31.1287 76.7904 33.2928 77.8873 34.5593L79.8817 36.8618H80.7455H81.6092V30.0705V23.2791H80.4928H79.3764V28.1218V32.9645L78.7861 32.285C78.4614 31.9113 77.4463 30.7436 76.5301 29.6901C75.6139 28.6366 73.9916 26.7631 72.9249 25.5269L70.9854 23.2791H70.1106H69.2359V30.0705ZM87.4702 30.0705V36.8618H88.5866H89.703V30.0705V23.2791H88.5866H87.4702V30.0705ZM95.0059 23.3671C95.0059 23.4428 95.9418 25.1034 99.4361 31.2273L100.123 32.4306V34.6463V36.8618H101.239H102.355V34.6866V32.5115L104.925 28.0116C106.338 25.5366 107.515 23.4594 107.54 23.3954C107.575 23.3057 107.288 23.2791 106.288 23.2791H104.99L104.218 24.6978C103.794 25.4782 103.026 26.8911 102.513 27.8377C101.38 29.9265 101.272 30.1071 101.215 30.0084C101.191 29.9658 100.406 28.5285 99.4705 26.8143C98.5353 25.1002 97.7124 23.6035 97.6418 23.4884C97.5189 23.288 97.4598 23.2791 96.2596 23.2791C95.5333 23.2791 95.0059 23.3161 95.0059 23.3671ZM124.683 24.3025V25.3258H126.73H128.777V31.0938V36.8618H129.892H131.008L131.032 31.1171L131.056 25.3723L133.079 25.3472L135.103 25.3222V24.3006V23.2791H129.893H124.683V24.3025ZM40.4391 25.4684C40.7402 25.5469 41.199 25.7244 41.4587 25.863C42.0442 26.1754 42.9736 27.0833 43.3257 27.6867C44.097 29.0086 44.1306 30.8997 43.4082 32.3253C43.1181 32.8978 42.1803 33.9048 41.6443 34.2193C39.7245 35.3461 37.2333 35.023 35.6565 33.4429C33.065 30.8458 34.2319 26.4827 37.7909 25.4625C38.3789 25.2939 39.7812 25.2971 40.4391 25.4684Z" fill="#F9F5E9"/>
</svg>
