<svg width="188" height="72" viewBox="0 0 188 72" xmlns="http://www.w3.org/2000/svg">
<path fill-rule="evenodd" clip-rule="evenodd" d="M122.062 35.8611C120.19 39.6348 118.641 42.7537 118.618 42.7921C118.596 42.8304 119.114 42.8617 119.769 42.8616L120.961 42.8615L121.727 41.3499C123.24 38.3661 125.485 33.9807 125.516 33.9499C125.545 33.9207 126.644 36.0592 129.079 40.8849L130.076 42.8618H131.263C131.916 42.8618 132.45 42.8423 132.45 42.8184C132.45 42.7234 125.563 29 125.516 29C125.487 29 123.933 32.0876 122.062 35.8611ZM47.2426 29.3686C44.8038 29.9674 42.7246 32.0463 42.1516 34.4592C41.9495 35.3103 41.9495 36.9535 42.1515 37.7451C42.3602 38.5624 42.9368 39.7235 43.4555 40.3706C44.3567 41.495 45.8112 42.4412 47.2327 42.8281C48.077 43.0578 50.1155 43.0572 50.9486 42.827C54.2533 41.9139 56.439 38.9747 56.2259 35.7302C56.1509 34.5887 56.0335 34.1351 55.5555 33.1399C54.6327 31.2188 52.8495 29.7935 50.7961 29.3355C49.8797 29.131 48.1446 29.1472 47.2426 29.3686ZM60.8805 29.3381C60.8447 29.3739 60.8154 32.4313 60.8154 36.1325V42.8618H61.931H63.0465L63.0706 38.1505L63.0947 33.4392L65.0862 36.4294C66.1815 38.074 67.1044 39.4196 67.1372 39.4196C67.1698 39.4196 68.0739 38.0955 69.1461 36.4771L71.0955 33.5346L71.1196 38.1982L71.1437 42.8618H72.2593H73.3748V36.0705V29.2791L72.4212 29.2818L71.4676 29.2844L69.3333 32.4932C68.1594 34.258 67.1648 35.6905 67.1231 35.6767C67.0814 35.6628 66.09 34.2281 64.9199 32.4885L62.7925 29.3256L61.869 29.2993C61.3612 29.2849 60.9163 29.3023 60.8805 29.3381ZM79.2359 36.0705V42.8618H80.3514H81.467L81.4911 38.0526L81.5152 33.2433L83.704 35.7501C84.908 37.1287 86.7904 39.2928 87.8873 40.5593L89.8817 42.8618H90.7455H91.6092V36.0705V29.2791H90.4928H89.3764V34.1218V38.9645L88.7861 38.285C88.4614 37.9113 87.4463 36.7436 86.5301 35.6901C85.6139 34.6366 83.9916 32.7631 82.9249 31.5269L80.9854 29.2791H80.1106H79.2359V36.0705ZM97.4702 36.0705V42.8618H98.5866H99.703V36.0705V29.2791H98.5866H97.4702V36.0705ZM105.006 29.3671C105.006 29.4428 105.942 31.1034 109.436 37.2273L110.123 38.4306V40.6463V42.8618H111.239H112.355V40.6866V38.5115L114.925 34.0116C116.338 31.5366 117.515 29.4594 117.54 29.3954C117.575 29.3057 117.288 29.2791 116.288 29.2791H114.99L114.218 30.6978C113.794 31.4782 113.026 32.8911 112.513 33.8377C111.38 35.9265 111.272 36.1071 111.215 36.0084C111.191 35.9658 110.406 34.5285 109.47 32.8143C108.535 31.1002 107.712 29.6035 107.642 29.4884C107.519 29.288 107.46 29.2791 106.26 29.2791C105.533 29.2791 105.006 29.3161 105.006 29.3671ZM134.683 30.3025V31.3258H136.73H138.777V37.0938V42.8618H139.892H141.008L141.032 37.1171L141.056 31.3723L143.079 31.3472L145.103 31.3222V30.3006V29.2791H139.893H134.683V30.3025ZM50.4391 31.4684C50.7402 31.5469 51.199 31.7244 51.4587 31.863C52.0442 32.1754 52.9736 33.0833 53.3257 33.6867C54.097 35.0086 54.1306 36.8997 53.4082 38.3253C53.1181 38.8978 52.1803 39.9048 51.6443 40.2193C49.7245 41.3461 47.2333 41.023 45.6565 39.4429C43.065 36.8458 44.2319 32.4827 47.7909 31.4625C48.3789 31.2939 49.7812 31.2971 50.4391 31.4684Z" fill="#F9F5E9"/>
</svg>
