<svg width="65" height="24" viewBox="0 0 65 24" xmlns="http://www.w3.org/2000/svg">
<path fill-rule="evenodd" clip-rule="evenodd" d="M11.885 0.377208L10.9652 0.750378V4.95017C10.9652 9.05526 10.9694 9.15915 11.1524 9.55492C11.4326 10.1608 11.9017 10.6264 12.5191 10.9115L13.0676 11.1648H31.5949H50.1222L50.6217 10.963C51.2618 10.7044 51.9301 10.1022 52.2178 9.52505C52.4419 9.07532 52.4436 9.05543 52.4436 6.94288C52.4436 5.77194 52.4327 4.81386 52.4193 4.81386C52.4059 4.81386 51.9821 4.98792 51.4776 5.20061L50.5602 5.58737L50.5164 7.19779C50.4666 9.02967 50.4199 9.17465 49.7869 9.46207C49.4322 9.62308 48.9049 9.62807 31.833 9.62991C16.2004 9.63166 14.2087 9.61685 13.9221 9.4971C13.4877 9.3156 13.2924 9.12884 13.101 8.71204C12.9521 8.38775 12.9399 8.04979 12.9381 4.17876C12.9371 1.87814 12.9067 -0.00227552 12.8705 2.06681e-06C12.8343 0.00219206 12.3909 0.171963 11.885 0.377208ZM57.8375 4.32287C57.7598 4.58978 57.6724 4.92774 57.6432 5.07386L57.5901 5.33946L59.0683 5.34331C60.6572 5.34743 60.9769 5.40858 61.5014 5.80864C62.3779 6.4772 62.489 8.16358 61.7053 8.90528C61.1662 9.41538 61.2044 9.40942 58.1844 9.45664L55.3842 9.50044L55.1867 10.2012C55.0782 10.5867 54.9881 10.9341 54.9866 10.9733C54.9852 11.0126 56.4918 11.0315 58.3347 11.0155C61.5983 10.987 61.6985 10.981 62.1919 10.7835C63.1364 10.4054 63.8561 9.66792 64.1145 8.81339C64.2935 8.22139 64.2469 6.61018 64.0354 6.07582C63.7665 5.3964 63.3608 4.86729 62.8491 4.52828C62.0003 3.9659 61.708 3.90388 59.7443 3.86892L57.9785 3.83756L57.8375 4.32287ZM7.22464 5.17976L6.28732 5.62635L6.26104 8.53097C6.23143 11.8121 6.23844 11.7771 5.54912 12.0901C5.22378 12.2377 4.95283 12.2563 3.08127 12.2595L0.978877 12.263L0.557962 13.0541L0.137046 13.8452L3.14215 13.819C6.06508 13.7935 6.15943 13.7873 6.59392 13.5906C7.15079 13.3385 7.69759 12.7886 7.96074 12.216C8.15512 11.793 8.16292 11.6834 8.18806 9.01864C8.20234 7.50098 8.20234 5.91595 8.18806 5.49626L8.16204 4.73327L7.22464 5.17976ZM46.1073 12.2307C46.0751 12.2627 46.0488 12.6569 46.0488 13.1066V13.9242H46.9248H47.8008V13.0482V12.1722H46.9833C46.5335 12.1722 46.1393 12.1985 46.1073 12.2307ZM48.7644 13.0482V13.9242H49.6404H50.5164V13.0482V12.1722H49.6404H48.7644V13.0482ZM0.059082 20.2763V23.9212L2.97177 23.8924C5.88174 23.8635 5.88506 23.8633 6.48705 23.631C8.18464 22.9761 9.0164 21.7467 8.87606 20.1C8.73976 18.4996 7.99954 17.4389 6.62905 16.8801C6.16679 16.6916 6.02365 16.6826 3.10317 16.6575L0.059082 16.6314V20.2763ZM12.344 20.2971L12.3668 23.9544L16.1555 23.9772L19.9442 24V23.1231V22.2462H17.141H14.3378V21.5892V20.9322H15.9584H17.579V20.1V19.2678H16.0022H14.4254V18.6984V18.129H17.1848H19.9442V17.3844V16.6398H16.1326H12.3211L12.344 20.2971ZM21.9702 16.7879C22.0362 16.8694 22.8887 17.7839 23.8643 18.8202L25.6381 20.7044V22.3075V23.9106H26.6455H27.6529V22.2235V20.5365L29.5363 18.6546C30.5722 17.6196 31.4197 16.7428 31.4197 16.7063C31.4197 16.6697 30.8911 16.6398 30.2448 16.6398H29.07L28.0419 17.7567C27.4763 18.371 26.946 18.946 26.8634 19.0345C26.7193 19.1888 26.6667 19.143 25.5843 17.9195L24.4556 16.6437L23.1528 16.6418C21.9402 16.64 21.8582 16.65 21.9702 16.7879ZM35.4659 17.2282C34.5798 18.7552 31.6825 23.8464 31.6825 23.8766C31.6825 23.8952 32.1457 23.9105 32.7118 23.9104L33.7411 23.9101L34.1353 23.1439L34.5295 22.3776L36.6061 22.3541L38.6827 22.3306L39.0751 23.0111C39.2911 23.3853 39.4997 23.7425 39.539 23.8047C39.5926 23.8898 39.8866 23.9115 40.7245 23.8923L41.8387 23.8668L39.7495 20.2752L37.6603 16.6836L36.7355 16.6588L35.8108 16.634L35.4659 17.2282ZM45.5261 20.0781C44.4473 21.9691 43.5081 23.6051 43.4389 23.7135L43.3131 23.9106H44.3589H45.4046L45.8211 23.1206L46.2376 22.3306L48.3051 22.3541L50.3724 22.3776L50.8229 23.1222L51.2734 23.8668L52.3923 23.8914C53.0808 23.9064 53.4996 23.8836 53.4811 23.8318C53.4646 23.7855 52.5246 22.1495 51.3924 20.1961L49.3338 16.6446L48.4106 16.6422L47.4875 16.6398L45.5261 20.0781ZM55.422 20.2752V23.9106H56.3832H57.3445L57.3687 22.6185L57.393 21.3264L58.05 21.3035L58.707 21.2807L60.0947 22.5956L61.4825 23.9106L62.9417 23.9086C64.3388 23.9067 64.3929 23.9002 64.2127 23.7553C63.3731 23.0805 61.4664 21.4145 61.4664 21.3559C61.4664 21.3156 61.6142 21.2822 61.7949 21.2817C62.1835 21.2807 62.8995 20.9624 63.2455 20.6369C63.7925 20.1222 64.0357 19.0992 63.8018 18.2969C63.588 17.5639 63.2204 17.0516 62.749 16.8301C62.355 16.6448 62.2528 16.6398 58.8831 16.6398H55.422V20.2752ZM5.88629 18.3966C6.52796 18.727 6.83403 19.2081 6.87608 19.9524C6.91786 20.6915 6.78393 21.1999 6.44605 21.5846C6.03109 22.0573 5.66239 22.1407 3.76016 22.1919L2.07387 22.2374V20.1751V18.1129L3.76279 18.1428C5.37217 18.1714 5.47221 18.1833 5.88629 18.3966ZM61.6785 18.3851C61.975 18.6639 61.9921 19.2068 61.7139 19.5031C61.5253 19.7038 61.5027 19.7058 59.4801 19.7058H57.4368V18.9128V18.1198L59.4447 18.1463C61.4323 18.1725 61.4549 18.175 61.6785 18.3851ZM37.2623 19.7277L37.8023 20.7132L36.7015 20.7378C36.096 20.7513 35.581 20.7427 35.5569 20.7186C35.5078 20.6696 36.5967 18.7422 36.6735 18.7422C36.7003 18.7422 36.9653 19.1857 37.2623 19.7277ZM48.9333 19.7084C49.2259 20.2399 49.4652 20.6932 49.4652 20.7158C49.4652 20.7385 48.9494 20.757 48.3192 20.757C47.6888 20.757 47.1861 20.7257 47.2023 20.6874C47.3196 20.4078 48.2948 18.7448 48.342 18.7437C48.3747 18.7429 48.6407 19.177 48.9333 19.7084Z" fill="#F9F5E9"/>
</svg>
