<svg width="168" height="60" viewBox="0 0 168 60" xmlns="http://www.w3.org/2000/svg">
<path fill-rule="evenodd" clip-rule="evenodd" d="M55.7534 13.5344L54.4504 14.063V20.0127C54.4504 25.8283 54.4563 25.9755 54.7156 26.5361C55.1124 27.3944 55.777 28.054 56.6516 28.4579L57.4288 28.8168H83.6758H109.923L110.63 28.5309C111.537 28.1646 112.484 27.3115 112.891 26.4938C113.209 25.8567 113.211 25.8285 113.211 22.8357C113.211 21.1769 113.196 19.8196 113.177 19.8196C113.158 19.8196 112.558 20.0662 111.843 20.3675L110.543 20.9154L110.481 23.1969C110.411 25.792 110.344 25.9974 109.448 26.4046C108.945 26.6327 108.198 26.6398 84.0131 26.6424C61.8668 26.6449 59.0453 26.6239 58.6392 26.4542C58.0239 26.1971 57.7472 25.9325 57.476 25.3421C57.2651 24.8826 57.2478 24.4039 57.2453 18.9199C57.2438 15.6607 57.2008 12.9968 57.1495 13C57.0983 13.0031 56.4701 13.2436 55.7534 13.5344ZM120.853 19.1241C120.743 19.5022 120.619 19.981 120.577 20.188L120.502 20.5642L122.596 20.5697C124.847 20.5755 125.3 20.6621 126.043 21.2289C127.285 22.176 127.442 24.5651 126.332 25.6158C125.568 26.3384 125.623 26.33 121.344 26.3969L117.377 26.459L117.097 27.4517C116.944 27.9978 116.816 28.49 116.814 28.5456C116.812 28.6012 118.946 28.628 121.557 28.6052C126.181 28.5649 126.323 28.5563 127.021 28.2766C128.359 27.741 129.379 26.6962 129.745 25.4856C129.999 24.647 129.933 22.3644 129.633 21.6074C129.252 20.6449 128.677 19.8953 127.953 19.4151C126.75 18.6184 126.336 18.5305 123.554 18.481L121.053 18.4365L120.853 19.1241ZM49.1512 20.338L47.8233 20.9707L47.7861 25.0855C47.7442 29.7338 47.7541 29.6842 46.7776 30.1276C46.3166 30.3368 45.9328 30.3631 43.2814 30.3676L40.303 30.3725L39.7067 31.4933L39.1104 32.614L43.3677 32.5769C47.5085 32.5408 47.6422 32.532 48.2577 32.2534C49.0466 31.8962 49.8212 31.1171 50.194 30.306C50.4694 29.7068 50.4804 29.5515 50.516 25.7764C50.5363 23.6264 50.5363 21.3809 50.516 20.7864L50.4792 19.7055L49.1512 20.338ZM104.235 30.3268C104.189 30.3722 104.152 30.9306 104.152 31.5677V32.726H105.393H106.634V31.485V30.244H105.476C104.839 30.244 104.28 30.2812 104.235 30.3268ZM107.999 31.485V32.726H109.24H110.481V31.485V30.244H109.24H107.999V31.485ZM39 41.7248V46.8884L43.1263 46.8476C47.2488 46.8067 47.2535 46.8063 48.1063 46.4773C50.5112 45.5494 51.6895 43.8078 51.4907 41.475C51.2976 39.2078 50.249 37.7051 48.3075 36.9135C47.6526 36.6464 47.4498 36.6336 43.3125 36.5981L39 36.5611V41.7248ZM56.4036 41.7542L56.436 46.9353L61.8033 46.9677L67.1706 47V45.7578V44.5154H63.1994H59.2282V43.5847V42.6539H61.524H63.8199V41.475V40.296H61.5861H59.3523V39.4894V38.6827H63.2614H67.1706V37.6279V36.573H61.7709H56.3712L56.4036 41.7542ZM70.0407 36.7829C70.1343 36.8983 71.3419 38.1939 72.724 39.662L75.237 42.3313V44.6023V46.8733H76.6642H78.0913V44.4833V42.0934L80.7594 39.4273C82.2269 37.9611 83.4276 36.719 83.4276 36.6672C83.4276 36.6154 82.6786 36.573 81.7631 36.573H80.0988L78.6423 38.1553C77.8411 39.0256 77.0898 39.8402 76.9728 39.9655C76.7686 40.1841 76.6941 40.1192 75.1607 38.386L73.5617 36.5786L71.7161 36.5759C69.9983 36.5733 69.8821 36.5876 70.0407 36.7829ZM89.1597 37.4066C87.9043 39.5699 83.7999 46.7823 83.7999 46.8251C83.7999 46.8516 84.4561 46.8732 85.258 46.873L86.7162 46.8727L87.2746 45.7872L87.8331 44.7016L90.775 44.6683L93.7168 44.635L94.2727 45.599C94.5786 46.1292 94.8742 46.6351 94.9298 46.7234C95.0058 46.8439 95.4223 46.8747 96.6094 46.8475L98.1878 46.8112L95.228 41.7232L92.2684 36.6351L90.9583 36.6L89.6483 36.5649L89.1597 37.4066ZM103.412 41.4439C101.883 44.1229 100.553 46.4406 100.455 46.5941L100.277 46.8733H101.758H103.24L103.83 45.7542L104.42 44.635L107.348 44.6683L110.277 44.7016L110.915 45.7564L111.554 46.8112L113.139 46.8461C114.114 46.8675 114.707 46.8351 114.681 46.7617C114.658 46.6961 113.326 44.3784 111.722 41.6111L108.806 36.5799L107.498 36.5764L106.19 36.573L103.412 41.4439ZM117.431 41.7232V46.8733H118.793H120.154L120.189 45.0428L120.223 43.2124L121.154 43.18L122.085 43.1476L124.05 45.0104L126.016 46.8733L128.084 46.8706C130.063 46.8678 130.14 46.8587 129.884 46.6534C128.695 45.6973 125.994 43.3372 125.994 43.2542C125.994 43.1971 126.203 43.1498 126.459 43.1491C127.01 43.1477 128.024 42.6967 128.514 42.2356C129.289 41.5065 129.633 40.0573 129.302 38.9206C128.999 37.8822 128.478 37.1564 127.811 36.8426C127.253 36.5801 127.108 36.573 122.334 36.573H117.431V41.7232ZM47.2552 39.0619C48.1642 39.53 48.5978 40.2115 48.6574 41.2659C48.7166 42.313 48.5269 43.0332 48.0482 43.5782C47.4604 44.2478 46.938 44.366 44.2432 44.4386L41.8543 44.503V41.5814V38.6599L44.2469 38.7023C46.5269 38.7428 46.6686 38.7597 47.2552 39.0619ZM126.294 39.0456C126.714 39.4405 126.738 40.2097 126.344 40.6294C126.077 40.9137 126.045 40.9165 123.18 40.9165H120.285V39.7932V38.6697L123.13 38.7073C125.945 38.7444 125.977 38.7479 126.294 39.0456ZM91.7046 40.9476L92.4696 42.3437L90.9101 42.3785C90.0524 42.3977 89.3227 42.3855 89.2885 42.3514C89.219 42.2819 90.7616 39.5514 90.8704 39.5514C90.9084 39.5514 91.2838 40.1797 91.7046 40.9476ZM108.238 40.9203C108.653 41.6732 108.992 42.3154 108.992 42.3474C108.992 42.3795 108.261 42.4057 107.368 42.4057C106.475 42.4057 105.763 42.3614 105.786 42.3072C105.952 41.9111 107.334 39.5552 107.401 39.5535C107.447 39.5524 107.824 40.1675 108.238 40.9203Z" fill="#F9F5E9"/>
</svg>
