<svg width="188" height="72" viewBox="0 0 188 72" xmlns="http://www.w3.org/2000/svg">
<path fill-rule="evenodd" clip-rule="evenodd" d="M65.7534 19.5344L64.4504 20.063V26.0127C64.4504 31.8283 64.4563 31.9755 64.7156 32.5361C65.1124 33.3944 65.777 34.054 66.6516 34.4579L67.4288 34.8168H93.6758H119.923L120.63 34.5309C121.537 34.1646 122.484 33.3115 122.891 32.4938C123.209 31.8567 123.211 31.8285 123.211 28.8357C123.211 27.1769 123.196 25.8196 123.177 25.8196C123.158 25.8196 122.558 26.0662 121.843 26.3675L120.543 26.9154L120.481 29.1969C120.411 31.792 120.344 31.9974 119.448 32.4046C118.945 32.6327 118.198 32.6398 94.0131 32.6424C71.8668 32.6449 69.0453 32.6239 68.6392 32.4542C68.0239 32.1971 67.7472 31.9325 67.476 31.3421C67.2651 30.8826 67.2478 30.4039 67.2453 24.9199C67.2438 21.6607 67.2008 18.9968 67.1495 19C67.0983 19.0031 66.4701 19.2436 65.7534 19.5344ZM130.853 25.1241C130.743 25.5022 130.619 25.981 130.577 26.188L130.502 26.5642L132.596 26.5697C134.847 26.5755 135.3 26.6621 136.043 27.2289C137.285 28.176 137.442 30.5651 136.332 31.6158C135.568 32.3384 135.623 32.33 131.344 32.3969L127.377 32.459L127.097 33.4517C126.944 33.9978 126.816 34.49 126.814 34.5456C126.812 34.6012 128.946 34.628 131.557 34.6052C136.181 34.5649 136.323 34.5563 137.021 34.2766C138.359 33.741 139.379 32.6962 139.745 31.4856C139.999 30.647 139.933 28.3644 139.633 27.6074C139.252 26.6449 138.677 25.8953 137.953 25.4151C136.75 24.6184 136.336 24.5305 133.554 24.481L131.053 24.4365L130.853 25.1241ZM59.1512 26.338L57.8233 26.9707L57.7861 31.0855C57.7442 35.7338 57.7541 35.6842 56.7776 36.1276C56.3166 36.3368 55.9328 36.3631 53.2814 36.3676L50.303 36.3725L49.7067 37.4933L49.1104 38.614L53.3677 38.5769C57.5085 38.5408 57.6422 38.532 58.2577 38.2534C59.0466 37.8962 59.8212 37.1171 60.194 36.306C60.4694 35.7068 60.4804 35.5515 60.516 31.7764C60.5363 29.6264 60.5363 27.3809 60.516 26.7864L60.4792 25.7055L59.1512 26.338ZM114.235 36.3268C114.189 36.3722 114.152 36.9306 114.152 37.5677V38.726H115.393H116.634V37.485V36.244H115.476C114.839 36.244 114.28 36.2812 114.235 36.3268ZM117.999 37.485V38.726H119.24H120.481V37.485V36.244H119.24H117.999V37.485ZM49 47.7248V52.8884L53.1263 52.8476C57.2488 52.8067 57.2535 52.8063 58.1063 52.4773C60.5112 51.5494 61.6895 49.8078 61.4907 47.475C61.2976 45.2078 60.249 43.7051 58.3075 42.9135C57.6526 42.6464 57.4498 42.6336 53.3125 42.5981L49 42.5611V47.7248ZM66.4036 47.7542L66.436 52.9353L71.8033 52.9677L77.1706 53V51.7578V50.5154H73.1994H69.2282V49.5847V48.6539H71.524H73.8199V47.475V46.296H71.5861H69.3523V45.4894V44.6827H73.2614H77.1706V43.6279V42.573H71.7709H66.3712L66.4036 47.7542ZM80.0407 42.7829C80.1343 42.8983 81.3419 44.1939 82.724 45.662L85.237 48.3313V50.6023V52.8733H86.6642H88.0913V50.4833V48.0934L90.7594 45.4273C92.2269 43.9611 93.4276 42.719 93.4276 42.6672C93.4276 42.6154 92.6786 42.573 91.7631 42.573H90.0989L88.6423 44.1553C87.8411 45.0256 87.0898 45.8402 86.9728 45.9655C86.7686 46.1841 86.6941 46.1192 85.1607 44.386L83.5617 42.5786L81.7161 42.5759C79.9983 42.5733 79.8821 42.5876 80.0407 42.7829ZM99.1597 43.4066C97.9043 45.5699 93.7999 52.7823 93.7999 52.8251C93.7999 52.8516 94.4561 52.8732 95.258 52.873L96.7162 52.8727L97.2746 51.7872L97.8331 50.7016L100.775 50.6683L103.717 50.635L104.273 51.599C104.579 52.1292 104.874 52.6351 104.93 52.7234C105.006 52.8439 105.422 52.8747 106.609 52.8475L108.188 52.8112L105.228 47.7232L102.268 42.6351L100.958 42.6L99.6483 42.5649L99.1597 43.4066ZM113.412 47.4439C111.883 50.1229 110.553 52.4406 110.455 52.5941L110.277 52.8733H111.758H113.24L113.829 51.7542L114.42 50.635L117.348 50.6683L120.277 50.7016L120.915 51.7564L121.554 52.8112L123.139 52.8461C124.114 52.8675 124.707 52.8351 124.681 52.7617C124.658 52.6961 123.326 50.3784 121.722 47.6111L118.806 42.5799L117.498 42.5764L116.19 42.573L113.412 47.4439ZM127.431 47.7232V52.8733H128.793H130.154L130.189 51.0428L130.223 49.2124L131.154 49.18L132.085 49.1476L134.05 51.0104L136.016 52.8733L138.084 52.8706C140.063 52.8678 140.14 52.8587 139.884 52.6534C138.695 51.6973 135.994 49.3372 135.994 49.2542C135.994 49.1971 136.203 49.1498 136.459 49.1491C137.01 49.1477 138.024 48.6967 138.514 48.2356C139.289 47.5065 139.633 46.0573 139.302 44.9206C138.999 43.8822 138.478 43.1564 137.811 42.8426C137.253 42.5801 137.108 42.573 132.334 42.573H127.431V47.7232ZM57.2552 45.0619C58.1642 45.53 58.5978 46.2115 58.6574 47.2659C58.7166 48.313 58.5269 49.0332 58.0482 49.5782C57.4604 50.2478 56.938 50.366 54.2432 50.4386L51.8543 50.503V47.5814V44.6599L54.2469 44.7023C56.5269 44.7428 56.6686 44.7597 57.2552 45.0619ZM136.294 45.0456C136.714 45.4405 136.738 46.2097 136.344 46.6294C136.077 46.9137 136.045 46.9165 133.18 46.9165H130.285V45.7932V44.6697L133.13 44.7073C135.945 44.7444 135.977 44.7479 136.294 45.0456ZM101.705 46.9475L102.47 48.3437L100.91 48.3785C100.052 48.3977 99.3227 48.3855 99.2885 48.3514C99.219 48.2819 100.762 45.5514 100.87 45.5514C100.908 45.5514 101.284 46.1797 101.705 46.9475ZM118.238 46.9203C118.653 47.6732 118.992 48.3154 118.992 48.3474C118.992 48.3795 118.261 48.4057 117.368 48.4057C116.475 48.4057 115.763 48.3614 115.786 48.3072C115.952 47.9111 117.334 45.5552 117.401 45.5535C117.447 45.5524 117.824 46.1675 118.238 46.9203Z" fill="#F9F5E9"/>
</svg>
