<svg width="66" height="12" viewBox="0 0 66 12" xmlns="http://www.w3.org/2000/svg">
<path fill-rule="evenodd" clip-rule="evenodd" d="M0.432542 0.156499C0.352521 0.236302 0.287109 2.88548 0.287109 6.04357V11.7852H1.15425H2.02162L2.08092 7.80599L2.14045 3.82676L4.61585 7.80599L7.09126 11.7852H7.97061H8.84997L8.74684 6.23567C8.6376 0.366689 8.5554 -0.0798584 7.61063 0.0551083C7.1715 0.117686 7.15144 0.268132 7.04634 4.31517L6.93732 8.51047L4.75693 4.87619C3.55771 2.8772 2.34693 0.964991 2.06653 0.626375C1.59208 0.0538023 0.771158 -0.182335 0.432542 0.156499ZM14.3997 0.283615C14.0997 0.509722 10.3169 10.9892 10.3169 11.5938C10.3169 11.6991 10.7013 11.7852 11.1712 11.7852H12.0257L12.4899 10.3902L12.9541 8.99539L14.9185 8.83994C15.9986 8.75446 16.9185 8.72045 16.9624 8.76427C17.0064 8.8081 17.28 9.48119 17.5705 10.26C18.0953 11.6668 18.1049 11.6766 19.0047 11.7431C19.503 11.7802 19.9107 11.7586 19.9107 11.6954C19.9107 11.2567 16.0887 0.695928 15.82 0.392635C15.4226 -0.0563092 14.9032 -0.0962104 14.3997 0.283615ZM21.437 5.89814V11.7852H22.3026H23.1682L23.2293 9.00521L23.2903 6.2252L24.904 8.4056C27.0698 11.3321 27.7239 12.0039 28.4025 12C29.7135 11.9921 29.6416 11.7381 27.4989 8.81333C26.3682 7.26983 25.3711 5.88636 25.2832 5.73897C25.1833 5.57152 25.8658 4.6056 27.0958 3.17264C28.1807 1.90888 29.0684 0.776603 29.0684 0.656245C29.0684 0.536105 28.8198 0.324605 28.5161 0.18615C28.0111 -0.0438822 27.8787 0.0173894 26.9747 0.899361C26.4307 1.43007 25.4417 2.52681 24.7767 3.33617C24.1119 4.14554 23.4809 4.80794 23.3747 4.80794C23.2683 4.80794 23.1813 3.83025 23.1813 2.63518C23.1813 0.71032 23.1331 0.43668 22.7596 0.236737C22.5276 0.112673 22.1351 0.0110651 21.8874 0.0110651C21.4433 0.0110651 21.437 0.0939202 21.437 5.89814ZM31.2488 5.89814V11.7852H32.1139H32.9793L33.0406 9.22325L33.1021 6.66128L35.446 6.59827L37.79 6.53503V9.16023V11.7852H38.6621H39.5343V6.259C39.5343 1.18216 39.5018 0.703341 39.1355 0.371921C38.9161 0.173505 38.5237 0.0110651 38.2633 0.0110651C37.8063 0.0110651 37.79 0.093266 37.79 2.4095V4.80794H35.3915H32.9931V2.63518C32.9931 0.71032 32.9449 0.43668 32.5714 0.236737C32.3394 0.112673 31.9469 0.0110651 31.6992 0.0110651C31.2551 0.0110651 31.2488 0.0939202 31.2488 5.89814ZM58.8672 0.156499C58.6828 0.340743 58.6793 9.11118 58.8631 10.6405L59.0007 11.7852H62.1317C65.4825 11.7852 65.6038 11.7392 65.0373 10.6806C64.8389 10.3102 64.5655 10.2589 62.7815 10.2589H60.7515L60.5982 5.41715C60.5064 2.5194 60.3508 0.461973 60.2108 0.29321C59.9642 -0.00397821 59.114 -0.0905398 58.8672 0.156499ZM41.4966 6.00716V11.7852H44.8763H48.2559V11.2837C48.2559 10.3998 47.8743 10.2589 45.478 10.2589H43.2233L43.2867 8.46011L43.35 6.66128L45.1614 6.59783L46.9729 6.53416L46.9058 5.72567L46.8386 4.91696L45.0398 4.85373L43.241 4.79028V3.27294V1.75538H45.3777C47.6506 1.75538 48.0378 1.60625 48.0378 0.730597C48.0378 0.229542 48.0348 0.229105 44.7672 0.229105H41.4966V6.00716ZM50.2182 6.00716V11.7852H53.5978H56.9775V11.2837C56.9775 10.4002 56.5955 10.2589 54.2084 10.2589H51.9625V8.41432V6.56992L53.7614 6.50647L55.5602 6.44324V5.6801V4.91696L53.7614 4.85373L51.9625 4.79028V3.27294V1.75538H54.0993C56.3722 1.75538 56.7594 1.60625 56.7594 0.730597C56.7594 0.229542 56.7564 0.229105 53.4888 0.229105H50.2182V6.00716ZM15.8558 4.98281C16.1672 5.97838 16.4221 6.88586 16.4221 6.99968C16.4221 7.11328 15.7843 7.20638 15.0048 7.20638C14.2253 7.20638 13.5875 7.13312 13.5875 7.04329C13.5875 6.51476 14.9745 2.83904 15.1171 2.98992C15.2119 3.09044 15.5444 3.98724 15.8558 4.98281Z" fill="#F9F5E9"/>
</svg>
