<svg width="168" height="60" viewBox="0 0 168 60" xmlns="http://www.w3.org/2000/svg">
<path fill-rule="evenodd" clip-rule="evenodd" d="M70.0195 24.2561C70.0195 25.6292 70.0897 25.8683 70.649 26.3999L70.9779 26.7127V31.804V36.8953H71.9362H72.8946V32.7696V28.6439L77.0214 32.7696C79.2911 35.0388 81.2078 36.8953 81.2808 36.8953C81.3851 36.8953 81.4133 35.512 81.4133 30.3998V23.9043H80.5082H79.6031V28.1636C79.6031 30.5063 79.5673 32.423 79.5237 32.423C79.48 32.423 77.3237 30.3028 74.7319 27.7115L70.0195 23V24.2561ZM90.7839 23.9663C89.18 24.3895 87.7639 25.5126 87.0818 26.9026C86.012 29.0824 86.0323 31.8452 87.1334 33.9457C88.1818 35.9457 90.0795 36.995 92.657 37C94.257 37.003 95.5574 36.5866 96.7204 35.6989L97.2794 35.2722V32.9424V30.6128H94.99H92.7006V31.4114V32.21H94.0317H95.3627V33.3736V34.5372L94.8037 34.7976C93.9565 35.1923 93.2013 35.3338 92.2864 35.2694C90.3607 35.1339 89.1055 34.1112 88.492 32.1779C88.0345 30.7365 88.1612 29.0258 88.8221 27.7217C89.6653 26.0576 91.4455 25.1757 93.3129 25.4968C94.1441 25.6397 94.9971 26.0016 95.567 26.453L95.966 26.7689L96.5162 26.2118C96.8189 25.9053 97.0665 25.6046 97.0665 25.5436C97.0665 25.3982 96.0534 24.5753 95.5693 24.3275C94.5416 23.8016 92.1053 23.6177 90.7839 23.9663ZM117.687 23.9664C115.647 24.4601 114.088 26.0655 113.451 28.3271C113.145 29.415 113.122 31.2719 113.402 32.3165C113.729 33.538 114.28 34.5366 115.052 35.3065C116.226 36.4773 117.619 36.9962 119.597 37C123.316 37.007 125.721 34.6078 125.896 30.7166C125.942 29.6927 125.913 29.3396 125.725 28.5869C125.101 26.0978 123.637 24.5303 121.402 23.9598C120.602 23.7555 118.543 23.7592 117.687 23.9664ZM27 30.401V36.8978L31.2327 36.8699L35.4655 36.8421L35.4966 36.0168L35.5277 35.1916H32.2222H28.9167V33.2749V31.3581H31.4723H34.0279V30.5063V29.6544H31.4723H28.9167V27.6312V25.608H32.2177H35.5187V24.7561V23.9043H31.2594H27V30.401ZM40.3105 30.3998V36.8953H43.718H47.1255V36.0434V35.1916H44.6763H42.2272V29.5479V23.9043H41.2689H40.3105V30.3998ZM51.9173 30.3998V36.8953H55.3247H58.7322V36.0434V35.1916H56.2831H53.834V29.5479V23.9043H52.8756H51.9173V30.3998ZM63.5498 30.3732L63.5773 36.8421L64.509 36.8728L65.4407 36.9036V30.4039V23.9043H64.4815H63.5224L63.5498 30.3732ZM100.9 24.7561V25.608H102.763H104.627V31.2517V36.8953H105.585H106.544V31.2517V25.608H108.407H110.27V24.7561V23.9043H105.585H100.9V24.7561ZM139.341 28.1595C139.341 30.5044 139.305 32.423 139.261 32.423C139.218 32.423 137.303 30.5446 135.007 28.2488C132.185 25.4276 130.812 24.1247 130.772 24.229C130.74 24.314 130.726 27.1866 130.741 30.6128L130.769 36.8421L131.7 36.8728L132.632 36.9036V32.7998C132.632 30.5428 132.668 28.696 132.711 28.696C132.755 28.696 134.647 30.5515 136.915 32.8194C139.746 35.6498 141.074 36.9083 141.149 36.833C141.223 36.7594 141.25 34.6157 141.232 30.3404L141.204 23.9575L140.272 23.9267L139.341 23.896V28.1595ZM121.106 25.6729C123.156 26.3351 124.422 29.0545 123.859 31.5854C123.49 33.2451 122.722 34.3346 121.498 34.9348C120.906 35.2248 120.783 35.2448 119.588 35.2448C118.405 35.2448 118.261 35.2221 117.646 34.9381C114.866 33.6538 114.224 28.9673 116.507 26.6181C117.572 25.5224 119.447 25.137 121.106 25.6729Z" fill="#F9F5E9"/>
</svg>
