<svg width="188" height="72" viewBox="0 0 188 72" xmlns="http://www.w3.org/2000/svg">
<path fill-rule="evenodd" clip-rule="evenodd" d="M80.0195 30.2561C80.0195 31.6292 80.0897 31.8683 80.649 32.3999L80.9779 32.7127V37.804V42.8953H81.9362H82.8946V38.7696V34.6439L87.0214 38.7696C89.2911 41.0388 91.2078 42.8953 91.2808 42.8953C91.3851 42.8953 91.4133 41.512 91.4133 36.3998V29.9043H90.5082H89.6031V34.1636C89.6031 36.5063 89.5673 38.423 89.5237 38.423C89.48 38.423 87.3237 36.3028 84.7319 33.7115L80.0195 29V30.2561ZM100.784 29.9663C99.18 30.3895 97.7639 31.5126 97.0818 32.9026C96.012 35.0824 96.0323 37.8452 97.1334 39.9457C98.1818 41.9457 100.08 42.995 102.657 43C104.257 43.003 105.557 42.5866 106.72 41.6989L107.279 41.2722V38.9424V36.6128H104.99H102.701V37.4114V38.21H104.032H105.363V39.3736V40.5372L104.804 40.7976C103.957 41.1923 103.201 41.3338 102.286 41.2694C100.361 41.1339 99.1055 40.1112 98.492 38.1779C98.0345 36.7365 98.1612 35.0258 98.8221 33.7217C99.6653 32.0576 101.446 31.1757 103.313 31.4968C104.144 31.6397 104.997 32.0016 105.567 32.453L105.966 32.7689L106.516 32.2118C106.819 31.9053 107.066 31.6046 107.066 31.5436C107.066 31.3982 106.053 30.5753 105.569 30.3275C104.542 29.8016 102.105 29.6177 100.784 29.9663ZM127.687 29.9664C125.647 30.4601 124.088 32.0655 123.451 34.3271C123.145 35.415 123.122 37.2719 123.402 38.3165C123.729 39.538 124.28 40.5366 125.052 41.3065C126.226 42.4773 127.619 42.9962 129.597 43C133.316 43.007 135.721 40.6078 135.896 36.7166C135.942 35.6927 135.913 35.3396 135.725 34.5869C135.101 32.0978 133.637 30.5303 131.402 29.9598C130.602 29.7555 128.543 29.7592 127.687 29.9664ZM37 36.401V42.8978L41.2327 42.8699L45.4655 42.8421L45.4966 42.0168L45.5277 41.1916H42.2222H38.9167V39.2749V37.3581H41.4723H44.0279V36.5063V35.6544H41.4723H38.9167V33.6312V31.608H42.2177H45.5187V30.7561V29.9043H41.2594H37V36.401ZM50.3105 36.3998V42.8953H53.718H57.1255V42.0434V41.1916H54.6763H52.2272V35.5479V29.9043H51.2689H50.3105V36.3998ZM61.9173 36.3998V42.8953H65.3247H68.7322V42.0434V41.1916H66.2831H63.834V35.5479V29.9043H62.8756H61.9173V36.3998ZM73.5498 36.3732L73.5773 42.8421L74.509 42.8728L75.4407 42.9036V36.4039V29.9043H74.4815H73.5224L73.5498 36.3732ZM110.9 30.7561V31.608H112.763H114.627V37.2517V42.8953H115.585H116.544V37.2517V31.608H118.407H120.27V30.7561V29.9043H115.585H110.9V30.7561ZM149.341 34.1595C149.341 36.5044 149.305 38.423 149.261 38.423C149.218 38.423 147.303 36.5446 145.007 34.2488C142.185 31.4276 140.812 30.1247 140.772 30.229C140.74 30.314 140.726 33.1866 140.741 36.6128L140.769 42.8421L141.7 42.8728L142.632 42.9036V38.7998C142.632 36.5428 142.668 34.696 142.711 34.696C142.755 34.696 144.647 36.5515 146.915 38.8194C149.746 41.6498 151.074 42.9083 151.149 42.833C151.223 42.7594 151.25 40.6157 151.232 36.3404L151.204 29.9575L150.272 29.9267L149.341 29.896V34.1595ZM131.106 31.6729C133.156 32.3351 134.422 35.0545 133.859 37.5854C133.49 39.2451 132.722 40.3346 131.498 40.9348C130.906 41.2248 130.783 41.2448 129.588 41.2448C128.405 41.2448 128.261 41.2221 127.646 40.9381C124.866 39.6538 124.224 34.9673 126.507 32.6181C127.572 31.5224 129.447 31.137 131.106 31.6729Z" fill="#F9F5E9"/>
</svg>
