<svg width="110" height="102" viewBox="0 0 110 102" fill="none" xmlns="http://www.w3.org/2000/svg">
<rect x="110" y="66" width="4" height="27" transform="rotate(-180 110 66)" fill="#030500"/>
<rect x="94" y="86" width="78" height="62" transform="rotate(-180 94 86)" fill="#F834EC"/>
<rect x="86" y="24" width="62" height="7.99999" transform="rotate(-180 86 24)" fill="#F834EC"/>
<rect x="78" y="16" width="46" height="8" transform="rotate(-180 78 16)" fill="#F834EC"/>
<rect x="74" y="64" width="22" height="38" transform="rotate(90 74 64)" fill="#9A2093"/>
<rect x="36" y="56" width="30" height="8" transform="rotate(90 36 56)" fill="#9A2093"/>
<rect x="78" y="56" width="30" height="4" transform="rotate(90 78 56)" fill="#9A2093"/>
<rect x="86" y="52" width="34" height="8" transform="rotate(90 86 52)" fill="#9A2093"/>
<rect x="32" y="52" width="34" height="8" transform="rotate(90 32 52)" fill="#9A2093"/>
<rect x="24" y="44" width="42" height="8" transform="rotate(90 24 44)" fill="#9A2093"/>
<rect x="94" y="44" width="42" height="8" transform="rotate(90 94 44)" fill="#9A2093"/>
<rect x="66" y="8" width="22" height="4" transform="rotate(-180 66 8)" fill="#F834EC"/>
<rect x="44" y="4" width="4" height="8" transform="rotate(90 44 4)" fill="#030500"/>
<rect x="74" y="4" width="4" height="8" transform="rotate(90 74 4)" fill="#030500"/>
<rect x="44.0264" y="78" width="4" height="8" transform="rotate(90 44.0264 78)" fill="#030500"/>
<rect x="44.0264" y="60" width="4" height="8" transform="rotate(90 44.0264 60)" fill="#FF95F9"/>
<rect x="36.0264" y="94" width="4" height="8" transform="rotate(90 36.0264 94)" fill="#030500"/>
<rect x="36.0264" y="90" width="4" height="8" transform="rotate(90 36.0264 90)" fill="#615F83"/>
<rect x="36.0264" y="86" width="4" height="8" transform="rotate(90 36.0264 86)" fill="#B1A7C6"/>
<rect x="74.0264" y="78" width="4" height="8" transform="rotate(90 74.0264 78)" fill="#030500"/>
<rect x="44.0264" y="82" width="4" height="16" transform="rotate(90 44.0264 82)" fill="#8381AD"/>
<rect x="74.0264" y="60" width="4" height="8" transform="rotate(90 74.0264 60)" fill="#FF95F9"/>
<rect x="82.0264" y="94" width="4" height="8" transform="rotate(90 82.0264 94)" fill="#030500"/>
<rect x="82.0264" y="90" width="4" height="8" transform="rotate(90 82.0264 90)" fill="#615F83"/>
<rect x="82.0264" y="86" width="4" height="8" transform="rotate(90 82.0264 86)" fill="#B1A7C6"/>
<rect x="82.0264" y="82" width="4" height="8" transform="rotate(90 82.0264 82)" fill="#8381AD"/>
<rect x="82.0264" y="78" width="4" height="8" transform="rotate(90 82.0264 78)" fill="#8381AD"/>
<rect x="90.0264" y="74" width="4" height="16" transform="rotate(90 90.0264 74)" fill="#8381AD"/>
<rect x="90.0264" y="70" width="4" height="12" transform="rotate(90 90.0264 70)" fill="#8381AD"/>
<rect x="94.0264" y="66" width="4" height="12" transform="rotate(90 94.0264 66)" fill="#8381AD"/>
<rect x="98.0264" y="62" width="4" height="12" transform="rotate(90 98.0264 62)" fill="#8381AD"/>
<rect x="106.026" y="53" width="14" height="12" transform="rotate(90 106.026 53)" fill="#8381AD"/>
<rect x="20.0264" y="54" width="8" height="16" transform="rotate(90 20.0264 54)" fill="#8381AD"/>
<rect x="20.0264" y="62" width="8" height="16" transform="rotate(90 20.0264 62)" fill="#8381AD"/>
<rect x="32.0264" y="70" width="8" height="16" transform="rotate(90 32.0264 70)" fill="#8381AD"/>
<rect x="27.999" y="66" width="8" height="12" transform="rotate(90 27.999 66)" fill="#8381AD"/>
<rect x="36.0264" y="74" width="8" height="16" transform="rotate(90 36.0264 74)" fill="#8381AD"/>
<rect x="106" y="36" width="18" height="12" transform="rotate(90 106 36)" fill="#8381AD"/>
<rect x="16" y="36" width="18" height="12" transform="rotate(90 16 36)" fill="#8381AD"/>
<rect x="74.0264" y="82" width="4" height="8" transform="rotate(90 74.0264 82)" fill="#8381AD"/>
<rect x="94.0264" y="62" width="4" height="8" transform="rotate(-180 94.0264 62)" fill="#030500"/>
<rect x="16" y="54" width="4" height="22" transform="rotate(-180 16 54)" fill="#030500"/>
<rect x="4" y="66" width="4" height="30" transform="rotate(-180 4 66)" fill="#030500"/>
<rect x="20" y="32" width="4" height="8" transform="rotate(-180 20 32)" fill="#030500"/>
<rect x="8.02637" y="74" width="4" height="8" transform="rotate(-180 8.02637 74)" fill="#030500"/>
<rect x="8.02637" y="66" width="4" height="8" transform="rotate(-180 8.02637 66)" fill="#B1A7C6"/>
<rect x="106.026" y="74" width="4" height="8" transform="rotate(-180 106.026 74)" fill="#030500"/>
<rect x="106.026" y="66" width="4" height="8" transform="rotate(-180 106.026 66)" fill="#B1A7C6"/>
<rect x="78.0264" y="74" width="4" height="4" transform="rotate(90 78.0264 74)" fill="#030500"/>
<rect x="20.0264" y="62" width="4" height="8" transform="rotate(-180 20.0264 62)" fill="#030500"/>
<rect x="78" y="8" width="4" height="4" transform="rotate(90 78 8)" fill="#030500"/>
<rect x="78.0264" y="56" width="4" height="4" transform="rotate(90 78.0264 56)" fill="#FF95F9"/>
<rect x="90.0264" y="86" width="4" height="4" transform="rotate(90 90.0264 86)" fill="#030500"/>
<rect x="90.0264" y="82" width="4" height="4" transform="rotate(90 90.0264 82)" fill="#615F83"/>
<rect x="90.0264" y="78" width="4" height="4" transform="rotate(90 90.0264 78)" fill="#B1A7C6"/>
<rect x="90.0264" y="74" width="4" height="4" transform="rotate(90 90.0264 74)" fill="#8381AD"/>
<rect x="86.0264" y="90" width="4" height="4" transform="rotate(90 86.0264 90)" fill="#030500"/>
<rect x="86.0264" y="86" width="4" height="4" transform="rotate(90 86.0264 86)" fill="#615F83"/>
<rect x="82.0264" y="70" width="4" height="4" transform="rotate(90 82.0264 70)" fill="#030500"/>
<rect x="86.0264" y="82" width="4" height="4" transform="rotate(90 86.0264 82)" fill="#B1A7C6"/>
<rect x="86.0264" y="78" width="4" height="4" transform="rotate(90 86.0264 78)" fill="#8381AD"/>
<rect x="82" y="12" width="4" height="4" transform="rotate(90 82 12)" fill="#030500"/>
<rect x="82.0264" y="52" width="4" height="4" transform="rotate(90 82.0264 52)" fill="#FF95F9"/>
<rect x="94.0264" y="82" width="4" height="4" transform="rotate(90 94.0264 82)" fill="#030500"/>
<rect x="86.0264" y="66" width="4" height="4" transform="rotate(90 86.0264 66)" fill="#030500"/>
<rect x="94.0264" y="78" width="4" height="4" transform="rotate(90 94.0264 78)" fill="#615F83"/>
<rect x="94.0264" y="74" width="4" height="4" transform="rotate(90 94.0264 74)" fill="#B1A7C6"/>
<rect x="94.0264" y="70" width="4" height="4" transform="rotate(90 94.0264 70)" fill="#8381AD"/>
<rect x="86" y="16" width="4" height="4" transform="rotate(90 86 16)" fill="#030500"/>
<rect x="86.0264" y="48" width="4" height="4" transform="rotate(90 86.0264 48)" fill="#FF95F9"/>
<rect x="98.0264" y="78" width="4" height="4" transform="rotate(90 98.0264 78)" fill="#030500"/>
<rect x="98.0264" y="74" width="4" height="4" transform="rotate(90 98.0264 74)" fill="#615F83"/>
<rect x="98.0264" y="70" width="4" height="4" transform="rotate(90 98.0264 70)" fill="#B1A7C6"/>
<rect x="98.0264" y="66" width="4" height="4" transform="rotate(90 98.0264 66)" fill="#8381AD"/>
<rect x="90.0264" y="62" width="4" height="4" transform="rotate(90 90.0264 62)" fill="#030500"/>
<rect x="36" y="8" width="4" height="4" transform="rotate(90 36 8)" fill="#030500"/>
<rect x="32" y="12" width="4" height="4" transform="rotate(90 32 12)" fill="#030500"/>
<rect x="28" y="16" width="4" height="4" transform="rotate(90 28 16)" fill="#030500"/>
<rect x="36.0264" y="74" width="4" height="4" transform="rotate(90 36.0264 74)" fill="#030500"/>
<rect x="24.0264" y="20" width="4" height="4" transform="rotate(90 24.0264 20)" fill="#030500"/>
<rect x="12" y="40" width="8" height="4" transform="rotate(-180 12 40)" fill="#030500"/>
<rect x="90" y="20" width="4" height="4" transform="rotate(90 90 20)" fill="#030500"/>
<rect x="90.0264" y="44" width="4" height="4" transform="rotate(90 90.0264 44)" fill="#FF95F9"/>
<rect x="94" y="40" width="4" height="4" transform="rotate(90 94 40)" fill="#FF95F9"/>
<rect x="102.026" y="74" width="4" height="4" transform="rotate(90 102.026 74)" fill="#030500"/>
<rect x="102.026" y="70" width="4" height="4" transform="rotate(90 102.026 70)" fill="#615F83"/>
<rect x="102.026" y="66" width="4" height="4" transform="rotate(90 102.026 66)" fill="#B1A7C6"/>
<rect x="36.0264" y="56" width="4" height="4" transform="rotate(90 36.0264 56)" fill="#FF95F9"/>
<rect x="24.0264" y="86" width="4" height="4" transform="rotate(90 24.0264 86)" fill="#030500"/>
<rect x="32.0264" y="70" width="4" height="4" transform="rotate(90 32.0264 70)" fill="#030500"/>
<rect x="24.0264" y="82" width="4" height="4" transform="rotate(90 24.0264 82)" fill="#615F83"/>
<rect x="24.0264" y="78" width="4" height="4" transform="rotate(90 24.0264 78)" fill="#B1A7C6"/>
<rect x="28.0264" y="66" width="4" height="4" transform="rotate(90 28.0264 66)" fill="#030500"/>
<rect x="28.0264" y="90" width="4" height="4" transform="rotate(90 28.0264 90)" fill="#030500"/>
<rect x="28.0264" y="86" width="4" height="4" transform="rotate(90 28.0264 86)" fill="#615F83"/>
<rect x="28.0264" y="82" width="4" height="4" transform="rotate(90 28.0264 82)" fill="#B1A7C6"/>
<rect x="24.0264" y="62" width="4" height="4" transform="rotate(90 24.0264 62)" fill="#030500"/>
<rect x="32.0264" y="52" width="4" height="4" transform="rotate(90 32.0264 52)" fill="#FF95F9"/>
<rect x="20.0264" y="82" width="4" height="4" transform="rotate(90 20.0264 82)" fill="#030500"/>
<rect x="20.0264" y="78" width="4" height="4" transform="rotate(90 20.0264 78)" fill="#615F83"/>
<rect x="20.0264" y="74" width="4" height="4" transform="rotate(90 20.0264 74)" fill="#B1A7C6"/>
<rect x="28.0264" y="48" width="4" height="4" transform="rotate(90 28.0264 48)" fill="#FF95F9"/>
<rect x="16.0264" y="78" width="4" height="4" transform="rotate(90 16.0264 78)" fill="#030500"/>
<rect x="16.0264" y="74" width="4" height="4" transform="rotate(90 16.0264 74)" fill="#615F83"/>
<rect x="16.0264" y="70" width="4" height="4" transform="rotate(90 16.0264 70)" fill="#B1A7C6"/>
<rect x="16.0264" y="66" width="4" height="4" transform="rotate(90 16.0264 66)" fill="#8381AD"/>
<rect x="66.0264" y="82" width="4" height="22" transform="rotate(90 66.0264 82)" fill="#030500"/>
<rect x="24.0264" y="44" width="4" height="4" transform="rotate(90 24.0264 44)" fill="#FF95F9"/>
<rect x="20" y="40" width="4" height="4" transform="rotate(90 20 40)" fill="#FF95F9"/>
<rect x="12.0264" y="74" width="4" height="4" transform="rotate(90 12.0264 74)" fill="#030500"/>
<rect x="12.0264" y="70" width="4" height="4" transform="rotate(90 12.0264 70)" fill="#615F83"/>
<rect x="12.0264" y="66" width="4" height="4" transform="rotate(90 12.0264 66)" fill="#B1A7C6"/>
<rect x="66" width="4" height="22" transform="rotate(90 66 0)" fill="#030500"/>
<rect x="66.0264" y="64" width="4" height="22" transform="rotate(90 66.0264 64)" fill="#FF95F9"/>
<rect x="74.0264" y="98" width="4" height="38" transform="rotate(90 74.0264 98)" fill="#030500"/>
<rect x="74.0264" y="94" width="4" height="38" transform="rotate(90 74.0264 94)" fill="#615F83"/>
<rect x="74.0264" y="90" width="4" height="38" transform="rotate(90 74.0264 90)" fill="#B1A7C6"/>
<rect x="74.0264" y="86" width="4" height="38" transform="rotate(90 74.0264 86)" fill="#8381AD"/>
<rect x="98" y="54" width="4" height="22" transform="rotate(-180 98 54)" fill="#030500"/>
<rect x="94" y="32" width="4" height="8" transform="rotate(-180 94 32)" fill="#030500"/>
<g filter="url(#filter0_d_414_72)">
<path d="M45.0625 29.2222V25.6667H48.6181V22.1111H62.8403V25.6667H66.3958V32.7778H62.8403V36.3333H59.2847V39.8889H52.1736V36.3333H55.7292V32.7778H59.2847V25.6667H52.1736V29.2222H45.0625ZM52.1736 47V43.4444H59.2847V47H52.1736Z" fill="white"/>
</g>
<defs>
<filter id="filter0_d_414_72" x="43.0625" y="22.1111" width="23.3335" height="26.8889" filterUnits="userSpaceOnUse" color-interpolation-filters="sRGB">
<feFlood flood-opacity="0" result="BackgroundImageFix"/>
<feColorMatrix in="SourceAlpha" type="matrix" values="0 0 0 0 0 0 0 0 0 0 0 0 0 0 0 0 0 0 127 0" result="hardAlpha"/>
<feOffset dx="-2" dy="2"/>
<feComposite in2="hardAlpha" operator="out"/>
<feColorMatrix type="matrix" values="0 0 0 0 0.603922 0 0 0 0 0.12549 0 0 0 0 0.576471 0 0 0 1 0"/>
<feBlend mode="normal" in2="BackgroundImageFix" result="effect1_dropShadow_414_72"/>
<feBlend mode="normal" in="SourceGraphic" in2="effect1_dropShadow_414_72" result="shape"/>
</filter>
</defs>
</svg>
