<svg width="64" height="64" viewBox="0 0 64 64" fill="none" xmlns="http://www.w3.org/2000/svg">
<rect x="60" y="12" width="40" height="56" transform="rotate(90 60 12)" fill="#B6B1C9"/>
<rect x="52" y="4" width="4" height="40" transform="rotate(90 52 4)" fill="#B6B1C9"/>
<rect x="52" y="8" width="4" height="40" transform="rotate(90 52 8)" fill="#B6B1C9"/>
<rect x="50" y="12" width="36" height="36" transform="rotate(90 50 12)" fill="#F834EC"/>
<rect x="60" y="12" width="4" height="4" transform="rotate(90 60 12)" fill="#030500"/>
<rect x="56" y="52" width="4" height="4" transform="rotate(90 56 52)" fill="#030500"/>
<rect x="12" y="52" width="4" height="4" transform="rotate(90 12 52)" fill="#030500"/>
<rect x="52" y="56" width="4" height="4" transform="rotate(90 52 56)" fill="#030500"/>
<rect x="50" y="44" width="4" height="4" transform="rotate(90 50 44)" fill="#030500"/>
<rect x="18" y="44" width="4" height="4" transform="rotate(90 18 44)" fill="#030500"/>
<rect x="16" y="56" width="4" height="4" transform="rotate(90 16 56)" fill="#030500"/>
<rect x="56" y="8" width="4" height="4" transform="rotate(90 56 8)" fill="#030500"/>
<rect x="50" y="12" width="4" height="4" transform="rotate(90 50 12)" fill="#030500"/>
<rect x="52" y="4" width="4" height="4" transform="rotate(90 52 4)" fill="#030500"/>
<rect x="16" y="4" width="4" height="4" transform="rotate(90 16 4)" fill="#030500"/>
<rect x="12" y="8" width="4" height="4" transform="rotate(90 12 8)" fill="#030500"/>
<rect x="18" y="12" width="4" height="4" transform="rotate(90 18 12)" fill="#030500"/>
<rect x="8" y="12" width="4" height="4" transform="rotate(90 8 12)" fill="#030500"/>
<rect x="48" y="56" width="4" height="32" transform="rotate(90 48 56)" fill="#8381AD"/>
<rect x="52" y="52" width="4" height="40" transform="rotate(90 52 52)" fill="#DEDBE4"/>
<rect x="16" y="52" width="4" height="4" transform="rotate(90 16 52)" fill="#8381AD"/>
<rect x="52" y="52" width="4" height="4" transform="rotate(90 52 52)" fill="#8381AD"/>
<rect x="12" y="48" width="4" height="4" transform="rotate(90 12 48)" fill="#DEDBE4"/>
<rect x="56" y="48" width="4" height="4" transform="rotate(90 56 48)" fill="#DEDBE4"/>
<rect x="64" y="16" width="32" height="4" transform="rotate(90 64 16)" fill="#030500"/>
<rect x="54" y="16" width="28" height="4" transform="rotate(90 54 16)" fill="#030500"/>
<rect x="50" y="16" width="28" height="4" transform="rotate(90 50 16)" fill="#FF95F9"/>
<rect x="14" y="16" width="28" height="4" transform="rotate(90 14 16)" fill="#030500"/>
<rect x="18" y="16" width="28" height="4" transform="rotate(90 18 16)" fill="#9A2093"/>
<rect x="4" y="16" width="32" height="4" transform="rotate(90 4 16)" fill="#030500"/>
<rect x="48" y="64" width="32" height="4" transform="rotate(-180 48 64)" fill="#030500"/>
<rect x="48" y="4" width="32" height="4" transform="rotate(-180 48 4)" fill="#030500"/>
<rect x="46" y="12" width="28" height="4" transform="rotate(-180 46 12)" fill="#030500"/>
<rect x="46" y="16" width="28" height="4" transform="rotate(-180 46 16)" fill="#FF95F9"/>
<rect x="46" y="52" width="28" height="4" transform="rotate(-180 46 52)" fill="#030500"/>
<rect x="46" y="48" width="28" height="4" transform="rotate(-180 46 48)" fill="#9A2093"/>
<rect x="60" y="48" width="4" height="4" transform="rotate(90 60 48)" fill="#030500"/>
<rect x="8" y="48" width="4" height="4" transform="rotate(90 8 48)" fill="#030500"/>
<g filter="url(#filter0_d_242_10023)">
<path d="M39.5 28.3333V27.5H38.6667V25.8333H39.5V24.1666H38.6667V23.3333H37.8333V22.5H36.1667V23.3333H34.5V22.5H33.6667V20.8333H30.3333V22.5H29.5V23.3333H27.8333V22.5H26.1667V23.3333H25.3333V24.1666H24.5V25.8333H25.3333V27.5H24.5V28.3333H22.8333V31.6666H24.5V32.5H25.3333V34.1666H24.5V35.8333H25.3333V36.6666H26.1667V37.5H27.8333V36.6666H29.5V37.5H30.3333V39.1666H33.6667V37.5H34.5V36.6666H36.1667V37.5H37.8333V36.6666H38.6667V35.8333H39.5V34.1666H38.6667V32.5H39.5V31.6666H41.1667V28.3333H39.5ZM30.3333 28.3333V27.5H33.6667V28.3333H34.5V31.6666H33.6667V32.5H30.3333V31.6666H29.5V28.3333H30.3333Z" fill="white"/>
</g>
<defs>
<filter id="filter0_d_242_10023" x="20" y="20" width="22" height="22" filterUnits="userSpaceOnUse" color-interpolation-filters="sRGB">
<feFlood flood-opacity="0" result="BackgroundImageFix"/>
<feColorMatrix in="SourceAlpha" type="matrix" values="0 0 0 0 0 0 0 0 0 0 0 0 0 0 0 0 0 0 127 0" result="hardAlpha"/>
<feOffset dx="-2" dy="2"/>
<feComposite in2="hardAlpha" operator="out"/>
<feColorMatrix type="matrix" values="0 0 0 0 0.603922 0 0 0 0 0.12549 0 0 0 0 0.576471 0 0 0 1 0"/>
<feBlend mode="normal" in2="BackgroundImageFix" result="effect1_dropShadow_242_10023"/>
<feBlend mode="normal" in="SourceGraphic" in2="effect1_dropShadow_242_10023" result="shape"/>
</filter>
</defs>
</svg>
