<svg width="21" height="29" viewBox="0 0 21 29" xmlns="http://www.w3.org/2000/svg">
<path d="M10.3948 17.7715L3.83231 12.3027C3.7021 12.1986 3.62723 12.0553 3.6077 11.873C3.58817 11.6908 3.637 11.5345 3.75419 11.4043C3.87137 11.2741 4.01786 11.1992 4.19364 11.1797C4.36942 11.1602 4.52241 11.209 4.65262 11.3262L10.805 16.4434L16.9573 11.3262C17.0875 11.209 17.2405 11.1602 17.4163 11.1797C17.5921 11.1992 17.7386 11.2741 17.8557 11.4043C17.9729 11.5345 18.0218 11.6908 18.0022 11.873C17.9827 12.0553 17.9078 12.1986 17.7776 12.3027L11.2151 17.7715C11.15 17.8236 11.0849 17.8626 11.0198 17.8887C10.9547 17.9147 10.8831 17.9277 10.805 17.9277C10.7268 17.9277 10.6552 17.9147 10.5901 17.8887C10.525 17.8626 10.4599 17.8236 10.3948 17.7715Z" />
</svg>
