<svg width="20" height="20" viewBox="0 0 20 20" fill="none" xmlns="http://www.w3.org/2000/svg">
<path d="M10 0.5C12.58 0.5 12.9 0.51 13.92 0.56C14.7059 0.57648 15.4835 0.725228 16.22 1C16.85 1.24 17.38 1.57 17.91 2.1C18.39 2.57 18.76 3.14 19.01 3.78C19.24 4.38 19.4 5.08 19.44 6.08C19.4971 7.38583 19.5171 8.69303 19.5 10C19.5 12.58 19.5 12.9 19.44 13.92C19.4231 14.7059 19.2744 15.4834 19 16.22C18.76 16.86 18.39 17.43 17.9 17.91C17.43 18.39 16.86 18.76 16.22 19.01C15.62 19.24 14.92 19.4 13.92 19.44C12.6142 19.4972 11.307 19.5172 10 19.5C7.42 19.5 7.1 19.5 6.08 19.44C5.2941 19.4231 4.51662 19.2744 3.78 19C3.14299 18.7614 2.56609 18.3859 2.09 17.9C1.61041 17.4285 1.23857 16.8588 0.999998 16.23C0.728638 15.4929 0.583274 14.7154 0.569998 13.93C0.512852 12.6242 0.492844 11.317 0.509998 10.01C0.509998 7.43 0.519998 7.11 0.569998 6.09C0.582152 5.30127 0.727533 4.52027 0.999998 3.78C1.24 3.14 1.61 2.57 2.1 2.09C2.5732 1.60535 3.14657 1.22993 3.78 0.99C4.51711 0.71864 5.29464 0.573276 6.08 0.56C7.1 0.5 7.42 0.5 10 0.5ZM10 5.25C8.74022 5.25 7.53204 5.75045 6.64124 6.64124C5.75044 7.53204 5.25 8.74022 5.25 10C5.25 11.2598 5.75044 12.468 6.64124 13.3588C7.53204 14.2496 8.74022 14.75 10 14.75C11.2598 14.75 12.468 14.2496 13.3588 13.3588C14.2496 12.468 14.75 11.2598 14.75 10C14.75 8.74022 14.2496 7.53204 13.3588 6.64124C12.468 5.75045 11.2598 5.25 10 5.25ZM16.18 5.01C16.18 4.69439 16.0546 4.39171 15.8315 4.16854C15.6083 3.94537 15.3056 3.82 14.99 3.82C14.6744 3.82 14.3717 3.94537 14.1485 4.16854C13.9254 4.39171 13.8 4.69439 13.8 5.01C13.8 5.32561 13.9254 5.62829 14.1485 5.85146C14.3717 6.07463 14.6744 6.2 14.99 6.2C15.3056 6.2 15.6083 6.07463 15.8315 5.85146C16.0546 5.62829 16.18 5.32561 16.18 5.01ZM10 7.15C10.3743 7.15 10.7449 7.22372 11.0906 7.36694C11.4364 7.51017 11.7506 7.7201 12.0153 7.98475C12.2799 8.24939 12.4898 8.56357 12.6331 8.90935C12.7763 9.25513 12.85 9.62573 12.85 10C12.85 10.3743 12.7763 10.7449 12.6331 11.0906C12.4898 11.4364 12.2799 11.7506 12.0153 12.0153C11.7506 12.2799 11.4364 12.4898 11.0906 12.6331C10.7449 12.7763 10.3743 12.85 10 12.85C9.24413 12.85 8.51922 12.5497 7.98474 12.0153C7.45027 11.4808 7.15 10.7559 7.15 10C7.15 9.24413 7.45027 8.51922 7.98474 7.98475C8.51922 7.45027 9.24413 7.15 10 7.15Z" fill="#F9F5E9"/>
</svg>
