<svg width="20" height="21" viewBox="0 0 20 21" xmlns="http://www.w3.org/2000/svg">
<path d="M17.5 14.18V17.13C17.5006 17.3401 17.4214 17.5426 17.2785 17.6967C17.1356 17.8507 16.9396 17.9448 16.73 17.96C14.8338 18.0869 12.9323 17.8068 11.1532 17.1385C9.37406 16.4703 7.7584 15.4293 6.41455 14.0855C5.07071 12.7416 4.02975 11.126 3.3615 9.34683C2.69325 7.5677 2.41316 5.66625 2.54001 3.77C2.5552 3.56043 2.64931 3.36442 2.80335 3.22152C2.95739 3.07862 3.15989 2.99945 3.37001 3H6.32001C6.42308 3.00199 6.52181 3.04181 6.59741 3.11188C6.67302 3.18196 6.72021 3.27739 6.73001 3.38C6.86106 4.69642 7.22328 5.97941 7.80001 7.17C7.88001 7.34 7.83001 7.54 7.68001 7.64L5.88001 8.93C6.98001 11.49 9.02001 13.53 11.58 14.63L12.87 12.83C12.9238 12.7576 13.001 12.706 13.0885 12.6841C13.1761 12.6623 13.2685 12.6714 13.35 12.71C14.5436 13.277 15.8255 13.6355 17.14 13.77C17.2408 13.7821 17.3339 13.8303 17.4019 13.9056C17.4699 13.981 17.5083 14.0785 17.51 14.18H17.5Z" />
</svg>
