<svg width="20" height="17" viewBox="0 0 20 17" fill="none" xmlns="http://www.w3.org/2000/svg">
<path d="M13.2578 1.03223C13.8424 0.936818 14.4419 0.986694 15.0029 1.17676C15.564 1.36685 16.0703 1.69191 16.4766 2.12305L16.665 2.32324L16.9355 2.27051C17.3756 2.18442 17.8071 2.06423 18.2266 1.91406C17.9858 2.18019 17.7057 2.41336 17.3887 2.59766L17.6943 3.52734C17.9633 3.49782 18.2293 3.45432 18.4922 3.40039C18.2299 3.64886 17.9508 3.88218 17.6562 4.0957L17.4385 4.25293L17.4502 4.52148C17.5155 6.01861 17.2743 7.51353 16.7412 8.91406C16.2081 10.3147 15.394 11.5922 14.3496 12.667C13.3053 13.7417 12.0526 14.5919 10.668 15.165C9.45624 15.6666 8.16598 15.9469 6.8584 15.9941L6.29785 16H6.28809C4.83392 16.0049 3.39952 15.7272 2.06152 15.1904C3.62202 14.9966 5.11558 14.386 6.37695 13.4043L7.48535 12.542L6.08105 12.5098C5.33536 12.4927 4.6129 12.2478 4.01074 11.8076C3.6286 11.5282 3.30682 11.1786 3.06055 10.7803C3.45397 10.7765 3.84704 10.7252 4.22949 10.623L4.2002 9.65039C3.37677 9.48216 2.63861 9.04911 2.11426 8.41992H2.11328C1.74931 7.98416 1.50222 7.46852 1.38281 6.9209C1.78976 7.05092 2.21371 7.12564 2.64355 7.13965L4.47168 7.19922L2.92871 6.21777C2.16412 5.73169 1.61953 4.96595 1.41211 4.08398C1.25893 3.4325 1.2979 2.75568 1.51758 2.13379C2.50483 3.17587 3.66798 4.03912 4.95605 4.68164C6.47357 5.43856 8.13155 5.87333 9.8252 5.95898L10.4922 5.99316L10.3359 5.34375C10.1552 4.58925 10.232 3.79579 10.5537 3.08984C10.8018 2.55196 11.178 2.08223 11.6494 1.72363C12.1208 1.3651 12.6733 1.12768 13.2578 1.03223Z" fill="#F9F5E9" stroke="black"/>
</svg>
