<svg width="24" height="15" viewBox="0 0 24 15" fill="none" xmlns="http://www.w3.org/2000/svg">
<path fill-rule="evenodd" clip-rule="evenodd" d="M21.36 10.2599C22.0843 11.2795 22.9011 12.2302 23.8 13.0999C24 13.4299 24.05 13.6899 23.95 13.8799C23.79 14.1899 23.25 14.3499 23.05 14.3599H19.63C19.1451 14.3391 18.6779 14.1717 18.29 13.8799C17.7815 13.4781 17.3218 13.0184 16.92 12.5099C16.25 11.7399 15.68 11.0699 15.1 11.0699C15.0255 11.0674 14.9511 11.0776 14.88 11.0999C14.44 11.2399 13.88 11.8699 13.88 13.5399C13.88 14.0599 13.47 14.3599 13.18 14.3599H11.61C11.07 14.3599 8.29 14.1699 5.81 11.5599C2.8 8.3899 0.0800034 1.9899 0.0500034 1.9299C-0.119997 1.5199 0.240003 1.2899 0.620003 1.2899H4.09C4.55 1.2899 4.7 1.5799 4.81 1.8299C4.93 2.1199 5.38 3.2699 6.13 4.5699C7.33 6.6899 8.07 7.5499 8.66 7.5499C8.78 7.5499 8.88 7.5199 8.98 7.4599C9.75 7.0399 9.61 4.2799 9.58 3.7099C9.58 3.5999 9.58 2.4799 9.18 1.9399C8.91291 1.61584 8.53532 1.40211 8.12 1.3399C8.2 1.2299 8.36 1.0499 8.58 0.949902C9.1 0.689902 10.06 0.649902 11.01 0.649902H11.54C12.57 0.659902 12.84 0.729902 13.21 0.829902C13.96 1.0099 13.98 1.4899 13.91 3.1599C13.89 3.6299 13.87 4.1599 13.87 4.7999V5.2299C13.84 6.0899 13.81 7.0499 14.41 7.4399C14.4876 7.49009 14.5776 7.51778 14.67 7.5199C14.88 7.5199 15.51 7.5199 17.2 4.6099C17.95 3.3199 18.52 1.8099 18.56 1.6899C18.6211 1.56757 18.7102 1.46137 18.82 1.3799C18.92 1.3199 19.04 1.3099 19.1 1.3099H23.18C23.62 1.3099 23.92 1.3799 23.98 1.5499C24.08 1.8199 23.96 2.6499 22.1 5.1699L21.27 6.2699C19.59 8.4699 19.59 8.5899 21.37 10.2699L21.36 10.2599Z" fill="#F9F5E9"/>
</svg>
