<svg width="20" height="17" viewBox="0 0 20 17" fill="none" xmlns="http://www.w3.org/2000/svg">
<path d="M19.54 3C20 4.78 20 8.5 20 8.5C20 8.5 20 12.22 19.54 14C19.29 14.99 18.54 15.76 17.61 16.02C15.9 16.5 10 16.5 10 16.5C10 16.5 4.1 16.5 2.4 16.02C1.92823 15.8823 1.50081 15.6234 1.1604 15.2689C0.819992 14.9145 0.57849 14.4769 0.46 14C2.98023e-08 12.22 0 8.5 0 8.5C0 8.5 2.98023e-08 4.78 0.46 3C0.71 2.01 1.46 1.24 2.39 0.98C4.11 0.5 10 0.5 10 0.5C10 0.5 15.9 0.5 17.6 0.98C18.0718 1.11766 18.4992 1.37663 18.8396 1.73108C19.18 2.08553 19.4215 2.52306 19.54 3ZM8 12L14 8.5L8 5V12Z" fill="#F9F5E9"/>
</svg>
