<svg width="20" height="20" viewBox="0 0 20 20" fill="none" xmlns="http://www.w3.org/2000/svg">
<path d="M2.5 0H0V20H2.5V0Z" fill="white"/>
<path d="M20 0H17.5V5.88477H20V0Z" fill="white"/>
<path d="M20 14.1158H17.5V20.0006H20V14.1158Z" fill="white"/>
<path d="M2.03906 17.5L2.03906 20L20 20L20 17.5L2.03906 17.5Z" fill="white"/>
<path d="M2.03906 0L2.03906 2.5L20 2.5L20 -8.09918e-07L2.03906 0Z" fill="white"/>
<path d="M13.7927 6.06055H14.8763V6.5531H15.4181V7.04565H15.9599V7.53821H16.5017V8.03076H17.0435V8.52332H17.5853V9.01587H18.1272V9.50842H18.669V10.4935H18.1272V10.9861H17.5853V11.4786H17.0435V11.9712H16.5017V12.4637H15.9599V12.9563H15.4181V13.4489H14.8763V13.9414H13.7927V13.4489H13.2509V12.4637H13.7927V11.9712H14.3345V11.4786H14.8763V10.9861H7.67346V9.01587H14.8763V8.52332H14.3345V8.03076H13.7927V7.53821H13.2509V6.5531H13.7927V6.06055Z" fill="white"/>
</svg>
