<svg width="20" height="20" viewBox="0 0 20 20" fill="none" xmlns="http://www.w3.org/2000/svg">
<path d="M17.5 8.33337V7.50004H16.6667V5.83337H17.5V4.16671H16.6667V3.33337H15.8334V2.50004H14.1667V3.33337H12.5V2.50004H11.6667V0.833374H8.33337V2.50004H7.50004V3.33337H5.83337V2.50004H4.16671V3.33337H3.33337V4.16671H2.50004V5.83337H3.33337V7.50004H2.50004V8.33337H0.833374V11.6667H2.50004V12.5H3.33337V14.1667H2.50004V15.8334H3.33337V16.6667H4.16671V17.5H5.83337V16.6667H7.50004V17.5H8.33337V19.1667H11.6667V17.5H12.5V16.6667H14.1667V17.5H15.8334V16.6667H16.6667V15.8334H17.5V14.1667H16.6667V12.5H17.5V11.6667H19.1667V8.33337H17.5ZM8.33337 8.33337V7.50004H11.6667V8.33337H12.5V11.6667H11.6667V12.5H8.33337V11.6667H7.50004V8.33337H8.33337Z" fill="white"/>
</svg>
