<svg width="64" height="64" viewBox="0 0 64 64" fill="none" xmlns="http://www.w3.org/2000/svg">
<rect x="56" y="8" width="8" height="48" transform="rotate(90 56 8)" fill="#7C8CD9"/>
<rect x="52" y="4" width="8" height="40" transform="rotate(90 52 4)" fill="#7C8CD9"/>
<rect x="60" y="16" width="36" height="56" transform="rotate(90 60 16)" fill="#7C8CD9"/>
<rect x="60" y="12" width="4" height="4" transform="rotate(90 60 12)" fill="#030500"/>
<rect x="56" y="52" width="4" height="4" transform="rotate(90 56 52)" fill="#030500"/>
<rect x="52" y="56" width="4" height="4" transform="rotate(90 52 56)" fill="#030500"/>
<rect x="56" y="8" width="4" height="4" transform="rotate(90 56 8)" fill="#030500"/>
<rect x="52" y="4" width="4" height="4" transform="rotate(90 52 4)" fill="#030500"/>
<rect x="64" y="16" width="32" height="4" transform="rotate(90 64 16)" fill="#030500"/>
<rect x="60" y="48" width="4" height="4" transform="rotate(90 60 48)" fill="#030500"/>
<rect x="48" y="56" width="4" height="36" transform="rotate(90 48 56)" fill="#626DB9"/>
<rect x="48" y="52" width="4" height="40" transform="rotate(90 48 52)" fill="#C7D1FF"/>
<rect x="52" y="52" width="4" height="4" transform="rotate(90 52 52)" fill="#626DB9"/>
<rect x="16" y="52" width="4" height="4" transform="rotate(90 16 52)" fill="#626DB9"/>
<rect x="56" y="48" width="4" height="4" transform="rotate(90 56 48)" fill="#C7D1FF"/>
<rect x="12" y="48" width="4" height="4" transform="rotate(90 12 48)" fill="#C7D1FF"/>
<rect x="46" y="12" width="36" height="28" transform="rotate(90 46 12)" fill="#719F09"/>
<rect x="50" y="16" width="28" height="4" transform="rotate(90 50 16)" fill="#B2D26B"/>
<rect x="18" y="16" width="28" height="4" transform="rotate(90 18 16)" fill="#54730E"/>
<rect x="46" y="16" width="28" height="4" transform="rotate(-180 46 16)" fill="#B2D26B"/>
<rect x="46" y="48" width="28" height="4" transform="rotate(-180 46 48)" fill="#54730E"/>
<rect x="50" y="44" width="4" height="4" transform="rotate(90 50 44)" fill="#030500"/>
<rect x="18" y="44" width="4" height="4" transform="rotate(90 18 44)" fill="#030500"/>
<rect x="50" y="12" width="4" height="4" transform="rotate(90 50 12)" fill="#030500"/>
<rect x="18" y="12" width="4" height="4" transform="rotate(90 18 12)" fill="#030500"/>
<rect x="54" y="16" width="28" height="4" transform="rotate(90 54 16)" fill="#030500"/>
<rect x="14" y="16" width="28" height="4" transform="rotate(90 14 16)" fill="#030500"/>
<rect x="46" y="12" width="28" height="3.99998" transform="rotate(-180 46 12)" fill="#030500"/>
<rect x="48" y="4" width="32" height="4" transform="rotate(-180 48 4)" fill="#030500"/>
<rect x="46" y="52" width="28" height="3.99998" transform="rotate(-180 46 52)" fill="#030500"/>
<rect x="48" y="64" width="32" height="4" transform="rotate(-180 48 64)" fill="#030500"/>
<rect x="4" y="52" width="4" height="4" transform="rotate(-90 4 52)" fill="#030500"/>
<rect x="8" y="12" width="4" height="4" transform="rotate(-90 8 12)" fill="#030500"/>
<rect x="12" y="8" width="4" height="4" transform="rotate(-90 12 8)" fill="#030500"/>
<rect x="8" y="56" width="4" height="4" transform="rotate(-90 8 56)" fill="#030500"/>
<rect x="12" y="60" width="4" height="4" transform="rotate(-90 12 60)" fill="#030500"/>
<rect y="48" width="32" height="4" transform="rotate(-90 0 48)" fill="#030500"/>
<rect x="4" y="16" width="4" height="4" transform="rotate(-90 4 16)" fill="#030500"/>
</svg>
