<svg width="80" height="80" viewBox="0 0 80 80" fill="none" xmlns="http://www.w3.org/2000/svg">
<path d="M14.7197 45.7006L13.5293 45.9413C12.8984 46.0649 12.4885 46.6829 12.6186 47.3139C12.7292 47.8668 13.2171 48.2506 13.757 48.2506C13.835 48.2506 13.9066 48.2441 13.9847 48.2245L64.8138 38.0249C65.4448 37.9013 65.8546 37.2833 65.7245 36.6523C65.6009 36.0214 64.983 35.6116 64.3585 35.7417L38.9309 40.848L40.1863 33.8032C40.2514 33.4259 40.1278 33.0356 39.8546 32.7689C39.5814 32.5022 39.1911 32.3851 38.8138 32.4567L35.8996 33.0421L34.1693 29.8677C33.9286 29.4189 33.4213 29.1847 32.9204 29.2823L30.1623 29.8352L29.811 28.0854C29.6874 27.4544 29.0695 27.0511 28.445 27.1747C27.814 27.2983 27.4042 27.9163 27.5343 28.5407L27.8856 30.2906L24.5356 30.9606L24.1843 29.2107C24.0607 28.5798 23.4427 28.1765 22.8183 28.3001C22.1873 28.4237 21.7775 29.0416 21.9076 29.6726L22.2589 31.4224L18.9088 32.0924L18.5576 30.3426C18.434 29.7116 17.816 29.3018 17.1916 29.4319C16.5606 29.5555 16.1508 30.1735 16.2809 30.7979L16.6321 32.5478L14.453 32.9836C14.1538 33.0421 13.8871 33.2243 13.7114 33.478C13.5423 33.7316 13.4773 34.0504 13.5423 34.3496L14.1538 37.3939L13.2756 37.5695C12.9439 37.6346 12.6577 37.8427 12.495 38.1355C12.3259 38.4282 12.2999 38.7794 12.4105 39.0982L14.7392 45.6876L14.7197 45.7006ZM36.4851 41.3294L17.0224 45.2323L15.0254 39.5926L15.7345 39.4495L37.5974 35.0587L36.4851 41.3228V41.3294ZM16.0337 35.0391L32.5366 31.7281L33.5123 33.517L16.4175 36.9451L16.0337 35.0391Z" fill="#39314C"/>
<path d="M34.0982 36.6589C33.4412 36.789 33.0184 37.4265 33.1485 38.0835C33.2786 38.7404 33.9161 39.1633 34.5731 39.0332C35.2301 38.9031 35.6529 38.2656 35.5228 37.6086C35.3927 36.9516 34.7552 36.5288 34.0982 36.6589Z" fill="#39314C"/>
<path d="M47.8686 27.0186C48.7793 26.8365 49.716 27.2853 50.1453 28.1049C50.3535 28.5017 50.7568 28.7359 51.1796 28.7359C51.2967 28.7359 51.4138 28.7164 51.5244 28.6774C52.0838 28.6318 52.5391 28.1895 52.5912 27.6105C52.6627 26.6868 53.3588 25.9128 54.2695 25.7306C54.9004 25.607 55.3102 24.9891 55.1801 24.3646C55.0565 23.7336 54.4386 23.3238 53.8141 23.4539C52.5717 23.7011 51.5244 24.4752 50.8999 25.5095C49.9177 24.7939 48.6557 24.4882 47.4133 24.7354C46.7823 24.859 46.3725 25.4769 46.5026 26.1014C46.6262 26.7324 47.2442 27.1422 47.8686 27.0121V27.0186Z" fill="#39314C"/>
<path d="M36.9214 24.7874C37.832 24.6053 38.7687 25.0541 39.1981 25.8737C39.4062 26.2705 39.8095 26.5047 40.2324 26.5047C40.3495 26.5047 40.4666 26.4852 40.5771 26.4462C41.1366 26.4006 41.5919 25.9583 41.6439 25.3794C41.722 24.4557 42.4115 23.6816 43.3222 23.4994C43.9532 23.3758 44.363 22.7579 44.2329 22.1269C44.1093 21.4959 43.4913 21.0861 42.8668 21.2162C41.6244 21.4634 40.5771 22.2375 39.9527 23.2783C38.9704 22.5627 37.7085 22.257 36.4661 22.5042C35.8351 22.6278 35.4253 23.2458 35.5554 23.8767C35.6789 24.5077 36.2969 24.911 36.9214 24.7874Z" fill="#39314C"/>
<path d="M76.5088 38.5777C76.3461 38.3176 76.0859 38.1289 75.7867 38.0574L69.8803 36.6393L65.1252 12.9355C65.0667 12.6298 64.8845 12.3696 64.6308 12.1939C64.3771 12.0248 64.0584 11.9598 63.7592 12.0248L4.93548 23.8312C4.63626 23.8897 4.36955 24.0719 4.19392 24.3256C4.02479 24.5792 3.95977 24.898 4.02482 25.1972L9.52142 52.5893C9.61249 53.0446 9.96376 53.3894 10.3866 53.487L68.7289 67.479C68.82 67.4985 68.911 67.5115 69.0021 67.5115C69.2168 67.5115 69.4249 67.4529 69.607 67.3424C69.8672 67.1797 70.0559 66.9195 70.1275 66.6203L76.6388 39.4559C76.7104 39.1567 76.6584 38.8379 76.5023 38.5777H76.5088ZM6.52919 25.8802L63.0696 14.5292L68.1109 39.638L11.5705 50.9891L6.52919 25.8802ZM68.137 64.9486L16.0653 52.4592L20.4301 51.581L34.1684 54.8725C34.2595 54.892 34.3506 54.905 34.4416 54.905C34.9685 54.905 35.4434 54.5472 35.5735 54.0138C35.7231 53.3894 35.3393 52.7584 34.7149 52.6088L25.8682 50.4882L30.3696 49.584L45.0251 53.0967C45.1162 53.1162 45.2072 53.1292 45.2983 53.1292C45.8252 53.1292 46.3001 52.7714 46.4302 52.238C46.5798 51.6135 46.196 50.9826 45.5715 50.833L35.8077 48.4912L50.229 45.5965L61.0401 48.192C61.1312 48.2115 61.2222 48.2245 61.3133 48.2245C61.8402 48.2245 62.3151 47.8667 62.4452 47.3333C62.5948 46.7089 62.211 46.0779 61.5866 45.9283L55.6606 44.5102L60.162 43.606L70.3551 46.0519C70.4462 46.0714 70.5372 46.0844 70.6283 46.0844C71.1552 46.0844 71.6301 45.7266 71.7602 45.1932C71.9098 44.5688 71.526 43.9378 70.9016 43.7882L65.5935 42.5132L69.7306 41.6806C70.3616 41.557 70.7714 40.939 70.6413 40.3146L70.4072 39.1437L74.1345 40.0349L68.163 64.9356L68.137 64.9486Z" fill="#39314C"/>
<path d="M57.5939 58.1054L39.5428 53.7732C38.9184 53.6236 38.2874 54.0074 38.1378 54.6318C37.9882 55.2563 38.3719 55.8873 38.9964 56.0369L57.0475 60.3691C57.1385 60.3886 57.2296 60.4017 57.3207 60.4017C57.8476 60.4017 58.3224 60.0439 58.4525 59.5105C58.6022 58.886 58.2184 58.255 57.5939 58.1054Z" fill="#39314C"/>
<path d="M67.9025 56.2061L50.6581 52.069C50.0336 51.9193 49.4026 52.3031 49.253 52.9276C49.1034 53.5521 49.4872 54.183 50.1117 54.3326L67.3561 58.4698C67.4472 58.4893 67.5383 58.5023 67.6293 58.5023C68.1562 58.5023 68.6311 58.1445 68.7612 57.6111C68.9108 56.9866 68.527 56.3557 67.9025 56.2061Z" fill="#39314C"/>
<path d="M68.8985 52.0689L48.4081 47.1512C47.7836 47.0016 47.1526 47.3854 47.003 48.0099C46.8534 48.6343 47.2372 49.2653 47.8617 49.4149L68.3521 54.3326C68.4431 54.3521 68.5342 54.3651 68.6253 54.3651C69.1522 54.3651 69.6271 54.0074 69.7572 53.474C69.9068 52.8495 69.523 52.2185 68.8985 52.0689Z" fill="#39314C"/>
<path d="M69.8859 47.9318L67.4335 47.3464C66.809 47.1967 66.178 47.5805 66.0284 48.205C65.8788 48.8295 66.2626 49.4605 66.8871 49.6101L69.3394 50.1955C69.4305 50.215 69.5216 50.228 69.6126 50.228C70.1395 50.228 70.6144 49.8703 70.7445 49.3369C70.8941 48.7124 70.5103 48.0814 69.8859 47.9318Z" fill="#39314C"/>
</svg>
