<svg width="80" height="80" viewBox="0 0 80 80" fill="none" xmlns="http://www.w3.org/2000/svg">
<path d="M73.574 28.7707C74.1659 24.3994 73.1706 21.2445 70.6272 19.4036C65.046 15.3576 52.5632 18.1027 32.4566 27.8015C22.6017 32.5565 16.4025 36.7717 12.9354 39.4712C9.80004 41.9171 6.11828 45.2671 6.41751 47.3616C6.70372 49.3652 9.48781 49.7034 11.5564 49.7814C12.8118 49.827 14.0347 49.775 14.7893 49.7229L15.2576 52.9558C15.3747 53.7494 15.791 54.4455 16.4415 54.9138C16.9489 55.2846 17.5474 55.4732 18.1653 55.4732C18.3345 55.4732 18.5036 55.4602 18.6727 55.4277C20.9039 55.0439 25.1906 54.4389 29.2626 54.5821C36.5286 59.9356 47.2031 62.6481 61 62.6481C62.9189 62.6481 64.5451 62.6026 65.8526 62.5636C66.6657 62.5375 67.3032 62.518 67.7716 62.518C69.697 62.518 70.4646 61.6789 70.7704 60.9764C71.7656 58.6541 68.7278 54.8227 66.6202 52.5525L65.8917 42.0797C67.3488 40.4925 72.8259 34.2218 73.5609 28.7707H73.574ZM15.1406 45.3712C14.6072 45.5273 14.2689 46.0541 14.347 46.6071L14.4771 47.4852C13.8656 47.5243 12.9939 47.5568 12.0898 47.5438C9.67646 47.4982 8.88936 47.1275 8.6747 46.9844C8.86985 46.3859 10.2164 44.3759 14.7112 40.9348C18.0678 38.3654 24.0458 34.3454 33.4388 29.818C57.1361 18.3889 66.0283 18.8312 69.3132 21.2185C71.1606 22.5585 71.8306 24.9328 71.3493 28.4714C70.7248 33.0834 65.8787 38.7622 64.3826 40.4144C64.2069 40.3754 63.9988 40.3364 63.7581 40.2908C63.9402 39.6078 64.0443 38.8793 64.0703 38.1182C64.1549 36.0236 63.628 34.0721 62.5872 32.6216C61.4358 31.0083 59.7055 30.0782 57.7085 30.0001C53.5389 29.8375 50.1043 33.181 49.9352 37.4742C49.9092 38.1442 49.9677 38.8012 50.0978 39.4387C39.4688 39.6924 27.7145 41.6894 15.1406 45.3712ZM61.8326 38.0336C61.683 41.9235 59.3478 43.3026 57.3898 43.3026C57.3248 43.3026 57.2532 43.3026 57.1882 43.3026C55.8026 43.2506 54.5146 42.6261 53.5714 41.5593C52.6152 40.4729 52.1208 39.0549 52.1729 37.5718C52.29 34.586 54.5927 32.2443 57.4223 32.2443C57.4874 32.2443 57.5524 32.2443 57.6175 32.2443C59.8226 32.3289 61.9823 34.1567 61.8261 38.0401L61.8326 38.0336ZM29.692 52.3574C25.3142 52.1557 20.6762 52.8127 18.2954 53.216C18.1068 53.2486 17.9181 53.203 17.762 53.0924C17.6059 52.9819 17.5083 52.8127 17.4823 52.6306L16.7017 47.2575C29.048 43.7124 40.5487 41.8325 50.9239 41.6699C51.1972 42.1577 51.5159 42.6131 51.8932 43.0424C53.2462 44.5775 55.1001 45.4622 57.1036 45.5468C57.2012 45.5468 57.2987 45.5468 57.3963 45.5468C59.3477 45.5468 61.026 44.7792 62.2424 43.3156C62.4766 43.0359 62.6848 42.7367 62.8799 42.4179C63.1922 42.4699 63.4654 42.522 63.693 42.5676L64.0703 47.9666C62.7693 47.895 59.8877 47.7715 55.6465 47.7715C55.5294 47.7715 55.4123 47.7715 55.3017 47.7715C49.74 47.778 40.8088 48.0186 29.8091 49.1179C29.1911 49.1765 28.7423 49.7294 28.8073 50.3474C28.8659 50.9263 29.3537 51.3556 29.9196 51.3556C29.9587 51.3556 29.9912 51.3556 30.0303 51.3556C48.7383 49.4952 61.67 50.0872 64.2329 50.2368L64.363 52.1102C60.8764 52.6501 55.64 52.9233 48.7578 52.9233C39.2086 52.9233 29.8286 52.3834 29.7375 52.3769C29.731 52.3769 29.718 52.3769 29.7115 52.3769L29.692 52.3574ZM33.751 54.7967C37.4198 54.9528 43.0465 55.148 48.7448 55.148C54.0983 55.148 58.4956 54.9853 61.8847 54.6536L64.4736 60.3584C63.4523 60.3844 62.301 60.4104 61.0065 60.4104C49.597 60.4104 40.4576 58.524 33.751 54.7967ZM68.7148 60.0917C68.7148 60.0917 68.4871 60.2803 67.7781 60.2803C67.5244 60.2803 67.2382 60.2804 66.8999 60.2934L64.2134 54.3804C64.5322 54.3349 64.8379 54.2894 65.1241 54.2373C68.0513 57.4377 68.9099 59.6104 68.7083 60.0917H68.7148Z" fill="#39314C"/>
<path d="M57.1678 40.1542C55.1448 39.4452 55.7953 36.0236 55.8018 35.9781C55.9254 35.3732 55.5351 34.7812 54.9236 34.6576C54.3122 34.534 53.7268 34.9243 53.6032 35.5358C53.5901 35.5878 53.343 36.8302 53.5121 38.2288C53.6162 39.1004 53.8633 39.868 54.2406 40.499C54.748 41.3511 55.483 41.9496 56.4197 42.2748C56.5433 42.3204 56.6669 42.3399 56.7905 42.3399C57.2524 42.3399 57.6882 42.0537 57.8508 41.5918C58.0525 41.0064 57.7468 40.3689 57.1613 40.1607L57.1678 40.1542Z" fill="#39314C"/>
</svg>
