<svg width="80" height="80" viewBox="0 0 80 80" fill="none" xmlns="http://www.w3.org/2000/svg">
<path d="M5.53413 54.1771C7.29696 54.1771 8.91667 53.3705 9.98347 51.9655C10.5559 51.2109 11.4276 50.7751 12.3773 50.7751C13.327 50.7751 14.1986 51.2109 14.7711 51.9655C15.8314 53.3705 17.4576 54.1771 19.2204 54.1771C20.9832 54.1771 22.603 53.3705 23.6698 51.9655C24.2422 51.2109 25.1138 50.7751 26.0636 50.7751C27.0133 50.7751 27.8849 51.2109 28.4573 51.9655C29.5176 53.3705 31.1439 54.1771 32.9067 54.1771C34.6695 54.1771 36.2892 53.3705 37.356 51.9655C37.9285 51.2109 38.8001 50.7751 39.7498 50.7751C40.6995 50.7751 41.5712 51.2109 42.1436 51.9655C43.2039 53.3705 44.8302 54.1771 46.593 54.1771C48.3558 54.1771 49.9755 53.3705 51.0423 51.9655C51.6147 51.2109 52.4864 50.7751 53.4361 50.7751C54.3858 50.7751 55.2575 51.2109 55.8299 51.9655C56.8902 53.3705 58.5164 54.1771 60.2793 54.1771C62.0421 54.1771 63.6618 53.3705 64.7286 51.9655C65.301 51.2109 66.1727 50.7751 67.1224 50.7751C68.0721 50.7751 68.9438 51.2109 69.5162 51.9655C70.5765 53.3705 72.2027 54.1771 73.9655 54.1771C75.7284 54.1771 77.3481 53.3705 78.4149 51.9655C78.8442 51.3995 78.7336 50.5929 78.1612 50.1636C77.5953 49.7343 76.7887 49.8449 76.3593 50.4173C75.7869 51.1719 74.9153 51.6077 73.9655 51.6077C73.0158 51.6077 72.1442 51.1719 71.5717 50.4173C71.3766 50.1571 71.1554 49.9099 70.9212 49.6953C71.6043 48.2577 71.7018 46.5729 71.1294 45.0508L63.2455 23.9945C62.1006 20.9306 58.6725 19.376 55.6087 20.5208L44.3228 24.749L42.2022 19.0833C41.6883 17.7172 40.3678 16.8 38.9107 16.8C38.4879 16.8 38.0781 16.8781 37.6813 17.0212L25.1984 21.6982C23.3835 22.3812 22.4598 24.4108 23.1364 26.2256L25.2569 31.8914L13.971 36.1196C12.4879 36.6725 11.3105 37.7718 10.6535 39.2159C9.99648 40.66 9.94444 42.2732 10.4974 43.7563L12.1691 48.2121C10.4974 48.2837 8.96871 49.0773 7.95395 50.4173C7.38152 51.1719 6.50987 51.6077 5.56015 51.6077C4.61044 51.6077 3.73878 51.1719 3.16635 50.4173C2.73703 49.8514 1.93042 49.7343 1.3645 50.1636C0.798572 50.5929 0.681485 51.3995 1.11081 51.9655C2.1711 53.3705 3.79733 54.1771 5.56015 54.1771H5.53413ZM68.651 48.4138C68.1567 48.2707 67.6363 48.1991 67.0964 48.1991C65.3335 48.1991 63.7138 49.0057 62.647 50.4108C62.0746 51.1654 61.2029 51.6012 60.2532 51.6012C59.3035 51.6012 58.4319 51.1654 57.8594 50.4108C56.7991 49.0057 55.1729 48.1991 53.4101 48.1991C51.6473 48.1991 50.0276 49.0057 48.9608 50.4108C48.3883 51.1654 47.5167 51.6012 46.5669 51.6012C45.6172 51.6012 44.7456 51.1654 44.1732 50.4108C43.1129 49.0057 41.4866 48.1991 39.7238 48.1991C37.961 48.1991 36.3413 49.0057 35.2745 50.4108C34.702 51.1654 33.8304 51.6012 32.8807 51.6012C31.931 51.6012 31.0593 51.1654 30.4869 50.4108C29.4266 49.0057 27.8004 48.1991 26.0375 48.1991C24.2747 48.1991 22.655 49.0057 21.5882 50.4108C21.0158 51.1654 20.1441 51.6012 19.1944 51.6012C18.2447 51.6012 17.373 51.1654 16.8006 50.4108C16.3387 49.8058 15.7793 49.305 15.1418 48.9407L14.0685 46.072C15.5712 45.2329 16.7616 43.9384 17.4836 42.3447C18.2122 40.751 18.4008 39.0012 18.043 37.31L53.241 24.1246C54.6981 26.72 57.4496 28.2812 60.3573 28.2812C60.8972 28.2812 61.4501 28.2226 61.9965 28.112L68.6706 45.9354C68.9763 46.7551 68.9503 47.6267 68.6315 48.4008L68.651 48.4138ZM60.8061 24.8921L61.0989 25.6662C58.9913 25.9459 56.8967 24.9832 55.7193 23.2139L56.4869 22.9277C58.2172 22.2772 60.1557 23.1618 60.8061 24.8921ZM26.0701 24.105L38.5529 19.428C38.657 19.389 38.7676 19.3695 38.8847 19.3695C39.275 19.3695 39.6262 19.6167 39.7628 19.9809L40.1076 20.8916L25.8684 26.2256L25.5236 25.3149C25.3415 24.8271 25.5887 24.2872 26.0766 24.105H26.0701ZM26.7661 28.6389L41.0053 23.3049L41.8834 25.6402L27.6442 30.9742L26.7661 28.6389ZM12.9692 40.2697C13.34 39.4566 14.01 38.8321 14.8491 38.5199L15.6167 38.2336C15.7533 39.2614 15.6037 40.3087 15.1679 41.2779C14.7255 42.2407 14.0425 43.0473 13.1774 43.6132L12.8847 42.8391C12.5724 42 12.5984 41.0893 12.9757 40.2697H12.9692Z" fill="#39314C"/>
<path d="M78.1364 59.4005C77.5705 58.9711 76.7639 59.0817 76.3346 59.6542C75.7622 60.4087 74.8905 60.8446 73.9408 60.8446C72.9911 60.8446 72.1194 60.4087 71.547 59.6542C70.4867 58.2491 68.8605 57.4425 67.0976 57.4425C65.3348 57.4425 63.7151 58.2491 62.6483 59.6542C62.0759 60.4087 61.2042 60.8446 60.2545 60.8446C59.3048 60.8446 58.4331 60.4087 57.8607 59.6542C56.8004 58.2491 55.1742 57.4425 53.4114 57.4425C51.6485 57.4425 50.0288 58.2491 48.962 59.6542C48.3896 60.4087 47.5179 60.8446 46.5682 60.8446C45.6185 60.8446 44.7468 60.4087 44.1744 59.6542C43.1141 58.2491 41.4879 57.4425 39.7251 57.4425C37.9622 57.4425 36.3425 58.2491 35.2757 59.6542C34.7033 60.4087 33.8316 60.8446 32.8819 60.8446C31.9322 60.8446 31.0606 60.4087 30.4881 59.6542C29.4278 58.2491 27.8016 57.4425 26.0388 57.4425C24.276 57.4425 22.6563 58.2491 21.5894 59.6542C21.017 60.4087 20.1454 60.8446 19.1957 60.8446C18.2459 60.8446 17.3743 60.4087 16.8019 59.6542C15.7416 58.2491 14.1153 57.4425 12.3525 57.4425C10.5897 57.4425 8.96997 58.2491 7.90317 59.6542C7.33074 60.4087 6.45908 60.8446 5.50937 60.8446C4.55966 60.8446 3.688 60.4087 3.11557 59.6542C2.68625 59.0882 1.87964 58.9711 1.31372 59.4005C0.747791 59.8298 0.630704 60.6364 1.06003 61.2023C2.12032 62.6074 3.74654 63.414 5.50937 63.414C7.27219 63.414 8.89191 62.6074 9.95871 61.2023C10.5311 60.4478 11.4028 60.0119 12.3525 60.0119C13.3022 60.0119 14.1739 60.4478 14.7463 61.2023C15.8066 62.6074 17.4328 63.414 19.1957 63.414C20.9585 63.414 22.5782 62.6074 23.645 61.2023C24.2174 60.4478 25.0891 60.0119 26.0388 60.0119C26.9885 60.0119 27.8602 60.4478 28.4326 61.2023C29.4929 62.6074 31.1191 63.414 32.8819 63.414C34.6448 63.414 36.2645 62.6074 37.3313 61.2023C37.9037 60.4478 38.7754 60.0119 39.7251 60.0119C40.6748 60.0119 41.5464 60.4478 42.1189 61.2023C43.1792 62.6074 44.8054 63.414 46.5682 63.414C48.331 63.414 49.9508 62.6074 51.0176 61.2023C51.59 60.4478 52.4616 60.0119 53.4114 60.0119C54.3611 60.0119 55.2327 60.4478 55.8051 61.2023C56.8654 62.6074 58.4917 63.4205 60.2545 63.414C62.0173 63.414 63.637 62.6074 64.7038 61.2023C65.2763 60.4478 66.1479 60.0119 67.0976 60.0119C68.0473 60.0119 68.919 60.4478 69.4914 61.2023C70.5517 62.6074 72.178 63.414 73.9408 63.414C75.7036 63.414 77.3233 62.6074 78.3901 61.2023C78.8194 60.6364 78.7089 59.8298 78.1364 59.4005Z" fill="#39314C"/>
<path d="M55.1278 30.6034C54.6595 30.07 53.8464 30.0179 53.313 30.4863L47.1138 35.9179C46.8601 36.1455 46.6975 36.4643 46.678 36.8025C46.6585 37.1408 46.7691 37.479 46.9967 37.7392L54.1261 45.8768C54.3798 46.1696 54.7375 46.3192 55.0953 46.3192C55.3945 46.3192 55.7003 46.2151 55.9409 46.0004L62.1401 40.5689C62.3938 40.3412 62.5564 40.0225 62.5759 39.6842C62.5954 39.3459 62.4849 39.0077 62.2572 38.7475L55.1278 30.6099V30.6034ZM55.2124 43.2033L49.7808 37.0042L54.0415 33.2704L59.4731 39.4695L55.2124 43.2033Z" fill="#39314C"/>
<path d="M39.3344 35.1243C39.3084 34.786 39.1523 34.4673 38.8986 34.2396C38.6384 34.0185 38.3067 33.9014 37.9619 33.9274L30.9887 34.4088C30.2796 34.4608 29.7462 35.0723 29.7918 35.7813L30.4227 44.9337C30.4488 45.2719 30.6049 45.5907 30.8586 45.8183C31.0928 46.02 31.392 46.1371 31.7042 46.1371C31.7367 46.1371 31.7628 46.1371 31.7953 46.1371L38.7685 45.6557C39.4775 45.6037 40.0109 44.9922 39.9654 44.2832L39.3344 35.1308V35.1243ZM32.9011 43.4766L32.4458 36.8936L36.8496 36.5879L37.3049 43.1708L32.9011 43.4766Z" fill="#39314C"/>
</svg>
