<svg width="80" height="80" viewBox="0 0 80 80" fill="none" xmlns="http://www.w3.org/2000/svg">
<path d="M78.0521 32.9968H71.6773C68.7176 32.9968 66.0896 31.1168 65.1399 28.3132C63.4487 23.3435 58.7847 20 53.5352 20H7.50013C3.36303 20 0 23.363 0 27.5001V53.1684C0 57.3055 3.36303 60.6686 7.50013 60.6686H53.5352C58.7847 60.6686 63.4487 57.3315 65.1399 52.3553C66.0896 49.5517 68.7176 47.6718 71.6773 47.6718H78.0521C78.7612 47.6718 79.3401 47.0928 79.3401 46.3838V34.2912C79.3401 33.5822 78.7612 33.0033 78.0521 33.0033V32.9968ZM53.5352 58.0861H7.50013C4.7876 58.0861 2.57593 55.881 2.57593 53.1619V52.7716C3.17438 53.0318 3.82487 53.1684 4.50788 53.1684C6.04954 53.1684 7.46761 52.4659 8.39781 51.23C8.83364 50.651 9.50365 50.3193 10.2322 50.3193C10.9607 50.3193 11.6242 50.651 12.0666 51.23C12.9968 52.4594 14.4148 53.1684 15.9565 53.1684C17.4981 53.1684 18.9162 52.4659 19.8464 51.23C20.2822 50.651 20.9522 50.3193 21.6808 50.3193C22.4093 50.3193 23.0728 50.651 23.5152 51.23C24.4454 52.4594 25.8634 53.1684 27.4051 53.1684C28.9467 53.1684 30.3648 52.4659 31.295 51.23C31.7308 50.651 32.4009 50.3193 33.1294 50.3193C33.8579 50.3193 34.5214 50.651 34.9637 51.23C35.8939 52.4594 37.312 53.1684 38.8537 53.1684C40.3954 53.1684 41.8134 52.4659 42.7436 51.23C43.1794 50.651 43.8494 50.3193 44.578 50.3193C45.3065 50.3193 45.97 50.651 46.4124 51.23C47.3426 52.4594 48.7606 53.1684 50.3023 53.1684C51.8439 53.1684 53.262 52.4659 54.1922 51.23C54.6281 50.651 55.298 50.3193 56.0266 50.3193C56.7551 50.3193 57.4186 50.651 57.861 51.23C58.7911 52.4594 60.2092 53.1684 61.7509 53.1684C61.8355 53.1684 61.92 53.1619 62.0046 53.1554C60.3133 56.1607 57.1129 58.0861 53.5677 58.0861H53.5352ZM21.8044 34.1416H19.6187V30.1086H21.8044V34.1416ZM18.3308 36.7176H45.6968L46.2628 39.6968H15.3906V36.7176H18.3373H18.3308ZM31.7243 34.1416H29.5387V30.1086H31.7243V34.1416ZM41.6443 34.1416H39.4586V30.1086H41.6443V34.1416ZM51.87 42.2727L48.1361 49.3175C47.2189 48.3158 45.9375 47.7433 44.552 47.7433C43.0103 47.7433 41.5922 48.4459 40.662 49.6818C40.2262 50.2607 39.5562 50.5925 38.8276 50.5925C38.0991 50.5925 37.4356 50.2607 36.9933 49.6818C36.0631 48.4524 34.645 47.7433 33.1034 47.7433C31.5617 47.7433 30.1436 48.4459 29.2134 49.6818C28.7776 50.2607 28.1076 50.5925 27.3791 50.5925C26.6505 50.5925 25.987 50.2607 25.5447 49.6818C24.6145 48.4524 23.1964 47.7433 21.6548 47.7433C20.1131 47.7433 18.695 48.4459 17.7648 49.6818C17.329 50.2607 16.659 50.5925 15.9305 50.5925C15.2019 50.5925 14.5384 50.2607 14.0961 49.6818C13.3871 48.7386 12.3918 48.1076 11.273 47.8604V42.2727H51.8504H51.87ZM63.3055 50.1306C62.8502 50.4364 62.2452 50.5925 61.7183 50.5925C60.9898 50.5925 60.3263 50.2607 59.884 49.6818C58.9538 48.4524 57.5357 47.7433 55.9941 47.7433C54.4524 47.7433 53.0343 48.4459 52.1041 49.6818C51.6878 50.2347 51.0633 50.56 50.3803 50.586L55.1484 41.5897C55.3631 41.1929 55.3436 40.7116 55.1159 40.3213C54.8817 39.9375 54.4654 39.6968 54.0101 39.6968H48.8907L48.0386 35.1889C47.9215 34.584 47.3946 34.1416 46.7701 34.1416H44.2202V28.8206C44.2202 28.1116 43.6413 27.5327 42.9322 27.5327H38.1707C37.4617 27.5327 36.8827 28.1116 36.8827 28.8206V34.1416H34.3003V28.8206C34.3003 28.1116 33.7213 27.5327 33.0123 27.5327H28.2507C27.5417 27.5327 26.9627 28.1116 26.9627 28.8206V34.1416H24.3803V28.8206C24.3803 28.1116 23.8014 27.5327 23.0923 27.5327H18.3308C17.6217 27.5327 17.0428 28.1116 17.0428 28.8206V34.1416H14.0961C13.3871 34.1416 12.8081 34.7206 12.8081 35.4296V39.6968H9.99801C9.28897 39.6968 8.71003 40.2757 8.71003 40.9848V47.9775C7.77333 48.2832 6.94721 48.8622 6.33575 49.6753C5.89993 50.2542 5.22994 50.586 4.50139 50.586C3.77284 50.586 2.97274 50.1762 2.56944 49.4606V27.4936C2.56944 24.7811 4.77458 22.5694 7.49362 22.5694H53.5287C57.6788 22.5694 61.3606 25.2104 62.6941 29.1329C64.0016 32.9772 67.6118 35.5662 71.6709 35.5662H72.1847V45.0828H71.6709C68.1192 45.0828 64.9188 47.0538 63.2926 50.1176L63.3055 50.1306ZM76.7707 45.0959H74.7737V35.5792H76.7707V45.0959Z" fill="#39314C"/>
<path d="M46.7514 46.0911C47.532 46.0911 48.163 45.4602 48.163 44.6796C48.163 43.899 47.532 43.268 46.7514 43.268C45.9708 43.268 45.3398 43.899 45.3398 44.6796C45.3398 45.4602 45.9708 46.0911 46.7514 46.0911Z" fill="#39314C"/>
<path d="M54.5243 25.2039C53.8153 25.2039 53.2363 25.7829 53.2363 26.4919C53.2363 27.2009 53.8153 27.7799 54.5243 27.7799C56.5863 27.7799 58.2646 29.4581 58.2646 31.5202C58.2646 32.2292 58.8436 32.8081 59.5526 32.8081C60.2616 32.8081 60.8405 32.2292 60.8405 31.5202C60.8405 28.04 58.0109 25.2039 54.5243 25.2039Z" fill="#39314C"/>
</svg>
