<svg width="80" height="80" viewBox="0 0 80 80" fill="none" xmlns="http://www.w3.org/2000/svg">
<path d="M78.6913 64.8523C78.1189 64.423 77.3058 64.5336 76.8764 65.106C76.2975 65.8671 75.4193 66.3029 74.4696 66.3029C73.5199 66.3029 72.6352 65.8671 72.0563 65.106C70.983 63.6879 69.3502 62.8748 67.5744 62.8748C65.7986 62.8748 64.1659 63.6879 63.0926 65.106C62.5136 65.8671 61.6355 66.3029 60.6792 66.3029C59.723 66.3029 58.8449 65.8671 58.2659 65.106C58.1618 64.9629 58.0448 64.8328 57.9277 64.7027L62.3185 46.528C62.4746 45.8776 62.1103 45.2141 61.4793 44.9994L58.9945 44.1408L57.3553 33.1735H59.8076C60.2304 33.1735 60.6272 32.9654 60.8679 32.6206C61.1086 32.2758 61.1736 31.8335 61.0305 31.4367L58.0643 23.13C57.8821 22.6161 57.3878 22.2713 56.8414 22.2713H52.8083L51.3968 14.511C51.2862 13.8931 50.7463 13.4442 50.1218 13.4442H41.1776V12.4945C41.1776 11.7789 40.5987 11.2 39.8831 11.2C39.1676 11.2 38.5886 11.7789 38.5886 12.4945V13.4442H29.8851C29.2607 13.4442 28.7208 13.8931 28.6102 14.511L27.1986 22.2713H23.1656C22.6192 22.2713 22.1313 22.6161 21.9427 23.13L18.9764 31.4367C18.8333 31.8335 18.8919 32.2758 19.1391 32.6206C19.3797 32.9654 19.7765 33.1735 20.1994 33.1735H22.6517L21.0125 44.1408L18.5276 44.9929C17.8966 45.2076 17.5324 45.8711 17.6885 46.5215L22.0793 64.6962C21.9622 64.8263 21.8451 64.9564 21.741 65.0995C21.1621 65.8606 20.2839 66.2964 19.3342 66.2964C18.3845 66.2964 17.4998 65.8606 16.9209 65.0995C15.8476 63.6814 14.2149 62.8683 12.439 62.8683C10.6632 62.8683 9.03046 63.6814 7.95715 65.0995C7.37822 65.8606 6.50004 66.2964 5.54383 66.2964C4.58761 66.2964 3.70947 65.8606 3.13054 65.0995C2.70122 64.5271 1.88808 64.4165 1.31565 64.8458C0.74322 65.2752 0.632628 66.0883 1.06195 66.6607C2.13526 68.0787 3.76799 68.8919 5.54383 68.8919C7.31966 68.8919 8.9524 68.0787 10.0257 66.6607C10.6046 65.8996 11.4828 65.4638 12.439 65.4638C13.3952 65.4638 14.2734 65.8996 14.8458 66.6607C15.9191 68.0787 17.5518 68.8919 19.3277 68.8919C21.1035 68.8919 22.7363 68.0787 23.8096 66.6607C24.3885 65.8996 25.2667 65.4638 26.2229 65.4638C27.1791 65.4638 28.0572 65.8996 28.6362 66.6607C29.7095 68.0787 31.3422 68.8919 33.118 68.8919C34.8939 68.8919 36.5266 68.0787 37.5999 66.6607C38.1789 65.8996 39.057 65.4638 40.0067 65.4638C40.9565 65.4638 41.8411 65.8996 42.42 66.6607C43.4933 68.0787 45.1261 68.8919 46.9019 68.8919C48.6777 68.8919 50.3105 68.0787 51.3838 66.6607C51.9627 65.8996 52.8408 65.4638 53.7971 65.4638C54.7533 65.4638 55.6315 65.8996 56.2104 66.6607C57.2837 68.0787 58.9164 68.8919 60.6923 68.8919C62.4681 68.8919 64.1008 68.0787 65.1741 66.6607C65.7531 65.8996 66.6312 65.4638 67.5874 65.4638C68.5437 65.4638 69.4218 65.8996 69.9942 66.6607C71.0676 68.0787 72.7003 68.8919 74.4761 68.8919C76.252 68.8919 77.8847 68.0787 78.958 66.6607C79.3873 66.0883 79.2767 65.2752 78.7043 64.8458L78.6913 64.8523ZM59.3067 47.9591L41.3012 43.0024V40.7907L59.5214 47.068L59.3067 47.9591ZM30.1453 20.5475H39.6294V17.9521H30.6137L30.9584 16.0462H49.0355L49.3803 17.9521H40.3645V20.5475H49.8486L50.1609 22.2779H29.8136L30.1258 20.5475H30.1453ZM22.5931 29.0234H28.4736V26.428H23.5233L24.0828 24.8733H55.9437L56.5031 26.428H51.5529V29.0234H57.4333L57.9927 30.5781H22.0532L22.6126 29.0234H22.5931ZM25.2732 33.1735H54.7403L56.2364 43.1845L40.4295 37.7399C40.1563 37.6424 39.8571 37.6424 39.5839 37.7399L23.777 43.1845L25.2732 33.1735ZM38.7058 40.7907V43.0024L20.7002 47.9591L20.4856 47.068L38.7058 40.7907ZM35.5249 65.106C34.9459 65.8671 34.0678 66.3094 33.1115 66.3094C32.1553 66.3094 31.2772 65.8736 30.6982 65.1125C29.6249 63.6945 27.9922 62.8813 26.2164 62.8813C25.5789 62.8813 24.9609 62.9854 24.3755 63.1871L21.3052 50.483L38.6993 45.6954V63.0244C37.4373 63.3172 36.3185 64.0457 35.5184 65.106H35.5249ZM49.3087 65.106C48.7298 65.8671 47.8516 66.3029 46.8954 66.3029C45.9392 66.3029 45.061 65.8671 44.4821 65.0995C43.6755 64.0327 42.5566 63.3107 41.3012 63.018V45.6889L58.6953 50.4765L55.6249 63.1806C55.0395 62.9789 54.4216 62.8748 53.7841 62.8748C52.0083 62.8748 50.3755 63.6879 49.3022 65.106H49.3087Z" fill="#39314C"/>
<path d="M26.8545 34.1558C26.152 34.0192 25.4689 34.481 25.3388 35.1835L25.1177 36.3479C24.9811 37.0505 25.443 37.7334 26.1455 37.8635C26.23 37.8765 26.3081 37.8896 26.3926 37.8896C27.0041 37.8896 27.544 37.4603 27.6676 36.8358L27.8888 35.6714C28.0254 34.9689 27.5635 34.2859 26.861 34.1558H26.8545Z" fill="#39314C"/>
<path d="M30.1394 34.0452C29.4303 33.9411 28.7733 34.4355 28.6693 35.1445L28.5002 36.3089C28.3961 37.018 28.8905 37.6749 29.5995 37.779C29.6645 37.7855 29.7231 37.792 29.7881 37.792C30.4256 37.792 30.9785 37.3237 31.0696 36.6797L31.2387 35.5153C31.3428 34.8063 30.8484 34.1493 30.1394 34.0452Z" fill="#39314C"/>
<path d="M33.4228 33.9476C32.7138 33.8825 32.0763 34.4029 32.0047 35.1184L31.8942 36.2828C31.8291 36.9983 32.3495 37.6293 33.065 37.7008C33.1041 37.7008 33.1496 37.7008 33.1886 37.7008C33.8521 37.7008 34.4116 37.2 34.4766 36.5235L34.5872 35.3591C34.6522 34.6436 34.1319 34.0126 33.4163 33.941L33.4228 33.9476Z" fill="#39314C"/>
<path d="M36.7085 33.8761C35.9929 33.8435 35.3815 34.3965 35.3489 35.112L35.2904 36.2764C35.2579 36.9919 35.8108 37.6034 36.5263 37.6359C36.5458 37.6359 36.5654 37.6359 36.5914 37.6359C37.2809 37.6359 37.8533 37.096 37.8859 36.4L37.9444 35.2356C37.9769 34.5201 37.424 33.9086 36.7085 33.8761Z" fill="#39314C"/>
<path d="M43.3954 37.6294C43.3954 37.6294 43.4345 37.6294 43.4605 37.6294C44.176 37.5969 44.7289 36.9854 44.6964 36.2699L44.6379 35.1055C44.6053 34.39 43.9939 33.8371 43.2783 33.8696C42.5628 33.9021 42.0099 34.5136 42.0424 35.2291L42.1009 36.3935C42.1335 37.0895 42.7059 37.6294 43.3954 37.6294Z" fill="#39314C"/>
<path d="M45.5093 36.5236C45.5743 37.1936 46.1403 37.701 46.7973 37.701C46.8363 37.701 46.8818 37.701 46.9208 37.701C47.6364 37.6359 48.1568 36.9985 48.0918 36.2829L47.9811 35.1186C47.9096 34.403 47.2786 33.8826 46.5631 33.9477C45.8475 34.0127 45.3272 34.6502 45.3922 35.3657L45.5028 36.5301L45.5093 36.5236Z" fill="#39314C"/>
<path d="M48.9173 36.6731C49.0084 37.3171 49.5678 37.7854 50.1988 37.7854C50.2573 37.7854 50.3224 37.7855 50.3874 37.7725C51.0965 37.6684 51.5908 37.0114 51.4867 36.3023L51.3176 35.1379C51.2135 34.4289 50.5565 33.9345 49.8475 34.0386C49.1385 34.1427 48.6441 34.7997 48.7482 35.5087L48.9173 36.6731Z" fill="#39314C"/>
<path d="M52.3323 36.8358C52.4494 37.4603 52.9958 37.8896 53.6073 37.8896C53.6854 37.8896 53.7699 37.8831 53.8545 37.8635C54.557 37.7269 55.0189 37.0505 54.8823 36.3479L54.6611 35.1835C54.5245 34.481 53.848 34.0192 53.1454 34.1558C52.4429 34.2924 51.9811 34.9689 52.1177 35.6714L52.3388 36.8358H52.3323Z" fill="#39314C"/>
<path d="M39.6169 26.428H29.3066V29.0234H39.6169V26.428Z" fill="#39314C"/>
<path d="M50.7126 26.428H40.4023V29.0234H50.7126V26.428Z" fill="#39314C"/>
<path d="M35.3374 48.1413C34.6219 48.1413 34.043 48.7202 34.043 49.4358V51.9466C34.043 52.6622 34.6219 53.2411 35.3374 53.2411C36.053 53.2411 36.6319 52.6622 36.6319 51.9466V49.4358C36.6319 48.7202 36.053 48.1413 35.3374 48.1413Z" fill="#39314C"/>
<path d="M44.6773 48.1413C43.9617 48.1413 43.3828 48.7202 43.3828 49.4358V51.9466C43.3828 52.6622 43.9617 53.2411 44.6773 53.2411C45.3928 53.2411 45.9717 52.6622 45.9717 51.9466V49.4358C45.9717 48.7202 45.3928 48.1413 44.6773 48.1413Z" fill="#39314C"/>
</svg>
