<svg width="24" height="24" viewBox="0 0 24 24" xmlns="http://www.w3.org/2000/svg">
<path d="M8.13544 22.1537C11.6089 22.1537 14.4247 19.3462 14.4247 15.883C14.4247 12.4198 11.6089 9.6123 8.13544 9.6123C4.66198 9.6123 1.84616 12.4198 1.84616 15.883C1.84616 19.3462 4.66198 22.1537 8.13544 22.1537Z"/>
<path d="M19.0458 21.3625C21.1447 21.3625 22.8461 19.666 22.8461 17.5733C22.8461 15.4806 21.1447 13.7842 19.0458 13.7842C16.9469 13.7842 15.2454 15.4806 15.2454 17.5733C15.2454 19.666 16.9469 21.3625 19.0458 21.3625Z"/>
<path d="M9.33824 8.79508C10.6371 8.79508 11.69 7.74527 11.69 6.45027C11.69 5.15528 10.6371 4.10547 9.33824 4.10547C8.03942 4.10547 6.98651 5.15528 6.98651 6.45027C6.98651 7.74527 8.03942 8.79508 9.33824 8.79508Z"/>
<path d="M17.5694 12.9659C20.3934 12.9659 22.6828 10.6833 22.6828 7.86762C22.6828 5.05188 20.3934 2.76929 17.5694 2.76929C14.7453 2.76929 12.4559 5.05188 12.4559 7.86762C12.4559 10.6833 14.7453 12.9659 17.5694 12.9659Z"/>
</svg>
