<svg width="24" height="24" viewBox="0 0 24 24" xmlns="http://www.w3.org/2000/svg">
<path fill-rule="evenodd" clip-rule="evenodd" d="M12.3549 22.965L12.3574 22.9637L12.3635 22.9594L12.382 22.9453L12.4546 22.893L12.4558 22.8921L12.4559 22.892C12.5174 22.8465 12.6068 22.7804 12.7192 22.6936C12.9457 22.52 13.2669 22.2646 13.6503 21.9366C14.6568 21.0764 15.5978 20.1425 16.4658 19.1427C18.5015 16.7882 20.6161 13.4281 20.6161 9.5855C20.6161 7.29005 19.709 5.08691 18.0942 3.46225C17.296 2.65816 16.3467 2.01986 15.3009 1.58408C14.2551 1.14831 13.1334 0.923673 12.0004 0.923096C10.8675 0.923593 9.74587 1.14813 8.70006 1.5838C7.65425 2.01947 6.70493 2.65765 5.90672 3.46163C4.29031 5.09001 3.38371 7.2917 3.3848 9.58612C3.3848 13.4281 5.49932 16.7882 7.53507 19.1427C8.40302 20.1425 9.3441 21.0764 10.3505 21.9366C10.7346 22.2646 11.0552 22.52 11.2816 22.6936C11.3927 22.7792 11.5049 22.8633 11.6183 22.9459L11.638 22.9594L11.6435 22.9637L11.646 22.965C11.8583 23.1145 12.1426 23.1145 12.3549 22.965ZM12.3745 12.6158C13.1906 12.6158 13.9732 12.2916 14.5503 11.7145C15.1273 11.1375 15.4515 10.3548 15.4515 9.53874C15.4515 8.72267 15.1273 7.94002 14.5503 7.36297C13.9732 6.78591 13.1906 6.46173 12.3745 6.46173C11.5584 6.46173 10.7758 6.78591 10.1987 7.36297C9.62166 7.94002 9.29748 8.72267 9.29748 9.53874C9.29748 10.3548 9.62166 11.1375 10.1987 11.7145C10.7758 12.2916 11.5584 12.6158 12.3745 12.6158Z"/>
</svg>
