<svg width="24" height="24" viewBox="0 0 24 24" xmlns="http://www.w3.org/2000/svg">
<path fill-rule="evenodd" clip-rule="evenodd" d="M18.1121 20.8899C19.0484 20.7566 20.9209 19.6903 21.3222 18.624C21.7234 17.5577 21.7234 16.6246 21.5897 16.2248C21.4559 16.0915 21.1884 15.9582 20.6534 15.6916C20.2521 15.4251 17.8446 14.2255 17.4433 14.0922C17.0421 13.9589 16.6408 13.8256 16.3733 14.3588C16.1058 14.8919 15.1696 15.9582 14.902 16.2248C14.6345 16.4914 14.367 16.6246 13.832 16.3581C13.7509 16.3177 13.6483 16.2711 13.526 16.2157C12.8417 15.9053 11.5419 15.3159 9.95322 13.9589C8.48195 12.626 7.54568 11.1598 7.27817 10.6267C7.01067 10.2268 7.27817 9.96025 7.54568 9.69368C7.60108 9.63847 7.67943 9.53752 7.77122 9.41925C7.90103 9.252 8.05773 9.05011 8.21444 8.89395C8.48194 8.62738 8.6157 8.3608 8.74945 8.09423C8.8832 7.82765 8.8832 7.56107 8.74945 7.2945C8.66125 7.2066 8.22408 6.1334 7.82147 5.14504C7.61354 4.63459 7.41483 4.14677 7.27817 3.82902C6.91949 2.995 6.56081 3.01301 6.29766 3.02622C6.26643 3.02779 6.23654 3.02929 6.20815 3.02929H5.27189C4.87063 3.02929 4.33563 3.02929 3.93437 3.56244C3.88128 3.63297 3.81415 3.71284 3.73761 3.8039C3.23566 4.40107 2.32935 5.47931 2.32935 7.56107C2.32935 9.96025 4.06813 12.2261 4.33563 12.4927C4.34305 12.5038 4.35264 12.5183 4.36436 12.536C4.77516 13.1567 7.81301 17.7464 12.4945 19.6903C13.2406 20.062 13.9216 20.3041 14.4923 20.507C14.7401 20.5951 14.9671 20.6759 15.1696 20.7566C16.2396 21.0231 17.3096 21.0231 18.1121 20.8899Z"/>
</svg>
