<svg width="24" height="24" viewBox="0 0 24 24" xmlns="http://www.w3.org/2000/svg">
<path d="M19.8846 4.10472C17.7874 2.01482 14.9912 0.85376 12.0396 0.85376C5.90335 0.85376 0.932241 5.80761 0.932241 11.9225C0.932241 13.8576 1.47596 15.7927 2.40804 17.4182L0.854568 23.1461L6.75776 21.598C8.3889 22.4494 10.1754 22.9139 12.0396 22.9139C18.1758 22.9139 23.1469 17.96 23.1469 11.8451C23.0692 8.98116 21.9818 6.19462 19.8846 4.10472ZM17.399 15.8701C17.166 16.4893 16.0786 17.1086 15.5349 17.186C15.0688 17.2634 14.4474 17.2634 13.8261 17.1086C13.4377 16.9538 12.894 16.799 12.2726 16.4893C9.47633 15.3283 7.68984 12.5417 7.53449 12.3095C7.37915 12.1547 6.36939 10.8389 6.36939 9.44559C6.36939 8.05232 7.06845 7.43309 7.30147 7.12347C7.53449 6.81386 7.84519 6.81386 8.07821 6.81386C8.23355 6.81386 8.46657 6.81386 8.62192 6.81386C8.77727 6.81386 9.01029 6.73645 9.24331 7.27828C9.47633 7.82011 10.02 9.21338 10.0977 9.29078C10.1754 9.44559 10.1754 9.6004 10.0977 9.7552C10.02 9.91001 9.94237 10.0648 9.78702 10.2196C9.63168 10.3744 9.47633 10.6066 9.39865 10.684C9.24331 10.8389 9.08796 10.9937 9.24331 11.2259C9.39866 11.5355 9.94237 12.3869 10.7968 13.161C11.8842 14.0898 12.7386 14.3994 13.0493 14.5542C13.36 14.7091 13.5154 14.6316 13.6707 14.4768C13.826 14.322 14.3698 13.7028 14.5251 13.3932C14.6805 13.0836 14.9135 13.161 15.1465 13.2384C15.3795 13.3158 16.7776 14.0124 17.0107 14.1672C17.3214 14.322 17.4767 14.3994 17.5544 14.4768C17.6321 14.709 17.6321 15.2509 17.399 15.8701Z" />
</svg>
