<svg width="15" height="7" viewBox="0 0 15 7" xmlns="http://www.w3.org/2000/svg">
<path d="M6.97489 6.77148L0.412388 1.30273C0.28218 1.19857 0.20731 1.05534 0.187779 0.873047C0.168248 0.690755 0.217076 0.534505 0.334263 0.404297C0.451451 0.274088 0.597935 0.199219 0.773717 0.179688C0.949498 0.160156 1.10249 0.208984 1.2327 0.326172L7.38505 5.44336L13.5374 0.326172C13.6676 0.208984 13.8206 0.160156 13.9964 0.179688C14.1722 0.199219 14.3186 0.274088 14.4358 0.404297C14.553 0.534505 14.6018 0.690755 14.5823 0.873047C14.5628 1.05534 14.4879 1.19857 14.3577 1.30273L7.7952 6.77148C7.7301 6.82357 7.66499 6.86263 7.59989 6.88867C7.53478 6.91471 7.46317 6.92773 7.38505 6.92773C7.30692 6.92773 7.23531 6.91471 7.1702 6.88867C7.1051 6.86263 7.03999 6.82357 6.97489 6.77148Z"/>
</svg>
