<svg width="18" height="18" viewBox="0 0 18 18" xmlns="http://www.w3.org/2000/svg">
<path d="M16.7542 15.6931L16.6504 15.7969C13.7847 18.6626 8.67633 16.233 5.15656 12.7132C1.63672 9.19336 -0.792863 4.08499 2.0728 1.21933L2.17664 1.11549C2.97608 0.31605 3.99366 0.08755 4.80355 0.897448C5.40577 1.49967 6.08055 2.23682 6.92164 3.80461C7.39928 4.69761 7.3681 5.33093 6.63085 6.10964L5.96644 6.79496C5.85223 6.90917 5.83141 7.05456 5.93525 7.26224C6.18439 7.7398 6.88008 8.7261 8.01187 9.85788C9.14356 10.9896 10.1299 11.6853 10.6075 11.9345C10.8152 12.0383 10.9606 12.0175 11.0748 11.9033L11.76 11.2388C12.5284 10.4912 13.1617 10.4601 14.0651 10.948C15.6328 11.7891 16.3701 12.464 16.9723 13.0662C17.7821 13.876 17.5536 14.8936 16.7542 15.6931Z"/>
</svg>
