<svg width="17" height="14" viewBox="0 0 17 14" xmlns="http://www.w3.org/2000/svg">
<path fill-rule="evenodd" clip-rule="evenodd" d="M1.84527 5.84184C6.2136 3.93863 9.1265 2.68392 10.584 2.0777C14.7454 0.346837 15.6101 0.046167 16.1737 0.0362387C16.2976 0.0340551 16.5748 0.0647756 16.7543 0.210455C16.9059 0.333464 16.9476 0.499631 16.9676 0.616257C16.9876 0.732883 17.0124 0.99856 16.9927 1.20615C16.7671 3.57557 15.7914 9.32554 15.295 11.9793C15.0849 13.1023 14.6713 13.4788 14.2709 13.5156C13.4007 13.5957 12.7399 12.9405 11.8971 12.3881C10.5783 11.5235 9.83321 10.9854 8.55304 10.1418C7.07359 9.16682 8.03266 8.63098 8.87579 7.75527C9.09645 7.52609 12.9305 4.03872 13.0047 3.72236C13.014 3.68279 13.0226 3.53531 12.935 3.45743C12.8474 3.37956 12.7181 3.40619 12.6247 3.42737C12.4925 3.45739 10.3856 4.84995 6.30413 7.60505C5.70611 8.0157 5.16443 8.21578 4.67911 8.2053C4.14408 8.19374 3.1149 7.90278 2.34981 7.65408C1.41139 7.34904 0.66556 7.18777 0.730505 6.66971C0.764332 6.39988 1.13592 6.12392 1.84527 5.84184Z" />
</svg>
