<svg width="13" height="24" viewBox="0 0 13 24" xmlns="http://www.w3.org/2000/svg">
<path d="M0.651012 0.666002C0.476568 0.844598 0.378906 1.08435 0.378906 1.334C0.378906 1.58366 0.476568 1.82341 0.651012 2.002L10.397 12L0.651012 21.996C0.476568 22.1746 0.378906 22.4143 0.378906 22.664C0.378906 22.9137 0.476568 23.1534 0.651012 23.332C0.735805 23.4191 0.837184 23.4883 0.949166 23.5356C1.06115 23.5828 1.18146 23.6072 1.30301 23.6072C1.42456 23.6072 1.54488 23.5828 1.65686 23.5356C1.76884 23.4883 1.87022 23.4191 1.95501 23.332L12.319 12.698C12.501 12.5113 12.6029 12.2608 12.6029 12C12.6029 11.7392 12.501 11.4887 12.319 11.302L1.95501 0.668003C1.87022 0.580916 1.76884 0.511698 1.65686 0.464435C1.54488 0.417172 1.42456 0.392822 1.30301 0.392822C1.18146 0.392822 1.06115 0.417172 0.949166 0.464435C0.837184 0.511698 0.735805 0.580916 0.651012 0.668003V0.666002Z"/>
</svg>
