<svg width="26" height="26" viewBox="0 0 26 26" xmlns="http://www.w3.org/2000/svg">
<path d="M13 3.57831C16.0482 3.57831 16.4639 3.57831 17.7108 3.57831C18.8193 3.57831 19.3735 3.85542 19.7892 3.99398C20.3434 4.27108 20.759 4.40964 21.1747 4.8253C21.5904 5.24096 21.8675 5.65663 22.006 6.21084C22.1446 6.62651 22.2831 7.18072 22.4217 8.28916C22.4217 9.53615 22.4217 9.81325 22.4217 13C22.4217 16.1867 22.4217 16.4639 22.4217 17.7108C22.4217 18.8193 22.1446 19.3735 22.006 19.7892C21.7289 20.3434 21.5904 20.759 21.1747 21.1747C20.759 21.5904 20.3434 21.8675 19.7892 22.006C19.3735 22.1446 18.8193 22.2831 17.7108 22.4217C16.4639 22.4217 16.1867 22.4217 13 22.4217C9.81325 22.4217 9.53615 22.4217 8.28916 22.4217C7.18072 22.4217 6.62651 22.1446 6.21084 22.006C5.65663 21.7289 5.24096 21.5904 4.8253 21.1747C4.40964 20.759 4.13253 20.3434 3.99398 19.7892C3.85542 19.3735 3.71687 18.8193 3.57831 17.7108C3.57831 16.4639 3.57831 16.1867 3.57831 13C3.57831 9.81325 3.57831 9.53615 3.57831 8.28916C3.57831 7.18072 3.85542 6.62651 3.99398 6.21084C4.27108 5.65663 4.40964 5.24096 4.8253 4.8253C5.24096 4.40964 5.65663 4.13253 6.21084 3.99398C6.62651 3.85542 7.18072 3.71687 8.28916 3.57831C9.53615 3.57831 9.95181 3.57831 13 3.57831ZM13 1.5C9.81325 1.5 9.53615 1.5 8.28916 1.5C7.04217 1.5 6.21084 1.77711 5.51807 2.05422C4.8253 2.33133 4.13253 2.74699 3.43976 3.43976C2.74699 4.13253 2.46988 4.68675 2.05422 5.51807C1.77711 6.21084 1.63855 7.04217 1.5 8.28916C1.5 9.53615 1.5 9.95181 1.5 13C1.5 16.1867 1.5 16.4639 1.5 17.7108C1.5 18.9578 1.77711 19.7892 2.05422 20.4819C2.33133 21.1747 2.74699 21.8675 3.43976 22.5602C4.13253 23.253 4.68675 23.5301 5.51807 23.9458C6.21084 24.2229 7.04217 24.3614 8.28916 24.5C9.53615 24.5 9.95181 24.5 13 24.5C16.0482 24.5 16.4639 24.5 17.7108 24.5C18.9578 24.5 19.7892 24.2229 20.4819 23.9458C21.1747 23.6687 21.8675 23.253 22.5602 22.5602C23.253 21.8675 23.5301 21.3133 23.9458 20.4819C24.2229 19.7892 24.3614 18.9578 24.5 17.7108C24.5 16.4639 24.5 16.0482 24.5 13C24.5 9.95181 24.5 9.53615 24.5 8.28916C24.5 7.04217 24.2229 6.21084 23.9458 5.51807C23.6687 4.8253 23.253 4.13253 22.5602 3.43976C21.8675 2.74699 21.3133 2.46988 20.4819 2.05422C19.7892 1.77711 18.9578 1.63855 17.7108 1.5C16.4639 1.5 16.1867 1.5 13 1.5Z"/>
<path d="M13 7.04217C9.6747 7.04217 7.04217 9.6747 7.04217 13C7.04217 16.3253 9.6747 18.9578 13 18.9578C16.3253 18.9578 18.9578 16.3253 18.9578 13C18.9578 9.6747 16.3253 7.04217 13 7.04217ZM13 16.8795C10.9217 16.8795 9.12048 15.2169 9.12048 13C9.12048 10.9217 10.7831 9.12048 13 9.12048C15.0783 9.12048 16.8795 10.7831 16.8795 13C16.8795 15.0783 15.0783 16.8795 13 16.8795Z"/>
<path d="M19.0964 8.28916C19.8616 8.28916 20.4819 7.66883 20.4819 6.90362C20.4819 6.1384 19.8616 5.51807 19.0964 5.51807C18.3312 5.51807 17.7108 6.1384 17.7108 6.90362C17.7108 7.66883 18.3312 8.28916 19.0964 8.28916Z"/>
</svg>
