<svg width="26" height="26" viewBox="0 0 26 26" xmlns="http://www.w3.org/2000/svg">
<path d="M14.1315 21.0502C5.48742 21.0502 0.556997 15.0067 0.351562 4.9502H4.68148C4.8237 12.3314 8.01583 15.4579 10.5443 16.1025V4.9502H14.6213V11.3161C17.1181 11.0421 19.7414 8.14119 20.6263 4.9502H24.7034C24.3699 6.60513 23.7052 8.1721 22.7508 9.55307C21.7964 10.934 20.5728 12.0993 19.1567 12.976C20.7375 13.7771 22.1337 14.9109 23.2532 16.3027C24.3728 17.6945 25.1902 19.3126 25.6516 21.0502H21.1636C20.7495 19.5409 19.9078 18.1899 18.744 17.1664C17.5802 16.143 16.146 15.4926 14.6213 15.2967V21.0502H14.1315Z"/>
</svg>
