<svg width="26" height="26" viewBox="0 0 26 26" xmlns="http://www.w3.org/2000/svg">
<path d="M21.5416 4.44692C19.2697 2.18286 16.2404 0.925049 13.0429 0.925049C6.39529 0.925049 1.00993 6.29172 1.00993 12.9162C1.00993 15.0125 1.59895 17.1089 2.60871 18.8698L0.925781 25.0751L7.3209 23.398C9.08798 24.3204 11.0233 24.8235 13.0429 24.8235C19.6904 24.8235 25.0758 19.4568 25.0758 12.8323C24.9916 9.72974 23.8136 6.71099 21.5416 4.44692ZM18.849 17.1928C18.5965 17.8636 17.4185 18.5344 16.8294 18.6183C16.3246 18.7021 15.6514 18.7021 14.9782 18.5344C14.5575 18.3667 13.9685 18.199 13.2953 17.8636C10.266 16.6058 8.33066 13.587 8.16237 13.3355C7.99408 13.1678 6.90017 11.7422 6.90017 10.2329C6.90017 8.72349 7.65749 8.05265 7.90993 7.71724C8.16237 7.38182 8.49895 7.38182 8.75139 7.38182C8.91968 7.38182 9.17212 7.38182 9.34041 7.38182C9.50871 7.38182 9.76115 7.29797 10.0136 7.88494C10.266 8.47192 10.855 9.9813 10.9392 10.0652C11.0233 10.2329 11.0233 10.4006 10.9392 10.5683C10.855 10.736 10.7709 10.9037 10.6026 11.0714C10.4343 11.2391 10.266 11.4907 10.1819 11.5745C10.0136 11.7422 9.84529 11.9099 10.0136 12.1615C10.1819 12.4969 10.7709 13.4193 11.6965 14.2579C12.8746 15.2641 13.8002 15.5995 14.1368 15.7672C14.4733 15.9349 14.6416 15.8511 14.8099 15.6834C14.9782 15.5157 15.5672 14.8448 15.7355 14.5094C15.9038 14.174 16.1563 14.2579 16.4087 14.3417C16.6611 14.4256 18.1758 15.1803 18.4282 15.348C18.7648 15.5157 18.9331 15.5995 19.0172 15.6834C19.1014 15.9349 19.1014 16.5219 18.849 17.1928Z"/>
</svg>
