<svg width="220" height="296" viewBox="0 0 220 296" fill="none" xmlns="http://www.w3.org/2000/svg">
<path d="M-37.964 120.167C-45.5287 121.399 -51.3525 123.053 -55.5622 125.939C-59.392 128.533 -62.0823 132.424 -63.7915 138.26C-65.6906 144.681 -64.7727 151.295 -61.7658 156.84C-58.7273 162.417 -53.5365 166.892 -46.953 168.934C-24.3222 175.938 -6.12267 166.924 11.5072 158.202C26.6365 150.712 41.386 143.416 58.8576 144.908L61.6113 145.134C44.0132 135.958 34.8975 120.621 25.7186 105.187C15.7168 88.3907 5.65163 71.4324 -16.2511 64.6555C-22.8346 62.6128 -29.5764 63.391 -35.147 66.3416C-40.6544 69.2275 -44.9906 74.2534 -46.8897 80.6411C-48.5989 86.4776 -48.4722 91.2116 -46.6998 95.5566C-44.7374 100.323 -40.8126 104.992 -35.147 110.342L-26.6644 118.351L-38.0589 120.2L-37.964 120.167ZM-61.7342 116.406C-58.3475 114.104 -54.4544 112.418 -49.9282 111.088C-52.9668 107.457 -55.3089 103.825 -56.8915 99.9664C-59.7401 93.0599 -60.0567 85.8615 -57.5246 77.3013C-54.7392 67.8008 -48.314 60.4079 -40.2112 56.1602C-32.1718 51.9125 -22.4548 50.7452 -12.991 53.6959C-0.267181 57.6193 8.88008 64.1367 16.2232 71.9512C10.9374 62.5479 7.36081 51.7179 7.1709 38.1319L7.13924 38.067H7.1709C7.0443 27.9504 10.8108 18.7417 17.0145 12.0297C23.2498 5.25286 31.954 0.972751 41.6709 0.843051L41.7342 0.810626V0.843051C50.4384 0.745776 57.0852 3.01553 62.7508 7.68474C65.9159 10.3112 68.7012 13.6185 71.265 17.6392C73.7338 13.5537 76.4241 10.149 79.526 7.45776C85.065 2.62643 91.6801 0.162125 100.416 0.032425L100.479 0V0.032425C110.133 -0.0648501 118.932 3.95586 125.326 10.5381C131.687 17.1204 135.707 26.2643 135.834 36.3809L135.865 36.4458H135.834C135.897 42.7362 135.327 48.0863 134.251 52.7556C138.366 49.6103 142.955 46.8542 148.146 44.6169C157.262 40.7259 167.042 40.8556 175.461 44.2278C183.944 47.6324 191.066 54.3119 194.8 63.4882C198.155 71.7242 198.567 78.9226 196.415 86.0885C195.212 90.0768 193.249 93.9353 190.559 97.8912C195.18 98.7343 199.263 99.9988 202.84 101.944C209.297 105.414 214.013 110.796 217.368 119.065C221.103 128.209 220.723 138.098 217.115 146.658C213.538 155.154 206.733 162.385 197.617 166.276C185.432 171.496 174.354 172.436 163.877 171.204C173.689 175.03 183.058 181.029 191.54 191.308C197.934 199.057 200.751 208.655 200.149 217.896C199.548 227.202 195.465 236.184 188.059 242.572C181.38 248.343 174.797 250.905 167.485 250.97C163.402 251.002 159.224 250.257 154.761 248.83C155.394 253.596 155.426 257.941 154.698 262.059C153.4 269.42 149.855 275.645 143.177 281.417C135.771 287.805 126.465 290.431 117.413 289.491C108.392 288.55 99.6246 284.108 93.2627 276.391C85.065 266.469 80.792 256.32 78.6397 246.106C77.6902 256.19 74.8099 266.599 68.4164 277.526C63.2255 286.378 55.1228 292.312 46.2604 294.744C37.303 297.208 27.5544 296.106 19.1035 290.918C11.4755 286.216 6.88603 280.574 4.41722 273.408C3.02456 269.355 2.35989 264.913 2.23329 259.952C-2.10295 262.189 -6.2493 263.68 -10.3956 264.329C-17.7071 265.464 -24.702 263.972 -32.3617 259.303C-40.8126 254.115 -46.3516 245.782 -48.4406 236.508C-50.5296 227.332 -49.2002 217.248 -44.0411 208.396C-35.4635 193.74 -24.1007 185.601 -11.7566 180.186C-23.2778 183.428 -35.78 184.272 -50.2131 179.797C-59.6768 176.879 -67.1149 170.394 -71.5461 162.287C-75.9773 154.116 -77.3383 144.324 -74.553 134.856C-72.0209 126.296 -67.8746 120.459 -61.7975 116.341L-61.7342 116.406ZM16.3498 168.448C11.6654 170.783 6.91769 173.117 2.07503 175.225C6.50622 173.863 11.0007 172.663 15.4319 171.496C28.9787 167.897 42.2407 164.363 52.1159 156.191C39.8352 156.84 28.2191 162.579 16.3498 168.448ZM68.0049 156.094L64.4916 159.953C52.1792 173.506 35.4356 177.949 18.2489 182.521C-1.59653 187.806 -22.1383 193.253 -34.4507 214.297C-38.0906 220.49 -39.0085 227.591 -37.5525 234.012C-36.1282 240.334 -32.3617 246.009 -26.6328 249.543C-21.4103 252.753 -16.7576 253.791 -12.0415 253.077C-6.94563 252.299 -1.40662 249.446 5.14522 245.036L14.7989 238.551L13.7544 250.321C13.0581 258.298 13.2163 264.653 14.9255 269.647C16.5081 274.251 19.5782 277.947 24.8007 281.158C30.5296 284.692 37.2081 285.405 43.3484 283.719C49.5521 282.001 55.2177 277.85 58.826 271.689C70.9801 250.937 68.0998 231.418 65.2512 211.995C62.5925 193.869 59.9654 175.873 67.9732 156.094H68.0049ZM76.3292 210.309L76.8673 214.038L77.0572 209.336C77.5636 196.788 78.0701 184.499 74.715 173.377C72.721 185.763 74.5251 198.02 76.3292 210.341V210.309ZM79.9691 157.424L81.2985 159.953C89.5912 175.809 88.8948 192.572 88.1985 209.758C87.3755 229.796 86.521 250.516 101.777 268.998C106.208 274.381 112.285 277.494 118.489 278.142C124.661 278.791 130.96 277.007 135.96 272.695C140.518 268.771 142.924 264.718 143.715 260.049C144.601 254.958 143.81 248.797 141.879 241.21L139.031 229.796L149.539 234.595C156.534 237.805 162.326 239.654 167.359 239.589C171.948 239.556 176.253 237.805 180.81 233.849C185.811 229.537 188.565 223.441 188.977 217.118C189.388 210.73 187.426 204.083 182.994 198.701C168.213 180.802 149.064 178.046 130.042 175.322C112.538 172.825 95.1618 170.329 79.9691 157.424ZM131.593 164.006C134.378 164.395 137.132 164.784 139.885 165.238C137.29 164.363 134.694 163.422 132.099 162.514C119.976 158.169 107.917 153.857 95.1935 154.214C106.303 160.407 118.9 162.19 131.561 164.006H131.593ZM83.3242 144.194C102.568 139.849 119.154 145.751 135.802 151.717C153.938 158.202 172.201 164.719 193.344 155.705C199.675 152.981 204.391 147.988 206.86 142.119C209.328 136.282 209.582 129.603 207.049 123.41C204.771 117.8 201.732 114.233 197.649 112.029C193.186 109.629 187.236 108.559 179.576 108.138L168.055 107.489L175.715 98.6694C180.81 92.8005 184.26 87.7097 185.748 82.7811C187.109 78.2741 186.761 73.54 184.482 67.898C181.982 61.7373 177.139 57.1978 171.41 54.8956C165.586 52.561 158.781 52.4637 152.451 55.1874C130.421 64.5907 120.071 87.3531 111.177 106.905C103.739 123.248 97.2191 137.612 85.1283 142.994L83.3875 144.227L83.3242 144.194ZM101.017 102.042C102.632 98.5073 104.277 94.9081 106.018 91.2765C98.0737 99.6746 90.2558 110.505 85.4765 129.084C91.237 123.507 95.8898 113.326 101.017 102.042ZM72.3411 136.834L72.8792 134.045C79.3044 101.004 93.4209 87.4503 105.702 75.6476C116.083 65.6607 124.977 57.1329 124.724 36.5106L124.693 36.4458H124.724C124.629 29.4419 121.844 23.1191 117.444 18.5796C113.076 14.0725 107.126 11.3163 100.574 11.4136L100.511 11.446V11.4136C94.6237 11.5109 90.2558 13.0673 86.7425 16.1477C82.8811 19.4875 79.7159 24.7727 76.4875 31.8738L71.6131 42.5741L66.454 32.0035C63.0356 24.9673 59.7122 19.7793 55.8191 16.5692C52.2109 13.5861 47.8113 12.127 41.8608 12.2242L41.7975 12.2567V12.2242C35.309 12.3215 29.4535 15.2398 25.2122 19.8441C20.9076 24.5133 18.3122 30.9335 18.4072 37.9697L18.4388 38.0346H18.4072C18.7237 61.413 31.8273 76.0043 44.8361 90.4659C56.7686 103.76 68.6379 116.99 72.4044 136.834H72.3411ZM36.5751 98.2155C34.6443 96.043 32.6819 93.8705 30.7828 91.698C32.3021 94.1948 33.8214 96.6915 35.309 99.2206C41.9875 110.472 48.6659 121.691 58.6994 129.7C53.9517 117.606 45.3108 107.943 36.6067 98.2479L36.5751 98.2155Z" fill="#C8AC71" fill-opacity="0.1"/>
</svg>
