<svg width="9" height="15" viewBox="0 0 9 15" xmlns="http://www.w3.org/2000/svg">
<path d="M7.94661 7.90727L1.67698 13.881C1.57237 13.9807 1.43339 14.0364 1.28886 14.0364C1.14433 14.0364 1.00534 13.9807 0.900732 13.881L0.893981 13.8743C0.843092 13.8259 0.80257 13.7677 0.77488 13.7032C0.747189 13.6387 0.73291 13.5693 0.73291 13.4991C0.73291 13.4289 0.747189 13.3594 0.77488 13.2949C0.80257 13.2304 0.843092 13.1722 0.893981 13.1239L6.79798 7.4989L0.893981 1.87615C0.843091 1.8278 0.80257 1.76961 0.774879 1.70511C0.747189 1.64061 0.732909 1.57115 0.732909 1.50096C0.732909 1.43077 0.747188 1.36131 0.774879 1.29681C0.80257 1.23231 0.843091 1.17412 0.893981 1.12577L0.900731 1.11902C1.00534 1.0193 1.14433 0.963663 1.28886 0.963663C1.43339 0.963663 1.57237 1.0193 1.67698 1.11902L7.94661 7.09277C8.00174 7.1453 8.04564 7.20849 8.07563 7.27849C8.10563 7.3485 8.12109 7.42386 8.12109 7.50002C8.12109 7.57618 8.10563 7.65154 8.07563 7.72155C8.04564 7.79155 8.00174 7.85474 7.94661 7.90727Z"/>
</svg>
