<svg width="26" height="26" viewBox="0 0 26 26" xmlns="http://www.w3.org/2000/svg">
<path d="M21.6158 4.52187C19.3439 2.25781 16.3146 1 13.1171 1C6.46951 1 1.08415 6.36667 1.08415 12.9911C1.08415 15.0875 1.67317 17.1839 2.68293 18.9448L1 25.15L7.39512 23.4729C9.1622 24.3953 11.0976 24.8984 13.1171 24.8984C19.7646 24.8984 25.15 19.5318 25.15 12.9073C25.0659 9.80469 23.8878 6.78594 21.6158 4.52187ZM18.9232 17.2677C18.6707 17.9385 17.4927 18.6094 16.9037 18.6932C16.3988 18.7771 15.7256 18.7771 15.0524 18.6094C14.6317 18.4417 14.0427 18.274 13.3695 17.9385C10.3402 16.6807 8.40488 13.662 8.23659 13.4104C8.06829 13.2427 6.97439 11.8172 6.97439 10.3078C6.97439 8.79844 7.73171 8.1276 7.98415 7.79219C8.23658 7.45677 8.57317 7.45677 8.82561 7.45677C8.9939 7.45677 9.24634 7.45677 9.41463 7.45677C9.58292 7.45677 9.83536 7.37292 10.0878 7.9599C10.3402 8.54688 10.9293 10.0563 11.0134 10.1401C11.0976 10.3078 11.0976 10.4755 11.0134 10.6432C10.9293 10.8109 10.8451 10.9786 10.6768 11.1464C10.5085 11.3141 10.3402 11.5656 10.2561 11.6495C10.0878 11.8172 9.91951 11.9849 10.0878 12.2365C10.2561 12.5719 10.8451 13.4943 11.7707 14.3328C12.9488 15.3391 13.8744 15.6745 14.211 15.8422C14.5476 16.0099 14.7158 15.926 14.8841 15.7583C15.0524 15.5906 15.6415 14.9198 15.8098 14.5844C15.978 14.249 16.2305 14.3328 16.4829 14.4167C16.7354 14.5005 18.25 15.2552 18.5024 15.4229C18.839 15.5906 19.0073 15.6745 19.0915 15.7583C19.1756 16.0099 19.1756 16.5969 18.9232 17.2677Z"/>
</svg>
