<svg width="120" height="120" viewBox="0 0 120 120" fill="none" xmlns="http://www.w3.org/2000/svg">
<rect width="120" height="120" fill="#6EB657"/>
<path fill-rule="evenodd" clip-rule="evenodd" d="M64.5941 40.8753C87.1683 40.8753 85.1065 23.3174 85.1065 23.3174C84.8599 23.2642 84.6306 23.2287 84.4017 23.1755C84.2783 23.1578 84.1725 23.1401 84.0491 23.1223C83.6262 23.0514 83.221 22.9804 82.8155 22.9272C82.6218 22.9095 82.4279 22.8741 82.234 22.8563C81.8111 22.8031 81.4235 22.7854 81.018 22.7499C80.8596 22.7499 80.7008 22.7322 80.5422 22.7144C80.0842 22.7144 79.626 22.6967 79.1855 22.7144C79.1149 22.7144 79.0269 22.7144 78.9563 22.7144C78.4277 22.7322 77.8989 22.7677 77.4054 22.8386C77.4054 22.8386 77.388 22.8386 77.3703 22.8386C76.8945 22.8918 76.4363 22.9805 75.9958 23.0691C75.8724 23.0869 75.7666 23.1223 75.6432 23.1578C75.3084 23.2287 74.9914 23.3174 74.6741 23.4061C74.5332 23.4416 74.4096 23.4948 74.2687 23.5303C73.9691 23.6189 73.6871 23.7253 73.4229 23.8318C73.2995 23.8849 73.1586 23.9382 73.0353 23.9913C72.7533 24.1155 72.4888 24.2219 72.2245 24.3638C72.1189 24.417 71.9955 24.4702 71.8897 24.5234C71.6077 24.6653 71.3258 24.8249 71.0439 24.9845C70.9735 25.02 70.9029 25.0732 70.8323 25.1087C70.1451 25.5343 69.5283 25.9954 68.9292 26.4743C68.8588 26.5452 68.7705 26.6161 68.7002 26.6694C68.4886 26.8467 68.2947 27.0241 68.101 27.2014C68.0128 27.2901 67.9247 27.3787 67.8365 27.4674C67.6605 27.627 67.5018 27.8044 67.3432 27.9818C67.255 28.0704 67.167 28.1769 67.0789 28.2655C66.9203 28.4429 66.7794 28.6025 66.6382 28.7798C66.5678 28.8685 66.4796 28.9749 66.4092 29.0636C66.2682 29.241 66.1273 29.436 65.9863 29.6134C65.9334 29.7021 65.863 29.773 65.7924 29.8617C65.6161 30.11 65.4399 30.3583 65.2812 30.6065C65.2812 30.6065 65.2638 30.6421 65.2462 30.6598C63.2018 33.8344 62.5146 36.7252 62.5146 36.7252C67.6428 31.5642 73.8281 30.6243 73.8281 30.6243C67.6955 34.8454 64.5764 40.8575 64.5764 40.8575L64.5941 40.8753Z" fill="white"/>
<path fill-rule="evenodd" clip-rule="evenodd" d="M27.369 59.7782C27.0126 60.4921 26.6918 61.2241 26.3889 61.9559C26.3176 62.1166 26.2641 62.2772 26.1928 62.4379C25.9077 63.1697 25.6404 63.9017 25.4087 64.6334C25.3909 64.7049 25.3552 64.7762 25.3374 64.8477C25.0879 65.6689 24.8562 66.49 24.6601 67.3112C24.6245 67.454 24.5889 67.5968 24.571 67.7217C24.1968 69.3819 23.9295 71.0597 23.7869 72.7554C23.7869 72.934 23.7512 73.1304 23.7512 73.3089C23.6977 74.1479 23.6621 74.9691 23.6621 75.8079C23.6621 76.647 23.6977 77.486 23.7512 78.3072C23.7512 78.4857 23.7869 78.6821 23.7869 78.8604C23.9295 80.5563 24.179 82.2342 24.571 83.8944C24.6067 84.0372 24.6245 84.1621 24.6601 84.3049C24.8562 85.1439 25.0879 85.9651 25.3374 86.7862C25.3552 86.8398 25.373 86.8932 25.3908 86.9647C25.6403 87.7144 25.9077 88.4641 26.1928 89.2139C26.2463 89.3567 26.3176 89.5174 26.371 89.6602C26.674 90.4098 27.0126 91.1418 27.369 91.8736C27.4581 92.0521 27.5473 92.2307 27.6542 92.4271C27.9928 93.0697 28.3314 93.7123 28.7057 94.355C28.777 94.462 28.8305 94.569 28.9018 94.6942C29.3117 95.3902 29.775 96.0507 30.2384 96.7291C30.3632 96.9076 30.4879 97.0861 30.6305 97.2647C31.1117 97.9249 31.6107 98.5676 32.1454 99.1925C32.2523 99.3175 32.3771 99.4602 32.484 99.5851C33.0543 100.246 33.6424 100.906 34.284 101.531C35.1394 102.388 36.0127 103.173 36.9216 103.923C36.9929 103.977 37.0464 104.03 37.1176 104.084C37.9731 104.78 38.8464 105.422 39.7553 106.029C39.8622 106.101 39.9692 106.172 40.0761 106.226C40.9494 106.797 41.8583 107.35 42.7672 107.85C42.8741 107.904 42.9811 107.957 43.088 108.011C44.0326 108.51 44.9771 108.957 45.9574 109.367C46.0285 109.403 46.0821 109.421 46.1533 109.439C49.2544 110.724 52.5159 111.545 55.7951 111.92C55.8662 111.92 55.9555 111.938 56.0266 111.956C57.0426 112.063 58.0584 112.134 59.0742 112.152C59.2346 112.152 59.3772 112.152 59.5376 112.152C60.5357 112.152 61.5337 112.134 62.5138 112.063C62.6742 112.063 62.817 112.045 62.9772 112.027C63.9932 111.938 64.9911 111.813 66.0071 111.652C66.114 111.634 66.2208 111.617 66.3277 111.599C67.3616 111.42 68.3773 111.188 69.3931 110.92C69.4645 110.902 69.5535 110.867 69.6249 110.849C70.6586 110.563 71.6743 110.242 72.6723 109.867C72.7437 109.831 72.8327 109.796 72.9041 109.778C73.902 109.403 74.8645 108.975 75.8269 108.51C75.916 108.457 76.0228 108.403 76.1121 108.368C77.0565 107.904 77.9656 107.404 78.8745 106.85C78.9814 106.779 79.0882 106.708 79.1951 106.654C80.0864 106.101 80.9596 105.494 81.815 104.869C81.9042 104.798 82.0111 104.726 82.1001 104.637C82.9557 103.977 83.7754 103.28 84.5774 102.548C85.8962 101.334 87.1081 100.031 88.231 98.6391C86.2884 98.5142 84.3635 98.2999 82.4566 97.9965C78.5713 97.3717 74.7219 96.4078 70.9615 95.0689C69.9634 94.7118 68.9833 94.355 68.003 93.9443C68.003 93.9443 67.9673 93.9443 67.9673 93.9264C67.005 93.5338 66.0604 93.1055 65.1337 92.6769C64.8842 92.552 64.617 92.4271 64.3673 92.3022C63.6009 91.9272 62.8346 91.5344 62.0682 91.124C61.8724 91.0169 61.6762 90.9275 61.4801 90.8205C60.5534 90.3207 59.6445 89.7851 58.7355 89.2318C57.4882 88.4643 56.2763 87.661 55.0644 86.8041C54.0841 86.1078 53.1218 85.3761 52.1772 84.6262C51.9811 84.4834 51.8029 84.3227 51.6068 84.1621C50.6978 83.4124 49.8068 82.6628 48.9336 81.8595C48.1672 81.1632 47.4187 80.467 46.688 79.7352C45.8683 78.914 45.1019 78.0929 44.3355 77.2362C44.086 76.9504 43.8543 76.6827 43.6048 76.3971C43.1058 75.8258 42.6068 75.2368 42.1256 74.6478C41.8583 74.3086 41.591 73.9694 41.3236 73.6302C40.8959 73.0768 40.4682 72.5235 40.0583 71.97C39.791 71.6132 39.5414 71.2383 39.2919 70.8812C38.8998 70.3101 38.5256 69.7566 38.1513 69.1855C36.1196 66.0615 34.3731 62.8128 32.9295 59.4567C32.1632 57.6718 31.4859 55.8509 30.88 54.0122C29.5612 55.7794 28.4028 57.6718 27.4047 59.6531C27.3869 59.6888 27.3691 59.7425 27.3334 59.7782H27.369Z" fill="white"/>
<path fill-rule="evenodd" clip-rule="evenodd" d="M96.2674 73.7157C96.2674 73.5562 96.2495 73.3789 96.2317 73.2193C96.1962 72.6519 96.1427 72.0847 96.0714 71.5175C96.0537 71.3224 96.0181 71.1451 96.0002 70.9501C95.911 70.3296 95.822 69.7269 95.6974 69.1242C95.6796 69.0177 95.6617 68.9114 95.6439 68.8051C95.5014 68.0604 95.3232 67.3336 95.145 66.6067C95.145 66.6067 95.1096 66.4649 95.0917 66.3941C95.0204 66.1458 94.9492 65.9154 94.8779 65.6849C94.2365 63.5222 93.4172 61.4125 92.3662 59.3738C92.1524 58.9484 91.9209 58.5228 91.6716 58.0974C91.5824 57.9556 91.5289 57.8138 91.4399 57.672C91.4399 57.672 91.4756 57.7428 91.5289 57.8846C90.6382 56.3423 89.6408 54.8531 88.5184 53.4526C87.9127 54.4632 87.2716 55.456 86.6124 56.4309C84.368 59.7107 81.7671 62.8307 78.8456 65.7381C74.891 69.6737 70.5445 73.0065 65.9131 75.7189C62.3145 77.8286 58.5559 79.5836 54.6904 80.9486C55.3851 81.4982 56.0799 82.0302 56.7746 82.5441C56.9349 82.6681 57.1131 82.7924 57.291 82.9165C57.4692 83.0405 57.6296 83.1646 57.8077 83.2711C58.1819 83.5369 58.5737 83.8028 58.9655 84.0688C59.2151 84.2284 59.4644 84.4057 59.7318 84.5652C59.9632 84.707 60.1769 84.8666 60.4086 85.0084C60.4086 85.0084 60.4442 85.0261 60.4619 85.0439C60.7292 85.221 61.0142 85.3805 61.2814 85.5401C61.5131 85.6821 61.7445 85.8239 61.9584 85.9479C63.4369 86.8167 64.9689 87.632 66.5009 88.359C66.7323 88.4653 66.9817 88.5716 67.2134 88.6958C67.7655 88.9439 68.3 89.1922 68.8522 89.4226C69.1193 89.5466 69.4045 89.6531 69.6717 89.7594C70.2238 89.99 70.776 90.2026 71.3283 90.4154C71.5777 90.5039 71.8272 90.6105 72.0765 90.699C72.8603 90.9826 73.6442 91.2487 74.4278 91.4967C74.4278 91.4967 74.4635 91.4967 74.4813 91.4967C78.721 92.8264 83.0674 93.6772 87.4496 94.0496C88.7144 94.1559 89.9971 94.2269 91.2796 94.2624C91.9031 93.1986 92.4552 92.1172 92.9719 91.0181C93.1322 90.6812 93.2926 90.3444 93.4351 90.0075C93.5776 89.6709 93.7022 89.334 93.8269 89.0149C93.9694 88.6248 94.1297 88.2525 94.2722 87.8626C94.3257 87.703 94.3793 87.5435 94.4325 87.3839C94.6286 86.8167 94.8067 86.2315 94.9671 85.6466C95.6617 83.1646 96.107 80.6472 96.2674 78.0944C96.3031 77.4917 96.3209 76.889 96.3387 76.2863C96.3387 76.162 96.3387 76.038 96.3387 75.9139C96.3387 75.1872 96.3209 74.4602 96.2852 73.7512L96.2674 73.7157Z" fill="white"/>
<path fill-rule="evenodd" clip-rule="evenodd" d="M34.2842 50.0495C36.9961 59.7485 42.1702 68.896 49.8064 76.5128C50.1454 76.851 50.4666 77.1713 50.8056 77.4917C55.248 76.1214 59.548 74.2348 63.6337 71.8323C67.9336 69.3052 72.0015 66.1731 75.7124 62.4892C79.5842 58.6274 82.8312 54.3563 85.4361 49.8359C81.404 45.8851 78.0497 43.3046 72.8223 43.447C72.7687 43.447 72.7151 43.447 72.6617 43.447C72.3584 43.447 72.0551 43.4826 71.7517 43.5182C71.6267 43.5182 71.484 43.5361 71.3591 43.5539C70.9131 43.6071 70.4492 43.6784 69.9674 43.7673C62.6346 45.1732 60.7791 50.8504 50.3951 49.8181C50.3951 49.8181 55.5871 48.0919 58.2277 45.0665C53.3212 43.1088 47.1659 42.2901 42.0096 44.1767C39.7794 45.2445 38.477 46.1164 37.0853 47.3445C36.6215 47.7537 36.1397 48.2164 35.6402 48.7147C35.2298 49.1242 34.7837 49.5512 34.2842 50.0495Z" fill="white"/>
<path fill-rule="evenodd" clip-rule="evenodd" d="M34.3932 8.72518C32.3264 43.915 60.3345 40.8047 60.3345 40.8047C57.2164 30.4611 46.8472 21.1482 46.8472 21.1482C47.4706 21.4326 48.0587 21.7347 48.6466 22.0368C49.0385 22.2501 49.4306 22.4456 49.8046 22.6589C49.8936 22.7122 50.0007 22.7655 50.0897 22.8188C50.9983 23.3343 51.818 23.8674 52.602 24.4006C52.6731 24.4539 52.7623 24.5073 52.8335 24.5606C53.1542 24.7739 53.4571 25.0049 53.7421 25.2181C53.8135 25.2715 53.8847 25.3248 53.956 25.3781C54.6508 25.9113 55.2923 26.4622 55.898 26.9954C55.9692 27.0665 56.0405 27.1198 56.1117 27.1909C56.3434 27.4042 56.5571 27.6175 56.771 27.8307C56.8424 27.884 56.8957 27.9551 56.967 28.0084C57.2342 28.275 57.4836 28.5416 57.7153 28.7904C61.5993 33.0203 62.419 36.6637 62.419 36.6637C62.5615 34.3178 62.5436 32.185 62.3833 30.2123C62.3476 29.6613 62.2764 29.1281 62.2229 28.5949C62.1872 28.3639 62.1518 28.1328 62.1339 27.9018C62.0626 27.3509 61.9736 26.8177 61.8667 26.3023C61.8132 26.0535 61.7597 25.8224 61.724 25.5736C61.6171 25.0937 61.5103 24.6317 61.3856 24.1873C61.3321 23.9918 61.2786 23.7786 61.2253 23.5831C61.0649 23.0677 60.9045 22.5878 60.7263 22.1079C60.655 21.9125 60.5838 21.6992 60.4946 21.5215C60.3166 21.0594 60.1206 20.6151 59.9067 20.1885C59.8177 20.0108 59.7287 19.8331 59.6395 19.6731C59.4613 19.3177 59.2654 18.9622 59.0694 18.6245C58.9626 18.429 58.8377 18.2513 58.7308 18.0736C58.5348 17.7537 58.3211 17.4515 58.1072 17.1494C58.0004 17.0072 57.9114 16.865 57.8043 16.7229C57.555 16.3852 57.2878 16.0475 57.0027 15.7454C56.8778 15.6032 56.771 15.4788 56.6463 15.3366C56.3613 15.0345 56.0941 14.7501 55.7912 14.4657C55.6663 14.3591 55.5416 14.2347 55.4348 14.128C55.1854 13.897 54.918 13.666 54.6508 13.4527C54.5083 13.3461 54.3658 13.2217 54.2232 13.115C53.956 12.9018 53.6886 12.7063 53.4214 12.5285C53.2967 12.4396 53.1721 12.3508 53.0474 12.2797C52.7267 12.0664 52.3881 11.8709 52.0674 11.6754C51.9427 11.6043 51.8002 11.5332 51.6755 11.4444C51.3369 11.2667 50.9983 11.0889 50.6776 10.929C50.5529 10.8757 50.4283 10.8224 50.3036 10.7513C50.0007 10.6091 49.68 10.4669 49.3771 10.3425C49.2524 10.2892 49.1277 10.2359 49.0028 10.2003C48.6823 10.0759 48.3616 9.96926 48.0587 9.86263C47.9516 9.82708 47.827 9.79154 47.7201 9.756C47.3637 9.64936 47.0075 9.54273 46.6511 9.45387C46.5264 9.41832 46.4194 9.38277 46.2947 9.365C45.9385 9.27613 45.5821 9.18727 45.2257 9.11618C45.1188 9.09841 45.0298 9.08064 44.9229 9.06287C44.5844 8.99177 44.2458 8.93846 43.9073 8.86737C43.836 8.86737 43.7826 8.84958 43.7113 8.83181C43.4975 8.79627 43.2837 8.76072 43.0699 8.74294C38.2416 8.08536 34.3932 8.74294 34.3932 8.74294V8.72518Z" fill="white"/>
</svg>
