<svg width="149" height="61" viewBox="0 0 149 61" fill="none" xmlns="http://www.w3.org/2000/svg">
<g clip-path="url(#clip0_76_26)">
<path d="M59.3984 50.7306V29.9223H64.0887V50.7306H59.3984ZM62.7219 42.3154V38.3659H69.9305V42.3154H62.7219ZM70.6701 40.8613L66.3074 40.3265L73.104 29.9223H78.0565L70.6701 40.8613ZM72.9262 50.7306L66.401 40.7113L70.2019 38.394L78.2718 50.7306H72.9355H72.9262Z" fill="#6EB657"/>
<path d="M81.502 50.7306V29.9223H86.1922V43.6289L96.247 29.9223H100.638V50.7306H95.9754V37.09L85.9489 50.7306H81.502Z" fill="#6EB657"/>
<path d="M106.806 50.7306V29.9223H116.449C118.864 29.9223 120.737 30.3915 122.066 31.3202C123.405 32.2491 124.069 33.5813 124.069 35.3075C124.069 37.0336 123.433 38.3283 122.169 39.2665C120.905 40.2046 119.229 40.6644 117.151 40.6644L117.685 39.4447C120.016 39.4447 121.823 39.9138 123.115 40.8425C124.397 41.7713 125.043 43.1317 125.043 44.9142C125.043 46.6966 124.36 48.1414 122.993 49.1827C121.626 50.2241 119.632 50.7401 117.001 50.7401H106.797L106.806 50.7306ZM111.496 38.5721H116.037C117.104 38.5721 117.909 38.3564 118.452 37.9156C118.995 37.4839 119.267 36.8461 119.267 36.011C119.267 35.1385 118.995 34.4912 118.452 34.0597C117.909 33.6375 117.104 33.4217 116.037 33.4217H111.496V38.5628V38.5721ZM111.496 47.222H116.87C117.975 47.222 118.827 46.9969 119.407 46.5371C119.988 46.0774 120.287 45.4114 120.287 44.5201C120.287 43.6289 119.997 42.944 119.407 42.5125C118.827 42.0903 117.975 41.8746 116.87 41.8746H111.496V47.222Z" fill="#6EB657"/>
<path d="M129.828 50.7306V29.9223H134.519V43.6289L144.573 29.9223H148.964V50.7306H144.302V37.09L134.275 50.7306H129.828Z" fill="#6EB657"/>
<path fill-rule="evenodd" clip-rule="evenodd" d="M21.2743 19.1936C21.2743 19.1936 5.09083 20.9962 6.29007 0.572529C6.29007 0.572529 23.6728 -2.43185 22.4735 16.7901C22.4735 16.7901 21.2744 11.3822 13.4793 7.77692C13.4793 7.77692 19.4754 13.1848 21.2743 19.1875" fill="#9AC556"/>
<path fill-rule="evenodd" clip-rule="evenodd" d="M11.2949 0.572476C15.7737 1.18561 21.7454 3.76693 22.4551 13.0437C21.519 12.8598 20.6134 12.5839 19.7568 12.2221C18.5515 10.9039 16.8384 9.48139 14.4092 8.23059C12.6655 6.10913 11.5336 3.46036 11.2949 0.566345" fill="#B5D053"/>
<path fill-rule="evenodd" clip-rule="evenodd" d="M21.2744 19.1936C21.2744 19.1936 5.09083 20.9962 6.29006 0.572479C6.29006 0.572479 6.83461 14.9874 21.2744 19.1936Z" fill="#6CB557"/>
<path fill-rule="evenodd" clip-rule="evenodd" d="M22.4727 16.7901C22.4727 16.7901 24.8712 6.58128 35.658 8.97865C35.658 8.97865 36.8573 19.1874 23.6719 19.1874C23.6719 19.1874 25.5014 15.6864 29.0807 13.2338C29.0807 13.2338 25.4708 13.7795 22.4727 16.7839" fill="#89BF57"/>
<path fill-rule="evenodd" clip-rule="evenodd" d="M24.0645 13.2583C25.7715 10.628 29.1123 7.68489 35.2491 8.89278C32.6548 11.6703 28.9349 13.3809 24.8354 13.2951C24.5784 13.2951 24.3214 13.2768 24.0645 13.2583Z" fill="#AECD54"/>
<path fill-rule="evenodd" clip-rule="evenodd" d="M35.6581 8.98477C35.6581 8.98477 36.8573 19.1936 23.6719 19.1936C23.6719 19.1936 33.1923 17.7711 35.6581 8.98477Z" fill="#6CB557"/>
<path fill-rule="evenodd" clip-rule="evenodd" d="M34.0129 52.2663C26.4505 51.0707 19.1877 47.5513 13.363 41.7142C9.89372 38.2378 7.24438 34.2462 5.41494 29.9849C1.16256 37.0114 2.06812 46.2944 8.12546 52.3644C15.2903 59.5443 26.9033 59.4953 34.0129 52.2663Z" fill="#F5D34E"/>
<path fill-rule="evenodd" clip-rule="evenodd" d="M3.10692 36.0242C2.01782 41.7632 3.6943 47.9252 8.12411 52.3705C15.2889 59.5503 26.9018 59.5013 34.0116 52.2724C16.1027 58.0482 2.70921 44.1668 3.10692 36.0303" fill="#F6E052"/>
<path fill-rule="evenodd" clip-rule="evenodd" d="M17.9395 42.4254C23.4951 46.9259 30.1093 49.4704 36.8579 50.059C41.2878 43.4309 41.1287 34.6324 36.3807 28.1638C35.0774 30.0707 33.5846 31.8917 31.8959 33.584C29.6075 35.8771 27.0928 37.8084 24.4251 39.3904C22.3448 40.6228 20.1727 41.6344 17.9395 42.4316" fill="#6EB657"/>
<path fill-rule="evenodd" clip-rule="evenodd" d="M17.9395 42.4254C21.4087 45.2397 25.294 47.2876 29.3689 48.5691C40.3884 42.2783 36.3808 28.1576 36.3808 28.1576C35.0774 30.0645 33.5846 31.8855 31.8959 33.5778C29.6075 35.8709 27.0928 37.8023 24.4251 39.3842C22.3448 40.6167 20.1727 41.6283 17.9395 42.4254Z" fill="#9CC656"/>
<path fill-rule="evenodd" clip-rule="evenodd" d="M17.9395 42.4254C19.0103 43.2899 20.1177 44.0871 21.2619 44.8044C22.5528 44.7492 23.8255 44.2281 24.8106 43.2409C26.1628 41.8858 26.6401 39.9851 26.2423 38.2437C25.6488 38.6423 25.0431 39.0286 24.4313 39.3903C22.3509 40.6228 20.1789 41.6344 17.9456 42.4316" fill="#C2D652"/>
<path fill-rule="evenodd" clip-rule="evenodd" d="M15.7299 40.4818C15.5342 40.2978 15.3445 40.1078 15.1547 39.9177C10.7433 35.4969 7.75748 30.1933 6.19727 24.5708C7.91045 22.854 8.59573 22.1612 10.6577 21.1617C13.6313 20.0642 17.18 20.5425 20.0129 21.6767C18.4832 23.4303 15.4913 24.4298 15.4913 24.4298C21.4874 25.0307 22.546 21.732 26.7861 20.9227C30.8121 20.1562 32.9964 21.7626 35.7192 24.4421C34.214 27.0663 32.3418 29.5373 30.1023 31.7813C27.9608 33.9273 25.6174 35.7361 23.1395 37.2014C20.7838 38.5933 18.2997 39.6908 15.736 40.4818" fill="#DE7B5B"/>
<path fill-rule="evenodd" clip-rule="evenodd" d="M6.19727 24.5708C7.91045 22.854 8.59573 22.1612 10.6577 21.1617C13.6313 20.0642 17.18 20.5425 20.0129 21.6767C18.4832 23.4303 15.4913 24.4298 15.4913 24.4298C21.4874 25.0307 22.546 21.732 26.7861 20.9227C27.3735 20.8122 27.9241 20.751 28.4381 20.7325C27.8813 26.6862 22.8886 31.3459 16.8007 31.3459C12.1078 31.3459 8.05729 28.5746 6.19727 24.5708Z" fill="#E99B77"/>
<path fill-rule="evenodd" clip-rule="evenodd" d="M36.8594 50.0529C37.5936 50.1142 38.3339 50.1572 39.0681 50.1755C42.9473 43.6334 42.9779 35.4418 39.1661 28.8751C39.1661 28.8751 44.9971 41.101 36.8594 50.0529Z" fill="#84B455"/>
<path fill-rule="evenodd" clip-rule="evenodd" d="M13.6946 42.0453C13.5845 41.9349 13.4744 41.8246 13.3642 41.7142C11.3635 39.7092 9.63799 37.5387 8.1879 35.2456C6.14432 35.2823 4.53516 36.3615 4.53516 39.4639C4.53516 45.2581 10.1581 44.0196 13.7007 42.0453M18.308 45.8897C17.0109 44.9761 15.7627 43.9644 14.5634 42.8669C10.9902 44.7737 6.24834 49.452 11.5959 52.4809C16.5581 55.2952 18.2529 49.9119 18.3018 45.8897H18.308ZM24.3653 56.1107C18.467 57.2511 18.828 51.0093 20.217 47.1466C22.5542 48.5937 25.02 49.7586 27.5591 50.6415C28.3729 53.0695 27.9385 55.4178 24.3653 56.1045V56.1107Z" fill="#EEA842"/>
<path fill-rule="evenodd" clip-rule="evenodd" d="M9.52011 47.6983C11.5086 49.4091 13.907 50.899 16.636 51.9596C15.5774 53.3025 13.9561 53.8175 11.6004 52.4809C9.14687 51.089 8.81648 49.3538 9.52011 47.6983ZM24.3636 56.1106C21.0903 56.7422 19.7442 55.1051 19.4321 52.8609C22.0019 53.5232 24.8041 53.793 27.7839 53.5415C27.4535 54.7494 26.4378 55.7121 24.3636 56.1106Z" fill="#EA9840"/>
<path fill-rule="evenodd" clip-rule="evenodd" d="M31.5234 45.2704C31.0034 45.4727 30.2324 45.3746 29.5043 44.97C28.7762 44.5653 28.2867 43.9582 28.1766 43.4125C28.6967 43.2102 29.4677 43.3084 30.1957 43.7131C30.9239 44.1177 31.4133 44.7247 31.5234 45.2704ZM32.6676 42.3457C32.2148 42.6768 31.4439 42.7811 30.6362 42.5849C29.8287 42.3825 29.1984 41.9226 28.9537 41.426C29.4065 41.0949 30.1774 40.9907 30.9851 41.1869C31.7926 41.3893 32.4229 41.849 32.6676 42.3457ZM33.0225 39.2248C32.6738 39.6602 31.9579 39.9667 31.1258 39.979C30.2936 39.9912 29.5655 39.7154 29.1984 39.2922C29.5472 38.8569 30.263 38.5503 31.0952 38.5382C31.9273 38.5259 32.6553 38.8018 33.0225 39.2248ZM32.5575 36.1224C32.3311 36.6313 31.7193 37.1157 30.9177 37.3424C30.1162 37.5755 29.3391 37.4897 28.8802 37.177C29.1066 36.668 29.7185 36.1837 30.52 35.9568C31.3215 35.7238 32.0986 35.8097 32.5575 36.1224ZM29.6634 47.7965C29.1128 47.8578 28.3846 47.5635 27.785 46.9872C27.1855 46.4047 26.8672 45.6934 26.9101 45.1354C27.4607 45.0742 28.1889 45.3685 28.7885 45.9449C29.3881 46.5273 29.7063 47.2385 29.6634 47.7965Z" fill="#464B30"/>
<path fill-rule="evenodd" clip-rule="evenodd" d="M0.122369 41.2175C0.20191 42.1924 0.354879 43.1673 0.569028 44.1238C0.587383 44.2035 0.605736 44.2832 0.624092 44.3568C0.740344 44.8351 0.868833 45.3194 1.01568 45.7916C1.02791 45.8222 1.04015 45.859 1.04627 45.8897C1.187 46.325 1.34608 46.7603 1.51128 47.1895C1.54799 47.2753 1.57858 47.3673 1.61529 47.4532C1.79273 47.8824 1.9824 48.3115 2.19043 48.7347C2.2455 48.8388 2.30056 48.9431 2.34951 49.0473C2.53919 49.4213 2.74722 49.7953 2.96137 50.1571C2.99807 50.2184 3.03479 50.2859 3.07151 50.3472C3.31012 50.7457 3.57322 51.1382 3.84243 51.5182C3.91585 51.6225 3.98927 51.7268 4.0627 51.8309C4.33803 52.2111 4.63172 52.5851 4.93153 52.9468C4.99883 53.0266 5.06613 53.1001 5.12732 53.1737C5.45772 53.56 5.80035 53.934 6.16135 54.3019C6.16135 54.3019 6.16136 54.3019 6.16748 54.308C6.65696 54.7986 7.16479 55.2585 7.69098 55.6876C7.72769 55.7182 7.76442 55.7428 7.80113 55.7735C8.29673 56.172 8.79844 56.5521 9.31851 56.9017C9.3797 56.9445 9.44089 56.9814 9.50208 57.0181C10.0099 57.3554 10.53 57.668 11.0562 57.9501C11.1174 57.9807 11.1786 58.0114 11.2397 58.042C11.7843 58.3303 12.335 58.5939 12.8917 58.8269C12.9285 58.8453 12.9651 58.8576 13.0019 58.8698C14.7946 59.6117 16.6729 60.0899 18.5698 60.3107C18.6125 60.3107 18.6554 60.3229 18.7043 60.3291C19.2917 60.3904 19.879 60.4272 20.4665 60.4394C20.5583 60.4394 20.6439 60.4394 20.7357 60.4455C21.3108 60.4517 21.886 60.4333 22.4612 60.3965C22.5468 60.3904 22.6386 60.3842 22.7242 60.3781C23.3055 60.3291 23.8928 60.2617 24.468 60.1635C24.5292 60.1512 24.5904 60.139 24.6516 60.1329C25.2451 60.0287 25.8385 59.8999 26.4259 59.7405C26.4748 59.7282 26.5177 59.7159 26.5605 59.7037C27.1541 59.5381 27.7414 59.3542 28.3165 59.1396C28.3655 59.1212 28.4083 59.1028 28.4512 59.0844C29.0262 58.8636 29.5891 58.6246 30.146 58.3547C30.2011 58.3303 30.2561 58.2996 30.3112 58.2689C30.8557 57.9991 31.388 57.7049 31.9081 57.386C31.9693 57.3493 32.0305 57.3063 32.0916 57.2695C32.6056 56.9445 33.1073 56.6012 33.6029 56.2334C33.658 56.1904 33.7131 56.1475 33.7682 56.1045C34.2576 55.7244 34.741 55.3259 35.1998 54.8966C35.9586 54.1977 36.6622 53.4374 37.3107 52.6342C36.1911 52.5607 35.0775 52.438 33.9701 52.2662C26.8603 59.4952 15.2473 59.5442 8.08258 52.3644C2.02524 46.2943 1.1197 37.0114 5.37208 29.9848C4.93154 28.9548 4.53995 27.9002 4.19119 26.8333C3.41414 27.8756 2.72887 28.9915 2.15373 30.1626C1.95182 30.5796 1.76214 30.9965 1.58469 31.4257C1.54799 31.5176 1.51128 31.6096 1.47456 31.7016C1.30937 32.1246 1.15641 32.5478 1.01568 32.9708C1.00344 33.0137 0.98508 33.0505 0.972843 33.0934C0.825999 33.5655 0.69751 34.0377 0.581258 34.522C0.562902 34.6017 0.544549 34.6814 0.526194 34.7612C0.305927 35.7176 0.159084 36.6925 0.0795438 37.6674C0.0734253 37.7778 0.061183 37.882 0.0550645 37.9924C0.0244718 38.4707 0 38.955 0 39.4333C0 39.4333 0 39.4333 0 39.4395C0 39.9238 0.0244718 40.4082 0.0550645 40.8864C0.061183 40.9968 0.0734253 41.101 0.0795438 41.2053L0.122369 41.2175Z" fill="#EB9C41"/>
<path fill-rule="evenodd" clip-rule="evenodd" d="M36.8584 50.0528C37.5926 50.1141 38.3268 50.1571 39.0611 50.1754C39.11 50.0957 39.1528 50.016 39.1957 49.9364C39.3486 49.6727 39.4955 49.4091 39.6362 49.1392C39.6974 49.0167 39.7647 48.894 39.8259 48.7714C39.9972 48.4219 40.1685 48.0662 40.3215 47.7045C40.3276 47.6862 40.3398 47.6616 40.3521 47.6432C40.5172 47.2508 40.6702 46.8523 40.811 46.4476C40.8416 46.3556 40.8722 46.2637 40.9028 46.1717C41.0129 45.8344 41.1168 45.5034 41.2148 45.16C41.2392 45.0802 41.2637 45.0005 41.2821 44.9208C41.5084 44.087 41.6737 43.247 41.796 42.3947C41.8083 42.2966 41.8206 42.1985 41.8327 42.1004C41.8756 41.7754 41.9062 41.4505 41.9307 41.1255C41.9428 41.0029 41.949 40.8864 41.9551 40.7638C41.9796 40.4143 41.9918 40.0586 41.9918 39.7092C41.9918 39.6356 41.9918 39.562 41.9918 39.4885C41.9918 39.0654 41.9796 38.6484 41.9551 38.2254C41.9551 38.1273 41.9368 38.0291 41.9307 37.9311C41.9062 37.6 41.8756 37.2689 41.8389 36.9378C41.8266 36.8274 41.8144 36.7171 41.796 36.6067C41.7471 36.2511 41.692 35.8955 41.6247 35.5399C41.6125 35.4785 41.6064 35.4172 41.5941 35.3559C41.5084 34.9267 41.4105 34.5036 41.3004 34.0805C41.2881 34.0377 41.276 34.0008 41.2637 33.958C41.1659 33.5901 41.0556 33.2282 40.9394 32.8727C40.9028 32.7685 40.8722 32.6642 40.8354 32.5599C40.7252 32.2412 40.603 31.9223 40.4806 31.6035C40.4438 31.5176 40.4132 31.4318 40.3765 31.346C40.2235 30.972 40.0522 30.604 39.8748 30.2361C39.8136 30.1135 39.7524 29.991 39.6852 29.8683C39.5567 29.6169 39.422 29.3717 39.2874 29.1264C38.7551 28.176 38.1432 27.2747 37.4764 26.4224C37.1215 27.011 36.7605 27.5874 36.375 28.1576C41.123 34.6324 41.2821 43.4248 36.8523 50.0528H36.8584Z" fill="#8FB955"/>
<path fill-rule="evenodd" clip-rule="evenodd" d="M0.122369 41.2175C0.20191 42.1924 0.354879 43.1673 0.569028 44.1238C0.587383 44.2035 0.605736 44.2832 0.624092 44.3568C0.740344 44.835 0.868833 45.3194 1.01568 45.7915C1.02791 45.8221 1.04015 45.859 1.04627 45.8897C1.187 46.325 1.34608 46.7603 1.51128 47.1894C1.54799 47.2753 1.57858 47.3673 1.61529 47.4531C1.79273 47.8823 1.9824 48.3115 2.19043 48.7346C2.2455 48.8388 2.30056 48.9431 2.34951 49.0472C2.53919 49.4213 2.74722 49.7953 2.96137 50.1571C2.99807 50.2184 3.03479 50.2858 3.07151 50.3471C3.31012 50.7457 3.57322 51.138 3.84243 51.5182C3.91585 51.6225 3.98927 51.7267 4.0627 51.8309C4.33803 52.2111 4.63172 52.5851 4.93153 52.9468C4.99883 53.0265 5.06613 53.1001 5.12732 53.1737C5.45772 53.56 5.80035 53.934 6.16135 54.3018C6.16135 54.3018 6.16136 54.3019 6.16748 54.308C6.65696 54.7986 7.16479 55.2584 7.69098 55.6876C7.72769 55.7182 7.76442 55.7428 7.80113 55.7735C8.29673 56.1719 8.79844 56.5521 9.31851 56.9016C9.3797 56.9445 9.44089 56.9812 9.50208 57.0181C10.0099 57.3554 10.53 57.668 11.0562 57.9501C11.1174 57.9807 11.1786 58.0114 11.2397 58.042C11.7843 58.3303 12.335 58.5939 12.8917 58.8269C12.9285 58.8453 12.9651 58.8576 13.0019 58.8697C14.7946 59.6116 16.6729 60.0899 18.5698 60.3106C18.6125 60.3106 18.6554 60.3229 18.7043 60.3291C19.2917 60.3903 19.879 60.4272 20.4665 60.4394C20.5583 60.4394 20.6439 60.4394 20.7357 60.4455C21.3108 60.4516 21.886 60.4332 22.4612 60.3965C22.5468 60.3903 22.6386 60.3842 22.7242 60.3781C23.3055 60.3291 23.8928 60.2616 24.468 60.1635C24.5292 60.1512 24.5904 60.1389 24.6516 60.1329C25.2451 60.0286 25.8385 59.8999 26.4259 59.7405C26.4748 59.7282 26.5177 59.7159 26.5605 59.7036C27.1541 59.5381 27.7414 59.3542 28.3165 59.1396C28.3655 59.1212 28.4083 59.1027 28.4512 59.0844C29.0262 58.8636 29.5891 58.6245 30.146 58.3547C30.2011 58.3302 30.2561 58.2996 30.3112 58.2689C30.8557 57.9991 31.388 57.7048 31.9081 57.386C31.9693 57.3492 32.0305 57.3062 32.0916 57.2695C32.6056 56.9445 33.1073 56.6012 33.6029 56.2333C33.658 56.1903 33.7131 56.1475 33.7682 56.1045C34.2576 55.7243 34.741 55.3259 35.1998 54.8966C35.9586 54.1977 36.6622 53.4374 37.3107 52.6342C36.1911 52.5606 35.0775 52.4379 33.9701 52.2662C27.0133 60.2432 17.297 59.8508 10.322 55.6753C1.52352 50.4023 -1.90898 39.6049 2.19043 30.0951C2.17819 30.1197 2.16596 30.1442 2.15373 30.1687C1.95182 30.5857 1.76214 31.0026 1.58469 31.4317C1.54799 31.5237 1.51128 31.6157 1.47456 31.7077C1.30937 32.1307 1.15641 32.5538 1.01568 32.9769C1.00344 33.0198 0.98508 33.0566 0.972843 33.0995C0.825999 33.5716 0.69751 34.0438 0.581258 34.5281C0.562902 34.6078 0.544549 34.6876 0.526194 34.7673C0.305927 35.7237 0.159084 36.6986 0.0795438 37.6735C0.0734253 37.7839 0.061183 37.8881 0.0550645 37.9985C0.0244718 38.4767 0 38.9611 0 39.4394C0 39.4394 0 39.4394 0 39.4456C0 39.9299 0.0244718 40.4143 0.0550645 40.8925C0.061183 41.0029 0.0734253 41.1071 0.0795438 41.2114L0.122369 41.2175Z" fill="#EB9C41"/>
</g>
<defs>
<clipPath id="clip0_76_26">
<rect width="149" height="61" fill="white"/>
</clipPath>
</defs>
</svg>
