<svg width="16" height="16" viewBox="0 0 16 16" fill="none" xmlns="http://www.w3.org/2000/svg">
<g clip-path="url(#clip0_391_4301)">
<path d="M7.9149 15.0878L4.48633 15.385L4.78347 11.9564L11.9149 4.87071C12.0214 4.76186 12.1485 4.67537 12.2888 4.61632C12.429 4.55727 12.5798 4.52686 12.732 4.52686C12.8842 4.52686 13.035 4.55727 13.1753 4.61632C13.3157 4.67537 13.4428 4.76186 13.5492 4.87071L15.0006 6.33356C15.1077 6.43982 15.1927 6.56622 15.2508 6.70548C15.3088 6.84475 15.3386 6.99412 15.3386 7.14499C15.3386 7.29586 15.3088 7.44524 15.2508 7.58451C15.1927 7.72378 15.1077 7.85018 15.0006 7.95642L7.9149 15.0878Z" stroke="#BE8817" stroke-linecap="round" stroke-linejoin="round"/>
<path d="M0.96193 4.53951C0.560867 4.46973 0.560867 3.89399 0.961929 3.82422C2.41491 3.57143 3.57055 2.46473 3.88593 1.02404L3.9101 0.91361C3.99687 0.517229 4.56127 0.514762 4.6515 0.910369L4.68085 1.03907C5.0079 2.47296 6.16385 3.57031 7.6128 3.82239C8.01591 3.89251 8.01591 4.4712 7.6128 4.54133C6.16385 4.79341 5.0079 5.89075 4.68085 7.32465L4.6515 7.45335C4.56127 7.84896 3.99687 7.84649 3.9101 7.4501L3.88593 7.33968C3.57055 5.89898 2.41491 4.79229 0.96193 4.53951Z" stroke="#BE8817" stroke-linecap="round" stroke-linejoin="round"/>
</g>
<defs>
<clipPath id="clip0_391_4301">
<rect width="16" height="16" fill="white"/>
</clipPath>
</defs>
</svg>
