<svg width="20" height="20" viewBox="0 0 20 20" fill="none" xmlns="http://www.w3.org/2000/svg">
<path d="M12.9249 2.3584H7.07492C4.99992 2.3584 4.54159 3.39173 4.27492 4.6584L3.33325 9.16673H16.6666L15.7249 4.6584C15.4583 3.39173 14.9999 2.3584 12.9249 2.3584Z" stroke="#C8AC71" stroke-width="1.5" stroke-linecap="round" stroke-linejoin="round"/>
<path d="M18.3255 16.5165C18.4172 17.4915 17.6338 18.3332 16.6338 18.3332H15.0672C14.1672 18.3332 14.0422 17.9498 13.8838 17.4748L13.7172 16.9748C13.4838 16.2915 13.3338 15.8332 12.1338 15.8332H7.86718C6.66718 15.8332 6.49218 16.3498 6.28385 16.9748L6.11718 17.4748C5.95885 17.9498 5.83385 18.3332 4.93385 18.3332H3.36718C2.36718 18.3332 1.58385 17.4915 1.67551 16.5165L2.14218 11.4415C2.25885 10.1915 2.50051 9.1665 4.68385 9.1665H15.3172C17.5005 9.1665 17.7422 10.1915 17.8588 11.4415L18.3255 16.5165Z" stroke="#C8AC71" stroke-width="1.5" stroke-linecap="round" stroke-linejoin="round"/>
<path d="M3.33333 6.6665H2.5" stroke="#C8AC71" stroke-width="1.5" stroke-linecap="round" stroke-linejoin="round"/>
<path d="M17.5001 6.6665H16.6667" stroke="#C8AC71" stroke-width="1.5" stroke-linecap="round" stroke-linejoin="round"/>
<path d="M10 2.5V4.16667" stroke="#C8AC71" stroke-width="1.5" stroke-linecap="round" stroke-linejoin="round"/>
<path d="M8.75 4.1665H11.25" stroke="#C8AC71" stroke-width="1.5" stroke-linecap="round" stroke-linejoin="round"/>
<path d="M5 12.5H7.5" stroke="#C8AC71" stroke-width="1.5" stroke-linecap="round" stroke-linejoin="round"/>
<path d="M12.5 12.5H15" stroke="#C8AC71" stroke-width="1.5" stroke-linecap="round" stroke-linejoin="round"/>
</svg>
