<svg width="120" height="120" viewBox="0 0 120 120" fill="none" xmlns="http://www.w3.org/2000/svg">
<rect x="39.9238" y="8.23483" width="39.1898" height="103.527" fill="#0197DB"/>
<rect x="26.8594" y="14.7057" width="13.0633" height="90.5864" fill="#0197DB"/>
<rect x="79.1152" y="14.7057" width="13.0633" height="90.5864" fill="#0197DB"/>
<rect x="92.1777" y="21.176" width="6.53164" height="77.6455" fill="#0197DB"/>
<rect x="20.3301" y="21.176" width="6.53164" height="77.6455" fill="#0197DB"/>
<rect x="13.7969" y="27.6475" width="6.53164" height="64.7046" fill="#0197DB"/>
<rect x="98.709" y="27.6475" width="6.53164" height="64.7046" fill="#0197DB"/>
<rect x="105.24" y="40.5874" width="6.53164" height="38.8228" fill="#0197DB"/>
<rect x="7.26562" y="40.5874" width="6.53164" height="38.8228" fill="#0197DB"/>
<rect x="46.457" y="27.6475" width="26.1265" height="64.7046" fill="#F834EC"/>
<rect x="72.582" y="34.1165" width="9.79746" height="51.7637" fill="#F834EC"/>
<rect x="36.6562" y="34.1165" width="9.79746" height="51.7637" fill="#F834EC"/>
<rect x="82.377" y="40.5874" width="6.53164" height="38.8228" fill="#F834EC"/>
<rect x="30.1289" y="40.5874" width="6.53164" height="38.8228" fill="#F834EC"/>
<rect x="88.9121" y="47.059" width="3.26582" height="25.8818" fill="#F834EC"/>
<rect x="26.8594" y="47.059" width="3.26582" height="25.8818" fill="#F834EC"/>
<path d="M84.0081 58.3798H70.9492V55.1457H87.2728V61.6139H84.0081V58.3798ZM84.0081 64.8481H74.2139V61.6139H84.0081V64.8481ZM74.2139 68.0822H87.2728V71.3163H70.9492V64.8481H74.2139V68.0822Z" fill="#030500"/>
<path d="M54.6202 68.0812H67.679V71.3154H51.3555V64.8471H54.6202V68.0812ZM64.4143 58.3788H61.1496V55.1447H64.4143V58.3788ZM61.1496 61.613H57.8849V58.3788H61.1496V61.613ZM57.8849 64.8471H54.6202V61.613H57.8849V64.8471ZM64.4143 51.9106H51.3555V48.6764H67.679V55.1447H64.4143V51.9106Z" fill="#030500"/>
<path d="M44.8167 58.3798H31.7578V55.1457H48.0814V61.6139H44.8167V58.3798ZM44.8167 64.8481H35.0225V61.6139H44.8167V64.8481ZM35.0225 68.0822H48.0814V71.3163H31.7578V64.8481H35.0225V68.0822Z" fill="#030500"/>
<rect x="72.582" y="8.23483" width="6.53164" height="3.23523" fill="#030500"/>
<rect x="66.0508" y="27.6475" width="6.53164" height="3.23523" fill="#77D5FF"/>
<rect x="66.0508" y="89.1179" width="6.53164" height="3.23523" fill="#77D5FF"/>
<rect x="46.457" y="27.6475" width="6.53164" height="3.23523" fill="#030500"/>
<rect x="46.457" y="89.1179" width="6.53164" height="3.23523" fill="#030500"/>
<rect x="52.9863" y="27.6475" width="6.53164" height="3.23523" fill="#030500"/>
<rect x="52.9863" y="89.1179" width="6.53164" height="3.23523" fill="#030500"/>
<rect x="79.1152" y="11.4703" width="6.53164" height="3.23523" fill="#030500"/>
<rect x="39.9238" y="30.883" width="6.53164" height="3.23523" fill="#030500"/>
<rect x="39.9238" y="85.8799" width="6.53164" height="3.23523" fill="#030500"/>
<rect x="72.582" y="30.883" width="6.53164" height="3.23523" fill="#77D5FF"/>
<rect x="72.582" y="85.8799" width="6.53164" height="3.23523" fill="#77D5FF"/>
<rect x="46.457" y="30.883" width="6.53164" height="3.23523" fill="#030500"/>
<rect x="46.457" y="85.8799" width="6.53164" height="3.23523" fill="#030500"/>
<rect x="85.6445" y="14.7057" width="6.53164" height="3.23523" fill="#030500"/>
<rect x="72.582" y="108.527" width="6.53164" height="3.23523" fill="#030500"/>
<rect x="79.1152" y="105.291" width="6.53164" height="3.23523" fill="#030500"/>
<rect x="85.6445" y="102.058" width="6.53164" height="3.23523" fill="#030500"/>
<rect x="39.9238" y="8.23483" width="6.53164" height="3.23523" fill="#030500"/>
<rect x="33.3926" y="11.4703" width="6.53164" height="3.23523" fill="#030500"/>
<rect x="26.8594" y="14.7057" width="6.53164" height="3.23523" fill="#030500"/>
<rect x="39.9238" y="108.527" width="6.53164" height="3.23523" fill="#030500"/>
<rect x="33.3926" y="105.291" width="6.53164" height="3.23523" fill="#030500"/>
<rect x="26.8594" y="102.058" width="6.53164" height="3.23523" fill="#030500"/>
<rect x="105.24" y="27.6475" width="6.47046" height="3.26582" transform="rotate(90 105.24 27.6475)" fill="#030500"/>
<rect x="17.0605" y="27.6475" width="6.47046" height="3.26582" transform="rotate(90 17.0605 27.6475)" fill="#030500"/>
<rect x="33.3926" y="40.5874" width="6.47046" height="3.26582" transform="rotate(90 33.3926 40.5874)" fill="#030500"/>
<rect x="17.0605" y="85.8799" width="6.47046" height="3.26582" transform="rotate(90 17.0605 85.8799)" fill="#030500"/>
<rect x="30.1289" y="66.4697" width="6.47046" height="3.26582" transform="rotate(90 30.1289 66.4697)" fill="#030500"/>
<rect x="105.24" y="85.8799" width="6.47046" height="3.26582" transform="rotate(90 105.24 85.8799)" fill="#030500"/>
<rect x="108.508" y="34.1165" width="6.47046" height="3.26582" transform="rotate(90 108.508 34.1165)" fill="#030500"/>
<rect x="88.9121" y="40.5874" width="6.47046" height="3.26582" transform="rotate(90 88.9121 40.5874)" fill="#77D5FF"/>
<rect x="30.1289" y="47.059" width="6.47046" height="3.26582" transform="rotate(90 30.1289 47.059)" fill="#030500"/>
<rect x="36.6562" y="40.5874" width="6.47046" height="3.26582" transform="rotate(90 36.6562 40.5874)" fill="#030500"/>
<rect x="92.1777" y="66.4697" width="6.47046" height="3.26582" transform="rotate(90 92.1777 66.4697)" fill="#77D5FF"/>
<rect x="33.3926" y="66.4697" width="6.47046" height="3.26582" transform="rotate(90 33.3926 66.4697)" fill="#030500"/>
<rect x="33.3926" y="72.9406" width="6.47046" height="3.26582" transform="rotate(90 33.3926 72.9406)" fill="#030500"/>
<rect x="13.7969" y="34.1165" width="6.47046" height="3.26582" transform="rotate(90 13.7969 34.1165)" fill="#030500"/>
<rect x="13.7969" y="79.4115" width="6.47046" height="3.26582" transform="rotate(90 13.7969 79.4115)" fill="#030500"/>
<rect x="92.1777" y="47.059" width="6.47046" height="3.26582" transform="rotate(90 92.1777 47.059)" fill="#77D5FF"/>
<rect x="33.3926" y="47.059" width="6.47046" height="3.26582" transform="rotate(90 33.3926 47.059)" fill="#030500"/>
<rect x="108.508" y="79.4115" width="6.47046" height="3.26582" transform="rotate(90 108.508 79.4115)" fill="#030500"/>
<rect x="111.771" y="40.5874" width="6.47046" height="3.26582" transform="rotate(90 111.771 40.5874)" fill="#030500"/>
<rect x="36.6562" y="34.1165" width="3.26582" height="3.23523" fill="#030500"/>
<rect x="36.6562" y="82.647" width="3.26582" height="3.23523" fill="#030500"/>
<rect x="88.9121" y="72.9406" width="6.47046" height="3.26582" transform="rotate(90 88.9121 72.9406)" fill="#77D5FF"/>
<rect x="36.6562" y="72.9406" width="6.47046" height="3.26582" transform="rotate(90 36.6562 72.9406)" fill="#030500"/>
<rect x="10.5312" y="40.5874" width="6.47046" height="3.26582" transform="rotate(90 10.5312 40.5874)" fill="#030500"/>
<rect x="10.5312" y="72.9406" width="6.47046" height="3.26582" transform="rotate(90 10.5312 72.9406)" fill="#030500"/>
<rect x="33.3926" y="37.352" width="3.26582" height="3.23523" fill="#030500"/>
<rect x="111.771" y="72.9406" width="6.47046" height="3.26582" transform="rotate(90 111.771 72.9406)" fill="#030500"/>
<rect x="92.1777" y="17.9418" width="3.26582" height="3.23523" fill="#030500"/>
<rect x="33.3926" y="79.4115" width="3.26582" height="3.23523" fill="#030500"/>
<rect x="79.1152" y="34.1165" width="3.26582" height="3.23523" fill="#77D5FF"/>
<rect x="79.1152" y="82.647" width="3.26582" height="3.23523" fill="#77D5FF"/>
<rect x="39.9238" y="34.1165" width="3.26582" height="3.23523" fill="#030500"/>
<rect x="39.9238" y="82.647" width="3.26582" height="3.23523" fill="#030500"/>
<rect x="92.1777" y="98.823" width="3.26582" height="3.23523" fill="#030500"/>
<rect x="23.5918" y="17.9418" width="3.26582" height="3.23523" fill="#030500"/>
<rect x="23.5918" y="98.823" width="3.26582" height="3.23523" fill="#030500"/>
<rect x="95.4395" y="21.176" width="3.26582" height="3.23523" fill="#030500"/>
<rect x="36.6562" y="37.352" width="3.26582" height="3.23523" fill="#030500"/>
<rect x="82.377" y="37.352" width="3.26582" height="3.23523" fill="#77D5FF"/>
<rect x="82.377" y="79.4115" width="3.26582" height="3.23523" fill="#77D5FF"/>
<rect x="26.8594" y="53.5305" width="12.9409" height="3.26582" transform="rotate(90 26.8594 53.5305)" fill="#030500"/>
<rect x="36.6562" y="79.4115" width="3.26582" height="3.23523" fill="#030500"/>
<rect x="20.3301" y="21.176" width="3.26582" height="3.23523" fill="#030500"/>
<rect x="95.4395" y="95.5862" width="3.26582" height="3.23523" fill="#030500"/>
<rect x="98.709" y="24.4114" width="3.26582" height="3.23523" fill="#030500"/>
<rect x="17.0605" y="24.4114" width="3.26582" height="3.23523" fill="#030500"/>
<rect x="20.3301" y="95.5862" width="3.26582" height="3.23523" fill="#030500"/>
<rect x="98.709" y="92.3546" width="3.26582" height="3.23523" fill="#030500"/>
<rect x="17.0605" y="92.3546" width="3.26582" height="3.23523" fill="#030500"/>
<rect x="46.457" y="5" width="26.1265" height="3.23523" fill="#030500"/>
<rect x="52.9863" y="24.4114" width="13.0633" height="3.23523" fill="#030500"/>
<rect x="52.9863" y="92.3546" width="13.0633" height="3.23523" fill="#030500"/>
<rect x="95.4395" y="53.5305" width="12.9409" height="3.26582" transform="rotate(90 95.4395 53.5305)" fill="#77D5FF"/>
<rect x="30.1289" y="53.5305" width="12.9409" height="3.26582" transform="rotate(90 30.1289 53.5305)" fill="#030500"/>
<rect x="46.457" y="111.765" width="26.1265" height="3.23523" fill="#030500"/>
<rect x="115.039" y="47.059" width="25.8818" height="3.26582" transform="rotate(90 115.039 47.059)" fill="#030500"/>
<rect x="7.26562" y="47.059" width="25.8818" height="3.26582" transform="rotate(90 7.26562 47.059)" fill="#030500"/>
<rect x="57.8848" y="66.4697" width="3.26582" height="27.4994" fill="#030500"/>
<rect x="57.8848" y="26.0291" width="3.26582" height="22.6466" fill="#030500"/>
<rect x="75.8477" y="27.6474" width="3.26582" height="3.23523" fill="#77D5FF"/>
<rect x="79.1191" y="24.4114" width="3.26582" height="9.70569" fill="#77D5FF"/>
<rect x="82.3809" y="21.1761" width="3.26582" height="16.1761" fill="#77D5FF"/>
<rect x="85.6465" y="17.9418" width="3.26582" height="19.4114" fill="#77D5FF"/>
<rect x="88.9121" y="17.942" width="3.26582" height="16.1761" fill="#77D5FF"/>
<rect x="26.8594" y="76.1749" width="3.26582" height="19.4114" fill="#77D5FF"/>
<rect x="23.5938" y="79.4115" width="3.26582" height="19.4114" fill="#77D5FF"/>
<rect x="20.334" y="82.6456" width="3.26582" height="12.9409" fill="#77D5FF"/>
<rect x="17.0645" y="85.8796" width="3.26582" height="6.47046" fill="#77D5FF"/>
<rect x="92.1777" y="21.1767" width="3.26582" height="9.70569" fill="#77D5FF"/>
<rect x="95.4395" y="24.4107" width="3.26582" height="3.23523" fill="#77D5FF"/>
<rect x="33.3926" y="82.6468" width="3.26582" height="6.47046" fill="#77D5FF"/>
<rect x="30.125" y="79.4102" width="3.26582" height="12.9409" fill="#77D5FF"/>
<rect x="98.7051" y="37.3528" width="3.26582" height="12.9409" fill="#77D5FF"/>
<rect x="95.4395" y="40.5881" width="3.26582" height="12.9409" fill="#77D5FF"/>
<rect x="101.969" y="34.1171" width="3.26582" height="12.9409" fill="#77D5FF"/>
<rect x="46.4512" y="92.3508" width="3.26582" height="9.70569" fill="#77D5FF"/>
<rect x="49.7148" y="92.3508" width="3.26582" height="6.47046" fill="#77D5FF"/>
<rect x="43.1875" y="92.3508" width="3.26582" height="12.9409" fill="#77D5FF"/>
<rect x="39.918" y="95.5862" width="3.26582" height="12.9409" fill="#77D5FF"/>
<rect x="36.6562" y="98.823" width="3.26582" height="6.47046" fill="#77D5FF"/>
<rect x="33.3867" y="102.058" width="3.26582" height="3.23523" fill="#77D5FF"/>
<rect x="92.1699" y="43.824" width="3.26582" height="9.70569" fill="#77D5FF"/>
<rect x="105.24" y="40.5874" width="3.26582" height="3.23523" fill="#77D5FF"/>
<path d="M66.1487 107.09H64.6973V99.9002H66.1487V107.09ZM71.9546 107.09H70.5032V105.652H71.9546V107.09ZM71.9546 101.338H70.5032V99.9002H71.9546V101.338ZM70.5032 108.527H66.1487V107.09H70.5032V108.527ZM70.5032 99.9002H66.1487V98.4623H70.5032V99.9002Z" fill="#030500"/>
<path d="M58.8854 99.9002H55.9824V98.4623H63.2398V99.9002H60.3368V108.527H58.8854V99.9002Z" fill="#030500"/>
<path d="M48.7191 107.09H53.0735V108.527H47.2676V98.4623H53.0735V99.9002H48.7191V102.776H53.0735V104.214H48.7191V107.09ZM54.525 107.09H53.0735V104.214H54.525V107.09ZM54.525 102.776H53.0735V99.9002H54.525V102.776Z" fill="#030500"/>
<rect x="7.26562" y="47.059" width="6.53164" height="3.23523" fill="#77D5FF"/>
<rect x="7.26562" y="50.2937" width="3.26582" height="3.23523" fill="#77D5FF"/>
<rect x="10.5312" y="43.8228" width="6.53164" height="3.23523" fill="#77D5FF"/>
<rect x="33.3926" y="17.9418" width="9.79746" height="3.23523" fill="#77D5FF"/>
<rect x="30.1289" y="21.176" width="9.79746" height="3.23523" fill="#77D5FF"/>
<rect x="26.8594" y="24.4114" width="9.79746" height="3.23523" fill="#77D5FF"/>
<rect x="23.5918" y="27.6475" width="9.79746" height="3.23523" fill="#77D5FF"/>
<rect x="20.3301" y="30.883" width="9.79746" height="3.23523" fill="#77D5FF"/>
<rect x="17.0605" y="34.1165" width="9.79746" height="3.23523" fill="#77D5FF"/>
<rect x="13.7969" y="37.352" width="9.79746" height="3.23523" fill="#77D5FF"/>
<rect x="10.5312" y="40.5874" width="9.79746" height="3.23523" fill="#77D5FF"/>
<rect x="39.9238" y="11.4703" width="9.79746" height="3.23523" fill="#77D5FF"/>
<rect x="36.6562" y="14.7057" width="9.79746" height="3.23523" fill="#77D5FF"/>
<rect x="46.457" y="8.23483" width="6.53164" height="3.23523" fill="#77D5FF"/>
<rect x="75.8457" y="105.291" width="3.26582" height="3.23523" fill="#77D5FF"/>
<rect x="79.1152" y="102.058" width="3.26582" height="3.23523" fill="#77D5FF"/>
<rect x="82.377" y="98.823" width="3.26582" height="6.47046" fill="#77D5FF"/>
<rect x="85.6445" y="95.5862" width="3.26582" height="6.47046" fill="#77D5FF"/>
<rect x="88.9121" y="92.3546" width="3.26582" height="9.70569" fill="#77D5FF"/>
<rect x="92.1777" y="89.1179" width="3.26582" height="9.70569" fill="#77D5FF"/>
<rect x="95.4395" y="85.8799" width="3.26582" height="9.70569" fill="#77D5FF"/>
<rect x="98.709" y="82.647" width="3.26582" height="9.70569" fill="#77D5FF"/>
<rect x="101.973" y="79.4115" width="3.26582" height="6.47046" fill="#77D5FF"/>
<rect x="105.24" y="76.1748" width="3.26582" height="3.23523" fill="#77D5FF"/>
</svg>
