<svg width="246" height="84" viewBox="0 0 246 84" fill="none" xmlns="http://www.w3.org/2000/svg">
<g filter="url(#filter0_d_242_9638)">
<path d="M225.217 40.7644H221.061V20.1766H225.217V16.059H241.843V20.1766H245.999V24.2941H237.687V20.1766H229.374V40.7644H237.687V36.6468H245.999V40.7644H241.843V44.8819H225.217V40.7644Z" fill="#F834EC"/>
</g>
<g filter="url(#filter1_d_242_9638)">
<path d="M198.424 44.8819V20.1766H190.111V16.059H215.05V20.1766H206.737V44.8819H198.424Z" fill="#F834EC"/>
</g>
<g filter="url(#filter2_d_242_9638)">
<path d="M167.474 40.7644H175.787V28.4117H167.474V40.7644ZM163.318 40.7644H159.161V28.4117H163.318V24.2941H175.787V16.059H184.1V44.8819H163.318V40.7644Z" fill="#0197DB"/>
</g>
<g filter="url(#filter3_d_242_9638)">
<path d="M148.994 24.2944V28.4119H153.151V36.647H136.525V40.7646H153.151V44.8822H132.368V40.7646H128.212V28.4119H132.368V24.2944H148.994ZM144.838 28.4119H136.525V32.5295H144.838V28.4119Z" fill="#0197DB"/>
</g>
<g filter="url(#filter4_d_242_9638)">
<path d="M105.575 28.4117H113.888V20.1766H105.575V28.4117ZM113.888 32.5293H105.575V40.7644H113.888V32.5293ZM97.2617 44.882V16.0591H118.044V20.1766H122.201V28.4117H118.044V32.5293H122.201V40.7644H118.044V44.882H97.2617Z" fill="#F834EC"/>
</g>
<path d="M238.98 59.7039V64.6576H237.313V56.4015H238.98V58.0527H240.647V59.7039H238.98ZM245.648 64.6576H243.981V58.0527H245.648V64.6576ZM243.981 58.0527H240.647V56.4015H243.981V58.0527Z" fill="white"/>
<path d="M233.981 59.7039H232.314V58.0527H233.981V59.7039ZM235.648 58.0527H233.981V56.4015H235.648V58.0527ZM230.647 61.3551V64.6576H228.98V56.4015H230.647V59.7039H232.314V61.3551H230.647Z" fill="white"/>
<path d="M220.639 63.0063H218.973V58.0527H220.639V63.0063ZM225.64 59.7039H223.973V58.0527H225.64V56.4015H227.307V64.6576H225.64V63.0063H223.973V61.3551H225.64V59.7039ZM223.973 64.6576H220.639V63.0063H223.973V64.6576ZM223.973 58.0527H220.639V56.4015H223.973V58.0527Z" fill="white"/>
<path d="M215.635 58.0527H210.635V56.4015H215.635V58.0527ZM210.635 61.3551V63.0063H208.968V58.0527H210.635V59.7039H215.635V58.0527H217.302V61.3551H210.635ZM217.302 64.6576H210.635V63.0063H217.302V64.6576Z" fill="white"/>
<path d="M195.632 63.0063H193.965V58.0527H195.632V63.0063ZM200.632 58.0527H195.632V56.4015H200.632V58.0527ZM202.299 63.0063H200.632V58.0527H202.299V63.0063ZM200.632 64.6576H195.632V63.0063H200.632V64.6576Z" fill="white"/>
<path d="M190.634 56.4011H192.301V58.0523H190.634V63.0059H192.301V64.6571H188.968V58.0523H187.301V56.4011H188.968V53.0986H190.634V56.4011Z" fill="white"/>
<path d="M173.965 63.0063H172.298V58.0527H173.965V63.0063ZM178.965 63.0063H177.298V61.3551H178.965V59.7039H177.298V58.0527H178.965V56.4015H180.632V66.3088H178.965V63.0063ZM177.298 58.0527H173.965V56.4015H177.298V58.0527ZM177.298 64.6576H173.965V63.0063H177.298V64.6576ZM178.965 67.96H173.965V66.3088H178.965V67.96Z" fill="white"/>
<path d="M163.96 59.7039V64.6576H162.293V56.4015H163.96V58.0527H165.627V59.7039H163.96ZM170.627 64.6576H168.96V58.0527H170.627V64.6576ZM168.96 58.0527H165.627V56.4015H168.96V58.0527Z" fill="white"/>
<path d="M160.62 64.6571H158.953V56.4011H160.62V64.6571ZM160.62 54.7498H158.953V53.0986H160.62V54.7498Z" fill="white"/>
<path d="M150.614 59.7035V64.6571H148.947V53.0986H150.614V58.0523H152.281V59.7035H150.614ZM157.281 64.6571H155.615V58.0523H157.281V64.6571ZM155.615 58.0523H152.281V56.4011H155.615V58.0523Z" fill="white"/>
<path d="M145.615 56.4011H147.282V58.0523H145.615V63.0059H147.282V64.6571H143.948V58.0523H142.281V56.4011H143.948V53.0986H145.615V56.4011Z" fill="white"/>
<path d="M133.941 63.0063H132.274V58.0527H133.941V63.0063ZM138.942 58.0527H133.941V56.4015H138.942V58.0527ZM140.609 63.0063H138.942V58.0527H140.609V63.0063ZM138.942 64.6576H133.941V63.0063H138.942V64.6576Z" fill="white"/>
<path d="M123.936 59.7039V64.6576H122.27V56.4015H123.936V58.0527H125.603V59.7039H123.936ZM130.604 64.6576H128.937V58.0527H130.604V64.6576ZM128.937 58.0527H125.603V56.4015H128.937V58.0527Z" fill="white"/>
<path d="M108.935 63.0063H107.269V58.0527H108.935V63.0063ZM113.936 58.0527H108.935V56.4015H113.936V58.0527ZM115.603 63.0063H113.936V58.0527H115.603V63.0063ZM113.936 64.6576H108.935V63.0063H113.936V64.6576Z" fill="white"/>
<path d="M98.9285 63.0059H97.2617V58.0523H98.9285V63.0059ZM103.929 59.7035H102.262V58.0523H103.929V53.0986H105.596V64.6571H103.929V63.0059H102.262V61.3547H103.929V59.7035ZM102.262 64.6571H98.9285V63.0059H102.262V64.6571ZM102.262 58.0523H98.9285V56.4011H102.262V58.0523Z" fill="white"/>
<rect x="27.4336" y="2.47021" width="29.9267" height="79.0571" fill="#0197DB"/>
<rect x="17.457" y="7.41162" width="9.97557" height="69.1749" fill="#0197DB"/>
<rect x="57.3604" y="7.41162" width="9.97557" height="69.1749" fill="#0197DB"/>
<rect x="67.335" y="12.3525" width="4.98779" height="59.2928" fill="#0197DB"/>
<rect x="12.4697" y="12.3525" width="4.98779" height="59.2928" fill="#0197DB"/>
<rect x="7.48145" y="17.2944" width="4.98779" height="49.4107" fill="#0197DB"/>
<rect x="72.3232" y="17.2944" width="4.98779" height="49.4107" fill="#0197DB"/>
<rect x="77.3096" y="27.1758" width="4.98779" height="29.6464" fill="#0197DB"/>
<rect x="2.49414" y="27.1758" width="4.98779" height="29.6464" fill="#0197DB"/>
<rect x="32.4209" y="17.2944" width="19.9511" height="49.4107" fill="#F834EC"/>
<rect x="52.3721" y="22.2344" width="7.48168" height="39.5285" fill="#F834EC"/>
<rect x="24.9385" y="22.2344" width="7.48168" height="39.5285" fill="#F834EC"/>
<rect x="59.8535" y="27.1758" width="4.98779" height="29.6464" fill="#F834EC"/>
<rect x="19.9521" y="27.1758" width="4.98779" height="29.6464" fill="#F834EC"/>
<rect x="64.8408" y="32.1177" width="2.49389" height="19.7643" fill="#F834EC"/>
<rect x="17.457" y="32.1177" width="2.49389" height="19.7643" fill="#F834EC"/>
<path d="M61.0992 40.7627H51.127V38.293H63.5922V43.2324H61.0992V40.7627ZM61.0992 45.7021H53.62V43.2324H61.0992V45.7021ZM53.62 48.1718H63.5922V50.6415H51.127V45.7021H53.62V48.1718Z" fill="#030500"/>
<path d="M38.6561 48.171H48.6283V50.6407H36.1631V45.7013H38.6561V48.171ZM46.1353 40.7619H43.6422V38.2922H46.1353V40.7619ZM43.6422 43.2316H41.1492V40.7619H43.6422V43.2316ZM41.1492 45.7013H38.6561V43.2316H41.1492V45.7013ZM46.1353 35.8225H36.1631V33.3528H48.6283V38.2922H46.1353V35.8225Z" fill="#030500"/>
<path d="M31.1695 40.7627H21.1973V38.293H33.6625V43.2324H31.1695V40.7627ZM31.1695 45.7021H23.6903V43.2324H31.1695V45.7021ZM23.6903 48.1718H33.6625V50.6415H21.1973V45.7021H23.6903V48.1718Z" fill="#030500"/>
<rect x="52.3721" y="2.47021" width="4.98779" height="2.47053" fill="#030500"/>
<rect x="47.3848" y="17.2944" width="4.98779" height="2.47053" fill="#77D5FF"/>
<rect x="47.3848" y="64.2354" width="4.98779" height="2.47053" fill="#77D5FF"/>
<rect x="32.4209" y="17.2944" width="4.98779" height="2.47053" fill="#030500"/>
<rect x="32.4209" y="64.2354" width="4.98779" height="2.47053" fill="#030500"/>
<rect x="37.4072" y="17.2944" width="4.98779" height="2.47053" fill="#030500"/>
<rect x="37.4072" y="64.2354" width="4.98779" height="2.47053" fill="#030500"/>
<rect x="57.3604" y="4.94092" width="4.98779" height="2.47053" fill="#030500"/>
<rect x="27.4336" y="19.7651" width="4.98779" height="2.47053" fill="#030500"/>
<rect x="27.4336" y="61.7627" width="4.98779" height="2.47053" fill="#030500"/>
<rect x="52.3721" y="19.7651" width="4.98779" height="2.47053" fill="#77D5FF"/>
<rect x="52.3721" y="61.7627" width="4.98779" height="2.47053" fill="#77D5FF"/>
<rect x="32.4209" y="19.7651" width="4.98779" height="2.47053" fill="#030500"/>
<rect x="32.4209" y="61.7627" width="4.98779" height="2.47053" fill="#030500"/>
<rect x="62.3467" y="7.41162" width="4.98779" height="2.47053" fill="#030500"/>
<rect x="52.3721" y="79.0566" width="4.98779" height="2.47053" fill="#030500"/>
<rect x="57.3604" y="76.5859" width="4.98779" height="2.47053" fill="#030500"/>
<rect x="62.3467" y="74.1172" width="4.98779" height="2.47053" fill="#030500"/>
<rect x="27.4336" y="2.47021" width="4.98779" height="2.47053" fill="#030500"/>
<rect x="22.4453" y="4.94092" width="4.98779" height="2.47053" fill="#030500"/>
<rect x="17.457" y="7.41162" width="4.98779" height="2.47053" fill="#030500"/>
<rect x="27.4336" y="79.0566" width="4.98779" height="2.47053" fill="#030500"/>
<rect x="22.4453" y="76.5859" width="4.98779" height="2.47053" fill="#030500"/>
<rect x="17.457" y="74.1172" width="4.98779" height="2.47053" fill="#030500"/>
<rect x="77.3096" y="17.2944" width="4.94107" height="2.49389" transform="rotate(90 77.3096 17.2944)" fill="#030500"/>
<rect x="9.97461" y="17.2944" width="4.94107" height="2.49389" transform="rotate(90 9.97461 17.2944)" fill="#030500"/>
<rect x="22.4453" y="27.1758" width="4.94107" height="2.49389" transform="rotate(90 22.4453 27.1758)" fill="#030500"/>
<rect x="9.97461" y="61.7627" width="4.94107" height="2.49389" transform="rotate(90 9.97461 61.7627)" fill="#030500"/>
<rect x="19.9521" y="46.9404" width="4.94107" height="2.49389" transform="rotate(90 19.9521 46.9404)" fill="#030500"/>
<rect x="77.3096" y="61.7627" width="4.94107" height="2.49389" transform="rotate(90 77.3096 61.7627)" fill="#030500"/>
<rect x="79.8057" y="22.2344" width="4.94107" height="2.49389" transform="rotate(90 79.8057 22.2344)" fill="#030500"/>
<rect x="64.8408" y="27.1758" width="4.94107" height="2.49389" transform="rotate(90 64.8408 27.1758)" fill="#77D5FF"/>
<rect x="19.9521" y="32.1177" width="4.94107" height="2.49389" transform="rotate(90 19.9521 32.1177)" fill="#030500"/>
<rect x="24.9385" y="27.1758" width="4.94107" height="2.49389" transform="rotate(90 24.9385 27.1758)" fill="#030500"/>
<rect x="67.335" y="46.9404" width="4.94107" height="2.49389" transform="rotate(90 67.335 46.9404)" fill="#77D5FF"/>
<rect x="22.4453" y="46.9404" width="4.94107" height="2.49389" transform="rotate(90 22.4453 46.9404)" fill="#030500"/>
<rect x="22.4453" y="51.8818" width="4.94107" height="2.49389" transform="rotate(90 22.4453 51.8818)" fill="#030500"/>
<rect x="7.48145" y="22.2344" width="4.94107" height="2.49389" transform="rotate(90 7.48145 22.2344)" fill="#030500"/>
<rect x="7.48145" y="56.8232" width="4.94107" height="2.49389" transform="rotate(90 7.48145 56.8232)" fill="#030500"/>
<rect x="67.335" y="32.1177" width="4.94107" height="2.49389" transform="rotate(90 67.335 32.1177)" fill="#77D5FF"/>
<rect x="22.4453" y="32.1177" width="4.94107" height="2.49389" transform="rotate(90 22.4453 32.1177)" fill="#030500"/>
<rect x="79.8057" y="56.8232" width="4.94107" height="2.49389" transform="rotate(90 79.8057 56.8232)" fill="#030500"/>
<rect x="82.2988" y="27.1758" width="4.94107" height="2.49389" transform="rotate(90 82.2988 27.1758)" fill="#030500"/>
<rect x="24.9385" y="22.2344" width="2.49389" height="2.47053" fill="#030500"/>
<rect x="24.9385" y="59.2939" width="2.49389" height="2.47053" fill="#030500"/>
<rect x="64.8408" y="51.8818" width="4.94107" height="2.49389" transform="rotate(90 64.8408 51.8818)" fill="#77D5FF"/>
<rect x="24.9385" y="51.8818" width="4.94107" height="2.49389" transform="rotate(90 24.9385 51.8818)" fill="#030500"/>
<rect x="4.9873" y="27.1758" width="4.94107" height="2.49389" transform="rotate(90 4.9873 27.1758)" fill="#030500"/>
<rect x="4.9873" y="51.8818" width="4.94107" height="2.49389" transform="rotate(90 4.9873 51.8818)" fill="#030500"/>
<rect x="22.4453" y="24.7051" width="2.49389" height="2.47053" fill="#030500"/>
<rect x="82.2988" y="51.8818" width="4.94107" height="2.49389" transform="rotate(90 82.2988 51.8818)" fill="#030500"/>
<rect x="67.335" y="9.88281" width="2.49389" height="2.47053" fill="#030500"/>
<rect x="22.4453" y="56.8232" width="2.49389" height="2.47053" fill="#030500"/>
<rect x="57.3604" y="22.2344" width="2.49389" height="2.47053" fill="#77D5FF"/>
<rect x="57.3604" y="59.2939" width="2.49389" height="2.47053" fill="#77D5FF"/>
<rect x="27.4336" y="22.2344" width="2.49389" height="2.47053" fill="#030500"/>
<rect x="27.4336" y="59.2939" width="2.49389" height="2.47053" fill="#030500"/>
<rect x="67.335" y="71.6465" width="2.49389" height="2.47053" fill="#030500"/>
<rect x="14.9619" y="9.88281" width="2.49389" height="2.47053" fill="#030500"/>
<rect x="14.9619" y="71.6465" width="2.49389" height="2.47053" fill="#030500"/>
<rect x="69.8271" y="12.3525" width="2.49389" height="2.47053" fill="#030500"/>
<rect x="24.9385" y="24.7051" width="2.49389" height="2.47053" fill="#030500"/>
<rect x="59.8535" y="24.7051" width="2.49389" height="2.47053" fill="#77D5FF"/>
<rect x="59.8535" y="56.8232" width="2.49389" height="2.47053" fill="#77D5FF"/>
<rect x="17.457" y="37.0596" width="9.88214" height="2.49389" transform="rotate(90 17.457 37.0596)" fill="#030500"/>
<rect x="24.9385" y="56.8232" width="2.49389" height="2.47053" fill="#030500"/>
<rect x="12.4697" y="12.3525" width="2.49389" height="2.47053" fill="#030500"/>
<rect x="69.8271" y="69.1748" width="2.49389" height="2.47053" fill="#030500"/>
<rect x="72.3232" y="14.8232" width="2.49389" height="2.47053" fill="#030500"/>
<rect x="9.97461" y="14.8232" width="2.49389" height="2.47053" fill="#030500"/>
<rect x="12.4697" y="69.1748" width="2.49389" height="2.47053" fill="#030500"/>
<rect x="72.3232" y="66.707" width="2.49389" height="2.47053" fill="#030500"/>
<rect x="9.97461" y="66.707" width="2.49389" height="2.47053" fill="#030500"/>
<rect x="32.4209" width="19.9511" height="2.47053" fill="#030500"/>
<rect x="37.4072" y="14.8232" width="9.97557" height="2.47053" fill="#030500"/>
<rect x="37.4072" y="66.707" width="9.97557" height="2.47053" fill="#030500"/>
<rect x="69.8271" y="37.0596" width="9.88214" height="2.49389" transform="rotate(90 69.8271 37.0596)" fill="#77D5FF"/>
<rect x="19.9521" y="37.0596" width="9.88214" height="2.49389" transform="rotate(90 19.9521 37.0596)" fill="#030500"/>
<rect x="32.4209" y="81.5293" width="19.9511" height="2.47053" fill="#030500"/>
<rect x="84.793" y="32.1177" width="19.7643" height="2.49389" transform="rotate(90 84.793 32.1177)" fill="#030500"/>
<rect x="2.49414" y="32.1177" width="19.7643" height="2.49389" transform="rotate(90 2.49414 32.1177)" fill="#030500"/>
<rect x="41.1484" y="46.9404" width="2.49389" height="20.9995" fill="#030500"/>
<rect x="41.1484" y="16.0586" width="2.49389" height="17.2937" fill="#030500"/>
<rect x="54.8652" y="17.2943" width="2.49389" height="2.47053" fill="#77D5FF"/>
<rect x="57.3623" y="14.8232" width="2.49389" height="7.4116" fill="#77D5FF"/>
<rect x="59.8545" y="12.3526" width="2.49389" height="12.3527" fill="#77D5FF"/>
<rect x="62.3486" y="9.88281" width="2.49389" height="14.8232" fill="#77D5FF"/>
<rect x="64.8418" y="9.88293" width="2.49389" height="12.3527" fill="#77D5FF"/>
<rect x="17.458" y="54.3516" width="2.49389" height="14.8232" fill="#77D5FF"/>
<rect x="14.9629" y="56.8232" width="2.49389" height="14.8232" fill="#77D5FF"/>
<rect x="12.4717" y="59.2928" width="2.49389" height="9.88214" fill="#77D5FF"/>
<rect x="9.97656" y="61.7625" width="2.49389" height="4.94107" fill="#77D5FF"/>
<rect x="67.3369" y="12.3531" width="2.49389" height="7.4116" fill="#77D5FF"/>
<rect x="69.8291" y="14.8228" width="2.49389" height="2.47053" fill="#77D5FF"/>
<rect x="22.4463" y="59.2938" width="2.49389" height="4.94107" fill="#77D5FF"/>
<rect x="19.9512" y="56.8223" width="2.49389" height="9.88214" fill="#77D5FF"/>
<rect x="72.3193" y="24.7057" width="2.49389" height="9.88214" fill="#77D5FF"/>
<rect x="69.8262" y="27.1763" width="2.49389" height="9.88214" fill="#77D5FF"/>
<rect x="74.8135" y="22.2349" width="2.49389" height="9.88214" fill="#77D5FF"/>
<rect x="32.417" y="66.7041" width="2.49389" height="7.4116" fill="#77D5FF"/>
<rect x="34.9102" y="66.7041" width="2.49389" height="4.94107" fill="#77D5FF"/>
<rect x="29.9238" y="66.7041" width="2.49389" height="9.88214" fill="#77D5FF"/>
<rect x="27.4277" y="69.1748" width="2.49389" height="9.88214" fill="#77D5FF"/>
<rect x="24.9365" y="71.6465" width="2.49389" height="4.94107" fill="#77D5FF"/>
<rect x="22.4414" y="74.1172" width="2.49389" height="2.47053" fill="#77D5FF"/>
<rect x="67.3301" y="29.6474" width="2.49389" height="7.4116" fill="#77D5FF"/>
<rect x="77.3105" y="27.1758" width="2.49389" height="2.47053" fill="#77D5FF"/>
<path d="M47.457 77.9592H46.3486V72.4691H47.457V77.9592ZM51.8906 77.9592H50.7822V76.8612H51.8906V77.9592ZM51.8906 73.5671H50.7822V72.4691H51.8906V73.5671ZM50.7822 79.0572H47.457V77.9592H50.7822V79.0572ZM50.7822 72.4691H47.457V71.3711H50.7822V72.4691Z" fill="#030500"/>
<path d="M41.9102 72.4691H39.6934V71.3711H45.2353V72.4691H43.0185V79.0572H41.9102V72.4691Z" fill="#030500"/>
<path d="M34.1484 77.9592H37.4736V79.0572H33.04V71.3711H37.4736V72.4691H34.1484V74.6651H37.4736V75.7632H34.1484V77.9592ZM38.582 77.9592H37.4736V75.7632H38.582V77.9592ZM38.582 74.6651H37.4736V72.4691H38.582V74.6651Z" fill="#030500"/>
<rect x="2.49414" y="32.1177" width="4.98779" height="2.47053" fill="#77D5FF"/>
<rect x="2.49414" y="34.5879" width="2.49389" height="2.47053" fill="#77D5FF"/>
<rect x="4.9873" y="29.6465" width="4.98779" height="2.47053" fill="#77D5FF"/>
<rect x="22.4453" y="9.88281" width="7.48168" height="2.47053" fill="#77D5FF"/>
<rect x="19.9521" y="12.3525" width="7.48168" height="2.47053" fill="#77D5FF"/>
<rect x="17.457" y="14.8232" width="7.48168" height="2.47053" fill="#77D5FF"/>
<rect x="14.9619" y="17.2944" width="7.48168" height="2.47053" fill="#77D5FF"/>
<rect x="12.4697" y="19.7651" width="7.48168" height="2.47053" fill="#77D5FF"/>
<rect x="9.97461" y="22.2344" width="7.48168" height="2.47053" fill="#77D5FF"/>
<rect x="7.48145" y="24.7051" width="7.48168" height="2.47053" fill="#77D5FF"/>
<rect x="4.9873" y="27.1758" width="7.48168" height="2.47053" fill="#77D5FF"/>
<rect x="27.4336" y="4.94092" width="7.48168" height="2.47053" fill="#77D5FF"/>
<rect x="24.9385" y="7.41162" width="7.48168" height="2.47053" fill="#77D5FF"/>
<rect x="32.4209" y="2.47021" width="4.98779" height="2.47053" fill="#77D5FF"/>
<rect x="54.8652" y="76.5859" width="2.49389" height="2.47053" fill="#77D5FF"/>
<rect x="57.3604" y="74.1172" width="2.49389" height="2.47053" fill="#77D5FF"/>
<rect x="59.8535" y="71.6465" width="2.49389" height="4.94107" fill="#77D5FF"/>
<rect x="62.3467" y="69.1748" width="2.49389" height="4.94107" fill="#77D5FF"/>
<rect x="64.8408" y="66.707" width="2.49389" height="7.4116" fill="#77D5FF"/>
<rect x="67.335" y="64.2354" width="2.49389" height="7.4116" fill="#77D5FF"/>
<rect x="69.8271" y="61.7627" width="2.49389" height="7.4116" fill="#77D5FF"/>
<rect x="72.3232" y="59.2939" width="2.49389" height="7.4116" fill="#77D5FF"/>
<rect x="74.8164" y="56.8232" width="2.49389" height="4.94107" fill="#77D5FF"/>
<rect x="77.3096" y="54.3516" width="2.49389" height="2.47053" fill="#77D5FF"/>
<rect x="103.591" y="20.1802" width="2" height="8.27734" fill="#FF95F9"/>
<rect x="227.383" y="20.1802" width="2" height="20.5791" fill="#FF95F9"/>
<rect x="229.383" y="18.1904" width="2" height="2" fill="#FF95F9"/>
<rect x="243.999" y="20.1904" width="2" height="4.09912" fill="#FF95F9"/>
<rect x="243.999" y="36.647" width="2" height="4.1123" fill="#FF95F9"/>
<rect x="241.819" y="36.647" width="2.17969" height="2" fill="#FF95F9"/>
<rect x="241.819" y="22.167" width="2.17969" height="2.12256" fill="#FF95F9"/>
<rect x="239.64" y="16.0591" width="2.17969" height="4.19238" fill="#FF95F9"/>
<rect x="239.64" y="40.6631" width="2.17969" height="4.19238" fill="#FF95F9"/>
<rect x="229.383" y="40.7591" width="2" height="2" fill="#FF95F9"/>
<rect x="103.575" y="32.5312" width="2" height="8.24219" fill="#FF95F9"/>
<rect x="204.74" y="20.1904" width="2" height="24.6924" fill="#FF95F9"/>
<rect x="213.05" y="16.0591" width="2" height="4.13135" fill="#FF95F9"/>
<rect x="215.05" y="18.1904" width="2" height="11.7852" transform="rotate(90 215.05 18.1904)" fill="#FF95F9"/>
<rect x="120.2" y="20.1724" width="2" height="8.23779" fill="#FF95F9"/>
<rect x="134.527" y="28.4102" width="2" height="4.12549" fill="#77D5FF"/>
<rect x="134.527" y="36.6479" width="2" height="4.12549" fill="#77D5FF"/>
<rect x="151.114" y="40.7734" width="2" height="4.12549" fill="#77D5FF"/>
<rect x="151.114" y="28.4077" width="2" height="8.24023" fill="#77D5FF"/>
<rect x="165.586" y="28.4077" width="2" height="12.3657" fill="#77D5FF"/>
<rect x="182.1" y="16.0591" width="2" height="28.8228" fill="#77D5FF"/>
<rect x="148.999" y="28.4077" width="2.11523" height="2" fill="#77D5FF"/>
<rect x="146.884" y="26.4077" width="2.11523" height="2" fill="#77D5FF"/>
<rect x="167.586" y="40.7734" width="2.11523" height="2" fill="#77D5FF"/>
<rect x="167.586" y="26.4575" width="2.11523" height="2" fill="#77D5FF"/>
<rect x="120.2" y="32.5356" width="2" height="8.23779" fill="#FF95F9"/>
<rect x="118.2" y="32.5356" width="2" height="2" fill="#FF95F9"/>
<rect x="118.2" y="38.7734" width="2" height="2" fill="#FF95F9"/>
<rect x="118.2" y="20.1724" width="2" height="2" fill="#FF95F9"/>
<rect x="118.2" y="26.4102" width="2" height="2" fill="#FF95F9"/>
<defs>
<filter id="filter0_d_242_9638" x="219.061" y="16.059" width="26.939" height="30.8229" filterUnits="userSpaceOnUse" color-interpolation-filters="sRGB">
<feFlood flood-opacity="0" result="BackgroundImageFix"/>
<feColorMatrix in="SourceAlpha" type="matrix" values="0 0 0 0 0 0 0 0 0 0 0 0 0 0 0 0 0 0 127 0" result="hardAlpha"/>
<feOffset dx="-2" dy="2"/>
<feComposite in2="hardAlpha" operator="out"/>
<feColorMatrix type="matrix" values="0 0 0 0 0 0 0 0 0 0 0 0 0 0 0 0 0 0 1 0"/>
<feBlend mode="normal" in2="BackgroundImageFix" result="effect1_dropShadow_242_9638"/>
<feBlend mode="normal" in="SourceGraphic" in2="effect1_dropShadow_242_9638" result="shape"/>
</filter>
<filter id="filter1_d_242_9638" x="188.111" y="16.059" width="26.939" height="30.8229" filterUnits="userSpaceOnUse" color-interpolation-filters="sRGB">
<feFlood flood-opacity="0" result="BackgroundImageFix"/>
<feColorMatrix in="SourceAlpha" type="matrix" values="0 0 0 0 0 0 0 0 0 0 0 0 0 0 0 0 0 0 127 0" result="hardAlpha"/>
<feOffset dx="-2" dy="2"/>
<feComposite in2="hardAlpha" operator="out"/>
<feColorMatrix type="matrix" values="0 0 0 0 0 0 0 0 0 0 0 0 0 0 0 0 0 0 1 0"/>
<feBlend mode="normal" in2="BackgroundImageFix" result="effect1_dropShadow_242_9638"/>
<feBlend mode="normal" in="SourceGraphic" in2="effect1_dropShadow_242_9638" result="shape"/>
</filter>
<filter id="filter2_d_242_9638" x="157.161" y="16.059" width="26.939" height="30.8229" filterUnits="userSpaceOnUse" color-interpolation-filters="sRGB">
<feFlood flood-opacity="0" result="BackgroundImageFix"/>
<feColorMatrix in="SourceAlpha" type="matrix" values="0 0 0 0 0 0 0 0 0 0 0 0 0 0 0 0 0 0 127 0" result="hardAlpha"/>
<feOffset dx="-2" dy="2"/>
<feComposite in2="hardAlpha" operator="out"/>
<feColorMatrix type="matrix" values="0 0 0 0 0 0 0 0 0 0 0 0 0 0 0 0 0 0 1 0"/>
<feBlend mode="normal" in2="BackgroundImageFix" result="effect1_dropShadow_242_9638"/>
<feBlend mode="normal" in="SourceGraphic" in2="effect1_dropShadow_242_9638" result="shape"/>
</filter>
<filter id="filter3_d_242_9638" x="126.212" y="24.2944" width="26.939" height="22.5878" filterUnits="userSpaceOnUse" color-interpolation-filters="sRGB">
<feFlood flood-opacity="0" result="BackgroundImageFix"/>
<feColorMatrix in="SourceAlpha" type="matrix" values="0 0 0 0 0 0 0 0 0 0 0 0 0 0 0 0 0 0 127 0" result="hardAlpha"/>
<feOffset dx="-2" dy="2"/>
<feComposite in2="hardAlpha" operator="out"/>
<feColorMatrix type="matrix" values="0 0 0 0 0 0 0 0 0 0 0 0 0 0 0 0 0 0 1 0"/>
<feBlend mode="normal" in2="BackgroundImageFix" result="effect1_dropShadow_242_9638"/>
<feBlend mode="normal" in="SourceGraphic" in2="effect1_dropShadow_242_9638" result="shape"/>
</filter>
<filter id="filter4_d_242_9638" x="95.2617" y="16.0591" width="26.939" height="30.8229" filterUnits="userSpaceOnUse" color-interpolation-filters="sRGB">
<feFlood flood-opacity="0" result="BackgroundImageFix"/>
<feColorMatrix in="SourceAlpha" type="matrix" values="0 0 0 0 0 0 0 0 0 0 0 0 0 0 0 0 0 0 127 0" result="hardAlpha"/>
<feOffset dx="-2" dy="2"/>
<feComposite in2="hardAlpha" operator="out"/>
<feColorMatrix type="matrix" values="0 0 0 0 0 0 0 0 0 0 0 0 0 0 0 0 0 0 1 0"/>
<feBlend mode="normal" in2="BackgroundImageFix" result="effect1_dropShadow_242_9638"/>
<feBlend mode="normal" in="SourceGraphic" in2="effect1_dropShadow_242_9638" result="shape"/>
</filter>
</defs>
</svg>
