<svg width="55" height="53" viewBox="0 0 55 53" fill="none" xmlns="http://www.w3.org/2000/svg">
<path d="M7.0675 21.5164C5.6619 21.7371 4.57977 22.0331 3.79757 22.5499C3.08595 23.0143 2.58605 23.711 2.26847 24.7561C1.9156 25.9056 2.08615 27.09 2.64486 28.0828C3.20945 29.0814 4.17397 29.8826 5.39725 30.2484C9.60229 31.5025 12.984 29.8884 16.2598 28.3267C19.071 26.9855 21.8116 25.6792 25.058 25.9463L25.5697 25.9869C22.2997 24.3439 20.606 21.5977 18.9004 18.8341C17.042 15.8267 15.1718 12.7903 11.102 11.5768C9.8787 11.2111 8.62601 11.3504 7.59092 11.8787C6.5676 12.3955 5.76188 13.2954 5.40901 14.4391C5.09143 15.4842 5.11495 16.3318 5.4443 17.1098C5.80893 17.9633 6.53819 18.7993 7.59092 19.7573L9.16708 21.1913L7.04986 21.5222L7.0675 21.5164ZM2.65074 20.843C3.28003 20.4307 4.00341 20.1288 4.84442 19.8908C4.27983 19.2405 3.84462 18.5903 3.55056 17.8994C3.02126 16.6627 2.96244 15.3739 3.43294 13.8411C3.95048 12.14 5.14436 10.8163 6.64994 10.0557C8.14376 9.29514 9.94928 9.08613 11.7077 9.61446C14.072 10.317 15.7716 11.4839 17.1361 12.8832C16.1539 11.1995 15.4893 9.26031 15.4541 6.82766L15.4482 6.81605H15.4541C15.4305 5.00463 16.1304 3.35577 17.2831 2.15396C18.4417 0.940545 20.059 0.174175 21.8645 0.150952L21.8763 0.145146V0.150952C23.4936 0.133534 24.7287 0.539943 25.7814 1.37598C26.3695 1.84626 26.887 2.43845 27.3634 3.15837C27.8222 2.42684 28.3221 1.81723 28.8984 1.33534C29.9276 0.470273 31.1568 0.0290292 32.78 0.00580584L32.7917 0V0.00580584C34.5855 -0.0116117 36.2205 0.708312 37.4085 1.8869C38.5906 3.06548 39.3375 4.70273 39.361 6.51415L39.3669 6.52576H39.361C39.3728 7.65209 39.2669 8.61005 39.067 9.4461C39.8315 8.88293 40.6843 8.38943 41.6488 7.98883C43.3426 7.29213 45.1599 7.31535 46.7242 7.91916C48.3004 8.52877 49.6237 9.72477 50.3176 11.3678C50.941 12.8425 51.0175 14.1314 50.6176 15.4145C50.3941 16.1286 50.0295 16.8195 49.5296 17.5278C50.3882 17.6788 51.1469 17.9052 51.8115 18.2535C53.0112 18.8748 53.8875 19.8385 54.5109 21.319C55.2049 22.9563 55.1343 24.7271 54.4639 26.2598C53.7993 27.7809 52.5348 29.0756 50.8411 29.7723C48.5768 30.7071 46.5184 30.8754 44.5717 30.6548C46.3949 31.3399 48.1357 32.414 49.7119 34.2544C50.8999 35.642 51.4233 37.3605 51.3116 39.0152C51.1998 40.6815 50.4411 42.2897 49.0649 43.4335C47.824 44.4669 46.6007 44.9256 45.2422 44.9372C44.4835 44.943 43.7072 44.8094 42.878 44.554C42.9956 45.4074 43.0015 46.1854 42.8662 46.9228C42.6251 48.2407 41.9664 49.3554 40.7254 50.3889C39.3493 51.5326 37.6202 52.0029 35.9382 51.8345C34.262 51.6661 32.633 50.8707 31.4508 49.4889C29.9276 47.7124 29.1337 45.8951 28.7337 44.0663C28.5573 45.8719 28.0221 47.7356 26.8341 49.6922C25.8696 51.2771 24.364 52.3396 22.7173 52.775C21.0529 53.2163 19.2415 53.0189 17.6713 52.09C16.2539 51.2481 15.4011 50.2379 14.9424 48.9548C14.6836 48.2291 14.5601 47.4337 14.5366 46.5454C13.7309 46.946 12.9604 47.2131 12.19 47.3292C10.8315 47.5324 9.53171 47.2653 8.10847 46.4293C6.5382 45.5003 5.50899 44.0082 5.12083 42.3478C4.73268 40.7047 4.97969 38.8991 5.93832 37.3141C7.53211 34.6899 9.64345 33.2326 11.9371 32.263C9.79636 32.8436 7.4733 32.9946 4.79149 32.1934C3.03302 31.6708 1.65094 30.5097 0.827577 29.0582C0.00421327 27.5951 -0.248675 25.8418 0.268868 24.1465C0.739362 22.6137 1.50979 21.5687 2.63898 20.8313L2.65074 20.843ZM17.1596 30.1613C16.2892 30.5793 15.407 30.9974 14.5072 31.3747C15.3305 31.1309 16.1657 30.9161 16.989 30.7071C19.5062 30.0626 21.9704 29.4298 23.8053 27.9667C21.5234 28.0828 19.365 29.1105 17.1596 30.1613ZM26.7577 27.9493L26.1049 28.6402C23.8171 31.067 20.7059 31.8624 17.5125 32.681C13.825 33.6274 10.0081 34.6028 7.72031 38.3708C7.04398 39.4797 6.87343 40.7512 7.14396 41.9007C7.40861 43.0329 8.10847 44.0489 9.17296 44.6817C10.1434 45.2565 11.0079 45.4423 11.8842 45.3146C12.831 45.1752 13.8603 44.6643 15.0777 43.8747L16.8714 42.7135L16.6773 44.821C16.548 46.2493 16.5774 47.3872 16.8949 48.2813C17.189 49.1058 17.7595 49.7676 18.7299 50.3424C19.7944 50.9752 21.0353 51.103 22.1762 50.8011C23.3289 50.4934 24.3817 49.7502 25.0521 48.6471C27.3105 44.9314 26.7753 41.4362 26.246 37.9586C25.752 34.7131 25.2638 31.4909 26.7518 27.9493H26.7577ZM28.3044 37.6567L28.4044 38.3243L28.4397 37.4825C28.5338 35.2356 28.6279 33.0352 28.0045 31.0438C27.634 33.2616 27.9692 35.4562 28.3044 37.6625V37.6567ZM28.9807 28.1873L29.2278 28.6402C30.7686 31.4792 30.6392 34.4809 30.5099 37.558C30.3569 41.146 30.1982 44.8559 33.0329 48.1652C33.8562 49.129 34.9854 49.6863 36.1381 49.8025C37.285 49.9186 38.4553 49.5993 39.3845 48.8271C40.2314 48.1246 40.6784 47.3988 40.8254 46.5628C40.9901 45.6513 40.8431 44.5482 40.4843 43.1896L39.955 41.146L41.9076 42.0052C43.2073 42.58 44.2836 42.9109 45.2187 42.8993C46.0714 42.8935 46.8713 42.58 47.7182 41.8717C48.6474 41.0995 49.159 40.008 49.2355 38.8759C49.312 37.7321 48.9473 36.5419 48.124 35.5782C45.3775 32.3733 41.8193 31.8798 38.2848 31.3922C35.0325 30.9451 31.8037 30.4981 28.9807 28.1873ZM38.5729 29.3659C39.0905 29.4356 39.6021 29.5053 40.1138 29.5865C39.6316 29.4298 39.1493 29.2614 38.667 29.0988C36.4146 28.3209 34.1738 27.5487 31.8096 27.6126C33.8739 28.7215 36.2146 29.0408 38.5671 29.3659H38.5729ZM29.6042 25.8186C33.1799 25.0406 36.2616 26.0972 39.3551 27.1655C42.7251 28.3267 46.1185 29.4936 50.0471 27.8796C51.2233 27.3919 52.0996 26.4978 52.5584 25.447C53.0171 24.4019 53.0641 23.2059 52.5937 22.097C52.1702 21.0926 51.6056 20.454 50.8469 20.0592C50.0177 19.6295 48.912 19.4379 47.4888 19.3625L45.348 19.2463L46.7713 17.6672C47.7182 16.6163 48.3592 15.7048 48.6356 14.8223C48.8885 14.0153 48.8238 13.1676 48.4004 12.1574C47.9358 11.0543 47.0359 10.2415 45.9715 9.82928C44.8893 9.41126 43.6249 9.39384 42.4486 9.88153C38.3553 11.5652 36.4322 15.6409 34.7796 19.1418C33.3975 22.068 32.186 24.64 29.9394 25.6037L29.6159 25.8244L29.6042 25.8186ZM32.8917 18.271C33.1917 17.6381 33.4975 16.9937 33.821 16.3434C32.3448 17.8471 30.8921 19.7863 30.0041 23.113C31.0744 22.1144 31.939 20.2914 32.8917 18.271ZM27.5634 24.5006L27.6634 24.0013C28.8572 18.0852 31.4802 15.6583 33.7621 13.545C35.6912 11.7568 37.3438 10.2299 37.2967 6.53737L37.2908 6.52576H37.2967C37.2791 5.2717 36.7615 4.13956 35.9441 3.32674C35.1325 2.51973 34.0268 2.02624 32.8094 2.04365L32.7976 2.04946V2.04365C31.7037 2.06107 30.8921 2.33975 30.2393 2.89131C29.5218 3.48931 28.9337 4.43566 28.3338 5.70714L27.4281 7.62306L26.4695 5.73036C25.8343 4.47049 25.2168 3.54156 24.4934 2.96678C23.823 2.43265 23.0055 2.17138 21.8998 2.1888L21.8881 2.19461V2.1888C20.6824 2.20622 19.5944 2.72874 18.8063 3.55317C18.0065 4.38921 17.5242 5.53877 17.5419 6.79863L17.5477 6.81025H17.5419C17.6007 10.9963 20.0355 13.6089 22.4527 16.1983C24.6699 18.5787 26.8753 20.9475 27.5751 24.5006H27.5634ZM20.9177 17.5859C20.5589 17.1969 20.1943 16.8079 19.8414 16.4189C20.1237 16.866 20.406 17.313 20.6824 17.7659C21.9233 19.7805 23.1643 21.7893 25.0286 23.2233C24.1464 21.0578 22.5409 19.3276 20.9235 17.5917L20.9177 17.5859Z" fill="#C8AC71"/>
</svg>
