<?xml version="1.0" encoding="utf-8"?>
<!-- Generator: Adobe Illustrator 17.0.0, SVG Export Plug-In . SVG Version: 6.00 Build 0)  -->
<!DOCTYPE svg PUBLIC "-//W3C//DTD SVG 1.1//EN" "http://www.w3.org/Graphics/SVG/1.1/DTD/svg11.dtd">
<svg version="1.1" id="Слой_1" xmlns="http://www.w3.org/2000/svg" xmlns:xlink="http://www.w3.org/1999/xlink" x="0px" y="0px"
	 width="53.01px" height="24.66px" viewBox="0 0 53.01 24.66" enable-background="new 0 0 53.01 24.66" xml:space="preserve">
<polygon points="17.007,2.111 14.056,22.957 14.319,24.649 10.482,24.649 10.745,22.957 8.832,9.828 6.974,22.957 
	7.236,24.649 3.4,24.649 3.662,22.957 0.646,2.147 0.001,0.011 3.488,0.011 3.28,1.043 5.291,16.092 7.302,1.043 7.061,0.011 
	10.581,0.011 10.34,1.043 12.373,16.092 14.384,1.043 14.144,0.011 17.663,0.011 "/>
<polygon points="28.56,24.649 20.144,24.649 20.494,23.125 20.494,1.499 20.144,0.011 28.56,0.011 29.063,3.419 
	27.62,3.059 23.609,3.059 23.281,3.419 23.281,10.428 23.609,10.788 24.734,10.788 26.122,10.404 26.122,14.268 24.734,13.884 
	23.609,13.884 23.281,14.244 23.281,21.216 23.609,21.577 27.62,21.577 29.063,21.216 "/>
<path d="M32.068,1.499l-0.35-1.488h7.356l1.421,1.524v9.241L39.052,12.3l1.443,1.56v9.276l-1.421,1.524h-7.356
	l0.35-1.524V1.499z M34.877,3.407v7.008l0.328,0.36h2.153l0.328-0.36V3.407l-0.328-0.36h-2.153L34.877,3.407z M37.686,14.208
	l-0.328-0.36h-2.153l-0.328,0.36v6.973l0.328,0.36h2.153l0.328-0.36V14.208z"/>
<polygon points="53.009,18.492 52.659,19.98 52.659,24.649 44.244,24.649 44.244,12.324 45.632,10.8 49.533,10.8 
	49.861,10.44 49.861,3.467 49.533,3.107 47.347,3.107 47.02,3.467 47.02,4.668 47.402,6.156 43.883,6.156 44.233,4.668 
	44.233,1.559 45.621,-0.001 51.227,-0.001 52.648,1.559 52.648,12.324 51.227,13.884 47.326,13.884 46.998,14.244 46.998,21.181 
	47.326,21.541 49.512,21.541 49.839,21.181 49.839,19.98 49.49,18.492 "/>
</svg>
