<svg width="15" height="16" viewBox="0 0 15 16" fill="none" xmlns="http://www.w3.org/2000/svg">
<path d="M13.7312 12.0251C13.7312 12.2501 13.6812 12.4813 13.575 12.7063C13.4687 12.9313 13.3312 13.1438 13.15 13.3438C12.8437 13.6813 12.5062 13.9251 12.125 14.0813C11.75 14.2376 11.3437 14.3188 10.9062 14.3188C10.2687 14.3188 9.5875 14.1688 8.86875 13.8626C8.15 13.5563 7.43125 13.1438 6.71875 12.6251C6 12.1001 5.31875 11.5188 4.66875 10.8751C4.025 10.2251 3.44375 9.54385 2.925 8.83135C2.4125 8.11885 2 7.40635 1.7 6.7001C1.4 5.9876 1.25 5.30635 1.25 4.65635C1.25 4.23135 1.325 3.8251 1.475 3.4501C1.625 3.06885 1.8625 2.71885 2.19375 2.40635C2.59375 2.0126 3.03125 1.81885 3.49375 1.81885C3.66875 1.81885 3.84375 1.85635 4 1.93135C4.1625 2.00635 4.30625 2.11885 4.41875 2.28135L5.86875 4.3251C5.98125 4.48135 6.0625 4.6251 6.11875 4.7626C6.175 4.89385 6.20625 5.0251 6.20625 5.14385C6.20625 5.29385 6.1625 5.44385 6.075 5.5876C5.99375 5.73135 5.875 5.88135 5.725 6.03135L5.25 6.5251C5.18125 6.59385 5.15 6.6751 5.15 6.7751C5.15 6.8251 5.15625 6.86885 5.16875 6.91885C5.1875 6.96885 5.20625 7.00635 5.21875 7.04385C5.33125 7.2501 5.525 7.51885 5.8 7.84385C6.08125 8.16885 6.38125 8.5001 6.70625 8.83135C7.04375 9.1626 7.36875 9.46885 7.7 9.7501C8.025 10.0251 8.29375 10.2126 8.50625 10.3251C8.5375 10.3376 8.575 10.3563 8.61875 10.3751C8.66875 10.3938 8.71875 10.4001 8.775 10.4001C8.88125 10.4001 8.9625 10.3626 9.03125 10.2938L9.50625 9.8251C9.6625 9.66885 9.8125 9.5501 9.95625 9.4751C10.1 9.3876 10.2437 9.34385 10.4 9.34385C10.5187 9.34385 10.6437 9.36885 10.7812 9.4251C10.9187 9.48135 11.0625 9.5626 11.2187 9.66885L13.2875 11.1376C13.45 11.2501 13.5625 11.3813 13.6312 11.5376C13.6937 11.6938 13.7312 11.8501 13.7312 12.0251Z" stroke="black" stroke-miterlimit="10"/>
</svg>
