<svg width="24" height="25" viewBox="0 0 24 25" fill="none" xmlns="http://www.w3.org/2000/svg">
<path d="M6.9 20.6688C8.4 21.5688 10.2 22.0688 12 22.0688C17.5 22.0688 22 17.5688 22 12.0688C22 6.56885 17.5 2.06885 12 2.06885C6.5 2.06885 2 6.56885 2 12.0688C2 13.8688 2.5 15.5688 3.3 17.0688L2.44044 20.3748C2.24572 21.1238 2.93892 21.8006 3.68299 21.588L6.9 20.6688Z" stroke="black" stroke-miterlimit="10" stroke-linecap="round" stroke-linejoin="round"/>
<path d="M16.5 14.9173C16.5 15.0793 16.4639 15.2458 16.3873 15.4078C16.3107 15.5698 16.2116 15.7228 16.0809 15.8668C15.86 16.1098 15.6167 16.2853 15.3418 16.3978C15.0714 16.5103 14.7784 16.5688 14.4629 16.5688C14.0033 16.5688 13.512 16.4608 12.9937 16.2403C12.4755 16.0198 11.9572 15.7228 11.4434 15.3493C10.9251 14.9713 10.4339 14.5528 9.9652 14.0893C9.501 13.6213 9.08187 13.1308 8.70781 12.6178C8.33826 12.1048 8.04081 11.5918 7.82449 11.0833C7.60816 10.5703 7.5 10.0798 7.5 9.61185C7.5 9.30585 7.55408 9.01335 7.66224 8.74335C7.77041 8.46885 7.94166 8.21685 8.18052 7.99185C8.46895 7.70835 8.78443 7.56885 9.11793 7.56885C9.24412 7.56885 9.37031 7.59585 9.48297 7.64985C9.60015 7.70385 9.70381 7.78485 9.78493 7.90185L10.8305 9.37335C10.9116 9.48585 10.9702 9.58935 11.0108 9.68835C11.0513 9.78285 11.0739 9.87735 11.0739 9.96285C11.0739 10.0708 11.0423 10.1788 10.9792 10.2823C10.9206 10.3858 10.835 10.4938 10.7268 10.6018L10.3843 10.9573C10.3348 11.0068 10.3122 11.0653 10.3122 11.1373C10.3122 11.1733 10.3167 11.2048 10.3257 11.2408C10.3393 11.2768 10.3528 11.3038 10.3618 11.3308C10.4429 11.4793 10.5826 11.6728 10.7809 11.9068C10.9837 12.1408 11.2 12.3793 11.4344 12.6178C11.6778 12.8563 11.9121 13.0768 12.151 13.2793C12.3853 13.4773 12.5791 13.6123 12.7323 13.6933C12.7549 13.7023 12.7819 13.7158 12.8135 13.7293C12.8495 13.7428 12.8856 13.7473 12.9261 13.7473C13.0028 13.7473 13.0613 13.7203 13.1109 13.6708L13.4534 13.3333C13.5661 13.2208 13.6743 13.1353 13.7779 13.0813C13.8816 13.0183 13.9852 12.9868 14.0979 12.9868C14.1835 12.9868 14.2737 13.0048 14.3728 13.0453C14.472 13.0858 14.5756 13.1443 14.6883 13.2208L16.18 14.2783C16.2972 14.3593 16.3783 14.4538 16.4279 14.5663C16.473 14.6788 16.5 14.7913 16.5 14.9173Z" stroke="black" stroke-miterlimit="10"/>
</svg>
