<svg width="100" height="100" viewBox="0 0 100 100" fill="none" xmlns="http://www.w3.org/2000/svg">
<path fill-rule="evenodd" clip-rule="evenodd" d="M62.5 20.8334H41.6667C32.4619 20.8334 25 28.2953 25 37.5V62.5C25 71.7048 32.4619 79.1667 41.6667 79.1667H62.5C71.7047 79.1667 79.1667 71.7048 79.1667 62.5V37.5C79.1667 28.2953 71.7047 20.8334 62.5 20.8334Z" stroke="white" stroke-width="3" stroke-linecap="round" stroke-linejoin="round"/>
<path d="M64.582 39C65.4105 39 66.082 38.3284 66.082 37.5C66.082 36.6716 65.4105 36 64.582 36V39ZM39.582 36C38.7536 36 38.082 36.6716 38.082 37.5C38.082 38.3284 38.7536 39 39.582 39V36ZM64.582 51.5C65.4105 51.5 66.082 50.8284 66.082 50C66.082 49.1716 65.4105 48.5 64.582 48.5V51.5ZM39.582 48.5C38.7536 48.5 38.082 49.1716 38.082 50C38.082 50.8284 38.7536 51.5 39.582 51.5V48.5ZM52.082 64C52.9105 64 53.582 63.3284 53.582 62.5C53.582 61.6716 52.9105 61 52.082 61V64ZM39.582 61C38.7536 61 38.082 61.6716 38.082 62.5C38.082 63.3284 38.7536 64 39.582 64V61ZM64.582 36H39.582V39H64.582V36ZM64.582 48.5H39.582V51.5H64.582V48.5ZM52.082 61H39.582V64H52.082V61Z" fill="white"/>
</svg>
