<svg width="100" height="100" viewBox="0 0 100 100" fill="none" xmlns="http://www.w3.org/2000/svg">
<path fill-rule="evenodd" clip-rule="evenodd" d="M55.8283 30.175C55.7893 33.3872 53.1606 35.9633 49.9484 35.9374C46.7361 35.9114 44.1493 33.2932 44.1622 30.0809C44.175 26.8685 46.7826 24.2711 49.995 24.2709C51.5517 24.2797 53.041 24.9068 54.1351 26.0142C55.2292 27.1216 55.8383 28.6184 55.8283 30.175V30.175Z" stroke="white" stroke-width="3" stroke-linecap="round" stroke-linejoin="round"/>
<path d="M39.4393 46.4333C40.2678 46.4333 40.9393 45.7618 40.9393 44.9333C40.9393 44.1049 40.2678 43.4333 39.4393 43.4333V46.4333ZM24.9935 44.9333V43.4333C24.2277 43.4333 23.5849 44.0102 23.5022 44.7715L24.9935 44.9333ZM21.4189 63.9715C21.3295 64.7951 21.9248 65.5352 22.7483 65.6246C23.5719 65.714 24.312 65.1188 24.4014 64.2952L21.4189 63.9715ZM38.4802 46.1168C39.1154 46.6486 40.0615 46.5647 40.5932 45.9294C41.125 45.2942 41.0411 44.3481 40.4058 43.8164L38.4802 46.1168ZM38.7014 44.3458L37.7212 45.4812C37.7269 45.4862 37.7327 45.4911 37.7385 45.496L38.7014 44.3458ZM38.7014 17.2208L37.7487 16.0621C37.7394 16.0697 37.7303 16.0775 37.7212 16.0853L38.7014 17.2208ZM61.2889 17.2208L62.269 16.0853C62.2553 16.0735 62.2414 16.0619 62.2273 16.0506L61.2889 17.2208ZM61.2889 44.3458L62.2517 45.496C62.2575 45.4911 62.2633 45.4862 62.269 45.4812L61.2889 44.3458ZM59.5844 43.8164C58.9491 44.3481 58.8652 45.2942 59.397 45.9294C59.9287 46.5647 60.8748 46.6486 61.51 46.1168L59.5844 43.8164ZM40.4007 43.8133C39.7638 43.2835 38.8181 43.3703 38.2883 44.0071C37.7585 44.644 37.8452 45.5898 38.4821 46.1196L40.4007 43.8133ZM43.7613 50.5112C44.3981 51.0411 45.3439 50.9543 45.8737 50.3174C46.4035 49.6805 46.3167 48.7347 45.6799 48.2049L43.7613 50.5112ZM60.5506 43.4291C59.7222 43.4291 59.0506 44.1007 59.0506 44.9291C59.0506 45.7576 59.7222 46.4291 60.5506 46.4291V43.4291ZM74.9964 44.9291L76.4876 44.7671C76.4049 44.0058 75.7621 43.4291 74.9964 43.4291V44.9291ZM75.5885 64.2579C75.6781 65.0815 76.4183 65.6765 77.2419 65.587C78.0654 65.4975 78.6605 64.7573 78.571 63.9337L75.5885 64.2579ZM61.5145 46.078C62.149 45.5454 62.2317 44.5993 61.6991 43.9647C61.1665 43.3302 60.2203 43.2476 59.5858 43.7801L61.5145 46.078ZM49.996 53.7874L49.0319 54.9365C49.5896 55.4044 50.4027 55.4044 50.9603 54.9364L49.996 53.7874ZM45.6809 48.2091C45.0463 47.6767 44.1001 47.7595 43.5677 48.3941C43.0352 49.0288 43.118 49.9749 43.7527 50.5074L45.6809 48.2091ZM24.4046 64.2954C24.4941 63.4718 23.8991 62.7316 23.0755 62.642C22.2519 62.5525 21.5117 63.1476 21.4222 63.9712L24.4046 64.2954ZM20.8301 83.2999L19.3389 83.1378C19.2928 83.5614 19.4291 83.9845 19.7136 84.3017C19.9981 84.6188 20.404 84.7999 20.8301 84.7999V83.2999ZM45.8301 84.7999C46.6585 84.7999 47.3301 84.1284 47.3301 83.2999C47.3301 82.4715 46.6585 81.7999 45.8301 81.7999V84.7999ZM22.0695 62.891C21.3834 63.3553 21.2036 64.2879 21.6679 64.974C22.1322 65.6601 23.0648 65.8399 23.7508 65.3756L22.0695 62.891ZM34.655 57.9964C35.3411 57.5321 35.5209 56.5996 35.0566 55.9135C34.5923 55.2274 33.6597 55.0476 32.9736 55.5119L34.655 57.9964ZM45.5593 50.6003C46.2453 50.1359 46.4249 49.2033 45.9605 48.5173C45.4961 47.8313 44.5635 47.6516 43.8775 48.1161L45.5593 50.6003ZM32.9775 55.4952C32.2914 55.9596 32.1118 56.8922 32.5762 57.5783C33.0407 58.2643 33.9733 58.4439 34.6593 57.9795L32.9775 55.4952ZM35.1851 56.1194C34.8437 55.3646 33.9551 55.0294 33.2003 55.3708C32.4454 55.7121 32.1103 56.6008 32.4516 57.3556L35.1851 56.1194ZM44.4641 83.9181C44.8055 84.6729 45.6941 85.0081 46.4489 84.6668C47.2038 84.3254 47.539 83.4368 47.1976 82.6819L44.4641 83.9181ZM45.8301 81.7999C45.0017 81.7999 44.3301 82.4715 44.3301 83.2999C44.3301 84.1284 45.0017 84.7999 45.8301 84.7999V81.7999ZM58.3301 84.7999C59.1585 84.7999 59.8301 84.1284 59.8301 83.2999C59.8301 82.4715 59.1585 81.7999 58.3301 81.7999V84.7999ZM58.3301 81.7999C57.5017 81.7999 56.8301 82.4715 56.8301 83.2999C56.8301 84.1284 57.5017 84.7999 58.3301 84.7999V81.7999ZM79.1634 83.2999V84.7999C79.5895 84.7999 79.9954 84.6188 80.2799 84.3017C80.5644 83.9845 80.7007 83.5614 80.6546 83.1378L79.1634 83.2999ZM78.5713 63.9712C78.4818 63.1476 77.7416 62.5525 76.918 62.642C76.0944 62.7316 75.4993 63.4718 75.5889 64.2954L78.5713 63.9712ZM57.2578 82.251C56.6785 82.8432 56.6889 83.7929 57.2811 84.3722C57.8733 84.9515 58.823 84.9411 59.4023 84.3489L57.2578 82.251ZM78.1523 65.1822C78.7316 64.59 78.7212 63.6403 78.129 63.061C77.5368 62.4817 76.5871 62.4921 76.0078 63.0843L78.1523 65.1822ZM39.4393 43.4333H24.9935V46.4333H39.4393V43.4333ZM23.5022 44.7715L21.4189 63.9715L24.4014 64.2952L26.4847 45.0952L23.5022 44.7715ZM40.4058 43.8164L39.6642 43.1956L37.7385 45.496L38.4802 46.1168L40.4058 43.8164ZM39.6815 43.2103C36.0689 40.0918 33.9922 35.5557 33.9922 30.7833H30.9922C30.9922 36.4278 33.4484 41.7929 37.7212 45.4812L39.6815 43.2103ZM33.9922 30.7833C33.9922 26.0109 36.0689 21.4747 39.6815 18.3562L37.7212 16.0853C33.4484 19.7737 30.9922 25.1388 30.9922 30.7833H33.9922ZM39.654 18.3794C43.6725 15.0753 47.2172 13.8672 50.466 14.0115C53.7446 14.1571 56.9829 15.6905 60.3505 18.391L62.2273 16.0506C58.5906 13.1343 54.754 11.199 50.5992 11.0144C46.4147 10.8286 42.1677 12.4287 37.7487 16.0621L39.654 18.3794ZM60.3087 18.3562C63.9213 21.4747 65.998 26.0109 65.998 30.7833H68.998C68.998 25.1388 66.5418 19.7737 62.269 16.0853L60.3087 18.3562ZM65.998 30.7833C65.998 35.5557 63.9213 40.0918 60.3087 43.2103L62.269 45.4812C66.5418 41.7929 68.998 36.4278 68.998 30.7833H65.998ZM60.326 43.1956L59.5844 43.8164L61.51 46.1168L62.2517 45.496L60.326 43.1956ZM38.4821 46.1196L43.7613 50.5112L45.6799 48.2049L40.4007 43.8133L38.4821 46.1196ZM60.5506 46.4291H74.9964V43.4291H60.5506V46.4291ZM73.5052 45.0912L75.5885 64.2579L78.571 63.9337L76.4876 44.7671L73.5052 45.0912ZM59.5858 43.7801L49.0316 52.6385L50.9603 54.9364L61.5145 46.078L59.5858 43.7801ZM50.9601 52.6383L45.6809 48.2091L43.7527 50.5074L49.0319 54.9365L50.9601 52.6383ZM21.4222 63.9712L19.3389 83.1378L22.3213 83.462L24.4046 64.2954L21.4222 63.9712ZM20.8301 84.7999H45.8301V81.7999H20.8301V84.7999ZM23.7508 65.3756L34.655 57.9964L32.9736 55.5119L22.0695 62.891L23.7508 65.3756ZM43.8775 48.1161L32.9775 55.4952L34.6593 57.9795L45.5593 50.6003L43.8775 48.1161ZM32.4516 57.3556L44.4641 83.9181L47.1976 82.6819L35.1851 56.1194L32.4516 57.3556ZM45.8301 84.7999H58.3301V81.7999H45.8301V84.7999ZM58.3301 84.7999H79.1634V81.7999H58.3301V84.7999ZM80.6546 83.1378L78.5713 63.9712L75.5889 64.2954L77.6722 83.462L80.6546 83.1378ZM59.4023 84.3489L78.1523 65.1822L76.0078 63.0843L57.2578 82.251L59.4023 84.3489Z" fill="white"/>
</svg>
