<svg width="100" height="100" viewBox="0 0 100 100" fill="none" xmlns="http://www.w3.org/2000/svg">
<path d="M41.8847 36.1417C41.8847 35.3133 41.2131 34.6417 40.3847 34.6417C39.5562 34.6417 38.8847 35.3133 38.8847 36.1417H41.8847ZM61.1097 36.1417C61.1097 35.3133 60.4381 34.6417 59.6097 34.6417C58.7812 34.6417 58.1097 35.3133 58.1097 36.1417H61.1097ZM38.885 36.1159C38.8708 36.9442 39.5307 37.6272 40.359 37.6414C41.1873 37.6557 41.8703 36.9957 41.8845 36.1674L38.885 36.1159ZM41.9262 33.7424C41.9404 32.9141 41.2805 32.2311 40.4522 32.2169C39.6239 32.2026 38.9409 32.8626 38.9267 33.6909L41.9262 33.7424ZM41.8405 36.5066C42.042 35.7031 41.554 34.8883 40.7504 34.6868C39.9469 34.4853 39.1321 34.9733 38.9306 35.7768L41.8405 36.5066ZM39.7314 38.7501L41.1827 39.129C41.1839 39.1243 41.1851 39.1196 41.1863 39.115L39.7314 38.7501ZM33.7859 45.3163L34.3067 46.723L33.7859 45.3163ZM25.8528 42.9716C25.172 42.4995 24.2375 42.6687 23.7654 43.3495C23.2933 44.0302 23.4625 44.9648 24.1433 45.4369L25.8528 42.9716ZM26.4971 44.2196C26.5056 43.3912 25.8409 42.7128 25.0125 42.7043C24.1841 42.6958 23.5057 43.3605 23.4972 44.1888L26.4971 44.2196ZM24.768 66.5667L26.2679 66.5847L26.2679 66.5821L24.768 66.5667ZM27.1731 72.524L26.1062 73.5783H26.1062L27.1731 72.524ZM33.1013 75V73.5H33.1012L33.1013 75ZM41.6638 76.5C42.4923 76.5 43.1638 75.8285 43.1638 75C43.1638 74.1716 42.4923 73.5 41.6638 73.5V76.5ZM24.1387 45.4343C24.818 45.9084 25.7531 45.742 26.2272 45.0627C26.7013 44.3834 26.535 43.4483 25.8556 42.9742L24.1387 45.4343ZM21.1597 33.7167L19.7535 33.1944C19.7369 33.2393 19.7223 33.285 19.71 33.3312L21.1597 33.7167ZM24.6388 24.35L26.045 24.8723C26.0594 24.8334 26.0723 24.7939 26.0834 24.7539L24.6388 24.35ZM29.2597 20.8334V19.3334L29.2553 19.3334L29.2597 20.8334ZM70.7305 20.8334L70.7348 19.3334H70.7305V20.8334ZM75.3513 24.35L73.9067 24.7539C73.9179 24.7938 73.9307 24.8333 73.9451 24.8721L75.3513 24.35ZM78.8305 33.7209L80.2802 33.3356C80.2679 33.2893 80.2534 33.2437 80.2367 33.1988L78.8305 33.7209ZM74.138 42.9746C73.4589 43.4491 73.2931 44.3843 73.7676 45.0634C74.2421 45.7424 75.1773 45.9083 75.8563 45.4338L74.138 42.9746ZM40.1641 75C40.1641 75.8285 40.8356 76.5 41.6641 76.5C42.4925 76.5 43.1641 75.8285 43.1641 75H40.1641ZM56.8307 75C56.8307 75.8285 57.5023 76.5 58.3307 76.5C59.1592 76.5 59.8307 75.8285 59.8307 75H56.8307ZM41.6641 73.5001C40.8356 73.5001 40.1641 74.1717 40.1641 75.0001C40.1641 75.8285 40.8356 76.5001 41.6641 76.5001V73.5001ZM58.3307 76.5001C59.1592 76.5001 59.8307 75.8285 59.8307 75.0001C59.8307 74.1717 59.1592 73.5001 58.3307 73.5001V76.5001ZM58.1097 36.1597C58.1197 36.9881 58.7993 37.6515 59.6277 37.6416C60.456 37.6316 61.1195 36.952 61.1095 36.1236L58.1097 36.1597ZM61.0804 33.6986C61.0704 32.8703 60.3908 32.2068 59.5624 32.2168C58.7341 32.2267 58.0706 32.9063 58.0806 33.7347L61.0804 33.6986ZM61.0756 35.7752C60.8732 34.9719 60.0579 34.4848 59.2545 34.6872C58.4512 34.8896 57.9641 35.705 58.1666 36.5083L61.0756 35.7752ZM60.2753 38.7376L58.8207 39.1041L58.8238 39.116L60.2753 38.7376ZM66.2124 45.3036L65.6902 46.7098L66.2124 45.3036ZM75.8487 45.4383C76.5303 44.9674 76.7011 44.0331 76.2302 43.3516C75.7593 42.67 74.825 42.4992 74.1434 42.9701L75.8487 45.4383ZM76.4967 44.1897C76.4887 43.3613 75.8106 42.6963 74.9822 42.7043C74.1538 42.7123 73.4888 43.3904 73.4968 44.2188L76.4967 44.1897ZM75.2134 66.5667L73.7135 66.5813L73.7135 66.5847L75.2134 66.5667ZM72.8083 72.524L71.7413 71.4697L72.8083 72.524ZM66.8801 75.0001L66.8802 73.5001H66.8801V75.0001ZM58.3301 73.5001C57.5017 73.5001 56.8301 74.1716 56.8301 75.0001C56.8301 75.8285 57.5017 76.5001 58.3301 76.5001V73.5001ZM38.8847 36.1417C38.8847 42.279 43.8599 47.2542 49.9972 47.2542V44.2542C45.5168 44.2542 41.8847 40.6221 41.8847 36.1417H38.8847ZM49.9972 47.2542C56.1344 47.2542 61.1097 42.279 61.1097 36.1417H58.1097C58.1097 40.6221 54.4776 44.2542 49.9972 44.2542V47.2542ZM41.8845 36.1674L41.9262 33.7424L38.9267 33.6909L38.885 36.1159L41.8845 36.1674ZM38.9306 35.7768L38.2764 38.3852L41.1863 39.115L41.8405 36.5066L38.9306 35.7768ZM38.28 38.3711C37.6131 40.9254 35.7409 42.9931 33.2652 43.9096L34.3067 46.723C37.7012 45.4663 40.2683 42.6313 41.1827 39.129L38.28 38.3711ZM33.2652 43.9096C30.7895 44.8261 28.0222 44.4759 25.8528 42.9716L24.1433 45.4369C27.1178 47.4995 30.9121 47.9796 34.3067 46.723L33.2652 43.9096ZM23.4972 44.1888L23.2681 66.5513L26.2679 66.5821L26.4971 44.2196L23.4972 44.1888ZM23.2681 66.5487C23.2366 69.1771 24.2586 71.7086 26.1062 73.5783L28.2401 71.4697C26.9562 70.1704 26.246 68.4112 26.2679 66.5847L23.2681 66.5487ZM26.1062 73.5783C27.9537 75.448 30.4729 76.5002 33.1014 76.5L33.1012 73.5C31.2746 73.5002 29.524 72.769 28.2401 71.4697L26.1062 73.5783ZM33.1013 76.5H41.6638V73.5H33.1013V76.5ZM25.8556 42.9742C23.0167 40.9928 21.7196 37.4479 22.6093 34.1022L19.71 33.3312C18.4963 37.8954 20.2659 42.7313 24.1387 45.4343L25.8556 42.9742ZM22.5658 34.239L26.045 24.8723L23.2327 23.8277L19.7535 33.1944L22.5658 34.239ZM26.0834 24.7539C26.4826 23.3263 27.7816 22.3377 29.264 22.3334L29.2553 19.3334C26.4304 19.3416 23.9549 21.2256 23.1942 23.9462L26.0834 24.7539ZM29.2597 22.3334H70.7305V19.3334H29.2597V22.3334ZM70.7262 22.3334C72.2085 22.3377 73.5076 23.3263 73.9067 24.7539L76.7959 23.9462C76.0353 21.2256 73.5597 19.3416 70.7348 19.3334L70.7262 22.3334ZM73.9451 24.8721L77.4243 34.243L80.2367 33.1988L76.7575 23.8279L73.9451 24.8721ZM77.3808 34.1062C78.2696 37.45 76.9741 40.9929 74.138 42.9746L75.8563 45.4338C79.7254 42.7303 81.4926 37.8972 80.2802 33.3356L77.3808 34.1062ZM43.1641 75V62.5H40.1641V75H43.1641ZM43.1641 62.5C43.1641 61.0273 44.358 59.8334 45.8307 59.8334V56.8334C42.7011 56.8334 40.1641 59.3704 40.1641 62.5H43.1641ZM45.8307 59.8334H54.1641V56.8334H45.8307V59.8334ZM54.1641 59.8334C55.6368 59.8334 56.8307 61.0273 56.8307 62.5H59.8307C59.8307 59.3704 57.2937 56.8334 54.1641 56.8334V59.8334ZM56.8307 62.5V75H59.8307V62.5H56.8307ZM41.6641 76.5001H58.3307V73.5001H41.6641V76.5001ZM61.1095 36.1236L61.0804 33.6986L58.0806 33.7347L58.1097 36.1597L61.1095 36.1236ZM58.1666 36.5083L58.8207 39.1041L61.7298 38.371L61.0756 35.7752L58.1666 36.5083ZM58.8238 39.116C59.7363 42.616 62.2994 45.4506 65.6902 46.7098L66.7346 43.8975C64.2616 42.9791 62.3923 40.9118 61.7267 38.3591L58.8238 39.116ZM65.6902 46.7098C69.081 47.969 72.8729 47.4944 75.8487 45.4383L74.1434 42.9701C71.9731 44.4697 69.2076 44.8158 66.7346 43.8975L65.6902 46.7098ZM73.4968 44.2188L73.7135 66.5813L76.7133 66.5522L76.4967 44.1897L73.4968 44.2188ZM73.7135 66.5847C73.7354 68.4112 73.0252 70.1704 71.7413 71.4697L73.8752 73.5784C75.7228 71.7086 76.7448 69.1771 76.7133 66.5487L73.7135 66.5847ZM71.7413 71.4697C70.4574 72.769 68.7068 73.5002 66.8802 73.5001L66.88 76.5001C69.5085 76.5002 72.0277 75.4481 73.8752 73.5784L71.7413 71.4697ZM66.8801 73.5001H58.3301V76.5001H66.8801V73.5001Z" fill="white"/>
</svg>
