<svg width="100" height="100" viewBox="0 0 100 100" fill="none" xmlns="http://www.w3.org/2000/svg">
<path fill-rule="evenodd" clip-rule="evenodd" d="M37.1578 70.6707C37.2187 74.1806 35.1513 77.379 31.9259 78.7646C28.7004 80.1502 24.9574 79.448 22.4535 76.9875C19.9496 74.5271 19.182 70.7969 20.5109 67.5477C21.8399 64.2985 25.0015 62.1754 28.512 62.1749C30.7851 62.1549 32.9731 63.0388 34.5945 64.6321C36.216 66.2254 37.138 68.3976 37.1578 70.6707Z" stroke="white" stroke-width="3" stroke-linecap="round" stroke-linejoin="round"/>
<path fill-rule="evenodd" clip-rule="evenodd" d="M78.3336 70.6707C78.3945 74.1806 76.3271 77.379 73.1016 78.7646C69.8762 80.1502 66.1332 79.448 63.6293 76.9875C61.1254 74.5271 60.3578 70.7969 61.6867 67.5477C63.0157 64.2985 66.1773 62.1754 69.6878 62.1749C71.9609 62.1549 74.1489 63.0388 75.7703 64.6321C77.3918 66.2254 78.3138 68.3976 78.3336 70.6707V70.6707Z" stroke="white" stroke-width="3" stroke-linecap="round" stroke-linejoin="round"/>
<path fill-rule="evenodd" clip-rule="evenodd" d="M12.5 36.4666V55.7166H38.1583V36.4666H12.5Z" stroke="white" stroke-width="3" stroke-linecap="round" stroke-linejoin="round"/>
<path d="M60.0417 72.1709C60.8701 72.1709 61.5417 71.4993 61.5417 70.6709C61.5417 69.8424 60.8701 69.1709 60.0417 69.1709V72.1709ZM37.1583 69.1709C36.3299 69.1709 35.6583 69.8424 35.6583 70.6709C35.6583 71.4993 36.3299 72.1709 37.1583 72.1709V69.1709ZM60.0417 69.1709C59.2132 69.1709 58.5417 69.8424 58.5417 70.6709C58.5417 71.4993 59.2132 72.1709 60.0417 72.1709V69.1709ZM61.0583 72.1709C61.8868 72.1709 62.5583 71.4993 62.5583 70.6709C62.5583 69.8424 61.8868 69.1709 61.0583 69.1709V72.1709ZM58.5423 70.6708C58.5423 71.4993 59.2139 72.1708 60.0423 72.1708C60.8707 72.1708 61.5423 71.4993 61.5423 70.6708H58.5423ZM61.5423 55.7167C61.5423 54.8882 60.8707 54.2167 60.0423 54.2167C59.2139 54.2167 58.5423 54.8882 58.5423 55.7167H61.5423ZM78.334 69.1709C77.5056 69.1709 76.834 69.8424 76.834 70.6709C76.834 71.4993 77.5056 72.1709 78.334 72.1709V69.1709ZM87.5006 61.5042H89.0006C89.0006 61.4125 88.9922 61.321 88.9755 61.2309L87.5006 61.5042ZM86.8589 49.81C86.7079 48.9955 85.9252 48.4575 85.1106 48.6085C84.2961 48.7595 83.7581 49.5422 83.9091 50.3567L86.8589 49.81ZM60.041 30.2834C59.2126 30.2834 58.541 30.9549 58.541 31.7834C58.541 32.6118 59.2126 33.2834 60.041 33.2834V30.2834ZM74.5327 31.7834V33.2834C74.5543 33.2834 74.5759 33.2829 74.5975 33.282L74.5327 31.7834ZM83.241 38.4209L81.7788 38.7555C81.7835 38.7762 81.7887 38.7967 81.7943 38.8171L83.241 38.4209ZM83.6827 40.9209L82.1878 41.0443C82.1919 41.0944 82.1986 41.1443 82.2077 41.1937L83.6827 40.9209ZM83.9035 50.3604C84.0542 51.175 84.8368 51.7132 85.6514 51.5625C86.466 51.4118 87.0042 50.6293 86.8535 49.8147L83.9035 50.3604ZM61.5423 31.7833C61.5423 30.9549 60.8707 30.2833 60.0423 30.2833C59.2139 30.2833 58.5423 30.9549 58.5423 31.7833H61.5423ZM58.5423 50.0833C58.5423 50.9118 59.2139 51.5833 60.0423 51.5833C60.8707 51.5833 61.5423 50.9118 61.5423 50.0833H58.5423ZM58.5413 31.7834C58.5413 32.6118 59.2128 33.2834 60.0413 33.2834C60.8697 33.2834 61.5413 32.6118 61.5413 31.7834H58.5413ZM60.0413 20.8334H61.5413C61.5413 20.0049 60.8697 19.3334 60.0413 19.3334V20.8334ZM28.2871 20.8334V19.3334C27.4587 19.3334 26.7871 20.0049 26.7871 20.8334H28.2871ZM26.7871 36.4667C26.7871 37.2951 27.4587 37.9667 28.2871 37.9667C29.1155 37.9667 29.7871 37.2951 29.7871 36.4667H26.7871ZM61.5423 50.0834C61.5423 49.2549 60.8707 48.5834 60.0423 48.5834C59.2139 48.5834 58.5423 49.2549 58.5423 50.0834H61.5423ZM58.5423 55.7167C58.5423 56.5451 59.2139 57.2167 60.0423 57.2167C60.8707 57.2167 61.5423 56.5451 61.5423 55.7167H58.5423ZM60.041 48.5833C59.2126 48.5833 58.541 49.2549 58.541 50.0833C58.541 50.9118 59.2126 51.5833 60.041 51.5833V48.5833ZM85.3827 51.5833C86.2111 51.5833 86.8827 50.9118 86.8827 50.0833C86.8827 49.2549 86.2111 48.5833 85.3827 48.5833V51.5833ZM19.8708 72.1709C20.6993 72.1709 21.3708 71.4993 21.3708 70.6709C21.3708 69.8424 20.6993 69.1709 19.8708 69.1709V72.1709ZM16.8208 70.6709V69.1709C16.814 69.1709 16.8071 69.1709 16.8002 69.171L16.8208 70.6709ZM13.7881 69.4623L14.8347 68.3878H14.8347L13.7881 69.4623ZM12.5 66.4625H11C11 66.4688 11 66.4752 11.0001 66.4815L12.5 66.4625ZM12.5 55.7167V54.2167C11.6716 54.2167 11 54.8883 11 55.7167H12.5ZM60.0417 57.2167C60.8701 57.2167 61.5417 56.5451 61.5417 55.7167C61.5417 54.8883 60.8701 54.2167 60.0417 54.2167V57.2167ZM60.0417 69.1709H37.1583V72.1709H60.0417V69.1709ZM60.0417 72.1709H61.0583V69.1709H60.0417V72.1709ZM61.5423 70.6708V55.7167H58.5423V70.6708H61.5423ZM78.334 72.1709C84.225 72.1709 89.0006 67.3952 89.0006 61.5042H86.0006C86.0006 65.7384 82.5682 69.1709 78.334 69.1709V72.1709ZM88.9755 61.2309L86.8589 49.81L83.9091 50.3567L86.0258 61.7776L88.9755 61.2309ZM60.041 33.2834H74.5327V30.2834H60.041V33.2834ZM74.5975 33.282C77.9984 33.1348 81.0193 35.4373 81.7788 38.7555L84.7032 38.0862C83.6206 33.3567 79.315 30.075 74.4678 30.2848L74.5975 33.282ZM81.7943 38.8171C81.9939 39.5458 82.1256 40.2914 82.1878 41.0443L85.1776 40.7974C85.1002 39.86 84.9362 38.9318 84.6877 38.0247L81.7943 38.8171ZM82.2077 41.1937L83.9035 50.3604L86.8535 49.8147L85.1577 40.648L82.2077 41.1937ZM58.5423 31.7833V50.0833H61.5423V31.7833H58.5423ZM61.5413 31.7834V20.8334H58.5413V31.7834H61.5413ZM60.0413 19.3334H28.2871V22.3334H60.0413V19.3334ZM26.7871 20.8334V36.4667H29.7871V20.8334H26.7871ZM58.5423 50.0834V55.7167H61.5423V50.0834H58.5423ZM60.041 51.5833H85.3827V48.5833H60.041V51.5833ZM19.8708 69.1709H16.8208V72.1709H19.8708V69.1709ZM16.8002 69.171C16.067 69.1811 15.36 68.8993 14.8347 68.3878L12.7416 70.5369C13.8372 71.604 15.3122 72.1918 16.8415 72.1707L16.8002 69.171ZM14.8347 68.3878C14.3095 67.8762 14.0091 67.1768 13.9999 66.4436L11.0001 66.4815C11.0194 68.0108 11.6459 69.4697 12.7416 70.5369L14.8347 68.3878ZM14 66.4625V55.7167H11V66.4625H14ZM12.5 57.2167H60.0417V54.2167H12.5V57.2167Z" fill="white"/>
</svg>
