<svg width="100" height="100" viewBox="0 0 100 100" fill="none" xmlns="http://www.w3.org/2000/svg">
<path fill-rule="evenodd" clip-rule="evenodd" d="M20.832 50.0001V62.5001C20.832 74.006 30.1594 83.3334 41.6654 83.3334H58.332C63.8574 83.3334 69.1564 81.1385 73.0634 77.2315C76.9704 73.3245 79.1654 68.0254 79.1654 62.5001V50.0001C79.1709 44.4731 76.9778 39.1708 73.0695 35.2626C69.1613 31.3544 63.8591 29.1612 58.332 29.1668H41.6654C36.1383 29.1612 30.8361 31.3544 26.9279 35.2626C23.0197 39.1708 20.8265 44.4731 20.832 50.0001V50.0001Z" stroke="white" stroke-width="3" stroke-linecap="round" stroke-linejoin="round"/>
<path d="M36.0013 37.5C36.0013 38.3285 36.6729 39 37.5013 39C38.3297 39 39.0013 38.3285 39.0013 37.5H36.0013ZM39.0013 20.8334C39.0013 20.0049 38.3297 19.3334 37.5013 19.3334C36.6729 19.3334 36.0013 20.0049 36.0013 20.8334H39.0013ZM61.0013 37.5C61.0013 38.3285 61.6729 39 62.5013 39C63.3297 39 64.0013 38.3285 64.0013 37.5H61.0013ZM64.0013 20.8334C64.0013 20.0049 63.3297 19.3334 62.5013 19.3334C61.6729 19.3334 61.0013 20.0049 61.0013 20.8334H64.0013ZM38.5607 57.2727C37.9749 56.6869 37.0251 56.6869 36.4393 57.2727C35.8536 57.8585 35.8536 58.8083 36.4393 59.394L38.5607 57.2727ZM45.8333 66.6667L44.7727 67.7274C45.3585 68.3132 46.3082 68.3132 46.894 67.7274L45.8333 66.6667ZM63.5607 51.0607C64.1464 50.4749 64.1464 49.5252 63.5607 48.9394C62.9749 48.3536 62.0251 48.3536 61.4393 48.9394L63.5607 51.0607ZM39.0013 37.5V20.8334H36.0013V37.5H39.0013ZM64.0013 37.5V20.8334H61.0013V37.5H64.0013ZM36.4393 59.394L44.7727 67.7274L46.894 65.606L38.5607 57.2727L36.4393 59.394ZM46.894 67.7274L63.5607 51.0607L61.4393 48.9394L44.7727 65.606L46.894 67.7274Z" fill="white"/>
</svg>
