<svg width="26" height="26" viewBox="0 0 26 26" fill="none" xmlns="http://www.w3.org/2000/svg">
<path d="M14.1282 14.8906L14.886 14.1329C15.2908 13.728 15.9671 13.6853 16.418 14.0359L18.067 15.4956C18.5518 15.8726 18.6614 16.433 18.2271 16.8673L17.0893 18.005C15.7788 19.3154 12.5376 17.7905 10.3957 15.6484C8.25341 13.506 6.66563 10.2023 7.97603 8.89194L9.11381 7.75403C9.54838 7.31947 10.144 7.503 10.5205 7.98703L11.9452 9.56321C12.2964 10.0148 12.2531 10.6904 11.8482 11.0951L11.0906 11.8528C10.9747 11.9687 10.9428 12.208 11.0238 12.3428C11.0238 12.3428 11.2164 12.6776 11.2951 12.7943C11.5229 13.1319 11.8077 13.483 12.153 13.8283C12.4981 14.1734 12.8495 14.4586 13.1879 14.6868C13.3049 14.7657 13.4113 14.8315 13.5047 14.8848C13.5581 14.9154 13.5936 14.9341 13.6358 14.9559C13.7738 15.0364 14.0142 15.0047 14.1282 14.8906Z"/>
</svg>
