<svg width="22" height="22" viewBox="0 0 22 22" fill="none" xmlns="http://www.w3.org/2000/svg">
<path d="M0 11.6894C0 11.2309 0 10.7729 0 10.3144C0.0126282 10.2518 0.0287004 10.1904 0.0378845 10.1273C0.111358 9.63258 0.153834 9.13099 0.261174 8.64432C1.59804 2.59136 7.61938 -1.1677 13.6505 0.329034C19.39 1.75346 22.9236 7.36164 21.7882 13.1638C20.9243 17.58 17.3396 21.0756 12.8968 21.8309C12.4967 21.8992 12.092 21.9439 11.6897 21.9996C11.231 21.9996 10.773 21.9996 10.3143 21.9996C10.2673 21.9876 10.2202 21.9675 10.1726 21.9646C9.06531 21.8871 7.98904 21.6564 6.96788 21.2266C3.23913 19.6575 0.971221 16.8838 0.173924 12.917C0.0924153 12.5124 0.0568268 12.0986 0 11.6894ZM12.2051 9.30603C12.2051 8.91233 12.2195 8.51806 12.2011 8.12551C12.1822 7.71746 11.9968 7.50282 11.5944 7.48388C10.8591 7.44945 10.1209 7.43912 9.3856 7.45978C9.18355 7.46552 8.96198 7.58546 8.79208 7.71115C8.58773 7.86209 8.63595 8.01073 8.88392 8.07386C9.21512 8.15765 9.42406 8.36425 9.44071 8.69884C9.46941 9.26987 9.47228 9.84263 9.46309 10.4142C9.45965 10.618 9.40454 10.8246 9.34887 11.0231C9.28917 11.2366 9.13246 11.29 8.95337 11.1574C8.82307 11.061 8.70196 10.9434 8.60208 10.8154C8.00052 10.0435 7.5195 9.20043 7.16477 8.28792C7.02643 7.93153 6.77846 7.75247 6.39674 7.75132C5.77395 7.74903 5.15057 7.73985 4.52777 7.74099C4.17705 7.74157 4.03068 7.95621 4.17361 8.27931C4.95828 10.0573 5.8302 11.787 7.07235 13.2987C8.25309 14.7351 9.76904 15.4267 11.6437 15.2672C12.0094 15.2362 12.1604 15.0783 12.208 14.7145C12.2356 14.5021 12.2694 14.2892 12.3188 14.0809C12.3716 13.8571 12.3704 13.5787 12.6477 13.5001C12.9261 13.4215 13.0989 13.6378 13.2676 13.8077C13.6057 14.148 13.9294 14.5021 14.2629 14.8471C14.5109 15.1024 14.8163 15.2752 15.1693 15.289C15.8558 15.3159 16.5441 15.3291 17.23 15.305C17.8643 15.2832 18.0732 14.8442 17.6978 14.3254C17.393 13.9036 17.0503 13.507 16.7031 13.1185C16.4315 12.8149 16.1239 12.5434 15.8392 12.2513C15.605 12.012 15.5826 11.8524 15.7439 11.5574C15.8294 11.4013 15.9316 11.2533 16.0361 11.1087C16.4838 10.4877 16.9533 9.88108 17.3769 9.24405C17.5796 8.93988 17.7127 8.5852 17.8471 8.24086C17.9343 8.01647 17.8195 7.85061 17.587 7.7915C17.5181 7.77428 17.4458 7.76051 17.3746 7.76051C16.5871 7.75821 15.7996 7.75821 15.012 7.75993C14.7761 7.76051 14.6246 7.88447 14.539 8.09796C14.5046 8.18405 14.4707 8.27071 14.4357 8.35679C14.0517 9.29742 13.5586 10.1726 12.8664 10.9244C12.7499 11.0513 12.6471 11.2493 12.4336 11.1735C12.2241 11.0995 12.2155 10.8785 12.2097 10.6989C12.1948 10.2352 12.2046 9.77031 12.2051 9.30603Z" />
</svg>
