<svg width="19" height="19" viewBox="0 0 19 19" xmlns="http://www.w3.org/2000/svg">
<path d="M0.821289 18.5891L2.10614 13.9234C1.31179 12.5539 0.895081 11.003 0.899422 9.41753C0.899422 4.44943 4.96232 0.410156 9.9498 0.410156C12.3719 0.410156 14.6464 1.34761 16.3523 3.04973C18.0626 4.75184 19.0045 7.01556 19.0002 9.42185C19.0002 14.3899 14.9373 18.4292 9.94546 18.4292H9.94112C8.42621 18.4292 6.93735 18.049 5.61343 17.3319L0.821289 18.5891ZM5.84349 15.7032L6.11695 15.8674C7.27158 16.55 8.5955 16.9085 9.94546 16.9129H9.9498C14.0952 16.9129 17.4722 13.5562 17.4722 9.42617C17.4722 7.42597 16.6909 5.54673 15.2715 4.12975C13.8521 2.71276 11.9595 1.93514 9.9498 1.93514C5.80442 1.93082 2.42735 5.28753 2.42735 9.41753C2.42735 10.8302 2.82236 12.2083 3.57764 13.4006L3.75561 13.6858L2.99598 16.4463L5.84349 15.7032Z"/>
<path d="M0.821289 18.5891L2.10614 13.9234C1.31179 12.5539 0.895081 11.003 0.899422 9.41753C0.899422 4.44943 4.96232 0.410156 9.9498 0.410156C12.3719 0.410156 14.6464 1.34761 16.3523 3.04973C18.0626 4.75184 19.0045 7.01556 19.0002 9.42185C19.0002 14.3899 14.9373 18.4292 9.94546 18.4292H9.94112C8.42621 18.4292 6.93735 18.049 5.61343 17.3319L0.821289 18.5891ZM5.84349 15.7032L6.11695 15.8674C7.27158 16.55 8.5955 16.9085 9.94546 16.9129H9.9498C14.0952 16.9129 17.4722 13.5562 17.4722 9.42617C17.4722 7.42597 16.6909 5.54673 15.2715 4.12975C13.8521 2.71276 11.9595 1.93514 9.9498 1.93514C5.80442 1.93082 2.42735 5.28753 2.42735 9.41753C2.42735 10.8302 2.82236 12.2083 3.57764 13.4006L3.75561 13.6858L2.99598 16.4463L5.84349 15.7032Z" fill="url(#paint0_linear_5533_613)"/>
<path d="M7.68784 5.65094C7.51855 5.27509 7.34058 5.26645 7.17998 5.26213C7.04976 5.25781 6.89783 5.25781 6.74591 5.25781C6.59398 5.25781 6.3509 5.31397 6.14255 5.53862C5.93419 5.76326 5.35254 6.30759 5.35254 7.41785C5.35254 8.52379 6.16425 9.59517 6.27711 9.74638C6.38997 9.89758 7.84411 12.2434 10.1403 13.1463C12.0503 13.898 12.4409 13.7468 12.8533 13.7079C13.2657 13.669 14.1902 13.1636 14.3812 12.6365C14.5679 12.1095 14.5679 11.6602 14.5114 11.5651C14.455 11.4701 14.3031 11.4139 14.0774 11.3016C13.8516 11.1893 12.7404 10.645 12.5321 10.5672C12.3237 10.4938 12.1718 10.4549 12.0242 10.6795C11.8723 10.9042 11.4382 11.4096 11.308 11.5608C11.1778 11.712 11.0432 11.7293 10.8175 11.617C10.5918 11.5047 9.86253 11.267 8.99873 10.4981C8.32592 9.9019 7.87015 9.16317 7.73993 8.93852C7.60971 8.71388 7.72691 8.59292 7.83976 8.48059C7.9396 8.38123 8.06548 8.21707 8.17834 8.08747C8.2912 7.95786 8.33026 7.86282 8.40406 7.71162C8.47785 7.56042 8.44312 7.43081 8.38669 7.31849C8.33026 7.21049 7.88751 6.09591 7.68784 5.65094Z"/>
</svg>
