<?xml version="1.0" encoding="utf-8"?>
<!-- Generator: Adobe Illustrator 24.0.1, SVG Export Plug-In . SVG Version: 6.00 Build 0)  -->
<svg version="1.1" id="Слой_1" xmlns="http://www.w3.org/2000/svg" xmlns:xlink="http://www.w3.org/1999/xlink" x="0px" y="0px"
	 width="24px" height="24px" viewBox="0 0 24 24" enable-background="new 0 0 24 24" xml:space="preserve">
<path fill="#003F9B" d="M12,0C5.373,0,0,5.373,0,12h24C24,5.373,18.627,0,12,0z"/>
<path fill="#003F9B" d="M12,24c4.376,0,8.194-2.35,10.29-5.849H1.71C3.806,21.65,7.624,24,12,24z"/>
<path fill="#FFFFFF" d="M1.71,18.151h20.58c0.387-0.647,0.714-1.332,0.976-2.05H0.734C0.996,16.819,1.322,17.504,1.71,18.151z"/>
<path fill="#FFFFFF" d="M23.812,14.05C23.928,13.383,24,12.7,24,12H0c0,0.7,0.072,1.383,0.188,2.05H23.812z"/>
<path fill="#D3202E" d="M0.734,16.1h22.532c0.24-0.659,0.425-1.343,0.547-2.05H0.188C0.31,14.757,0.494,15.441,0.734,16.1z"/>
<polygon id="_x31__5_" fill="#F7D116" points="10.181,7.695 9.904,8.545 9.011,8.545 9.734,9.07 9.458,9.92 10.181,9.395 
	10.904,9.92 10.628,9.07 11.351,8.545 10.457,8.545 "/>
<polygon id="_x31__13_" fill="#F7D116" points="13.797,8.869 13.521,9.719 12.627,9.719 13.35,10.244 13.074,11.094 13.797,10.569 
	14.52,11.094 14.244,10.244 14.967,9.719 14.073,9.719 "/>
<polygon id="_x31__4_" fill="#F7D116" points="6.564,8.869 6.288,9.719 5.395,9.719 6.118,10.244 5.841,11.094 6.564,10.569 
	7.288,11.094 7.011,10.244 7.734,9.719 6.841,9.719 "/>
<polygon id="_x31__9_" fill="#F7D116" points="10.457,20.846 10.181,19.996 9.904,20.846 9.011,20.846 9.734,21.371 9.458,22.221 
	10.181,21.696 10.904,22.221 10.628,21.371 11.351,20.846 "/>
<polygon id="_x31__11_" fill="#F7D116" points="4.778,13.32 5.501,12.795 4.607,12.795 4.331,11.945 4.055,12.795 3.161,12.795 
	3.884,13.32 3.608,14.17 4.331,13.645 5.054,14.17 "/>
<polygon id="_x31__10_" fill="#F7D116" points="16.477,13.32 17.2,12.795 16.306,12.795 16.03,11.945 15.754,12.795 14.86,12.795 
	15.583,13.32 15.307,14.17 16.03,13.645 16.753,14.17 "/>
<polygon id="_x31__3_" fill="#F7D116" points="4.607,16.596 4.331,15.746 4.055,16.596 3.161,16.596 3.884,17.121 3.608,17.971 
	4.331,17.446 5.054,17.971 4.778,17.121 5.501,16.596 "/>
<polygon id="_x31__12_" fill="#F7D116" points="16.311,16.596 16.035,15.746 15.759,16.596 14.865,16.596 15.588,17.121 
	15.312,17.971 16.035,17.446 16.758,17.971 16.482,17.121 17.205,16.596 "/>
<polygon id="_x31__2_" fill="#F7D116" points="14.072,19.671 13.796,18.821 13.52,19.671 12.626,19.671 13.349,20.196 
	13.073,21.046 13.796,20.521 14.519,21.046 14.243,20.196 14.966,19.671 "/>
<polygon id="_x31__1_" fill="#F7D116" points="6.843,19.671 6.567,18.821 6.291,19.671 5.397,19.671 6.12,20.196 5.844,21.046 
	6.567,20.521 7.29,21.046 7.014,20.196 7.737,19.671 "/>
</svg>
