<?xml version="1.0" encoding="utf-8"?>
<!-- Generator: Adobe Illustrator 24.3.0, SVG Export Plug-In . SVG Version: 6.00 Build 0)  -->
<svg version="1.1" id="Слой_1" xmlns="http://www.w3.org/2000/svg" xmlns:xlink="http://www.w3.org/1999/xlink" x="0px" y="0px"
	 viewBox="0 0 24 24" style="enable-background:new 0 0 24 24;" xml:space="preserve">
<style type="text/css">
	.st0{fill:#00AFCA;}
	.st1{fill:#FEC50C;}
</style>
<ellipse class="st0" cx="12" cy="12" rx="12" ry="11.7"/>
<path class="st1" d="M19.1,13.5c0,0-0.8-0.4-0.9-0.6c-0.1-0.1-0.1-0.2,0-0.4c0.1-0.1,0.3-0.1,0.4,0C18.7,12.8,19.1,13.5,19.1,13.5z
	 M19,8.9c0.1,0.2,0.2,0.2,0.3,0.1c0.2-0.1,0.9-0.6,0.9-0.6s-0.9,0.1-1.1,0.2C19,8.7,18.9,8.8,19,8.9z M17.7,14.5
	c0,0-0.1-0.9-0.2-1.1c-0.1-0.1-0.2-0.2-0.3-0.1c-0.2,0.1-0.2,0.2-0.1,0.3C17.1,13.8,17.7,14.5,17.7,14.5z M19.3,11.4
	c-0.1-0.1-0.3,0-0.3,0.1c-0.1,0.2,0,0.3,0.1,0.3c0.2,0.1,1.1,0.2,1.1,0.2S19.4,11.5,19.3,11.4z M19.3,9.3c-0.1,0-0.2,0.1-0.2,0.3
	c0,0.2,0.2,0.2,0.3,0.2c0.2,0,1-0.4,1-0.4S19.5,9.2,19.3,9.3z M14.6,13.3c-0.2-0.1-0.3,0-0.3,0.1c-0.1,0.2-0.2,1.1-0.2,1.1
	s0.6-0.7,0.6-0.9C14.8,13.5,14.7,13.4,14.6,13.3z M19,12.1c-0.1-0.1-0.2-0.1-0.3,0.1c-0.1,0.2,0,0.3,0.1,0.3c0.1,0.1,1,0.4,1,0.4
	S19.1,12.2,19,12.1z M19.4,10.7c-0.1,0-0.3,0-0.3,0.2c0,0.2,0.1,0.3,0.2,0.3c0.2,0,1.1,0,1.1,0S19.6,10.7,19.4,10.7z M19.2,10.2
	c0,0.2,0.1,0.2,0.2,0.2c0.2,0,1-0.2,1-0.2s-0.9-0.2-1-0.2C19.3,10,19.2,10.1,19.2,10.2z M13.5,12.7c-0.1-0.1-0.3-0.1-0.4,0
	c-0.1,0.1-0.6,0.9-0.6,0.9s0.8-0.4,0.9-0.6C13.5,12.9,13.6,12.8,13.5,12.7z M16.6,13.5c-0.2,0-0.2,0.2-0.2,0.3c0,0.2,0.4,1,0.4,1
	s0.1-0.9,0-1.1C16.8,13.6,16.7,13.5,16.6,13.5z M15.6,13.8c0,0.2,0.2,1,0.2,1s0.2-0.9,0.2-1c0-0.1-0.1-0.2-0.2-0.2
	S15.6,13.7,15.6,13.8z M14,13.3c0.1-0.1,0.1-0.2-0.1-0.3c-0.2-0.1-0.3,0-0.3,0.1c-0.1,0.1-0.4,1-0.4,1S13.9,13.5,14,13.3z
	 M14.9,13.7c0,0.2,0,1.1,0,1.1s0.4-0.8,0.4-1c0-0.1,0-0.3-0.2-0.3C15,13.5,14.9,13.6,14.9,13.7z M18.8,10.2c0-1.7-1.4-3-3-3
	c-1.7,0-3,1.4-3,3c0,1.7,1.4,3,3,3C17.6,13.2,18.8,11.9,18.8,10.2z M13,12.1C12.9,12,12.8,12,12.7,12c-0.1,0.1-0.7,0.8-0.7,0.8
	s0.8-0.3,1-0.4C13.1,12.4,13.1,12.3,13,12.1z M12.7,11.5c-0.1-0.2-0.2-0.2-0.3-0.1c-0.2,0.1-0.9,0.6-0.9,0.6s0.9-0.1,1.1-0.2
	C12.7,11.8,12.8,11.7,12.7,11.5z M12.5,10.9c0-0.2-0.2-0.2-0.3-0.2c-0.2,0-1,0.4-1,0.4s0.9,0.1,1.1,0C12.5,11.2,12.6,11.1,12.5,10.9
	z M18.4,14.1c0,0-0.3-0.8-0.4-1c0-0.2-0.2-0.2-0.3-0.1c-0.1,0.1-0.1,0.2-0.1,0.3C17.8,13.5,18.4,14.1,18.4,14.1z M10.4,13
	c0.1,0.1,0.1-0.1,0.2-0.1c0.1,0.1,0.2,0.1,0.3,0.2c0.4,0.4,0.7,0.9,1.2,1.3c0.2,0.2,0.5,0.3,0.7,0.3c0.3,0.2,0.5,0.4,0.8,0.7
	c0.2,0.2,0.6,0.3,0.9,0.3c0.4,0,0.8,0,1.1,0.3c0.1-0.1,0.1-0.3,0.2-0.4l0,0c-0.1,0-0.2,0-0.3,0c-1-0.1-2-0.4-2.8-1
	c-1-0.7-1.7-1.7-2.1-2.9c-0.1-0.2-0.1-0.4-0.1-0.5c-0.1-0.1-0.2,0-0.2,0.1c-0.1,0.3,0,0.7,0.1,1c-0.3-0.4-0.3-0.9-0.5-1.3
	c0-0.1,0-0.3-0.2-0.2c-0.2,0-0.2,0.2-0.2,0.3c0,0.6,0.3,1.2,0.6,1.7c-0.3-0.3-0.5-0.6-0.8-1c-0.1-0.1-0.2-0.2-0.3-0.1
	c-0.1,0-0.1,0.2,0,0.3c0.2,0.5,0.6,0.9,0.9,1.3c0,0.1,0.2,0.2,0.1,0.1c-0.4-0.2-0.6-0.5-0.9-0.8c-0.1-0.1-0.3-0.1-0.3,0.1
	c0.3,0.4,0.7,0.8,1.1,1.1c0,0.1,0.2,0.1,0.2,0.2c-0.3,0-0.5-0.2-0.7-0.3c-0.1,0,0,0.2,0.1,0.2c0.3,0.3,0.8,0.5,1.2,0.7
	c-0.1,0.1-0.3,0-0.5,0c-0.1,0-0.3-0.1-0.2,0c0.2,0.3,0.6,0.2,0.9,0.3c-0.1,0.1-0.2,0.1-0.3,0.1c-0.1,0-0.2,0-0.3,0.1
	c0.2,0.1,0.4,0.1,0.6,0.1c0.2,0,0.1,0.1,0,0.1c-0.1,0-0.2,0-0.2,0.1c0.2,0.1,0.5,0.2,0.7,0.2c-0.1,0.1-0.3,0.1-0.4,0.1
	c0.3,0.1,0.5,0.2,0.8,0.3c0.5,0.2,1,0.4,1.6,0.4c-0.2,0-0.4-0.1-0.6-0.2c-0.5-0.2-0.9-0.3-1.3-0.6c0.1-0.1,0.2-0.1,0.3-0.2
	c-0.2,0-0.4-0.1-0.5-0.2c-0.2-0.1,0-0.1,0.1-0.2c0-0.1-0.2-0.1-0.2-0.1c-0.1,0-0.1-0.1-0.1-0.2c0.1-0.1-0.1-0.1-0.1-0.1
	c-0.1-0.1,0-0.2,0-0.2c-0.2,0-0.4-0.2-0.6-0.3c0,0,0.2,0,0.3,0c-0.2-0.1-0.3-0.3-0.5-0.5c0,0,0.2,0,0.3,0c0-0.2-0.2-0.4-0.3-0.6
	C10.2,12.9,10.4,12.9,10.4,13z M4.7,3.3c0,0,0-0.1,0-0.2h0.1C4.9,3.1,5,3,5,2.8c0-0.1,0-0.2-0.1-0.2c-0.1,0-0.1,0.1-0.2,0.1v0.1
	c0,0.1-0.1,0.1-0.1,0.1c-0.1,0-0.1,0.1-0.1,0L4.3,3c0.1,0.1,0.2,0.1,0.3,0.1C4.5,3.2,4.6,3.2,4.7,3.3z M6.4,22
	c0,0.2,0.1,0.5,0.2,0.5c-0.1-0.1-0.2-0.1-0.4-0.2c0-0.1,0-0.3,0-0.4c-0.1,0-0.1,0-0.1,0c0-0.1,0-0.2,0.1-0.2H6.1
	c0-0.1,0.1-0.2,0.2-0.2c-0.3,0.1-0.5-0.1-0.5-0.4c0-0.2,0.1-0.3,0.2-0.3h0.1c0,0,0-0.1,0-0.2c0.1,0,0.1,0.1,0.1,0.2
	c0,0.1,0,0.1,0.1,0.2c0,0-0.1,0.1-0.2,0.1c0,0.1,0,0.2-0.1,0.2c0,0,0.1-0.2-0.1-0.2c-0.1,0-0.1,0-0.1,0.1s0.1,0.2,0.2,0.2
	s0.3-0.1,0.3-0.3s-0.2-0.3-0.4-0.3s-0.4,0.1-0.4,0.3c0,0.3,0.3,0.8,0.4,1.1C5.8,22,5.7,22,5.6,21.9c-0.1-0.2-0.2-0.5-0.3-0.7
	c0,0.1-0.1,0.3-0.1,0.4c-0.1-0.1-0.1-0.1-0.2-0.2c0.1-0.2,0.2-0.4,0.2-0.6c0-0.2-0.2-0.3-0.4-0.3c-0.2,0-0.4,0.2-0.4,0.4
	c-0.1-0.1-0.2-0.1-0.3-0.2c0.1-0.1,0.2-0.3,0.3-0.3c-0.1,0-0.2,0-0.3-0.1l0,0c0-0.1,0.1-0.1,0.2-0.2C4,20.1,4,19.9,4,19.7
	c0-0.4,0.2-0.5,0.2-1c0-0.2-0.1-0.3-0.2-0.5c0.4,0.1,0.5,0.4,0.4,0.6c0.1,0,0.1,0,0.2,0c0,0.1-0.1,0.2-0.1,0.3h0.1
	c0,0.1,0,0.2-0.1,0.2C4.8,19.2,5,19.5,5,19.7c0,0.2-0.2,0.2-0.4,0.2V20c-0.1,0-0.1-0.1-0.1-0.2c-0.1,0-0.1,0-0.1-0.1l0.1-0.1
	c0-0.1,0-0.2,0.1-0.2c0,0,0,0.2,0.1,0.2c0.1,0,0.1,0,0.1-0.1s-0.1-0.2-0.2-0.2s-0.3,0.1-0.3,0.3S4.5,20,4.7,20s0.4-0.2,0.4-0.4
	c0-0.1,0-0.2,0-0.3C4.8,18.7,4,17.1,4,17.1c-0.1-0.2-0.1-0.3-0.1-0.5c0-0.3,0.2-0.6,0.6-0.6c-0.4,0-0.6-0.3-0.6-0.6
	c0-0.2,0-0.3,0.1-0.5c0,0,0.8-1.6,1.1-2.2c0-0.1,0-0.2,0-0.3c0-0.2-0.2-0.4-0.4-0.4c-0.2,0-0.4,0.2-0.4,0.4c0,0.2,0.1,0.3,0.3,0.3
	c0.2,0,0.2-0.1,0.2-0.2c0-0.1,0-0.1-0.1-0.1c-0.1,0-0.1,0.2-0.1,0.2c-0.1,0-0.1-0.1-0.1-0.2c-0.1,0-0.1,0-0.1-0.1l0.1-0.1
	c0-0.1,0-0.2,0.1-0.2v0.1c0.1,0,0.4,0,0.4,0.3c0,0.2-0.2,0.5-0.5,0.4c0.1,0,0.1,0.1,0.1,0.2c-0.1,0-0.1,0-0.1,0
	c0,0.1,0.1,0.1,0.1,0.3c-0.1,0-0.1-0.1-0.2,0c0.1,0.2,0,0.6-0.4,0.6c0.1,0,0.2-0.2,0.2-0.3c0-0.6-0.2-0.7-0.2-1
	c0-0.2,0.1-0.3,0.2-0.5C4.1,12.2,4,12.1,4,12l0,0l0,0c0-0.1,0.1-0.1,0.2-0.2C4,11.7,4,11.5,4,11.3c0-0.4,0.2-0.5,0.2-1
	c0-0.2-0.1-0.3-0.2-0.5c0.4,0.1,0.5,0.4,0.4,0.6c0.1,0,0.1,0,0.2,0c0,0.1-0.1,0.2-0.1,0.3h0.1c0,0.1,0,0.2-0.1,0.2
	C4.8,10.8,5,11.1,5,11.3s-0.2,0.3-0.4,0.3v0.1c-0.1,0-0.1-0.1-0.1-0.2c-0.1,0-0.1,0-0.1-0.1l0.1-0.1c0-0.1,0-0.2,0.1-0.2
	c0,0,0,0.2,0.1,0.2c0.1,0,0.1,0,0.1-0.1c0-0.1-0.1-0.2-0.2-0.2s-0.3,0.1-0.3,0.3s0.2,0.4,0.4,0.4s0.4-0.2,0.4-0.4c0-0.1,0-0.2,0-0.3
	C4.8,10.4,4,8.8,4,8.8C3.9,8.7,3.9,8.6,3.9,8.4c0-0.3,0.2-0.6,0.6-0.6c-0.4,0-0.6-0.3-0.6-0.6c0-0.2,0-0.3,0.1-0.5
	c0,0,0.8-1.6,1.1-2.2c0-0.1,0-0.2,0-0.3c0-0.2-0.2-0.4-0.4-0.4c-0.2,0-0.4,0.2-0.4,0.4s0.1,0.3,0.3,0.3c0.2,0,0.2-0.1,0.2-0.2
	c0-0.1,0-0.1-0.1-0.1c-0.1,0-0.1,0.2-0.1,0.2c-0.1,0-0.1-0.1-0.1-0.2c-0.1,0-0.1,0-0.1-0.1l0.1-0.1c0-0.1,0-0.2,0.1-0.2V4
	C4.7,4,5,4,5,4.2c0,0.2-0.2,0.5-0.5,0.4c0.1,0,0.1,0.1,0.1,0.2c-0.1,0-0.1,0-0.1,0c0,0.1,0.1,0.1,0.1,0.3C4.5,5.1,4.5,5,4.4,5
	c0.1,0.2,0,0.6-0.4,0.6c0.1-0.1,0.2-0.2,0.2-0.4c0-0.6-0.2-0.7-0.2-1C4,4.1,4.1,4,4.2,3.8c0-0.1-0.1-0.1-0.1-0.2l0,0
	c0.1-0.1,0.1-0.1,0.2-0.1c0-0.1-0.1-0.1-0.2-0.2c0.1-0.1,0.2-0.1,0.2-0.2c0,0.2,0.2,0.3,0.4,0.3s0.4-0.1,0.4-0.3C5.1,3,5,2.8,5,2.6
	c0.1-0.1,0.1-0.1,0.2-0.2c0,0.1,0.1,0.2,0.1,0.3c0.1-0.2,0.2-0.4,0.3-0.6C5.7,2,5.8,2,5.9,1.9c0,0.3-0.4,0.8-0.4,1
	c0,0.2,0.2,0.3,0.4,0.3c0.2,0,0.4-0.1,0.4-0.3c0-0.2-0.1-0.3-0.3-0.3c-0.1,0-0.2,0.1-0.2,0.2S5.9,3,5.9,3C6,3,6,2.8,6,2.8
	c0.1,0,0.1,0.1,0.1,0.2c0.1,0,0.1,0,0.2,0.1c-0.1,0-0.1,0-0.2,0c0,0.1,0,0.2-0.1,0.2c0,0,0-0.1,0-0.2H5.9C5.8,3.1,5.7,3,5.7,2.8
	c0-0.2,0.2-0.4,0.5-0.4C6,2.4,6,2.3,6,2.3c0.1,0,0.1,0,0.1,0c0-0.1-0.1-0.2,0-0.3c0,0.1,0.1,0.1,0.1,0.1c0-0.1,0-0.2,0-0.3
	c0.1-0.1,0.2-0.1,0.4-0.2C6.5,1.6,6.4,1.8,6.4,2c0,0.4,0.2,0.6,0.2,1c0,0.2-0.1,0.4-0.3,0.5c0.1,0,0.2,0,0.3,0.1l0,0
	c0,0.1-0.1,0.1-0.2,0.2c0.1,0.1,0.2,0.3,0.2,0.4c0,0.4-0.2,0.5-0.2,1c0,0.2,0.1,0.3,0.2,0.5C6.3,5.6,6.1,5.3,6.2,5C6.1,5,6.1,5,6,5
	c0-0.1,0.1-0.2,0.1-0.3H6c0-0.1,0-0.2,0.1-0.2c-0.3,0.2-0.5,0-0.5-0.2c0-0.3,0.3-0.3,0.4-0.3V4c0.1,0,0.1,0.1,0.1,0.2
	c0.1,0,0.1,0,0.1,0L6.1,4.2c0,0.1,0,0.2-0.1,0.2c0,0,0-0.2-0.1-0.2c-0.1,0-0.1,0-0.1,0.1c0,0.1,0.1,0.2,0.2,0.2s0.3-0.1,0.3-0.3
	c0-0.2-0.2-0.4-0.4-0.4S5.5,4.1,5.5,4.2c0,0.1,0,0.2,0,0.3C5.9,5,6.6,6.6,6.6,6.6c0.1,0.2,0.1,0.3,0.1,0.5c0,0.3-0.2,0.6-0.6,0.6
	c0.4,0,0.6,0.3,0.6,0.6c0,0.2,0,0.3-0.1,0.5c0,0-0.8,1.6-1.1,2.2c0,0.1,0,0.2,0,0.3c0,0.2,0.2,0.4,0.4,0.4c0.2,0,0.4-0.2,0.4-0.4
	C6.3,11.1,6.2,11,6,11s-0.2,0.1-0.2,0.2c0,0.1,0,0.1,0.1,0.1C6,11.3,6,11.1,6,11.1c0.1,0,0.1,0.1,0.1,0.2c0.1,0,0.1,0,0.1,0.1
	l-0.1,0.1c0,0.1,0,0.2-0.1,0.2v-0.1c-0.1,0-0.4,0-0.4-0.3c0-0.2,0.2-0.5,0.5-0.4C6,10.9,6,10.8,6,10.7c0.1,0,0.1,0,0.1,0
	c0-0.1-0.1-0.1-0.1-0.3c0.1,0,0.1,0.1,0.2,0c-0.1-0.2,0-0.6,0.4-0.6c-0.1,0.2-0.2,0.3-0.2,0.5c0,0.6,0.2,0.7,0.2,1
	c0,0.2-0.1,0.3-0.2,0.5c0.1,0,0.2,0.1,0.2,0.2l0,0l0,0c0,0.1-0.1,0.1-0.2,0.2c0.2,0.1,0.2,0.3,0.2,0.5c0,0.4-0.2,0.5-0.2,1
	c0,0.2,0.1,0.3,0.2,0.5c-0.4-0.1-0.5-0.4-0.4-0.6c-0.1,0-0.1,0-0.2,0c0-0.1,0.1-0.2,0.1-0.3H6c0-0.1,0-0.2,0.1-0.2
	c-0.3,0.1-0.5-0.2-0.5-0.4c0-0.2,0.2-0.3,0.4-0.3v-0.1c0.1,0,0.1,0.1,0.1,0.2c0.1,0,0.1,0,0.1,0.1l-0.1,0.1c0,0.1,0,0.2-0.1,0.2
	c0,0,0-0.2-0.1-0.2c-0.1,0-0.1,0-0.1,0.1C5.8,12.9,5.9,13,6,13s0.3-0.1,0.3-0.3c0-0.2-0.2-0.4-0.4-0.4s-0.4,0.2-0.4,0.4
	c0,0.1,0,0.2,0,0.3c0.3,0.6,1.1,2.2,1.1,2.2c0.1,0.2,0.1,0.3,0.1,0.5c0,0.3-0.2,0.6-0.6,0.6c0.4,0,0.6,0.3,0.6,0.6
	c0,0.2,0,0.3-0.1,0.5c0,0-0.8,1.6-1.1,2.2c0,0.1,0,0.2,0,0.3c0,0.2,0.2,0.4,0.4,0.4c0.2,0,0.4-0.2,0.4-0.4S6.2,19.5,6,19.5
	c-0.2,0-0.2,0.1-0.2,0.2c0,0.1,0,0.1,0.1,0.1C6,19.8,6,19.6,6,19.6c0.1,0,0.1,0.1,0.1,0.2c0.1,0,0.1,0,0.1,0.1L6.1,20
	c0,0.1,0,0.2-0.1,0.2v-0.1c-0.1,0-0.4,0-0.4-0.3c0-0.2,0.2-0.5,0.5-0.4C6,19.4,6,19.3,6,19.2c0.1,0,0.1,0,0.1,0
	c0-0.1-0.1-0.1-0.1-0.3c0.1-0.1,0.2,0,0.2,0c-0.1-0.2,0-0.6,0.4-0.6c-0.1,0.2-0.2,0.3-0.2,0.5c0,0.6,0.2,0.7,0.2,1
	c0,0.2-0.1,0.3-0.2,0.5c0.1,0,0.2,0.1,0.2,0.2l0,0c-0.1,0.1-0.1,0.1-0.3,0.1c0.1,0.1,0.3,0.2,0.3,0.5C6.6,21.4,6.4,21.5,6.4,22z
	 M5.3,3.9L5.3,3.9L5.3,3.9c0-0.1,0.2-0.3,0.4-0.3l0,0c-0.2,0-0.4-0.1-0.5-0.3c0,0.2-0.1,0.3-0.3,0.3l0,0C5.1,3.7,5.3,3.8,5.3,3.9z
	 M4.6,7.5C4.8,7.5,5,7.4,5,7.2C5,7.1,4.9,7,4.8,7C4.6,7,4.6,7.2,4.7,7.3C4.5,7.2,4.5,7.1,4.5,7C4.4,7,4.3,7,4.3,6.9
	c0-0.1,0.1-0.1,0.2-0.1c0-0.2,0.1-0.2,0.2-0.3c0,0.1-0.1,0.3,0.1,0.3c0.2,0,0.3,0,0.3,0.1c0-0.1,0-0.6,0-0.6c0-0.2-0.3-0.2-0.4-0.1
	c0.1-0.3,0.2-0.4,0.5-0.4c0,0-0.1-0.1-0.1-0.2c0-0.2,0.1-0.4,0.2-0.4l0,0l0,0c0.1,0.1,0.2,0.3,0.2,0.4c0,0.1-0.1,0.2-0.2,0.2
	c0.3,0,0.4,0.1,0.5,0.3c-0.1,0-0.3,0-0.3,0.2c0,0,0,0.5,0,0.6c0.1-0.1,0.2-0.1,0.3-0.1C6,6.8,6,6.7,5.9,6.5c0.2,0.1,0.3,0.1,0.3,0.3
	c0.1,0,0.2,0,0.2,0.1C6.3,7,6.2,7,6.2,7c0,0.1-0.1,0.2-0.2,0.3C6,7.2,6,7,5.8,7c0,0-0.1,0.1-0.1,0.2c0,0.2,0.2,0.3,0.4,0.3
	c0.1,0,0.4-0.1,0.4-0.4c0-0.1,0-0.2-0.1-0.3c-0.2-0.5-0.9-2-1.1-2.3l0,0c-0.1,0.3-0.8,1.8-1,2.3C4.2,6.9,4.2,7,4.2,7.1
	C4.2,7.4,4.4,7.5,4.6,7.5z M5.3,7.3C5.2,7.6,4.9,7.7,4.7,7.8c0.2,0,0.5,0.2,0.6,0.4C5.4,8,5.7,7.8,6,7.8C5.7,7.7,5.4,7.6,5.3,7.3z
	 M5.3,11L5.3,11L5.3,11c0.2-0.3,0.9-1.8,1.1-2.3c0-0.1,0.1-0.2,0.1-0.3C6.5,8.1,6.2,8,6.1,8C5.9,8,5.7,8.2,5.7,8.3
	c0,0.1,0.1,0.2,0.1,0.2C6,8.5,6,8.3,5.9,8.2c0.2,0.1,0.3,0.2,0.3,0.3c0.1,0,0.1,0,0.2,0.1c0,0.1-0.1,0.1-0.2,0.1C6.2,8.9,6.1,9,6,9
	c0-0.1,0.1-0.3-0.1-0.3c-0.2,0-0.3,0-0.3-0.1c0,0.1,0,0.6,0,0.6c0,0.2,0.3,0.2,0.4,0.1C5.9,9.6,5.7,9.7,5.4,9.7
	c0.1,0,0.2,0.1,0.2,0.2c0,0.2-0.1,0.4-0.2,0.4l0,0l0,0c-0.2,0-0.3-0.2-0.3-0.4c0-0.1,0.1-0.2,0.1-0.2c-0.3,0-0.4-0.1-0.5-0.3
	c0.2,0,0.5,0,0.5-0.1c0,0,0-0.5,0-0.6c-0.1,0-0.2,0-0.4,0S4.6,8.9,4.7,9C4.6,9,4.4,8.9,4.5,8.7c-0.1,0-0.2,0-0.2-0.1
	c0.1-0.1,0.1-0.1,0.2-0.1c0-0.1,0.1-0.2,0.2-0.3c0,0.1-0.1,0.3,0.1,0.3c0.1,0,0.1-0.1,0.1-0.2C5,8.2,4.8,8,4.6,8
	C4.4,8,4.2,8.1,4.2,8.4c0,0.1,0,0.2,0.1,0.3C4.5,9.2,5.2,10.7,5.3,11z M5.3,12.3L5.3,12.3L5.3,12.3c0-0.1,0.2-0.3,0.4-0.3l0,0l0,0
	c-0.2,0-0.4-0.2-0.4-0.3l0,0l0,0c0,0.1-0.2,0.3-0.4,0.3l0,0l0,0C5.1,12,5.3,12.2,5.3,12.3z M4.6,15.9c0.2,0,0.4-0.1,0.4-0.3
	c0-0.1-0.1-0.2-0.1-0.2c-0.2,0-0.2,0.2-0.1,0.3c-0.1-0.1-0.2-0.2-0.2-0.3c-0.1,0-0.1,0-0.2-0.1c0-0.1,0.1-0.1,0.2-0.1
	c0-0.2,0.1-0.2,0.2-0.3c0,0.1-0.1,0.3,0.1,0.3s0.3,0,0.3,0.1c0-0.1,0-0.6,0-0.6c0-0.2-0.3-0.2-0.4-0.1c0.1-0.2,0.2-0.3,0.5-0.3
	c-0.1,0-0.2-0.1-0.2-0.2c0-0.2,0.1-0.4,0.2-0.4l0,0l0,0c0.1,0.1,0.2,0.3,0.2,0.4c0,0.1-0.1,0.2-0.2,0.2c0.3,0,0.4,0.1,0.5,0.3
	c-0.2-0.1-0.4-0.1-0.4,0.1c0,0,0,0.5,0,0.6c0.1-0.1,0.2-0.1,0.3-0.1c0.2,0,0.2-0.1,0.1-0.3c0.3,0,0.4,0.1,0.4,0.3
	c0.1,0,0.2,0,0.2,0.1c-0.1,0.1-0.2,0.1-0.2,0.1c0,0.1-0.1,0.2-0.2,0.3c0-0.1,0.1-0.3-0.1-0.3c-0.1,0-0.1,0.1-0.1,0.2
	c0,0.2,0.2,0.3,0.4,0.3c0.1,0,0.4-0.1,0.4-0.4c0-0.1,0-0.2-0.1-0.3c-0.2-0.5-0.9-2-1.1-2.3l0,0c-0.1,0.3-0.9,1.8-1.1,2.3
	c-0.1,0.1-0.1,0.2-0.1,0.3C4.2,15.8,4.4,15.9,4.6,15.9z M5.3,15.7c-0.1,0.2-0.4,0.4-0.6,0.4c0.2,0,0.5,0.2,0.6,0.5
	c0.1-0.3,0.4-0.4,0.6-0.5C5.7,16.1,5.4,15.9,5.3,15.7z M5.3,19.4L5.3,19.4L5.3,19.4c0.1-0.3,0.9-1.8,1.1-2.3c0-0.1,0.1-0.2,0.1-0.3
	c0-0.3-0.3-0.4-0.4-0.4c-0.2,0-0.4,0.1-0.4,0.3c0,0.1,0.1,0.2,0.1,0.2c0.2,0,0.2-0.2,0.1-0.3c0.2,0.1,0.3,0.2,0.3,0.3
	c0.1,0,0.1,0,0.2,0.1c0,0.1-0.1,0.1-0.2,0.1c0,0.2-0.1,0.2-0.2,0.3c0-0.1,0.1-0.3-0.1-0.3c-0.2,0-0.3,0-0.3-0.1c0,0.1,0,0.6,0,0.6
	c0,0.2,0.3,0.2,0.4,0.1C5.9,17.9,5.8,18,5.5,18c0.1,0,0.2,0.1,0.2,0.2c0,0.2-0.1,0.4-0.2,0.4l0,0l0,0c-0.1-0.1-0.2-0.3-0.2-0.4
	S5.4,18,5.5,18c-0.3,0-0.4-0.1-0.5-0.3c-0.1,0.1,0.2,0.1,0.2-0.1c0,0,0-0.5,0-0.6c-0.1,0.1-0.2,0.1-0.3,0.1c-0.2,0-0.2,0.1-0.1,0.3
	c-0.1,0-0.2-0.1-0.2-0.3c-0.1,0-0.2,0-0.2-0.1c-0.1-0.1,0-0.1,0.1-0.1c0-0.1,0.1-0.2,0.2-0.3c0,0.1-0.1,0.3,0.1,0.3
	c0.1,0,0.1-0.1,0.1-0.2c0-0.2-0.2-0.3-0.4-0.3c-0.1,0-0.4,0.1-0.4,0.4c0,0.1,0,0.2,0.1,0.3C4.5,17.6,5.2,19.1,5.3,19.4z M5.8,20.4
	L5.8,20.4c-0.3,0-0.4-0.2-0.5-0.3l0,0l0,0c0,0.1-0.2,0.3-0.4,0.3l0,0c0.2,0,0.4,0.1,0.5,0.3C5.4,20.5,5.6,20.4,5.8,20.4z M4.8,20.8
	L4.8,20.8c-0.1,0-0.1-0.1-0.1-0.2c-0.1,0-0.1,0.1-0.1,0.2c-0.1,0-0.1,0-0.1,0.1L4.6,21l0,0l0,0c0,0,0.1,0,0.1,0.1c0,0,0-0.1,0.1-0.1
	c0.1,0,0.1,0,0.1,0.1v0.1c0.1,0,0.1,0.1,0.2,0.1c0.1-0.1,0.1-0.2,0.1-0.2C5,21,4.9,20.8,4.8,20.8z M12.5,10.2c0-0.2-0.1-0.2-0.2-0.2
	c-0.2,0-1,0.2-1,0.2s0.9,0.2,1,0.2C12.3,10.5,12.5,10.4,12.5,10.2z M12.5,9.6c0-0.2-0.1-0.3-0.2-0.3c-0.2,0-1.1,0-1.1,0
	s0.8,0.4,1,0.4C12.4,9.8,12.5,9.7,12.5,9.6z M18.6,8.3c0.1,0.1,0.2,0.1,0.3,0.1c0.1-0.1,0.7-0.8,0.7-0.8s-0.8,0.3-1,0.4
	C18.6,8.1,18.5,8.2,18.6,8.3z M22.8,12.5c0-0.2-0.2-0.2-0.3,0c-0.3,0.3-0.6,0.7-1,0.8c0.4-0.4,0.7-0.8,1-1.3
	c0.1-0.1,0.2-0.3,0.1-0.4c-0.1-0.1-0.3,0-0.4,0.1c-0.2,0.3-0.4,0.7-0.7,0.9c0.3-0.5,0.6-1.1,0.6-1.7c0-0.1,0-0.3-0.2-0.3
	c-0.1,0-0.1,0.2-0.2,0.3c-0.1,0.4-0.2,0.9-0.4,1.2c0.1-0.3,0.2-0.7,0.1-1c0-0.2-0.3-0.1-0.2,0.1c-0.3,1.5-1.3,2.8-2.6,3.5
	c-0.6,0.3-1.3,0.6-1.9,0.7c-0.2,0-0.4,0-0.6,0.1c-0.4,0.3-0.7,0.9-1.2,1c-0.2,0.1-0.5,0.1-0.7,0.4v0.1l0,0c0.1,0.1,0.2,0,0.3-0.1
	l0,0c0,0,0,0.1,0.1,0.1c0.1,0,0.1,0,0.1-0.1c0,0,0-0.1-0.1-0.1l0,0l0,0c0.4-0.1,0.7-0.4,1.1-0.6c0.2-0.2,0.4-0.4,0.7-0.4
	c0.5-0.2,1.1-0.1,1.7-0.3c0.4-0.6,1.1-0.8,1.7-1.1c0.1,0,0.2-0.2,0.2-0.3c0.2-0.4,0.5-0.7,0.9-0.9c0.2-0.1,0.4-0.1,0.6-0.1
	c0,0.2-0.1,0.4-0.3,0.6c0.1,0,0.2-0.1,0.4-0.1c0,0.2-0.2,0.4-0.3,0.5c0.1,0,0.4,0,0.2,0.1s-0.4,0.2-0.6,0.4c0.2,0,0.2,0.1,0,0.1
	c-0.1,0.1-0.3,0.1-0.3,0.2c0.1,0.1-0.1,0.2-0.1,0.2c-0.1,0-0.3,0.1-0.1,0.2c-0.1,0.1-0.2,0.1-0.3,0.1c0,0.1,0.1,0.3-0.1,0.3
	c-0.4,0.3-0.8,0.5-1.2,0.5c0.6,0,1.1-0.1,1.6-0.4c0.1-0.1,0.4-0.2,0.2-0.2c-0.1,0-0.3-0.1-0.3-0.1c0.3-0.2,0.6-0.1,0.9-0.2
	c0-0.1-0.2-0.1-0.3-0.1c-0.2,0-0.2-0.1,0-0.1c0.2-0.1,0.5-0.1,0.7-0.2c-0.2-0.1-0.4,0-0.5-0.1c0.3-0.1,0.6-0.1,0.9-0.3
	c0.1-0.1-0.2-0.1-0.2-0.1c-0.2,0-0.2,0-0.1-0.1c0.3-0.2,0.7-0.4,0.9-0.7c0.1-0.1,0.1-0.3,0-0.2c-0.2,0.1-0.4,0.3-0.7,0.2
	C22,13.3,22.4,13,22.8,12.5z M12.7,8.9c0.1-0.2,0-0.3-0.1-0.3c-0.2-0.1-1.1-0.2-1.1-0.2S12.2,9,12.4,9C12.5,9.1,12.6,9.1,12.7,8.9z
	 M18.1,16.7c-0.1,0-0.2,0-0.2,0.1s-0.3,0.1-0.2,0.2c0.1,0.1-0.1,0.2-0.2,0.3c-0.5,0.2-1.1,0.1-1.7,0.1c-0.3,0-0.7,0.2-0.8,0.5
	c0.2,0.1,0.4-0.1,0.6-0.3c0.1,0,0,0.2,0.1,0.3c0.2,0,0.3-0.2,0.4-0.4c0.1,0.1,0,0.3,0,0.4c0.2,0,0.3-0.2,0.5-0.3c0.1,0,0,0.2,0,0.3
	c0.1,0.1,0.3,0,0.3-0.2c0.1-0.2,0.1-0.1,0.2,0.1c0.1,0.1,0.3,0,0.3-0.1c0.1-0.2,0.1,0,0.2,0.1c0.2,0,0.3-0.2,0.4-0.3
	c0,0.1,0.1,0.3,0.2,0.2c0.1-0.1,0.1-0.3,0.2-0.3c0.1,0.1,0.3,0.2,0.4,0.1l0,0c0.1-0.1,0.1-0.2,0.1-0.3c0-0.2,0.1,0.1,0.3,0.1
	c0.2,0.1,0.5-0.1,0.5-0.4C19,16.8,18.5,16.7,18.1,16.7z M16.1,17.2c0.1,0,0.2,0,0.3,0h0.1c0,0-0.1,0-0.2,0h-0.4
	c-0.1,0-0.2,0-0.4-0.1h-0.1h-0.1c-0.1,0-0.2,0-0.2,0c0.1-0.1,0.1-0.1,0.2-0.2h-0.1c0.1-0.1,0.2-0.1,0.2-0.2c-0.1,0-0.2,0-0.2,0
	c-0.1,0-0.2,0.1-0.3,0.1l0,0h-0.1c0,0,0,0,0,0.1c0,0,0,0,0,0.1l0,0l0,0c0,0,0,0-0.1,0c0,0,0,0-0.1,0c0,0,0,0-0.1,0c0,0,0,0-0.1,0
	c0,0,0,0-0.1,0c0,0,0,0-0.1,0c0,0,0,0-0.1,0c-0.1,0-0.2,0.1-0.2,0.2v0.1c0,0.1,0,0.1,0,0.2v-0.1l0.1-0.1l0,0v0.1
	c0.2-0.1,0.3-0.1,0.5-0.1c0.2,0,0.5,0,0.7,0C15.6,17.2,15.8,17.2,16.1,17.2z M12.7,8.4c0.1,0.1,0.2,0.1,0.3-0.1
	c0.1-0.1,0.1-0.2,0-0.3c-0.1-0.1-1-0.4-1-0.4S12.5,8.3,12.7,8.4z M17.2,7.1c0.2,0.1,0.3,0,0.3-0.1c0.1-0.2,0.2-1.1,0.2-1.1
	s-0.6,0.7-0.6,0.8C17,6.9,17,7,17.2,7.1z M16.6,6.9c0.2,0,0.3-0.1,0.3-0.2c0-0.2,0-1.1,0-1.1s-0.4,0.8-0.4,1
	C16.3,6.7,16.4,6.8,16.6,6.9z M18.2,7.8c0.1,0.1,0.3,0.1,0.4,0c0.1-0.1,0.6-0.9,0.6-0.9s-0.8,0.4-0.9,0.6
	C18.2,7.6,18.2,7.7,18.2,7.8z M17.8,7.4c0.2,0.1,0.3,0,0.3-0.1c0.1-0.1,0.4-1,0.4-1S17.8,6.9,17.7,7C17.6,7.2,17.6,7.3,17.8,7.4z
	 M15.9,6.8c0.2,0,0.2-0.1,0.2-0.2c0-0.2-0.2-1-0.2-1s-0.2,0.9-0.2,1C15.6,6.7,15.7,6.8,15.9,6.8z M15.2,6.9c0.2,0,0.2-0.2,0.2-0.3
	c0-0.2-0.4-1-0.4-1s-0.1,0.9,0,1.1C14.9,6.8,15,6.9,15.2,6.9z M13.5,7.8c0.1-0.1,0.1-0.3,0-0.4c-0.1-0.1-0.9-0.6-0.9-0.6
	s0.4,0.8,0.6,0.9C13.2,7.9,13.3,7.9,13.5,7.8z M14,7.4c0.1-0.1,0.1-0.2,0-0.4c-0.1-0.1-0.8-0.7-0.8-0.7s0.3,0.8,0.4,1
	C13.7,7.4,13.8,7.5,14,7.4z M14.6,7.1c0.2-0.1,0.2-0.2,0.1-0.3c-0.1-0.2-0.6-0.9-0.6-0.9s0.1,0.9,0.2,1.1
	C14.3,7.1,14.4,7.1,14.6,7.1z"/>
</svg>
