<svg width="120" height="120" viewBox="0 0 120 120" fill="none" xmlns="http://www.w3.org/2000/svg">
<rect width="120" height="120" fill="#C4A056"/>
<path d="M36.4008 82.9791C37.7888 89.078 40.0123 92.048 42.4331 92.048C57.6159 89.5013 53.1558 112.68 37.3875 106.23C29.3093 102.466 25.2637 95.4349 25.2637 85.1289C25.2637 73.4404 27.2635 59.2317 36.2297 45.8564C42.5712 35.4777 65.2665 19.4234 64.8454 18.8082C64.3192 18.0342 62.9377 17.3397 61.6747 16.612C59.938 15.6066 58.4579 15.1105 57.2343 15.1105L56.1029 12.6233H57.2343C60.1683 12.6233 64.306 12.6034 69.6542 13.1194C78.6205 14.105 84.6659 14.9186 92.856 10.5264L93.2507 10.8637L94.7374 12.1272C90.9614 13.1591 89.7444 14.5879 88.705 17.5447C87.9485 20.1113 87.6065 24.7087 87.6459 31.3632L88.1393 83.9051C88.1393 85.8631 88.8563 87.3449 90.2773 88.39C91.5995 89.111 92.9415 89.8718 94.3229 90.6722C93.323 92.4383 92.7047 93.3975 92.4678 93.3115C80.4953 89.111 75.9036 88.1916 63.9245 91.4262L61.8392 89.4682C61.7405 89.3756 61.5366 89.5079 61.3458 89.6005C65.8256 87.3184 69.0753 83.9713 71.1212 79.5459C72.575 76.2782 73.6933 72.0182 74.4498 66.7925C74.7919 61.7519 75.2655 54.9849 75.8707 46.4716V39.989C75.8707 36.4699 75.6076 32.7259 75.0945 28.7371C74.3972 23.3195 73.6999 23.1806 72.8907 22.7374C56.1094 35.1006 30.7829 58.2725 36.4008 82.9791Z" fill="white"/>
</svg>
