<svg width="141" height="57" viewBox="0 0 141 57" fill="none" xmlns="http://www.w3.org/2000/svg">
<g clip-path="url(#clip0_211_1004)">
<path d="M112.122 12.1591C112.122 12.2798 112.068 12.3927 111.955 12.4901C111.912 12.5251 111.417 12.7003 110.474 13.0235C109.532 13.3466 109.029 13.5062 108.963 13.5062C108.565 13.5062 108.363 13.2921 108.363 12.8599C108.363 12.5173 108.507 12.346 108.795 12.346C108.862 12.346 108.963 12.3694 109.095 12.42C109.228 12.4706 109.333 12.4939 109.411 12.4939C109.578 12.4939 109.754 12.4433 109.945 12.346C110.132 12.2448 110.229 12.1202 110.229 11.9644C110.229 11.8866 110.12 11.5634 109.906 10.9911C109.691 10.4226 109.559 10.1151 109.516 10.0683C109.407 9.9671 109.282 9.92038 109.15 9.92038C108.76 9.92038 108.456 10.2358 108.234 10.8665C108.078 11.3415 108 11.8243 108 12.311C108 13.0858 108.184 13.7515 108.55 14.3044C108.982 14.9351 109.563 15.2505 110.295 15.2505C110.693 15.2505 111.059 15.1142 111.394 14.8417C111.725 14.5692 111.893 14.4329 111.893 14.4329C112.037 14.4329 112.107 14.5419 112.107 14.7638C112.107 15.3712 111.873 15.8851 111.402 16.3017C110.93 16.7183 110.389 16.9247 109.781 16.9247C108.819 16.9247 108.047 16.5159 107.471 15.6944C106.96 14.9741 106.707 14.1097 106.707 13.1013C106.707 12.3382 106.855 11.5167 107.155 10.6407C107.533 9.51157 108.012 8.94702 108.6 8.94702C108.721 8.94702 108.9 8.96649 109.134 9.00542C109.368 9.04436 109.543 9.06383 109.668 9.06383C109.777 9.06383 109.948 9.04825 110.174 9.021C110.4 8.99374 110.572 8.97817 110.681 8.97817C110.868 8.97817 111.024 9.05604 111.145 9.21178C111.168 9.23514 111.335 9.72571 111.651 10.6835C111.967 11.6413 112.126 12.1319 112.126 12.1552" fill="white"/>
<path d="M104.696 13.6231C104.696 14.4719 104.537 15.2272 104.213 15.893C103.8 16.7417 103.212 17.1661 102.44 17.1661C102.016 17.1661 101.638 17.0182 101.307 16.7262C100.976 16.4342 100.808 16.076 100.808 15.6516C100.808 15.3206 100.878 15.0909 101.015 14.9624C101.12 15.0637 101.217 15.161 101.307 15.2467C101.4 15.3323 101.537 15.3752 101.72 15.3752C102.452 15.3752 102.818 14.5575 102.818 12.9184C102.818 12.2292 102.725 11.5907 102.542 10.995C102.289 10.1346 101.911 9.7063 101.408 9.7063C101.213 9.7063 101.042 9.79195 100.894 9.96326C100.629 10.2825 100.5 11.7854 100.5 14.4641C100.5 15.7256 100.559 16.6717 100.68 17.3063C100.8 17.9409 101.022 18.5678 101.342 19.1868C101.447 19.3932 101.498 19.5372 101.498 19.6151C101.498 19.728 101.424 19.7864 101.276 19.7864C101.194 19.7864 100.839 19.6268 100.208 19.3036C99.5302 18.961 99.0899 18.7663 98.8834 18.7196C98.7237 18.6846 98.6185 18.6573 98.5757 18.634C98.4627 18.5872 98.3964 18.5133 98.3848 18.412C98.4977 18.229 98.6068 18.0499 98.712 17.8786C98.8133 17.7073 98.8679 17.4854 98.8679 17.209V14.6665C98.8679 11.871 98.7354 10.302 98.4705 9.95937C98.3341 9.78806 98.1627 9.7024 97.9562 9.7024C97.4536 9.7024 97.0718 10.1307 96.8225 10.9911C96.651 11.5868 96.5653 12.2292 96.5653 12.9145C96.5653 14.5536 96.9277 15.3713 97.6484 15.3713C97.8315 15.3713 97.9718 15.3284 98.0692 15.2428C98.1666 15.1571 98.2601 15.0637 98.3536 14.9585C98.49 15.0831 98.5601 15.3129 98.5601 15.6477C98.5601 16.0721 98.3964 16.4303 98.0692 16.7223C97.7419 17.0143 97.3601 17.1622 96.9277 17.1622C96.1601 17.1622 95.568 16.7379 95.155 15.8891C94.8355 15.2233 94.6719 14.468 94.6719 13.6192C94.6719 12.5329 94.9602 11.4895 95.5329 10.4928C96.1991 9.32474 97.029 8.74072 98.0263 8.74072C98.2211 8.74072 98.5133 8.77576 98.9029 8.84195C99.2925 8.91203 99.5847 8.94707 99.7795 8.94707C99.9626 8.94707 100.228 8.91203 100.57 8.84195C100.913 8.77187 101.17 8.74072 101.346 8.74072C102.343 8.74072 103.181 9.32474 103.855 10.4928C104.416 11.4895 104.696 12.5329 104.696 13.6192" fill="white"/>
<path d="M93.397 16.6834C93.397 16.8313 93.2996 16.9053 93.1048 16.9053C92.9684 16.9053 92.7619 16.8897 92.4853 16.8547C92.2087 16.8197 91.9983 16.8041 91.8502 16.8041C91.7489 16.8041 91.5853 16.8197 91.3671 16.8547C91.149 16.8897 90.9892 16.9053 90.884 16.9053C90.7477 16.9053 90.6776 16.8586 90.6776 16.7691C90.6776 16.7223 90.7399 16.5783 90.8685 16.3408C91.0983 15.9164 91.2113 14.7639 91.2113 12.8873V11.6492C91.2113 10.2748 90.9191 9.58565 90.3347 9.58565C89.7854 9.58565 89.3607 10.0996 89.0607 11.1313C88.8542 11.875 88.7529 12.6147 88.7529 13.3467C88.7529 14.5965 89.0958 15.2195 89.7854 15.2195C89.8438 15.2195 89.9256 15.2039 90.0347 15.1766C90.1438 15.1494 90.2256 15.1338 90.2841 15.1338C90.397 15.1338 90.4555 15.2779 90.4555 15.5621C90.4555 16.5238 90.0191 17.0066 89.1503 17.0066C88.3945 17.0066 87.814 16.6561 87.4127 15.9592C87.0699 15.3752 86.8984 14.6744 86.8984 13.8645C86.8984 12.7549 87.2062 11.6725 87.8257 10.6174C88.5348 9.39098 89.4075 8.77971 90.4399 8.77971C90.5996 8.77971 90.8412 8.79918 91.1607 8.83811C91.4801 8.87704 91.7217 8.89651 91.8814 8.89651C92.0061 8.89651 92.1931 8.87315 92.4385 8.82643C92.684 8.77971 92.871 8.75635 92.9957 8.75635C93.1905 8.75635 93.2879 8.83032 93.2879 8.97827C93.2879 9.07172 93.2372 9.25471 93.132 9.52725C93.019 9.84651 92.9528 10.0529 92.9411 10.1463C92.8165 10.8004 92.7502 11.8867 92.7502 13.4129C92.7502 14.2734 92.7541 14.7834 92.7658 14.943C92.8242 15.5854 92.9606 16.0527 93.1788 16.3525C93.3151 16.5121 93.3853 16.6211 93.3853 16.6795" fill="white"/>
<path d="M85.7485 2.21143C85.7056 2.31266 85.5926 2.93171 85.4095 4.0647C85.2654 4.99134 85.1212 5.52864 84.9771 5.6727C84.7706 5.89852 84.2875 6.02311 83.5238 6.04257C82.7602 6.06204 82.246 6.21778 81.9771 6.50589C81.8135 6.71225 81.5758 7.07044 81.2642 7.58827C81.1395 7.79462 81.0187 8.08274 80.894 8.45261C81.2875 9.46102 81.6771 10.4694 82.0667 11.4817C82.5615 12.6575 83.0758 13.6114 83.6135 14.3551C83.6563 14.4174 83.9953 14.7989 84.6342 15.4997C85.1718 16.0954 85.4368 16.4381 85.4368 16.5198C85.4368 16.8274 85.2303 16.9831 84.8173 16.9831C84.6108 16.9831 84.303 16.9559 83.8901 16.9053C83.4771 16.8547 83.1693 16.8274 82.9628 16.8274C82.7758 16.8274 82.5031 16.8469 82.1447 16.8897C81.7823 16.9325 81.5096 16.952 81.3265 16.952C81.2018 16.952 80.9642 16.6834 80.6174 16.15C80.1655 15.4297 79.8032 14.6043 79.5343 13.6776C79.3084 12.8133 79.0824 11.9489 78.8525 11.0846C78.7512 10.6719 78.5331 10.4655 78.2019 10.4655C77.7266 10.4655 77.4928 10.9911 77.4928 12.0424C77.4928 13.9151 77.8824 15.2233 78.6655 15.967C78.9967 16.2551 79.1603 16.4614 79.1603 16.586C79.1603 16.8313 78.985 16.9559 78.6344 16.9559C78.4084 16.9559 78.0695 16.9247 77.6136 16.8625C77.1617 16.8002 76.8188 16.769 76.5929 16.769C76.3046 16.769 75.876 16.7963 75.3111 16.8469C74.7462 16.8975 74.3254 16.9247 74.0605 16.9247C73.5462 16.9247 73.2891 16.7924 73.2891 16.5237C73.2891 16.5043 73.3904 16.3368 73.5968 16.0293C74.0488 15.3479 74.3176 14.7327 74.3994 14.176C74.7072 11.7659 74.863 9.90098 74.863 8.58499C74.863 6.28007 74.5553 4.49688 73.9358 3.23929C73.7722 2.90835 73.6903 2.702 73.6903 2.62024C73.6903 2.37495 73.854 2.25036 74.1851 2.25036C74.4306 2.25036 74.8124 2.27761 75.3306 2.32823C75.8448 2.37884 76.2383 2.4061 76.5033 2.4061C76.6669 2.4061 76.9162 2.38663 77.2435 2.3438C77.5747 2.30098 77.8201 2.28151 77.9837 2.28151C78.2292 2.28151 78.3539 2.39442 78.3539 2.62024C78.3539 2.72147 78.272 2.98233 78.1084 3.39114C77.6954 4.46184 77.4889 5.48192 77.4889 6.44749C77.4889 7.93089 77.8785 8.67065 78.6616 8.67065C78.7629 8.67065 78.8681 8.6395 78.9694 8.57721C79.7097 8.18397 80.2785 7.52598 80.6681 6.59934C80.894 6.0854 81.1122 5.29114 81.3187 4.22044C81.4823 3.33663 81.6421 2.80323 81.7979 2.62802C81.9538 2.45282 82.2265 2.36716 82.6161 2.36716C82.7174 2.36716 82.8849 2.37884 83.1109 2.39831C83.3368 2.41778 83.5044 2.42946 83.6057 2.42946C83.8745 2.42946 84.5836 2.35548 85.7368 2.21143" fill="white"/>
<path d="M6.59592 42.6449C7.41798 46.2346 8.73482 47.9828 10.1685 47.9828C19.1605 46.4838 16.519 60.1264 7.18032 56.3303C2.39604 54.115 0 49.9762 0 43.9102C0 37.0305 1.18438 28.6674 6.49463 20.7949C10.2504 14.6861 23.6916 5.23668 23.4422 4.87459C23.1305 4.41906 22.3124 4.01025 21.5643 3.58197C20.5358 2.99016 19.6592 2.69816 18.9345 2.69816L18.2644 1.23422H18.9345C20.6722 1.23422 23.1227 1.22254 26.2902 1.52623C31.6004 2.10635 35.1808 2.58525 40.0314 0L40.2651 0.198566L41.1456 0.942213C38.9093 1.54959 38.1886 2.39057 37.573 4.13094C37.1249 5.6416 36.9224 8.34754 36.9457 12.2643L37.2379 43.19C37.2379 44.3424 37.6626 45.2146 38.5041 45.8297C39.2872 46.2541 40.082 46.7018 40.9002 47.173C40.308 48.2125 39.9418 48.7771 39.8015 48.7264C32.7108 46.2541 29.9914 45.7129 22.8968 47.6168L21.6617 46.4643C21.6033 46.4098 21.4825 46.4877 21.3695 46.5422C24.0227 45.199 25.9473 43.2289 27.159 40.6242C28.02 38.7008 28.6823 36.1934 29.1304 33.1176C29.333 30.1508 29.6135 26.1678 29.9719 21.157V17.3414C29.9719 15.2701 29.8161 13.0664 29.5122 10.7186C29.0992 7.52992 28.6862 7.44816 28.207 7.18729C18.2683 14.4641 3.26874 28.1029 6.59592 42.6449Z" fill="white"/>
<path d="M141 34.1805C141 34.5776 140.817 34.9397 140.454 35.2668C140.31 35.3758 138.697 35.9559 135.612 37.0072C132.53 38.0584 130.878 38.584 130.66 38.584C129.355 38.584 128.7 37.8754 128.7 36.4621C128.7 35.3369 129.171 34.7762 130.114 34.7762C130.332 34.7762 130.66 34.858 131.092 35.0215C131.529 35.185 131.871 35.2668 132.125 35.2668C132.67 35.2668 133.251 35.1033 133.866 34.7762C134.482 34.4492 134.79 34.0326 134.79 33.5264C134.79 33.2733 134.435 32.2143 133.73 30.3455C133.021 28.4805 132.596 27.4721 132.452 27.3281C132.09 27.001 131.692 26.8375 131.256 26.8375C129.986 26.8375 128.988 27.8692 128.264 29.9367C127.757 31.494 127.504 33.0709 127.504 34.6672C127.504 37.2057 128.104 39.3783 129.3 41.1926C130.714 43.26 132.619 44.2918 135.012 44.2918C136.317 44.2918 137.513 43.8479 138.604 42.9602C139.691 42.0725 140.236 41.6287 140.236 41.6287C140.708 41.6287 140.945 41.9908 140.945 42.7149C140.945 44.7084 140.174 46.3865 138.635 47.7453C137.092 49.1041 135.327 49.7854 133.332 49.7854C130.177 49.7854 127.656 48.4461 125.77 45.7635C124.103 43.408 123.269 40.5813 123.269 37.2836C123.269 34.784 123.76 32.1014 124.738 29.2358C125.969 25.5371 127.547 23.6916 129.471 23.6916C129.869 23.6916 130.449 23.7539 131.213 23.8824C131.973 24.0108 132.553 24.0731 132.955 24.0731C133.317 24.0731 133.87 24.0264 134.614 23.9369C135.358 23.8473 135.912 23.8006 136.274 23.8006C136.889 23.8006 137.4 24.0537 137.797 24.5637C137.871 24.6377 138.424 26.2418 139.457 29.376C140.489 32.5102 141.008 34.1143 141.008 34.1883M117.826 39.0279C117.826 36.7074 117.246 34.2272 116.085 31.5797C114.706 28.391 113.019 26.7947 111.024 26.7947C110.007 26.7947 109.228 27.3203 108.686 28.3715C108.289 29.2047 108.086 30.182 108.086 31.3072C108.086 33.4836 108.741 35.9637 110.046 38.7553C111.569 41.9791 113.291 43.5949 115.216 43.5949C116.958 43.5949 117.826 42.0725 117.826 39.0279ZM121.473 34.8424C121.473 37.634 120.893 40.2621 119.731 42.7266C118.535 45.3002 116.868 47.4221 114.725 49.0885C113.926 49.7037 113.365 50.0113 113.038 50.0113C112.676 50.0113 111.986 49.6842 110.969 49.034C106.181 46.0983 103.789 41.3678 103.789 34.8463C103.789 30.2053 104.806 26.9465 106.836 25.0621C107.669 24.2639 108.449 23.8668 109.173 23.8668C109.536 23.8668 110.054 23.9291 110.724 24.0576C111.394 24.186 111.893 24.2483 112.22 24.2483C112.726 24.2483 113.471 24.1471 114.452 23.9485C115.43 23.75 116.174 23.6488 116.681 23.6488C117.117 23.6488 117.643 23.9914 118.259 24.6805C120.398 27.1451 121.469 30.5324 121.469 34.8463L121.473 34.8424ZM101.557 49.2481C101.557 49.5363 101.358 49.6842 100.957 49.6842C100.668 49.6842 100.232 49.6375 99.6515 49.5479C99.071 49.4584 98.6347 49.4117 98.3464 49.4117C97.984 49.4117 97.4503 49.474 96.7412 49.6024C96.0321 49.7309 95.4984 49.7932 95.1361 49.7932C94.2673 49.7932 93.8309 48.7225 93.8309 46.585C93.8309 45.7869 93.9945 44.6188 94.3218 43.077C94.6491 41.5352 94.8127 40.3672 94.8127 39.569C94.8127 38.4438 94.4426 37.486 93.6984 36.6879C92.9543 35.8897 92.0387 35.4926 90.9518 35.4926C88.922 35.4926 87.9051 37.0149 87.9051 40.0596C87.9051 41.5819 88.1038 43.2483 88.5051 45.0627C88.5791 45.3508 88.8479 46.0516 89.3193 47.1574C89.7908 48.2631 90.0284 48.8899 90.0284 49.034C90.0284 49.4701 89.7401 49.6881 89.1596 49.6881C88.7233 49.6881 88.0531 49.6414 87.1454 49.5518C86.2376 49.4623 85.548 49.4156 85.0766 49.4156C84.7883 49.4156 84.352 49.4506 83.7715 49.5246C83.1909 49.5985 82.7546 49.6336 82.4663 49.6336C82.0299 49.6336 81.8118 49.435 81.8118 49.034C81.8118 48.8899 81.9559 48.4344 82.2481 47.6752C83.1169 45.2846 83.5533 40.5151 83.5533 33.3785C83.5533 29.7186 83.0819 27.1256 82.139 25.6033C81.6325 24.8051 81.3754 24.334 81.3754 24.1899C81.3754 23.9018 81.5585 23.7539 81.9209 23.7539C82.2092 23.7539 82.6533 23.8006 83.2533 23.8901C83.8533 23.9797 84.2974 24.0264 84.5857 24.0264C84.948 24.0264 85.4818 23.9641 86.1909 23.8356C86.8999 23.7072 87.4142 23.6449 87.7415 23.6449C88.6492 23.6449 89.1012 24.9842 89.1012 27.6668C89.1012 29.4772 88.8129 31.8367 88.2324 34.7334C89.1012 33.7172 90.2076 33.211 91.5518 33.211C93.04 33.211 94.1465 33.5381 94.8711 34.1883C94.8711 30.5635 94.3257 27.6629 93.2387 25.4904C92.9504 24.9102 92.8024 24.5481 92.8024 24.4041C92.8024 23.968 93.0907 23.75 93.6712 23.75C94.1426 23.75 94.8322 23.7967 95.7399 23.8863C96.6477 23.9758 97.3178 24.0225 97.7542 24.0225C98.0425 24.0225 98.4788 23.9875 99.0593 23.9135C99.6398 23.8395 100.076 23.8045 100.364 23.8045C100.801 23.8045 101.019 24.0031 101.019 24.4041C101.019 24.5481 100.89 25.0037 100.637 25.7629C99.9126 27.7213 99.5502 30.8906 99.5502 35.2785C99.5502 36.0026 99.4879 37.0811 99.3593 38.5139C99.2308 39.9467 99.1684 41.0252 99.1684 41.7494C99.1684 44.0699 99.7139 46.0789 100.801 47.7842C101.307 48.6174 101.564 49.108 101.564 49.252L101.557 49.2481ZM80.3352 24.2406C80.3352 24.6766 80.0196 25.4826 79.3846 26.6584C78.7495 27.8381 78.2508 28.6051 77.8885 28.9672C77.3431 29.5473 76.5288 29.8354 75.4418 29.8354C74.8262 29.8354 73.938 29.6096 72.7769 29.1541C71.6159 28.7024 70.7277 28.4727 70.1121 28.4727C69.2783 28.4727 68.6238 29.2865 68.1524 30.9178C67.8251 32.043 67.6615 33.1838 67.6615 34.344C67.6615 36.8826 68.3316 39.0746 69.6757 40.924C71.164 42.9524 73.1393 43.9686 75.6054 43.9686C76.8755 43.9686 78.1456 43.626 79.4118 42.9369C79.7001 42.9719 79.8482 43.2445 79.8482 43.7506C79.8482 45.4559 79.0885 46.9043 77.5651 48.0996C76.1859 49.2248 74.6275 49.7854 72.886 49.7854C69.9835 49.7854 67.6654 48.6057 65.9239 46.2502C64.3265 44.1127 63.5317 41.5391 63.5317 38.5295C63.5317 36.1389 64.1122 33.7444 65.2733 31.3539C66.4343 28.9633 67.9576 26.9699 69.8433 25.3735C71.1835 24.2133 72.2549 23.6332 73.0536 23.6332C73.525 23.6332 74.2224 23.7149 75.1496 23.8785C76.073 24.042 76.7742 24.1238 77.2457 24.1238C77.534 24.1238 77.9625 24.0498 78.5235 23.9057C79.0846 23.7617 79.5131 23.6877 79.8014 23.6877C80.1638 23.6877 80.3469 23.8707 80.3469 24.2328L80.3352 24.2406ZM62.1565 34.1883C62.1565 34.5854 61.9733 34.9475 61.611 35.2746C61.4669 35.3836 59.85 35.9637 56.7683 37.0149C53.6866 38.0662 52.0347 38.5918 51.8165 38.5918C50.5113 38.5918 49.8568 37.8832 49.8568 36.4699C49.8568 35.3447 50.3282 34.784 51.271 34.784C51.4892 34.784 51.8165 34.8658 52.2489 35.0293C52.6853 35.1928 53.0281 35.2746 53.2814 35.2746C53.8268 35.2746 54.4073 35.111 55.0229 34.784C55.6385 34.4569 55.9462 34.0403 55.9462 33.5342C55.9462 33.2811 55.5917 32.2221 54.8865 30.3533C54.1775 28.4883 53.7528 27.4799 53.6086 27.3358C53.2463 27.0088 52.845 26.8453 52.4126 26.8453C51.1425 26.8453 50.1451 27.877 49.4204 29.9445C48.914 31.5018 48.6607 33.0787 48.6607 34.675C48.6607 37.2135 49.2607 39.386 50.4568 41.2004C51.871 43.2678 53.7762 44.2996 56.1683 44.2996C57.4735 44.2996 58.6695 43.8557 59.7604 42.968C60.8474 42.0803 61.3928 41.6365 61.3928 41.6365C61.8643 41.6365 62.1019 41.9985 62.1019 42.7227C62.1019 44.7162 61.3305 46.3942 59.7916 47.7531C58.2488 49.1119 56.4839 49.7932 54.4891 49.7932C51.3334 49.7932 48.8127 48.4539 46.927 45.7713C45.2595 43.4158 44.4258 40.5891 44.4258 37.2914C44.4258 34.7918 44.9167 32.1092 45.8946 29.2436C47.1296 25.5449 48.7036 23.6994 50.6282 23.6994C51.0256 23.6994 51.6061 23.7617 52.3697 23.8901C53.1333 24.0186 53.7099 24.0809 54.1112 24.0809C54.4736 24.0809 55.0268 24.0342 55.7709 23.9447C56.5151 23.8551 57.0683 23.8084 57.4306 23.8084C58.0462 23.8084 58.5566 24.0615 58.954 24.5715C59.028 24.6455 59.5812 26.2496 60.6136 29.3838C61.6461 32.518 62.1643 34.1221 62.1643 34.1961L62.1565 34.1883Z" fill="white"/>
</g>
<defs>
<clipPath id="clip0_211_1004">
<rect width="141" height="57" fill="white"/>
</clipPath>
</defs>
</svg>
