<svg width="20" height="16" viewBox="0 0 20 16" fill="none" xmlns="http://www.w3.org/2000/svg">
<path d="M10 1L10 3L9 3L9 4L8 4L8 5L7 5L7 6L6 6L6 7L5 7L5 9L6 9L6 10L7 10L7 11L8 11L8 12L9 12L9 13L10 13L10 15L9 15L9 16L7 16L7 15L6 15L6 14L5 14L5 13L4 13L4 12L3 12L3 11L2 11L2 10L0.999999 10L0.999999 9L-6.11959e-07 9L-7.86805e-07 7L0.999999 7L0.999999 6L2 6L2 5L3 5L3 4L4 4L4 3L5 3L5 2L6 2L6 1L7 1L7 2.62268e-07L9 8.74228e-08L9 1L10 1Z" fill="#8381AD"/>
<path d="M20 1L20 3L19 3L19 4L18 4L18 5L17 5L17 6L16 6L16 7L15 7L15 9L16 9L16 10L17 10L17 11L18 11L18 12L19 12L19 13L20 13L20 15L19 15L19 16L17 16L17 15L16 15L16 14L15 14L15 13L14 13L14 12L13 12L13 11L12 11L12 10L11 10L11 9L10 9L10 7L11 7L11 6L12 6L12 5L13 5L13 4L14 4L14 3L15 3L15 2L16 2L16 1L17 1L17 2.62268e-07L19 8.74228e-08L19 1L20 1Z" fill="#8381AD"/>
</svg>
