<svg width="14" height="10" viewBox="0 0 14 10" fill="none" xmlns="http://www.w3.org/2000/svg">
<path d="M13.1111 1.94412V2.49967H12.5556V3.05523H12V3.61079H11.4445V4.16634H10.8889V4.7219H10.3334V5.27745H9.7778V5.83301H9.22225V6.38856H8.66669V6.94412H8.11114V7.49967H7.55558V8.05523H7.00003V8.61079H6.44447V9.16634H5.88892V9.7219H4.7778V9.16634H4.22225V8.61079H3.66669V8.05523H3.11114V7.49967H2.55558V6.94412H2.00003V6.38856H1.44447V5.83301H0.888916V5.27745H1.44447V4.7219H2.00003V4.16634H2.55558V4.7219H3.11114V5.27745H3.66669V5.83301H4.22225V6.38856H4.7778V6.94412H5.88892V6.38856H6.44447V5.83301H7.00003V5.27745H7.55558V4.7219H8.11114V4.16634H8.66669V3.61079H9.22225V3.05523H9.7778V2.49967H10.3334V1.94412H10.8889V1.38856H11.4445V0.833008H12V1.38856H12.5556V1.94412H13.1111Z" fill="white"/>
</svg>
