<svg width="24" height="24" viewBox="0 0 24 24" fill="none" xmlns="http://www.w3.org/2000/svg">
<rect x="19.5" y="3" width="18" height="15" transform="rotate(90 19.5 3)" fill="#FBE974"/>
<rect x="3" y="9" width="1.5" height="6" fill="#FBE974"/>
<rect x="19.5" y="9" width="1.5" height="6" fill="#FBE974"/>
<rect x="15" y="7.5" width="9" height="7.5" transform="rotate(90 15 7.5)" fill="#F3B24E"/>
<rect x="16.5" y="15" width="1.5" height="7.5" transform="rotate(90 16.5 15)" fill="#FBE974"/>
<rect y="9" width="1.5" height="6" fill="#1F1F1F"/>
<rect x="1.5" y="9" width="1.5" height="6" fill="#F3B24E"/>
<rect x="6.00012" y="9" width="1.5" height="6" fill="#C8772B"/>
<rect x="16.5" y="9" width="1.5" height="6" fill="#F3B24E"/>
<rect x="15" y="16.5" width="1.5" height="6" transform="rotate(90 15 16.5)" fill="#F3B24E"/>
<rect x="15" y="15" width="1.5" height="3" transform="rotate(90 15 15)" fill="#FEFFFD"/>
<rect x="16.5" y="9" width="1.5" height="3" transform="rotate(90 16.5 9)" fill="#FBE974"/>
<rect x="16.5" y="10.5" width="1.5" height="4.5" transform="rotate(90 16.5 10.5)" fill="#FBE974"/>
<rect x="16.5" y="12" width="1.5" height="6" transform="rotate(90 16.5 12)" fill="#FBE974"/>
<rect x="16.5" y="13.5" width="1.5" height="7.5" transform="rotate(90 16.5 13.5)" fill="#FBE974"/>
<rect x="16.5" y="15" width="1.5" height="3" transform="rotate(-180 16.5 15)" fill="#FEFFFD"/>
<rect x="15" y="6" width="1.5" height="6" transform="rotate(90 15 6)" fill="#C8772B"/>
<rect x="24.0001" y="15" width="1.5" height="6" transform="rotate(-180 24.0001 15)" fill="#1F1F1F"/>
<rect x="22.5" y="15" width="1.5" height="6" transform="rotate(-180 22.5 15)" fill="#C8772B"/>
<rect x="15" width="1.5" height="6" transform="rotate(90 15 0)" fill="#1F1F1F"/>
<rect x="15" y="1.5" width="1.5" height="6" transform="rotate(90 15 1.5)" fill="#F3B24E"/>
<rect x="15" y="22.5" width="1.5" height="6" transform="rotate(90 15 22.5)" fill="#1F1F1F"/>
<rect x="15" y="21" width="1.5" height="6" transform="rotate(90 15 21)" fill="#F3B24E"/>
<rect x="1.5" y="15" width="1.5" height="3" fill="#1F1F1F"/>
<rect x="3" y="15" width="1.5" height="3" fill="#F3B24E"/>
<rect x="22.5" y="9" width="1.5" height="3" transform="rotate(-180 22.5 9)" fill="#1F1F1F"/>
<rect x="21" y="9" width="1.5" height="3" transform="rotate(-180 21 9)" fill="#C8772B"/>
<rect x="1.5" y="6" width="1.5" height="3" fill="#1F1F1F"/>
<rect x="3" y="6" width="1.5" height="3" fill="#F3B24E"/>
<rect x="22.5" y="18" width="1.5" height="3" transform="rotate(-180 22.5 18)" fill="#1F1F1F"/>
<rect x="21" y="18" width="1.5" height="3" transform="rotate(-180 21 18)" fill="#C8772B"/>
<rect x="8.99988" y="1.5" width="1.5" height="3" transform="rotate(90 8.99988 1.5)" fill="#1F1F1F"/>
<rect x="8.99988" y="3" width="1.5" height="3" transform="rotate(90 8.99988 3)" fill="#F3B24E"/>
<rect x="15" y="22.5" width="1.5" height="3" transform="rotate(-90 15 22.5)" fill="#1F1F1F"/>
<rect x="15" y="21" width="1.5" height="3" transform="rotate(-90 15 21)" fill="#C8772B"/>
<rect x="8.99988" y="21" width="1.5" height="3" transform="rotate(90 8.99988 21)" fill="#1F1F1F"/>
<rect x="8.99988" y="19.5" width="1.5" height="3" transform="rotate(90 8.99988 19.5)" fill="#F3B24E"/>
<rect x="15" y="3" width="1.5" height="3" transform="rotate(-90 15 3)" fill="#1F1F1F"/>
<rect x="15" y="4.5" width="1.5" height="3" transform="rotate(-90 15 4.5)" fill="#C8772B"/>
<rect x="3" y="4.5" width="1.5" height="1.5" fill="#1F1F1F"/>
<rect x="4.5" y="4.5" width="1.5" height="1.5" fill="#F3B24E"/>
<rect x="3" y="9" width="1.5" height="1.5" fill="#FEFFFD"/>
<rect x="8.99988" y="3" width="1.5" height="1.5" fill="#FEFFFD"/>
<rect x="4.5" y="6" width="1.5" height="3" fill="#FEFFFD"/>
<rect x="6.00012" y="6" width="1.5" height="3" transform="rotate(-90 6.00012 6)" fill="#FEFFFD"/>
<rect x="15" y="7.5" width="1.5" height="1.5" fill="#C8772B"/>
<rect x="7.50012" y="7.5" width="1.5" height="1.5" fill="#C8772B"/>
<rect x="7.50012" y="15" width="1.5" height="1.5" fill="#C8772B"/>
<rect x="15" y="15" width="1.5" height="1.5" fill="#F3B24E"/>
<rect x="13.5" y="13.5" width="1.5" height="1.5" fill="#FEFFFD"/>
<rect x="21" y="19.5" width="1.5" height="1.5" transform="rotate(-180 21 19.5)" fill="#1F1F1F"/>
<rect x="3" y="18" width="1.5" height="1.5" fill="#1F1F1F"/>
<rect x="21" y="6" width="1.5" height="1.5" transform="rotate(-180 21 6)" fill="#1F1F1F"/>
<rect x="19.5" y="6" width="1.5" height="1.5" transform="rotate(-180 19.5 6)" fill="#C8772B"/>
<rect x="4.5" y="19.5" width="1.5" height="1.5" fill="#1F1F1F"/>
<rect x="4.5" y="18" width="1.5" height="1.5" fill="#F3B24E"/>
<rect x="19.5" y="4.5" width="1.5" height="1.5" transform="rotate(-180 19.5 4.5)" fill="#1F1F1F"/>
<rect x="4.5" y="3" width="1.5" height="1.5" fill="#1F1F1F"/>
<rect x="19.5" y="21" width="1.5" height="1.5" transform="rotate(-180 19.5 21)" fill="#1F1F1F"/>
<rect x="19.5" y="19.5" width="1.5" height="1.5" transform="rotate(-180 19.5 19.5)" fill="#C8772B"/>
</svg>
