<svg width="24" height="25" viewBox="0 0 24 25" fill="none" xmlns="http://www.w3.org/2000/svg">
<rect x="19.5" y="3.25439" width="18" height="15" transform="rotate(90 19.5 3.25439)" fill="#B0755E"/>
<rect x="3" y="9.25439" width="1.5" height="6" fill="#B0755E"/>
<rect x="19.5" y="9.25439" width="1.5" height="6" fill="#B0755E"/>
<rect x="15" y="7.75439" width="9" height="7.5" transform="rotate(90 15 7.75439)" fill="#915C49"/>
<rect x="16.5" y="15.2544" width="1.5" height="7.5" transform="rotate(90 16.5 15.2544)" fill="#B0755E"/>
<rect y="9.25439" width="1.5" height="6" fill="#1F1F1F"/>
<rect x="1.5" y="9.25439" width="1.5" height="6" fill="#915C49"/>
<rect x="6.00012" y="9.25439" width="1.5" height="6" fill="#715428"/>
<rect x="16.5" y="9.25439" width="1.5" height="6" fill="#915C49"/>
<rect x="15" y="16.7544" width="1.5" height="6" transform="rotate(90 15 16.7544)" fill="#915C49"/>
<rect x="15" y="15.2544" width="1.5" height="3" transform="rotate(90 15 15.2544)" fill="#F6C89F"/>
<rect x="16.5" y="9.25439" width="1.5" height="3" transform="rotate(90 16.5 9.25439)" fill="#B0755E"/>
<rect x="16.5" y="10.7544" width="1.5" height="4.5" transform="rotate(90 16.5 10.7544)" fill="#B0755E"/>
<rect x="16.5" y="12.2544" width="1.5" height="6" transform="rotate(90 16.5 12.2544)" fill="#B0755E"/>
<rect x="16.5" y="13.7544" width="1.5" height="7.5" transform="rotate(90 16.5 13.7544)" fill="#B0755E"/>
<rect x="16.5" y="15.2544" width="1.5" height="3" transform="rotate(-180 16.5 15.2544)" fill="#F6C89F"/>
<rect x="15" y="6.25439" width="1.5" height="6" transform="rotate(90 15 6.25439)" fill="#715428"/>
<rect x="24.0001" y="15.2544" width="1.5" height="6" transform="rotate(-180 24.0001 15.2544)" fill="#1F1F1F"/>
<rect x="22.5" y="15.2544" width="1.5" height="6" transform="rotate(-180 22.5 15.2544)" fill="#715428"/>
<rect x="15" y="0.254395" width="1.5" height="6" transform="rotate(90 15 0.254395)" fill="#1F1F1F"/>
<rect x="15" y="1.75439" width="1.5" height="6" transform="rotate(90 15 1.75439)" fill="#915C49"/>
<rect x="15" y="22.7544" width="1.5" height="6" transform="rotate(90 15 22.7544)" fill="#1F1F1F"/>
<rect x="15" y="21.2544" width="1.5" height="6" transform="rotate(90 15 21.2544)" fill="#915C49"/>
<rect x="1.5" y="15.2544" width="1.5" height="3" fill="#1F1F1F"/>
<rect x="3" y="15.2544" width="1.5" height="3" fill="#915C49"/>
<rect x="22.5" y="9.25439" width="1.5" height="3" transform="rotate(-180 22.5 9.25439)" fill="#1F1F1F"/>
<rect x="21" y="9.25439" width="1.5" height="3" transform="rotate(-180 21 9.25439)" fill="#715428"/>
<rect x="1.5" y="6.25439" width="1.5" height="3" fill="#1F1F1F"/>
<rect x="3" y="6.25439" width="1.5" height="3" fill="#915C49"/>
<rect x="22.5" y="18.2544" width="1.5" height="3" transform="rotate(-180 22.5 18.2544)" fill="#1F1F1F"/>
<rect x="21" y="18.2544" width="1.5" height="3" transform="rotate(-180 21 18.2544)" fill="#715428"/>
<rect x="8.99988" y="1.75439" width="1.5" height="3" transform="rotate(90 8.99988 1.75439)" fill="#1F1F1F"/>
<rect x="8.99988" y="3.25439" width="1.5" height="3" transform="rotate(90 8.99988 3.25439)" fill="#915C49"/>
<rect x="15" y="22.7544" width="1.5" height="3" transform="rotate(-90 15 22.7544)" fill="#1F1F1F"/>
<rect x="15" y="21.2544" width="1.5" height="3" transform="rotate(-90 15 21.2544)" fill="#715428"/>
<rect x="8.99988" y="21.2544" width="1.5" height="3" transform="rotate(90 8.99988 21.2544)" fill="#1F1F1F"/>
<rect x="8.99988" y="19.7544" width="1.5" height="3" transform="rotate(90 8.99988 19.7544)" fill="#915C49"/>
<rect x="15" y="3.25439" width="1.5" height="3" transform="rotate(-90 15 3.25439)" fill="#1F1F1F"/>
<rect x="15" y="4.75439" width="1.5" height="3" transform="rotate(-90 15 4.75439)" fill="#715428"/>
<rect x="3" y="4.75439" width="1.5" height="1.5" fill="#1F1F1F"/>
<rect x="4.5" y="4.75439" width="1.5" height="1.5" fill="#915C49"/>
<rect x="3" y="9.25439" width="1.5" height="1.5" fill="#F6C89F"/>
<rect x="8.99988" y="3.25439" width="1.5" height="1.5" fill="#F6C89F"/>
<rect x="4.5" y="6.25439" width="1.5" height="3" fill="#F6C89F"/>
<rect x="6.00012" y="6.25439" width="1.5" height="3" transform="rotate(-90 6.00012 6.25439)" fill="#F6C89F"/>
<rect x="15" y="7.75439" width="1.5" height="1.5" fill="#715428"/>
<rect x="7.50012" y="7.75439" width="1.5" height="1.5" fill="#715428"/>
<rect x="7.50012" y="15.2544" width="1.5" height="1.5" fill="#715428"/>
<rect x="15" y="15.2544" width="1.5" height="1.5" fill="#915C49"/>
<rect x="13.5" y="13.7544" width="1.5" height="1.5" fill="#F6C89F"/>
<rect x="21" y="19.7544" width="1.5" height="1.5" transform="rotate(-180 21 19.7544)" fill="#1F1F1F"/>
<rect x="3" y="18.2544" width="1.5" height="1.5" fill="#1F1F1F"/>
<rect x="21" y="6.25439" width="1.5" height="1.5" transform="rotate(-180 21 6.25439)" fill="#1F1F1F"/>
<rect x="19.5" y="6.25439" width="1.5" height="1.5" transform="rotate(-180 19.5 6.25439)" fill="#715428"/>
<rect x="4.5" y="19.7544" width="1.5" height="1.5" fill="#1F1F1F"/>
<rect x="4.5" y="18.2544" width="1.5" height="1.5" fill="#915C49"/>
<rect x="19.5" y="4.75439" width="1.5" height="1.5" transform="rotate(-180 19.5 4.75439)" fill="#1F1F1F"/>
<rect x="4.5" y="3.25439" width="1.5" height="1.5" fill="#1F1F1F"/>
<rect x="19.5" y="21.2544" width="1.5" height="1.5" transform="rotate(-180 19.5 21.2544)" fill="#1F1F1F"/>
<rect x="19.5" y="19.7544" width="1.5" height="1.5" transform="rotate(-180 19.5 19.7544)" fill="#715428"/>
</svg>
