<svg width="22" height="21" viewBox="0 0 22 21" fill="none" xmlns="http://www.w3.org/2000/svg">
<g filter="url(#filter0_d_348_129642)">
<path d="M3.66665 10.8332H2.83331V9.1665H3.66665V7.49984H4.49998V6.6665H5.33331V5.83317H6.16665V4.99984H7.83331V4.1665H14.5V4.99984H13.6666V5.83317H12.8333V4.99984H11.1666V5.83317H9.49998V6.6665H8.66665V7.49984H7.83331V9.1665H6.99998V10.8332H7.83331V11.6665H6.99998V12.4998H6.16665V13.3332H4.49998V12.4998H3.66665V10.8332Z" fill="white"/>
<path d="M9.50002 9.1665H8.66669V9.99984H9.50002V9.1665Z" fill="white"/>
<path d="M12 6.6665H11.1667V7.49984H12V6.6665Z" fill="white"/>
<path d="M9.50002 14.1665H8.66669V14.9998H7.83335V15.8332H7.00002V16.6665H6.16669V17.4998H5.33335V18.3332H4.50002V17.4998H3.66669V16.6665H4.50002V15.8332H5.33335V14.9998H6.16669V14.1665H7.00002V13.3332H7.83335V12.4998H8.66669V11.6665H9.50002V10.8332H10.3334V9.99984H11.1667V9.1665H12V8.33317H12.8334V7.49984H13.6667V6.6665H14.5V5.83317H15.3334V4.99984H16.1667V4.1665H17V3.33317H17.8334V2.49984H18.6667V1.6665H19.5V2.49984H20.3334V3.33317H19.5V4.1665H18.6667V4.99984H17.8334V5.83317H17V6.6665H16.1667V7.49984H15.3334V8.33317H14.5V9.1665H13.6667V9.99984H12.8334V10.8332H12V11.6665H11.1667V12.4998H10.3334V13.3332H9.50002V14.1665Z" fill="white"/>
<path d="M12.8333 12.5H12V13.3333H12.8333V12.5Z" fill="white"/>
<path d="M13.6666 11.6665H12.8333V12.4998H13.6666V11.6665Z" fill="white"/>
<path d="M15.3333 10H14.5V10.8333H15.3333V10Z" fill="white"/>
<path d="M14.5 10.8335H13.6667V11.6668H14.5V10.8335Z" fill="white"/>
<path d="M21.1667 9.1665V10.8332H20.3333V12.4998H19.5V13.3332H18.6667V14.1665H17.8333V14.9998H16.1667V15.8332H9.5V14.9998H10.3333V14.1665H11.1667V14.9998H12.8333V14.1665H14.5V13.3332H15.3333V12.4998H16.1667V10.8332H17V9.1665H16.1667V8.33317H17V7.49984H17.8333V6.6665H19.5V7.49984H20.3333V9.1665H21.1667Z" fill="white"/>
</g>
<defs>
<filter id="filter0_d_348_129642" x="0" y="0" width="22" height="22" filterUnits="userSpaceOnUse" color-interpolation-filters="sRGB">
<feFlood flood-opacity="0" result="BackgroundImageFix"/>
<feColorMatrix in="SourceAlpha" type="matrix" values="0 0 0 0 0 0 0 0 0 0 0 0 0 0 0 0 0 0 127 0" result="hardAlpha"/>
<feOffset dx="-2" dy="2"/>
<feComposite in2="hardAlpha" operator="out"/>
<feColorMatrix type="matrix" values="0 0 0 0 0.380392 0 0 0 0 0.372549 0 0 0 0 0.513726 0 0 0 1 0"/>
<feBlend mode="normal" in2="BackgroundImageFix" result="effect1_dropShadow_348_129642"/>
<feBlend mode="normal" in="SourceGraphic" in2="effect1_dropShadow_348_129642" result="shape"/>
</filter>
</defs>
</svg>
