<svg width="22" height="20" viewBox="0 0 22 20" fill="none" xmlns="http://www.w3.org/2000/svg">
<g filter="url(#filter0_d_348_129693)">
<path d="M15.3334 9.16699V10.8337H14.5V11.667H13.6667V12.5003H12.8334V13.3337H11.1667V12.5003H10.3334V11.667H9.50002V10.8337H8.66669V9.16699H10.3334V8.33366H11.1667V6.66699H12.8334V7.50033H13.6667V8.33366H14.5V9.16699H15.3334Z" fill="white"/>
<path d="M20.3333 9.16699V7.50033H19.5V6.66699H18.6666V5.83366H17.8333V5.00033H16.1666V4.16699H7.83331V5.00033H6.16665V5.83366H5.33331V6.66699H4.49998V7.50033H3.66665V9.16699H2.83331V10.8337H3.66665V12.5003H4.49998V13.3337H5.33331V14.167H6.16665V15.0003H7.83331V15.8337H16.1666V15.0003H17.8333V14.167H18.6666V13.3337H19.5V12.5003H20.3333V10.8337H21.1666V9.16699H20.3333ZM17 10.8337H16.1666V12.5003H15.3333V13.3337H14.5V14.167H12.8333V15.0003H11.1666V14.167H9.49998V13.3337H8.66665V12.5003H7.83331V10.8337H6.99998V9.16699H7.83331V7.50033H8.66665V6.66699H9.49998V5.83366H11.1666V5.00033H12.8333V5.83366H14.5V6.66699H15.3333V7.50033H16.1666V9.16699H17V10.8337Z" fill="white"/>
</g>
<defs>
<filter id="filter0_d_348_129693" x="0" y="0" width="22" height="22" filterUnits="userSpaceOnUse" color-interpolation-filters="sRGB">
<feFlood flood-opacity="0" result="BackgroundImageFix"/>
<feColorMatrix in="SourceAlpha" type="matrix" values="0 0 0 0 0 0 0 0 0 0 0 0 0 0 0 0 0 0 127 0" result="hardAlpha"/>
<feOffset dx="-2" dy="2"/>
<feComposite in2="hardAlpha" operator="out"/>
<feColorMatrix type="matrix" values="0 0 0 0 0.380392 0 0 0 0 0.372549 0 0 0 0 0.513726 0 0 0 1 0"/>
<feBlend mode="normal" in2="BackgroundImageFix" result="effect1_dropShadow_348_129693"/>
<feBlend mode="normal" in="SourceGraphic" in2="effect1_dropShadow_348_129693" result="shape"/>
</filter>
</defs>
</svg>
