<svg width="36" height="36" viewBox="0 0 36 36" fill="none" xmlns="http://www.w3.org/2000/svg">
<rect x="36" width="36" height="36" transform="rotate(90 36 0)" fill="#0197DB"/>
<g clip-path="url(#clip0_2052_68)">
<path d="M12.2676 2.33398H23.957ZM11.0986 3.49976H12.2676ZM15.7744 3.49976H16.9434ZM23.957 3.49976H25.126ZM9.92969 4.66554H11.0986ZM15.7744 4.66554H16.9434ZM25.126 4.66554H26.2949ZM8.76074 5.83132H9.92969ZM15.7744 5.83132H16.9434ZM26.2949 5.83132H27.4639ZM8.76074 6.99709H9.92969ZM14.6055 6.99709H15.7744ZM26.2949 6.99709H27.4639ZM7.5918 8.16287H8.76074ZM14.6055 8.16287H15.7744ZM27.4639 8.16287H28.6328ZM7.5918 9.32865H8.76074ZM14.6055 9.32865H15.7744ZM27.4639 9.32865H28.6328ZM7.5918 10.4944H8.76074ZM14.6055 10.4944H15.7744ZM20.4502 10.4944H30.9707ZM7.5918 11.6602H8.76074ZM14.6055 11.6602H15.7744ZM16.9434 11.6602H20.4502ZM30.9707 11.6602H32.1396ZM8.76074 12.826H11.0986ZM14.6055 12.826H16.9434ZM32.1396 12.826H33.3086ZM11.0986 13.9918H16.9434ZM29.8018 13.9918H33.3086ZM16.9434 15.1575H19.2812ZM25.126 15.1575H29.8018ZM19.2812 16.3233H25.126Z" fill="black"/>
<path fill-rule="evenodd" clip-rule="evenodd" d="M15.7744 2.91578H12.2676V1.75H23.957V2.91578H16.9434V6.41311H15.7744V2.91578ZM16.9434 12.242V14.5736H11.0986V13.4078H14.6055V6.41311H15.7744V12.242H16.9434ZM8.76074 12.242H11.0986V13.4078H8.76074V12.242ZM8.76074 7.57889V12.242H7.5918V7.57889H8.76074ZM9.92969 5.24733V7.57889H8.76074V5.24733H9.92969ZM11.0986 4.08156V5.24733H9.92969V4.08156H11.0986ZM11.0986 4.08156V2.91578H12.2676V4.08156H11.0986ZM19.2812 15.7393H16.9434V14.5736H19.2812V15.7393ZM25.126 15.7393V16.9051H19.2812V15.7393H25.126ZM29.8018 14.5736V15.7393H25.126V14.5736H29.8018ZM32.1396 12.242H33.3086V14.5736H29.8018V13.4078H32.1396V12.242ZM30.9707 11.0762H32.1396V12.242H30.9707V11.0762ZM20.4502 11.0762H16.9434V12.242H20.4502V11.0762ZM27.4639 7.57889H28.6328V9.91044H30.9707V11.0762H20.4502V9.91044H27.4639V7.57889ZM26.2949 5.24733H27.4639V7.57889H26.2949V5.24733ZM25.126 4.08156H26.2949V5.24733H25.126V4.08156ZM25.126 4.08156V2.91578H23.957V4.08156H25.126Z" fill="#0F8788"/>
<path d="M12.2681 3.49805H14.606ZM12.2681 4.66382H14.606ZM11.0991 5.8296H14.606ZM11.0991 6.99538H14.606ZM9.93018 8.16116H14.606ZM9.93018 9.32693H14.606ZM15.7749 9.32693H16.9438ZM9.93018 10.4927H14.606ZM15.7749 10.4927H20.4507ZM9.93018 11.6585H14.606ZM15.7749 11.6585H16.9438ZM11.0991 12.8243H14.606ZM16.9438 12.8243H18.1128ZM16.9438 13.99H19.2817ZM23.9575 13.99H29.8022ZM19.2817 15.1558H25.1265ZM16.9438 41.9687H18.1128ZM2.9165 43.1345H4.08545ZM15.7749 43.1345H16.9438ZM2.9165 44.3003H5.25439ZM14.606 44.3003H16.9438ZM1.74756 45.466H6.42334ZM13.437 45.466H15.7749ZM6.42334 46.6318H15.7749Z" fill="black"/>
<path fill-rule="evenodd" clip-rule="evenodd" d="M14.606 2.91602V13.408H11.0991V12.2422H9.93018V7.57913H11.0991V5.24757H12.2681V2.91602H14.606ZM16.9438 8.7449V9.91068H20.4507V11.0765H16.9438V12.2422H15.7749V8.7449H16.9438ZM19.2817 14.5738H16.9438V12.2422H18.1128V13.408H19.2817V14.5738ZM19.2817 14.5738V15.7396H25.1265V14.5738H29.8022V13.408H23.9575V14.5738H19.2817ZM18.1128 42.5525H16.9438V41.3867H18.1128V42.5525ZM6.42334 46.0498H13.437V44.884H14.606V43.7182H15.7749V42.5525H16.9438V44.884H15.7749V47.2156H6.42334V46.0498ZM6.42334 46.0498V44.884H5.25439V43.7182H4.08545V42.5525H2.9165V44.884H1.74756V46.0498H6.42334Z" fill="#16C1D3"/>
<path d="M14.6055 3.49805H15.7744ZM16.9434 3.49805H23.957ZM11.0986 4.66382H12.2676ZM14.6055 4.66382H15.7744ZM16.9434 4.66382H25.126ZM9.92969 5.8296H11.0986ZM14.6055 5.8296H15.7744ZM16.9434 5.8296H26.2949ZM9.92969 6.99538H11.0986ZM15.7744 6.99538H26.2949ZM8.76074 8.16116H9.92969ZM15.7744 8.16116H27.4639ZM8.76074 9.32693H9.92969ZM16.9434 9.32693H27.4639ZM8.76074 10.4927H9.92969ZM8.76074 11.6585H9.92969ZM20.4502 11.6585H30.9707ZM18.1123 12.8243H32.1396ZM19.2812 13.99H23.957ZM4.08496 34.974H5.25391ZM5.25391 36.1398H6.42285ZM4.08496 37.3056H6.42285ZM13.4365 37.3056H19.2812ZM4.08496 38.4714H6.42285ZM13.4365 38.4714H15.7744ZM18.1123 38.4714H19.2812ZM4.08496 39.6372H5.25391ZM12.2676 39.6372H14.6055ZM16.9434 39.6372H18.1123ZM2.91602 40.8029H5.25391ZM12.2676 40.8029H14.6055ZM16.9434 40.8029H18.1123ZM2.91602 41.9687H5.25391ZM12.2676 41.9687H16.9434ZM4.08496 43.1345H5.25391ZM12.2676 43.1345H13.4365ZM14.6055 43.1345H15.7744ZM12.2676 44.3003H14.6055ZM11.0986 45.466H13.4365ZM19.2812 53.6265H20.4502ZM7.5918 54.7923H11.0986ZM28.6328 54.7923H32.1396ZM5.25391 55.958H11.0986ZM28.6328 55.958H33.3086ZM7.5918 57.1238H32.1396ZM9.92969 58.2896H29.8018Z" fill="black"/>
<path fill-rule="evenodd" clip-rule="evenodd" d="M15.7744 2.91602V6.41335H14.6055V2.91602H15.7744ZM23.957 2.91602V4.08179H25.126V5.24757H26.2949V7.57913H27.4639V9.91068H16.9434V8.7449H15.7744V6.41335H16.9434V2.91602H23.957ZM12.2676 5.24757H11.0986V4.08179H12.2676V5.24757ZM9.92969 7.57913V5.24757H11.0986V7.57913H9.92969ZM9.92969 7.57913H8.76074V12.2422H9.92969V7.57913ZM30.9707 11.0765V12.2422H32.1396V13.408H23.957V14.5738H19.2812V13.408H18.1123V12.2422H20.4502V11.0765H30.9707ZM5.25391 35.5578H4.08496V34.392H5.25391V35.5578ZM6.42285 35.5578V39.0551H5.25391V43.7182H4.08496V42.5525H2.91602V40.2209H4.08496V36.7236H5.25391V35.5578H6.42285ZM19.2812 36.7236V39.0551H18.1123V37.8893H15.7744V39.0551H14.6055V41.3867H16.9434V42.5525H15.7744V43.7182H14.6055V42.5525H13.4365V43.7182H14.6055V44.884H13.4365V46.0498H11.0986V44.884H12.2676V39.0551H13.4365V36.7236H19.2812ZM16.9434 41.3867H18.1123V39.0551H16.9434V41.3867ZM20.4502 54.2102H19.2812V53.0445H20.4502V54.2102ZM11.0986 54.2102V56.5418H28.6328V54.2102H32.1396V55.376H33.3086V56.5418H32.1396V57.7076H29.8018V58.8733H9.92969V57.7076H7.5918V56.5418H5.25391V55.376H7.5918V54.2102H11.0986Z" fill="#10DFFF"/>
<path d="M7.5918 12.8262H8.76074ZM7.5918 13.9919H8.76074ZM6.42285 15.1577H7.5918ZM29.8018 15.1577H30.9707ZM6.42285 16.3235H7.5918ZM29.8018 16.3235H30.9707ZM6.42285 17.4893H7.5918ZM14.6055 17.4893H16.9434ZM23.957 17.4893H26.2949ZM29.8018 17.4893H30.9707ZM5.25391 18.6551H6.42285ZM13.4365 18.6551H15.7744ZM16.9434 18.6551H18.1123ZM22.7881 18.6551H25.126ZM26.2949 18.6551H27.4639ZM30.9707 18.6551H32.1396ZM5.25391 19.8208H6.42285ZM13.4365 19.8208H14.6055ZM15.7744 19.8208H18.1123ZM22.7881 19.8208H23.957ZM25.126 19.8208H27.4639ZM30.9707 19.8208H32.1396ZM5.25391 20.9866H6.42285ZM14.6055 20.9866H16.9434ZM23.957 20.9866H26.2949ZM30.9707 20.9866H32.1396ZM5.25391 22.1524H6.42285ZM20.4502 22.1524H22.7881ZM30.9707 22.1524H32.1396ZM5.25391 23.3182H6.42285ZM30.9707 23.3182H32.1396ZM5.25391 24.4839H6.42285ZM18.1123 24.4839H19.2812ZM22.7881 24.4839H23.957ZM30.9707 24.4839H32.1396ZM5.25391 25.6497H6.42285ZM19.2812 25.6497H22.7881ZM30.9707 25.6497H32.1396ZM5.25391 26.8155H6.42285ZM30.9707 26.8155H32.1396ZM6.42285 27.9813H7.5918ZM29.8018 27.9813H30.9707ZM7.5918 29.1471H8.76074ZM28.6328 29.1471H29.8018ZM8.76074 30.3128H9.92969ZM27.4639 30.3128H28.6328ZM9.92969 31.4786H11.0986ZM21.6191 31.4786H27.4639ZM8.76074 32.6444H9.92969ZM27.4639 32.6444H28.6328ZM7.5918 33.8102H8.76074ZM13.4365 33.8102H15.7744ZM27.4639 33.8102H28.6328ZM7.5918 34.9759H8.76074ZM13.4365 34.9759H14.6055ZM25.126 34.9759H26.2949ZM28.6328 34.9759H29.8018ZM6.42285 36.1417H7.5918ZM13.4365 36.1417H14.6055ZM25.126 36.1417H26.2949ZM28.6328 36.1417H29.8018ZM6.42285 37.3075H7.5918ZM12.2676 37.3075H13.4365ZM26.2949 37.3075H27.4639ZM28.6328 37.3075H29.8018ZM6.42285 38.4733H7.5918ZM12.2676 38.4733H13.4365ZM26.2949 38.4733H27.4639ZM29.8018 38.4733H30.9707ZM5.25391 39.6391H6.42285ZM11.0986 39.6391H12.2676ZM26.2949 39.6391H27.4639ZM29.8018 39.6391H30.9707ZM5.25391 40.8048H6.42285ZM11.0986 40.8048H12.2676ZM26.2949 40.8048H27.4639ZM29.8018 40.8048H30.9707ZM5.25391 41.9706H6.42285ZM7.5918 41.9706H12.2676ZM26.2949 41.9706H27.4639ZM29.8018 41.9706H30.9707ZM5.25391 43.1364H7.5918ZM8.76074 43.1364H9.92969ZM11.0986 43.1364H12.2676ZM26.2949 43.1364H27.4639ZM29.8018 43.1364H30.9707ZM5.25391 44.3022H6.42285ZM7.5918 44.3022H8.76074ZM9.92969 44.3022H12.2676ZM25.126 44.3022H26.2949ZM29.8018 44.3022H30.9707ZM6.42285 45.4679H11.0986ZM23.957 45.4679H26.2949ZM29.8018 45.4679H30.9707ZM21.6191 46.6337H23.957ZM25.126 46.6337H29.8018ZM19.2812 47.7995H21.6191ZM25.126 47.7995H27.4639ZM28.6328 47.7995H29.8018ZM11.0986 48.9653H12.2676ZM18.1123 48.9653H19.2812ZM20.4502 48.9653H21.6191ZM25.126 48.9653H26.2949ZM27.4639 48.9653H28.6328ZM11.0986 50.1311H12.2676ZM18.1123 50.1311H19.2812ZM20.4502 50.1311H21.6191ZM25.126 50.1311H27.4639ZM11.0986 51.2968H12.2676ZM18.1123 51.2968H19.2812ZM20.4502 51.2968H21.6191ZM25.126 51.2968H26.2949ZM11.0986 52.4626H12.2676ZM14.6055 52.4626H19.2812ZM20.4502 52.4626H21.6191ZM23.957 52.4626H26.2949ZM11.0986 53.6284H12.2676ZM13.4365 53.6284H14.6055ZM15.7744 53.6284H16.9434ZM18.1123 53.6284H19.2812ZM20.4502 53.6284H21.6191ZM22.7881 53.6284H23.957ZM25.126 53.6284H27.4639ZM11.0986 54.7942H13.4365ZM14.6055 54.7942H15.7744ZM16.9434 54.7942H18.1123ZM19.2812 54.7942H22.7881ZM23.957 54.7942H25.126ZM26.2949 54.7942H28.6328ZM11.0986 55.9599H28.6328Z" fill="black"/>
<path fill-rule="evenodd" clip-rule="evenodd" d="M8.76074 12.2422V14.5737H7.5918V12.2422H8.76074ZM6.42285 18.0711V14.5737H7.5918V18.0711H6.42285ZM6.42285 18.0711H5.25391V27.3973H6.42285V28.5631H7.5918V29.7289H8.76074V30.8946H9.92969V32.0604H8.76074V33.2262H7.5918V35.5577H6.42285V39.0551H5.25391V44.884H6.42285V46.0497H11.0986V44.884H12.2676V39.0551H13.4365V36.7235H14.6055V34.392H15.7744V33.2262H13.4365V36.7235H12.2676V39.0551H11.0986V41.3866H7.5918V42.5524H6.42285V39.0551H7.5918V35.5577H8.76074V33.2262H9.92969V32.0604H11.0986V30.8946H9.92969V29.7289H8.76074V28.5631H7.5918V27.3973H6.42285V18.0711ZM8.76074 43.7182H7.5918V42.5524H8.76074V43.7182ZM8.76074 43.7182H9.92969V44.884H8.76074V43.7182ZM7.5918 43.7182H6.42285V44.884H7.5918V43.7182ZM30.9707 14.5737V18.0711H29.8018V14.5737H30.9707ZM30.9707 27.3973V18.0711H32.1396V27.3973H30.9707ZM30.9707 27.3973H29.8018V28.5631H28.6328V29.7289H27.4639V30.8946H21.6191V32.0604H27.4639V34.392H28.6328V37.8893H29.8018V46.0497H26.2949V43.7182H27.4639V36.7235H26.2949V34.392H25.126V36.7235H26.2949V43.7182H25.126V44.884H23.957V46.0497H21.6191V47.2155H19.2812V48.3813H18.1123V51.8786H14.6055V53.0444H13.4365V54.2102H12.2676V48.3813H11.0986V56.5417H28.6328V54.2102H27.4639V53.0444H26.2949V50.7128H27.4639V49.5471H28.6328V48.3813H29.8018V46.0497H30.9707V37.8893H29.8018V34.392H28.6328V32.0604H27.4639V30.8946H28.6328V29.7289H29.8018V28.5631H30.9707V27.3973ZM27.4639 48.3813V47.2155H28.6328V48.3813H27.4639ZM27.4639 48.3813H26.2949V49.5471H27.4639V48.3813ZM14.6055 54.2102V55.376H13.4365V54.2102H14.6055ZM15.7744 54.2102V53.0444H14.6055V54.2102H15.7744ZM16.9434 54.2102V55.376H15.7744V54.2102H16.9434ZM18.1123 54.2102H16.9434V53.0444H18.1123V54.2102ZM19.2812 54.2102V55.376H18.1123V54.2102H19.2812ZM19.2812 54.2102H20.4502V48.3813H19.2812V54.2102ZM22.7881 54.2102V55.376H23.957V54.2102H25.126V55.376H26.2949V54.2102H25.126V53.0444H23.957V51.8786H25.126V46.0497H23.957V47.2155H21.6191V54.2102H22.7881ZM23.957 53.0444H22.7881V54.2102H23.957V53.0444ZM16.9434 18.0711H15.7744V19.2369H14.6055V20.4026H13.4365V18.0711H14.6055V16.9053H16.9434V18.0711ZM16.9434 18.0711H18.1123V20.4026H16.9434V21.5684H14.6055V20.4026H15.7744V19.2369H16.9434V18.0711ZM26.2949 18.0711H25.126V19.2369H23.957V20.4026H22.7881V18.0711H23.957V16.9053H26.2949V18.0711ZM26.2949 18.0711H27.4639V20.4026H26.2949V21.5684H23.957V20.4026H25.126V19.2369H26.2949V18.0711ZM22.7881 22.7342H20.4502V21.5684H22.7881V22.7342ZM19.2812 25.0657H18.1123V23.9H19.2812V25.0657ZM22.7881 25.0657V26.2315H19.2812V25.0657H22.7881ZM22.7881 25.0657H23.957V23.9H22.7881V25.0657ZM11.0986 42.5524H9.92969V43.7182H11.0986V42.5524Z" fill="#DB4C7A"/>
<path d="M8.76123 13.9922H11.0991ZM7.59229 15.158H11.0991ZM7.59229 16.3237H9.93018ZM12.2681 16.3237H16.9438ZM28.6333 16.3237H29.8022ZM7.59229 17.4895H8.76123ZM11.0991 17.4895H14.606ZM16.9438 17.4895H19.2817ZM28.6333 17.4895H29.8022ZM6.42334 18.6553H8.76123ZM9.93018 18.6553H13.437ZM18.1128 18.6553H20.4507ZM27.4644 18.6553H28.6333ZM29.8022 18.6553H30.9712ZM6.42334 19.8211H7.59229ZM8.76123 19.8211H13.437ZM18.1128 19.8211H20.4507ZM27.4644 19.8211H28.6333ZM29.8022 19.8211H30.9712ZM6.42334 20.9869H7.59229ZM8.76123 20.9869H14.606ZM16.9438 20.9869H19.2817ZM26.2954 20.9869H30.9712ZM6.42334 22.1526H18.1128ZM25.1265 22.1526H30.9712ZM6.42334 23.3184H15.7749ZM27.4644 23.3184H30.9712ZM6.42334 24.4842H12.2681ZM29.8022 24.4842H30.9712ZM6.42334 25.65H9.93018ZM7.59229 26.8157H8.76123ZM29.8022 26.8157H30.9712ZM8.76123 27.9815H11.0991ZM28.6333 27.9815H29.8022ZM9.93018 29.1473H13.437ZM26.2954 29.1473H27.4644ZM11.0991 30.3131H16.9438ZM9.93018 32.6446H13.437ZM26.2954 32.6446H27.4644ZM8.76123 33.8104H13.437ZM15.7749 33.8104H18.1128ZM25.1265 33.8104H27.4644ZM8.76123 34.9762H12.2681ZM14.606 34.9762H25.1265ZM26.2954 34.9762H28.6333ZM7.59229 36.142H12.2681ZM19.2817 36.142H25.1265ZM27.4644 36.142H28.6333ZM7.59229 37.3077H11.0991ZM20.4507 37.3077H26.2954ZM7.59229 38.4735H11.0991ZM20.4507 38.4735H26.2954ZM28.6333 38.4735H29.8022ZM6.42334 39.6393H9.93018ZM19.2817 39.6393H26.2954ZM28.6333 39.6393H29.8022ZM6.42334 40.8051H7.59229ZM19.2817 40.8051H26.2954ZM28.6333 40.8051H29.8022ZM19.2817 41.9709H26.2954ZM28.6333 41.9709H29.8022ZM19.2817 43.1366H25.1265ZM28.6333 43.1366H29.8022ZM20.4507 44.3024H22.7886ZM28.6333 44.3024H29.8022ZM27.4644 45.4682H29.8022ZM23.9575 46.634H25.1265ZM21.6196 47.7997H25.1265ZM13.437 48.9655H14.606ZM15.7749 48.9655H18.1128ZM21.6196 48.9655H25.1265ZM13.437 50.1313H18.1128ZM21.6196 50.1313H25.1265ZM13.437 51.2971H18.1128ZM21.6196 51.2971H25.1265ZM21.6196 52.4629H23.9575ZM21.6196 53.6286H22.7886Z" fill="black"/>
<path fill-rule="evenodd" clip-rule="evenodd" d="M11.0989 13.4081V15.7396H9.92993V16.9054H8.76099V19.237H7.59204V21.5685H8.76099V19.237H9.92993V18.0712H11.0989V16.9054H12.2678V15.7396H16.9436V16.9054H14.6057V18.0712H13.4368V20.4027H14.6057V21.5685H16.9436V20.4027H18.1125V18.0712H16.9436V16.9054H19.2815V18.0712H20.4504V20.4027H19.2815V21.5685H18.1125V22.7343H15.7747V23.9001H12.2678V25.0659H9.92993V26.2316H8.76099V27.3974H7.59204V26.2316H6.4231V18.0712H7.59204V14.5739H8.76099V13.4081H11.0989ZM8.76099 27.3974V28.5632H9.92993V29.729H11.0989V30.8947H16.9436V29.729H13.4368V28.5632H11.0989V27.3974H8.76099ZM29.802 15.7396V18.0712H28.6331V15.7396H29.802ZM28.6331 18.0712V20.4027H29.802V18.0712H30.9709V25.0659H29.802V23.9001H27.4641V22.7343H25.1262V21.5685H26.2952V20.4027H27.4641V18.0712H28.6331ZM30.9709 27.3974H29.802V26.2316H30.9709V27.3974ZM29.802 28.5632H28.6331V27.3974H29.802V28.5632ZM27.4641 29.729H26.2952V28.5632H27.4641V29.729ZM13.4368 32.0605V34.3921H12.2678V36.7236H11.0989V39.0552H9.92993V40.221H7.59204V41.3867H6.4231V39.0552H7.59204V35.5579H8.76099V33.2263H9.92993V32.0605H13.4368ZM27.4641 32.0605V34.3921H28.6331V36.7236H27.4641V35.5579H26.2952V34.3921H25.1262V33.2263H26.2952V32.0605H27.4641ZM18.1125 33.2263V34.3921H25.1262V36.7236H26.2952V42.5525H25.1262V43.7183H22.7883V44.8841H20.4504V43.7183H19.2815V39.0552H20.4504V36.7236H19.2815V35.5579H14.6057V34.3921H15.7747V33.2263H18.1125ZM29.802 37.8894V46.0499H27.4641V44.8841H28.6331V37.8894H29.802ZM25.1262 46.0499V51.8787H23.9573V53.0445H22.7883V54.2103H21.6194V47.2156H23.9573V46.0499H25.1262ZM14.6057 48.3814V49.5472H15.7747V48.3814H18.1125V51.8787H13.4368V48.3814H14.6057Z" fill="#FF7BB7"/>
<path d="M11.0991 15.1562H16.9438ZM9.93018 16.322H12.2681ZM16.9438 16.322H19.2817ZM25.1265 16.322H28.6333ZM8.76123 17.4878H11.0991ZM19.2817 17.4878H23.9575ZM26.2954 17.4878H28.6333ZM8.76123 18.6536H9.93018ZM15.7749 18.6536H16.9438ZM20.4507 18.6536H22.7886ZM25.1265 18.6536H26.2954ZM28.6333 18.6536H29.8022ZM7.59229 19.8194H8.76123ZM20.4507 19.8194H22.7886ZM28.6333 19.8194H29.8022ZM7.59229 20.9851H8.76123ZM19.2817 20.9851H20.4507ZM22.7886 20.9851H23.9575ZM18.1128 22.1509H20.4507ZM22.7886 22.1509H25.1265ZM15.7749 23.3167H27.4644ZM12.2681 24.4825H18.1128ZM19.2817 24.4825H22.7886ZM23.9575 24.4825H29.8022ZM9.93018 25.6482H18.1128ZM23.9575 25.6482H30.9712ZM8.76123 26.814H19.2817ZM22.7886 26.814H29.8022ZM11.0991 27.9798H28.6333ZM13.437 29.1456H26.2954ZM16.9438 30.3114H23.9575ZM7.59229 43.1349H8.76123ZM9.93018 43.1349H11.0991ZM6.42334 44.3007H7.59229ZM8.76123 44.3007H9.93018ZM27.4644 47.798H28.6333ZM26.2954 48.9638H27.4644ZM14.606 53.6269H15.7749ZM16.9438 53.6269H18.1128ZM23.9575 53.6269H25.1265ZM13.437 54.7927H14.606ZM15.7749 54.7927H16.9438ZM18.1128 54.7927H19.2817ZM22.7886 54.7927H23.9575ZM25.1265 54.7927H26.2954Z" fill="black"/>
<path fill-rule="evenodd" clip-rule="evenodd" d="M16.9436 15.7398H12.2678V16.9055H11.0989V18.0713H9.92993V19.2371H8.76099V16.9055H9.92993V15.7398H11.0989V14.574H16.9436V15.7398ZM19.2815 16.9055H16.9436V15.7398H19.2815V16.9055ZM22.7883 20.4029H20.4504V18.0713H19.2815V16.9055H23.9573V18.0713H22.7883V20.4029ZM22.7883 20.4029V22.7344H20.4504V20.4029H19.2815V21.5686H18.1125V22.7344H15.7747V23.9002H12.2678V25.066H9.92993V26.2318H8.76099V27.3975H11.0989V28.5633H13.4368V29.7291H16.9436V30.8949H23.9573V29.7291H26.2952V28.5633H28.6331V27.3975H29.802V26.2318H30.9709V25.066H29.802V23.9002H27.4641V22.7344H25.1262V21.5686H23.9573V20.4029H22.7883ZM26.2952 16.9055H25.1262V15.7398H28.6331V18.0713H26.2952V16.9055ZM26.2952 18.0713H25.1262V19.2371H26.2952V18.0713ZM16.9436 19.2371H15.7747V18.0713H16.9436V19.2371ZM29.802 18.0713V20.4029H28.6331V18.0713H29.802ZM8.76099 19.2371V21.5686H7.59204V19.2371H8.76099ZM19.2815 23.9002H18.1125V26.2318H19.2815V27.3975H22.7883V26.2318H23.9573V23.9002H22.7883V25.066H19.2815V23.9002ZM8.76099 43.7184H7.59204V42.5526H8.76099V43.7184ZM9.92993 43.7184V44.8842H8.76099V43.7184H9.92993ZM9.92993 43.7184H11.0989V42.5526H9.92993V43.7184ZM7.59204 44.8842H6.4231V43.7184H7.59204V44.8842ZM28.6331 48.3815H27.4641V47.2157H28.6331V48.3815ZM27.4641 49.5473H26.2952V48.3815H27.4641V49.5473ZM15.7747 54.2104H14.6057V53.0446H15.7747V54.2104ZM16.9436 54.2104V55.3762H15.7747V54.2104H16.9436ZM18.1125 54.2104H16.9436V53.0446H18.1125V54.2104ZM18.1125 54.2104V55.3762H19.2815V54.2104H18.1125ZM25.1262 54.2104H23.9573V53.0446H25.1262V54.2104ZM14.6057 55.3762H13.4368V54.2104H14.6057V55.3762ZM23.9573 55.3762H22.7883V54.2104H23.9573V55.3762ZM26.2952 55.3762H25.1262V54.2104H26.2952V55.3762Z" fill="#FFDEF1"/>
<path d="M5.25391 17.4884H6.42285ZM30.9707 17.4884H32.1396ZM28.6328 33.8093H29.8018ZM29.8018 37.3066H30.9707ZM29.8018 46.6328H30.9707Z" fill="black"/>
<path fill-rule="evenodd" clip-rule="evenodd" d="M6.42285 18.072H5.25391V16.9062H6.42285V18.072ZM32.1396 18.072H30.9707V16.9062H32.1396V18.072ZM29.8018 34.3929H28.6328V33.2271H29.8018V34.3929ZM30.9707 37.8902H29.8018V36.7245H30.9707V37.8902ZM30.9707 47.2165H29.8018V46.0507H30.9707V47.2165Z" fill="#FF5555" fill-opacity="0.0117647"/>
<path d="M14.6057 19.8202H15.7747ZM23.9573 19.8202H25.1262ZM20.4504 20.986H22.7883ZM18.1125 25.6491H19.2815ZM22.7883 25.6491H23.9573ZM6.4231 26.8149H7.59204ZM19.2815 26.8149H22.7883ZM7.59204 27.9806H8.76099ZM8.76099 29.1464H9.92993ZM27.4641 29.1464H28.6331ZM9.92993 30.3122H11.0989ZM23.9573 30.3122H27.4641ZM11.0989 31.478H21.6194ZM13.4368 32.6437H26.2952ZM18.1125 33.8095H25.1262ZM12.2678 34.9753H13.4368ZM12.2678 36.1411H13.4368ZM26.2952 36.1411H27.4641ZM11.0989 37.3069H12.2678ZM27.4641 37.3069H28.6331ZM11.0989 38.4726H12.2678ZM27.4641 38.4726H28.6331ZM9.92993 39.6384H11.0989ZM27.4641 39.6384H28.6331ZM7.59204 40.8042H11.0989ZM27.4641 40.8042H28.6331ZM6.4231 41.97H7.59204ZM27.4641 41.97H28.6331ZM18.1125 43.1357H19.2815ZM25.1262 43.1357H26.2952ZM27.4641 43.1357H28.6331ZM18.1125 44.3015H20.4504ZM22.7883 44.3015H25.1262ZM26.2952 44.3015H28.6331ZM16.9436 45.4673H23.9573ZM26.2952 45.4673H27.4641ZM16.9436 46.6331H21.6194ZM16.9436 47.7989H19.2815ZM12.2678 48.9646H13.4368ZM12.2678 50.1304H13.4368ZM12.2678 51.2962H13.4368ZM12.2678 52.462H14.6057ZM12.2678 53.6277H13.4368Z" fill="black"/>
<path fill-rule="evenodd" clip-rule="evenodd" d="M15.7749 20.4021H14.606V19.2363H15.7749V20.4021ZM25.1265 20.4021H23.9575V19.2363H25.1265V20.4021ZM22.7886 21.5679H20.4507V20.4021H22.7886V21.5679ZM19.2817 26.231H18.1128V25.0652H19.2817V26.231ZM22.7886 26.231V27.3968H19.2817V26.231H22.7886ZM22.7886 26.231H23.9575V25.0652H22.7886V26.231ZM7.59229 27.3968H6.42334V26.231H7.59229V27.3968ZM8.76123 28.5625H7.59229V27.3968H8.76123V28.5625ZM9.93018 29.7283H8.76123V28.5625H9.93018V29.7283ZM11.0991 30.8941H9.93018V29.7283H11.0991V30.8941ZM11.0991 30.8941V32.0599H13.437V33.2257H18.1128V34.3914H25.1265V33.2257H26.2954V32.0599H21.6196V30.8941H11.0991ZM28.6333 29.7283H27.4644V28.5625H28.6333V29.7283ZM27.4644 30.8941H23.9575V29.7283H27.4644V30.8941ZM13.437 34.3914V36.723H12.2681V34.3914H13.437ZM11.0991 39.0545V36.723H12.2681V39.0545H11.0991ZM11.0991 39.0545H9.93018V40.2203H7.59229V41.3861H6.42334V42.5519H7.59229V41.3861H11.0991V39.0545ZM27.4644 36.723H26.2954V35.5572H27.4644V36.723ZM26.2954 43.7177H27.4644V36.723H28.6333V44.8834H27.4644V46.0492H26.2954V43.7177ZM25.1265 43.7177V42.5519H26.2954V43.7177H25.1265ZM25.1265 43.7177H22.7886V44.8834H20.4507V43.7177H19.2817V42.5519H18.1128V44.8834H16.9438V48.3808H19.2817V47.215H21.6196V46.0492H23.9575V44.8834H25.1265V43.7177ZM13.437 48.3808V51.8781H14.606V53.0439H13.437V54.2097H12.2681V48.3808H13.437Z" fill="#E370A9"/>
<path d="M4.08496 33.8105H5.25391ZM2.91602 34.9763H4.08496ZM5.25391 34.9763H7.5918ZM4.08496 36.1421H5.25391ZM14.6055 36.1421H19.2812ZM2.91602 37.3079H4.08496ZM19.2812 37.3079H20.4502ZM2.91602 38.4737H4.08496ZM16.9434 38.4737H18.1123ZM19.2812 38.4737H20.4502ZM2.91602 39.6394H4.08496ZM18.1123 39.6394H19.2812ZM1.74707 40.8052H2.91602ZM18.1123 40.8052H19.2812ZM1.74707 41.971H2.91602ZM18.1123 41.971H19.2812ZM1.74707 43.1368H2.91602ZM16.9434 43.1368H18.1123ZM1.74707 44.3025H2.91602ZM16.9434 44.3025H18.1123ZM0.578125 45.4683H1.74707ZM15.7744 45.4683H16.9434ZM1.74707 46.6341H6.42285ZM15.7744 46.6341H16.9434ZM6.42285 47.7999H14.6055ZM15.7744 47.7999H16.9434ZM14.6055 48.9657H15.7744Z" fill="black"/>
<path fill-rule="evenodd" clip-rule="evenodd" d="M5.25391 34.3925H4.08496V33.2267H5.25391V34.3925ZM5.25391 35.5582V34.3925H7.5918V35.5582H5.25391ZM5.25391 35.5582H4.08496V34.3925H2.91602V35.5582H4.08496V36.724H2.91602V40.2213H1.74707V44.8845H0.578125V46.0502H1.74707V47.216H6.42285V48.3818H14.6055V49.5476H15.7744V48.3818H16.9434V44.8845H18.1123V42.5529H19.2812V39.0556H20.4502V36.724H19.2812V35.5582H14.6055V36.724H19.2812V39.0556H18.1123V37.8898H16.9434V39.0556H18.1123V42.5529H16.9434V44.8845H15.7744V48.3818H14.6055V47.216H6.42285V46.0502H1.74707V44.8845H2.91602V40.2213H4.08496V36.724H5.25391V35.5582Z" fill="#079299"/>
</g>
<defs>
<clipPath id="clip0_2052_68">
<rect width="36" height="36" fill="white"/>
</clipPath>
</defs>
</svg>
