<svg width="41" height="37" viewBox="0 0 41 37" xmlns="http://www.w3.org/2000/svg">
<path fill-rule="evenodd" clip-rule="evenodd" d="M13.4594 14.9571V16.1284C18.105 17.2421 22.8948 17.2421 27.5403 16.1284V14.9573C22.9049 16.0025 18.0948 16.0025 13.4594 14.9571ZM15.546 17.9069H15.5686C18.7796 18.4188 22.0507 18.4276 25.2645 17.9332V19.8636C21.7528 20.4482 21.7528 21.0474 25.2645 21.6608V23.0154C21.7528 23.6003 21.7528 24.1996 25.2645 24.8129V26.1674C21.9084 26.832 21.7778 27.4081 24.8732 27.8956C24.1603 28.6451 23.2935 29.1173 22.2717 29.3113C21.7292 30.1273 21.1068 30.561 20.4054 30.6129C19.704 30.5611 19.0821 30.1273 18.5388 29.3113C17.5169 29.1173 16.6504 28.6452 15.9375 27.8956C19.0329 27.4081 18.9023 26.832 15.5459 26.1674V24.8129C19.058 24.1996 19.058 23.6003 15.5459 23.0154V21.6608C19.058 21.0474 19.058 20.4481 15.5459 19.8636L15.546 17.9069ZM16.6033 5.39673C16.2612 5.26445 16.0909 4.87951 16.223 4.5371C16.3553 4.195 16.7403 4.02468 17.0823 4.15712C18.1724 4.57861 19.3312 4.79448 20.5 4.79383C21.6626 4.79383 22.8216 4.58138 23.9173 4.15712C23.9987 4.12566 24.0855 4.11054 24.1727 4.11262C24.2599 4.1147 24.3459 4.13394 24.4257 4.16924C24.5055 4.20455 24.5776 4.25523 24.6378 4.31838C24.698 4.38154 24.7452 4.45594 24.7767 4.53734C24.8081 4.61873 24.8233 4.70552 24.8212 4.79276C24.8191 4.88 24.7999 4.96598 24.7645 5.04578C24.7292 5.12558 24.6786 5.19765 24.6154 5.25787C24.5522 5.31808 24.4778 5.36527 24.3965 5.39673C23.1539 5.87886 21.8328 6.12651 20.5 6.12713C19.1671 6.12652 17.8459 5.87887 16.6033 5.39673ZM8.58487 13.4406C9.74115 13.9045 10.9236 14.3003 12.1261 14.6261V16.0057C10.7532 15.6497 9.40445 15.2063 8.08806 14.6783L7.53737 14.4575L7.33301 13.9008C7.277 13.7483 7.22353 13.5949 7.17261 13.4407H0.49826V32.9393C0.49826 34.684 1.92117 36.1071 3.66599 36.1071H37.3341C39.0789 36.1071 40.5018 34.684 40.5018 32.9393V13.4406H33.8274C33.7764 13.5948 33.723 13.7482 33.6673 13.9007L33.4623 14.4574L32.9121 14.6783C31.5956 15.2062 30.2468 15.6495 28.8739 16.0056V14.6263C30.0765 14.3004 31.2592 13.9044 32.4156 13.4405C33.4553 10.6127 33.4477 7.61466 32.627 4.71319C31.0121 0.432771 27.9144 -0.250455 23.335 2.66263C22.4297 3.01345 21.4648 3.18906 20.5 3.18906C19.5352 3.18906 18.5704 3.01353 17.6649 2.66271C13.0854 -0.250375 9.988 0.432851 8.37322 4.71327C7.55266 7.61474 7.54465 10.6129 8.58487 13.4406Z"/>
</svg>
