<svg width="41" height="37" viewBox="0 0 41 37" xmlns="http://www.w3.org/2000/svg">
<path fill-rule="evenodd" clip-rule="evenodd" d="M14.5972 33.6306C17.2717 35.641 20.5964 36.8328 24.1999 36.8328C26.5534 36.8328 28.7884 36.3245 30.8008 35.4117L38.8228 36.6247C39.114 36.6687 39.3858 36.5619 39.5692 36.3315C39.7525 36.1011 39.7955 35.8122 39.6871 35.5383L37.4298 29.8322C39.1772 27.2681 40.1992 24.1703 40.1992 20.8334C40.1992 14.6709 36.7146 9.32341 31.6088 6.65088C33.3756 9.39468 34.4011 12.6609 34.4011 16.1666C34.4011 25.8869 26.5203 33.7676 16.8001 33.7676C16.0637 33.7677 15.328 33.722 14.5972 33.6306ZM16.8001 0.167358C25.6364 0.167358 32.7995 7.33051 32.7995 16.1667C32.7995 25.0029 25.6364 32.1661 16.8001 32.1661C14.4466 32.1661 12.2116 31.6578 10.1992 30.745L2.17716 31.958C1.886 32.002 1.61421 31.8952 1.43084 31.6648C1.24746 31.4343 1.20454 31.1455 1.31288 30.8716L3.5702 25.1655C1.82282 22.6015 0.800781 19.5036 0.800781 16.1667C0.800781 7.33051 7.96393 0.167358 16.8001 0.167358ZM19.1981 9.15989C19.4186 9.15989 19.5985 9.33975 19.5985 9.56028V13.3685H23.4067C23.6272 13.3685 23.8071 13.5483 23.8071 13.7689V18.5647C23.8071 18.7853 23.6272 18.9651 23.4067 18.9651H19.5985V22.7733C19.5985 22.9939 19.4186 23.1737 19.1981 23.1737H14.4022C14.2961 23.1735 14.1944 23.1313 14.1193 23.0562C14.0443 22.9812 14.002 22.8795 14.0018 22.7733V18.9651H10.1936C10.0875 18.9649 9.98578 18.9227 9.91074 18.8476C9.8357 18.7726 9.79345 18.6709 9.79323 18.5647V13.7689C9.79323 13.5483 9.97309 13.3685 10.1936 13.3685H14.0018V9.56028C14.0018 9.33975 14.1817 9.15989 14.4022 9.15989H19.1981Z"/>
</svg>
