<svg width="41" height="41" viewBox="0 0 41 41" xmlns="http://www.w3.org/2000/svg">
<path fill-rule="evenodd" clip-rule="evenodd" d="M34.9646 18.2652C34.6178 18.3877 34.2373 18.2057 34.115 17.8588C33.9927 17.5119 34.1748 17.1314 34.5217 17.0089C34.8098 16.9071 35.0556 16.8035 35.2592 16.6988C35.4464 16.6026 35.5954 16.5069 35.7058 16.4126C35.9846 16.1738 36.4053 16.2065 36.644 16.486C36.8828 16.7648 36.85 17.185 36.5707 17.424C36.3815 17.5863 36.1473 17.739 35.8692 17.8822C35.6078 18.0166 35.306 18.1445 34.9646 18.2652ZM27.009 7.91026C26.8851 7.56456 27.0649 7.18411 27.4104 7.06063C27.4925 7.03116 27.5797 7.01817 27.6668 7.0224C27.754 7.02663 27.8395 7.048 27.9184 7.08528C27.9973 7.12256 28.068 7.17502 28.1267 7.23967C28.1853 7.30433 28.2306 7.37989 28.2599 7.46206C28.3626 7.74762 28.4674 7.99306 28.5749 8.1979C28.6711 8.38232 28.7677 8.53014 28.8641 8.64185C29.1046 8.91956 29.0736 9.34013 28.796 9.58045C28.5184 9.82092 28.0983 9.79025 27.8583 9.51254C27.6964 9.32556 27.5424 9.09197 27.3965 8.8129C27.2617 8.55425 27.1325 8.25323 27.009 7.91026ZM28.8394 4.5702C28.6798 4.4941 28.5569 4.35774 28.4977 4.19109C28.4386 4.02443 28.448 3.84111 28.524 3.68141C28.5616 3.6023 28.6145 3.53139 28.6795 3.47271C28.7446 3.41404 28.8206 3.36876 28.9031 3.33945C28.9857 3.31014 29.0732 3.29739 29.1607 3.30191C29.2482 3.30644 29.334 3.32816 29.4131 3.36582C29.6983 3.50228 29.9453 3.60374 30.1529 3.67004C30.3473 3.73242 30.5214 3.76934 30.6734 3.78135C31.0402 3.81018 31.3148 4.13113 31.2859 4.49805C31.2791 4.58535 31.2551 4.67046 31.2154 4.74849C31.1756 4.82653 31.1209 4.89598 31.0543 4.95286C30.9877 5.00975 30.9106 5.05296 30.8273 5.08003C30.744 5.10711 30.6562 5.11751 30.5689 5.11065C30.3276 5.09175 30.0549 5.03353 29.7512 4.9368C29.4607 4.84399 29.1566 4.72163 28.8394 4.5702ZM22.899 7.4193C22.64 7.67971 22.2184 7.68099 21.958 7.42194C21.6972 7.16281 21.6964 6.74152 21.9553 6.48086C22.2123 6.22149 22.4564 6.00304 22.6871 5.82614C22.9357 5.63572 23.1732 5.48934 23.3991 5.38748C23.7344 5.23645 24.1286 5.38587 24.2801 5.72116C24.4312 6.05637 24.2817 6.45091 23.9464 6.6017C23.8122 6.66232 23.6615 6.75673 23.4953 6.88438C23.3107 7.02604 23.1117 7.20413 22.899 7.4193ZM35.497 8.22745C35.5992 8.24498 35.6986 8.27029 35.7954 8.30216C35.8081 8.24931 35.828 8.19702 35.8553 8.14673C36.06 7.76564 36.2626 7.437 36.4634 7.16193C36.6767 6.86756 36.8946 6.62516 37.1157 6.43506C37.3949 6.19611 37.8153 6.22902 38.0541 6.50801C38.2931 6.78748 38.2606 7.20749 37.9811 7.44644C37.8436 7.56464 37.6971 7.73088 37.5423 7.94397C37.374 8.17532 37.2025 8.45319 37.0285 8.7775C36.9744 8.87798 36.8954 8.96292 36.7992 9.02422C36.8685 9.11627 36.9302 9.2139 36.9835 9.31611L37.0006 9.31034C37.3224 9.21338 37.6451 9.11912 37.9685 9.02759C38.2178 8.95648 38.4681 8.88918 38.7194 8.82571C39.0764 8.73642 39.4384 8.9532 39.5272 9.31034C39.6164 9.66741 39.3995 10.0293 39.0426 10.1187C38.8351 10.1701 38.5972 10.2343 38.3284 10.3099C38.012 10.3999 37.6962 10.4925 37.3812 10.5875C37.3645 10.5926 37.3475 10.597 37.3304 10.6009C37.4099 10.645 37.4795 10.7051 37.5347 10.7773C37.59 10.8495 37.6298 10.9324 37.6517 11.0207C37.654 11.0303 37.7253 11.1326 37.8653 11.328C38.0565 11.5943 38.3187 11.9322 38.6522 12.3407C38.8836 12.6256 38.8407 13.0446 38.5558 13.2765C38.4189 13.3877 38.2434 13.44 38.068 13.4219C37.8925 13.4038 37.7314 13.3168 37.62 13.18C37.2467 12.723 36.9668 12.3642 36.7811 12.1047C36.7046 11.9992 36.632 11.8909 36.5636 11.78C36.4465 11.8904 36.317 11.9869 36.1777 12.0675C36.1902 12.1011 36.2007 12.136 36.2077 12.1725L36.5355 13.8045C36.6078 14.1644 36.3739 14.5145 36.0142 14.5866C35.6545 14.6585 35.3041 14.4251 35.2323 14.0652L34.9046 12.4331C34.8976 12.3988 34.8935 12.3641 34.8922 12.3291C34.6661 12.3019 34.446 12.2374 34.2409 12.1384C34.2087 12.1841 34.1709 12.2256 34.1285 12.2619C33.991 12.3801 33.8447 12.5461 33.6896 12.7588C33.5213 12.9903 33.3499 13.2688 33.1757 13.5928C33.0016 13.9164 32.5976 14.0382 32.2739 13.8641C31.9502 13.6898 31.8286 13.2861 32.0028 12.9623C32.2074 12.5805 32.4104 12.2522 32.6106 11.9769C32.8244 11.683 33.0418 11.4406 33.2629 11.2505C33.2748 11.2404 33.2869 11.231 33.2995 11.2216C33.2098 11.0484 33.1452 10.8632 33.1077 10.6718L31.5632 11.13C31.2107 11.2337 30.8405 11.0316 30.7367 10.679C30.687 10.5096 30.7066 10.3274 30.7912 10.1725C30.8757 10.0175 31.0184 9.90246 31.1877 9.85255L32.9011 9.3447C32.9646 9.32597 33.0304 9.31684 33.0966 9.31763L33.085 9.3037C32.7112 8.84621 32.4314 8.4877 32.2458 8.22825C32.009 7.89745 31.8676 7.64384 31.8237 7.46727C31.7348 7.11028 31.9515 6.74856 32.3085 6.6592C32.48 6.61649 32.6614 6.6436 32.8129 6.73456C32.9644 6.82552 33.0736 6.97289 33.1165 7.14431C33.1188 7.15384 33.1902 7.25626 33.33 7.45149C33.5212 7.71791 33.7834 8.05568 34.1169 8.46424L34.119 8.4668C34.1454 8.45183 34.1724 8.43733 34.1993 8.42356C34.1921 8.39962 34.1856 8.37559 34.1805 8.35085L33.8528 6.71854C33.7812 6.35866 34.0143 6.00856 34.374 5.93625C34.7339 5.8645 35.0842 6.09801 35.1562 6.45764L35.4841 8.09003C35.4932 8.13616 35.4973 8.18244 35.497 8.22745ZM27.9355 19.0335C27.6866 18.9577 27.4418 18.869 27.202 18.7679L26.7979 20.3677C26.7089 20.7249 26.3471 20.9419 25.99 20.853C25.6329 20.7637 25.4162 20.4019 25.5052 20.0448L25.9428 18.3114C25.9592 18.2455 25.9857 18.1824 26.0212 18.1245C25.852 18.0083 25.6887 17.8836 25.532 17.7509L24.4763 18.961C24.2343 19.2372 23.8141 19.2653 23.5378 19.0234C23.4051 18.9072 23.3239 18.7431 23.3121 18.5671C23.3003 18.3911 23.3589 18.2176 23.475 18.0847L24.5493 16.8546C24.5721 16.8282 24.5965 16.8039 24.6226 16.7825C24.5531 16.6892 24.4864 16.5938 24.4227 16.4965C24.3762 16.5235 24.3267 16.5448 24.2752 16.56L22.5618 17.0677C22.2092 17.1717 21.8391 16.9696 21.7356 16.6169C21.6858 16.4475 21.7054 16.2653 21.7899 16.1103C21.8745 15.9554 22.0171 15.8403 22.1865 15.7905L23.8144 15.3079C23.7743 15.2033 23.739 15.0971 23.7084 14.9894C23.6143 15.0056 23.5178 15.0009 23.4257 14.9759L21.4632 14.4454C21.2924 14.3997 21.1468 14.2881 21.0583 14.1351C20.9699 13.982 20.9458 13.8001 20.9914 13.6294C21.0864 13.2741 21.4517 13.0628 21.8073 13.1578L23.6799 13.6642C23.704 13.5874 23.733 13.5144 23.7668 13.4457C23.7301 13.4162 23.6967 13.3828 23.6671 13.3461C23.2933 12.8889 23.0137 12.5304 22.8278 12.2708C22.5908 11.9401 22.4499 11.6863 22.4057 11.5098C22.3629 11.3384 22.3899 11.157 22.4808 11.0055C22.5717 10.8541 22.7191 10.7449 22.8905 10.702C23.0619 10.6591 23.2434 10.6861 23.3949 10.777C23.5465 10.8679 23.6557 11.0153 23.6986 11.1867C23.7009 11.1961 23.7722 11.2991 23.9122 11.4941C24.1029 11.7605 24.3653 12.0983 24.6989 12.5067C24.7311 12.5463 24.7587 12.5894 24.7812 12.6352C24.8469 12.6185 24.9141 12.606 24.982 12.5969C24.9827 12.3287 24.99 12.0533 25.003 11.7989C25.0246 11.3712 25.0642 10.9841 25.1125 10.7633C25.1916 10.4053 25.5467 10.1788 25.9052 10.258C26.0773 10.296 26.2273 10.4008 26.3221 10.5494C26.4169 10.6979 26.4488 10.878 26.4108 11.0501C26.3791 11.1927 26.3512 11.5006 26.3325 11.8664C26.315 12.2105 26.3076 12.5888 26.3156 12.9203C26.4385 13.0022 26.5524 13.0968 26.6555 13.2025C26.8181 12.9148 26.9797 12.6614 27.1396 12.4414C27.3535 12.1474 27.5711 11.9051 27.7921 11.715C27.9263 11.6003 28.1005 11.5435 28.2765 11.5572C28.4525 11.5708 28.6158 11.6539 28.7306 11.788C28.9694 12.0674 28.9369 12.4877 28.6578 12.7266C28.5203 12.8446 28.3737 13.0106 28.219 13.2235C28.0505 13.4553 27.8791 13.7331 27.7048 14.0572C27.6616 14.1386 27.6016 14.2099 27.5289 14.2665C27.6586 14.4331 27.7905 14.5979 27.9247 14.7609C27.9344 14.7525 27.9442 14.7446 27.954 14.7364C28.3226 14.4469 28.6506 14.2128 28.9364 14.0345C29.2504 13.8387 29.5249 13.7054 29.7592 13.635C29.9286 13.5846 30.1111 13.6035 30.2665 13.6876C30.422 13.7717 30.5377 13.9141 30.5881 14.0835C30.6385 14.2529 30.6196 14.4353 30.5355 14.5907C30.4514 14.7461 30.3091 14.8618 30.1398 14.9124C30.0201 14.948 29.8537 15.033 29.6403 15.166C29.4203 15.3031 29.1615 15.487 28.8645 15.7167C28.9475 15.7806 29.0348 15.8387 29.1257 15.8906C29.3818 16.0348 29.602 16.1872 29.7887 16.3438C29.8651 16.2699 29.9583 16.2155 30.0603 16.1855C30.3823 16.0883 30.7052 15.9939 31.0289 15.9024C31.3235 15.8194 31.5741 15.7517 31.7791 15.7004C32.1356 15.6116 32.4978 15.8284 32.5866 16.1855C32.6761 16.5424 32.4592 16.9046 32.1019 16.9934C31.8633 17.0538 31.6256 17.1176 31.3888 17.1848C31.1129 17.263 30.8377 17.3435 30.5632 17.4263C30.6125 17.5915 30.6315 17.7531 30.6225 17.9075C30.6817 17.9283 30.739 17.9574 30.7927 17.9959C31.3852 18.4214 31.7229 18.6641 31.8054 18.7237C32.0281 18.8857 32.1819 18.9997 32.27 19.0691C32.5578 19.2966 32.6071 19.7147 32.3796 20.0022C32.1522 20.2904 31.7345 20.3393 31.4464 20.112C31.4274 20.0967 31.2847 19.9924 31.0235 19.8027C30.6881 19.5595 30.3523 19.3169 30.016 19.0749C29.9731 19.0442 29.9341 19.0084 29.8997 18.9684C29.7924 19.0243 29.6797 19.0693 29.5633 19.1026L29.8821 20.6921C29.9543 21.0519 29.7206 21.402 29.3609 21.4741C29.0012 21.546 28.651 21.3125 28.5789 20.9526L28.2511 19.3203C28.2374 19.2525 28.2345 19.1829 28.2425 19.1141C28.1391 19.0915 28.0367 19.0646 27.9355 19.0335ZM29.4315 0.489258C35.5503 0.489258 40.51 5.4493 40.51 11.5676C40.51 17.6863 35.5503 22.6461 29.4315 22.6461C23.3134 22.6461 18.353 17.6863 18.353 11.5676C18.353 5.44938 23.3134 0.489258 29.4315 0.489258ZM16.1585 25.6104C13.2656 25.6104 10.9201 27.9561 10.9201 30.8489V39.6693C10.921 39.8221 10.88 39.9721 10.8016 40.1032C10.7232 40.2343 10.6104 40.3415 10.4755 40.413C10.3406 40.4846 10.1886 40.5179 10.0361 40.5093C9.88363 40.5007 9.7364 40.4505 9.61039 40.3642C4.14762 36.5715 1.9992 31.1399 3.16466 24.0694C3.34436 22.9809 3.12694 22.7261 2.6279 21.8481C0.25366 17.6796 -0.0308573 13.0666 1.22156 8.63673C3.21103 3.36478 7.02587 2.52308 12.6666 6.1117C14.3823 6.77627 16.2705 6.92978 18.066 6.57183C17.7374 7.3182 17.4838 8.09536 17.3088 8.89186C16.9267 8.92893 16.5427 8.94735 16.1585 8.94735C14.6931 8.948 13.2402 8.67697 11.8735 8.14801C11.5601 8.02725 11.2078 8.18308 11.0871 8.49635C11.0583 8.57083 11.0444 8.65026 11.0463 8.73011C11.0482 8.80995 11.0658 8.88864 11.0981 8.96169C11.1304 9.03473 11.1768 9.10069 11.2346 9.1558C11.2924 9.21091 11.3605 9.25409 11.435 9.28288C12.9577 9.87241 14.5598 10.1676 16.1585 10.1676C16.4731 10.1676 16.7878 10.156 17.1017 10.1335C17.0465 10.6096 17.0187 11.0884 17.0186 11.5677C17.0186 18.3251 22.418 23.8208 29.138 23.9771L29.1526 24.0695C30.3183 31.14 28.1695 36.5716 22.7072 40.3642C22.5811 40.4506 22.4338 40.5008 22.2812 40.5094C22.1286 40.518 21.9765 40.4847 21.8415 40.4131C21.7066 40.3415 21.5939 40.2344 21.5156 40.1033C21.4372 39.9722 21.3963 39.8221 21.3972 39.6694V30.849C21.3971 27.9561 19.0517 25.6104 16.1585 25.6104Z"/>
</svg>
