<svg width="39" height="41" viewBox="0 0 39 41" xmlns="http://www.w3.org/2000/svg">
<path fill-rule="evenodd" clip-rule="evenodd" d="M11.1277 13.909L12.1591 17.2654L15.5156 18.2966L12.1591 19.3277L11.1277 22.6841L10.0967 19.3277L6.74034 18.2966L10.0967 17.2654L11.1277 13.909ZM13.1576 6.35446C13.0761 6.32299 13.0017 6.27579 12.9385 6.21555C12.8753 6.15531 12.8246 6.08322 12.7893 6.00339C12.754 5.92355 12.7347 5.83754 12.7327 5.75027C12.7306 5.663 12.7457 5.57617 12.7772 5.49474C12.8087 5.4133 12.8559 5.33885 12.9161 5.27565C12.9763 5.21245 13.0484 5.16173 13.1283 5.12639C13.2081 5.09106 13.2941 5.07179 13.3814 5.0697C13.4687 5.06761 13.5555 5.08274 13.637 5.11421C15.1403 5.69662 16.7294 5.98795 18.322 5.98795C19.9146 5.98795 21.5036 5.69662 23.0071 5.11421C23.3493 4.982 23.7345 5.15217 23.8667 5.49474C23.9303 5.65918 23.9259 5.84213 23.8546 6.00335C23.7833 6.16457 23.6509 6.29087 23.4864 6.35446C21.8215 6.99917 20.07 7.32181 18.322 7.32181C16.5556 7.32104 14.8045 6.99306 13.1576 6.35446ZM5.23503 9.09073L4.43217 6.47746L3.62938 9.09073C3.59759 9.19454 3.54083 9.28897 3.46407 9.36575C3.38732 9.44254 3.29291 9.49933 3.18911 9.53116L0.575684 10.334L3.18911 11.1366C3.29293 11.1684 3.38736 11.2251 3.46412 11.3019C3.54088 11.3787 3.59763 11.4732 3.62938 11.577L4.43217 14.1903L5.23503 11.577C5.26686 11.4732 5.32365 11.3787 5.40043 11.302C5.47721 11.2252 5.57164 11.1684 5.67546 11.1366L8.28865 10.334L5.67546 9.53116C5.57165 9.49932 5.47722 9.44253 5.40044 9.36575C5.32366 9.28897 5.26687 9.19454 5.23503 9.09073ZM30.4846 32.2103C31.0381 30.9452 31.5339 29.764 31.9726 28.6671L31.0158 27.265C30.9665 27.1928 30.9319 27.1117 30.914 27.0261C30.8961 26.9406 30.8953 26.8523 30.9115 26.7664C30.9277 26.6805 30.9606 26.5987 31.0085 26.5255C31.0563 26.4524 31.1181 26.3894 31.1903 26.3401C31.2625 26.2908 31.3436 26.2563 31.4292 26.2384C31.5147 26.2205 31.603 26.2196 31.6889 26.2358C31.7747 26.252 31.8566 26.285 31.9297 26.3328C32.0029 26.3806 32.0659 26.4424 32.1152 26.5146L32.5575 27.1631C32.7373 26.6877 32.9114 26.2102 33.0799 25.7306C33.8422 23.5562 34.289 21.8545 34.4195 20.6257C34.4579 20.2604 34.7857 19.9957 35.151 20.0341C35.3264 20.0528 35.4872 20.1404 35.5981 20.2775C35.709 20.4147 35.7608 20.5903 35.7423 20.7657C35.6682 21.4649 35.5041 22.2921 35.2505 23.2471L35.6277 23.0804C35.7894 23.0092 35.9728 23.0052 36.1374 23.0692C36.3021 23.1332 36.4346 23.26 36.5057 23.4217C36.5769 23.5834 36.5809 23.7668 36.5169 23.9314C36.4529 24.0961 36.3261 24.2286 36.1644 24.2997L34.7563 24.9219C34.6222 25.3396 34.4824 25.7555 34.3369 26.1693C33.7803 27.7569 33.0611 29.5815 32.1797 31.6433C34.575 30.0513 36.2454 28.1053 36.886 24.906C37.5771 21.4544 36.5006 18.5673 34.4941 15.8265C31.5662 20.3859 25.0597 22.4167 30.4846 32.2103ZM18.3221 24.2056C15.1592 24.2056 12.5949 26.7697 12.5949 29.9328V39.576C12.5959 39.743 12.5511 39.9072 12.4654 40.0505C12.3797 40.1939 12.2564 40.3111 12.1088 40.3894C11.9612 40.4676 11.795 40.504 11.6282 40.4945C11.4615 40.485 11.3005 40.43 11.1627 40.3355C5.19067 36.1894 2.84165 30.2511 4.11586 22.5205C4.31221 21.3306 4.07494 21.0517 3.52888 20.0924C2.04328 17.4839 1.30632 14.7165 1.20398 11.9185L2.46136 12.3047L3.79651 16.6509C3.83837 16.7868 3.9227 16.9058 4.03712 16.9902C4.15153 17.0747 4.29002 17.1203 4.43225 17.1203C4.57447 17.1203 4.71296 17.0747 4.82738 16.9902C4.94179 16.9058 5.02612 16.7868 5.06799 16.6509L6.40321 12.3047L10.7491 10.9698C10.853 10.9381 10.9474 10.8813 11.0242 10.8045C11.101 10.7277 11.1577 10.6332 11.1895 10.5293C11.2973 10.1784 11.1002 9.80599 10.7491 9.69829L6.40321 8.36306L5.06799 4.01714C5.03625 3.91328 4.97949 3.8188 4.90269 3.74201C4.8259 3.66521 4.73142 3.60845 4.62756 3.57671C4.27657 3.46877 3.90413 3.66592 3.79651 4.01714L2.46136 8.36306L1.35909 8.70171C1.4929 7.67928 1.70551 6.65964 1.99138 5.64857C4.16631 -0.115369 8.33734 -1.03571 14.5044 2.8874C16.9431 3.83232 19.7011 3.83232 22.1397 2.8874C28.3068 -1.03571 32.4778 -0.115449 34.6529 5.64857C35.5023 8.65271 35.7047 11.734 35.1168 14.7286C37.8183 17.4887 38.9511 21.3862 38.1941 25.1682C37.4404 28.9318 34.8864 32.0846 31.3638 33.6047C30.1453 36.2155 28.1843 38.4592 25.4814 40.3357C25.3436 40.4301 25.1826 40.485 25.0159 40.4945C24.8491 40.504 24.6829 40.4676 24.5353 40.3894C24.3878 40.3111 24.2645 40.1939 24.1788 40.0506C24.0932 39.9072 24.0483 39.7432 24.0491 39.5762V29.933C24.0491 26.7697 21.4852 24.2056 18.3221 24.2056Z"/>
</svg>
