<svg width="41" height="35" viewBox="0 0 41 35" xmlns="http://www.w3.org/2000/svg">
<path fill-rule="evenodd" clip-rule="evenodd" d="M21.1674 7.93643C21.4393 7.91361 21.7114 7.8767 21.9825 7.82601C22.4718 7.73487 22.9515 7.59853 23.4156 7.41873C23.5802 7.35519 23.7632 7.35957 23.9245 7.43093C24.0859 7.50228 24.2123 7.63476 24.276 7.79926C24.4083 8.14223 24.2378 8.52733 23.8952 8.65962C23.3552 8.8691 22.7969 9.02802 22.2275 9.13432C21.8775 9.20015 21.5236 9.24539 21.1675 9.27022V7.93643H21.1674ZM16.8303 28.516V29.7223C16.8314 29.9405 16.7114 30.1411 16.5189 30.2433C16.3264 30.3455 16.0925 30.332 15.9126 30.209C15.1634 29.6887 14.5036 29.1245 13.9323 28.516H16.8303V28.516ZM16.8303 25.7707V27.1816H12.8684C12.5691 26.7338 12.3076 26.2619 12.0866 25.7707H16.8303ZM16.9253 22.7107C16.862 22.9838 16.8302 23.2633 16.8303 23.5437V24.436H11.6002C11.4422 23.8828 11.3294 23.3078 11.2611 22.7107H16.9253ZM19.8328 19.9349C18.8946 20.107 18.0816 20.6363 17.5391 21.3763H11.1827C11.1797 20.8681 11.2059 20.3453 11.2611 19.8082H19.8328V18.4734H11.4366C11.4706 17.9653 11.3162 17.7567 11.0213 17.2388C10.9589 17.1286 10.8981 17.0175 10.839 16.9055H19.8328V15.5709H10.2398C10.0486 15.0601 9.89516 14.5359 9.78062 14.0027H19.8328V12.6686H9.57538C9.52672 12.1473 9.51255 11.6233 9.53294 11.1002H19.8328V9.76558H9.65546C9.73234 9.23705 9.84002 8.71346 9.97794 8.19749H19.8328V6.86323H10.5516C12.0432 4.19863 14.5439 3.98226 18.0539 6.21492C18.625 6.43552 19.2235 6.57733 19.8328 6.63645V2.96815C19.8328 2.88051 19.85 2.79372 19.8835 2.71274C19.917 2.63176 19.9662 2.55818 20.0281 2.49621C20.0901 2.43423 20.1637 2.38507 20.2446 2.35154C20.3256 2.318 20.4124 2.30076 20.5 2.30078C20.677 2.30078 20.8468 2.37109 20.9719 2.49624C21.0971 2.6214 21.1674 2.79115 21.1674 2.96815V6.63645C21.7767 6.57746 22.375 6.43575 22.946 6.21524C26.8976 3.70166 29.57 4.2912 30.9635 7.98432C31.8409 11.087 31.6416 14.3183 29.9786 17.2388C29.6286 17.8535 29.4766 18.0324 29.6024 18.7945C30.4188 23.7478 28.9136 27.5526 25.0872 30.2091C24.9988 30.2695 24.8957 30.3046 24.7888 30.3106C24.682 30.3167 24.5755 30.2934 24.481 30.2434C24.3864 30.1933 24.3074 30.1182 24.2525 30.0264C24.1976 29.9345 24.1689 29.8294 24.1695 29.7224V23.5437C24.1695 21.7451 22.8753 20.2489 21.1675 19.9351V32.0318C21.1675 32.2088 21.0972 32.3785 20.972 32.5037C20.8469 32.6288 20.6771 32.6992 20.5001 32.6992C20.4125 32.6992 20.3257 32.6819 20.2447 32.6484C20.1638 32.6148 20.0902 32.5657 20.0283 32.5037C19.9663 32.4417 19.9171 32.3681 19.8836 32.2872C19.8501 32.2062 19.8329 32.1194 19.8329 32.0318V19.9349H19.8328ZM35.1204 33.0726C34.9434 33.0726 34.7736 33.0022 34.6485 32.8771C34.5233 32.7519 34.453 32.5822 34.453 32.4052C34.453 32.2282 34.5233 32.0584 34.6485 31.9333C34.7736 31.8081 34.9434 31.7378 35.1204 31.7378H37.6835V29.1745C37.6862 28.9993 37.7577 28.8322 37.8826 28.7093C38.0074 28.5864 38.1756 28.5175 38.3508 28.5175C38.526 28.5175 38.6942 28.5864 38.819 28.7093C38.9439 28.8322 39.0154 28.9993 39.0181 29.1745V32.4052C39.0181 32.5822 38.9478 32.7519 38.8227 32.8771C38.6975 33.0022 38.5278 33.0725 38.3508 33.0726H35.1204ZM35.1204 3.26203C34.9434 3.26203 34.7736 3.19172 34.6485 3.06657C34.5233 2.94141 34.453 2.77166 34.453 2.59466C34.453 2.41767 34.5233 2.24792 34.6485 2.12276C34.7736 1.9976 34.9434 1.92729 35.1204 1.92729H38.3508C38.7192 1.92729 39.0181 2.22646 39.0181 2.59466V5.82533C39.0181 5.91296 39.0008 5.99973 38.9673 6.08068C38.9338 6.16164 38.8846 6.2352 38.8227 6.29715C38.7607 6.35911 38.6871 6.40826 38.6062 6.44178C38.5252 6.47531 38.4384 6.49256 38.3508 6.49255C38.2632 6.49256 38.1764 6.47531 38.0955 6.44178C38.0145 6.40826 37.9409 6.35911 37.879 6.29715C37.817 6.2352 37.7679 6.16164 37.7343 6.08068C37.7008 5.99973 37.6835 5.91296 37.6835 5.82533V3.26203H35.1204ZM5.8797 1.92729C6.24806 1.92729 6.54683 2.22646 6.54683 2.59466C6.54685 2.68229 6.52961 2.76906 6.49609 2.85002C6.46258 2.93099 6.41344 3.00456 6.35149 3.06653C6.28954 3.1285 6.21599 3.17766 6.13504 3.21121C6.05409 3.24475 5.96732 3.26202 5.8797 3.26203H3.3164V5.82533C3.31642 5.91296 3.29918 5.99973 3.26565 6.08069C3.23213 6.16165 3.18298 6.23521 3.12102 6.29717C3.05906 6.35913 2.9855 6.40828 2.90454 6.4418C2.82358 6.47532 2.73681 6.49257 2.64919 6.49255C2.56156 6.49257 2.47479 6.47532 2.39383 6.4418C2.31287 6.40828 2.23931 6.35913 2.17735 6.29717C2.11539 6.23521 2.06624 6.16165 2.03272 6.08069C1.9992 5.99973 1.98195 5.91296 1.98198 5.82533V2.59466C1.98198 2.22646 2.28059 1.92729 2.64919 1.92729H5.8797ZM5.8797 31.7378C6.24806 31.7378 6.54683 32.0368 6.54683 32.4052C6.54685 32.4928 6.52961 32.5796 6.49609 32.6605C6.46258 32.7415 6.41344 32.8151 6.35149 32.877C6.28954 32.939 6.21599 32.9882 6.13504 33.0217C6.05409 33.0553 5.96732 33.0725 5.8797 33.0726H2.64919C2.56155 33.0726 2.47477 33.0553 2.39381 33.0218C2.31284 32.9882 2.23928 32.9391 2.17732 32.8771C2.11536 32.8151 2.06621 32.7416 2.0327 32.6606C1.99918 32.5796 1.98194 32.4928 1.98198 32.4052V29.1745C1.98198 28.9976 2.05227 28.8279 2.1774 28.7027C2.30252 28.5776 2.47223 28.5073 2.64919 28.5073C2.82614 28.5073 2.99585 28.5776 3.12098 28.7027C3.2461 28.8279 3.3164 28.9976 3.3164 29.1745V31.7378H5.8797ZM0.480591 0.426147H40.5193V34.5739H0.480591V0.426147Z"/>
</svg>
