<svg width="41" height="41" viewBox="0 0 41 41" xmlns="http://www.w3.org/2000/svg">
<path fill-rule="evenodd" clip-rule="evenodd" d="M20.7615 4.9481C20.4433 4.76384 20.3348 4.35641 20.519 4.03866C20.7032 3.72018 21.1108 3.612 21.4288 3.79578C22.2912 4.29523 23.2387 4.63055 24.2233 4.78474C25.2092 4.93794 26.215 4.90701 27.1896 4.69353C27.3622 4.6567 27.5425 4.68986 27.6908 4.78574C27.839 4.88162 27.9432 5.03239 27.9805 5.20498C28.0177 5.37757 27.985 5.55789 27.8895 5.70639C27.794 5.85489 27.6435 5.95945 27.471 5.99713C26.3309 6.24577 25.1608 6.27628 24.0201 6.0985C22.8722 5.91953 21.7673 5.52949 20.7615 4.9481ZM25.4146 28.8328V32.3148C25.5287 32.8691 25.847 33.038 26.3699 32.8215C29.3291 30.8257 30.9514 28.081 31.237 24.5871C31.2903 23.9183 31.594 23.2942 32.0874 22.8395C32.5807 22.3848 33.2274 22.133 33.8984 22.1342H40.5195V37.3491C40.5195 39.0952 39.0949 40.5194 37.3488 40.5194H3.65108C1.90482 40.5194 0.480469 39.0952 0.480469 37.3491V22.1342H9.26952C9.94109 22.133 10.5884 22.3854 11.0818 22.841C11.5753 23.2965 11.8786 23.9215 11.931 24.591C12.2053 28.0132 13.8338 30.7569 16.8159 32.8215C17.3388 33.038 17.6572 32.8691 17.7714 32.3148V25.8801C17.771 25.3782 17.8696 24.8811 18.0616 24.4172C18.2535 23.9534 18.535 23.532 18.8899 23.1771C19.2449 22.8221 19.6663 22.5407 20.1302 22.3488C20.594 22.1569 21.0911 22.0583 21.5931 22.0587C22.3767 22.0587 23.1413 22.2996 23.7834 22.7487C23.5812 24.0467 23.3787 25.3444 23.1758 26.6425C23.066 27.3434 23.3537 28.0544 23.9218 28.4798C24.1331 28.638 24.3746 28.751 24.6315 28.8117C24.8883 28.8725 25.1549 28.8797 25.4146 28.8328ZM22.3875 16.5524C20.3851 16.2394 18.5085 17.6097 18.1958 19.6119L17.2431 25.7164C17.2271 25.8222 17.1824 25.9216 17.114 26.0039C17.0456 26.0862 16.956 26.1481 16.8548 26.1831C16.7537 26.2182 16.6449 26.2248 16.5403 26.2024C16.4357 26.1799 16.3392 26.1292 16.2613 26.0558C12.8902 22.8411 11.9899 18.8494 13.5604 14.0812C13.8023 13.3477 13.6798 13.1479 13.4288 12.4865C12.236 9.34455 12.5374 6.12109 13.8829 3.19055C15.8294 -0.243282 18.5608 -0.413929 22.0771 2.67925C23.5277 3.51807 25.2736 3.79081 26.9107 3.43358C31.2027 1.5596 33.7523 2.55417 34.5596 6.4181C34.9479 9.61938 34.2525 12.781 32.159 15.4103C31.7185 15.9635 31.5408 16.1164 31.5472 16.8891C31.5901 21.9095 29.5162 25.4365 25.3257 27.471C25.2291 27.5172 25.1217 27.536 25.0152 27.5254C24.9087 27.5149 24.8071 27.4753 24.7215 27.4111C24.6358 27.3471 24.5693 27.2608 24.5292 27.1616C24.4891 27.0625 24.4769 26.9542 24.4941 26.8486C25.1292 22.7785 25.4469 20.7439 25.4469 20.7439C25.7598 18.7417 24.3896 16.8648 22.3875 16.5524Z"/>
</svg>
