<svg width="41" height="31" viewBox="0 0 41 31" xmlns="http://www.w3.org/2000/svg">
<path fill-rule="evenodd" clip-rule="evenodd" d="M5.97686 24.7261C5.88069 25.0746 5.5201 25.2786 5.17192 25.1824C4.82358 25.0864 4.6193 24.7258 4.71547 24.3774L5.35177 22.0794C5.49455 21.5647 5.80614 21.1393 6.21606 20.8526C6.63811 20.5577 7.15 20.4195 7.66315 20.4621L9.87923 20.6439C10.2401 20.6718 10.5102 20.9876 10.4817 21.3489C10.475 21.4347 10.4514 21.5184 10.4123 21.5952C10.3732 21.6719 10.3194 21.7402 10.2539 21.7962C10.1884 21.8521 10.1125 21.8946 10.0306 21.9212C9.94871 21.9478 9.86236 21.9581 9.77649 21.9513L7.56065 21.77C7.33747 21.7517 7.12927 21.8099 6.96479 21.9249C6.79903 22.0403 6.6721 22.2148 6.61309 22.4282L5.97686 24.7261ZM7.53879 19.085C7.44253 19.4336 7.0821 19.638 6.73392 19.5415C6.65111 19.5186 6.57362 19.4797 6.50587 19.4268C6.43812 19.374 6.38144 19.3083 6.33907 19.2336C6.29669 19.1588 6.26946 19.0765 6.25892 18.9912C6.24838 18.906 6.25474 18.8195 6.27764 18.7366L6.56312 17.7056C6.7055 17.1904 7.017 16.7652 7.42732 16.4788C7.84936 16.1838 8.36122 16.0455 8.87441 16.0878L10.2429 16.2002C10.3287 16.207 10.4124 16.2305 10.4891 16.2696C10.5659 16.3087 10.6341 16.3625 10.6901 16.4279C10.746 16.4934 10.7885 16.5692 10.8151 16.6511C10.8417 16.733 10.852 16.8193 10.8452 16.9052C10.8385 16.9911 10.8149 17.0748 10.7759 17.1515C10.7368 17.2283 10.683 17.2966 10.6175 17.3526C10.552 17.4086 10.4762 17.4511 10.3943 17.4777C10.3124 17.5044 10.226 17.5147 10.1401 17.5079L8.77183 17.3958C8.54865 17.3776 8.34045 17.436 8.17605 17.5507C8.01021 17.6666 7.8832 17.8413 7.82427 18.0545L7.53879 19.085ZM8.87185 14.291C8.77143 14.6379 8.40852 14.8376 8.0617 14.7374C7.71504 14.6366 7.51508 14.2738 7.61566 13.9271L7.89129 12.9805C8.02775 12.5122 8.33909 12.1404 8.73492 11.9159L8.73419 11.9148C9.13074 11.6906 9.61081 11.6155 10.0826 11.7401L10.9984 11.9825C11.348 12.0741 11.557 12.4324 11.465 12.7821C11.4432 12.8653 11.4052 12.9433 11.3531 13.0118C11.3011 13.0803 11.2361 13.1379 11.1618 13.1812C11.0875 13.2245 11.0054 13.2528 10.9202 13.2644C10.835 13.276 10.7484 13.2707 10.6652 13.2488L9.74934 13.0066C9.62509 12.9734 9.49279 12.99 9.38058 13.0529L9.37978 13.0521L9.37778 13.0529C9.26593 13.1163 9.18331 13.221 9.14756 13.3446L8.87185 14.291ZM10.5315 10.168C10.3306 10.4679 9.924 10.548 9.62386 10.3472C9.47974 10.2506 9.37988 10.1008 9.34624 9.9306C9.3126 9.76042 9.34794 9.58385 9.44449 9.43973C9.53287 9.30736 9.62421 9.17699 9.71843 9.04871C9.81325 8.92021 9.91075 8.79371 10.0109 8.6693C10.1675 8.47503 10.3527 8.3208 10.5644 8.20757C10.7739 8.09546 11.0043 8.02755 11.2531 8.00489C11.5033 7.98223 11.7422 8.00753 11.9681 8.0804C12.1951 8.15344 12.4047 8.27227 12.5943 8.43587L13.1417 8.90897C13.4149 9.14528 13.4446 9.55849 13.2084 9.83171C13.0948 9.96284 12.9338 10.0435 12.7607 10.056C12.5877 10.0686 12.4167 10.0119 12.2854 9.8985L11.738 9.42572C11.6833 9.37831 11.6263 9.34484 11.5681 9.32626C11.5088 9.3072 11.4428 9.30095 11.3712 9.3072C11.2985 9.31393 11.2344 9.33211 11.1795 9.36133C11.1273 9.38904 11.0774 9.43204 11.0312 9.48962C10.9432 9.59894 10.8576 9.71017 10.7745 9.82322C10.691 9.93635 10.61 10.0513 10.5315 10.168ZM36.2844 24.3774C36.3806 24.7258 36.1763 25.0864 35.828 25.1824C35.4797 25.2786 35.1192 25.0745 35.023 24.7261L34.3866 22.4282C34.3277 22.2149 34.201 22.0407 34.035 21.925C33.8706 21.81 33.6626 21.7518 33.4391 21.7701L31.2233 21.9514C31.0499 21.965 30.8782 21.9091 30.746 21.7962C30.6137 21.6832 30.5318 21.5223 30.5181 21.349C30.4897 20.9876 30.7597 20.6719 31.1208 20.644L33.3365 20.4622C33.8497 20.4196 34.3616 20.5577 34.7837 20.8527C35.1934 21.1391 35.5054 21.5648 35.6479 22.0795L36.2844 24.3774ZM34.7223 18.7366C34.7685 18.9039 34.7464 19.0826 34.6608 19.2335C34.5753 19.3845 34.4333 19.4952 34.2661 19.5415C34.1832 19.5644 34.0967 19.5708 34.0114 19.5603C33.9261 19.5498 33.8437 19.5225 33.7689 19.4801C33.6942 19.4377 33.6285 19.381 33.5756 19.3132C33.5228 19.2454 33.4839 19.1678 33.461 19.085L33.1756 18.0545C33.1167 17.8413 32.9899 17.6666 32.8239 17.5507C32.6594 17.436 32.4513 17.3777 32.2279 17.3958L30.8595 17.5079C30.4985 17.5363 30.1828 17.2661 30.1544 16.9052C30.1409 16.7318 30.1968 16.5602 30.3097 16.428C30.4227 16.2958 30.5836 16.2139 30.757 16.2002L32.1254 16.0878C32.6386 16.0455 33.1505 16.1838 33.5725 16.4788C33.9827 16.7652 34.2945 17.1905 34.4368 17.7056L34.7223 18.7366ZM33.3842 13.9271C33.4324 14.0937 33.4125 14.2726 33.3289 14.4245C33.2452 14.5764 33.1047 14.689 32.9382 14.7374C32.7716 14.7855 32.5926 14.7656 32.4407 14.6819C32.2888 14.5982 32.1763 14.4576 32.128 14.291L31.8525 13.3447C31.8167 13.2212 31.7341 13.1165 31.6223 13.0529L31.6203 13.0521L31.6195 13.0529C31.5073 12.9901 31.375 12.9735 31.2507 13.0067L30.3349 13.2489C29.9852 13.3408 29.6269 13.1322 29.5351 12.7822C29.443 12.4325 29.6519 12.0741 30.0016 11.9825L30.9174 11.7401C31.3891 11.6155 31.8693 11.6907 32.2658 11.9149L32.2651 11.916C32.6607 12.1404 32.9724 12.5123 33.1087 12.9806L33.3842 13.9271ZM31.5555 9.43973C31.652 9.58388 31.6873 9.76044 31.6536 9.93061C31.62 10.1008 31.5201 10.2506 31.376 10.3472C31.0758 10.548 30.6693 10.4679 30.4683 10.168C30.3899 10.0512 30.3089 9.93627 30.2253 9.82322C30.1423 9.71014 30.0567 9.59891 29.9688 9.48962C29.9225 9.43204 29.8728 9.38904 29.8203 9.36133C29.7658 9.33211 29.7015 9.31393 29.6288 9.3072C29.5571 9.30095 29.4911 9.3072 29.4317 9.32626C29.3734 9.34484 29.3165 9.37831 29.2619 9.42572L28.7144 9.8985C28.6494 9.95471 28.574 9.99757 28.4925 10.0246C28.411 10.0517 28.3249 10.0624 28.2392 10.0562C28.1535 10.05 28.0699 10.027 27.9931 9.98851C27.9163 9.94999 27.8478 9.89673 27.7916 9.83175C27.7354 9.76678 27.6926 9.69137 27.6655 9.60983C27.6384 9.5283 27.6277 9.44223 27.6339 9.35654C27.6401 9.27085 27.6631 9.18722 27.7016 9.11043C27.7401 9.03364 27.7934 8.96518 27.8584 8.90897L28.4055 8.43587C28.5952 8.27227 28.8047 8.15344 29.0318 8.0804C29.2575 8.00753 29.4966 7.98215 29.7469 8.00489C29.9956 8.02755 30.2259 8.09546 30.4357 8.20757C30.6475 8.3208 30.8326 8.47503 30.9891 8.6693C31.0893 8.79361 31.1868 8.92011 31.2815 9.04871C31.3757 9.17699 31.4671 9.30736 31.5555 9.43973ZM14.0234 7.7295C13.9483 7.7713 13.8657 7.79789 13.7804 7.80776C13.695 7.81763 13.6085 7.81058 13.5259 7.78702C13.4433 7.76346 13.3661 7.72385 13.2988 7.67045C13.2315 7.61705 13.1753 7.55091 13.1336 7.47581C12.9581 7.16023 13.0718 6.76168 13.3875 6.58607C15.6027 5.35863 18.0528 4.74475 20.4999 4.74475C22.9473 4.74475 25.3971 5.35863 27.6123 6.58607C27.928 6.76168 28.0418 7.16023 27.8659 7.47581C27.8242 7.55092 27.7681 7.61708 27.7008 7.67048C27.6335 7.72389 27.5563 7.76351 27.4737 7.78707C27.3911 7.81063 27.3046 7.81768 27.2193 7.8078C27.1339 7.79792 27.0514 7.77131 26.9763 7.7295C24.9648 6.61481 22.7338 6.05723 20.4999 6.05723C18.2661 6.05723 16.035 6.61481 14.0234 7.7295ZM21.3873 0.558105H22.749C29.4335 0.673818 35.234 5.20096 36.9706 11.6569L40.0577 22.8065C40.3945 24.024 40.1081 25.2528 39.3481 26.1747C39.5462 25.3334 39.5366 24.4335 39.2906 23.5448L36.0684 11.907C34.3722 5.78184 29.0398 1.64076 22.7186 1.4983C22.3769 1.06082 21.9139 0.733785 21.3873 0.558105ZM1.65176 26.1747C0.891904 25.2528 0.605304 24.024 0.942353 22.8065L4.02912 11.6569C5.76578 5.20096 11.5664 0.673898 18.2509 0.558105H19.6126C19.0861 0.733651 18.623 1.06068 18.2814 1.49822C11.96 1.64068 6.62758 5.78176 4.93152 11.9069L1.70934 23.5447C1.46326 24.4335 1.45389 25.3334 1.65176 26.1747ZM19.0603 2.80702C19.1512 2.49556 19.3407 2.22199 19.6003 2.02734C19.8598 1.83269 20.1755 1.72748 20.5 1.72748C20.8244 1.72748 21.1401 1.83269 21.3997 2.02734C21.6593 2.22199 21.8487 2.49556 21.9396 2.80702H22.3811C28.2594 2.80702 33.2344 6.59183 34.8031 12.2572L38.0255 23.8951C38.511 25.6484 37.7821 27.4466 36.2128 28.3672L33.3292 30.0588C32.4991 30.5454 31.5549 30.5695 30.7011 30.1253C29.8474 29.6817 29.3244 28.8952 29.246 27.9361L28.1429 14.4536C27.3583 10.8607 24.1773 8.29942 20.5 8.29942C16.8224 8.29942 13.6415 10.8606 12.8571 14.4536L11.7539 27.9361C11.6756 28.8952 11.1525 29.6817 10.2988 30.1253C9.44505 30.5695 8.50069 30.5454 7.6706 30.0588L4.78722 28.3672C3.21777 27.4466 2.48898 25.6484 2.97442 23.8951L6.19692 12.2572C7.76549 6.59183 12.7404 2.80702 18.6189 2.80702H19.0603Z"/>
</svg>
