<svg width="35" height="41" viewBox="0 0 35 41" xmlns="http://www.w3.org/2000/svg">
<path fill-rule="evenodd" clip-rule="evenodd" d="M12.3345 6.33667C12.2515 6.3063 12.1754 6.2597 12.1107 6.1996C12.0459 6.13949 11.9938 6.06709 11.9573 5.98661C11.9209 5.90614 11.9008 5.8192 11.8983 5.73089C11.8958 5.64257 11.911 5.55464 11.9428 5.47224C11.9747 5.38984 12.0227 5.31461 12.0839 5.25096C12.1452 5.1873 12.2186 5.13649 12.2997 5.1015C12.3808 5.0665 12.4681 5.04802 12.5564 5.04714C12.6448 5.04625 12.7324 5.06298 12.8142 5.09634C14.3175 5.67875 15.9071 5.97008 17.4996 5.97008C19.0924 5.97008 20.6819 5.67875 22.1856 5.09634C22.3501 5.03275 22.5332 5.0371 22.6945 5.10843C22.8558 5.17976 22.9822 5.31223 23.0458 5.47671C23.1093 5.64126 23.1049 5.82429 23.0335 5.98556C22.962 6.14682 22.8295 6.27312 22.665 6.33667C21.0178 6.97558 19.2664 7.30362 17.4996 7.30418C15.7329 7.30356 13.9816 6.97552 12.3345 6.33667ZM7.55558 19.3212C14.0945 20.8717 20.9054 20.8717 27.4443 19.3212V21.3681C20.8883 23.0005 14.1118 23.0005 7.55558 21.3681V19.3212ZM1.45139 17.3855C3.00893 18.0103 4.60168 18.5434 6.22148 18.9822V22.3977C7.74724 22.8174 9.29506 23.1524 10.8578 23.401H10.8273V26.0361C15.5575 26.824 15.5575 27.631 10.8273 28.4572V30.2815C15.5575 31.0694 15.5575 31.8765 10.8273 32.7026V34.527C15.3483 35.4222 15.5241 36.1982 11.355 36.8546C12.3145 37.8647 13.4826 38.5001 14.8587 38.7614C15.5903 39.8603 16.428 40.4447 17.3726 40.5145C18.317 40.4447 19.1548 39.8603 19.8867 38.7614C21.2626 38.5001 22.4304 37.8647 23.3901 36.8546C19.221 36.1981 19.397 35.4222 23.9175 34.527V32.7026C19.1876 31.8765 19.1876 31.0694 23.9175 30.2815V28.4572C19.1876 27.631 19.1876 26.8239 23.9175 26.0361V23.4363C25.5566 23.1843 27.1797 22.8375 28.7787 22.3977V18.9824C30.3984 18.5435 31.9912 18.0103 33.5487 17.3855C34.9492 13.577 34.9387 9.5386 33.8338 5.6307C31.6582 -0.1342 27.4865 -1.05462 21.3185 2.86905C20.099 3.34159 18.7997 3.57798 17.4999 3.57774C16.2007 3.5779 14.9011 3.34159 13.6816 2.86905C7.51354 -1.05462 3.34171 -0.1342 1.16623 5.6307C0.0613113 9.5386 0.0507412 13.577 1.45139 17.3855Z"/>
</svg>
