<svg width="18" height="18" viewBox="0 0 18 18" xmlns="http://www.w3.org/2000/svg">
<path d="M8.99935 0.666687C4.39935 0.666687 0.666016 4.40002 0.666016 9.00002C0.666016 13.6 4.39935 17.3334 8.99935 17.3334C13.5993 17.3334 17.3327 13.6 17.3327 9.00002C17.3327 4.40002 13.5993 0.666687 8.99935 0.666687ZM12.866 6.33335C12.741 7.65002 12.1993 10.85 11.9243 12.325C11.8077 12.95 11.5743 13.1584 11.3577 13.1834C10.8743 13.225 10.5077 12.8667 10.041 12.5584C9.30768 12.075 8.89102 11.775 8.18268 11.3084C7.35768 10.7667 7.89102 10.4667 8.36602 9.98335C8.49102 9.85835 10.6243 7.91669 10.666 7.74169C10.6718 7.71518 10.671 7.68766 10.6638 7.66152C10.6565 7.63538 10.643 7.61141 10.6243 7.59169C10.5743 7.55002 10.5077 7.56669 10.4493 7.57502C10.3743 7.59169 9.20768 8.36669 6.93268 9.90002C6.59935 10.125 6.29935 10.2417 6.03268 10.2334C5.73268 10.225 5.16602 10.0667 4.74102 9.92502C4.21602 9.75835 3.80768 9.66669 3.84102 9.37502C3.85768 9.22502 4.06602 9.07502 4.45768 8.91669C6.89102 7.85835 8.50768 7.15835 9.31602 6.82502C11.6327 5.85835 12.1077 5.69169 12.4243 5.69169C12.491 5.69169 12.6493 5.70835 12.7493 5.79169C12.8327 5.85835 12.8577 5.95002 12.866 6.01669C12.8577 6.06669 12.8743 6.21669 12.866 6.33335Z"/>
</svg>
