<svg width="18" height="18" viewBox="0 0 18 18" xmlns="http://www.w3.org/2000/svg">
<path d="M9.00083 0.666668C13.6033 0.666668 17.3342 4.3975 17.3342 9C17.3342 13.6025 13.6033 17.3333 9.00083 17.3333C7.52814 17.3357 6.08137 16.946 4.80916 16.2042L0.670826 17.3333L1.79749 13.1933C1.05507 11.9207 0.665032 10.4733 0.667492 9C0.667492 4.3975 4.39833 0.666668 9.00083 0.666668ZM6.16083 5.08333L5.99416 5.09C5.88626 5.09657 5.78081 5.12492 5.68416 5.17333C5.59376 5.22453 5.51124 5.28852 5.43916 5.36333C5.33916 5.4575 5.28249 5.53917 5.22166 5.61833C4.91343 6.01909 4.74747 6.5111 4.74999 7.01667C4.75166 7.425 4.85833 7.8225 5.02499 8.19417C5.36583 8.94583 5.92666 9.74167 6.66666 10.4792C6.84499 10.6567 7.01999 10.835 7.20833 11.0008C8.12782 11.8104 9.22354 12.3942 10.4083 12.7058L10.8817 12.7783C11.0358 12.7867 11.19 12.775 11.345 12.7675C11.5877 12.755 11.8247 12.6893 12.0392 12.575C12.1483 12.5188 12.2548 12.4576 12.3583 12.3917C12.3583 12.3917 12.3942 12.3683 12.4625 12.3167C12.575 12.2333 12.6442 12.1742 12.7375 12.0767C12.8067 12.005 12.8667 11.9208 12.9125 11.825C12.9775 11.6892 13.0425 11.43 13.0692 11.2142C13.0892 11.0492 13.0833 10.9592 13.0808 10.9033C13.0775 10.8142 13.0033 10.7217 12.9225 10.6825L12.4375 10.465C12.4375 10.465 11.7125 10.1492 11.2692 9.9475C11.2228 9.92725 11.1731 9.91566 11.1225 9.91333C11.0655 9.90748 11.0079 9.91389 10.9535 9.93215C10.8992 9.9504 10.8494 9.98007 10.8075 10.0192C10.8033 10.0175 10.7475 10.065 10.145 10.795C10.1104 10.8415 10.0628 10.8766 10.0082 10.8959C9.95354 10.9152 9.89442 10.9178 9.83832 10.9033C9.78404 10.8888 9.73085 10.8704 9.67916 10.8483C9.57582 10.805 9.53999 10.7883 9.46916 10.7583C8.99088 10.5496 8.54806 10.2676 8.15666 9.9225C8.05166 9.83083 7.95416 9.73083 7.85416 9.63417C7.52631 9.32019 7.24059 8.96501 7.00416 8.5775L6.95499 8.49833C6.91968 8.44514 6.89113 8.38775 6.86999 8.3275C6.83833 8.205 6.92083 8.10667 6.92083 8.10667C6.92083 8.10667 7.12333 7.885 7.21749 7.765C7.30916 7.64833 7.38666 7.535 7.43666 7.45417C7.53499 7.29583 7.56583 7.13333 7.51416 7.0075C7.28083 6.4375 7.03916 5.87 6.79083 5.30667C6.74166 5.195 6.59583 5.115 6.46333 5.09917C6.41833 5.09417 6.37332 5.08917 6.32832 5.08583C6.21641 5.08027 6.10427 5.08139 5.99249 5.08917L6.15999 5.0825L6.16083 5.08333Z"/>
</svg>
