<svg width="17" height="8" viewBox="0 0 17 8" xmlns="http://www.w3.org/2000/svg">
<path d="M16.1819 4.479C16.458 4.479 16.6819 4.25515 16.6819 3.979C16.6819 3.70286 16.458 3.479 16.1819 3.479L16.1819 4.479ZM0.646446 3.62545C0.451184 3.82071 0.451184 4.1373 0.646446 4.33256L3.82843 7.51454C4.02369 7.7098 4.34027 7.7098 4.53553 7.51454C4.7308 7.31928 4.7308 7.00269 4.53553 6.80743L1.70711 3.979L4.53553 1.15058C4.7308 0.955315 4.7308 0.638732 4.53553 0.44347C4.34027 0.248208 4.02369 0.248208 3.82843 0.44347L0.646446 3.62545ZM16.1819 3.479L0.999999 3.479L0.999999 4.479L16.1819 4.479L16.1819 3.479Z"/>
</svg>
