<svg width="19" height="13" viewBox="0 0 19 13" xmlns="http://www.w3.org/2000/svg">
<path d="M9.97786 7.28494C9.75758 7.28494 9.50799 7.19672 9.28771 6.99123L1.8285 0.412953C2.23963 0.163331 2.68015 0.0605469 3.31153 0.0605469H16.659C17.2609 0.0605469 17.7161 0.178016 18.142 0.427639L10.668 6.99123C10.4477 7.19672 10.2128 7.28494 9.97786 7.28494ZM1.16774 11.7046C1.03558 11.4109 0.962158 11.0879 0.962158 10.618V2.36588C0.962158 1.88132 1.06494 1.49954 1.13837 1.33802L6.64472 6.19833L1.16774 11.7046ZM3.09128 12.9234C2.56268 12.9234 2.15153 12.8059 1.85787 12.6151L7.52573 6.96179L8.59768 7.91632C9.02345 8.29799 9.50799 8.48895 9.97786 8.48895C10.4477 8.48895 10.9323 8.29799 11.3728 7.91632L12.4301 6.96179L18.0979 12.6151C17.8042 12.7912 17.3931 12.9234 16.8645 12.9234H3.09128ZM18.8027 11.7046L13.2964 6.19833L18.8174 1.3527C18.8908 1.49954 18.9789 1.88132 18.9789 2.36588V10.618C18.9789 11.0733 18.9202 11.4109 18.8027 11.7046Z"/>
</svg>
