<svg width="22" height="9" viewBox="0 0 22 9" xmlns="http://www.w3.org/2000/svg">
  <path d="M0.668945 6.97626V6.82941C0.668945 2.77676 5.9991 0.882568 10.9768 0.882568C15.9546 0.882568 21.2847 2.77676 21.2847 6.82941V6.97626C21.2847 8.10684 20.7268 8.98796 19.5814 8.98796C18.7297 8.98796 17.7314 8.94385 16.028 8.42999C15.0588 8.13629 14.6331 7.66642 14.6037 6.59447L14.589 5.64006C14.589 5.47855 14.5009 5.36102 14.2806 5.28759C13.7667 5.12608 12.5774 4.92059 10.9768 4.92059C9.37635 4.92059 8.18695 5.12608 7.67303 5.28759C7.45277 5.36102 7.36467 5.47855 7.36467 5.64006L7.34998 6.59447C7.33531 7.66642 6.90948 8.13629 5.92568 8.42999C4.22238 8.94385 3.22389 8.98796 2.37225 8.98796C1.22693 8.98796 0.668945 8.10684 0.668945 6.97626Z" />
</svg>