<svg width="17" height="14" viewBox="0 0 17 14" xmlns="http://www.w3.org/2000/svg">
<path fill-rule="evenodd" clip-rule="evenodd" d="M1.78301 6.29569C6.15134 4.39248 9.06424 3.13777 10.5217 2.53156C14.6831 0.800694 15.5478 0.500024 16.1114 0.490096C16.2354 0.487912 16.5125 0.518633 16.6921 0.664312C16.8437 0.787321 16.8854 0.953489 16.9053 1.07011C16.9253 1.18674 16.9502 1.45242 16.9304 1.66001C16.7049 4.02943 15.7291 9.77939 15.2327 12.4332C15.0227 13.5561 14.6091 13.9326 14.2086 13.9695C13.3385 14.0495 12.6777 13.3944 11.8349 12.8419C10.516 11.9774 9.77095 11.4392 8.49079 10.5956C7.01133 9.62068 7.9704 9.08484 8.81354 8.20912C9.03419 7.97994 12.8683 4.49258 12.9425 4.17622C12.9517 4.13665 12.9604 3.98917 12.8727 3.91129C12.7851 3.83341 12.6558 3.86004 12.5625 3.88122C12.4302 3.91125 10.3233 5.30381 6.24188 8.05891C5.64385 8.46956 5.10217 8.66964 4.61685 8.65915C4.08182 8.6476 3.05264 8.35664 2.28755 8.10794C1.34914 7.8029 0.603304 7.64162 0.668249 7.12357C0.702077 6.85374 1.07366 6.57778 1.78301 6.29569Z" />
</svg>
