<svg width="19" height="19" viewBox="0 0 19 19" xmlns="http://www.w3.org/2000/svg">
<path d="M0.128906 18.2333L1.41376 13.5677C0.619406 12.1982 0.202698 10.6473 0.207039 9.06181C0.207039 4.09372 4.26994 0.0544434 9.25742 0.0544434C11.6795 0.0544434 13.9541 0.991901 15.66 2.69401C17.3702 4.39613 18.3121 6.65985 18.3078 9.06613C18.3078 14.0342 14.2449 18.0735 9.25307 18.0735H9.24873C7.73383 18.0735 6.24496 17.6933 4.92105 16.9762L0.128906 18.2333ZM5.15111 15.3475L5.42457 15.5117C6.5792 16.1943 7.90311 16.5528 9.25307 16.5572H9.25742C13.4028 16.5572 16.7799 13.2005 16.7799 9.07045C16.7799 7.07026 15.9985 5.19102 14.5791 3.77403C13.1597 2.35705 11.2672 1.57943 9.25742 1.57943C5.11204 1.57511 1.73497 4.93182 1.73497 9.06181C1.73497 10.4745 2.12997 11.8526 2.88526 13.0449L3.06322 13.3301L2.3036 16.0906L5.15111 15.3475Z" />

<path fill-rule="evenodd" clip-rule="evenodd" d="M6.9957 5.29449C6.82641 4.91865 6.64844 4.91001 6.48784 4.90569C6.35762 4.90137 6.20569 4.90137 6.05377 4.90137C5.90184 4.90137 5.65876 4.95753 5.45041 5.18217C5.24206 5.40682 4.6604 5.95115 4.6604 7.06141C4.6604 8.16735 5.47211 9.23873 5.58497 9.38993C5.69783 9.54113 7.15197 11.8869 9.4482 12.7898C11.3581 13.5415 11.7488 13.3903 12.1611 13.3514C12.5735 13.3126 13.4981 12.8071 13.6891 12.2801C13.8757 11.753 13.8757 11.3037 13.8193 11.2087C13.7629 11.1136 13.6109 11.0575 13.3852 10.9452C13.1595 10.8328 12.0483 10.2885 11.8399 10.2107C11.6316 10.1373 11.4797 10.0984 11.3321 10.3231C11.1801 10.5477 10.7461 11.0532 10.6159 11.2044C10.4856 11.3556 10.3511 11.3728 10.1254 11.2605C9.89963 11.1482 9.1704 10.9106 8.30659 10.1416C7.63378 9.54545 7.17801 8.80672 7.04779 8.58208C6.91757 8.35743 7.03477 8.23647 7.14763 8.12415C7.24746 8.02479 7.37334 7.86062 7.4862 7.73102C7.59906 7.60142 7.63813 7.50638 7.71192 7.35517C7.78571 7.20397 7.75098 7.07437 7.69456 6.96205C7.63813 6.85404 7.19537 5.73946 6.9957 5.29449Z" />
</svg>
