<svg width="1212" height="254" viewBox="0 0 1212 254" fill="none" xmlns="http://www.w3.org/2000/svg">
<g clip-path="url(#clip0_242_7977)">
<path d="M190.597 -165.893H195.484H190.597ZM195.484 -160.975H200.371H195.484ZM200.371 -156.057H205.258H200.371ZM205.258 -151.139H210.145H205.258ZM210.145 -146.221H215.032H210.145ZM215.032 -141.303H219.919H215.032ZM219.919 -136.385H224.806H219.919ZM224.806 -131.467H229.694H224.806ZM229.694 -126.549H234.581H229.694ZM234.581 -121.631H239.468H234.581ZM239.468 -116.713H244.355H239.468ZM239.468 -111.795H244.355H239.468ZM557.129 -42.9445H562.016H557.129ZM557.129 -38.0266H562.016H557.129ZM557.129 -33.1087H562.016H557.129ZM557.129 -28.1908H562.016H557.129ZM557.129 -23.2728H562.016H557.129ZM557.129 -18.3549H562.016H557.129ZM557.129 -13.437H562.016H557.129ZM557.129 -8.51906H562.016H557.129ZM557.129 -3.60114H562.016H557.129ZM552.242 1.31679H557.129H552.242ZM552.242 6.2347H557.129H552.242ZM552.242 11.1526H557.129H552.242ZM552.242 16.0706H557.129H552.242ZM552.242 20.9885H557.129H552.242ZM552.242 25.9064H557.129H552.242ZM547.355 30.8243H552.242H547.355ZM547.355 35.7422H552.242H547.355ZM547.355 40.6602H552.242H547.355ZM542.468 45.5781H552.242H542.468ZM542.468 50.496H547.355H542.468ZM542.468 55.4139H547.355H542.468ZM537.581 60.3318H542.468H537.581ZM532.694 65.2498H537.581H532.694ZM527.806 70.1677H532.694H527.806ZM518.032 75.0856H527.806H518.032ZM1001.85 75.0856H1006.74H1001.85ZM518.032 80.0036H522.919H518.032ZM1001.85 80.0036H1006.74H1001.85ZM518.032 84.9214H522.919H518.032ZM996.968 84.9214H1001.85H996.968ZM518.032 89.8394H522.919H518.032ZM996.968 89.8394H1001.85H996.968ZM522.919 94.7573H527.806H522.919ZM992.081 94.7573H996.968H992.081ZM522.919 99.6752H527.806H522.919ZM992.081 99.6752H996.968H992.081ZM43.9839 104.593H48.871H43.9839ZM527.806 104.593H532.694H527.806ZM987.194 104.593H992.081H987.194ZM1099.6 104.593H1133.81H1099.6ZM48.871 109.511H53.7581H48.871ZM527.806 109.511H532.694H527.806ZM987.194 109.511H992.081H987.194ZM1089.82 109.511H1099.6H1089.82ZM1114.26 109.511H1119.15H1114.26ZM1133.81 109.511H1163.13H1133.81ZM53.7581 114.429H58.6452H53.7581ZM532.694 114.429H537.581H532.694ZM982.306 114.429H987.194H982.306ZM1075.16 114.429H1089.82H1075.16ZM1119.15 114.429H1124.03H1119.15ZM1163.13 114.429H1192.45H1163.13ZM58.6452 119.347H63.5323H58.6452ZM537.581 119.347H542.468H537.581ZM977.419 119.347H982.306H977.419ZM1050.73 119.347H1075.16H1050.73ZM1124.03 119.347H1128.92H1124.03ZM1192.45 119.347H1212H1192.45ZM63.5323 124.265H68.4193H63.5323ZM542.468 124.265H547.355H542.468ZM977.419 124.265H982.306H977.419ZM1045.84 124.265H1050.73H1045.84ZM1124.03 124.265H1128.92H1124.03ZM68.4193 129.183H73.3064H68.4193ZM547.355 129.183H552.242H547.355ZM972.532 129.183H977.419H972.532ZM1026.29 129.183H1045.84H1026.29ZM73.3064 134.101H78.1936H73.3064ZM552.242 134.101H557.129H552.242ZM962.758 134.101H972.532H962.758ZM1011.63 134.101H1026.29H1011.63ZM78.1936 139.019H83.0807H78.1936ZM552.242 139.019H562.016H552.242ZM957.871 139.019H967.645H957.871ZM982.306 139.019H1011.63H982.306ZM83.0807 143.937H92.8548H83.0807ZM562.016 143.937H566.903H562.016ZM879.677 143.937H982.306H879.677ZM92.8548 148.854H97.7419H92.8548ZM566.903 148.854H571.79H566.903ZM869.903 148.854H879.677H869.903ZM97.7419 153.772H102.629H97.7419ZM571.79 153.772H581.565H571.79ZM865.016 153.772H869.903H865.016ZM102.629 158.69H107.516H102.629ZM581.565 158.69H586.452H581.565ZM855.242 158.69H865.016H855.242ZM107.516 163.608H112.403H107.516ZM586.452 163.608H596.226H586.452ZM850.355 163.608H855.242H850.355ZM107.516 168.526H122.177H107.516ZM596.226 168.526H610.887H596.226ZM845.468 168.526H850.355H845.468ZM107.516 173.444H112.403H107.516ZM122.177 173.444H131.952H122.177ZM610.887 173.444H625.548H610.887ZM840.581 173.444H845.468H840.581ZM102.629 178.362H107.516H102.629ZM131.952 178.362H146.613H131.952ZM625.548 178.362H635.323H625.548ZM830.806 178.362H840.581H830.806ZM97.7419 183.28H102.629H97.7419ZM146.613 183.28H151.5H146.613ZM478.935 183.28H483.823H478.935ZM635.323 183.28H640.21H635.323ZM821.032 183.28H830.806H821.032ZM87.9677 188.198H97.7419H87.9677ZM151.5 188.198H156.387H151.5ZM478.935 188.198H483.823H478.935ZM615.774 188.198H625.548H615.774ZM640.21 188.198H659.758H640.21ZM816.145 188.198H821.032H816.145ZM0 193.116H4.8871H0ZM83.0807 193.116H87.9677H83.0807ZM156.387 193.116H166.161H156.387ZM478.935 193.116H483.823H478.935ZM591.339 193.116H615.774H591.339ZM625.548 193.116H708.629H625.548ZM811.258 193.116H816.145H811.258ZM4.8871 198.034H14.6613H4.8871ZM73.3064 198.034H83.0807H73.3064ZM166.161 198.034H171.048H166.161ZM219.919 198.034H263.903H219.919ZM478.935 198.034H483.823H478.935ZM562.016 198.034H591.339H562.016ZM708.629 198.034H713.516H708.629ZM801.484 198.034H811.258H801.484ZM14.6613 202.952H43.9839H14.6613ZM63.5323 202.952H73.3064H63.5323ZM171.048 202.952H175.935H171.048ZM215.032 202.952H219.919H215.032ZM263.903 202.952H278.565H263.903ZM478.935 202.952H483.823H478.935ZM537.581 202.952H562.016H537.581ZM713.516 202.952H718.403H713.516ZM796.597 202.952H801.484H796.597ZM43.9839 207.87H63.5323H43.9839ZM175.935 207.87H180.823H175.935ZM195.484 207.87H219.919H195.484ZM278.565 207.87H288.339H278.565ZM483.823 207.87H488.71H483.823ZM522.919 207.87H537.581H522.919ZM718.403 207.87H723.29H718.403ZM791.71 207.87H796.597H791.71ZM48.871 212.787H53.7581H48.871ZM58.6452 212.787H63.5323H58.6452ZM180.823 212.787H195.484H180.823ZM288.339 212.787H298.113H288.339ZM483.823 212.787H488.71H483.823ZM508.258 212.787H522.919H508.258ZM718.403 212.787H791.71H718.403ZM53.7581 217.705H58.6452H53.7581ZM63.5323 217.705H68.4193H63.5323ZM298.113 217.705H303H298.113ZM483.823 217.705H508.258H483.823ZM762.387 217.705H791.71H762.387ZM58.6452 222.623H63.5323H58.6452ZM68.4193 222.623H73.3064H68.4193ZM303 222.623H307.887H303ZM474.048 222.623H488.71H474.048ZM786.823 222.623H791.71H786.823ZM73.3064 227.541H78.1936H73.3064ZM307.887 227.541H322.548H307.887ZM469.161 227.541H474.048H469.161ZM786.823 227.541H791.71H786.823ZM322.548 232.459H327.435H322.548ZM454.5 232.459H469.161H454.5ZM786.823 232.459H791.71H786.823ZM327.435 237.377H332.323H327.435ZM439.839 237.377H454.5H439.839ZM791.71 237.377H796.597H791.71ZM332.323 242.295H337.21H332.323ZM420.29 242.295H439.839H420.29ZM791.71 242.295H796.597H791.71ZM337.21 247.213H342.097H337.21ZM400.742 247.213H420.29H400.742ZM791.71 247.213H796.597H791.71ZM332.323 252.131H337.21H332.323ZM342.097 252.131H356.758H342.097ZM376.306 252.131H400.742H376.306ZM356.758 257.049H376.306H356.758Z" fill="black"/>
<path fill-rule="evenodd" clip-rule="evenodd" d="M195.484 -164.085H190.597V-167.7H195.484V-164.085ZM200.371 -159.168H195.484V-162.782H200.371V-159.168ZM205.258 -154.25H200.371V-157.865H205.258V-154.25ZM210.145 -149.332H205.258V-152.947H210.145V-149.332ZM215.032 -144.414H210.145V-148.029H215.032V-144.414ZM219.919 -139.496H215.032V-143.111H219.919V-139.496ZM224.806 -134.578H219.919V-138.193H224.806V-134.578ZM229.694 -129.66H224.806V-133.275H229.694V-129.66ZM234.581 -124.742H229.694V-128.357H234.581V-124.742ZM239.468 -119.824H234.581V-123.439H239.468V-119.824ZM244.355 -114.906H239.468V-118.521H244.355V-114.906ZM244.355 -109.988H239.468V-113.603H244.355V-109.988ZM562.016 -41.1374H557.129V-44.7523H562.016V-41.1374ZM562.016 -36.2195H557.129V-39.8344H562.016V-36.2195ZM562.016 -31.3016H557.129V-34.9165H562.016V-31.3016ZM562.016 -26.3837H557.129V-29.9985H562.016V-26.3837ZM562.016 -21.4657H557.129V-25.0806H562.016V-21.4657ZM562.016 -16.5478H557.129V-20.1627H562.016V-16.5478ZM562.016 -11.6299H557.129V-15.2448H562.016V-11.6299ZM562.016 -6.71198H557.129V-10.3269H562.016V-6.71198ZM562.016 -1.79404H557.129V-5.40892H562.016V-1.79404ZM557.129 3.12389H552.242V-0.490997H557.129V3.12389ZM557.129 8.04179H552.242V4.42691H557.129V8.04179ZM557.129 12.9597H552.242V9.34483H557.129V12.9597ZM557.129 17.8776H552.242V14.2628H557.129V17.8776ZM557.129 22.7956H552.242V19.1807H557.129V22.7956ZM557.129 27.7135H552.242V24.0986H557.129V27.7135ZM552.242 32.6314H547.355V29.0165H552.242V32.6314ZM552.242 37.5493H547.355V33.9344H552.242V37.5493ZM552.242 42.4673H547.355V38.8524H552.242V42.4673ZM552.242 43.7703V47.3852H542.468V43.7703H552.242ZM547.355 52.3031H542.468V48.6882H547.355V52.3031ZM547.355 57.221H542.468V53.6061H547.355V57.221ZM542.468 62.1389H537.581V58.5241H542.468V62.1389ZM537.581 67.0569H532.694V63.442H537.581V67.0569ZM532.694 71.9748H527.806V68.3599H532.694V71.9748ZM527.806 76.8927H518.032V73.2778H527.806V76.8927ZM1006.74 76.8927H1001.85V73.2778H1006.74V76.8927ZM522.919 81.8107H518.032V78.1958H522.919V81.8107ZM1006.74 81.8107H1001.85V78.1958H1006.74V81.8107ZM522.919 86.7285H518.032V83.1137H522.919V86.7285ZM1001.85 86.7285H996.968V83.1137H1001.85V86.7285ZM522.919 91.6465H518.032V88.0316H522.919V91.6465ZM1001.85 91.6465H996.968V88.0316H1001.85V91.6465ZM527.806 96.5644H522.919V92.9495H527.806V96.5644ZM996.968 96.5644H992.081V92.9495H996.968V96.5644ZM527.806 101.482H522.919V97.8674H527.806V101.482ZM996.968 101.482H992.081V97.8674H996.968V101.482ZM48.871 106.4H43.9839V102.785H48.871V106.4ZM532.694 106.4H527.806V102.785H532.694V106.4ZM992.081 106.4H987.194V102.785H992.081V106.4ZM1133.81 106.4H1099.6V102.785H1133.81V106.4ZM53.7581 111.318H48.871V107.703H53.7581V111.318ZM532.694 111.318H527.806V107.703H532.694V111.318ZM992.081 111.318H987.194V107.703H992.081V111.318ZM1099.6 111.318H1089.82V107.703H1099.6V111.318ZM1119.15 111.318H1114.26V107.703H1119.15V111.318ZM1163.13 111.318H1133.81V107.703H1163.13V111.318ZM58.6452 116.236H53.7581V112.621H58.6452V116.236ZM537.581 116.236H532.694V112.621H537.581V116.236ZM987.194 116.236H982.306V112.621H987.194V116.236ZM1089.82 116.236H1075.16V112.621H1089.82V116.236ZM1124.03 116.236H1119.15V112.621H1124.03V116.236ZM1192.45 116.236H1163.13V112.621H1192.45V116.236ZM63.5323 121.154H58.6452V117.539H63.5323V121.154ZM542.468 121.154H537.581V117.539H542.468V121.154ZM982.306 121.154H977.419V117.539H982.306V121.154ZM1075.16 121.154H1050.73V117.539H1075.16V121.154ZM1128.92 121.154H1124.03V117.539H1128.92V121.154ZM1212 121.154H1192.45V117.539H1212V121.154ZM68.4193 126.072H63.5323V122.457H68.4193V126.072ZM547.355 126.072H542.468V122.457H547.355V126.072ZM982.306 126.072H977.419V122.457H982.306V126.072ZM1050.73 126.072H1045.84V122.457H1050.73V126.072ZM1128.92 126.072H1124.03V122.457H1128.92V126.072ZM73.3064 130.99H68.4193V127.375H73.3064V130.99ZM552.242 130.99H547.355V127.375H552.242V130.99ZM977.419 130.99H972.532V127.375H977.419V130.99ZM1045.84 130.99H1026.29V127.375H1045.84V130.99ZM78.1936 135.908H73.3064V132.293H78.1936V135.908ZM557.129 135.908H552.242V132.293H557.129V135.908ZM972.532 135.908H962.758V132.293H972.532V135.908ZM1026.29 135.908H1011.63V132.293H1026.29V135.908ZM83.0807 140.826H78.1936V137.211H83.0807V140.826ZM562.016 137.211V140.826H552.242V137.211H562.016ZM967.645 137.211V140.826H957.871V137.211H967.645ZM1011.63 140.826H982.306V137.211H1011.63V140.826ZM92.8548 145.744H83.0807V142.129H92.8548V145.744ZM566.903 145.744H562.016V142.129H566.903V145.744ZM982.306 145.744H879.677V142.129H982.306V145.744ZM97.7419 150.662H92.8548V147.047H97.7419V150.662ZM571.79 150.662H566.903V147.047H571.79V150.662ZM879.677 150.662H869.903V147.047H879.677V150.662ZM102.629 155.579H97.7419V151.965H102.629V155.579ZM581.565 155.579H571.79V151.965H581.565V155.579ZM869.903 155.579H865.016V151.965H869.903V155.579ZM107.516 160.497H102.629V156.883H107.516V160.497ZM586.452 160.497H581.565V156.883H586.452V160.497ZM865.016 160.497H855.242V156.883H865.016V160.497ZM112.403 165.415H107.516V161.8H112.403V165.415ZM596.226 165.415H586.452V161.8H596.226V165.415ZM855.242 165.415H850.355V161.8H855.242V165.415ZM122.177 170.333H107.516V166.718H122.177V170.333ZM610.887 170.333H596.226V166.718H610.887V170.333ZM850.355 170.333H845.468V166.718H850.355V170.333ZM112.403 175.251H107.516V171.636H112.403V175.251ZM131.952 175.251H122.177V171.636H131.952V175.251ZM625.548 175.251H610.887V171.636H625.548V175.251ZM845.468 175.251H840.581V171.636H845.468V175.251ZM107.516 180.169H102.629V176.554H107.516V180.169ZM146.613 180.169H131.952V176.554H146.613V180.169ZM635.323 180.169H625.548V176.554H635.323V180.169ZM840.581 180.169H830.806V176.554H840.581V180.169ZM102.629 185.087H97.7419V181.472H102.629V185.087ZM151.5 185.087H146.613V181.472H151.5V185.087ZM483.823 185.087H478.935V181.472H483.823V185.087ZM640.21 185.087H635.323V181.472H640.21V185.087ZM830.806 185.087H821.032V181.472H830.806V185.087ZM97.7419 190.005H87.9677V186.39H97.7419V190.005ZM156.387 190.005H151.5V186.39H156.387V190.005ZM483.823 190.005H478.935V186.39H483.823V190.005ZM625.548 190.005H615.774V186.39H625.548V190.005ZM659.758 190.005H640.21V186.39H659.758V190.005ZM821.032 190.005H816.145V186.39H821.032V190.005ZM4.8871 194.923H0V191.308H4.8871V194.923ZM87.9677 194.923H83.0807V191.308H87.9677V194.923ZM166.161 194.923H156.387V191.308H166.161V194.923ZM483.823 194.923H478.935V191.308H483.823V194.923ZM615.774 194.923H591.339V191.308H615.774V194.923ZM708.629 194.923H625.548V191.308H708.629V194.923ZM816.145 194.923H811.258V191.308H816.145V194.923ZM14.6613 199.841H4.8871V196.226H14.6613V199.841ZM83.0807 196.226V199.841H73.3064V196.226H83.0807ZM171.048 199.841H166.161V196.226H171.048V199.841ZM263.903 199.841H219.919V196.226H263.903V199.841ZM483.823 199.841H478.935V196.226H483.823V199.841ZM591.339 199.841H562.016V196.226H591.339V199.841ZM713.516 199.841H708.629V196.226H713.516V199.841ZM811.258 199.841H801.484V196.226H811.258V199.841ZM43.9839 204.759H14.6613V201.144H43.9839V204.759ZM73.3064 201.144V204.759H63.5323V201.144H73.3064ZM175.935 204.759H171.048V201.144H175.935V204.759ZM219.919 204.759H215.032V201.144H219.919V204.759ZM278.565 204.759H263.903V201.144H278.565V204.759ZM483.823 204.759H478.935V201.144H483.823V204.759ZM562.016 204.759H537.581V201.144H562.016V204.759ZM718.403 204.759H713.516V201.144H718.403V204.759ZM801.484 204.759H796.597V201.144H801.484V204.759ZM63.5323 209.677H43.9839V206.062H63.5323V209.677ZM180.823 209.677H175.935V206.062H180.823V209.677ZM219.919 209.677H195.484V206.062H219.919V209.677ZM288.339 209.677H278.565V206.062H288.339V209.677ZM488.71 209.677H483.823V206.062H488.71V209.677ZM537.581 209.677H522.919V206.062H537.581V209.677ZM723.29 209.677H718.403V206.062H723.29V209.677ZM796.597 209.677H791.71V206.062H796.597V209.677ZM53.7581 214.595H48.871V210.98H53.7581V214.595ZM63.5323 214.595H58.6452V210.98H63.5323V214.595ZM195.484 214.595H180.823V210.98H195.484V214.595ZM298.113 214.595H288.339V210.98H298.113V214.595ZM488.71 214.595H483.823V210.98H488.71V214.595ZM522.919 214.595H508.258V210.98H522.919V214.595ZM791.71 214.595H718.403V210.98H791.71V214.595ZM58.6452 219.512H53.7581V215.898H58.6452V219.512ZM68.4193 219.512H63.5323V215.898H68.4193V219.512ZM303 219.512H298.113V215.898H303V219.512ZM508.258 219.512H483.823V215.898H508.258V219.512ZM791.71 219.512H762.387V215.898H791.71V219.512ZM63.5323 224.43H58.6452V220.815H63.5323V224.43ZM73.3064 224.43H68.4193V220.815H73.3064V224.43ZM307.887 224.43H303V220.815H307.887V224.43ZM488.71 224.43H474.048V220.815H488.71V224.43ZM791.71 224.43H786.823V220.815H791.71V224.43ZM78.1936 229.348H73.3064V225.733H78.1936V229.348ZM322.548 229.348H307.887V225.733H322.548V229.348ZM474.048 229.348H469.161V225.733H474.048V229.348ZM791.71 229.348H786.823V225.733H791.71V229.348ZM327.435 234.266H322.548V230.651H327.435V234.266ZM469.161 234.266H454.5V230.651H469.161V234.266ZM791.71 234.266H786.823V230.651H791.71V234.266ZM332.323 239.184H327.435V235.569H332.323V239.184ZM454.5 239.184H439.839V235.569H454.5V239.184ZM796.597 239.184H791.71V235.569H796.597V239.184ZM337.21 244.102H332.323V240.487H337.21V244.102ZM439.839 244.102H420.29V240.487H439.839V244.102ZM796.597 244.102H791.71V240.487H796.597V244.102ZM342.097 249.02H337.21V245.405H342.097V249.02ZM420.29 249.02H400.742V245.405H420.29V249.02ZM796.597 249.02H791.71V245.405H796.597V249.02ZM337.21 253.938H332.323V250.323H337.21V253.938ZM356.758 253.938H342.097V250.323H356.758V253.938ZM400.742 253.938H376.306V250.323H400.742V253.938ZM376.306 258.856H356.758V255.241H376.306V258.856Z" fill="#4E4C6C"/>
</g>
<defs>
<clipPath id="clip0_242_7977">
<rect width="1212" height="254" fill="white"/>
</clipPath>
</defs>
</svg>
