<svg width="758" height="254" viewBox="0 0 758 254" fill="none" xmlns="http://www.w3.org/2000/svg">
<rect x="750" y="252" width="2.00002" height="498" transform="rotate(90 750 252)" fill="#75739C"/>
<rect x="758" y="108" width="4.00003" height="650" transform="rotate(90 758 108)" fill="#75739C"/>
<rect x="758" y="116" width="4.00003" height="642" transform="rotate(90 758 116)" fill="#75739C"/>
<rect x="758" y="112" width="4.00003" height="646" transform="rotate(90 758 112)" fill="#75739C"/>
<rect x="758" y="120" width="4.00003" height="638" transform="rotate(90 758 120)" fill="#75739C"/>
<rect x="758" y="124" width="4.00003" height="634" transform="rotate(90 758 124)" fill="#75739C"/>
<rect x="758" y="132" width="4.00003" height="626" transform="rotate(90 758 132)" fill="#75739C"/>
<rect x="758" y="140" width="4.00003" height="618" transform="rotate(90 758 140)" fill="#75739C"/>
<rect x="758" y="156" width="4.00003" height="602" transform="rotate(90 758 156)" fill="#75739C"/>
<rect x="758" y="136" width="4.00003" height="622" transform="rotate(90 758 136)" fill="#75739C"/>
<rect x="758" y="144" width="4.00003" height="614" transform="rotate(90 758 144)" fill="#75739C"/>
<rect x="758" y="148" width="4.00003" height="610" transform="rotate(90 758 148)" fill="#75739C"/>
<rect x="758" y="164" width="4.00003" height="594" transform="rotate(90 758 164)" fill="#75739C"/>
<rect x="758" y="128" width="4.00003" height="630" transform="rotate(90 758 128)" fill="#75739C"/>
<rect x="758" y="152" width="4.00003" height="606" transform="rotate(90 758 152)" fill="#75739C"/>
<rect x="758" y="160" width="4.00003" height="598" transform="rotate(90 758 160)" fill="#75739C"/>
<rect x="758" y="168" width="4.00003" height="590" transform="rotate(90 758 168)" fill="#75739C"/>
<rect x="758" y="180" width="4.00003" height="578" transform="rotate(90 758 180)" fill="#75739C"/>
<rect x="758" y="172" width="4.00003" height="586" transform="rotate(90 758 172)" fill="#75739C"/>
<rect x="758" y="184" width="4.00003" height="574" transform="rotate(90 758 184)" fill="#75739C"/>
<rect x="758" y="196" width="4.00002" height="562" transform="rotate(90 758 196)" fill="#75739C"/>
<rect x="758" y="212" width="4.00002" height="546" transform="rotate(90 758 212)" fill="#75739C"/>
<rect x="758" y="216" width="4.00002" height="542" transform="rotate(90 758 216)" fill="#75739C"/>
<rect x="758" y="188" width="4.00002" height="570" transform="rotate(90 758 188)" fill="#75739C"/>
<rect x="758" y="192" width="4.00002" height="566" transform="rotate(90 758 192)" fill="#75739C"/>
<rect x="758" y="200" width="4.00002" height="558" transform="rotate(90 758 200)" fill="#75739C"/>
<rect x="758" y="204" width="4.00002" height="554" transform="rotate(90 758 204)" fill="#75739C"/>
<rect x="758" y="208" width="4.00002" height="550" transform="rotate(90 758 208)" fill="#75739C"/>
<rect x="758" y="228" width="4.00002" height="530" transform="rotate(90 758 228)" fill="#75739C"/>
<rect x="754" y="244" width="4.00002" height="510" transform="rotate(90 754 244)" fill="#75739C"/>
<rect x="750" y="248" width="4.00002" height="502" transform="rotate(90 750 248)" fill="#75739C"/>
<rect x="758" y="176" width="4.00003" height="582" transform="rotate(90 758 176)" fill="#75739C"/>
<rect x="758" y="220" width="4.00002" height="538" transform="rotate(90 758 220)" fill="#75739C"/>
<rect x="758" y="224" width="4.00002" height="534" transform="rotate(90 758 224)" fill="#75739C"/>
<rect x="758" y="232" width="4.00002" height="526" transform="rotate(90 758 232)" fill="#75739C"/>
<rect x="758" y="236" width="4.00002" height="522" transform="rotate(90 758 236)" fill="#75739C"/>
<rect x="758" y="240" width="4.00002" height="518" transform="rotate(90 758 240)" fill="#75739C"/>
<rect x="750" width="4.00003" height="750" transform="rotate(90 750 0)" fill="#75739C"/>
<rect x="758" y="8" width="4.00003" height="750" transform="rotate(90 758 8)" fill="#75739C"/>
<rect x="754" y="4" width="4.00003" height="750" transform="rotate(90 754 4)" fill="#75739C"/>
<rect x="758" y="12" width="4" height="746" transform="rotate(90 758 12)" fill="#75739C"/>
<rect x="758" y="16" width="4" height="742" transform="rotate(90 758 16)" fill="#75739C"/>
<rect x="758" y="24" width="4.00003" height="734" transform="rotate(90 758 24)" fill="#75739C"/>
<rect x="758" y="32" width="4.00003" height="726" transform="rotate(90 758 32)" fill="#75739C"/>
<rect x="758" y="48" width="4.00003" height="710" transform="rotate(90 758 48)" fill="#75739C"/>
<rect x="758" y="28" width="4.00003" height="730" transform="rotate(90 758 28)" fill="#75739C"/>
<rect x="758" y="36" width="4.00003" height="722" transform="rotate(90 758 36)" fill="#75739C"/>
<rect x="758" y="40" width="4.00003" height="718" transform="rotate(90 758 40)" fill="#75739C"/>
<rect x="758" y="56.0001" width="4.00003" height="702" transform="rotate(90 758 56.0001)" fill="#75739C"/>
<rect x="758" y="20" width="4" height="738" transform="rotate(90 758 20)" fill="#75739C"/>
<rect x="758" y="44" width="4.00003" height="714" transform="rotate(90 758 44)" fill="#75739C"/>
<rect x="758" y="52" width="4.00003" height="706" transform="rotate(90 758 52)" fill="#75739C"/>
<rect x="758" y="60" width="4.00003" height="698" transform="rotate(90 758 60)" fill="#75739C"/>
<rect x="758" y="72" width="4.00003" height="686" transform="rotate(90 758 72)" fill="#75739C"/>
<rect x="758" y="64" width="4.00003" height="694" transform="rotate(90 758 64)" fill="#75739C"/>
<rect x="758" y="76" width="4.00003" height="682" transform="rotate(90 758 76)" fill="#75739C"/>
<rect x="758" y="88" width="4.00003" height="670" transform="rotate(90 758 88)" fill="#75739C"/>
<rect x="758" y="104" width="4.00003" height="654" transform="rotate(90 758 104)" fill="#75739C"/>
<rect x="758" y="68" width="4.00003" height="690" transform="rotate(90 758 68)" fill="#75739C"/>
<rect x="758" y="80" width="4.00003" height="678" transform="rotate(90 758 80)" fill="#75739C"/>
<rect x="758" y="84" width="4.00003" height="674" transform="rotate(90 758 84)" fill="#75739C"/>
<rect x="758" y="92" width="4.00003" height="666" transform="rotate(90 758 92)" fill="#75739C"/>
<rect x="758" y="96" width="4.00003" height="662" transform="rotate(90 758 96)" fill="#75739C"/>
<rect x="758" y="100" width="4.00003" height="658" transform="rotate(90 758 100)" fill="#75739C"/>
</svg>
