<svg width="963" height="202" viewBox="0 0 963 202" fill="none" xmlns="http://www.w3.org/2000/svg">
<g clip-path="url(#clip0_348_60197)">
<path d="M811.56 -131.93H807.677H811.56ZM807.677 -128.019H803.794H807.677ZM803.794 -124.108H799.911H803.794ZM799.911 -120.197H796.028H799.911ZM796.028 -116.286H792.145H796.028ZM792.145 -112.375H788.262H792.145ZM788.262 -108.464H784.379H788.262ZM784.379 -104.553H780.496H784.379ZM780.496 -100.642H776.613H780.496ZM776.613 -96.7305H772.73H776.613ZM772.73 -92.8194H768.847H772.73ZM772.73 -88.9083H768.847H772.73ZM520.331 -34.1528H516.448H520.331ZM520.331 -30.2417H516.448H520.331ZM520.331 -26.3306H516.448H520.331ZM520.331 -22.4195H516.448H520.331ZM520.331 -18.5084H516.448H520.331ZM520.331 -14.5973H516.448H520.331ZM520.331 -10.6862H516.448H520.331ZM520.331 -6.77511H516.448H520.331ZM520.331 -2.864H516.448H520.331ZM524.214 1.0471H520.331H524.214ZM524.214 4.95821H520.331H524.214ZM524.214 8.86931H520.331H524.214ZM524.214 12.7804H520.331H524.214ZM524.214 16.6915H520.331H524.214ZM524.214 20.6026H520.331H524.214ZM528.097 24.5137H524.214H528.097ZM528.097 28.4248H524.214H528.097ZM528.097 32.3359H524.214H528.097ZM531.98 36.247H524.214H531.98ZM531.98 40.1581H528.097H531.98ZM531.98 44.0692H528.097H531.98ZM535.863 47.9803H531.98H535.863ZM539.746 51.8914H535.863H539.746ZM543.629 55.8026H539.746H543.629ZM551.395 59.7137H543.629H551.395ZM166.972 59.7137H163.089H166.972ZM551.395 63.6248H547.512H551.395ZM166.972 63.6248H163.089H166.972ZM551.395 67.5358H547.512H551.395ZM170.855 67.5358H166.972H170.855ZM551.395 71.447H547.512H551.395ZM170.855 71.447H166.972H170.855ZM547.512 75.3581H543.629H547.512ZM174.738 75.3581H170.855H174.738ZM547.512 79.2692H543.629H547.512ZM174.738 79.2692H170.855H174.738ZM928.052 83.1803H924.169H928.052ZM543.629 83.1803H539.746H543.629ZM178.621 83.1803H174.738H178.621ZM89.3104 83.1803H62.129H89.3104ZM924.169 87.0914H920.286H924.169ZM543.629 87.0914H539.746H543.629ZM178.621 87.0914H174.738H178.621ZM97.0766 87.0914H89.3104H97.0766ZM77.6613 87.0914H73.7782H77.6613ZM62.129 87.0914H38.8306H62.129ZM920.286 91.0025H916.403H920.286ZM539.746 91.0025H535.863H539.746ZM182.504 91.0025H178.621H182.504ZM108.726 91.0025H97.0766H108.726ZM73.7782 91.0025H69.8951H73.7782ZM38.8306 91.0025H15.5322H38.8306ZM916.403 94.9136H912.52H916.403ZM535.863 94.9136H531.98H535.863ZM186.387 94.9136H182.504H186.387ZM128.141 94.9136H108.726H128.141ZM69.8951 94.9136H66.0121H69.8951ZM15.5322 94.9136H0H15.5322ZM912.52 98.8247H908.637H912.52ZM531.98 98.8247H528.097H531.98ZM186.387 98.8247H182.504H186.387ZM132.024 98.8247H128.141H132.024ZM69.8951 98.8247H66.0121H69.8951ZM908.637 102.736H904.754H908.637ZM528.097 102.736H524.214H528.097ZM190.27 102.736H186.387H190.27ZM147.556 102.736H132.024H147.556ZM904.754 106.647H900.871H904.754ZM524.214 106.647H520.331H524.214ZM198.036 106.647H190.27H198.036ZM159.206 106.647H147.556H159.206ZM900.871 110.558H896.988H900.871ZM524.214 110.558H516.448H524.214ZM201.919 110.558H194.153H201.919ZM182.504 110.558H159.206H182.504ZM896.988 114.469H889.222H896.988ZM516.448 114.469H512.565H516.448ZM264.048 114.469H182.504H264.048ZM889.222 118.38H885.339H889.222ZM512.565 118.38H508.681H512.565ZM271.815 118.38H264.048H271.815ZM885.339 122.291H881.456H885.339ZM508.681 122.291H500.915H508.681ZM275.698 122.291H271.815H275.698ZM881.456 126.202H877.573H881.456ZM500.915 126.202H497.032H500.915ZM283.464 126.202H275.698H283.464ZM877.573 130.114H873.69H877.573ZM497.032 130.114H489.266H497.032ZM287.347 130.114H283.464H287.347ZM877.573 134.025H865.923H877.573ZM489.266 134.025H477.617H489.266ZM291.23 134.025H287.347H291.23ZM877.573 137.936H873.69H877.573ZM865.923 137.936H858.157H865.923ZM477.617 137.936H465.968H477.617ZM295.113 137.936H291.23H295.113ZM881.456 141.847H877.573H881.456ZM858.157 141.847H846.508H858.157ZM465.968 141.847H458.202H465.968ZM302.879 141.847H295.113H302.879ZM885.339 145.758H881.456H885.339ZM846.508 145.758H842.625H846.508ZM582.46 145.758H578.577H582.46ZM458.202 145.758H454.319H458.202ZM310.645 145.758H302.879H310.645ZM893.105 149.669H885.339H893.105ZM842.625 149.669H838.742H842.625ZM582.46 149.669H578.577H582.46ZM473.734 149.669H465.968H473.734ZM454.319 149.669H438.786H454.319ZM314.528 149.669H310.645H314.528ZM963 153.58H959.117H963ZM896.988 153.58H893.105H896.988ZM838.742 153.58H830.976H838.742ZM582.46 153.58H578.577H582.46ZM493.149 153.58H473.734H493.149ZM465.968 153.58H399.956H465.968ZM318.411 153.58H314.528H318.411ZM959.117 157.491H951.351H959.117ZM904.754 157.491H896.988H904.754ZM830.976 157.491H827.093H830.976ZM788.262 157.491H753.314H788.262ZM582.46 157.491H578.577H582.46ZM516.448 157.491H493.149H516.448ZM399.956 157.491H396.073H399.956ZM326.177 157.491H318.411H326.177ZM951.351 161.402H928.052H951.351ZM912.52 161.402H904.754H912.52ZM827.093 161.402H823.21H827.093ZM792.145 161.402H788.262H792.145ZM753.314 161.402H741.665H753.314ZM582.46 161.402H578.577H582.46ZM535.863 161.402H516.448H535.863ZM396.073 161.402H392.19H396.073ZM330.06 161.402H326.177H330.06ZM928.052 165.313H912.52H928.052ZM823.21 165.313H819.327H823.21ZM807.677 165.313H788.262H807.677ZM741.665 165.313H733.899H741.665ZM578.577 165.313H574.694H578.577ZM547.512 165.313H535.863H547.512ZM392.19 165.313H388.306H392.19ZM333.944 165.313H330.06H333.944ZM924.169 169.225H920.286H924.169ZM916.403 169.225H912.52H916.403ZM819.327 169.225H807.677H819.327ZM733.899 169.225H726.133H733.899ZM578.577 169.225H574.694H578.577ZM559.161 169.225H547.512H559.161ZM392.19 169.225H333.944H392.19ZM920.286 173.136H916.403H920.286ZM912.52 173.136H908.637H912.52ZM726.133 173.136H722.25H726.133ZM578.577 173.136H559.161H578.577ZM357.242 173.136H333.944H357.242ZM916.403 177.047H912.52H916.403ZM908.637 177.047H904.754H908.637ZM722.25 177.047H718.367H722.25ZM586.343 177.047H574.694H586.343ZM337.827 177.047H333.944H337.827ZM904.754 180.958H900.871H904.754ZM718.367 180.958H706.718H718.367ZM590.226 180.958H586.343H590.226ZM337.827 180.958H333.944H337.827ZM706.718 184.869H702.835H706.718ZM601.875 184.869H590.226H601.875ZM337.827 184.869H333.944H337.827ZM702.835 188.78H698.952H702.835ZM613.524 188.78H601.875H613.524ZM333.944 188.78H330.06H333.944ZM698.952 192.691H695.069H698.952ZM629.056 192.691H613.524H629.056ZM333.944 192.691H330.06H333.944ZM695.069 196.602H691.185H695.069ZM644.589 196.602H629.056H644.589ZM333.944 196.602H330.06H333.944ZM698.952 200.513H695.069H698.952ZM691.185 200.513H679.536H691.185ZM664.004 200.513H644.589H664.004ZM679.536 204.424H664.004H679.536Z" fill="black"/>
<path fill-rule="evenodd" clip-rule="evenodd" d="M807.677 -130.493H811.56V-133.368H807.677V-130.493ZM803.794 -126.582H807.677V-129.457H803.794V-126.582ZM799.911 -122.671H803.794V-125.546H799.911V-122.671ZM796.028 -118.76H799.911V-121.635H796.028V-118.76ZM792.145 -114.849H796.028V-117.724H792.145V-114.849ZM788.262 -110.938H792.145V-113.812H788.262V-110.938ZM784.379 -107.026H788.262V-109.901H784.379V-107.026ZM780.496 -103.115H784.379V-105.99H780.496V-103.115ZM776.613 -99.2043H780.496V-102.079H776.613V-99.2043ZM772.73 -95.2932H776.613V-98.168H772.73V-95.2932ZM768.847 -91.3821H772.73V-94.2569H768.847V-91.3821ZM768.847 -87.471H772.73V-90.3458H768.847V-87.471ZM516.448 -32.7155H520.331V-35.5903H516.448V-32.7155ZM516.448 -28.8044H520.331V-31.6792H516.448V-28.8044ZM516.448 -24.8933H520.331V-27.7681H516.448V-24.8933ZM516.448 -20.9822H520.331V-23.857H516.448V-20.9822ZM516.448 -17.0711H520.331V-19.9459H516.448V-17.0711ZM516.448 -13.16H520.331V-16.0348H516.448V-13.16ZM516.448 -9.24888H520.331V-12.1237H516.448V-9.24888ZM516.448 -5.33777H520.331V-8.2126H516.448V-5.33777ZM516.448 -1.42667H520.331V-4.3015H516.448V-1.42667ZM520.331 2.48444H524.214V-0.390381H520.331V2.48444ZM520.331 6.39554H524.214V3.52071H520.331V6.39554ZM520.331 10.3066H524.214V7.43182H520.331V10.3066ZM520.331 14.2178H524.214V11.3429H520.331V14.2178ZM520.331 18.1289H524.214V15.254H520.331V18.1289ZM520.331 22.0399H524.214V19.1651H520.331V22.0399ZM524.214 25.9511H528.097V23.0762H524.214V25.9511ZM524.214 29.8622H528.097V26.9873H524.214V29.8622ZM524.214 33.7733H528.097V30.8984H524.214V33.7733ZM524.214 34.8096V37.6844H531.98V34.8096H524.214ZM528.097 41.5955H531.98V38.7206H528.097V41.5955ZM528.097 45.5066H531.98V42.6317H528.097V45.5066ZM531.98 49.4177H535.863V46.5429H531.98V49.4177ZM535.863 53.3288H539.746V50.454H535.863V53.3288ZM539.746 57.2399H543.629V54.3651H539.746V57.2399ZM543.629 61.151H551.395V58.2762H543.629V61.151ZM163.089 61.151H166.972V58.2762H163.089V61.151ZM547.512 65.0621H551.395V62.1873H547.512V65.0621ZM163.089 65.0621H166.972V62.1873H163.089V65.0621ZM547.512 68.9732H551.395V66.0984H547.512V68.9732ZM166.972 68.9732H170.855V66.0984H166.972V68.9732ZM547.512 72.8843H551.395V70.0095H547.512V72.8843ZM166.972 72.8843H170.855V70.0095H166.972V72.8843ZM543.629 76.7954H547.512V73.9206H543.629V76.7954ZM170.855 76.7954H174.738V73.9206H170.855V76.7954ZM543.629 80.7065H547.512V77.8317H543.629V80.7065ZM170.855 80.7065H174.738V77.8317H170.855V80.7065ZM924.169 84.6176H928.052V81.7428H924.169V84.6176ZM539.746 84.6176H543.629V81.7428H539.746V84.6176ZM174.738 84.6176H178.621V81.7428H174.738V84.6176ZM62.129 84.6176H89.3104V81.7428H62.129V84.6176ZM920.286 88.5287H924.169V85.6539H920.286V88.5287ZM539.746 88.5287H543.629V85.6539H539.746V88.5287ZM174.738 88.5287H178.621V85.6539H174.738V88.5287ZM89.3104 88.5287H97.0766V85.6539H89.3104V88.5287ZM73.7782 88.5287H77.6613V85.6539H73.7782V88.5287ZM38.8306 88.5287H62.129V85.6539H38.8306V88.5287ZM916.403 92.4398H920.286V89.565H916.403V92.4398ZM535.863 92.4398H539.746V89.565H535.863V92.4398ZM178.621 92.4398H182.504V89.565H178.621V92.4398ZM97.0766 92.4398H108.726V89.565H97.0766V92.4398ZM69.8951 92.4398H73.7782V89.565H69.8951V92.4398ZM15.5322 92.4398H38.8306V89.565H15.5322V92.4398ZM912.52 96.3509H916.403V93.4761H912.52V96.3509ZM531.98 96.3509H535.863V93.4761H531.98V96.3509ZM182.504 96.3509H186.387V93.4761H182.504V96.3509ZM108.726 96.3509H128.141V93.4761H108.726V96.3509ZM66.0121 96.3509H69.8951V93.4761H66.0121V96.3509ZM0 96.3509H15.5322V93.4761H0V96.3509ZM908.637 100.262H912.52V97.3872H908.637V100.262ZM528.097 100.262H531.98V97.3872H528.097V100.262ZM182.504 100.262H186.387V97.3872H182.504V100.262ZM128.141 100.262H132.024V97.3872H128.141V100.262ZM66.0121 100.262H69.8951V97.3872H66.0121V100.262ZM904.754 104.173H908.637V101.298H904.754V104.173ZM524.214 104.173H528.097V101.298H524.214V104.173ZM186.387 104.173H190.27V101.298H186.387V104.173ZM132.024 104.173H147.556V101.298H132.024V104.173ZM900.871 108.084H904.754V105.209H900.871V108.084ZM520.331 108.084H524.214V105.209H520.331V108.084ZM190.27 108.084H198.036V105.209H190.27V108.084ZM147.556 108.084H159.206V105.209H147.556V108.084ZM896.988 111.995H900.871V109.121H896.988V111.995ZM516.448 109.121V111.995H524.214V109.121H516.448ZM194.153 109.121V111.995H201.919V109.121H194.153ZM159.206 111.995H182.504V109.121H159.206V111.995ZM889.222 115.906H896.988V113.032H889.222V115.906ZM512.565 115.906H516.448V113.032H512.565V115.906ZM182.504 115.906H264.048V113.032H182.504V115.906ZM885.339 119.818H889.222V116.943H885.339V119.818ZM508.681 119.818H512.565V116.943H508.681V119.818ZM264.048 119.818H271.815V116.943H264.048V119.818ZM881.456 123.729H885.339V120.854H881.456V123.729ZM500.915 123.729H508.681V120.854H500.915V123.729ZM271.815 123.729H275.698V120.854H271.815V123.729ZM877.573 127.64H881.456V124.765H877.573V127.64ZM497.032 127.64H500.915V124.765H497.032V127.64ZM275.698 127.64H283.464V124.765H275.698V127.64ZM873.69 131.551H877.573V128.676H873.69V131.551ZM489.266 131.551H497.032V128.676H489.266V131.551ZM283.464 131.551H287.347V128.676H283.464V131.551ZM865.923 135.462H877.573V132.587H865.923V135.462ZM477.617 135.462H489.266V132.587H477.617V135.462ZM287.347 135.462H291.23V132.587H287.347V135.462ZM873.69 139.373H877.573V136.498H873.69V139.373ZM858.157 139.373H865.923V136.498H858.157V139.373ZM465.968 139.373H477.617V136.498H465.968V139.373ZM291.23 139.373H295.113V136.498H291.23V139.373ZM877.573 143.284H881.456V140.409H877.573V143.284ZM846.508 143.284H858.157V140.409H846.508V143.284ZM458.202 143.284H465.968V140.409H458.202V143.284ZM295.113 143.284H302.879V140.409H295.113V143.284ZM881.456 147.195H885.339V144.32H881.456V147.195ZM842.625 147.195H846.508V144.32H842.625V147.195ZM578.577 147.195H582.46V144.32H578.577V147.195ZM454.319 147.195H458.202V144.32H454.319V147.195ZM302.879 147.195H310.645V144.32H302.879V147.195ZM885.339 151.106H893.105V148.232H885.339V151.106ZM838.742 151.106H842.625V148.232H838.742V151.106ZM578.577 151.106H582.46V148.232H578.577V151.106ZM465.968 151.106H473.734V148.232H465.968V151.106ZM438.786 151.106H454.319V148.232H438.786V151.106ZM310.645 151.106H314.528V148.232H310.645V151.106ZM959.117 155.017H963V152.143H959.117V155.017ZM893.105 155.017H896.988V152.143H893.105V155.017ZM830.976 155.017H838.742V152.143H830.976V155.017ZM578.577 155.017H582.46V152.143H578.577V155.017ZM473.734 155.017H493.149V152.143H473.734V155.017ZM399.956 155.017H465.968V152.143H399.956V155.017ZM314.528 155.017H318.411V152.143H314.528V155.017ZM951.351 158.929H959.117V156.054H951.351V158.929ZM896.988 156.054V158.929H904.754V156.054H896.988ZM827.093 158.929H830.976V156.054H827.093V158.929ZM753.314 158.929H788.262V156.054H753.314V158.929ZM578.577 158.929H582.46V156.054H578.577V158.929ZM493.149 158.929H516.448V156.054H493.149V158.929ZM396.073 158.929H399.956V156.054H396.073V158.929ZM318.411 158.929H326.177V156.054H318.411V158.929ZM928.052 162.84H951.351V159.965H928.052V162.84ZM904.754 159.965V162.84H912.52V159.965H904.754ZM823.21 162.84H827.093V159.965H823.21V162.84ZM788.262 162.84H792.145V159.965H788.262V162.84ZM741.665 162.84H753.314V159.965H741.665V162.84ZM578.577 162.84H582.46V159.965H578.577V162.84ZM516.448 162.84H535.863V159.965H516.448V162.84ZM392.19 162.84H396.073V159.965H392.19V162.84ZM326.177 162.84H330.06V159.965H326.177V162.84ZM912.52 166.751H928.052V163.876H912.52V166.751ZM819.327 166.751H823.21V163.876H819.327V166.751ZM788.262 166.751H807.677V163.876H788.262V166.751ZM733.899 166.751H741.665V163.876H733.899V166.751ZM574.694 166.751H578.577V163.876H574.694V166.751ZM535.863 166.751H547.512V163.876H535.863V166.751ZM388.306 166.751H392.19V163.876H388.306V166.751ZM330.06 166.751H333.944V163.876H330.06V166.751ZM920.286 170.662H924.169V167.787H920.286V170.662ZM912.52 170.662H916.403V167.787H912.52V170.662ZM807.677 170.662H819.327V167.787H807.677V170.662ZM726.133 170.662H733.899V167.787H726.133V170.662ZM574.694 170.662H578.577V167.787H574.694V170.662ZM547.512 170.662H559.161V167.787H547.512V170.662ZM333.944 170.662H392.19V167.787H333.944V170.662ZM916.403 174.573H920.286V171.698H916.403V174.573ZM908.637 174.573H912.52V171.698H908.637V174.573ZM722.25 174.573H726.133V171.698H722.25V174.573ZM559.161 174.573H578.577V171.698H559.161V174.573ZM333.944 174.573H357.242V171.698H333.944V174.573ZM912.52 178.484H916.403V175.609H912.52V178.484ZM904.754 178.484H908.637V175.609H904.754V178.484ZM718.367 178.484H722.25V175.609H718.367V178.484ZM574.694 178.484H586.343V175.609H574.694V178.484ZM333.944 178.484H337.827V175.609H333.944V178.484ZM900.871 182.395H904.754V179.52H900.871V182.395ZM706.718 182.395H718.367V179.52H706.718V182.395ZM586.343 182.395H590.226V179.52H586.343V182.395ZM333.944 182.395H337.827V179.52H333.944V182.395ZM702.835 186.306H706.718V183.431H702.835V186.306ZM590.226 186.306H601.875V183.431H590.226V186.306ZM333.944 186.306H337.827V183.431H333.944V186.306ZM698.952 190.217H702.835V187.343H698.952V190.217ZM601.875 190.217H613.524V187.343H601.875V190.217ZM330.06 190.217H333.944V187.343H330.06V190.217ZM695.069 194.129H698.952V191.254H695.069V194.129ZM613.524 194.129H629.056V191.254H613.524V194.129ZM330.06 194.129H333.944V191.254H330.06V194.129ZM691.185 198.04H695.069V195.165H691.185V198.04ZM629.056 198.04H644.589V195.165H629.056V198.04ZM330.06 198.04H333.944V195.165H330.06V198.04ZM695.069 201.951H698.952V199.076H695.069V201.951ZM679.536 201.951H691.185V199.076H679.536V201.951ZM644.589 201.951H664.004V199.076H644.589V201.951ZM664.004 205.862H679.536V202.987H664.004V205.862Z" fill="#4E4C6C"/>
</g>
<defs>
<clipPath id="clip0_348_60197">
<rect width="963" height="202" fill="white" transform="matrix(-1 0 0 1 963 0)"/>
</clipPath>
</defs>
</svg>
