<svg width="1149" height="409" viewBox="0 0 1149 409" fill="none" xmlns="http://www.w3.org/2000/svg">
<path fill-rule="evenodd" clip-rule="evenodd" d="M982.526 0V9.816H979.261V0H982.526ZM985.79 13.088H982.526V9.816H985.79V13.088ZM989.054 16.36H985.79V13.088H989.054V16.36ZM995.582 19.632H989.054V16.36H995.582V19.632ZM998.847 22.904H995.582V19.632H998.847V22.904ZM1002.11 26.176H998.847V22.904H1002.11V26.176ZM1002.11 35.992V26.176H1005.38V35.992H1002.11ZM1002.11 35.992H998.847V39.264H995.582V42.536H992.318V45.808H989.054V62.168H992.318V68.712H995.582V75.256H998.847V88.344H1002.11V98.16H1005.38V107.976H1008.64V114.52H1011.9V117.792H1015.17V124.336H1018.43V134.152H1015.17V143.968H1011.9V157.056H1008.64V163.6H1011.9V157.056H1015.17V143.968H1018.43V134.152H1021.7V127.608H1034.75V124.336H1044.55V121.064H1051.07V117.792H1057.6V114.52H1060.87V111.248H1064.13V104.704H1067.39V88.344H1070.66V78.528H1073.92V71.984H1077.19V65.44H1080.45V62.168H1083.72V58.896H1086.98V55.624H1090.24V52.352H1093.51V49.08H1096.77V45.808H1103.3V42.536H1106.57V39.264H1109.83V35.992H1113.09V26.176H1109.83V35.992H1106.57V39.264H1103.3V42.536H1096.77V45.808H1093.51V49.08H1090.24V52.352H1086.98V55.624H1083.72V58.896H1080.45V62.168H1077.19V65.44H1073.92V71.984H1070.66V78.528H1067.39V88.344H1064.13V104.704H1060.87V111.248H1057.6V114.52H1051.07V117.792H1044.55V121.064H1034.75V124.336H1021.7V121.064H1018.43V117.792H1015.17V114.52H1011.9V107.976H1008.64V98.16H1005.38V88.344H1002.11V75.256H998.847V68.712H1011.9V65.44H1015.17V62.168H1018.43V58.896H1021.7V55.624H1024.96V49.08H1028.22V42.536H1031.49V13.088H1034.75V9.816H1041.28V6.544H1047.81V3.272H1041.28V6.544H1034.75V9.816H1031.49V13.088H1028.22V42.536H1024.96V49.08H1021.7V55.624H1018.43V58.896H1015.17V62.168H1011.9V65.44H995.582V62.168H992.318V45.808H995.582V42.536H998.847V39.264H1002.11V35.992ZM466.781 6.544H463.517V3.272H466.781V6.544ZM470.045 6.544V9.816H466.781V6.544H470.045ZM473.31 9.816V13.088H470.045V9.816H473.31ZM476.574 13.088V16.36H473.31V13.088H476.574ZM479.838 16.36V19.632H476.574V16.36H479.838ZM483.102 19.632V22.904H479.838V19.632H483.102ZM486.366 22.904V26.176H483.102V22.904H486.366ZM489.631 26.176V29.448H486.366V26.176H489.631ZM492.895 29.448V32.72H489.631V29.448H492.895ZM496.159 32.72V35.992H492.895V32.72H496.159ZM496.159 32.72V29.448H499.423V32.72H496.159ZM492.895 26.176H489.631V22.904H492.895V26.176ZM486.366 19.632H483.102V16.36H486.366V19.632ZM479.838 13.088H476.574V9.816H479.838V13.088ZM473.31 6.544V3.272H470.045V6.544H473.31ZM479.838 13.088V16.36H483.102V13.088H479.838ZM486.366 19.632V22.904H489.631V19.632H486.366ZM492.895 26.176V29.448H496.159V26.176H492.895ZM496.159 35.992V39.264H499.423V35.992H496.159ZM473.31 9.816V6.544H476.574V9.816H473.31ZM678.955 3.272V19.632H675.69V3.272H678.955ZM675.69 39.264H672.426V19.632H675.69V39.264ZM678.955 55.624H675.69V49.08H672.426V45.808H675.69V39.264H678.955V55.624ZM669.162 52.352V49.08H672.426V52.352H669.162ZM669.162 52.352H662.633V55.624H656.105V58.896H652.841V62.168H646.312V65.44H639.784V68.712H636.52V71.984H633.256V81.8H629.991V104.704H633.256V81.8H636.52V71.984H639.784V68.712H646.312V65.44H652.841V62.168H656.105V58.896H662.633V55.624H669.162V52.352ZM678.955 55.624V58.896H682.219V62.168H688.747V65.44H692.011V68.712H695.276V71.984H698.54V75.256H701.804V78.528H705.068V81.8H708.332V85.072H711.597V81.8H708.332V78.528H705.068V75.256H701.804V71.984H698.54V68.712H695.276V65.44H692.011V62.168H688.747V58.896H695.276V62.168H727.918V65.44H731.182V68.712H734.446V71.984H737.71V75.256H740.974V71.984H737.71V68.712H734.446V65.44H731.182V62.168H727.918V58.896H695.276V55.624H688.747V58.896H682.219V55.624H678.955ZM505.952 39.264V58.896H502.688V39.264H505.952ZM499.423 62.168V58.896H502.688V62.168H499.423ZM499.423 62.168H496.159V65.44H492.895V71.984H489.631V85.072H492.895V91.616H496.159V117.792H492.895V121.064H489.631V124.336H492.895V121.064H496.159V117.792H499.423V91.616H496.159V85.072H499.423V88.344H502.688V91.616H509.216V94.888H519.009V98.16H522.273V101.432H525.537V104.704H528.801V101.432H525.537V98.16H522.273V94.888H519.009V91.616H509.216V88.344H502.688V85.072H499.423V81.8H496.159V78.528H492.895V71.984H496.159V65.44H499.423V62.168ZM496.159 81.8H492.895V85.072H496.159V81.8ZM417.818 68.712V75.256H414.554V68.712H417.818ZM411.29 78.528V75.256H414.554V78.528H411.29ZM411.29 78.528H408.026V81.8H404.761V94.888H401.497V98.16H394.969V101.432H388.44V104.704H381.912V107.976H378.648V111.248H375.384V114.52H372.119V127.608H368.855V124.336H365.591V121.064H362.327V117.792H359.062V114.52H352.534V111.248H346.006V107.976H342.741V104.704H339.477V107.976H342.741V111.248H346.006V114.52H352.534V117.792H359.062V121.064H362.327V124.336H365.591V127.608H368.855V130.88H372.119V134.152H375.384V160.328H372.119V163.6H368.855V170.144H365.591V173.416H362.327V170.144H359.062V166.872H355.798V163.6H352.534V160.328H349.27V153.784H346.006V150.512H342.741V140.696H339.477V150.512H342.741V153.784H346.006V160.328H349.27V163.6H352.534V166.872H355.798V170.144H359.062V173.416H362.327V176.688H365.591V179.96H368.855V183.232H372.119V186.504H375.384V189.776H378.648V193.048H381.912V196.32H385.176V199.592H388.44V202.864H391.705V206.136H394.969V209.408H398.233V206.136H394.969V202.864H391.705V199.592H388.44V196.32H385.176V193.048H381.912V189.776H378.648V186.504H375.384V183.232H372.119V179.96H368.855V170.144H372.119V163.6H375.384V160.328H378.648V130.88H375.384V114.52H378.648V111.248H381.912V107.976H388.44V104.704H394.969V101.432H401.497V98.16H404.761V94.888H408.026V81.8H411.29V78.528ZM62.0199 101.432H45.6989V98.16H62.0199V101.432ZM65.2841 104.704H62.0199V101.432H65.2841V104.704ZM68.5483 114.52H65.2841V104.704H68.5483V114.52ZM75.0767 160.328H68.5483V114.52H71.8125V157.056H75.0767V160.328ZM78.3409 163.6H75.0767V160.328H78.3409V163.6ZM81.6051 166.872H78.3409V163.6H81.6051V166.872ZM88.1335 170.144H81.6051V166.872H88.1335V170.144ZM91.3977 173.416H88.1335V170.144H91.3977V173.416ZM94.6619 176.688H91.3977V173.416H94.6619V176.688ZM97.9261 189.776H94.6619V176.688H97.9261V189.776ZM101.19 193.048H97.9261V189.776H101.19V193.048ZM104.455 196.32H101.19V193.048H104.455V196.32ZM107.719 199.592H104.455V196.32H107.719V199.592ZM120.776 202.864H107.719V199.592H120.776V202.864ZM146.889 202.864V206.136H130.568V225.768H127.304V206.136H120.776V202.864H146.889ZM124.04 235.584V225.768H127.304V235.584H124.04ZM124.04 235.584H120.776V242.128H117.511V248.672H120.776V242.128H124.04V235.584ZM146.889 202.864V199.592H159.946V202.864H146.889ZM163.21 196.32V199.592H159.946V196.32H163.21ZM166.474 193.048V196.32H163.21V193.048H166.474ZM173.003 189.776V193.048H166.474V189.776H173.003ZM179.531 186.504V189.776H173.003V186.504H179.531ZM186.06 183.232V186.504H179.531V183.232H186.06ZM238.287 183.232H186.06V179.96H238.287V183.232ZM244.815 186.504H238.287V183.232H244.815V186.504ZM248.08 193.048H244.815V186.504H248.08V193.048ZM251.344 199.592H248.08V193.048H251.344V199.592ZM257.872 209.408H254.608V245.4H251.344V199.592H254.608V206.136H257.872V209.408ZM267.665 212.68H257.872V209.408H267.665V212.68ZM280.722 215.952H267.665V212.68H280.722V215.952ZM287.25 219.224H280.722V215.952H287.25V219.224ZM293.778 222.496H287.25V219.224H293.778V222.496ZM303.571 225.768H293.778V222.496H303.571V225.768ZM316.628 229.04H303.571V225.768H316.628V229.04ZM323.156 232.312H316.628V229.04H323.156V232.312ZM329.685 235.584H323.156V232.312H329.685V235.584ZM336.213 238.856H329.685V235.584H336.213V238.856ZM336.213 238.856V242.128H342.741V245.4H349.27V248.672H362.327V245.4H352.534V242.128H349.27V238.856H336.213ZM19.5852 104.704V101.432H45.6989V104.704H19.5852ZM19.5852 104.704H0V107.976H19.5852V104.704ZM714.861 114.52V134.152H711.597V114.52H714.861ZM708.332 147.24V134.152H711.597V147.24H708.332ZM708.332 147.24H705.068V150.512H708.332V147.24ZM701.804 153.784H698.54V150.512H701.804V153.784ZM701.804 157.056V153.784H705.068V157.056H701.804ZM701.804 157.056H698.54V153.784H695.276V157.056H692.011V160.328H688.747V163.6H692.011V166.872H688.747V176.688H685.483V173.416H678.955V176.688H669.162V179.96H665.898V183.232H662.633V189.776H659.369V212.68H662.633V235.584H665.898V212.68H662.633V189.776H665.898V183.232H669.162V179.96H678.955V176.688H685.483V179.96H688.747V176.688H711.597V173.416H718.125V170.144H770.352V166.872H773.616V160.328H776.881V157.056H786.673V160.328H789.938V163.6H799.73V166.872H822.58V163.6H829.108V160.328H822.58V163.6H799.73V160.328H789.938V157.056H786.673V153.784H776.881V157.056H773.616V160.328H770.352V166.872H718.125V170.144H711.597V173.416H692.011V166.872H695.276V163.6H698.54V160.328H701.804V157.056ZM695.276 160.328V157.056H698.54V160.328H695.276ZM695.276 160.328H692.011V163.6H695.276V160.328ZM1008.64 170.144H1005.38V166.872H1008.64V170.144ZM1005.38 176.688H1002.11V173.416H1005.38V176.688ZM1083.72 176.688V179.96H1106.57V183.232H1122.89V186.504H1145.74V189.776H1149V193.048H1135.94V189.776H1116.36V186.504H1096.77V183.232H1073.92V186.504H1067.39V189.776H1057.6V186.504H1064.13V183.232H1070.66V179.96H1073.92V176.688H1083.72ZM1057.6 193.048H1041.28V189.776H1057.6V193.048ZM1041.28 196.32H1038.02V199.592H1024.96V202.864H1015.17V206.136H995.582V209.408H985.79V206.136H989.054V202.864H992.318V199.592H995.582V202.864H1008.64V199.592H1015.17V196.32H1024.96V193.048H1041.28V196.32ZM995.582 193.048H998.847V199.592H995.582V193.048ZM992.318 193.048V199.592H989.054V202.864H982.526V206.136H979.261V209.408H927.034V206.136H972.733V202.864H979.261V199.592H985.79V196.32H989.054V193.048H992.318ZM995.582 189.776V193.048H992.318V189.776H995.582ZM995.582 189.776H998.847V186.504H995.582V189.776ZM927.034 212.68H920.506V209.408H927.034V212.68ZM920.506 215.952H917.241V212.68H920.506V215.952ZM917.241 219.224V215.952H910.713V219.224H904.185V222.496H900.92V225.768H897.656V229.04H894.392V232.312H887.864V235.584H884.599V238.856H878.071V242.128H874.807V245.4H868.278V248.672H848.693V251.944H825.844V245.4H822.58V242.128H819.315V238.856H816.051V235.584H780.145V232.312H770.352V229.04H760.56V225.768H750.767V222.496H744.239V219.224H737.71V215.952H731.182V212.68H727.918V209.408H721.389V206.136H718.125V202.864H711.597V199.592H708.332V196.32H705.068V193.048H701.804V189.776H698.54V183.232H695.276V179.96H692.011V183.232H688.747V186.504H692.011V183.232H695.276V189.776H692.011V193.048H695.276V196.32H698.54V199.592H701.804V202.864H705.068V206.136H708.332V202.864H711.597V206.136H714.861V209.408H718.125V212.68H721.389V215.952H727.918V219.224H731.182V222.496H737.71V225.768H747.503V229.04H744.239V232.312H747.503V229.04H757.295V232.312H754.031V235.584H747.503V238.856H731.182V242.128H711.597V245.4H698.54V248.672H688.747V251.944H675.69V255.216H669.162V258.488H678.955V261.76H665.898V265.032H656.105V261.76H662.633V258.488H656.105V261.76H646.312V265.032H639.784V268.304H629.991V271.576H616.935V274.848H607.142V278.12H590.821V281.392H577.764V278.12H567.972V274.848H564.707V271.576H561.443V268.304H558.179V265.032H554.915V261.76H548.386V258.488H541.858V255.216H538.594V251.944H532.065V248.672H525.537V245.4H515.744V242.128H486.366V245.4H479.838V248.672H473.31V251.944H483.102V248.672H486.366V251.944H512.48V255.216H525.537V251.944H532.065V255.216H528.801V258.488H532.065V261.76H538.594V265.032H541.858V261.76H545.122V265.032H554.915V268.304H548.386V271.576H554.915V274.848H558.179V278.12H561.443V281.392H558.179V287.936H554.915V294.48H551.651V304.296H548.386V310.84H545.122V317.384H541.858V320.656H538.594V323.928H532.065V327.2H525.537V330.472H522.273V333.744H509.216V330.472H499.423V327.2H492.895V323.928H486.366V320.656H479.838V317.384H473.31V314.112H466.781V310.84H460.253V307.568H453.724V304.296H447.196V301.024H443.932V294.48H447.196V287.936H450.46V278.12H453.724V268.304H456.989V265.032H460.253V261.76H470.045V258.488H476.574V255.216H470.045V251.944H460.253V248.672H456.989V245.4H453.724V242.128H450.46V238.856H443.932V235.584H440.668V232.312H437.403V229.04H427.611V225.768H421.082V222.496H414.554V219.224H411.29V215.952H408.026V212.68H404.761V209.408H401.497V212.68H398.233V215.952H401.497V219.224H404.761V222.496H408.026V229.04H404.761V232.312H401.497V235.584H394.969V238.856H391.705V242.128H385.176V245.4H378.648V248.672H368.855V251.944H355.798V255.216H368.855V258.488H372.119V261.76H375.384V265.032H378.648V268.304H381.912V271.576H385.176V274.848H388.44V278.12H391.705V281.392H394.969V284.664H398.233V287.936H401.497V291.208H408.026V294.48H414.554V297.752H421.082V301.024H427.611V304.296H443.932V307.568H453.724V310.84H460.253V314.112H466.781V317.384H473.31V320.656H479.838V323.928H486.366V327.2H492.895V330.472H499.423V333.744H509.216V337.016H515.744V340.288H519.009V343.56H525.537V346.832H532.065V350.104H541.858V353.376H545.122V356.648H548.386V359.92H551.651V363.192H554.915V366.464H558.179V369.736H561.443V373.008H564.707V376.28H567.972V373.008H564.707V369.736H561.443V366.464H558.179V363.192H554.915V359.92H551.651V356.648H548.386V353.376H545.122V350.104H541.858V346.832H532.065V343.56H525.537V340.288H519.009V337.016H522.273V333.744H525.537V330.472H532.065V327.2H538.594V323.928H541.858V320.656H545.122V317.384H548.386V310.84H551.651V304.296H554.915V294.48H558.179V287.936H561.443V281.392H564.707V284.664H567.972V281.392H577.764V284.664H571.236V287.936H577.764V284.664H590.821V287.936H607.142V284.664H620.199V281.392H626.727V278.12H620.199V274.848H633.256V271.576H643.048V268.304H652.841V271.576H656.105V268.304H665.898V265.032H678.955V261.76H688.747V258.488H701.804V255.216H708.332V251.944H698.54V248.672H714.861V251.944H727.918V248.672H714.861V245.4H734.446V248.672H806.258V251.944H812.787V255.216H816.051V258.488H819.315V261.76H829.108V265.032H865.014V261.76H848.693V258.488H819.315V251.944H822.58V255.216H868.278V258.488H874.807V255.216H878.071V251.944H881.335V248.672H884.599V245.4H887.864V242.128H891.128V238.856H887.864V235.584H894.392V232.312H900.92V229.04H904.185V232.312H907.449V229.04H910.713V225.768H917.241V222.496H923.77V219.224H927.034V215.952H933.562V212.68H927.034V215.952H920.506V219.224H917.241ZM910.713 222.496V219.224H917.241V222.496H910.713ZM907.449 225.768H904.185V229.04H907.449V225.768ZM910.713 222.496H907.449V225.768H910.713V222.496ZM884.599 242.128V238.856H887.864V242.128H884.599ZM881.335 245.4H874.807V248.672H871.543V251.944H868.278V255.216H871.543V251.944H874.807V248.672H881.335V245.4ZM884.599 242.128H881.335V245.4H884.599V242.128ZM816.051 248.672H819.315V251.944H816.051V248.672ZM812.787 245.4H816.051V248.672H812.787V245.4ZM757.295 242.128H767.088V238.856H780.145V242.128H812.787V245.4H757.295V242.128ZM763.824 235.584V232.312H757.295V235.584H763.824ZM763.824 235.584H767.088V238.856H763.824V235.584ZM757.295 242.128V238.856H750.767V242.128H734.446V245.4H750.767V242.128H757.295ZM688.747 255.216V251.944H698.54V255.216H688.747ZM688.747 255.216H678.955V258.488H688.747V255.216ZM656.105 268.304V265.032H652.841V268.304H656.105ZM607.142 281.392V278.12H620.199V281.392H607.142ZM607.142 281.392H590.821V284.664H607.142V281.392ZM564.707 278.12V274.848H561.443V271.576H558.179V268.304H554.915V271.576H558.179V274.848H561.443V278.12H564.707ZM564.707 278.12H567.972V281.392H564.707V278.12ZM427.611 301.024H440.668V294.48H443.932V287.936H447.196V278.12H450.46V268.304H453.724V265.032H456.989V261.76H460.253V258.488H470.045V255.216H460.253V251.944H456.989V248.672H453.724V245.4H450.46V242.128H443.932V238.856H440.668V235.584H437.403V232.312H427.611V229.04H421.082V225.768H414.554V222.496H411.29V219.224H408.026V215.952H404.761V212.68H401.497V215.952H404.761V219.224H408.026V222.496H411.29V232.312H408.026V235.584H404.761V238.856H398.233V242.128H394.969V245.4H388.44V248.672H381.912V251.944H368.855V255.216H372.119V258.488H375.384V261.76H378.648V265.032H381.912V268.304H385.176V271.576H388.44V274.848H391.705V278.12H394.969V281.392H398.233V284.664H401.497V287.936H408.026V291.208H414.554V294.48H421.082V297.752H427.611V301.024ZM375.384 258.488H378.648V255.216H375.384V258.488ZM408.026 238.856V242.128H404.761V238.856H408.026ZM408.026 238.856V235.584H411.29V232.312H414.554V229.04H421.082V232.312H417.818V235.584H414.554V238.856H408.026ZM398.233 242.128V245.4H401.497V242.128H398.233ZM437.403 238.856H434.139V235.584H437.403V238.856ZM440.668 242.128V245.4H443.932V242.128H440.668ZM437.403 238.856V242.128H440.668V238.856H437.403ZM450.46 248.672H447.196V245.4H450.46V248.672ZM453.724 251.944H456.989V255.216H453.724V251.944ZM447.196 258.488V255.216H453.724V258.488H447.196ZM447.196 258.488H443.932V261.76H440.668V265.032H434.139V268.304H427.611V271.576H408.026V268.304H398.233V265.032H391.705V261.76H388.44V258.488H385.176V255.216H381.912V258.488H385.176V261.76H388.44V265.032H391.705V268.304H398.233V271.576H408.026V274.848H427.611V271.576H434.139V268.304H440.668V265.032H443.932V261.76H447.196V258.488ZM453.724 251.944V248.672H450.46V251.944H453.724ZM456.989 255.216V258.488H460.253V255.216H456.989ZM427.611 232.312H424.347V235.584H427.611V232.312ZM538.594 258.488V255.216H532.065V258.488H538.594ZM538.594 258.488H541.858V261.76H538.594V258.488ZM515.744 248.672V245.4H486.366V248.672H515.744ZM515.744 248.672H525.537V251.944H515.744V248.672ZM705.068 199.592V196.32H701.804V193.048H698.54V189.776H695.276V193.048H698.54V196.32H701.804V199.592H705.068ZM705.068 199.592H708.332V202.864H705.068V199.592ZM1041.28 196.32V199.592H1057.6V196.32H1067.39V193.048H1073.92V189.776H1083.72V186.504H1073.92V189.776H1067.39V193.048H1057.6V196.32H1041.28ZM1002.11 183.232H998.847V179.96H1002.11V183.232ZM1096.77 199.592V206.136H1093.51V199.592H1096.77ZM1100.04 212.68H1096.77V206.136H1100.04V212.68ZM1103.3 219.224H1100.04V212.68H1103.3V219.224ZM1106.57 225.768H1103.3V219.224H1106.57V225.768ZM1109.83 232.312H1106.57V225.768H1109.83V232.312ZM1113.09 238.856H1109.83V232.312H1113.09V238.856ZM1116.36 245.4H1113.09V238.856H1116.36V245.4ZM1119.62 251.944H1116.36V245.4H1119.62V251.944ZM1122.89 258.488H1119.62V251.944H1122.89V258.488ZM1122.89 281.392V258.488H1126.15V281.392H1122.89ZM1122.89 281.392H1106.57V284.664H1093.51V281.392H1090.24V278.12H1086.98V274.848H1083.72V271.576H1080.45V268.304H1077.19V265.032H1073.92V261.76H1070.66V258.488H1064.13V255.216H1057.6V251.944H1038.02V255.216H1034.75V258.488H1031.49V265.032H1028.22V261.76H1021.7V258.488H1015.17V255.216H1005.38V251.944H998.847V248.672H992.318V245.4H985.79V242.128H979.261V238.856H975.997V232.312H972.733V225.768H969.469V222.496H966.205V219.224H962.94V212.68H959.676V219.224H962.94V222.496H966.205V225.768H969.469V232.312H972.733V238.856H975.997V242.128H979.261V245.4H985.79V248.672H992.318V251.944H998.847V255.216H1005.38V258.488H1015.17V261.76H1021.7V265.032H1028.22V268.304H1031.49V284.664H1034.75V297.752H1038.02V304.296H1041.28V314.112H1044.55V337.016H1041.28V343.56H1038.02V350.104H1034.75V373.008H1038.02V376.28H1041.28V373.008H1038.02V350.104H1041.28V343.56H1044.55V337.016H1047.81V314.112H1044.55V304.296H1041.28V297.752H1038.02V284.664H1034.75V258.488H1038.02V255.216H1057.6V258.488H1064.13V261.76H1070.66V265.032H1073.92V268.304H1077.19V271.576H1080.45V274.848H1083.72V278.12H1086.98V281.392H1090.24V284.664H1093.51V287.936H1106.57V284.664H1122.89V281.392ZM874.807 281.392V297.752H871.543V281.392H874.807ZM874.807 327.2V297.752H878.071V327.2H874.807ZM874.807 327.2H871.543V337.016H868.278V353.376H865.014V363.192H861.75V369.736H858.486V373.008H855.222V376.28H858.486V373.008H861.75V369.736H865.014V363.192H868.278V353.376H871.543V337.016H874.807V327.2ZM773.616 359.92V363.192H747.503V359.92H773.616ZM734.446 366.464V363.192H747.503V366.464H734.446ZM734.446 366.464H731.182V369.736H727.918V373.008H724.653V376.28H727.918V373.008H731.182V369.736H734.446V366.464ZM789.938 366.464H773.616V363.192H789.938V366.464ZM802.994 369.736H789.938V366.464H802.994V369.736ZM812.787 373.008H802.994V369.736H812.787V373.008ZM812.787 373.008V376.28H816.051V373.008H812.787ZM584.293 395.912H581.028V392.64H584.293V395.912ZM587.557 399.184H584.293V395.912H587.557V399.184ZM590.821 402.456H587.557V399.184H590.821V402.456ZM594.085 405.728H590.821V402.456H594.085V405.728ZM594.085 405.728V409H597.349V405.728H594.085ZM718.125 395.912H714.861V392.64H718.125V395.912ZM1051.07 392.64V409H1047.81V392.64H1051.07ZM714.861 395.912V409H711.597V395.912H714.861Z" fill="#4E4C6C"/>
</svg>
