<svg width="216" height="983" viewBox="0 0 216 983" fill="none" xmlns="http://www.w3.org/2000/svg">
<path fill-rule="evenodd" clip-rule="evenodd" d="M356.072 125.21L356.072 121.084L359.146 121.084L359.146 125.21L356.072 125.21ZM351.89 129.337L351.89 125.21L354.964 125.21L354.964 129.337L351.89 129.337ZM347.707 133.463L347.707 129.337L350.782 129.337L350.782 133.463L347.707 133.463ZM343.525 137.59L343.525 133.463L346.599 133.463L346.599 137.59L343.525 137.59ZM339.343 141.716L339.343 137.59L342.417 137.59L342.417 141.716L339.343 141.716ZM335.161 145.843L335.161 141.716L338.235 141.716L338.235 145.843L335.161 145.843ZM330.979 149.969L330.979 145.843L334.053 145.843L334.053 149.969L330.979 149.969ZM326.797 154.096L326.797 149.969L329.871 149.969L329.871 154.096L326.797 154.096ZM322.614 158.223L322.614 154.096L325.688 154.096L325.688 158.223L322.614 158.223ZM318.432 162.349L318.432 158.223L321.506 158.223L321.506 162.349L318.432 162.349ZM314.25 166.476L314.25 162.349L317.324 162.349L317.324 166.476L314.25 166.476ZM310.068 166.476L310.068 162.349L313.142 162.349L313.142 166.476L310.068 166.476ZM251.518 434.701L251.518 430.574L254.592 430.574L254.592 434.701L251.518 434.701ZM247.335 434.701L247.335 430.574L250.409 430.574L250.409 434.701L247.335 434.701ZM243.153 434.701L243.153 430.574L246.227 430.574L246.227 434.701L243.153 434.701ZM238.971 434.701L238.971 430.574L242.045 430.574L242.045 434.701L238.971 434.701ZM234.789 434.701L234.789 430.574L237.863 430.574L237.863 434.701L234.789 434.701ZM230.607 434.701L230.607 430.574L233.681 430.574L233.681 434.701L230.607 434.701ZM226.424 434.701L226.424 430.574L229.499 430.574L229.499 434.701L226.424 434.701ZM222.242 434.701L222.242 430.574L225.316 430.574L225.316 434.701L222.242 434.701ZM218.06 434.701L218.06 430.574L221.134 430.574L221.134 434.701L218.06 434.701ZM213.878 430.574L213.878 426.448L216.952 426.448L216.952 430.574L213.878 430.574ZM209.696 430.574L209.696 426.448L212.77 426.448L212.77 430.574L209.696 430.574ZM205.514 430.574L205.514 426.448L208.588 426.448L208.588 430.574L205.514 430.574ZM201.331 430.574L201.331 426.448L204.406 426.448L204.406 430.574L201.331 430.574ZM197.149 430.574L197.149 426.448L200.223 426.448L200.223 430.574L197.149 430.574ZM192.967 430.574L192.967 426.448L196.041 426.448L196.041 430.574L192.967 430.574ZM188.785 426.448L188.785 422.321L191.859 422.321L191.859 426.448L188.785 426.448ZM184.603 426.448L184.603 422.321L187.677 422.321L187.677 426.448L184.603 426.448ZM180.421 426.448L180.421 422.321L183.495 422.321L183.495 426.448L180.421 426.448ZM179.313 426.448L176.238 426.448L176.238 418.195L179.313 418.195L179.313 426.448ZM172.056 422.321L172.056 418.195L175.13 418.195L175.13 422.321L172.056 422.321ZM167.874 422.321L167.874 418.195L170.948 418.195L170.948 422.321L167.874 422.321ZM163.692 418.195L163.692 414.068L166.766 414.068L166.766 418.195L163.692 418.195ZM159.51 414.068L159.51 409.942L162.584 409.942L162.584 414.068L159.51 414.068ZM155.328 409.942L155.328 405.815L158.402 405.815L158.402 409.942L155.328 409.942ZM151.145 405.815L151.145 397.562L154.219 397.562L154.219 405.815L151.145 405.815ZM151.145 810.216L151.145 806.09L154.219 806.09L154.219 810.216L151.145 810.216ZM146.963 401.689L146.963 397.562L150.037 397.562L150.037 401.689L146.963 401.689ZM146.963 810.216L146.963 806.09L150.037 806.09L150.037 810.216L146.963 810.216ZM142.781 401.689L142.781 397.562L145.855 397.562L145.855 401.689L142.781 401.689ZM142.781 806.09L142.781 801.963L145.855 801.963L145.855 806.09L142.781 806.09ZM138.599 401.689L138.599 397.562L141.673 397.562L141.673 401.689L138.599 401.689ZM138.599 806.09L138.599 801.963L141.673 801.963L141.673 806.09L138.599 806.09ZM134.417 405.815L134.417 401.689L137.491 401.689L137.491 405.815L134.417 405.815ZM134.417 801.963L134.417 797.837L137.491 797.837L137.491 801.963L134.417 801.963ZM130.235 405.815L130.235 401.689L133.309 401.689L133.309 405.815L130.235 405.815ZM130.235 801.963L130.235 797.837L133.309 797.837L133.309 801.963L130.235 801.963ZM126.052 1.41386L126.052 -2.71268L129.126 -2.71268L129.126 1.41386L126.052 1.41386ZM126.052 409.942L126.052 405.815L129.126 405.815L129.126 409.942L126.052 409.942ZM126.052 797.837L126.052 793.71L129.126 793.71L129.126 797.837L126.052 797.837ZM126.052 917.506L126.052 888.621L129.126 888.621L129.126 917.506L126.052 917.506ZM121.87 5.5404L121.87 1.41386L124.944 1.41386L124.944 5.5404L121.87 5.5404ZM121.87 409.942L121.87 405.815L124.944 405.815L124.944 409.942L121.87 409.942ZM121.87 797.837L121.87 793.71L124.944 793.71L124.944 797.837L121.87 797.837ZM121.87 888.621L121.87 880.368L124.944 880.368L124.944 888.621L121.87 888.621ZM121.87 905.127L121.87 901L124.944 901L124.944 905.127L121.87 905.127ZM121.87 942.266L121.87 917.506L124.944 917.506L124.944 942.266L121.87 942.266ZM117.688 9.66694L117.688 5.5404L120.762 5.5404L120.762 9.66694L117.688 9.66694ZM117.688 414.068L117.688 409.942L120.762 409.942L120.762 414.068L117.688 414.068ZM117.688 793.71L117.688 789.584L120.762 789.584L120.762 793.71L117.688 793.71ZM117.688 880.368L117.688 867.988L120.762 867.988L120.762 880.368L117.688 880.368ZM117.688 909.253L117.688 905.127L120.762 905.127L120.762 909.253L117.688 909.253ZM117.688 967.025L117.688 942.266L120.762 942.266L120.762 967.025L117.688 967.025ZM113.506 13.7935L113.506 9.66694L116.58 9.66694L116.58 13.7935L113.506 13.7935ZM113.506 418.195L113.506 414.068L116.58 414.068L116.58 418.195L113.506 418.195ZM113.506 789.584L113.506 785.457L116.58 785.457L116.58 789.584L113.506 789.584ZM113.506 867.988L113.506 847.355L116.58 847.355L116.58 867.988L113.506 867.988ZM113.506 913.38L113.506 909.253L116.58 909.253L116.58 913.38L113.506 913.38ZM113.506 983.531L113.506 967.025L116.58 967.025L116.58 983.531L113.506 983.531ZM109.324 17.92L109.324 13.7935L112.398 13.7935L112.398 17.92L109.324 17.92ZM109.324 422.321L109.324 418.195L112.398 418.195L112.398 422.321L109.324 422.321ZM109.324 789.584L109.324 785.457L112.398 785.457L112.398 789.584L109.324 789.584ZM109.324 847.355L109.324 843.229L112.398 843.229L112.398 847.355L109.324 847.355ZM109.324 913.38L109.324 909.253L112.398 909.253L112.398 913.38L109.324 913.38ZM105.142 22.0466L105.142 17.92L108.216 17.92L108.216 22.0466L105.142 22.0466ZM105.142 426.448L105.142 422.321L108.216 422.321L108.216 426.448L105.142 426.448ZM105.142 785.457L105.142 781.33L108.216 781.33L108.216 785.457L105.142 785.457ZM105.142 843.229L105.142 826.723L108.216 826.723L108.216 843.229L105.142 843.229ZM100.959 26.1731L100.959 22.0466L104.033 22.0466L104.033 26.1731L100.959 26.1731ZM100.959 430.574L100.959 426.448L104.033 426.448L104.033 430.574L100.959 430.574ZM100.959 781.33L100.959 773.077L104.033 773.077L104.033 781.33L100.959 781.33ZM100.959 826.723L100.959 814.343L104.033 814.343L104.033 826.723L100.959 826.723ZM96.7772 30.2997L96.7772 26.1731L99.8513 26.1731L99.8513 30.2997L96.7772 30.2997ZM99.8513 434.701L96.7772 434.701L96.7772 426.448L99.8513 426.448L99.8513 434.701ZM99.8513 777.204L96.7772 777.204L96.7772 768.951L99.8513 768.951L99.8513 777.204ZM96.7772 814.343L96.7772 789.584L99.8513 789.584L99.8513 814.343L96.7772 814.343ZM92.5951 38.5527L92.5951 30.2997L95.6691 30.2997L95.6691 38.5527L92.5951 38.5527ZM92.595 438.827L92.595 434.701L95.6691 434.701L95.6691 438.827L92.595 438.827ZM92.595 789.584L92.595 702.926L95.6691 702.926L95.6691 789.584L92.595 789.584ZM88.4129 42.6793L88.4129 38.5527L91.4869 38.5527L91.4869 42.6793L88.4129 42.6793ZM88.4129 442.954L88.4129 438.827L91.4869 438.827L91.4869 442.954L88.4129 442.954ZM88.4128 702.926L88.4128 694.673L91.4869 694.673L91.4869 702.926L88.4128 702.926ZM84.2307 46.8058L84.2307 42.6793L87.3048 42.6793L87.3048 46.8058L84.2307 46.8058ZM84.2307 451.207L84.2307 442.954L87.3048 442.954L87.3048 451.207L84.2307 451.207ZM84.2307 694.673L84.2307 690.547L87.3047 690.547L87.3047 694.673L84.2307 694.673ZM80.0485 50.9324L80.0485 46.8058L83.1226 46.8058L83.1226 50.9324L80.0485 50.9324ZM80.0485 455.334L80.0485 451.207L83.1226 451.207L83.1226 455.334L80.0485 455.334ZM80.0485 690.547L80.0485 682.294L83.1226 682.294L83.1226 690.547L80.0485 690.547ZM75.8664 55.0589L75.8664 50.9324L78.9404 50.9324L78.9404 55.0589L75.8664 55.0589ZM75.8663 463.587L75.8663 455.334L78.9404 455.334L78.9404 463.587L75.8663 463.587ZM75.8663 682.294L75.8663 678.167L78.9404 678.167L78.9404 682.294L75.8663 682.294ZM71.6842 63.312L71.6842 50.9324L74.7583 50.9324L74.7583 63.312L71.6842 63.312ZM71.6842 475.966L71.6842 463.587L74.7582 463.587L74.7582 475.966L71.6842 475.966ZM71.6841 678.167L71.6841 674.04L74.7582 674.04L74.7582 678.167L71.6841 678.167ZM67.502 55.0589L67.502 50.9324L70.5761 50.9324L70.5761 55.0589L67.502 55.0589ZM67.502 71.5651L67.502 63.312L70.5761 63.312L70.5761 71.5651L67.502 71.5651ZM67.502 488.346L67.502 475.966L70.5761 475.966L70.5761 488.346L67.502 488.346ZM67.502 674.04L67.502 669.914L70.5761 669.914L70.5761 674.04L67.502 674.04ZM63.3199 50.9324L63.3199 46.8058L66.3939 46.8058L66.3939 50.9324L63.3199 50.9324ZM63.3198 83.9447L63.3198 71.5651L66.3939 71.5651L66.3939 83.9447L63.3198 83.9447ZM63.3198 496.599L63.3198 488.346L66.3939 488.346L66.3939 496.599L63.3198 496.599ZM63.3198 669.914L63.3198 661.661L66.3939 661.661L66.3939 669.914L63.3198 669.914ZM59.1377 46.8058L59.1377 42.6793L62.2118 42.6793L62.2118 46.8058L59.1377 46.8058ZM59.1377 88.0713L59.1377 83.9447L62.2118 83.9447L62.2118 88.0713L59.1377 88.0713ZM59.1377 368.676L59.1377 364.55L62.2117 364.55L62.2117 368.676L59.1377 368.676ZM59.1377 500.726L59.1377 496.599L62.2117 496.599L62.2117 500.726L59.1377 500.726ZM59.1377 661.661L59.1377 653.408L62.2117 653.408L62.2117 661.661L59.1377 661.661ZM54.9555 42.6793L54.9555 34.4262L58.0296 34.4262L58.0296 42.6793L54.9555 42.6793ZM54.9555 92.1978L54.9555 88.0713L58.0296 88.0713L58.0296 92.1978L54.9555 92.1978ZM54.9555 368.676L54.9555 364.55L58.0296 364.55L58.0296 368.676L54.9555 368.676ZM54.9555 488.346L54.9555 480.093L58.0296 480.093L58.0296 488.346L54.9555 488.346ZM54.9555 517.232L54.9555 500.726L58.0296 500.726L58.0296 517.232L54.9555 517.232ZM54.9555 653.408L54.9555 649.281L58.0296 649.281L58.0296 653.408L54.9555 653.408ZM50.7733 -35.725L50.7733 -39.8516L53.8474 -39.8516L53.8474 -35.725L50.7733 -35.725ZM50.7733 34.4262L50.7733 30.2997L53.8474 30.2997L53.8474 34.4262L50.7733 34.4262ZM50.7733 100.451L50.7733 92.1978L53.8474 92.1978L53.8474 100.451L50.7733 100.451ZM50.7733 368.676L50.7733 364.55L53.8474 364.55L53.8474 368.676L50.7733 368.676ZM50.7733 480.093L50.7733 459.46L53.8474 459.46L53.8474 480.093L50.7733 480.093ZM50.7733 558.497L50.7733 488.346L53.8474 488.346L53.8474 558.497L50.7733 558.497ZM50.7733 649.281L50.7733 645.155L53.8474 645.155L53.8474 649.281L50.7733 649.281ZM46.5912 -27.4719L46.5912 -35.725L49.6653 -35.725L49.6653 -27.4719L46.5912 -27.4719ZM49.6652 30.2997L46.5912 30.2997L46.5912 22.0466L49.6652 22.0466L49.6652 30.2997ZM46.5911 104.577L46.5911 100.451L49.6652 100.451L49.6652 104.577L46.5911 104.577ZM46.5911 182.982L46.5911 145.843L49.6652 145.843L49.6652 182.982L46.5911 182.982ZM46.5911 368.676L46.5911 364.55L49.6652 364.55L49.6652 368.676L46.5911 368.676ZM46.5911 459.46L46.5911 434.701L49.6652 434.701L49.6652 459.46L46.5911 459.46ZM46.5911 562.624L46.5911 558.497L49.6652 558.497L49.6652 562.624L46.5911 562.624ZM46.5911 645.155L46.5911 636.901L49.6652 636.901L49.6652 645.155L46.5911 645.155ZM42.409 -2.71269L42.409 -27.4719L45.4831 -27.4719L45.4831 -2.71269L42.409 -2.71269ZM45.4831 22.0466L42.409 22.0466L42.409 13.7935L45.4831 13.7935L45.4831 22.0466ZM42.409 108.704L42.409 104.577L45.4831 104.577L45.4831 108.704L42.409 108.704ZM42.409 145.843L42.409 141.716L45.4831 141.716L45.4831 145.843L42.409 145.843ZM42.409 195.361L42.409 182.982L45.4831 182.982L45.4831 195.361L42.409 195.361ZM42.409 368.676L42.409 364.55L45.483 364.55L45.483 368.676L42.409 368.676ZM42.409 434.701L42.409 414.068L45.483 414.068L45.483 434.701L42.409 434.701ZM42.409 566.75L42.409 562.624L45.483 562.624L45.483 566.75L42.409 566.75ZM42.409 636.901L42.409 632.775L45.483 632.775L45.483 636.901L42.409 636.901ZM38.2268 13.7935L38.2268 -2.71269L41.3009 -2.71269L41.3009 13.7935L38.2268 13.7935ZM38.2268 112.831L38.2268 108.704L41.3009 108.704L41.3009 112.831L38.2268 112.831ZM38.2268 145.843L38.2268 125.21L41.3009 125.21L41.3009 145.843L38.2268 145.843ZM38.2268 203.614L38.2268 195.361L41.3009 195.361L41.3009 203.614L38.2268 203.614ZM38.2268 372.803L38.2268 368.676L41.3009 368.676L41.3009 372.803L38.2268 372.803ZM38.2268 414.068L38.2268 401.689L41.3009 401.689L41.3009 414.068L38.2268 414.068ZM38.2268 570.877L38.2268 566.75L41.3009 566.75L41.3009 570.877L38.2268 570.877ZM38.2268 632.775L38.2268 628.648L41.3009 628.648L41.3009 632.775L38.2268 632.775ZM34.0446 5.54039L34.0446 1.41385L37.1187 1.41385L37.1187 5.5404L34.0446 5.54039ZM34.0446 13.7935L34.0446 9.66694L37.1187 9.66694L37.1187 13.7935L34.0446 13.7935ZM34.0446 125.21L34.0446 112.831L37.1187 112.831L37.1187 125.21L34.0446 125.21ZM34.0446 211.868L34.0446 203.614L37.1187 203.614L37.1187 211.868L34.0446 211.868ZM34.0446 372.803L34.0446 368.676L37.1187 368.676L37.1187 372.803L34.0446 372.803ZM34.0446 401.689L34.0446 389.309L37.1187 389.309L37.1187 401.689L34.0446 401.689ZM34.0446 628.648L34.0446 566.75L37.1187 566.75L37.1187 628.648L34.0446 628.648ZM29.8625 9.66694L29.8625 5.54039L32.9366 5.54039L32.9366 9.66694L29.8625 9.66694ZM29.8625 17.92L29.8625 13.7935L32.9366 13.7935L32.9366 17.92L29.8625 17.92ZM29.8625 215.994L29.8625 211.868L32.9366 211.868L32.9366 215.994L29.8625 215.994ZM29.8625 389.309L29.8625 368.676L32.9366 368.676L32.9366 389.309L29.8625 389.309ZM29.8625 628.648L29.8625 603.889L32.9366 603.889L32.9366 628.648L29.8625 628.648ZM25.6803 13.7935L25.6803 9.66694L28.7544 9.66694L28.7544 13.7935L25.6803 13.7935ZM25.6803 22.0466L25.6803 17.92L28.7544 17.92L28.7544 22.0466L25.6803 22.0466ZM25.6803 220.121L25.6803 215.994L28.7544 215.994L28.7544 220.121L25.6803 220.121ZM25.6803 372.803L25.6803 360.423L28.7544 360.423L28.7544 372.803L25.6803 372.803ZM25.6803 628.648L25.6803 624.522L28.7544 624.522L28.7544 628.648L25.6803 628.648ZM21.4982 26.1731L21.4982 22.0466L24.5722 22.0466L24.5722 26.1731L21.4982 26.1731ZM21.4982 232.5L21.4982 220.121L24.5722 220.121L24.5722 232.5L21.4982 232.5ZM21.4982 360.423L21.4982 356.297L24.5722 356.297L24.5722 360.423L21.4982 360.423ZM21.4981 628.648L21.4981 624.522L24.5722 624.522L24.5722 628.648L21.4981 628.648ZM17.316 236.627L17.316 232.5L20.39 232.5L20.39 236.627L17.316 236.627ZM17.316 356.297L17.316 343.917L20.39 343.917L20.39 356.297L17.316 356.297ZM17.3159 628.648L17.3159 624.522L20.39 624.522L20.39 628.648L17.3159 628.648ZM13.1338 240.753L13.1338 236.627L16.2079 236.627L16.2079 240.753L13.1338 240.753ZM13.1338 343.917L13.1338 331.537L16.2079 331.537L16.2079 343.917L13.1338 343.917ZM13.1338 632.775L13.1338 628.648L16.2079 628.648L16.2079 632.775L13.1338 632.775ZM8.95162 244.88L8.95162 240.753L12.0257 240.753L12.0257 244.88L8.95162 244.88ZM8.95161 331.537L8.95161 315.031L12.0257 315.031L12.0257 331.537L8.95161 331.537ZM8.9516 632.775L8.9516 628.648L12.0257 628.648L12.0257 632.775L8.9516 632.775ZM4.76946 249.006L4.76946 244.88L7.84352 244.88L7.84352 249.006L4.76946 249.006ZM4.76945 315.031L4.76946 298.525L7.84352 298.525L7.84352 315.031L4.76945 315.031ZM4.76944 632.775L4.76944 628.648L7.84351 628.648L7.84351 632.775L4.76944 632.775ZM0.587268 244.88L0.587268 240.753L3.66136 240.753L3.66136 244.88L0.587268 244.88ZM0.587267 261.386L0.587268 249.006L3.66136 249.006L3.66136 261.386L0.587267 261.386ZM0.587265 298.525L0.587266 277.892L3.66136 277.892L3.66136 298.525L0.587265 298.525ZM-3.59489 277.892L-3.59489 261.386L-0.520826 261.386L-0.520827 277.892L-3.59489 277.892Z" fill="#4E4C6C"/>
</svg>
