<svg width="238" height="238" viewBox="0 0 238 238" fill="none" xmlns="http://www.w3.org/2000/svg">
<rect x="238" width="238" height="238" transform="rotate(90 238 0)" fill="#7D89DA"/>
<g clip-path="url(#clip0_357_15888)">
<path d="M59.2539 -85.9502H61.3209H59.2539ZM61.3209 -83.8578H63.3879H61.3209ZM63.3879 -81.7653H65.4549H63.3879ZM65.4549 -79.6729H67.5219H65.4549ZM67.5219 -77.5804H69.5889H67.5219ZM69.5889 -75.488H71.6559H69.5889ZM71.6559 -73.3955H73.7229H71.6559ZM73.7229 -71.3031H75.7899H73.7229ZM75.7899 -69.2107H77.8569H75.7899ZM77.8569 -67.1182H79.9239H77.8569ZM79.9239 -65.0258H81.9909H79.9239ZM79.9239 -62.9333H81.9909H79.9239ZM214.279 -33.6391H216.346H214.279ZM214.279 -31.5467H216.346H214.279ZM214.279 -29.4543H216.346H214.279ZM214.279 -27.3618H216.346H214.279ZM214.279 -25.2694H216.346H214.279ZM214.279 -23.1769H216.346H214.279ZM214.279 -21.0845H216.346H214.279ZM214.279 -18.9921H216.346H214.279ZM214.279 -16.8996H216.346H214.279ZM212.212 -14.8072H214.279H212.212ZM212.212 -12.7147H214.279H212.212ZM212.212 -10.6223H214.279H212.212ZM212.212 -8.52985H214.279H212.212ZM212.212 -6.4374H214.279H212.212ZM212.212 -4.34496H214.279H212.212ZM210.145 -2.25252H212.212H210.145ZM210.145 -0.16008H212.212H210.145ZM210.145 1.93236H212.212H210.145ZM208.078 4.0248H212.212H208.078ZM208.078 6.11725H210.145H208.078ZM208.078 8.20969H210.145H208.078ZM206.011 10.3021H208.078H206.011ZM203.944 12.3946H206.011H203.944ZM201.877 14.487H203.944H201.877ZM197.743 16.5795H201.877H197.743ZM402.375 16.5795H404.442H402.375ZM197.743 18.6719H199.81H197.743ZM402.375 18.6719H404.442H402.375ZM197.743 20.7643H199.81H197.743ZM400.308 20.7643H402.375H400.308ZM197.743 22.8568H199.81H197.743ZM400.308 22.8568H402.375H400.308ZM199.81 24.9492H201.877H199.81ZM398.241 24.9492H400.308H398.241ZM199.81 27.0417H201.877H199.81ZM398.241 27.0417H400.308H398.241ZM-2.75603 29.1341H-0.689034H-2.75603ZM201.877 29.1341H203.944H201.877ZM396.174 29.1341H398.241H396.174ZM443.715 29.1341H458.184H443.715ZM-0.689034 31.2265H1.37796H-0.689034ZM201.877 31.2265H203.944H201.877ZM396.174 31.2265H398.241H396.174ZM439.581 31.2265H443.715H439.581ZM449.916 31.2265H451.983H449.916ZM458.184 31.2265H470.586H458.184ZM1.37796 33.319H3.44496H1.37796ZM203.944 33.319H206.011H203.944ZM394.107 33.319H396.174H394.107ZM433.38 33.319H439.581H433.38ZM451.983 33.319H454.05H451.983ZM470.586 33.319H482.988H470.586ZM3.44496 35.4114H5.51196H3.44496ZM206.011 35.4114H208.078H206.011ZM392.04 35.4114H394.107H392.04ZM423.045 35.4114H433.38H423.045ZM454.05 35.4114H456.117H454.05ZM482.988 35.4114H491.256H482.988ZM5.51196 37.5039H7.57895H5.51196ZM208.078 37.5039H210.145H208.078ZM392.04 37.5039H394.107H392.04ZM420.978 37.5039H423.045H420.978ZM454.05 37.5039H456.117H454.05ZM7.57895 39.5963H9.64595H7.57895ZM210.145 39.5963H212.212H210.145ZM389.973 39.5963H392.04H389.973ZM412.71 39.5963H420.978H412.71ZM9.64595 41.6888H11.713H9.64595ZM212.212 41.6888H214.279H212.212ZM385.839 41.6888H389.973H385.839ZM406.509 41.6888H412.71H406.509ZM11.713 43.7812H13.7799H11.713ZM212.212 43.7812H216.346H212.212ZM383.772 43.7812H387.906H383.772ZM394.107 43.7812H406.509H394.107ZM13.7799 45.8736H17.9139H13.7799ZM216.346 45.8736H218.413H216.346ZM350.701 45.8736H394.107H350.701ZM17.9139 47.9661H19.9809H17.9139ZM218.413 47.9661H220.48H218.413ZM346.567 47.9661H350.701H346.567ZM19.9809 50.0585H22.0479H19.9809ZM220.48 50.0585H224.614H220.48ZM344.5 50.0585H346.567H344.5ZM22.0479 52.151H24.1149H22.0479ZM224.614 52.151H226.681H224.614ZM340.366 52.151H344.5H340.366ZM24.1149 54.2434H26.1819H24.1149ZM226.681 54.2434H230.815H226.681ZM338.299 54.2434H340.366H338.299ZM24.1149 56.3358H30.3159H24.1149ZM230.815 56.3358H237.016H230.815ZM336.232 56.3358H338.299H336.232ZM24.1149 58.4283H26.1819H24.1149ZM30.3159 58.4283H34.4499H30.3159ZM237.016 58.4283H243.217H237.016ZM334.165 58.4283H336.232H334.165ZM22.0479 60.5207H24.1149H22.0479ZM34.4499 60.5207H40.6509H34.4499ZM243.217 60.5207H247.351H243.217ZM330.031 60.5207H334.165H330.031ZM19.9809 62.6132H22.0479H19.9809ZM40.6509 62.6132H42.7179H40.6509ZM181.207 62.6132H183.274H181.207ZM247.351 62.6132H249.418H247.351ZM325.897 62.6132H330.031H325.897ZM15.8469 64.7056H19.9809H15.8469ZM42.7179 64.7056H44.7849H42.7179ZM181.207 64.7056H183.274H181.207ZM239.083 64.7056H243.217H239.083ZM249.418 64.7056H257.686H249.418ZM323.83 64.7056H325.897H323.83ZM-21.359 66.798H-19.292H-21.359ZM13.7799 66.798H15.8469H13.7799ZM44.7849 66.798H48.9189H44.7849ZM181.207 66.798H183.274H181.207ZM228.748 66.798H239.083H228.748ZM243.217 66.798H278.356H243.217ZM321.763 66.798H323.83H321.763ZM-19.292 68.8905H-15.158H-19.292ZM9.64595 68.8905H13.7799H9.64595ZM48.9189 68.8905H50.9859H48.9189ZM71.6559 68.8905H90.2589H71.6559ZM181.207 68.8905H183.274H181.207ZM216.346 68.8905H228.748H216.346ZM278.356 68.8905H280.423H278.356ZM317.629 68.8905H321.763H317.629ZM-15.158 70.9829H-2.75603H-15.158ZM5.51196 70.9829H9.64595H5.51196ZM50.9859 70.9829H53.0529H50.9859ZM69.5889 70.9829H71.6559H69.5889ZM90.2589 70.9829H96.4598H90.2589ZM181.207 70.9829H183.274H181.207ZM206.011 70.9829H216.346H206.011ZM280.423 70.9829H282.49H280.423ZM315.562 70.9829H317.629H315.562ZM-2.75603 73.0754H5.51196H-2.75603ZM53.0529 73.0754H55.1199H53.0529ZM61.3209 73.0754H71.6559H61.3209ZM96.4598 73.0754H100.594H96.4598ZM183.274 73.0754H185.341H183.274ZM199.81 73.0754H206.011H199.81ZM282.49 73.0754H284.557H282.49ZM313.495 73.0754H315.562H313.495ZM-0.689034 75.1678H1.37796H-0.689034ZM3.44496 75.1678H5.51196H3.44496ZM55.1199 75.1678H61.3209H55.1199ZM100.594 75.1678H104.728H100.594ZM183.274 75.1678H185.341H183.274ZM193.609 75.1678H199.81H193.609ZM282.49 75.1678H313.495H282.49ZM1.37796 77.2603H3.44496H1.37796ZM5.51196 77.2603H7.57895H5.51196ZM104.728 77.2603H106.795H104.728ZM183.274 77.2603H193.609H183.274ZM301.093 77.2603H313.495H301.093ZM3.44496 79.3527H5.51196H3.44496ZM7.57895 79.3527H9.64595H7.57895ZM106.795 79.3527H108.862H106.795ZM179.14 79.3527H185.341H179.14ZM311.428 79.3527H313.495H311.428ZM9.64595 81.4452H11.713H9.64595ZM108.862 81.4452H115.063H108.862ZM177.073 81.4452H179.14H177.073ZM311.428 81.4452H313.495H311.428ZM115.063 83.5376H117.13H115.063ZM170.872 83.5376H177.073H170.872ZM311.428 83.5376H313.495H311.428ZM117.13 85.63H119.197H117.13ZM164.671 85.63H170.872H164.671ZM313.495 85.63H315.562H313.495ZM119.197 87.7225H121.264H119.197ZM156.403 87.7225H164.671H156.403ZM313.495 87.7225H315.562H313.495ZM121.264 89.8149H123.331H121.264ZM148.135 89.8149H156.403H148.135ZM313.495 89.8149H315.562H313.495ZM119.197 91.9074H121.264H119.197ZM123.331 91.9074H129.532H123.331ZM137.8 91.9074H148.135H137.8ZM129.532 93.9998H137.8H129.532Z" fill="black"/>
<path fill-rule="evenodd" clip-rule="evenodd" d="M61.3209 -83.1385H59.2539V-85.9502H61.3209V-83.8904H63.3879V-81.8307H65.4549V-79.771H67.5219V-77.7112H69.5889V-75.6515H71.6559V-73.5917H73.7229V-71.532H75.7899V-69.4722H77.8569V-67.4125H79.9239V-65.3527H81.9909V-60.4813H79.9239V-64.6007H77.8569V-66.6605H75.7899V-68.7202H73.7229V-70.78H71.6559V-72.8397H69.5889V-74.8995H67.5219V-76.9592H65.4549V-79.019H63.3879V-81.0787H61.3209V-83.1385ZM214.279 -34.4565H216.346V-15.1668H214.279V-2.80833H212.212V5.43066H210.145V9.55016H208.078V11.6099H206.011V13.6697H203.944V15.7294H201.877V17.7891H199.81V23.2164H201.877V27.3359H203.944V31.4554H206.011V33.5152H208.078V35.5749H210.145V37.6346H212.212V39.6944H214.279V41.7542H216.346V43.8139H218.413V45.8736H220.48V47.9334H224.614V49.9931H226.681V52.0529H230.815V54.1126H237.016V56.1724H243.217V58.2321H247.351V60.2919H249.418V62.3516H257.686V64.4114H278.356V66.4711H280.423V68.5309H282.49V70.5906H284.557V72.6503H313.495V70.5906H315.562V68.5309H317.629V66.4711H321.763V64.4114H323.83V62.3516H325.897V60.2919H330.031V58.2321H334.165V56.1724H336.232V54.1126H338.299V52.0529H340.366V49.9931H344.5V47.9334H346.567V45.8736H350.701V43.8139H383.772V41.7542H385.839V39.6944H389.973V37.6346H392.04V33.5152H394.107V31.4554H396.174V27.3359H398.241V23.2164H400.308V19.0969H402.375V14.9774H404.442V19.8489H402.375V23.9684H400.308V28.0879H398.241V32.2074H396.174V34.2671H394.107V38.3866H392.04V40.4464H389.973V42.5061H387.906V43.8139H394.107V41.7542H406.509V39.6944H412.71V37.6346H420.978V35.5749H423.045V33.5152H433.38V31.4554H439.581V29.3957H443.715V27.3359H458.184V29.3957H470.586V31.4554H482.988V33.5152H491.256V36.3269H482.988V34.2671H470.586V32.2074H458.184V30.1476H451.983V31.4554H454.05V33.5152H456.117V38.3866H454.05V34.2671H451.983V32.2074H449.916V30.1476H443.715V32.2074H439.581V34.2671H433.38V36.3269H423.045V38.3866H420.978V40.4464H412.71V42.5061H406.509V44.5659H394.107V46.6256H350.701V48.6854H346.567V50.7451H344.5V52.8048H340.366V54.8646H338.299V56.9243H336.232V58.9841H334.165V61.0438H330.031V63.1036H325.897V65.1633H323.83V67.2231H321.763V69.2828H317.629V71.3426H315.562V73.4023H313.495V82.9491H315.562V89.8803H313.495V83.7011H311.428V77.5218H301.093V75.4621H282.49V71.3426H280.423V69.2828H278.356V67.2231H243.217V65.1633H239.083V67.2231H228.748V69.2828H216.346V71.3426H206.011V73.4023H199.81V75.4621H193.609V77.5218H185.341V79.5816H179.14V81.6413H177.073V83.7011H170.872V85.7608H164.671V87.8206H156.403V89.8803H148.135V91.94H137.8V93.9998H129.532V91.94H123.331V89.8803H121.264V91.94H119.197V89.1283H121.264V87.8206H119.197V85.7608H117.13V83.7011H115.063V81.6413H108.862V79.5816H106.795V77.5218H104.728V75.4621H100.594V73.4023H96.4598V71.3426H90.2589V69.2828H71.6559V73.4023H61.3209V75.4621H55.1199V73.4023H53.0529V71.3426H50.9859V69.2828H48.9189V67.2231H44.7849V65.1633H42.7179V63.1036H40.6509V61.0438H34.4499V58.9841H30.3159V56.9243H26.1819V58.9841H24.1149V61.0438H22.0479V63.1036H19.9809V65.1633H15.8469V67.2231H13.7799V69.2828H9.64595V71.3426H5.51196V74.7101H7.57895V76.7699H9.64595V78.8296H11.713V81.6413H9.64595V79.5816H7.57895V77.5218H5.51196V79.5816H3.44496V77.5218H1.37796V75.4621H-0.689034V73.4023H-2.75603V71.3426H-15.158V69.2828H-19.292V67.2231H-21.359V64.4114H-19.292V66.4711H-15.158V68.5309H-2.75603V70.5906H5.51196V68.5309H9.64595V66.4711H13.7799V64.4114H15.8469V62.3516H19.9809V60.2919H22.0479V58.2321H24.1149V52.8048H22.0479V50.7451H19.9809V48.6854H17.9139V46.6256H13.7799V44.5659H11.713V42.5061H9.64595V40.4464H7.57895V38.3866H5.51196V36.3269H3.44496V34.2671H1.37796V32.2074H-0.689034V30.1476H-2.75603V27.3359H-0.689034V29.3957H1.37796V31.4554H3.44496V33.5152H5.51196V35.5749H7.57895V37.6346H9.64595V39.6944H11.713V41.7542H13.7799V43.8139H17.9139V45.8736H19.9809V47.9334H22.0479V49.9931H24.1149V52.0529H26.1819V54.1126H30.3159V56.1724H34.4499V58.2321H40.6509V60.2919H42.7179V62.3516H44.7849V64.4114H48.9189V66.4711H50.9859V68.5309H53.0529V70.5906H55.1199V72.6503H61.3209V70.5906H69.5889V68.5309H71.6559V66.4711H90.2589V68.5309H96.4598V70.5906H100.594V72.6503H104.728V74.7101H106.795V76.7699H108.862V78.8296H115.063V80.8893H117.13V82.9491H119.197V85.0088H121.264V87.0686H123.331V89.1283H129.532V91.1881H137.8V89.1283H148.135V87.0686H156.403V85.0088H164.671V82.9491H170.872V80.8893H177.073V78.8296H179.14V76.7699H183.274V71.3426H181.207V60.2919H183.274V70.5906H185.341V74.7101H193.609V72.6503H199.81V70.5906H206.011V68.5309H216.346V66.4711H228.748V64.4114H239.083V62.3516H243.217V64.4114H249.418V63.1036H247.351V61.0438H243.217V58.9841H237.016V56.9243H230.815V54.8646H226.681V52.8048H224.614V50.7451H220.48V48.6854H218.413V46.6256H216.346V44.5659H212.212V40.4464H210.145V38.3866H208.078V36.3269H206.011V34.2671H203.944V32.2074H201.877V28.0879H199.81V23.9684H197.743V14.9774H201.877V12.9177H203.944V10.8579H206.011V8.79819H208.078V2.61894H210.145V-3.5603H212.212V-15.9188H214.279V-34.4565ZM1.37796 73.4023V74.7101H3.44496V73.4023H1.37796ZM5.51196 75.4621H3.44496V76.7699H5.51196V75.4621Z" fill="#3D446E"/>
</g>
<rect y="95" width="238" height="24" fill="#594D68"/>
<rect y="143" width="238" height="65" fill="#594D68"/>
<rect y="208" width="238" height="1" fill="#525B5A"/>
<rect y="232" width="238" height="2" fill="#383D41"/>
<rect y="234" width="238" height="2" fill="#5B6C76"/>
<rect y="236" width="238" height="1" fill="#49535A"/>
<rect y="237" width="238" height="1" fill="#3B4044"/>
<rect y="226" width="238" height="6" fill="#2C272B"/>
<rect y="209" width="238" height="4" fill="#363133"/>
<rect y="222" width="238" height="4" fill="#494541"/>
<rect y="213" width="238" height="9" fill="#68635F"/>
<rect x="238" width="238" height="119" transform="rotate(90 238 0)" fill="black" fill-opacity="0.2"/>
<rect x="238" width="238" height="238" transform="rotate(90 238 0)" fill="white" fill-opacity="0.1"/>
<defs>
<clipPath id="clip0_357_15888">
<rect width="238" height="61" fill="white" transform="translate(0 33)"/>
</clipPath>
</defs>
</svg>
