<svg width="63" height="63" viewBox="0 0 63 63" fill="none" xmlns="http://www.w3.org/2000/svg">
<path d="M5.35565 26.2712V36.729C5.35565 41.9579 7.97009 44.5723 13.199 44.5723H16.9376C17.9049 44.5723 18.8723 44.8599 19.7089 45.3566L27.3431 50.141C33.9314 54.2718 39.3433 51.2652 39.3433 43.5004V19.4998C39.3433 11.7088 33.9314 8.72837 27.3431 12.8592L19.7089 17.6436C18.8723 18.1403 17.9049 18.4279 16.9376 18.4279H13.199C7.97009 18.4279 5.35565 21.0424 5.35565 26.2712Z" stroke="white" stroke-width="6.03331"/>
<path d="M47.1866 21.042C51.8403 27.2382 51.8403 35.7613 47.1866 41.9575" stroke="white" stroke-width="6.03331" stroke-linecap="round" stroke-linejoin="round"/>
<path d="M51.9709 14.5063C59.5267 24.5719 59.5267 38.4284 51.9709 48.494" stroke="white" stroke-width="6.03331" stroke-linecap="round" stroke-linejoin="round"/>
</svg>
