<svg width="60" height="60" viewBox="0 0 60 60" fill="none" xmlns="http://www.w3.org/2000/svg">
<path fill-rule="evenodd" clip-rule="evenodd" d="M30.4268 10C31.4564 7.08702 34.2344 5 37.5 5C40.7655 5 43.5436 7.08702 44.5732 10H52.5C53.8807 10 55 11.1193 55 12.5C55 13.8807 53.8807 15 52.5 15H44.5732C43.5436 17.913 40.7655 20 37.5 20C34.2344 20 31.4564 17.913 30.4268 15L7.5 15C6.11929 15 5 13.8807 5 12.5C5 11.1193 6.11929 10 7.5 10L30.4268 10ZM37.5 10C36.1193 10 35 11.1193 35 12.5C35 13.8807 36.1193 15 37.5 15C38.8807 15 40 13.8807 40 12.5C40 11.1193 38.8807 10 37.5 10ZM22.5 27.5C21.1193 27.5 20 28.6193 20 30C20 31.3807 21.1193 32.5 22.5 32.5C23.8807 32.5 25 31.3807 25 30C25 28.6193 23.8807 27.5 22.5 27.5ZM15.4268 27.5C16.4564 24.587 19.2345 22.5 22.5 22.5C25.7655 22.5 28.5436 24.587 29.5732 27.5L52.5 27.5C53.8807 27.5 55 28.6193 55 30C55 31.3807 53.8807 32.5 52.5 32.5L29.5732 32.5C28.5436 35.413 25.7655 37.5 22.5 37.5C19.2345 37.5 16.4564 35.413 15.4268 32.5H7.5C6.11929 32.5 5 31.3807 5 30C5 28.6193 6.11929 27.5 7.5 27.5H15.4268ZM30.4268 45C31.4564 42.087 34.2344 40 37.5 40C40.7655 40 43.5436 42.087 44.5732 45H52.5C53.8807 45 55 46.1193 55 47.5C55 48.8807 53.8807 50 52.5 50H44.5732C43.5436 52.913 40.7655 55 37.5 55C34.2344 55 31.4564 52.913 30.4268 50H7.5C6.11929 50 5 48.8807 5 47.5C5 46.1193 6.11929 45 7.5 45H30.4268ZM37.5 45C36.1193 45 35 46.1193 35 47.5C35 48.8807 36.1193 50 37.5 50C38.8807 50 40 48.8807 40 47.5C40 46.1193 38.8807 45 37.5 45Z" fill="#00984E"/>
</svg>
