<svg width="60" height="60" viewBox="0 0 60 60" fill="none" xmlns="http://www.w3.org/2000/svg">
<path fill-rule="evenodd" clip-rule="evenodd" d="M10 17.5C10 10.5964 15.5964 5 22.5 5H32.5C33.163 5 33.7989 5.26339 34.2678 5.73223L49.2678 20.7322C49.7366 21.2011 50 21.837 50 22.5V42.5C50 49.4035 44.4036 55 37.5 55H32.5C31.1193 55 30 53.8807 30 52.5C30 51.1193 31.1193 50 32.5 50H37.5C41.6421 50 45 46.6421 45 42.5V25H37.5C33.3579 25 30 21.6421 30 17.5V10H22.5C18.3579 10 15 13.3579 15 17.5V30C15 31.3807 13.8807 32.5 12.5 32.5C11.1193 32.5 10 31.3807 10 30V17.5ZM35 13.5355L41.4645 20H37.5C36.1193 20 35 18.8807 35 17.5V13.5355ZM33.1526 31.8474C30.6893 29.3842 26.6956 29.3842 24.2324 31.8474C21.7691 34.3107 21.7691 38.3044 24.2324 40.7676C26.6956 43.2309 30.6893 43.2309 33.1526 40.7676C35.6158 38.3044 35.6158 34.3107 33.1526 31.8474ZM20.6968 28.3119C25.1127 23.896 32.2722 23.896 36.6881 28.3119C41.104 32.7278 41.104 39.8873 36.6881 44.3032C32.8797 48.1116 27.0305 48.6355 22.6607 45.8749L14.2678 54.2678C13.2915 55.2441 11.7085 55.2441 10.7322 54.2678C9.75592 53.2914 9.75592 51.7085 10.7322 50.7322L19.1251 42.3393C16.3645 37.9695 16.8884 32.1203 20.6968 28.3119Z" fill="#FF9D0C"/>
</svg>
