<svg width="60" height="60" viewBox="0 0 60 60" fill="none" xmlns="http://www.w3.org/2000/svg">
<path fill-rule="evenodd" clip-rule="evenodd" d="M18.75 2.5C20.1307 2.5 21.25 3.61929 21.25 5V7.5H38.75V5C38.75 3.61929 39.8693 2.5 41.25 2.5C42.6307 2.5 43.75 3.61929 43.75 5V7.56172C50.0666 8.18888 55 13.5183 55 20V42.5C55 49.4036 49.4035 55 42.5 55H17.5C10.5964 55 5 49.4036 5 42.5V20C5 13.5183 9.93335 8.18888 16.25 7.56172V5C16.25 3.61929 17.3693 2.5 18.75 2.5ZM10.4268 17.5H49.5732C48.5436 14.587 45.7655 12.5 42.5 12.5H17.5C14.2345 12.5 11.4564 14.587 10.4268 17.5ZM50 22.5H10V42.5C10 46.6421 13.3579 50 17.5 50H42.5C46.6421 50 50 46.6421 50 42.5V22.5ZM41.7678 26.9822C42.7441 27.9585 42.7441 29.5415 41.7678 30.5178L29.2678 43.0178C28.2915 43.9941 26.7085 43.9941 25.7322 43.0178L19.4822 36.7678C18.5059 35.7915 18.5059 34.2085 19.4822 33.2322C20.4585 32.2559 22.0415 32.2559 23.0178 33.2322L27.5 37.7145L38.2322 26.9822C39.2085 26.0059 40.7915 26.0059 41.7678 26.9822Z" fill="#9054EA"/>
</svg>
