<svg width="16" height="16" viewBox="0 0 16 16" fill="none" xmlns="http://www.w3.org/2000/svg">
<path d="M3.33329 4.66663H4.66663V5.33329H5.33329V5.99996H5.99996V6.66663H6.66663V7.33329H7.33329V7.99996H8.66663V7.33329H9.33329V6.66663H9.99996V5.99996H10.6666V5.33329H11.3333V4.66663H12.6666V5.33329H13.3333V6.66663H12.6666V7.33329H12V7.99996H11.3333V8.66663H10.6666V9.33329H9.99996V9.99996H9.33329V10.6666H8.66663V11.3333H7.33329V10.6666H6.66663V9.99996H5.99996V9.33329H5.33329V8.66663H4.66663V7.99996H3.99996V7.33329H3.33329V6.66663H2.66663V5.33329H3.33329V4.66663Z" fill="white"/>
</svg>
