<svg width="229" height="328" viewBox="0 0 229 328" fill="none" xmlns="http://www.w3.org/2000/svg">
<rect x="4" y="4" width="313" height="3.99999" transform="rotate(90 4 4)" fill="#030500"/>
<rect x="217" y="324" width="4.00001" height="205" transform="rotate(90 217 324)" fill="#030500"/>
<rect x="217" y="320" width="4.00001" height="205" transform="rotate(90 217 320)" fill="#42415E"/>
<rect x="217" y="316" width="4.00001" height="205" transform="rotate(90 217 316)" fill="#908EBA"/>
<rect x="225" width="316" height="221" transform="rotate(90 225 0)" fill="#615F83"/>
<rect x="8" y="316" width="4" height="4" transform="rotate(90 8 316)" fill="#030500"/>
<rect x="8" y="312" width="4" height="4" transform="rotate(90 8 312)" fill="#42415E"/>
<rect x="8" y="308" width="4" height="4" transform="rotate(90 8 308)" fill="#908EBA"/>
<rect x="12" y="320" width="4" height="4" transform="rotate(90 12 320)" fill="#030500"/>
<rect x="12" y="316" width="4" height="4" transform="rotate(90 12 316)" fill="#42415E"/>
<rect x="12" y="312" width="4" height="4" transform="rotate(90 12 312)" fill="#908EBA"/>
<rect x="225" y="316" width="4" height="4" transform="rotate(90 225 316)" fill="#030500"/>
<rect x="225" y="312" width="4" height="4" transform="rotate(90 225 312)" fill="#42415E"/>
<rect x="225" y="308" width="4" height="4" transform="rotate(90 225 308)" fill="#908EBA"/>
<rect x="221" y="320" width="4" height="4" transform="rotate(90 221 320)" fill="#030500"/>
<rect x="221" y="316" width="4" height="4" transform="rotate(90 221 316)" fill="#42415E"/>
<rect x="221" y="312" width="4" height="4" transform="rotate(90 221 312)" fill="#908EBA"/>
<rect x="229" y="4" width="312" height="3.99999" transform="rotate(90 229 4)" fill="#030500"/>
<rect x="213" y="56" width="12" height="197" transform="rotate(90 213 56)" fill="#F77622"/>
<rect x="213" y="20" width="48" height="197" transform="rotate(90 213 20)" fill="#FF83F7"/>
<rect x="209" y="16" width="4.00001" height="189" transform="rotate(90 209 16)" fill="#030500"/>
<rect x="209" y="20" width="4.00001" height="189" transform="rotate(90 209 20)" fill="#FF95F9"/>
<rect x="213" y="64" width="4.00001" height="193" transform="rotate(90 213 64)" fill="#FF95F9"/>
<rect x="209" y="68" width="4.00001" height="189" transform="rotate(90 209 68)" fill="#030500"/>
<rect x="213" y="20" width="4" height="4" transform="rotate(90 213 20)" fill="#030500"/>
<rect x="213" y="24" width="4" height="4" transform="rotate(90 213 24)" fill="#FF95F9"/>
<rect x="213" y="60" width="4" height="4" transform="rotate(90 213 60)" fill="#FF95F9"/>
<rect x="213" y="64" width="4" height="4" transform="rotate(90 213 64)" fill="#030500"/>
<rect x="20" y="20" width="4" height="4" transform="rotate(90 20 20)" fill="#030500"/>
<rect x="20" y="24" width="4" height="4" transform="rotate(90 20 24)" fill="#FF95F9"/>
<rect x="20" y="60" width="4" height="4" transform="rotate(90 20 60)" fill="#FF95F9"/>
<rect x="20" y="64" width="4" height="4" transform="rotate(90 20 64)" fill="#030500"/>
<rect x="16" y="24" width="40" height="4" transform="rotate(90 16 24)" fill="#030500"/>
<rect x="217" y="24" width="40" height="4" transform="rotate(90 217 24)" fill="#030500"/>
<g filter="url(#filter0_d_414_69)">
<path d="M27.7778 41.1111H26V37.5556H29.5556V41.1111H31.3333V37.5556H34.8889V41.1111H36.6667V37.5556H40.2222V41.1111H38.4444V42.8889H36.6667V44.6667H38.4444V46.4444H40.2222V50H36.6667V46.4444H34.8889V50H31.3333V46.4444H29.5556V50H26V46.4444H27.7778V44.6667H29.5556V42.8889H27.7778V41.1111ZM49.1111 46.4444H47.3333V41.1111H49.1111V46.4444ZM54.4444 37.5556V50H50.8889V41.1111H49.1111V37.5556H54.4444ZM45.5556 46.4444H47.3333V50H42V37.5556H45.5556V46.4444ZM56.2188 50V48.2222H57.9965V37.5556H66.8854V50H63.3299V39.3333H61.5521V48.2222H59.7743V50H56.2188ZM77.5451 44.6667H79.3229V48.2222H77.5451V50H68.6562V37.5556H72.2118V42.8889H77.5451V44.6667ZM75.7674 48.2222V44.6667H72.2118V48.2222H75.7674ZM81.0938 50V37.5556H91.7604V39.3333H84.6493V42.8889H89.9826V44.6667H84.6493V48.2222H91.7604V50H81.0938ZM82.8715 35.7778V34H84.6493V35.7778H82.8715ZM88.2049 35.7778V34H89.9826V35.7778H88.2049Z" fill="white"/>
</g>
<rect x="213" y="80" width="36" height="197" transform="rotate(90 213 80)" fill="#F834EC"/>
<rect x="213" y="116" width="12" height="197" transform="rotate(90 213 116)" fill="#9A2093"/>
<rect x="209" y="76" width="4.00001" height="189" transform="rotate(90 209 76)" fill="#030500"/>
<rect x="209" y="80" width="4.00001" height="189" transform="rotate(90 209 80)" fill="#FF95F9"/>
<rect x="213" y="116" width="4.00001" height="193" transform="rotate(90 213 116)" fill="#FF95F9"/>
<rect x="209" y="128" width="4.00001" height="189" transform="rotate(90 209 128)" fill="#030500"/>
<rect x="213" y="80" width="4" height="4" transform="rotate(90 213 80)" fill="#030500"/>
<rect x="213" y="84" width="4" height="4" transform="rotate(90 213 84)" fill="#FF95F9"/>
<rect x="213" y="112" width="4" height="4" transform="rotate(90 213 112)" fill="#FF95F9"/>
<rect x="213" y="124" width="4" height="4" transform="rotate(90 213 124)" fill="#030500"/>
<rect x="20" y="80" width="4" height="4" transform="rotate(90 20 80)" fill="#030500"/>
<rect x="20" y="84" width="4" height="4" transform="rotate(90 20 84)" fill="#FF95F9"/>
<rect x="20" y="112" width="4" height="4" transform="rotate(90 20 112)" fill="#FF95F9"/>
<rect x="20" y="124" width="4" height="4" transform="rotate(90 20 124)" fill="#030500"/>
<rect x="16" y="84" width="40" height="4" transform="rotate(90 16 84)" fill="#030500"/>
<rect x="217" y="84" width="40" height="4" transform="rotate(90 217 84)" fill="#030500"/>
<g filter="url(#filter1_d_414_69)">
<path d="M29.5556 95.3333H31.3333V97.1111H34.8889V95.3333H36.6667V93.5556H40.2222V106H36.6667V98.8889H34.8889V100.667H31.3333V98.8889H29.5556V106H26V93.5556H29.5556V95.3333ZM45.5556 95.3333V93.5556H49.1111V95.3333H50.8889V98.8889H52.6667V106H49.1111V102.444H45.5556V106H42V98.8889H43.7778V95.3333H45.5556ZM45.5556 100.667H49.1111V97.1111H45.5556V100.667ZM65.1042 93.5556V95.3333H57.9931V106H54.4375V93.5556H65.1042ZM70.4306 95.3333V93.5556H73.9861V95.3333H75.7639V98.8889H77.5417V106H73.9861V102.444H70.4306V106H66.875V98.8889H68.6528V95.3333H70.4306ZM70.4306 100.667H73.9861V97.1111H70.4306V100.667ZM79.3125 97.1111V95.3333H81.0903V93.5556H88.2014V95.3333H89.9792V97.1111H88.2014V98.8889H86.4236V100.667H88.2014V102.444H89.9792V104.222H88.2014V106H81.0903V104.222H79.3125V102.444H82.8681V104.222H86.4236V102.444H84.6458V100.667H82.8681V98.8889H84.6458V97.1111H86.4236V95.3333H82.8681V97.1111H79.3125ZM98.8611 102.444H97.0833V97.1111H98.8611V102.444ZM104.194 93.5556V106H100.639V97.1111H98.8611V93.5556H104.194ZM95.3056 102.444H97.0833V106H91.75V93.5556H95.3056V102.444ZM113.08 106V100.667H109.524V106H105.969V93.5556H109.524V98.8889H113.08V93.5556H116.635V106H113.08Z" fill="white"/>
</g>
<rect x="213" y="140" width="36" height="197" transform="rotate(90 213 140)" fill="#F834EC"/>
<rect x="213" y="176" width="12" height="197" transform="rotate(90 213 176)" fill="#9A2093"/>
<rect x="209" y="136" width="4.00001" height="189" transform="rotate(90 209 136)" fill="#030500"/>
<rect x="209" y="140" width="4.00001" height="189" transform="rotate(90 209 140)" fill="#FF95F9"/>
<rect x="213" y="176" width="4.00001" height="193" transform="rotate(90 213 176)" fill="#FF95F9"/>
<rect x="209" y="188" width="4.00001" height="189" transform="rotate(90 209 188)" fill="#030500"/>
<rect x="213" y="140" width="4" height="4" transform="rotate(90 213 140)" fill="#030500"/>
<rect x="213" y="144" width="4" height="4" transform="rotate(90 213 144)" fill="#FF95F9"/>
<rect x="213" y="172" width="4" height="4" transform="rotate(90 213 172)" fill="#FF95F9"/>
<rect x="213" y="184" width="4" height="4" transform="rotate(90 213 184)" fill="#030500"/>
<rect x="20" y="140" width="4" height="4" transform="rotate(90 20 140)" fill="#030500"/>
<rect x="20" y="144" width="4" height="4" transform="rotate(90 20 144)" fill="#FF95F9"/>
<rect x="20" y="172" width="4" height="4" transform="rotate(90 20 172)" fill="#FF95F9"/>
<rect x="20" y="184" width="4" height="4" transform="rotate(90 20 184)" fill="#030500"/>
<rect x="16" y="144" width="40" height="4" transform="rotate(90 16 144)" fill="#030500"/>
<rect x="217" y="144" width="40" height="4" transform="rotate(90 217 144)" fill="#030500"/>
<g filter="url(#filter2_d_414_69)">
<path d="M33.1111 162.444H31.3333V157.111H33.1111V162.444ZM38.4444 153.556V166H34.8889V157.111H33.1111V153.556H38.4444ZM29.5556 162.444H31.3333V166H26V153.556H29.5556V162.444ZM50.8854 153.556V155.333H43.7743V166H40.2188V153.556H50.8854ZM61.5451 155.333H63.3229V158.889H61.5451V160.667H56.2118V166H52.6562V153.556H61.5451V155.333ZM59.7674 158.889V155.333H56.2118V158.889H59.7674ZM66.8715 164.222H65.0938V155.333H66.8715V153.556H73.9826V155.333H75.7604V164.222H73.9826V166H66.8715V164.222ZM72.2049 164.222V155.333H68.6493V164.222H72.2049ZM81.0868 158.889H84.6424V155.333H81.0868V158.889ZM84.6424 160.667H81.0868V164.222H84.6424V160.667ZM77.5312 166V153.556H86.4201V155.333H88.1979V158.889H86.4201V160.667H88.1979V164.222H86.4201V166H77.5312ZM91.7465 164.222H89.9688V155.333H91.7465V153.556H98.8576V155.333H100.635V164.222H98.8576V166H91.7465V164.222ZM97.0799 164.222V155.333H93.5243V164.222H97.0799ZM109.517 162.444H107.74V157.111H109.517V162.444ZM114.851 153.556V166H111.295V157.111H109.517V153.556H114.851ZM105.962 162.444H107.74V166H102.406V153.556H105.962V162.444ZM105.962 151.778H104.184V150H105.962V151.778ZM111.295 151.778H109.517V150H111.295V151.778ZM109.517 153.556H105.962V151.778H109.517V153.556ZM123.734 166V153.556H127.29V157.111H129.068V155.333H130.845V153.556H134.401V155.333H132.623V157.111H130.845V158.889H129.068V160.667H130.845V162.444H132.623V164.222H134.401V166H130.845V164.222H129.068V162.444H127.29V166H123.734ZM136.172 166V164.222H137.95V153.556H146.839V166H143.283V155.333H141.505V164.222H139.727V166H136.172ZM159.276 153.556V158.889H157.498V164.222H155.72V166H148.609V164.222H153.943V162.444H152.165V160.667H150.387V158.889H148.609V153.556H152.165V158.889H155.72V153.556H159.276ZM161.047 166V153.556H169.936V155.333H164.602V158.889H169.936V160.667H171.714V164.222H169.936V166H161.047ZM168.158 160.667H164.602V164.222H168.158V160.667Z" fill="white"/>
</g>
<rect x="213" y="200" width="36" height="197" transform="rotate(90 213 200)" fill="#F834EC"/>
<rect x="213" y="236" width="12" height="197" transform="rotate(90 213 236)" fill="#9A2093"/>
<rect x="209" y="196" width="4.00001" height="189" transform="rotate(90 209 196)" fill="#030500"/>
<rect x="209" y="200" width="4.00001" height="189" transform="rotate(90 209 200)" fill="#FF95F9"/>
<rect x="213" y="236" width="4.00001" height="193" transform="rotate(90 213 236)" fill="#FF95F9"/>
<rect x="209" y="248" width="4.00001" height="189" transform="rotate(90 209 248)" fill="#030500"/>
<rect x="213" y="200" width="4" height="4" transform="rotate(90 213 200)" fill="#030500"/>
<rect x="213" y="204" width="4" height="4" transform="rotate(90 213 204)" fill="#FF95F9"/>
<rect x="213" y="232" width="4" height="4" transform="rotate(90 213 232)" fill="#FF95F9"/>
<rect x="213" y="244" width="4" height="4" transform="rotate(90 213 244)" fill="#030500"/>
<rect x="20" y="200" width="4" height="4" transform="rotate(90 20 200)" fill="#030500"/>
<rect x="20" y="204" width="4" height="4" transform="rotate(90 20 204)" fill="#FF95F9"/>
<rect x="20" y="232" width="4" height="4" transform="rotate(90 20 232)" fill="#FF95F9"/>
<rect x="20" y="244" width="4" height="4" transform="rotate(90 20 244)" fill="#030500"/>
<rect x="16" y="204" width="40" height="4" transform="rotate(90 16 204)" fill="#030500"/>
<rect x="217" y="204" width="40" height="4" transform="rotate(90 217 204)" fill="#030500"/>
<g filter="url(#filter3_d_414_69)">
<path d="M26 226V213.556H34.8889V215.333H29.5556V218.889H34.8889V220.667H36.6667V224.222H34.8889V226H26ZM33.1111 220.667H29.5556V224.222H33.1111V220.667ZM41.9931 215.333V213.556H45.5486V215.333H47.3264V218.889H49.1042V226H45.5486V222.444H41.9931V226H38.4375V218.889H40.2153V215.333H41.9931ZM41.9931 220.667H45.5486V217.111H41.9931V220.667ZM57.9861 226V220.667H54.4306V226H50.875V213.556H54.4306V218.889H57.9861V213.556H61.5417V226H57.9861ZM63.3125 226V213.556H66.8681V217.111H68.6458V215.333H70.4236V213.556H73.9792V215.333H72.2014V217.111H70.4236V218.889H68.6458V220.667H70.4236V222.444H72.2014V224.222H73.9792V226H70.4236V224.222H68.6458V222.444H66.8681V226H63.3125Z" fill="white"/>
</g>
<rect x="213" y="260" width="36" height="197" transform="rotate(90 213 260)" fill="#F834EC"/>
<rect x="213" y="296" width="12" height="197" transform="rotate(90 213 296)" fill="#9A2093"/>
<rect x="209" y="256" width="4.00001" height="189" transform="rotate(90 209 256)" fill="#030500"/>
<rect x="209" y="260" width="4.00001" height="189" transform="rotate(90 209 260)" fill="#FF95F9"/>
<rect x="213" y="296" width="4.00001" height="193" transform="rotate(90 213 296)" fill="#FF95F9"/>
<rect x="209" y="308" width="4.00001" height="189" transform="rotate(90 209 308)" fill="#030500"/>
<rect x="213" y="260" width="4" height="4" transform="rotate(90 213 260)" fill="#030500"/>
<rect x="213" y="264" width="4" height="4" transform="rotate(90 213 264)" fill="#FF95F9"/>
<rect x="213" y="292" width="4" height="4" transform="rotate(90 213 292)" fill="#FF95F9"/>
<rect x="213" y="304" width="4" height="4" transform="rotate(90 213 304)" fill="#030500"/>
<rect x="20" y="260" width="4" height="4" transform="rotate(90 20 260)" fill="#030500"/>
<rect x="20" y="264" width="4" height="4" transform="rotate(90 20 264)" fill="#FF95F9"/>
<rect x="20" y="292" width="4" height="4" transform="rotate(90 20 292)" fill="#FF95F9"/>
<rect x="20" y="304" width="4" height="4" transform="rotate(90 20 304)" fill="#030500"/>
<rect x="16" y="264" width="40" height="4" transform="rotate(90 16 264)" fill="#030500"/>
<rect x="217" y="264" width="40" height="4" transform="rotate(90 217 264)" fill="#030500"/>
<g filter="url(#filter4_d_414_69)">
<path d="M33.1111 286V280.667H29.5556V286H26V273.556H29.5556V278.889H33.1111V273.556H36.6667V286H33.1111ZM40.2153 284.222H38.4375V275.333H40.2153V273.556H47.3264V275.333H49.1042V284.222H47.3264V286H40.2153V284.222ZM45.5486 284.222V275.333H41.9931V284.222H45.5486ZM54.4306 278.889H57.9861V275.333H54.4306V278.889ZM57.9861 280.667H54.4306V284.222H57.9861V280.667ZM50.875 286V273.556H59.7639V275.333H61.5417V278.889H59.7639V280.667H61.5417V284.222H59.7639V286H50.875ZM65.0903 284.222H63.3125V275.333H65.0903V273.556H72.2014V275.333H73.9792V284.222H72.2014V286H65.0903V284.222ZM70.4236 284.222V275.333H66.8681V284.222H70.4236ZM77.5278 284.222H75.75V275.333H77.5278V273.556H84.6389V275.333H86.4167V277.111H82.8611V275.333H79.3056V284.222H82.8611V282.444H86.4167V284.222H84.6389V286H77.5278V284.222ZM91.7431 286V275.333H88.1875V273.556H98.8542V275.333H95.2986V286H91.7431ZM107.736 282.444H105.958V277.111H107.736V282.444ZM113.069 273.556V286H109.514V277.111H107.736V273.556H113.069ZM104.181 282.444H105.958V286H100.625V273.556H104.181V282.444Z" fill="white"/>
</g>
<defs>
<filter id="filter0_d_414_69" x="24" y="34" width="67.7604" height="18" filterUnits="userSpaceOnUse" color-interpolation-filters="sRGB">
<feFlood flood-opacity="0" result="BackgroundImageFix"/>
<feColorMatrix in="SourceAlpha" type="matrix" values="0 0 0 0 0 0 0 0 0 0 0 0 0 0 0 0 0 0 127 0" result="hardAlpha"/>
<feOffset dx="-2" dy="2"/>
<feComposite in2="hardAlpha" operator="out"/>
<feColorMatrix type="matrix" values="0 0 0 0 0.603922 0 0 0 0 0.12549 0 0 0 0 0.576471 0 0 0 1 0"/>
<feBlend mode="normal" in2="BackgroundImageFix" result="effect1_dropShadow_414_69"/>
<feBlend mode="normal" in="SourceGraphic" in2="effect1_dropShadow_414_69" result="shape"/>
</filter>
<filter id="filter1_d_414_69" x="24" y="93.5555" width="92.6354" height="14.4445" filterUnits="userSpaceOnUse" color-interpolation-filters="sRGB">
<feFlood flood-opacity="0" result="BackgroundImageFix"/>
<feColorMatrix in="SourceAlpha" type="matrix" values="0 0 0 0 0 0 0 0 0 0 0 0 0 0 0 0 0 0 127 0" result="hardAlpha"/>
<feOffset dx="-2" dy="2"/>
<feComposite in2="hardAlpha" operator="out"/>
<feColorMatrix type="matrix" values="0 0 0 0 0.603922 0 0 0 0 0.12549 0 0 0 0 0.576471 0 0 0 1 0"/>
<feBlend mode="normal" in2="BackgroundImageFix" result="effect1_dropShadow_414_69"/>
<feBlend mode="normal" in="SourceGraphic" in2="effect1_dropShadow_414_69" result="shape"/>
</filter>
<filter id="filter2_d_414_69" x="24" y="150" width="147.714" height="18" filterUnits="userSpaceOnUse" color-interpolation-filters="sRGB">
<feFlood flood-opacity="0" result="BackgroundImageFix"/>
<feColorMatrix in="SourceAlpha" type="matrix" values="0 0 0 0 0 0 0 0 0 0 0 0 0 0 0 0 0 0 127 0" result="hardAlpha"/>
<feOffset dx="-2" dy="2"/>
<feComposite in2="hardAlpha" operator="out"/>
<feColorMatrix type="matrix" values="0 0 0 0 0.603922 0 0 0 0 0.12549 0 0 0 0 0.576471 0 0 0 1 0"/>
<feBlend mode="normal" in2="BackgroundImageFix" result="effect1_dropShadow_414_69"/>
<feBlend mode="normal" in="SourceGraphic" in2="effect1_dropShadow_414_69" result="shape"/>
</filter>
<filter id="filter3_d_414_69" x="24" y="213.556" width="49.9791" height="14.4445" filterUnits="userSpaceOnUse" color-interpolation-filters="sRGB">
<feFlood flood-opacity="0" result="BackgroundImageFix"/>
<feColorMatrix in="SourceAlpha" type="matrix" values="0 0 0 0 0 0 0 0 0 0 0 0 0 0 0 0 0 0 127 0" result="hardAlpha"/>
<feOffset dx="-2" dy="2"/>
<feComposite in2="hardAlpha" operator="out"/>
<feColorMatrix type="matrix" values="0 0 0 0 0.603922 0 0 0 0 0.12549 0 0 0 0 0.576471 0 0 0 1 0"/>
<feBlend mode="normal" in2="BackgroundImageFix" result="effect1_dropShadow_414_69"/>
<feBlend mode="normal" in="SourceGraphic" in2="effect1_dropShadow_414_69" result="shape"/>
</filter>
<filter id="filter4_d_414_69" x="24" y="273.556" width="89.0695" height="14.4444" filterUnits="userSpaceOnUse" color-interpolation-filters="sRGB">
<feFlood flood-opacity="0" result="BackgroundImageFix"/>
<feColorMatrix in="SourceAlpha" type="matrix" values="0 0 0 0 0 0 0 0 0 0 0 0 0 0 0 0 0 0 127 0" result="hardAlpha"/>
<feOffset dx="-2" dy="2"/>
<feComposite in2="hardAlpha" operator="out"/>
<feColorMatrix type="matrix" values="0 0 0 0 0.603922 0 0 0 0 0.12549 0 0 0 0 0.576471 0 0 0 1 0"/>
<feBlend mode="normal" in2="BackgroundImageFix" result="effect1_dropShadow_414_69"/>
<feBlend mode="normal" in="SourceGraphic" in2="effect1_dropShadow_414_69" result="shape"/>
</filter>
</defs>
</svg>
