<svg width="568" height="116" viewBox="0 0 568 116" fill="none" xmlns="http://www.w3.org/2000/svg">
<rect x="24" y="78" width="20" height="66" transform="rotate(-180 24 78)" fill="#4E5276"/>
<rect x="24" y="104" width="20" height="26" transform="rotate(-180 24 104)" fill="#47496D"/>
<rect x="4" y="12" width="4" height="92" fill="#323451"/>
<rect x="44" y="78" width="20" height="66" transform="rotate(-180 44 78)" fill="#4E5276"/>
<rect x="44" y="104" width="20" height="26" transform="rotate(-180 44 104)" fill="#47496D"/>
<rect x="24" y="12" width="4" height="92" fill="#323451"/>
<rect x="64" y="78" width="20" height="66" transform="rotate(-180 64 78)" fill="#4E5276"/>
<rect x="64" y="104" width="20" height="26" transform="rotate(-180 64 104)" fill="#47496D"/>
<rect x="44" y="12" width="4" height="92" fill="#323451"/>
<rect x="84" y="78" width="20" height="66" transform="rotate(-180 84 78)" fill="#4E5276"/>
<rect x="84" y="104" width="20" height="26" transform="rotate(-180 84 104)" fill="#47496D"/>
<rect x="64" y="12" width="4" height="92" fill="#323451"/>
<rect x="104" y="78" width="20" height="66" transform="rotate(-180 104 78)" fill="#4E5276"/>
<rect x="104" y="104" width="20" height="26" transform="rotate(-180 104 104)" fill="#47496D"/>
<rect x="84" y="12" width="4" height="92" fill="#323451"/>
<rect x="124" y="78" width="20" height="66" transform="rotate(-180 124 78)" fill="#4E5276"/>
<rect x="124" y="104" width="20" height="26" transform="rotate(-180 124 104)" fill="#47496D"/>
<rect x="104" y="12" width="4" height="92" fill="#323451"/>
<rect x="144" y="78" width="20" height="66" transform="rotate(-180 144 78)" fill="#4E5276"/>
<rect x="144" y="104" width="20" height="26" transform="rotate(-180 144 104)" fill="#47496D"/>
<rect x="124" y="12" width="4" height="92" fill="#323451"/>
<rect x="164" y="78" width="20" height="66" transform="rotate(-180 164 78)" fill="#4E5276"/>
<rect x="164" y="104" width="20" height="26" transform="rotate(-180 164 104)" fill="#47496D"/>
<rect x="144" y="12" width="4" height="92" fill="#323451"/>
<rect x="184" y="78" width="20" height="66" transform="rotate(-180 184 78)" fill="#4E5276"/>
<rect x="184" y="104" width="20" height="26" transform="rotate(-180 184 104)" fill="#47496D"/>
<rect x="164" y="12" width="4" height="92" fill="#323451"/>
<rect x="204" y="78" width="20" height="66" transform="rotate(-180 204 78)" fill="#4E5276"/>
<rect x="204" y="104" width="20" height="26" transform="rotate(-180 204 104)" fill="#47496D"/>
<rect x="184" y="12" width="4" height="92" fill="#323451"/>
<rect x="224" y="78" width="20" height="66" transform="rotate(-180 224 78)" fill="#4E5276"/>
<rect x="224" y="104" width="20" height="26" transform="rotate(-180 224 104)" fill="#47496D"/>
<rect x="204" y="12" width="4" height="92" fill="#323451"/>
<rect x="244" y="78" width="20" height="66" transform="rotate(-180 244 78)" fill="#4E5276"/>
<rect x="244" y="104" width="20" height="26" transform="rotate(-180 244 104)" fill="#47496D"/>
<rect x="224" y="12" width="4" height="92" fill="#323451"/>
<rect x="264" y="78" width="20" height="66" transform="rotate(-180 264 78)" fill="#4E5276"/>
<rect x="264" y="104" width="20" height="26" transform="rotate(-180 264 104)" fill="#47496D"/>
<rect x="244" y="12" width="4" height="92" fill="#323451"/>
<rect x="284" y="78" width="20" height="66" transform="rotate(-180 284 78)" fill="#4E5276"/>
<rect x="284" y="104" width="20" height="26" transform="rotate(-180 284 104)" fill="#47496D"/>
<rect x="264" y="12" width="4" height="92" fill="#323451"/>
<rect x="304" y="78" width="20" height="66" transform="rotate(-180 304 78)" fill="#4E5276"/>
<rect x="304" y="104" width="20" height="26" transform="rotate(-180 304 104)" fill="#47496D"/>
<rect x="284" y="12" width="4" height="92" fill="#323451"/>
<rect x="324" y="78" width="20" height="66" transform="rotate(-180 324 78)" fill="#4E5276"/>
<rect x="324" y="104" width="20" height="26" transform="rotate(-180 324 104)" fill="#47496D"/>
<rect x="304" y="12" width="4" height="92" fill="#323451"/>
<rect x="344" y="78" width="20" height="66" transform="rotate(-180 344 78)" fill="#4E5276"/>
<rect x="344" y="104" width="20" height="26" transform="rotate(-180 344 104)" fill="#47496D"/>
<rect x="324" y="12" width="4" height="92" fill="#323451"/>
<rect x="364" y="78" width="20" height="66" transform="rotate(-180 364 78)" fill="#4E5276"/>
<rect x="364" y="104" width="20" height="26" transform="rotate(-180 364 104)" fill="#47496D"/>
<rect x="344" y="12" width="4" height="92" fill="#323451"/>
<rect x="384" y="78" width="20" height="66" transform="rotate(-180 384 78)" fill="#4E5276"/>
<rect x="384" y="104" width="20" height="26" transform="rotate(-180 384 104)" fill="#47496D"/>
<rect x="364" y="12" width="4" height="92" fill="#323451"/>
<rect x="404" y="78" width="20" height="66" transform="rotate(-180 404 78)" fill="#4E5276"/>
<rect x="404" y="104" width="20" height="26" transform="rotate(-180 404 104)" fill="#47496D"/>
<rect x="384" y="12" width="4" height="92" fill="#323451"/>
<rect x="424" y="78" width="20" height="66" transform="rotate(-180 424 78)" fill="#4E5276"/>
<rect x="424" y="104" width="20" height="26" transform="rotate(-180 424 104)" fill="#47496D"/>
<rect x="404" y="12" width="4" height="92" fill="#323451"/>
<rect x="444" y="78" width="20" height="66" transform="rotate(-180 444 78)" fill="#4E5276"/>
<rect x="444" y="104" width="20" height="26" transform="rotate(-180 444 104)" fill="#47496D"/>
<rect x="424" y="12" width="4" height="92" fill="#323451"/>
<rect x="464" y="78" width="20" height="66" transform="rotate(-180 464 78)" fill="#4E5276"/>
<rect x="464" y="104" width="20" height="26" transform="rotate(-180 464 104)" fill="#47496D"/>
<rect x="444" y="12" width="4" height="92" fill="#323451"/>
<rect x="484" y="78" width="20" height="66" transform="rotate(-180 484 78)" fill="#4E5276"/>
<rect x="484" y="104" width="20" height="26" transform="rotate(-180 484 104)" fill="#47496D"/>
<rect x="464" y="12" width="4" height="92" fill="#323451"/>
<rect x="504" y="78" width="20" height="66" transform="rotate(-180 504 78)" fill="#4E5276"/>
<rect x="504" y="104" width="20" height="26" transform="rotate(-180 504 104)" fill="#47496D"/>
<rect x="484" y="12" width="4" height="92" fill="#323451"/>
<rect x="524" y="78" width="20" height="66" transform="rotate(-180 524 78)" fill="#4E5276"/>
<rect x="524" y="104" width="20" height="26" transform="rotate(-180 524 104)" fill="#47496D"/>
<rect x="504" y="12" width="4" height="92" fill="#323451"/>
<rect x="544" y="78" width="20" height="66" transform="rotate(-180 544 78)" fill="#4E5276"/>
<rect x="544" y="104" width="20" height="26" transform="rotate(-180 544 104)" fill="#47496D"/>
<rect x="524" y="12" width="4" height="92" fill="#323451"/>
<rect x="564" y="78" width="20" height="66" transform="rotate(-180 564 78)" fill="#4E5276"/>
<rect x="564" y="104" width="20" height="26" transform="rotate(-180 564 104)" fill="#47496D"/>
<rect x="544" y="12" width="4" height="92" fill="#323451"/>
<rect x="560" y="12" width="4" height="92" fill="#323451"/>
<rect x="564" width="4.00001" height="560" transform="rotate(90 564 0)" fill="#030500"/>
<rect x="564" y="4" width="4.00001" height="560" transform="rotate(90 564 4)" fill="#ACA8C0"/>
<rect x="564" y="8" width="4.00001" height="560" transform="rotate(90 564 8)" fill="#030500"/>
<rect x="564" y="4" width="4" height="4" fill="#030500"/>
<rect y="4" width="4" height="4" fill="#030500"/>
<rect x="564" y="104" width="4.00001" height="560" transform="rotate(90 564 104)" fill="#030500"/>
<rect x="564" y="108" width="4.00001" height="560" transform="rotate(90 564 108)" fill="#ACA8C0"/>
<rect x="564" y="112" width="4.00001" height="560" transform="rotate(90 564 112)" fill="#030500"/>
<rect x="564" y="108" width="4" height="4" fill="#030500"/>
<rect y="108" width="4" height="4" fill="#030500"/>
<rect x="288" y="44" width="37" height="4" transform="rotate(90 288 44)" fill="#030500"/>
<rect x="536" y="88" width="4.00001" height="240" transform="rotate(90 536 88)" fill="#030500"/>
<rect x="536" y="84" width="4.00001" height="240" transform="rotate(90 536 84)" fill="#8381AD"/>
<rect x="536" y="80" width="4.00001" height="240" transform="rotate(90 536 80)" fill="#DEDBE4"/>
<rect x="544" y="44" width="36" height="256" transform="rotate(90 544 44)" fill="#B6B1C9"/>
<rect x="544" y="40" width="4" height="8" transform="rotate(90 544 40)" fill="#030500"/>
<rect x="296" y="40" width="4" height="8" transform="rotate(90 296 40)" fill="#030500"/>
<rect x="292" y="80" width="4" height="4" transform="rotate(90 292 80)" fill="#030500"/>
<rect x="292" y="76" width="4" height="4" transform="rotate(90 292 76)" fill="#8381AD"/>
<rect x="292" y="72" width="4" height="4" transform="rotate(90 292 72)" fill="#DEDBE4"/>
<rect x="544" y="80" width="4" height="4" transform="rotate(90 544 80)" fill="#030500"/>
<rect x="544" y="76" width="4" height="4" transform="rotate(90 544 76)" fill="#8381AD"/>
<rect x="544" y="72" width="4" height="4" transform="rotate(90 544 72)" fill="#DEDBE4"/>
<rect x="296" y="84" width="4" height="4" transform="rotate(90 296 84)" fill="#030500"/>
<rect x="296" y="80" width="4" height="4" transform="rotate(90 296 80)" fill="#8381AD"/>
<rect x="296" y="76" width="4" height="4" transform="rotate(90 296 76)" fill="#DEDBE4"/>
<rect x="540" y="84" width="4" height="4" transform="rotate(90 540 84)" fill="#030500"/>
<rect x="540" y="80" width="4" height="4" transform="rotate(90 540 80)" fill="#8381AD"/>
<rect x="540" y="76" width="4" height="4" transform="rotate(90 540 76)" fill="#DEDBE4"/>
<rect x="548" y="44" width="36" height="4" transform="rotate(90 548 44)" fill="#030500"/>
<rect x="532" y="28" width="32" height="232" transform="rotate(90 532 28)" fill="#F834EC"/>
<rect x="532" y="60" width="12" height="232" transform="rotate(90 532 60)" fill="#9A2093"/>
<rect x="528" y="24" width="4.00001" height="224" transform="rotate(90 528 24)" fill="#030500"/>
<rect x="528" y="28" width="4.00001" height="224" transform="rotate(90 528 28)" fill="#FF95F9"/>
<rect x="528" y="60" width="4.00001" height="224" transform="rotate(90 528 60)" fill="#FF95F9"/>
<rect x="528" y="72" width="4.00001" height="224" transform="rotate(90 528 72)" fill="#030500"/>
<rect x="532" y="28" width="4" height="4" transform="rotate(90 532 28)" fill="#030500"/>
<rect x="532" y="32" width="4" height="4" transform="rotate(90 532 32)" fill="#FF95F9"/>
<rect x="532" y="56" width="4" height="4" transform="rotate(90 532 56)" fill="#FF95F9"/>
<rect x="532" y="68" width="4" height="4" transform="rotate(90 532 68)" fill="#030500"/>
<rect x="304" y="28" width="4" height="4" transform="rotate(90 304 28)" fill="#030500"/>
<rect x="304" y="32" width="4" height="4" transform="rotate(90 304 32)" fill="#FF95F9"/>
<rect x="304" y="56" width="4" height="4" transform="rotate(90 304 56)" fill="#FF95F9"/>
<rect x="304" y="68" width="4" height="4" transform="rotate(90 304 68)" fill="#030500"/>
<rect x="300" y="32" width="36" height="4" transform="rotate(90 300 32)" fill="#030500"/>
<rect x="536" y="32" width="36" height="4" transform="rotate(90 536 32)" fill="#030500"/>
<g filter="url(#filter0_d_242_9244)">
<path d="M356.473 50.2222H354.695V48.4444H358.251V50.2222H361.806V46.6667H356.473V44.8889H354.695V41.3333H356.473V39.5556H363.584V41.3333H365.362V43.1111H361.806V41.3333H358.251V44.8889H363.584V46.6667H365.362V50.2222H363.584V52H356.473V50.2222ZM376.022 41.3333H377.799V44.8889H376.022V46.6667H370.688V52H367.133V39.5556H376.022V41.3333ZM374.244 44.8889V41.3333H370.688V44.8889H374.244ZM383.126 41.3333V39.5556H386.681V41.3333H388.459V44.8889H390.237V52H386.681V48.4444H383.126V52H379.57V44.8889H381.348V41.3333H383.126ZM383.126 46.6667H386.681V43.1111H383.126V46.6667ZM393.786 50.2222H392.008V41.3333H393.786V39.5556H400.897V41.3333H402.674V43.1111H399.119V41.3333H395.563V50.2222H399.119V48.4444H402.674V50.2222H400.897V52H393.786V50.2222ZM404.445 52V39.5556H415.112V41.3333H408.001V44.8889H413.334V46.6667H408.001V50.2222H415.112V52H404.445ZM432.881 41.3333H434.659V44.8889H432.881V46.6667H431.103V48.4444H432.881V50.2222H434.659V52H431.103V50.2222H429.326V48.4444H427.548V52H423.992V39.5556H432.881V41.3333ZM431.103 44.8889V41.3333H427.548V44.8889H431.103ZM438.207 50.2222H436.43V41.3333H438.207V39.5556H445.319V41.3333H447.096V50.2222H445.319V52H438.207V50.2222ZM443.541 50.2222V41.3333H439.985V50.2222H443.541ZM450.645 50.2222H448.867V41.3333H450.645V39.5556H457.756V41.3333H459.534V50.2222H457.756V52H450.645V50.2222ZM455.978 50.2222V41.3333H452.423V50.2222H455.978ZM464.86 41.3333H466.638V43.1111H470.194V41.3333H471.971V39.5556H475.527V52H471.971V44.8889H470.194V46.6667H466.638V44.8889H464.86V52H461.305V39.5556H464.86V41.3333Z" fill="white"/>
</g>
<g clip-path="url(#clip0_242_9244)">
<rect x="20" y="44" width="37" height="4" transform="rotate(90 20 44)" fill="#030500"/>
<rect x="268" y="88" width="4.00001" height="240" transform="rotate(90 268 88)" fill="#030500"/>
<rect x="268" y="84" width="4.00001" height="240" transform="rotate(90 268 84)" fill="#8381AD"/>
<rect x="268" y="80" width="4.00001" height="240" transform="rotate(90 268 80)" fill="#DEDBE4"/>
<rect x="276" y="44" width="36" height="256" transform="rotate(90 276 44)" fill="#B6B1C9"/>
<rect x="276" y="40" width="4" height="8" transform="rotate(90 276 40)" fill="#030500"/>
<rect x="28" y="40" width="4" height="8" transform="rotate(90 28 40)" fill="#030500"/>
<rect x="24" y="80" width="4" height="4" transform="rotate(90 24 80)" fill="#030500"/>
<rect x="24" y="76" width="4" height="4" transform="rotate(90 24 76)" fill="#8381AD"/>
<rect x="24" y="72" width="4" height="4" transform="rotate(90 24 72)" fill="#DEDBE4"/>
<rect x="276" y="80" width="4" height="4" transform="rotate(90 276 80)" fill="#030500"/>
<rect x="276" y="76" width="4" height="4" transform="rotate(90 276 76)" fill="#8381AD"/>
<rect x="276" y="72" width="4" height="4" transform="rotate(90 276 72)" fill="#DEDBE4"/>
<rect x="28" y="84" width="4" height="4" transform="rotate(90 28 84)" fill="#030500"/>
<rect x="28" y="80" width="4" height="4" transform="rotate(90 28 80)" fill="#8381AD"/>
<rect x="28" y="76" width="4" height="4" transform="rotate(90 28 76)" fill="#DEDBE4"/>
<rect x="272" y="84" width="4" height="4" transform="rotate(90 272 84)" fill="#030500"/>
<rect x="272" y="80" width="4" height="4" transform="rotate(90 272 80)" fill="#8381AD"/>
<rect x="272" y="76" width="4" height="4" transform="rotate(90 272 76)" fill="#DEDBE4"/>
<rect x="280" y="44" width="36" height="4" transform="rotate(90 280 44)" fill="#030500"/>
<rect x="264" y="28" width="40" height="232" transform="rotate(90 264 28)" fill="#FF83F7"/>
<rect x="228" y="68" width="4.00001" height="196" transform="rotate(90 228 68)" fill="#BA27B1"/>
<rect x="260" y="24" width="4.00001" height="224" transform="rotate(90 260 24)" fill="#030500"/>
<rect x="260" y="28" width="4.00001" height="224" transform="rotate(90 260 28)" fill="#FF95F9"/>
<rect x="260" y="68" width="4.00001" height="224" transform="rotate(90 260 68)" fill="#FF95F9"/>
<rect x="260" y="72" width="4.00001" height="224" transform="rotate(90 260 72)" fill="#030500"/>
<rect x="264" y="28" width="4" height="4" transform="rotate(90 264 28)" fill="#030500"/>
<rect x="264" y="32" width="4" height="4" transform="rotate(90 264 32)" fill="#FF95F9"/>
<rect x="264" y="64" width="4" height="4" transform="rotate(90 264 64)" fill="#FF95F9"/>
<rect x="264" y="68" width="4" height="4" transform="rotate(90 264 68)" fill="#030500"/>
<rect x="36" y="28" width="4" height="4" transform="rotate(90 36 28)" fill="#030500"/>
<rect x="36" y="32" width="4" height="4" transform="rotate(90 36 32)" fill="#FF95F9"/>
<rect x="36" y="64" width="4" height="4" transform="rotate(90 36 64)" fill="#FF95F9"/>
<rect x="36" y="68" width="4" height="4" transform="rotate(90 36 68)" fill="#030500"/>
<rect x="32" y="32" width="36" height="4" transform="rotate(90 32 32)" fill="#030500"/>
<rect x="268" y="32" width="36" height="4" transform="rotate(90 268 32)" fill="#030500"/>
<g filter="url(#filter1_d_242_9244)">
<path d="M63.5946 45.3333H65.3724V47.1111H68.928V45.3333H70.7057V43.5556H74.2613V56H70.7057V48.8889H68.928V50.6667H65.3724V48.8889H63.5946V56H60.0391V43.5556H63.5946V45.3333ZM79.5946 45.3333V43.5556H83.1502V45.3333H84.928V48.8889H86.7057V56H83.1502V52.4444H79.5946V56H76.0391V48.8889H77.8168V45.3333H79.5946ZM79.5946 50.6667H83.1502V47.1111H79.5946V50.6667ZM90.2543 54.2222H88.4766V52.4444H92.0321V54.2222H95.5877V50.6667H90.2543V48.8889H88.4766V45.3333H90.2543V43.5556H97.3655V45.3333H99.1432V47.1111H95.5877V45.3333H92.0321V48.8889H97.3655V50.6667H99.1432V54.2222H97.3655V56H90.2543V54.2222ZM104.47 56V45.3333H100.914V43.5556H111.581V45.3333H108.025V56H104.47ZM113.352 56V43.5556H124.018V45.3333H116.907V48.8889H122.24V50.6667H116.907V54.2222H124.018V56H113.352ZM134.678 45.3333H136.456V48.8889H134.678V50.6667H132.9V52.4444H134.678V54.2222H136.456V56H132.9V54.2222H131.122V52.4444H129.345V56H125.789V43.5556H134.678V45.3333ZM132.9 48.8889V45.3333H129.345V48.8889H132.9ZM148.891 48.8889H152.447V45.3333H148.891V48.8889ZM152.447 50.6667H148.891V54.2222H152.447V50.6667ZM145.336 56V43.5556H154.225V45.3333H156.003V48.8889H154.225V50.6667H156.003V54.2222H154.225V56H145.336ZM157.773 56V43.5556H168.44V45.3333H161.329V48.8889H166.662V50.6667H161.329V54.2222H168.44V56H157.773ZM177.322 43.5556V45.3333H179.1V47.1111H180.878V52.4444H179.1V54.2222H177.322V56H170.211V43.5556H177.322ZM175.544 45.3333H173.766V54.2222H175.544V52.4444H177.322V47.1111H175.544V45.3333ZM191.537 45.3333H193.315V48.8889H191.537V50.6667H189.76V52.4444H191.537V54.2222H193.315V56H189.76V54.2222H187.982V52.4444H186.204V56H182.648V43.5556H191.537V45.3333ZM189.76 48.8889V45.3333H186.204V48.8889H189.76ZM196.864 54.2222H195.086V45.3333H196.864V43.5556H203.975V45.3333H205.753V54.2222H203.975V56H196.864V54.2222ZM202.197 54.2222V45.3333H198.641V54.2222H202.197ZM209.301 54.2222H207.523V45.3333H209.301V43.5556H216.412V45.3333H218.19V54.2222H216.412V56H209.301V54.2222ZM214.635 54.2222V45.3333H211.079V54.2222H214.635ZM223.516 45.3333H225.294V47.1111H228.85V45.3333H230.628V43.5556H234.183V56H230.628V48.8889H228.85V50.6667H225.294V48.8889H223.516V56H219.961V43.5556H223.516V45.3333Z" fill="white"/>
</g>
</g>
<defs>
<filter id="filter0_d_242_9244" x="352.695" y="39.5555" width="122.832" height="14.4445" filterUnits="userSpaceOnUse" color-interpolation-filters="sRGB">
<feFlood flood-opacity="0" result="BackgroundImageFix"/>
<feColorMatrix in="SourceAlpha" type="matrix" values="0 0 0 0 0 0 0 0 0 0 0 0 0 0 0 0 0 0 127 0" result="hardAlpha"/>
<feOffset dx="-2" dy="2"/>
<feComposite in2="hardAlpha" operator="out"/>
<feColorMatrix type="matrix" values="0 0 0 0 0.603922 0 0 0 0 0.12549 0 0 0 0 0.576471 0 0 0 1 0"/>
<feBlend mode="normal" in2="BackgroundImageFix" result="effect1_dropShadow_242_9244"/>
<feBlend mode="normal" in="SourceGraphic" in2="effect1_dropShadow_242_9244" result="shape"/>
</filter>
<filter id="filter1_d_242_9244" x="58.0391" y="43.5555" width="176.144" height="14.4445" filterUnits="userSpaceOnUse" color-interpolation-filters="sRGB">
<feFlood flood-opacity="0" result="BackgroundImageFix"/>
<feColorMatrix in="SourceAlpha" type="matrix" values="0 0 0 0 0 0 0 0 0 0 0 0 0 0 0 0 0 0 127 0" result="hardAlpha"/>
<feOffset dx="-2" dy="2"/>
<feComposite in2="hardAlpha" operator="out"/>
<feColorMatrix type="matrix" values="0 0 0 0 0.603922 0 0 0 0 0.12549 0 0 0 0 0.576471 0 0 0 1 0"/>
<feBlend mode="normal" in2="BackgroundImageFix" result="effect1_dropShadow_242_9244"/>
<feBlend mode="normal" in="SourceGraphic" in2="effect1_dropShadow_242_9244" result="shape"/>
</filter>
<clipPath id="clip0_242_9244">
<rect width="264" height="68" fill="white" transform="translate(16 24)"/>
</clipPath>
</defs>
</svg>
