<svg width="1106" height="70" viewBox="0 0 1106 70" fill="none" xmlns="http://www.w3.org/2000/svg">
<rect x="1102" y="4.00003" width="54" height="1098" transform="rotate(90 1102 4.00003)" fill="#615F83"/>
<rect x="1098" y="66.0001" width="4.00004" height="1090" transform="rotate(90 1098 66.0001)" fill="#030500"/>
<rect x="1098" y="6.10352e-05" width="4.00004" height="1090" transform="rotate(90 1098 6.10352e-05)" fill="#030500"/>
<rect x="1098" y="62" width="4.00004" height="1090" transform="rotate(90 1098 62)" fill="#42415E"/>
<rect x="1098" y="58" width="4.00004" height="1090" transform="rotate(90 1098 58)" fill="#908EBA"/>
<rect x="1106" y="62" width="4" height="54" transform="rotate(-180 1106 62)" fill="#030500"/>
<rect x="1102" y="62" width="4" height="4" transform="rotate(90 1102 62)" fill="#030500"/>
<rect x="1102" y="4.00003" width="4" height="4" transform="rotate(90 1102 4.00003)" fill="#030500"/>
<rect x="1102" y="58" width="4" height="4" transform="rotate(90 1102 58)" fill="#42415E"/>
<rect x="1102" y="54" width="4" height="4" transform="rotate(90 1102 54)" fill="#908EBA"/>
<rect x="8" y="62" width="4" height="4" transform="rotate(90 8 62)" fill="#030500"/>
<rect x="8" y="54" width="4" height="4" transform="rotate(90 8 54)" fill="#908EBA"/>
<rect x="4" y="62" width="4" height="54" transform="rotate(-180 4 62)" fill="#030500"/>
<rect x="8" y="58" width="4" height="4" transform="rotate(90 8 58)" fill="#42415E"/>
<rect x="8" y="4" width="4" height="4" transform="rotate(90 8 4)" fill="#030500"/>
<rect x="948" y="13" width="36" height="235" transform="rotate(90 948 13)" fill="#7C8CD9"/>
<path d="M760.744 37V31.6667H757.188V37H753.633V24.5556H757.188V29.8889H760.744V24.5556H764.299V37H760.744ZM769.626 35.2222H773.181V29.8889H769.626V35.2222ZM767.848 35.2222H766.07V29.8889H767.848V28.1111H776.737V37H767.848V35.2222ZM794.506 33.4444H796.284V35.2222H794.506V37H785.617V28.1111H794.506V29.8889H796.284V31.6667H794.506V33.4444ZM792.728 29.8889H789.173V31.6667H792.728V29.8889ZM792.728 35.2222V33.4444H789.173V35.2222H792.728ZM806.944 37V28.1111H810.499V37H806.944ZM798.055 37V28.1111H801.61V31.6667H803.388V33.4444H801.61V35.2222H803.388V37H798.055ZM805.166 35.2222H803.388V33.4444H805.166V35.2222ZM821.162 33.4444H822.94V35.2222H821.162V37H812.273V28.1111H821.162V29.8889H822.94V31.6667H821.162V33.4444ZM819.385 29.8889H815.829V31.6667H819.385V29.8889ZM819.385 35.2222V33.4444H815.829V35.2222H819.385ZM826.489 35.2222H824.711V29.8889H826.489V28.1111H833.6V29.8889H835.378V35.2222H833.6V37H826.489V35.2222ZM831.822 29.8889H828.266V35.2222H831.822V29.8889ZM846.037 38.7778V37H840.704V38.7778H837.148V35.2222H838.926V29.8889H840.704V28.1111H846.037V29.8889H847.815V35.2222H849.593V38.7778H846.037ZM842.482 35.2222H844.26V29.8889H842.482V35.2222Z" fill="white"/>
<rect x="952" y="17" width="28" height="4" transform="rotate(90 952 17)" fill="#C7D1FF"/>
<rect x="713" y="17" width="28" height="4" transform="rotate(90 713 17)" fill="#626DB9"/>
<rect x="948" y="17" width="235" height="3.99998" transform="rotate(-180 948 17)" fill="#C7D1FF"/>
<rect x="948" y="49" width="235" height="3.99998" transform="rotate(-180 948 49)" fill="#626DB9"/>
<rect x="952" y="45" width="4" height="4" transform="rotate(90 952 45)" fill="#030500"/>
<rect x="713" y="45" width="4" height="4" transform="rotate(90 713 45)" fill="#030500"/>
<rect x="952" y="13" width="4" height="4" transform="rotate(90 952 13)" fill="#030500"/>
<rect x="713" y="13" width="4" height="4" transform="rotate(90 713 13)" fill="#030500"/>
<rect x="956" y="17" width="28" height="4" transform="rotate(90 956 17)" fill="#030500"/>
<rect x="709" y="17" width="28" height="4" transform="rotate(90 709 17)" fill="#030500"/>
<rect x="948" y="13" width="235" height="3.99998" transform="rotate(-180 948 13)" fill="#030500"/>
<rect x="948" y="53" width="235" height="3.99998" transform="rotate(-180 948 53)" fill="#030500"/>
<rect x="1086" y="13" width="28" height="186" transform="rotate(90 1086 13)" fill="#719F09"/>
<rect x="1086" y="41" width="8.00001" height="186" transform="rotate(90 1086 41)" fill="#54730E"/>
<rect x="1082" y="9" width="4.00001" height="170" transform="rotate(90 1082 9)" fill="#030500"/>
<rect x="1082" y="13" width="4.00001" height="178" transform="rotate(90 1082 13)" fill="#B2D26B"/>
<rect x="1082" y="41" width="4.00001" height="178" transform="rotate(90 1082 41)" fill="#B2D26B"/>
<rect x="1082" y="49" width="4.00001" height="169" transform="rotate(90 1082 49)" fill="#030500"/>
<rect x="904" y="13" width="4" height="4" transform="rotate(90 904 13)" fill="#030500"/>
<rect x="904" y="45" width="4" height="4" transform="rotate(90 904 45)" fill="#030500"/>
<rect x="900" y="17" width="28" height="4" transform="rotate(90 900 17)" fill="#030500"/>
<g filter="url(#filter0_d_242_10064)">
<path d="M913.934 33.2222H912.156V24.3333H913.934V22.5556L921.045 22.5556V24.3333H922.823V33.2222H921.045V35H913.934V33.2222ZM919.267 33.2222V24.3333L915.712 24.3333V33.2222H919.267ZM928.149 35H924.594V33.2222H928.149V35ZM931.7 33.2222L929.922 33.2222V24.3333H931.7V22.5556L938.811 22.5556V24.3333H940.589V33.2222H938.811V35H931.7V33.2222ZM937.033 33.2222V24.3333L933.477 24.3333V33.2222H937.033ZM944.137 33.2222H942.359V24.3333H944.137V22.5556H951.248V24.3333H953.026V33.2222H951.248V35H944.137V33.2222ZM949.47 33.2222V24.3333H945.915V33.2222H949.47ZM956.575 33.2222H954.797V24.3333H956.575V22.5556L963.686 22.5556V24.3333H965.464V33.2222L963.686 33.2222V35H956.575V33.2222ZM961.908 33.2222V24.3333L958.352 24.3333V33.2222H961.908ZM967.234 26.1111V24.3333H969.012V22.5556H976.123V24.3333H977.901V27.8889H976.123V29.6667H977.901V33.2222H976.123V35H969.012V33.2222H967.234V31.4444H970.79V33.2222H974.345V29.6667H970.79V27.8889H974.345V24.3333H970.79V26.1111H967.234ZM981.45 33.2222H979.672V31.4444H983.227V33.2222H986.783V29.6667H979.672V22.5556L990.339 22.5556V24.3333H983.227V27.8889H988.561V29.6667H990.339V33.2222H988.561V35H981.45V33.2222ZM995.665 33.2222H999.22V29.6667H995.665V33.2222ZM995.665 27.8889H999.22V24.3333H995.665V27.8889ZM993.887 35V33.2222H992.109V29.6667H993.887V27.8889H992.109V24.3333H993.887V22.5556H1001V24.3333H1002.78V27.8889H1001V29.6667H1002.78V33.2222H1001V35H993.887ZM1011.66 29.6667V26.1111H1009.88V27.8889H1008.1V29.6667H1011.66ZM1013.44 29.6667H1015.21V31.4444H1013.44V35H1009.88V31.4444L1004.55 31.4444V27.8889L1006.32 27.8889V26.1111H1008.1V24.3333H1009.88V22.5556H1013.44V29.6667ZM1018.76 33.2222H1016.98V31.4444L1020.54 31.4444V33.2222H1024.1V29.6667L1016.98 29.6667V22.5556L1027.65 22.5556V24.3333L1020.54 24.3333V27.8889L1025.87 27.8889V29.6667H1027.65V33.2222H1025.87V35L1018.76 35V33.2222ZM1040.09 27.8889H1043.64V24.3333H1040.09V27.8889ZM1043.64 29.6667H1040.09V33.2222H1043.64V29.6667ZM1036.53 35V22.5556H1045.42V24.3333H1047.2V27.8889H1045.42V29.6667H1047.2V33.2222H1045.42V35H1036.53ZM1052.52 35V24.3333H1048.97V22.5556H1059.64V24.3333H1056.08V35L1052.52 35ZM1063.18 33.2222H1061.41V24.3333H1063.18V22.5556L1070.3 22.5556V24.3333H1072.07V26.1111H1068.52V24.3333H1064.96V33.2222H1068.52V31.4444H1072.07V33.2222H1070.3V35H1063.18V33.2222Z" fill="white"/>
</g>
<rect x="904" y="17" width="4" height="4" transform="rotate(90 904 17)" fill="#B2D26B"/>
<rect x="904" y="37" width="4" height="4" transform="rotate(90 904 37)" fill="#B2D26B"/>
<rect x="1086" y="13" width="4" height="4" transform="rotate(90 1086 13)" fill="#030500"/>
<rect x="1086" y="17" width="4" height="4" transform="rotate(90 1086 17)" fill="#B2D26B"/>
<rect x="1086" y="37" width="4" height="4" transform="rotate(90 1086 37)" fill="#B2D26B"/>
<rect x="1086" y="45" width="4" height="4" transform="rotate(90 1086 45)" fill="#030500"/>
<rect x="1090" y="17" width="28" height="4" transform="rotate(90 1090 17)" fill="#030500"/>
<rect x="559" y="13" width="36" height="235" transform="rotate(90 559 13)" fill="#7C8CD9"/>
<path d="M361.088 37V31.6667H357.532V37H353.977V24.5556H357.532V29.8889H361.088V24.5556H364.643V37H361.088ZM369.97 35.2222H373.525V29.8889H369.97V35.2222ZM368.192 35.2222H366.414V29.8889H368.192V28.1111H377.081V37H368.192V35.2222ZM393.072 37V29.8889H389.516V37H385.961V28.1111H396.628V37H393.072ZM400.176 35.2222H398.398V29.8889H400.176V28.1111H407.287V29.8889H409.065V35.2222H407.287V37H400.176V35.2222ZM405.51 29.8889H401.954V35.2222H405.51V29.8889ZM410.836 37V28.1111H414.391V31.6667H416.169V29.8889H417.947V28.1111H421.503V29.8889H419.725V31.6667H417.947V33.4444H419.725V35.2222H421.503V37H417.947V35.2222H416.169V33.4444H414.391V37H410.836ZM433.94 28.1111V33.4444H432.162V37H430.385V38.7778H423.273V37H428.607V35.2222H425.051V33.4444H423.273V28.1111H426.829V33.4444H430.385V28.1111H433.94ZM442.822 37V29.8889H439.266V37H435.711V28.1111H446.378V37H442.822ZM448.148 37V28.1111H451.704V31.6667H453.482V29.8889H455.26V28.1111H458.815V29.8889H457.037V31.6667H455.26V33.4444H457.037V35.2222H458.815V37H455.26V35.2222H453.482V33.4444H451.704V37H448.148ZM464.141 35.2222V37H460.586V28.1111H464.141V31.6667H465.919V29.8889H467.697V28.1111H471.253V37H467.697V33.4444H465.919V35.2222H464.141Z" fill="white"/>
<rect x="563" y="17" width="28" height="4" transform="rotate(90 563 17)" fill="#C7D1FF"/>
<rect x="324" y="17" width="28" height="4" transform="rotate(90 324 17)" fill="#626DB9"/>
<rect x="559" y="17" width="235" height="3.99998" transform="rotate(-180 559 17)" fill="#C7D1FF"/>
<rect x="559" y="49" width="235" height="3.99998" transform="rotate(-180 559 49)" fill="#626DB9"/>
<rect x="563" y="45" width="4" height="4" transform="rotate(90 563 45)" fill="#030500"/>
<rect x="324" y="45" width="4" height="4" transform="rotate(90 324 45)" fill="#030500"/>
<rect x="563" y="13" width="4" height="4" transform="rotate(90 563 13)" fill="#030500"/>
<rect x="324" y="13" width="4" height="4" transform="rotate(90 324 13)" fill="#030500"/>
<rect x="567" y="17" width="28" height="4" transform="rotate(90 567 17)" fill="#030500"/>
<rect x="320" y="17" width="28" height="4" transform="rotate(90 320 17)" fill="#030500"/>
<rect x="559" y="13" width="235" height="3.99998" transform="rotate(-180 559 13)" fill="#030500"/>
<rect x="559" y="53" width="235" height="3.99998" transform="rotate(-180 559 53)" fill="#030500"/>
<rect x="697" y="13" width="28" height="186" transform="rotate(90 697 13)" fill="#719F09"/>
<rect x="697" y="41" width="8.00001" height="186" transform="rotate(90 697 41)" fill="#54730E"/>
<rect x="693" y="9" width="4.00001" height="170" transform="rotate(90 693 9)" fill="#030500"/>
<rect x="693" y="13" width="4.00001" height="178" transform="rotate(90 693 13)" fill="#B2D26B"/>
<rect x="693" y="41" width="4.00001" height="178" transform="rotate(90 693 41)" fill="#B2D26B"/>
<rect x="693" y="49" width="4.00001" height="169" transform="rotate(90 693 49)" fill="#030500"/>
<rect x="515" y="13" width="4" height="4" transform="rotate(90 515 13)" fill="#030500"/>
<rect x="515" y="45" width="4" height="4" transform="rotate(90 515 45)" fill="#030500"/>
<rect x="511" y="17" width="28" height="4" transform="rotate(90 511 17)" fill="#030500"/>
<g filter="url(#filter1_d_242_10064)">
<path d="M524.934 33.2222H523.156V24.3333H524.934V22.5556L532.045 22.5556V24.3333H533.823V33.2222H532.045V35H524.934V33.2222ZM530.267 33.2222V24.3333L526.712 24.3333V33.2222H530.267ZM539.149 35H535.594V33.2222H539.149V35ZM542.7 33.2222L540.922 33.2222V24.3333H542.7V22.5556L549.811 22.5556V24.3333H551.589V33.2222H549.811V35H542.7V33.2222ZM548.033 33.2222V24.3333L544.477 24.3333V33.2222H548.033ZM555.137 33.2222H553.359V24.3333H555.137V22.5556H562.248V24.3333H564.026V33.2222H562.248V35H555.137V33.2222ZM560.47 33.2222V24.3333H556.915V33.2222H560.47ZM567.575 33.2222H565.797V24.3333H567.575V22.5556L574.686 22.5556V24.3333H576.464V33.2222L574.686 33.2222V35H567.575V33.2222ZM572.908 33.2222V24.3333L569.352 24.3333V33.2222H572.908ZM578.234 26.1111V24.3333H580.012V22.5556H587.123V24.3333H588.901V27.8889H587.123V29.6667H588.901V33.2222H587.123V35H580.012V33.2222H578.234V31.4444H581.79V33.2222H585.345V29.6667H581.79V27.8889H585.345V24.3333H581.79V26.1111H578.234ZM592.45 33.2222H590.672V31.4444H594.227V33.2222H597.783V29.6667H590.672V22.5556L601.339 22.5556V24.3333H594.227V27.8889H599.561V29.6667H601.339V33.2222H599.561V35H592.45V33.2222ZM606.665 33.2222H610.22V29.6667H606.665V33.2222ZM606.665 27.8889H610.22V24.3333H606.665V27.8889ZM604.887 35V33.2222H603.109V29.6667H604.887V27.8889H603.109V24.3333H604.887V22.5556H611.998V24.3333H613.776V27.8889H611.998V29.6667H613.776V33.2222H611.998V35H604.887ZM622.658 29.6667V26.1111H620.88V27.8889H619.102V29.6667H622.658ZM624.436 29.6667H626.214V31.4444H624.436V35H620.88V31.4444L615.547 31.4444V27.8889L617.325 27.8889V26.1111H619.102V24.3333H620.88V22.5556H624.436V29.6667ZM629.762 33.2222H627.984V31.4444L631.54 31.4444V33.2222H635.095V29.6667L627.984 29.6667V22.5556L638.651 22.5556V24.3333L631.54 24.3333V27.8889L636.873 27.8889V29.6667H638.651V33.2222H636.873V35L629.762 35V33.2222ZM651.087 27.8889H654.642V24.3333H651.087V27.8889ZM654.642 29.6667H651.087V33.2222H654.642V29.6667ZM647.531 35V22.5556H656.42V24.3333H658.198V27.8889H656.42V29.6667H658.198V33.2222H656.42V35H647.531ZM663.524 35V24.3333H659.969V22.5556H670.635V24.3333H667.08V35L663.524 35ZM674.184 33.2222H672.406V24.3333H674.184V22.5556L681.295 22.5556V24.3333H683.073V26.1111H679.517V24.3333H675.962V33.2222H679.517V31.4444H683.073V33.2222H681.295V35H674.184V33.2222Z" fill="white"/>
</g>
<rect x="515" y="17" width="4" height="4" transform="rotate(90 515 17)" fill="#B2D26B"/>
<rect x="515" y="37" width="4" height="4" transform="rotate(90 515 37)" fill="#B2D26B"/>
<rect x="697" y="13" width="4" height="4" transform="rotate(90 697 13)" fill="#030500"/>
<rect x="697" y="17" width="4" height="4" transform="rotate(90 697 17)" fill="#B2D26B"/>
<rect x="697" y="37" width="4" height="4" transform="rotate(90 697 37)" fill="#B2D26B"/>
<rect x="697" y="45" width="4" height="4" transform="rotate(90 697 45)" fill="#030500"/>
<rect x="701" y="17" width="28" height="4" transform="rotate(90 701 17)" fill="#030500"/>
<rect x="259" y="13" width="36" height="235" transform="rotate(90 259 13)" fill="#7C8CD9"/>
<path d="M69.4618 29.8889H73.0174V26.3333H69.4618V29.8889ZM73.0174 31.6667H69.4618V35.2222H73.0174V31.6667ZM65.9062 37V24.5556H74.7951V26.3333H76.5729V29.8889H74.7951V31.6667H76.5729V35.2222H74.7951V37H65.9062ZM81.8993 35.2222H85.4549V29.8889H81.8993V35.2222ZM80.1215 35.2222H78.3438V29.8889H80.1215V28.1111H89.0104V37H80.1215V35.2222ZM90.7812 37V35.2222H92.559V28.1111H101.448V37H97.8924V29.8889H96.1146V35.2222H94.3368V37H90.7812ZM115.663 29.8889H117.441V35.2222H115.663V37H110.33V35.2222H108.552V33.4444H106.774V37H103.219V28.1111H106.774V31.6667H108.552V29.8889H110.33V28.1111H115.663V29.8889ZM113.885 35.2222V29.8889H112.108V35.2222H113.885ZM119.219 29.8889V28.1111H129.885V29.8889H126.33V37H122.774V29.8889H119.219ZM135.212 35.2222H138.767V29.8889H135.212V35.2222ZM133.434 35.2222H131.656V29.8889H133.434V28.1111H142.323V37H133.434V35.2222Z" fill="white"/>
<rect x="263" y="17" width="28" height="4" transform="rotate(90 263 17)" fill="#C7D1FF"/>
<rect x="24" y="17" width="28" height="4" transform="rotate(90 24 17)" fill="#626DB9"/>
<rect x="259" y="17" width="235" height="3.99998" transform="rotate(-180 259 17)" fill="#C7D1FF"/>
<rect x="259" y="49" width="235" height="3.99998" transform="rotate(-180 259 49)" fill="#626DB9"/>
<rect x="263" y="45" width="4" height="4" transform="rotate(90 263 45)" fill="#030500"/>
<rect x="24" y="45" width="4" height="4" transform="rotate(90 24 45)" fill="#030500"/>
<rect x="263" y="13" width="4" height="4" transform="rotate(90 263 13)" fill="#030500"/>
<rect x="24" y="13" width="4" height="4" transform="rotate(90 24 13)" fill="#030500"/>
<rect x="267" y="17" width="28" height="4" transform="rotate(90 267 17)" fill="#030500"/>
<rect x="20" y="17" width="28" height="4" transform="rotate(90 20 17)" fill="#030500"/>
<rect x="259" y="13" width="235" height="3.99998" transform="rotate(-180 259 13)" fill="#030500"/>
<rect x="259" y="53" width="235" height="3.99998" transform="rotate(-180 259 53)" fill="#030500"/>
<rect x="272" y="13" width="28" height="78" transform="rotate(90 272 13)" fill="#719F09"/>
<rect x="272" y="41" width="8" height="78" transform="rotate(90 272 41)" fill="#54730E"/>
<rect x="276" y="9" width="4" height="70" transform="rotate(90 276 9)" fill="#030500"/>
<rect x="272" y="13" width="4" height="74" transform="rotate(90 272 13)" fill="#B2D26B"/>
<rect x="268" y="41" width="4" height="70" transform="rotate(90 268 41)" fill="#B2D26B"/>
<rect x="276" y="49" width="4" height="70" transform="rotate(90 276 49)" fill="#030500"/>
<rect x="198" y="13" width="4" height="4" transform="rotate(90 198 13)" fill="#030500"/>
<rect x="198" y="45" width="4" height="4" transform="rotate(90 198 45)" fill="#030500"/>
<rect x="194" y="17" width="28" height="4" transform="rotate(90 194 17)" fill="#030500"/>
<rect x="272" y="17" width="28" height="4" transform="rotate(90 272 17)" fill="#030500"/>
<g filter="url(#filter2_d_242_10064)">
<path d="M215.899 27.8889H219.455V24.3333H215.899V27.8889ZM219.455 29.6667H215.899V33.2222H219.455V29.6667ZM212.344 35V22.5556H221.233V24.3333H223.01V27.8889H221.233V29.6667H223.01V33.2222H221.233V35H212.344ZM228.337 35V24.3333H224.781V22.5556L235.448 22.5556V24.3333H231.892V35H228.337ZM238.997 33.2222H237.219V24.3333H238.997V22.5556H246.108V24.3333H247.885V26.1111H244.33V24.3333H240.774V33.2222H244.33V31.4444H247.885V33.2222H246.108V35H238.997V33.2222Z" fill="white"/>
</g>
<rect x="198" y="17" width="4" height="4" transform="rotate(90 198 17)" fill="#B2D26B"/>
<rect x="198" y="37" width="4" height="4" transform="rotate(90 198 37)" fill="#B2D26B"/>
<rect x="308" y="13" width="28" height="36" transform="rotate(90 308 13)" fill="#615F83"/>
<rect x="308" y="41" width="8" height="36" transform="rotate(90 308 41)" fill="#42415E"/>
<rect x="304" y="9" width="4" height="28" transform="rotate(90 304 9)" fill="#030500"/>
<rect x="304" y="13" width="4" height="28" transform="rotate(90 304 13)" fill="#908EBA"/>
<rect x="304" y="41" width="4" height="28" transform="rotate(90 304 41)" fill="#908EBA"/>
<rect x="304" y="49" width="4" height="28" transform="rotate(90 304 49)" fill="#030500"/>
<rect x="308" y="13" width="4" height="4" transform="rotate(90 308 13)" fill="#030500"/>
<rect x="308" y="17" width="4" height="4" transform="rotate(90 308 17)" fill="#908EBA"/>
<rect x="308" y="37" width="4" height="4" transform="rotate(90 308 37)" fill="#908EBA"/>
<rect x="308" y="45" width="4" height="4" transform="rotate(90 308 45)" fill="#030500"/>
<rect x="276" y="13" width="4" height="4" transform="rotate(90 276 13)" fill="#030500"/>
<rect x="276" y="17" width="4" height="4" transform="rotate(90 276 17)" fill="#908EBA"/>
<rect x="276" y="37" width="4" height="4" transform="rotate(90 276 37)" fill="#908EBA"/>
<rect x="276" y="45" width="4" height="4" transform="rotate(90 276 45)" fill="#030500"/>
<rect x="272" y="17" width="28" height="4" transform="rotate(90 272 17)" fill="#030500"/>
<rect x="312" y="17" width="28" height="4" transform="rotate(90 312 17)" fill="#030500"/>
<g filter="url(#filter3_d_242_10064)">
<path d="M284.5 23.7812L286.278 23.7812L286.278 27.3368L288.056 27.3368L288.056 29.1146L289.833 29.1146L289.833 30.8924L291.611 30.8924L291.611 29.1146L293.389 29.1146L293.389 27.3368L295.167 27.3368L295.167 23.7812L296.944 23.7813L296.944 29.1146L295.167 29.1146L295.167 30.8924L293.389 30.8924L293.389 32.6701L291.611 32.6701L291.611 34.4479L289.833 34.4479L289.833 32.6701L288.056 32.6701L288.056 30.8924L286.278 30.8924L286.278 29.1146L284.5 29.1146L284.5 23.7812Z" fill="white"/>
</g>
<defs>
<filter id="filter0_d_242_10064" x="910.156" y="22.5555" width="161.917" height="14.4445" filterUnits="userSpaceOnUse" color-interpolation-filters="sRGB">
<feFlood flood-opacity="0" result="BackgroundImageFix"/>
<feColorMatrix in="SourceAlpha" type="matrix" values="0 0 0 0 0 0 0 0 0 0 0 0 0 0 0 0 0 0 127 0" result="hardAlpha"/>
<feOffset dx="-2" dy="2"/>
<feComposite in2="hardAlpha" operator="out"/>
<feColorMatrix type="matrix" values="0 0 0 0 0.329412 0 0 0 0 0.45098 0 0 0 0 0.054902 0 0 0 1 0"/>
<feBlend mode="normal" in2="BackgroundImageFix" result="effect1_dropShadow_242_10064"/>
<feBlend mode="normal" in="SourceGraphic" in2="effect1_dropShadow_242_10064" result="shape"/>
</filter>
<filter id="filter1_d_242_10064" x="521.156" y="22.5555" width="161.917" height="14.4445" filterUnits="userSpaceOnUse" color-interpolation-filters="sRGB">
<feFlood flood-opacity="0" result="BackgroundImageFix"/>
<feColorMatrix in="SourceAlpha" type="matrix" values="0 0 0 0 0 0 0 0 0 0 0 0 0 0 0 0 0 0 127 0" result="hardAlpha"/>
<feOffset dx="-2" dy="2"/>
<feComposite in2="hardAlpha" operator="out"/>
<feColorMatrix type="matrix" values="0 0 0 0 0.329412 0 0 0 0 0.45098 0 0 0 0 0.054902 0 0 0 1 0"/>
<feBlend mode="normal" in2="BackgroundImageFix" result="effect1_dropShadow_242_10064"/>
<feBlend mode="normal" in="SourceGraphic" in2="effect1_dropShadow_242_10064" result="shape"/>
</filter>
<filter id="filter2_d_242_10064" x="210.344" y="22.5555" width="37.5416" height="14.4445" filterUnits="userSpaceOnUse" color-interpolation-filters="sRGB">
<feFlood flood-opacity="0" result="BackgroundImageFix"/>
<feColorMatrix in="SourceAlpha" type="matrix" values="0 0 0 0 0 0 0 0 0 0 0 0 0 0 0 0 0 0 127 0" result="hardAlpha"/>
<feOffset dx="-2" dy="2"/>
<feComposite in2="hardAlpha" operator="out"/>
<feColorMatrix type="matrix" values="0 0 0 0 0.329412 0 0 0 0 0.45098 0 0 0 0 0.054902 0 0 0 1 0"/>
<feBlend mode="normal" in2="BackgroundImageFix" result="effect1_dropShadow_242_10064"/>
<feBlend mode="normal" in="SourceGraphic" in2="effect1_dropShadow_242_10064" result="shape"/>
</filter>
<filter id="filter3_d_242_10064" x="282.5" y="23.7812" width="14.4445" height="12.6667" filterUnits="userSpaceOnUse" color-interpolation-filters="sRGB">
<feFlood flood-opacity="0" result="BackgroundImageFix"/>
<feColorMatrix in="SourceAlpha" type="matrix" values="0 0 0 0 0 0 0 0 0 0 0 0 0 0 0 0 0 0 127 0" result="hardAlpha"/>
<feOffset dx="-2" dy="2"/>
<feComposite in2="hardAlpha" operator="out"/>
<feColorMatrix type="matrix" values="0 0 0 0 0.258824 0 0 0 0 0.254902 0 0 0 0 0.368627 0 0 0 1 0"/>
<feBlend mode="normal" in2="BackgroundImageFix" result="effect1_dropShadow_242_10064"/>
<feBlend mode="normal" in="SourceGraphic" in2="effect1_dropShadow_242_10064" result="shape"/>
</filter>
</defs>
</svg>
