<svg width="232" height="19" viewBox="0 0 232 19" fill="none" xmlns="http://www.w3.org/2000/svg">
<path d="M0.634922 14.24H2.29492L7.81492 1.22H9.67492L15.1949 14.24H16.8749V18.78H15.5349L14.9749 16H2.51492L1.95492 18.78H0.634922V14.24ZM13.1949 14.24L8.75492 3.7L4.29492 14.24H13.1949ZM18.0095 8.62C18.0095 7.55333 18.2095 6.55333 18.6095 5.62C19.0228 4.68667 19.5828 3.87333 20.2895 3.18C21.0095 2.48667 21.8495 1.94667 22.8095 1.56C23.7695 1.16 24.8028 0.959999 25.9095 0.959999C26.9495 0.959999 27.9361 1.16667 28.8695 1.58C29.8028 1.98 30.6161 2.52667 31.3095 3.22C32.0028 3.91333 32.5495 4.72667 32.9495 5.66C33.3628 6.58 33.5695 7.56667 33.5695 8.62C33.5695 9.67333 33.3628 10.6667 32.9495 11.6C32.5495 12.5333 31.9961 13.3467 31.2895 14.04C30.5961 14.72 29.7761 15.26 28.8295 15.66C27.8961 16.06 26.8961 16.26 25.8295 16.26C24.7495 16.26 23.7361 16.06 22.7895 15.66C21.8428 15.26 21.0161 14.7133 20.3095 14.02C19.6028 13.3267 19.0428 12.52 18.6295 11.6C18.2161 10.6667 18.0095 9.67333 18.0095 8.62ZM19.9295 8.62C19.9295 9.42 20.0828 10.18 20.3895 10.9C20.6961 11.6067 21.1161 12.2267 21.6495 12.76C22.1828 13.2933 22.8028 13.7133 23.5095 14.02C24.2295 14.3267 24.9961 14.48 25.8095 14.48C26.6228 14.48 27.3828 14.3267 28.0895 14.02C28.7961 13.7133 29.4095 13.3 29.9295 12.78C30.4628 12.2467 30.8828 11.6267 31.1895 10.92C31.4961 10.2133 31.6495 9.45333 31.6495 8.64C31.6495 7.81333 31.4961 7.04 31.1895 6.32C30.8828 5.6 30.4628 4.98 29.9295 4.46C29.3961 3.92667 28.7695 3.50667 28.0495 3.2C27.3295 2.89333 26.5561 2.74 25.7295 2.74C24.9428 2.74 24.1961 2.9 23.4895 3.22C22.7828 3.52667 22.1628 3.94667 21.6295 4.48C21.1095 5.01333 20.6961 5.64 20.3895 6.36C20.0828 7.06667 19.9295 7.82 19.9295 8.62ZM35.8765 1.22H38.6765L43.5765 13.34L48.4765 1.22H51.2565V16H49.3565V3.54L44.3565 16H42.7565L37.7765 3.54V16H35.8765V1.22ZM59.7827 1.22H63.1027C64.9027 1.22 66.2294 1.53333 67.0827 2.16C67.9494 2.78667 68.3827 3.76667 68.3827 5.1C68.3827 5.82 68.2494 6.41333 67.9827 6.88C67.7294 7.34667 67.3161 7.74 66.7427 8.06C67.6227 8.42 68.2561 8.88667 68.6427 9.46C69.0294 10.0333 69.2227 10.78 69.2227 11.7C69.2227 14.5667 67.3294 16 63.5427 16H59.7827V1.22ZM63.4827 14.24C64.8294 14.24 65.8027 14.0467 66.4027 13.66C67.0027 13.26 67.3027 12.62 67.3027 11.74C67.3027 10.9267 67.0361 10.2933 66.5027 9.84C65.9694 9.37333 65.2227 9.14 64.2627 9.14H61.6827V14.24H63.4827ZM64.1427 7.36C65.6894 7.36 66.4627 6.63333 66.4627 5.18C66.4627 4.39333 66.2161 3.83333 65.7227 3.5C65.2294 3.16667 64.4027 3 63.2427 3H61.6827V7.36H64.1427ZM84.6516 1.22H86.4716L90.0316 16H87.9516L86.8516 11.4H80.5116L77.6716 16H75.6316L84.6516 1.22ZM86.4316 9.64L85.1116 3.62L81.5516 9.64H86.4316ZM95.6363 14.24C96.2763 14.24 96.803 14.22 97.2163 14.18C97.6297 14.1267 97.9897 14.0533 98.2963 13.96C98.6163 13.8667 98.903 13.72 99.1563 13.52C99.423 13.3067 99.643 13.0667 99.8163 12.8C99.9897 12.52 100.123 12.22 100.216 11.9C100.31 11.58 100.356 11.2533 100.356 10.92C100.356 10.5467 100.276 10.22 100.116 9.94C99.9697 9.66 99.7497 9.45333 99.4563 9.32C98.963 9.05333 98.143 8.92 96.9963 8.92H94.9363L93.9363 14.24H95.6363ZM94.4563 1.22H103.196L102.876 2.98H96.0363L95.2563 7.16H97.4163C98.0297 7.16 98.6297 7.19333 99.2163 7.26C99.803 7.32667 100.323 7.47333 100.776 7.7C101.243 7.92667 101.616 8.26667 101.896 8.72C102.176 9.16 102.316 9.75333 102.316 10.5C102.316 11.4467 102.09 12.3533 101.636 13.22C101.196 14.0867 100.556 14.7533 99.7163 15.22C99.463 15.3667 99.1963 15.4933 98.9163 15.6C98.6497 15.6933 98.3563 15.7733 98.0363 15.84C97.7163 15.8933 97.3563 15.9333 96.9563 15.96C96.5697 15.9867 96.1297 16 95.6363 16H91.7163L94.4563 1.22ZM106.253 1.22H110.193C110.82 1.22 111.433 1.25333 112.033 1.32C112.633 1.38667 113.167 1.54 113.633 1.78C114.1 2.02 114.473 2.36667 114.753 2.82C115.047 3.27333 115.193 3.88667 115.193 4.66C115.193 5.1 115.14 5.55333 115.033 6.02C114.927 6.47333 114.767 6.90667 114.553 7.32C114.353 7.73333 114.1 8.11333 113.793 8.46C113.5 8.80667 113.153 9.09333 112.753 9.32C112.513 9.46667 112.26 9.59333 111.993 9.7C111.727 9.80667 111.433 9.89333 111.113 9.96C110.793 10.0267 110.433 10.0733 110.033 10.1C109.647 10.1267 109.2 10.14 108.693 10.14H106.493L105.413 16H103.513L106.253 1.22ZM108.933 8.38C110.08 8.38 110.94 8.24667 111.513 7.98C112.087 7.72667 112.513 7.32667 112.793 6.78C113.087 6.22 113.233 5.64 113.233 5.04C113.233 4.58667 113.14 4.20667 112.953 3.9C112.767 3.59333 112.48 3.37333 112.093 3.24C111.827 3.14667 111.493 3.08 111.093 3.04C110.707 3 110.193 2.98 109.553 2.98H107.833L106.833 8.38H108.933ZM122.972 1.22H124.792L128.352 16H126.272L125.172 11.4H118.832L115.992 16H113.952L122.972 1.22ZM124.752 9.64L123.432 3.62L119.872 9.64H124.752ZM134.057 12.1L131.457 1.22H133.477L135.457 9.76L140.617 1.22H142.657L133.617 16H131.717L134.057 12.1ZM141.86 9.74H147.32L147 11.36H141.54L141.86 9.74ZM147.42 14.24H149.08L157.02 1.22H158.88L161.98 14.24H163.66L162.82 18.78H161.48L161.44 16H148.98L147.92 18.78H146.58L147.42 14.24ZM159.98 14.24L157.48 3.7L151.08 14.24H159.98ZM172.134 9.7C172.134 10.3933 172.254 11.04 172.494 11.64C172.748 12.24 173.094 12.76 173.534 13.2C173.974 13.64 174.501 13.9867 175.114 14.24C175.728 14.48 176.408 14.6 177.154 14.6C178.088 14.6 178.988 14.4067 179.854 14.02C180.721 13.6333 181.488 13.12 182.154 12.48C182.821 11.8267 183.354 11.0733 183.754 10.22C184.154 9.35333 184.354 8.45333 184.354 7.52C184.354 6.81333 184.234 6.16667 183.994 5.58C183.754 4.98 183.414 4.46 182.974 4.02C182.534 3.58 182.001 3.24 181.374 3C180.761 2.74667 180.081 2.62 179.334 2.62C178.414 2.62 177.521 2.82 176.654 3.22C175.801 3.60667 175.034 4.12667 174.354 4.78C173.688 5.43333 173.148 6.18667 172.734 7.04C172.334 7.89333 172.134 8.78 172.134 9.7ZM167.874 1.22H169.774L168.614 7.54H170.594C170.901 6.59333 171.354 5.71333 171.954 4.9C172.568 4.07333 173.274 3.36 174.074 2.76C174.888 2.16 175.774 1.69333 176.734 1.36C177.708 1.01333 178.701 0.84 179.714 0.84C180.688 0.84 181.574 1 182.374 1.32C183.188 1.64 183.881 2.08667 184.454 2.66C185.041 3.23333 185.494 3.90667 185.814 4.68C186.134 5.45333 186.294 6.29333 186.294 7.2C186.294 8.42667 186.028 9.59333 185.494 10.7C184.961 11.8067 184.254 12.78 183.374 13.62C182.494 14.46 181.488 15.1333 180.354 15.64C179.221 16.1333 178.048 16.38 176.834 16.38C175.848 16.38 174.941 16.22 174.114 15.9C173.301 15.58 172.601 15.14 172.014 14.58C171.441 14.02 170.994 13.3533 170.674 12.58C170.354 11.7933 170.194 10.94 170.194 10.02C170.194 9.91333 170.194 9.8 170.194 9.68C170.194 9.54667 170.208 9.42 170.234 9.3H168.274L167.034 16H165.134L167.874 1.22ZM189.827 1.22H193.767C194.394 1.22 195.007 1.25333 195.607 1.32C196.207 1.38667 196.741 1.54 197.207 1.78C197.674 2.02 198.047 2.36667 198.327 2.82C198.621 3.27333 198.767 3.88667 198.767 4.66C198.767 5.1 198.714 5.55333 198.607 6.02C198.501 6.47333 198.341 6.90667 198.127 7.32C197.927 7.73333 197.674 8.11333 197.367 8.46C197.074 8.80667 196.727 9.09333 196.327 9.32C196.087 9.46667 195.834 9.59333 195.567 9.7C195.301 9.80667 195.007 9.89333 194.687 9.96C194.367 10.0267 194.007 10.0733 193.607 10.1C193.221 10.1267 192.774 10.14 192.267 10.14H190.067L188.987 16H187.087L189.827 1.22ZM192.507 8.38C193.654 8.38 194.514 8.24667 195.087 7.98C195.661 7.72667 196.087 7.32667 196.367 6.78C196.661 6.22 196.807 5.64 196.807 5.04C196.807 4.58667 196.714 4.20667 196.527 3.9C196.341 3.59333 196.054 3.37333 195.667 3.24C195.401 3.14667 195.067 3.08 194.667 3.04C194.281 3 193.767 2.98 193.127 2.98H191.407L190.407 8.38H192.507ZM213.426 12.04C212.906 12.8 212.38 13.4467 211.846 13.98C211.313 14.5133 210.74 14.9533 210.126 15.3C209.526 15.6333 208.88 15.8733 208.186 16.02C207.493 16.18 206.726 16.26 205.886 16.26C204.926 16.26 204.046 16.1133 203.246 15.82C202.46 15.5133 201.78 15.0867 201.206 14.54C200.633 13.9933 200.186 13.34 199.866 12.58C199.546 11.82 199.386 10.9867 199.386 10.08C199.386 8.77333 199.613 7.56667 200.066 6.46C200.533 5.35333 201.166 4.39333 201.966 3.58C202.78 2.75333 203.733 2.11333 204.826 1.66C205.933 1.19333 207.126 0.959999 208.406 0.959999C209.193 0.959999 209.926 1.06 210.606 1.26C211.3 1.44667 211.913 1.72667 212.446 2.1C212.993 2.46 213.453 2.90667 213.826 3.44C214.213 3.96 214.493 4.54667 214.666 5.2H212.526C212.153 4.38667 211.593 3.77333 210.846 3.36C210.113 2.94667 209.213 2.74 208.146 2.74C207.186 2.74 206.286 2.92 205.446 3.28C204.62 3.62667 203.9 4.11333 203.286 4.74C202.686 5.35333 202.213 6.08667 201.866 6.94C201.52 7.78 201.346 8.69333 201.346 9.68C201.346 10.3733 201.466 11.0133 201.706 11.6C201.946 12.1867 202.28 12.6933 202.706 13.12C203.146 13.5467 203.66 13.88 204.246 14.12C204.833 14.36 205.473 14.48 206.166 14.48C206.74 14.48 207.26 14.44 207.726 14.36C208.193 14.2667 208.626 14.1267 209.026 13.94C209.44 13.7533 209.826 13.5067 210.186 13.2C210.546 12.88 210.906 12.4933 211.266 12.04H213.426ZM215.558 9.98C215.558 8.66 215.798 7.44667 216.278 6.34C216.771 5.23333 217.445 4.28 218.298 3.48C219.151 2.68 220.151 2.06 221.298 1.62C222.445 1.18 223.678 0.959999 224.998 0.959999C225.931 0.959999 226.785 1.12 227.558 1.44C228.345 1.76 229.018 2.2 229.578 2.76C230.151 3.32 230.591 3.98667 230.898 4.76C231.218 5.52 231.378 6.34667 231.378 7.24C231.378 8.53333 231.138 9.73333 230.658 10.84C230.178 11.9333 229.518 12.8867 228.678 13.7C227.838 14.5 226.851 15.1267 225.718 15.58C224.598 16.0333 223.391 16.26 222.098 16.26C221.138 16.26 220.258 16.1 219.458 15.78C218.658 15.46 217.965 15.02 217.378 14.46C216.805 13.9 216.358 13.24 216.038 12.48C215.718 11.7067 215.558 10.8733 215.558 9.98ZM217.518 9.68C217.518 10.36 217.638 10.9933 217.878 11.58C218.118 12.1667 218.451 12.6733 218.878 13.1C219.305 13.5267 219.818 13.8667 220.418 14.12C221.018 14.36 221.678 14.48 222.398 14.48C223.385 14.48 224.305 14.3067 225.158 13.96C226.025 13.6 226.771 13.1133 227.398 12.5C228.025 11.8733 228.518 11.1333 228.878 10.28C229.238 9.42667 229.418 8.50667 229.418 7.52C229.418 6.84 229.298 6.20667 229.058 5.62C228.818 5.03333 228.478 4.52667 228.038 4.1C227.611 3.67333 227.098 3.34 226.498 3.1C225.898 2.86 225.231 2.74 224.498 2.74C223.525 2.74 222.611 2.92 221.758 3.28C220.905 3.62667 220.165 4.11333 219.538 4.74C218.911 5.36667 218.418 6.1 218.058 6.94C217.698 7.78 217.518 8.69333 217.518 9.68Z" fill="#EEEEEF"/>
</svg>
