<svg width="111" height="111" viewBox="0 0 111 111" fill="none" xmlns="http://www.w3.org/2000/svg">
<path d="M48.3503 96.8643C48.2197 96.8643 48.0891 96.8448 47.952 96.8121C47.1162 96.5966 46.6134 95.7413 46.8289 94.899L49.3493 85.2224C49.5647 84.3866 50.4201 83.8839 51.2624 84.0993C52.1047 84.3148 52.6009 85.1702 52.3854 86.0125L49.8651 95.6891C49.6823 96.4008 49.0489 96.8643 48.3503 96.8643ZM62.6497 96.8643C61.951 96.8643 61.3177 96.3942 61.1349 95.6891L58.6145 86.0125C58.399 85.1767 58.8953 84.3213 59.7376 84.0993C60.5733 83.8839 61.4287 84.3801 61.6507 85.2224L64.171 94.899C64.3865 95.7348 63.8903 96.5901 63.048 96.8121C62.9109 96.8513 62.7803 96.8643 62.6497 96.8643Z" fill="white"/>
<path d="M75.2972 104.412H35.7028C34.8344 104.412 34.1358 103.714 34.1358 102.845C34.1358 97.8175 38.2232 93.7301 43.2508 93.7301H67.7492C72.7768 93.7301 76.8642 97.8175 76.8642 102.845C76.8642 103.714 76.1656 104.412 75.2972 104.412ZM37.4788 101.278H73.5212C72.829 98.7381 70.5046 96.8642 67.7492 96.8642H43.2508C40.4954 96.8642 38.1644 98.7381 37.4788 101.278ZM99.8608 87.1876H11.1392C8.88652 87.1876 7.05176 85.3528 7.05176 83.1002V23.5454C7.05176 21.2928 8.88652 19.458 11.1392 19.458H20.9986C21.867 19.458 22.5656 20.1567 22.5656 21.0251C22.5656 21.8935 21.867 22.5921 20.9986 22.5921H11.1392C10.6168 22.5921 10.1859 23.0165 10.1859 23.5454V83.1002C10.1859 83.6291 10.6103 84.0535 11.1392 84.0535H99.8608C100.39 84.0535 100.814 83.6225 100.814 83.1002V23.5454C100.814 23.0231 100.383 22.5921 99.8608 22.5921H90.0014C89.133 22.5921 88.4343 21.8935 88.4343 21.0251C88.4343 20.1567 89.133 19.458 90.0014 19.458H99.8608C102.113 19.458 103.948 21.2928 103.948 23.5454V83.1002C103.948 85.3528 102.113 87.1876 99.8608 87.1876Z" fill="white"/>
<path d="M102.381 76.9888H8.61882C7.7504 76.9888 7.05176 76.2902 7.05176 75.4218C7.05176 74.5534 7.7504 73.8547 8.61882 73.8547H102.381C103.25 73.8547 103.948 74.5534 103.948 75.4218C103.948 76.2902 103.25 76.9888 102.381 76.9888ZM87.2199 67.6975H23.7801C21.3838 67.6975 19.4315 65.7452 19.4315 63.3489V8.46919C19.4315 6.0729 21.3838 4.12061 23.7801 4.12061H87.2199C89.6162 4.12061 91.5685 6.0729 91.5685 8.46919V63.3489C91.5685 65.7452 89.6162 67.6975 87.2199 67.6975ZM23.7801 7.25472C23.1076 7.25472 22.5656 7.80319 22.5656 8.46919V63.3489C22.5656 64.0214 23.1076 64.5634 23.7801 64.5634H87.2199C87.8924 64.5634 88.4343 64.0214 88.4343 63.3489V8.46919C88.4343 7.79666 87.8924 7.25472 87.2199 7.25472H23.7801Z" fill="white"/>
<path d="M90.0013 18.3679H20.9985C20.13 18.3679 19.4314 17.6692 19.4314 16.8008C19.4314 15.9324 20.13 15.2338 20.9985 15.2338H90.0013C90.8697 15.2338 91.5684 15.9324 91.5684 16.8008C91.5684 17.6692 90.8697 18.3679 90.0013 18.3679ZM83.7331 12.8114H56.0483C55.1799 12.8114 54.4813 12.1127 54.4813 11.2443C54.4813 10.3759 55.1799 9.67725 56.0483 9.67725H83.7331C84.6015 9.67725 85.3001 10.3759 85.3001 11.2443C85.3001 12.1127 84.6015 12.8114 83.7331 12.8114Z" fill="white"/>
<path d="M28.2006 12.7134C29.0119 12.7134 29.6697 12.0556 29.6697 11.2443C29.6697 10.4329 29.0119 9.77515 28.2006 9.77515C27.3892 9.77515 26.7314 10.4329 26.7314 11.2443C26.7314 12.0556 27.3892 12.7134 28.2006 12.7134Z" fill="white"/>
<path d="M34.3383 12.7134C35.1496 12.7134 35.8074 12.0556 35.8074 11.2443C35.8074 10.4329 35.1496 9.77515 34.3383 9.77515C33.5269 9.77515 32.8691 10.4329 32.8691 11.2443C32.8691 12.0556 33.5269 12.7134 34.3383 12.7134Z" fill="white"/>
<path d="M40.476 12.7134C41.2873 12.7134 41.9451 12.0556 41.9451 11.2443C41.9451 10.4329 41.2873 9.77515 40.476 9.77515C39.6646 9.77515 39.0068 10.4329 39.0068 11.2443C39.0068 12.0556 39.6646 12.7134 40.476 12.7134Z" fill="white"/>
<path d="M44.9093 49.2846C44.5763 49.2846 44.2433 49.1801 43.9625 48.9646L34.064 41.4036C33.6787 41.1097 33.4502 40.6462 33.4502 40.1565C33.4502 39.6667 33.6787 39.2097 34.064 38.9093L43.9625 31.3483C44.6481 30.8259 45.6341 30.9565 46.1564 31.6421C46.6788 32.3277 46.5482 33.3136 45.8626 33.836L37.5964 40.163L45.8626 46.4769C46.5482 46.9993 46.6788 47.9852 46.1564 48.6708C45.843 49.0756 45.3794 49.2846 44.9093 49.2846ZM66.0907 49.2846C65.6206 49.2846 65.1505 49.0691 64.8436 48.6708C64.3147 47.9852 64.4518 46.9993 65.1374 46.4769L73.4037 40.163L65.1374 33.849C64.4518 33.3267 64.3147 32.3407 64.8436 31.6552C65.3725 30.9696 66.3519 30.839 67.0375 31.3613L76.9361 38.9224C77.3213 39.2162 77.5498 39.6798 77.5498 40.1695C77.5498 40.6592 77.3213 41.1163 76.9361 41.4166L67.0375 48.9777C66.7567 49.1801 66.4237 49.2846 66.0907 49.2846ZM52.268 53.3002C52.1308 53.3002 51.9872 53.2806 51.8435 53.2414C51.0078 53.0063 50.5246 52.1445 50.7531 51.3087L57.2238 28.1619C57.4588 27.3262 58.3207 26.843 59.1565 27.0715C59.9923 27.3066 60.4754 28.1685 60.2469 29.0042L53.7763 52.151C53.5804 52.8496 52.9535 53.3002 52.268 53.3002Z" fill="#6D95FC"/>
</svg>
