<svg width="112" height="111" viewBox="0 0 112 111" fill="none" xmlns="http://www.w3.org/2000/svg">
<g clip-path="url(#clip0_1021_1682)">
<path d="M49.0625 90.1875H9.17188C6.8728 90.1847 4.66867 89.2702 3.04298 87.6445C1.41728 86.0188 0.502754 83.8147 0.5 81.5156L0.5 8.67188C0.502754 6.3728 1.41728 4.16867 3.04298 2.54298C4.66867 0.91728 6.8728 0.00275394 9.17188 0L12.6406 0V3.46875H9.17188C7.79192 3.46875 6.46849 4.01693 5.49271 4.99271C4.51693 5.96849 3.96875 7.29192 3.96875 8.67188V81.5156C3.96875 82.8956 4.51693 84.219 5.49271 85.1948C6.46849 86.1706 7.79192 86.7188 9.17188 86.7188H49.0625V90.1875ZM16.1094 0H19.5799V3.46875H16.1094V0ZM102.828 90.1875V86.7188C104.208 86.7188 105.532 86.1706 106.507 85.1948C107.483 84.219 108.031 82.8956 108.031 81.5156V8.67188C108.031 7.29192 107.483 5.96849 106.507 4.99271C105.532 4.01693 104.208 3.46875 102.828 3.46875H23.0469V0H102.828C105.127 0.00275394 107.331 0.91728 108.957 2.54298C110.583 4.16867 111.497 6.3728 111.5 8.67188V81.5156C111.497 83.8147 110.583 86.0188 108.957 87.6445C107.331 89.2702 105.127 90.1847 102.828 90.1875Z" fill="white"/>
<path d="M33.5051 95.0056L35.243 88.0681L38.6077 88.9128L36.8698 95.8503L33.5051 95.0056Z" fill="white"/>
<path d="M49.0625 104.062H31.7188C31.2588 104.062 30.8176 103.88 30.4924 103.555C30.1671 103.229 29.9844 102.788 29.9844 102.328V98.8594C29.9844 97.4794 30.5326 96.156 31.5083 95.1802C32.4841 94.2044 33.8075 93.6562 35.1875 93.6562H49.0625V97.125H35.1875C34.7275 97.125 34.2864 97.3077 33.9611 97.633C33.6359 97.9582 33.4531 98.3994 33.4531 98.8594V100.594H49.0625V104.062ZM2.23438 72.8438H49.0625V76.3125H2.23438V72.8438ZM7.4375 79.7812H10.9062V83.25H7.4375V79.7812ZM14.375 79.7812H24.7812V83.25H14.375V79.7812ZM95.8906 111H61.2031C58.904 110.997 56.6999 110.083 55.0742 108.457C53.4485 106.831 52.534 104.627 52.5312 102.328V32.9531C52.534 30.654 53.4485 28.4499 55.0742 26.8242C56.6999 25.1985 58.904 24.284 61.2031 24.2812H95.8906C98.1897 24.284 100.394 25.1985 102.02 26.8242C103.645 28.4499 104.56 30.654 104.562 32.9531V102.328C104.56 104.627 103.645 106.831 102.02 108.457C100.394 110.083 98.1897 110.997 95.8906 111ZM61.2031 27.75C59.8232 27.75 58.4997 28.2982 57.524 29.274C56.5482 30.2497 56 31.5732 56 32.9531V102.328C56 103.708 56.5482 105.032 57.524 106.007C58.4997 106.983 59.8232 107.531 61.2031 107.531H95.8906C97.2706 107.531 98.594 106.983 99.5698 106.007C100.546 105.032 101.094 103.708 101.094 102.328V32.9531C101.094 31.5732 100.546 30.2497 99.5698 29.274C98.594 28.2982 97.2706 27.75 95.8906 27.75H61.2031Z" fill="white"/>
<path d="M87.2188 41.625H69.875C66.6248 41.625 65.2633 38.7945 64.8332 36.4219H54.2656V32.9531H66.4062C66.8662 32.9531 67.3074 33.1359 67.6326 33.4611C67.9579 33.7864 68.1406 34.2275 68.1406 34.6875C68.1406 34.717 68.2378 38.1562 69.875 38.1562H87.2188C88.856 38.1562 88.9531 34.717 88.9531 34.6875C88.9531 34.2275 89.1359 33.7864 89.4611 33.4611C89.7864 33.1359 90.2275 32.9531 90.6875 32.9531H102.828V36.4219H92.2606C91.8305 38.7945 90.469 41.625 87.2188 41.625Z" fill="white"/>
<path d="M71.6094 31.2188H85.4844V34.6875H71.6094V31.2188ZM71.6094 102.328H85.4844V105.797H71.6094V102.328ZM54.2656 97.125H102.828V100.594H54.2656V97.125ZM31.7188 48.5625H24.7812C24.3213 48.5625 23.8801 48.3798 23.5549 48.0545C23.2296 47.7293 23.0469 47.2881 23.0469 46.8281V44.2855C22.0784 43.9805 21.1388 43.5905 20.2389 43.12L18.4386 44.9203C18.1134 45.2455 17.6723 45.4281 17.2124 45.4281C16.7525 45.4281 16.3115 45.2455 15.9862 44.9203L11.0797 40.0138C10.7545 39.6885 10.5719 39.2475 10.5719 38.7876C10.5719 38.3277 10.7545 37.8866 11.0797 37.5614L12.8782 35.7611C12.4084 34.8612 12.019 33.9215 11.7145 32.9531H9.17188C8.71189 32.9531 8.27075 32.7704 7.94549 32.4451C7.62023 32.1199 7.4375 31.6787 7.4375 31.2188V24.2812C7.4375 23.8213 7.62023 23.3801 7.94549 23.0549C8.27075 22.7296 8.71189 22.5469 9.17188 22.5469H11.7145C12.0195 21.5784 12.4095 20.6388 12.88 19.7389L11.0797 17.9386C10.7545 17.6134 10.5719 17.1723 10.5719 16.7124C10.5719 16.2525 10.7545 15.8115 11.0797 15.4862L15.9862 10.5797C16.3115 10.2545 16.7525 10.0719 17.2124 10.0719C17.6723 10.0719 18.1134 10.2545 18.4386 10.5797L20.2389 12.3782C21.1388 11.9084 22.0785 11.519 23.0469 11.2145V8.67188C23.0469 8.21189 23.2296 7.77075 23.5549 7.44549C23.8801 7.12023 24.3213 6.9375 24.7812 6.9375H31.7188C32.1787 6.9375 32.6199 7.12023 32.9451 7.44549C33.2704 7.77075 33.4531 8.21189 33.4531 8.67188V11.2145C34.4216 11.5195 35.3612 11.9095 36.2611 12.38L38.0614 10.5797C38.3866 10.2545 38.8277 10.0719 39.2876 10.0719C39.7475 10.0719 40.1885 10.2545 40.5138 10.5797L45.4203 15.4862C45.7455 15.8115 45.9281 16.2525 45.9281 16.7124C45.9281 17.1723 45.7455 17.6134 45.4203 17.9386L43.6218 19.7389C44.0916 20.6388 44.481 21.5785 44.7855 22.5469H47.3281C47.7881 22.5469 48.2293 22.7296 48.5545 23.0549C48.8798 23.3801 49.0625 23.8213 49.0625 24.2812V31.2188C49.0625 31.6787 48.8798 32.1199 48.5545 32.4451C48.2293 32.7704 47.7881 32.9531 47.3281 32.9531H44.7855C44.4805 33.9216 44.0905 34.8612 43.62 35.7611L45.4203 37.5614C45.7455 37.8866 45.9281 38.3277 45.9281 38.7876C45.9281 39.2475 45.7455 39.6885 45.4203 40.0138L40.5138 44.9203C40.1885 45.2455 39.7475 45.4281 39.2876 45.4281C38.8277 45.4281 38.3866 45.2455 38.0614 44.9203L36.2611 43.1218C35.3612 43.5916 34.4215 43.981 33.4531 44.2855V46.8281C33.4531 47.2881 33.2704 47.7293 32.9451 48.0545C32.6199 48.3798 32.1787 48.5625 31.7188 48.5625ZM26.5156 45.0938H29.9844V42.9605C29.984 42.5671 30.1173 42.1853 30.3625 41.8777C30.6077 41.5701 30.9502 41.355 31.3337 41.2677C32.8542 40.9218 34.3046 40.3195 35.6228 39.4865C35.9557 39.2765 36.3501 39.186 36.7413 39.2298C37.1324 39.2736 37.497 39.4492 37.7752 39.7276L39.2876 41.24L41.74 38.7876L40.2276 37.2752C39.9492 36.997 39.7736 36.6324 39.7298 36.2413C39.686 35.8501 39.7765 35.4557 39.9865 35.1228C40.8195 33.8046 41.4218 32.3542 41.7677 30.8337C41.855 30.4502 42.0701 30.1077 42.3777 29.8625C42.6853 29.6173 43.0671 29.484 43.4605 29.4844H45.5938V26.0156H43.4605C43.0671 26.016 42.6853 25.8827 42.3777 25.6375C42.0701 25.3923 41.855 25.0498 41.7677 24.6663C41.4218 23.1458 40.8195 21.6954 39.9865 20.3772C39.7765 20.0443 39.686 19.6499 39.7298 19.2587C39.7736 18.8676 39.9492 18.503 40.2276 18.2248L41.74 16.7124L39.2876 14.26L37.7752 15.7724C37.497 16.0508 37.1324 16.2264 36.7413 16.2702C36.3501 16.314 35.9557 16.2235 35.6228 16.0135C34.3046 15.1805 32.8542 14.5782 31.3337 14.2323C30.9502 14.145 30.6077 13.9299 30.3625 13.6223C30.1173 13.3147 29.984 12.9329 29.9844 12.5395V10.4062H26.5156V12.5395C26.516 12.9329 26.3827 13.3147 26.1375 13.6223C25.8923 13.9299 25.5498 14.145 25.1663 14.2323C23.6458 14.5782 22.1954 15.1805 20.8772 16.0135C20.5443 16.2235 20.1499 16.314 19.7587 16.2702C19.3676 16.2264 19.003 16.0508 18.7248 15.7724L17.2124 14.26L14.76 16.7124L16.2724 18.2248C16.5508 18.503 16.7264 18.8676 16.7702 19.2587C16.814 19.6499 16.7235 20.0443 16.5135 20.3772C15.6805 21.6954 15.0782 23.1458 14.7323 24.6663C14.645 25.0498 14.4299 25.3923 14.1223 25.6375C13.8147 25.8827 13.4329 26.016 13.0395 26.0156H10.9062V29.4844H13.0395C13.4329 29.484 13.8147 29.6173 14.1223 29.8625C14.4299 30.1077 14.645 30.4502 14.7323 30.8337C15.0782 32.3542 15.6805 33.8046 16.5135 35.1228C16.7235 35.4557 16.814 35.8501 16.7702 36.2413C16.7264 36.6324 16.5508 36.997 16.2724 37.2752L14.76 38.7876L17.2124 41.24L18.7248 39.7276C19.003 39.4492 19.3676 39.2736 19.7587 39.2298C20.1499 39.186 20.5443 39.2765 20.8772 39.4865C22.1954 40.3195 23.6458 40.9218 25.1663 41.2677C25.5498 41.355 25.8923 41.5701 26.1375 41.8777C26.3827 42.1853 26.516 42.5671 26.5156 42.9605V45.0938Z" fill="#6D95FC"/>
<path d="M28.25 36.4219C26.5349 36.4219 24.8583 35.9133 23.4322 34.9604C22.0061 34.0075 20.8946 32.6532 20.2382 31.0686C19.5819 29.484 19.4102 27.7404 19.7448 26.0582C20.0794 24.376 20.9053 22.8308 22.1181 21.6181C23.3308 20.4053 24.876 19.5794 26.5582 19.2448C28.2404 18.9102 29.984 19.0819 31.5686 19.7382C33.1532 20.3946 34.5075 21.5061 35.4604 22.9322C36.4133 24.3583 36.9219 26.0349 36.9219 27.75C36.9191 30.0491 36.0046 32.2532 34.3789 33.8789C32.7532 35.5046 30.5491 36.4191 28.25 36.4219ZM28.25 22.5469C27.2209 22.5469 26.215 22.852 25.3593 23.4238C24.5037 23.9955 23.8368 24.8081 23.4429 25.7589C23.0491 26.7096 22.9461 27.7558 23.1469 28.7651C23.3476 29.7744 23.8432 30.7015 24.5708 31.4292C25.2985 32.1568 26.2256 32.6524 27.2349 32.8532C28.2442 33.0539 29.2904 32.9509 30.2412 32.5571C31.1919 32.1633 32.0045 31.4964 32.5762 30.6407C33.148 29.7851 33.4531 28.7791 33.4531 27.75C33.4531 26.3701 32.9049 25.0466 31.9292 24.0708C30.9534 23.0951 29.63 22.5469 28.25 22.5469ZM29.9844 71.1094H26.5156V64.1719C26.5156 63.7119 26.6984 63.2707 27.0236 62.9455C27.3489 62.6202 27.79 62.4375 28.25 62.4375H30.7926C31.0977 61.469 31.4877 60.5294 31.9581 59.6296L30.1578 57.8293C29.8327 57.504 29.65 57.063 29.65 56.6031C29.65 56.1432 29.8327 55.7021 30.1578 55.3769L35.0644 50.4703C35.3896 50.1452 35.8307 49.9625 36.2906 49.9625C36.7505 49.9625 37.1915 50.1452 37.5168 50.4703L39.3171 52.2689C40.217 51.799 41.1566 51.4096 42.125 51.1051V48.5625C42.125 48.1025 42.3077 47.6614 42.633 47.3361C42.9582 47.0109 43.3994 46.8281 43.8594 46.8281H50.7969V50.2969H45.5938V52.4302C45.5941 52.8235 45.4608 53.2053 45.2156 53.5129C44.9704 53.8205 44.6279 54.0356 44.2444 54.1229C42.7239 54.4688 41.2735 55.0711 39.9553 55.9041C39.6224 56.1141 39.228 56.2046 38.8369 56.1608C38.4457 56.117 38.0811 55.9415 37.8029 55.663L36.2906 54.1507L33.8382 56.6031L35.3505 58.1154C35.629 58.3936 35.8045 58.7582 35.8483 59.1494C35.8921 59.5405 35.8016 59.9349 35.5916 60.2678C34.7586 61.586 34.1563 63.0364 33.8104 64.5569C33.7231 64.9404 33.508 65.2829 33.2004 65.5281C32.8928 65.7733 32.511 65.9066 32.1177 65.9063H29.9844V71.1094ZM42.125 67.6406H38.6563C38.659 65.3415 39.5735 63.1374 41.1992 61.5117C42.8249 59.886 45.029 58.9715 47.3281 58.9688V62.4375C45.9482 62.4375 44.6247 62.9857 43.649 63.9615C42.6732 64.9372 42.125 66.2607 42.125 67.6406ZM78.5469 86.7188C74.7736 86.7188 71.085 85.5998 67.9476 83.5035C64.8103 81.4072 62.365 78.4276 60.921 74.9415C59.477 71.4554 59.0992 67.6195 59.8353 63.9187C60.5715 60.2179 62.3885 56.8185 65.0566 54.1504C67.7247 51.4822 71.1241 49.6652 74.8249 48.9291C78.5257 48.193 82.3617 48.5708 85.8478 50.0147C89.3338 51.4587 92.3134 53.904 94.4098 57.0414C96.5061 60.1788 97.625 63.8673 97.625 67.6406C97.619 72.6986 95.6071 77.5478 92.0306 81.1243C88.454 84.7009 83.6049 86.7128 78.5469 86.7188ZM78.5469 52.0313C75.4596 52.0313 72.4417 52.9467 69.8748 54.6619C67.3078 56.3771 65.3071 58.8149 64.1257 61.6672C62.9443 64.5194 62.6351 67.6579 63.2374 70.6859C63.8397 73.7138 65.3264 76.4951 67.5094 78.6781C69.6924 80.8611 72.4737 82.3478 75.5016 82.9501C78.5296 83.5524 81.6681 83.2432 84.5203 82.0618C87.3726 80.8804 89.8104 78.8797 91.5256 76.3127C93.2408 73.7458 94.1563 70.7279 94.1563 67.6406C94.1512 63.5023 92.505 59.5349 89.5788 56.6087C86.6526 53.6825 82.6852 52.0363 78.5469 52.0313Z" fill="#6D95FC"/>
<path d="M75.0782 79.7812C74.6183 79.7812 74.1772 79.5984 73.852 79.2731L65.1802 70.6012C64.855 70.276 64.6724 69.8349 64.6724 69.375C64.6724 68.9151 64.855 68.474 65.1802 68.1488L70.3833 62.9457C70.7085 62.6205 71.1496 62.4379 71.6095 62.4379C72.0694 62.4379 72.5105 62.6205 72.8357 62.9457L75.0782 65.1882L84.2583 56.0082C84.5835 55.683 85.0246 55.5004 85.4845 55.5004C85.9444 55.5004 86.3855 55.683 86.7107 56.0082L91.9138 61.2113C92.239 61.5365 92.4216 61.9776 92.4216 62.4375C92.4216 62.8974 92.239 63.3385 91.9138 63.6637L76.3044 79.2731C75.9793 79.5984 75.5382 79.7812 75.0782 79.7812ZM68.8588 69.375L75.0782 75.5945L88.2352 62.4375L85.4845 59.6868L76.3044 68.8668C75.9792 69.192 75.5381 69.3746 75.0782 69.3746C74.6183 69.3746 74.1773 69.192 73.852 68.8668L71.6095 66.6243L68.8588 69.375ZM99.3595 6.9375H102.828V10.4062H99.3595V6.9375ZM73.3439 6.9375H95.8907V10.4062H73.3439V6.9375Z" fill="#6D95FC"/>
</g>
<defs>
<clipPath id="clip0_1021_1682">
<rect width="111" height="111" fill="white" transform="translate(0.5)"/>
</clipPath>
</defs>
</svg>
