<svg width="96" height="95" viewBox="0 0 96 95" fill="none" xmlns="http://www.w3.org/2000/svg">
<path d="M30.3793 67.42H16.5889C16.1661 67.42 15.8228 67.0766 15.8228 66.6538V57.4602C15.8228 57.0375 16.1661 56.6941 16.5889 56.6941C17.0116 56.6941 17.355 57.0375 17.355 57.4602V65.8877H30.3793C30.8021 65.8877 31.1454 66.2311 31.1454 66.6538C31.1454 67.0766 30.8021 67.42 30.3793 67.42Z" fill="#6D95FC"/>
<path d="M90.1359 67.4199H50.2969C49.8741 67.4199 49.5308 67.0765 49.5308 66.6537C49.5308 66.231 49.8741 65.8876 50.2969 65.8876H89.3689V27.5809H51.8274C51.4047 27.5809 51.0613 27.2375 51.0613 26.8147C51.0613 26.392 51.4047 26.0486 51.8274 26.0486H90.1341C90.5569 26.0486 90.9003 26.392 90.9003 26.8147V66.6537C90.9003 67.0765 90.5569 67.4199 90.1341 67.4199H90.1359Z" fill="white"/>
<path d="M41.1033 91.9362C41.0499 91.9362 40.9931 91.9301 40.9377 91.9177C40.5239 91.8261 40.2653 91.417 40.3556 91.0032L43.4202 77.2127C43.5118 76.8003 43.9168 76.5431 44.3347 76.6306C44.7486 76.7223 45.0072 77.1313 44.9169 77.5452L41.8523 91.3356C41.773 91.6927 41.4542 91.9362 41.1033 91.9362Z" fill="white"/>
<path d="M65.6196 91.9362C65.2687 91.9362 64.95 91.6927 64.872 91.3356L61.8074 77.5452C61.7158 77.1313 61.9757 76.7223 62.3896 76.6306C62.8082 76.543 63.2125 76.8009 63.3042 77.2127L66.3687 91.0031C66.4604 91.417 66.2004 91.826 65.7866 91.9177C65.7298 91.93 65.673 91.9362 65.6196 91.9362Z" fill="white"/>
<path d="M74.8133 78.1459H16.1651C13.4404 78.1459 11.2249 75.8995 11.2249 73.1367V57.4602C11.2249 57.0375 11.5682 56.6941 11.991 56.6941C12.4137 56.6941 12.7571 57.0375 12.7571 57.4602V73.1367C12.7571 75.054 14.2846 76.6136 16.1651 76.6136H74.8133C75.2361 76.6136 75.5795 76.957 75.5795 77.3797C75.5795 77.8025 75.2361 78.1459 74.8133 78.1459Z" fill="white"/>
<path d="M90.5598 78.1456H87.0726C86.6498 78.1456 86.3064 77.8022 86.3064 77.3795C86.3064 76.9567 86.6498 76.6134 87.0726 76.6134H90.5598C92.4402 76.6134 93.9678 75.0537 93.9678 73.1364V26.4609C93.9678 24.5435 92.4403 22.9839 90.5598 22.9839H51.8311C51.4083 22.9839 51.0649 22.6405 51.0649 22.2178C51.0649 21.795 51.4083 21.4517 51.8311 21.4517H90.5598C93.2845 21.4517 95.5 23.6981 95.5 26.4609V73.1364C95.5 75.8985 93.2845 78.1451 90.5598 78.1451V78.1456Z" fill="white"/>
<path d="M83.2417 95.0006H78.6449C76.1104 95.0006 74.0481 92.9383 74.0481 90.4038V76.6134C74.0481 74.0789 76.1104 72.0166 78.6449 72.0166H83.2417C85.7762 72.0166 87.8385 74.0789 87.8385 76.6134V90.4038C87.8385 92.9383 85.7762 95.0006 83.2417 95.0006ZM78.6449 73.5489C76.9546 73.5489 75.5804 74.9231 75.5804 76.6134V90.4038C75.5804 92.0941 76.9546 93.4684 78.6449 93.4684H83.2417C84.932 93.4684 86.3063 92.0941 86.3063 90.4038V76.6134C86.3063 74.9231 84.932 73.5489 83.2417 73.5489H78.6449Z" fill="white"/>
<path d="M80.9424 81.2103C80.5197 81.2103 80.1763 80.8669 80.1763 80.4442V77.3797C80.1763 76.9569 80.5197 76.6135 80.9424 76.6135C81.3652 76.6135 81.7085 76.9569 81.7085 77.3797V80.4442C81.7085 80.8669 81.3652 81.2103 80.9424 81.2103Z" fill="white"/>
<path d="M68.6843 95.0006H38.0389C36.772 95.0006 35.7405 93.9691 35.7405 92.7022C35.7405 91.4353 36.772 90.4038 38.0389 90.4038H68.6843C69.9511 90.4038 70.9827 91.4353 70.9827 92.7022C70.9827 93.9691 69.9511 95.0006 68.6843 95.0006ZM38.0389 91.9361C37.6175 91.9361 37.2727 92.2795 37.2727 92.7022C37.2727 93.125 37.6175 93.4683 38.0389 93.4683H68.6843C69.1056 93.4683 69.4504 93.125 69.4504 92.7022C69.4504 92.2795 69.1056 91.9361 68.6843 91.9361H38.0389Z" fill="white"/>
<path d="M51.831 58.2262H1.26613C0.843386 58.2262 0.5 57.8829 0.5 57.4601V0.766135C0.5 0.343386 0.843386 0 1.26613 0H51.831C52.2538 0 52.5972 0.343386 52.5972 0.766135V57.4601C52.5972 57.8829 52.2538 58.2262 51.831 58.2262ZM2.03139 56.694H51.064V1.53227H2.03139V56.694Z" fill="white"/>
<path d="M87.0715 18.3871H62.5552C62.1324 18.3871 61.7891 18.0438 61.7891 17.621V3.83059C61.7891 3.40784 62.1324 3.06445 62.5552 3.06445H87.0715C87.4943 3.06445 87.8376 3.40784 87.8376 3.83059V17.621C87.8376 18.0438 87.4943 18.3871 87.0715 18.3871ZM63.3222 16.8549H86.3062V4.59672H63.3222V16.8549Z" fill="white"/>
<path d="M85.5409 38.3066H56.4278C56.005 38.3066 55.6616 37.9632 55.6616 37.5405V31.4114C55.6616 30.9886 56.005 30.6453 56.4278 30.6453H85.5409C85.9636 30.6453 86.307 30.9886 86.307 31.4114V37.5405C86.307 37.9632 85.9636 38.3066 85.5409 38.3066ZM57.193 36.7743H84.7739V32.1775H57.193V36.7743Z" fill="#6D95FC"/>
<path d="M65.6197 53.6294H56.426C56.0033 53.6294 55.6599 53.286 55.6599 52.8632V46.7342C55.6599 46.3114 56.0033 45.968 56.426 45.968H65.6197C66.0424 45.968 66.3858 46.3114 66.3858 46.7342V52.8632C66.3858 53.286 66.0424 53.6294 65.6197 53.6294ZM57.1922 52.0971H64.8535V47.5003H57.1922V52.0971Z" fill="#6D95FC"/>
<path d="M85.541 53.6294H70.2183C69.7955 53.6294 69.4521 53.286 69.4521 52.8632V46.7342C69.4521 46.3114 69.7955 45.968 70.2183 45.968H85.541C85.9637 45.968 86.3071 46.3114 86.3071 46.7342V52.8632C86.3071 53.286 85.9637 53.6294 85.541 53.6294ZM70.9844 52.0971H84.7748V47.5003H70.9844V52.0971Z" fill="#6D95FC"/>
<path d="M85.5409 62.823H21.1856C20.7628 62.823 20.4194 62.4797 20.4194 62.0569C20.4194 61.6342 20.7628 61.2908 21.1856 61.2908H85.5409C85.9636 61.2908 86.307 61.6342 86.307 62.0569C86.307 62.4797 85.9636 62.823 85.5409 62.823Z" fill="#6D95FC"/>
<path d="M85.5409 58.2264H56.4278C56.005 58.2264 55.6616 57.883 55.6616 57.4602C55.6616 57.0375 56.005 56.6941 56.4278 56.6941H85.5409C85.9636 56.6941 86.307 57.0375 86.307 57.4602C86.307 57.883 85.9636 58.2264 85.5409 58.2264Z" fill="#6D95FC"/>
<path d="M85.5409 42.9036H56.4278C56.005 42.9036 55.6616 42.5602 55.6616 42.1375C55.6616 41.7147 56.005 41.3713 56.4278 41.3713H85.5409C85.9636 41.3713 86.307 41.7147 86.307 42.1375C86.307 42.5602 85.9636 42.9036 85.5409 42.9036Z" fill="#6D95FC"/>
<path d="M10.4581 13.7905C8.34516 13.7905 6.62744 12.0715 6.62744 9.95982C6.62744 7.84816 8.34509 6.12915 10.4581 6.12915C12.5711 6.12915 14.2888 7.84816 14.2888 9.95982C14.2888 12.0715 12.5711 13.7905 10.4581 13.7905ZM10.4581 7.66142C9.19125 7.66142 8.15971 8.69296 8.15971 9.95982C8.15971 11.2267 9.19125 12.2582 10.4581 12.2582C11.725 12.2582 12.7565 11.2267 12.7565 9.95982C12.7565 8.69296 11.725 7.66142 10.4581 7.66142Z" fill="#6D95FC"/>
<path d="M13.5227 18.3872H7.39358C6.97083 18.3872 6.62744 18.0439 6.62744 17.6211C6.62744 17.1984 6.97083 16.855 7.39358 16.855H13.5227C13.9454 16.855 14.2888 17.1984 14.2888 17.6211C14.2888 18.0439 13.9454 18.3872 13.5227 18.3872Z" fill="#6D95FC"/>
<path d="M30.3794 18.3872H22.718C22.2953 18.3872 21.9519 18.0439 21.9519 17.6211C21.9519 17.1984 22.2953 16.855 22.718 16.855H30.3794C30.8021 16.855 31.1455 17.1984 31.1455 17.6211C31.1455 18.0439 30.8021 18.3872 30.3794 18.3872Z" fill="#6D95FC"/>
<path d="M42.6373 13.7905C40.5244 13.7905 38.8066 12.0715 38.8066 9.95982C38.8066 7.84816 40.5243 6.12915 42.6373 6.12915C44.7503 6.12915 46.468 7.84816 46.468 9.95982C46.468 12.0715 44.7503 13.7905 42.6373 13.7905ZM42.6373 7.66142C41.3705 7.66142 40.3389 8.69296 40.3389 9.95982C40.3389 11.2267 41.3705 12.2582 42.6373 12.2582C43.9042 12.2582 44.9357 11.2267 44.9357 9.95982C44.9357 8.69296 43.9042 7.66142 42.6373 7.66142Z" fill="#6D95FC"/>
<path d="M45.7019 18.3872H39.5728C39.15 18.3872 38.8066 18.0439 38.8066 17.6211C38.8066 17.1984 39.15 16.855 39.5728 16.855H45.7019C46.1246 16.855 46.468 17.1984 46.468 17.6211C46.468 18.0439 46.1246 18.3872 45.7019 18.3872Z" fill="#6D95FC"/>
<path d="M30.3794 13.7905H22.718C22.2953 13.7905 21.9519 13.4471 21.9519 13.0244V6.89529C21.9519 6.47254 22.2953 6.12915 22.718 6.12915H30.3794C30.8021 6.12915 31.1455 6.47254 31.1455 6.89529V13.0244C31.1455 13.4471 30.8021 13.7905 30.3794 13.7905ZM23.4842 12.2582H29.6133V7.66142H23.4842V12.2582Z" fill="#6D95FC"/>
<path d="M45.702 33.71H7.39529C6.97254 33.71 6.62915 33.3666 6.62915 32.9439C6.62915 32.5211 6.97254 32.1777 7.39529 32.1777H45.702C46.1248 32.1777 46.4682 32.5211 46.4682 32.9439C46.4682 33.3666 46.1248 33.71 45.702 33.71Z" fill="#6D95FC"/>
<path d="M45.702 52.0972H7.39529C6.97254 52.0972 6.62915 51.7538 6.62915 51.3311C6.62915 50.9083 6.97254 50.5649 7.39529 50.5649H45.702C46.1248 50.5649 46.4682 50.9083 46.4682 51.3311C46.4682 51.7538 46.1248 52.0972 45.702 52.0972Z" fill="#6D95FC"/>
<path d="M79.4117 9.19365H76.3472C75.9244 9.19365 75.5811 8.85026 75.5811 8.42751C75.5811 8.00476 75.9244 7.66138 76.3472 7.66138H79.4117C79.8345 7.66138 80.1779 8.00476 80.1779 8.42751C80.1779 8.85026 79.8345 9.19365 79.4117 9.19365Z" fill="white"/>
<path d="M82.4763 13.7903H76.3472C75.9244 13.7903 75.5811 13.4469 75.5811 13.0242C75.5811 12.6014 75.9244 12.2581 76.3472 12.2581H82.4763C82.899 12.2581 83.2424 12.6014 83.2424 13.0242C83.2424 13.4469 82.899 13.7903 82.4763 13.7903Z" fill="white"/>
<path d="M73.2827 13.7905H67.1536C66.7308 13.7905 66.3875 13.4471 66.3875 13.0243V8.42751C66.3875 8.00476 66.7308 7.66138 67.1536 7.66138H73.2827C73.7054 7.66138 74.0488 8.00476 74.0488 8.42751V13.0243C74.0488 13.4471 73.7054 13.7905 73.2827 13.7905ZM67.9197 12.2582H72.5165V9.19365H67.9197V12.2582Z" fill="white"/>
<path d="M42.6374 67.42H34.9761C34.5533 67.42 34.21 67.0766 34.21 66.6538C34.21 66.2311 34.5533 65.8877 34.9761 65.8877H42.6374C43.0602 65.8877 43.4036 66.2311 43.4036 66.6538C43.4036 67.0766 43.0602 67.42 42.6374 67.42Z" fill="#6D95FC"/>
</svg>
