<svg width="80" height="12" viewBox="0 0 80 12" fill="none" xmlns="http://www.w3.org/2000/svg">
<path fill-rule="evenodd" clip-rule="evenodd" d="M73.9336 3.9686L8.08533 3.96858C7.62932 2.04192 6.02113 0.61853 4.10734 0.61853C1.83895 0.61853 0 2.61826 0 5.08527C0 7.55228 1.83895 9.552 4.10734 9.552C6.02113 9.552 7.62932 8.12861 8.08533 6.20195H75.1991L71.8107 10.0605L73.2959 11.603L80 3.9686H73.9336ZM6.16102 5.08527C6.16102 6.31864 5.2416 7.31863 4.10734 7.31863C2.97309 7.31863 2.05367 6.31864 2.05367 5.08527C2.05367 3.8519 2.97309 2.8519 4.10734 2.8519C5.2416 2.8519 6.16102 3.8519 6.16102 5.08527Z" fill="#E7AD4B"/>
</svg>
