<svg width="120" height="120" viewBox="0 0 120 120" fill="none" xmlns="http://www.w3.org/2000/svg">
<rect width="120" height="120" rx="30" fill="#FCFCFC"/>
<g clip-path="url(#clip0_5003_620)">
<path d="M21.0397 38.263V45.9199H29.9411V38.263C29.9411 37.9067 30.0828 37.565 30.3349 37.3131C30.5871 37.0612 30.9291 36.9197 31.2857 36.9197H38.9501V28.0269H31.2857C30.9291 28.0269 30.5871 27.8853 30.3349 27.6334C30.0828 27.3815 29.9411 27.0398 29.9411 26.6836V19.0266H21.0397V26.6836C21.0397 27.0398 20.8981 27.3815 20.6459 27.6334C20.3937 27.8853 20.0517 28.0269 19.6951 28.0269H12.0308V36.9197H19.6951C20.0517 36.9197 20.3937 37.0612 20.6459 37.3131C20.8981 37.565 21.0397 37.9067 21.0397 38.263Z" fill="#FF5072"/>
<path d="M85.9716 25.7618C83.0809 25.7538 80.2173 26.3187 77.5466 27.4239C74.8759 28.5291 72.4513 30.1526 70.413 32.2004L64.3111 38.295C64.0548 38.539 63.7144 38.675 63.3604 38.675C63.0065 38.675 62.6661 38.539 62.4098 38.295L56.3079 32.2004C52.4548 28.3716 47.321 26.101 41.8936 25.825L41.3974 25.7981L41.5574 26.2683C41.6088 26.401 41.6383 26.5412 41.6448 26.6834V38.2628C41.6448 38.6191 41.5031 38.9608 41.251 39.2127C40.9988 39.4646 40.6568 39.6061 40.3002 39.6061H32.6358V47.2631C32.6358 47.6193 32.4942 47.961 32.242 48.2129C31.9899 48.4649 31.6478 48.6064 31.2912 48.6064H19.7006C19.549 48.6005 19.3994 48.5691 19.2582 48.5137L18.7849 48.3485L18.8118 48.8495C19.0818 54.2835 21.3566 59.425 25.1974 63.2822L63.3618 101.42L101.53 63.2875C104.608 60.2134 106.704 56.2966 107.553 52.0325C108.402 47.7683 107.967 43.3482 106.302 39.3313C104.636 35.3144 101.816 31.8811 98.1976 29.4655C94.5791 27.0499 90.3249 25.7605 85.9729 25.7605L85.9716 25.7618Z" fill="#FFE2E8"/>
<path d="M103.669 30.0632C101.345 27.7413 98.5864 25.8994 95.5499 24.6427C92.5134 23.386 89.2589 22.7392 85.9721 22.7392C82.6854 22.7392 79.4308 23.386 76.3943 24.6427C73.3578 25.8994 70.5988 27.7413 68.2749 30.0632L63.3617 34.9758L58.4484 30.0686C55.1671 26.821 51.0555 24.5367 46.5629 23.4652C42.0702 22.3937 37.3691 22.5762 32.9732 23.9928V17.6792C32.9732 17.2338 32.7962 16.8067 32.481 16.4918C32.1657 16.1769 31.7382 16 31.2925 16H19.7018C19.2561 16 18.8286 16.1769 18.5134 16.4918C18.1981 16.8067 18.0211 17.2338 18.0211 17.6792V25.0056H10.6808C10.235 25.0056 9.8075 25.1825 9.49229 25.4974C9.17708 25.8123 9 26.2394 9 26.6848V38.2642C9 38.7096 9.17708 39.1367 9.49229 39.4516C9.8075 39.7665 10.235 39.9434 10.6808 39.9434H16.9817C15.5552 44.3384 15.367 49.0408 16.4375 53.5356C17.5081 58.0304 19.7963 62.1441 23.0513 65.4262L62.1717 104.507C62.3277 104.664 62.5129 104.787 62.7169 104.872C62.9209 104.956 63.1395 105 63.3603 105C63.5811 105 63.7998 104.956 64.0037 104.872C64.2077 104.787 64.393 104.664 64.549 104.507L103.669 65.4249C108.363 60.7356 111 54.3756 111 47.744C111 41.1125 108.363 34.7525 103.669 30.0632ZM12.3616 28.3626H19.6951C20.1409 28.3626 20.5684 28.1857 20.8836 27.8708C21.1988 27.5559 21.3759 27.1288 21.3759 26.6834V19.357H29.6117V26.6821C29.6117 27.1274 29.7888 27.5545 30.104 27.8694C30.4192 28.1843 30.8467 28.3613 31.2925 28.3613H38.6206V36.5878H31.2857C30.84 36.5878 30.4125 36.7647 30.0973 37.0796C29.782 37.3945 29.605 37.8216 29.605 38.2669V45.588H21.3759V38.2629C21.3759 37.8175 21.1988 37.3904 20.8836 37.0755C20.5684 36.7606 20.1409 36.5837 19.6951 36.5837H12.3616V28.3626ZM101.292 63.0512L63.3617 100.945L25.4286 63.0512C21.6507 59.2496 19.4115 54.1877 19.1411 48.8375C19.318 48.9062 19.5054 48.9439 19.6951 48.949H31.2857C31.7315 48.949 32.159 48.7721 32.4742 48.4572C32.7894 48.1423 32.9665 47.7152 32.9665 47.2699V39.9461H40.3014C40.5221 39.9461 40.7407 39.9026 40.9446 39.8182C41.1485 39.7339 41.3338 39.6102 41.4899 39.4543C41.646 39.2983 41.7698 39.1132 41.8543 38.9095C41.9387 38.7058 41.9822 38.4874 41.9822 38.2669V26.6875C41.9757 26.5082 41.9398 26.3312 41.876 26.1636C47.2185 26.4394 52.2719 28.6729 56.0698 32.4369L62.1717 38.5315C62.3278 38.6875 62.5131 38.8112 62.717 38.8957C62.921 38.9801 63.1396 39.0235 63.3603 39.0235C63.5811 39.0235 63.7997 38.9801 64.0036 38.8957C64.2076 38.8112 64.3929 38.6875 64.549 38.5315L70.6509 32.4369C74.7145 28.3775 80.2258 26.0972 85.9724 26.0974C91.719 26.0977 97.2301 28.3785 101.293 32.4382C105.357 36.4979 107.639 42.004 107.639 47.745C107.639 53.486 105.356 58.9919 101.292 63.0512Z" fill="#43222E"/>
</g>
<defs>
<clipPath id="clip0_5003_620">
<rect width="102" height="89" fill="white" transform="translate(9 16)"/>
</clipPath>
</defs>
</svg>
