<svg width="26" height="26" viewBox="0 0 26 26" fill="none" xmlns="http://www.w3.org/2000/svg">
<g clip-path="url(#clip0_1021_1614)">
<mask id="mask0_1021_1614" style="mask-type:luminance" maskUnits="userSpaceOnUse" x="0" y="0" width="26" height="26">
<path d="M0 0H26V26H0V0Z" fill="white"/>
</mask>
<g mask="url(#mask0_1021_1614)">
<path d="M13 13.8125C13 12.7351 13.428 11.7017 14.1899 10.9399C14.9517 10.178 15.9851 9.75 17.0625 9.75C18.1399 9.75 19.1733 10.178 19.9351 10.9399C20.697 11.7017 21.125 12.7351 21.125 13.8125C21.125 14.8899 20.697 15.9233 19.9351 16.6851C19.1733 17.447 18.1399 17.875 17.0625 17.875C15.9851 17.875 14.9517 17.447 14.1899 16.6851C13.428 15.9233 13 14.8899 13 13.8125V13.8125Z" fill="#1ABCFE"/>
<path d="M4.875 21.9375C4.875 20.8601 5.30301 19.8267 6.06488 19.0649C6.82675 18.303 7.86006 17.875 8.9375 17.875H13V21.9375C13 23.0149 12.572 24.0483 11.8101 24.8101C11.0483 25.572 10.0149 26 8.9375 26C7.86006 26 6.82675 25.572 6.06488 24.8101C5.30301 24.0483 4.875 23.0149 4.875 21.9375V21.9375Z" fill="#0ACF83"/>
<path d="M13 1.625V9.75H17.0625C18.1399 9.75 19.1733 9.32199 19.9351 8.56012C20.697 7.79825 21.125 6.76494 21.125 5.6875C21.125 4.61006 20.697 3.57675 19.9351 2.81488C19.1733 2.05301 18.1399 1.625 17.0625 1.625L13 1.625Z" fill="#FF7262"/>
<path d="M4.875 5.6875C4.875 6.76494 5.30301 7.79825 6.06488 8.56012C6.82675 9.32199 7.86006 9.75 8.9375 9.75H13V1.625H8.9375C7.86006 1.625 6.82675 2.05301 6.06488 2.81488C5.30301 3.57675 4.875 4.61006 4.875 5.6875V5.6875Z" fill="#F24E1E"/>
<path d="M4.875 13.8125C4.875 14.8899 5.30301 15.9233 6.06488 16.6851C6.82675 17.447 7.86006 17.875 8.9375 17.875H13V9.75H8.9375C7.86006 9.75 6.82675 10.178 6.06488 10.9399C5.30301 11.7017 4.875 12.7351 4.875 13.8125V13.8125Z" fill="#A259FF"/>
</g>
</g>
<defs>
<clipPath id="clip0_1021_1614">
<rect width="26" height="26" fill="white"/>
</clipPath>
</defs>
</svg>
