<svg width="26" height="26" viewBox="0 0 26 26" fill="none" xmlns="http://www.w3.org/2000/svg">
<g clip-path="url(#clip0_1021_1657)">
<path d="M15.5374 11.7796C14.969 11.7796 14.5457 12.0586 14.5457 12.7304C14.5457 13.2365 14.8247 13.5879 15.5068 13.5879C16.085 13.5879 16.4777 13.2471 16.4777 12.7094C16.4777 12.1 16.1263 11.7796 15.5374 11.7796ZM14.401 16.5226C14.2664 16.6877 14.1323 16.8632 14.1323 17.07C14.1323 17.4831 14.659 17.6074 15.3826 17.6074C15.9818 17.6074 16.7981 17.5654 16.7981 17.0082C16.7981 16.677 16.4054 16.6566 15.9092 16.6255L14.401 16.5226ZM17.4593 11.8107C17.645 12.0484 17.8416 12.3792 17.8416 12.8544C17.8416 14.0012 16.9427 14.6728 15.641 14.6728C15.31 14.6728 15.0104 14.6315 14.8247 14.5799L14.4835 15.1274L15.496 15.1893C17.2837 15.3033 18.3372 15.3551 18.3372 16.7287C18.3372 17.9172 17.294 18.5884 15.496 18.5884C13.6259 18.5884 12.913 18.1131 12.913 17.2969C12.913 16.832 13.1196 16.5845 13.4813 16.2429C13.1403 16.0988 13.0267 15.8406 13.0267 15.5614C13.0267 15.3339 13.1403 15.1275 13.3265 14.9309C13.5124 14.7349 13.719 14.5384 13.967 14.3111C13.4608 14.0631 13.0783 13.5258 13.0783 12.7611C13.0783 11.5731 13.8637 10.7571 15.4442 10.7571C15.8886 10.7571 16.1574 10.798 16.395 10.8604H18.41V11.7383L17.4593 11.8107ZM20.2278 9.93315C19.6387 9.93315 19.2978 9.5919 19.2978 9.00273C19.2978 8.41438 19.6386 8.09375 20.2278 8.09375C20.827 8.09375 21.1681 8.41438 21.1681 9.00273C21.1681 9.5919 20.8271 9.93315 20.2278 9.93315ZM18.8947 16.1424V15.3265L19.4218 15.2544C19.5665 15.2336 19.587 15.2027 19.587 15.0474V12.0097C19.587 11.8964 19.5562 11.8236 19.4525 11.793L18.8947 11.5964L19.0082 10.7598H21.1472V15.0474C21.1472 15.213 21.1572 15.2336 21.3127 15.2545L21.8396 15.3266V16.1424H18.8947ZM25.9256 15.7418C25.4811 15.9586 24.8302 16.155 24.241 16.155C23.0115 16.155 22.5468 15.6595 22.5468 14.4914V11.7846C22.5468 11.7227 22.5468 11.6813 22.4638 11.6813H21.7407V10.7615C22.6502 10.6579 23.0115 10.2033 23.1252 9.07708H24.1069V10.5447C24.1069 10.6168 24.1069 10.6479 24.1897 10.6479H25.6464V11.6811H24.1069V14.1504C24.1069 14.76 24.2517 14.9975 24.8094 14.9975C25.099 14.9975 25.3983 14.9254 25.6463 14.8323L25.9256 15.7418Z" fill="white"/>
<path d="M10.6162 13.0304L5.89193 8.30644C5.82723 8.24172 5.75042 8.19038 5.66587 8.15535C5.58133 8.12032 5.49071 8.10229 5.3992 8.10229C5.30769 8.10229 5.21707 8.12032 5.13253 8.15535C5.04798 8.19038 4.97117 8.24172 4.90647 8.30644L3.92548 9.28753L5.16992 10.5319C5.3162 10.4821 5.47349 10.4743 5.62396 10.5094C5.77444 10.5445 5.91209 10.621 6.02132 10.7302C6.13114 10.8402 6.20781 10.9788 6.24258 11.1303C6.27735 11.2818 6.26881 11.44 6.21795 11.5868L7.41709 12.7862C7.70726 12.6862 8.04211 12.7509 8.27377 12.983C8.35079 13.06 8.41189 13.1513 8.45358 13.2519C8.49527 13.3525 8.51672 13.4604 8.51672 13.5693C8.51672 13.6781 8.49527 13.786 8.45358 13.8866C8.41189 13.9872 8.35079 14.0785 8.27377 14.1555C8.13827 14.2912 7.95994 14.3756 7.76915 14.3946C7.57836 14.4135 7.3869 14.3658 7.22736 14.2595C7.06782 14.1531 6.95006 13.9948 6.89412 13.8114C6.83818 13.628 6.84752 13.4309 6.92056 13.2536L5.80215 12.1352L5.80205 15.0785C5.88313 15.1186 5.95717 15.1716 6.02132 15.2353C6.09834 15.3123 6.15943 15.4037 6.20111 15.5044C6.24279 15.605 6.26424 15.7128 6.26424 15.8217C6.26424 15.9306 6.24279 16.0384 6.20111 16.1391C6.15943 16.2397 6.09834 16.3311 6.02132 16.4081C5.69734 16.7321 5.17226 16.7321 4.84878 16.4081C4.75214 16.3115 4.68086 16.1926 4.64128 16.0618C4.6017 15.931 4.59504 15.7925 4.62189 15.6586C4.64875 15.5246 4.70828 15.3994 4.79521 15.294C4.88214 15.1886 4.99376 15.1063 5.12016 15.0545V12.0837C5.01848 12.0422 4.92619 11.9807 4.84878 11.9028C4.60341 11.6577 4.5444 11.2977 4.67013 10.9963L3.44346 9.76944L0.204227 13.0085C0.139499 13.0732 0.0881532 13.15 0.0531223 13.2346C0.0180913 13.3192 6.10352e-05 13.4098 6.10352e-05 13.5014C6.10352e-05 13.5929 0.0180913 13.6835 0.0531223 13.7681C0.0881532 13.8527 0.139499 13.9295 0.204227 13.9942L4.92851 18.7183C5.0592 18.849 5.23644 18.9224 5.42124 18.9224C5.60604 18.9224 5.78328 18.849 5.91397 18.7183L10.6162 14.0163C10.7469 13.8855 10.8203 13.7082 10.8203 13.5233C10.8203 13.3385 10.7469 13.1612 10.6162 13.0304Z" fill="#DE4C36"/>
</g>
<defs>
<clipPath id="clip0_1021_1657">
<rect width="26" height="26" fill="white"/>
</clipPath>
</defs>
</svg>
