<svg width="26" height="26" viewBox="0 0 26 26" fill="none" xmlns="http://www.w3.org/2000/svg">
<path d="M16.0623 25.2076L16.3116 21.0536L17 19.8785C17 19.8785 15.4333 20.5194 12.8104 20.5194C10.1874 20.5194 8.64445 19.8904 8.64445 19.8904L9.4159 21.1722L9.68881 25.2076C9.68881 25.6402 11.1155 25.9909 12.8756 25.9909C14.6356 25.9909 16.0623 25.6402 16.0623 25.2076ZM15.276 5.80888L15.7992 3.7406L18.6969 0.691521L17.9332 0.0410156L14.8654 3.28904L14.2578 5.7601C13.8006 5.74478 13.3431 5.73716 12.8856 5.73727C9.65459 5.73727 7.03534 6.10549 7.03534 6.55962C7.03534 7.01379 9.65459 7.38197 12.8856 7.38197C16.1165 7.38197 18.7357 7.01379 18.7357 6.55962C18.7357 6.2252 17.3152 5.93737 15.276 5.80888Z" fill="#D34A47"/>
<path d="M14.9716 6.96717C14.9716 6.96717 14.8583 6.99257 14.5249 6.994C14.1914 6.99538 13.9547 6.99184 13.8604 6.90594C13.835 6.88288 13.8212 6.83708 13.8213 6.80607C13.8216 6.74704 13.8635 6.71227 13.9168 6.6905L13.9673 6.76969C13.9454 6.77727 13.9328 6.78623 13.9328 6.79578C13.9326 6.84062 14.2737 6.8713 14.5346 6.86799C14.7956 6.86478 15.1109 6.84328 15.1112 6.79909C15.1112 6.78572 15.0873 6.77314 15.0459 6.76321L15.0961 6.68457C15.1637 6.70556 15.2228 6.74612 15.2226 6.81632C15.222 6.93566 15.0701 6.9538 14.9716 6.96717Z" fill="white"/>
<path d="M18.6912 0.697458C18.7641 0.613302 18.6535 0.398044 18.4443 0.216733C18.2349 0.0355143 18.0062 -0.0432207 17.9332 0.0409348C17.8603 0.12509 17.9709 0.340348 18.1802 0.521567C18.3895 0.702832 18.6183 0.781659 18.6912 0.697458ZM15.923 15.0609C15.8543 14.4001 17.3682 13.4432 16.9797 13.4126C16.1433 13.4604 15.727 14.3928 15.3062 15.3693C15.152 15.7272 14.6243 17.2533 14.2782 17.0654C13.9322 16.8776 14.7268 15.6227 14.9495 14.8774C14.6925 15.0658 13.7501 15.798 13.5073 15.1123C13.1168 15.4439 12.2824 15.6236 12.3766 14.7525C12.1688 15.1204 11.7026 15.6341 11.143 15.4207C10.4082 15.1404 11.5689 12.7994 11.8575 12.9175C12.1462 13.0356 11.7992 13.5689 11.7084 13.776C11.5086 14.2317 11.2777 14.8046 11.4319 14.9219C11.6961 15.1228 12.415 14.1618 12.431 14.1407C12.5655 13.963 12.9485 12.8009 13.2573 12.9343C13.566 13.0678 12.4872 14.6022 12.8906 14.9067C12.9719 14.9682 13.3048 14.8688 13.5073 14.6497C13.6383 14.508 13.5932 14.1941 14.0299 13.1527C14.4666 12.1112 14.8559 10.8143 15.1554 10.9131C15.4549 11.0118 15.208 11.6775 15.1006 11.9256C14.5964 13.0903 13.7245 15.0145 14.1357 14.8688C14.5468 14.7232 14.7609 14.7146 15.1636 14.2435C15.5662 13.7723 15.5477 12.9962 15.816 13.0127C16.0845 13.0292 16.0394 13.2781 15.9743 13.4675C16.2384 13.1653 17.2264 12.5287 17.4649 13.1592C17.7474 13.9056 16.0514 14.9838 16.4743 14.9288C16.8866 14.8752 17.5545 14.4521 17.8397 14.0675L18.6246 7.0105C18.6246 7.0105 17.8347 7.66417 12.8096 7.66417C7.78436 7.66417 7.0762 7.02409 7.0762 7.02409L7.74449 13.4655C8.09921 12.4573 8.94154 10.4181 10.2693 10.4865C10.8733 10.5177 11.6795 11.6807 10.9889 11.7201C10.6965 11.7367 10.6669 11.1396 10.3207 11.0519C10.0709 10.9886 9.7231 11.1917 9.49834 11.4117C9.05009 11.8504 8.08602 13.5812 8.2134 14.4442C8.3757 15.5443 9.73151 14.0619 9.96092 13.6218C10.1225 13.3117 10.2316 12.3932 10.585 12.4896C10.9384 12.5859 10.5541 13.5339 10.298 14.372C10.0103 15.3131 9.85898 16.3058 9.49834 16.1916C9.13764 16.0775 9.72517 14.8626 9.7039 14.6497C9.36489 14.9625 8.74034 15.7544 7.94132 15.3624L8.35636 19.3625C8.35636 19.3625 9.45943 20.234 12.7823 20.234C16.1052 20.234 17.2491 19.3761 17.2491 19.3761L17.7645 14.7431C17.3428 15.1536 16.0084 15.8827 15.923 15.0609Z" fill="#D34A47"/>
</svg>
