<svg width="26" height="26" viewBox="0 0 26 26" fill="none" xmlns="http://www.w3.org/2000/svg">
<g clip-path="url(#clip0_1021_1553)">
<path d="M1.63711 0.860704L3.32457 22.4486C3.33696 22.6071 3.39638 22.7583 3.4952 22.8828C3.59403 23.0073 3.72777 23.0995 3.8793 23.1475L12.7587 25.9627C12.9157 26.0125 13.0843 26.0125 13.2413 25.9627L22.1208 23.1475C22.2723 23.0995 22.406 23.0073 22.5049 22.8828C22.6037 22.7583 22.6631 22.6071 22.6755 22.4486L24.3629 0.860704C24.3992 0.396575 24.0324 0 23.5669 0H2.4332C1.96769 0 1.60088 0.396575 1.63711 0.860704ZM20.0356 7.55871H9.03814L9.37004 10.6193H19.7964L19.1143 19.3445L13.0001 21.283L6.88578 19.3445L6.52945 14.7861H9.7387V17.022L13.0858 17.9203L16.4129 17.022L16.671 13.4585H6.42566L5.74546 4.75621H20.2546L20.0356 7.55871Z" fill="#FC490B"/>
</g>
<defs>
<clipPath id="clip0_1021_1553">
<rect width="26" height="26" fill="white"/>
</clipPath>
</defs>
</svg>
