<svg width="26" height="26" viewBox="0 0 26 26" fill="none" xmlns="http://www.w3.org/2000/svg">
<g clip-path="url(#clip0_1021_1574)">
<path d="M13 15.8041C14.2799 15.8041 15.3174 14.7725 15.3174 13.5C15.3174 12.2275 14.2799 11.1959 13 11.1959C11.7201 11.1959 10.6826 12.2275 10.6826 13.5C10.6826 14.7725 11.7201 15.8041 13 15.8041Z" fill="#61DAFB"/>
<path d="M13 18.2206C19.8675 18.2206 25.4348 16.1071 25.4348 13.5C25.4348 10.8929 19.8675 8.77942 13 8.77942C6.13246 8.77942 0.565216 10.8929 0.565216 13.5C0.565216 16.1071 6.13246 18.2206 13 18.2206Z" stroke="#61DAFB"/>
<path d="M8.88826 15.8603C12.322 21.7737 16.9465 25.5107 19.2174 24.2071C21.4882 22.9036 20.5455 17.0531 17.1117 11.1397C13.678 5.22635 9.05346 1.48936 6.78261 2.79292C4.51176 4.09648 5.45449 9.94695 8.88826 15.8603Z" stroke="#61DAFB"/>
<path d="M8.88827 11.1397C5.4545 17.0531 4.51176 22.9035 6.78261 24.2071C9.05346 25.5106 13.678 21.7737 17.1117 15.8603C20.5455 9.94693 21.4882 4.09646 19.2174 2.7929C16.9465 1.48934 12.322 5.22632 8.88827 11.1397Z" stroke="#61DAFB"/>
</g>
<defs>
<clipPath id="clip0_1021_1574">
<rect width="26" height="23" fill="white" transform="translate(0 2)"/>
</clipPath>
</defs>
</svg>
