<svg width="104" height="95" viewBox="0 0 104 95" fill="none" xmlns="http://www.w3.org/2000/svg">
<path d="M103.695 53.675C103.09 59.3246 98.2612 64.186 92.7975 65.2837C87.9826 80.04 75.1337 91.3286 59.814 94.0888C38.5921 97.9145 18.0968 85.4449 11.379 65.2003C-2.95284 62.249 -2.99052 41.7946 11.3925 38.9428C14.746 28.7896 21.8702 19.8013 31.3683 14.8053C31.4652 14.2861 31.2956 14.496 31.0857 14.3883C30.6631 14.1758 30.0603 14.0709 29.6242 13.8368C25.719 11.7572 23.0033 8.41586 21.8756 4.34541C21.3427 2.41915 22.7799 0.511719 24.7797 0.511719C26.1415 0.511719 27.3285 1.42373 27.6891 2.73661C28.7468 6.58106 32.0492 9.1799 36.299 9.38168C36.6139 9.39782 38.2126 9.55386 38.0188 9.07229C37.8546 8.66336 37.1656 7.88856 36.91 7.36125C36.4282 6.37122 36.0326 5.35697 35.7446 4.31582C35.2144 2.40301 36.6623 0.511719 38.6513 0.511719C40.0266 0.511719 41.2055 1.44795 41.5661 2.77427C42.57 6.46269 45.8132 9.0427 49.81 9.36823C52.8109 9.61305 55.5077 9.34132 58.6379 9.80675C74.5308 12.1796 87.9395 23.7076 92.8541 38.9401C98.3392 39.7607 103.108 44.9395 103.701 50.452C103.787 51.251 103.787 52.8733 103.701 53.675H103.695ZM39.5745 25.2787C40.9713 25.2787 42.2013 26.2257 42.5216 27.5843C43.9319 33.5918 50.5986 36.9977 56.5978 34.0814C64.115 30.4253 63.6816 19.3305 55.9464 16.1209C51.729 14.3722 44.0369 15.9676 39.7844 17.4768C27.8694 21.706 18.837 32.0637 16.1671 44.4149C14.7945 44.7808 13.3276 44.5252 11.8689 44.9503C5.42559 46.8308 4.76887 55.838 10.7492 58.6843C12.5256 59.5291 14.3477 59.3193 16.1698 59.712C20.7775 80.6319 42.1932 93.4378 62.9092 87.1075C75.6074 83.2281 85.2319 72.6632 88.0822 59.712C89.9043 59.3193 91.7237 59.5318 93.5027 58.6843C99.5638 55.8003 98.7698 46.6694 92.227 44.9046C90.822 44.5252 89.3929 44.7835 88.0822 44.4149C85.8429 34.337 79.3861 25.2976 70.3914 20.2102C69.6485 19.7905 67.6165 18.6444 66.9275 18.4346C66.6449 18.3485 66.5776 18.4426 66.6422 18.7198C66.7606 19.2336 67.1751 19.8578 67.3366 20.4442C69.121 26.8257 67.4389 33.2959 62.2929 37.5573C52.9025 45.3323 39.1196 39.9033 36.6085 28.951C36.1779 27.0678 37.6447 25.2787 39.5772 25.2787H39.5745Z" fill="#2B3F5A" fill-opacity="0.5"/>
<path d="M63.7624 66.9759C65.4069 67.9605 65.7541 70.2231 64.4406 71.622C61.8703 74.3608 58.3338 76.2601 54.6142 76.809C49.0591 77.6322 43.146 75.488 39.4345 71.2885C39.4265 71.2777 39.4157 71.2669 39.4022 71.2508C38.3768 70.0052 38.6675 68.1462 40.0051 67.2422L40.5703 66.8602C40.5703 66.8602 42.6697 65.437 44.2522 67.5139C47.9556 72.37 55.8361 72.0364 59.9702 67.5301C60.9418 66.4701 62.527 66.2387 63.7624 66.9786V66.9759Z" fill="#2B3F5A" fill-opacity="0.5"/>
<path d="M41.0306 53.2714C39.8706 53.2714 38.7966 52.615 38.3176 51.5577C37.2814 49.2763 33.9252 48.5177 31.9685 50.5435C31.6536 50.869 31.4598 51.1811 31.3199 51.4904C30.83 52.572 29.7615 53.2687 28.5746 53.2687H28.5369C26.3892 53.2687 24.925 51.0788 25.7594 49.1014C28.9756 41.4852 40.5299 41.4825 43.8027 49.088C44.6532 51.0654 43.1864 53.2714 41.0306 53.2714Z" fill="#2B3F5A" fill-opacity="0.5"/>
<path d="M75.7016 53.2714H75.672C74.4851 53.2714 73.4138 52.572 72.9267 51.4931C72.7867 51.1838 72.593 50.8717 72.2781 50.5461C70.3214 48.5203 66.9652 49.279 65.929 51.5604C65.4499 52.615 64.3733 53.2741 63.2133 53.2741C61.0575 53.2741 59.5907 51.0708 60.4412 49.0907C63.7086 41.4852 75.2548 41.4906 78.4791 49.1014C79.3188 51.0788 77.852 53.2741 75.7016 53.2741V53.2714Z" fill="#2B3F5A" fill-opacity="0.5"/>
</svg>
