<svg width="1920" height="1935" viewBox="0 0 1920 1935" fill="none" xmlns="http://www.w3.org/2000/svg">
<g clip-path="url(#clip0_2055_12521)">
<path d="M62.1538 1634.13V1622.55H50.5769V1599.4H62.1538V1587.82H73.7308V1576.25H96.8846V1564.67H131.615V1553.09H166.346V1564.67H177.923V1599.4H201.077V1576.25H235.808V1587.82H247.385V1610.98H258.962V1622.55H282.115V1634.13H293.692V1645.71H305.269V1657.29H316.846V1668.86H340V1680.44H270.538V1692.02H85.3077V1680.44H73.7308V1668.86H62.1538V1657.29H39V1634.13H62.1538Z" fill="#454664"/>
<path d="M340 1680.44H270.538V1692.02H85.3077V1680.44H73.7308V1668.86H62.1538V1657.28H39V1645.71H73.7308V1657.28H96.8846V1668.86H177.923V1657.28H201.077V1634.13H212.654V1668.86H235.808V1657.28H258.962V1645.71H270.538V1622.55H282.115V1634.13H293.692V1645.71H305.269V1657.28H316.846V1668.86H340V1680.44Z" fill="#36385C"/>
<path d="M189.5 1599.4V1610.98H166.346V1599.4H143.192V1610.98H131.615V1622.55H108.461V1610.98H120.038V1599.4H131.615V1587.82H166.346V1564.67H177.923V1599.4H189.5Z" fill="#36385C"/>
<path d="M96.8845 1634.13H108.461V1622.55H96.8845V1634.13Z" fill="#36385C"/>
<path d="M212.653 1634.13H224.23V1622.55H212.653V1634.13Z" fill="#36385C"/>
<path d="M1070 322.512H1282.37V314.344H1249.7V306.176H1241.53V298.008H1233.36V281.672H1225.19V265.336H1217.02V257.168H1200.69V249H1184.35V257.168H1176.18V265.336H1168.02V273.504H1159.85V265.336H1127.18V273.504H1119.01V281.672H1110.84V289.84H1094.5V306.176H1078.17V314.344H1070V322.512Z" fill="#454664"/>
<path d="M1070 322.512H1282.37V314.344H1249.7V306.176H1241.53V298.008H1233.36V289.84H1225.19V306.176H1208.86V314.344H1151.68V306.176H1119.01V281.672H1110.84V289.84H1094.5V306.176H1078.17V314.344H1070V322.512Z" fill="#36385C"/>
<path d="M1168.02 273.504H1184.35V281.672H1200.69V273.504H1192.52V265.336H1168.02V273.504Z" fill="#36385C"/>
<path d="M1208.86 281.672H1200.69V289.84H1208.86V281.672Z" fill="#36385C"/>
<path d="M1942.35 785.833V772H1956.18V744.333H1942.35V730.5H1928.52V716.667H1900.85V702.833H1859.35V689H1817.85V702.833H1804.02V744.333H1776.35V716.667H1734.85V730.5H1721.02V758.167H1707.18V772H1679.52V785.833H1665.68V799.667H1651.85V813.5H1638.02V827.333H1610.35V841.167H1693.35V855H1914.68V841.167H1928.52V827.333H1942.35V813.5H1970.02V785.833H1942.35Z" fill="#454664"/>
<path d="M1610.35 841.166H1693.35V855H1914.68V841.166H1928.52V827.333H1942.35V813.5H1970.02V799.666H1928.52V813.5H1900.85V827.333H1804.02V813.5H1776.35V785.833H1762.52V827.333H1734.85V813.5H1707.18V799.666H1693.35V772H1679.52V785.833H1665.68V799.666H1651.85V813.5H1638.02V827.333H1610.35V841.166Z" fill="#36385C"/>
<path d="M1790.18 744.333V758.167H1817.85V744.333H1845.52V758.167H1859.35V772H1887.02V758.167H1873.18V744.333H1859.35V730.5H1817.85V702.833H1804.02V744.333H1790.18Z" fill="#36385C"/>
<path d="M1900.85 772H1887.02V785.833H1900.85V772Z" fill="#36385C"/>
<path d="M1762.52 772H1748.68V785.833H1762.52V772Z" fill="#36385C"/>
<path d="M318.09 299.721H-167.455V289.812H-127.819V279.903H-117.91V269.994H-98.0914V260.085H-78.2733V250.176H-68.3642V230.358H-48.546V220.448H-28.7278V210.539H-18.8187V200.63H0.999469V190.721H40.6358V200.63H60.454V211.084H70.3631V220.448H90.1813V230.358H100.09V250.176H119.909V230.358H129.818V220.448H139.727V211.084L179.363 210.539V220.448H209.09V230.358H228.909V240.267H238.818V250.176H248.727V260.085H278.454V269.994H288.363V279.903H308.181V289.812H318.09V299.721Z" fill="#454664"/>
<path d="M318.09 299.721H-167.455V289.812H-127.819V279.903H-117.91V269.993H-98.0914V260.084H-78.2733V250.175H-68.3642V269.993H-88.1824V279.903H-98.0914V289.812H-48.546V279.903H-28.7278V269.993H-8.90962V279.903H30.7267V289.812H129.818V279.903H149.636V269.993H179.363V279.903H199.181V289.812H218.999V269.993H228.909V260.084H238.818V250.175H248.727V260.084H278.454V269.993H288.363V279.903H308.181V289.812H318.09V299.721Z" fill="#36385C"/>
<path d="M100.091 250.176H70.3635V260.085H40.6362V250.176H60.4544V240.266H80.2726V220.448H90.1817V230.357H100.091V250.176Z" fill="#36385C"/>
<path d="M30.7271 269.994H40.6362V260.085H30.7271V269.994Z" fill="#36385C"/>
<path d="M1459 337.848H1859.23V329.68H1826.56V321.512H1818.39V313.344H1802.06V305.176H1785.72V297.008H1777.55V280.672H1761.22V272.504H1744.88V264.336H1736.71V256.168H1720.38V248H1687.7V256.168H1671.37V264.785H1663.2V272.504H1646.86V280.672H1638.7V297.008H1622.36V280.672H1614.19V272.504H1606.02V264.785L1573.35 264.336V272.504H1548.85V280.672H1532.51V288.84H1524.34V297.008H1516.18V305.176H1491.67V313.344H1483.5V321.512H1467.17V329.68H1459V337.848Z" fill="#454664"/>
<path d="M1459 337.848H1859.23V329.68H1826.56V321.512H1818.39V313.344H1802.06V305.176H1785.72V297.008H1777.55V313.344H1793.89V321.512H1802.06V329.68H1761.22V321.512H1744.88V313.344H1728.54V321.512H1695.87V329.68H1614.19V321.512H1597.86V313.344H1573.35V321.512H1557.02V329.68H1540.68V313.344H1532.51V305.176H1524.34V297.008H1516.18V305.176H1491.67V313.344H1483.5V321.512H1467.17V329.68H1459V337.848Z" fill="#36385C"/>
<path d="M1638.7 297.008H1663.2V305.176H1687.7V297.008H1671.37V288.84H1655.03V272.504H1646.86V280.672H1638.7V297.008Z" fill="#36385C"/>
<path d="M1695.87 305.176H1687.7V313.344H1695.87V305.176Z" fill="#36385C"/>
<path d="M369.368 1300.51H157V1292.34H189.672V1284.18H197.84V1276.01H206.008V1259.67H214.176V1243.34H222.344V1235.17H238.68V1227H255.016V1235.17H263.184V1243.34H271.352V1251.5H279.52V1243.34H312.192V1251.5H320.36V1259.67H328.528V1267.84H344.864V1284.18H361.2V1292.34H369.368V1300.51Z" fill="#454664"/>
<path d="M369.368 1300.51H157V1292.34H189.672V1284.18H197.84V1276.01H206.008V1267.84H214.176V1284.18H230.512V1292.34H287.688V1284.18H320.36V1259.67H328.528V1267.84H344.864V1284.18H361.2V1292.34H369.368V1300.51Z" fill="#36385C"/>
<path d="M271.352 1251.5H255.016V1259.67H238.68V1251.5H246.848V1243.34H271.352V1251.5Z" fill="#36385C"/>
<path d="M230.512 1267.84H238.68V1259.67H230.512V1267.84Z" fill="#36385C"/>
<path d="M263.184 1316.85V1325.02H287.688V1333.18H304.024V1341.35H589.904V1333.18H565.4V1325.02H549.064V1316.85H532.728V1300.51H524.56V1292.34H516.392V1284.18H491.888V1276.01H475.552V1259.67H467.384V1251.5H459.216V1243.34H434.712V1235.17H410.208V1243.34H402.04V1251.5H393.872V1267.84H377.536V1259.67H344.864V1267.84H336.696V1284.18H320.36V1292.34H312.192V1300.51H304.024V1308.68H287.688V1316.85H263.184Z" fill="#454664"/>
<path d="M263.184 1325.02H287.688V1333.18H304.024V1341.35H589.904V1333.18H565.4V1325.02H549.064V1316.85H532.728V1300.51H524.56V1292.34H516.392V1316.85H500.056V1325.02H483.72V1333.18H385.704V1325.02H369.368V1316.85H328.528V1308.68H312.192V1300.51H304.024V1308.68H287.688V1316.85H263.184V1325.02Z" fill="#36385C"/>
<path d="M377.536 1267.84V1276.01H369.368V1284.18H393.872V1292.34H418.376V1284.18H402.04V1276.01H393.872V1267.84H377.536Z" fill="#36385C"/>
<path d="M426.543 1292.34H418.375V1300.51H426.543V1292.34Z" fill="#36385C"/>
<path d="M491.887 1284.18V1292.34H467.383V1300.51H442.879V1292.34H459.215V1284.18H483.719V1276.01H491.887V1284.18Z" fill="#36385C"/>
<path d="M442.879 1300.51H434.711V1308.68H442.879V1300.51Z" fill="#36385C"/>
<path d="M434.711 1308.68H426.543V1316.85H434.711V1308.68Z" fill="#36385C"/>
<path d="M408.4 977.192V969.024H400.232V960.856H383.896V944.52H392.064V928.184H383.896V920.016H375.728V911.848H367.56V903.68H359.392V895.512H343.056V887.344H318.552V895.512H302.216V903.68H285.88V895.512H269.544V879.176H261.376V871.008H253.208V862.84H245.04V854.672H236.872V846.504H228.704V838.336H212.368V830.168H163.36V838.336H147.024V846.504H138.856V854.672H130.688V862.84H114.352V871.008H98.0158V862.84H81.6798V854.672H65.3438V846.504H32.6718V854.672H16.3358V862.84H-0.000152588V871.008H-8.16815V879.176H-24.5042V895.512H-32.6721V903.68H-40.8401V920.016H-49.0081V936.352H-40.8401V944.52H-32.6721V960.856H-57.1761V969.024H-73.5121V977.192H-89.8481V985.36H98.0158V977.192H106.184V969.024H114.352V960.856H122.52V977.192H138.856V985.36H285.88V977.192H302.216V969.024H318.552V977.192H326.72V985.36H441.072V977.192H408.4Z" fill="#454664"/>
<path d="M-89.8481 985.36H98.0158V977.192H106.184V969.024H114.352V960.856H122.52V977.192H138.856V985.36H285.88V977.192H302.216V969.024H318.552V977.192H326.72V985.36H441.072V977.192H408.4V969.024H400.232V960.856H383.896V944.52H392.064V928.184H383.896V920.016H375.728V952.688H367.56V960.856H351.224V969.024H326.72V960.856H318.552V952.688H294.048V960.856H285.88V969.024H220.536V977.192H171.528V969.024H147.024V960.856H130.688V952.688H122.52V944.52H114.352V952.688H106.184V960.856H89.8478V969.024H57.1758V977.192H16.3358V960.856H-0.000152588V952.688H-16.3362V944.52H-24.5042V936.352H-32.6721V928.184H-40.8401V920.016H-49.0081V936.352H-40.8401V944.52H-32.6721V960.856H-57.1761V969.024H-73.5121V977.192H-89.8481V985.36Z" fill="#36385C"/>
<path d="M32.6719 920.016H24.5039V928.184H32.6719V920.016Z" fill="#36385C"/>
<path d="M98.0157 911.848H89.8477V920.016H98.0157V911.848Z" fill="#36385C"/>
<path d="M245.04 920.016H236.872V928.184H245.04V920.016Z" fill="#36385C"/>
<path d="M236.872 928.184H228.704V936.352H236.872V928.184Z" fill="#36385C"/>
<path d="M57.1759 895.512V903.68H40.8399V911.848H32.6719V920.016H49.0079V911.848H65.3439V903.68H73.5119V911.848H89.8479V903.68H81.6799V895.512H57.1759Z" fill="#36385C"/>
<path d="M98.0156 871.008V879.176H114.352V887.344H122.52V895.512H147.024V903.68H163.36V911.848H187.864V903.68H171.528V895.512H155.192V887.344H147.024V879.176H130.688V871.008H122.52V862.84H114.352V871.008H98.0156Z" fill="#36385C"/>
<path d="M302.216 903.68V911.848H269.544V920.016H245.04V911.848H261.376V903.68H269.544V895.512H285.88V903.68H302.216Z" fill="#36385C"/>
<path d="M1315.32 1440.53V1424.19H1331.66V1399.69H1339.82V1391.52H1356.16V1383.35H1364.33V1367.02H1380.66V1342.51H1388.83V1334.34H1405.17V1326.18H1413.34V1318.01H1429.67V1309.84H1462.34V1318.01H1478.68V1326.18H1486.85V1334.34H1503.18V1350.68H1511.35V1334.34H1527.69V1318.01H1535.86V1309.84H1544.02V1293.5H1552.19V1285.34H1568.53V1277.17H1601.2V1285.34H1617.54V1293.5H1625.7V1309.84H1633.87V1318.01H1642.04V1334.34H1658.38V1342.51H1666.54V1358.85H1682.88V1375.18H1699.22V1358.85H1715.55V1350.68H1740.06V1358.85H1764.56V1367.02H1772.73V1375.18H1780.9V1391.52H1797.23V1407.86H1805.4V1416.02H1821.74V1424.19H1829.9V1432.36H1846.24V1440.53H1870.74V1448.7H1274.48V1440.53H1315.32Z" fill="#454664"/>
<path d="M1870.74 1448.7H1274.48V1440.53H1315.32V1424.19H1331.66V1399.69H1339.82V1391.52H1347.99V1407.86H1388.83V1424.19H1437.84V1432.36H1674.71V1424.19H1682.88V1416.02H1756.39V1407.86H1780.9V1399.69H1789.06V1391.52H1797.23V1407.86H1805.4V1416.02H1821.74V1424.19H1829.9V1432.36H1846.24V1440.53H1870.74V1448.7Z" fill="#36385C"/>
<path d="M1731.89 1407.86H1715.55V1399.69H1707.38V1391.52H1699.22V1383.35H1674.71V1375.18H1658.38V1367.02H1666.54V1358.85H1682.88V1375.18H1707.38V1383.35H1715.55V1391.52H1723.72V1399.69H1731.89V1407.86Z" fill="#36385C"/>
<path d="M1633.87 1407.86H1617.54V1399.69H1601.2V1391.52H1593.03V1383.35H1576.7V1391.52H1560.36V1399.69H1544.02V1391.52H1552.19V1383.35H1568.53V1375.18H1601.2V1383.35H1609.37V1391.52H1625.7V1399.69H1633.87V1407.86Z" fill="#36385C"/>
<path d="M1633.87 1407.86H1642.04V1416.02H1633.87V1407.86Z" fill="#36385C"/>
<path d="M1527.69 1334.34V1342.51H1519.52V1358.85H1495.02V1367.02H1478.68V1375.18H1454.18V1391.52H1446.01V1367.02H1462.34V1358.85H1486.85V1350.68H1495.02V1334.34H1503.18V1350.68H1511.35V1334.34H1527.69Z" fill="#36385C"/>
<path d="M1437.84 1391.52H1446.01V1399.69H1437.84V1391.52Z" fill="#36385C"/>
<path d="M1470.51 1448.7V1440.53H1462.34V1424.19H1470.51V1416.02H1478.68V1407.86H1495.02V1399.69H1519.52V1391.52H1544.02V1399.69H1552.19V1424.19H1568.53V1407.86H1593.03V1416.02H1601.2V1432.36H1609.37V1440.53H1625.7V1448.7H1633.87V1456.86H1642.04V1465.03H1650.21V1473.2H1666.54V1481.37H1617.54V1489.54H1486.85V1481.37H1478.68V1473.2H1470.51V1465.03H1454.18V1448.7H1470.51Z" fill="#454664"/>
<path d="M1666.54 1481.37H1617.54V1489.54H1486.85V1481.37H1478.68V1473.2H1470.51V1465.03H1454.18V1456.86H1478.68V1465.03H1495.02V1473.2H1552.19V1465.03H1568.53V1448.7H1576.7V1473.2H1593.03V1465.03H1609.37V1456.86H1617.54V1440.53H1625.7V1448.7H1633.87V1456.86H1642.04V1465.03H1650.21V1473.2H1666.54V1481.37Z" fill="#36385C"/>
<path d="M1560.36 1424.19V1432.36H1544.02V1424.19H1527.69V1432.36H1519.52V1440.53H1503.18V1432.36H1511.35V1424.19H1519.52V1416.02H1544.02V1399.69H1552.19V1424.19H1560.36Z" fill="#36385C"/>
<path d="M1495.02 1440.53H1503.18V1448.7H1495.02V1440.53Z" fill="#36385C"/>
<path d="M1576.7 1440.53H1584.86V1448.7H1576.7V1440.53Z" fill="#36385C"/>
</g>
<defs>
<clipPath id="clip0_2055_12521">
<rect width="1920" height="1935" fill="white"/>
</clipPath>
</defs>
</svg>
