<svg width="20" height="44" viewBox="0 0 20 44" fill="none" xmlns="http://www.w3.org/2000/svg">
<rect x="20" y="40" width="16" height="36" transform="rotate(-180 20 40)" fill="#F834EC"/>
<rect x="6" y="32" width="4" height="8" transform="rotate(-90 6 32)" fill="#9A2093"/>
<rect x="6" y="24" width="4" height="8" transform="rotate(-90 6 24)" fill="#9A2093"/>
<rect x="6" y="16" width="4" height="8" transform="rotate(-90 6 16)" fill="#9A2093"/>
<rect x="20" y="36" width="4" height="28" transform="rotate(-180 20 36)" fill="#030500"/>
<rect x="8" y="44" width="4" height="8" transform="rotate(-90 8 44)" fill="#030500"/>
<rect x="8" y="4" width="4" height="8" transform="rotate(-90 8 4)" fill="#030500"/>
<rect x="4" y="36" width="4" height="28" transform="rotate(-180 4 36)" fill="#030500"/>
<rect x="8" y="8" width="4" height="4" transform="rotate(-180 8 8)" fill="#030500"/>
<rect x="8" y="40" width="4" height="4" transform="rotate(-180 8 40)" fill="#030500"/>
<rect x="20" y="8" width="4" height="4" transform="rotate(-180 20 8)" fill="#030500"/>
<rect x="20" y="40" width="4" height="4" transform="rotate(-180 20 40)" fill="#030500"/>
</svg>
