<svg width="114" height="74" viewBox="0 0 114 74" fill="none" xmlns="http://www.w3.org/2000/svg">
<g opacity="0.7">
<g clip-path="url(#clip0_12_4011)">
<path d="M48.091 24.75H65.9086C66.1058 24.75 66.3002 24.7966 66.476 24.8861C66.6517 24.9756 66.8038 25.1055 66.9198 25.265L71.6985 31.835C71.7835 31.9519 71.8253 32.0946 71.8169 32.2389C71.8085 32.3832 71.7503 32.52 71.6523 32.6262L57.4585 48.0025C57.3461 48.1241 57.19 48.196 57.0245 48.2026C56.8591 48.2091 56.6978 48.1498 56.576 48.0375C56.5673 48.03 51.826 42.8937 42.3473 32.6262C42.2493 32.52 42.1911 32.3832 42.1827 32.2389C42.1743 32.0946 42.2161 31.9519 42.301 31.835L47.0798 25.265C47.1958 25.1055 47.3479 24.9756 47.5236 24.8861C47.6994 24.7966 47.8938 24.75 48.091 24.75ZM48.7285 27.25L45.2285 32.0625L56.9998 44.8125L68.771 32.0625L65.271 27.25H48.7285Z" fill="#F9F5E9" stroke="#161616" stroke-width="0.5"/>
</g>
<g clip-path="url(#clip1_12_4011)">
<path fill-rule="evenodd" clip-rule="evenodd" d="M85.1455 65.6899C85.3533 65.688 85.5718 65.7014 85.8039 65.732C85.8631 65.7416 85.9243 65.7512 85.9826 65.7617C86.0428 65.7703 86.1001 65.7809 86.1622 65.7904C86.2826 65.8134 86.4098 65.8422 86.536 65.8757C87.0458 66.0117 87.6042 66.2339 88.1625 66.4877C88.7092 66.7242 89.2608 66.9905 89.756 67.2424C90.2493 67.4923 90.6882 67.7318 90.997 67.8927C91.3057 68.0555 91.4922 68.1599 91.4922 68.1599C91.4922 68.1599 91.4436 68.1771 91.3465 68.2135C91.2523 68.2441 91.1174 68.2968 90.9445 68.3437C90.5969 68.4414 90.1094 68.5688 89.5579 68.678C89.419 68.7058 89.2802 68.7364 89.1326 68.7575C88.984 68.7786 88.8325 68.7948 88.682 68.8111C88.3771 68.8427 88.0664 68.8667 87.7547 68.8743C87.1381 68.9002 86.5157 68.8236 85.9816 68.678C84.9135 68.3916 84.1891 67.7432 83.7395 67.204C83.287 66.662 83.0947 66.2061 83.0947 66.2061C83.0947 66.2061 83.4608 65.9724 84.0706 65.8326C84.3745 65.7607 84.7328 65.6899 85.1455 65.6899Z" fill="#F9F5E9"/>
<path fill-rule="evenodd" clip-rule="evenodd" d="M83.5091 61.4987C83.7586 61.108 84.0878 60.7661 84.4286 60.4309C84.5976 60.2642 84.7743 60.1129 84.954 59.9712C85.0453 59.8993 85.1326 59.8323 85.2162 59.7672C85.2997 59.6972 85.3841 59.6302 85.4667 59.567C85.7959 59.3161 86.0969 59.115 86.3144 58.9799C86.5319 58.8334 86.6649 58.7529 86.6649 58.7529C86.6649 58.7529 86.6669 58.9426 86.6543 59.2548C86.6465 59.5737 86.6125 59.9941 86.5436 60.4778C86.4736 60.9605 86.3659 61.5016 86.2105 62.0303C86.0503 62.5417 85.8357 63.0397 85.5735 63.4525C85.5104 63.5559 85.4414 63.6536 85.3705 63.7446C85.3366 63.7915 85.2997 63.8337 85.2618 63.8768C85.2249 63.917 85.189 63.9563 85.1511 63.9946C84.9977 64.1459 84.8375 64.2752 84.6763 64.3853C84.516 64.4964 84.3558 64.5893 84.1985 64.664C84.0431 64.7378 83.8907 64.8039 83.746 64.8422C83.1653 65.004 82.742 64.9763 82.742 64.9763C82.742 64.9763 82.675 64.4869 82.7449 63.8126C82.7798 63.4745 82.8449 63.0905 82.9672 62.6978C82.9973 62.6001 83.0304 62.4996 83.0702 62.4019C83.1042 62.3004 83.144 62.1979 83.1906 62.0964C83.2809 61.8952 83.3838 61.6922 83.5091 61.4987Z" fill="#F9F5E9"/>
<path fill-rule="evenodd" clip-rule="evenodd" d="M91.7754 62.6588C91.8114 62.6243 91.8667 62.5802 91.9337 62.5208C92.0726 62.4021 92.2784 62.245 92.5464 62.0956C92.6833 62.019 92.8309 61.9462 93.0009 61.8792C93.1679 61.8112 93.3553 61.7518 93.5485 61.6905C93.9408 61.5775 94.4011 61.5066 94.9381 61.5171C95.209 61.5229 95.4867 61.5373 95.778 61.565C96.0674 61.5928 96.3674 61.634 96.6675 61.6828C96.9714 61.7307 97.2773 61.7882 97.5735 61.8437C97.8628 61.9022 98.1512 61.9596 98.4241 62.0142C98.9679 62.1282 99.4514 62.2374 99.7961 62.3197C100.147 62.403 100.354 62.4586 100.354 62.4586C100.354 62.4586 100.176 62.5802 99.8709 62.7679C99.7233 62.8618 99.5388 62.97 99.332 63.0878C99.231 63.1462 99.1203 63.2075 99.0048 63.2698C98.8892 63.3301 98.7659 63.3885 98.6387 63.4479C98.3843 63.5657 98.1124 63.6835 97.8318 63.7965C97.689 63.8502 97.5492 63.9038 97.4026 63.9555C97.3297 63.9823 97.2579 64.0082 97.185 64.0312C97.1112 64.0513 97.0365 64.0733 96.9607 64.0944C96.3616 64.2563 95.7537 64.3626 95.2032 64.3607C94.0758 64.329 93.2096 63.9134 92.6241 63.5102C92.3318 63.3138 92.1036 63.1079 91.9512 62.9576C91.7997 62.8082 91.7211 62.7105 91.7211 62.7105C91.7211 62.7105 91.7395 62.6923 91.7754 62.6588Z" fill="#F9F5E9"/>
<path fill-rule="evenodd" clip-rule="evenodd" d="M93.3289 59.4265C93.1881 59.8795 92.9706 60.2549 92.7288 60.5547C92.6104 60.7098 92.4783 60.8343 92.3462 60.9416C92.2152 61.0508 92.0812 61.1437 91.9539 61.2232C91.7015 61.3812 91.4704 61.4808 91.3053 61.5421C91.2228 61.5746 91.1499 61.59 91.1053 61.6015C91.0538 61.6129 91.0295 61.6177 91.0295 61.6177C91.0295 61.6177 90.9781 61.5038 90.9149 61.3093C90.8499 61.113 90.7703 60.8362 90.7071 60.4982C90.577 59.8239 90.5207 58.939 90.7887 58.0732C90.913 57.6288 91.1247 57.1997 91.3723 56.8061C91.6102 56.4048 91.8734 56.0236 92.1316 55.7085C92.2627 55.5534 92.3754 55.3973 92.4851 55.2642C92.5919 55.1291 92.6939 55.0142 92.7784 54.9184C92.9463 54.7269 93.058 54.6187 93.058 54.6187C93.058 54.6187 93.1134 54.8006 93.1862 55.1013C93.259 55.4011 93.3503 55.8263 93.4231 56.31C93.4581 56.5542 93.494 56.8166 93.5144 57.0819C93.5299 57.3434 93.5387 57.6135 93.5338 57.8826C93.5299 58.1527 93.5144 58.4237 93.4814 58.6861C93.4464 58.9457 93.4037 59.2023 93.3289 59.4265Z" fill="#F9F5E9"/>
<path fill-rule="evenodd" clip-rule="evenodd" d="M99.4952 56.602C99.5971 56.4574 99.7418 56.2496 99.9574 56.0331C100.171 55.8167 100.453 55.5916 100.805 55.3819C101.147 55.1674 101.567 54.9758 102.085 54.8436C102.257 54.7986 102.442 54.7613 102.628 54.7239C102.813 54.6856 103.004 54.654 103.202 54.6234C104.177 54.4788 105.283 54.4242 106.116 54.3724C106.959 54.3265 107.562 54.3169 107.562 54.3169C107.562 54.3169 107.356 54.5707 107.005 54.9471C106.665 55.3273 106.14 55.7966 105.558 56.2525C105.467 56.3224 105.376 56.3885 105.286 56.4574C105.239 56.4909 105.193 56.5235 105.144 56.5589C105.096 56.5905 105.047 56.6202 104.998 56.6528C104.801 56.7763 104.6 56.8961 104.396 57.0043C104.194 57.1135 103.99 57.2131 103.783 57.2964C103.579 57.3826 103.38 57.4582 103.171 57.5071C102.081 57.7743 101.131 57.6086 100.449 57.374C99.7603 57.1336 99.3447 56.8405 99.3447 56.8405C99.3447 56.8405 99.3922 56.7486 99.4952 56.602Z" fill="#F9F5E9"/>
<path fill-rule="evenodd" clip-rule="evenodd" d="M99.1354 55.3512C98.9382 55.5705 98.7518 55.7324 98.6042 55.8301C98.4576 55.9287 98.3605 55.9728 98.3605 55.9728C98.3605 55.9728 98.0342 55.5935 97.7225 54.9882C97.404 54.3762 97.0836 53.5334 97.0904 52.6351C97.0865 52.3028 97.1234 51.957 97.1914 51.6247C97.2244 51.46 97.2681 51.2952 97.3157 51.1324C97.3632 50.9753 97.403 50.8087 97.4545 50.6536C97.539 50.3835 97.6342 50.1287 97.7283 49.9008C97.7536 49.8443 97.7788 49.7887 97.8002 49.7332C97.8245 49.6786 97.8429 49.6259 97.8653 49.5723C97.906 49.4679 97.9449 49.3721 97.9837 49.284C98.1371 48.9306 98.2546 48.7161 98.2546 48.7161C98.2546 48.7161 98.5527 49.1605 98.9004 49.8347C98.9887 50.0033 99.08 50.1843 99.1694 50.3796C99.213 50.4764 99.2577 50.5779 99.3004 50.6765C99.3441 50.7771 99.381 50.8796 99.4238 50.984C99.5791 51.3977 99.718 51.8431 99.8112 52.2836C99.85 52.4541 99.8782 52.6217 99.9005 52.7864C99.9209 52.9502 99.9268 53.1082 99.9268 53.2605C99.9268 53.7384 99.8277 54.1531 99.6859 54.5075C99.5335 54.8551 99.3296 55.1319 99.1354 55.3512Z" fill="#F9F5E9"/>
<path fill-rule="evenodd" clip-rule="evenodd" d="M106.751 49.4132C106.54 49.4228 106.342 49.4199 106.157 49.4084C105.427 49.3615 104.943 49.1901 104.943 49.1901C104.943 49.1901 104.961 49.0876 105.017 48.919C105.043 48.8357 105.083 48.738 105.13 48.626C105.173 48.5101 105.228 48.3865 105.297 48.2544C105.44 47.9881 105.635 47.6941 105.918 47.4029C105.983 47.3369 106.055 47.265 106.135 47.1827C106.211 47.108 106.295 47.0352 106.382 46.9624C106.558 46.8178 106.758 46.677 106.984 46.5429C107.212 46.4107 107.463 46.2843 107.734 46.1627C107.989 46.0382 108.266 45.9204 108.545 45.8045C109.103 45.5766 109.689 45.3687 110.221 45.1906C110.744 45.0086 111.204 44.8535 111.543 44.7462C111.88 44.638 112.087 44.5776 112.087 44.5776C112.087 44.5776 112.01 44.7721 111.863 45.0843C111.79 45.2413 111.702 45.431 111.591 45.6331C111.475 45.8371 111.345 46.0564 111.2 46.2881C111.056 46.5199 110.894 46.7593 110.724 46.9997C110.681 47.0582 110.637 47.1185 110.591 47.1769C110.546 47.2334 110.499 47.2909 110.448 47.3512C110.352 47.4671 110.251 47.5801 110.149 47.6903C109.942 47.9144 109.727 48.126 109.507 48.3157C109.396 48.4133 109.286 48.5034 109.169 48.5867C109.051 48.6671 108.932 48.7438 108.811 48.8127C108.331 49.0876 107.849 49.2475 107.4 49.3347C107.174 49.3797 106.956 49.4017 106.751 49.4132Z" fill="#F9F5E9"/>
<path fill-rule="evenodd" clip-rule="evenodd" d="M104.581 46.8618C104.535 47.2306 104.428 47.5543 104.306 47.8177C104.245 47.9498 104.18 48.0657 104.118 48.1663C104.055 48.2668 103.986 48.3502 103.932 48.4153C103.82 48.5494 103.741 48.6174 103.741 48.6174C103.741 48.6174 103.316 48.3396 102.837 47.8397C102.718 47.7161 102.597 47.5782 102.474 47.4279C102.346 47.2737 102.223 47.108 102.107 46.9327C101.875 46.5803 101.668 46.1847 101.537 45.7518C101.503 45.6427 101.479 45.5335 101.452 45.4205C101.424 45.3075 101.402 45.1925 101.382 45.0786C101.345 44.8477 101.32 44.615 101.314 44.3852C101.306 43.9293 101.298 43.4715 101.332 43.0759C101.348 42.8767 101.368 42.69 101.39 42.5243C101.404 42.3557 101.419 42.2063 101.437 42.0837C101.465 41.8338 101.495 41.6863 101.495 41.6863C101.495 41.6863 101.645 41.8098 101.879 42.0272C102.113 42.2437 102.433 42.5549 102.774 42.9304C103.103 43.301 103.448 43.7358 103.747 44.1965C103.9 44.4273 104.04 44.6639 104.164 44.9023C104.282 45.136 104.373 45.3707 104.445 45.6015C104.515 45.8285 104.557 46.0506 104.581 46.2604C104.593 46.3667 104.6 46.4701 104.6 46.5697C104.6 46.6205 104.6 46.6703 104.598 46.7182C104.593 46.7651 104.588 46.813 104.581 46.8618Z" fill="#F9F5E9"/>
<path fill-rule="evenodd" clip-rule="evenodd" d="M111.003 39.9183C110.796 40.061 110.587 40.1788 110.379 40.2784C109.964 40.4757 109.559 40.5945 109.205 40.6663C108.493 40.809 107.979 40.7688 107.979 40.7688C107.979 40.7688 107.919 40.3531 108.053 39.7756C108.082 39.6281 108.138 39.4739 108.188 39.3102C108.24 39.1445 108.309 38.9721 108.398 38.7968C108.485 38.6196 108.597 38.4367 108.73 38.2538C108.797 38.1618 108.868 38.0689 108.947 37.977C108.987 37.931 109.028 37.885 109.071 37.8372C109.11 37.7912 109.152 37.7462 109.198 37.6983C109.896 36.9551 111.026 36.1918 111.917 35.5721C112.369 35.2647 112.779 35.0004 113.077 34.8098C113.375 34.6201 113.562 34.51 113.562 34.51C113.562 34.51 113.536 34.7159 113.477 35.055C113.417 35.394 113.328 35.8614 113.189 36.3785C113.029 36.8967 112.824 37.4636 112.569 37.9971C112.508 38.1302 112.435 38.2605 112.357 38.3888C112.281 38.5143 112.202 38.6407 112.121 38.7595C111.956 38.9989 111.78 39.223 111.592 39.4145C111.4 39.6099 111.212 39.7775 111.003 39.9183Z" fill="#F9F5E9"/>
<path fill-rule="evenodd" clip-rule="evenodd" d="M106.659 40.5245C106.659 40.5245 106.168 40.3646 105.562 40.0054C105.254 39.8244 104.921 39.5965 104.603 39.3187C104.444 39.178 104.29 39.0266 104.144 38.8619C103.992 38.6953 103.845 38.5171 103.717 38.3246C103.587 38.1321 103.475 37.9252 103.376 37.7136C103.277 37.5029 103.207 37.2864 103.121 37.0652C102.959 36.6266 102.851 36.186 102.774 35.7962C102.677 35.4007 102.62 35.0549 102.585 34.8078C102.552 34.5588 102.542 34.4094 102.542 34.4094C102.542 34.4094 102.718 34.4908 103.003 34.6402C103.287 34.7925 103.674 35.0099 104.105 35.2848C104.53 35.5597 105.008 35.8929 105.414 36.2598C105.828 36.6266 106.208 37.0298 106.485 37.4378C106.627 37.6389 106.717 37.841 106.798 38.0383C106.873 38.2346 106.925 38.4281 106.96 38.6148C106.995 38.7997 107.014 38.9778 107.016 39.1444C107.022 39.3101 106.995 39.4672 106.973 39.608C106.873 40.175 106.659 40.5245 106.659 40.5245Z" fill="#F9F5E9"/>
<path fill-rule="evenodd" clip-rule="evenodd" d="M112.121 27.352C112.087 27.5723 112.046 27.7935 111.997 28.01C111.892 28.4419 111.769 28.8509 111.566 29.21C111.308 29.6841 110.988 30.0624 110.651 30.3612C110.313 30.6591 109.969 30.8784 109.642 31.0402C108.992 31.3668 108.485 31.4626 108.485 31.4626C108.485 31.4626 108.442 31.3678 108.4 31.1983C108.359 31.0259 108.292 30.7845 108.266 30.4905C108.238 30.1936 108.244 29.845 108.322 29.4571C108.39 29.0702 108.513 28.6469 108.756 28.1929C108.836 28.0435 108.928 27.8864 109.028 27.7303C109.076 27.6547 109.128 27.5752 109.181 27.4947C109.232 27.4181 109.284 27.3357 109.336 27.2582C109.606 26.8645 109.909 26.4661 110.216 26.0859C110.521 25.7057 110.83 25.3408 111.088 25.0314C111.613 24.407 112.01 23.9731 112.01 23.9731C112.01 23.9731 112.071 24.2921 112.134 24.7882C112.172 25.0372 112.185 25.3341 112.194 25.6559C112.203 25.9777 112.203 26.3282 112.188 26.6854C112.182 26.9028 112.153 27.1289 112.121 27.352Z" fill="#F9F5E9"/>
<path fill-rule="evenodd" clip-rule="evenodd" d="M103.683 30.2366C103.618 30.183 103.557 30.1246 103.496 30.0652C103.433 30.0048 103.368 29.9435 103.308 29.8803C103.182 29.7568 103.07 29.6246 102.961 29.4886C102.855 29.3545 102.753 29.2157 102.658 29.0749C102.558 28.9255 102.468 28.7856 102.381 28.6554C102.224 28.4169 102.088 28.1784 101.97 27.9601C101.911 27.8499 101.858 27.7427 101.809 27.644C101.765 27.5425 101.707 27.4515 101.664 27.3653C101.487 27.0244 101.397 26.7993 101.397 26.7993C101.397 26.7993 101.943 26.8846 102.711 27.0886C102.899 27.1384 103.109 27.1949 103.313 27.2648C103.52 27.3309 103.735 27.4075 103.951 27.4908C104.384 27.6565 104.826 27.8547 105.237 28.0817C105.558 28.2551 105.828 28.4524 106.073 28.6583C106.445 28.9753 106.712 29.3229 106.887 29.661C107.053 30.001 107.14 30.3305 107.18 30.6139C107.219 30.9003 107.226 31.1388 107.198 31.3093C107.177 31.4788 107.146 31.5774 107.146 31.5774C107.146 31.5774 106.631 31.5525 105.948 31.3658C105.265 31.1809 104.381 30.8438 103.683 30.2366Z" fill="#F9F5E9"/>
<path fill-rule="evenodd" clip-rule="evenodd" d="M108.002 20.7552C107.76 21.1335 107.484 21.44 107.223 21.6833C106.7 22.1669 106.242 22.3949 106.242 22.3949C106.242 22.3949 106.173 22.3135 106.077 22.165C105.979 22.0146 105.865 21.7905 105.751 21.5147C105.632 21.2398 105.533 20.9056 105.487 20.5129C105.464 20.3204 105.464 20.1069 105.464 19.8875C105.465 19.6663 105.488 19.4326 105.533 19.1846C105.579 18.9356 105.647 18.6731 105.727 18.405C105.768 18.2709 105.814 18.133 105.86 17.997C105.908 17.8629 105.952 17.7259 106 17.589C106.192 17.0431 106.419 16.4924 106.631 15.9992C106.739 15.7549 106.84 15.5222 106.932 15.3115C107.025 15.1046 107.107 14.9198 107.177 14.7656C107.316 14.4534 107.403 14.2676 107.403 14.2676C107.403 14.2676 107.506 14.4534 107.655 14.7656C107.735 14.9179 107.81 15.1113 107.896 15.3249C107.979 15.5423 108.068 15.7827 108.153 16.0375C108.194 16.1648 108.236 16.298 108.279 16.432C108.318 16.5671 108.359 16.704 108.39 16.8487C108.453 17.1312 108.506 17.4271 108.546 17.7183C108.585 18.0104 108.612 18.3025 108.612 18.5841C108.607 18.8723 108.58 19.151 108.53 19.4106C108.427 19.9325 108.236 20.3788 108.002 20.7552Z" fill="#F9F5E9"/>
<path fill-rule="evenodd" clip-rule="evenodd" d="M100.646 22.1562C100.439 22.0317 100.236 21.8919 100.049 21.7473C99.8593 21.5998 99.6855 21.4475 99.5185 21.2952C99.3505 21.1458 99.1815 20.9983 99.0368 20.8547C98.8883 20.711 98.7562 20.5721 98.6387 20.4476C98.5804 20.3825 98.5251 20.3222 98.4746 20.2676C98.4231 20.212 98.3746 20.1622 98.3319 20.1153C98.1532 19.9276 98.0571 19.8098 98.0571 19.8098C98.0571 19.8098 98.2542 19.7858 98.5834 19.7657C98.9096 19.7446 99.3738 19.7217 99.8826 19.7408C100.392 19.7571 100.969 19.8031 101.533 19.895C101.677 19.9199 101.819 19.9448 101.958 19.9735C102.093 20.0071 102.226 20.0406 102.357 20.0789C102.618 20.1536 102.869 20.2436 103.097 20.3471C103.325 20.4476 103.529 20.5635 103.709 20.689C103.893 20.8135 104.038 20.9543 104.172 21.0922C104.432 21.3737 104.616 21.663 104.746 21.9254C104.87 22.1869 104.923 22.4244 104.954 22.591C104.987 22.7596 104.988 22.8611 104.988 22.8611C104.988 22.8611 104.487 22.976 103.774 22.9789C103.416 22.9827 103.011 22.9578 102.585 22.8841C102.15 22.8142 101.699 22.6954 101.266 22.5029C101.053 22.4043 100.848 22.2874 100.646 22.1562Z" fill="#F9F5E9"/>
<path fill-rule="evenodd" clip-rule="evenodd" d="M102.898 12.5992C102.775 13.0234 102.598 13.3883 102.417 13.6872C102.054 14.2829 101.681 14.6181 101.681 14.6181C101.681 14.6181 101.314 14.3825 100.947 13.9036C100.853 13.7829 100.761 13.6479 100.674 13.4947C100.585 13.3472 100.492 13.1824 100.414 13.0033C100.255 12.6432 100.138 12.2094 100.09 11.7047C100.034 11.2057 100.045 10.6368 100.086 10.0554C100.131 9.4674 100.183 8.89181 100.246 8.3641C100.312 7.83735 100.38 7.37093 100.429 7.03285C100.483 6.69956 100.515 6.49365 100.515 6.49365C100.515 6.49365 100.556 6.52813 100.62 6.60283C100.683 6.67658 100.776 6.78193 100.888 6.91697C101.114 7.18609 101.419 7.56439 101.732 8.00878C102.029 8.46753 102.335 8.99237 102.58 9.52774C102.817 10.0746 102.983 10.6435 103.038 11.1645C103.052 11.2967 103.058 11.4231 103.058 11.5495C103.058 11.675 103.047 11.7995 103.034 11.9201C103.007 12.1615 102.959 12.3885 102.898 12.5992Z" fill="#F9F5E9"/>
<path fill-rule="evenodd" clip-rule="evenodd" d="M96.2047 15.819C96.0892 15.7826 95.9775 15.7414 95.862 15.6964C95.8076 15.6753 95.7522 15.6533 95.6959 15.6303C95.6377 15.6063 95.5833 15.5862 95.526 15.5642C95.0725 15.3851 94.6589 15.1648 94.2986 14.958C93.9267 14.7655 93.6208 14.572 93.4043 14.4322C93.2955 14.3594 93.2101 14.299 93.1538 14.2598C93.0906 14.2196 93.0586 14.1994 93.0586 14.1994C93.0586 14.1994 93.1052 14.1822 93.1907 14.1487C93.2781 14.1161 93.4004 14.073 93.5529 14.0251C93.8578 13.9265 94.2918 13.7972 94.7929 13.6794C95.0453 13.621 95.3114 13.5645 95.5901 13.5166C95.728 13.4936 95.8697 13.4697 96.0096 13.4505C96.1504 13.4342 96.2912 13.4199 96.431 13.4084C96.9971 13.3614 97.5642 13.3633 98.0682 13.4428C98.5644 13.5252 98.9702 13.6976 99.3082 13.8939C99.4781 13.9935 99.6315 14.0998 99.7607 14.2119C99.8908 14.3249 99.9986 14.4417 100.093 14.5519C100.474 15.0001 100.604 15.3842 100.604 15.3842C100.604 15.3842 100.151 15.6245 99.4596 15.8123C99.1149 15.908 98.7119 15.9904 98.2789 16.0297C97.8438 16.0708 97.3933 16.0555 96.9126 15.9875C96.6708 15.9502 96.4359 15.8908 96.2047 15.819Z" fill="#F9F5E9"/>
<path fill-rule="evenodd" clip-rule="evenodd" d="M94.8911 7.73386C94.8008 7.92349 94.7377 8.02884 94.7377 8.02884C94.7377 8.02884 94.7105 8.02118 94.6648 8.00011C94.6173 7.98287 94.5503 7.95605 94.4658 7.91583C94.2978 7.84017 94.0686 7.7195 93.821 7.53657C93.3365 7.16018 92.7383 6.6047 92.3567 5.64984C92.2266 5.33667 92.1081 4.99284 92.0081 4.62507C91.8809 4.16824 91.776 3.68171 91.6847 3.20859C91.5886 2.74697 91.5051 2.29588 91.4371 1.89746C91.3031 1.10446 91.2303 0.532696 91.2303 0.531738C91.2303 0.531738 91.5177 0.703172 91.9469 0.99911C92.1586 1.14373 92.4082 1.32282 92.6713 1.5249C92.9286 1.73752 93.1996 1.97504 93.4656 2.22883C93.6307 2.3859 93.7899 2.54776 93.9453 2.71536C93.9832 2.75654 94.024 2.79773 94.0618 2.84082C94.0968 2.88392 94.1337 2.92798 94.1706 2.97395C94.2405 3.06397 94.3094 3.154 94.3794 3.24498C94.6474 3.60605 94.8746 3.98148 95.0309 4.35212C95.1358 4.59155 95.2009 4.84535 95.2465 5.08095C95.2902 5.31847 95.3125 5.54737 95.3154 5.7686C95.3251 6.2082 95.2611 6.60278 95.1727 6.93799C95.0863 7.27319 94.9785 7.54327 94.8911 7.73386Z" fill="#F9F5E9"/>
<path fill-rule="evenodd" clip-rule="evenodd" d="M88.4492 10.4673C88.1579 10.4118 87.884 10.3448 87.6326 10.2796C87.3791 10.2231 87.149 10.1628 86.9567 10.1082C86.5751 9.9971 86.3391 9.90612 86.3391 9.90612C86.3391 9.90612 86.7732 9.58049 87.4413 9.18399C87.7724 8.9867 88.1647 8.77025 88.5929 8.57009C89.0124 8.37471 89.46 8.20136 89.9086 8.06824C90.2543 7.96672 90.6 7.88723 90.9263 7.85275C91.9216 7.76464 92.7072 8.04621 93.1946 8.3862C93.4442 8.55093 93.6277 8.71662 93.751 8.84112C93.8122 8.90146 93.8578 8.95414 93.887 8.98957C93.9161 9.02884 93.9297 9.04895 93.9297 9.04895C93.9297 9.04895 93.8404 9.1361 93.6733 9.26731C93.5063 9.40044 93.2616 9.57857 92.9577 9.75959C92.6538 9.94443 92.2906 10.1302 91.8876 10.2835C91.6847 10.3582 91.471 10.4281 91.2506 10.4798C91.0302 10.5344 90.8039 10.5708 90.5612 10.6024C89.8572 10.6886 89.127 10.5756 88.4492 10.4673Z" fill="#F9F5E9"/>
<path fill-rule="evenodd" clip-rule="evenodd" d="M78.0518 66.4236C78.2431 66.3996 78.48 66.3718 78.747 66.3402C78.883 66.3201 79.0267 66.3115 79.1762 66.2837C79.3248 66.2579 79.4821 66.2301 79.6452 66.2023C79.9744 66.1468 80.3298 66.0874 80.7075 66.0232C81.0804 65.9418 81.4727 65.8556 81.8776 65.7694C82.0835 65.7215 82.2913 65.6832 82.4972 65.6277C82.703 65.5712 82.9118 65.5156 83.1235 65.4582C83.5439 65.3423 83.976 65.2398 84.3946 65.0952C86.0968 64.5933 87.7242 63.899 88.9244 63.3464C89.2186 63.2018 89.4944 63.0686 89.7342 62.9527C89.8566 62.8943 89.9673 62.8388 90.0712 62.7871C90.1751 62.7353 90.2673 62.6817 90.3518 62.6376C90.6907 62.4528 90.881 62.3465 90.881 62.3465C90.881 62.3465 91.0733 62.2431 91.4132 62.0582C91.7482 61.8676 92.2113 61.5746 92.7726 61.2355C93.8728 60.522 95.3148 59.5222 96.6305 58.3834C97.9521 57.2485 99.1659 56.0092 100.02 55.0371C100.133 54.9203 100.227 54.7986 100.323 54.6847C100.418 54.5707 100.505 54.4653 100.589 54.3629C100.757 54.1617 100.904 53.9846 101.024 53.838C101.147 53.6953 101.23 53.5727 101.29 53.4933C101.351 53.4109 101.385 53.3697 101.385 53.3697C101.385 53.3697 101.512 53.1983 101.738 52.8956C101.849 52.7453 101.993 52.5662 102.14 52.3497C102.286 52.1333 102.453 51.8881 102.631 51.6218C102.723 51.4897 102.817 51.3508 102.912 51.2062C103.011 51.0616 103.097 50.9074 103.194 50.7513C103.387 50.4352 103.585 50.1029 103.792 49.76C103.98 49.4066 104.178 49.0427 104.378 48.674C104.43 48.5801 104.479 48.4872 104.53 48.3953C104.575 48.2985 104.618 48.2028 104.666 48.1079C104.757 47.9164 104.848 47.7239 104.942 47.5304C105.663 45.9885 106.26 44.3929 106.601 43.1661C106.648 43.0138 106.69 42.8672 106.733 42.7293C106.774 42.5905 106.816 42.4593 106.842 42.3347C106.902 42.0838 106.959 41.8635 107 41.6835C107.088 41.3234 107.14 41.1175 107.14 41.1175C107.14 41.1175 107.152 41.0658 107.177 40.969C107.198 40.8752 107.223 40.7296 107.258 40.5467C107.292 40.3657 107.333 40.1463 107.379 39.8916C107.426 39.6397 107.491 39.3543 107.525 39.0382C107.568 38.7241 107.614 38.3841 107.661 38.024C107.673 37.9349 107.688 37.843 107.697 37.7511C107.71 37.6591 107.715 37.5653 107.724 37.4685C107.736 37.2799 107.755 37.0845 107.769 36.8872C107.853 36.099 107.853 35.2533 107.879 34.4095C107.853 33.5639 107.853 32.7191 107.769 31.93C107.755 31.7336 107.736 31.5392 107.724 31.3496C107.715 31.2538 107.71 31.16 107.697 31.068C107.688 30.9751 107.673 30.8832 107.661 30.7932C107.614 30.434 107.568 30.0921 107.525 29.7789C107.491 29.4629 107.426 29.1803 107.379 28.9256C107.333 28.6727 107.292 28.4525 107.258 28.2705C107.223 28.0895 107.198 27.9439 107.177 27.8481C107.152 27.7514 107.14 27.6997 107.14 27.6997C107.14 27.6997 107.088 27.4947 107 27.1346C106.959 26.9546 106.902 26.7362 106.842 26.4853C106.816 26.3598 106.774 26.2267 106.733 26.0888C106.69 25.949 106.648 25.8043 106.601 25.6511C106.26 24.4262 105.663 22.8306 104.942 21.2867C104.848 21.0961 104.757 20.9008 104.666 20.7102C104.618 20.6135 104.575 20.5206 104.53 20.4238C104.479 20.3309 104.43 20.238 104.378 20.1432C104.178 19.7735 103.98 19.4096 103.792 19.0581C103.585 18.7152 103.387 18.3829 103.194 18.0678C103.097 17.9127 103.011 17.7556 102.912 17.6119C102.817 17.4673 102.723 17.3294 102.631 17.1953C102.453 16.9291 102.286 16.6839 102.14 16.4684C101.993 16.252 101.849 16.0738 101.738 15.9225C101.512 15.6208 101.385 15.4494 101.385 15.4494C101.385 15.4494 101.351 15.4063 101.29 15.3249C101.23 15.2454 101.147 15.1228 101.024 14.9801C100.904 14.8345 100.757 14.6583 100.589 14.4553C100.505 14.3537 100.418 14.2465 100.323 14.1306C100.227 14.0195 100.133 13.8979 100.02 13.7801C99.1659 12.8099 97.9521 11.5696 96.6305 10.4337C95.3148 9.29501 93.8728 8.29705 92.7726 7.58067C92.2113 7.2426 91.7482 6.94953 91.4132 6.76086C91.0733 6.57602 90.881 6.46971 90.881 6.46971C90.881 6.46971 90.6907 6.36532 90.3518 6.18047C90.2673 6.13546 90.1751 6.08566 90.0712 6.02915C89.9673 5.97935 89.8566 5.9238 89.7342 5.86538C89.6527 5.82516 89.5692 5.78493 89.4818 5.74375C89.475 5.74375 89.4682 5.74375 89.4604 5.74375C89.2458 5.76195 88.9419 5.77152 88.5855 5.75237C87.866 5.72076 86.9357 5.57423 86.1162 5.13176C85.6918 4.91723 85.2918 4.62608 84.9442 4.31099C84.7742 4.152 84.5975 3.99302 84.4334 3.83499C84.2712 3.67697 84.1227 3.51799 83.9857 3.36475C83.7255 3.05636 83.4818 2.79011 83.3225 2.5909C83.1652 2.3917 83.0759 2.26623 83.0759 2.26623C83.0759 2.26623 83.273 2.25761 83.5993 2.25523C83.9255 2.25283 84.3839 2.2624 84.9005 2.30263C85.0306 2.31412 85.1646 2.3237 85.2996 2.33998C85.4336 2.35626 85.5695 2.37446 85.7054 2.39649C85.9793 2.43767 86.2589 2.49034 86.5357 2.55451C87.0863 2.6838 87.6446 2.85045 88.0718 3.08701C88.5088 3.32069 88.8448 3.60418 89.1011 3.89437C89.3468 4.1884 89.5002 4.49295 89.6119 4.76208C89.7148 5.03024 89.7702 5.26584 89.7906 5.43632C89.7964 5.46888 89.7974 5.49953 89.7993 5.52826C89.8314 5.54454 89.8634 5.56178 89.8964 5.57423C90.0168 5.63553 90.1304 5.69012 90.2372 5.74088C90.3392 5.79834 90.4344 5.84814 90.5208 5.89603C90.8597 6.08087 91.0539 6.18814 91.0539 6.18814C91.0539 6.18814 91.25 6.29349 91.5918 6.47928C91.9268 6.67083 92.3958 6.96581 92.9658 7.31059C94.0777 8.03081 95.5323 9.04025 96.8636 10.1914C98.1968 11.3369 99.4213 12.5896 100.287 13.5703C100.4 13.6891 100.494 13.8145 100.589 13.9266C100.687 14.0415 100.776 14.1497 100.859 14.2532C101.029 14.4572 101.178 14.6353 101.298 14.7828C101.423 14.9274 101.506 15.051 101.569 15.1314C101.629 15.2119 101.663 15.2559 101.663 15.2559C101.663 15.2559 101.793 15.4302 102.022 15.7329C102.133 15.888 102.278 16.0681 102.428 16.2855C102.577 16.5048 102.742 16.7519 102.923 17.0201C103.017 17.1551 103.109 17.2949 103.208 17.4405C103.304 17.5861 103.394 17.7451 103.494 17.9021C103.683 18.2182 103.888 18.5553 104.096 18.9029C104.288 19.2573 104.487 19.6251 104.687 20.0005C104.738 20.0944 104.789 20.1882 104.841 20.2821C104.885 20.3769 104.933 20.4736 104.977 20.5704C105.07 20.7648 105.163 20.9601 105.254 21.1546C105.986 22.7128 106.591 24.3247 106.932 25.562C106.981 25.7162 107.023 25.8628 107.064 26.0045C107.107 26.1463 107.152 26.2765 107.178 26.4048C107.239 26.6567 107.294 26.8789 107.336 27.0609C107.426 27.4229 107.477 27.6317 107.477 27.6317C107.477 27.6317 107.49 27.6844 107.513 27.7811C107.537 27.8788 107.56 28.0244 107.596 28.2073C107.629 28.3912 107.673 28.6153 107.72 28.871C107.765 29.1267 107.831 29.414 107.867 29.732C107.91 30.05 107.957 30.3938 108.004 30.7568C108.015 30.8487 108.03 30.9406 108.041 31.0326C108.053 31.1284 108.058 31.2232 108.067 31.318C108.082 31.5095 108.096 31.704 108.113 31.908C108.197 32.7019 108.197 33.5552 108.227 34.4095C108.197 35.2629 108.197 36.1153 108.113 36.913C108.096 37.1123 108.082 37.3067 108.067 37.5011C108.058 37.5969 108.053 37.6917 108.041 37.7827C108.03 37.8765 108.015 37.9713 108.004 38.0614C107.957 38.4234 107.91 38.7701 107.867 39.0871C107.831 39.4031 107.765 39.6914 107.72 39.9481C107.673 40.2038 107.629 40.425 107.596 40.6099C107.56 40.7938 107.537 40.9384 107.513 41.037C107.49 41.1338 107.477 41.1864 107.477 41.1864C107.477 41.1864 107.426 41.3933 107.336 41.7563C107.294 41.9392 107.239 42.1614 107.178 42.4123C107.152 42.5397 107.107 42.6738 107.064 42.8127C107.023 42.9544 106.981 43.1019 106.932 43.2561C106.591 44.4935 105.986 46.1044 105.254 47.6655C105.163 47.858 105.07 48.0533 104.977 48.2468C104.933 48.3445 104.885 48.4403 104.841 48.536C104.789 48.628 104.738 48.7247 104.687 48.8186C104.487 49.1911 104.288 49.5599 104.096 49.9152C103.888 50.2619 103.683 50.598 103.494 50.916C103.394 51.0731 103.304 51.2311 103.208 51.3767C103.109 51.5213 103.017 51.664 102.923 51.7981C102.742 52.0672 102.577 52.3143 102.428 52.5326C102.278 52.7501 102.133 52.9311 102.022 53.0843C101.793 53.3879 101.663 53.5622 101.663 53.5622C101.663 53.5622 101.629 53.6063 101.569 53.6877C101.506 53.7681 101.423 53.8907 101.298 54.0353C101.178 54.1819 101.029 54.361 100.859 54.5669C100.776 54.6684 100.687 54.7766 100.589 54.8915C100.494 55.0026 100.4 55.1291 100.287 55.2469C99.4213 56.2295 98.1968 57.4812 96.8636 58.6267C95.5323 59.776 94.0777 60.7854 92.9658 61.5085C92.3958 61.8523 91.9268 62.1463 91.5918 62.3388C91.25 62.5256 91.0539 62.63 91.0539 62.63C91.0539 62.63 90.8597 62.7382 90.5208 62.9221C90.4344 62.969 90.3392 63.0207 90.2372 63.0763C90.1304 63.128 90.0168 63.1826 89.8964 63.241C89.6527 63.3598 89.3779 63.4948 89.0769 63.6404C87.864 64.1978 86.2191 64.8988 84.5004 65.4064C84.078 65.552 83.642 65.6545 83.2147 65.7723C83.005 65.8307 82.7923 65.8882 82.5836 65.9437C82.3777 66.0012 82.167 66.0386 81.9611 66.0864C81.5504 66.1755 81.1523 66.2617 80.7765 66.345C80.3968 66.4082 80.0366 66.4686 79.7045 66.5251C79.5384 66.5529 79.3811 66.5816 79.2306 66.6065C79.0772 66.6352 78.9325 66.6458 78.7975 66.6649C78.5247 66.6975 78.2877 66.7243 78.0916 66.7492C77.7032 66.7971 77.4798 66.8239 77.4798 66.8239L77.4439 66.4963C77.4439 66.4963 77.6663 66.4705 78.0518 66.4236Z" fill="#F9F5E9"/>
<path fill-rule="evenodd" clip-rule="evenodd" d="M81.8779 66.1037C81.8779 66.1037 77.1869 67.2836 76.1323 71.5455L76.2644 66.5241L81.5653 65.8374L81.8779 66.1037Z" fill="#F9F5E9"/>
</g>
<g clip-path="url(#clip2_12_4011)">
<path fill-rule="evenodd" clip-rule="evenodd" d="M28.8554 66.6899C28.6476 66.688 28.4292 66.7014 28.1971 66.732C28.1379 66.7416 28.0767 66.7512 28.0184 66.7617C27.9582 66.7703 27.9009 66.7809 27.8388 66.7904C27.7184 66.8134 27.5912 66.8422 27.4649 66.8757C26.9551 67.0117 26.3968 67.2339 25.8385 67.4877C25.2918 67.7242 24.7402 67.9905 24.245 68.2424C23.7517 68.4923 23.3128 68.7318 23.004 68.8927C22.6952 69.0555 22.5088 69.1599 22.5088 69.1599C22.5088 69.1599 22.5573 69.1771 22.6544 69.2135C22.7486 69.2441 22.8836 69.2968 23.0565 69.3437C23.4041 69.4414 23.8915 69.5688 24.4431 69.678C24.5819 69.7058 24.7208 69.7364 24.8684 69.7575C25.017 69.7786 25.1684 69.7948 25.319 69.8111C25.6239 69.8427 25.9346 69.8667 26.2463 69.8743C26.8629 69.9002 27.4853 69.8236 28.0194 69.678C29.0875 69.3916 29.8119 68.7432 30.2615 68.204C30.714 67.662 30.9063 67.2061 30.9063 67.2061C30.9063 67.2061 30.5402 66.9724 29.9304 66.8326C29.6264 66.7607 29.2681 66.6899 28.8554 66.6899Z" fill="#F9F5E9"/>
<path fill-rule="evenodd" clip-rule="evenodd" d="M30.4919 62.4987C30.2423 62.108 29.9132 61.7661 29.5723 61.4309C29.4034 61.2642 29.2266 61.1129 29.047 60.9712C28.9557 60.8993 28.8683 60.8323 28.7848 60.7672C28.7013 60.6972 28.6168 60.6302 28.5343 60.567C28.2051 60.3161 27.9041 60.115 27.6866 59.9799C27.4691 59.8334 27.336 59.7529 27.336 59.7529C27.336 59.7529 27.3341 59.9426 27.3467 60.2548C27.3545 60.5737 27.3885 60.9941 27.4574 61.4778C27.5273 61.9605 27.6351 62.5016 27.7905 63.0303C27.9507 63.5417 28.1653 64.0397 28.4275 64.4525C28.4906 64.5559 28.5595 64.6536 28.6304 64.7446C28.6644 64.7915 28.7013 64.8337 28.7392 64.8768C28.7761 64.917 28.812 64.9563 28.8499 64.9946C29.0033 65.1459 29.1635 65.2752 29.3247 65.3853C29.4849 65.4964 29.6452 65.5893 29.8025 65.664C29.9578 65.7378 30.1103 65.8039 30.255 65.8422C30.8356 66.004 31.259 65.9763 31.259 65.9763C31.259 65.9763 31.326 65.4869 31.2561 64.8126C31.2211 64.4745 31.1561 64.0905 31.0337 63.6978C31.0036 63.6001 30.9706 63.4996 30.9308 63.4019C30.8968 63.3004 30.857 63.1979 30.8104 63.0964C30.7201 62.8952 30.6172 62.6922 30.4919 62.4987Z" fill="#F9F5E9"/>
<path fill-rule="evenodd" clip-rule="evenodd" d="M22.2255 63.6588C22.1896 63.6243 22.1343 63.5802 22.0673 63.5208C21.9284 63.4021 21.7225 63.245 21.4545 63.0956C21.3176 63.019 21.17 62.9462 21.0001 62.8792C20.8331 62.8112 20.6457 62.7518 20.4524 62.6905C20.0601 62.5775 19.5999 62.5066 19.0629 62.5171C18.792 62.5229 18.5143 62.5373 18.223 62.565C17.9336 62.5928 17.6335 62.634 17.3335 62.6828C17.0296 62.7307 16.7237 62.7882 16.4275 62.8437C16.1381 62.9022 15.8498 62.9596 15.5769 63.0142C15.0331 63.1282 14.5495 63.2374 14.2048 63.3197C13.8543 63.403 13.6465 63.4586 13.6465 63.4586C13.6465 63.4586 13.8252 63.5802 14.1301 63.7679C14.2777 63.8618 14.4622 63.97 14.669 64.0878C14.77 64.1462 14.8807 64.2075 14.9962 64.2698C15.1118 64.3301 15.2351 64.3885 15.3623 64.4479C15.6167 64.5657 15.8886 64.6835 16.1692 64.7965C16.312 64.8502 16.4518 64.9038 16.5984 64.9555C16.6712 64.9823 16.7431 65.0082 16.8159 65.0312C16.8897 65.0513 16.9645 65.0733 17.0402 65.0944C17.6394 65.2563 18.2472 65.3626 18.7978 65.3607C19.9252 65.329 20.7913 64.9134 21.3769 64.5102C21.6691 64.3138 21.8973 64.1079 22.0498 63.9576C22.2013 63.8082 22.2799 63.7105 22.2799 63.7105C22.2799 63.7105 22.2615 63.6923 22.2255 63.6588Z" fill="#F9F5E9"/>
<path fill-rule="evenodd" clip-rule="evenodd" d="M20.6721 60.4265C20.8129 60.8795 21.0304 61.2549 21.2721 61.5547C21.3906 61.7098 21.5227 61.8343 21.6547 61.9416C21.7858 62.0508 21.9198 62.1437 22.047 62.2232C22.2995 62.3812 22.5306 62.4808 22.6957 62.5421C22.7782 62.5746 22.851 62.59 22.8957 62.6015C22.9472 62.6129 22.9715 62.6177 22.9715 62.6177C22.9715 62.6177 23.0229 62.5038 23.086 62.3093C23.1511 62.113 23.2307 61.8362 23.2938 61.4982C23.424 60.8239 23.4803 59.939 23.2123 59.0732C23.088 58.6288 22.8763 58.1997 22.6287 57.8061C22.3908 57.4048 22.1276 57.0236 21.8693 56.7085C21.7382 56.5534 21.6256 56.3973 21.5159 56.2642C21.4091 56.1291 21.3071 56.0142 21.2226 55.9184C21.0546 55.7269 20.943 55.6187 20.943 55.6187C20.943 55.6187 20.8876 55.8006 20.8148 56.1013C20.742 56.4011 20.6507 56.8263 20.5779 57.31C20.5429 57.5542 20.507 57.8166 20.4866 58.0819C20.471 58.3434 20.4623 58.6135 20.4672 58.8826C20.471 59.1527 20.4866 59.4237 20.5196 59.6861C20.5546 59.9457 20.5973 60.2023 20.6721 60.4265Z" fill="#F9F5E9"/>
<path fill-rule="evenodd" clip-rule="evenodd" d="M14.5058 57.602C14.4038 57.4574 14.2592 57.2496 14.0436 57.0331C13.83 56.8167 13.5484 56.5916 13.1959 56.3819C12.8541 56.1674 12.4336 55.9758 11.9161 55.8436C11.7442 55.7986 11.5587 55.7613 11.3733 55.7239C11.1878 55.6856 10.9975 55.654 10.7994 55.6234C9.82447 55.4788 8.71749 55.4242 7.88532 55.3724C7.04149 55.3265 6.43945 55.3169 6.43945 55.3169C6.43945 55.3169 6.64531 55.5707 6.99585 55.9471C7.33571 56.3273 7.86104 56.7966 8.44269 57.2525C8.53397 57.3224 8.62524 57.3885 8.71458 57.4574C8.76216 57.4909 8.8078 57.5235 8.85732 57.5589C8.9049 57.5905 8.95442 57.6202 9.00297 57.6528C9.20009 57.7763 9.4011 57.8961 9.60501 58.0043C9.80699 58.1135 10.0109 58.2131 10.2177 58.2964C10.4217 58.3826 10.6207 58.4582 10.8305 58.5071C11.92 58.7743 12.8696 58.6086 13.5523 58.374C14.2407 58.1336 14.6563 57.8405 14.6563 57.8405C14.6563 57.8405 14.6087 57.7486 14.5058 57.602Z" fill="#F9F5E9"/>
<path fill-rule="evenodd" clip-rule="evenodd" d="M14.8656 56.3512C15.0627 56.5705 15.2492 56.7324 15.3968 56.8301C15.5434 56.9287 15.6405 56.9728 15.6405 56.9728C15.6405 56.9728 15.9668 56.5935 16.2785 55.9882C16.597 55.3762 16.9174 54.5334 16.9106 53.6351C16.9145 53.3028 16.8776 52.957 16.8096 52.6247C16.7766 52.46 16.7329 52.2952 16.6853 52.1324C16.6377 51.9753 16.5979 51.8087 16.5465 51.6536C16.462 51.3835 16.3668 51.1287 16.2726 50.9008C16.2474 50.8443 16.2221 50.7887 16.2008 50.7332C16.1765 50.6786 16.1581 50.6259 16.1357 50.5723C16.0949 50.4679 16.0561 50.3721 16.0173 50.284C15.8638 49.9306 15.7463 49.7161 15.7463 49.7161C15.7463 49.7161 15.4482 50.1605 15.1006 50.8347C15.0122 51.0033 14.921 51.1843 14.8316 51.3796C14.7879 51.4764 14.7433 51.5779 14.7005 51.6765C14.6568 51.7771 14.6199 51.8796 14.5772 51.984C14.4218 52.3977 14.283 52.8431 14.1898 53.2836C14.1509 53.4541 14.1228 53.6217 14.1004 53.7864C14.08 53.9502 14.0742 54.1082 14.0742 54.2605C14.0742 54.7384 14.1733 55.1531 14.315 55.5075C14.4675 55.8551 14.6714 56.1319 14.8656 56.3512Z" fill="#F9F5E9"/>
<path fill-rule="evenodd" clip-rule="evenodd" d="M7.24988 50.4132C7.46059 50.4228 7.65868 50.4199 7.84415 50.4084C8.57436 50.3615 9.05794 50.1901 9.05794 50.1901C9.05794 50.1901 9.03949 50.0876 8.98414 49.919C8.95792 49.8357 8.91811 49.738 8.87053 49.626C8.8278 49.5101 8.77343 49.3865 8.70351 49.2544C8.56077 48.9881 8.36559 48.6941 8.08302 48.4029C8.01796 48.3369 7.94611 48.265 7.86551 48.1827C7.78977 48.108 7.70626 48.0352 7.61887 47.9624C7.44311 47.8178 7.24308 47.677 7.01683 47.5429C6.78864 47.4107 6.53811 47.2843 6.26719 47.1627C6.01181 47.0382 5.73507 46.9204 5.45638 46.8045C4.89804 46.5766 4.31154 46.3687 3.78038 46.1906C3.257 46.0086 2.79673 45.8535 2.45784 45.7462C2.12089 45.638 1.91406 45.5776 1.91406 45.5776C1.91406 45.5776 1.99077 45.7721 2.13837 46.0843C2.2112 46.2413 2.29859 46.431 2.41026 46.6331C2.52581 46.8371 2.65593 47.0564 2.80061 47.2881C2.9453 47.5199 3.10649 47.7593 3.27739 47.9997C3.32012 48.0582 3.36381 48.1185 3.41042 48.1769C3.45509 48.2334 3.5017 48.2909 3.55316 48.3512C3.64929 48.4671 3.75028 48.5801 3.85224 48.6903C4.05907 48.9144 4.27367 49.126 4.49409 49.3157C4.60479 49.4133 4.71452 49.5034 4.83201 49.5867C4.95048 49.6671 5.06894 49.7438 5.19032 49.8127C5.67001 50.0876 6.15164 50.2475 6.60123 50.3347C6.82651 50.3797 7.04499 50.4017 7.24988 50.4132Z" fill="#F9F5E9"/>
<path fill-rule="evenodd" clip-rule="evenodd" d="M9.41982 47.8618C9.46643 48.2306 9.57324 48.5543 9.69462 48.8177C9.75579 48.9498 9.82085 49.0657 9.883 49.1663C9.94612 49.2668 10.0151 49.3502 10.0694 49.4153C10.1811 49.5494 10.2598 49.6174 10.2598 49.6174C10.2598 49.6174 10.6851 49.3396 11.1638 48.8397C11.2832 48.7161 11.4036 48.5782 11.527 48.4279C11.6551 48.2737 11.7775 48.108 11.894 47.9327C12.1261 47.5803 12.3329 47.1847 12.464 46.7518C12.498 46.6427 12.5223 46.5335 12.5494 46.4205C12.5766 46.3075 12.599 46.1925 12.6194 46.0786C12.6563 45.8477 12.6805 45.615 12.6873 45.3852C12.6951 44.9293 12.7029 44.4715 12.6689 44.0759C12.6533 43.8767 12.633 43.69 12.6106 43.5243C12.597 43.3557 12.5825 43.2063 12.564 43.0837C12.5359 42.8338 12.5058 42.6863 12.5058 42.6863C12.5058 42.6863 12.3562 42.8098 12.1222 43.0272C11.8882 43.2437 11.5677 43.5549 11.2269 43.9304C10.8977 44.301 10.553 44.7358 10.2539 45.1965C10.1005 45.4273 9.96068 45.6639 9.83736 45.9023C9.71889 46.136 9.62762 46.3707 9.55576 46.6015C9.48585 46.8285 9.44409 47.0506 9.41982 47.2604C9.40816 47.3667 9.40137 47.4701 9.40137 47.5697C9.40137 47.6205 9.40137 47.6703 9.40331 47.7182C9.40816 47.7651 9.41302 47.813 9.41982 47.8618Z" fill="#F9F5E9"/>
<path fill-rule="evenodd" clip-rule="evenodd" d="M2.99812 40.9183C3.20495 41.061 3.41372 41.1788 3.62152 41.2784C4.03712 41.4757 4.44204 41.5945 4.79647 41.6663C5.50823 41.809 6.02191 41.7688 6.02191 41.7688C6.02191 41.7688 6.08211 41.3531 5.94811 40.7756C5.91898 40.6281 5.86266 40.4739 5.81314 40.3102C5.7607 40.1445 5.69176 39.9721 5.6034 39.7968C5.516 39.6196 5.40433 39.4367 5.2713 39.2538C5.2043 39.1618 5.13342 39.0689 5.05379 38.977C5.01398 38.931 4.9732 38.885 4.9295 38.8372C4.89066 38.7912 4.8489 38.7462 4.80327 38.6983C4.10509 37.9551 2.97481 37.1918 2.08438 36.5721C1.63188 36.2647 1.2221 36.0004 0.923998 35.8098C0.625891 35.6201 0.439453 35.51 0.439453 35.51C0.439453 35.51 0.4647 35.7159 0.523933 36.055C0.584137 36.394 0.673472 36.8614 0.812329 37.3785C0.971578 37.8967 1.17744 38.4636 1.43185 38.9971C1.49302 39.1302 1.56585 39.2605 1.64353 39.3888C1.72024 39.5143 1.7989 39.6407 1.88046 39.7595C2.04457 39.9989 2.22129 40.223 2.4087 40.4145C2.60097 40.6099 2.78935 40.7775 2.99812 40.9183Z" fill="#F9F5E9"/>
<path fill-rule="evenodd" clip-rule="evenodd" d="M7.34157 41.5245C7.34157 41.5245 7.83291 41.3646 8.43883 41.0054C8.74665 40.8244 9.07971 40.5965 9.39821 40.3187C9.55746 40.178 9.71088 40.0266 9.85654 39.8619C10.009 39.6953 10.1556 39.5171 10.2838 39.3246C10.4139 39.1321 10.5256 38.9252 10.6246 38.7136C10.7237 38.5029 10.7936 38.2864 10.88 38.0652C11.0422 37.6266 11.15 37.186 11.2267 36.7962C11.3238 36.4007 11.3811 36.0549 11.416 35.8078C11.449 35.5588 11.4587 35.4094 11.4587 35.4094C11.4587 35.4094 11.283 35.4908 10.9985 35.6402C10.714 35.7925 10.3265 36.0099 9.89635 36.2848C9.47104 36.5597 8.99329 36.8929 8.5874 37.2598C8.17277 37.6266 7.7931 38.0298 7.51635 38.4378C7.37361 38.6389 7.28428 38.841 7.20271 39.0383C7.12794 39.2346 7.0755 39.4281 7.04055 39.6148C7.00559 39.7997 6.98714 39.9778 6.9852 40.1444C6.97937 40.3101 7.00559 40.4672 7.02792 40.608C7.12794 41.175 7.34157 41.5245 7.34157 41.5245Z" fill="#F9F5E9"/>
<path fill-rule="evenodd" clip-rule="evenodd" d="M1.88047 28.352C1.91445 28.5723 1.95523 28.7935 2.00379 29.01C2.10866 29.4419 2.23198 29.8509 2.43492 30.21C2.69322 30.6841 3.01269 31.0624 3.34964 31.3612C3.68755 31.6591 4.03227 31.8784 4.35854 32.0402C5.00913 32.3668 5.516 32.4626 5.516 32.4626C5.516 32.4626 5.55873 32.3678 5.60146 32.1983C5.64224 32.0259 5.70924 31.7845 5.73449 31.4905C5.76265 31.1936 5.75682 30.845 5.67914 30.4571C5.61117 30.0702 5.48785 29.6469 5.24509 29.1929C5.16449 29.0435 5.07321 28.8864 4.9732 28.7303C4.92465 28.6547 4.87318 28.5752 4.81978 28.4947C4.76928 28.4181 4.71685 28.3357 4.66538 28.2582C4.39544 27.8645 4.0915 27.4661 3.78466 27.0859C3.47975 26.7057 3.17097 26.3408 2.91267 26.0314C2.38831 25.407 1.99116 24.9731 1.99116 24.9731C1.99116 24.9731 1.92999 25.2921 1.86687 25.7882C1.829 26.0372 1.81638 26.3341 1.80667 26.6559C1.79793 26.9777 1.79793 27.3282 1.81346 27.6854C1.81929 27.9028 1.84842 28.1289 1.88047 28.352Z" fill="#F9F5E9"/>
<path fill-rule="evenodd" clip-rule="evenodd" d="M10.3177 31.2366C10.3828 31.183 10.4439 31.1246 10.5051 31.0652C10.5682 31.0048 10.6333 30.9435 10.6925 30.8803C10.8188 30.7568 10.9314 30.6246 11.0402 30.4886C11.146 30.3545 11.248 30.2157 11.3431 30.0749C11.4431 29.9255 11.5334 29.7856 11.6199 29.6554C11.7772 29.4169 11.9131 29.1784 12.0306 28.9601C12.0898 28.8499 12.1432 28.7427 12.1918 28.644C12.2365 28.5425 12.2938 28.4515 12.3374 28.3653C12.5142 28.0244 12.6035 27.7993 12.6035 27.7993C12.6035 27.7993 12.0578 27.8846 11.2897 28.0886C11.1023 28.1384 10.8916 28.1949 10.6877 28.2648C10.4808 28.3309 10.2662 28.4075 10.0497 28.4908C9.61662 28.6565 9.1748 28.8547 8.76406 29.0817C8.44264 29.2551 8.1727 29.4524 7.928 29.6583C7.55609 29.9753 7.28906 30.3229 7.11427 30.661C6.94823 31.001 6.86083 31.3305 6.82102 31.6139C6.78218 31.9003 6.77538 32.1388 6.80257 32.3093C6.82394 32.4788 6.85501 32.5774 6.85501 32.5774C6.85501 32.5774 7.36965 32.5525 8.05326 32.3658C8.7359 32.1809 9.61953 31.8438 10.3177 31.2366Z" fill="#F9F5E9"/>
<path fill-rule="evenodd" clip-rule="evenodd" d="M5.99945 21.7552C6.24124 22.1335 6.51701 22.44 6.77822 22.6833C7.30063 23.1669 7.75896 23.3949 7.75896 23.3949C7.75896 23.3949 7.8279 23.3135 7.92403 23.165C8.02211 23.0146 8.13572 22.7905 8.2503 22.5147C8.36877 22.2398 8.46781 21.9056 8.51442 21.5129C8.53675 21.3204 8.53675 21.1069 8.53675 20.8875C8.53578 20.6663 8.51248 20.4326 8.46781 20.1846C8.42217 19.9356 8.3542 19.6731 8.2736 19.405C8.23282 19.2709 8.18718 19.133 8.14057 18.997C8.09299 18.8629 8.0493 18.7259 8.00074 18.589C7.80848 18.0431 7.58223 17.4924 7.36958 16.9992C7.26179 16.7549 7.1608 16.5222 7.06856 16.3115C6.97631 16.1046 6.89377 15.9198 6.82386 15.7656C6.685 15.4534 6.59761 15.2676 6.59761 15.2676C6.59761 15.2676 6.49468 15.4534 6.34611 15.7656C6.26551 15.9179 6.19074 16.1113 6.10529 16.3249C6.02178 16.5423 5.93342 16.7827 5.84797 17.0375C5.80719 17.1648 5.76543 17.298 5.72174 17.432C5.68289 17.5671 5.64211 17.704 5.61104 17.8487C5.54792 18.1312 5.49451 18.4271 5.4547 18.7183C5.41586 19.0104 5.38867 19.3025 5.38867 19.5841C5.39353 19.8723 5.42072 20.151 5.47121 20.4106C5.57414 20.9325 5.76543 21.3788 5.99945 21.7552Z" fill="#F9F5E9"/>
<path fill-rule="evenodd" clip-rule="evenodd" d="M13.3551 23.1562C13.562 23.0317 13.7649 22.8919 13.9523 22.7473C14.1417 22.5998 14.3155 22.4475 14.4825 22.2952C14.6505 22.1458 14.8195 21.9983 14.9641 21.8547C15.1127 21.711 15.2448 21.5721 15.3623 21.4476C15.4205 21.3825 15.4759 21.3222 15.5264 21.2676C15.5778 21.212 15.6264 21.1622 15.6691 21.1153C15.8478 20.9276 15.9439 20.8098 15.9439 20.8098C15.9439 20.8098 15.7468 20.7858 15.4176 20.7657C15.0913 20.7446 14.6272 20.7217 14.1184 20.7408C13.6086 20.7571 13.0318 20.8031 12.4676 20.895C12.3239 20.9199 12.1821 20.9448 12.0433 20.9735C11.9083 21.0071 11.7753 21.0406 11.6442 21.0789C11.383 21.1536 11.1315 21.2436 10.9043 21.3471C10.6761 21.4476 10.4722 21.5635 10.2915 21.689C10.108 21.8135 9.96333 21.9543 9.82933 22.0922C9.5691 22.3737 9.3846 22.663 9.25448 22.9254C9.13116 23.1869 9.07775 23.4244 9.04668 23.591C9.01367 23.7596 9.0127 23.8611 9.0127 23.8611C9.0127 23.8611 9.51375 23.976 10.2265 23.9789C10.5848 23.9827 10.9897 23.9578 11.416 23.8841C11.851 23.8142 12.3016 23.6954 12.7347 23.5029C12.9483 23.4043 13.1532 23.2874 13.3551 23.1562Z" fill="#F9F5E9"/>
<path fill-rule="evenodd" clip-rule="evenodd" d="M11.1026 13.5992C11.2259 14.0234 11.4027 14.3883 11.5842 14.6872C11.9474 15.2829 12.3203 15.6181 12.3203 15.6181C12.3203 15.6181 12.6873 15.3825 13.0544 14.9036C13.1476 14.7829 13.2398 14.6479 13.3272 14.4947C13.4156 14.3472 13.5088 14.1824 13.5865 14.0033C13.7458 13.6432 13.8633 13.2094 13.9108 12.7047C13.9672 12.2057 13.9565 11.6368 13.9147 11.0554C13.87 10.4674 13.8176 9.89181 13.7545 9.3641C13.6894 8.83735 13.6215 8.37093 13.5719 8.03285C13.5176 7.69956 13.4855 7.49365 13.4855 7.49365C13.4855 7.49365 13.4447 7.52813 13.3806 7.60283C13.3175 7.67658 13.2253 7.78193 13.1126 7.91697C12.8874 8.18609 12.5825 8.56439 12.2688 9.00878C11.9717 9.46753 11.6658 9.99237 11.4211 10.5277C11.1842 11.0746 11.0181 11.6435 10.9628 12.1645C10.9492 12.2967 10.9434 12.4231 10.9434 12.5495C10.9434 12.675 10.954 12.7995 10.9667 12.9201C10.9939 13.1615 11.0424 13.3885 11.1026 13.5992Z" fill="#F9F5E9"/>
<path fill-rule="evenodd" clip-rule="evenodd" d="M17.7962 16.819C17.9118 16.7826 18.0235 16.7414 18.139 16.6964C18.1934 16.6753 18.2487 16.6533 18.3051 16.6303C18.3633 16.6063 18.4177 16.5862 18.475 16.5642C18.9285 16.3851 19.3421 16.1648 19.7024 15.958C20.0743 15.7655 20.3801 15.572 20.5967 15.4322C20.7054 15.3594 20.7909 15.299 20.8472 15.2598C20.9103 15.2196 20.9424 15.1994 20.9424 15.1994C20.9424 15.1994 20.8958 15.1822 20.8103 15.1487C20.7229 15.1161 20.6006 15.073 20.4481 15.0251C20.1432 14.9265 19.7092 14.7972 19.2081 14.6794C18.9556 14.621 18.6896 14.5645 18.4109 14.5166C18.273 14.4936 18.1312 14.4697 17.9914 14.4505C17.8506 14.4342 17.7098 14.4199 17.57 14.4084C17.0039 14.3614 16.4368 14.3633 15.9328 14.4428C15.4366 14.5252 15.0307 14.6976 14.6928 14.8939C14.5229 14.9935 14.3695 15.0998 14.2403 15.2119C14.1102 15.3249 14.0024 15.4417 13.9082 15.5519C13.5266 16.0001 13.3975 16.3842 13.3975 16.3842C13.3975 16.3842 13.85 16.6245 14.5413 16.8123C14.8861 16.908 15.289 16.9904 15.7221 17.0297C16.1571 17.0708 16.6077 17.0555 17.0883 16.9875C17.3301 16.9502 17.5651 16.8908 17.7962 16.819Z" fill="#F9F5E9"/>
<path fill-rule="evenodd" clip-rule="evenodd" d="M19.1099 8.73386C19.2002 8.92349 19.2633 9.02884 19.2633 9.02884C19.2633 9.02884 19.2905 9.02118 19.3361 9.00011C19.3837 8.98287 19.4507 8.95605 19.5352 8.91583C19.7032 8.84017 19.9323 8.7195 20.18 8.53657C20.6645 8.16018 21.2627 7.6047 21.6443 6.64984C21.7744 6.33667 21.8929 5.99284 21.9929 5.62507C22.1201 5.16824 22.225 4.68171 22.3162 4.20859C22.4124 3.74697 22.4959 3.29588 22.5638 2.89746C22.6978 2.10446 22.7707 1.5327 22.7707 1.53174C22.7707 1.53174 22.4832 1.70317 22.0541 1.99911C21.8424 2.14373 21.5928 2.32282 21.3297 2.5249C21.0723 2.73752 20.8014 2.97504 20.5354 3.22883C20.3703 3.3859 20.211 3.54776 20.0557 3.71536C20.0178 3.75654 19.977 3.79773 19.9391 3.84082C19.9042 3.88392 19.8673 3.92798 19.8304 3.97395C19.7605 4.06397 19.6915 4.154 19.6216 4.24498C19.3536 4.60605 19.1264 4.98148 18.9701 5.35212C18.8652 5.59155 18.8001 5.84535 18.7545 6.08095C18.7108 6.31847 18.6885 6.54737 18.6855 6.7686C18.6758 7.2082 18.7399 7.60278 18.8283 7.93799C18.9147 8.27319 19.0225 8.54327 19.1099 8.73386Z" fill="#F9F5E9"/>
<path fill-rule="evenodd" clip-rule="evenodd" d="M25.5518 11.4673C25.8431 11.4118 26.1169 11.3448 26.3684 11.2796C26.6219 11.2231 26.852 11.1628 27.0443 11.1082C27.4259 10.9971 27.6618 10.9061 27.6618 10.9061C27.6618 10.9061 27.2278 10.5805 26.5597 10.184C26.2286 9.9867 25.8363 9.77025 25.4081 9.57009C24.9886 9.37471 24.5409 9.20136 24.0923 9.06824C23.7466 8.96672 23.401 8.88723 23.0747 8.85275C22.0794 8.76464 21.2938 9.04621 20.8064 9.3862C20.5568 9.55093 20.3733 9.71662 20.25 9.84112C20.1888 9.90146 20.1431 9.95414 20.114 9.98957C20.0849 10.0288 20.0713 10.049 20.0713 10.049C20.0713 10.049 20.1606 10.1361 20.3276 10.2673C20.4947 10.4004 20.7394 10.5786 21.0433 10.7596C21.3472 10.9444 21.7104 11.1302 22.1134 11.2835C22.3163 11.3582 22.5299 11.4281 22.7504 11.4798C22.9708 11.5344 23.197 11.5708 23.4398 11.6024C24.1438 11.6886 24.874 11.5756 25.5518 11.4673Z" fill="#F9F5E9"/>
<path fill-rule="evenodd" clip-rule="evenodd" d="M35.9492 67.4236C35.7579 67.3996 35.521 67.3718 35.2539 67.3402C35.118 67.3201 34.9743 67.3115 34.8247 67.2837C34.6762 67.2579 34.5189 67.2301 34.3557 67.2023C34.0266 67.1468 33.6712 67.0874 33.2934 67.0232C32.9206 66.9418 32.5283 66.8556 32.1233 66.7694C31.9175 66.7215 31.7097 66.6832 31.5038 66.6277C31.298 66.5712 31.0892 66.5156 30.8775 66.4582C30.4571 66.3423 30.0249 66.2398 29.6064 66.0952C27.9042 65.5933 26.2768 64.899 25.0766 64.3464C24.7823 64.2018 24.5066 64.0686 24.2667 63.9527C24.1444 63.8943 24.0337 63.8388 23.9298 63.7871C23.8259 63.7353 23.7336 63.6817 23.6492 63.6376C23.3103 63.4528 23.1199 63.3465 23.1199 63.3465C23.1199 63.3465 22.9277 63.2431 22.5878 63.0582C22.2528 62.8676 21.7896 62.5746 21.2284 62.2355C20.1282 61.522 18.6862 60.5222 17.3705 59.3834C16.0489 58.2485 14.8351 57.0092 13.9806 56.0371C13.868 55.9203 13.7738 55.7986 13.6776 55.6847C13.5834 55.5707 13.4961 55.4653 13.4116 55.3629C13.2436 55.1617 13.097 54.9846 12.9766 54.838C12.8542 54.6953 12.7707 54.5727 12.7105 54.4933C12.6503 54.4109 12.6163 54.3697 12.6163 54.3697C12.6163 54.3697 12.4891 54.1983 12.2628 53.8956C12.1521 53.7453 12.0084 53.5662 11.8608 53.3497C11.7152 53.1333 11.5482 52.8881 11.3695 52.6218C11.2782 52.4897 11.184 52.3508 11.0889 52.2062C10.9898 52.0616 10.9044 51.9074 10.8073 51.7513C10.614 51.4352 10.4159 51.1029 10.2091 50.76C10.0207 50.4066 9.82264 50.0427 9.62261 49.674C9.57115 49.5801 9.52162 49.4872 9.47113 49.3953C9.42646 49.2985 9.38277 49.2028 9.33519 49.1079C9.24391 48.9164 9.15263 48.7239 9.05941 48.5304C8.33794 46.9885 7.74075 45.3929 7.39992 44.1661C7.35331 44.0138 7.31059 43.8672 7.26786 43.7293C7.22708 43.5905 7.18532 43.4593 7.1591 43.3347C7.0989 43.0838 7.04161 42.8635 7.00083 42.6835C6.91343 42.3234 6.861 42.1175 6.861 42.1175C6.861 42.1175 6.84935 42.0658 6.8241 41.969C6.80274 41.8752 6.77846 41.7296 6.74253 41.5467C6.70855 41.3657 6.66776 41.1463 6.62212 40.8916C6.57454 40.6397 6.50948 40.3543 6.4755 40.0382C6.43277 39.7241 6.38713 39.3841 6.33955 39.024C6.3279 38.9349 6.31334 38.843 6.30363 38.7511C6.291 38.6591 6.28615 38.5653 6.27741 38.4685C6.26478 38.2799 6.24634 38.0845 6.23177 37.8872C6.14826 37.099 6.14826 36.2533 6.12204 35.4095C6.14826 34.5639 6.14826 33.7191 6.23177 32.93C6.24634 32.7336 6.26478 32.5392 6.27741 32.3496C6.28615 32.2538 6.291 32.16 6.30363 32.068C6.31334 31.9751 6.3279 31.8832 6.33955 31.7932C6.38713 31.434 6.43277 31.0921 6.4755 30.7789C6.50948 30.4629 6.57454 30.1803 6.62212 29.9256C6.66776 29.6727 6.70855 29.4525 6.74253 29.2705C6.77846 29.0895 6.80274 28.9439 6.8241 28.8481C6.84935 28.7514 6.861 28.6997 6.861 28.6997C6.861 28.6997 6.91343 28.4947 7.00083 28.1346C7.04161 27.9546 7.0989 27.7362 7.1591 27.4853C7.18532 27.3598 7.22708 27.2267 7.26786 27.0888C7.31059 26.949 7.35331 26.8043 7.39992 26.6511C7.74075 25.4262 8.33794 23.8306 9.05941 22.2867C9.15263 22.0961 9.24391 21.9008 9.33519 21.7102C9.38277 21.6135 9.42646 21.5206 9.47113 21.4238C9.52162 21.3309 9.57115 21.238 9.62261 21.1432C9.82264 20.7735 10.0207 20.4096 10.2091 20.0581C10.4159 19.7152 10.614 19.3829 10.8073 19.0678C10.9044 18.9127 10.9898 18.7556 11.0889 18.6119C11.184 18.4673 11.2782 18.3294 11.3695 18.1953C11.5482 17.9291 11.7152 17.6839 11.8608 17.4684C12.0084 17.252 12.1521 17.0738 12.2628 16.9225C12.4891 16.6208 12.6163 16.4494 12.6163 16.4494C12.6163 16.4494 12.6503 16.4063 12.7105 16.3249C12.7707 16.2454 12.8542 16.1228 12.9766 15.9801C13.097 15.8345 13.2436 15.6583 13.4116 15.4553C13.4961 15.3537 13.5834 15.2465 13.6776 15.1306C13.7738 15.0195 13.868 14.8979 13.9806 14.7801C14.8351 13.8099 16.0489 12.5696 17.3705 11.4337C18.6862 10.295 20.1282 9.29705 21.2284 8.58067C21.7896 8.2426 22.2528 7.94953 22.5878 7.76086C22.9277 7.57602 23.1199 7.46971 23.1199 7.46971C23.1199 7.46971 23.3103 7.36532 23.6492 7.18047C23.7336 7.13546 23.8259 7.08566 23.9298 7.02915C24.0337 6.97935 24.1444 6.9238 24.2667 6.86538C24.3483 6.82516 24.4318 6.78493 24.5192 6.74375C24.526 6.74375 24.5328 6.74375 24.5406 6.74375C24.7552 6.76195 25.0591 6.77152 25.4155 6.75237C26.135 6.72076 27.0652 6.57423 27.8848 6.13176C28.3091 5.91723 28.7092 5.62608 29.0568 5.31099C29.2268 5.152 29.4035 4.99302 29.5676 4.83499C29.7297 4.67697 29.8783 4.51799 30.0152 4.36475C30.2755 4.05636 30.5192 3.79011 30.6784 3.5909C30.8358 3.3917 30.9251 3.26623 30.9251 3.26623C30.9251 3.26623 30.728 3.25761 30.4017 3.25523C30.0754 3.25283 29.6171 3.2624 29.1005 3.30263C28.9704 3.31412 28.8364 3.3237 28.7014 3.33998C28.5674 3.35626 28.4315 3.37446 28.2955 3.39649C28.0217 3.43767 27.742 3.49034 27.4653 3.55451C26.9147 3.6838 26.3564 3.85045 25.9291 4.08701C25.4922 4.32069 25.1562 4.60418 24.8998 4.89437C24.6542 5.1884 24.5007 5.49295 24.3891 5.76208C24.2861 6.03024 24.2308 6.26584 24.2104 6.43632C24.2046 6.46888 24.2036 6.49953 24.2017 6.52826C24.1696 6.54454 24.1376 6.56178 24.1046 6.57423C23.9842 6.63553 23.8705 6.69012 23.7637 6.74088C23.6618 6.79834 23.5666 6.84814 23.4802 6.89603C23.1413 7.08087 22.9471 7.18814 22.9471 7.18814C22.9471 7.18814 22.7509 7.29349 22.4091 7.47928C22.0741 7.67083 21.6051 7.96581 21.0351 8.31059C19.9233 9.03081 18.4687 10.0403 17.1374 11.1914C15.8042 12.3369 14.5797 13.5896 13.7136 14.5703C13.6009 14.6891 13.5067 14.8145 13.4116 14.9266C13.3135 15.0415 13.2251 15.1497 13.1416 15.2532C12.9717 15.4572 12.8231 15.6353 12.7027 15.7828C12.5784 15.9274 12.4949 16.051 12.4318 16.1314C12.3716 16.2119 12.3376 16.2559 12.3376 16.2559C12.3376 16.2559 12.2075 16.4302 11.9793 16.7329C11.8676 16.888 11.7229 17.0681 11.5734 17.2855C11.4239 17.5048 11.2588 17.7519 11.0782 18.0201C10.984 18.1551 10.8917 18.2949 10.7927 18.4405C10.6966 18.5861 10.6072 18.7451 10.5072 18.9021C10.3179 19.2182 10.113 19.5553 9.90518 19.9029C9.71292 20.2573 9.51385 20.6251 9.31382 21.0005C9.26333 21.0944 9.21186 21.1882 9.1604 21.2821C9.11573 21.3769 9.06815 21.4736 9.02348 21.5704C8.93124 21.7648 8.83802 21.9601 8.74674 22.1546C8.01458 23.7128 7.40963 25.3247 7.0688 26.562C7.02025 26.7162 6.97752 26.8628 6.93674 27.0045C6.89401 27.1463 6.84935 27.2765 6.82313 27.4048C6.76195 27.6567 6.7066 27.8789 6.66485 28.0609C6.57454 28.4229 6.52405 28.6317 6.52405 28.6317C6.52405 28.6317 6.51143 28.6844 6.48812 28.7811C6.46385 28.8788 6.44054 29.0244 6.40461 29.2073C6.3716 29.3912 6.3279 29.6153 6.28129 29.871C6.23565 30.1267 6.16962 30.414 6.1337 30.732C6.09097 31.05 6.04436 31.3938 5.99678 31.7568C5.9861 31.8487 5.97056 31.9406 5.95988 32.0326C5.94823 32.1284 5.94337 32.2232 5.93366 32.318C5.9191 32.5095 5.90453 32.704 5.88802 32.908C5.80355 33.7019 5.80354 34.5552 5.77441 35.4095C5.80354 36.2629 5.80355 37.1153 5.88802 37.913C5.90453 38.1123 5.9191 38.3067 5.93366 38.5011C5.94337 38.5969 5.94823 38.6917 5.95988 38.7827C5.97056 38.8765 5.9861 38.9713 5.99678 39.0614C6.04436 39.4234 6.09097 39.7701 6.1337 40.0871C6.16962 40.4031 6.23565 40.6914 6.28129 40.9481C6.3279 41.2038 6.3716 41.425 6.40461 41.6099C6.44054 41.7938 6.46385 41.9384 6.48812 42.037C6.51143 42.1338 6.52405 42.1864 6.52405 42.1864C6.52405 42.1864 6.57454 42.3933 6.66485 42.7563C6.7066 42.9392 6.76195 43.1614 6.82313 43.4123C6.84935 43.5397 6.89401 43.6738 6.93674 43.8127C6.97752 43.9544 7.02025 44.1019 7.0688 44.2561C7.40963 45.4935 8.01458 47.1044 8.74674 48.6655C8.83802 48.858 8.93124 49.0533 9.02348 49.2468C9.06815 49.3445 9.11573 49.4403 9.1604 49.536C9.21186 49.628 9.26333 49.7247 9.31382 49.8186C9.51385 50.1911 9.71292 50.5599 9.90518 50.9152C10.113 51.2619 10.3179 51.598 10.5072 51.916C10.6072 52.0731 10.6966 52.2311 10.7927 52.3767C10.8917 52.5213 10.984 52.664 11.0782 52.7981C11.2588 53.0672 11.4239 53.3143 11.5734 53.5326C11.7229 53.7501 11.8676 53.9311 11.9793 54.0843C12.2075 54.3879 12.3376 54.5622 12.3376 54.5622C12.3376 54.5622 12.3716 54.6063 12.4318 54.6877C12.4949 54.7681 12.5784 54.8907 12.7027 55.0353C12.8231 55.1819 12.9717 55.361 13.1416 55.5669C13.2251 55.6684 13.3135 55.7766 13.4116 55.8915C13.5067 56.0026 13.6009 56.1291 13.7136 56.2469C14.5797 57.2295 15.8042 58.4812 17.1374 59.6267C18.4687 60.776 19.9233 61.7854 21.0351 62.5085C21.6051 62.8523 22.0741 63.1463 22.4091 63.3388C22.7509 63.5256 22.9471 63.63 22.9471 63.63C22.9471 63.63 23.1413 63.7382 23.4802 63.9221C23.5666 63.969 23.6618 64.0207 23.7637 64.0763C23.8705 64.128 23.9842 64.1826 24.1046 64.241C24.3483 64.3598 24.6231 64.4948 24.9241 64.6404C26.1369 65.1978 27.7819 65.8988 29.5006 66.4064C29.923 66.552 30.359 66.6545 30.7862 66.7723C30.996 66.8307 31.2086 66.8882 31.4174 66.9437C31.6233 67.0012 31.834 67.0386 32.0398 67.0864C32.4506 67.1755 32.8487 67.2617 33.2245 67.345C33.6042 67.4082 33.9644 67.4686 34.2965 67.5251C34.4626 67.5529 34.6199 67.5816 34.7704 67.6065C34.9238 67.6352 35.0685 67.6458 35.2034 67.6649C35.4763 67.6975 35.7132 67.7243 35.9094 67.7492C36.2978 67.7971 36.5211 67.8239 36.5211 67.8239L36.5571 67.4963C36.5571 67.4963 36.3347 67.4705 35.9492 67.4236Z" fill="#F9F5E9"/>
<path fill-rule="evenodd" clip-rule="evenodd" d="M32.123 67.1037C32.123 67.1037 36.8141 68.2836 37.8686 72.5455L37.7366 67.5241L32.4357 66.8374L32.123 67.1037Z" fill="#F9F5E9"/>
</g>
</g>
<defs>
<clipPath id="clip0_12_4011">
<rect width="30" height="30" fill="white" transform="translate(42 21)"/>
</clipPath>
<clipPath id="clip1_12_4011">
<rect width="38" height="72" fill="white" transform="matrix(-1 0 0 1 113.938 0)"/>
</clipPath>
<clipPath id="clip2_12_4011">
<rect width="38" height="72" fill="white" transform="translate(0.0625 1)"/>
</clipPath>
</defs>
</svg>
