<svg width="188" height="64" viewBox="0 0 188 64" fill="none" xmlns="http://www.w3.org/2000/svg">
<path d="M18 12L18 52L4 52C4 52 4 27.621 4 12L18 12Z" fill="#B6B1C9"/>
<path d="M184 12L184 52L170 52C170 52 170 27.621 170 12L184 12Z" fill="#B6B1C9"/>
<rect x="176" y="4" width="4.00001" height="162" transform="rotate(90 176 4)" fill="#B6B1C9"/>
<rect x="176" y="8" width="4.00001" height="164" transform="rotate(90 176 8)" fill="#B6B1C9"/>
<rect x="184" y="12" width="4" height="4" transform="rotate(90 184 12)" fill="#030500"/>
<rect x="180" y="52" width="4" height="4" transform="rotate(90 180 52)" fill="#030500"/>
<rect x="12" y="52" width="4" height="4" transform="rotate(90 12 52)" fill="#030500"/>
<rect x="176" y="56" width="4" height="4" transform="rotate(90 176 56)" fill="#030500"/>
<rect x="174" y="44" width="4" height="4" transform="rotate(90 174 44)" fill="#030500"/>
<rect x="18" y="44" width="4" height="4" transform="rotate(90 18 44)" fill="#030500"/>
<rect x="16" y="56" width="4" height="4" transform="rotate(90 16 56)" fill="#030500"/>
<rect x="180" y="8" width="4" height="4" transform="rotate(90 180 8)" fill="#030500"/>
<rect x="174" y="12" width="4" height="4" transform="rotate(90 174 12)" fill="#030500"/>
<rect x="176" y="4" width="4" height="4" transform="rotate(90 176 4)" fill="#030500"/>
<rect x="16" y="4" width="4" height="4" transform="rotate(90 16 4)" fill="#030500"/>
<rect x="12" y="8" width="4" height="4" transform="rotate(90 12 8)" fill="#030500"/>
<rect x="18" y="12" width="4" height="4" transform="rotate(90 18 12)" fill="#030500"/>
<rect x="8" y="12" width="4" height="4" transform="rotate(90 8 12)" fill="#030500"/>
<rect x="172" y="56" width="4" height="156" transform="rotate(90 172 56)" fill="#8381AD"/>
<rect x="176" y="52" width="4.00001" height="161" transform="rotate(90 176 52)" fill="#DEDBE4"/>
<rect x="16" y="52" width="4" height="4" transform="rotate(90 16 52)" fill="#8381AD"/>
<rect x="176" y="52" width="4" height="4" transform="rotate(90 176 52)" fill="#8381AD"/>
<rect x="12" y="48" width="4" height="4" transform="rotate(90 12 48)" fill="#DEDBE4"/>
<rect x="180" y="48" width="4" height="4" transform="rotate(90 180 48)" fill="#DEDBE4"/>
<rect x="188" y="16" width="32" height="4" transform="rotate(90 188 16)" fill="#030500"/>
<rect x="178" y="16" width="28" height="4" transform="rotate(90 178 16)" fill="#030500"/>
<rect x="18" y="16" width="28" height="4" transform="rotate(90 18 16)" fill="#9A2093"/>
<rect x="174" y="16" width="28" height="4" transform="rotate(90 174 16)" fill="#FF95F9"/>
<rect x="170" y="48" width="152" height="3.99998" transform="rotate(-180 170 48)" fill="#9A2093"/>
<rect x="170" y="16" width="152" height="3.99998" transform="rotate(-180 170 16)" fill="#FF95F9"/>
<rect x="14" y="16" width="28" height="4" transform="rotate(90 14 16)" fill="#030500"/>
<rect x="4" y="16" width="32" height="4" transform="rotate(90 4 16)" fill="#030500"/>
<rect x="173" y="64" width="159" height="3.99998" transform="rotate(-180 173 64)" fill="#030500"/>
<rect x="173" y="4" width="156" height="3.99998" transform="rotate(-180 173 4)" fill="#030500"/>
<rect x="170" y="12" width="152" height="3.99998" transform="rotate(-180 170 12)" fill="#030500"/>
<rect x="170" y="52" width="152" height="3.99999" transform="rotate(-180 170 52)" fill="#030500"/>
<rect x="184" y="48" width="4" height="4" transform="rotate(90 184 48)" fill="#030500"/>
<rect x="8" y="48" width="4" height="4" transform="rotate(90 8 48)" fill="#030500"/>
</svg>
