<svg width="285" height="78" viewBox="0 0 285 78" fill="none" xmlns="http://www.w3.org/2000/svg">
<path d="M10.998 6.00006L10.998 56.0001L5.99805 56.0001L5.99805 6.00006L10.998 6.00006Z" fill="#719F09"/>
<path d="M278.998 11L278.998 61L273.998 61L273.998 11L278.998 11Z" fill="#719F09"/>
<rect x="279.168" y="55.5557" width="16.6667" height="273.611" transform="rotate(90 279.168 55.5557)" fill="#54730E"/>
<rect x="273.611" y="6.10352e-05" width="5.55557" height="262.5" transform="rotate(90 273.611 6.10352e-05)" fill="#030500"/>
<rect x="273.611" y="5.5556" width="5.55557" height="262.5" transform="rotate(90 273.611 5.5556)" fill="#B2D26B"/>
<rect x="273.611" y="55.5557" width="5.55557" height="262.5" transform="rotate(90 273.611 55.5557)" fill="#B2D26B"/>
<rect x="273.611" y="72.2227" width="5.55557" height="262.5" transform="rotate(90 273.611 72.2227)" fill="#030500"/>
<rect x="279.168" y="5.5556" width="5.55556" height="5.55556" transform="rotate(90 279.168 5.5556)" fill="#030500"/>
<rect x="279.168" y="11.1111" width="5.55556" height="5.55556" transform="rotate(90 279.168 11.1111)" fill="#B2D26B"/>
<rect x="279.168" y="50.0001" width="5.55556" height="5.55556" transform="rotate(90 279.168 50.0001)" fill="#B2D26B"/>
<rect x="279.168" y="66.6672" width="5.55556" height="5.55556" transform="rotate(90 279.168 66.6672)" fill="#030500"/>
<rect x="11.1094" y="5.5556" width="5.55556" height="5.55556" transform="rotate(90 11.1094 5.5556)" fill="#030500"/>
<rect x="11.1094" y="11.1111" width="5.55556" height="5.55556" transform="rotate(90 11.1094 11.1111)" fill="#B2D26B"/>
<rect x="11.1094" y="50.0001" width="5.55556" height="5.55556" transform="rotate(90 11.1094 50.0001)" fill="#B2D26B"/>
<rect x="11.1094" y="66.6672" width="5.55556" height="5.55556" transform="rotate(90 11.1094 66.6672)" fill="#030500"/>
<rect x="5.55469" y="11.1111" width="55.5556" height="5.55556" transform="rotate(90 5.55469 11.1111)" fill="#030500"/>
<rect x="284.723" y="11.1111" width="55.5556" height="5.55556" transform="rotate(90 284.723 11.1111)" fill="#030500"/>
</svg>
