<svg width="205" height="56" viewBox="0 0 205 56" fill="none" xmlns="http://www.w3.org/2000/svg">
<rect x="8" y="4" width="36" height="4" transform="rotate(90 8 4)" fill="#0197DB"/>
<rect x="201" y="8" width="36" height="4" transform="rotate(90 201 8)" fill="#0197DB"/>
<rect x="201" y="40" width="12" height="197" transform="rotate(90 201 40)" fill="#00628E"/>
<rect x="197" y="1.52588e-05" width="4.00001" height="189" transform="rotate(90 197 1.52588e-05)" fill="#030500"/>
<rect x="197" y="4.00002" width="4.00001" height="189" transform="rotate(90 197 4.00002)" fill="#77D5FF"/>
<rect x="201" y="40" width="4.00001" height="193" transform="rotate(90 201 40)" fill="#77D5FF"/>
<rect x="197" y="52" width="4.00001" height="189" transform="rotate(90 197 52)" fill="#030500"/>
<rect x="201" y="4.00002" width="4" height="4" transform="rotate(90 201 4.00002)" fill="#030500"/>
<rect x="201" y="8.00002" width="4" height="4" transform="rotate(90 201 8.00002)" fill="#77D5FF"/>
<rect x="201" y="36" width="4" height="4" transform="rotate(90 201 36)" fill="#77D5FF"/>
<rect x="201" y="48" width="4" height="4" transform="rotate(90 201 48)" fill="#030500"/>
<rect x="8" y="4.00003" width="4" height="4" transform="rotate(90 8 4.00003)" fill="#030500"/>
<rect x="8" y="8.00003" width="4" height="4" transform="rotate(90 8 8.00003)" fill="#77D5FF"/>
<rect x="8" y="36" width="4" height="4" transform="rotate(90 8 36)" fill="#77D5FF"/>
<rect x="8" y="48" width="4" height="4" transform="rotate(90 8 48)" fill="#030500"/>
<rect x="4" y="8.00003" width="40" height="4" transform="rotate(90 4 8.00003)" fill="#030500"/>
<rect x="4" y="8.00003" width="40" height="4" transform="rotate(90 4 8.00003)" fill="#030500"/>
<rect x="205" y="8.00002" width="40" height="4" transform="rotate(90 205 8.00002)" fill="#030500"/>
</svg>
