<svg width="309" height="78" viewBox="0 0 309 78" fill="none" xmlns="http://www.w3.org/2000/svg">
<rect x="5.38086" y="11.1113" width="51.389" height="5.38089" transform="rotate(90 5.38086 11.1113)" fill="#030500"/>
<rect x="291.914" y="72.2222" width="5.55557" height="275.771" transform="rotate(90 291.914 72.2222)" fill="#030500"/>
<rect x="291.914" y="66.667" width="5.55557" height="275.771" transform="rotate(90 291.914 66.667)" fill="#42415E"/>
<rect x="291.914" y="61.1113" width="5.55557" height="275.771" transform="rotate(90 291.914 61.1113)" fill="#908EBA"/>
<rect x="16" y="11" width="50" height="11" transform="rotate(90 16 11)" fill="#615F83"/>
<rect x="303" y="6" width="50" height="11" transform="rotate(90 303 6)" fill="#615F83"/>
<rect x="16.1426" y="5.55566" width="5.55556" height="10.7618" transform="rotate(90 16.1426 5.55566)" fill="#030500"/>
<rect x="21.5234" width="5.55556" height="10.7618" transform="rotate(90 21.5234 0)" fill="#030500"/>
<rect x="297.295" width="5.55556" height="10.7618" transform="rotate(90 297.295 0)" fill="#030500"/>
<rect x="10.7617" y="61.1113" width="5.55556" height="5.38089" transform="rotate(90 10.7617 61.1113)" fill="#030500"/>
<rect x="10.7617" y="55.5557" width="5.55556" height="5.38089" transform="rotate(90 10.7617 55.5557)" fill="#42415E"/>
<rect x="10.7617" y="50" width="5.55556" height="5.38089" transform="rotate(90 10.7617 50)" fill="#908EBA"/>
<rect x="16.1426" y="66.667" width="5.55556" height="5.38089" transform="rotate(90 16.1426 66.667)" fill="#030500"/>
<rect x="16.1426" y="61.1113" width="5.55556" height="5.38089" transform="rotate(90 16.1426 61.1113)" fill="#42415E"/>
<rect x="16.1426" y="55.5557" width="5.55556" height="5.38089" transform="rotate(90 16.1426 55.5557)" fill="#908EBA"/>
<rect x="302.676" y="5.55566" width="5.55556" height="10.7618" transform="rotate(90 302.676 5.55566)" fill="#030500"/>
<rect x="302.676" y="61.1113" width="5.55556" height="5.38089" transform="rotate(90 302.676 61.1113)" fill="#030500"/>
<rect x="302.676" y="55.5557" width="5.55556" height="5.38089" transform="rotate(90 302.676 55.5557)" fill="#42415E"/>
<rect x="302.676" y="50" width="5.55556" height="5.38089" transform="rotate(90 302.676 50)" fill="#908EBA"/>
<rect x="297.295" y="66.667" width="5.55556" height="5.38089" transform="rotate(90 297.295 66.667)" fill="#030500"/>
<rect x="297.295" y="61.1113" width="5.55556" height="5.38089" transform="rotate(90 297.295 61.1113)" fill="#42415E"/>
<rect x="297.295" y="55.5557" width="5.55556" height="5.38089" transform="rotate(90 297.295 55.5557)" fill="#908EBA"/>
<rect x="308.057" y="11.1113" width="50.0001" height="5.38089" transform="rotate(90 308.057 11.1113)" fill="#030500"/>
</svg>
