<svg width="124" height="124" viewBox="0 0 124 124" fill="none" xmlns="http://www.w3.org/2000/svg">
<g clip-path="url(#clip0_33_53)">
<path d="M14.4663 55.8H10.333V72.3334H14.4663V55.8Z" fill="#D20001"/>
<path d="M24.8003 55.8H20.667V72.3334H24.8003V55.8Z" fill="#D20001"/>
<path d="M35.1333 55.8H31V72.3334H35.1333V55.8Z" fill="#D20001"/>
<path d="M45.4663 55.8H41.333V72.3334H45.4663V55.8Z" fill="#D20001"/>
<path d="M55.8003 55.8H51.667V72.3334H55.8003V55.8Z" fill="#D20001"/>
<path d="M64.0677 90.9333H64.0667H2.06667C0.925608 90.9331 0.000258387 91.8579 5.41069e-08 92.999V93V121.933C-0.000258279 123.074 0.924575 124 2.06563 124H2.06667H64.0667C65.2077 124 66.1331 123.075 66.1333 121.934V121.933V93C66.1336 91.859 65.2088 90.9336 64.0677 90.9333ZM62 119.867H4.13333V95.0667H62V119.867Z" fill="#D20001"/>
<path d="M14.4663 99.2H10.333V115.733H14.4663V99.2Z" fill="#D20001"/>
<path d="M24.8003 99.2H20.667V115.733H24.8003V99.2Z" fill="#D20001"/>
<path d="M35.1333 99.2H31V115.733H35.1333V99.2Z" fill="#D20001"/>
<path d="M45.4663 99.2H41.333V115.733H45.4663V99.2Z" fill="#D20001"/>
<path d="M55.8003 99.2H51.667V115.733H55.8003V99.2Z" fill="#D20001"/>
<path d="M121.934 53.7333H121.933H113.667V19.0637C118.22 15.6506 119.144 9.19279 115.731 4.63967C112.318 0.0865414 105.86 -0.837517 101.307 2.57558C98.9089 4.37307 97.4123 7.12535 97.2075 10.115L41.3333 4.33509V2.06667C41.3336 0.925608 40.4088 0.000258387 39.2677 5.41069e-08H39.2667H26.8667C25.7256 -0.000258279 24.8003 0.924575 24.8 2.06563V2.06667V12.4C24.7997 13.5411 25.7246 14.4664 26.8656 14.4667H26.8667H31V20.6667C30.9997 21.8077 31.9246 22.7331 33.0656 22.7333H33.0667H34.1C36.9535 22.7333 39.2667 25.0464 39.2667 27.9C39.2667 30.7535 36.9535 33.0667 34.1 33.0667C31.2464 33.0667 28.9333 30.7535 28.9333 27.9H24.8C24.8098 30.7435 26.1268 33.4245 28.3715 35.1703L3.64482 47.5333H2.06667C0.925608 47.5331 0.000258387 48.4579 5.41069e-08 49.599V49.6V78.5333C-0.000258279 79.6744 0.924575 80.5997 2.06563 80.6H2.06667H64.0667C65.2077 80.6003 66.1331 79.6754 66.1333 78.5344V78.5333V49.6C66.1336 48.4589 65.2088 47.5336 64.0677 47.5333H64.0667H60.4559L38.8063 35.8758C43.2269 33.2932 44.7167 27.6164 42.1342 23.1957C40.6519 20.6587 38.0546 18.9743 35.1333 18.6563V14.4667H39.2667C40.4077 14.4669 41.3331 13.5421 41.3333 12.401V12.4V8.49245L97.7799 14.3318C98.4591 16.2138 99.6704 17.8578 101.267 19.064V53.7333H82.6667C81.5256 53.7331 80.6003 54.6579 80.6 55.799V55.8V84.7333H76.4667C75.3256 84.7331 74.4003 85.6579 74.4 86.799V86.8V121.933C74.3997 123.074 75.3246 124 76.4656 124H76.4667H121.933C123.074 124 124 123.075 124 121.934V121.933V55.8C124 54.6589 123.075 53.7336 121.934 53.7333ZM62 51.6667V76.4667H4.13333V51.6667H62ZM51.7346 47.5333H12.8888L33.0315 37.4625L51.7346 47.5333ZM37.2 10.3333H28.9333V4.13333H37.2V10.3333ZM107.467 4.65C110.891 4.65 113.667 7.42579 113.667 10.85C113.667 14.2742 110.891 17.05 107.467 17.05C104.042 17.05 101.267 14.2742 101.267 10.85C101.27 7.42734 104.044 4.65362 107.467 4.65ZM111.6 66.4128L118.484 72.1497L111.6 76.7387V66.4128ZM118.484 90.7497L111.6 95.3387V85.0131L118.484 90.7497ZM118.484 109.35L111.6 113.939V103.613L118.484 109.35ZM107.467 119.867H78.5333V88.8667H107.467V119.867ZM107.467 84.7333H84.7333V57.8667H107.467V84.7333ZM109.533 53.7333H105.4V20.9743C106.764 21.2528 108.17 21.2528 109.533 20.9743V53.7333ZM119.867 119.867H111.6V118.906L119.867 113.395V119.867ZM119.867 105.12L112.983 99.3834L119.867 94.7946V105.12ZM119.867 86.5202L112.983 80.7834L119.867 76.1946V86.5202ZM119.867 67.9202L111.6 61.0312V57.8667H119.867V67.9202Z" fill="#D20001"/>
<path d="M107.466 7.75C105.754 7.75 104.366 9.13803 104.366 10.85C104.368 12.5612 105.755 13.9482 107.466 13.95C109.178 13.95 110.566 12.562 110.566 10.85C110.566 9.13803 109.178 7.75 107.466 7.75ZM107.466 11.8833C106.896 11.8833 106.433 11.4207 106.433 10.85C106.434 10.2796 106.896 9.81744 107.466 9.81667C108.037 9.81667 108.5 10.2793 108.5 10.85C108.5 11.4207 108.037 11.8833 107.466 11.8833Z" fill="#D20001"/>
</g>
<defs>
<clipPath id="clip0_33_53">
<rect width="124" height="124" fill="white"/>
</clipPath>
</defs>
</svg>
