<svg width="124" height="124" viewBox="0 0 124 124" fill="none" xmlns="http://www.w3.org/2000/svg">
<g clip-path="url(#clip0_33_5)">
<path d="M97.3232 71.5217C97.3232 71.5217 81.6782 61.8681 81.6586 61.856C80.5326 61.1612 79.0163 61.5276 78.3237 62.6453C77.6295 63.7654 77.9979 65.2902 79.1132 65.9778C79.1132 65.9778 94.7682 75.6376 94.7778 75.6434C95.9033 76.3378 97.4184 75.9806 98.1103 74.8542C98.8023 73.7275 98.4496 72.216 97.3232 71.5217Z" fill="#D20001"/>
<path d="M72.143 56.4089C70.5961 56.4087 69.4297 57.8812 69.7833 59.3866C69.9241 59.9863 70.3363 60.531 70.8792 60.8749C71.252 61.111 71.6864 61.2527 72.1376 61.2527C72.985 61.2527 73.7576 60.8243 74.2008 60.1028C75.1449 58.5659 73.9582 56.4092 72.143 56.4089Z" fill="#D20001"/>
<path d="M47.0645 62.5201C46.3813 61.4319 44.8061 61.0803 43.7243 61.7637C43.7243 61.7637 28.1802 71.5655 28.1541 71.582C27.034 72.2882 26.6922 73.8014 27.3977 74.9206C27.8218 75.5936 28.6402 75.9881 29.4503 76.0109C29.9061 76.0237 30.3592 75.9188 30.7382 75.6798C30.7382 75.6798 46.2975 65.8661 46.3084 65.8591C47.4283 65.1529 47.7683 63.6409 47.0645 62.5201Z" fill="#D20001"/>
<path d="M53.2063 56.2225C52.0816 56.2225 51.0962 57.013 50.8474 58.1087C50.5086 59.6013 51.6902 61.0663 53.2112 61.0663C54.3337 61.0663 55.3247 60.276 55.5725 59.1794C55.9118 57.6778 54.7411 56.2225 53.2063 56.2225Z" fill="#D20001"/>
<path d="M123.406 110.308C122.528 109.298 120.998 109.192 119.989 110.069C117.407 112.315 115.017 114.643 111.628 115.579C107.862 116.62 104.282 115.799 100.873 114.094L113.486 71.657C113.799 70.6013 113.361 69.4667 112.419 68.8958L100.75 61.8252V41.178C100.75 39.8407 99.6657 38.7561 98.3281 38.7561H93.4843V31.4905C93.4843 30.1532 92.4001 29.0687 91.0625 29.0687H83.4336V21.8031C83.4336 20.4657 82.3493 19.3812 81.0117 19.3812H69.2656V2.4281C69.2656 1.09074 68.1814 0.00622559 66.8438 0.00622559H57.1563C55.8187 0.00622559 54.7344 1.09074 54.7344 2.4281V19.3812H42.9883C41.6507 19.3812 40.5665 20.4657 40.5665 21.8031V29.0687H32.9376C31.6 29.0687 30.5157 30.1532 30.5157 31.4905V38.7561H25.672C24.3344 38.7561 23.2501 39.8407 23.2501 41.178V61.8252L11.581 68.8956C10.6389 69.4664 10.2008 70.6011 10.5147 71.6568C10.5147 71.6568 23.0965 113.989 23.1019 114.007C22.887 113.284 19.0116 112.808 18.3264 112.72C11.2747 111.807 5.9124 115.34 0.832767 119.757C-0.176669 120.634 -0.283231 122.164 0.594213 123.173C1.43194 124.137 2.9909 124.298 4.01075 123.412C9.24392 118.862 15.1438 115.395 22.068 118.857C28.3319 121.989 34.8157 123.332 41.34 119.898C46.6008 117.129 51.6775 114.738 57.5496 117.534L63.5866 120.409C68.7515 122.868 74.6482 122.812 79.7644 120.253C82.9172 118.677 86.1216 116.579 89.7229 116.332C93.253 116.089 96.664 117.403 99.7657 118.956C103.863 121.005 108.66 121.414 113.06 120.16C117.113 119.004 120.063 116.423 123.167 113.724C124.177 112.846 124.283 111.317 123.406 110.308ZM95.9062 43.5999V58.8904L70.6708 43.5999H95.9062ZM59.5781 4.84997H64.4219V19.3812H59.5781V4.84997ZM45.4102 24.2249H78.5898V29.0687H45.4102V24.2249ZM28.0938 43.5999H53.3292L28.0938 58.8904V43.5999ZM59.5781 113.135C59.5786 112.705 56.1258 111.911 55.6741 111.813C51.4591 110.901 46.934 111.48 43.1128 113.492C40.3403 114.951 37.6653 116.653 34.4943 117.062C34.4885 117.062 34.4827 117.063 34.4769 117.064C32.6242 117.289 30.7278 117.153 28.9347 116.63L15.6902 72.0695L59.5781 45.4773C59.5781 45.4773 59.5781 113.133 59.5781 113.135ZM35.3594 38.7561V33.9124H88.6406V38.7561H35.3594ZM96.3959 112.153C96.4228 111.404 89.6052 111.411 89.1485 111.459C84.9446 111.903 81.3079 114.066 77.5981 115.921C73.2155 118.113 68.7059 117.483 64.4219 115.442V45.4773L108.31 72.0695L96.3959 112.153Z" fill="#D20001"/>
</g>
<defs>
<clipPath id="clip0_33_5">
<rect width="124" height="124" fill="white"/>
</clipPath>
</defs>
</svg>
