<svg width="124" height="124" viewBox="0 0 124 124" fill="none" xmlns="http://www.w3.org/2000/svg">
<g clip-path="url(#clip0_33_51)">
<path d="M117.8 24.8H90.9333V16.5333C90.9263 10.8288 86.3045 6.20701 80.6 6.19995H43.4C37.6955 6.20701 33.0737 10.8288 33.0667 16.5333V24.8H6.2C2.77607 24.8 0 27.576 0 31V77.0035C0.0131185 79.6252 1.66504 81.9572 4.13333 82.8382V111.6C4.13333 115.024 6.90941 117.8 10.3333 117.8H113.667C117.091 117.8 119.867 115.024 119.867 111.6V82.8402C122.335 81.9582 123.988 79.6252 124 77.0035V31C124 27.576 121.224 24.8 117.8 24.8ZM37.2 16.5333C37.2 13.1094 39.9761 10.3333 43.4 10.3333H80.6C84.0239 10.3333 86.8 13.1094 86.8 16.5333V24.8H82.6667V16.5333C82.6667 15.392 81.7413 14.4666 80.6 14.4666H43.4C42.2587 14.4666 41.3333 15.392 41.3333 16.5333V24.8H37.2V16.5333ZM78.5333 24.8H45.4667V18.6H78.5333V24.8ZM115.733 111.6C115.733 112.741 114.808 113.667 113.667 113.667H10.3333C9.19202 113.667 8.26667 112.741 8.26667 111.6V83.5486L53.7333 89.8192V95.0666C53.7333 98.4906 56.5094 101.267 59.9333 101.267H64.0667C67.4906 101.267 70.2667 98.4906 70.2667 95.0666V89.8192L115.733 83.5486V111.6ZM66.1333 95.0666C66.1333 96.2079 65.208 97.1333 64.0667 97.1333H59.9333C58.792 97.1333 57.8667 96.2079 57.8667 95.0666V82.6666C57.8667 81.5253 58.792 80.6 59.9333 80.6H64.0667C65.208 80.6 66.1333 81.5253 66.1333 82.6666V95.0666ZM119.867 77.0035C119.868 78.0338 119.11 78.9077 118.09 79.052L117.516 79.1307L70.2667 85.6465V82.6666C70.2667 79.2427 67.4906 76.4666 64.0667 76.4666H59.9333C56.5094 76.4666 53.7333 79.2427 53.7333 82.6666V85.6465L5.9124 79.052C4.89219 78.9087 4.13232 78.0348 4.13333 77.0035V31C4.13333 29.8586 5.05869 28.9333 6.2 28.9333H117.8C118.941 28.9333 119.867 29.8586 119.867 31V77.0035Z" fill="#D20001"/>
</g>
<defs>
<clipPath id="clip0_33_51">
<rect width="124" height="124" fill="white"/>
</clipPath>
</defs>
</svg>
