<svg width="124" height="124" viewBox="0 0 124 124" fill="none" xmlns="http://www.w3.org/2000/svg">
<path d="M122.469 1.83932C122.469 34.8124 122.469 67.8188 122.469 100.792C122.405 100.859 122.31 100.959 122.246 101.059C122.214 101.126 122.214 101.26 122.182 101.327C121.704 101.929 121.066 102.297 120.428 102.631C119.918 102.899 119.407 103.133 118.929 103.4C118.514 103.634 118.1 103.902 117.685 104.136C117.334 104.337 116.92 104.504 116.569 104.704C116.091 104.972 115.612 105.306 115.134 105.574C114.751 105.808 114.336 105.975 113.922 106.176C113.22 106.577 112.519 106.978 111.817 107.346C111.466 107.547 111.115 107.714 110.796 107.915C110.382 108.149 109.967 108.383 109.552 108.617C109.17 108.818 108.819 108.985 108.436 109.186C108.054 109.386 107.703 109.62 107.352 109.821C107.001 110.022 106.618 110.189 106.268 110.423C105.885 110.624 105.534 110.891 105.151 111.092C104.737 111.326 104.322 111.493 103.939 111.727C103.461 111.995 102.983 112.296 102.504 112.563C102.121 112.764 101.675 112.931 101.292 113.132C100.909 113.332 100.559 113.6 100.208 113.8C99.5381 114.168 98.8364 114.503 98.1667 114.871C97.784 115.071 97.4012 115.339 97.0185 115.573C96.6039 115.807 96.1574 116.008 95.7428 116.275C94.9774 116.71 94.2119 117.145 93.4465 117.579C92.9043 117.88 92.3303 118.148 91.7562 118.449C91.0226 118.85 90.321 119.251 89.6193 119.653C89.428 119.753 89.2366 119.82 89.0772 119.954C88.6626 120.188 88.2479 120.455 87.8014 120.689C87.323 120.957 86.8447 121.191 86.3663 121.459C85.9835 121.693 85.6008 121.927 85.1862 122.161C84.6759 122.462 84.1338 122.729 83.5916 122.997C83.2407 123.197 82.9218 123.498 82.5391 123.599C81.7418 123.866 80.9445 123.699 80.179 123.365C79.7006 123.164 79.2541 122.896 78.7757 122.696C78.2654 122.495 77.7551 122.328 77.2449 122.094C76.5751 121.793 75.9372 121.459 75.2994 121.191C74.7253 120.923 74.1512 120.689 73.5772 120.455C72.9712 120.188 72.3971 119.954 71.7912 119.686C71.5679 119.586 71.3128 119.485 71.0895 119.419C70.8025 119.318 70.5154 119.251 70.2284 119.118C69.6862 118.884 69.1759 118.616 68.6338 118.382C68.4105 118.282 68.1554 118.181 67.9321 118.081C67.4856 117.88 67.0391 117.646 66.5926 117.446C66.1142 117.245 65.6039 117.078 65.0936 116.877C64.8704 116.777 64.6471 116.71 64.4239 116.61C63.9455 116.375 63.499 116.141 63.0206 115.941C62.5422 115.74 62.0638 115.573 61.5854 115.406C61.3621 115.305 61.1389 115.205 60.9156 115.105C60.4372 114.871 59.9907 114.637 59.5124 114.436C59.034 114.235 58.5237 114.068 58.0453 113.867C57.4074 113.566 56.7696 113.232 56.0998 112.964C55.6214 112.764 55.143 112.597 54.6646 112.396C54.4414 112.296 54.1862 112.195 53.963 112.095C53.4846 111.861 53.0381 111.627 52.5597 111.426C52.0813 111.226 51.6029 111.058 51.1245 110.858C50.9012 110.757 50.678 110.69 50.4866 110.59C50.0082 110.356 49.5617 110.122 49.0833 109.921C48.6049 109.721 48.1265 109.553 47.6481 109.386C47.4249 109.319 47.2016 109.219 47.0103 109.119C46.4681 108.885 45.9578 108.617 45.4156 108.383C44.9691 108.182 44.5545 108.015 44.108 107.848C43.9167 107.781 43.7572 107.647 43.534 107.58C43.2469 107.514 42.928 107.38 42.6409 107.447C42.2901 107.514 42.0031 107.748 41.6842 107.848C41.2058 108.015 40.7593 108.182 40.2809 108.35C39.9938 108.45 39.7068 108.55 39.3879 108.651C38.8138 108.818 38.2078 109.018 37.6337 109.186C37.4105 109.252 37.1554 109.319 36.9321 109.42C36.6132 109.553 36.3261 109.721 36.0072 109.854C35.6564 109.988 35.2737 110.089 34.8909 110.189C34.6039 110.289 34.285 110.389 33.9979 110.49C33.6471 110.624 33.2963 110.757 32.9136 110.925C32.6903 111.025 32.4671 111.125 32.2438 111.192C31.893 111.292 31.5103 111.359 31.1595 111.493C30.5535 111.694 29.9794 111.995 29.3735 112.195C28.7675 112.396 28.1615 112.563 27.5556 112.764C27.3004 112.831 27.0453 112.931 26.822 113.031C26.4712 113.165 26.1204 113.332 25.7696 113.466C25.4187 113.6 25.0679 113.667 24.7171 113.767C24.4619 113.834 24.2387 113.934 23.9835 114.035C23.3776 114.269 22.8035 114.536 22.2294 114.737C21.6235 114.937 21.0175 115.105 20.4115 115.272C20.1564 115.339 19.9012 115.439 19.6461 115.539C19.2953 115.673 18.9763 115.84 18.6255 115.974C18.2747 116.108 17.892 116.208 17.5093 116.309C17.2541 116.375 16.999 116.476 16.7757 116.576C16.393 116.71 16.0422 116.877 15.6595 117.011C15.3086 117.111 14.9897 117.211 14.6389 117.312C14.3837 117.379 14.1286 117.479 13.8735 117.579C13.5226 117.713 13.1718 117.88 12.821 118.014C12.4702 118.148 12.0874 118.248 11.7047 118.382C11.1307 118.583 10.5566 118.817 9.95062 119.051C9.5998 119.185 9.24897 119.218 8.89815 119.352C8.32407 119.552 7.78189 119.82 7.23971 120.021C6.50617 120.288 5.77263 120.522 5.03909 120.79C4.30556 121.057 3.60391 121.291 2.87037 121.559C2.07305 121.826 0.924897 121.358 0.478395 120.622C0.31893 120.355 0.159465 120.087 0 119.82C0 85.1414 0 50.63 0 16.1187C0.063786 16.0518 0.159465 16.0184 0.223251 15.9515C0.414609 15.6505 0.605967 15.3161 0.829218 15.0486C1.08436 14.7476 1.43519 14.6139 1.8179 14.5135C2.16872 14.4467 2.48765 14.246 2.83848 14.1122C3.22119 13.9785 3.60391 13.8782 3.98663 13.7444C4.24177 13.6775 4.49691 13.5772 4.72016 13.4769C5.07099 13.3431 5.42181 13.1759 5.77263 13.0756C6.12346 12.9752 6.44239 12.8749 6.79321 12.7746C7.04835 12.7077 7.3035 12.6074 7.55864 12.5071C7.87757 12.3733 8.1965 12.2061 8.54733 12.0723C8.93004 11.9386 9.31276 11.8382 9.69547 11.7045C9.95062 11.6376 10.2058 11.5373 10.429 11.4369C10.7798 11.3032 11.0988 11.136 11.4496 11.0357C11.8004 10.9019 12.1512 10.835 12.5021 10.7347C12.7572 10.6678 13.0442 10.5675 13.2994 10.4672C13.6183 10.3334 13.9372 10.1662 14.2881 10.0659C14.6708 9.93209 15.0535 9.83177 15.4362 9.69801C15.6914 9.63112 15.9465 9.5308 16.1698 9.43048C16.5206 9.29671 16.8714 9.12951 17.2222 9.02918C17.573 8.92886 17.892 8.82853 18.2428 8.72821C18.4979 8.66133 18.7531 8.561 19.0082 8.46068C19.3272 8.32692 19.6461 8.15971 19.9969 8.02595C20.3796 7.89218 20.7623 7.79186 21.1451 7.65809C21.4002 7.59121 21.6553 7.49089 21.8786 7.39056C22.2294 7.2568 22.5484 7.08959 22.8992 6.98927C23.25 6.8555 23.6008 6.78862 23.9516 6.6883C24.2068 6.62141 24.4619 6.52109 24.7171 6.42077C25.036 6.287 25.3549 6.1198 25.7058 6.01947C26.0566 5.88571 26.4393 5.78538 26.822 5.68506C27.1091 5.58474 27.3642 5.48441 27.6512 5.38409C28.0021 5.25033 28.3529 5.11656 28.7037 4.9828C29.0545 4.88247 29.3735 4.78215 29.7243 4.68182C29.9794 4.61494 30.2346 4.51462 30.4897 4.41429C30.8086 4.28053 31.1276 4.11332 31.4784 4.013C31.8611 3.87924 32.2438 3.77891 32.6265 3.64515C32.8817 3.57826 33.1368 3.47794 33.3601 3.37762C33.679 3.24385 33.9979 3.07665 34.3488 2.97632C34.6996 2.84256 35.0504 2.77568 35.4012 2.67535C35.6564 2.60847 35.9434 2.50815 36.1986 2.37438C36.5175 2.24062 36.8683 2.07341 37.1872 1.97309C37.57 1.83932 37.9527 1.739 38.3354 1.60523C38.5586 1.53835 38.8138 1.43803 39.037 1.37114C39.3879 1.23738 39.7068 1.07017 40.0576 0.96985C40.4084 0.836085 40.7912 0.802644 41.1101 0.668879C41.6523 0.434791 42.1945 0.200703 42.7685 0.167261C43.1512 0.167261 43.5658 0.13382 43.9167 0.267585C44.3951 0.434791 44.8416 0.735762 45.2881 0.96985C45.4794 1.07017 45.6389 1.1705 45.8302 1.27082C46.213 1.50491 46.5957 1.739 47.0103 1.97309C47.5206 2.24062 48.0309 2.50815 48.5412 2.77568C48.9558 3.00976 49.3704 3.24385 49.785 3.47794C50.1358 3.67859 50.5185 3.84579 50.8693 4.04644C51.2521 4.28053 51.6667 4.51462 52.0494 4.71527C52.4002 4.91591 52.751 5.08312 53.07 5.28377C53.4846 5.51785 53.9311 5.78538 54.3457 6.01947C54.6965 6.22012 55.0473 6.38733 55.3982 6.58797C55.7809 6.78862 56.1636 7.02271 56.5144 7.2568C56.8971 7.49089 57.2479 7.69153 57.6307 7.92562C57.9815 8.12627 58.3323 8.32692 58.715 8.52756C58.9383 8.66133 59.1934 8.72821 59.4486 8.82853C59.8632 9.06262 60.2459 9.29671 60.6605 9.5308C61.0113 9.73145 61.3621 9.89865 61.713 10.0993C62.2233 10.4003 62.7654 10.7012 63.2757 11.0022C63.9455 11.4035 64.6471 11.7714 65.3488 12.1392C65.8591 12.4067 66.3693 12.7077 66.8796 13.0087C67.2942 13.2428 67.7089 13.41 68.0916 13.6441C68.57 13.9116 69.0484 14.246 69.5268 14.5135C69.9095 14.7142 70.356 14.8814 70.7387 15.082C71.3128 15.383 71.8549 15.7174 72.3971 16.0518C72.8755 16.3194 73.3858 16.5535 73.8642 16.821C74.3107 17.0551 74.7572 17.3226 75.2037 17.5901C75.5545 17.7908 75.9372 18.0249 76.2881 18.2255C76.7665 18.493 77.2449 18.7606 77.7233 19.0281C78.1379 19.2622 78.5206 19.4628 78.9352 19.6969C79.3179 19.8976 79.7325 20.0982 80.1152 20.2989C80.4661 20.4995 80.8169 20.767 81.1677 20.9342C81.4228 21.0346 81.7737 21.1015 81.9969 21.0011C82.4753 20.8005 82.9537 20.4995 83.4002 20.2654C83.5597 20.1651 83.751 20.0982 83.9105 19.9979C84.2932 19.7638 84.7078 19.4963 85.0905 19.2956C85.5689 19.0281 86.0792 18.7606 86.5576 18.493C86.9722 18.259 87.3549 18.0249 87.7377 17.7908C88.1523 17.5567 88.535 17.3226 88.9496 17.122C89.3004 16.9213 89.6831 16.7207 90.034 16.5535C90.3848 16.3862 90.7356 16.1856 91.0864 15.985C91.4691 15.7509 91.82 15.5168 92.2027 15.2827C92.5854 15.082 93 14.9148 93.3827 14.7142C94.18 14.246 94.9455 13.7444 95.7428 13.3097C96.1255 13.109 96.5401 12.9418 96.9228 12.7412C97.1142 12.6408 97.3056 12.5739 97.4969 12.4402C97.8477 12.2061 98.1986 11.972 98.5813 11.7714C98.9321 11.5707 99.3148 11.4035 99.6975 11.2029C100.08 11.0022 100.431 10.7347 100.814 10.534C101.197 10.3334 101.611 10.1327 101.994 9.93209C102.727 9.5308 103.461 9.12951 104.194 8.72821C104.386 8.62789 104.545 8.52756 104.737 8.42724C105.119 8.19315 105.534 7.95906 105.917 7.72497C106.555 7.35712 107.224 7.02271 107.862 6.6883C108.277 6.45421 108.659 6.22012 109.074 5.98603C109.457 5.75194 109.871 5.5513 110.254 5.31721C110.733 5.04968 111.179 4.74871 111.657 4.51462C112.04 4.31397 112.455 4.14676 112.869 3.91268C113.284 3.67859 113.699 3.4445 114.113 3.21041C114.592 2.94288 115.07 2.67535 115.548 2.40782C115.963 2.17373 116.346 1.93965 116.76 1.70556C117.271 1.40459 117.749 1.10362 118.259 0.836085C118.642 0.635438 118.993 0.367909 119.376 0.267585C119.79 0.167261 120.237 0.0669377 120.715 0.200703C121.48 0.40135 121.991 0.836085 122.278 1.60523C122.278 1.739 122.405 1.77244 122.469 1.83932ZM79.3817 80.6268C78.8395 80.5265 78.2973 80.4262 77.7551 80.3593C76.8621 80.2589 75.9691 80.1921 75.0761 80.0583C74.5021 79.9914 73.928 79.8911 73.3539 79.7908C73.2901 79.7908 73.2263 79.7239 73.1626 79.6905C72.7798 79.4898 72.4609 79.2223 72.2058 78.8544C71.8868 78.4197 71.5998 77.082 71.8868 76.6139C72.1739 76.1791 72.3652 75.6441 72.9393 75.4434C73.3539 75.2762 73.7366 75.0087 74.1831 75.0756C74.3745 75.109 74.534 75.2428 74.7253 75.2762C75.1718 75.3765 75.6183 75.4434 76.0648 75.5103C76.9578 75.6106 77.8827 75.7444 78.7757 75.7778C79.5412 75.8447 79.4136 75.8447 79.4136 75.109C79.4136 58.7228 79.4136 42.3366 79.4136 25.9504C79.4136 25.8167 79.4136 25.7163 79.4136 25.5826C79.4136 25.5157 79.3817 25.4154 79.3179 25.3819C79.0628 25.2147 78.8076 25.0475 78.5206 24.8803C78.2973 24.7465 78.0422 24.6797 77.8508 24.5793C77.4681 24.3453 77.0854 24.1112 76.7027 23.8771C76.1924 23.6095 75.6821 23.342 75.2037 23.0745C74.821 22.8738 74.4383 22.6063 74.0556 22.3722C73.5453 22.0713 73.035 21.8372 72.5247 21.5362C71.9825 21.2352 71.4722 20.9008 70.9619 20.6333C70.5792 20.4326 70.1646 20.2654 69.8138 20.0648C69.0165 19.5966 68.2191 19.095 67.4218 18.6602C66.8796 18.3593 66.3056 18.0917 65.7634 17.7908C64.8704 17.3226 63.9774 16.821 63.0844 16.3194C62.893 16.219 62.7335 16.1187 62.5422 16.0184C62.1595 15.7843 61.8086 15.5502 61.4259 15.3161C60.9156 15.0486 60.4054 14.8145 59.8951 14.5135C59.321 14.2126 58.7469 13.8782 58.2047 13.5437C57.8539 13.3431 57.4712 13.1425 57.0885 12.9418C56.7377 12.7412 56.4187 12.5071 56.0679 12.3064C55.6852 12.1058 55.2706 11.9386 54.8879 11.7045C54.3457 11.4035 53.8673 11.0691 53.3251 10.7681C52.8148 10.5006 52.2726 10.2665 51.7942 9.96554C51.1245 9.56424 50.4547 9.12951 49.7531 8.76165C49.2428 8.46068 48.7006 8.26003 48.1903 7.9925C47.4887 7.59121 46.8189 7.18991 46.1492 6.78862C46.0216 6.6883 45.8621 6.62141 45.7027 6.55453C45.6389 6.52109 45.5113 6.62141 45.5113 6.65486C45.4794 6.82206 45.4794 6.98927 45.4794 7.12303C45.4794 14.6807 45.4794 22.2719 45.4794 29.8296C45.4794 42.8048 45.4794 55.7465 45.4794 68.7217C45.4794 68.9558 45.5113 69.1565 45.5113 69.3906C45.7984 69.3906 46.0535 69.3906 46.2768 69.3571C46.9146 69.2234 47.5206 69.1899 48.1903 69.3906C49.0833 69.6581 49.4661 70.3269 49.7531 71.0961C49.9444 71.698 49.8169 72.3668 49.4979 72.8684C49.0833 73.5038 48.5093 73.972 47.6481 73.972C46.9465 73.972 46.213 74.1392 45.5113 74.2061C45.5113 83.904 45.5113 93.5686 45.5113 103.133C56.8333 108.015 68.0916 112.898 79.3817 117.747C79.3817 105.44 79.3817 93.0335 79.3817 80.6268ZM83.9743 117.479C84.2932 117.278 84.5484 117.111 84.8035 116.944C85.4414 116.576 86.0473 116.242 86.6852 115.907C87.5782 115.406 88.4712 114.937 89.3961 114.436C90.1934 114.001 90.9908 113.566 91.7562 113.132C92.107 112.931 92.4897 112.764 92.8405 112.563C93.2551 112.329 93.6698 112.095 94.1163 111.861C94.4671 111.66 94.8498 111.46 95.2006 111.259C95.5514 111.058 95.9023 110.824 96.285 110.624C96.6677 110.423 97.0504 110.256 97.4012 110.055C97.784 109.854 98.1348 109.587 98.4856 109.386C98.8683 109.186 99.2829 108.985 99.6656 108.784C100.559 108.316 101.42 107.815 102.313 107.346C102.504 107.246 102.695 107.179 102.855 107.079C103.238 106.845 103.62 106.611 104.003 106.377C104.513 106.109 105.024 105.875 105.502 105.574C105.885 105.373 106.236 105.106 106.618 104.872C107.033 104.638 107.479 104.437 107.894 104.203C108.5 103.868 109.106 103.467 109.712 103.133C110.127 102.899 110.541 102.765 110.956 102.531C111.689 102.13 112.391 101.728 113.124 101.327C113.316 101.227 113.475 101.126 113.667 101.026C114.049 100.792 114.432 100.558 114.847 100.324C115.229 100.09 115.644 99.8889 116.059 99.6549C116.537 99.3873 116.984 99.0529 117.494 98.8523C117.845 98.6851 118.036 98.5179 118.036 98.0831C118.036 67.7519 118.036 37.4208 118.036 7.08959C118.036 6.92239 118.036 6.75518 118.036 6.52109C117.749 6.62141 117.526 6.72174 117.302 6.82206C116.856 7.05615 116.441 7.32368 116.027 7.55777C115.676 7.75842 115.293 7.92562 114.942 8.12627C114.432 8.42724 113.922 8.72821 113.38 9.02918C112.997 9.22983 112.646 9.43048 112.263 9.63112C111.881 9.83177 111.498 10.0659 111.115 10.2665C110.764 10.4672 110.382 10.6678 110.031 10.8684C109.648 11.1025 109.234 11.3366 108.851 11.5373C108.468 11.7379 108.117 11.9051 107.735 12.1058C107.352 12.3064 107.001 12.5405 106.65 12.7746C106.267 13.0087 105.885 13.2093 105.502 13.41C105.087 13.6441 104.705 13.8447 104.29 14.0454C103.939 14.2126 103.588 14.3798 103.238 14.5804C102.855 14.7811 102.504 15.0486 102.121 15.2492C101.611 15.5502 101.069 15.8177 100.527 16.1187C100.016 16.4197 99.4743 16.7207 98.964 17.0216C98.2623 17.4229 97.5926 17.7908 96.8909 18.1586C96.3807 18.4262 95.8704 18.7271 95.3601 19.0281C94.9455 19.2622 94.5628 19.4628 94.1482 19.6635C93.6698 19.931 93.1914 20.232 92.713 20.4995C92.3303 20.7002 91.8838 20.8674 91.501 21.068C90.9589 21.369 90.4167 21.7368 89.8745 22.0378C89.3642 22.3053 88.8539 22.5394 88.3755 22.807C87.9609 23.041 87.5144 23.3086 87.0998 23.5427C86.7171 23.7768 86.3344 23.9774 85.9835 24.178C85.5051 24.4456 85.0586 24.7465 84.5484 24.9806C84.1656 25.1478 84.0381 25.3485 84.0381 25.7832C84.0381 42.3032 84.0381 58.7897 84.0381 75.3097C84.0381 75.41 84.0062 75.5437 84.0381 75.6441C84.07 75.7778 84.1338 75.8782 84.1975 75.9785C84.4527 76.2794 84.7716 76.547 84.9949 76.8479C85.537 77.7174 85.3457 79.0885 84.5484 79.7239C84.0381 80.0917 84.0381 80.5265 84.0381 81.0615C84.0381 92.9332 84.0381 104.805 84.0381 116.71C83.9743 116.977 83.9743 117.178 83.9743 117.479ZM40.8868 103.066C40.8868 102.832 40.8868 102.665 40.8868 102.464C40.8868 93.5017 40.8868 84.5394 40.8868 75.5772C40.8868 75.4434 40.9187 75.3431 40.8868 75.2093C40.8549 75.1424 40.7593 75.0087 40.6955 75.0087C40.4084 75.0087 40.0895 74.9084 39.8663 75.0421C39.4516 75.3096 39.0051 75.2428 38.5905 75.2762C37.8251 75.3431 37.2829 74.9752 36.7726 74.3733C36.1667 73.671 36.2623 72.1662 36.677 71.5642C37.0597 70.9623 37.6975 70.6948 38.3354 70.5276C39.037 70.3269 39.7706 70.1597 40.5041 70.0259C40.823 69.9591 40.8868 69.7919 40.8868 69.4909C40.8868 48.4564 40.8868 27.4553 40.8868 6.42077C40.8868 6.25356 40.8549 6.08636 40.8549 5.88571C40.3128 6.05291 39.8025 6.15324 39.2922 6.32044C38.9414 6.42077 38.6224 6.62141 38.2716 6.75518C37.9208 6.88894 37.5381 6.95583 37.1872 7.05615C36.964 7.12303 36.7089 7.18991 36.4856 7.29024C35.8796 7.52433 35.3056 7.79186 34.6996 7.9925C34.0936 8.19315 33.4877 8.36036 32.8817 8.52756C32.6265 8.59445 32.3395 8.69477 32.0844 8.79509C31.7335 8.92886 31.4146 9.09606 31.0638 9.22983C30.713 9.36359 30.3302 9.43048 29.9475 9.56424C29.6924 9.63112 29.4372 9.73145 29.1502 9.83177C28.7994 9.96554 28.4486 10.1327 28.0658 10.2331C27.715 10.3334 27.3642 10.4337 27.0453 10.534C26.822 10.6009 26.5988 10.6678 26.3755 10.7681C25.8014 11.0022 25.2274 11.2363 24.6533 11.4704C23.9516 11.7379 23.25 11.972 22.5165 12.2061C22.2294 12.3064 21.9424 12.4067 21.6554 12.5071C21.3045 12.6074 20.9537 12.6743 20.6348 12.7746C20.0288 13.0087 19.4547 13.2762 18.8488 13.4769C18.2428 13.6775 17.6368 13.8447 17.0309 14.0454C16.7757 14.1457 16.4887 14.246 16.2335 14.3463C15.8827 14.4801 15.5319 14.6139 15.1811 14.7476C14.8302 14.8814 14.4794 14.9483 14.1286 15.082C13.7778 15.2158 13.427 15.383 13.0442 15.5168C12.4064 15.7509 11.7685 15.985 11.1307 16.1856C10.7798 16.3194 10.4609 16.4197 10.1101 16.52C9.79115 16.6203 9.47222 16.6872 9.15329 16.7875C8.80247 16.9213 8.48354 17.0885 8.13272 17.2223C7.78189 17.356 7.39918 17.4229 7.01646 17.5567C6.72942 17.657 6.47428 17.7573 6.18724 17.8577C5.80453 17.9914 5.4537 18.1586 5.07099 18.259C4.62449 18.3593 4.52881 18.4262 4.52881 18.9278C4.52881 50.9979 4.52881 83.0346 4.52881 115.105C4.52881 115.238 4.52881 115.406 4.52881 115.673C16.68 111.526 28.7675 107.313 40.8868 103.066Z" fill="#D20001"/>
<path d="M65.3487 77.0485C64.7109 77.1154 64.2644 76.8813 63.786 76.6138C63.3076 76.3463 62.7335 76.2125 62.1913 76.0118C61.7129 75.8446 61.2027 75.7109 60.7243 75.5771C60.6924 75.5771 60.6605 75.5437 60.5967 75.5437C60.0226 75.4433 59.4166 75.3765 58.8426 75.2427C58.2366 75.1089 57.6625 74.9417 57.0566 74.808C56.9609 74.7745 56.8333 74.7745 56.7057 74.7745C56.1317 74.808 55.6214 74.5739 55.143 74.2395C54.5051 73.8047 54.0267 72.4002 54.3457 71.631C54.6008 71.0291 54.9516 70.494 55.6214 70.1931C56.323 69.8921 56.9928 69.9255 57.6625 70.1596C57.7263 70.1596 57.7582 70.1931 57.822 70.1931C58.4599 70.2934 59.1296 70.3603 59.7675 70.494C60.3734 70.6278 60.9475 70.795 61.5216 70.9288C61.5535 70.9288 61.5854 70.9288 61.5854 70.9288C62.0957 71.0291 62.6378 71.0625 63.1162 71.2298C63.6903 71.4304 64.3282 71.4973 64.9022 71.8986C65.285 72.1661 65.7634 72.233 66.1461 72.4671C66.5926 72.7346 67.0072 73.0021 67.2623 73.5372C67.5813 74.1726 67.5494 74.808 67.4218 75.4099C67.358 75.7443 67.1348 76.1122 66.8477 76.3463C66.4331 76.8479 65.9228 77.2492 65.3487 77.0485Z" fill="#D20001"/>
<path d="M89.4597 75.6774C89.364 74.7411 89.8743 74.1391 90.4803 73.6041C90.7673 73.3365 91.2138 73.2362 91.5328 73.0356C92.0431 72.7012 92.5852 72.3667 93.0317 71.9655C93.8929 71.2632 94.7221 70.494 95.5194 69.7249C96.0935 69.1564 96.5719 68.521 97.0822 67.9191C97.6562 67.2837 98.3898 67.1165 99.1233 67.3506C99.8887 67.5847 100.463 68.1197 100.782 68.9892C101.005 69.658 100.814 70.1931 100.654 70.6947C100.495 71.1629 100.08 71.5976 99.7293 71.9655C99.1552 72.6008 98.5492 73.2362 97.9114 73.8716C97.3054 74.4401 96.6994 75.0086 96.0616 75.5437C95.5513 75.9784 95.0091 76.4131 94.4669 76.781C93.9885 77.082 93.4782 77.316 92.968 77.5836C92.7447 77.7173 92.4896 77.7842 92.2663 77.918C91.5328 78.3193 90.3846 77.7508 89.97 77.2157C89.6192 76.781 89.364 76.2459 89.4597 75.6774Z" fill="#D20001"/>
<path d="M109.043 36.5177C109.043 37.3538 109.075 38.1898 109.043 39.0593C108.979 40.4638 108.915 41.8349 108.819 43.2394C108.787 43.9417 108.022 44.7443 107.416 45.0118C107.033 45.179 106.683 45.2459 106.3 45.2125C105.566 45.179 104.801 44.5102 104.546 43.7745C104.099 42.5706 104.354 41.3333 104.482 40.1294C104.514 39.7615 104.546 39.3937 104.546 39.0593C104.546 37.0862 104.578 35.1132 104.546 33.1067C104.546 32.3376 105.279 31.2675 106.013 31.1337C106.268 31.1003 106.523 30.8996 106.778 30.9331C107.544 30.9999 108.182 31.3678 108.628 32.0366C108.979 32.5717 109.106 33.1402 109.075 33.7756C109.075 34.4444 109.075 35.1467 109.075 35.8155C109.075 36.0496 109.075 36.2837 109.043 36.5177Z" fill="#D20001"/>
<path d="M107.735 52.2686C107.607 53.1715 107.512 53.8737 107.384 54.576C107.257 55.2783 107.097 55.9471 106.906 56.6494C106.714 57.3851 106.459 58.1208 106.236 58.8565C106.14 59.2243 106.076 59.6256 105.949 59.9935C105.821 60.3613 105.662 60.6957 105.534 61.0636C105.407 61.3646 105.343 61.699 105.247 62.0334C105.024 62.7357 104.641 63.2373 103.972 63.5717C103.621 63.7389 103.302 63.8392 102.919 63.8058C102.154 63.7055 101.484 63.4714 101.165 62.6353C101.005 62.3009 100.782 61.9331 100.782 61.5987C100.782 61.1305 101.005 60.6623 101.133 60.1941C101.197 59.9266 101.324 59.6591 101.388 59.425C101.484 59.0571 101.58 58.6893 101.675 58.3214C101.803 57.9201 101.93 57.5523 102.058 57.151C102.154 56.85 102.249 56.549 102.313 56.2481C102.441 55.7464 102.504 55.2114 102.632 54.7098C102.76 54.1747 102.919 53.6731 103.047 53.138C103.079 53.0043 103.079 52.8705 103.079 52.7367C103.142 52.2686 103.142 51.7669 103.366 51.3657C103.589 50.8975 103.876 50.4962 104.386 50.2286C104.928 49.9611 105.439 49.9611 105.949 50.028C106.619 50.1283 107.129 50.4627 107.384 51.165C107.575 51.4994 107.639 51.9676 107.735 52.2686Z" fill="#D20001"/>
<path d="M27.269 42.7713C27.269 43.2729 27.269 43.808 27.269 44.343C27.269 45.2794 27.2371 46.2157 27.269 47.1521C27.3009 47.754 27.2052 48.3225 26.9819 48.8242C26.6949 49.3927 26.2803 49.8943 25.6424 50.028C25.2278 50.0949 24.877 50.1952 24.4305 50.0949C23.7607 49.8943 23.3461 49.493 22.9634 48.9579C22.7402 48.6235 22.7402 48.2556 22.7402 47.8878C22.7402 46.2157 22.7402 44.5437 22.7402 42.8716C20.0612 42.2028 17.7968 40.8317 16.1064 38.5911C14.1291 35.9827 13.2998 32.9396 13.7145 29.6289C14.1291 26.452 15.628 23.7767 18.02 21.8037C20.1887 19.9978 22.7402 19.1952 25.483 19.329C28.0344 19.4628 30.3307 20.3657 32.2762 22.1046C34.8595 24.4121 36.2309 27.4218 36.3266 30.9331C36.4223 33.7422 35.5612 36.3171 33.8389 38.5577C32.1167 40.6645 29.948 42.069 27.269 42.7713ZM18.2114 31.1003C18.0838 35.0129 21.3369 38.2567 24.9727 38.2233C28.8955 38.1898 31.7978 34.9461 31.7659 31.0669C31.734 27.0205 28.7679 23.9773 24.9089 23.9439C21.3369 23.9439 18.1476 26.9536 18.2114 31.1003Z" fill="#D20001"/>
<path d="M24.9084 56.2481C25.4506 55.6796 25.929 55.2114 26.4074 54.7098C26.9177 54.1747 27.4598 53.6397 27.9701 53.1046C28.1615 52.904 28.3528 52.7033 28.6399 52.6699C28.9269 52.6364 29.2458 52.4692 29.5329 52.4692C30.2983 52.4692 30.9043 52.8371 31.3189 53.5394C31.5102 53.8738 31.6378 54.2416 31.7335 54.6095C31.8611 55.1111 31.6697 55.5793 31.4146 55.9806C30.681 57.151 29.6286 58.0205 28.7037 58.9903C28.5442 59.1575 28.3847 59.2912 28.2891 59.4585C28.2572 59.5253 28.2572 59.6925 28.3209 59.7594C28.895 60.3614 29.4691 60.9299 30.0432 61.5318C30.5535 62.1003 31.1275 62.6354 31.4784 63.3042C31.7016 63.7389 31.9249 64.274 31.6378 64.9094C31.4784 65.2772 31.3827 65.712 31.0956 65.9795C30.8405 66.2136 30.5535 66.3808 30.2664 66.548C30.0751 66.6483 29.8837 66.7486 29.6605 66.7821C28.8631 66.8824 28.2572 66.5145 27.715 65.946C26.8539 65.0431 25.9928 64.1737 25.0998 63.2708C25.036 63.2039 25.036 63.137 24.9403 62.9698C24.3981 63.5717 23.8878 64.1402 23.3456 64.6753C22.7397 65.3107 22.1337 65.9795 21.4321 66.4811C20.9218 66.849 20.2839 67.0162 19.5823 66.6483C19.1677 66.4142 18.753 66.2136 18.5298 65.8123C18.3703 65.5448 18.179 65.2772 18.1471 64.9763C18.0833 64.3743 18.0514 63.7389 18.3703 63.2039C18.5617 62.9029 18.8487 62.6354 19.1039 62.3344C19.8055 61.5652 20.5072 60.8295 21.2407 60.0938C21.3683 59.9601 21.4958 59.8263 21.6553 59.6925C21.0812 59.0572 20.5072 58.4552 19.9331 57.8198C19.4228 57.2848 18.9125 56.7832 18.4341 56.2481C18.0514 55.8134 18.0514 54.576 18.3065 54.0075C18.4979 53.5728 18.7212 53.2049 19.1358 52.9709C19.7417 52.6364 20.3477 52.4024 21.1131 52.7033C22.0061 53.0712 22.4845 53.8069 23.1224 54.4423C23.7921 54.9773 24.3662 55.6462 24.9084 56.2481Z" fill="#D20001"/>
<path d="M20.8261 90.96C20.8579 91.562 20.6666 92.097 20.3795 92.6321C20.1563 93.1003 20.0287 93.6019 19.8374 94.1035C19.7098 94.4379 19.5503 94.8058 19.4228 95.1402C19.3271 95.3743 19.2633 95.6418 19.1995 95.8759C19.1038 96.2772 19.0081 96.645 18.9125 97.0463C18.7849 97.5145 18.6573 97.9492 18.4979 98.4174C18.4979 98.4509 18.466 98.4509 18.466 98.4843C18.3703 98.919 18.2427 99.3872 18.2108 99.822C18.1789 100.424 18.0195 100.959 17.7005 101.427C17.3497 101.962 16.8713 102.297 16.2335 102.363C15.7232 102.397 15.181 102.464 14.7345 102.096C14.4156 101.828 14.1285 101.427 13.8734 101.093C13.4907 100.558 13.6182 99.9223 13.682 99.3203C13.7458 98.7853 13.9372 98.2502 14.0647 97.7152C14.1923 97.2135 14.288 96.7119 14.4156 96.2103C14.5112 95.809 14.6707 95.4077 14.7983 95.0064C14.8302 94.973 14.8302 94.9061 14.8302 94.8727C14.9577 94.137 15.2448 93.4347 15.4999 92.7324C15.787 91.9967 16.0102 91.261 16.3291 90.5253C16.5205 90.0571 16.7756 89.589 17.0627 89.1877C17.5411 88.5523 18.6573 88.4519 19.3909 88.7529C19.8693 88.9201 20.2201 89.2211 20.4752 89.5889C20.7304 89.9568 20.7623 90.4584 20.9217 90.8932C20.8898 90.96 20.8579 90.96 20.8261 90.96Z" fill="#D20001"/>
<path d="M21.2727 82.9342C21.1452 82.232 21.4641 81.6969 21.9106 81.1953C22.5166 80.493 23.0906 79.7573 23.7285 79.0885C24.3664 78.4197 25.0999 77.8512 25.7697 77.2492C26.2799 76.8145 26.7902 76.3463 27.3005 75.945C27.8746 75.5103 28.4806 75.1759 29.0546 74.7411C29.4692 74.4402 29.9476 74.2061 30.426 74.3064C31.0958 74.4402 31.7337 74.6743 32.0845 75.3765C32.3077 75.8113 32.531 76.2126 32.4991 76.7142C32.4353 77.4164 32.212 78.0518 31.6699 78.4866C31.2234 78.8544 30.745 79.1554 30.2666 79.4898C29.5011 80.0917 28.7038 80.6268 28.0022 81.2956C27.0773 82.1985 26.2162 83.2018 25.3232 84.205C24.9404 84.6397 24.5258 85.0745 23.9837 85.2082C23.569 85.3086 23.1225 85.3086 22.6441 85.1079C22.102 84.8738 21.6874 84.506 21.4322 83.9709C21.2727 83.6365 21.2409 83.2686 21.1133 82.9008C21.209 82.9677 21.2409 82.9677 21.2727 82.9342Z" fill="#D20001"/>
</svg>
