<svg width="124" height="124" viewBox="0 0 124 124" fill="none" xmlns="http://www.w3.org/2000/svg">
<g clip-path="url(#clip0_33_21)">
<path d="M6.56963 102.618C5.94963 102.813 0.514301 104.825 0.0141678 115.913V120.268C-0.0215186 121.235 0.334023 122.176 1.00053 122.879C1.66704 123.581 2.58833 123.985 3.55643 124H74.9763C75.9387 123.985 76.8551 123.586 77.5207 122.891C78.1864 122.196 78.5458 121.263 78.5186 120.301V115.82C78.0184 104.825 72.581 102.813 72.0168 102.635L51.6664 95.6557V88.2467C53.9913 86.2337 55.6599 83.5703 56.4569 80.6H60.8217C63.7537 80.5966 66.1296 78.2206 66.133 75.2887V65.2447C66.1277 63.6088 65.3644 62.0677 64.0664 61.0721V51.5014C64.0664 38.6343 53.4044 28.9333 39.2664 28.9333C25.1283 28.9333 14.4664 38.6343 14.4664 51.5014V61.0721C13.1683 62.0677 12.405 63.6088 12.3997 65.2447V75.2887C12.405 76.9246 13.1683 78.4657 14.4664 79.4613V80.6C14.4664 85.1656 18.1675 88.8667 22.733 88.8667H26.8664V95.6578L6.56963 102.618ZM74.3852 115.913V119.867H4.14543V116.006C4.51123 107.977 7.86544 106.547 7.86544 106.547L27.5628 99.7911C29.4102 104.598 34.1214 107.688 39.2664 107.467C44.4143 107.691 49.1298 104.601 50.9782 99.7911L70.657 106.539C70.6921 106.553 74.0215 107.977 74.3852 115.913ZM17.711 76.4667C17.3978 76.4695 17.0965 76.3463 16.875 76.1247C16.6535 75.9032 16.5303 75.602 16.533 75.2887V65.2447C16.5303 64.9314 16.6535 64.6302 16.875 64.4086C17.0965 64.1871 17.3978 64.0639 17.711 64.0667H20.7366C20.7532 65.0608 21.2285 67.9293 21.3876 68.8324C21.8656 71.3478 21.9797 73.9188 21.7266 76.4667H17.711ZM18.5997 56.0274C18.9738 54.405 22.514 41.3334 39.2664 41.3334C56.0518 41.3334 59.5714 54.4546 59.933 56.0294V59.9334H57.5812C57.5584 59.8135 57.5584 59.6936 57.5336 59.5738C56.0188 52.3136 52.8878 50.0671 52.5344 49.8377C47.967 46.7935 30.5698 46.7894 25.9984 49.8377C25.645 50.0712 22.514 52.3177 20.9991 59.5717C20.9743 59.6916 20.9743 59.8135 20.9516 59.9334H18.5997V56.0274ZM30.9997 94.0685C32.3206 96.0287 34.5472 97.1833 36.9104 97.1334C41.9778 97.1334 44.6459 97.8154 47.533 94.0685V96.9453C46.7802 100.853 43.2377 103.591 39.2664 103.333C35.2954 103.592 31.7526 100.855 30.9997 96.9474V94.0685ZM49.6431 84.3717C44.9662 88.9473 44.805 93 41.6224 93C34.6556 93 35.629 93.713 32.4836 88.8667H39.2664C40.4078 88.8667 41.333 87.9414 41.333 86.8C41.333 85.6586 40.4078 84.7334 39.2664 84.7334H29.2286C25.1862 80.5856 25.8909 78.8682 25.957 72.726C25.986 69.9877 25.1552 67.175 24.8514 63.7505C24.6687 59.9784 25.8696 56.2694 28.2283 53.32C32.8122 51.1004 45.6916 51.1025 50.2838 53.32C52.6611 56.2635 53.87 59.98 53.6793 63.7588C53.3528 67.3796 52.5447 69.7728 52.5757 72.7281C52.6315 77.9981 53.3486 80.7695 49.6431 84.3717ZM61.9997 75.2887C62.0025 75.602 61.8793 75.9032 61.6577 76.1247C61.4362 76.3463 61.135 76.4695 60.8217 76.4667H56.8062C56.5534 73.9188 56.6676 71.3479 57.1451 68.8324C57.4424 67.2559 57.6597 65.6652 57.7961 64.0667H60.8217C61.135 64.0639 61.4362 64.1871 61.6577 64.4086C61.8793 64.6302 62.0025 64.9314 61.9997 65.2447V75.2887ZM58.9803 45.6486C55.3471 41.3333 49.2856 37.2 39.2664 37.2C29.2472 37.2 23.1856 41.3333 19.5524 45.6486C25.2523 28.83 53.2825 28.8321 58.9803 45.6486ZM18.5997 80.6H22.0758C22.4062 82.0773 23.0112 83.4794 23.8594 84.7334H22.733C20.4503 84.7334 18.5997 82.8828 18.5997 80.6Z" fill="#D20001"/>
<path d="M117.657 0H74.5418C71.0408 0.00455419 68.2038 2.84157 68.1992 6.3426V49.4574C68.2027 52.9036 70.954 55.7181 74.3992 55.8V65.0628C74.398 66.2601 75.0789 67.3536 76.1539 67.8808C77.229 68.408 78.5104 68.2768 79.4563 67.5428L94.7931 55.8H117.657C121.158 55.7954 123.995 52.9584 123.999 49.4574V6.3426C123.995 2.84157 121.158 0.00455419 117.657 0ZM119.866 49.4574C119.865 50.6771 118.876 51.6655 117.657 51.6667H86.7992C85.6578 51.6667 84.7326 52.5919 84.7326 53.7333C84.7326 54.8747 85.6578 55.8 86.7992 55.8H87.9937L78.5326 63.0333V55.8C79.6739 55.8 80.5992 54.8747 80.5992 53.7333C80.5992 52.5919 79.6739 51.6667 78.5326 51.6667H74.5418C73.3221 51.6655 72.3337 50.6771 72.3326 49.4574V6.3426C72.3337 5.12293 73.3221 4.13447 74.5418 4.13333H117.657C118.876 4.13447 119.865 5.12293 119.866 6.3426V49.4574Z" fill="#D20001"/>
<path d="M109.533 35.1333H82.6663C81.5249 35.1333 80.5996 36.0586 80.5996 37.2C80.5996 38.3414 81.5249 39.2666 82.6663 39.2666H109.533C110.674 39.2666 111.6 38.3414 111.6 37.2C111.6 36.0586 110.674 35.1333 109.533 35.1333Z" fill="#D20001"/>
<path d="M101.266 43.4H82.6663C81.5249 43.4 80.5996 44.3253 80.5996 45.4667C80.5996 46.6081 81.5249 47.5334 82.6663 47.5334H101.266C102.408 47.5334 103.333 46.6081 103.333 45.4667C103.333 44.3253 102.408 43.4 101.266 43.4Z" fill="#D20001"/>
<path d="M95.0667 31C96.2081 31 97.1333 30.0748 97.1333 28.9334C97.1333 27.792 96.2081 26.8667 95.0667 26.8667C93.9253 26.8667 93 27.792 93 28.9334C93 30.0748 93.9253 31 95.0667 31Z" fill="#D20001"/>
<path d="M90.4513 14.1876C91.4392 14.7586 92.7029 14.421 93.2743 13.4333C93.7757 12.5649 94.828 12.1817 95.7703 12.5244C96.7127 12.867 97.2731 13.8366 97.0996 14.8242C96.9261 15.8118 96.0688 16.5323 95.0661 16.5333C93.9247 16.5333 92.9995 17.4586 92.9995 18.6V20.6666C92.9995 21.808 93.9247 22.7333 95.0661 22.7333C96.2075 22.7333 97.1328 21.808 97.1328 20.6666V20.3132C99.72 19.3956 101.396 16.8859 101.252 14.1446C101.108 11.4033 99.1782 9.08301 96.5091 8.44154C93.84 7.80008 91.0668 8.99014 89.6928 11.3666C89.1239 12.3552 89.4633 13.6177 90.4513 14.1876Z" fill="#D20001"/>
</g>
<defs>
<clipPath id="clip0_33_21">
<rect width="124" height="124" fill="white"/>
</clipPath>
</defs>
</svg>
