<svg width="124" height="124" viewBox="0 0 124 124" fill="none" xmlns="http://www.w3.org/2000/svg">
<path d="M0 49.6V113.667C0.00706836 119.371 4.78892 123.993 10.6898 124H87.6565C90.4933 124.008 93.2154 122.918 95.2163 120.974C96.0265 120.163 96.0149 118.874 95.1902 118.077C94.3656 117.28 93.0321 117.269 92.1932 118.052C90.9921 119.218 89.3586 119.871 87.6565 119.867H10.6898C7.14752 119.867 4.27592 117.091 4.27592 113.667V50.5383L30.1453 28.6543C32.512 26.6529 33.847 23.7457 33.7951 20.7065C33.7432 17.6673 32.3096 14.8043 29.8759 12.8795L18.8141 4.13333H87.6565C91.1987 4.13333 94.0703 6.90917 94.0703 10.3333V39.2667C94.0703 40.408 95.0275 41.3333 96.2083 41.3333C97.3891 41.3333 98.3463 40.408 98.3463 39.2667V10.3333C98.3392 4.62922 93.5573 0.00683265 87.6565 0H12.8278C11.8225 5.0716e-05 10.9531 0.677046 10.739 1.62647L0.0491731 49.1598C0.0168576 49.3044 0.000375875 49.452 0 49.6ZM14.1747 5.8032L27.1692 16.0807C28.6282 17.2355 29.4876 18.9524 29.5189 20.7749C29.5502 22.5975 28.7503 24.341 27.3317 25.5419L5.6036 43.9208L14.1747 5.8032Z" fill="#D20001"/>
<path d="M12.8277 53.7334C12.8277 52.592 11.8705 51.6667 10.6897 51.6667C9.50896 51.6667 8.55176 52.592 8.55176 53.7334V57.8667C8.55176 59.0081 9.50896 59.9334 10.6897 59.9334C11.8705 59.9334 12.8277 59.0081 12.8277 57.8667V53.7334Z" fill="#D20001"/>
<path d="M10.6897 64.0667C9.50896 64.0667 8.55176 64.9919 8.55176 66.1333V103.333C8.55176 104.475 9.50896 105.4 10.6897 105.4C11.8705 105.4 12.8277 104.475 12.8277 103.333V66.1333C12.8277 64.9919 11.8705 64.0667 10.6897 64.0667Z" fill="#D20001"/>
<path d="M44.8973 18.5999C46.0781 18.5999 47.0352 17.6746 47.0352 16.5332C47.0352 15.3918 46.0781 14.4666 44.8973 14.4666H40.6214C39.4406 14.4666 38.4834 15.3918 38.4834 16.5332C38.4834 17.6746 39.4406 18.5999 40.6214 18.5999H44.8973Z" fill="#D20001"/>
<path d="M83.381 14.4666H53.4495C52.2687 14.4666 51.3115 15.3918 51.3115 16.5332C51.3115 17.6746 52.2687 18.5999 53.4495 18.5999H83.381C84.5617 18.5999 85.5189 17.6746 85.5189 16.5332C85.5189 15.3918 84.5617 14.4666 83.381 14.4666Z" fill="#D20001"/>
<path d="M36.3457 28.9332C36.3457 30.0746 37.3029 30.9999 38.4837 30.9999H47.0355C48.2163 30.9999 49.1735 30.0746 49.1735 28.9332C49.1735 27.7919 48.2163 26.8666 47.0355 26.8666H38.4837C37.3029 26.8666 36.3457 27.7919 36.3457 28.9332Z" fill="#D20001"/>
<path d="M83.3807 26.8666H55.5872C54.4064 26.8666 53.4492 27.7919 53.4492 28.9332C53.4492 30.0746 54.4064 30.9999 55.5872 30.9999H83.3807C84.5615 30.9999 85.5187 30.0746 85.5187 28.9332C85.5187 27.7919 84.5615 26.8666 83.3807 26.8666Z" fill="#D20001"/>
<path d="M86.7261 52.9067C83.0012 49.2931 78.2073 46.8869 73.0068 46.0206C72.2474 45.8783 71.4677 46.1437 70.968 46.7144C70.4683 47.2852 70.3265 48.0724 70.5972 48.7728C70.868 49.4733 71.509 49.9777 72.2734 50.0919C82.6884 51.8691 90.1845 60.7538 89.8911 70.9732C89.5978 81.1925 81.6036 89.6617 71.1028 90.878C60.6019 92.0942 50.7642 85.6904 47.9816 75.8273C45.199 65.9641 50.3115 55.6191 59.9973 51.5138C61.0412 51.0357 61.5035 49.8424 61.0412 48.8191C60.5789 47.7957 59.3592 47.3124 58.2869 47.7277C47.9797 52.0923 41.8178 62.4402 43.0903 73.248C44.3628 84.0559 52.7726 92.8007 63.8308 94.8148C74.8891 96.8289 86.0144 91.6422 91.2685 82.0231C96.5227 72.404 94.6791 60.598 86.7218 52.9067H86.7261Z" fill="#D20001"/>
<path d="M103.776 92.7582L98.0253 87.1968C106.785 72.8385 103.133 54.4233 89.5003 44.2151C75.8676 34.0069 56.5089 35.1912 44.3164 46.9793C32.1238 58.7673 30.9021 77.4807 41.4648 90.6569C52.0276 103.833 71.0787 107.361 85.9308 98.89L91.6819 104.447C91.2841 105.867 91.7006 107.385 92.7744 108.428L106.378 121.578C107.982 123.128 110.157 123.999 112.426 123.999C114.694 123.999 116.869 123.128 118.473 121.578L121.496 118.656C124.834 115.427 124.834 110.195 121.496 106.967L107.89 93.8143C106.812 92.7781 105.244 92.3757 103.776 92.7582ZM47.4197 90.8982C35.7316 79.5987 35.7323 61.2797 47.4211 49.981C59.11 38.6823 78.061 38.6823 89.7499 49.981C101.439 61.2797 101.439 79.5987 89.7514 90.8982C78.0515 102.177 59.1149 102.173 47.4197 90.8899V90.8982ZM92.7744 93.8225C93.7792 92.8383 94.7189 91.7939 95.588 90.6957L100.332 95.2837L97.3091 98.2059L94.2838 101.12L89.5376 96.534C90.6739 95.6933 91.755 94.785 92.7744 93.8143V93.8225ZM119.726 112.811C119.729 113.908 119.278 114.96 118.473 115.733L115.45 118.656C113.757 120.218 111.094 120.218 109.401 118.656L95.7975 105.503L104.867 96.7365L118.473 109.889C119.278 110.662 119.729 111.714 119.726 112.811Z" fill="#D20001"/>
</svg>
