<svg width="64" height="64" viewBox="0 0 64 64" fill="none" xmlns="http://www.w3.org/2000/svg">
<rect x="18" y="12" width="40" height="14" transform="rotate(90 18 12)" fill="#B6B1C9"/>
<rect x="60" y="12" width="40" height="14" transform="rotate(90 60 12)" fill="#B6B1C9"/>
<rect x="52" y="4" width="4" height="40" transform="rotate(90 52 4)" fill="#B6B1C9"/>
<rect x="52" y="8" width="4" height="40" transform="rotate(90 52 8)" fill="#B6B1C9"/>
<rect x="60" y="12" width="4" height="4" transform="rotate(90 60 12)" fill="#030500"/>
<rect x="56" y="52" width="4" height="4" transform="rotate(90 56 52)" fill="#030500"/>
<rect x="12" y="52" width="4" height="4" transform="rotate(90 12 52)" fill="#030500"/>
<rect x="52" y="56" width="4" height="4" transform="rotate(90 52 56)" fill="#030500"/>
<rect x="50" y="44" width="4" height="4" transform="rotate(90 50 44)" fill="#030500"/>
<rect x="18" y="44" width="4" height="4" transform="rotate(90 18 44)" fill="#030500"/>
<rect x="16" y="56" width="4" height="4" transform="rotate(90 16 56)" fill="#030500"/>
<rect x="56" y="8" width="4" height="4" transform="rotate(90 56 8)" fill="#030500"/>
<rect x="50" y="12" width="4" height="4" transform="rotate(90 50 12)" fill="#030500"/>
<rect x="52" y="4" width="4" height="4" transform="rotate(90 52 4)" fill="#030500"/>
<rect x="16" y="4" width="4" height="4" transform="rotate(90 16 4)" fill="#030500"/>
<rect x="12" y="8" width="4" height="4" transform="rotate(90 12 8)" fill="#030500"/>
<rect x="18" y="12" width="4" height="4" transform="rotate(90 18 12)" fill="#030500"/>
<rect x="8" y="12" width="4" height="4" transform="rotate(90 8 12)" fill="#030500"/>
<rect x="48" y="56" width="4" height="32" transform="rotate(90 48 56)" fill="#8381AD"/>
<rect x="52" y="52" width="4" height="40" transform="rotate(90 52 52)" fill="#DEDBE4"/>
<rect x="16" y="52" width="4" height="4" transform="rotate(90 16 52)" fill="#8381AD"/>
<rect x="52" y="52" width="4" height="4" transform="rotate(90 52 52)" fill="#8381AD"/>
<rect x="12" y="48" width="4" height="4" transform="rotate(90 12 48)" fill="#DEDBE4"/>
<rect x="56" y="48" width="4" height="4" transform="rotate(90 56 48)" fill="#DEDBE4"/>
<rect x="64" y="16" width="32" height="4" transform="rotate(90 64 16)" fill="#030500"/>
<rect x="54" y="16" width="28" height="4" transform="rotate(90 54 16)" fill="#030500"/>
<rect x="18" y="16" width="28" height="4" transform="rotate(90 18 16)" fill="#00628E"/>
<rect x="50" y="16" width="28" height="4" transform="rotate(90 50 16)" fill="#77D5FF"/>
<rect x="46" y="48" width="28" height="4" transform="rotate(-180 46 48)" fill="#00628E"/>
<rect x="46" y="16" width="28" height="4" transform="rotate(-180 46 16)" fill="#77D5FF"/>
<rect x="14" y="16" width="28" height="4" transform="rotate(90 14 16)" fill="#030500"/>
<rect x="4" y="16" width="32" height="4" transform="rotate(90 4 16)" fill="#030500"/>
<rect x="48" y="64" width="32" height="4" transform="rotate(-180 48 64)" fill="#030500"/>
<rect x="48" y="4" width="32" height="4" transform="rotate(-180 48 4)" fill="#030500"/>
<rect x="46" y="12" width="28" height="4" transform="rotate(-180 46 12)" fill="#030500"/>
<rect x="46" y="52" width="28" height="4" transform="rotate(-180 46 52)" fill="#030500"/>
<rect x="60" y="48" width="4" height="4" transform="rotate(90 60 48)" fill="#030500"/>
<rect x="8" y="48" width="4" height="4" transform="rotate(90 8 48)" fill="#030500"/>
</svg>
