<svg width="285" height="78" viewBox="0 0 285 78" fill="none" xmlns="http://www.w3.org/2000/svg">
<path d="M10.998 6L10.998 56L5.99805 56L5.99805 6L10.998 6Z" fill="#9ECB3A"/>
<path d="M279 11L279 61L274 61L274 11L279 11Z" fill="#9ECB3A"/>
<rect x="278.998" y="56" width="16" height="273" transform="rotate(90 278.998 56)" fill="#9ECB3A"/>
<rect x="273.613" width="5.55557" height="262.5" transform="rotate(90 273.613 0)" fill="#030500"/>
<rect x="273.613" y="5.55554" width="5.55557" height="262.5" transform="rotate(90 273.613 5.55554)" fill="#B2D26B"/>
<rect x="273.5" y="67.0002" width="5.55557" height="262.5" transform="rotate(90 273.5 67.0002)" fill="#B2D26B"/>
<rect x="273.613" y="72.2232" width="5.55557" height="262.5" transform="rotate(90 273.613 72.2232)" fill="#030500"/>
<rect x="279.168" y="5.55554" width="5.55556" height="5.55556" transform="rotate(90 279.168 5.55554)" fill="#030500"/>
<rect x="279.168" y="11.1111" width="5.55556" height="5.55556" transform="rotate(90 279.168 11.1111)" fill="#B2D26B"/>
<rect x="279.555" y="61" width="5.55556" height="5.55556" transform="rotate(90 279.555 61)" fill="#B2D26B"/>
<rect x="279.168" y="66.6676" width="5.55556" height="5.55556" transform="rotate(90 279.168 66.6676)" fill="#030500"/>
<rect x="11.1094" y="5.55554" width="5.55556" height="5.55556" transform="rotate(90 11.1094 5.55554)" fill="#030500"/>
<rect x="11.1094" y="11.1111" width="5.55556" height="5.55556" transform="rotate(90 11.1094 11.1111)" fill="#B2D26B"/>
<rect x="11.5547" y="61" width="5.55556" height="5.55556" transform="rotate(90 11.5547 61)" fill="#B2D26B"/>
<rect x="11.1094" y="66.6676" width="5.55556" height="5.55556" transform="rotate(90 11.1094 66.6676)" fill="#030500"/>
<rect x="5.55469" y="11.1111" width="55.5556" height="5.55556" transform="rotate(90 5.55469 11.1111)" fill="#030500"/>
<rect x="284.725" y="11.1111" width="55.5556" height="5.55556" transform="rotate(90 284.725 11.1111)" fill="#030500"/>
</svg>
