<svg width="285" height="78" viewBox="0 0 285 78" fill="none" xmlns="http://www.w3.org/2000/svg">
<path d="M11 6L11 56L6 56L6 6L11 6Z" fill="#56CAFF"/>
<path d="M279.002 11L279.002 61L274.002 61L274.002 11L279.002 11Z" fill="#56CAFF"/>
<rect x="279.002" y="56" width="16" height="273" transform="rotate(90 279.002 56)" fill="#56CAFF"/>
<rect x="273.615" width="5.55557" height="262.5" transform="rotate(90 273.615 0)" fill="#030500"/>
<rect x="273.615" y="5.55554" width="5.55557" height="262.5" transform="rotate(90 273.615 5.55554)" fill="#6FD2FF"/>
<rect x="273.502" y="67.0005" width="5.55557" height="262.5" transform="rotate(90 273.502 67.0005)" fill="#6FD2FF"/>
<rect x="273.615" y="72.2234" width="5.55557" height="262.5" transform="rotate(90 273.615 72.2234)" fill="#030500"/>
<rect x="279.17" y="5.55554" width="5.55556" height="5.55556" transform="rotate(90 279.17 5.55554)" fill="#030500"/>
<rect x="279.17" y="11.1111" width="5.55556" height="5.55556" transform="rotate(90 279.17 11.1111)" fill="#6FD2FF"/>
<rect x="279.559" y="61" width="5.55556" height="5.55556" transform="rotate(90 279.559 61)" fill="#6FD2FF"/>
<rect x="279.17" y="66.6678" width="5.55556" height="5.55556" transform="rotate(90 279.17 66.6678)" fill="#030500"/>
<rect x="11.1113" y="5.55554" width="5.55556" height="5.55556" transform="rotate(90 11.1113 5.55554)" fill="#030500"/>
<rect x="11.1113" y="11.1111" width="5.55556" height="5.55556" transform="rotate(90 11.1113 11.1111)" fill="#6FD2FF"/>
<rect x="11.5566" y="61" width="5.55556" height="5.55556" transform="rotate(90 11.5566 61)" fill="#6FD2FF"/>
<rect x="11.1113" y="66.6678" width="5.55556" height="5.55556" transform="rotate(90 11.1113 66.6678)" fill="#030500"/>
<rect x="5.55664" y="11.1111" width="55.5556" height="5.55556" transform="rotate(90 5.55664 11.1111)" fill="#030500"/>
<rect x="284.727" y="11.1111" width="55.5556" height="5.55556" transform="rotate(90 284.727 11.1111)" fill="#030500"/>
</svg>
