<svg width="1506" height="549" viewBox="0 0 1506 549" fill="none" xmlns="http://www.w3.org/2000/svg">
<path d="M1493.72 0.00489807V4.76846L12.2772 4.76843V0.00488281L1493.72 0.00489807Z" fill="#030500"/>
<path d="M1493.72 4.76846V9.532L12.2772 9.54655V4.76843L1493.72 4.76846Z" fill="#323451"/>
<path d="M8.18478 4.76988V539.479L4.09238 539.478L4.09241 9.53192L8.18478 4.76988Z" fill="#323451"/>
<path d="M8.18478 4.76988L1501.91 9.53192L1497.82 14.2955V9.532L8.18478 4.76988Z" fill="#030500"/>
<path d="M1497.82 4.76843V9.532H1493.72V4.76846L1497.82 4.76843Z" fill="#030500"/>
<path d="M1506 14V534.715H1501.91V9.53192V14H1506Z" fill="#030500"/>
<path d="M4.09241 14.2956L4.09238 534.715H0V14.2956H4.09241Z" fill="#030500"/>
<path d="M8.18478 9.53203V14.2956H4.09241V9.53192L8.18478 9.53203Z" fill="#030500"/>
<path d="M12.2772 4.76843V9.54655L8.18478 9.53203V4.76849L12.2772 4.76843Z" fill="#030500"/>
<path d="M1493.72 544.242V549.005L12.2772 549.005V544.242H1493.72Z" fill="#030500"/>
<path d="M1493.72 539.478V544.242H12.2772V539.478H1493.72Z" fill="#42415E"/>
<path d="M1501.91 534.715L8.18478 539.479L1497.82 539.478V534.715H1501.91Z" fill="#030500"/>
<path d="M1501.91 529.951V534.715H1497.82V529.951H1501.91Z" fill="#42415E"/>
<path d="M1501.91 525.188V529.951H1497.82V525.188H1501.91Z" fill="#908EBA"/>
<path d="M1497.82 539.478V544.242H1493.72V539.478H1497.82Z" fill="#030500"/>
<path d="M1497.82 534.715V539.478H1493.72V534.715H1497.82Z" fill="#42415E"/>
<path d="M1497.82 529.951V534.715H1493.72V529.951H1497.82Z" fill="#908EBA"/>
<path d="M1493.72 534.715V539.478H12.2772V534.715H1493.72Z" fill="#908EBA"/>
<path d="M8.18478 534.715V539.478L4.09238 539.478V534.715H8.18478Z" fill="#030500"/>
<path d="M8.18478 529.951V534.715H4.09238L4.09241 529.951H8.18478Z" fill="#42415E"/>
<path d="M12.2772 539.478V544.242H8.18478V539.478H12.2772Z" fill="#030500"/>
<path d="M12.2772 534.715V539.478H8.18478V534.715H12.2772Z" fill="#42415E"/>
<path d="M8.18478 525.188V529.951H4.09241V525.188H8.18478Z" fill="#908EBA"/>
<path d="M12.2772 529.951V534.715H8.18478V529.951H12.2772Z" fill="#908EBA"/>
<path d="M1501.91 4.77002V534.715L1497.82 534.714V4.76843L1501.91 4.77002Z" fill="#323451"/>
</svg>
