<svg width="120" height="120" viewBox="0 0 120 120" fill="none" xmlns="http://www.w3.org/2000/svg">
<rect width="120" height="120" fill="#193C63"/>
<path d="M65.1895 108.96C57.6888 108.96 50.7788 107.756 44.4594 105.365C38.1399 102.956 32.6276 99.5583 27.9225 95.1732C23.2174 90.7684 19.5557 85.5339 16.9373 79.4699C14.319 73.3861 13 66.7294 13 59.4802C13 52.231 14.319 45.5547 16.9373 39.4906C19.5557 33.4266 23.2174 28.1724 27.9225 23.7873C32.6276 19.3825 38.1399 15.985 44.4594 13.595C50.7788 11.1852 57.6888 10 65.1895 10C73.95 10 81.7854 11.5209 88.7151 14.5628C95.6251 17.6047 101.393 22.0688 106 27.9551L88.912 43.4609C85.8408 39.8264 82.4547 37.0611 78.7536 35.1648C75.0525 33.2686 70.9774 32.3007 66.5478 32.3007C62.6696 32.3007 59.0866 32.9328 55.8383 34.1969C52.59 35.4611 49.8141 37.2981 47.5108 39.7079C45.2075 42.1177 43.3963 44.9818 42.097 48.3398C40.7779 51.6977 40.1283 55.4112 40.1283 59.5C40.1283 63.5888 40.7779 67.3023 42.097 70.6602C43.416 74.0182 45.2075 76.902 47.5108 79.2921C49.8141 81.7019 52.59 83.5389 55.8383 84.8031C59.0866 86.0672 62.6696 86.6993 66.5478 86.6993C70.9774 86.6993 75.0328 85.7512 78.7536 83.8352C82.4547 81.9389 85.8408 79.1143 88.912 75.4008L106 90.9066C101.393 96.7929 95.6251 101.296 88.7151 104.378C81.805 107.459 73.9697 109 65.1895 109V108.96Z" fill="white"/>
</svg>
