<svg width="120" height="120" viewBox="0 0 120 120" fill="none" xmlns="http://www.w3.org/2000/svg">
<rect width="120" height="120" rx="60" fill="#04CED0"/>
<g clip-path="url(#clip0_1474_7)">
<path d="M45.6655 45.9053L41.206 74.5142L41.6003 76.815H35.8058L36.2002 74.5142L33.2878 56.5012L30.4664 74.5142L30.8608 76.815H25.127L25.5214 74.5142L20.9708 45.9659L20 43.0293H25.2484L24.945 44.4522L27.9788 65.0989L31.0125 44.4522L30.6485 43.0293H35.9575L35.5935 44.4522L38.6575 65.0989L41.6912 44.4522L41.3273 43.0293H46.6363L45.6655 45.9053Z" fill="white"/>
<path d="M63.1098 76.8159H50.3984L50.9445 74.7271V45.0586L50.3984 43H63.1098L63.8682 47.6622L61.6839 47.1778H55.6165L55.131 47.6622V57.259L55.6165 57.7434H57.3154L59.4087 57.1985V62.4965L57.3154 61.9514H55.6165L55.131 62.4965V72.0629L55.6165 72.5474H61.6839L63.8682 72.0629L63.1098 76.8159Z" fill="white"/>
<path d="M68.3859 45.0586L67.8398 43H78.9433L81.0972 45.0889V57.7736L78.913 59.8626L81.0972 62.012V74.7271L78.9433 76.8159H67.8701L68.4162 74.7271V45.0586H68.3859ZM72.633 47.6622V57.259L73.1185 57.7434H76.3646L76.8501 57.259V47.6622L76.3646 47.1778H73.1185L72.633 47.6622ZM76.8804 62.4965L76.3949 62.012H73.1488L72.6635 62.4965V72.0629L73.1488 72.5474H76.3646L76.8501 72.0629V62.4965H76.8804Z" fill="white"/>
<path d="M99.9989 68.3694L99.4528 70.4281V76.8461H86.7414V59.8928L88.8348 57.8039H94.7202L95.2055 57.3195V47.753L94.7202 47.2686H91.4134L90.9281 47.753V49.3878L91.5044 51.4464H86.1953L86.7414 49.3878V45.1494L88.8348 43H97.2988L99.4528 45.1494V59.9231L97.2988 62.0725H91.4134L90.9281 62.557V72.0629L91.4134 72.5474H94.7202L95.2055 72.0629V70.4281L94.6595 68.3694H99.9989Z" fill="white"/>
</g>
<defs>
<clipPath id="clip0_1474_7">
<rect width="80" height="34" fill="white" transform="translate(20 43)"/>
</clipPath>
</defs>
</svg>
