<svg width="217" height="64" viewBox="0 0 217 64" fill="none" xmlns="http://www.w3.org/2000/svg">
<g clip-path="url(#clip0_2040_78865)">
<path d="M38.9035 1.22365C38.5949 0.557596 35.9681 1.19459 35.6308 1.27936C35.6069 1.2842 35.5854 1.28662 35.5615 1.27936C35.327 1.23576 33.9323 1.01294 32.6739 1.79767C31.7936 2.34747 28.5926 4.80824 26.9898 6.05073L25.8702 7.0365L8.9374 7.90842C8.91587 7.90842 8.89434 7.91569 8.8752 7.92538L7.79627 8.43884C7.64316 8.51151 7.67905 8.74402 7.8489 8.76582L22.1334 10.3329L15.5976 16.0948C15.5665 16.1215 15.5282 16.136 15.4899 16.136L10.3991 16.4436C10.3513 16.4436 10.3082 16.463 10.2747 16.4993L9.56897 17.2695C9.48046 17.3664 9.5283 17.5214 9.65271 17.5529L14.8273 18.7954C14.8679 18.8051 14.9038 18.8293 14.9254 18.8656L16.0091 20.4593C16.0474 20.515 16.1143 20.5441 16.1813 20.5296L16.4708 20.4714C16.5378 20.4569 16.5904 20.406 16.6048 20.3382L17.088 17.9598C17.0976 17.9089 17.1311 17.8629 17.1789 17.8411L23.0186 14.9177C23.0186 14.9177 23.0329 14.9081 23.0401 14.9032L27.0879 12.0695L27.4443 13.513C27.4467 13.5251 27.4491 13.5372 27.4491 13.5517L27.241 16.8917L27.0927 17.0443L26.8606 17.255C26.8104 17.3567 26.8726 17.4802 26.9826 17.4996L27.3247 17.5626C27.3702 17.5699 27.418 17.5602 27.4563 17.5311L28.7625 17.0007C28.796 16.9765 28.8199 16.9377 28.8295 16.8965L30.3031 9.72736L30.662 9.46578C31.1955 9.09521 35.6906 5.91268 36.8677 4.93176C38.126 3.88303 39.2289 1.93088 38.8987 1.21881L38.9035 1.22365Z" fill="#006CA6"/>
<path d="M7.93892 40.7607C11.6087 38.0432 32.6084 27.8998 48.8259 28.0209C48.8259 28.0209 43.2231 36.0547 41.7806 42.3714L8.27384 42.5264L7.93652 40.7607H7.93892Z" fill="#006CA6"/>
<path d="M7.79969 40.0705C11.8499 37.445 24.4167 31.0412 37.8998 28.2293L34.5721 26.3062C34.5721 26.3062 21.1273 29.2998 7.65137 39.3173L7.7973 40.0705H7.79969Z" fill="#006CA6"/>
<path d="M7.5918 38.5518C10.5296 36.045 20.8045 29.445 31.7422 26.3231L28.8451 25.0006C28.8451 25.0006 17.6826 28.0887 7.6851 37.5637L7.5918 38.5518Z" fill="#006CA6"/>
<path d="M7.69922 36.8492C11.3571 33.1048 18.2924 28.2317 23.3784 26.42L20.9502 25.4827C20.9502 25.4827 14.6345 27.2822 7.79013 35.1732L7.69922 36.8492Z" fill="#006CA6"/>
<path d="M9.97168 32.1166C12.0219 29.8738 16.7228 26.3522 19.5936 25.3252L16.5625 24.5066C16.5625 24.5066 13.297 26.7954 11.2085 29.2852L9.97168 32.1166Z" fill="#006CA6"/>
<path d="M41.0009 48.4918H9.28125C9.81952 50.2042 10.6209 51.7954 11.6377 53.222H38.6445C39.6612 51.7954 40.4627 50.2042 41.0009 48.4918Z" fill="#0087CB"/>
<path d="M41.7364 44.5729C41.7627 44.1781 41.7819 43.7833 41.7819 43.3813H8.5C8.5 43.7833 8.51914 44.1781 8.54545 44.5729H41.7364Z" fill="#0087CB"/>
<path d="M8.59863 45.1953C8.69433 46.1108 8.86657 47.0046 9.10341 47.8692H41.1819C41.4188 47.0021 41.5886 46.1108 41.6867 45.1953H8.59863Z" fill="#0087CB"/>
<path d="M12.1025 53.8444C15.1503 57.7318 19.856 60.2289 25.1406 60.2289C30.4253 60.2289 35.1309 57.7318 38.1787 53.8444H12.1025Z" fill="#0087CB"/>
<path d="M42.7972 43.3983C42.7135 43.3983 42.6417 43.4661 42.6417 43.5509C42.5891 47.0386 41.5484 50.4924 39.6202 53.3576C37.7135 56.2325 35.0246 58.5407 31.9696 60.0472C31.2017 60.4154 30.417 60.7472 29.6132 61.0209C28.807 61.2824 27.9912 61.5222 27.1587 61.6724C26.3285 61.8322 25.4888 61.9485 24.6467 61.9848C24.2257 62.0187 23.8046 62.0066 23.3836 62.0139C22.9601 61.9945 22.5343 61.9921 22.1109 61.9558C18.7712 61.7402 15.4842 60.7956 12.6517 59.0711C11.1613 57.9837 9.79046 56.7266 8.64454 55.271C7.96273 54.4063 7.34073 53.4908 6.81442 52.5196C6.29051 51.5459 5.84554 50.5263 5.48669 49.4727C4.769 47.368 4.39819 45.1349 4.34316 42.8921C4.29771 40.6541 4.50345 38.375 5.13263 36.2315V36.2242C5.16373 36.1274 5.1111 36.0232 5.0154 35.9917C4.91732 35.9578 4.81206 36.0135 4.77857 36.1104C4.05848 38.3048 3.78336 40.6008 3.75466 42.8993C3.74269 44.8224 3.958 46.7552 4.4245 48.6298C4.24269 48.0994 4.07523 47.5617 3.93169 47.0168C3.50107 45.3819 3.20682 43.7131 3.20682 42.0347C3.21639 30.9321 8.501 26.6234 10.8503 23.6588C11.0991 23.344 10.6182 22.9128 10.3168 23.2737C3.16375 31.8404 2.56328 36.0523 2.56328 36.0523C2.56328 36.0523 3.09198 29.3966 9.55362 22.5955C9.81438 22.3219 9.39094 21.9029 9.11822 22.1669C9.11583 22.1693 9.11104 22.1717 9.10865 22.1765C8.91248 22.3727 8.76894 22.5277 8.60627 22.7045C8.45077 22.8765 8.29766 23.0485 8.14933 23.2253C7.8503 23.574 7.56322 23.9301 7.28332 24.291C6.72591 25.0127 6.1996 25.7563 5.70918 26.5216C4.72593 28.0524 3.86949 29.6703 3.17093 31.3608C2.30491 33.4486 1.69487 35.6623 1.39823 37.9197C1.49392 33.7925 2.5896 29.6727 4.68766 26.1026C4.75943 25.9815 4.72354 25.8241 4.60393 25.749C4.48431 25.6739 4.32642 25.7103 4.24986 25.8314C1.35038 30.5277 0.147048 36.2339 0.716419 41.7537C0.998712 44.5172 1.72597 47.2396 2.87668 49.773C3.00108 50.0491 3.13265 50.3228 3.26902 50.5941C3.56806 51.265 3.90059 51.9213 4.25704 52.5632C5.4532 54.6873 7.02255 56.6007 8.86703 58.175C7.3192 57.1529 5.91252 55.908 4.7068 54.4814C4.49388 54.2586 4.32403 53.9994 4.13503 53.7597C3.95082 53.5126 3.75944 53.2704 3.58002 53.0209L3.07763 52.2459L2.82644 51.8584L2.59917 51.4539L2.14702 50.6425C2.00588 50.3664 1.87908 50.0855 1.74272 49.8069C1.46043 49.2547 1.2523 48.6686 1.01067 48.097L1.0035 48.08C0.95565 47.9662 0.824073 47.9129 0.711634 47.9589C0.596803 48.0074 0.539388 48.1406 0.587234 48.2568C0.821681 48.843 1.02024 49.446 1.29775 50.0152C1.42933 50.3034 1.55373 50.5941 1.69248 50.8775L2.13745 51.7179L2.36233 52.1369L2.61113 52.5414L3.11112 53.3503C3.28815 53.6119 3.47954 53.8662 3.66375 54.123C3.85513 54.3748 4.02499 54.6461 4.2379 54.8811C5.83358 56.8526 7.80245 58.5189 10.0034 59.7687C12.1995 61.0233 14.6038 61.8637 17.0583 62.4038C18.6946 62.8301 20.3741 63.0699 22.0487 63.1329C22.7568 63.1692 23.4721 63.1668 24.1874 63.128C24.1874 63.128 24.752 63.1183 24.8261 63.082C25.6826 63.0069 26.5319 62.8786 27.3644 62.6872C29.106 62.2997 30.7854 61.6651 32.3619 60.8441C35.5078 59.185 38.2255 56.7097 40.113 53.687C42.0221 50.6764 42.9862 47.0967 42.9455 43.5533C42.9455 43.4685 42.8761 43.4007 42.7948 43.4007L42.7972 43.3983Z" fill="#0087CB"/>
<path d="M0.478463 47.7603C0.74271 47.7603 0.956925 47.5435 0.956925 47.2759C0.956925 47.0084 0.74271 46.7915 0.478463 46.7915C0.214215 46.7915 0 47.0084 0 47.2759C0 47.5435 0.214215 47.7603 0.478463 47.7603Z" fill="#00B14C"/>
<path d="M5.20014 35.7859C5.46439 35.7859 5.6786 35.569 5.6786 35.3015C5.6786 35.0339 5.46439 34.817 5.20014 34.817C4.93589 34.817 4.72168 35.0339 4.72168 35.3015C4.72168 35.569 4.93589 35.7859 5.20014 35.7859Z" fill="#006CA6"/>
<path d="M11.3437 23.0532C11.6079 23.0532 11.8222 22.8364 11.8222 22.5688C11.8222 22.3013 11.6079 22.0844 11.3437 22.0844C11.0794 22.0844 10.8652 22.3013 10.8652 22.5688C10.8652 22.8364 11.0794 23.0532 11.3437 23.0532Z" fill="#1E1E1E"/>
<path d="M10.0908 22.0191C10.355 22.0191 10.5692 21.8022 10.5692 21.5347C10.5692 21.2671 10.355 21.0503 10.0908 21.0503C9.82652 21.0503 9.6123 21.2671 9.6123 21.5347C9.6123 21.8022 9.82652 22.0191 10.0908 22.0191Z" fill="#EF3C38"/>
<path d="M4.94233 25.4875C5.20658 25.4875 5.42079 25.2706 5.42079 25.003C5.42079 24.7355 5.20658 24.5186 4.94233 24.5186C4.67808 24.5186 4.46387 24.7355 4.46387 25.003C4.46387 25.2706 4.67808 25.4875 4.94233 25.4875Z" fill="#FED400"/>
<path d="M57.9814 60.9331V55.1506L58.1949 55.3792H55.626V54.6379H61.1849V55.3792H58.616L58.8296 55.1506V60.9331H57.9875H57.9814Z" fill="#0087CB"/>
<path d="M64.2126 60.9886C63.7488 60.9886 63.34 60.9083 62.9983 60.7538C62.6566 60.5994 62.3942 60.3832 62.2111 60.1052C62.0281 59.8272 61.9365 59.5121 61.9365 59.1538C61.9365 58.8264 62.0159 58.5298 62.1684 58.258C62.321 57.9924 62.5772 57.7761 62.9251 57.6093C63.2729 57.4425 63.7488 57.3622 64.3407 57.3622H66.4825V57.9985H64.359C63.761 57.9985 63.34 58.1036 63.1081 58.3198C62.8762 58.536 62.7603 58.8016 62.7603 59.1229C62.7603 59.4812 62.9006 59.7716 63.1752 59.9878C63.4498 60.204 63.8404 60.309 64.3346 60.309C64.8289 60.309 65.2194 60.1978 65.5611 59.9816C65.9029 59.7592 66.153 59.4441 66.3117 59.0302L66.5009 59.6171C66.3422 60.031 66.0676 60.3646 65.6771 60.6117C65.2865 60.8589 64.7923 60.9824 64.2004 60.9824L64.2126 60.9886ZM66.3544 60.9268V59.5368L66.3178 59.3082V56.9792C66.3178 56.4417 66.1713 56.034 65.8723 55.7436C65.5794 55.4533 65.134 55.3112 64.5482 55.3112C64.1455 55.3112 63.761 55.3791 63.401 55.515C63.0349 55.651 62.7298 55.8301 62.4796 56.0525L62.1013 55.4162C62.4186 55.1444 62.7969 54.9343 63.2363 54.7861C63.6756 54.6378 64.1455 54.5637 64.6336 54.5637C65.4391 54.5637 66.0615 54.7675 66.5009 55.1691C66.9402 55.5707 67.1599 56.1884 67.1599 57.0101V60.9206H66.3544V60.9268Z" fill="#0087CB"/>
<path d="M69.4971 60.9331V54.6379H70.3514L73.1705 59.4751H72.8166L75.6846 54.6379H76.4656V60.9331H75.6968V55.6078L75.8493 55.6819L73.1705 60.167H72.7922L70.089 55.6325L70.2659 55.5955V60.9331H69.4971Z" fill="#0087CB"/>
<path d="M81.5105 60.9887C80.9003 60.9887 80.3633 60.8528 79.8873 60.5748C79.4114 60.2968 79.0391 59.9199 78.7645 59.4319C78.49 58.9438 78.3496 58.394 78.3496 57.7762C78.3496 57.1585 78.49 56.5901 78.7645 56.1082C79.0391 55.6263 79.4175 55.2557 79.8873 54.9777C80.3633 54.7059 80.9003 54.5699 81.5105 54.5699C82.1207 54.5699 82.676 54.7059 83.1519 54.9839C83.6279 55.2619 84.0062 55.6387 84.2747 56.1144C84.5493 56.5901 84.6835 57.1461 84.6835 57.7762C84.6835 58.4064 84.5493 58.9562 84.2747 59.4381C84.0001 59.9199 83.6279 60.303 83.1458 60.5748C82.6637 60.8466 82.1207 60.9887 81.5105 60.9887ZM81.5105 60.235C81.962 60.235 82.3586 60.1362 82.7065 59.9323C83.0543 59.7284 83.3289 59.4381 83.5302 59.0674C83.7316 58.6967 83.8353 58.2643 83.8353 57.7762C83.8353 57.2882 83.7316 56.8496 83.5302 56.4789C83.3289 56.1082 83.0543 55.8241 82.7065 55.6202C82.3586 55.4163 81.962 55.3113 81.5227 55.3113C81.0833 55.3113 80.6867 55.4163 80.3389 55.6202C79.991 55.8241 79.7165 56.1082 79.509 56.4789C79.3015 56.8496 79.2039 57.2758 79.2039 57.7762C79.2039 58.2766 79.3076 58.6967 79.509 59.0674C79.7165 59.4381 79.9911 59.7284 80.3328 59.9323C80.6745 60.1362 81.0711 60.235 81.5105 60.235Z" fill="#0087CB"/>
<path d="M86.3672 60.9331H85.3604L87.8012 57.3932L88.4907 57.8133L86.3672 60.9331ZM87.7279 57.8751L85.5373 54.6379H86.4526L88.5151 57.7577L87.7341 57.8751H87.7279ZM89.882 58.1284H87.9293V57.3994H89.882V58.1284ZM90.4617 60.9331H89.6196V54.6379H90.4617V60.9331ZM90.1993 58.1284V57.3994H92.1641V58.1284H90.1993ZM92.3777 57.8751L91.5722 57.7577L93.6469 54.6379H94.5622L92.3838 57.8751H92.3777ZM93.7263 60.9331L91.5905 57.8133L92.2923 57.3932L94.7331 60.9331H93.7263Z" fill="#0087CB"/>
<path d="M98.6818 60.9887C98.035 60.9887 97.4675 60.8528 96.9733 60.5748C96.479 60.2968 96.1007 59.9199 95.8261 59.4381C95.5515 58.9562 95.4111 58.4002 95.4111 57.7762C95.4111 57.1523 95.5454 56.6025 95.8078 56.1206C96.0701 55.6387 96.4363 55.2619 96.9 54.9839C97.3638 54.7059 97.8825 54.5699 98.456 54.5699C99.0296 54.5699 99.5605 54.7059 100.012 54.9715C100.464 55.2371 100.824 55.614 101.086 56.1021C101.348 56.5839 101.477 57.1461 101.477 57.7762C101.477 57.8195 101.477 57.8566 101.477 57.8998C101.477 57.943 101.477 57.9863 101.477 58.0357H96.0641V57.3994H101.031L100.702 57.6527C100.702 57.1955 100.604 56.794 100.409 56.4356C100.213 56.0773 99.9511 55.7993 99.6215 55.6016C99.292 55.404 98.9076 55.3051 98.4744 55.3051C98.0411 55.3051 97.6628 55.404 97.3272 55.6016C96.9916 55.7993 96.7231 56.0835 96.5339 56.4418C96.3447 56.8001 96.2471 57.2141 96.2471 57.6774V57.8071C96.2471 58.289 96.3509 58.7091 96.5583 59.0736C96.7658 59.4381 97.0587 59.7223 97.437 59.9261C97.8153 60.13 98.2425 60.2288 98.7245 60.2288C99.1029 60.2288 99.4568 60.1609 99.7863 60.0249C100.116 59.889 100.397 59.679 100.634 59.401L101.11 59.9508C100.836 60.2844 100.488 60.5439 100.073 60.7169C99.6582 60.896 99.2005 60.9825 98.7062 60.9825L98.6818 60.9887Z" fill="#0087CB"/>
<path d="M103.43 60.9331V54.6379H104.272V57.4179H108.195V54.6379H109.037V60.9331H108.195V58.1531H104.272V60.9331H103.43Z" fill="#0087CB"/>
<path d="M111.527 60.9331V54.6379H112.369V57.4179H116.293V54.6379H117.135V60.9331H116.293V58.1531H112.369V60.9331H111.527Z" fill="#0087CB"/>
<path d="M122.175 60.9887C121.564 60.9887 121.027 60.8528 120.551 60.5748C120.075 60.2968 119.703 59.9199 119.429 59.4319C119.154 58.9438 119.014 58.394 119.014 57.7762C119.014 57.1585 119.154 56.5901 119.429 56.1082C119.703 55.6263 120.082 55.2557 120.551 54.9777C121.027 54.7059 121.564 54.5699 122.175 54.5699C122.785 54.5699 123.34 54.7059 123.816 54.9839C124.292 55.2619 124.67 55.6387 124.939 56.1144C125.213 56.5901 125.348 57.1461 125.348 57.7762C125.348 58.4064 125.213 58.9562 124.939 59.4381C124.664 59.9199 124.292 60.303 123.81 60.5748C123.328 60.8466 122.785 60.9887 122.175 60.9887ZM122.175 60.235C122.626 60.235 123.023 60.1362 123.371 59.9323C123.718 59.7284 123.993 59.4381 124.194 59.0674C124.396 58.6967 124.499 58.2643 124.499 57.7762C124.499 57.2882 124.396 56.8496 124.194 56.4789C123.993 56.1082 123.718 55.8241 123.371 55.6202C123.023 55.4163 122.626 55.3113 122.187 55.3113C121.747 55.3113 121.351 55.4163 121.003 55.6202C120.655 55.8241 120.381 56.1082 120.173 56.4789C119.966 56.8496 119.868 57.2758 119.868 57.7762C119.868 58.2766 119.972 58.6967 120.173 59.0674C120.381 59.4381 120.655 59.7284 120.997 59.9323C121.339 60.1362 121.735 60.235 122.175 60.235Z" fill="#0087CB"/>
<path d="M129.911 60.9887C129.265 60.9887 128.697 60.8528 128.203 60.5748C127.708 60.2968 127.33 59.9199 127.056 59.4381C126.781 58.9562 126.641 58.4002 126.641 57.7762C126.641 57.1523 126.775 56.6025 127.037 56.1206C127.3 55.6387 127.666 55.2619 128.13 54.9839C128.593 54.7059 129.112 54.5699 129.686 54.5699C130.259 54.5699 130.79 54.7059 131.242 54.9715C131.693 55.2371 132.053 55.614 132.316 56.1021C132.578 56.5839 132.706 57.1461 132.706 57.7762C132.706 57.8195 132.706 57.8566 132.706 57.8998C132.706 57.943 132.706 57.9863 132.706 58.0357H127.294V57.3994H132.261L131.931 57.6527C131.931 57.1955 131.833 56.794 131.638 56.4356C131.443 56.0773 131.181 55.7993 130.851 55.6016C130.522 55.404 130.137 55.3051 129.704 55.3051C129.271 55.3051 128.892 55.404 128.557 55.6016C128.221 55.7993 127.953 56.0835 127.763 56.4418C127.574 56.8001 127.477 57.2141 127.477 57.6774V57.8071C127.477 58.289 127.58 58.7091 127.788 59.0736C127.995 59.4381 128.288 59.7223 128.667 59.9261C129.045 60.13 129.472 60.2288 129.954 60.2288C130.332 60.2288 130.686 60.1609 131.016 60.0249C131.345 59.889 131.626 59.679 131.864 59.401L132.34 59.9508C132.065 60.2844 131.718 60.5439 131.303 60.7169C130.888 60.896 130.43 60.9825 129.936 60.9825L129.911 60.9887Z" fill="#0087CB"/>
<path d="M140.421 60.9887C139.81 60.9887 139.273 60.8528 138.797 60.5748C138.322 60.2968 137.949 59.9199 137.675 59.4319C137.4 58.9438 137.26 58.394 137.26 57.7762C137.26 57.1585 137.4 56.5901 137.675 56.1082C137.949 55.6263 138.328 55.2557 138.797 54.9777C139.273 54.7059 139.81 54.5699 140.421 54.5699C141.031 54.5699 141.586 54.7059 142.062 54.9839C142.538 55.2619 142.916 55.6387 143.185 56.1144C143.459 56.5901 143.594 57.1461 143.594 57.7762C143.594 58.4064 143.459 58.9562 143.185 59.4381C142.91 59.9199 142.538 60.303 142.056 60.5748C141.574 60.8466 141.031 60.9887 140.421 60.9887ZM140.421 60.235C140.872 60.235 141.269 60.1362 141.617 59.9323C141.964 59.7284 142.239 59.4381 142.44 59.0674C142.642 58.6967 142.745 58.2643 142.745 57.7762C142.745 57.2882 142.642 56.8496 142.44 56.4789C142.239 56.1082 141.964 55.8241 141.617 55.6202C141.269 55.4163 140.872 55.3113 140.433 55.3113C139.993 55.3113 139.597 55.4163 139.249 55.6202C138.901 55.8241 138.627 56.1082 138.419 56.4789C138.212 56.8496 138.114 57.2758 138.114 57.7762C138.114 58.2766 138.218 58.6967 138.419 59.0674C138.627 59.4381 138.901 59.7284 139.243 59.9323C139.585 60.1362 139.981 60.235 140.421 60.235Z" fill="#0087CB"/>
<path d="M148.988 61.001H148.786C147.554 60.9948 146.596 60.7106 145.906 60.1485C145.217 59.5863 144.875 58.7955 144.875 57.7638C144.875 56.7321 145.223 55.9599 145.912 55.4039C146.602 54.8479 147.578 54.5637 148.835 54.5575H149.012C150.275 54.5637 151.258 54.8479 151.959 55.4039C152.661 55.9599 153.015 56.7445 153.015 57.7638C153.015 58.7832 152.661 59.6048 151.953 60.1608C151.246 60.723 150.257 61.001 148.988 61.001ZM148.976 60.2597C149.677 60.2597 150.269 60.1608 150.739 59.9631C151.215 59.7654 151.575 59.4874 151.819 59.1168C152.063 58.7523 152.185 58.2951 152.185 57.7638C152.185 57.2325 152.063 56.8001 151.819 56.4356C151.575 56.0711 151.215 55.7931 150.739 55.6016C150.263 55.4101 149.677 55.3112 148.976 55.3112H148.847C148.158 55.3112 147.584 55.4101 147.114 55.6078C146.645 55.8055 146.297 56.0835 146.059 56.4418C145.821 56.8001 145.705 57.2449 145.705 57.7638C145.705 58.2828 145.827 58.7399 146.065 59.1044C146.303 59.4751 146.657 59.7531 147.127 59.9508C147.59 60.1485 148.164 60.2473 148.847 60.2535H148.976V60.2597ZM148.524 63.2559V52.0308H149.342V63.2559H148.524Z" fill="#0087CB"/>
<path d="M157.451 60.9887C156.841 60.9887 156.304 60.8528 155.828 60.5748C155.352 60.2968 154.98 59.9199 154.705 59.4319C154.43 58.9438 154.29 58.394 154.29 57.7762C154.29 57.1585 154.43 56.5901 154.705 56.1082C154.98 55.6263 155.358 55.2557 155.828 54.9777C156.304 54.7059 156.841 54.5699 157.451 54.5699C158.061 54.5699 158.616 54.7059 159.092 54.9839C159.568 55.2619 159.947 55.6387 160.215 56.1144C160.49 56.5901 160.624 57.1461 160.624 57.7762C160.624 58.4064 160.49 58.9562 160.215 59.4381C159.941 59.9199 159.568 60.303 159.086 60.5748C158.604 60.8528 158.061 60.9887 157.451 60.9887ZM157.451 60.235C157.902 60.235 158.299 60.1362 158.647 59.9323C158.995 59.7284 159.269 59.4381 159.471 59.0674C159.672 58.6967 159.776 58.2643 159.776 57.7762C159.776 57.2882 159.672 56.8496 159.471 56.4789C159.269 56.1082 158.995 55.8241 158.647 55.6202C158.299 55.4163 157.902 55.3113 157.463 55.3113C157.024 55.3113 156.627 55.4163 156.279 55.6202C155.931 55.8241 155.657 56.1082 155.449 56.4789C155.242 56.8496 155.144 57.2758 155.144 57.7762C155.144 58.2766 155.248 58.6967 155.449 59.0674C155.657 59.4381 155.931 59.7284 156.273 59.9323C156.615 60.1362 157.012 60.235 157.451 60.235Z" fill="#0087CB"/>
<path d="M162.523 63.256V54.6317H163.328V56.5283L163.243 57.7886L163.359 59.0612V63.2621H162.517L162.523 63.256ZM165.732 60.9887C165.195 60.9887 164.707 60.8651 164.274 60.6118C163.841 60.3586 163.493 59.9941 163.237 59.5184C162.98 59.0427 162.852 58.462 162.852 57.77C162.852 57.0781 162.98 56.5036 163.231 56.0279C163.481 55.5522 163.829 55.1877 164.262 54.9406C164.695 54.6935 165.183 54.5699 165.732 54.5699C166.324 54.5699 166.855 54.7059 167.325 54.9715C167.795 55.2371 168.167 55.614 168.436 56.1021C168.704 56.5839 168.838 57.1461 168.838 57.7762C168.838 58.4064 168.704 58.9747 168.436 59.4566C168.167 59.9385 167.795 60.3153 167.325 60.5871C166.855 60.859 166.324 60.9949 165.732 60.9949V60.9887ZM165.671 60.235C166.111 60.235 166.507 60.1362 166.855 59.9323C167.203 59.7284 167.478 59.4381 167.685 59.0674C167.893 58.6967 167.996 58.2643 167.996 57.7762C167.996 57.2882 167.893 56.8619 167.685 56.4912C167.478 56.1206 167.203 55.8364 166.855 55.6263C166.507 55.4163 166.111 55.3113 165.671 55.3113C165.232 55.3113 164.829 55.4163 164.481 55.6263C164.128 55.8364 163.853 56.1206 163.652 56.4912C163.45 56.8619 163.346 57.2882 163.346 57.7762C163.346 58.2643 163.45 58.6967 163.652 59.0674C163.853 59.4381 164.128 59.7284 164.481 59.9323C164.835 60.1362 165.232 60.235 165.671 60.235Z" fill="#0087CB"/>
<path d="M170.741 60.9331V54.6379H171.595L174.415 59.4751H174.061L176.929 54.6379H177.71V60.9331H176.941V55.6078L177.093 55.6819L174.415 60.167H174.036L171.333 55.6325L171.51 55.5955V60.9331H170.741Z" fill="#0087CB"/>
<path d="M179.063 60.9207L179.125 60.1917C179.179 60.1979 179.234 60.2103 179.283 60.2226C179.332 60.235 179.381 60.2412 179.417 60.2412C179.668 60.2412 179.875 60.1485 180.028 59.9508C180.18 59.7593 180.296 59.506 180.375 59.1848C180.455 58.8635 180.51 58.5052 180.54 58.0975C180.571 57.6959 180.601 57.2882 180.626 56.8804L180.735 54.6379H185.3V60.9331H184.458V55.1259L184.671 55.3792H181.285L181.486 55.1136L181.394 56.936C181.37 57.4797 181.327 57.9986 181.272 58.4928C181.211 58.9871 181.12 59.4257 180.998 59.8025C180.876 60.1794 180.705 60.4697 180.491 60.686C180.278 60.896 180.003 61.001 179.674 61.001C179.576 61.001 179.485 60.9949 179.381 60.9763C179.283 60.9578 179.179 60.9393 179.07 60.9145L179.063 60.9207Z" fill="#0087CB"/>
<path d="M190.451 60.9887C189.805 60.9887 189.237 60.8528 188.743 60.5748C188.249 60.2968 187.87 59.9199 187.596 59.4381C187.321 58.9562 187.181 58.4002 187.181 57.7762C187.181 57.1523 187.315 56.6025 187.577 56.1206C187.84 55.6387 188.206 55.2619 188.67 54.9839C189.133 54.7059 189.652 54.5699 190.226 54.5699C190.799 54.5699 191.33 54.7059 191.782 54.9715C192.233 55.2371 192.593 55.614 192.856 56.1021C193.118 56.5839 193.246 57.1461 193.246 57.7762C193.246 57.8195 193.246 57.8566 193.246 57.8998C193.246 57.943 193.246 57.9863 193.246 58.0357H187.834V57.3994H192.801L192.471 57.6527C192.471 57.1955 192.374 56.794 192.178 56.4356C191.983 56.0773 191.721 55.7993 191.391 55.6016C191.062 55.404 190.677 55.3051 190.244 55.3051C189.811 55.3051 189.432 55.404 189.097 55.6016C188.761 55.7993 188.493 56.0835 188.303 56.4418C188.114 56.8001 188.017 57.2141 188.017 57.6774V57.8071C188.017 58.289 188.12 58.7091 188.328 59.0736C188.535 59.4381 188.828 59.7223 189.207 59.9261C189.585 60.13 190.012 60.2288 190.494 60.2288C190.872 60.2288 191.226 60.1609 191.556 60.0249C191.885 59.889 192.166 59.679 192.404 59.401L192.88 59.9508C192.605 60.2844 192.258 60.5439 191.843 60.7169C191.428 60.896 190.97 60.9825 190.476 60.9825L190.451 60.9887Z" fill="#0087CB"/>
<path d="M195.197 60.9331V54.6379H196.039V57.4179H199.963V54.6379H200.805V60.9331H199.963V58.1531H196.039V60.9331H195.197Z" fill="#0087CB"/>
<path d="M203.29 60.9331V54.6379H204.132V59.6419L208.294 54.6379H209.038V60.9331H208.196V55.9167L204.047 60.9331H203.29Z" fill="#0087CB"/>
<path d="M214.205 60.9887C213.558 60.9887 212.991 60.8528 212.497 60.5748C212.009 60.2968 211.624 59.9199 211.35 59.4381C211.075 58.9562 210.935 58.4002 210.935 57.7762C210.935 57.1523 211.069 56.6025 211.331 56.1206C211.594 55.6387 211.96 55.2619 212.423 54.9839C212.887 54.7059 213.406 54.5699 213.979 54.5699C214.553 54.5699 215.084 54.7059 215.536 54.9715C215.987 55.2371 216.347 55.614 216.609 56.1021C216.872 56.5839 217 57.1461 217 57.7762C217 57.8195 217 57.8566 217 57.8998C217 57.943 217 57.9863 217 58.0357H211.587V57.3994H216.555L216.225 57.6527C216.225 57.1955 216.127 56.794 215.932 56.4356C215.737 56.0773 215.474 55.7993 215.145 55.6016C214.815 55.404 214.431 55.3051 213.998 55.3051C213.565 55.3051 213.186 55.404 212.851 55.6016C212.515 55.7993 212.247 56.0835 212.057 56.4418C211.868 56.8001 211.771 57.2141 211.771 57.6774V57.8071C211.771 58.289 211.874 58.7091 212.082 59.0736C212.289 59.4381 212.582 59.7223 212.96 59.9261C213.339 60.13 213.766 60.2288 214.248 60.2288C214.626 60.2288 214.98 60.1609 215.31 60.0249C215.639 59.889 215.92 59.679 216.158 59.401L216.634 59.9508C216.359 60.2844 216.011 60.5439 215.597 60.7169C215.182 60.896 214.724 60.9825 214.23 60.9825L214.205 60.9887Z" fill="#0087CB"/>
<path d="M64.5895 45.7686C63.3009 45.7686 62.1137 45.5598 61.028 45.1454C59.9423 44.7277 58.9952 44.1387 58.1868 43.3785C57.3785 42.6149 56.7494 41.7074 56.2995 40.6561C55.8497 39.6015 55.623 38.4475 55.623 37.1907C55.623 35.934 55.8497 34.7766 56.2995 33.7253C56.7494 32.6741 57.3785 31.7632 58.1868 31.003C58.9952 30.2394 59.9423 29.6504 61.028 29.2361C62.1137 28.8183 63.3009 28.6129 64.5895 28.6129C66.0947 28.6129 67.4408 28.8765 68.6314 29.4039C69.8186 29.9312 70.8096 30.7051 71.6011 31.7255L68.6652 34.4136C68.1376 33.7836 67.5558 33.3042 66.92 32.9754C66.2841 32.6467 65.5839 32.4789 64.8229 32.4789C64.1566 32.4789 63.541 32.5885 62.983 32.8076C62.4249 33.0268 61.948 33.3453 61.5522 33.763C61.1565 34.1808 60.8453 34.6773 60.6221 35.2594C60.3955 35.8416 60.2839 36.4853 60.2839 37.1942C60.2839 37.903 60.3955 38.5468 60.6221 39.1289C60.8487 39.711 61.1565 40.211 61.5522 40.6253C61.948 41.0431 62.4249 41.3616 62.983 41.5807C63.541 41.7999 64.1566 41.9094 64.8229 41.9094C65.5839 41.9094 66.2807 41.7451 66.92 41.4129C67.5558 41.0842 68.1376 40.5945 68.6652 39.9507L71.6011 42.6388C70.8096 43.6593 69.8186 44.44 68.6314 44.9742C67.4442 45.5084 66.0981 45.7755 64.5895 45.7755V45.7686Z" fill="#006CA6"/>
<path d="M73.833 45.4365V28.9313H89.1346V45.4365H84.5718V31.6194L85.5967 32.633H77.3743L78.3754 31.6194V45.4365H73.833Z" fill="#006CA6"/>
<path d="M97.3774 41.8067H105.901V45.4365H92.835V28.9313H105.596V32.5611H97.374V41.8033L97.3774 41.8067ZM97.0527 35.3245H104.622V38.7899H97.0527V35.3245Z" fill="#006CA6"/>
<path d="M108.627 45.4365V28.9313H113.213V45.4365H108.627ZM111.888 39.1187V35.369H117.827V39.1187H111.888ZM118.571 37.7044L114.333 37.2319L119.315 28.9313H124.159L118.568 37.701L118.571 37.7044ZM118.99 45.4365L114.428 37.5846L118.108 35.393L124.233 45.4365H118.994H118.99Z" fill="#006CA6"/>
<path d="M129.283 45.4365V31.5954L130.308 32.633H124.301V28.9313H138.831V32.633H132.801L133.825 31.5954V45.4365H129.283Z" fill="#006CA6"/>
<path d="M141.139 45.4365V28.9313H148.566C150.058 28.9313 151.346 29.1745 152.432 29.6607C153.518 30.147 154.353 30.8524 154.935 31.7701C155.517 32.6912 155.808 33.7699 155.808 35.0129C155.808 36.2559 155.517 37.3757 154.935 38.2797C154.353 39.1837 153.518 39.8823 152.432 40.3788C151.346 40.8753 150.058 41.1219 148.566 41.1219H143.675L145.749 39.0707V45.4365H141.139ZM145.749 39.6118L143.675 37.4202H148.285C149.249 37.4202 149.97 37.2113 150.45 36.7935C150.93 36.3758 151.171 35.7834 151.171 35.0129C151.171 34.2424 150.93 33.6877 150.45 33.2562C149.97 32.8248 149.246 32.609 148.285 32.609H143.675L145.749 30.462V39.6083V39.6118Z" fill="#006CA6"/>
<path d="M165.264 45.4365V28.9313H173.205C175.147 28.9313 176.655 29.3046 177.734 30.0511C178.813 30.7976 179.354 31.8557 179.354 33.222C179.354 34.5883 178.85 35.6087 177.839 36.3689C176.831 37.1326 175.488 37.5127 173.811 37.5127L174.254 36.3792C176.087 36.3792 177.518 36.7525 178.549 37.499C179.581 38.2455 180.098 39.3173 180.098 40.7178C180.098 42.1183 179.544 43.3306 178.434 44.1729C177.325 45.0153 175.729 45.4331 173.648 45.4331H165.264V45.4365ZM169.806 35.5094H172.762C173.398 35.5094 173.882 35.3759 174.207 35.1088C174.531 34.8417 174.697 34.441 174.697 33.9069C174.697 33.3727 174.535 32.9686 174.207 32.6912C173.882 32.4173 173.398 32.2769 172.762 32.2769H169.806V35.506V35.5094ZM169.806 42.0875H173.415C174.098 42.0875 174.606 41.9437 174.94 41.6526C175.275 41.3616 175.441 40.9335 175.441 40.3685C175.441 39.8035 175.275 39.3823 174.94 39.1084C174.606 38.8344 174.098 38.6975 173.415 38.6975H169.806V42.091V42.0875Z" fill="#006CA6"/>
<path d="M188.413 28.6026C189.671 28.6026 190.818 28.8115 191.859 29.2258C192.898 29.6436 193.804 30.2326 194.572 30.9927C195.34 31.7564 195.939 32.6638 196.365 33.7151C196.791 34.7698 197.004 35.9238 197.004 37.1805C197.004 38.4372 196.791 39.5946 196.365 40.6459C195.939 41.7006 195.34 42.608 194.572 43.3682C193.804 44.1318 192.898 44.7208 191.859 45.1351C190.818 45.5495 189.671 45.7584 188.413 45.7584C186.891 45.7584 185.535 45.4913 184.337 44.9571C183.143 44.4229 182.149 43.6524 181.357 42.6457L184.27 39.9576C184.797 40.5877 185.382 41.0671 186.028 41.3958C186.671 41.7245 187.391 41.8923 188.183 41.8923C188.805 41.8923 189.37 41.7828 189.884 41.5636C190.398 41.3444 190.835 41.026 191.2 40.6082C191.565 40.1904 191.843 39.6939 192.039 39.1118C192.232 38.5297 192.33 37.8859 192.33 37.1771C192.33 36.4682 192.232 35.8245 192.039 35.2423C191.846 34.6602 191.565 34.1602 191.2 33.7459C190.835 33.3316 190.398 33.0131 189.884 32.7905C189.373 32.5714 188.805 32.4618 188.183 32.4618C187.391 32.4618 186.674 32.6261 186.028 32.9583C185.382 33.287 184.797 33.7767 184.27 34.4205L181.357 31.7324C182.149 30.712 183.143 29.9312 184.337 29.397C185.531 28.8628 186.891 28.5957 188.413 28.5957V28.6026ZM186.248 38.8344V35.369H193.933V38.8344H186.248Z" fill="#006CA6"/>
<path d="M197.843 48.7855L197.866 41.7348H216.73V48.7855H212.515V45.4365H202.104L202.081 48.7855H197.843ZM209.975 43.4093V32.633H205.294L205.223 34.4239C205.193 35.3827 205.135 36.2799 205.047 37.112C204.963 37.9441 204.844 38.7077 204.699 39.3994C204.55 40.0911 204.357 40.687 204.117 41.1903C203.877 41.6937 203.579 42.0704 203.221 42.3204L198.33 41.7314C198.874 41.7485 199.321 41.5636 199.669 41.1766C200.018 40.7897 200.298 40.2521 200.508 39.5604C200.718 38.8687 200.873 38.0502 200.975 37.1086C201.076 36.1669 201.151 35.1362 201.195 34.0198L201.381 28.9279H214.514V43.4059H209.972L209.975 43.4093Z" fill="#006CA6"/>
</g>
<defs>
<clipPath id="clip0_2040_78865">
<rect width="217" height="64" fill="white"/>
</clipPath>
</defs>
</svg>
