<svg width="10" height="10" viewBox="0 0 10 10" fill="none" xmlns="http://www.w3.org/2000/svg">
<g clip-path="url(#clip0_241_4125)">
<path d="M9.30851 4.36171H9.25532V3.8298C9.25532 3.21278 8.79787 2.70214 8.19149 2.61703V1.96809C8.19149 1.29788 7.6383 0.74469 6.96809 0.74469H1.29787C0.595745 0.74469 0.0106383 1.30852 0 2.02129V8.03193C0 8.70214 0.553192 9.25533 1.2234 9.25533H8.03192C8.70213 9.25533 9.25532 8.70214 9.25532 8.03193V7.44682H9.30851C9.69149 7.44682 10 7.13831 10 6.75533V5.0532C10 4.67022 9.69149 4.36171 9.30851 4.36171ZM0.744681 2.04256C0.744681 1.73405 1 1.48937 1.29787 1.48937H6.95745C7.2234 1.48937 7.43617 1.70214 7.43617 1.96809V2.60639H1.29787C1 2.60639 0.744681 2.35107 0.744681 2.04256ZM9.25532 6.70214H7.5C7.06383 6.70214 6.70213 6.34044 6.70213 5.90427C6.70213 5.4681 7.06383 5.10639 7.5 5.10639H9.25532V6.70214Z" fill="white"/>
<path d="M7.71258 6.4362C8.00634 6.4362 8.24449 6.19805 8.24449 5.90429C8.24449 5.61052 8.00634 5.37238 7.71258 5.37238C7.41881 5.37238 7.18066 5.61052 7.18066 5.90429C7.18066 6.19805 7.41881 6.4362 7.71258 6.4362Z" fill="white"/>
</g>
<defs>
<clipPath id="clip0_241_4125">
<rect width="10" height="10" fill="white"/>
</clipPath>
</defs>
</svg>
