<svg width="14" height="14" viewBox="0 0 14 14" fill="none" xmlns="http://www.w3.org/2000/svg">
<path d="M11.234 3.36045C10.9936 3.13269 10.6144 3.18164 10.411 3.44299C10.2414 3.66084 10.2826 3.97325 10.4828 4.16337C11.6835 5.30373 12.2599 6.96981 11.9993 8.62431C11.7894 9.9598 11.0718 11.1336 9.9789 11.9296C8.88567 12.7253 7.54838 13.0487 6.21289 12.8376C3.45601 12.4035 1.56571 9.80756 1.99907 7.05047C2.20903 5.71484 2.92684 4.54097 4.01986 3.74513C4.97415 3.05044 6.11449 2.71678 7.27737 2.78296L6.66288 3.42762C6.47729 3.62232 6.48459 3.93058 6.67919 4.11628C6.87399 4.30218 7.18265 4.29482 7.36836 4.09984L8.53236 2.87783L8.53273 2.87841C8.9037 2.48885 8.88952 1.87175 8.50029 1.50044L7.27824 0.336194C7.08334 0.150511 6.77482 0.157958 6.58911 0.35283C6.40333 0.547764 6.4108 0.856403 6.60579 1.04212L7.27867 1.68301C5.884 1.61705 4.51795 2.02274 3.37285 2.85651C2.04249 3.82518 1.16898 5.25387 0.913208 6.87981C0.385631 10.2355 2.68625 13.3957 6.04194 13.9238C6.36628 13.9749 6.69047 14 7.01257 14C8.30514 14 9.56108 13.5937 10.6259 12.8183C11.9564 11.8494 12.8298 10.4208 13.0856 8.79518C13.4032 6.77895 12.6992 4.74822 11.234 3.36045Z"/>
<path d="M6.78109 5.45544V8.22186L5.21493 9.55912C5.04815 9.70154 5.04815 9.93244 5.21493 10.0749C5.29834 10.1461 5.40762 10.1817 5.51696 10.1817C5.62625 10.1817 5.73557 10.1461 5.81898 10.0749L7.51022 8.63078C7.5903 8.5624 7.6353 8.46962 7.6353 8.37291V5.45544C7.6353 5.25403 7.44408 5.09076 7.2082 5.09076C6.97231 5.09076 6.78109 5.25403 6.78109 5.45544Z"/>
</svg>
