<svg width="16" height="16" viewBox="0 0 16 16" fill="none" xmlns="http://www.w3.org/2000/svg">
<path fill-rule="evenodd" clip-rule="evenodd" d="M8.00032 0.666631C8.96352 0.665496 9.91745 0.854665 10.8073 1.22328C11.6972 1.59188 12.5055 2.13266 13.1857 2.81454C13.8676 3.49481 14.4084 4.3031 14.777 5.19298C15.1456 6.08285 15.3348 7.03677 15.3337 7.99996C15.3348 8.96315 15.1456 9.91709 14.777 10.807C14.4084 11.6968 13.8676 12.5051 13.1857 13.1854C12.5055 13.8673 11.6972 14.408 10.8073 14.7767C9.91745 15.1453 8.96351 15.3344 8.00032 15.3333C7.03713 15.3344 6.08321 15.1452 5.19334 14.7766C4.30348 14.408 3.4952 13.8672 2.81493 13.1854C2.13304 12.5051 1.59225 11.6968 1.22364 10.807C0.855031 9.91708 0.665861 8.96315 0.666997 7.99995C0.665883 7.03677 0.855061 6.08285 1.22367 5.19298C1.59228 4.30311 2.13305 3.49483 2.81493 2.81456C3.4952 2.13268 4.30348 1.59191 5.19334 1.2233C6.08321 0.854694 7.03714 0.665516 8.00032 0.666631ZM10.2971 2.45511C9.56924 2.15362 8.789 1.99894 8.0012 1.99996H7.99948C7.21168 1.99896 6.43144 2.15365 5.7036 2.45514C4.97577 2.75662 4.31469 3.19897 3.75835 3.75676L3.75712 3.75798C3.19934 4.31432 2.75699 4.9754 2.4555 5.70324C2.15401 6.43107 1.99933 7.21131 2.00033 7.99911V8.00083C1.99931 8.78863 2.15399 9.56887 2.45548 10.2967C2.75696 11.0245 3.19932 11.6856 3.75711 12.2419L3.75835 12.2432C4.31469 12.801 4.97577 13.2433 5.7036 13.5448C6.43144 13.8463 7.21168 14.001 7.99948 14H8.0012C8.789 14.001 9.56924 13.8463 10.2971 13.5448C11.0249 13.2433 11.686 12.801 12.2423 12.2432L12.2435 12.2419C12.8013 11.6856 13.2437 11.0245 13.5452 10.2967C13.8467 9.56887 14.0014 8.78863 14.0003 8.00083V7.99911C14.0013 7.21131 13.8466 6.43107 13.5452 5.70324C13.2437 4.9754 12.8013 4.31432 12.2435 3.75798L12.2423 3.75675C11.686 3.19895 11.0249 2.7566 10.2971 2.45511Z" fill="#EF8E2E"/>
<path fill-rule="evenodd" clip-rule="evenodd" d="M11.8051 5.52851C12.0654 5.78886 12.0654 6.21097 11.8051 6.47132L7.80506 10.4713C7.54471 10.7317 7.1226 10.7317 6.86225 10.4713L4.86225 8.47132C4.6019 8.21097 4.6019 7.78886 4.86225 7.52851C5.1226 7.26816 5.54471 7.26816 5.80506 7.52851L7.33366 9.05711L10.8623 5.52851C11.1226 5.26816 11.5447 5.26816 11.8051 5.52851Z" fill="#EF8E2E"/>
</svg>
