<svg width="24" height="22" viewBox="0 0 24 22" fill="none" xmlns="http://www.w3.org/2000/svg">
<path d="M23.9956 7.40002C23.956 6.71562 23.142 6.18082 21.514 5.77281C21.5688 5.65281 21.5996 5.52802 21.6 5.39842V2.60001H21.5932C21.45 0.268812 11.8972 0.200012 10.8 0.200012C9.70279 0.200012 0.15 0.268812 0.0068 2.60001H0V2.65201V5.39961C0.002 6.15962 0.982799 6.75442 2.442 7.19722C2.422 7.26362 2.41 7.33122 2.406 7.40002H2.4V7.45202V10.1948C0.827999 10.5996 0.0428 11.1268 0.004 11.8H0V11.852V14.5996C0.0012 15.1288 0.4784 15.5776 1.2592 15.9516C1.2296 16.0328 1.2112 16.1156 1.206 16.2004H1.2V16.2524V19C1.2032 20.3304 4.1988 21.1564 7.5272 21.542C7.5516 21.5468 7.574 21.5568 7.6 21.5568C7.6076 21.5568 7.614 21.5528 7.6216 21.5524C8.2632 21.6248 8.91519 21.6812 9.56039 21.7216C9.57399 21.7232 9.58599 21.7296 9.59999 21.7296C9.60759 21.7296 9.61359 21.7256 9.62079 21.7252C10.44 21.7748 11.246 21.8 12 21.8C12.754 21.8 13.56 21.7748 14.3792 21.7248C14.3864 21.7252 14.3928 21.7292 14.4 21.7292C14.414 21.7292 14.426 21.7224 14.4396 21.7212C15.0848 21.6808 15.7368 21.6248 16.3784 21.552C16.386 21.552 16.3924 21.556 16.4 21.556C16.426 21.556 16.4484 21.546 16.4728 21.5412C19.8012 21.1556 22.7964 20.3292 22.8 18.9984V16.2H22.7936C22.7656 15.7096 22.3476 15.3004 21.522 14.9584C21.5724 14.8428 21.6 14.7228 21.6 14.5984V11.984C23.036 11.5424 23.998 10.9516 24 10.1984V7.40002H23.9956ZM20.7568 14.7284L20.6204 14.848C20.4104 15.0332 20.0604 15.22 19.6 15.4V13.4928C20.0756 13.3272 20.4804 13.1436 20.8 12.9424V14.5976C20.8 14.6388 20.7848 14.6828 20.7568 14.7284ZM11.8104 16.5872C11.752 16.5888 11.6932 16.5896 11.6344 16.5908C11.4916 16.5936 11.3452 16.5944 11.2004 16.5956V14.5976C11.3104 14.5964 11.4204 14.5948 11.5304 14.5928C11.5516 14.5924 11.5728 14.592 11.594 14.5916C11.9968 14.584 12.3996 14.5716 12.8004 14.5532V16.5504C12.7148 16.5548 12.6288 16.5588 12.542 16.5624C12.3012 16.5732 12.058 16.5812 11.8104 16.5872ZM10.0636 16.5928C9.88039 16.5896 9.69799 16.5852 9.51679 16.5796C9.49439 16.5788 9.47199 16.578 9.44959 16.5772C9.2316 16.57 9.01519 16.5608 8.8004 16.5504V14.5536C9.20119 14.5724 9.60399 14.5848 10.0068 14.592C10.028 14.5924 10.0492 14.5928 10.07 14.5932C10.18 14.5952 10.29 14.5968 10.4 14.598V16.5972C10.3224 16.5964 10.2448 16.5964 10.1676 16.5952C10.1324 16.5944 10.0984 16.5932 10.0636 16.5928ZM2.8388 15.6808C2.8256 15.6768 2.8132 15.6732 2.8 15.6696V13.7372C3.1736 13.838 3.5752 13.93 4 14.0136V15.966C3.6328 15.888 3.294 15.806 2.9856 15.722C2.9368 15.708 2.8864 15.6948 2.8388 15.6808ZM11.27 18.9932C11.38 18.9952 11.49 18.9968 11.6 18.998V20.9976C11.0472 20.9924 10.5136 20.9764 9.99999 20.9512V18.954C10.4008 18.9728 10.8036 18.9852 11.2064 18.9924C11.2276 18.9924 11.2488 18.9928 11.27 18.9932ZM12.7936 18.992C13.1964 18.9844 13.5992 18.972 14 18.9536V20.9508C13.4864 20.976 12.9528 20.992 12.4 20.9972V18.9976C12.51 18.9964 12.62 18.9948 12.73 18.9928C12.7512 18.9928 12.7724 18.9924 12.7936 18.992ZM16 18.8112V20.7976C15.6156 20.838 15.2156 20.8736 14.8 20.9028V18.908C15.2056 18.8816 15.6064 18.8492 16 18.8112ZM16.8 18.7248C17.2124 18.6752 17.6128 18.6188 18 18.556V20.52C17.6232 20.5864 17.2228 20.6476 16.8 20.7032V18.7248ZM18.8 18.4132C19.2248 18.3296 19.6264 18.2376 20 18.1368V20.0692C19.6436 20.172 19.2424 20.2716 18.8 20.3656V18.4132ZM5.2 18.4132V20.3656C4.7576 20.2716 4.3564 20.172 4 20.0692V18.1368C4.3736 18.2376 4.7752 18.33 5.2 18.4132ZM6 18.5564C6.3872 18.6192 6.7876 18.6756 7.2 18.7252V20.7036C6.7772 20.648 6.3768 20.5868 6 20.5204V18.5564ZM8 18.8112C8.39359 18.8492 8.79439 18.8816 9.2 18.9084V20.9032C8.7844 20.874 8.3844 20.8384 8 20.798V18.8112ZM7.0076 16.4192C6.9668 16.4152 6.9264 16.4108 6.886 16.4068C6.8572 16.404 6.8288 16.4004 6.8 16.3976V14.4116C7.1936 14.4496 7.5944 14.482 8 14.5088V16.502C7.664 16.478 7.332 16.4508 7.0076 16.4192ZM6 14.3248V16.3032C5.5772 16.2476 5.1768 16.1864 4.8 16.12V14.156C5.1872 14.2188 5.5876 14.2756 6 14.3248ZM13.8664 16.4832C13.7784 16.49 13.6896 16.4968 13.6 16.5032V14.5084C14.0056 14.4816 14.4064 14.4496 14.8 14.4112V16.3976C14.5528 16.4236 14.3 16.448 14.0404 16.4692C13.9824 16.4744 13.9244 16.4788 13.8664 16.4832ZM15.6 16.3032V14.3248C16.0124 14.2752 16.4128 14.2188 16.8 14.156V16.12C16.4232 16.1864 16.0228 16.248 15.6 16.3032ZM17.6 14.0132C18.0248 13.9296 18.4264 13.8376 18.8 13.7368V15.6692C18.4436 15.772 18.0424 15.8716 17.6 15.9656V14.0132ZM12.13 12.186C11.8292 12.1784 11.5352 12.1668 11.2464 12.1528C11.2308 12.152 11.2152 12.1512 11.2 12.1508V10.1536C11.6008 10.1724 12.0036 10.1848 12.4064 10.192C12.4276 10.1924 12.4488 10.1928 12.4696 10.1932C12.5796 10.1952 12.6896 10.1968 12.7996 10.198V12.1952C12.6048 12.1932 12.4084 12.1924 12.2184 12.188C12.1892 12.1872 12.1592 12.1868 12.13 12.186ZM2.8 6.46962V4.53721C3.1736 4.63801 3.5752 4.73001 4 4.81361V6.76602C3.9508 6.75562 3.9 6.74522 3.852 6.73482C3.6392 6.68802 3.4316 6.63922 3.2332 6.58762C3.082 6.54882 2.9384 6.50922 2.8 6.46962ZM10.07 5.39321C10.18 5.39522 10.29 5.39681 10.4 5.39802V7.39522C9.86159 7.39002 9.3264 7.37602 8.79999 7.34962V5.35401C9.20079 5.37282 9.60359 5.38521 10.0064 5.39242C10.0276 5.39242 10.0488 5.39282 10.07 5.39321ZM11.5936 5.39201C11.9964 5.38441 12.3992 5.37201 12.8 5.35361V7.34922C12.732 7.35242 12.6668 7.35722 12.5984 7.36042C12.5928 7.36082 12.5872 7.36082 12.5812 7.36122C12.3128 7.37322 12.0392 7.38202 11.762 7.38842C11.7188 7.38962 11.6756 7.39002 11.6324 7.39122C11.49 7.39402 11.3444 7.39442 11.2 7.39602V5.39802C11.31 5.39681 11.42 5.39522 11.53 5.39321C11.5512 5.39282 11.5724 5.39242 11.5936 5.39201ZM20.7084 5.59282L20.6972 5.59042L20.5516 5.70362C20.3404 5.86802 20.016 6.03442 19.6 6.19522V4.29241C20.0756 4.12681 20.4804 3.94321 20.8 3.74201V5.39721C20.8 5.45801 20.768 5.52362 20.7084 5.59282ZM15.6 7.10082V5.12481C16.0124 5.07521 16.4128 5.01882 16.8 4.95602V6.91682C16.4208 6.98402 16.0216 7.04562 15.6 7.10082ZM17.6 6.76282V4.81361C18.0248 4.73001 18.4264 4.63801 18.8 4.53721V6.46522C18.4416 6.56962 18.038 6.66922 17.6 6.76282ZM14.8 5.21122V7.19522C14.4136 7.23602 14.0136 7.27162 13.6 7.30122V5.30841C14.0056 5.28161 14.4064 5.24921 14.8 5.21122ZM6.8 7.19602V5.21122C7.1936 5.24921 7.5944 5.28161 8 5.30841V7.29962C7.5928 7.27042 7.1912 7.23722 6.8 7.19602ZM6 5.12481V7.10122C5.9208 7.09082 5.8384 7.08242 5.76 7.07162C5.7088 7.06442 5.66 7.05682 5.6096 7.04962C5.3784 7.01642 5.1524 6.98082 4.9308 6.94362C4.8864 6.93602 4.8436 6.92802 4.8 6.92042V4.95641C5.1872 5.01881 5.5876 5.07561 6 5.12481ZM10.3008 12.0956C10.2468 12.0916 10.1924 12.0876 10.1388 12.0836C9.88279 12.0636 9.63279 12.0416 9.38879 12.0172C9.33639 12.012 9.28399 12.0064 9.23199 12.0012C9.22119 12 9.21079 11.9984 9.2 11.9976V10.0112C9.59359 10.0492 9.99439 10.0816 10.4 10.1084V12.102C10.3676 12.0996 10.3332 12.098 10.3008 12.0956ZM7.658 11.7968C7.4996 11.7716 7.3508 11.7444 7.2 11.718V9.75642C7.5872 9.81922 7.9876 9.87562 8.39999 9.92522V11.9036C8.1552 11.8712 7.9156 11.8376 7.6856 11.8016C7.6764 11.7996 7.6672 11.798 7.658 11.7968ZM6.4 9.61322V11.5624C5.958 11.4676 5.5572 11.3668 5.2 11.262V9.33682C5.5736 9.43762 5.9752 9.53002 6.4 9.61322ZM4.4 9.09242V10.9928C3.7712 10.75 3.3656 10.502 3.2336 10.2812L3.2068 10.2364C3.2044 10.224 3.2004 10.2108 3.2 10.1984V8.54202C3.5196 8.74322 3.9244 8.92682 4.4 9.09242ZM13.9936 10.192C14.3964 10.1844 14.7992 10.172 15.2 10.1536V12.1488C14.6744 12.1748 14.14 12.1892 13.6 12.1948V10.198C13.71 10.1968 13.82 10.1952 13.93 10.1932C13.9512 10.1928 13.9724 10.1924 13.9936 10.192ZM19.1628 11.7268C18.9872 11.7572 18.81 11.7872 18.628 11.8148C18.5236 11.8308 18.4168 11.846 18.3096 11.8612C18.2084 11.8756 18.1032 11.888 18.0004 11.9012V9.92482C18.4128 9.87522 18.8132 9.81882 19.2004 9.75602V11.72C19.1876 11.7224 19.1752 11.7248 19.1628 11.7268ZM16.4544 12.0684C16.3052 12.0808 16.1512 12.0888 16 12.0996V10.1084C16.4056 10.0816 16.8064 10.0496 17.2 10.0112V11.9956C16.9676 12.02 16.7356 12.0444 16.4968 12.0644C16.4824 12.0656 16.4688 12.0672 16.4544 12.0684ZM21.0256 11.3184C20.8264 11.374 20.6156 11.426 20.4004 11.4768C20.3008 11.5 20.1992 11.5232 20.0952 11.5456C20.0644 11.5524 20.0316 11.5584 20.0004 11.5652V9.61362C20.4252 9.53002 20.8268 9.43802 21.2004 9.33722V11.2696C21.1428 11.2856 21.0848 11.302 21.0256 11.3184ZM23.1956 7.42602C23.1588 7.69762 22.5432 8.05882 21.4444 8.39842C20.0292 8.83562 17.8148 9.23602 15.0084 9.36002C14.8648 9.36602 14.7216 9.37202 14.5752 9.37682C14.4556 9.38082 14.3356 9.38442 14.2136 9.38762C13.8824 9.39482 13.5464 9.40002 13.2 9.40002C12.8536 9.40002 12.5176 9.39482 12.1864 9.38722C12.0648 9.38442 11.9448 9.38042 11.8248 9.37642C11.678 9.37202 11.5348 9.36562 11.3916 9.35962C8.5852 9.23562 6.3704 8.83522 4.9556 8.39802C3.8656 8.06122 3.2512 7.70282 3.2056 7.43242C3.2076 7.42482 3.2076 7.41842 3.2124 7.40882C3.2396 7.41562 3.27 7.42122 3.2976 7.42802C3.454 7.46522 3.6144 7.50122 3.7776 7.53562C4.5724 7.70682 5.4532 7.84722 6.3916 7.95442C6.3948 7.95442 6.3972 7.95602 6.4 7.95602C6.4008 7.95602 6.4016 7.95562 6.402 7.95562C7.0412 8.02842 7.7044 8.08562 8.38519 8.12602C8.3904 8.12602 8.3948 8.12882 8.39999 8.12882C8.40279 8.12882 8.40479 8.12722 8.40759 8.12722C8.89759 8.15602 9.39399 8.17722 9.89639 8.18842C10.204 8.19602 10.506 8.20002 10.8 8.20002C11.01 8.20002 11.2252 8.19762 11.4424 8.19362C14.3488 8.14882 17.0424 7.80322 18.9168 7.26762C19.0032 7.24322 19.0876 7.21802 19.1708 7.19282C19.2216 7.17722 19.2736 7.16202 19.3228 7.14642C19.4676 7.10002 19.6064 7.05242 19.7404 7.00282C19.7636 6.99402 19.7856 6.98522 19.8088 6.97642C19.922 6.93362 20.0308 6.88922 20.1348 6.84402C20.1648 6.83082 20.1956 6.81802 20.2248 6.80482C20.3356 6.75482 20.4428 6.70362 20.542 6.65042C20.5868 6.62682 20.6256 6.60242 20.6676 6.57842C20.7156 6.55082 20.7636 6.52282 20.808 6.49442C20.8332 6.47842 20.8632 6.46322 20.8872 6.44722C22.678 6.83562 23.15 7.26042 23.1956 7.42602ZM10.8 1.00001C17.3956 1.00001 20.7316 2.03841 20.794 2.63441C20.7456 2.90481 20.1316 3.26201 19.0444 3.59801C17.6292 4.03521 15.4148 4.43561 12.6084 4.55961C12.4648 4.56561 12.3216 4.57161 12.1752 4.57641C12.0556 4.58041 11.9356 4.58401 11.8136 4.58721C11.4824 4.59481 11.1464 4.60001 10.8 4.60001C10.4536 4.60001 10.1176 4.59481 9.78639 4.58721C9.66479 4.58441 9.5448 4.58041 9.42479 4.57641C9.278 4.57201 9.1348 4.56561 8.9916 4.55961C6.1852 4.43561 3.9704 4.03521 2.5556 3.59801C1.468 3.26201 0.8544 2.90481 0.806 2.63441C0.8684 2.03841 4.2044 1.00001 10.8 1.00001ZM0.8 5.39842V3.74201C1.1196 3.94321 1.5244 4.12681 2 4.29241V6.20761C1.222 5.91602 0.8008 5.62362 0.8 5.39842ZM2.7376 10.934C2.7436 10.9404 2.7528 10.946 2.7588 10.9524C3.3064 11.5052 4.4404 11.9396 5.852 12.2636C5.8844 12.2712 5.9188 12.2784 5.9516 12.286C6.0552 12.3092 6.1604 12.332 6.2668 12.354C7.5632 12.63 9.1108 12.8296 10.7968 12.9284C10.798 12.9284 10.7988 12.9288 10.7996 12.9288C10.8004 12.9288 10.8008 12.9284 10.8012 12.9284C11.3428 12.96 11.8968 12.982 12.4624 12.9916C12.7128 12.9968 12.9592 13 13.2 13C13.476 13 13.7592 12.9968 14.0472 12.99C14.5704 12.9792 15.086 12.9576 15.5944 12.928C15.5964 12.928 15.598 12.9292 15.6 12.9292C15.6036 12.9292 15.6064 12.9272 15.61 12.9272C17.3004 12.8276 18.8864 12.626 20.2276 12.336C19.9372 12.488 19.5396 12.6452 19.0444 12.7984C17.5504 13.26 15.1644 13.6804 12.132 13.778C12.042 13.7808 11.9532 13.784 11.862 13.7864C11.764 13.7888 11.6644 13.7904 11.5648 13.7924C11.3132 13.7964 11.06 13.8 10.8 13.8C10.4536 13.8 10.1176 13.7948 9.78639 13.7872C9.66479 13.7844 9.5448 13.7804 9.42479 13.7764C9.278 13.772 9.1348 13.7656 8.9916 13.7596C6.1852 13.6356 3.9704 13.2352 2.5556 12.798C1.4556 12.458 0.839999 12.0964 0.804399 11.8248C0.848799 11.6744 1.2532 11.298 2.7376 10.934ZM0.8 14.5984V12.942C1.1196 13.1432 1.5244 13.3268 2 13.4924V15.4L1.7716 15.3112L1.7668 15.316C1.1388 15.0556 0.8008 14.8 0.8 14.5984ZM2 18.9984V17.342C2.3196 17.5432 2.7244 17.7268 3.2 17.8924V19.8076C2.422 19.516 2.0008 19.2236 2 18.9984ZM20.8 19.8076V17.8928C21.2756 17.7272 21.6804 17.5436 22 17.3424V18.9976C21.9996 19.2228 21.578 19.5156 20.8 19.8076ZM21.9948 16.2308C21.9512 16.5016 21.3368 16.8608 20.2444 17.1984C18.8292 17.6356 16.6148 18.036 13.8084 18.16C13.6648 18.166 13.5216 18.172 13.3752 18.1768C13.2556 18.1808 13.1356 18.1844 13.0136 18.1876C12.6824 18.1948 12.3464 18.2 12 18.2C11.6536 18.2 11.3172 18.1948 10.9856 18.1872C10.8652 18.1844 10.7464 18.1804 10.6276 18.1764C10.48 18.1716 10.336 18.1656 10.1916 18.1596C7.3852 18.0356 5.1708 17.6352 3.7556 17.198C2.6976 16.8712 2.0864 16.524 2.0096 16.256C2.1288 16.2976 2.2524 16.338 2.3792 16.3776C2.392 16.3816 2.4048 16.3856 2.4176 16.3892C2.5256 16.4224 2.636 16.4544 2.7492 16.4856C2.792 16.4976 2.8352 16.5096 2.8788 16.5212C2.9428 16.5384 3.0084 16.5548 3.074 16.5716C4.5308 16.9448 6.3904 17.2092 8.39799 17.328C8.3988 17.328 8.39919 17.3284 8.39999 17.3284C8.4004 17.3284 8.40079 17.328 8.4012 17.328C9.02119 17.3648 9.65439 17.3876 10.2944 17.3952C10.4648 17.3984 10.634 17.4 10.8 17.4C11.0204 17.4 11.246 17.3972 11.4744 17.3932C12.058 17.3836 12.634 17.362 13.1972 17.3284C13.1984 17.3284 13.1992 17.3292 13.2004 17.3292C13.2024 17.3292 13.2036 17.328 13.2056 17.328C13.8916 17.2868 14.5556 17.228 15.1936 17.1548C15.196 17.1548 15.198 17.156 15.2004 17.156C15.2092 17.156 15.2164 17.1516 15.2252 17.1508C15.9356 17.0688 16.6092 16.968 17.2344 16.8508C17.3632 16.8272 17.49 16.8028 17.6156 16.7776C17.6436 16.772 17.6716 16.7664 17.6996 16.7604C18.8808 16.518 19.9032 16.204 20.6048 15.8148C20.6432 15.794 20.6792 15.7724 20.7156 15.7512C20.76 15.7248 20.8024 15.698 20.8436 15.6708C20.882 15.646 20.9264 15.622 20.9616 15.5968C21.7512 15.8784 21.9688 16.1304 21.9948 16.2308ZM22 11.0076V9.09282C22.4756 8.92722 22.8804 8.74362 23.2 8.54242V10.1976C23.1996 10.4228 22.778 10.7156 22 11.0076Z" fill="#AAC1D6"/>
</svg>
