<svg width="7" height="7" viewBox="0 0 7 7" fill="none" xmlns="http://www.w3.org/2000/svg">
<path d="M0.679908 5.61589C0.467769 5.79267 0.439107 6.10795 0.615889 6.32009C0.792671 6.53223 1.10795 6.56089 1.32009 6.38411L0.679908 5.61589ZM1.32009 0.61589C1.10795 0.439107 0.792671 0.467769 0.615889 0.679908C0.439107 0.892046 0.467769 1.20733 0.679908 1.38411L1.32009 0.61589ZM3.07814 4.26822L3.39823 4.65233L3.07814 4.26822ZM1.32009 6.38411L3.39823 4.65233L2.75804 3.88411L0.679908 5.61589L1.32009 6.38411ZM3.39823 2.34767L1.32009 0.61589L0.679908 1.38411L2.75804 3.11589L3.39823 2.34767ZM3.39823 4.65233C4.11786 4.05264 4.11786 2.94736 3.39823 2.34767L2.75804 3.11589C2.99792 3.31579 2.99792 3.68421 2.75804 3.88411L3.39823 4.65233Z" />
<path d="M3.67991 5.61589C3.46777 5.79267 3.43911 6.10795 3.61589 6.32009C3.79267 6.53223 4.10795 6.56089 4.32009 6.38411L3.67991 5.61589ZM4.32009 0.61589C4.10795 0.439107 3.79267 0.467769 3.61589 0.679908C3.43911 0.892046 3.46777 1.20733 3.67991 1.38411L4.32009 0.61589ZM6.07814 4.26822L6.39823 4.65233L6.07814 4.26822ZM4.32009 6.38411L6.39823 4.65233L5.75804 3.88411L3.67991 5.61589L4.32009 6.38411ZM6.39823 2.34767L4.32009 0.61589L3.67991 1.38411L5.75804 3.11589L6.39823 2.34767ZM6.39823 4.65233C7.11786 4.05264 7.11786 2.94736 6.39823 2.34767L5.75804 3.11589C5.99792 3.31579 5.99792 3.68421 5.75804 3.88411L6.39823 4.65233Z" />
</svg>
