<svg width="23" height="23" viewBox="0 0 23 23" fill="none" xmlns="http://www.w3.org/2000/svg">
<path d="M11.5 0C5.15901 0 0 5.15866 0 11.5C0 17.8413 5.15866 23 11.5 23C17.8413 23 23 17.8413 23 11.5C23 5.15866 17.841 0 11.5 0ZM2.10629 11.5C2.10629 6.32028 6.32028 2.10629 11.5 2.10629C13.8338 2.10629 15.9703 2.9639 17.6149 4.37828L4.37828 17.6149C2.9639 15.9703 2.10629 13.8338 2.10629 11.5ZM11.5 20.8937C9.41196 20.8937 7.48155 20.2081 5.92008 19.0514L19.0511 5.92043C20.2078 7.4819 20.8934 9.41231 20.8934 11.5003C20.8937 16.6797 16.6797 20.8937 11.5 20.8937Z" fill="white"/>
</svg>
