<svg width="16" height="18" viewBox="0 0 16 18" fill="none" xmlns="http://www.w3.org/2000/svg">
<path d="M15.3027 9.42383C15.6309 8.99023 15.8125 8.45899 15.8125 7.90625C15.8125 7.0293 15.3223 6.19922 14.5332 5.73633C14.3301 5.61718 14.0988 5.55447 13.8633 5.55469H9.17969L9.29688 3.15431C9.32422 2.57423 9.11914 2.02345 8.7207 1.60353C8.52517 1.39655 8.28926 1.23188 8.02757 1.11967C7.76588 1.00747 7.48395 0.950127 7.19922 0.951186C6.18359 0.951186 5.28516 1.63478 5.01562 2.61329L3.33789 8.6875H3.33203V17.0469H12.5566C12.7363 17.0469 12.9121 17.0117 13.0742 16.9414C14.0039 16.5449 14.6035 15.6367 14.6035 14.6289C14.6035 14.3828 14.5684 14.1406 14.498 13.9062C14.8262 13.4726 15.0078 12.9414 15.0078 12.3887C15.0078 12.1426 14.9727 11.9004 14.9023 11.666C15.2305 11.2324 15.4121 10.7012 15.4121 10.1484C15.4082 9.90234 15.373 9.6582 15.3027 9.42383ZM0.1875 9.3125V16.4219C0.1875 16.7676 0.466797 17.0469 0.8125 17.0469H2.08203V8.6875H0.8125C0.466797 8.6875 0.1875 8.9668 0.1875 9.3125Z" fill="#AAC1D6"/>
</svg>
