<svg width="15" height="13" viewBox="0 0 15 13" fill="none" xmlns="http://www.w3.org/2000/svg">
<path d="M13.6068 4.33247H12.0004V1.75717C12.0004 0.879491 11.2864 0.165451 10.4087 0.165451H1.59146C0.71394 0.165451 0 0.879491 0 1.75717V6.5758C0 7.45343 0.71394 8.16747 1.59146 8.16747H2.7497V9.83358C2.7497 10.0362 2.87167 10.2187 3.05884 10.2962C3.12081 10.3219 3.18586 10.3343 3.25035 10.3343C3.38066 10.3343 3.50879 10.2834 3.60455 10.1876L4.99945 8.79242V9.66833C4.99945 10.4367 5.62445 11.0618 6.39273 11.0618H10.2696L11.8954 12.6878C11.9912 12.7837 12.1193 12.8345 12.2496 12.8345C12.3141 12.8345 12.3791 12.8221 12.4411 12.7964C12.6283 12.7189 12.7503 12.5364 12.7503 12.3338V11.0618H13.6069C14.3751 11.0618 15.0001 10.4367 15.0001 9.66833V5.72585C15 4.95752 14.3751 4.33247 13.6068 4.33247ZM3.25035 7.16595H1.59146C1.26621 7.16595 1.00152 6.90121 1.00152 6.57585V1.75717C1.00152 1.43176 1.26616 1.16697 1.59146 1.16697H10.4088C10.7341 1.16697 10.9989 1.43171 10.9989 1.75717V6.5758C10.9989 6.90116 10.7342 7.1659 10.4088 7.1659H5.41682C5.28404 7.1659 5.15667 7.21868 5.06268 7.31262L3.75111 8.62444V7.66666C3.75111 7.39015 3.52692 7.16595 3.25035 7.16595ZM13.9985 9.66828C13.9985 9.88434 13.8228 10.0602 13.6068 10.0602H12.2495C11.973 10.0602 11.7487 10.2844 11.7487 10.561V11.1247L10.8311 10.2069C10.7372 10.113 10.6098 10.0602 10.477 10.0602H6.39268C6.17667 10.0602 6.00091 9.88439 6.00091 9.66828V8.16742H10.4087C11.2864 8.16742 12.0004 7.45338 12.0004 6.57575V5.33393H13.6068C13.8228 5.33393 13.9985 5.50969 13.9985 5.7258V9.66828Z" fill="white"/>
</svg>
