<svg width="16" height="16" viewBox="0 0 16 16" fill="none" xmlns="http://www.w3.org/2000/svg">
<path d="M10.8438 5.6875C10.6857 5.6875 10.5294 5.69506 10.375 5.70903V2.8125C10.375 1.99966 9.79537 1.26219 8.74294 0.735969C7.79375 0.261375 6.54219 0 5.21875 0C3.89262 0 2.63103 0.260844 1.66634 0.734438C0.591813 1.26203 0 2 0 2.8125V11.3125C0 12.125 0.591813 12.863 1.66634 13.3906C2.63103 13.8642 3.89262 14.125 5.21875 14.125C5.75028 14.125 6.27022 14.0826 6.76922 13.9999C7.71331 15.2159 9.18859 16 10.8438 16C13.6869 16 16 13.6869 16 10.8438C16 8.00059 13.6869 5.6875 10.8438 5.6875ZM2.07953 1.576C2.906 1.17022 4.05019 0.9375 5.21875 0.9375C7.70494 0.9375 9.4375 1.92566 9.4375 2.8125C9.4375 3.69934 7.70494 4.6875 5.21875 4.6875C4.05019 4.6875 2.906 4.45478 2.07953 4.049C1.35375 3.69269 0.9375 3.242 0.9375 2.8125C0.9375 2.383 1.35375 1.93231 2.07953 1.576ZM0.9375 4.44578C1.14762 4.60631 1.391 4.75538 1.66634 4.89056C2.63103 5.36416 3.89262 5.625 5.21875 5.625C6.54219 5.625 7.79375 5.36363 8.74294 4.88903C9.00416 4.75841 9.23616 4.61478 9.4375 4.46022V5.88241C8.50325 6.14756 7.67628 6.67019 7.03819 7.36828C6.46706 7.49713 5.85581 7.5625 5.21875 7.5625C4.05019 7.5625 2.906 7.32978 2.07953 6.924C1.35375 6.56769 0.9375 6.117 0.9375 5.6875V4.44578ZM0.9375 7.32078C1.14762 7.48131 1.391 7.63038 1.66634 7.76556C2.63103 8.23916 3.89262 8.5 5.21875 8.5C5.58066 8.5 5.93569 8.48059 6.28191 8.44253C5.97391 9.02534 5.77434 9.67381 5.71025 10.3611C5.54741 10.3701 5.38322 10.375 5.21875 10.375C4.05019 10.375 2.906 10.1423 2.07953 9.7365C1.35375 9.38019 0.9375 8.9295 0.9375 8.5V7.32078ZM5.21875 13.1875C4.05019 13.1875 2.906 12.9548 2.07953 12.549C1.35375 12.1927 0.9375 11.742 0.9375 11.3125V10.1333C1.14762 10.2938 1.391 10.4428 1.66634 10.578C2.63103 11.0517 3.89262 11.3125 5.21875 11.3125C5.38219 11.3125 5.54559 11.3084 5.70794 11.3004C5.76544 11.9525 5.94478 12.5701 6.22312 13.1303C5.89625 13.168 5.56053 13.1875 5.21875 13.1875ZM10.8438 15.0625C8.51753 15.0625 6.625 13.17 6.625 10.8438C6.625 8.51753 8.51753 6.625 10.8438 6.625C13.17 6.625 15.0625 8.51753 15.0625 10.8438C15.0625 13.17 13.17 15.0625 10.8438 15.0625Z" fill="url(#paint0_linear_311_4161)"/>
<path d="M12.1031 11C12.4453 10.7548 12.666 10.3723 12.666 9.94297C12.666 9.2925 12.1597 8.74912 11.4912 8.62898V8.28195C11.4912 8.12624 11.3541 8 11.1851 8C11.0161 8 10.879 8.12624 10.879 8.28195V8.604H10.6387H9.85194V8.28195C9.85194 8.12624 9.71489 8 9.54585 8C9.37681 8 9.23976 8.12624 9.23976 8.28195V8.604H8.9721C8.80306 8.604 8.66602 8.73024 8.66602 8.88596C8.66602 9.04167 8.80306 9.16791 8.9721 9.16791H9.23976V11V12.8321H8.9721C8.80306 12.8321 8.66602 12.9583 8.66602 13.114C8.66602 13.2698 8.80306 13.396 8.9721 13.396H9.23976V13.718C9.23976 13.8738 9.37681 14 9.54585 14C9.71489 14 9.85194 13.8738 9.85194 13.718V13.396H10.6387H10.879V13.718C10.879 13.8738 11.0161 14 11.1851 14C11.3541 14 11.4912 13.8738 11.4912 13.718V13.371C12.1598 13.2509 12.666 12.7075 12.666 12.057C12.666 11.6277 12.4453 11.2452 12.1031 11ZM9.85192 10.718V9.16791H10.6387H11.2124C11.6764 9.16791 12.0538 9.5156 12.0538 9.94295C12.0538 10.3703 11.6764 10.718 11.2124 10.718H9.85192V10.718ZM11.2125 12.8321H10.6387H9.85194V11.282H11.2125C11.6764 11.282 12.0538 11.6296 12.0538 12.057C12.0538 12.4844 11.6764 12.8321 11.2125 12.8321Z" fill="url(#paint1_linear_311_4161)"/>
<defs>
<linearGradient id="paint0_linear_311_4161" x1="0.63668" y1="3.92986" x2="15.6645" y2="3.24022" gradientUnits="userSpaceOnUse">
<stop stop-color="#EF8E2E"/>
<stop offset="1" stop-color="#FEA532"/>
</linearGradient>
<linearGradient id="paint1_linear_311_4161" x1="8.82519" y1="9.4737" x2="12.5865" y2="9.35862" gradientUnits="userSpaceOnUse">
<stop stop-color="#EF8E2E"/>
<stop offset="1" stop-color="#FEA532"/>
</linearGradient>
</defs>
</svg>
