<svg width="16" height="18" viewBox="0 0 16 18" fill="none" xmlns="http://www.w3.org/2000/svg">
<path d="M15.3027 8.57617C15.6309 9.00977 15.8125 9.54101 15.8125 10.0937C15.8125 10.9707 15.3223 11.8008 14.5332 12.2637C14.3301 12.3828 14.0988 12.4455 13.8633 12.4453H9.17969L9.29688 14.8457C9.32422 15.4258 9.11914 15.9765 8.7207 16.3965C8.52517 16.6034 8.28926 16.7681 8.02757 16.8803C7.76588 16.9925 7.48395 17.0499 7.19922 17.0488C6.18359 17.0488 5.28516 16.3652 5.01562 15.3867L3.33789 9.3125H3.33203V0.95314H12.5566C12.7363 0.95314 12.9121 0.988297 13.0742 1.05861C14.0039 1.45509 14.6035 2.36329 14.6035 3.3711C14.6035 3.6172 14.5684 3.85938 14.498 4.09376C14.8262 4.52735 15.0078 5.0586 15.0078 5.61133C15.0078 5.85743 14.9727 6.09962 14.9023 6.33399C15.2305 6.76758 15.4121 7.29883 15.4121 7.85157C15.4082 8.09766 15.373 8.3418 15.3027 8.57617ZM0.1875 8.6875V1.57814C0.1875 1.23244 0.466797 0.95314 0.8125 0.95314H2.08203V9.3125H0.8125C0.466797 9.3125 0.1875 9.0332 0.1875 8.6875Z" fill="#AAC1D6"/>
</svg>
