<svg width="35" height="35" viewBox="0 0 35 35" fill="none" xmlns="http://www.w3.org/2000/svg">
<g filter="url(#filter0_di_1712_9627)">
<path d="M17.5 14.1504C20.7793 14.1504 23.4473 11.4825 23.4473 8.20312C23.4473 4.92379 20.7793 2.25586 17.5 2.25586C14.2207 2.25586 11.5527 4.92379 11.5527 8.20312C11.5527 11.4825 14.2207 14.1504 17.5 14.1504ZM17.5 4.30664C19.6485 4.30664 21.3965 6.05459 21.3965 8.20312C21.3965 10.3517 19.6485 12.0996 17.5 12.0996C15.3515 12.0996 13.6035 10.3517 13.6035 8.20312C13.6035 6.05459 15.3515 4.30664 17.5 4.30664Z" fill="#EF8E2E"/>
</g>
<g filter="url(#filter1_di_1712_9627)">
<path d="M29.5312 14.1504C31.6044 14.1504 33.291 12.4638 33.291 10.3906C33.291 8.31749 31.6044 6.63086 29.5312 6.63086C27.4581 6.63086 25.7715 8.31749 25.7715 10.3906C25.7715 12.4638 27.4581 14.1504 29.5312 14.1504ZM29.5312 8.68164C30.4736 8.68164 31.2402 9.44829 31.2402 10.3906C31.2402 11.333 30.4736 12.0996 29.5312 12.0996C28.5889 12.0996 27.8223 11.333 27.8223 10.3906C27.8223 9.44829 28.5889 8.68164 29.5312 8.68164Z" fill="#EF8E2E"/>
</g>
<g filter="url(#filter2_di_1712_9627)">
<path d="M30.3584 16.4746H28.7725C26.9036 16.4746 25.2903 17.5787 24.5552 19.1647C23.0416 17.5124 20.8676 16.4746 18.4556 16.4746H16.5445C14.1325 16.4746 11.9584 17.5124 10.4449 19.1647C9.7097 17.5787 8.09642 16.4746 6.22754 16.4746H4.6416C2.08223 16.4746 0 18.5443 0 21.0882V28.5537C0 29.6581 0.901934 30.5566 2.01059 30.5566H8.28099C8.38612 31.7803 9.41507 32.7441 10.6656 32.7441H24.3345C25.5849 32.7441 26.6139 31.7803 26.7191 30.5566H32.9178C34.066 30.5566 35.0001 29.6263 35.0001 28.4826V21.0882C35 18.5443 32.9178 16.4746 30.3584 16.4746ZM2.05078 21.0882C2.05078 19.6751 3.21303 18.5254 4.6416 18.5254H6.22754C7.65611 18.5254 8.81836 19.6751 8.81836 21.0882V21.7903C8.12882 23.5857 8.27148 24.6617 8.27148 28.5059H2.05078V21.0882ZM24.6777 30.3501C24.6777 30.5394 24.5238 30.6934 24.3345 30.6934H10.6655C10.4762 30.6934 10.3223 30.5393 10.3223 30.3501V24.7476C10.3223 21.3166 13.1135 18.5254 16.5444 18.5254H18.4555C21.8865 18.5254 24.6777 21.3166 24.6777 24.7475V30.3501ZM32.9492 28.4826C32.9492 28.518 33.3315 28.5059 26.7285 28.5059C26.7285 24.6332 26.8701 23.5828 26.1816 21.7903V21.0882C26.1816 19.6751 27.3439 18.5254 28.7725 18.5254H30.3584C31.787 18.5254 32.9492 19.6751 32.9492 21.0882V28.4826Z" fill="#EF8E2E"/>
</g>
<g filter="url(#filter3_di_1712_9627)">
<path d="M5.46875 14.1504C7.54188 14.1504 9.22852 12.4638 9.22852 10.3906C9.22852 8.31749 7.54188 6.63086 5.46875 6.63086C3.39562 6.63086 1.70898 8.31749 1.70898 10.3906C1.70898 12.4638 3.39562 14.1504 5.46875 14.1504ZM5.46875 8.68164C6.41108 8.68164 7.17773 9.44829 7.17773 10.3906C7.17773 11.333 6.41108 12.0996 5.46875 12.0996C4.52642 12.0996 3.75977 11.333 3.75977 10.3906C3.75977 9.44829 4.52642 8.68164 5.46875 8.68164Z" fill="#EF8E2E"/>
</g>
<defs>
<filter id="filter0_di_1712_9627" x="8.55273" y="0.255859" width="17.8945" height="17.8945" filterUnits="userSpaceOnUse" color-interpolation-filters="sRGB">
<feFlood flood-opacity="0" result="BackgroundImageFix"/>
<feColorMatrix in="SourceAlpha" type="matrix" values="0 0 0 0 0 0 0 0 0 0 0 0 0 0 0 0 0 0 127 0" result="hardAlpha"/>
<feOffset dy="1"/>
<feGaussianBlur stdDeviation="1.5"/>
<feComposite in2="hardAlpha" operator="out"/>
<feColorMatrix type="matrix" values="0 0 0 0 0 0 0 0 0 0 0 0 0 0 0 0 0 0 0.71 0"/>
<feBlend mode="normal" in2="BackgroundImageFix" result="effect1_dropShadow_1712_9627"/>
<feBlend mode="normal" in="SourceGraphic" in2="effect1_dropShadow_1712_9627" result="shape"/>
<feColorMatrix in="SourceAlpha" type="matrix" values="0 0 0 0 0 0 0 0 0 0 0 0 0 0 0 0 0 0 127 0" result="hardAlpha"/>
<feOffset dy="1"/>
<feGaussianBlur stdDeviation="0.5"/>
<feComposite in2="hardAlpha" operator="arithmetic" k2="-1" k3="1"/>
<feColorMatrix type="matrix" values="0 0 0 0 1 0 0 0 0 0.828293 0 0 0 0 0.6 0 0 0 1 0"/>
<feBlend mode="normal" in2="shape" result="effect2_innerShadow_1712_9627"/>
</filter>
<filter id="filter1_di_1712_9627" x="22.7715" y="4.63086" width="13.5195" height="13.5195" filterUnits="userSpaceOnUse" color-interpolation-filters="sRGB">
<feFlood flood-opacity="0" result="BackgroundImageFix"/>
<feColorMatrix in="SourceAlpha" type="matrix" values="0 0 0 0 0 0 0 0 0 0 0 0 0 0 0 0 0 0 127 0" result="hardAlpha"/>
<feOffset dy="1"/>
<feGaussianBlur stdDeviation="1.5"/>
<feComposite in2="hardAlpha" operator="out"/>
<feColorMatrix type="matrix" values="0 0 0 0 0 0 0 0 0 0 0 0 0 0 0 0 0 0 0.71 0"/>
<feBlend mode="normal" in2="BackgroundImageFix" result="effect1_dropShadow_1712_9627"/>
<feBlend mode="normal" in="SourceGraphic" in2="effect1_dropShadow_1712_9627" result="shape"/>
<feColorMatrix in="SourceAlpha" type="matrix" values="0 0 0 0 0 0 0 0 0 0 0 0 0 0 0 0 0 0 127 0" result="hardAlpha"/>
<feOffset dy="1"/>
<feGaussianBlur stdDeviation="0.5"/>
<feComposite in2="hardAlpha" operator="arithmetic" k2="-1" k3="1"/>
<feColorMatrix type="matrix" values="0 0 0 0 1 0 0 0 0 0.828293 0 0 0 0 0.6 0 0 0 1 0"/>
<feBlend mode="normal" in2="shape" result="effect2_innerShadow_1712_9627"/>
</filter>
<filter id="filter2_di_1712_9627" x="-3" y="14.4746" width="41.0001" height="22.2695" filterUnits="userSpaceOnUse" color-interpolation-filters="sRGB">
<feFlood flood-opacity="0" result="BackgroundImageFix"/>
<feColorMatrix in="SourceAlpha" type="matrix" values="0 0 0 0 0 0 0 0 0 0 0 0 0 0 0 0 0 0 127 0" result="hardAlpha"/>
<feOffset dy="1"/>
<feGaussianBlur stdDeviation="1.5"/>
<feComposite in2="hardAlpha" operator="out"/>
<feColorMatrix type="matrix" values="0 0 0 0 0 0 0 0 0 0 0 0 0 0 0 0 0 0 0.71 0"/>
<feBlend mode="normal" in2="BackgroundImageFix" result="effect1_dropShadow_1712_9627"/>
<feBlend mode="normal" in="SourceGraphic" in2="effect1_dropShadow_1712_9627" result="shape"/>
<feColorMatrix in="SourceAlpha" type="matrix" values="0 0 0 0 0 0 0 0 0 0 0 0 0 0 0 0 0 0 127 0" result="hardAlpha"/>
<feOffset dy="1"/>
<feGaussianBlur stdDeviation="0.5"/>
<feComposite in2="hardAlpha" operator="arithmetic" k2="-1" k3="1"/>
<feColorMatrix type="matrix" values="0 0 0 0 1 0 0 0 0 0.828293 0 0 0 0 0.6 0 0 0 1 0"/>
<feBlend mode="normal" in2="shape" result="effect2_innerShadow_1712_9627"/>
</filter>
<filter id="filter3_di_1712_9627" x="-1.29102" y="4.63086" width="13.5195" height="13.5195" filterUnits="userSpaceOnUse" color-interpolation-filters="sRGB">
<feFlood flood-opacity="0" result="BackgroundImageFix"/>
<feColorMatrix in="SourceAlpha" type="matrix" values="0 0 0 0 0 0 0 0 0 0 0 0 0 0 0 0 0 0 127 0" result="hardAlpha"/>
<feOffset dy="1"/>
<feGaussianBlur stdDeviation="1.5"/>
<feComposite in2="hardAlpha" operator="out"/>
<feColorMatrix type="matrix" values="0 0 0 0 0 0 0 0 0 0 0 0 0 0 0 0 0 0 0.71 0"/>
<feBlend mode="normal" in2="BackgroundImageFix" result="effect1_dropShadow_1712_9627"/>
<feBlend mode="normal" in="SourceGraphic" in2="effect1_dropShadow_1712_9627" result="shape"/>
<feColorMatrix in="SourceAlpha" type="matrix" values="0 0 0 0 0 0 0 0 0 0 0 0 0 0 0 0 0 0 127 0" result="hardAlpha"/>
<feOffset dy="1"/>
<feGaussianBlur stdDeviation="0.5"/>
<feComposite in2="hardAlpha" operator="arithmetic" k2="-1" k3="1"/>
<feColorMatrix type="matrix" values="0 0 0 0 1 0 0 0 0 0.828293 0 0 0 0 0.6 0 0 0 1 0"/>
<feBlend mode="normal" in2="shape" result="effect2_innerShadow_1712_9627"/>
</filter>
</defs>
</svg>
