<svg width="18" height="24" viewBox="0 0 18 24" fill="none" xmlns="http://www.w3.org/2000/svg">
<path d="M4.28889 13.6397L4.44817 16.221C4.46397 16.4776 4.58439 16.7163 4.78127 16.8815C4.97931 17.0476 5.23549 17.1235 5.48955 17.0948L8.05928 16.8035C8.29806 16.7763 8.51735 16.6586 8.6718 16.4745L13.4928 10.7293C13.8255 10.3327 13.7738 9.74134 13.3772 9.40849L10.6481 7.11855C10.4577 6.95871 10.2114 6.88141 9.96381 6.90279C9.71613 6.92444 9.48719 7.04365 9.32735 7.2341L4.50644 12.9794C4.35199 13.1635 4.27408 13.3999 4.28889 13.6397ZM10.1611 9.15742L11.4538 10.2421L7.47611 14.9826L6.25886 15.1206L6.18339 13.8978L10.1611 9.15742Z" fill="#AAC1D6"/>
<path d="M16.9688 0H5.52056C5.27194 0 5.03344 0.0987656 4.85766 0.274547L0.368344 4.76381C0.192516 4.93964 0.09375 5.17809 0.09375 5.42677V23.0625C0.09375 23.5803 0.513469 24 1.03125 24H16.9688C17.4865 24 17.9062 23.5803 17.9062 23.0625V0.9375C17.9062 0.419719 17.4865 0 16.9688 0ZM16.0312 22.125H1.96875V5.81512L5.90887 1.875H16.0312V22.125Z" fill="#AAC1D6"/>
</svg>
