<svg width="12" height="10" viewBox="0 0 12 10" fill="none" xmlns="http://www.w3.org/2000/svg">
<path d="M5.30483 10C5.1549 10 5.03222 9.9563 4.9368 9.86891C4.84139 9.78152 4.79368 9.66916 4.79368 9.53183V5.99251H1.01115C0.861214 5.99251 0.738538 5.94881 0.643123 5.86142C0.547708 5.77403 0.5 5.66791 0.5 5.54307V4.3633C0.5 4.22597 0.547708 4.11361 0.643123 4.02622C0.738538 3.93883 0.861214 3.89513 1.01115 3.89513H4.79368V0.468165C4.79368 0.330837 4.84139 0.218477 4.9368 0.131087C5.03222 0.0436957 5.1549 0 5.30483 0H6.71561C6.86555 0 6.98823 0.0436957 7.08364 0.131087C7.17906 0.218477 7.22677 0.330837 7.22677 0.468165V3.89513H11.0093C11.1456 3.89513 11.2615 3.93883 11.3569 4.02622C11.4523 4.11361 11.5 4.22597 11.5 4.3633V5.54307C11.5 5.66791 11.4523 5.77403 11.3569 5.86142C11.2615 5.94881 11.1456 5.99251 11.0093 5.99251H7.22677V9.53183C7.22677 9.66916 7.17906 9.78152 7.08364 9.86891C6.98823 9.9563 6.86555 10 6.71561 10H5.30483Z" fill="white"/>
</svg>
