<svg width="14" height="14" viewBox="0 0 14 14" fill="none" xmlns="http://www.w3.org/2000/svg">
<path d="M13.0095 7.38467C13.0095 4.85737 11.5031 2.57029 9.17191 1.55812C8.86905 1.42664 8.51641 1.56394 8.38416 1.86478C8.25191 2.16559 8.3901 2.51601 8.69277 2.64745C10.5882 3.47041 11.813 5.32984 11.813 7.38467C11.813 9.01252 11.0425 10.5188 9.77931 11.4834L10.1857 9.4536C10.2501 9.13164 10.0397 8.81867 9.71566 8.75463C9.39146 8.69063 9.07667 8.89966 9.01218 9.22163L8.34571 12.5504C8.31481 12.7051 8.34687 12.8656 8.43505 12.9967C8.52319 13.1278 8.66014 13.2187 8.81572 13.2494L12.1661 13.9115C12.2055 13.9193 12.2447 13.9231 12.2834 13.9231C12.563 13.9231 12.8129 13.7274 12.8695 13.4445C12.9339 13.1225 12.7235 12.8096 12.3995 12.7456L10.5646 12.383C12.085 11.1951 13.0095 9.36266 13.0095 7.38467Z" fill="white"/>
<path d="M3.51 6.01455C3.54941 6.02232 3.58869 6.02608 3.62738 6.02608C3.90695 6.02608 4.15681 5.83036 4.21344 5.54751L4.87983 2.21869C4.94428 1.89673 4.73386 1.5838 4.40982 1.51976L1.05961 0.857641C0.735564 0.793763 0.420615 1.00271 0.356126 1.32464C0.291676 1.64664 0.502094 1.95953 0.826136 2.02361L2.66243 2.38647C1.14216 3.57558 0.21582 5.41096 0.21582 7.38467C0.21582 9.91205 1.72221 12.1991 4.05348 13.2112C4.13148 13.245 4.21272 13.2611 4.29269 13.2611C4.52321 13.2611 4.74296 13.1279 4.84119 12.9045C4.97344 12.6037 4.83528 12.2533 4.53254 12.1219C2.6371 11.2989 1.41232 9.4395 1.41232 7.38467C1.41232 5.76082 2.18368 4.25208 3.44623 3.28654L3.03999 5.31562C2.97554 5.63758 3.18596 5.95047 3.51 6.01455Z" fill="white"/>
</svg>
