<svg width="11" height="15" viewBox="0 0 11 15" fill="none" xmlns="http://www.w3.org/2000/svg">
<path fill-rule="evenodd" clip-rule="evenodd" d="M5.51046 0.471329C4.73816 0.471329 4.10384 1.10565 4.10383 1.87796C4.10383 2.11727 4.17004 2.34007 4.27714 2.53818C3.7112 2.71365 3.19385 3.00265 2.7568 3.38087C2.70823 3.42061 2.66812 3.46969 2.63884 3.52519C2.60955 3.5807 2.5917 3.64152 2.58632 3.70404C2.58094 3.76657 2.58815 3.82954 2.60753 3.88924C2.6269 3.94893 2.65805 4.00413 2.69912 4.05158C2.7402 4.09903 2.79037 4.13776 2.84667 4.16549C2.90297 4.19322 2.96425 4.20938 3.02691 4.21302C3.08956 4.21666 3.15231 4.2077 3.21144 4.18668C3.27057 4.16565 3.32488 4.13298 3.37117 4.09061C3.94916 3.59039 4.69377 3.28734 5.51046 3.28734C7.31844 3.28734 8.7978 4.76671 8.7978 6.57468V9.16695C8.79778 9.23984 8.81473 9.31173 8.84731 9.37693L9.69001 11.0577C9.85514 11.3871 9.6375 11.7363 9.26728 11.7363H1.75731C1.38704 11.7363 1.17025 11.3877 1.3355 11.0577L2.17728 9.37693C2.20986 9.31173 2.22681 9.23984 2.2268 9.16695V6.57468C2.2268 6.18893 2.29861 5.81852 2.42486 5.46881C2.44581 5.41077 2.45513 5.34917 2.45228 5.28753C2.44942 5.22589 2.43446 5.16541 2.40823 5.10955C2.382 5.0537 2.34503 5.00355 2.29943 4.96198C2.25382 4.92041 2.20048 4.88823 2.14244 4.86728C2.08439 4.84633 2.02279 4.83701 1.96115 4.83986C1.89951 4.84272 1.83903 4.85769 1.78318 4.88391C1.67037 4.93688 1.58322 5.03249 1.5409 5.14971C1.38096 5.59273 1.28782 6.07261 1.28782 6.57468V9.05599L0.495559 10.6378C0.0350304 11.5573 0.730111 12.6753 1.75731 12.6753H3.21254C3.43139 13.7436 4.38183 14.5541 5.5123 14.5541C6.64276 14.5541 7.5932 13.7436 7.81205 12.6753H9.26728C10.2945 12.6753 10.9911 11.5577 10.53 10.6378L9.73677 9.05599V6.57468C9.73677 4.68383 8.47193 3.06913 6.74837 2.53543C6.85503 2.33797 6.92168 2.11619 6.92168 1.87796C6.92167 1.10565 6.28277 0.471329 5.51046 0.471329ZM5.51046 1.40664C5.77531 1.40664 5.98178 1.61311 5.98178 1.87796C5.98179 2.14281 5.77532 2.34561 5.51046 2.34561C5.24561 2.34561 5.04281 2.14281 5.04281 1.87796C5.04281 1.61311 5.24561 1.40664 5.51046 1.40664ZM4.18911 12.6753H6.83548C6.64344 13.2237 6.12999 13.6152 5.5123 13.6152C4.8946 13.6152 4.38115 13.2237 4.18911 12.6753Z" fill="white"/>
</svg>
