<svg width="15" height="15" viewBox="0 0 15 15" fill="none" xmlns="http://www.w3.org/2000/svg">
<path d="M6.43316 12.2599H5.53516V13.215H6.43316V12.2599Z" fill="white"/>
<path d="M11.8353 0H10.1809H4.81848H3.16398C1.43873 0 0.0351562 1.40357 0.0351562 3.12883V11.8712C0.0351562 13.5964 1.43873 15 3.16398 15H5.39209H9.72617H11.8353C13.5605 15 14.9641 13.5964 14.9641 11.8712V3.12883C14.9642 1.40357 13.5606 0 11.8353 0ZM10.1809 1.14615C10.7293 1.14615 11.1754 1.5107 11.1754 1.95876V6.66026C11.1754 7.10836 10.7292 7.47291 10.1809 7.47291H4.81848C4.27009 7.47291 3.82397 7.10836 3.82397 6.66026V1.95876C3.82397 1.5107 4.27013 1.14615 4.81848 1.14615H10.1809ZM5.39213 13.8539C5.15301 13.8539 4.95843 13.6593 4.95843 13.4202V12.2715C4.95843 12.0324 5.15301 11.8379 5.39213 11.8379H9.72621C9.96533 11.8379 10.1599 12.0324 10.1599 12.2715V13.4202C10.1599 13.6593 9.96533 13.8539 9.72621 13.8539H5.39213ZM13.818 11.8712C13.818 12.9644 12.9286 13.8539 11.8353 13.8539H11.245C11.2844 13.7159 11.306 13.5706 11.306 13.4202V12.2715C11.306 11.4004 10.5973 10.6917 9.72621 10.6917H5.39213C4.52098 10.6917 3.81228 11.4004 3.81228 12.2715V13.4202C3.81228 13.5706 3.83387 13.716 3.87329 13.8539H3.16398C2.07071 13.8539 1.1813 12.9644 1.1813 11.8712V3.12883C1.1813 2.13894 1.91052 1.31623 2.85995 1.16949C2.74319 1.4111 2.67783 1.678 2.67783 1.95876V6.66026C2.67783 7.74035 3.63814 8.61906 4.81848 8.61906H10.1809C11.3613 8.61906 12.3215 7.74035 12.3215 6.66026V1.95876C12.3215 1.67803 12.2561 1.41114 12.1394 1.16949C13.0888 1.31623 13.818 2.13894 13.818 3.12883V11.8712Z" fill="white"/>
</svg>
