<svg width="24" height="24" viewBox="0 0 24 24" fill="none" xmlns="http://www.w3.org/2000/svg">
<path d="M20.8447 0.596567C20.6722 0.495317 20.4584 0.495317 20.2822 0.596567C20.2484 0.615317 20.2184 0.637817 20.1922 0.664067V0.667817H20.1884C20.1584 0.694067 20.1359 0.716567 20.1172 0.746567C20.0422 0.840317 20.0047 0.960317 20.0047 1.08407V4.79657L18.0584 5.92157L16.1122 4.79657L16.1084 1.74407V1.64657V1.08032C16.1084 0.896567 16.0147 0.720317 15.8609 0.619067C15.8497 0.611567 15.8384 0.604067 15.8272 0.596567C15.7409 0.544067 15.6434 0.521567 15.5459 0.521567H4.53594C2.21844 0.521567 0.335938 2.40782 0.335938 4.72157V14.4228C0.335938 16.7403 2.21844 18.6228 4.53594 18.6228H5.18469V21.6978C5.18469 22.4291 5.61969 23.0741 6.29094 23.3478C6.51219 23.4378 6.74094 23.4791 6.96219 23.4791C7.42344 23.4791 7.86969 23.2953 8.20719 22.9466L12.5534 18.6228H15.2609C15.2684 18.6566 15.2722 18.6866 15.2797 18.7203C15.3959 19.2753 15.6697 19.7853 16.0747 20.1941C16.6297 20.7453 17.3684 21.0528 18.1597 21.0566H18.1634C18.9472 21.0566 19.6859 20.7491 20.2409 20.1941C20.7734 19.6616 21.0734 18.9603 21.0997 18.2103C21.1034 18.1766 21.1034 18.1466 21.1034 18.1128V16.7441V10.1628C21.4972 9.90782 21.8497 9.60782 22.1609 9.27407C22.6484 8.74907 23.0309 8.14157 23.2859 7.47407V7.47032C23.5334 6.83657 23.6647 6.15407 23.6647 5.45657C23.6609 3.45407 22.5809 1.59032 20.8447 0.596567ZM15.2159 17.4978H12.3209C12.1709 17.4978 12.0284 17.5578 11.9234 17.6628L7.40469 22.1553C7.12719 22.4403 6.80469 22.3428 6.71469 22.3053C6.61719 22.2641 6.30969 22.1103 6.30969 21.6978V18.0603C6.30969 17.7491 6.05844 17.4978 5.74719 17.4978H4.53594C2.84094 17.4978 1.46094 16.1178 1.46094 14.4228V4.72157C1.46094 3.02657 2.84094 1.64657 4.53594 1.64657H13.9522C13.9222 1.68032 13.8959 1.71032 13.8659 1.74407C12.9659 2.75657 12.4484 4.07282 12.4484 5.45657C12.4484 7.46282 13.5022 9.28532 15.2159 10.2941V17.4978ZM22.5397 5.50907C22.5322 6.11657 22.3972 6.70532 22.1609 7.24907C22.0672 7.45907 21.9584 7.66532 21.8384 7.86032C21.4484 8.47157 20.9084 8.99282 20.2559 9.36407C20.0684 9.46907 19.9559 9.67157 19.9709 9.88907L19.9784 17.3628V17.3666V18.1128C19.9784 18.2591 19.9634 18.3978 19.9259 18.5366C19.8509 18.8628 19.6859 19.1591 19.4422 19.3991C19.1009 19.7441 18.6472 19.9316 18.1634 19.9316C18.1634 19.9316 18.1634 19.9316 18.1597 19.9316C17.6722 19.9278 17.2147 19.7403 16.8734 19.3991C16.6522 19.1778 16.4947 18.9153 16.4122 18.6228C16.3634 18.4616 16.3409 18.2891 16.3409 18.1166V17.4978V9.96032C16.3409 9.74657 16.2209 9.55532 16.0334 9.45782C14.5147 8.68532 13.5734 7.15532 13.5734 5.46032C13.5734 4.21532 14.0984 3.03407 14.9834 2.19782L14.9872 5.12282C14.9872 5.32157 15.0922 5.50907 15.2684 5.60657L17.7734 7.05782C17.9497 7.15907 18.1634 7.15907 18.3397 7.05782L20.8484 5.61032C21.0209 5.50907 21.1297 5.32157 21.1297 5.12282V4.77407V2.19782C22.0147 3.03407 22.5397 4.21157 22.5397 5.45657V5.50907Z" fill="#AAC1D6"/>
<path d="M4.21484 7.39233H7.83884C8.14972 7.39233 8.40134 7.14071 8.40134 6.82983C8.40134 6.51896 8.14972 6.26733 7.83884 6.26733H4.21484C3.90397 6.26733 3.65234 6.51896 3.65234 6.82983C3.65234 7.14071 3.90397 7.39233 4.21484 7.39233Z" fill="#AAC1D6"/>
<path d="M4.21484 10.1347H9.71384C10.0247 10.1347 10.2763 9.88308 10.2763 9.5722C10.2763 9.26133 10.0247 9.0097 9.71384 9.0097H4.21484C3.90397 9.0097 3.65234 9.26133 3.65234 9.5722C3.65234 9.88308 3.90397 10.1347 4.21484 10.1347Z" fill="#AAC1D6"/>
<path d="M12.3385 11.7521H4.21484C3.90397 11.7521 3.65234 12.0037 3.65234 12.3146C3.65234 12.6255 3.90397 12.8771 4.21484 12.8771H12.3388C12.6497 12.8771 12.9013 12.6255 12.9013 12.3146C12.9013 12.0037 12.6493 11.7521 12.3385 11.7521Z" fill="#AAC1D6"/>
</svg>
