<svg width="24" height="18" viewBox="0 0 24 18" fill="none" xmlns="http://www.w3.org/2000/svg">
<path d="M21.7501 12.885V3C21.7501 2.40326 21.5131 1.83097 21.0911 1.40901C20.6692 0.987053 20.0969 0.75 19.5001 0.75H4.50013C3.90339 0.75 3.33109 0.987053 2.90914 1.40901C2.48718 1.83097 2.25013 2.40326 2.25013 3V12.885C1.7541 13.065 1.33711 13.4136 1.07205 13.8698C0.806988 14.3261 0.710722 14.861 0.800078 15.3811C0.889434 15.9011 1.15873 16.3732 1.56088 16.7149C1.96304 17.0565 2.47247 17.2459 3.00013 17.25H21.0001C21.5278 17.2459 22.0372 17.0565 22.4394 16.7149C22.8415 16.3732 23.1108 15.9011 23.2002 15.3811C23.2895 14.861 23.1933 14.3261 22.9282 13.8698C22.6632 13.4136 22.2462 13.065 21.7501 12.885ZM4.50013 2.25H19.5001C19.699 2.25 19.8898 2.32902 20.0305 2.46967C20.1711 2.61032 20.2501 2.80109 20.2501 3V12.75H3.75013V3C3.75013 2.80109 3.82915 2.61032 3.9698 2.46967C4.11045 2.32902 4.30122 2.25 4.50013 2.25ZM21.0001 15.75H3.00013C2.80121 15.75 2.61045 15.671 2.4698 15.5303C2.32914 15.3897 2.25013 15.1989 2.25013 15C2.25013 14.8011 2.32914 14.6103 2.4698 14.4697C2.61045 14.329 2.80121 14.25 3.00013 14.25H21.0001C21.199 14.25 21.3898 14.329 21.5305 14.4697C21.6711 14.6103 21.7501 14.8011 21.7501 15C21.7501 15.1989 21.6711 15.3897 21.5305 15.5303C21.3898 15.671 21.199 15.75 21.0001 15.75Z" fill="#AAC1D6"/>
</svg>
