<svg width="24" height="14" viewBox="0 0 24 14" fill="none" xmlns="http://www.w3.org/2000/svg">
<path d="M23.0963 6.54625C22.8976 6.28 18.1013 0.0625 12.0001 0.0625C5.89881 0.0625 1.10256 6.28 0.903808 6.54625C0.804657 6.67674 0.750977 6.83611 0.750977 7C0.750977 7.16389 0.804657 7.32326 0.903808 7.45375C1.10256 7.72 5.89881 13.9375 12.0001 13.9375C18.1013 13.9375 22.8976 7.72 23.0963 7.45375C23.1955 7.32326 23.2492 7.16389 23.2492 7C23.2492 6.83611 23.1955 6.67674 23.0963 6.54625ZM12.0001 12.4375C7.53756 12.4375 3.66006 8.38 2.47131 7C3.66006 5.61625 7.52631 1.5625 12.0001 1.5625C16.4738 1.5625 20.3401 5.62 21.5288 7C20.3401 8.38375 16.4738 12.4375 12.0001 12.4375Z" fill="#AAC1D6"/>
<path d="M12.0004 3.68127C11.344 3.68127 10.7024 3.87592 10.1566 4.24058C9.61083 4.60525 9.18545 5.12357 8.93427 5.72999C8.68308 6.33641 8.61736 7.0037 8.74541 7.64747C8.87347 8.29124 9.18955 8.88258 9.65368 9.34672C10.1178 9.81085 10.7092 10.1269 11.3529 10.255C11.9967 10.383 12.664 10.3173 13.2704 10.0661C13.8768 9.81494 14.3952 9.38957 14.7598 8.84381C15.1245 8.29804 15.3191 7.6564 15.3191 7.00001C15.3181 6.12013 14.9682 5.27658 14.346 4.65441C13.7238 4.03224 12.8803 3.68227 12.0004 3.68127ZM12.0004 8.81876C11.6407 8.81876 11.289 8.71209 10.9899 8.51225C10.6909 8.3124 10.4577 8.02835 10.3201 7.69602C10.1824 7.36369 10.1464 6.998 10.2166 6.6452C10.2868 6.29239 10.46 5.96832 10.7143 5.71397C10.9687 5.45961 11.2928 5.28639 11.6456 5.21622C11.9984 5.14604 12.3641 5.18206 12.6964 5.31971C13.0287 5.45737 13.3128 5.69048 13.5126 5.98957C13.7125 6.28867 13.8191 6.6403 13.8191 7.00001C13.8182 7.48207 13.6262 7.9441 13.2853 8.28497C12.9445 8.62583 12.4825 8.81777 12.0004 8.81876Z" fill="#AAC1D6"/>
</svg>
