<svg width="25" height="20" viewBox="0 0 25 20" fill="none" xmlns="http://www.w3.org/2000/svg">
<g filter="url(#filter0_di_167_7638)">
<path fill-rule="evenodd" clip-rule="evenodd" d="M17.7294 2.30588C18.3412 2.47059 18.8235 2.95294 18.9882 3.56471C19.2941 4.68235 19.2824 7.01176 19.2824 7.01176C19.2824 7.01176 19.2824 9.32941 18.9882 10.4471C18.8235 11.0588 18.3412 11.5412 17.7294 11.7059C16.6118 12 12.1412 12 12.1412 12C12.1412 12 7.68235 12 6.55294 11.6941C5.94118 11.5294 5.45882 11.0471 5.29412 10.4353C5 9.32941 5 7 5 7C5 7 5 4.68235 5.29412 3.56471C5.45882 2.95294 5.95294 2.45882 6.55294 2.29412C7.67059 2 12.1412 2 12.1412 2C12.1412 2 16.6118 2 17.7294 2.30588ZM14.4354 6.99988L10.7178 9.14106V4.8587L14.4354 6.99988Z" fill="#EF8E2E"/>
</g>
<defs>
<filter id="filter0_di_167_7638" x="0" y="0" width="24.2825" height="20" filterUnits="userSpaceOnUse" color-interpolation-filters="sRGB">
<feFlood flood-opacity="0" result="BackgroundImageFix"/>
<feColorMatrix in="SourceAlpha" type="matrix" values="0 0 0 0 0 0 0 0 0 0 0 0 0 0 0 0 0 0 127 0" result="hardAlpha"/>
<feOffset dy="3"/>
<feGaussianBlur stdDeviation="2.5"/>
<feComposite in2="hardAlpha" operator="out"/>
<feColorMatrix type="matrix" values="0 0 0 0 0 0 0 0 0 0 0 0 0 0 0 0 0 0 0.47 0"/>
<feBlend mode="normal" in2="BackgroundImageFix" result="effect1_dropShadow_167_7638"/>
<feBlend mode="normal" in="SourceGraphic" in2="effect1_dropShadow_167_7638" result="shape"/>
<feColorMatrix in="SourceAlpha" type="matrix" values="0 0 0 0 0 0 0 0 0 0 0 0 0 0 0 0 0 0 127 0" result="hardAlpha"/>
<feOffset dy="1"/>
<feGaussianBlur stdDeviation="1.5"/>
<feComposite in2="hardAlpha" operator="arithmetic" k2="-1" k3="1"/>
<feColorMatrix type="matrix" values="0 0 0 0 1 0 0 0 0 0.828293 0 0 0 0 0.6 0 0 0 1 0"/>
<feBlend mode="normal" in2="shape" result="effect2_innerShadow_167_7638"/>
</filter>
</defs>
</svg>
