<svg width="114" height="74" viewBox="0 0 114 74" fill="none" xmlns="http://www.w3.org/2000/svg">
<g opacity="0.7">
<g clip-path="url(#clip0_12_3843)">
<path d="M44.5 42H69.5V44.5H44.5V42ZM47 32H49.5V40.75H47V32ZM53.25 32H55.75V40.75H53.25V32ZM58.25 32H60.75V40.75H58.25V32ZM64.5 32H67V40.75H64.5V32ZM44.5 25.75L57 19.5L69.5 25.75V30.75H44.5V25.75ZM47 27.295V28.25H67V27.295L57 22.295L47 27.295ZM57 27C56.6685 27 56.3505 26.8683 56.1161 26.6339C55.8817 26.3995 55.75 26.0815 55.75 25.75C55.75 25.4185 55.8817 25.1005 56.1161 24.8661C56.3505 24.6317 56.6685 24.5 57 24.5C57.3315 24.5 57.6495 24.6317 57.8839 24.8661C58.1183 25.1005 58.25 25.4185 58.25 25.75C58.25 26.0815 58.1183 26.3995 57.8839 26.6339C57.6495 26.8683 57.3315 27 57 27Z" fill="#F9F5E9" stroke="#161616" stroke-width="0.5"/>
</g>
<g clip-path="url(#clip1_12_3843)">
<path fill-rule="evenodd" clip-rule="evenodd" d="M85.2071 66.6899C85.4149 66.688 85.6333 66.7014 85.8654 66.732C85.9246 66.7416 85.9858 66.7512 86.0441 66.7617C86.1043 66.7703 86.1616 66.7809 86.2237 66.7904C86.3441 66.8134 86.4713 66.8422 86.5976 66.8757C87.1074 67.0117 87.6657 67.2339 88.224 67.4877C88.7707 67.7242 89.3223 67.9905 89.8175 68.2424C90.3108 68.4923 90.7497 68.7318 91.0585 68.8927C91.3673 69.0555 91.5537 69.1599 91.5537 69.1599C91.5537 69.1599 91.5052 69.1771 91.4081 69.2135C91.3139 69.2441 91.1789 69.2968 91.006 69.3437C90.6584 69.4414 90.171 69.5688 89.6194 69.678C89.4806 69.7058 89.3417 69.7364 89.1941 69.7575C89.0455 69.7786 88.8941 69.7948 88.7435 69.8111C88.4386 69.8427 88.1279 69.8667 87.8162 69.8743C87.1996 69.9002 86.5772 69.8236 86.0431 69.678C84.975 69.3916 84.2506 68.7432 83.801 68.204C83.3485 67.662 83.1562 67.2061 83.1562 67.2061C83.1562 67.2061 83.5223 66.9724 84.1321 66.8326C84.4361 66.7607 84.7944 66.6899 85.2071 66.6899Z" fill="#F9F5E9"/>
<path fill-rule="evenodd" clip-rule="evenodd" d="M83.5706 62.4987C83.8202 62.108 84.1493 61.7661 84.4902 61.4309C84.6591 61.2642 84.8359 61.1129 85.0155 60.9712C85.1068 60.8993 85.1942 60.8323 85.2777 60.7672C85.3612 60.6972 85.4457 60.6302 85.5282 60.567C85.8574 60.3161 86.1584 60.115 86.3759 59.9799C86.5934 59.8334 86.7265 59.7529 86.7265 59.7529C86.7265 59.7529 86.7284 59.9426 86.7158 60.2548C86.708 60.5737 86.674 60.9941 86.6051 61.4778C86.5352 61.9605 86.4274 62.5016 86.272 63.0303C86.1118 63.5417 85.8972 64.0397 85.635 64.4525C85.5719 64.5559 85.503 64.6536 85.4321 64.7446C85.3981 64.7915 85.3612 64.8337 85.3233 64.8768C85.2864 64.917 85.2505 64.9563 85.2126 64.9946C85.0592 65.1459 84.899 65.2752 84.7378 65.3853C84.5776 65.4964 84.4173 65.5893 84.26 65.664C84.1047 65.7378 83.9522 65.8039 83.8075 65.8422C83.2269 66.004 82.8035 65.9763 82.8035 65.9763C82.8035 65.9763 82.7365 65.4869 82.8064 64.8126C82.8414 64.4745 82.9064 64.0905 83.0288 63.6978C83.0589 63.6001 83.0919 63.4996 83.1317 63.4019C83.1657 63.3004 83.2055 63.1979 83.2521 63.0964C83.3424 62.8952 83.4453 62.6922 83.5706 62.4987Z" fill="#F9F5E9"/>
<path fill-rule="evenodd" clip-rule="evenodd" d="M91.837 63.6588C91.8729 63.6243 91.9282 63.5802 91.9952 63.5208C92.1341 63.4021 92.34 63.245 92.608 63.0956C92.7449 63.019 92.8925 62.9462 93.0624 62.8792C93.2294 62.8112 93.4168 62.7518 93.6101 62.6905C94.0024 62.5775 94.4626 62.5066 94.9996 62.5171C95.2705 62.5229 95.5482 62.5373 95.8395 62.565C96.1289 62.5928 96.429 62.634 96.729 62.6828C97.0329 62.7307 97.3388 62.7882 97.635 62.8437C97.9244 62.9022 98.2127 62.9596 98.4856 63.0142C99.0294 63.1282 99.513 63.2374 99.8577 63.3197C100.208 63.403 100.416 63.4586 100.416 63.4586C100.416 63.4586 100.237 63.5802 99.9324 63.7679C99.7848 63.8618 99.6003 63.97 99.3935 64.0878C99.2925 64.1462 99.1818 64.2075 99.0663 64.2698C98.9507 64.3301 98.8274 64.3885 98.7002 64.4479C98.4458 64.5657 98.1739 64.6835 97.8933 64.7965C97.7505 64.8502 97.6107 64.9038 97.4641 64.9555C97.3913 64.9823 97.3194 65.0082 97.2466 65.0312C97.1728 65.0513 97.098 65.0733 97.0223 65.0944C96.4231 65.2563 95.8153 65.3626 95.2647 65.3607C94.1373 65.329 93.2712 64.9134 92.6856 64.5102C92.3934 64.3138 92.1652 64.1079 92.0127 63.9576C91.8612 63.8082 91.7826 63.7105 91.7826 63.7105C91.7826 63.7105 91.801 63.6923 91.837 63.6588Z" fill="#F9F5E9"/>
<path fill-rule="evenodd" clip-rule="evenodd" d="M93.3904 60.4265C93.2496 60.8795 93.0321 61.2549 92.7904 61.5547C92.6719 61.7098 92.5398 61.8343 92.4078 61.9416C92.2767 62.0508 92.1427 62.1437 92.0155 62.2232C91.763 62.3812 91.5319 62.4808 91.3668 62.5421C91.2843 62.5746 91.2115 62.59 91.1668 62.6015C91.1153 62.6129 91.091 62.6177 91.091 62.6177C91.091 62.6177 91.0396 62.5038 90.9765 62.3093C90.9114 62.113 90.8318 61.8362 90.7687 61.4982C90.6385 60.8239 90.5822 59.939 90.8502 59.0732C90.9745 58.6288 91.1862 58.1997 91.4338 57.8061C91.6717 57.4048 91.9349 57.0236 92.1932 56.7085C92.3243 56.5534 92.4369 56.3973 92.5466 56.2642C92.6534 56.1291 92.7554 56.0142 92.8399 55.9184C93.0079 55.7269 93.1195 55.6187 93.1195 55.6187C93.1195 55.6187 93.1749 55.8006 93.2477 56.1013C93.3205 56.4011 93.4118 56.8263 93.4846 57.31C93.5196 57.5542 93.5555 57.8166 93.5759 58.0819C93.5915 58.3434 93.6002 58.6135 93.5953 58.8826C93.5915 59.1527 93.5759 59.4237 93.5429 59.6861C93.5079 59.9457 93.4652 60.2023 93.3904 60.4265Z" fill="#F9F5E9"/>
<path fill-rule="evenodd" clip-rule="evenodd" d="M99.5567 57.602C99.6587 57.4574 99.8033 57.2496 100.019 57.0331C100.233 56.8167 100.514 56.5916 100.867 56.3819C101.208 56.1674 101.629 55.9758 102.146 55.8436C102.318 55.7986 102.504 55.7613 102.689 55.7239C102.875 55.6856 103.065 55.654 103.263 55.6234C104.238 55.4788 105.345 55.4242 106.177 55.3724C107.021 55.3265 107.623 55.3169 107.623 55.3169C107.623 55.3169 107.417 55.5707 107.067 55.9471C106.727 56.3273 106.201 56.7966 105.62 57.2525C105.529 57.3224 105.437 57.3885 105.348 57.4574C105.3 57.4909 105.255 57.5235 105.205 57.5589C105.158 57.5905 105.108 57.6202 105.06 57.6528C104.862 57.7763 104.661 57.8961 104.457 58.0043C104.256 58.1135 104.052 58.2131 103.845 58.2964C103.641 58.3826 103.442 58.4582 103.232 58.5071C102.143 58.7743 101.193 58.6086 100.51 58.374C99.8218 58.1336 99.4062 57.8405 99.4062 57.8405C99.4062 57.8405 99.4538 57.7486 99.5567 57.602Z" fill="#F9F5E9"/>
<path fill-rule="evenodd" clip-rule="evenodd" d="M99.1969 56.3512C98.9998 56.5705 98.8133 56.7324 98.6657 56.8301C98.5191 56.9287 98.422 56.9728 98.422 56.9728C98.422 56.9728 98.0957 56.5935 97.784 55.9882C97.4655 55.3762 97.1451 54.5334 97.1519 53.6351C97.148 53.3028 97.1849 52.957 97.2529 52.6247C97.2859 52.46 97.3296 52.2952 97.3772 52.1324C97.4248 51.9753 97.4646 51.8087 97.516 51.6536C97.6005 51.3835 97.6957 51.1287 97.7899 50.9008C97.8151 50.8443 97.8404 50.7887 97.8617 50.7332C97.886 50.6786 97.9044 50.6259 97.9268 50.5723C97.9676 50.4679 98.0064 50.3721 98.0452 50.284C98.1987 49.9306 98.3162 49.7161 98.3162 49.7161C98.3162 49.7161 98.6143 50.1605 98.9619 50.8347C99.0503 51.0033 99.1415 51.1843 99.2309 51.3796C99.2746 51.4764 99.3192 51.5779 99.362 51.6765C99.4057 51.7771 99.4426 51.8796 99.4853 51.984C99.6407 52.3977 99.7795 52.8431 99.8727 53.2836C99.9116 53.4541 99.9397 53.6217 99.9621 53.7864C99.9825 53.9502 99.9883 54.1082 99.9883 54.2605C99.9883 54.7384 99.8892 55.1531 99.7475 55.5075C99.595 55.8551 99.3911 56.1319 99.1969 56.3512Z" fill="#F9F5E9"/>
<path fill-rule="evenodd" clip-rule="evenodd" d="M106.813 50.4132C106.602 50.4228 106.404 50.4199 106.218 50.4084C105.488 50.3615 105.005 50.1901 105.005 50.1901C105.005 50.1901 105.023 50.0876 105.078 49.919C105.105 49.8357 105.144 49.738 105.192 49.626C105.235 49.5101 105.289 49.3865 105.359 49.2544C105.502 48.9881 105.697 48.6941 105.979 48.4029C106.045 48.3369 106.116 48.265 106.197 48.1827C106.273 48.108 106.356 48.0352 106.444 47.9624C106.619 47.8178 106.819 47.677 107.046 47.5429C107.274 47.4107 107.524 47.2843 107.795 47.1627C108.051 47.0382 108.327 46.9204 108.606 46.8045C109.164 46.5766 109.751 46.3687 110.282 46.1906C110.806 46.0086 111.266 45.8535 111.605 45.7462C111.942 45.638 112.148 45.5776 112.148 45.5776C112.148 45.5776 112.072 45.7721 111.924 46.0843C111.851 46.2413 111.764 46.431 111.652 46.6331C111.537 46.8371 111.407 47.0564 111.262 47.2881C111.117 47.5199 110.956 47.7593 110.785 47.9997C110.742 48.0582 110.699 48.1185 110.652 48.1769C110.607 48.2334 110.561 48.2909 110.509 48.3512C110.413 48.4671 110.312 48.5801 110.21 48.6903C110.003 48.9144 109.789 49.126 109.568 49.3157C109.458 49.4133 109.348 49.5034 109.23 49.5867C109.112 49.6671 108.994 49.7438 108.872 49.8127C108.392 50.0876 107.911 50.2475 107.461 50.3347C107.236 50.3797 107.018 50.4017 106.813 50.4132Z" fill="#F9F5E9"/>
<path fill-rule="evenodd" clip-rule="evenodd" d="M104.643 47.8618C104.596 48.2306 104.489 48.5543 104.368 48.8177C104.307 48.9498 104.242 49.0657 104.18 49.1663C104.116 49.2668 104.047 49.3502 103.993 49.4153C103.881 49.5494 103.803 49.6174 103.803 49.6174C103.803 49.6174 103.377 49.3396 102.899 48.8397C102.779 48.7161 102.659 48.5782 102.536 48.4279C102.407 48.2737 102.285 48.108 102.168 47.9327C101.936 47.5803 101.73 47.1847 101.599 46.7518C101.565 46.6427 101.54 46.5335 101.513 46.4205C101.486 46.3075 101.464 46.1925 101.443 46.0786C101.406 45.8477 101.382 45.615 101.375 45.3852C101.367 44.9293 101.36 44.4715 101.394 44.0759C101.409 43.8767 101.43 43.69 101.452 43.5243C101.465 43.3557 101.48 43.2063 101.498 43.0837C101.527 42.8338 101.557 42.6863 101.557 42.6863C101.557 42.6863 101.706 42.8098 101.94 43.0272C102.174 43.2437 102.495 43.5549 102.836 43.9304C103.165 44.301 103.509 44.7358 103.809 45.1965C103.962 45.4273 104.102 45.6639 104.225 45.9023C104.344 46.136 104.435 46.3707 104.507 46.6015C104.577 46.8285 104.618 47.0506 104.643 47.2604C104.654 47.3667 104.661 47.4701 104.661 47.5697C104.661 47.6205 104.661 47.6703 104.659 47.7182C104.654 47.7651 104.649 47.813 104.643 47.8618Z" fill="#F9F5E9"/>
<path fill-rule="evenodd" clip-rule="evenodd" d="M111.064 40.9183C110.858 41.061 110.649 41.1788 110.441 41.2784C110.025 41.4757 109.62 41.5945 109.266 41.6663C108.554 41.809 108.041 41.7688 108.041 41.7688C108.041 41.7688 107.98 41.3531 108.114 40.7756C108.144 40.6281 108.2 40.4739 108.249 40.3102C108.302 40.1445 108.371 39.9721 108.459 39.7968C108.546 39.6196 108.658 39.4367 108.791 39.2538C108.858 39.1618 108.929 39.0689 109.009 38.977C109.049 38.931 109.089 38.885 109.133 38.8372C109.172 38.7912 109.214 38.7462 109.259 38.6983C109.957 37.9551 111.088 37.1918 111.978 36.5721C112.431 36.2647 112.84 36.0004 113.139 35.8098C113.437 35.6201 113.623 35.51 113.623 35.51C113.623 35.51 113.598 35.7159 113.539 36.055C113.478 36.394 113.389 36.8614 113.25 37.3785C113.091 37.8967 112.885 38.4636 112.631 38.9971C112.569 39.1302 112.497 39.2605 112.419 39.3888C112.342 39.5143 112.264 39.6407 112.182 39.7595C112.018 39.9989 111.841 40.223 111.654 40.4145C111.462 40.6099 111.273 40.7775 111.064 40.9183Z" fill="#F9F5E9"/>
<path fill-rule="evenodd" clip-rule="evenodd" d="M106.721 41.5245C106.721 41.5245 106.23 41.3646 105.624 41.0054C105.316 40.8244 104.983 40.5965 104.664 40.3187C104.505 40.178 104.352 40.0266 104.206 39.8619C104.054 39.6953 103.907 39.5171 103.779 39.3246C103.649 39.1321 103.537 38.9252 103.438 38.7136C103.339 38.5029 103.269 38.2864 103.182 38.0652C103.02 37.6266 102.913 37.186 102.836 36.7962C102.739 36.4007 102.681 36.0549 102.646 35.8078C102.613 35.5588 102.604 35.4094 102.604 35.4094C102.604 35.4094 102.78 35.4908 103.064 35.6402C103.349 35.7925 103.736 36.0099 104.166 36.2848C104.591 36.5597 105.069 36.8929 105.475 37.2598C105.89 37.6266 106.269 38.0298 106.546 38.4378C106.689 38.6389 106.778 38.841 106.86 39.0383C106.935 39.2346 106.987 39.4281 107.022 39.6148C107.057 39.7997 107.075 39.9778 107.077 40.1444C107.083 40.3101 107.057 40.4672 107.035 40.608C106.935 41.175 106.721 41.5245 106.721 41.5245Z" fill="#F9F5E9"/>
<path fill-rule="evenodd" clip-rule="evenodd" d="M112.182 28.352C112.148 28.5723 112.107 28.7935 112.059 29.01C111.954 29.4419 111.831 29.8509 111.628 30.21C111.369 30.6841 111.05 31.0624 110.713 31.3612C110.375 31.6591 110.03 31.8784 109.704 32.0402C109.053 32.3668 108.546 32.4626 108.546 32.4626C108.546 32.4626 108.504 32.3678 108.461 32.1983C108.42 32.0259 108.353 31.7845 108.328 31.4905C108.3 31.1936 108.306 30.845 108.383 30.4571C108.451 30.0702 108.575 29.6469 108.817 29.1929C108.898 29.0435 108.989 28.8864 109.089 28.7303C109.138 28.6547 109.189 28.5752 109.243 28.4947C109.293 28.4181 109.346 28.3357 109.397 28.2582C109.667 27.8645 109.971 27.4661 110.278 27.0859C110.583 26.7057 110.892 26.3408 111.15 26.0314C111.674 25.407 112.071 24.9731 112.071 24.9731C112.071 24.9731 112.133 25.2921 112.196 25.7882C112.233 26.0372 112.246 26.3341 112.256 26.6559C112.265 26.9777 112.265 27.3282 112.249 27.6854C112.243 27.9028 112.214 28.1289 112.182 28.352Z" fill="#F9F5E9"/>
<path fill-rule="evenodd" clip-rule="evenodd" d="M103.745 31.2366C103.68 31.183 103.619 31.1246 103.557 31.0652C103.494 31.0048 103.429 30.9435 103.37 30.8803C103.244 30.7568 103.131 30.6246 103.022 30.4886C102.917 30.3545 102.815 30.2157 102.719 30.0749C102.619 29.9255 102.529 29.7856 102.443 29.6554C102.285 29.4169 102.149 29.1784 102.032 28.9601C101.973 28.8499 101.919 28.7427 101.871 28.644C101.826 28.5425 101.769 28.4515 101.725 28.3653C101.548 28.0244 101.459 27.7993 101.459 27.7993C101.459 27.7993 102.005 27.8846 102.773 28.0886C102.96 28.1384 103.171 28.1949 103.375 28.2648C103.582 28.3309 103.796 28.4075 104.013 28.4908C104.446 28.6565 104.888 28.8547 105.298 29.0817C105.62 29.2551 105.89 29.4524 106.135 29.6583C106.506 29.9753 106.773 30.3229 106.948 30.661C107.114 31.001 107.202 31.3305 107.241 31.6139C107.28 31.9003 107.287 32.1388 107.26 32.3093C107.239 32.4788 107.207 32.5774 107.207 32.5774C107.207 32.5774 106.693 32.5525 106.009 32.3658C105.327 32.1809 104.443 31.8438 103.745 31.2366Z" fill="#F9F5E9"/>
<path fill-rule="evenodd" clip-rule="evenodd" d="M108.063 21.7552C107.821 22.1335 107.545 22.44 107.284 22.6833C106.762 23.1669 106.304 23.3949 106.304 23.3949C106.304 23.3949 106.235 23.3135 106.138 23.165C106.04 23.0146 105.927 22.7905 105.812 22.5147C105.694 22.2398 105.595 21.9056 105.548 21.5129C105.526 21.3204 105.526 21.1069 105.526 20.8875C105.527 20.6663 105.55 20.4326 105.595 20.1846C105.64 19.9356 105.708 19.6731 105.789 19.405C105.83 19.2709 105.875 19.133 105.922 18.997C105.97 18.8629 106.013 18.7259 106.062 18.589C106.254 18.0431 106.48 17.4924 106.693 16.9992C106.801 16.7549 106.902 16.5222 106.994 16.3115C107.086 16.1046 107.169 15.9198 107.239 15.7656C107.378 15.4534 107.465 15.2676 107.465 15.2676C107.465 15.2676 107.568 15.4534 107.716 15.7656C107.797 15.9179 107.872 16.1113 107.957 16.3249C108.041 16.5423 108.129 16.7827 108.215 17.0375C108.255 17.1648 108.297 17.298 108.341 17.432C108.38 17.5671 108.42 17.704 108.451 17.8487C108.515 18.1312 108.568 18.4271 108.608 18.7183C108.647 19.0104 108.674 19.3025 108.674 19.5841C108.669 19.8723 108.642 20.151 108.591 20.4106C108.488 20.9325 108.297 21.3788 108.063 21.7552Z" fill="#F9F5E9"/>
<path fill-rule="evenodd" clip-rule="evenodd" d="M100.707 23.1562C100.501 23.0317 100.298 22.8919 100.11 22.7473C99.9208 22.5998 99.747 22.4475 99.58 22.2952C99.412 22.1458 99.243 21.9983 99.0984 21.8547C98.9498 21.711 98.8177 21.5721 98.7002 21.4476C98.642 21.3825 98.5866 21.3222 98.5361 21.2676C98.4847 21.212 98.4361 21.1622 98.3934 21.1153C98.2147 20.9276 98.1186 20.8098 98.1186 20.8098C98.1186 20.8098 98.3157 20.7858 98.6449 20.7657C98.9712 20.7446 99.4353 20.7217 99.9441 20.7408C100.454 20.7571 101.031 20.8031 101.595 20.895C101.739 20.9199 101.88 20.9448 102.019 20.9735C102.154 21.0071 102.287 21.0406 102.418 21.0789C102.68 21.1536 102.931 21.2436 103.158 21.3471C103.386 21.4476 103.59 21.5635 103.771 21.689C103.954 21.8135 104.099 21.9543 104.233 22.0922C104.493 22.3737 104.678 22.663 104.808 22.9254C104.931 23.1869 104.985 23.4244 105.016 23.591C105.049 23.7596 105.05 23.8611 105.05 23.8611C105.05 23.8611 104.549 23.976 103.836 23.9789C103.478 23.9827 103.073 23.9578 102.647 23.8841C102.211 23.8142 101.761 23.6954 101.328 23.5029C101.114 23.4043 100.909 23.2874 100.707 23.1562Z" fill="#F9F5E9"/>
<path fill-rule="evenodd" clip-rule="evenodd" d="M102.96 13.5992C102.837 14.0234 102.66 14.3883 102.478 14.6872C102.115 15.2829 101.742 15.6181 101.742 15.6181C101.742 15.6181 101.375 15.3825 101.008 14.9036C100.915 14.7829 100.823 14.6479 100.735 14.4947C100.647 14.3472 100.554 14.1824 100.476 14.0033C100.317 13.6432 100.199 13.2094 100.152 12.7047C100.095 12.2057 100.106 11.6368 100.148 11.0554C100.192 10.4674 100.245 9.89181 100.308 9.3641C100.373 8.83735 100.441 8.37093 100.491 8.03285C100.545 7.69956 100.577 7.49365 100.577 7.49365C100.577 7.49365 100.618 7.52813 100.682 7.60283C100.745 7.67658 100.837 7.78193 100.95 7.91697C101.175 8.18609 101.48 8.56439 101.794 9.00878C102.091 9.46753 102.397 9.99237 102.641 10.5277C102.878 11.0746 103.044 11.6435 103.1 12.1645C103.113 12.2967 103.119 12.4231 103.119 12.5495C103.119 12.675 103.108 12.7995 103.096 12.9201C103.069 13.1615 103.02 13.3885 102.96 13.5992Z" fill="#F9F5E9"/>
<path fill-rule="evenodd" clip-rule="evenodd" d="M96.2663 16.819C96.1507 16.7826 96.039 16.7414 95.9235 16.6964C95.8691 16.6753 95.8138 16.6533 95.7574 16.6303C95.6992 16.6063 95.6448 16.5862 95.5875 16.5642C95.134 16.3851 94.7204 16.1648 94.3601 15.958C93.9882 15.7655 93.6824 15.572 93.4658 15.4322C93.3571 15.3594 93.2716 15.299 93.2153 15.2598C93.1522 15.2196 93.1201 15.1994 93.1201 15.1994C93.1201 15.1994 93.1667 15.1822 93.2522 15.1487C93.3396 15.1161 93.4619 15.073 93.6144 15.0251C93.9193 14.9265 94.3533 14.7972 94.8544 14.6794C95.1069 14.621 95.3729 14.5645 95.6516 14.5166C95.7895 14.4936 95.9313 14.4697 96.0711 14.4505C96.2119 14.4342 96.3527 14.4199 96.4925 14.4084C97.0586 14.3614 97.6257 14.3633 98.1297 14.4428C98.6259 14.5252 99.0318 14.6976 99.3697 14.8939C99.5396 14.9935 99.693 15.0998 99.8222 15.2119C99.9523 15.3249 100.06 15.4417 100.154 15.5519C100.536 16.0001 100.665 16.3842 100.665 16.3842C100.665 16.3842 100.213 16.6245 99.5212 16.8123C99.1764 16.908 98.7735 16.9904 98.3404 17.0297C97.9054 17.0708 97.4548 17.0555 96.9742 16.9875C96.7324 16.9502 96.4974 16.8908 96.2663 16.819Z" fill="#F9F5E9"/>
<path fill-rule="evenodd" clip-rule="evenodd" d="M94.9526 8.73386C94.8623 8.92349 94.7992 9.02884 94.7992 9.02884C94.7992 9.02884 94.772 9.02118 94.7264 9.00011C94.6788 8.98287 94.6118 8.95605 94.5273 8.91583C94.3593 8.84017 94.1302 8.7195 93.8825 8.53657C93.398 8.16018 92.7998 7.6047 92.4182 6.64984C92.2881 6.33667 92.1696 5.99284 92.0696 5.62507C91.9424 5.16824 91.8375 4.68171 91.7463 4.20859C91.6501 3.74697 91.5666 3.29588 91.4987 2.89746C91.3647 2.10446 91.2918 1.5327 91.2918 1.53174C91.2918 1.53174 91.5793 1.70317 92.0084 1.99911C92.2201 2.14373 92.4697 2.32282 92.7328 2.5249C92.9902 2.73752 93.2611 2.97504 93.5271 3.22883C93.6922 3.3859 93.8515 3.54776 94.0068 3.71536C94.0447 3.75654 94.0855 3.79773 94.1234 3.84082C94.1583 3.88392 94.1952 3.92798 94.2321 3.97395C94.302 4.06397 94.371 4.154 94.4409 4.24498C94.7089 4.60605 94.9361 4.98148 95.0924 5.35212C95.1973 5.59155 95.2624 5.84535 95.308 6.08095C95.3517 6.31847 95.374 6.54737 95.377 6.7686C95.3867 7.2082 95.3226 7.60278 95.2342 7.93799C95.1478 8.27319 95.04 8.54327 94.9526 8.73386Z" fill="#F9F5E9"/>
<path fill-rule="evenodd" clip-rule="evenodd" d="M88.5107 11.4673C88.2194 11.4118 87.9456 11.3448 87.6941 11.2796C87.4406 11.2231 87.2105 11.1628 87.0182 11.1082C86.6366 10.9971 86.4007 10.9061 86.4007 10.9061C86.4007 10.9061 86.8347 10.5805 87.5028 10.184C87.8339 9.9867 88.2262 9.77025 88.6544 9.57009C89.0739 9.37471 89.5216 9.20136 89.9702 9.06824C90.3159 8.96672 90.6615 8.88723 90.9878 8.85275C91.9831 8.76464 92.7687 9.04621 93.2561 9.3862C93.5057 9.55093 93.6892 9.71662 93.8125 9.84112C93.8737 9.90146 93.9194 9.95414 93.9485 9.98957C93.9776 10.0288 93.9912 10.049 93.9912 10.049C93.9912 10.049 93.9019 10.1361 93.7349 10.2673C93.5678 10.4004 93.3231 10.5786 93.0192 10.7596C92.7153 10.9444 92.3521 11.1302 91.9491 11.2835C91.7462 11.3582 91.5326 11.4281 91.3121 11.4798C91.0917 11.5344 90.8655 11.5708 90.6227 11.6024C89.9187 11.6886 89.1885 11.5756 88.5107 11.4673Z" fill="#F9F5E9"/>
<path fill-rule="evenodd" clip-rule="evenodd" d="M78.1133 67.4236C78.3046 67.3996 78.5415 67.3718 78.8086 67.3402C78.9445 67.3201 79.0882 67.3115 79.2378 67.2837C79.3863 67.2579 79.5436 67.2301 79.7068 67.2023C80.0359 67.1468 80.3913 67.0874 80.7691 67.0232C81.1419 66.9418 81.5342 66.8556 81.9392 66.7694C82.145 66.7215 82.3528 66.6832 82.5587 66.6277C82.7645 66.5712 82.9733 66.5156 83.185 66.4582C83.6054 66.3423 84.0376 66.2398 84.4561 66.0952C86.1583 65.5933 87.7857 64.899 88.9859 64.3464C89.2802 64.2018 89.5559 64.0686 89.7958 63.9527C89.9181 63.8943 90.0288 63.8388 90.1327 63.7871C90.2366 63.7353 90.3289 63.6817 90.4133 63.6376C90.7522 63.4528 90.9426 63.3465 90.9426 63.3465C90.9426 63.3465 91.1348 63.2431 91.4747 63.0582C91.8097 62.8676 92.2729 62.5746 92.8341 62.2355C93.9343 61.522 95.3763 60.5222 96.692 59.3834C98.0136 58.2485 99.2274 57.0092 100.082 56.0371C100.195 55.9203 100.289 55.7986 100.385 55.6847C100.479 55.5707 100.566 55.4653 100.651 55.3629C100.819 55.1617 100.966 54.9846 101.086 54.838C101.208 54.6953 101.292 54.5727 101.352 54.4933C101.412 54.4109 101.446 54.3697 101.446 54.3697C101.446 54.3697 101.573 54.1983 101.8 53.8956C101.91 53.7453 102.054 53.5662 102.202 53.3497C102.347 53.1333 102.514 52.8881 102.693 52.6218C102.784 52.4897 102.878 52.3508 102.974 52.2062C103.073 52.0616 103.158 51.9074 103.255 51.7513C103.448 51.4352 103.647 51.1029 103.853 50.76C104.042 50.4066 104.24 50.0427 104.44 49.674C104.491 49.5801 104.541 49.4872 104.591 49.3953C104.636 49.2985 104.68 49.2028 104.727 49.1079C104.819 48.9164 104.91 48.7239 105.003 48.5304C105.725 46.9885 106.322 45.3929 106.663 44.1661C106.709 44.0138 106.752 43.8672 106.795 43.7293C106.835 43.5905 106.877 43.4593 106.903 43.3347C106.964 43.0838 107.021 42.8635 107.062 42.6835C107.149 42.3234 107.202 42.1175 107.202 42.1175C107.202 42.1175 107.213 42.0658 107.238 41.969C107.26 41.8752 107.284 41.7296 107.32 41.5467C107.354 41.3657 107.395 41.1463 107.44 40.8916C107.488 40.6397 107.553 40.3543 107.587 40.0382C107.63 39.7241 107.675 39.3841 107.723 39.024C107.735 38.9349 107.749 38.843 107.759 38.7511C107.771 38.6591 107.776 38.5653 107.785 38.4685C107.798 38.2799 107.816 38.0845 107.831 37.8872C107.914 37.099 107.914 36.2533 107.94 35.4095C107.914 34.5639 107.914 33.7191 107.831 32.93C107.816 32.7336 107.798 32.5392 107.785 32.3496C107.776 32.2538 107.771 32.16 107.759 32.068C107.749 31.9751 107.735 31.8832 107.723 31.7932C107.675 31.434 107.63 31.0921 107.587 30.7789C107.553 30.4629 107.488 30.1803 107.44 29.9256C107.395 29.6727 107.354 29.4525 107.32 29.2705C107.284 29.0895 107.26 28.9439 107.238 28.8481C107.213 28.7514 107.202 28.6997 107.202 28.6997C107.202 28.6997 107.149 28.4947 107.062 28.1346C107.021 27.9546 106.964 27.7362 106.903 27.4853C106.877 27.3598 106.835 27.2267 106.795 27.0888C106.752 26.949 106.709 26.8043 106.663 26.6511C106.322 25.4262 105.725 23.8306 105.003 22.2867C104.91 22.0961 104.819 21.9008 104.727 21.7102C104.68 21.6135 104.636 21.5206 104.591 21.4238C104.541 21.3309 104.491 21.238 104.44 21.1432C104.24 20.7735 104.042 20.4096 103.853 20.0581C103.647 19.7152 103.448 19.3829 103.255 19.0678C103.158 18.9127 103.073 18.7556 102.974 18.6119C102.878 18.4673 102.784 18.3294 102.693 18.1953C102.514 17.9291 102.347 17.6839 102.202 17.4684C102.054 17.252 101.91 17.0738 101.8 16.9225C101.573 16.6208 101.446 16.4494 101.446 16.4494C101.446 16.4494 101.412 16.4063 101.352 16.3249C101.292 16.2454 101.208 16.1228 101.086 15.9801C100.966 15.8345 100.819 15.6583 100.651 15.4553C100.566 15.3537 100.479 15.2465 100.385 15.1306C100.289 15.0195 100.195 14.8979 100.082 14.7801C99.2274 13.8099 98.0136 12.5696 96.692 11.4337C95.3763 10.295 93.9343 9.29705 92.8341 8.58067C92.2729 8.2426 91.8097 7.94953 91.4747 7.76086C91.1348 7.57602 90.9426 7.46971 90.9426 7.46971C90.9426 7.46971 90.7522 7.36532 90.4133 7.18047C90.3289 7.13546 90.2366 7.08566 90.1327 7.02915C90.0288 6.97935 89.9181 6.9238 89.7958 6.86538C89.7142 6.82516 89.6307 6.78493 89.5433 6.74375C89.5365 6.74375 89.5297 6.74375 89.5219 6.74375C89.3073 6.76195 89.0034 6.77152 88.647 6.75237C87.9275 6.72076 86.9973 6.57423 86.1777 6.13176C85.7534 5.91723 85.3533 5.62608 85.0057 5.31099C84.8357 5.152 84.659 4.99302 84.4949 4.83499C84.3328 4.67697 84.1842 4.51799 84.0473 4.36475C83.787 4.05636 83.5433 3.79011 83.3841 3.5909C83.2267 3.3917 83.1374 3.26623 83.1374 3.26623C83.1374 3.26623 83.3345 3.25761 83.6608 3.25523C83.9871 3.25283 84.4454 3.2624 84.962 3.30263C85.0921 3.31412 85.2261 3.3237 85.3611 3.33998C85.4951 3.35626 85.631 3.37446 85.767 3.39649C86.0408 3.43767 86.3205 3.49034 86.5972 3.55451C87.1478 3.6838 87.7061 3.85045 88.1334 4.08701C88.5703 4.32069 88.9063 4.60418 89.1627 4.89437C89.4083 5.1884 89.5618 5.49295 89.6734 5.76208C89.7764 6.03024 89.8317 6.26584 89.8521 6.43632C89.8579 6.46888 89.8589 6.49953 89.8608 6.52826C89.8929 6.54454 89.9249 6.56178 89.9579 6.57423C90.0783 6.63553 90.192 6.69012 90.2988 6.74088C90.4007 6.79834 90.4959 6.84814 90.5823 6.89603C90.9212 7.08087 91.1154 7.18814 91.1154 7.18814C91.1154 7.18814 91.3116 7.29349 91.6534 7.47928C91.9884 7.67083 92.4574 7.96581 93.0274 8.31059C94.1392 9.03081 95.5938 10.0403 96.9251 11.1914C98.2583 12.3369 99.4828 13.5896 100.349 14.5703C100.462 14.6891 100.556 14.8145 100.651 14.9266C100.749 15.0415 100.837 15.1497 100.921 15.2532C101.091 15.4572 101.239 15.6353 101.36 15.7828C101.484 15.9274 101.568 16.051 101.631 16.1314C101.691 16.2119 101.725 16.2559 101.725 16.2559C101.725 16.2559 101.855 16.4302 102.083 16.7329C102.195 16.888 102.34 17.0681 102.489 17.2855C102.639 17.5048 102.804 17.7519 102.984 18.0201C103.079 18.1551 103.171 18.2949 103.27 18.4405C103.366 18.5861 103.455 18.7451 103.555 18.9021C103.745 19.2182 103.95 19.5553 104.157 19.9029C104.35 20.2573 104.549 20.6251 104.749 21.0005C104.799 21.0944 104.851 21.1882 104.902 21.2821C104.947 21.3769 104.994 21.4736 105.039 21.5704C105.131 21.7648 105.224 21.9601 105.316 22.1546C106.048 23.7128 106.653 25.3247 106.994 26.562C107.042 26.7162 107.085 26.8628 107.126 27.0045C107.168 27.1463 107.213 27.2765 107.239 27.4048C107.301 27.6567 107.356 27.8789 107.398 28.0609C107.488 28.4229 107.538 28.6317 107.538 28.6317C107.538 28.6317 107.551 28.6844 107.574 28.7811C107.599 28.8788 107.622 29.0244 107.658 29.2073C107.691 29.3912 107.735 29.6153 107.781 29.871C107.827 30.1267 107.893 30.414 107.929 30.732C107.972 31.05 108.018 31.3938 108.066 31.7568C108.076 31.8487 108.092 31.9406 108.103 32.0326C108.114 32.1284 108.119 32.2232 108.129 32.318C108.143 32.5095 108.158 32.704 108.174 32.908C108.259 33.7019 108.259 34.5552 108.288 35.4095C108.259 36.2629 108.259 37.1153 108.174 37.913C108.158 38.1123 108.143 38.3067 108.129 38.5011C108.119 38.5969 108.114 38.6917 108.103 38.7827C108.092 38.8765 108.076 38.9713 108.066 39.0614C108.018 39.4234 107.972 39.7701 107.929 40.0871C107.893 40.4031 107.827 40.6914 107.781 40.9481C107.735 41.2038 107.691 41.425 107.658 41.6099C107.622 41.7938 107.599 41.9384 107.574 42.037C107.551 42.1338 107.538 42.1864 107.538 42.1864C107.538 42.1864 107.488 42.3933 107.398 42.7563C107.356 42.9392 107.301 43.1614 107.239 43.4123C107.213 43.5397 107.168 43.6738 107.126 43.8127C107.085 43.9544 107.042 44.1019 106.994 44.2561C106.653 45.4935 106.048 47.1044 105.316 48.6655C105.224 48.858 105.131 49.0533 105.039 49.2468C104.994 49.3445 104.947 49.4403 104.902 49.536C104.851 49.628 104.799 49.7247 104.749 49.8186C104.549 50.1911 104.35 50.5599 104.157 50.9152C103.95 51.2619 103.745 51.598 103.555 51.916C103.455 52.0731 103.366 52.2311 103.27 52.3767C103.171 52.5213 103.079 52.664 102.984 52.7981C102.804 53.0672 102.639 53.3143 102.489 53.5326C102.34 53.7501 102.195 53.9311 102.083 54.0843C101.855 54.3879 101.725 54.5622 101.725 54.5622C101.725 54.5622 101.691 54.6063 101.631 54.6877C101.568 54.7681 101.484 54.8907 101.36 55.0353C101.239 55.1819 101.091 55.361 100.921 55.5669C100.837 55.6684 100.749 55.7766 100.651 55.8915C100.556 56.0026 100.462 56.1291 100.349 56.2469C99.4828 57.2295 98.2583 58.4812 96.9251 59.6267C95.5938 60.776 94.1392 61.7854 93.0274 62.5085C92.4574 62.8523 91.9884 63.1463 91.6534 63.3388C91.3116 63.5256 91.1154 63.63 91.1154 63.63C91.1154 63.63 90.9212 63.7382 90.5823 63.9221C90.4959 63.969 90.4007 64.0207 90.2988 64.0763C90.192 64.128 90.0783 64.1826 89.9579 64.241C89.7142 64.3598 89.4394 64.4948 89.1384 64.6404C87.9256 65.1978 86.2806 65.8988 84.5619 66.4064C84.1395 66.552 83.7035 66.6545 83.2763 66.7723C83.0665 66.8307 82.8539 66.8882 82.6451 66.9437C82.4392 67.0012 82.2285 67.0386 82.0227 67.0864C81.6119 67.1755 81.2138 67.2617 80.838 67.345C80.4583 67.4082 80.0981 67.4686 79.766 67.5251C79.5999 67.5529 79.4426 67.5816 79.2921 67.6065C79.1387 67.6352 78.994 67.6458 78.8591 67.6649C78.5862 67.6975 78.3493 67.7243 78.1531 67.7492C77.7647 67.7971 77.5414 67.8239 77.5414 67.8239L77.5054 67.4963C77.5054 67.4963 77.7278 67.4705 78.1133 67.4236Z" fill="#F9F5E9"/>
<path fill-rule="evenodd" clip-rule="evenodd" d="M81.9395 67.1037C81.9395 67.1037 77.2484 68.2836 76.1939 72.5455L76.3259 67.5241L81.6268 66.8374L81.9395 67.1037Z" fill="#F9F5E9"/>
</g>
<g clip-path="url(#clip2_12_3843)">
<path fill-rule="evenodd" clip-rule="evenodd" d="M28.7929 65.6899C28.5851 65.688 28.3667 65.7014 28.1346 65.732C28.0754 65.7416 28.0142 65.7512 27.9559 65.7617C27.8957 65.7703 27.8384 65.7809 27.7763 65.7904C27.6559 65.8134 27.5287 65.8422 27.4024 65.8757C26.8926 66.0117 26.3343 66.2339 25.776 66.4877C25.2293 66.7242 24.6777 66.9905 24.1825 67.2424C23.6892 67.4923 23.2503 67.7318 22.9415 67.8927C22.6327 68.0555 22.4463 68.1599 22.4463 68.1599C22.4463 68.1599 22.4948 68.1771 22.5919 68.2135C22.6861 68.2441 22.8211 68.2968 22.994 68.3437C23.3416 68.4414 23.829 68.5688 24.3806 68.678C24.5194 68.7058 24.6583 68.7364 24.8059 68.7575C24.9545 68.7786 25.1059 68.7948 25.2565 68.8111C25.5614 68.8427 25.8721 68.8667 26.1838 68.8743C26.8004 68.9002 27.4228 68.8236 27.9569 68.678C29.025 68.3916 29.7494 67.7432 30.199 67.204C30.6515 66.662 30.8438 66.2061 30.8438 66.2061C30.8438 66.2061 30.4777 65.9724 29.8679 65.8326C29.5639 65.7607 29.2056 65.6899 28.7929 65.6899Z" fill="#F9F5E9"/>
<path fill-rule="evenodd" clip-rule="evenodd" d="M30.4294 61.4987C30.1798 61.108 29.8507 60.7661 29.5098 60.4309C29.3409 60.2642 29.1641 60.1129 28.9845 59.9712C28.8932 59.8993 28.8058 59.8323 28.7223 59.7672C28.6388 59.6972 28.5543 59.6302 28.4718 59.567C28.1426 59.3161 27.8416 59.115 27.6241 58.9799C27.4066 58.8334 27.2735 58.7529 27.2735 58.7529C27.2735 58.7529 27.2716 58.9426 27.2842 59.2548C27.292 59.5737 27.326 59.9941 27.3949 60.4778C27.4648 60.9605 27.5726 61.5016 27.728 62.0303C27.8882 62.5417 28.1028 63.0397 28.365 63.4525C28.4281 63.5559 28.497 63.6536 28.5679 63.7446C28.6019 63.7915 28.6388 63.8337 28.6767 63.8768C28.7136 63.917 28.7495 63.9563 28.7874 63.9946C28.9408 64.1459 29.101 64.2752 29.2622 64.3853C29.4224 64.4964 29.5827 64.5893 29.74 64.664C29.8953 64.7378 30.0478 64.8039 30.1925 64.8422C30.7731 65.004 31.1965 64.9763 31.1965 64.9763C31.1965 64.9763 31.2635 64.4869 31.1936 63.8126C31.1586 63.4745 31.0936 63.0905 30.9712 62.6978C30.9411 62.6001 30.9081 62.4996 30.8683 62.4019C30.8343 62.3004 30.7945 62.1979 30.7479 62.0964C30.6576 61.8952 30.5547 61.6922 30.4294 61.4987Z" fill="#F9F5E9"/>
<path fill-rule="evenodd" clip-rule="evenodd" d="M22.163 62.6588C22.1271 62.6243 22.0718 62.5802 22.0048 62.5208C21.8659 62.4021 21.66 62.245 21.392 62.0956C21.2551 62.019 21.1075 61.9462 20.9376 61.8792C20.7706 61.8112 20.5832 61.7518 20.3899 61.6905C19.9976 61.5775 19.5374 61.5066 19.0004 61.5171C18.7295 61.5229 18.4518 61.5373 18.1605 61.565C17.8711 61.5928 17.571 61.634 17.271 61.6828C16.9671 61.7307 16.6612 61.7882 16.365 61.8437C16.0756 61.9022 15.7873 61.9596 15.5144 62.0142C14.9706 62.1282 14.487 62.2374 14.1423 62.3197C13.7918 62.403 13.584 62.4586 13.584 62.4586C13.584 62.4586 13.7627 62.5802 14.0676 62.7679C14.2152 62.8618 14.3997 62.97 14.6065 63.0878C14.7075 63.1462 14.8182 63.2075 14.9337 63.2698C15.0493 63.3301 15.1726 63.3885 15.2998 63.4479C15.5542 63.5657 15.8261 63.6835 16.1067 63.7965C16.2495 63.8502 16.3893 63.9038 16.5359 63.9555C16.6087 63.9823 16.6806 64.0082 16.7534 64.0312C16.8272 64.0513 16.902 64.0733 16.9777 64.0944C17.5769 64.2563 18.1847 64.3626 18.7353 64.3607C19.8627 64.329 20.7288 63.9134 21.3144 63.5102C21.6066 63.3138 21.8348 63.1079 21.9873 62.9576C22.1388 62.8082 22.2174 62.7105 22.2174 62.7105C22.2174 62.7105 22.199 62.6923 22.163 62.6588Z" fill="#F9F5E9"/>
<path fill-rule="evenodd" clip-rule="evenodd" d="M20.6096 59.4265C20.7504 59.8795 20.9679 60.2549 21.2096 60.5547C21.3281 60.7098 21.4602 60.8343 21.5922 60.9416C21.7233 61.0508 21.8573 61.1437 21.9845 61.2232C22.237 61.3812 22.4681 61.4808 22.6332 61.5421C22.7157 61.5746 22.7885 61.59 22.8332 61.6015C22.8847 61.6129 22.909 61.6177 22.909 61.6177C22.909 61.6177 22.9604 61.5038 23.0235 61.3093C23.0886 61.113 23.1682 60.8362 23.2313 60.4982C23.3615 59.8239 23.4178 58.939 23.1498 58.0732C23.0255 57.6288 22.8138 57.1997 22.5662 56.8061C22.3283 56.4048 22.0651 56.0236 21.8068 55.7085C21.6757 55.5534 21.5631 55.3973 21.4534 55.2642C21.3466 55.1291 21.2446 55.0142 21.1601 54.9184C20.9921 54.7269 20.8805 54.6187 20.8805 54.6187C20.8805 54.6187 20.8251 54.8006 20.7523 55.1013C20.6795 55.4011 20.5882 55.8263 20.5154 56.31C20.4804 56.5542 20.4445 56.8166 20.4241 57.0819C20.4085 57.3434 20.3998 57.6135 20.4047 57.8826C20.4085 58.1527 20.4241 58.4237 20.4571 58.6861C20.4921 58.9457 20.5348 59.2023 20.6096 59.4265Z" fill="#F9F5E9"/>
<path fill-rule="evenodd" clip-rule="evenodd" d="M14.4433 56.602C14.3413 56.4574 14.1967 56.2496 13.9811 56.0331C13.7675 55.8167 13.4859 55.5916 13.1334 55.3819C12.7916 55.1674 12.3711 54.9758 11.8536 54.8436C11.6817 54.7986 11.4962 54.7613 11.3108 54.7239C11.1253 54.6856 10.935 54.654 10.7369 54.6234C9.76197 54.4788 8.65499 54.4242 7.82282 54.3724C6.97899 54.3265 6.37695 54.3169 6.37695 54.3169C6.37695 54.3169 6.58281 54.5707 6.93335 54.9471C7.27321 55.3273 7.79854 55.7966 8.38019 56.2525C8.47147 56.3224 8.56274 56.3885 8.65208 56.4574C8.69966 56.4909 8.7453 56.5235 8.79482 56.5589C8.8424 56.5905 8.89192 56.6202 8.94047 56.6528C9.13759 56.7763 9.3386 56.8961 9.54251 57.0043C9.74449 57.1135 9.9484 57.2131 10.1552 57.2964C10.3592 57.3826 10.5582 57.4582 10.768 57.5071C11.8575 57.7743 12.8071 57.6086 13.4898 57.374C14.1782 57.1336 14.5938 56.8405 14.5938 56.8405C14.5938 56.8405 14.5462 56.7486 14.4433 56.602Z" fill="#F9F5E9"/>
<path fill-rule="evenodd" clip-rule="evenodd" d="M14.8031 55.3512C15.0002 55.5705 15.1867 55.7324 15.3343 55.8301C15.4809 55.9287 15.578 55.9728 15.578 55.9728C15.578 55.9728 15.9043 55.5935 16.216 54.9882C16.5345 54.3762 16.8549 53.5334 16.8481 52.6351C16.852 52.3028 16.8151 51.957 16.7471 51.6247C16.7141 51.46 16.6704 51.2952 16.6228 51.1324C16.5752 50.9753 16.5354 50.8087 16.484 50.6536C16.3995 50.3835 16.3043 50.1287 16.2101 49.9008C16.1849 49.8443 16.1596 49.7887 16.1383 49.7332C16.114 49.6786 16.0956 49.6259 16.0732 49.5723C16.0324 49.4679 15.9936 49.3721 15.9548 49.284C15.8013 48.9306 15.6838 48.7161 15.6838 48.7161C15.6838 48.7161 15.3857 49.1605 15.0381 49.8347C14.9497 50.0033 14.8585 50.1843 14.7691 50.3796C14.7254 50.4764 14.6808 50.5779 14.638 50.6765C14.5943 50.7771 14.5574 50.8796 14.5147 50.984C14.3593 51.3977 14.2205 51.8431 14.1273 52.2836C14.0884 52.4541 14.0603 52.6217 14.0379 52.7864C14.0175 52.9502 14.0117 53.1082 14.0117 53.2605C14.0117 53.7384 14.1108 54.1531 14.2525 54.5075C14.405 54.8551 14.6089 55.1319 14.8031 55.3512Z" fill="#F9F5E9"/>
<path fill-rule="evenodd" clip-rule="evenodd" d="M7.18738 49.4132C7.39809 49.4228 7.59618 49.4199 7.78165 49.4084C8.51186 49.3615 8.99544 49.1901 8.99544 49.1901C8.99544 49.1901 8.97699 49.0876 8.92164 48.919C8.89542 48.8357 8.85561 48.738 8.80803 48.626C8.7653 48.5101 8.71093 48.3865 8.64101 48.2544C8.49827 47.9881 8.30309 47.6941 8.02052 47.4029C7.95546 47.3369 7.88361 47.265 7.80301 47.1827C7.72727 47.108 7.64376 47.0352 7.55637 46.9624C7.38061 46.8178 7.18058 46.677 6.95433 46.5429C6.72614 46.4107 6.47561 46.2843 6.20469 46.1627C5.94931 46.0382 5.67257 45.9204 5.39388 45.8045C4.83554 45.5766 4.24904 45.3687 3.71788 45.1906C3.1945 45.0086 2.73423 44.8535 2.39534 44.7462C2.05839 44.638 1.85156 44.5776 1.85156 44.5776C1.85156 44.5776 1.92827 44.7721 2.07587 45.0843C2.1487 45.2413 2.23609 45.431 2.34776 45.6331C2.46331 45.8371 2.59343 46.0564 2.73811 46.2881C2.8828 46.5199 3.04399 46.7593 3.21489 46.9997C3.25762 47.0582 3.30131 47.1185 3.34792 47.1769C3.39259 47.2334 3.4392 47.2909 3.49066 47.3512C3.58679 47.4671 3.68778 47.5801 3.78974 47.6903C3.99657 47.9144 4.21117 48.126 4.43159 48.3157C4.54229 48.4133 4.65202 48.5034 4.76951 48.5867C4.88798 48.6671 5.00644 48.7438 5.12782 48.8127C5.60751 49.0876 6.08914 49.2475 6.53873 49.3347C6.76401 49.3797 6.98249 49.4017 7.18738 49.4132Z" fill="#F9F5E9"/>
<path fill-rule="evenodd" clip-rule="evenodd" d="M9.35732 46.8618C9.40393 47.2306 9.51074 47.5543 9.63212 47.8177C9.69329 47.9498 9.75835 48.0657 9.8205 48.1663C9.88362 48.2668 9.95256 48.3502 10.0069 48.4153C10.1186 48.5494 10.1973 48.6174 10.1973 48.6174C10.1973 48.6174 10.6226 48.3396 11.1013 47.8397C11.2207 47.7161 11.3411 47.5782 11.4645 47.4279C11.5926 47.2737 11.715 47.108 11.8315 46.9327C12.0636 46.5803 12.2704 46.1847 12.4015 45.7518C12.4355 45.6427 12.4598 45.5335 12.4869 45.4205C12.5141 45.3075 12.5365 45.1925 12.5569 45.0786C12.5938 44.8477 12.618 44.615 12.6248 44.3852C12.6326 43.9293 12.6404 43.4715 12.6064 43.0759C12.5908 42.8767 12.5705 42.69 12.5481 42.5243C12.5345 42.3557 12.52 42.2063 12.5015 42.0837C12.4734 41.8338 12.4433 41.6863 12.4433 41.6863C12.4433 41.6863 12.2937 41.8098 12.0597 42.0272C11.8257 42.2437 11.5052 42.5549 11.1644 42.9304C10.8352 43.301 10.4905 43.7358 10.1914 44.1965C10.038 44.4273 9.89818 44.6639 9.77486 44.9023C9.65639 45.136 9.56512 45.3707 9.49326 45.6015C9.42335 45.8285 9.38159 46.0506 9.35732 46.2604C9.34566 46.3667 9.33887 46.4701 9.33887 46.5697C9.33887 46.6205 9.33887 46.6703 9.34081 46.7182C9.34566 46.7651 9.35052 46.813 9.35732 46.8618Z" fill="#F9F5E9"/>
<path fill-rule="evenodd" clip-rule="evenodd" d="M2.93562 39.9183C3.14245 40.061 3.35122 40.1788 3.55902 40.2784C3.97462 40.4757 4.37954 40.5945 4.73397 40.6663C5.44573 40.809 5.95941 40.7688 5.95941 40.7688C5.95941 40.7688 6.01961 40.3531 5.88561 39.7756C5.85648 39.6281 5.80016 39.4739 5.75064 39.3102C5.6982 39.1445 5.62926 38.9721 5.5409 38.7968C5.4535 38.6196 5.34183 38.4367 5.2088 38.2538C5.1418 38.1618 5.07092 38.0689 4.99129 37.977C4.95148 37.931 4.9107 37.885 4.867 37.8372C4.82816 37.7912 4.7864 37.7462 4.74077 37.6983C4.04259 36.9551 2.91231 36.1918 2.02188 35.5721C1.56938 35.2647 1.1596 35.0004 0.861498 34.8098C0.563391 34.6201 0.376953 34.51 0.376953 34.51C0.376953 34.51 0.4022 34.7159 0.461433 35.055C0.521637 35.394 0.610972 35.8614 0.749829 36.3785C0.909078 36.8967 1.11494 37.4636 1.36935 37.9971C1.43052 38.1302 1.50335 38.2605 1.58103 38.3888C1.65774 38.5143 1.7364 38.6407 1.81796 38.7595C1.98207 38.9989 2.15879 39.223 2.3462 39.4145C2.53847 39.6099 2.72685 39.7775 2.93562 39.9183Z" fill="#F9F5E9"/>
<path fill-rule="evenodd" clip-rule="evenodd" d="M7.27907 40.5245C7.27907 40.5245 7.77041 40.3646 8.37633 40.0054C8.68415 39.8244 9.01721 39.5965 9.33571 39.3187C9.49496 39.178 9.64838 39.0266 9.79404 38.8619C9.94649 38.6953 10.0931 38.5171 10.2213 38.3246C10.3514 38.1321 10.4631 37.9252 10.5621 37.7136C10.6612 37.5029 10.7311 37.2864 10.8175 37.0652C10.9797 36.6266 11.0875 36.186 11.1642 35.7962C11.2613 35.4007 11.3186 35.0549 11.3535 34.8078C11.3865 34.5588 11.3962 34.4094 11.3962 34.4094C11.3962 34.4094 11.2205 34.4908 10.936 34.6402C10.6515 34.7925 10.264 35.0099 9.83385 35.2848C9.40854 35.5597 8.93079 35.8929 8.5249 36.2598C8.11027 36.6266 7.7306 37.0298 7.45385 37.4378C7.31111 37.6389 7.22178 37.841 7.14021 38.0383C7.06544 38.2346 7.013 38.4281 6.97805 38.6148C6.94309 38.7997 6.92464 38.9778 6.9227 39.1444C6.91687 39.3101 6.94309 39.4672 6.96542 39.608C7.06544 40.175 7.27907 40.5245 7.27907 40.5245Z" fill="#F9F5E9"/>
<path fill-rule="evenodd" clip-rule="evenodd" d="M1.81797 27.352C1.85195 27.5723 1.89273 27.7935 1.94129 28.01C2.04616 28.4419 2.16948 28.8509 2.37242 29.21C2.63072 29.6841 2.95019 30.0624 3.28714 30.3612C3.62505 30.6591 3.96977 30.8784 4.29604 31.0402C4.94663 31.3668 5.4535 31.4626 5.4535 31.4626C5.4535 31.4626 5.49623 31.3678 5.53896 31.1983C5.57974 31.0259 5.64674 30.7845 5.67199 30.4905C5.70015 30.1936 5.69432 29.845 5.61664 29.4571C5.54867 29.0702 5.42535 28.6469 5.18259 28.1929C5.10199 28.0435 5.01071 27.8864 4.9107 27.7303C4.86215 27.6547 4.81068 27.5752 4.75728 27.4947C4.70678 27.4181 4.65435 27.3357 4.60288 27.2582C4.33294 26.8645 4.029 26.4661 3.72216 26.0859C3.41725 25.7057 3.10847 25.3408 2.85017 25.0314C2.32581 24.407 1.92866 23.9731 1.92866 23.9731C1.92866 23.9731 1.86749 24.2921 1.80437 24.7882C1.7665 25.0372 1.75388 25.3341 1.74417 25.6559C1.73543 25.9777 1.73543 26.3282 1.75096 26.6854C1.75679 26.9028 1.78592 27.1289 1.81797 27.352Z" fill="#F9F5E9"/>
<path fill-rule="evenodd" clip-rule="evenodd" d="M10.2552 30.2366C10.3203 30.183 10.3814 30.1246 10.4426 30.0652C10.5057 30.0048 10.5708 29.9435 10.63 29.8803C10.7563 29.7568 10.8689 29.6246 10.9777 29.4886C11.0835 29.3545 11.1855 29.2157 11.2806 29.0749C11.3806 28.9255 11.4709 28.7856 11.5574 28.6554C11.7147 28.4169 11.8506 28.1784 11.9681 27.9601C12.0273 27.8499 12.0807 27.7427 12.1293 27.644C12.174 27.5425 12.2313 27.4515 12.2749 27.3653C12.4517 27.0244 12.541 26.7993 12.541 26.7993C12.541 26.7993 11.9953 26.8846 11.2272 27.0886C11.0398 27.1384 10.8291 27.1949 10.6252 27.2648C10.4183 27.3309 10.2037 27.4075 9.9872 27.4908C9.55412 27.6565 9.1123 27.8547 8.70156 28.0817C8.38014 28.2551 8.1102 28.4524 7.8655 28.6583C7.49359 28.9753 7.22656 29.3229 7.05177 29.661C6.88573 30.001 6.79833 30.3305 6.75852 30.6139C6.71968 30.9003 6.71288 31.1388 6.74007 31.3093C6.76144 31.4788 6.79251 31.5774 6.79251 31.5774C6.79251 31.5774 7.30715 31.5525 7.99076 31.3658C8.6734 31.1809 9.55703 30.8438 10.2552 30.2366Z" fill="#F9F5E9"/>
<path fill-rule="evenodd" clip-rule="evenodd" d="M5.93695 20.7552C6.17874 21.1335 6.45451 21.44 6.71572 21.6833C7.23813 22.1669 7.69646 22.3949 7.69646 22.3949C7.69646 22.3949 7.7654 22.3135 7.86153 22.165C7.95961 22.0146 8.07322 21.7905 8.1878 21.5147C8.30627 21.2398 8.40531 20.9056 8.45192 20.5129C8.47425 20.3204 8.47425 20.1069 8.47425 19.8875C8.47328 19.6663 8.44998 19.4326 8.40531 19.1846C8.35967 18.9356 8.2917 18.6731 8.2111 18.405C8.17032 18.2709 8.12468 18.133 8.07807 17.997C8.03049 17.8629 7.9868 17.7259 7.93824 17.589C7.74598 17.0431 7.51973 16.4924 7.30708 15.9992C7.19929 15.7549 7.0983 15.5222 7.00606 15.3115C6.91381 15.1046 6.83127 14.9198 6.76136 14.7656C6.6225 14.4534 6.53511 14.2676 6.53511 14.2676C6.53511 14.2676 6.43218 14.4534 6.28361 14.7656C6.20301 14.9179 6.12824 15.1113 6.04279 15.3249C5.95928 15.5423 5.87092 15.7827 5.78547 16.0375C5.74469 16.1648 5.70293 16.298 5.65924 16.432C5.62039 16.5671 5.57961 16.704 5.54854 16.8487C5.48542 17.1312 5.43201 17.4271 5.3922 17.7183C5.35336 18.0104 5.32617 18.3025 5.32617 18.5841C5.33103 18.8723 5.35822 19.151 5.40871 19.4106C5.51164 19.9325 5.70293 20.3788 5.93695 20.7552Z" fill="#F9F5E9"/>
<path fill-rule="evenodd" clip-rule="evenodd" d="M13.2926 22.1562C13.4995 22.0317 13.7024 21.8919 13.8898 21.7473C14.0792 21.5998 14.253 21.4475 14.42 21.2952C14.588 21.1458 14.757 20.9983 14.9016 20.8547C15.0502 20.711 15.1823 20.5721 15.2998 20.4476C15.358 20.3825 15.4134 20.3222 15.4639 20.2676C15.5153 20.212 15.5639 20.1622 15.6066 20.1153C15.7853 19.9276 15.8814 19.8098 15.8814 19.8098C15.8814 19.8098 15.6843 19.7858 15.3551 19.7657C15.0288 19.7446 14.5647 19.7217 14.0559 19.7408C13.5461 19.7571 12.9693 19.8031 12.4051 19.895C12.2614 19.9199 12.1196 19.9448 11.9808 19.9735C11.8458 20.0071 11.7128 20.0406 11.5817 20.0789C11.3205 20.1536 11.069 20.2436 10.8418 20.3471C10.6136 20.4476 10.4097 20.5635 10.229 20.689C10.0455 20.8135 9.90083 20.9543 9.76683 21.0922C9.5066 21.3737 9.3221 21.663 9.19198 21.9254C9.06866 22.1869 9.01525 22.4244 8.98418 22.591C8.95117 22.7596 8.9502 22.8611 8.9502 22.8611C8.9502 22.8611 9.45125 22.976 10.164 22.9789C10.5223 22.9827 10.9272 22.9578 11.3535 22.8841C11.7885 22.8142 12.2391 22.6954 12.6722 22.5029C12.8858 22.4043 13.0907 22.2874 13.2926 22.1562Z" fill="#F9F5E9"/>
<path fill-rule="evenodd" clip-rule="evenodd" d="M11.0401 12.5992C11.1634 13.0234 11.3402 13.3883 11.5217 13.6872C11.8849 14.2829 12.2578 14.6181 12.2578 14.6181C12.2578 14.6181 12.6248 14.3825 12.9919 13.9036C13.0851 13.7829 13.1773 13.6479 13.2647 13.4947C13.3531 13.3472 13.4463 13.1824 13.524 13.0033C13.6833 12.6432 13.8008 12.2094 13.8483 11.7047C13.9047 11.2057 13.894 10.6368 13.8522 10.0554C13.8075 9.4674 13.7551 8.89181 13.692 8.3641C13.6269 7.83735 13.559 7.37093 13.5094 7.03285C13.4551 6.69956 13.423 6.49365 13.423 6.49365C13.423 6.49365 13.3822 6.52813 13.3181 6.60283C13.255 6.67658 13.1628 6.78193 13.0501 6.91697C12.8249 7.18609 12.52 7.56439 12.2063 8.00878C11.9092 8.46753 11.6033 8.99237 11.3586 9.52774C11.1217 10.0746 10.9556 10.6435 10.9003 11.1645C10.8867 11.2967 10.8809 11.4231 10.8809 11.5495C10.8809 11.675 10.8915 11.7995 10.9042 11.9201C10.9314 12.1615 10.9799 12.3885 11.0401 12.5992Z" fill="#F9F5E9"/>
<path fill-rule="evenodd" clip-rule="evenodd" d="M17.7337 15.819C17.8493 15.7826 17.961 15.7414 18.0765 15.6964C18.1309 15.6753 18.1862 15.6533 18.2426 15.6303C18.3008 15.6063 18.3552 15.5862 18.4125 15.5642C18.866 15.3851 19.2796 15.1648 19.6399 14.958C20.0118 14.7655 20.3176 14.572 20.5342 14.4322C20.6429 14.3594 20.7284 14.299 20.7847 14.2598C20.8478 14.2196 20.8799 14.1994 20.8799 14.1994C20.8799 14.1994 20.8333 14.1822 20.7478 14.1487C20.6604 14.1161 20.5381 14.073 20.3856 14.0251C20.0807 13.9265 19.6467 13.7972 19.1456 13.6794C18.8931 13.621 18.6271 13.5645 18.3484 13.5166C18.2105 13.4936 18.0687 13.4697 17.9289 13.4505C17.7881 13.4342 17.6473 13.4199 17.5075 13.4084C16.9414 13.3614 16.3743 13.3633 15.8703 13.4428C15.3741 13.5252 14.9682 13.6976 14.6303 13.8939C14.4604 13.9935 14.307 14.0998 14.1778 14.2119C14.0477 14.3249 13.9399 14.4417 13.8457 14.5519C13.4641 15.0001 13.335 15.3842 13.335 15.3842C13.335 15.3842 13.7875 15.6245 14.4788 15.8123C14.8236 15.908 15.2265 15.9904 15.6596 16.0297C16.0946 16.0708 16.5452 16.0555 17.0258 15.9875C17.2676 15.9502 17.5026 15.8908 17.7337 15.819Z" fill="#F9F5E9"/>
<path fill-rule="evenodd" clip-rule="evenodd" d="M19.0474 7.73386C19.1377 7.92349 19.2008 8.02884 19.2008 8.02884C19.2008 8.02884 19.228 8.02118 19.2736 8.00011C19.3212 7.98287 19.3882 7.95605 19.4727 7.91583C19.6407 7.84017 19.8698 7.7195 20.1175 7.53657C20.602 7.16018 21.2002 6.6047 21.5818 5.64984C21.7119 5.33667 21.8304 4.99284 21.9304 4.62507C22.0576 4.16824 22.1625 3.68171 22.2537 3.20859C22.3499 2.74697 22.4334 2.29588 22.5013 1.89746C22.6353 1.10446 22.7082 0.532696 22.7082 0.531738C22.7082 0.531738 22.4207 0.703172 21.9916 0.99911C21.7799 1.14373 21.5303 1.32282 21.2672 1.5249C21.0098 1.73752 20.7389 1.97504 20.4729 2.22883C20.3078 2.3859 20.1485 2.54776 19.9932 2.71536C19.9553 2.75654 19.9145 2.79773 19.8766 2.84082C19.8417 2.88392 19.8048 2.92798 19.7679 2.97395C19.698 3.06397 19.629 3.154 19.5591 3.24498C19.2911 3.60605 19.0639 3.98148 18.9076 4.35212C18.8027 4.59155 18.7376 4.84535 18.692 5.08095C18.6483 5.31847 18.626 5.54737 18.623 5.7686C18.6133 6.2082 18.6774 6.60278 18.7658 6.93799C18.8522 7.27319 18.96 7.54327 19.0474 7.73386Z" fill="#F9F5E9"/>
<path fill-rule="evenodd" clip-rule="evenodd" d="M25.4893 10.4673C25.7806 10.4118 26.0544 10.3448 26.3059 10.2796C26.5594 10.2231 26.7895 10.1628 26.9818 10.1082C27.3634 9.9971 27.5993 9.90612 27.5993 9.90612C27.5993 9.90612 27.1653 9.58049 26.4972 9.18399C26.1661 8.9867 25.7738 8.77025 25.3456 8.57009C24.9261 8.37471 24.4784 8.20136 24.0298 8.06824C23.6841 7.96672 23.3385 7.88723 23.0122 7.85275C22.0169 7.76464 21.2313 8.04621 20.7439 8.3862C20.4943 8.55093 20.3108 8.71662 20.1875 8.84112C20.1263 8.90146 20.0806 8.95414 20.0515 8.98957C20.0224 9.02884 20.0088 9.04895 20.0088 9.04895C20.0088 9.04895 20.0981 9.1361 20.2651 9.26731C20.4322 9.40044 20.6769 9.57857 20.9808 9.75959C21.2847 9.94443 21.6479 10.1302 22.0509 10.2835C22.2538 10.3582 22.4674 10.4281 22.6879 10.4798C22.9083 10.5344 23.1345 10.5708 23.3773 10.6024C24.0813 10.6886 24.8115 10.5756 25.4893 10.4673Z" fill="#F9F5E9"/>
<path fill-rule="evenodd" clip-rule="evenodd" d="M35.8867 66.4236C35.6954 66.3996 35.4585 66.3718 35.1914 66.3402C35.0555 66.3201 34.9118 66.3115 34.7622 66.2837C34.6137 66.2579 34.4564 66.2301 34.2932 66.2023C33.9641 66.1468 33.6087 66.0874 33.2309 66.0232C32.8581 65.9418 32.4658 65.8556 32.0608 65.7694C31.855 65.7215 31.6472 65.6832 31.4413 65.6277C31.2355 65.5712 31.0267 65.5156 30.815 65.4582C30.3946 65.3423 29.9624 65.2398 29.5439 65.0952C27.8417 64.5933 26.2143 63.899 25.0141 63.3464C24.7198 63.2018 24.4441 63.0686 24.2042 62.9527C24.0819 62.8943 23.9712 62.8388 23.8673 62.7871C23.7634 62.7353 23.6711 62.6817 23.5867 62.6376C23.2478 62.4528 23.0574 62.3465 23.0574 62.3465C23.0574 62.3465 22.8652 62.2431 22.5253 62.0582C22.1903 61.8676 21.7271 61.5746 21.1659 61.2355C20.0657 60.522 18.6237 59.5222 17.308 58.3834C15.9864 57.2485 14.7726 56.0092 13.9181 55.0371C13.8055 54.9203 13.7113 54.7986 13.6151 54.6847C13.5209 54.5707 13.4336 54.4653 13.3491 54.3629C13.1811 54.1617 13.0345 53.9846 12.9141 53.838C12.7917 53.6953 12.7082 53.5727 12.648 53.4933C12.5878 53.4109 12.5538 53.3697 12.5538 53.3697C12.5538 53.3697 12.4266 53.1983 12.2003 52.8956C12.0896 52.7453 11.9459 52.5662 11.7983 52.3497C11.6527 52.1333 11.4857 51.8881 11.307 51.6218C11.2157 51.4897 11.1215 51.3508 11.0264 51.2062C10.9273 51.0616 10.8419 50.9074 10.7448 50.7513C10.5515 50.4352 10.3534 50.1029 10.1466 49.76C9.95823 49.4066 9.76014 49.0427 9.56011 48.674C9.50865 48.5801 9.45912 48.4872 9.40863 48.3953C9.36396 48.2985 9.32027 48.2028 9.27269 48.1079C9.18141 47.9164 9.09013 47.7239 8.99691 47.5304C8.27544 45.9885 7.67825 44.3929 7.33742 43.1661C7.29081 43.0138 7.24809 42.8672 7.20536 42.7293C7.16458 42.5905 7.12282 42.4593 7.0966 42.3347C7.0364 42.0838 6.97911 41.8635 6.93833 41.6835C6.85093 41.3234 6.7985 41.1175 6.7985 41.1175C6.7985 41.1175 6.78685 41.0658 6.7616 40.969C6.74024 40.8752 6.71596 40.7296 6.68003 40.5467C6.64605 40.3657 6.60526 40.1463 6.55962 39.8916C6.51204 39.6397 6.44698 39.3543 6.413 39.0382C6.37027 38.7241 6.32463 38.3841 6.27705 38.024C6.2654 37.9349 6.25084 37.843 6.24113 37.7511C6.2285 37.6591 6.22365 37.5653 6.21491 37.4685C6.20228 37.2799 6.18384 37.0845 6.16927 36.8872C6.08576 36.099 6.08576 35.2533 6.05954 34.4095C6.08576 33.5639 6.08576 32.7191 6.16927 31.93C6.18384 31.7336 6.20228 31.5392 6.21491 31.3496C6.22365 31.2538 6.2285 31.16 6.24113 31.068C6.25084 30.9751 6.2654 30.8832 6.27705 30.7932C6.32463 30.434 6.37027 30.0921 6.413 29.7789C6.44698 29.4629 6.51204 29.1803 6.55962 28.9256C6.60526 28.6727 6.64605 28.4525 6.68003 28.2705C6.71596 28.0895 6.74024 27.9439 6.7616 27.8481C6.78685 27.7514 6.7985 27.6997 6.7985 27.6997C6.7985 27.6997 6.85093 27.4947 6.93833 27.1346C6.97911 26.9546 7.0364 26.7362 7.0966 26.4853C7.12282 26.3598 7.16458 26.2267 7.20536 26.0888C7.24809 25.949 7.29081 25.8043 7.33742 25.6511C7.67825 24.4262 8.27544 22.8306 8.99691 21.2867C9.09013 21.0961 9.18141 20.9008 9.27269 20.7102C9.32027 20.6135 9.36396 20.5206 9.40863 20.4238C9.45912 20.3309 9.50865 20.238 9.56011 20.1432C9.76014 19.7735 9.95823 19.4096 10.1466 19.0581C10.3534 18.7152 10.5515 18.3829 10.7448 18.0678C10.8419 17.9127 10.9273 17.7556 11.0264 17.6119C11.1215 17.4673 11.2157 17.3294 11.307 17.1953C11.4857 16.9291 11.6527 16.6839 11.7983 16.4684C11.9459 16.252 12.0896 16.0738 12.2003 15.9225C12.4266 15.6208 12.5538 15.4494 12.5538 15.4494C12.5538 15.4494 12.5878 15.4063 12.648 15.3249C12.7082 15.2454 12.7917 15.1228 12.9141 14.9801C13.0345 14.8345 13.1811 14.6583 13.3491 14.4553C13.4336 14.3537 13.5209 14.2465 13.6151 14.1306C13.7113 14.0195 13.8055 13.8979 13.9181 13.7801C14.7726 12.8099 15.9864 11.5696 17.308 10.4337C18.6237 9.29501 20.0657 8.29705 21.1659 7.58067C21.7271 7.2426 22.1903 6.94953 22.5253 6.76086C22.8652 6.57602 23.0574 6.46971 23.0574 6.46971C23.0574 6.46971 23.2478 6.36532 23.5867 6.18047C23.6711 6.13546 23.7634 6.08566 23.8673 6.02915C23.9712 5.97935 24.0819 5.9238 24.2042 5.86538C24.2858 5.82516 24.3693 5.78493 24.4567 5.74375C24.4635 5.74375 24.4703 5.74375 24.4781 5.74375C24.6927 5.76195 24.9966 5.77152 25.353 5.75237C26.0725 5.72076 27.0027 5.57423 27.8223 5.13176C28.2466 4.91723 28.6467 4.62608 28.9943 4.31099C29.1643 4.152 29.341 3.99302 29.5051 3.83499C29.6672 3.67697 29.8158 3.51799 29.9527 3.36475C30.213 3.05636 30.4567 2.79011 30.6159 2.5909C30.7733 2.3917 30.8626 2.26623 30.8626 2.26623C30.8626 2.26623 30.6655 2.25761 30.3392 2.25523C30.0129 2.25283 29.5546 2.2624 29.038 2.30263C28.9079 2.31412 28.7739 2.3237 28.6389 2.33998C28.5049 2.35626 28.369 2.37446 28.233 2.39649C27.9592 2.43767 27.6795 2.49034 27.4028 2.55451C26.8522 2.6838 26.2939 2.85045 25.8666 3.08701C25.4297 3.32069 25.0937 3.60418 24.8373 3.89437C24.5917 4.1884 24.4382 4.49295 24.3266 4.76208C24.2236 5.03024 24.1683 5.26584 24.1479 5.43632C24.1421 5.46888 24.1411 5.49953 24.1392 5.52826C24.1071 5.54454 24.0751 5.56178 24.0421 5.57423C23.9217 5.63553 23.808 5.69012 23.7012 5.74088C23.5993 5.79834 23.5041 5.84814 23.4177 5.89603C23.0788 6.08087 22.8846 6.18814 22.8846 6.18814C22.8846 6.18814 22.6884 6.29349 22.3466 6.47928C22.0116 6.67083 21.5426 6.96581 20.9726 7.31059C19.8608 8.03081 18.4062 9.04025 17.0749 10.1914C15.7417 11.3369 14.5172 12.5896 13.6511 13.5703C13.5384 13.6891 13.4442 13.8145 13.3491 13.9266C13.251 14.0415 13.1626 14.1497 13.0791 14.2532C12.9092 14.4572 12.7606 14.6353 12.6402 14.7828C12.5159 14.9274 12.4324 15.051 12.3693 15.1314C12.3091 15.2119 12.2751 15.2559 12.2751 15.2559C12.2751 15.2559 12.145 15.4302 11.9168 15.7329C11.8051 15.888 11.6604 16.0681 11.5109 16.2855C11.3614 16.5048 11.1963 16.7519 11.0157 17.0201C10.9215 17.1551 10.8292 17.2949 10.7302 17.4405C10.6341 17.5861 10.5447 17.7451 10.4447 17.9021C10.2554 18.2182 10.0505 18.5553 9.84268 18.9029C9.65042 19.2573 9.45135 19.6251 9.25132 20.0005C9.20083 20.0944 9.14936 20.1882 9.0979 20.2821C9.05323 20.3769 9.00565 20.4736 8.96098 20.5704C8.86874 20.7648 8.77552 20.9601 8.68424 21.1546C7.95208 22.7128 7.34713 24.3247 7.0063 25.562C6.95775 25.7162 6.91502 25.8628 6.87424 26.0045C6.83151 26.1463 6.78685 26.2765 6.76063 26.4048C6.69945 26.6567 6.6441 26.8789 6.60235 27.0609C6.51204 27.4229 6.46155 27.6317 6.46155 27.6317C6.46155 27.6317 6.44893 27.6844 6.42562 27.7811C6.40135 27.8788 6.37804 28.0244 6.34211 28.2073C6.3091 28.3912 6.2654 28.6153 6.21879 28.871C6.17315 29.1267 6.10712 29.414 6.0712 29.732C6.02847 30.05 5.98186 30.3938 5.93428 30.7568C5.9236 30.8487 5.90806 30.9406 5.89738 31.0326C5.88573 31.1284 5.88087 31.2232 5.87116 31.318C5.8566 31.5095 5.84203 31.704 5.82552 31.908C5.74105 32.7019 5.74104 33.5552 5.71191 34.4095C5.74104 35.2629 5.74105 36.1153 5.82552 36.913C5.84203 37.1123 5.8566 37.3067 5.87116 37.5011C5.88087 37.5969 5.88573 37.6917 5.89738 37.7827C5.90806 37.8765 5.9236 37.9713 5.93428 38.0614C5.98186 38.4234 6.02847 38.7701 6.0712 39.0871C6.10712 39.4031 6.17315 39.6914 6.21879 39.9481C6.2654 40.2038 6.3091 40.425 6.34211 40.6099C6.37804 40.7938 6.40135 40.9384 6.42562 41.037C6.44893 41.1338 6.46155 41.1864 6.46155 41.1864C6.46155 41.1864 6.51204 41.3933 6.60235 41.7563C6.6441 41.9392 6.69945 42.1614 6.76063 42.4123C6.78685 42.5397 6.83151 42.6738 6.87424 42.8127C6.91502 42.9544 6.95775 43.1019 7.0063 43.2561C7.34713 44.4935 7.95208 46.1044 8.68424 47.6655C8.77552 47.858 8.86874 48.0533 8.96098 48.2468C9.00565 48.3445 9.05323 48.4403 9.0979 48.536C9.14936 48.628 9.20083 48.7247 9.25132 48.8186C9.45135 49.1911 9.65042 49.5599 9.84268 49.9152C10.0505 50.2619 10.2554 50.598 10.4447 50.916C10.5447 51.0731 10.6341 51.2311 10.7302 51.3767C10.8292 51.5213 10.9215 51.664 11.0157 51.7981C11.1963 52.0672 11.3614 52.3143 11.5109 52.5326C11.6604 52.7501 11.8051 52.9311 11.9168 53.0843C12.145 53.3879 12.2751 53.5622 12.2751 53.5622C12.2751 53.5622 12.3091 53.6063 12.3693 53.6877C12.4324 53.7681 12.5159 53.8907 12.6402 54.0353C12.7606 54.1819 12.9092 54.361 13.0791 54.5669C13.1626 54.6684 13.251 54.7766 13.3491 54.8915C13.4442 55.0026 13.5384 55.1291 13.6511 55.2469C14.5172 56.2295 15.7417 57.4812 17.0749 58.6267C18.4062 59.776 19.8608 60.7854 20.9726 61.5085C21.5426 61.8523 22.0116 62.1463 22.3466 62.3388C22.6884 62.5256 22.8846 62.63 22.8846 62.63C22.8846 62.63 23.0788 62.7382 23.4177 62.9221C23.5041 62.969 23.5993 63.0207 23.7012 63.0763C23.808 63.128 23.9217 63.1826 24.0421 63.241C24.2858 63.3598 24.5606 63.4948 24.8616 63.6404C26.0744 64.1978 27.7194 64.8988 29.4381 65.4064C29.8605 65.552 30.2965 65.6545 30.7237 65.7723C30.9335 65.8307 31.1461 65.8882 31.3549 65.9437C31.5608 66.0012 31.7715 66.0386 31.9773 66.0864C32.3881 66.1755 32.7862 66.2617 33.162 66.345C33.5417 66.4082 33.9019 66.4686 34.234 66.5251C34.4001 66.5529 34.5574 66.5816 34.7079 66.6065C34.8613 66.6352 35.006 66.6458 35.1409 66.6649C35.4138 66.6975 35.6507 66.7243 35.8469 66.7492C36.2353 66.7971 36.4586 66.8239 36.4586 66.8239L36.4946 66.4963C36.4946 66.4963 36.2722 66.4705 35.8867 66.4236Z" fill="#F9F5E9"/>
<path fill-rule="evenodd" clip-rule="evenodd" d="M32.0605 66.1037C32.0605 66.1037 36.7516 67.2836 37.8061 71.5455L37.6741 66.5241L32.3732 65.8374L32.0605 66.1037Z" fill="#F9F5E9"/>
</g>
</g>
<defs>
<clipPath id="clip0_12_3843">
<rect width="30" height="30" fill="white" transform="translate(42 17)"/>
</clipPath>
<clipPath id="clip1_12_3843">
<rect width="38" height="72" fill="white" transform="matrix(-1 0 0 1 114 1)"/>
</clipPath>
<clipPath id="clip2_12_3843">
<rect width="38" height="72" fill="white"/>
</clipPath>
</defs>
</svg>
