<svg width="115" height="74" viewBox="0 0 115 74" fill="none" xmlns="http://www.w3.org/2000/svg">
<g opacity="0.7">
<path fill-rule="evenodd" clip-rule="evenodd" d="M58 46C63.5229 46 68 41.5229 68 36C68 30.4771 63.5229 26 58 26C52.4771 26 48 30.4771 48 36C48 41.5229 52.4771 46 58 46ZM58 48.5C64.9035 48.5 70.5 42.9035 70.5 36C70.5 29.0964 64.9035 23.5 58 23.5C51.0964 23.5 45.5 29.0964 45.5 36C45.5 42.9035 51.0964 48.5 58 48.5Z" fill="#F9F5E9" stroke="#161616" stroke-width="0.5"/>
<path fill-rule="evenodd" clip-rule="evenodd" d="M56.75 28.5H59.25V35.4823L62.6339 38.8661L60.8661 40.6339L56.75 36.5177V28.5Z" fill="#F9F5E9" stroke="#161616" stroke-width="0.5"/>
<g clip-path="url(#clip0_420_23270)">
<path fill-rule="evenodd" clip-rule="evenodd" d="M85.6455 65.6899C85.8533 65.688 86.0718 65.7014 86.3039 65.732C86.3631 65.7416 86.4243 65.7512 86.4826 65.7617C86.5428 65.7703 86.6001 65.7809 86.6622 65.7904C86.7826 65.8134 86.9098 65.8422 87.036 65.8757C87.5458 66.0117 88.1042 66.2339 88.6625 66.4877C89.2092 66.7242 89.7608 66.9905 90.256 67.2424C90.7493 67.4923 91.1882 67.7318 91.497 67.8927C91.8057 68.0555 91.9922 68.1599 91.9922 68.1599C91.9922 68.1599 91.9436 68.1771 91.8465 68.2135C91.7523 68.2441 91.6174 68.2968 91.4445 68.3437C91.0969 68.4414 90.6094 68.5688 90.0579 68.678C89.919 68.7058 89.7802 68.7364 89.6326 68.7575C89.484 68.7786 89.3325 68.7948 89.182 68.8111C88.8771 68.8427 88.5664 68.8667 88.2547 68.8743C87.6381 68.9002 87.0157 68.8236 86.4816 68.678C85.4135 68.3916 84.6891 67.7432 84.2395 67.204C83.787 66.662 83.5947 66.2061 83.5947 66.2061C83.5947 66.2061 83.9608 65.9724 84.5706 65.8326C84.8745 65.7607 85.2328 65.6899 85.6455 65.6899Z" fill="#F9F5E9"/>
<path fill-rule="evenodd" clip-rule="evenodd" d="M84.0081 61.4987C84.2577 61.108 84.5868 60.7661 84.9277 60.4309C85.0966 60.2642 85.2734 60.1129 85.453 59.9712C85.5443 59.8993 85.6317 59.8323 85.7152 59.7672C85.7987 59.6972 85.8832 59.6302 85.9657 59.567C86.2949 59.3161 86.5959 59.115 86.8134 58.9799C87.0309 58.8334 87.164 58.7529 87.164 58.7529C87.164 58.7529 87.1659 58.9426 87.1533 59.2548C87.1455 59.5737 87.1115 59.9941 87.0426 60.4778C86.9727 60.9605 86.8649 61.5016 86.7095 62.0303C86.5493 62.5417 86.3347 63.0397 86.0725 63.4525C86.0094 63.5559 85.9405 63.6536 85.8696 63.7446C85.8356 63.7915 85.7987 63.8337 85.7608 63.8768C85.7239 63.917 85.688 63.9563 85.6501 63.9946C85.4967 64.1459 85.3365 64.2752 85.1753 64.3853C85.0151 64.4964 84.8548 64.5893 84.6975 64.664C84.5422 64.7378 84.3897 64.8039 84.245 64.8422C83.6644 65.004 83.241 64.9763 83.241 64.9763C83.241 64.9763 83.174 64.4869 83.2439 63.8126C83.2789 63.4745 83.3439 63.0905 83.4663 62.6978C83.4964 62.6001 83.5294 62.4996 83.5692 62.4019C83.6032 62.3004 83.643 62.1979 83.6896 62.0964C83.7799 61.8952 83.8828 61.6922 84.0081 61.4987Z" fill="#F9F5E9"/>
<path fill-rule="evenodd" clip-rule="evenodd" d="M92.2725 62.6588C92.3084 62.6243 92.3638 62.5802 92.4308 62.5208C92.5696 62.4021 92.7755 62.245 93.0435 62.0956C93.1804 62.019 93.328 61.9462 93.4979 61.8792C93.665 61.8112 93.8524 61.7518 94.0456 61.6905C94.4379 61.5775 94.8982 61.5066 95.4352 61.5171C95.7061 61.5229 95.9838 61.5373 96.2751 61.565C96.5645 61.5928 96.8645 61.634 97.1646 61.6828C97.4685 61.7307 97.7744 61.7882 98.0705 61.8437C98.3599 61.9022 98.6483 61.9596 98.9212 62.0142C99.4649 62.1282 99.9485 62.2374 100.293 62.3197C100.644 62.403 100.852 62.4586 100.852 62.4586C100.852 62.4586 100.673 62.5802 100.368 62.7679C100.22 62.8618 100.036 62.97 99.8291 63.0878C99.7281 63.1462 99.6174 63.2075 99.5018 63.2698C99.3863 63.3301 99.263 63.3885 99.1358 63.4479C98.8813 63.5657 98.6095 63.6835 98.3288 63.7965C98.1861 63.8502 98.0463 63.9038 97.8996 63.9555C97.8268 63.9823 97.7549 64.0082 97.6821 64.0312C97.6083 64.0513 97.5336 64.0733 97.4578 64.0944C96.8587 64.2563 96.2508 64.3626 95.7002 64.3607C94.5729 64.329 93.7067 63.9134 93.1212 63.5102C92.8289 63.3138 92.6007 63.1079 92.4483 62.9576C92.2968 62.8082 92.2181 62.7105 92.2181 62.7105C92.2181 62.7105 92.2366 62.6923 92.2725 62.6588Z" fill="#F9F5E9"/>
<path fill-rule="evenodd" clip-rule="evenodd" d="M93.825 59.4265C93.6842 59.8795 93.4667 60.2549 93.2249 60.5547C93.1065 60.7098 92.9744 60.8343 92.8423 60.9416C92.7112 61.0508 92.5772 61.1437 92.45 61.2232C92.1976 61.3812 91.9665 61.4808 91.8014 61.5421C91.7189 61.5746 91.646 61.59 91.6014 61.6015C91.5499 61.6129 91.5256 61.6177 91.5256 61.6177C91.5256 61.6177 91.4742 61.5038 91.411 61.3093C91.346 61.113 91.2664 60.8362 91.2032 60.4982C91.0731 59.8239 91.0168 58.939 91.2848 58.0732C91.4091 57.6288 91.6208 57.1997 91.8684 56.8061C92.1063 56.4048 92.3694 56.0236 92.6277 55.7085C92.7588 55.5534 92.8715 55.3973 92.9812 55.2642C93.088 55.1291 93.19 55.0142 93.2744 54.9184C93.4424 54.7269 93.5541 54.6187 93.5541 54.6187C93.5541 54.6187 93.6095 54.8006 93.6823 55.1013C93.7551 55.4011 93.8464 55.8263 93.9192 56.31C93.9542 56.5542 93.9901 56.8166 94.0105 57.0819C94.026 57.3434 94.0348 57.6135 94.0299 57.8826C94.026 58.1527 94.0105 58.4237 93.9775 58.6861C93.9425 58.9457 93.8998 59.2023 93.825 59.4265Z" fill="#F9F5E9"/>
<path fill-rule="evenodd" clip-rule="evenodd" d="M99.9922 56.602C100.094 56.4574 100.239 56.2496 100.454 56.0331C100.668 55.8167 100.95 55.5916 101.302 55.3819C101.644 55.1674 102.064 54.9758 102.582 54.8436C102.754 54.7986 102.939 54.7613 103.125 54.7239C103.31 54.6856 103.501 54.654 103.699 54.6234C104.674 54.4788 105.781 54.4242 106.613 54.3724C107.457 54.3265 108.059 54.3169 108.059 54.3169C108.059 54.3169 107.853 54.5707 107.502 54.9471C107.162 55.3273 106.637 55.7966 106.055 56.2525C105.964 56.3224 105.873 56.3885 105.783 56.4574C105.736 56.4909 105.69 56.5235 105.641 56.5589C105.593 56.5905 105.544 56.6202 105.495 56.6528C105.298 56.7763 105.097 56.8961 104.893 57.0043C104.691 57.1135 104.487 57.2131 104.28 57.2964C104.076 57.3826 103.877 57.4582 103.668 57.5071C102.578 57.7743 101.628 57.6086 100.946 57.374C100.257 57.1336 99.8417 56.8405 99.8417 56.8405C99.8417 56.8405 99.8893 56.7486 99.9922 56.602Z" fill="#F9F5E9"/>
<path fill-rule="evenodd" clip-rule="evenodd" d="M99.6305 55.3512C99.4334 55.5705 99.2469 55.7324 99.0993 55.8301C98.9527 55.9287 98.8556 55.9728 98.8556 55.9728C98.8556 55.9728 98.5293 55.5935 98.2176 54.9882C97.8991 54.3762 97.5787 53.5334 97.5855 52.6351C97.5816 52.3028 97.6185 51.957 97.6865 51.6247C97.7195 51.46 97.7632 51.2952 97.8108 51.1324C97.8584 50.9753 97.8982 50.8087 97.9496 50.6536C98.0341 50.3835 98.1293 50.1287 98.2235 49.9008C98.2487 49.8443 98.274 49.7887 98.2953 49.7332C98.3196 49.6786 98.338 49.6259 98.3604 49.5723C98.4012 49.4679 98.44 49.3721 98.4788 49.284C98.6323 48.9306 98.7498 48.7161 98.7498 48.7161C98.7498 48.7161 99.0479 49.1605 99.3955 49.8347C99.4839 50.0033 99.5751 50.1843 99.6645 50.3796C99.7082 50.4764 99.7528 50.5779 99.7956 50.6765C99.8393 50.7771 99.8762 50.8796 99.9189 50.984C100.074 51.3977 100.213 51.8431 100.306 52.2836C100.345 52.4541 100.373 52.6217 100.396 52.7864C100.416 52.9502 100.422 53.1082 100.422 53.2605C100.422 53.7384 100.323 54.1531 100.181 54.5075C100.029 54.8551 99.8247 55.1319 99.6305 55.3512Z" fill="#F9F5E9"/>
<path fill-rule="evenodd" clip-rule="evenodd" d="M107.25 49.4132C107.039 49.4228 106.841 49.4199 106.656 49.4084C105.926 49.3615 105.442 49.1901 105.442 49.1901C105.442 49.1901 105.461 49.0876 105.516 48.919C105.542 48.8357 105.582 48.738 105.629 48.626C105.672 48.5101 105.727 48.3865 105.796 48.2544C105.939 47.9881 106.134 47.6941 106.417 47.4029C106.482 47.3369 106.554 47.265 106.634 47.1827C106.71 47.108 106.794 47.0352 106.881 46.9624C107.057 46.8178 107.257 46.677 107.483 46.5429C107.711 46.4107 107.962 46.2843 108.233 46.1627C108.488 46.0382 108.765 45.9204 109.044 45.8045C109.602 45.5766 110.188 45.3687 110.72 45.1906C111.243 45.0086 111.703 44.8535 112.042 44.7462C112.379 44.638 112.586 44.5776 112.586 44.5776C112.586 44.5776 112.509 44.7721 112.362 45.0843C112.289 45.2413 112.201 45.431 112.09 45.6331C111.974 45.8371 111.844 46.0564 111.699 46.2881C111.555 46.5199 111.394 46.7593 111.223 46.9997C111.18 47.0582 111.136 47.1185 111.09 47.1769C111.045 47.2334 110.998 47.2909 110.947 47.3512C110.851 47.4671 110.75 47.5801 110.648 47.6903C110.441 47.9144 110.226 48.126 110.006 48.3157C109.895 48.4133 109.785 48.5034 109.668 48.5867C109.55 48.6671 109.431 48.7438 109.31 48.8127C108.83 49.0876 108.348 49.2475 107.899 49.3347C107.673 49.3797 107.455 49.4017 107.25 49.4132Z" fill="#F9F5E9"/>
<path fill-rule="evenodd" clip-rule="evenodd" d="M105.075 46.8618C105.029 47.2306 104.922 47.5543 104.8 47.8177C104.739 47.9498 104.674 48.0657 104.612 48.1663C104.549 48.2668 104.48 48.3502 104.426 48.4153C104.314 48.5494 104.235 48.6174 104.235 48.6174C104.235 48.6174 103.81 48.3396 103.331 47.8397C103.212 47.7161 103.091 47.5782 102.968 47.4279C102.84 47.2737 102.718 47.108 102.601 46.9327C102.369 46.5803 102.162 46.1847 102.031 45.7518C101.997 45.6427 101.973 45.5335 101.946 45.4205C101.918 45.3075 101.896 45.1925 101.876 45.0786C101.839 44.8477 101.815 44.615 101.808 44.3852C101.8 43.9293 101.792 43.4715 101.826 43.0759C101.842 42.8767 101.862 42.69 101.884 42.5243C101.898 42.3557 101.913 42.2063 101.931 42.0837C101.959 41.8338 101.989 41.6863 101.989 41.6863C101.989 41.6863 102.139 41.8098 102.373 42.0272C102.607 42.2437 102.927 42.5549 103.268 42.9304C103.597 43.301 103.942 43.7358 104.241 44.1965C104.395 44.4273 104.534 44.6639 104.658 44.9023C104.776 45.136 104.867 45.3707 104.939 45.6015C105.009 45.8285 105.051 46.0506 105.075 46.2604C105.087 46.3667 105.094 46.4701 105.094 46.5697C105.094 46.6205 105.094 46.6703 105.092 46.7182C105.087 46.7651 105.082 46.813 105.075 46.8618Z" fill="#F9F5E9"/>
<path fill-rule="evenodd" clip-rule="evenodd" d="M111.5 39.9183C111.293 40.061 111.084 40.1788 110.877 40.2784C110.461 40.4757 110.056 40.5945 109.702 40.6663C108.99 40.809 108.476 40.7688 108.476 40.7688C108.476 40.7688 108.416 40.3531 108.55 39.7756C108.579 39.6281 108.635 39.4739 108.685 39.3102C108.737 39.1445 108.806 38.9721 108.895 38.7968C108.982 38.6196 109.094 38.4367 109.227 38.2538C109.294 38.1618 109.365 38.0689 109.444 37.977C109.484 37.931 109.525 37.885 109.569 37.8372C109.607 37.7912 109.649 37.7462 109.695 37.6983C110.393 36.9551 111.523 36.1918 112.414 35.5721C112.866 35.2647 113.276 35.0004 113.574 34.8098C113.872 34.6201 114.059 34.51 114.059 34.51C114.059 34.51 114.033 34.7159 113.974 35.055C113.914 35.394 113.825 35.8614 113.686 36.3785C113.526 36.8967 113.321 37.4636 113.066 37.9971C113.005 38.1302 112.932 38.2605 112.855 38.3888C112.778 38.5143 112.699 38.6407 112.618 38.7595C112.453 38.9989 112.277 39.223 112.089 39.4145C111.897 39.6099 111.709 39.7775 111.5 39.9183Z" fill="#F9F5E9"/>
<path fill-rule="evenodd" clip-rule="evenodd" d="M107.158 40.5245C107.158 40.5245 106.667 40.3646 106.061 40.0054C105.753 39.8244 105.42 39.5965 105.102 39.3187C104.943 39.178 104.789 39.0266 104.643 38.8619C104.491 38.6953 104.344 38.5171 104.216 38.3246C104.086 38.1321 103.974 37.9252 103.875 37.7136C103.776 37.5029 103.706 37.2864 103.62 37.0652C103.458 36.6266 103.35 36.186 103.273 35.7962C103.176 35.4007 103.119 35.0549 103.084 34.8078C103.051 34.5588 103.041 34.4094 103.041 34.4094C103.041 34.4094 103.217 34.4908 103.502 34.6402C103.786 34.7925 104.173 35.0099 104.604 35.2848C105.029 35.5597 105.507 35.8929 105.913 36.2598C106.327 36.6266 106.707 37.0298 106.984 37.4378C107.126 37.6389 107.216 37.841 107.297 38.0383C107.372 38.2346 107.424 38.4281 107.459 38.6148C107.494 38.7997 107.513 38.9778 107.515 39.1444C107.521 39.3101 107.494 39.4672 107.472 39.608C107.372 40.175 107.158 40.5245 107.158 40.5245Z" fill="#F9F5E9"/>
<path fill-rule="evenodd" clip-rule="evenodd" d="M112.62 27.352C112.586 27.5723 112.545 27.7935 112.496 28.01C112.391 28.4419 112.268 28.8509 112.065 29.21C111.807 29.6841 111.487 30.0624 111.15 30.3612C110.812 30.6591 110.468 30.8784 110.141 31.0402C109.491 31.3668 108.984 31.4626 108.984 31.4626C108.984 31.4626 108.941 31.3678 108.899 31.1983C108.858 31.0259 108.791 30.7845 108.766 30.4905C108.737 30.1936 108.743 29.845 108.821 29.4571C108.889 29.0702 109.012 28.6469 109.255 28.1929C109.336 28.0435 109.427 27.8864 109.527 27.7303C109.575 27.6547 109.627 27.5752 109.68 27.4947C109.731 27.4181 109.783 27.3357 109.835 27.2582C110.105 26.8645 110.408 26.4661 110.715 26.0859C111.02 25.7057 111.329 25.3408 111.587 25.0314C112.112 24.407 112.509 23.9731 112.509 23.9731C112.509 23.9731 112.57 24.2921 112.633 24.7882C112.671 25.0372 112.684 25.3341 112.693 25.6559C112.702 25.9777 112.702 26.3282 112.687 26.6854C112.681 26.9028 112.652 27.1289 112.62 27.352Z" fill="#F9F5E9"/>
<path fill-rule="evenodd" clip-rule="evenodd" d="M104.179 30.2366C104.114 30.183 104.053 30.1246 103.992 30.0652C103.929 30.0048 103.864 29.9435 103.805 29.8803C103.678 29.7568 103.566 29.6246 103.457 29.4886C103.351 29.3545 103.249 29.2157 103.154 29.0749C103.054 28.9255 102.964 28.7856 102.877 28.6554C102.72 28.4169 102.584 28.1784 102.466 27.9601C102.407 27.8499 102.354 27.7427 102.305 27.644C102.261 27.5425 102.203 27.4515 102.16 27.3653C101.983 27.0244 101.894 26.7993 101.894 26.7993C101.894 26.7993 102.439 26.8846 103.207 27.0886C103.395 27.1384 103.605 27.1949 103.809 27.2648C104.016 27.3309 104.231 27.4075 104.447 27.4908C104.88 27.6565 105.322 27.8547 105.733 28.0817C106.054 28.2551 106.324 28.4524 106.569 28.6583C106.941 28.9753 107.208 29.3229 107.383 29.661C107.549 30.001 107.636 30.3305 107.676 30.6139C107.715 30.9003 107.722 31.1388 107.694 31.3093C107.673 31.4788 107.642 31.5774 107.642 31.5774C107.642 31.5774 107.127 31.5525 106.444 31.3658C105.761 31.1809 104.878 30.8438 104.179 30.2366Z" fill="#F9F5E9"/>
<path fill-rule="evenodd" clip-rule="evenodd" d="M108.499 20.7552C108.257 21.1335 107.981 21.44 107.72 21.6833C107.197 22.1669 106.739 22.3949 106.739 22.3949C106.739 22.3949 106.67 22.3135 106.574 22.165C106.476 22.0146 106.362 21.7905 106.248 21.5147C106.129 21.2398 106.03 20.9056 105.984 20.5129C105.961 20.3204 105.961 20.1069 105.961 19.8875C105.962 19.6663 105.986 19.4326 106.03 19.1846C106.076 18.9356 106.144 18.6731 106.224 18.405C106.265 18.2709 106.311 18.133 106.357 17.997C106.405 17.8629 106.449 17.7259 106.497 17.589C106.69 17.0431 106.916 16.4924 107.128 15.9992C107.236 15.7549 107.337 15.5222 107.429 15.3115C107.522 15.1046 107.604 14.9198 107.674 14.7656C107.813 14.4534 107.9 14.2676 107.9 14.2676C107.9 14.2676 108.003 14.4534 108.152 14.7656C108.233 14.9179 108.307 15.1113 108.393 15.3249C108.476 15.5423 108.565 15.7827 108.65 16.0375C108.691 16.1648 108.733 16.298 108.776 16.432C108.815 16.5671 108.856 16.704 108.887 16.8487C108.95 17.1312 109.004 17.4271 109.043 17.7183C109.082 18.0104 109.109 18.3025 109.109 18.5841C109.105 18.8723 109.077 19.151 109.027 19.4106C108.924 19.9325 108.733 20.3788 108.499 20.7552Z" fill="#F9F5E9"/>
<path fill-rule="evenodd" clip-rule="evenodd" d="M101.142 22.1562C100.935 22.0317 100.732 21.8919 100.545 21.7473C100.355 21.5998 100.182 21.4475 100.015 21.2952C99.8466 21.1458 99.6776 20.9983 99.5329 20.8547C99.3844 20.711 99.2523 20.5721 99.1348 20.4476C99.0765 20.3825 99.0212 20.3222 98.9707 20.2676C98.9192 20.212 98.8707 20.1622 98.828 20.1153C98.6493 19.9276 98.5532 19.8098 98.5532 19.8098C98.5532 19.8098 98.7503 19.7858 99.0795 19.7657C99.4057 19.7446 99.8699 19.7217 100.379 19.7408C100.888 19.7571 101.465 19.8031 102.029 19.895C102.173 19.9199 102.315 19.9448 102.454 19.9735C102.589 20.0071 102.722 20.0406 102.853 20.0789C103.114 20.1536 103.366 20.2436 103.593 20.3471C103.821 20.4476 104.025 20.5635 104.206 20.689C104.389 20.8135 104.534 20.9543 104.668 21.0922C104.928 21.3737 105.112 21.663 105.243 21.9254C105.366 22.1869 105.419 22.4244 105.45 22.591C105.483 22.7596 105.484 22.8611 105.484 22.8611C105.484 22.8611 104.983 22.976 104.271 22.9789C103.912 22.9827 103.507 22.9578 103.081 22.8841C102.646 22.8142 102.195 22.6954 101.762 22.5029C101.549 22.4043 101.344 22.2874 101.142 22.1562Z" fill="#F9F5E9"/>
<path fill-rule="evenodd" clip-rule="evenodd" d="M103.395 12.5992C103.272 13.0234 103.095 13.3883 102.914 13.6872C102.551 14.2829 102.178 14.6181 102.178 14.6181C102.178 14.6181 101.811 14.3825 101.444 13.9036C101.35 13.7829 101.258 13.6479 101.171 13.4947C101.082 13.3472 100.989 13.1824 100.912 13.0033C100.752 12.6432 100.635 12.2094 100.587 11.7047C100.531 11.2057 100.542 10.6368 100.583 10.0554C100.628 9.4674 100.68 8.89181 100.744 8.3641C100.809 7.83735 100.877 7.37093 100.926 7.03285C100.98 6.69956 101.013 6.49365 101.013 6.49365C101.013 6.49365 101.053 6.52813 101.117 6.60283C101.181 6.67658 101.273 6.78193 101.385 6.91697C101.611 7.18609 101.916 7.56439 102.229 8.00878C102.526 8.46753 102.832 8.99237 103.077 9.52774C103.314 10.0746 103.48 10.6435 103.535 11.1645C103.549 11.2967 103.555 11.4231 103.555 11.5495C103.555 11.675 103.544 11.7995 103.531 11.9201C103.504 12.1615 103.456 12.3885 103.395 12.5992Z" fill="#F9F5E9"/>
<path fill-rule="evenodd" clip-rule="evenodd" d="M96.7028 15.819C96.5872 15.7826 96.4756 15.7414 96.36 15.6964C96.3056 15.6753 96.2503 15.6533 96.194 15.6303C96.1357 15.6063 96.0813 15.5862 96.024 15.5642C95.5706 15.3851 95.1569 15.1648 94.7967 14.958C94.4248 14.7655 94.1189 14.572 93.9023 14.4322C93.7936 14.3594 93.7081 14.299 93.6518 14.2598C93.5887 14.2196 93.5567 14.1994 93.5567 14.1994C93.5567 14.1994 93.6033 14.1822 93.6887 14.1487C93.7761 14.1161 93.8985 14.073 94.0509 14.0251C94.3558 13.9265 94.7899 13.7972 95.2909 13.6794C95.5434 13.621 95.8094 13.5645 96.0881 13.5166C96.226 13.4936 96.3678 13.4697 96.5076 13.4505C96.6484 13.4342 96.7892 13.4199 96.929 13.4084C97.4952 13.3614 98.0622 13.3633 98.5662 13.4428C99.0624 13.5252 99.4683 13.6976 99.8062 13.8939C99.9761 13.9935 100.13 14.0998 100.259 14.2119C100.389 14.3249 100.497 14.4417 100.591 14.5519C100.972 15.0001 101.102 15.3842 101.102 15.3842C101.102 15.3842 100.649 15.6245 99.9577 15.8123C99.613 15.908 99.21 15.9904 98.7769 16.0297C98.3419 16.0708 97.8913 16.0555 97.4107 15.9875C97.1689 15.9502 96.9339 15.8908 96.7028 15.819Z" fill="#F9F5E9"/>
<path fill-rule="evenodd" clip-rule="evenodd" d="M95.3872 7.73386C95.2969 7.92349 95.2338 8.02884 95.2338 8.02884C95.2338 8.02884 95.2066 8.02118 95.1609 8.00011C95.1134 7.98287 95.0464 7.95605 94.9619 7.91583C94.7939 7.84017 94.5647 7.7195 94.3171 7.53657C93.8326 7.16018 93.2344 6.6047 92.8528 5.64984C92.7227 5.33667 92.6042 4.99284 92.5042 4.62507C92.377 4.16824 92.2721 3.68171 92.1808 3.20859C92.0847 2.74697 92.0012 2.29588 91.9332 1.89746C91.7992 1.10446 91.7264 0.532696 91.7264 0.531738C91.7264 0.531738 92.0138 0.703172 92.443 0.99911C92.6547 1.14373 92.9043 1.32282 93.1674 1.5249C93.4247 1.73752 93.6957 1.97504 93.9617 2.22883C94.1268 2.3859 94.286 2.54776 94.4414 2.71536C94.4793 2.75654 94.5201 2.79773 94.5579 2.84082C94.5929 2.88392 94.6298 2.92798 94.6667 2.97395C94.7366 3.06397 94.8055 3.154 94.8755 3.24498C95.1435 3.60605 95.3707 3.98148 95.527 4.35212C95.6319 4.59155 95.6969 4.84535 95.7426 5.08095C95.7863 5.31847 95.8086 5.54737 95.8115 5.7686C95.8212 6.2082 95.7571 6.60278 95.6688 6.93799C95.5824 7.27319 95.4746 7.54327 95.3872 7.73386Z" fill="#F9F5E9"/>
<path fill-rule="evenodd" clip-rule="evenodd" d="M88.9492 10.4673C88.6579 10.4118 88.384 10.3448 88.1326 10.2796C87.8791 10.2231 87.649 10.1628 87.4567 10.1082C87.0751 9.9971 86.8391 9.90612 86.8391 9.90612C86.8391 9.90612 87.2732 9.58049 87.9413 9.18399C88.2724 8.9867 88.6647 8.77025 89.0929 8.57009C89.5124 8.37471 89.96 8.20136 90.4086 8.06824C90.7543 7.96672 91.1 7.88723 91.4263 7.85275C92.4216 7.76464 93.2072 8.04621 93.6946 8.3862C93.9442 8.55093 94.1277 8.71662 94.251 8.84112C94.3122 8.90146 94.3578 8.95414 94.387 8.98957C94.4161 9.02884 94.4297 9.04895 94.4297 9.04895C94.4297 9.04895 94.3404 9.1361 94.1733 9.26731C94.0063 9.40044 93.7616 9.57857 93.4577 9.75959C93.1538 9.94443 92.7906 10.1302 92.3876 10.2835C92.1847 10.3582 91.971 10.4281 91.7506 10.4798C91.5302 10.5344 91.3039 10.5708 91.0612 10.6024C90.3572 10.6886 89.627 10.5756 88.9492 10.4673Z" fill="#F9F5E9"/>
<path fill-rule="evenodd" clip-rule="evenodd" d="M78.5518 66.4236C78.7431 66.3996 78.98 66.3718 79.247 66.3402C79.383 66.3201 79.5267 66.3115 79.6762 66.2837C79.8248 66.2579 79.9821 66.2301 80.1452 66.2023C80.4744 66.1468 80.8298 66.0874 81.2075 66.0232C81.5804 65.9418 81.9727 65.8556 82.3776 65.7694C82.5835 65.7215 82.7913 65.6832 82.9972 65.6277C83.203 65.5712 83.4118 65.5156 83.6235 65.4582C84.0439 65.3423 84.476 65.2398 84.8946 65.0952C86.5968 64.5933 88.2242 63.899 89.4244 63.3464C89.7186 63.2018 89.9944 63.0686 90.2342 62.9527C90.3566 62.8943 90.4673 62.8388 90.5712 62.7871C90.6751 62.7353 90.7673 62.6817 90.8518 62.6376C91.1907 62.4528 91.381 62.3465 91.381 62.3465C91.381 62.3465 91.5733 62.2431 91.9132 62.0582C92.2482 61.8676 92.7113 61.5746 93.2726 61.2355C94.3728 60.522 95.8148 59.5222 97.1305 58.3834C98.4521 57.2485 99.6659 56.0092 100.52 55.0371C100.633 54.9203 100.727 54.7986 100.823 54.6847C100.918 54.5707 101.005 54.4653 101.089 54.3629C101.257 54.1617 101.404 53.9846 101.524 53.838C101.647 53.6953 101.73 53.5727 101.79 53.4933C101.851 53.4109 101.885 53.3697 101.885 53.3697C101.885 53.3697 102.012 53.1983 102.238 52.8956C102.349 52.7453 102.493 52.5662 102.64 52.3497C102.786 52.1333 102.953 51.8881 103.131 51.6218C103.223 51.4897 103.317 51.3508 103.412 51.2062C103.511 51.0616 103.597 50.9074 103.694 50.7513C103.887 50.4352 104.085 50.1029 104.292 49.76C104.48 49.4066 104.678 49.0427 104.878 48.674C104.93 48.5801 104.979 48.4872 105.03 48.3953C105.075 48.2985 105.118 48.2028 105.166 48.1079C105.257 47.9164 105.348 47.7239 105.442 47.5304C106.163 45.9885 106.76 44.3929 107.101 43.1661C107.148 43.0138 107.19 42.8672 107.233 42.7293C107.274 42.5905 107.316 42.4593 107.342 42.3347C107.402 42.0838 107.459 41.8635 107.5 41.6835C107.588 41.3234 107.64 41.1175 107.64 41.1175C107.64 41.1175 107.652 41.0658 107.677 40.969C107.698 40.8752 107.723 40.7296 107.758 40.5467C107.792 40.3657 107.833 40.1463 107.879 39.8916C107.926 39.6397 107.991 39.3543 108.025 39.0382C108.068 38.7241 108.114 38.3841 108.161 38.024C108.173 37.9349 108.188 37.843 108.197 37.7511C108.21 37.6591 108.215 37.5653 108.224 37.4685C108.236 37.2799 108.255 37.0845 108.269 36.8872C108.353 36.099 108.353 35.2533 108.379 34.4095C108.353 33.5639 108.353 32.7191 108.269 31.93C108.255 31.7336 108.236 31.5392 108.224 31.3496C108.215 31.2538 108.21 31.16 108.197 31.068C108.188 30.9751 108.173 30.8832 108.161 30.7932C108.114 30.434 108.068 30.0921 108.025 29.7789C107.991 29.4629 107.926 29.1803 107.879 28.9256C107.833 28.6727 107.792 28.4525 107.758 28.2705C107.723 28.0895 107.698 27.9439 107.677 27.8481C107.652 27.7514 107.64 27.6997 107.64 27.6997C107.64 27.6997 107.588 27.4947 107.5 27.1346C107.459 26.9546 107.402 26.7362 107.342 26.4853C107.316 26.3598 107.274 26.2267 107.233 26.0888C107.19 25.949 107.148 25.8043 107.101 25.6511C106.76 24.4262 106.163 22.8306 105.442 21.2867C105.348 21.0961 105.257 20.9008 105.166 20.7102C105.118 20.6135 105.075 20.5206 105.03 20.4238C104.979 20.3309 104.93 20.238 104.878 20.1432C104.678 19.7735 104.48 19.4096 104.292 19.0581C104.085 18.7152 103.887 18.3829 103.694 18.0678C103.597 17.9127 103.511 17.7556 103.412 17.6119C103.317 17.4673 103.223 17.3294 103.131 17.1953C102.953 16.9291 102.786 16.6839 102.64 16.4684C102.493 16.252 102.349 16.0738 102.238 15.9225C102.012 15.6208 101.885 15.4494 101.885 15.4494C101.885 15.4494 101.851 15.4063 101.79 15.3249C101.73 15.2454 101.647 15.1228 101.524 14.9801C101.404 14.8345 101.257 14.6583 101.089 14.4553C101.005 14.3537 100.918 14.2465 100.823 14.1306C100.727 14.0195 100.633 13.8979 100.52 13.7801C99.6659 12.8099 98.4521 11.5696 97.1305 10.4337C95.8148 9.29501 94.3728 8.29705 93.2726 7.58067C92.7113 7.2426 92.2482 6.94953 91.9132 6.76086C91.5733 6.57602 91.381 6.46971 91.381 6.46971C91.381 6.46971 91.1907 6.36532 90.8518 6.18047C90.7673 6.13546 90.6751 6.08566 90.5712 6.02915C90.4673 5.97935 90.3566 5.9238 90.2342 5.86538C90.1527 5.82516 90.0692 5.78493 89.9818 5.74375C89.975 5.74375 89.9682 5.74375 89.9604 5.74375C89.7458 5.76195 89.4419 5.77152 89.0855 5.75237C88.366 5.72076 87.4357 5.57423 86.6162 5.13176C86.1918 4.91723 85.7918 4.62608 85.4442 4.31099C85.2742 4.152 85.0975 3.99302 84.9334 3.83499C84.7712 3.67697 84.6227 3.51799 84.4857 3.36475C84.2255 3.05636 83.9818 2.79011 83.8225 2.5909C83.6652 2.3917 83.5759 2.26623 83.5759 2.26623C83.5759 2.26623 83.773 2.25761 84.0993 2.25523C84.4255 2.25283 84.8839 2.2624 85.4005 2.30263C85.5306 2.31412 85.6646 2.3237 85.7996 2.33998C85.9336 2.35626 86.0695 2.37446 86.2054 2.39649C86.4793 2.43767 86.7589 2.49034 87.0357 2.55451C87.5863 2.6838 88.1446 2.85045 88.5718 3.08701C89.0088 3.32069 89.3448 3.60418 89.6011 3.89437C89.8468 4.1884 90.0002 4.49295 90.1119 4.76208C90.2148 5.03024 90.2702 5.26584 90.2906 5.43632C90.2964 5.46888 90.2974 5.49953 90.2993 5.52826C90.3314 5.54454 90.3634 5.56178 90.3964 5.57423C90.5168 5.63553 90.6304 5.69012 90.7372 5.74088C90.8392 5.79834 90.9344 5.84814 91.0208 5.89603C91.3597 6.08087 91.5539 6.18814 91.5539 6.18814C91.5539 6.18814 91.75 6.29349 92.0918 6.47928C92.4268 6.67083 92.8958 6.96581 93.4658 7.31059C94.5777 8.03081 96.0323 9.04025 97.3636 10.1914C98.6968 11.3369 99.9213 12.5896 100.787 13.5703C100.9 13.6891 100.994 13.8145 101.089 13.9266C101.187 14.0415 101.276 14.1497 101.359 14.2532C101.529 14.4572 101.678 14.6353 101.798 14.7828C101.923 14.9274 102.006 15.051 102.069 15.1314C102.129 15.2119 102.163 15.2559 102.163 15.2559C102.163 15.2559 102.293 15.4302 102.522 15.7329C102.633 15.888 102.778 16.0681 102.928 16.2855C103.077 16.5048 103.242 16.7519 103.423 17.0201C103.517 17.1551 103.609 17.2949 103.708 17.4405C103.804 17.5861 103.894 17.7451 103.994 17.9021C104.183 18.2182 104.388 18.5553 104.596 18.9029C104.788 19.2573 104.987 19.6251 105.187 20.0005C105.238 20.0944 105.289 20.1882 105.341 20.2821C105.385 20.3769 105.433 20.4736 105.477 20.5704C105.57 20.7648 105.663 20.9601 105.754 21.1546C106.486 22.7128 107.091 24.3247 107.432 25.562C107.481 25.7162 107.523 25.8628 107.564 26.0045C107.607 26.1463 107.652 26.2765 107.678 26.4048C107.739 26.6567 107.794 26.8789 107.836 27.0609C107.926 27.4229 107.977 27.6317 107.977 27.6317C107.977 27.6317 107.99 27.6844 108.013 27.7811C108.037 27.8788 108.06 28.0244 108.096 28.2073C108.129 28.3912 108.173 28.6153 108.22 28.871C108.265 29.1267 108.331 29.414 108.367 29.732C108.41 30.05 108.457 30.3938 108.504 30.7568C108.515 30.8487 108.53 30.9406 108.541 31.0326C108.553 31.1284 108.558 31.2232 108.567 31.318C108.582 31.5095 108.596 31.704 108.613 31.908C108.697 32.7019 108.697 33.5552 108.727 34.4095C108.697 35.2629 108.697 36.1153 108.613 36.913C108.596 37.1123 108.582 37.3067 108.567 37.5011C108.558 37.5969 108.553 37.6917 108.541 37.7827C108.53 37.8765 108.515 37.9713 108.504 38.0614C108.457 38.4234 108.41 38.7701 108.367 39.0871C108.331 39.4031 108.265 39.6914 108.22 39.9481C108.173 40.2038 108.129 40.425 108.096 40.6099C108.06 40.7938 108.037 40.9384 108.013 41.037C107.99 41.1338 107.977 41.1864 107.977 41.1864C107.977 41.1864 107.926 41.3933 107.836 41.7563C107.794 41.9392 107.739 42.1614 107.678 42.4123C107.652 42.5397 107.607 42.6738 107.564 42.8127C107.523 42.9544 107.481 43.1019 107.432 43.2561C107.091 44.4935 106.486 46.1044 105.754 47.6655C105.663 47.858 105.57 48.0533 105.477 48.2468C105.433 48.3445 105.385 48.4403 105.341 48.536C105.289 48.628 105.238 48.7247 105.187 48.8186C104.987 49.1911 104.788 49.5599 104.596 49.9152C104.388 50.2619 104.183 50.598 103.994 50.916C103.894 51.0731 103.804 51.2311 103.708 51.3767C103.609 51.5213 103.517 51.664 103.423 51.7981C103.242 52.0672 103.077 52.3143 102.928 52.5326C102.778 52.7501 102.633 52.9311 102.522 53.0843C102.293 53.3879 102.163 53.5622 102.163 53.5622C102.163 53.5622 102.129 53.6063 102.069 53.6877C102.006 53.7681 101.923 53.8907 101.798 54.0353C101.678 54.1819 101.529 54.361 101.359 54.5669C101.276 54.6684 101.187 54.7766 101.089 54.8915C100.994 55.0026 100.9 55.1291 100.787 55.2469C99.9213 56.2295 98.6968 57.4812 97.3636 58.6267C96.0323 59.776 94.5777 60.7854 93.4658 61.5085C92.8958 61.8523 92.4268 62.1463 92.0918 62.3388C91.75 62.5256 91.5539 62.63 91.5539 62.63C91.5539 62.63 91.3597 62.7382 91.0208 62.9221C90.9344 62.969 90.8392 63.0207 90.7372 63.0763C90.6304 63.128 90.5168 63.1826 90.3964 63.241C90.1527 63.3598 89.8779 63.4948 89.5769 63.6404C88.364 64.1978 86.7191 64.8988 85.0004 65.4064C84.578 65.552 84.142 65.6545 83.7147 65.7723C83.505 65.8307 83.2923 65.8882 83.0836 65.9437C82.8777 66.0012 82.667 66.0386 82.4611 66.0864C82.0504 66.1755 81.6523 66.2617 81.2765 66.345C80.8968 66.4082 80.5366 66.4686 80.2045 66.5251C80.0384 66.5529 79.8811 66.5816 79.7306 66.6065C79.5772 66.6352 79.4325 66.6458 79.2975 66.6649C79.0247 66.6975 78.7877 66.7243 78.5916 66.7492C78.2032 66.7971 77.9798 66.8239 77.9798 66.8239L77.9439 66.4963C77.9439 66.4963 78.1663 66.4705 78.5518 66.4236Z" fill="#F9F5E9"/>
<path fill-rule="evenodd" clip-rule="evenodd" d="M82.375 66.1037C82.375 66.1037 77.684 67.2836 76.6294 71.5455L76.7615 66.5241L82.0623 65.8374L82.375 66.1037Z" fill="#F9F5E9"/>
</g>
<g clip-path="url(#clip1_420_23270)">
<path fill-rule="evenodd" clip-rule="evenodd" d="M29.3545 65.6899C29.1467 65.688 28.9282 65.7014 28.6961 65.732C28.6369 65.7416 28.5757 65.7512 28.5174 65.7617C28.4572 65.7703 28.3999 65.7809 28.3378 65.7904C28.2174 65.8134 28.0902 65.8422 27.964 65.8757C27.4542 66.0117 26.8958 66.2339 26.3375 66.4877C25.7908 66.7242 25.2392 66.9905 24.744 67.2424C24.2507 67.4923 23.8118 67.7318 23.503 67.8927C23.1943 68.0555 23.0078 68.1599 23.0078 68.1599C23.0078 68.1599 23.0564 68.1771 23.1535 68.2135C23.2477 68.2441 23.3826 68.2968 23.5555 68.3437C23.9031 68.4414 24.3906 68.5688 24.9421 68.678C25.081 68.7058 25.2198 68.7364 25.3674 68.7575C25.516 68.7786 25.6675 68.7948 25.818 68.8111C26.1229 68.8427 26.4336 68.8667 26.7453 68.8743C27.3619 68.9002 27.9843 68.8236 28.5184 68.678C29.5865 68.3916 30.3109 67.7432 30.7605 67.204C31.213 66.662 31.4053 66.2061 31.4053 66.2061C31.4053 66.2061 31.0392 65.9724 30.4294 65.8326C30.1255 65.7607 29.7672 65.6899 29.3545 65.6899Z" fill="#F9F5E9"/>
<path fill-rule="evenodd" clip-rule="evenodd" d="M30.9919 61.4987C30.7423 61.108 30.4132 60.7661 30.0723 60.4309C29.9034 60.2642 29.7266 60.1129 29.547 59.9712C29.4557 59.8993 29.3683 59.8323 29.2848 59.7672C29.2013 59.6972 29.1168 59.6302 29.0343 59.567C28.7051 59.3161 28.4041 59.115 28.1866 58.9799C27.9691 58.8334 27.836 58.7529 27.836 58.7529C27.836 58.7529 27.8341 58.9426 27.8467 59.2548C27.8545 59.5737 27.8885 59.9941 27.9574 60.4778C28.0273 60.9605 28.1351 61.5016 28.2905 62.0303C28.4507 62.5417 28.6653 63.0397 28.9275 63.4525C28.9906 63.5559 29.0595 63.6536 29.1304 63.7446C29.1644 63.7915 29.2013 63.8337 29.2392 63.8768C29.2761 63.917 29.312 63.9563 29.3499 63.9946C29.5033 64.1459 29.6635 64.2752 29.8247 64.3853C29.9849 64.4964 30.1452 64.5893 30.3025 64.664C30.4578 64.7378 30.6103 64.8039 30.755 64.8422C31.3356 65.004 31.759 64.9763 31.759 64.9763C31.759 64.9763 31.826 64.4869 31.7561 63.8126C31.7211 63.4745 31.6561 63.0905 31.5337 62.6978C31.5036 62.6001 31.4706 62.4996 31.4308 62.4019C31.3968 62.3004 31.357 62.1979 31.3104 62.0964C31.2201 61.8952 31.1172 61.6922 30.9919 61.4987Z" fill="#F9F5E9"/>
<path fill-rule="evenodd" clip-rule="evenodd" d="M22.7275 62.6588C22.6916 62.6243 22.6362 62.5802 22.5692 62.5208C22.4304 62.4021 22.2245 62.245 21.9565 62.0956C21.8196 62.019 21.672 61.9462 21.5021 61.8792C21.335 61.8112 21.1476 61.7518 20.9544 61.6905C20.5621 61.5775 20.1018 61.5066 19.5648 61.5171C19.2939 61.5229 19.0162 61.5373 18.7249 61.565C18.4355 61.5928 18.1355 61.634 17.8354 61.6828C17.5315 61.7307 17.2256 61.7882 16.9295 61.8437C16.6401 61.9022 16.3517 61.9596 16.0788 62.0142C15.5351 62.1282 15.0515 62.2374 14.7068 62.3197C14.3562 62.403 14.1484 62.4586 14.1484 62.4586C14.1484 62.4586 14.3271 62.5802 14.632 62.7679C14.7796 62.8618 14.9641 62.97 15.1709 63.0878C15.2719 63.1462 15.3826 63.2075 15.4982 63.2698C15.6137 63.3301 15.737 63.3885 15.8642 63.4479C16.1187 63.5657 16.3905 63.6835 16.6712 63.7965C16.8139 63.8502 16.9537 63.9038 17.1004 63.9555C17.1732 63.9823 17.2451 64.0082 17.3179 64.0312C17.3917 64.0513 17.4664 64.0733 17.5422 64.0944C18.1413 64.2563 18.7492 64.3626 19.2998 64.3607C20.4271 64.329 21.2933 63.9134 21.8788 63.5102C22.1711 63.3138 22.3993 63.1079 22.5517 62.9576C22.7032 62.8082 22.7819 62.7105 22.7819 62.7105C22.7819 62.7105 22.7634 62.6923 22.7275 62.6588Z" fill="#F9F5E9"/>
<path fill-rule="evenodd" clip-rule="evenodd" d="M21.175 59.4265C21.3158 59.8795 21.5333 60.2549 21.7751 60.5547C21.8935 60.7098 22.0256 60.8343 22.1577 60.9416C22.2888 61.0508 22.4228 61.1437 22.55 61.2232C22.8024 61.3812 23.0335 61.4808 23.1986 61.5421C23.2811 61.5746 23.354 61.59 23.3986 61.6015C23.4501 61.6129 23.4744 61.6177 23.4744 61.6177C23.4744 61.6177 23.5258 61.5038 23.589 61.3093C23.654 61.113 23.7336 60.8362 23.7968 60.4982C23.9269 59.8239 23.9832 58.939 23.7152 58.0732C23.5909 57.6288 23.3792 57.1997 23.1316 56.8061C22.8937 56.4048 22.6306 56.0236 22.3723 55.7085C22.2412 55.5534 22.1285 55.3973 22.0188 55.2642C21.912 55.1291 21.81 55.0142 21.7256 54.9184C21.5576 54.7269 21.4459 54.6187 21.4459 54.6187C21.4459 54.6187 21.3905 54.8006 21.3177 55.1013C21.2449 55.4011 21.1536 55.8263 21.0808 56.31C21.0458 56.5542 21.0099 56.8166 20.9895 57.0819C20.974 57.3434 20.9652 57.6135 20.9701 57.8826C20.974 58.1527 20.9895 58.4237 21.0225 58.6861C21.0575 58.9457 21.1002 59.2023 21.175 59.4265Z" fill="#F9F5E9"/>
<path fill-rule="evenodd" clip-rule="evenodd" d="M15.0078 56.602C14.9058 56.4574 14.7611 56.2496 14.5455 56.0331C14.3319 55.8167 14.0503 55.5916 13.6978 55.3819C13.356 55.1674 12.9356 54.9758 12.418 54.8436C12.2461 54.7986 12.0607 54.7613 11.8752 54.7239C11.6897 54.6856 11.4994 54.654 11.3013 54.6234C10.3264 54.4788 9.21944 54.4242 8.38727 54.3724C7.54345 54.3265 6.94141 54.3169 6.94141 54.3169C6.94141 54.3169 7.14726 54.5707 7.49781 54.9471C7.83767 55.3273 8.363 55.7966 8.94464 56.2525C9.03592 56.3224 9.1272 56.3885 9.21653 56.4574C9.26411 56.4909 9.30975 56.5235 9.35927 56.5589C9.40685 56.5905 9.45638 56.6202 9.50493 56.6528C9.70205 56.7763 9.90305 56.8961 10.107 57.0043C10.3089 57.1135 10.5129 57.2131 10.7197 57.2964C10.9236 57.3826 11.1227 57.4582 11.3324 57.5071C12.4219 57.7743 13.3716 57.6086 14.0542 57.374C14.7427 57.1336 15.1583 56.8405 15.1583 56.8405C15.1583 56.8405 15.1107 56.7486 15.0078 56.602Z" fill="#F9F5E9"/>
<path fill-rule="evenodd" clip-rule="evenodd" d="M15.3695 55.3512C15.5666 55.5705 15.7531 55.7324 15.9007 55.8301C16.0473 55.9287 16.1444 55.9728 16.1444 55.9728C16.1444 55.9728 16.4707 55.5935 16.7824 54.9882C17.1009 54.3762 17.4213 53.5334 17.4145 52.6351C17.4184 52.3028 17.3815 51.957 17.3135 51.6247C17.2805 51.46 17.2368 51.2952 17.1892 51.1324C17.1416 50.9753 17.1018 50.8087 17.0504 50.6536C16.9659 50.3835 16.8707 50.1287 16.7765 49.9008C16.7513 49.8443 16.726 49.7887 16.7047 49.7332C16.6804 49.6786 16.662 49.6259 16.6396 49.5723C16.5988 49.4679 16.56 49.3721 16.5212 49.284C16.3677 48.9306 16.2502 48.7161 16.2502 48.7161C16.2502 48.7161 15.9521 49.1605 15.6045 49.8347C15.5161 50.0033 15.4249 50.1843 15.3355 50.3796C15.2918 50.4764 15.2472 50.5779 15.2044 50.6765C15.1607 50.7771 15.1238 50.8796 15.0811 50.984C14.9258 51.3977 14.7869 51.8431 14.6937 52.2836C14.6548 52.4541 14.6267 52.6217 14.6043 52.7864C14.584 52.9502 14.5781 53.1082 14.5781 53.2605C14.5781 53.7384 14.6772 54.1531 14.8189 54.5075C14.9714 54.8551 15.1753 55.1319 15.3695 55.3512Z" fill="#F9F5E9"/>
<path fill-rule="evenodd" clip-rule="evenodd" d="M7.74988 49.4132C7.96059 49.4228 8.15868 49.4199 8.34415 49.4084C9.07436 49.3615 9.55794 49.1901 9.55794 49.1901C9.55794 49.1901 9.53949 49.0876 9.48414 48.919C9.45792 48.8357 9.41811 48.738 9.37053 48.626C9.3278 48.5101 9.27343 48.3865 9.20351 48.2544C9.06077 47.9881 8.86559 47.6941 8.58302 47.4029C8.51796 47.3369 8.44611 47.265 8.36551 47.1827C8.28977 47.108 8.20626 47.0352 8.11887 46.9624C7.94311 46.8178 7.74308 46.677 7.51683 46.5429C7.28864 46.4107 7.03811 46.2843 6.76719 46.1627C6.51181 46.0382 6.23507 45.9204 5.95638 45.8045C5.39804 45.5766 4.81154 45.3687 4.28038 45.1906C3.757 45.0086 3.29673 44.8535 2.95784 44.7462C2.62089 44.638 2.41406 44.5776 2.41406 44.5776C2.41406 44.5776 2.49077 44.7721 2.63837 45.0843C2.7112 45.2413 2.79859 45.431 2.91026 45.6331C3.02581 45.8371 3.15593 46.0564 3.30061 46.2881C3.4453 46.5199 3.60649 46.7593 3.77739 46.9997C3.82012 47.0582 3.86381 47.1185 3.91042 47.1769C3.95509 47.2334 4.0017 47.2909 4.05316 47.3512C4.14929 47.4671 4.25028 47.5801 4.35224 47.6903C4.55907 47.9144 4.77367 48.126 4.99409 48.3157C5.10479 48.4133 5.21452 48.5034 5.33201 48.5867C5.45048 48.6671 5.56894 48.7438 5.69032 48.8127C6.17001 49.0876 6.65164 49.2475 7.10123 49.3347C7.32651 49.3797 7.54499 49.4017 7.74988 49.4132Z" fill="#F9F5E9"/>
<path fill-rule="evenodd" clip-rule="evenodd" d="M9.9247 46.8618C9.97131 47.2306 10.0781 47.5543 10.1995 47.8177C10.2607 47.9498 10.3257 48.0657 10.3879 48.1663C10.451 48.2668 10.5199 48.3502 10.5743 48.4153C10.686 48.5494 10.7646 48.6174 10.7646 48.6174C10.7646 48.6174 11.19 48.3396 11.6687 47.8397C11.7881 47.7161 11.9085 47.5782 12.0318 47.4279C12.16 47.2737 12.2824 47.108 12.3989 46.9327C12.631 46.5803 12.8378 46.1847 12.9689 45.7518C13.0029 45.6427 13.0271 45.5335 13.0543 45.4205C13.0815 45.3075 13.1039 45.1925 13.1242 45.0786C13.1611 44.8477 13.1854 44.615 13.1922 44.3852C13.2 43.9293 13.2078 43.4715 13.1738 43.0759C13.1582 42.8767 13.1378 42.69 13.1155 42.5243C13.1019 42.3557 13.0873 42.2063 13.0689 42.0837C13.0407 41.8338 13.0106 41.6863 13.0106 41.6863C13.0106 41.6863 12.8611 41.8098 12.6271 42.0272C12.3931 42.2437 12.0726 42.5549 11.7318 42.9304C11.4026 43.301 11.0579 43.7358 10.7588 44.1965C10.6054 44.4273 10.4656 44.6639 10.3422 44.9023C10.2238 45.136 10.1325 45.3707 10.0606 45.6015C9.99073 45.8285 9.94898 46.0506 9.9247 46.2604C9.91305 46.3667 9.90625 46.4701 9.90625 46.5697C9.90625 46.6205 9.90625 46.6703 9.90819 46.7182C9.91305 46.7651 9.9179 46.813 9.9247 46.8618Z" fill="#F9F5E9"/>
<path fill-rule="evenodd" clip-rule="evenodd" d="M3.50007 39.9183C3.7069 40.061 3.91567 40.1788 4.12347 40.2784C4.53908 40.4757 4.944 40.5945 5.29842 40.6663C6.01019 40.809 6.52386 40.7688 6.52386 40.7688C6.52386 40.7688 6.58407 40.3531 6.45006 39.7756C6.42093 39.6281 6.36461 39.4739 6.31509 39.3102C6.26266 39.1445 6.19371 38.9721 6.10535 38.7968C6.01796 38.6196 5.90629 38.4367 5.77326 38.2538C5.70625 38.1618 5.63537 38.0689 5.55575 37.977C5.51593 37.931 5.47515 37.885 5.43145 37.8372C5.39261 37.7912 5.35086 37.7462 5.30522 37.6983C4.60705 36.9551 3.47677 36.1918 2.58633 35.5721C2.13383 35.2647 1.72406 35.0004 1.42595 34.8098C1.12784 34.6201 0.941406 34.51 0.941406 34.51C0.941406 34.51 0.966653 34.7159 1.02589 35.055C1.08609 35.394 1.17542 35.8614 1.31428 36.3785C1.47353 36.8967 1.67939 37.4636 1.9338 37.9971C1.99497 38.1302 2.0678 38.2605 2.14548 38.3888C2.2222 38.5143 2.30085 38.6407 2.38242 38.7595C2.54652 38.9989 2.72325 39.223 2.91066 39.4145C3.10292 39.6099 3.2913 39.7775 3.50007 39.9183Z" fill="#F9F5E9"/>
<path fill-rule="evenodd" clip-rule="evenodd" d="M7.84157 40.5245C7.84157 40.5245 8.33291 40.3646 8.93883 40.0054C9.24665 39.8244 9.57971 39.5965 9.89821 39.3187C10.0575 39.178 10.2109 39.0266 10.3565 38.8619C10.509 38.6953 10.6556 38.5171 10.7838 38.3246C10.9139 38.1321 11.0256 37.9252 11.1246 37.7136C11.2237 37.5029 11.2936 37.2864 11.38 37.0652C11.5422 36.6266 11.65 36.186 11.7267 35.7962C11.8238 35.4007 11.8811 35.0549 11.916 34.8078C11.949 34.5588 11.9587 34.4094 11.9587 34.4094C11.9587 34.4094 11.783 34.4908 11.4985 34.6402C11.214 34.7925 10.8265 35.0099 10.3963 35.2848C9.97104 35.5597 9.49329 35.8929 9.0874 36.2598C8.67277 36.6266 8.2931 37.0298 8.01635 37.4378C7.87361 37.6389 7.78428 37.841 7.70271 38.0383C7.62794 38.2346 7.5755 38.4281 7.54055 38.6148C7.50559 38.7997 7.48714 38.9778 7.4852 39.1444C7.47937 39.3101 7.50559 39.4672 7.52792 39.608C7.62794 40.175 7.84157 40.5245 7.84157 40.5245Z" fill="#F9F5E9"/>
<path fill-rule="evenodd" clip-rule="evenodd" d="M2.38047 27.352C2.41445 27.5723 2.45523 27.7935 2.50379 28.01C2.60866 28.4419 2.73198 28.8509 2.93492 29.21C3.19322 29.6841 3.51269 30.0624 3.84964 30.3612C4.18755 30.6591 4.53227 30.8784 4.85854 31.0402C5.50913 31.3668 6.016 31.4626 6.016 31.4626C6.016 31.4626 6.05873 31.3678 6.10146 31.1983C6.14224 31.0259 6.20924 30.7845 6.23449 30.4905C6.26265 30.1936 6.25682 29.845 6.17914 29.4571C6.11117 29.0702 5.98785 28.6469 5.74509 28.1929C5.66449 28.0435 5.57321 27.8864 5.4732 27.7303C5.42465 27.6547 5.37318 27.5752 5.31978 27.4947C5.26928 27.4181 5.21685 27.3357 5.16538 27.2582C4.89544 26.8645 4.5915 26.4661 4.28466 26.0859C3.97975 25.7057 3.67097 25.3408 3.41267 25.0314C2.88831 24.407 2.49116 23.9731 2.49116 23.9731C2.49116 23.9731 2.42999 24.2921 2.36687 24.7882C2.329 25.0372 2.31638 25.3341 2.30667 25.6559C2.29793 25.9777 2.29793 26.3282 2.31346 26.6854C2.31929 26.9028 2.34842 27.1289 2.38047 27.352Z" fill="#F9F5E9"/>
<path fill-rule="evenodd" clip-rule="evenodd" d="M10.8206 30.2366C10.8857 30.183 10.9469 30.1246 11.008 30.0652C11.0712 30.0048 11.1362 29.9435 11.1955 29.8803C11.3217 29.7568 11.4343 29.6246 11.5431 29.4886C11.6489 29.3545 11.7509 29.2157 11.846 29.0749C11.9461 28.9255 12.0364 28.7856 12.1228 28.6554C12.2801 28.4169 12.416 28.1784 12.5335 27.9601C12.5928 27.8499 12.6462 27.7427 12.6947 27.644C12.7394 27.5425 12.7967 27.4515 12.8404 27.3653C13.0171 27.0244 13.1064 26.7993 13.1064 26.7993C13.1064 26.7993 12.5607 26.8846 11.7926 27.0886C11.6052 27.1384 11.3945 27.1949 11.1906 27.2648C10.9838 27.3309 10.7692 27.4075 10.5526 27.4908C10.1196 27.6565 9.67773 27.8547 9.26698 28.0817C8.94557 28.2551 8.67563 28.4524 8.43093 28.6583C8.05902 28.9753 7.79199 29.3229 7.6172 29.661C7.45116 30.001 7.36376 30.3305 7.32395 30.6139C7.28511 30.9003 7.27831 31.1388 7.3055 31.3093C7.32686 31.4788 7.35794 31.5774 7.35794 31.5774C7.35794 31.5774 7.87258 31.5525 8.55619 31.3658C9.23882 31.1809 10.1225 30.8438 10.8206 30.2366Z" fill="#F9F5E9"/>
<path fill-rule="evenodd" clip-rule="evenodd" d="M6.5014 20.7552C6.74319 21.1335 7.01896 21.44 7.28017 21.6833C7.80258 22.1669 8.26091 22.3949 8.26091 22.3949C8.26091 22.3949 8.32985 22.3135 8.42599 22.165C8.52406 22.0146 8.63767 21.7905 8.75225 21.5147C8.87072 21.2398 8.96976 20.9056 9.01637 20.5129C9.03871 20.3204 9.03871 20.1069 9.03871 19.8875C9.03774 19.6663 9.01443 19.4326 8.96976 19.1846C8.92413 18.9356 8.85615 18.6731 8.77556 18.405C8.73477 18.2709 8.68914 18.133 8.64253 17.997C8.59495 17.8629 8.55125 17.7259 8.5027 17.589C8.31043 17.0431 8.08418 16.4924 7.87153 15.9992C7.76374 15.7549 7.66276 15.5222 7.57051 15.3115C7.47826 15.1046 7.39572 14.9198 7.32581 14.7656C7.18695 14.4534 7.09956 14.2676 7.09956 14.2676C7.09956 14.2676 6.99663 14.4534 6.84806 14.7656C6.76747 14.9179 6.6927 15.1113 6.60725 15.3249C6.52374 15.5423 6.43537 15.7827 6.34992 16.0375C6.30914 16.1648 6.26739 16.298 6.22369 16.432C6.18485 16.5671 6.14406 16.704 6.11299 16.8487C6.04987 17.1312 5.99647 17.4271 5.95666 17.7183C5.91781 18.0104 5.89062 18.3025 5.89062 18.5841C5.89548 18.8723 5.92267 19.151 5.97316 19.4106C6.07609 19.9325 6.26738 20.3788 6.5014 20.7552Z" fill="#F9F5E9"/>
<path fill-rule="evenodd" clip-rule="evenodd" d="M13.8581 22.1562C14.0649 22.0317 14.2679 21.8919 14.4553 21.7473C14.6446 21.5998 14.8184 21.4475 14.9854 21.2952C15.1534 21.1458 15.3224 20.9983 15.4671 20.8547C15.6156 20.711 15.7477 20.5721 15.8652 20.4476C15.9235 20.3825 15.9788 20.3222 16.0293 20.2676C16.0808 20.212 16.1293 20.1622 16.172 20.1153C16.3507 19.9276 16.4468 19.8098 16.4468 19.8098C16.4468 19.8098 16.2497 19.7858 15.9205 19.7657C15.5943 19.7446 15.1301 19.7217 14.6213 19.7408C14.1115 19.7571 13.5347 19.8031 12.9706 19.895C12.8268 19.9199 12.6851 19.9448 12.5462 19.9735C12.4112 20.0071 12.2782 20.0406 12.1471 20.0789C11.8859 20.1536 11.6344 20.2436 11.4072 20.3471C11.179 20.4476 10.9751 20.5635 10.7945 20.689C10.6109 20.8135 10.4663 20.9543 10.3323 21.0922C10.072 21.3737 9.88753 21.663 9.75741 21.9254C9.63409 22.1869 9.58068 22.4244 9.54961 22.591C9.5166 22.7596 9.51562 22.8611 9.51562 22.8611C9.51562 22.8611 10.0167 22.976 10.7294 22.9789C11.0877 22.9827 11.4926 22.9578 11.9189 22.8841C12.3539 22.8142 12.8045 22.6954 13.2376 22.5029C13.4512 22.4043 13.6561 22.2874 13.8581 22.1562Z" fill="#F9F5E9"/>
<path fill-rule="evenodd" clip-rule="evenodd" d="M11.6046 12.5992C11.7279 13.0234 11.9046 13.3883 12.0862 13.6872C12.4494 14.2829 12.8222 14.6181 12.8222 14.6181C12.8222 14.6181 13.1893 14.3825 13.5563 13.9036C13.6496 13.7829 13.7418 13.6479 13.8292 13.4947C13.9176 13.3472 14.0108 13.1824 14.0885 13.0033C14.2477 12.6432 14.3652 12.2094 14.4128 11.7047C14.4691 11.2057 14.4584 10.6368 14.4167 10.0554C14.372 9.4674 14.3196 8.89181 14.2564 8.3641C14.1914 7.83735 14.1234 7.37093 14.0739 7.03285C14.0195 6.69956 13.9875 6.49365 13.9875 6.49365C13.9875 6.49365 13.9467 6.52813 13.8826 6.60283C13.8195 6.67658 13.7272 6.78193 13.6146 6.91697C13.3893 7.18609 13.0844 7.56439 12.7708 8.00878C12.4736 8.46753 12.1678 8.99237 11.9231 9.52774C11.6861 10.0746 11.5201 10.6435 11.4647 11.1645C11.4511 11.2967 11.4453 11.4231 11.4453 11.5495C11.4453 11.675 11.456 11.7995 11.4686 11.9201C11.4958 12.1615 11.5444 12.3885 11.6046 12.5992Z" fill="#F9F5E9"/>
<path fill-rule="evenodd" clip-rule="evenodd" d="M18.2972 15.819C18.4128 15.7826 18.5244 15.7414 18.64 15.6964C18.6944 15.6753 18.7497 15.6533 18.806 15.6303C18.8643 15.6063 18.9187 15.5862 18.976 15.5642C19.4294 15.3851 19.8431 15.1648 20.2033 14.958C20.5752 14.7655 20.8811 14.572 21.0977 14.4322C21.2064 14.3594 21.2919 14.299 21.3482 14.2598C21.4113 14.2196 21.4433 14.1994 21.4433 14.1994C21.4433 14.1994 21.3967 14.1822 21.3113 14.1487C21.2239 14.1161 21.1015 14.073 20.9491 14.0251C20.6442 13.9265 20.2101 13.7972 19.7091 13.6794C19.4566 13.621 19.1906 13.5645 18.9119 13.5166C18.774 13.4936 18.6322 13.4697 18.4924 13.4505C18.3516 13.4342 18.2108 13.4199 18.071 13.4084C17.5048 13.3614 16.9378 13.3633 16.4338 13.4428C15.9376 13.5252 15.5317 13.6976 15.1938 13.8939C15.0239 13.9935 14.8704 14.0998 14.7413 14.2119C14.6112 14.3249 14.5034 14.4417 14.4092 14.5519C14.0276 15.0001 13.8984 15.3842 13.8984 15.3842C13.8984 15.3842 14.3509 15.6245 15.0423 15.8123C15.387 15.908 15.79 15.9904 16.2231 16.0297C16.6581 16.0708 17.1087 16.0555 17.5893 15.9875C17.8311 15.9502 18.0661 15.8908 18.2972 15.819Z" fill="#F9F5E9"/>
<path fill-rule="evenodd" clip-rule="evenodd" d="M19.6128 7.73386C19.7031 7.92349 19.7662 8.02884 19.7662 8.02884C19.7662 8.02884 19.7934 8.02118 19.8391 8.00011C19.8866 7.98287 19.9536 7.95605 20.0381 7.91583C20.2061 7.84017 20.4353 7.7195 20.6829 7.53657C21.1674 7.16018 21.7656 6.6047 22.1472 5.64984C22.2773 5.33667 22.3958 4.99284 22.4958 4.62507C22.623 4.16824 22.7279 3.68171 22.8192 3.20859C22.9153 2.74697 22.9988 2.29588 23.0668 1.89746C23.2008 1.10446 23.2736 0.532696 23.2736 0.531738C23.2736 0.531738 22.9862 0.703172 22.557 0.99911C22.3453 1.14373 22.0957 1.32282 21.8326 1.5249C21.5753 1.73752 21.3043 1.97504 21.0383 2.22883C20.8732 2.3859 20.714 2.54776 20.5586 2.71536C20.5207 2.75654 20.4799 2.79773 20.4421 2.84082C20.4071 2.88392 20.3702 2.92798 20.3333 2.97395C20.2634 3.06397 20.1945 3.154 20.1245 3.24498C19.8565 3.60605 19.6293 3.98148 19.473 4.35212C19.3681 4.59155 19.3031 4.84535 19.2574 5.08095C19.2137 5.31847 19.1914 5.54737 19.1885 5.7686C19.1788 6.2082 19.2429 6.60278 19.3312 6.93799C19.4176 7.27319 19.5254 7.54327 19.6128 7.73386Z" fill="#F9F5E9"/>
<path fill-rule="evenodd" clip-rule="evenodd" d="M26.0508 10.4673C26.3421 10.4118 26.616 10.3448 26.8674 10.2796C27.1209 10.2231 27.351 10.1628 27.5433 10.1082C27.9249 9.9971 28.1609 9.90612 28.1609 9.90612C28.1609 9.90612 27.7268 9.58049 27.0587 9.18399C26.7276 8.9867 26.3353 8.77025 25.9071 8.57009C25.4876 8.37471 25.04 8.20136 24.5914 8.06824C24.2457 7.96672 23.9 7.88723 23.5737 7.85275C22.5784 7.76464 21.7928 8.04621 21.3054 8.3862C21.0558 8.55093 20.8723 8.71662 20.749 8.84112C20.6878 8.90146 20.6422 8.95414 20.613 8.98957C20.5839 9.02884 20.5703 9.04895 20.5703 9.04895C20.5703 9.04895 20.6596 9.1361 20.8267 9.26731C20.9937 9.40044 21.2384 9.57857 21.5423 9.75959C21.8462 9.94443 22.2094 10.1302 22.6124 10.2835C22.8153 10.3582 23.029 10.4281 23.2494 10.4798C23.4698 10.5344 23.6961 10.5708 23.9388 10.6024C24.6428 10.6886 25.373 10.5756 26.0508 10.4673Z" fill="#F9F5E9"/>
<path fill-rule="evenodd" clip-rule="evenodd" d="M36.4482 66.4236C36.2569 66.3996 36.02 66.3718 35.753 66.3402C35.617 66.3201 35.4733 66.3115 35.3238 66.2837C35.1752 66.2579 35.0179 66.2301 34.8548 66.2023C34.5256 66.1468 34.1702 66.0874 33.7925 66.0232C33.4196 65.9418 33.0273 65.8556 32.6224 65.7694C32.4165 65.7215 32.2087 65.6832 32.0028 65.6277C31.797 65.5712 31.5882 65.5156 31.3765 65.4582C30.9561 65.3423 30.524 65.2398 30.1054 65.0952C28.4032 64.5933 26.7758 63.899 25.5756 63.3464C25.2814 63.2018 25.0056 63.0686 24.7658 62.9527C24.6434 62.8943 24.5327 62.8388 24.4288 62.7871C24.3249 62.7353 24.2327 62.6817 24.1482 62.6376C23.8093 62.4528 23.619 62.3465 23.619 62.3465C23.619 62.3465 23.4267 62.2431 23.0868 62.0582C22.7518 61.8676 22.2887 61.5746 21.7274 61.2355C20.6272 60.522 19.1852 59.5222 17.8695 58.3834C16.5479 57.2485 15.3341 56.0092 14.4796 55.0371C14.367 54.9203 14.2728 54.7986 14.1767 54.6847C14.0825 54.5707 13.9951 54.4653 13.9106 54.3629C13.7426 54.1617 13.596 53.9846 13.4756 53.838C13.3532 53.6953 13.2697 53.5727 13.2095 53.4933C13.1493 53.4109 13.1153 53.3697 13.1153 53.3697C13.1153 53.3697 12.9881 53.1983 12.7619 52.8956C12.6512 52.7453 12.5075 52.5662 12.3599 52.3497C12.2142 52.1333 12.0472 51.8881 11.8685 51.6218C11.7772 51.4897 11.6831 51.3508 11.5879 51.2062C11.4888 51.0616 11.4034 50.9074 11.3063 50.7513C11.1131 50.4352 10.915 50.1029 10.7081 49.76C10.5198 49.4066 10.3217 49.0427 10.1216 48.674C10.0702 48.5801 10.0206 48.4872 9.97015 48.3953C9.92548 48.2985 9.88179 48.2028 9.83421 48.1079C9.74293 47.9164 9.65165 47.7239 9.55844 47.5304C8.83696 45.9885 8.23978 44.3929 7.89894 43.1661C7.85233 43.0138 7.80961 42.8672 7.76688 42.7293C7.7261 42.5905 7.68435 42.4593 7.65813 42.3347C7.59792 42.0838 7.54063 41.8635 7.49985 41.6835C7.41246 41.3234 7.36002 41.1175 7.36002 41.1175C7.36002 41.1175 7.34837 41.0658 7.32312 40.969C7.30176 40.8752 7.27748 40.7296 7.24156 40.5467C7.20757 40.3657 7.16679 40.1463 7.12115 39.8916C7.07357 39.6397 7.00851 39.3543 6.97452 39.0382C6.9318 38.7241 6.88616 38.3841 6.83858 38.024C6.82693 37.9349 6.81236 37.843 6.80265 37.7511C6.79003 37.6591 6.78517 37.5653 6.77643 37.4685C6.76381 37.2799 6.74536 37.0845 6.73079 36.8872C6.64728 36.099 6.64728 35.2533 6.62107 34.4095C6.64728 33.5639 6.64728 32.7191 6.73079 31.93C6.74536 31.7336 6.76381 31.5392 6.77643 31.3496C6.78517 31.2538 6.79003 31.16 6.80265 31.068C6.81236 30.9751 6.82693 30.8832 6.83858 30.7932C6.88616 30.434 6.9318 30.0921 6.97452 29.7789C7.00851 29.4629 7.07357 29.1803 7.12115 28.9256C7.16679 28.6727 7.20757 28.4525 7.24156 28.2705C7.27748 28.0895 7.30176 27.9439 7.32312 27.8481C7.34837 27.7514 7.36002 27.6997 7.36002 27.6997C7.36002 27.6997 7.41246 27.4947 7.49985 27.1346C7.54063 26.9546 7.59792 26.7362 7.65813 26.4853C7.68435 26.3598 7.7261 26.2267 7.76688 26.0888C7.80961 25.949 7.85233 25.8043 7.89894 25.6511C8.23978 24.4262 8.83696 22.8306 9.55844 21.2867C9.65165 21.0961 9.74293 20.9008 9.83421 20.7102C9.88179 20.6135 9.92548 20.5206 9.97015 20.4238C10.0206 20.3309 10.0702 20.238 10.1216 20.1432C10.3217 19.7735 10.5198 19.4096 10.7081 19.0581C10.915 18.7152 11.1131 18.3829 11.3063 18.0678C11.4034 17.9127 11.4888 17.7556 11.5879 17.6119C11.6831 17.4673 11.7772 17.3294 11.8685 17.1953C12.0472 16.9291 12.2142 16.6839 12.3599 16.4684C12.5075 16.252 12.6512 16.0738 12.7619 15.9225C12.9881 15.6208 13.1153 15.4494 13.1153 15.4494C13.1153 15.4494 13.1493 15.4063 13.2095 15.3249C13.2697 15.2454 13.3532 15.1228 13.4756 14.9801C13.596 14.8345 13.7426 14.6583 13.9106 14.4553C13.9951 14.3537 14.0825 14.2465 14.1767 14.1306C14.2728 14.0195 14.367 13.8979 14.4796 13.7801C15.3341 12.8099 16.5479 11.5696 17.8695 10.4337C19.1852 9.29501 20.6272 8.29705 21.7274 7.58067C22.2887 7.2426 22.7518 6.94953 23.0868 6.76086C23.4267 6.57602 23.619 6.46971 23.619 6.46971C23.619 6.46971 23.8093 6.36532 24.1482 6.18047C24.2327 6.13546 24.3249 6.08566 24.4288 6.02915C24.5327 5.97935 24.6434 5.9238 24.7658 5.86538C24.8473 5.82516 24.9308 5.78493 25.0182 5.74375C25.025 5.74375 25.0318 5.74375 25.0396 5.74375C25.2542 5.76195 25.5581 5.77152 25.9145 5.75237C26.634 5.72076 27.5643 5.57423 28.3838 5.13176C28.8082 4.91723 29.2082 4.62608 29.5558 4.31099C29.7258 4.152 29.9025 3.99302 30.0666 3.83499C30.2288 3.67697 30.3773 3.51799 30.5143 3.36475C30.7745 3.05636 31.0182 2.79011 31.1775 2.5909C31.3348 2.3917 31.4241 2.26623 31.4241 2.26623C31.4241 2.26623 31.227 2.25761 30.9007 2.25523C30.5745 2.25283 30.1161 2.2624 29.5995 2.30263C29.4694 2.31412 29.3354 2.3237 29.2004 2.33998C29.0664 2.35626 28.9305 2.37446 28.7946 2.39649C28.5207 2.43767 28.2411 2.49034 27.9643 2.55451C27.4137 2.6838 26.8554 2.85045 26.4282 3.08701C25.9912 3.32069 25.6552 3.60418 25.3989 3.89437C25.1532 4.1884 24.9998 4.49295 24.8881 4.76208C24.7852 5.03024 24.7298 5.26584 24.7094 5.43632C24.7036 5.46888 24.7026 5.49953 24.7007 5.52826C24.6686 5.54454 24.6366 5.56178 24.6036 5.57423C24.4832 5.63553 24.3696 5.69012 24.2628 5.74088C24.1608 5.79834 24.0656 5.84814 23.9792 5.89603C23.6403 6.08087 23.4461 6.18814 23.4461 6.18814C23.4461 6.18814 23.25 6.29349 22.9082 6.47928C22.5732 6.67083 22.1042 6.96581 21.5342 7.31059C20.4223 8.03081 18.9677 9.04025 17.6364 10.1914C16.3032 11.3369 15.0787 12.5896 14.2126 13.5703C14.0999 13.6891 14.0058 13.8145 13.9106 13.9266C13.8125 14.0415 13.7242 14.1497 13.6406 14.2532C13.4707 14.4572 13.3222 14.6353 13.2017 14.7828C13.0775 14.9274 12.9939 15.051 12.9308 15.1314C12.8706 15.2119 12.8366 15.2559 12.8366 15.2559C12.8366 15.2559 12.7065 15.4302 12.4783 15.7329C12.3667 15.888 12.222 16.0681 12.0724 16.2855C11.9229 16.5048 11.7578 16.7519 11.5772 17.0201C11.483 17.1551 11.3908 17.2949 11.2917 17.4405C11.1956 17.5861 11.1063 17.7451 11.0062 17.9021C10.8169 18.2182 10.612 18.5553 10.4042 18.9029C10.2119 19.2573 10.0129 19.6251 9.81285 20.0005C9.76235 20.0944 9.71089 20.1882 9.65942 20.2821C9.61476 20.3769 9.56717 20.4736 9.52251 20.5704C9.43026 20.7648 9.33704 20.9601 9.24576 21.1546C8.51361 22.7128 7.90865 24.3247 7.56782 25.562C7.51927 25.7162 7.47655 25.8628 7.43576 26.0045C7.39304 26.1463 7.34837 26.2765 7.32215 26.4048C7.26098 26.6567 7.20563 26.8789 7.16387 27.0609C7.07357 27.4229 7.02307 27.6317 7.02307 27.6317C7.02307 27.6317 7.01045 27.6844 6.98715 27.7811C6.96287 27.8788 6.93957 28.0244 6.90364 28.2073C6.87062 28.3912 6.82693 28.6153 6.78032 28.871C6.73468 29.1267 6.66865 29.414 6.63272 29.732C6.58999 30.05 6.54338 30.3938 6.4958 30.7568C6.48512 30.8487 6.46959 30.9406 6.4589 31.0326C6.44725 31.1284 6.4424 31.2232 6.43269 31.318C6.41812 31.5095 6.40356 31.704 6.38705 31.908C6.30257 32.7019 6.30257 33.5552 6.27344 34.4095C6.30257 35.2629 6.30257 36.1153 6.38705 36.913C6.40356 37.1123 6.41812 37.3067 6.43269 37.5011C6.4424 37.5969 6.44725 37.6917 6.4589 37.7827C6.46959 37.8765 6.48512 37.9713 6.4958 38.0614C6.54338 38.4234 6.58999 38.7701 6.63272 39.0871C6.66865 39.4031 6.73468 39.6914 6.78032 39.9481C6.82693 40.2038 6.87062 40.425 6.90364 40.6099C6.93957 40.7938 6.96287 40.9384 6.98715 41.037C7.01045 41.1338 7.02307 41.1864 7.02307 41.1864C7.02307 41.1864 7.07357 41.3933 7.16387 41.7563C7.20563 41.9392 7.26098 42.1614 7.32215 42.4123C7.34837 42.5397 7.39304 42.6738 7.43576 42.8127C7.47655 42.9544 7.51927 43.1019 7.56782 43.2561C7.90865 44.4935 8.51361 46.1044 9.24576 47.6655C9.33704 47.858 9.43026 48.0533 9.52251 48.2468C9.56717 48.3445 9.61476 48.4403 9.65942 48.536C9.71089 48.628 9.76235 48.7247 9.81285 48.8186C10.0129 49.1911 10.2119 49.5599 10.4042 49.9152C10.612 50.2619 10.8169 50.598 11.0062 50.916C11.1063 51.0731 11.1956 51.2311 11.2917 51.3767C11.3908 51.5213 11.483 51.664 11.5772 51.7981C11.7578 52.0672 11.9229 52.3143 12.0724 52.5326C12.222 52.7501 12.3667 52.9311 12.4783 53.0843C12.7065 53.3879 12.8366 53.5622 12.8366 53.5622C12.8366 53.5622 12.8706 53.6063 12.9308 53.6877C12.9939 53.7681 13.0775 53.8907 13.2017 54.0353C13.3222 54.1819 13.4707 54.361 13.6406 54.5669C13.7242 54.6684 13.8125 54.7766 13.9106 54.8915C14.0058 55.0026 14.0999 55.1291 14.2126 55.2469C15.0787 56.2295 16.3032 57.4812 17.6364 58.6267C18.9677 59.776 20.4223 60.7854 21.5342 61.5085C22.1042 61.8523 22.5732 62.1463 22.9082 62.3388C23.25 62.5256 23.4461 62.63 23.4461 62.63C23.4461 62.63 23.6403 62.7382 23.9792 62.9221C24.0656 62.969 24.1608 63.0207 24.2628 63.0763C24.3696 63.128 24.4832 63.1826 24.6036 63.241C24.8473 63.3598 25.1221 63.4948 25.4231 63.6404C26.636 64.1978 28.2809 64.8988 29.9996 65.4064C30.422 65.552 30.858 65.6545 31.2853 65.7723C31.495 65.8307 31.7077 65.8882 31.9164 65.9437C32.1223 66.0012 32.333 66.0386 32.5389 66.0864C32.9496 66.1755 33.3477 66.2617 33.7235 66.345C34.1032 66.4082 34.4634 66.4686 34.7955 66.5251C34.9616 66.5529 35.1189 66.5816 35.2694 66.6065C35.4228 66.6352 35.5675 66.6458 35.7025 66.6649C35.9753 66.6975 36.2123 66.7243 36.4084 66.7492C36.7968 66.7971 37.0202 66.8239 37.0202 66.8239L37.0561 66.4963C37.0561 66.4963 36.8337 66.4705 36.4482 66.4236Z" fill="#F9F5E9"/>
<path fill-rule="evenodd" clip-rule="evenodd" d="M32.625 66.1037C32.625 66.1037 37.316 67.2836 38.3706 71.5455L38.2385 66.5241L32.9377 65.8374L32.625 66.1037Z" fill="#F9F5E9"/>
</g>
</g>
<defs>
<clipPath id="clip0_420_23270">
<rect width="38" height="72" fill="white" transform="matrix(-1 0 0 1 114.438 0)"/>
</clipPath>
<clipPath id="clip1_420_23270">
<rect width="38" height="72" fill="white" transform="translate(0.5625)"/>
</clipPath>
</defs>
</svg>
