<svg width="114" height="74" viewBox="0 0 114 74" fill="none" xmlns="http://www.w3.org/2000/svg">
<g opacity="0.7">
<path fill-rule="evenodd" clip-rule="evenodd" d="M55.5327 34.5327L51.62 36L55.5327 37.4673L57 41.38L58.4673 37.4673L62.38 36L58.4673 34.5327L57 30.62L55.5327 34.5327ZM53.5909 32.5909L44.5 36L53.5909 39.4091L57 48.5L60.4091 39.4091L69.5 36L60.4091 32.5909L57 23.5L53.5909 32.5909Z" fill="#F9F5E9" stroke="#161616" stroke-width="0.5"/>
<g clip-path="url(#clip0_420_23389)">
<path fill-rule="evenodd" clip-rule="evenodd" d="M84.2598 64.79C84.4648 64.7881 84.6803 64.8013 84.9092 64.8315C84.9676 64.841 85.0279 64.8504 85.0854 64.8608C85.1448 64.8693 85.2013 64.8797 85.2626 64.8892C85.3813 64.9118 85.5068 64.9402 85.6313 64.9732C86.1341 65.1074 86.6848 65.3265 87.2355 65.5768C87.7747 65.8101 88.3187 66.0728 88.8071 66.3212C89.2936 66.5677 89.7265 66.8039 90.0311 66.9626C90.3356 67.1232 90.5195 67.2261 90.5195 67.2261C90.5195 67.2261 90.4716 67.2431 90.3759 67.279C90.283 67.3092 90.1498 67.3612 89.9794 67.4075C89.6365 67.5038 89.1557 67.6295 88.6117 67.7372C88.4748 67.7645 88.3378 67.7948 88.1922 67.8156C88.0457 67.8363 87.8963 67.8524 87.7479 67.8685C87.4471 67.8996 87.1407 67.9232 86.8332 67.9308C86.2251 67.9563 85.6112 67.8807 85.0844 67.7372C84.0309 67.4547 83.3164 66.8152 82.873 66.2834C82.4267 65.7488 82.2371 65.2991 82.2371 65.2991C82.2371 65.2991 82.5982 65.0686 83.1996 64.9307C83.4994 64.8599 83.8528 64.79 84.2598 64.79Z" fill="#F9F5E9"/>
<path fill-rule="evenodd" clip-rule="evenodd" d="M82.6451 60.6562C82.8912 60.2708 83.2159 59.9336 83.5521 59.603C83.7187 59.4386 83.893 59.2893 84.0702 59.1495C84.1602 59.0787 84.2464 59.0126 84.3288 58.9483C84.4111 58.8794 84.4945 58.8133 84.5759 58.7509C84.9005 58.5034 85.1974 58.3051 85.412 58.1719C85.6265 58.0273 85.7577 57.948 85.7577 57.948C85.7577 57.948 85.7596 58.135 85.7472 58.443C85.7395 58.7575 85.706 59.1722 85.638 59.6492C85.569 60.1253 85.4627 60.659 85.3095 61.1804C85.1515 61.6849 84.9398 62.1761 84.6812 62.5832C84.619 62.6852 84.551 62.7816 84.4811 62.8713C84.4475 62.9176 84.4111 62.9591 84.3738 63.0017C84.3374 63.0413 84.302 63.0801 84.2646 63.1178C84.1133 63.2671 83.9553 63.3946 83.7963 63.5032C83.6383 63.6128 83.4802 63.7044 83.3251 63.7781C83.1718 63.8509 83.0215 63.916 82.8788 63.9538C82.3061 64.1135 81.8885 64.0861 81.8885 64.0861C81.8885 64.0861 81.8224 63.6034 81.8914 62.9384C81.9258 62.6049 81.99 62.2261 82.1107 61.8388C82.1404 61.7425 82.1729 61.6433 82.2122 61.547C82.2457 61.4468 82.285 61.3458 82.331 61.2456C82.42 61.0473 82.5215 60.847 82.6451 60.6562Z" fill="#F9F5E9"/>
<path fill-rule="evenodd" clip-rule="evenodd" d="M90.7963 61.8003C90.8317 61.7663 90.8863 61.7229 90.9524 61.6643C91.0893 61.5472 91.2924 61.3923 91.5567 61.2449C91.6918 61.1693 91.8373 61.0975 92.0049 61.0314C92.1697 60.9644 92.3545 60.9058 92.5451 60.8453C92.932 60.7339 93.386 60.664 93.9156 60.6744C94.1828 60.68 94.4567 60.6942 94.744 60.7216C95.0294 60.749 95.3254 60.7896 95.6213 60.8378C95.9211 60.885 96.2228 60.9417 96.5149 60.9965C96.8003 61.0541 97.0847 61.1108 97.3538 61.1646C97.8902 61.277 98.3671 61.3847 98.7071 61.4659C99.0529 61.5481 99.2578 61.6029 99.2578 61.6029C99.2578 61.6029 99.0816 61.7229 98.7809 61.908C98.6353 62.0006 98.4533 62.1073 98.2493 62.2235C98.1497 62.2811 98.0405 62.3416 97.9266 62.403C97.8126 62.4625 97.691 62.5201 97.5655 62.5787C97.3146 62.6949 97.0464 62.8111 96.7696 62.9225C96.6288 62.9754 96.4909 63.0283 96.3463 63.0793C96.2745 63.1058 96.2036 63.1313 96.1318 63.154C96.059 63.1738 95.9853 63.1955 95.9105 63.2163C95.3196 63.3759 94.7201 63.4808 94.1771 63.4789C93.0651 63.4477 92.2108 63.0378 91.6333 62.6401C91.3451 62.4464 91.12 62.2434 90.9696 62.0951C90.8202 61.9477 90.7426 61.8513 90.7426 61.8513C90.7426 61.8513 90.7608 61.8334 90.7963 61.8003Z" fill="#F9F5E9"/>
<path fill-rule="evenodd" clip-rule="evenodd" d="M92.3278 58.6123C92.189 59.0591 91.9744 59.4294 91.736 59.725C91.6191 59.8781 91.4889 60.0009 91.3586 60.1067C91.2293 60.2144 91.0972 60.306 90.9717 60.3844C90.7227 60.5402 90.4948 60.6385 90.3319 60.6989C90.2505 60.7311 90.1787 60.7462 90.1346 60.7575C90.0839 60.7688 90.0599 60.7736 90.0599 60.7736C90.0599 60.7736 90.0092 60.6612 89.9469 60.4694C89.8828 60.2758 89.8042 60.0028 89.742 59.6693C89.6136 59.0043 89.5581 58.1315 89.8224 57.2776C89.945 56.8393 90.1538 56.4161 90.398 56.0278C90.6327 55.6321 90.8922 55.2561 91.147 54.9453C91.2763 54.7923 91.3874 54.6383 91.4956 54.507C91.6009 54.3738 91.7015 54.2605 91.7848 54.166C91.9505 53.9771 92.0606 53.8704 92.0606 53.8704C92.0606 53.8704 92.1152 54.0498 92.1871 54.3464C92.2589 54.6421 92.3489 55.0615 92.4207 55.5385C92.4552 55.7794 92.4907 56.0382 92.5108 56.2999C92.5261 56.5578 92.5347 56.8242 92.5299 57.0896C92.5261 57.356 92.5108 57.6233 92.4782 57.8821C92.4437 58.1381 92.4016 58.3913 92.3278 58.6123Z" fill="#F9F5E9"/>
<path fill-rule="evenodd" clip-rule="evenodd" d="M98.4113 55.8266C98.5119 55.684 98.6546 55.479 98.8672 55.2655C99.0779 55.052 99.3557 54.83 99.7033 54.6232C100.04 54.4116 100.455 54.2226 100.966 54.0923C101.135 54.0479 101.318 54.0111 101.501 53.9742C101.684 53.9364 101.872 53.9053 102.067 53.875C103.029 53.7324 104.12 53.6786 104.941 53.6275C105.773 53.5822 106.367 53.5728 106.367 53.5728C106.367 53.5728 106.164 53.8231 105.818 54.1943C105.483 54.5693 104.965 55.0322 104.391 55.4818C104.301 55.5508 104.211 55.6159 104.123 55.684C104.076 55.717 104.031 55.7491 103.982 55.7841C103.936 55.8153 103.887 55.8445 103.839 55.8767C103.644 55.9985 103.446 56.1166 103.245 56.2233C103.046 56.331 102.845 56.4293 102.641 56.5114C102.44 56.5965 102.243 56.6711 102.036 56.7192C100.962 56.9828 100.025 56.8194 99.3518 56.588C98.6728 56.3509 98.2629 56.0618 98.2629 56.0618C98.2629 56.0618 98.3098 55.9711 98.4113 55.8266Z" fill="#F9F5E9"/>
<path fill-rule="evenodd" clip-rule="evenodd" d="M98.0554 54.5928C97.861 54.8092 97.6771 54.9688 97.5315 55.0651C97.3869 55.1624 97.2911 55.2059 97.2911 55.2059C97.2911 55.2059 96.9693 54.8318 96.6619 54.2348C96.3478 53.6312 96.0317 52.8 96.0384 51.9139C96.0346 51.5861 96.071 51.2451 96.138 50.9174C96.1706 50.7549 96.2137 50.5924 96.2606 50.4318C96.3075 50.2769 96.3468 50.1126 96.3976 49.9595C96.4809 49.6932 96.5747 49.4419 96.6676 49.2171C96.6925 49.1613 96.7174 49.1065 96.7385 49.0518C96.7625 48.9979 96.7807 48.946 96.8027 48.8931C96.8429 48.7901 96.8812 48.6956 96.9195 48.6087C97.0708 48.2602 97.1867 48.0486 97.1867 48.0486C97.1867 48.0486 97.4808 48.4869 97.8236 49.1519C97.9108 49.3181 98.0008 49.4967 98.0889 49.6894C98.132 49.7848 98.1761 49.8849 98.2182 49.9822C98.2613 50.0814 98.2977 50.1825 98.3398 50.2854C98.4931 50.6935 98.63 51.1327 98.722 51.5673C98.7603 51.7354 98.7881 51.9007 98.8101 52.0632C98.8302 52.2247 98.8359 52.3806 98.8359 52.5308C98.8359 53.0021 98.7382 53.4111 98.5984 53.7606C98.4481 54.1035 98.2469 54.3765 98.0554 54.5928Z" fill="#F9F5E9"/>
<path fill-rule="evenodd" clip-rule="evenodd" d="M105.569 48.7364C105.361 48.7458 105.166 48.743 104.983 48.7317C104.263 48.6854 103.786 48.5163 103.786 48.5163C103.786 48.5163 103.804 48.4152 103.859 48.249C103.885 48.1668 103.924 48.0704 103.971 47.9599C104.013 47.8456 104.067 47.7238 104.136 47.5934C104.276 47.3308 104.469 47.0408 104.748 46.7536C104.812 46.6885 104.883 46.6176 104.962 46.5364C105.037 46.4627 105.119 46.3909 105.205 46.3191C105.379 46.1765 105.576 46.0376 105.799 45.9054C106.024 45.775 106.271 45.6503 106.539 45.5304C106.79 45.4076 107.063 45.2914 107.338 45.1771C107.889 44.9523 108.467 44.7473 108.991 44.5716C109.507 44.3921 109.961 44.2391 110.296 44.1333C110.628 44.0266 110.832 43.967 110.832 43.967C110.832 43.967 110.756 44.1588 110.611 44.4667C110.539 44.6217 110.453 44.8087 110.343 45.008C110.229 45.2092 110.1 45.4255 109.958 45.6541C109.815 45.8827 109.656 46.1189 109.487 46.356C109.445 46.4136 109.402 46.4731 109.356 46.5307C109.312 46.5864 109.266 46.6431 109.215 46.7026C109.121 46.8169 109.021 46.9284 108.92 47.037C108.716 47.2581 108.505 47.4668 108.287 47.6539C108.178 47.7502 108.07 47.839 107.954 47.9212C107.837 48.0005 107.72 48.0761 107.601 48.1441C107.128 48.4152 106.653 48.573 106.209 48.6589C105.987 48.7033 105.771 48.725 105.569 48.7364Z" fill="#F9F5E9"/>
<path fill-rule="evenodd" clip-rule="evenodd" d="M103.423 46.2199C103.377 46.5836 103.272 46.9029 103.152 47.1626C103.092 47.293 103.028 47.4073 102.966 47.5065C102.904 47.6056 102.836 47.6878 102.782 47.7521C102.672 47.8843 102.595 47.9514 102.595 47.9514C102.595 47.9514 102.175 47.6774 101.703 47.1844C101.585 47.0625 101.467 46.9265 101.345 46.7782C101.219 46.6261 101.098 46.4627 100.983 46.2898C100.754 45.9422 100.55 45.5521 100.421 45.1251C100.387 45.0174 100.363 44.9097 100.336 44.7983C100.31 44.6868 100.288 44.5735 100.267 44.461C100.231 44.2334 100.207 44.0039 100.2 43.7771C100.193 43.3275 100.185 42.876 100.219 42.4859C100.234 42.2894 100.254 42.1052 100.276 41.9418C100.29 41.7755 100.304 41.6282 100.322 41.5072C100.35 41.2607 100.38 41.1152 100.38 41.1152C100.38 41.1152 100.527 41.2371 100.758 41.4515C100.989 41.665 101.305 41.972 101.641 42.3423C101.966 42.7078 102.306 43.1367 102.601 43.5911C102.752 43.8187 102.89 44.052 103.011 44.2872C103.128 44.5177 103.218 44.7491 103.289 44.9768C103.358 45.2007 103.399 45.4198 103.423 45.6267C103.435 45.7315 103.441 45.8336 103.441 45.9318C103.441 45.9819 103.441 46.031 103.439 46.0782C103.435 46.1245 103.43 46.1717 103.423 46.2199Z" fill="#F9F5E9"/>
<path fill-rule="evenodd" clip-rule="evenodd" d="M109.762 39.3716C109.558 39.5123 109.352 39.6285 109.147 39.7267C108.737 39.9213 108.337 40.0385 107.988 40.1093C107.286 40.2501 106.779 40.2104 106.779 40.2104C106.779 40.2104 106.72 39.8004 106.852 39.2308C106.881 39.0853 106.936 38.9333 106.985 38.7717C107.037 38.6083 107.105 38.4383 107.192 38.2654C107.278 38.0907 107.388 37.9103 107.519 37.7298C107.586 37.6392 107.655 37.5475 107.734 37.4568C107.773 37.4115 107.814 37.3662 107.857 37.3189C107.895 37.2736 107.936 37.2292 107.981 37.182C108.67 36.4489 109.785 35.6961 110.663 35.0849C111.109 34.7817 111.513 34.521 111.807 34.333C112.101 34.146 112.285 34.0374 112.285 34.0374C112.285 34.0374 112.26 34.2404 112.202 34.5748C112.142 34.9092 112.054 35.3702 111.917 35.8803C111.76 36.3913 111.557 36.9505 111.306 37.4767C111.246 37.608 111.174 37.7364 111.098 37.863C111.022 37.9868 110.944 38.1115 110.864 38.2286C110.702 38.4647 110.528 38.6858 110.343 38.8747C110.153 39.0674 109.967 39.2327 109.762 39.3716Z" fill="#F9F5E9"/>
<path fill-rule="evenodd" clip-rule="evenodd" d="M105.48 39.9693C105.48 39.9693 104.995 39.8116 104.397 39.4573C104.094 39.2788 103.765 39.054 103.451 38.7801C103.294 38.6412 103.143 38.4919 102.999 38.3295C102.849 38.1651 102.704 37.9894 102.578 37.7996C102.449 37.6097 102.339 37.4056 102.242 37.1969C102.144 36.9891 102.075 36.7756 101.99 36.5574C101.83 36.1248 101.724 35.6902 101.648 35.3058C101.552 34.9157 101.496 34.5747 101.461 34.3309C101.429 34.0853 101.419 33.938 101.419 33.938C101.419 33.938 101.592 34.0183 101.873 34.1656C102.154 34.3158 102.536 34.5303 102.96 34.8014C103.379 35.0725 103.851 35.4012 104.251 35.763C104.66 36.1248 105.034 36.5224 105.307 36.9248C105.448 37.1232 105.536 37.3225 105.617 37.5171C105.69 37.7108 105.742 37.9016 105.777 38.0858C105.811 38.2681 105.829 38.4438 105.831 38.6081C105.837 38.7716 105.811 38.9265 105.789 39.0653C105.69 39.6245 105.48 39.9693 105.48 39.9693Z" fill="#F9F5E9"/>
<path fill-rule="evenodd" clip-rule="evenodd" d="M110.867 26.9774C110.833 27.1946 110.793 27.4128 110.745 27.6263C110.642 28.0523 110.52 28.4557 110.32 28.8099C110.065 29.2775 109.75 29.6506 109.418 29.9453C109.084 30.2391 108.744 30.4554 108.423 30.615C107.781 30.9372 107.281 31.0316 107.281 31.0316C107.281 31.0316 107.239 30.9381 107.197 30.7709C107.156 30.6009 107.09 30.3628 107.065 30.0728C107.038 29.78 107.043 29.4362 107.12 29.0536C107.187 28.672 107.309 28.2545 107.548 27.8067C107.628 27.6594 107.718 27.5045 107.816 27.3505C107.864 27.2759 107.915 27.1975 107.968 27.1181C108.017 27.0425 108.069 26.9613 108.12 26.8848C108.386 26.4966 108.686 26.1036 108.989 25.7286C109.289 25.3536 109.594 24.9937 109.849 24.6886C110.366 24.0727 110.758 23.6448 110.758 23.6448C110.758 23.6448 110.818 23.9593 110.88 24.4486C110.917 24.6942 110.93 24.9871 110.94 25.3045C110.948 25.6218 110.948 25.9676 110.933 26.3199C110.927 26.5343 110.898 26.7573 110.867 26.9774Z" fill="#F9F5E9"/>
<path fill-rule="evenodd" clip-rule="evenodd" d="M102.54 29.8223C102.476 29.7694 102.416 29.7118 102.355 29.6532C102.293 29.5937 102.229 29.5333 102.171 29.4709C102.046 29.3491 101.935 29.2187 101.828 29.0846C101.723 28.9523 101.623 28.8154 101.529 28.6765C101.43 28.5292 101.341 28.3912 101.256 28.2628C101.101 28.0276 100.967 27.7924 100.851 27.577C100.792 27.4684 100.74 27.3626 100.692 27.2653C100.648 27.1651 100.591 27.0754 100.548 26.9904C100.374 26.6541 100.286 26.4321 100.286 26.4321C100.286 26.4321 100.824 26.5162 101.582 26.7174C101.766 26.7665 101.974 26.8223 102.175 26.8912C102.379 26.9564 102.591 27.032 102.805 27.1141C103.232 27.2776 103.667 27.4731 104.073 27.697C104.39 27.8679 104.656 28.0625 104.897 28.2656C105.264 28.5783 105.527 28.9212 105.7 29.2546C105.864 29.59 105.95 29.9149 105.989 30.1945C106.027 30.4769 106.034 30.7122 106.007 30.8803C105.986 31.0475 105.956 31.1448 105.956 31.1448C105.956 31.1448 105.448 31.1202 104.774 30.936C104.1 30.7537 103.229 30.4212 102.54 29.8223Z" fill="#F9F5E9"/>
<path fill-rule="evenodd" clip-rule="evenodd" d="M106.8 20.4708C106.561 20.8439 106.289 21.1462 106.032 21.3861C105.517 21.8632 105.065 22.088 105.065 22.088C105.065 22.088 104.997 22.0077 104.902 21.8613C104.805 21.713 104.693 21.4919 104.58 21.2199C104.463 20.9488 104.365 20.6191 104.319 20.2318C104.297 20.042 104.297 19.8313 104.297 19.615C104.298 19.3968 104.321 19.1663 104.365 18.9216C104.41 18.676 104.477 18.4172 104.557 18.1527C104.597 18.0205 104.642 17.8845 104.688 17.7503C104.735 17.6181 104.778 17.483 104.826 17.3479C105.016 16.8095 105.239 16.2663 105.449 15.7799C105.555 15.539 105.654 15.3095 105.745 15.1016C105.836 14.8976 105.918 14.7153 105.987 14.5632C106.124 14.2553 106.21 14.072 106.21 14.072C106.21 14.072 106.311 14.2553 106.458 14.5632C106.538 14.7134 106.611 14.9042 106.696 15.1149C106.778 15.3293 106.865 15.5664 106.949 15.8177C106.99 15.9433 107.031 16.0746 107.074 16.2068C107.112 16.34 107.152 16.4751 107.183 16.6177C107.245 16.8964 107.298 17.1883 107.337 17.4755C107.376 17.7636 107.402 18.0517 107.402 18.3294C107.398 18.6137 107.371 18.8886 107.321 19.1446C107.219 19.6594 107.031 20.0996 106.8 20.4708Z" fill="#F9F5E9"/>
<path fill-rule="evenodd" clip-rule="evenodd" d="M99.5452 21.8528C99.3412 21.73 99.141 21.592 98.9562 21.4494C98.7694 21.3039 98.598 21.1537 98.4332 21.0036C98.2675 20.8562 98.1009 20.7107 97.9582 20.569C97.8117 20.4273 97.6814 20.2904 97.5655 20.1676C97.5081 20.1033 97.4535 20.0438 97.4037 19.99C97.3529 19.9352 97.305 19.8861 97.2629 19.8398C97.0867 19.6546 96.9919 19.5385 96.9919 19.5385C96.9919 19.5385 97.1863 19.5148 97.5109 19.495C97.8327 19.4742 98.2905 19.4516 98.7924 19.4705C99.2952 19.4865 99.8641 19.5319 100.421 19.6225C100.562 19.6471 100.702 19.6717 100.839 19.7C100.972 19.7331 101.103 19.7661 101.233 19.8039C101.49 19.8776 101.738 19.9664 101.962 20.0684C102.188 20.1676 102.389 20.2819 102.567 20.4056C102.748 20.5284 102.891 20.6673 103.023 20.8033C103.279 21.081 103.461 21.3663 103.59 21.6251C103.711 21.883 103.764 22.1172 103.795 22.2816C103.827 22.4479 103.828 22.548 103.828 22.548C103.828 22.548 103.334 22.6613 102.631 22.6642C102.278 22.668 101.878 22.6434 101.458 22.5707C101.029 22.5017 100.584 22.3846 100.157 22.1947C99.9464 22.0974 99.7444 21.9822 99.5452 21.8528Z" fill="#F9F5E9"/>
<path fill-rule="evenodd" clip-rule="evenodd" d="M101.769 12.4264C101.647 12.8449 101.473 13.2048 101.294 13.4995C100.935 14.0871 100.568 14.4177 100.568 14.4177C100.568 14.4177 100.206 14.1853 99.8437 13.713C99.7517 13.594 99.6608 13.4608 99.5746 13.3096C99.4874 13.1642 99.3955 13.0017 99.3188 12.8251C99.1618 12.4699 99.0459 12.042 98.999 11.5442C98.9434 11.052 98.9539 10.4909 98.9951 9.91754C99.0392 9.33755 99.0909 8.76984 99.1532 8.24936C99.2173 7.72983 99.2844 7.2698 99.3332 6.93636C99.3868 6.60763 99.4184 6.40454 99.4184 6.40454C99.4184 6.40454 99.4587 6.43855 99.5219 6.51223C99.5841 6.58496 99.6751 6.68887 99.7862 6.82206C100.008 7.08749 100.309 7.46061 100.618 7.89891C100.912 8.35138 101.213 8.86903 101.455 9.39706C101.688 9.93644 101.852 10.4975 101.907 11.0114C101.92 11.1418 101.926 11.2664 101.926 11.3911C101.926 11.5149 101.915 11.6377 101.903 11.7567C101.876 11.9947 101.828 12.2186 101.769 12.4264Z" fill="#F9F5E9"/>
<path fill-rule="evenodd" clip-rule="evenodd" d="M95.1654 15.6022C95.0514 15.5663 94.9413 15.5257 94.8273 15.4813C94.7737 15.4605 94.7191 15.4387 94.6635 15.4161C94.6061 15.3925 94.5524 15.3726 94.4959 15.3509C94.0487 15.1743 93.6407 14.957 93.2854 14.753C92.9186 14.5631 92.6169 14.3723 92.4033 14.2344C92.296 14.1626 92.2118 14.1031 92.1562 14.0643C92.094 14.0247 92.0624 14.0048 92.0624 14.0048C92.0624 14.0048 92.1083 13.9878 92.1926 13.9548C92.2788 13.9226 92.3995 13.8801 92.5498 13.8329C92.8506 13.7356 93.2787 13.6081 93.7729 13.4919C94.0219 13.4343 94.2843 13.3786 94.5592 13.3313C94.6951 13.3087 94.835 13.285 94.9729 13.2661C95.1118 13.2501 95.2506 13.2359 95.3885 13.2246C95.9469 13.1783 96.5062 13.1802 97.0033 13.2586C97.4927 13.3398 97.893 13.5099 98.2263 13.7035C98.3939 13.8017 98.5452 13.9066 98.6726 14.0171C98.8009 14.1286 98.9072 14.2438 99.0001 14.3524C99.3765 14.7945 99.5039 15.1733 99.5039 15.1733C99.5039 15.1733 99.0576 15.4104 98.3757 15.5956C98.0357 15.69 97.6383 15.7713 97.2111 15.81C96.782 15.8506 96.3377 15.8355 95.8636 15.7684C95.6251 15.7316 95.3933 15.673 95.1654 15.6022Z" fill="#F9F5E9"/>
<path fill-rule="evenodd" clip-rule="evenodd" d="M93.8696 7.62788C93.7805 7.81491 93.7183 7.91882 93.7183 7.91882C93.7183 7.91882 93.6914 7.91126 93.6464 7.89048C93.5995 7.87348 93.5334 7.84703 93.4501 7.80735C93.2844 7.73273 93.0584 7.61371 92.8142 7.43329C92.3363 7.06206 91.7463 6.51418 91.3699 5.57241C91.2416 5.26352 91.1247 4.92441 91.0261 4.56168C90.9006 4.1111 90.7972 3.63123 90.7072 3.1646C90.6123 2.7093 90.53 2.26438 90.4629 1.87143C90.3308 1.08929 90.2589 0.525359 90.2589 0.524414C90.2589 0.524414 90.5424 0.693499 90.9657 0.985384C91.1745 1.12802 91.4207 1.30466 91.6802 1.50397C91.934 1.71368 92.2012 1.94794 92.4636 2.19826C92.6264 2.35318 92.7835 2.51282 92.9367 2.67812C92.9741 2.71874 93.0143 2.75936 93.0517 2.80187C93.0862 2.84438 93.1225 2.88783 93.1589 2.93317C93.2279 3.02196 93.2959 3.11075 93.3649 3.20049C93.6292 3.55661 93.8533 3.9269 94.0075 4.29246C94.1109 4.52861 94.1751 4.77894 94.2201 5.01131C94.2632 5.24557 94.2852 5.47133 94.2881 5.68954C94.2977 6.12312 94.2345 6.51229 94.1473 6.84291C94.0621 7.17352 93.9558 7.4399 93.8696 7.62788Z" fill="#F9F5E9"/>
<path fill-rule="evenodd" clip-rule="evenodd" d="M87.5204 10.3239C87.233 10.2691 86.963 10.203 86.7149 10.1387C86.4649 10.083 86.238 10.0235 86.0483 9.96966C85.6719 9.86008 85.4392 9.77034 85.4392 9.77034C85.4392 9.77034 85.8673 9.44918 86.5262 9.05811C86.8528 8.86352 87.2397 8.65004 87.6621 8.45261C88.0758 8.25991 88.5174 8.08894 88.9598 7.95764C89.3008 7.85751 89.6417 7.77911 89.9635 7.7451C90.9452 7.6582 91.72 7.93591 92.2008 8.27125C92.4469 8.43372 92.6279 8.59714 92.7496 8.71994C92.8099 8.77945 92.8549 8.8314 92.8836 8.86635C92.9124 8.90508 92.9258 8.92492 92.9258 8.92492C92.9258 8.92492 92.8377 9.01088 92.6729 9.14029C92.5082 9.27159 92.2669 9.44729 91.9671 9.62582C91.6673 9.80813 91.3091 9.99138 90.9117 10.1425C90.7115 10.2162 90.5008 10.2852 90.2834 10.3362C90.066 10.39 89.8429 10.4259 89.6034 10.4571C88.9091 10.5421 88.1889 10.4306 87.5204 10.3239Z" fill="#F9F5E9"/>
<path fill-rule="evenodd" clip-rule="evenodd" d="M77.2659 65.5135C77.4546 65.4899 77.6883 65.4625 77.9516 65.4314C78.0857 65.4115 78.2275 65.403 78.375 65.3756C78.5215 65.3501 78.6766 65.3227 78.8375 65.2953C79.1622 65.2405 79.5127 65.182 79.8853 65.1187C80.2531 65.0384 80.64 64.9534 81.0394 64.8684C81.2424 64.8211 81.4474 64.7833 81.6504 64.7286C81.8534 64.6728 82.0593 64.618 82.2681 64.5614C82.6828 64.4471 83.109 64.346 83.5218 64.2034C85.2007 63.7084 86.8059 63.0235 87.9896 62.4785C88.2798 62.3359 88.5518 62.2046 88.7884 62.0903C88.909 62.0326 89.0182 61.9779 89.1207 61.9268C89.2232 61.8758 89.3141 61.8229 89.3975 61.7795C89.7317 61.5972 89.9194 61.4923 89.9194 61.4923C89.9194 61.4923 90.1091 61.3903 90.4443 61.208C90.7747 61.02 91.2315 60.731 91.7851 60.3966C92.8702 59.6928 94.2924 58.7067 95.5901 57.5835C96.8936 56.4642 98.0908 55.2418 98.9336 54.2831C99.0447 54.1678 99.1376 54.0479 99.2324 53.9354C99.3253 53.823 99.4115 53.7191 99.4948 53.6181C99.6605 53.4197 99.8051 53.2449 99.9239 53.1004C100.045 52.9597 100.127 52.8388 100.186 52.7603C100.246 52.6791 100.279 52.6385 100.279 52.6385C100.279 52.6385 100.405 52.4694 100.628 52.1709C100.737 52.0226 100.879 51.846 101.024 51.6325C101.168 51.419 101.333 51.1772 101.509 50.9146C101.599 50.7842 101.692 50.6473 101.786 50.5046C101.883 50.362 101.968 50.2099 102.063 50.0559C102.254 49.7442 102.449 49.4164 102.653 49.0783C102.839 48.7297 103.035 48.3708 103.232 48.0071C103.283 47.9145 103.331 47.8229 103.381 47.7322C103.425 47.6368 103.468 47.5423 103.515 47.4488C103.605 47.2599 103.695 47.07 103.787 46.8792C104.499 45.3584 105.088 43.7847 105.424 42.5746C105.47 42.4244 105.512 42.2799 105.554 42.1439C105.595 42.0069 105.636 41.8775 105.662 41.7547C105.721 41.5072 105.778 41.29 105.818 41.1124C105.904 40.7572 105.956 40.5541 105.956 40.5541C105.956 40.5541 105.967 40.5031 105.992 40.4077C106.013 40.3151 106.037 40.1715 106.072 39.9911C106.106 39.8126 106.146 39.5963 106.191 39.345C106.238 39.0966 106.302 38.8151 106.336 38.5034C106.378 38.1935 106.423 37.8582 106.47 37.503C106.481 37.4152 106.496 37.3245 106.505 37.2338C106.518 37.1431 106.523 37.0505 106.531 36.9551C106.544 36.7691 106.562 36.5764 106.576 36.3818C106.659 35.6044 106.659 34.7703 106.684 33.9381C106.659 33.104 106.659 32.2708 106.576 31.4925C106.562 31.2988 106.544 31.1071 106.531 30.92C106.523 30.8256 106.518 30.733 106.505 30.6423C106.496 30.5507 106.481 30.46 106.47 30.3712C106.423 30.017 106.378 29.6798 106.336 29.3709C106.302 29.0592 106.238 28.7805 106.191 28.5292C106.146 28.2798 106.106 28.0626 106.072 27.8831C106.037 27.7046 106.013 27.561 105.992 27.4665C105.967 27.3711 105.956 27.3201 105.956 27.3201C105.956 27.3201 105.904 27.118 105.818 26.7628C105.778 26.5852 105.721 26.3698 105.662 26.1224C105.636 25.9986 105.595 25.8673 105.554 25.7313C105.512 25.5934 105.47 25.4507 105.424 25.2996C105.088 24.0914 104.499 22.5177 103.787 20.995C103.695 20.807 103.605 20.6143 103.515 20.4264C103.468 20.331 103.425 20.2393 103.381 20.1439C103.331 20.0523 103.283 19.9607 103.232 19.8672C103.035 19.5025 102.839 19.1436 102.653 18.7969C102.449 18.4587 102.254 18.131 102.063 17.8202C101.968 17.6672 101.883 17.5122 101.786 17.3706C101.692 17.2279 101.599 17.0919 101.509 16.9596C101.333 16.697 101.168 16.4552 101.024 16.2427C100.879 16.0292 100.737 15.8535 100.628 15.7043C100.405 15.4067 100.279 15.2376 100.279 15.2376C100.279 15.2376 100.246 15.1951 100.186 15.1148C100.127 15.0364 100.045 14.9155 99.9239 14.7748C99.8051 14.6312 99.6605 14.4574 99.4948 14.2571C99.4115 14.157 99.3253 14.0512 99.2324 13.9369C99.1376 13.8273 99.0447 13.7074 98.9336 13.5912C98.0908 12.6343 96.8936 11.411 95.5901 10.2907C94.2924 9.16756 92.8702 8.18328 91.7851 7.47671C91.2315 7.14326 90.7747 6.85421 90.4443 6.66813C90.1091 6.48582 89.9194 6.38096 89.9194 6.38096C89.9194 6.38096 89.7317 6.278 89.3975 6.09569C89.3141 6.0513 89.2232 6.00218 89.1207 5.94644C89.0182 5.89732 88.909 5.84254 88.7884 5.78492C88.7079 5.74524 88.6255 5.70557 88.5393 5.66495C88.5326 5.66495 88.5259 5.66495 88.5183 5.66495C88.3066 5.6829 88.0068 5.69234 87.6554 5.67345C86.9457 5.64228 86.0282 5.49775 85.2199 5.06134C84.8013 4.84975 84.4067 4.56259 84.0639 4.25181C83.8963 4.09501 83.722 3.9382 83.5601 3.78234C83.4002 3.62648 83.2536 3.46968 83.1186 3.31854C82.8619 3.01438 82.6215 2.75177 82.4645 2.5553C82.3093 2.35882 82.2212 2.23507 82.2212 2.23507C82.2212 2.23507 82.4156 2.22657 82.7374 2.22422C83.0592 2.22185 83.5113 2.23129 84.0208 2.27097C84.1491 2.2823 84.2813 2.29175 84.4144 2.30781C84.5466 2.32387 84.6807 2.34181 84.8147 2.36354C85.0848 2.40416 85.3606 2.45611 85.6336 2.5194C86.1766 2.64692 86.7273 2.81128 87.1487 3.0446C87.5797 3.27509 87.9111 3.55469 88.1639 3.84091C88.4062 4.1309 88.5575 4.43129 88.6677 4.69673C88.7692 4.96122 88.8238 5.19359 88.8439 5.36173C88.8496 5.39385 88.8506 5.42408 88.8525 5.45241C88.8841 5.46847 88.9157 5.48547 88.9483 5.49775C89.0671 5.55821 89.1791 5.61205 89.2845 5.66212C89.385 5.71879 89.4789 5.76791 89.5641 5.81514C89.8984 5.99745 90.0899 6.10325 90.0899 6.10325C90.0899 6.10325 90.2834 6.20716 90.6205 6.39041C90.9509 6.57933 91.4135 6.87027 91.9757 7.21033C93.0723 7.92068 94.507 8.9163 95.82 10.0517C97.135 11.1815 98.3427 12.417 99.197 13.3843C99.308 13.5014 99.4009 13.6252 99.4948 13.7357C99.5915 13.849 99.6787 13.9558 99.7611 14.0578C99.9287 14.259 100.075 14.4347 100.194 14.5802C100.317 14.7228 100.399 14.8447 100.461 14.924C100.521 15.0034 100.554 15.0468 100.554 15.0468C100.554 15.0468 100.682 15.2187 100.907 15.5172C101.018 15.6703 101.16 15.8478 101.308 16.0623C101.455 16.2786 101.618 16.5223 101.796 16.7868C101.889 16.92 101.98 17.0579 102.078 17.2015C102.173 17.345 102.261 17.5019 102.359 17.6568C102.546 17.9685 102.748 18.301 102.953 18.6439C103.143 18.9934 103.339 19.3561 103.536 19.7264C103.586 19.819 103.637 19.9116 103.688 20.0041C103.732 20.0976 103.779 20.193 103.823 20.2885C103.914 20.4802 104.006 20.6729 104.096 20.8647C104.818 22.4015 105.415 23.9913 105.751 25.2118C105.799 25.3638 105.841 25.5084 105.881 25.6482C105.923 25.788 105.967 25.9164 105.993 26.043C106.053 26.2914 106.108 26.5106 106.149 26.6901C106.238 27.0471 106.288 27.2531 106.288 27.2531C106.288 27.2531 106.3 27.305 106.323 27.4004C106.347 27.4968 106.37 27.6403 106.406 27.8208C106.438 28.0021 106.481 28.2232 106.527 28.4754C106.572 28.7276 106.638 29.011 106.673 29.3246C106.715 29.6382 106.761 29.9773 106.808 30.3353C106.819 30.426 106.834 30.5167 106.844 30.6074C106.856 30.7018 106.861 30.7953 106.87 30.8889C106.885 31.0778 106.899 31.2695 106.915 31.4707C106.999 32.2538 106.999 33.0955 107.027 33.9381C106.999 34.7797 106.999 35.6204 106.915 36.4073C106.899 36.6037 106.885 36.7955 106.87 36.9873C106.861 37.0817 106.856 37.1752 106.844 37.265C106.834 37.3575 106.819 37.4511 106.808 37.5399C106.761 37.8969 106.715 38.2389 106.673 38.5515C106.638 38.8633 106.572 39.1476 106.527 39.4007C106.481 39.653 106.438 39.8712 106.406 40.0535C106.37 40.2348 106.347 40.3775 106.323 40.4748C106.3 40.5702 106.288 40.6221 106.288 40.6221C106.288 40.6221 106.238 40.8262 106.149 41.1842C106.108 41.3646 106.053 41.5837 105.993 41.8312C105.967 41.9569 105.923 42.0891 105.881 42.2261C105.841 42.3659 105.799 42.5113 105.751 42.6634C105.415 43.8839 104.818 45.4727 104.096 47.0124C104.006 47.2023 103.914 47.395 103.823 47.5858C103.779 47.6821 103.732 47.7766 103.688 47.8711C103.637 47.9617 103.586 48.0571 103.536 48.1497C103.339 48.5172 103.143 48.8808 102.953 49.2313C102.748 49.5732 102.546 49.9048 102.359 50.2184C102.261 50.3733 102.173 50.5292 102.078 50.6728C101.98 50.8154 101.889 50.9561 101.796 51.0884C101.618 51.3538 101.455 51.5975 101.308 51.8129C101.16 52.0273 101.018 52.2059 100.907 52.357C100.682 52.6564 100.554 52.8284 100.554 52.8284C100.554 52.8284 100.521 52.8718 100.461 52.9521C100.399 53.0315 100.317 53.1524 100.194 53.295C100.075 53.4395 99.9287 53.6162 99.7611 53.8193C99.6787 53.9194 99.5915 54.0261 99.4948 54.1395C99.4009 54.2491 99.308 54.3737 99.197 54.4899C98.3427 55.4591 97.135 56.6937 95.82 57.8235C94.507 58.957 93.0723 59.9526 91.9757 60.6658C91.4135 61.0049 90.9509 61.2949 90.6205 61.4848C90.2834 61.669 90.0899 61.7719 90.0899 61.7719C90.0899 61.7719 89.8984 61.8787 89.5641 62.06C89.4789 62.1063 89.385 62.1573 89.2845 62.2121C89.1791 62.2631 89.0671 62.317 88.9483 62.3746C88.7079 62.4917 88.4369 62.6249 88.14 62.7685C86.9438 63.3183 85.3214 64.0097 83.6262 64.5104C83.2096 64.6539 82.7796 64.755 82.3582 64.8712C82.1513 64.9288 81.9415 64.9855 81.7356 65.0403C81.5326 65.097 81.3248 65.1338 81.1217 65.181C80.7166 65.2689 80.3239 65.3539 79.9533 65.4361C79.5788 65.4984 79.2235 65.5579 78.896 65.6137C78.7322 65.6411 78.577 65.6694 78.4286 65.694C78.2773 65.7223 78.1346 65.7327 78.0014 65.7516C77.7323 65.7837 77.4986 65.8101 77.3052 65.8347C76.9221 65.8819 76.7018 65.9084 76.7018 65.9084L76.6664 65.5853C76.6664 65.5853 76.8857 65.5598 77.2659 65.5135Z" fill="#F9F5E9"/>
<path fill-rule="evenodd" clip-rule="evenodd" d="M81.0352 65.1982C81.0352 65.1982 76.4084 66.3619 75.3683 70.5654L75.4985 65.6128L80.7268 64.9355L81.0352 65.1982Z" fill="#F9F5E9"/>
</g>
<g clip-path="url(#clip1_420_23389)">
<path fill-rule="evenodd" clip-rule="evenodd" d="M28.7441 65.7763C28.5391 65.7744 28.3236 65.7876 28.0948 65.8179C28.0363 65.8273 27.976 65.8368 27.9185 65.8471C27.8592 65.8556 27.8026 65.866 27.7414 65.8755C27.6226 65.8982 27.4971 65.9265 27.3726 65.9596C26.8698 66.0937 26.3191 66.3128 25.7684 66.5632C25.2292 66.7965 24.6852 67.0591 24.1968 67.3075C23.7103 67.5541 23.2774 67.7902 22.9728 67.9489C22.6683 68.1095 22.4844 68.2124 22.4844 68.2124C22.4844 68.2124 22.5323 68.2294 22.628 68.2653C22.7209 68.2956 22.8541 68.3475 23.0245 68.3938C23.3674 68.4902 23.8482 68.6158 24.3922 68.7235C24.5291 68.7509 24.6661 68.7811 24.8117 68.8019C24.9582 68.8227 25.1076 68.8387 25.256 68.8548C25.5568 68.886 25.8632 68.9096 26.1707 68.9171C26.7788 68.9426 27.3927 68.8671 27.9195 68.7235C28.973 68.441 29.6875 67.8015 30.1309 67.2697C30.5772 66.7351 30.7668 66.2854 30.7668 66.2854C30.7668 66.2854 30.4058 66.055 29.8043 65.917C29.5045 65.8462 29.1511 65.7763 28.7441 65.7763Z" fill="#F9F5E9"/>
<path fill-rule="evenodd" clip-rule="evenodd" d="M30.3588 61.6425C30.1127 61.2571 29.788 60.9199 29.4518 60.5893C29.2852 60.4249 29.1109 60.2757 28.9337 60.1359C28.8437 60.065 28.7575 59.9989 28.6751 59.9347C28.5928 59.8657 28.5094 59.7996 28.428 59.7372C28.1034 59.4898 27.8065 59.2914 27.5919 59.1582C27.3774 59.0137 27.2462 58.9343 27.2462 58.9343C27.2462 58.9343 27.2443 59.1214 27.2567 59.4293C27.2644 59.7439 27.2979 60.1585 27.3659 60.6356C27.4349 61.1116 27.5412 61.6454 27.6944 62.1668C27.8524 62.6712 28.0641 63.1624 28.3227 63.5695C28.3849 63.6715 28.4529 63.7679 28.5229 63.8576C28.5564 63.9039 28.5928 63.9455 28.6301 63.988C28.6665 64.0277 28.7019 64.0664 28.7393 64.1042C28.8906 64.2534 29.0486 64.3809 29.2076 64.4896C29.3657 64.5991 29.5237 64.6908 29.6788 64.7645C29.8321 64.8372 29.9824 64.9024 30.1251 64.9402C30.6979 65.0998 31.1154 65.0724 31.1154 65.0724C31.1154 65.0724 31.1815 64.5897 31.1126 63.9247C31.0781 63.5913 31.0139 63.2125 30.8932 62.8252C30.8635 62.7288 30.831 62.6296 30.7917 62.5333C30.7582 62.4332 30.7189 62.3321 30.673 62.232C30.5839 62.0336 30.4824 61.8333 30.3588 61.6425Z" fill="#F9F5E9"/>
<path fill-rule="evenodd" clip-rule="evenodd" d="M22.2076 62.7867C22.1722 62.7527 22.1176 62.7092 22.0515 62.6506C21.9146 62.5335 21.7115 62.3786 21.4472 62.2312C21.3122 62.1557 21.1666 62.0839 20.999 62.0178C20.8342 61.9507 20.6494 61.8921 20.4588 61.8317C20.0719 61.7202 19.6179 61.6503 19.0883 61.6607C18.8211 61.6664 18.5472 61.6805 18.2599 61.7079C17.9745 61.7353 17.6785 61.7759 17.3826 61.8241C17.0828 61.8713 16.7811 61.928 16.489 61.9828C16.2036 62.0404 15.9192 62.0971 15.6501 62.1509C15.1137 62.2633 14.6368 62.371 14.2968 62.4523C13.951 62.5345 13.7461 62.5892 13.7461 62.5892C13.7461 62.5892 13.9223 62.7092 14.223 62.8943C14.3686 62.9869 14.5506 63.0937 14.7546 63.2098C14.8542 63.2675 14.9634 63.3279 15.0773 63.3893C15.1913 63.4488 15.3129 63.5065 15.4384 63.565C15.6893 63.6812 15.9575 63.7974 16.2343 63.9089C16.3751 63.9618 16.513 64.0147 16.6576 64.0657C16.7294 64.0921 16.8003 64.1176 16.8721 64.1403C16.9449 64.1601 17.0187 64.1819 17.0934 64.2026C17.6843 64.3623 18.2838 64.4671 18.8268 64.4653C19.9388 64.4341 20.7931 64.0241 21.3706 63.6264C21.6589 63.4328 21.8839 63.2297 22.0343 63.0814C22.1837 62.934 22.2613 62.8377 22.2613 62.8377C22.2613 62.8377 22.2431 62.8197 22.2076 62.7867Z" fill="#F9F5E9"/>
<path fill-rule="evenodd" clip-rule="evenodd" d="M20.6761 59.5986C20.8149 60.0454 21.0295 60.4157 21.2679 60.7114C21.3848 60.8644 21.515 60.9872 21.6453 61.093C21.7746 61.2007 21.9067 61.2923 22.0322 61.3707C22.2812 61.5266 22.5092 61.6248 22.672 61.6853C22.7534 61.7174 22.8252 61.7325 22.8693 61.7438C22.92 61.7552 22.944 61.7599 22.944 61.7599C22.944 61.7599 22.9947 61.6475 23.057 61.4557C23.1211 61.2621 23.1997 60.9891 23.2619 60.6556C23.3903 59.9906 23.4458 59.1178 23.1815 58.2639C23.0589 57.8256 22.8501 57.4024 22.6059 57.0142C22.3712 56.6184 22.1117 56.2424 21.8569 55.9317C21.7276 55.7786 21.6166 55.6247 21.5083 55.4934C21.403 55.3602 21.3024 55.2468 21.2191 55.1524C21.0534 54.9634 20.9433 54.8567 20.9433 54.8567C20.9433 54.8567 20.8887 55.0362 20.8168 55.3328C20.745 55.6284 20.655 56.0478 20.5832 56.5249C20.5487 56.7657 20.5132 57.0246 20.4931 57.2862C20.4778 57.5441 20.4692 57.8105 20.474 58.0759C20.4778 58.3423 20.4931 58.6096 20.5257 58.8684C20.5602 59.1244 20.6023 59.3776 20.6761 59.5986Z" fill="#F9F5E9"/>
<path fill-rule="evenodd" clip-rule="evenodd" d="M14.5926 56.8129C14.492 56.6703 14.3493 56.4653 14.1367 56.2518C13.926 56.0383 13.6483 55.8164 13.3006 55.6095C12.9635 55.3979 12.5488 55.209 12.0383 55.0786C11.8688 55.0342 11.6859 54.9974 11.5029 54.9605C11.32 54.9228 11.1323 54.8916 10.9369 54.8614C9.97536 54.7187 8.88355 54.6649 8.06278 54.6139C7.23051 54.5685 6.63672 54.5591 6.63672 54.5591C6.63672 54.5591 6.83976 54.8094 7.1855 55.1806C7.5207 55.5556 8.03883 56.0185 8.61251 56.4681C8.70254 56.5371 8.79257 56.6023 8.88068 56.6703C8.92761 56.7033 8.97262 56.7355 9.02146 56.7704C9.06839 56.8016 9.11724 56.8309 9.16512 56.863C9.35954 56.9848 9.55779 57.1029 9.75892 57.2097C9.95812 57.3173 10.1592 57.4156 10.3632 57.4978C10.5644 57.5828 10.7607 57.6574 10.9676 57.7056C12.0421 57.9691 12.9788 57.8057 13.6521 57.5743C14.3311 57.3372 14.741 57.0481 14.741 57.0481C14.741 57.0481 14.6941 56.9574 14.5926 56.8129Z" fill="#F9F5E9"/>
<path fill-rule="evenodd" clip-rule="evenodd" d="M14.9485 55.5792C15.1429 55.7955 15.3268 55.9551 15.4724 56.0515C15.617 56.1488 15.7128 56.1922 15.7128 56.1922C15.7128 56.1922 16.0346 55.8182 16.342 55.2212C16.6561 54.6176 16.9722 53.7863 16.9655 52.9003C16.9693 52.5725 16.9329 52.2315 16.8659 51.9037C16.8333 51.7412 16.7902 51.5787 16.7433 51.4182C16.6964 51.2632 16.6571 51.0989 16.6063 50.9459C16.523 50.6795 16.4292 50.4282 16.3363 50.2034C16.3114 50.1477 16.2865 50.0929 16.2654 50.0381C16.2415 49.9842 16.2233 49.9323 16.2012 49.8794C16.161 49.7764 16.1227 49.682 16.0844 49.5951C15.9331 49.2465 15.8172 49.0349 15.8172 49.0349C15.8172 49.0349 15.5232 49.4732 15.1803 50.1382C15.0931 50.3045 15.0031 50.483 14.915 50.6757C14.8719 50.7711 14.8278 50.8712 14.7857 50.9685C14.7426 51.0677 14.7062 51.1688 14.6641 51.2718C14.5108 51.6798 14.3739 52.1191 14.2819 52.5536C14.2436 52.7217 14.2159 52.887 14.1938 53.0495C14.1737 53.211 14.168 53.3669 14.168 53.5171C14.168 53.9884 14.2657 54.3975 14.4055 54.747C14.5558 55.0899 14.757 55.3629 14.9485 55.5792Z" fill="#F9F5E9"/>
<path fill-rule="evenodd" clip-rule="evenodd" d="M7.4346 49.7227C7.64242 49.7322 7.8378 49.7293 8.02073 49.718C8.74094 49.6717 9.21789 49.5026 9.21789 49.5026C9.21789 49.5026 9.19969 49.4015 9.1451 49.2353C9.11924 49.1531 9.07997 49.0568 9.03305 48.9462C8.99091 48.8319 8.93727 48.7101 8.86832 48.5797C8.72753 48.3171 8.53503 48.0271 8.25633 47.74C8.19216 47.6748 8.12129 47.6039 8.0418 47.5227C7.96709 47.449 7.88473 47.3772 7.79853 47.3054C7.62518 47.1628 7.42789 47.024 7.20474 46.8917C6.97967 46.7614 6.73258 46.6367 6.46537 46.5167C6.21349 46.3939 5.94054 46.2777 5.66567 46.1634C5.11498 45.9386 4.53651 45.7336 4.01263 45.5579C3.49641 45.3784 3.04245 45.2254 2.7082 45.1196C2.37587 45.0129 2.17188 44.9534 2.17188 44.9534C2.17188 44.9534 2.24754 45.1451 2.39311 45.4531C2.46494 45.608 2.55114 45.795 2.66127 45.9943C2.77524 46.1955 2.90358 46.4118 3.04628 46.6404C3.18898 46.869 3.34797 47.1052 3.51653 47.3423C3.55867 47.3999 3.60176 47.4594 3.64774 47.517C3.69179 47.5728 3.73776 47.6294 3.78852 47.689C3.88334 47.8033 3.98294 47.9147 4.0835 48.0233C4.2875 48.2444 4.49916 48.4532 4.71656 48.6402C4.82574 48.7365 4.93397 48.8253 5.04985 48.9075C5.16669 48.9869 5.28354 49.0624 5.40325 49.1304C5.87637 49.4015 6.3514 49.5593 6.79483 49.6452C7.01703 49.6896 7.23252 49.7114 7.4346 49.7227Z" fill="#F9F5E9"/>
<path fill-rule="evenodd" clip-rule="evenodd" d="M9.5807 47.2062C9.62667 47.5699 9.73202 47.8892 9.85173 48.149C9.91207 48.2793 9.97624 48.3936 10.0375 48.4928C10.0998 48.592 10.1678 48.6742 10.2214 48.7384C10.3316 48.8706 10.4091 48.9377 10.4091 48.9377C10.4091 48.9377 10.8286 48.6638 11.3008 48.1707C11.4186 48.0488 11.5373 47.9128 11.659 47.7645C11.7854 47.6124 11.9061 47.449 12.021 47.2761C12.2499 46.9285 12.4539 46.5384 12.5832 46.1114C12.6167 46.0037 12.6406 45.8961 12.6675 45.7846C12.6943 45.6731 12.7163 45.5598 12.7364 45.4474C12.7728 45.2197 12.7968 44.9902 12.8035 44.7635C12.8111 44.3138 12.8188 43.8623 12.7853 43.4722C12.7699 43.2757 12.7498 43.0915 12.7278 42.9281C12.7144 42.7618 12.7 42.6145 12.6818 42.4936C12.654 42.247 12.6244 42.1016 12.6244 42.1016C12.6244 42.1016 12.4769 42.2234 12.2461 42.4378C12.0152 42.6513 11.6992 42.9583 11.363 43.3286C11.0384 43.6942 10.6984 44.123 10.4034 44.5774C10.2521 44.805 10.1142 45.0384 9.99252 45.2736C9.87568 45.504 9.78565 45.7355 9.71478 45.9631C9.64582 46.187 9.60464 46.4061 9.5807 46.613C9.5692 46.7179 9.5625 46.8199 9.5625 46.9181C9.5625 46.9682 9.5625 47.0173 9.56442 47.0645C9.5692 47.1108 9.57399 47.1581 9.5807 47.2062Z" fill="#F9F5E9"/>
<path fill-rule="evenodd" clip-rule="evenodd" d="M3.24237 40.3579C3.44636 40.4986 3.65227 40.6148 3.85723 40.7131C4.26714 40.9077 4.66651 41.0248 5.01608 41.0956C5.7181 41.2364 6.22473 41.1967 6.22473 41.1967C6.22473 41.1967 6.28411 40.7867 6.15195 40.2171C6.12322 40.0717 6.06767 39.9196 6.01882 39.7581C5.96711 39.5947 5.89911 39.4246 5.81195 39.2518C5.72576 39.077 5.61562 38.8966 5.48441 38.7162C5.41833 38.6255 5.34841 38.5339 5.26988 38.4432C5.23061 38.3978 5.19039 38.3525 5.14729 38.3053C5.10898 38.2599 5.0678 38.2155 5.02278 38.1683C4.33418 37.4353 3.21938 36.6824 2.34114 36.0713C1.89484 35.768 1.49068 35.5073 1.19666 35.3193C0.902634 35.1323 0.71875 35.0237 0.71875 35.0237C0.71875 35.0237 0.743651 35.2268 0.802072 35.5612C0.861452 35.8956 0.949563 36.3565 1.08652 36.8666C1.24359 37.3776 1.44662 37.9369 1.69755 38.463C1.75789 38.5943 1.82972 38.7228 1.90633 38.8494C1.98199 38.9731 2.05957 39.0978 2.14002 39.2149C2.30188 39.4511 2.47618 39.6721 2.66102 39.861C2.85066 40.0537 3.03645 40.219 3.24237 40.3579Z" fill="#F9F5E9"/>
<path fill-rule="evenodd" clip-rule="evenodd" d="M7.52417 40.9556C7.52417 40.9556 8.00879 40.7979 8.60641 40.4437C8.91001 40.2651 9.23851 40.0403 9.55264 39.7664C9.70971 39.6275 9.86103 39.4783 10.0047 39.3158C10.1551 39.1514 10.2997 38.9757 10.4261 38.7859C10.5544 38.596 10.6646 38.392 10.7623 38.1832C10.8599 37.9754 10.9289 37.7619 11.0141 37.5437C11.1741 37.1111 11.2804 36.6766 11.356 36.2921C11.4518 35.902 11.5083 35.561 11.5428 35.3173C11.5754 35.0717 11.5849 34.9243 11.5849 34.9243C11.5849 34.9243 11.4116 35.0046 11.131 35.152C10.8504 35.3022 10.4682 35.5166 10.044 35.7877C9.62447 36.0588 9.15327 36.3875 8.75294 36.7493C8.34399 37.1111 7.96952 37.5088 7.69657 37.9112C7.55578 38.1095 7.46767 38.3089 7.38722 38.5034C7.31347 38.6971 7.26176 38.8879 7.22728 39.0721C7.1928 39.2544 7.1746 39.4301 7.17269 39.5945C7.16694 39.7579 7.1928 39.9128 7.21483 40.0517C7.31347 40.6109 7.52417 40.9556 7.52417 40.9556Z" fill="#F9F5E9"/>
<path fill-rule="evenodd" clip-rule="evenodd" d="M2.13719 27.9637C2.17071 28.1809 2.21093 28.3992 2.25882 28.6126C2.36225 29.0387 2.48388 29.442 2.68405 29.7962C2.93881 30.2638 3.2539 30.6369 3.58623 30.9316C3.91952 31.2254 4.25951 31.4417 4.58131 31.6014C5.22299 31.9235 5.72292 32.018 5.72292 32.018C5.72292 32.018 5.76506 31.9244 5.8072 31.7572C5.84743 31.5872 5.91351 31.3492 5.93841 31.0592C5.96619 30.7663 5.96044 30.4225 5.88382 30.0399C5.81678 29.6583 5.69515 29.2408 5.45572 28.7931C5.37623 28.6457 5.2862 28.4908 5.18755 28.3368C5.13967 28.2622 5.08891 28.1838 5.03623 28.1044C4.98643 28.0289 4.93471 27.9476 4.88395 27.8711C4.6177 27.4829 4.31794 27.0899 4.01529 26.7149C3.71457 26.3399 3.41001 25.98 3.15525 25.6749C2.63808 25.059 2.24637 24.6311 2.24637 24.6311C2.24637 24.6311 2.18603 24.9457 2.12378 25.435C2.08643 25.6806 2.07398 25.9734 2.0644 26.2908C2.05578 26.6082 2.05578 26.9539 2.0711 27.3062C2.07685 27.5207 2.10558 27.7436 2.13719 27.9637Z" fill="#F9F5E9"/>
<path fill-rule="evenodd" clip-rule="evenodd" d="M10.4637 30.8087C10.5278 30.7558 10.5882 30.6981 10.6485 30.6396C10.7108 30.5801 10.7749 30.5196 10.8333 30.4573C10.9579 30.3354 11.0689 30.2051 11.1762 30.0709C11.2806 29.9387 11.3812 29.8017 11.475 29.6628C11.5737 29.5155 11.6627 29.3776 11.748 29.2491C11.9031 29.0139 12.0372 28.7787 12.1531 28.5633C12.2115 28.4547 12.2642 28.3489 12.3121 28.2516C12.3561 28.1515 12.4126 28.0617 12.4557 27.9767C12.63 27.6404 12.7182 27.4185 12.7182 27.4185C12.7182 27.4185 12.1799 27.5025 11.4223 27.7037C11.2375 27.7528 11.0297 27.8086 10.8286 27.8775C10.6246 27.9427 10.4129 28.0183 10.1993 28.1005C9.77218 28.2639 9.33642 28.4594 8.9313 28.6833C8.61429 28.8543 8.34804 29.0489 8.10669 29.2519C7.73988 29.5646 7.47651 29.9075 7.30411 30.2409C7.14034 30.5763 7.05415 30.9012 7.01488 31.1808C6.97657 31.4633 6.96987 31.6985 6.99668 31.8666C7.01775 32.0338 7.0484 32.1311 7.0484 32.1311C7.0484 32.1311 7.556 32.1066 8.23024 31.9224C8.90352 31.74 9.77506 31.4075 10.4637 30.8087Z" fill="#F9F5E9"/>
<path fill-rule="evenodd" clip-rule="evenodd" d="M6.20397 21.4571C6.44245 21.8303 6.71444 22.1325 6.97207 22.3725C7.48733 22.8495 7.93938 23.0743 7.93938 23.0743C7.93938 23.0743 8.00738 22.994 8.10219 22.8476C8.19892 22.6993 8.31098 22.4783 8.42399 22.2062C8.54083 21.9351 8.63852 21.6054 8.68449 21.2181C8.70652 21.0283 8.70652 20.8176 8.70652 20.6013C8.70556 20.3831 8.68258 20.1526 8.63852 19.908C8.59351 19.6624 8.52647 19.4036 8.44698 19.1391C8.40675 19.0068 8.36174 18.8708 8.31577 18.7367C8.26884 18.6044 8.22574 18.4693 8.17785 18.3343C7.98822 17.7958 7.76507 17.2527 7.55533 16.7662C7.44902 16.5253 7.34942 16.2958 7.25843 16.088C7.16745 15.8839 7.08604 15.7016 7.01709 15.5495C6.88013 15.2416 6.79394 15.0583 6.79394 15.0583C6.79394 15.0583 6.69242 15.2416 6.54588 15.5495C6.46639 15.6997 6.39265 15.8906 6.30837 16.1012C6.226 16.3156 6.13885 16.5527 6.05457 16.804C6.01434 16.9296 5.97316 17.0609 5.93006 17.1932C5.89175 17.3264 5.85153 17.4614 5.82088 17.6041C5.75863 17.8827 5.70595 18.1746 5.66669 18.4618C5.62838 18.7499 5.60156 19.038 5.60156 19.3157C5.60635 19.6 5.63317 19.8749 5.68297 20.1309C5.78449 20.6457 5.97316 21.0859 6.20397 21.4571Z" fill="#F9F5E9"/>
<path fill-rule="evenodd" clip-rule="evenodd" d="M13.4587 22.8391C13.6627 22.7163 13.8629 22.5784 14.0477 22.4357C14.2345 22.2903 14.4059 22.1401 14.5707 21.9899C14.7364 21.8425 14.903 21.6971 15.0457 21.5554C15.1922 21.4137 15.3225 21.2767 15.4384 21.1539C15.4958 21.0897 15.5504 21.0302 15.6002 20.9763C15.651 20.9215 15.6989 20.8724 15.741 20.8261C15.9172 20.641 16.0121 20.5248 16.0121 20.5248C16.0121 20.5248 15.8176 20.5012 15.493 20.4813C15.1712 20.4606 14.7134 20.4379 14.2115 20.4568C13.7087 20.4728 13.1398 20.5182 12.5834 20.6089C12.4416 20.6334 12.3018 20.658 12.1649 20.6863C12.0317 20.7194 11.9005 20.7524 11.7712 20.7902C11.5136 20.8639 11.2655 20.9527 11.0414 21.0547C10.8164 21.1539 10.6152 21.2682 10.4371 21.3919C10.2561 21.5147 10.1134 21.6536 9.98123 21.7896C9.72456 22.0673 9.54259 22.3526 9.41426 22.6114C9.29262 22.8693 9.23995 23.1036 9.2093 23.2679C9.17674 23.4342 9.17578 23.5343 9.17578 23.5343C9.17578 23.5343 9.66997 23.6477 10.3729 23.6505C10.7263 23.6543 11.1257 23.6297 11.5462 23.557C11.9752 23.488 12.4196 23.3709 12.8468 23.181C13.0575 23.0837 13.2595 22.9685 13.4587 22.8391Z" fill="#F9F5E9"/>
<path fill-rule="evenodd" clip-rule="evenodd" d="M11.2352 13.4128C11.3568 13.8312 11.5311 14.1911 11.7102 14.4858C12.0684 15.0734 12.4362 15.404 12.4362 15.404C12.4362 15.404 12.7982 15.1716 13.1602 14.6993C13.2522 14.5803 13.3432 14.4471 13.4294 14.296C13.5165 14.1505 13.6084 13.988 13.6851 13.8114C13.8421 13.4562 13.958 13.0283 14.0049 12.5305C14.0605 12.0383 14.05 11.4773 14.0088 10.9039C13.9647 10.3239 13.913 9.75617 13.8508 9.23569C13.7866 8.71616 13.7195 8.25613 13.6707 7.92268C13.6171 7.59396 13.5855 7.39087 13.5855 7.39087C13.5855 7.39087 13.5452 7.42488 13.482 7.49855C13.4198 7.57129 13.3288 7.6752 13.2177 7.80839C12.9955 8.07382 12.6948 8.44694 12.3854 8.88524C12.0924 9.33771 11.7907 9.85536 11.5493 10.3834C11.3156 10.9228 11.1519 11.4839 11.0973 11.9977C11.0839 12.1281 11.0781 12.2528 11.0781 12.3775C11.0781 12.5012 11.0887 12.624 11.1011 12.743C11.1279 12.9811 11.1758 13.2049 11.2352 13.4128Z" fill="#F9F5E9"/>
<path fill-rule="evenodd" clip-rule="evenodd" d="M17.8385 16.5885C17.9525 16.5526 18.0626 16.512 18.1766 16.4676C18.2302 16.4468 18.2848 16.4251 18.3404 16.4024C18.3978 16.3788 18.4515 16.359 18.508 16.3372C18.9552 16.1606 19.3632 15.9433 19.7185 15.7393C20.0853 15.5494 20.387 15.3586 20.6006 15.2207C20.7079 15.1489 20.7922 15.0894 20.8477 15.0507C20.91 15.011 20.9416 14.9912 20.9416 14.9912C20.9416 14.9912 20.8956 14.9742 20.8113 14.9411C20.7251 14.909 20.6044 14.8665 20.4541 14.8192C20.1533 14.7219 19.7252 14.5944 19.2311 14.4782C18.982 14.4206 18.7196 14.3649 18.4448 14.3177C18.3088 14.295 18.1689 14.2714 18.031 14.2525C17.8921 14.2364 17.7533 14.2222 17.6154 14.2109C17.057 14.1646 16.4977 14.1665 16.0006 14.2449C15.5112 14.3262 15.1109 14.4962 14.7776 14.6898C14.61 14.7881 14.4587 14.8929 14.3313 15.0034C14.203 15.1149 14.0967 15.2301 14.0038 15.3388C13.6274 15.7809 13.5 16.1596 13.5 16.1596C13.5 16.1596 13.9463 16.3967 14.6282 16.5819C14.9682 16.6763 15.3657 16.7576 15.7928 16.7963C16.2219 16.8369 16.6663 16.8218 17.1403 16.7547C17.3788 16.7179 17.6106 16.6593 17.8385 16.5885Z" fill="#F9F5E9"/>
<path fill-rule="evenodd" clip-rule="evenodd" d="M19.1343 8.61421C19.2234 8.80124 19.2857 8.90515 19.2857 8.90515C19.2857 8.90515 19.3125 8.89759 19.3575 8.87681C19.4044 8.8598 19.4705 8.83336 19.5538 8.79368C19.7195 8.71906 19.9455 8.60004 20.1897 8.41962C20.6677 8.04838 21.2576 7.50051 21.634 6.55874C21.7623 6.24985 21.8792 5.91073 21.9778 5.548C22.1033 5.09742 22.2067 4.61756 22.2968 4.15093C22.3916 3.69562 22.4739 3.25071 22.541 2.85776C22.6731 2.07562 22.745 1.51169 22.745 1.51074C22.745 1.51074 22.4615 1.67983 22.0382 1.97171C21.8294 2.11435 21.5832 2.29099 21.3237 2.4903C21.0699 2.70001 20.8027 2.93427 20.5403 3.18459C20.3775 3.33951 20.2204 3.49915 20.0672 3.66445C20.0298 3.70507 19.9896 3.74569 19.9522 3.7882C19.9178 3.8307 19.8814 3.87416 19.845 3.9195C19.776 4.00829 19.708 4.09708 19.6391 4.18682C19.3747 4.54294 19.1506 4.91323 18.9964 5.27879C18.893 5.51494 18.8288 5.76526 18.7838 5.99764C18.7407 6.2319 18.7187 6.45766 18.7158 6.67587C18.7062 7.10944 18.7694 7.49862 18.8566 7.82924C18.9418 8.15985 19.0481 8.42623 19.1343 8.61421Z" fill="#F9F5E9"/>
<path fill-rule="evenodd" clip-rule="evenodd" d="M25.4835 11.3102C25.7709 11.2554 26.0409 11.1893 26.289 11.1251C26.539 11.0693 26.7659 11.0098 26.9556 10.956C27.332 10.8464 27.5647 10.7567 27.5647 10.7567C27.5647 10.7567 27.1366 10.4355 26.4777 10.0444C26.1511 9.84985 25.7642 9.63637 25.3418 9.43894C24.9281 9.24624 24.4866 9.07527 24.0441 8.94397C23.7031 8.84384 23.3622 8.76544 23.0404 8.73143C22.0587 8.64453 21.2839 8.92224 20.8031 9.25758C20.557 9.42005 20.376 9.58347 20.2543 9.70627C20.194 9.76578 20.149 9.81773 20.1203 9.85268C20.0915 9.89141 20.0781 9.91125 20.0781 9.91125C20.0781 9.91125 20.1662 9.99721 20.331 10.1266C20.4957 10.2579 20.737 10.4336 21.0368 10.6121C21.3366 10.7945 21.6948 10.9777 22.0922 11.1288C22.2924 11.2025 22.5031 11.2715 22.7205 11.3225C22.9379 11.3763 23.1611 11.4122 23.4005 11.4434C24.0948 11.5284 24.8151 11.417 25.4835 11.3102Z" fill="#F9F5E9"/>
<path fill-rule="evenodd" clip-rule="evenodd" d="M35.738 66.4999C35.5493 66.4762 35.3156 66.4489 35.0523 66.4177C34.9182 66.3978 34.7764 66.3893 34.6289 66.3619C34.4824 66.3364 34.3273 66.309 34.1664 66.2817C33.8417 66.2269 33.4912 66.1683 33.1186 66.105C32.7508 66.0247 32.3639 65.9397 31.9645 65.8547C31.7615 65.8075 31.5565 65.7697 31.3535 65.7149C31.1505 65.6592 30.9446 65.6044 30.7358 65.5477C30.3211 65.4334 29.8949 65.3323 29.4821 65.1897C27.8032 64.6947 26.1981 64.0099 25.0143 63.4648C24.7241 63.3222 24.4521 63.1909 24.2156 63.0766C24.0949 63.019 23.9857 62.9642 23.8832 62.9132C23.7807 62.8622 23.6898 62.8093 23.6064 62.7658C23.2722 62.5835 23.0845 62.4787 23.0845 62.4787C23.0845 62.4787 22.8948 62.3766 22.5596 62.1943C22.2292 62.0063 21.7724 61.7173 21.2188 61.3829C20.1337 60.6792 18.7115 59.693 17.4138 58.5699C16.1103 57.4505 14.9131 56.2282 14.0703 55.2694C13.9592 55.1541 13.8663 55.0342 13.7715 54.9218C13.6786 54.8094 13.5924 54.7055 13.5091 54.6044C13.3434 54.406 13.1988 54.2313 13.08 54.0867C12.9594 53.946 12.877 53.8251 12.8176 53.7467C12.7582 53.6654 12.7247 53.6248 12.7247 53.6248C12.7247 53.6248 12.5993 53.4557 12.3761 53.1572C12.2669 53.0089 12.1252 52.8323 11.9796 52.6188C11.8359 52.4053 11.6712 52.1635 11.495 51.9009C11.405 51.7706 11.3121 51.6336 11.2182 51.491C11.1205 51.3483 11.0362 51.1962 10.9405 51.0423C10.7499 50.7305 10.5545 50.4028 10.3505 50.0646C10.1647 49.716 9.96934 49.3571 9.77204 48.9934C9.72128 48.9008 9.67244 48.8092 9.62264 48.7185C9.57858 48.6231 9.53548 48.5287 9.48856 48.4351C9.39853 48.2462 9.3085 48.0564 9.21656 47.8655C8.50497 46.3447 7.91596 44.771 7.5798 43.561C7.53383 43.4108 7.49169 43.2662 7.44955 43.1302C7.40933 42.9932 7.36814 42.8638 7.34228 42.741C7.28291 42.4935 7.2264 42.2763 7.18617 42.0987C7.09998 41.7435 7.04826 41.5404 7.04826 41.5404C7.04826 41.5404 7.03677 41.4894 7.01187 41.394C6.9908 41.3014 6.96685 41.1579 6.93142 40.9774C6.8979 40.7989 6.85767 40.5826 6.81266 40.3313C6.76573 40.0829 6.70156 39.8014 6.66804 39.4897C6.6259 39.1799 6.58089 38.8445 6.53396 38.4893C6.52247 38.4015 6.5081 38.3108 6.49852 38.2201C6.48607 38.1294 6.48129 38.0369 6.47267 37.9415C6.46022 37.7554 6.44202 37.5627 6.42765 37.3681C6.34529 36.5907 6.34529 35.7566 6.31943 34.9244C6.34529 34.0903 6.34529 33.2572 6.42765 32.4788C6.44202 32.2852 6.46022 32.0934 6.47267 31.9064C6.48129 31.8119 6.48607 31.7193 6.49852 31.6286C6.5081 31.537 6.52247 31.4463 6.53396 31.3575C6.58089 31.0033 6.6259 30.6661 6.66804 30.3572C6.70156 30.0455 6.76573 29.7668 6.81266 29.5156C6.85767 29.2662 6.8979 29.0489 6.93142 28.8694C6.96685 28.6909 6.9908 28.5473 7.01187 28.4529C7.03677 28.3575 7.04826 28.3065 7.04826 28.3065C7.04826 28.3065 7.09998 28.1043 7.18617 27.7491C7.2264 27.5715 7.28291 27.3562 7.34228 27.1087C7.36814 26.9849 7.40933 26.8536 7.44955 26.7176C7.49169 26.5797 7.53383 26.4371 7.5798 26.2859C7.91596 25.0778 8.50497 23.5041 9.21656 21.9813C9.3085 21.7934 9.39853 21.6007 9.48856 21.4127C9.53548 21.3173 9.57858 21.2257 9.62264 21.1303C9.67244 21.0386 9.72128 20.947 9.77204 20.8535C9.96934 20.4889 10.1647 20.1299 10.3505 19.7832C10.5545 19.4451 10.7499 19.1173 10.9405 18.8065C11.0362 18.6535 11.1205 18.4986 11.2182 18.3569C11.3121 18.2142 11.405 18.0782 11.495 17.946C11.6712 17.6834 11.8359 17.4416 11.9796 17.229C12.1252 17.0155 12.2669 16.8398 12.3761 16.6906C12.5993 16.393 12.7247 16.224 12.7247 16.224C12.7247 16.224 12.7582 16.1814 12.8176 16.1012C12.877 16.0228 12.9594 15.9018 13.08 15.7611C13.1988 15.6175 13.3434 15.4437 13.5091 15.2434C13.5924 15.1433 13.6786 15.0375 13.7715 14.9232C13.8663 14.8137 13.9592 14.6937 14.0703 14.5775C14.9131 13.6206 16.1103 12.3973 17.4138 11.277C18.7115 10.1539 20.1337 9.16961 21.2188 8.46304C21.7724 8.12959 22.2292 7.84054 22.5596 7.65445C22.8948 7.47214 23.0845 7.36729 23.0845 7.36729C23.0845 7.36729 23.2722 7.26433 23.6064 7.08202C23.6898 7.03762 23.7807 6.9885 23.8832 6.93277C23.9857 6.88365 24.0949 6.82887 24.2156 6.77124C24.296 6.73157 24.3784 6.6919 24.4646 6.65128C24.4713 6.65128 24.478 6.65128 24.4856 6.65128C24.6973 6.66923 24.9971 6.67867 25.3485 6.65978C26.0582 6.62861 26.9757 6.48408 27.7841 6.04767C28.2026 5.83608 28.5972 5.54892 28.94 5.23814C29.1076 5.08134 29.2819 4.92453 29.4438 4.76867C29.6037 4.61281 29.7503 4.45601 29.8853 4.30487C30.142 4.0007 30.3824 3.7381 30.5394 3.54162C30.6946 3.34514 30.7827 3.2214 30.7827 3.2214C30.7827 3.2214 30.5883 3.2129 30.2665 3.21054C29.9447 3.20818 29.4926 3.21762 28.9831 3.2573C28.8548 3.26863 28.7226 3.27808 28.5895 3.29414C28.4573 3.31019 28.3233 3.32814 28.1892 3.34987C27.9191 3.39049 27.6433 3.44244 27.3703 3.50573C26.8273 3.63325 26.2766 3.79761 25.8552 4.03093C25.4242 4.26142 25.0928 4.54102 24.84 4.82724C24.5977 5.11723 24.4464 5.41762 24.3362 5.68305C24.2347 5.94754 24.1801 6.17992 24.16 6.34806C24.1543 6.38018 24.1533 6.4104 24.1514 6.43874C24.1198 6.4548 24.0882 6.4718 24.0556 6.48408C23.9369 6.54454 23.8248 6.59838 23.7195 6.64844C23.6189 6.70512 23.525 6.75424 23.4398 6.80147C23.1055 6.98378 22.914 7.08958 22.914 7.08958C22.914 7.08958 22.7205 7.19348 22.3834 7.37674C22.053 7.56566 21.5904 7.8566 21.0282 8.19666C19.9316 8.90701 18.497 9.90262 17.1839 11.038C15.8689 12.1678 14.6613 13.4033 13.807 14.3706C13.6959 14.4878 13.603 14.6115 13.5091 14.722C13.4124 14.8354 13.3252 14.9421 13.2429 15.0441C13.0753 15.2453 12.9287 15.421 12.81 15.5665C12.6874 15.7091 12.605 15.831 12.5428 15.9103C12.4834 15.9897 12.4499 16.0331 12.4499 16.0331C12.4499 16.0331 12.3215 16.2051 12.0965 16.5036C11.9863 16.6566 11.8436 16.8342 11.6961 17.0486C11.5486 17.2649 11.3858 17.5086 11.2077 17.7731C11.1148 17.9063 11.0238 18.0442 10.9261 18.1878C10.8313 18.3314 10.7432 18.4882 10.6445 18.6431C10.4578 18.9548 10.2557 19.2873 10.0507 19.6302C9.86111 19.9797 9.66478 20.3425 9.46748 20.7127C9.41768 20.8053 9.36692 20.8979 9.31616 20.9905C9.27211 21.084 9.22518 21.1794 9.18112 21.2748C9.09014 21.4665 8.9982 21.6592 8.90817 21.851C8.18604 23.3879 7.58938 24.9776 7.25322 26.1981C7.20533 26.3502 7.16319 26.4947 7.12296 26.6345C7.08082 26.7743 7.03677 26.9028 7.01091 27.0293C6.95057 27.2778 6.89598 27.4969 6.8548 27.6764C6.76573 28.0335 6.71593 28.2394 6.71593 28.2394C6.71593 28.2394 6.70348 28.2913 6.68049 28.3867C6.65655 28.4831 6.63357 28.6267 6.59813 28.8071C6.56557 28.9885 6.52247 29.2095 6.4765 29.4617C6.43148 29.7139 6.36636 29.9973 6.33092 30.3109C6.28878 30.6245 6.24281 30.9636 6.19588 31.3216C6.18535 31.4123 6.17002 31.503 6.15949 31.5937C6.148 31.6882 6.14321 31.7817 6.13363 31.8752C6.11926 32.0641 6.1049 32.2559 6.08862 32.4571C6.00529 33.2401 6.00529 34.0818 5.97656 34.9244C6.00529 35.766 6.00529 36.6067 6.08862 37.3936C6.1049 37.5901 6.11926 37.7818 6.13363 37.9736C6.14321 38.0681 6.148 38.1616 6.15949 38.2513C6.17002 38.3439 6.18535 38.4374 6.19588 38.5262C6.24281 38.8832 6.28878 39.2252 6.33092 39.5379C6.36636 39.8496 6.43148 40.1339 6.4765 40.3871C6.52247 40.6393 6.56557 40.8575 6.59813 41.0398C6.63357 41.2212 6.65655 41.3638 6.68049 41.4611C6.70348 41.5565 6.71593 41.6084 6.71593 41.6084C6.71593 41.6084 6.76573 41.8125 6.8548 42.1705C6.89598 42.3509 6.95057 42.5701 7.01091 42.8175C7.03677 42.9432 7.08082 43.0754 7.12296 43.2124C7.16319 43.3522 7.20533 43.4977 7.25322 43.6497C7.58938 44.8702 8.18604 46.459 8.90817 47.9987C8.9982 48.1886 9.09014 48.3813 9.18112 48.5721C9.22518 48.6685 9.27211 48.7629 9.31616 48.8574C9.36692 48.9481 9.41768 49.0435 9.46748 49.136C9.66478 49.5035 9.86111 49.8672 10.0507 50.2176C10.2557 50.5596 10.4578 50.8911 10.6445 51.2047C10.7432 51.3597 10.8313 51.5155 10.9261 51.6591C11.0238 51.8017 11.1148 51.9425 11.2077 52.0747C11.3858 52.3402 11.5486 52.5839 11.6961 52.7992C11.8436 53.0137 11.9863 53.1922 12.0965 53.3433C12.3215 53.6428 12.4499 53.8147 12.4499 53.8147C12.4499 53.8147 12.4834 53.8581 12.5428 53.9384C12.605 54.0178 12.6874 54.1387 12.81 54.2813C12.9287 54.4259 13.0753 54.6025 13.2429 54.8056C13.3252 54.9057 13.4124 55.0125 13.5091 55.1258C13.603 55.2354 13.6959 55.3601 13.807 55.4763C14.6613 56.4454 15.8689 57.68 17.1839 58.8098C18.497 59.9433 19.9316 60.9389 21.0282 61.6521C21.5904 61.9912 22.053 62.2812 22.3834 62.4711C22.7205 62.6553 22.914 62.7583 22.914 62.7583C22.914 62.7583 23.1055 62.865 23.4398 63.0464C23.525 63.0926 23.6189 63.1437 23.7195 63.1984C23.8248 63.2495 23.9369 63.3033 24.0556 63.3609C24.296 63.4781 24.567 63.6112 24.8639 63.7548C26.0601 64.3046 27.6825 64.996 29.3777 65.4967C29.7943 65.6403 30.2243 65.7413 30.6457 65.8575C30.8526 65.9151 31.0624 65.9718 31.2683 66.0266C31.4713 66.0833 31.6791 66.1201 31.8822 66.1674C32.2873 66.2552 32.68 66.3402 33.0506 66.4224C33.4251 66.4847 33.7804 66.5443 34.1079 66.6C34.2717 66.6274 34.4269 66.6557 34.5753 66.6803C34.7266 66.7086 34.8693 66.719 35.0025 66.7379C35.2716 66.77 35.5053 66.7965 35.6987 66.821C36.0818 66.8683 36.3021 66.8947 36.3021 66.8947L36.3375 66.5716C36.3375 66.5716 36.1182 66.5461 35.738 66.4999Z" fill="#F9F5E9"/>
<path fill-rule="evenodd" clip-rule="evenodd" d="M31.9688 66.1845C31.9688 66.1845 36.5955 67.3482 37.6356 71.5517L37.5054 66.5992L32.2771 65.9219L31.9688 66.1845Z" fill="#F9F5E9"/>
</g>
</g>
<defs>
<clipPath id="clip0_420_23389">
<rect width="37.4795" height="71.0137" fill="white" transform="matrix(-1 0 0 1 112.66 0)"/>
</clipPath>
<clipPath id="clip1_420_23389">
<rect width="37.4795" height="71.0137" fill="white" transform="translate(0.34375 0.986328)"/>
</clipPath>
</defs>
</svg>
