<svg width="16" height="16" viewBox="0 0 16 16" fill="none" xmlns="http://www.w3.org/2000/svg">
<g clip-path="url(#clip0_380_4249)">
<path d="M1.71415 15.4286H14.2856C14.9168 15.4286 15.4284 14.9169 15.4284 14.2857V1.71427C15.4284 1.08309 14.9168 0.571411 14.2856 0.571411H1.71415C1.08296 0.571411 0.571289 1.08309 0.571289 1.71427V14.2857C0.571289 14.9169 1.08296 15.4286 1.71415 15.4286Z" stroke="#BE8817" stroke-linecap="round" stroke-linejoin="round"/>
<path d="M11.4284 7.42846C11.4284 8.33777 11.0672 9.20984 10.4242 9.85282C9.78124 10.4958 8.90918 10.857 7.99986 10.857C7.09055 10.857 6.21848 10.4958 5.5755 9.85282C4.93251 9.20984 4.57129 8.33777 4.57129 7.42846V4.9256C4.5711 4.82849 4.59566 4.73294 4.64265 4.64794C4.68963 4.56296 4.75751 4.49136 4.83986 4.43989C4.92222 4.38842 5.01632 4.35879 5.1133 4.35378C5.21028 4.34879 5.30695 4.36858 5.39415 4.41132L7.99986 5.71417L10.6056 4.41132C10.6928 4.36858 10.7894 4.34879 10.8864 4.35378C10.9834 4.35879 11.0775 4.38842 11.1599 4.43989C11.2422 4.49136 11.3101 4.56296 11.3571 4.64794C11.4041 4.73294 11.4287 4.82849 11.4284 4.9256V7.42846Z" stroke="#BE8817" stroke-linecap="round" stroke-linejoin="round"/>
<path d="M8 10.8572V15.4286" stroke="#BE8817" stroke-linecap="round" stroke-linejoin="round"/>
<path d="M8 15.4284L10.8571 12.5713" stroke="#BE8817" stroke-linecap="round" stroke-linejoin="round"/>
<path d="M7.99972 15.4284L5.14258 12.5713" stroke="#BE8817" stroke-linecap="round" stroke-linejoin="round"/>
</g>
<defs>
<clipPath id="clip0_380_4249">
<rect width="16" height="16" fill="white"/>
</clipPath>
</defs>
</svg>
