<svg width="20" height="20" viewBox="0 0 20 20" fill="none" xmlns="http://www.w3.org/2000/svg">
<path fill-rule="evenodd" clip-rule="evenodd" d="M10.4169 2.2915C9.61144 2.2915 8.95852 2.94442 8.95852 3.74984C8.95852 4.55525 9.61144 5.20817 10.4169 5.20817C11.2223 5.20817 11.8752 4.55525 11.8752 3.74984C11.8752 2.94442 11.2223 2.2915 10.4169 2.2915ZM7.70852 3.74984C7.70852 2.25407 8.92108 1.0415 10.4169 1.0415C11.9126 1.0415 13.1252 2.25407 13.1252 3.74984C13.1252 5.24561 11.9126 6.45817 10.4169 6.45817C8.92108 6.45817 7.70852 5.24561 7.70852 3.74984ZM9.10784 7.7225C9.27437 7.71348 9.43492 7.70817 9.58352 7.70817C10.0453 7.70817 10.5451 7.75948 10.995 7.82411C12.263 8.00622 13.223 8.94189 13.6067 10.0929C13.6936 10.3536 13.9572 10.5123 14.2282 10.4671L15.7308 10.2167C16.0713 10.1599 16.3933 10.3899 16.45 10.7304C16.5068 11.0709 16.2768 11.3929 15.9363 11.4497L14.4337 11.7001C13.556 11.8464 12.7022 11.3324 12.4208 10.4882C12.1648 9.71999 11.5518 9.16691 10.8173 9.06141C10.5942 9.02937 10.3671 9.00227 10.1466 8.98389L9.92061 11.2435C9.85063 11.9432 9.84247 12.1279 9.88971 12.293C9.93695 12.458 10.0416 12.6105 10.4711 13.1673L14.162 17.9514C14.3729 18.2247 14.3222 18.6172 14.0489 18.828C13.7756 19.0389 13.3832 18.9882 13.1723 18.7149L9.48145 13.9308C9.46153 13.905 9.44184 13.8795 9.42237 13.8543C9.08017 13.4116 8.80941 13.0613 8.68795 12.6369C8.56649 12.2124 8.61095 11.7719 8.66714 11.2152C8.67033 11.1835 8.67357 11.1515 8.67681 11.1191L8.88854 9.00178C7.49412 9.22982 6.45852 10.5408 6.45852 12.0832C6.45852 12.4283 6.1787 12.7082 5.83352 12.7082C5.48834 12.7082 5.20852 12.4283 5.20852 12.0832C5.20852 9.88258 6.80335 7.84739 9.10784 7.7225ZM8.45609 13.9703C8.79457 14.038 9.01408 14.3673 8.94638 14.7057C8.64842 16.1956 7.83467 17.5326 6.64826 18.4818L6.22395 18.8212C5.95441 19.0368 5.56111 18.9931 5.34548 18.7236C5.12985 18.4541 5.17355 18.0608 5.44308 17.8451L5.86739 17.5057C6.82414 16.7403 7.48037 15.662 7.72066 14.4606C7.78835 14.1221 8.11762 13.9026 8.45609 13.9703Z" fill="#C8AC71"/>
</svg>
