<svg width="22" height="22" viewBox="0 0 22 22" fill="none" xmlns="http://www.w3.org/2000/svg">
<g clip-path="url(#clip0_260_1064)">
<path d="M14.9285 2.35713V7.07142H19.6428C20.0595 7.07142 20.4593 7.23699 20.7539 7.53168C21.0486 7.82638 21.2142 8.22607 21.2142 8.64285V19.6428C21.2142 20.0596 21.0486 20.4594 20.7539 20.754C20.4593 21.0486 20.0595 21.2143 19.6428 21.2143H8.64279C8.22601 21.2143 7.82632 21.0486 7.53161 20.754C7.23692 20.4594 7.07136 20.0596 7.07136 19.6428V14.9286H2.35707C1.9403 14.9286 1.54061 14.763 1.2459 14.4683C0.951206 14.1736 0.785645 13.7739 0.785645 13.3571V2.35713C0.785645 1.94036 0.951206 1.54067 1.2459 1.24597C1.54061 0.951267 1.9403 0.785706 2.35707 0.785706H13.3571C13.7738 0.785706 14.1735 0.951267 14.4682 1.24597C14.7629 1.54067 14.9285 1.94036 14.9285 2.35713Z" stroke="#2B2A29" stroke-width="2" stroke-linecap="round" stroke-linejoin="round"/>
</g>
<defs>
<clipPath id="clip0_260_1064">
<rect width="22" height="22" fill="white"/>
</clipPath>
</defs>
</svg>
