<svg width="24" height="24" viewBox="0 0 24 24" fill="none" xmlns="http://www.w3.org/2000/svg">
<g clip-path="url(#clip0_257_1057)">
<path d="M20.1429 12C18.9593 12 18 11.0406 18 9.85715C18 8.67368 18.9593 7.71429 20.1429 7.71429C21.3264 7.71429 22.2857 8.67368 22.2857 9.85715C22.2857 11.0406 21.3264 12 20.1429 12Z" stroke="#2B2A29" stroke-width="2" stroke-linecap="round" stroke-linejoin="round"/>
<path d="M0.857178 20.5714V18.4286C0.857178 16.7717 2.20032 15.4286 3.85718 15.4286C4.90731 15.4286 5.83143 15.9682 6.36741 16.7852" stroke="#2B2A29" stroke-width="2" stroke-linecap="round" stroke-linejoin="round"/>
<path d="M12 9.42859C13.6569 9.42859 15 8.08545 15 6.42859C15 4.77173 13.6569 3.42859 12 3.42859C10.3431 3.42859 9 4.77173 9 6.42859C9 8.08545 10.3431 9.42859 12 9.42859Z" stroke="#2B2A29" stroke-width="2" stroke-linecap="round" stroke-linejoin="round"/>
<path d="M6 20.5715V18.8572C6 15.5435 8.68629 12.8572 12 12.8572C15.3137 12.8572 18 15.5435 18 18.8572V20.5715" stroke="#2B2A29" stroke-width="2" stroke-linecap="round" stroke-linejoin="round"/>
<path d="M3.85721 12C5.04069 12 6.00007 11.0406 6.00007 9.85715C6.00007 8.67368 5.04069 7.71429 3.85721 7.71429C2.67374 7.71429 1.71436 8.67368 1.71436 9.85715C1.71436 11.0406 2.67374 12 3.85721 12Z" stroke="#2B2A29" stroke-width="2" stroke-linecap="round" stroke-linejoin="round"/>
<path d="M23.1428 20.5714V18.4286C23.1428 16.7717 21.7997 15.4286 20.1428 15.4286C19.0926 15.4286 18.1686 15.9682 17.6326 16.7852" stroke="#2B2A29" stroke-width="2" stroke-linecap="round" stroke-linejoin="round"/>
</g>
<defs>
<clipPath id="clip0_257_1057">
<rect width="24" height="24" fill="white"/>
</clipPath>
</defs>
</svg>
