<svg width="16" height="16" viewBox="0 0 16 16" fill="none" xmlns="http://www.w3.org/2000/svg">
<g clip-path="url(#clip0_379_4235)">
<path d="M8.40438 15.2956C8.14179 15.3968 7.8509 15.3968 7.5883 15.2956C5.53933 14.5088 3.77718 13.1192 2.53463 11.31C1.29207 9.50081 0.627579 7.35726 0.628908 5.16247V1.76211C0.628908 1.46151 0.748324 1.1732 0.960888 0.960643C1.17346 0.748079 1.46175 0.628662 1.76236 0.628662H14.2303C14.5309 0.628662 14.8193 0.748079 15.0318 0.960643C15.2444 1.1732 15.3638 1.46151 15.3638 1.76211V5.16247C15.3651 7.35726 14.7006 9.50081 13.4581 11.31C12.2155 13.1192 10.4534 14.5088 8.40438 15.2956Z" stroke="#BE8817" stroke-linecap="round" stroke-linejoin="round"/>
<path d="M11.4284 4.57129L6.857 9.71415L4.57129 7.99986" stroke="#BE8817" stroke-linecap="round" stroke-linejoin="round"/>
</g>
<defs>
<clipPath id="clip0_379_4235">
<rect width="16" height="16" fill="white"/>
</clipPath>
</defs>
</svg>
