<svg width="963" height="338" viewBox="0 0 963 338" fill="none" xmlns="http://www.w3.org/2000/svg">
<path fill-rule="evenodd" clip-rule="evenodd" d="M807.677 3.29134H811.56V0.436035H807.677V3.29134ZM803.794 7.17587H807.677V4.32057H803.794V7.17587ZM799.911 11.0604H803.794V8.20511H799.911V11.0604ZM796.028 14.9449H799.911V12.0896H796.028V14.9449ZM792.145 18.8295H796.028V15.9742H792.145V18.8295ZM788.262 22.714H792.145V19.8587H788.262V22.714ZM784.379 26.5986H788.262V23.7433H784.379V26.5986ZM780.496 30.4831H784.379V27.6278H780.496V30.4831ZM776.613 34.3676H780.496V31.5123H776.613V34.3676ZM772.73 38.2522H776.613V35.3969H772.73V38.2522ZM768.847 42.1367H772.73V39.2814H768.847V42.1367ZM768.847 46.0212H772.73V43.1659H768.847V46.0212ZM516.448 100.405H520.331V97.5495H516.448V100.405ZM516.448 104.289H520.331V101.434H516.448V104.289ZM516.448 108.174H520.331V105.319H516.448V108.174ZM516.448 112.058H520.331V109.203H516.448V112.058ZM516.448 115.943H520.331V113.088H516.448V115.943ZM516.448 119.827H520.331V116.972H516.448V119.827ZM516.448 123.712H520.331V120.857H516.448V123.712ZM516.448 127.597H520.331V124.741H516.448V127.597ZM516.448 131.481H520.331V128.626H516.448V131.481ZM520.331 135.366H524.214V132.51H520.331V135.366ZM520.331 139.25H524.214V136.395H520.331V139.25ZM520.331 143.135H524.214V140.279H520.331V143.135ZM520.331 147.019H524.214V144.164H520.331V147.019ZM520.331 150.904H524.214V148.048H520.331V150.904ZM520.331 154.788H524.214V151.933H520.331V154.788ZM524.214 158.673H528.097V155.818H524.214V158.673ZM524.214 162.557H528.097V159.702H524.214V162.557ZM524.214 166.442H528.097V163.587H524.214V166.442ZM524.214 167.471V170.326H531.98V167.471H524.214ZM528.097 174.211H531.98V171.356H528.097V174.211ZM528.097 178.095H531.98V175.24H528.097V178.095ZM531.98 181.98H535.863V179.125H531.98V181.98ZM535.863 185.865H539.746V183.009H535.863V185.865ZM539.746 189.749H543.629V186.894H539.746V189.749ZM543.629 193.634H551.395V190.778H543.629V193.634ZM163.089 193.634H166.972V190.778H163.089V193.634ZM547.512 197.518H551.395V194.663H547.512V197.518ZM163.089 197.518H166.972V194.663H163.089V197.518ZM547.512 201.403H551.395V198.547H547.512V201.403ZM166.972 201.403H170.855V198.547H166.972V201.403ZM547.512 205.287H551.395V202.432H547.512V205.287ZM166.972 205.287H170.855V202.432H166.972V205.287ZM543.629 209.172H547.512V206.316H543.629V209.172ZM170.855 209.172H174.738V206.316H170.855V209.172ZM543.629 213.056H547.512V210.201H543.629V213.056ZM170.855 213.056H174.738V210.201H170.855V213.056ZM924.169 216.941H928.052V214.086H924.169V216.941ZM539.746 216.941H543.629V214.086H539.746V216.941ZM174.738 216.941H178.621V214.086H174.738V216.941ZM62.129 216.941H89.3104V214.086H62.129V216.941ZM920.286 220.825H924.169V217.97H920.286V220.825ZM539.746 220.825H543.629V217.97H539.746V220.825ZM174.738 220.825H178.621V217.97H174.738V220.825ZM89.3104 220.825H97.0766V217.97H89.3104V220.825ZM73.7782 220.825H77.6613V217.97H73.7782V220.825ZM38.8306 220.825H62.129V217.97H38.8306V220.825ZM916.403 224.71H920.286V221.855H916.403V224.71ZM535.863 224.71H539.746V221.855H535.863V224.71ZM178.621 224.71H182.504V221.855H178.621V224.71ZM97.0766 224.71H108.726V221.855H97.0766V224.71ZM69.8951 224.71H73.7782V221.855H69.8951V224.71ZM15.5322 224.71H38.8306V221.855H15.5322V224.71ZM912.52 228.594H916.403V225.739H912.52V228.594ZM531.98 228.594H535.863V225.739H531.98V228.594ZM182.504 228.594H186.387V225.739H182.504V228.594ZM108.726 228.594H128.141V225.739H108.726V228.594ZM66.0121 228.594H69.8951V225.739H66.0121V228.594ZM0 228.594H15.5322V225.739H0V228.594ZM908.637 232.479H912.52V229.624H908.637V232.479ZM528.097 232.479H531.98V229.624H528.097V232.479ZM182.504 232.479H186.387V229.624H182.504V232.479ZM128.141 232.479H132.024V229.624H128.141V232.479ZM66.0121 232.479H69.8951V229.624H66.0121V232.479ZM904.754 236.364H908.637V233.508H904.754V236.364ZM524.214 236.364H528.097V233.508H524.214V236.364ZM186.387 236.364H190.27V233.508H186.387V236.364ZM132.024 236.364H147.556V233.508H132.024V236.364ZM900.871 240.248H904.754V237.393H900.871V240.248ZM520.331 240.248H524.214V237.393H520.331V240.248ZM190.27 240.248H198.036V237.393H190.27V240.248ZM147.556 240.248H159.206V237.393H147.556V240.248ZM896.988 244.133H900.871V241.277H896.988V244.133ZM516.448 241.277V244.133H524.214V241.277H516.448ZM194.153 241.277V244.133H201.919V241.277H194.153ZM159.206 244.133H182.504V241.277H159.206V244.133ZM889.222 248.017H896.988V245.162H889.222V248.017ZM512.565 248.017H516.448V245.162H512.565V248.017ZM182.504 248.017H264.048V245.162H182.504V248.017ZM885.339 251.902H889.222V249.046H885.339V251.902ZM508.681 251.902H512.565V249.046H508.681V251.902ZM264.048 251.902H271.815V249.046H264.048V251.902ZM881.456 255.786H885.339V252.931H881.456V255.786ZM500.915 255.786H508.681V252.931H500.915V255.786ZM271.815 255.786H275.698V252.931H271.815V255.786ZM877.573 259.671H881.456V256.815H877.573V259.671ZM497.032 259.671H500.915V256.815H497.032V259.671ZM275.698 259.671H283.464V256.815H275.698V259.671ZM873.69 263.555H877.573V260.7H873.69V263.555ZM489.266 263.555H497.032V260.7H489.266V263.555ZM283.464 263.555H287.347V260.7H283.464V263.555ZM865.923 267.44H877.573V264.585H865.923V267.44ZM477.617 267.44H489.266V264.585H477.617V267.44ZM287.347 267.44H291.23V264.585H287.347V267.44ZM873.69 271.324H877.573V268.469H873.69V271.324ZM858.157 271.324H865.923V268.469H858.157V271.324ZM465.968 271.324H477.617V268.469H465.968V271.324ZM291.23 271.324H295.113V268.469H291.23V271.324ZM877.573 275.209H881.456V272.354H877.573V275.209ZM846.508 275.209H858.157V272.354H846.508V275.209ZM458.202 275.209H465.968V272.354H458.202V275.209ZM295.113 275.209H302.879V272.354H295.113V275.209ZM881.456 279.093H885.339V276.238H881.456V279.093ZM842.625 279.093H846.508V276.238H842.625V279.093ZM578.577 279.093H582.46V276.238H578.577V279.093ZM454.319 279.093H458.202V276.238H454.319V279.093ZM302.879 279.093H310.645V276.238H302.879V279.093ZM885.339 282.978H893.105V280.123H885.339V282.978ZM838.742 282.978H842.625V280.123H838.742V282.978ZM578.577 282.978H582.46V280.123H578.577V282.978ZM465.968 282.978H473.734V280.123H465.968V282.978ZM438.786 282.978H454.319V280.123H438.786V282.978ZM310.645 282.978H314.528V280.123H310.645V282.978ZM959.117 286.863H963V284.007H959.117V286.863ZM893.105 286.863H896.988V284.007H893.105V286.863ZM830.976 286.863H838.742V284.007H830.976V286.863ZM578.577 286.863H582.46V284.007H578.577V286.863ZM473.734 286.863H493.149V284.007H473.734V286.863ZM399.956 286.863H465.968V284.007H399.956V286.863ZM314.528 286.863H318.411V284.007H314.528V286.863ZM951.351 290.747H959.117V287.892H951.351V290.747ZM896.988 287.892V290.747H904.754V287.892H896.988ZM827.093 290.747H830.976V287.892H827.093V290.747ZM753.314 290.747H788.262V287.892H753.314V290.747ZM578.577 290.747H582.46V287.892H578.577V290.747ZM493.149 290.747H516.448V287.892H493.149V290.747ZM396.073 290.747H399.956V287.892H396.073V290.747ZM318.411 290.747H326.177V287.892H318.411V290.747ZM928.052 294.632H951.351V291.776H928.052V294.632ZM904.754 291.776V294.632H912.52V291.776H904.754ZM823.21 294.632H827.093V291.776H823.21V294.632ZM788.262 294.632H792.145V291.776H788.262V294.632ZM741.665 294.632H753.314V291.776H741.665V294.632ZM578.577 294.632H582.46V291.776H578.577V294.632ZM516.448 294.632H535.863V291.776H516.448V294.632ZM392.19 294.632H396.073V291.776H392.19V294.632ZM326.177 294.632H330.06V291.776H326.177V294.632ZM912.52 298.516H928.052V295.661H912.52V298.516ZM819.327 298.516H823.21V295.661H819.327V298.516ZM788.262 298.516H807.677V295.661H788.262V298.516ZM733.899 298.516H741.665V295.661H733.899V298.516ZM574.694 298.516H578.577V295.661H574.694V298.516ZM535.863 298.516H547.512V295.661H535.863V298.516ZM388.306 298.516H392.19V295.661H388.306V298.516ZM330.06 298.516H333.944V295.661H330.06V298.516ZM920.286 302.401H924.169V299.545H920.286V302.401ZM912.52 302.401H916.403V299.545H912.52V302.401ZM807.677 302.401H819.327V299.545H807.677V302.401ZM726.133 302.401H733.899V299.545H726.133V302.401ZM574.694 302.401H578.577V299.545H574.694V302.401ZM547.512 302.401H559.161V299.545H547.512V302.401ZM333.944 302.401H392.19V299.545H333.944V302.401ZM916.403 306.285H920.286V303.43H916.403V306.285ZM908.637 306.285H912.52V303.43H908.637V306.285ZM722.25 306.285H726.133V303.43H722.25V306.285ZM559.161 306.285H578.577V303.43H559.161V306.285ZM333.944 306.285H357.242V303.43H333.944V306.285ZM912.52 310.17H916.403V307.314H912.52V310.17ZM904.754 310.17H908.637V307.314H904.754V310.17ZM718.367 310.17H722.25V307.314H718.367V310.17ZM574.694 310.17H586.343V307.314H574.694V310.17ZM333.944 310.17H337.827V307.314H333.944V310.17ZM900.871 314.054H904.754V311.199H900.871V314.054ZM706.718 314.054H718.367V311.199H706.718V314.054ZM586.343 314.054H590.226V311.199H586.343V314.054ZM333.944 314.054H337.827V311.199H333.944V314.054ZM702.835 317.939H706.718V315.083H702.835V317.939ZM590.226 317.939H601.875V315.083H590.226V317.939ZM333.944 317.939H337.827V315.083H333.944V317.939ZM698.952 321.823H702.835V318.968H698.952V321.823ZM601.875 321.823H613.524V318.968H601.875V321.823ZM330.06 321.823H333.944V318.968H330.06V321.823ZM695.069 325.708H698.952V322.853H695.069V325.708ZM613.524 325.708H629.056V322.853H613.524V325.708ZM330.06 325.708H333.944V322.853H330.06V325.708ZM691.185 329.592H695.069V326.737H691.185V329.592ZM629.056 329.592H644.589V326.737H629.056V329.592ZM330.06 329.592H333.944V326.737H330.06V329.592ZM695.069 333.477H698.952V330.622H695.069V333.477ZM679.536 333.477H691.185V330.622H679.536V333.477ZM644.589 333.477H664.004V330.622H644.589V333.477ZM664.004 337.362H679.536V334.506H664.004V337.362Z" fill="#4E4C6C"/>
</svg>
