<svg width="464" height="7" viewBox="0 0 464 7" fill="none" xmlns="http://www.w3.org/2000/svg">
<path d="M1 6L4.5 2.5C6.433 0.567003 9.567 0.567003 11.5 2.5V2.5C13.433 4.433 16.567 4.433 18.5 2.5V2.5C20.433 0.567003 23.567 0.567003 25.5 2.5V2.5C27.433 4.433 30.567 4.433 32.5 2.5V2.5C34.433 0.567003 37.567 0.567003 39.5 2.5V2.5C41.433 4.433 44.567 4.433 46.5 2.5V2.5C48.433 0.567003 51.567 0.567003 53.5 2.5V2.5C55.433 4.433 58.567 4.433 60.5 2.5V2.5C62.433 0.567003 65.567 0.567003 67.5 2.5V2.5C69.433 4.433 72.567 4.433 74.5 2.5V2.5C76.433 0.567003 79.567 0.567003 81.5 2.5V2.5C83.433 4.433 86.567 4.433 88.5 2.5V2.5C90.433 0.567003 93.567 0.567003 95.5 2.5V2.5C97.433 4.433 100.567 4.433 102.5 2.5V2.5C104.433 0.567003 107.567 0.567003 109.5 2.5V2.5C111.433 4.433 114.567 4.433 116.5 2.5V2.5C118.433 0.567003 121.567 0.567003 123.5 2.5V2.5C125.433 4.433 128.567 4.433 130.5 2.5V2.5C132.433 0.567003 135.567 0.567003 137.5 2.5V2.5C139.433 4.433 142.567 4.433 144.5 2.5V2.5C146.433 0.567003 149.567 0.567003 151.5 2.5V2.5C153.433 4.433 156.567 4.433 158.5 2.5V2.5C160.433 0.567003 163.567 0.567003 165.5 2.5V2.5C167.433 4.433 170.567 4.433 172.5 2.5V2.5C174.433 0.567003 177.567 0.567003 179.5 2.5V2.5C181.433 4.433 184.567 4.433 186.5 2.5V2.5C188.433 0.567003 191.567 0.567003 193.5 2.5V2.5C195.433 4.433 198.567 4.433 200.5 2.5V2.5C202.433 0.567003 205.567 0.567003 207.5 2.5V2.5C209.433 4.433 212.567 4.433 214.5 2.5V2.5C216.433 0.567003 219.567 0.567003 221.5 2.5V2.5C223.433 4.433 226.567 4.433 228.5 2.5V2.5C230.433 0.567003 233.567 0.567003 235.5 2.5V2.5C237.433 4.433 240.567 4.433 242.5 2.5V2.5C244.433 0.567003 247.567 0.567003 249.5 2.5V2.5C251.433 4.433 254.567 4.433 256.5 2.5V2.5C258.433 0.567003 261.567 0.567003 263.5 2.5V2.5C265.433 4.433 268.567 4.433 270.5 2.5V2.5C272.433 0.567003 275.567 0.567003 277.5 2.5V2.5C279.433 4.433 282.567 4.433 284.5 2.5V2.5C286.433 0.567003 289.567 0.567003 291.5 2.5V2.5C293.433 4.433 296.567 4.433 298.5 2.5V2.5C300.433 0.567003 303.567 0.567003 305.5 2.5V2.5C307.433 4.433 310.567 4.433 312.5 2.5V2.5C314.433 0.567003 317.567 0.567003 319.5 2.5V2.5C321.433 4.433 324.567 4.433 326.5 2.5V2.5C328.433 0.567003 331.567 0.567003 333.5 2.5V2.5C335.433 4.433 338.567 4.433 340.5 2.5V2.5C342.433 0.567003 345.567 0.567003 347.5 2.5V2.5C349.433 4.433 352.567 4.433 354.5 2.5V2.5C356.433 0.567003 359.567 0.567003 361.5 2.5V2.5C363.433 4.433 366.567 4.433 368.5 2.5V2.5C370.433 0.567003 373.567 0.567003 375.5 2.5V2.5C377.433 4.433 380.567 4.433 382.5 2.5V2.5C384.433 0.567003 387.567 0.567003 389.5 2.5V2.5C391.433 4.433 394.567 4.433 396.5 2.5V2.5C398.433 0.567003 401.567 0.567003 403.5 2.5V2.5C405.433 4.433 408.567 4.433 410.5 2.5V2.5C412.433 0.567003 415.567 0.567003 417.5 2.5V2.5C419.433 4.433 422.567 4.433 424.5 2.5V2.5C426.433 0.567003 429.567 0.567003 431.5 2.5V2.5C433.433 4.433 436.567 4.433 438.5 2.5V2.5C440.433 0.567003 443.567 0.567003 445.5 2.5V2.5C447.433 4.433 450.567 4.433 452.5 2.5V2.5C454.433 0.567003 457.567 0.567004 459.5 2.5L463 6" stroke="black"/>
</svg>
