<svg width="120" height="120" viewBox="0 0 120 120" fill="none" xmlns="http://www.w3.org/2000/svg">
<rect width="120" height="120" rx="60" fill="#01161D"/>
<path d="M60 68.3918C59.1975 68.3918 58.4262 68.0213 57.9382 67.3997L45.5496 51.6432C42.5804 48.0902 38.6401 42.5918 38.6401 35.8611C38.6401 24.3586 48.223 15 60.0013 15C71.7795 15 81.3624 24.3586 81.3624 35.8611C81.3624 39.7664 79.2244 44.62 74.6326 51.1361C73.8201 52.2892 72.1976 52.5817 71.0169 51.7883C70.4453 51.4031 70.0596 50.8241 69.9336 50.1574C69.8075 49.4907 69.9548 48.8154 70.3492 48.2559C74.207 42.7819 76.1628 38.6109 76.1628 35.8599C76.1628 34.5667 76.0043 33.2942 75.6885 32.057C74.4629 34.535 72.6407 36.6827 70.3317 38.3477C67.3201 40.5209 63.748 41.6691 60.0025 41.6691C56.257 41.6691 52.6849 40.5209 49.6733 38.3477C47.3643 36.6814 45.5421 34.535 44.3165 32.057C44.0007 33.2942 43.8422 34.5667 43.8422 35.8599C43.8422 39.7567 45.6731 43.7607 49.6046 48.4583C49.6209 48.4778 49.6371 48.4985 49.6533 48.5192L60.0025 61.6819L64.3072 56.2079C64.7303 55.6704 65.3418 55.3254 66.0308 55.2365C66.7197 55.1487 67.4024 55.3266 67.9529 55.7399C68.5033 56.1531 68.8565 56.7503 68.9476 57.4231C69.0387 58.096 68.8552 58.7627 68.4321 59.3002L62.0656 67.3972C61.5763 68.0189 60.805 68.3906 60.0037 68.3906L60 68.3918ZM60 16.6382C49.1466 16.6382 40.3163 25.2618 40.3163 35.8611C40.3163 42.075 44.0494 47.2589 46.8563 50.6169L46.8713 50.6364L59.2674 66.4026C59.4409 66.6232 59.7142 66.7549 59.9988 66.7549C60.2833 66.7549 60.5567 66.6232 60.7301 66.4026L67.0967 58.3056C67.2464 58.1142 67.3113 57.8778 67.2801 57.6401C67.2477 57.4012 67.1229 57.1891 66.9269 57.0428C66.731 56.8966 66.4901 56.8332 66.2455 56.8637C66.0008 56.8954 65.7837 57.0172 65.6339 57.2086L59.9988 64.3756L48.3016 49.4992C44.1118 44.492 42.161 40.1589 42.161 35.8636C42.161 33.6184 42.5953 31.4305 43.4515 29.3596L44.314 27.2754L45.0266 29.4133C47.1459 35.7661 53.1629 40.0358 59.9988 40.0358C66.8346 40.0358 72.8504 35.7673 74.9709 29.4133L75.6835 27.2754L76.546 29.3596C77.4022 31.4305 77.8365 33.6184 77.8365 35.8636C77.8365 38.9522 75.7809 43.4353 71.7271 49.1884C71.5873 49.387 71.5349 49.626 71.5798 49.8624C71.6247 50.0989 71.7608 50.3049 71.9642 50.4414C72.3836 50.7229 72.959 50.6193 73.2473 50.2098C77.6368 43.9801 79.6812 39.4215 79.6812 35.8636C79.6812 25.2642 70.8509 16.6406 59.9975 16.6406L60 16.6382ZM60 38.2294C56.4018 38.2294 52.987 36.8862 50.3859 34.4485C47.7924 32.018 46.2772 28.7563 46.1187 25.2642L46.1037 24.9461L46.3122 24.7023C49.7195 20.7226 54.7081 18.4409 60 18.4409C65.2919 18.4409 70.2805 20.7226 73.6866 24.7023L73.895 24.9461L73.8801 25.2642C73.7215 28.7563 72.2064 32.018 69.6128 34.4485C67.0105 36.8874 63.597 38.2294 59.9988 38.2294H60ZM47.8124 25.5092C48.2617 31.7498 53.5536 36.5912 60 36.5912C66.4464 36.5912 71.7383 31.7486 72.1876 25.5092C69.1073 22.0537 64.6841 20.0791 60 20.0791C55.3159 20.0791 50.8927 22.0537 47.8124 25.5092Z" fill="#EDEDED"/>
<path d="M57.5362 47.2796C57.4489 50.5023 62.6934 50.5023 62.6072 47.2796C62.6934 44.0569 57.4501 44.0569 57.5362 47.2796Z" fill="#EFC311"/>
<path d="M36.622 79.3654V91.5335H44.3439C46.11 91.5335 47.5428 92.9315 47.5428 94.6575H33.5267C33.2359 94.6575 33 94.4271 33 94.1431V75.8294C35.0007 75.8294 36.622 77.4128 36.622 79.3666V79.3654Z" fill="#EDEDED"/>
<path d="M63.8928 84.2592C64.5218 84.2592 65.0323 84.7577 65.0323 85.3721C65.0323 90.7217 61.0883 95 55.4357 95C49.7831 95 45.6494 90.6352 45.6494 85.2282C45.6494 79.8213 49.6221 75.4857 55.4357 75.4857C59.8902 75.4857 62.3302 77.6249 63.6294 79.6226C61.9545 80.4185 59.9725 80.4088 58.3525 79.5129C57.5662 79.0778 56.6052 78.8096 55.4357 78.8096C51.9011 78.8096 49.4324 81.7337 49.4324 85.2282C49.4324 88.7228 51.9011 91.6615 55.4357 91.6615C58.6196 91.6615 60.7813 89.665 60.971 86.9968H55.2448C55.2448 85.4842 56.5003 84.258 58.0492 84.258H63.8915L63.8928 84.2592Z" fill="#EDEDED"/>
<path d="M86.9999 94.6575C85.0142 94.6575 83.4092 93.0741 83.4304 91.1349L83.5527 79.8517L79.8583 87.4856C79.394 88.4461 78.4043 89.0579 77.3172 89.0579C76.2289 89.0579 75.2379 88.4436 74.7736 87.4819L71.093 79.8517L71.2265 91.1203C71.249 93.0668 69.6402 94.6575 67.6458 94.6575V75.8282H67.6483C70.6973 75.8282 73.4556 77.5968 74.6688 80.3283L77.316 86.2899L79.9869 80.3125C81.2038 77.5883 83.9571 75.8282 86.9999 75.8282V94.6575Z" fill="#EDEDED"/>
<path d="M77.6117 94.6575C78.463 94.6575 79.1531 93.9835 79.1531 93.1522C79.1531 92.3208 78.463 91.6469 77.6117 91.6469C76.7604 91.6469 76.0703 92.3208 76.0703 93.1522C76.0703 93.9835 76.7604 94.6575 77.6117 94.6575Z" fill="#EFC311"/>
</svg>
