<svg width="50" height="74" viewBox="0 0 50 74" fill="none" xmlns="http://www.w3.org/2000/svg">
<path d="M25 49.3874C24.2569 49.3874 23.5427 49.0447 23.0909 48.4697L11.62 33.895C8.87071 30.6084 5.22235 25.5224 5.22235 19.2966C5.22235 8.65667 14.0954 0 25.0012 0C35.907 0 44.78 8.65667 44.78 19.2966C44.78 22.9089 42.8004 27.3985 38.5488 33.4259C37.7964 34.4925 36.2941 34.7631 35.2009 34.0291C34.6716 33.6729 34.3145 33.1373 34.1978 32.5206C34.081 31.9039 34.2174 31.2793 34.5826 30.7617C38.1547 25.6983 39.9656 21.8401 39.9656 19.2954C39.9656 18.0992 39.8188 16.9221 39.5264 15.7777C38.3916 18.0699 36.7044 20.0565 34.5664 21.5966C31.7779 23.6069 28.4704 24.6689 25.0023 24.6689C21.5342 24.6689 18.2268 23.6069 15.4382 21.5966C13.3003 20.0553 11.6131 18.0699 10.4782 15.7777C10.1858 16.9221 10.0391 18.0992 10.0391 19.2954C10.0391 22.8999 11.7344 26.6036 15.3747 30.9489C15.3897 30.9669 15.4047 30.9861 15.4197 31.0053L25.0023 43.1808L28.9881 38.1173C29.3799 37.6201 29.9462 37.301 30.5841 37.2187C31.222 37.1375 31.8541 37.3022 32.3638 37.6844C32.8734 38.0666 33.2004 38.619 33.2848 39.2414C33.3692 39.8638 33.1993 40.4805 32.8075 40.9777L26.9126 48.4674C26.4596 49.0424 25.7454 49.3863 25.0035 49.3863L25 49.3874ZM25 1.51532C14.9505 1.51532 6.77438 9.49212 6.77438 19.2966C6.77438 25.0444 10.2309 29.8395 12.8299 32.9456L12.8438 32.9637L24.3216 47.5474C24.4823 47.7515 24.7354 47.8733 24.9989 47.8733C25.2623 47.8733 25.5154 47.7515 25.6761 47.5474L31.571 40.0577C31.7097 39.8807 31.7698 39.6619 31.7409 39.4421C31.7108 39.2211 31.5953 39.0249 31.4138 38.8896C31.2324 38.7543 31.0093 38.6957 30.7828 38.7239C30.5563 38.7532 30.3553 38.866 30.2166 39.043L24.9989 45.6725L14.1682 31.9118C10.2887 27.2801 8.48242 23.272 8.48242 19.2988C8.48242 17.222 8.88458 15.1982 9.67735 13.2827L10.4759 11.3547L11.1358 13.3323C13.0981 19.2086 18.6694 23.1581 24.9989 23.1581C31.3283 23.1581 36.8985 19.2097 38.8619 13.3323L39.5218 11.3547L40.3204 13.2827C41.1131 15.1982 41.5153 17.222 41.5153 19.2988C41.5153 22.1558 39.6119 26.3026 35.8584 31.6242C35.729 31.808 35.6805 32.029 35.7221 32.2477C35.7637 32.4665 35.8896 32.657 36.078 32.7833C36.4663 33.0437 36.999 32.9479 37.266 32.5691C41.3304 26.8066 43.2233 22.5899 43.2233 19.2988C43.2233 9.49438 35.0472 1.51758 24.9977 1.51758L25 1.51532ZM25 21.4872C21.6683 21.4872 18.5065 20.2448 16.0981 17.9898C13.6967 15.7417 12.2937 12.7246 12.147 9.49439L12.1331 9.20011L12.3261 8.97461C15.481 5.29344 20.1001 3.18283 25 3.18283C29.8999 3.18283 34.519 5.29344 37.6728 8.97461L37.8658 9.20011L37.8519 9.49439C37.7051 12.7246 36.3022 15.7417 33.9008 17.9898C31.4913 20.2459 28.3306 21.4872 24.9989 21.4872H25ZM13.7152 9.72099C14.1312 15.4936 19.0311 19.9719 25 19.9719C30.9689 19.9719 35.8688 15.4925 36.2849 9.72099C33.4327 6.52463 29.3371 4.69815 25 4.69815C20.6629 4.69815 16.5673 6.52463 13.7152 9.72099Z" fill="#EDEDED"/>
<path d="M22.7188 29.8586C22.6379 32.8396 27.4939 32.8396 27.4141 29.8586C27.4939 26.8775 22.639 26.8775 22.7188 29.8586Z" fill="#EFC311"/>
<path d="M3.35367 59.5379V70.7933H10.5036C12.1389 70.7933 13.4655 72.0865 13.4655 73.683H0.487681C0.218416 73.683 0 73.4699 0 73.2072V56.2671C1.85249 56.2671 3.35367 57.7317 3.35367 59.539V59.5379Z" fill="#EDEDED"/>
<path d="M28.6044 64.0647C29.1869 64.0647 29.6595 64.5258 29.6595 65.0941C29.6595 70.0425 26.0077 73.9999 20.7738 73.9999C15.5399 73.9999 11.7124 69.9625 11.7124 64.961C11.7124 59.9596 15.3908 55.9492 20.7738 55.9492C24.8983 55.9492 27.1576 57.9279 28.3606 59.7758C26.8097 60.5121 24.9745 60.5031 23.4745 59.6744C22.7465 59.2719 21.8566 59.0238 20.7738 59.0238C17.501 59.0238 15.2152 61.7286 15.2152 64.961C15.2152 68.1935 17.501 70.9118 20.7738 70.9118C23.7218 70.9118 25.7234 69.065 25.8991 66.597H20.597C20.597 65.1978 21.7596 64.0636 23.1937 64.0636H28.6033L28.6044 64.0647Z" fill="#EDEDED"/>
<path d="M49.9999 73.6832C48.1613 73.6832 46.6752 72.2186 46.6948 70.4248L46.8081 59.9879L43.3874 67.0492C42.9575 67.9376 42.041 68.5036 41.0345 68.5036C40.0268 68.5036 39.1092 67.9354 38.6793 67.0458L35.2713 59.9879L35.3949 70.4113C35.4157 72.2118 33.9261 73.6832 32.0794 73.6832V56.2661H32.0817C34.905 56.2661 37.4589 57.9021 38.5822 60.4287L41.0333 65.9431L43.5064 60.4141C44.6331 57.8942 47.1825 56.2661 49.9999 56.2661V73.6832Z" fill="#EDEDED"/>
<path d="M41.3072 73.683C42.0955 73.683 42.7344 73.0596 42.7344 72.2906C42.7344 71.5216 42.0955 70.8982 41.3072 70.8982C40.519 70.8982 39.88 71.5216 39.88 72.2906C39.88 73.0596 40.519 73.683 41.3072 73.683Z" fill="#EFC311"/>
</svg>
