<svg width="32" height="33" viewBox="0 0 32 33" fill="none" xmlns="http://www.w3.org/2000/svg">
<path fill-rule="evenodd" clip-rule="evenodd" d="M25.1039 2.80377C26.1564 2.32933 28.059 1.80846 29.5267 3.27596C30.9945 4.74358 30.4735 6.64631 29.9991 7.69879C29.6537 8.46503 29.1792 9.2803 28.5781 9.88148L24.4037 14.0559L27.6657 27.1039C28.0906 28.8035 25.868 29.8517 24.8268 28.443L18.5325 19.9272L14.7561 23.7036L13.9748 29.1723C13.7671 30.6262 11.8743 31.0555 11.0596 29.8335L7.81673 24.9692L2.52541 21.306C1.28021 20.4439 1.81848 18.4948 3.32972 18.394L9.13919 18.0067L12.8756 14.2703L4.35978 7.97598C2.951 6.93471 3.99935 4.71219 5.69886 5.13707L18.7468 8.39907L22.9212 4.22472C23.5223 3.62358 24.3377 3.14916 25.1039 2.80377ZM24.7761 6.14103L20.2054 10.7117C19.808 11.1091 19.2312 11.2689 18.686 11.1326L10.2704 9.0287L15.4567 12.862C16.2433 13.4435 16.3287 14.5884 15.6371 15.2801L10.7414 20.1757C10.4674 20.4498 10.1032 20.615 9.71649 20.6408L6.55402 20.8517L9.75316 23.0664L11.7298 26.0314L12.1665 22.9745C12.2154 22.6317 12.3742 22.3141 12.619 22.0694L17.5227 17.1657C18.2144 16.474 19.3593 16.5594 19.9407 17.3461L23.7741 22.5323L21.6702 14.1168C21.5339 13.5716 21.6936 12.9948 22.091 12.5974L26.6617 8.02664C26.7738 7.89307 27.2533 7.30101 27.568 6.60288C27.9521 5.75082 27.8437 5.36416 27.6412 5.16171C27.4386 4.95914 27.0518 4.85081 26.1998 5.23486C25.5017 5.54954 24.9097 6.02896 24.7761 6.14103Z" fill="#D20001"/>
</svg>
