<svg width="32" height="33" viewBox="0 0 32 33" fill="none" xmlns="http://www.w3.org/2000/svg">
<path fill-rule="evenodd" clip-rule="evenodd" d="M15.3538 2.0008C15.7565 1.77708 16.2461 1.77708 16.6488 2.0008L28.6473 8.66664C28.6574 8.67223 28.6675 8.67797 28.6775 8.68385C29.0846 8.92343 29.3346 9.36058 29.3346 9.83301V23.1663C29.3346 23.6506 29.0721 24.0967 28.6488 24.3319L16.6488 30.9986C16.24 31.2257 15.7425 31.2219 15.3375 30.9894L3.35378 24.3317C2.93049 24.0966 2.66797 23.6504 2.66797 23.1662V9.83301C2.66797 9.36058 2.91796 8.92328 3.32513 8.6837L3.34437 8.68346L3.35378 8.66746L15.3538 2.0008ZM16.0014 14.9743L6.74694 9.83293L16.0013 4.69162L25.2558 9.83301L16.0014 14.9743ZM5.33464 12.099V22.3817L14.668 27.5668V17.2842L5.33464 12.099ZM17.3346 17.2842V27.567L26.668 22.3818V12.099L17.3346 17.2842Z" fill="#D20001"/>
</svg>
