<svg width="32" height="33" viewBox="0 0 32 33" fill="none" xmlns="http://www.w3.org/2000/svg">
<path d="M9.33372 20.4997C8.59734 20.4997 8.00039 21.0966 8.00039 21.833C8.00039 22.5694 8.59734 23.1663 9.33372 23.1663C10.0701 23.1663 10.6671 22.5694 10.6671 21.833C10.6671 21.0966 10.0701 20.4997 9.33372 20.4997Z" fill="#D20001"/>
<path d="M12.0004 21.833C12.0004 21.0966 12.5973 20.4997 13.3337 20.4997C14.0701 20.4997 14.6671 21.0966 14.6671 21.833C14.6671 22.5694 14.0701 23.1663 13.3337 23.1663C12.5973 23.1663 12.0004 22.5694 12.0004 21.833Z" fill="#D20001"/>
<path d="M17.3337 20.4997C16.5973 20.4997 16.0004 21.0966 16.0004 21.833C16.0004 22.5694 16.5973 23.1663 17.3337 23.1663C18.0701 23.1663 18.6671 22.5694 18.6671 21.833C18.6671 21.0966 18.0701 20.4997 17.3337 20.4997Z" fill="#D20001"/>
<path d="M20.0004 21.833C20.0004 21.0966 20.5973 20.4997 21.3337 20.4997C22.0701 20.4997 22.6671 21.0966 22.6671 21.833C22.6671 22.5694 22.0701 23.1663 21.3337 23.1663C20.5973 23.1663 20.0004 22.5694 20.0004 21.833Z" fill="#D20001"/>
<path d="M9.33372 13.833C9.33372 13.0966 9.93068 12.4997 10.6671 12.4997C11.4034 12.4997 12.0004 13.0966 12.0004 13.833C12.0004 14.5694 11.4034 15.1663 10.6671 15.1663C9.93068 15.1663 9.33372 14.5694 9.33372 13.833Z" fill="#D20001"/>
<path d="M14.6671 12.4997C13.9307 12.4997 13.3337 13.0966 13.3337 13.833C13.3337 14.5694 13.9307 15.1663 14.6671 15.1663C15.4034 15.1663 16.0004 14.5694 16.0004 13.833C16.0004 13.0966 15.4034 12.4997 14.6671 12.4997Z" fill="#D20001"/>
<path d="M17.3337 13.833C17.3337 13.0966 17.9307 12.4997 18.6671 12.4997C19.4034 12.4997 20.0004 13.0966 20.0004 13.833C20.0004 14.5694 19.4034 15.1663 18.6671 15.1663C17.9307 15.1663 17.3337 14.5694 17.3337 13.833Z" fill="#D20001"/>
<path fill-rule="evenodd" clip-rule="evenodd" d="M9.33372 1.83301C8.59734 1.83301 8.00039 2.42996 8.00039 3.16634C8.00039 3.90272 8.59734 4.49967 9.33372 4.49967H10.6671C11.4034 4.49967 12.0004 5.09663 12.0004 5.83301V8.49967H9.33372C7.12458 8.49967 5.33372 10.2905 5.33372 12.4997V16.4997H4.20444C2.58165 16.4997 1.33508 17.937 1.56457 19.5435L2.63973 27.0698C2.46218 27.1868 2.29257 27.3052 2.13283 27.4214C1.63009 27.787 1.19976 28.1496 0.895821 28.4198C0.743094 28.5555 0.620382 28.6697 0.53431 28.7513C-0.0268144 29.2839 -0.202573 30.1823 0.390913 30.7758C0.978393 31.3633 1.81702 31.2105 2.37011 30.6855C2.43769 30.6214 2.53893 30.5271 2.66746 30.4129C2.92602 30.183 3.28736 29.879 3.70128 29.578C4.11898 29.2742 4.56544 28.9917 4.9952 28.7894C5.43893 28.5806 5.77646 28.4997 6.00039 28.4997C6.26853 28.4997 6.39716 28.8489 6.5186 29.0441C6.85776 29.5883 7.22125 30.112 7.74741 30.4947C8.34902 30.9322 9.09139 31.1663 10.0004 31.1663C11.5381 31.1663 12.8332 30.4368 14.0733 29.6091C15.1163 28.9137 15.7946 28.4997 16.6671 28.4997C16.8907 28.4997 17.018 28.5278 17.0824 28.5487C17.321 28.6264 17.3983 28.943 17.4988 29.1447C17.6511 29.4513 17.9233 29.9992 18.4243 30.4287C19.0115 30.932 19.7611 31.1663 20.6671 31.1663C22.4242 31.1663 23.8901 30.287 24.9492 29.6352L25.1927 29.4849C25.6556 29.1987 26.0367 28.9632 26.4098 28.7804C26.8378 28.5708 27.125 28.4997 27.3337 28.4997C27.7385 28.4997 28.2333 28.7907 28.747 29.3777C28.9793 29.6432 29.1668 29.9149 29.2968 30.123C29.3929 30.2768 29.4532 30.3888 29.4711 30.4228L29.4752 30.4306C29.8049 31.0883 30.6052 31.3547 31.2633 31.0256C32.0116 30.6515 32.1491 29.7531 31.7724 29.0727C31.7221 28.9817 31.6502 28.857 31.5581 28.7097C31.3757 28.4177 31.1049 28.0228 30.7538 27.6217C30.1559 26.9383 29.123 26.0068 27.7284 25.8545L30.3233 20.294C31.1484 18.5261 29.8578 16.4997 27.9068 16.4997H25.1767L23.2251 11.1327C22.6503 9.55194 21.1479 8.49967 19.4659 8.49967H14.6671V5.83301C14.6671 3.62387 12.8762 1.83301 10.6671 1.83301H9.33372ZM24.2941 26.9077L27.9068 19.1663H4.20444L5.16965 25.923C5.43944 25.8664 5.71791 25.833 6.00039 25.833C6.85513 25.833 7.5165 26.1402 8.01752 26.6212C8.37681 26.9661 8.64851 27.4121 8.81382 27.6835C8.9544 27.9142 9.09367 28.1764 9.31587 28.338C9.40176 28.4005 9.57606 28.4997 10.0004 28.4997C10.8729 28.4997 11.5511 28.0856 12.5941 27.3903C13.8342 26.5626 15.1294 25.833 16.6671 25.833C17.573 25.833 18.3226 26.0674 18.9098 26.5707C19.4108 27.0001 19.683 27.548 19.8354 27.8546C19.9244 28.0335 20.0042 28.2706 20.1598 28.404C20.1853 28.4259 20.2436 28.4997 20.6671 28.4997C21.5766 28.4997 22.444 28.0457 23.5516 27.3641C23.623 27.3202 23.6961 27.2749 23.7707 27.2287C23.9386 27.1247 24.1145 27.0157 24.2941 26.9077ZM9.33372 11.1663C8.59734 11.1663 8.00039 11.7633 8.00039 12.4997V16.4997H22.3392L20.719 12.044C20.5274 11.5171 20.0266 11.1663 19.4659 11.1663H9.33372Z" fill="#D20001"/>
</svg>
