<svg width="20" height="20" viewBox="0 0 20 20" xmlns="http://www.w3.org/2000/svg">
<path d="M9.89092 5.47091C9.89092 5.34602 9.84399 5.22624 9.76045 5.13793C9.67691 5.04961 9.5636 5 9.44546 5C9.32732 5 9.21401 5.04961 9.13047 5.13793C9.04693 5.22624 9 5.34602 9 5.47091V10.651C9.00003 10.734 9.0208 10.8155 9.06023 10.8873C9.09966 10.9591 9.15633 11.0185 9.22451 11.0597L12.3427 12.9434C12.4451 13.0018 12.565 13.0157 12.6768 12.9819C12.7887 12.9482 12.8836 12.8695 12.9413 12.7627C12.999 12.656 13.0149 12.5296 12.9857 12.4106C12.9564 12.2916 12.8842 12.1894 12.7846 12.1259L9.89092 10.3778V5.47091Z"/>
<path d="M10 18C12.1217 18 14.1566 17.1571 15.6569 15.6569C17.1571 14.1566 18 12.1217 18 10C18 7.87827 17.1571 5.84344 15.6569 4.34315C14.1566 2.84285 12.1217 2 10 2C7.87827 2 5.84344 2.84285 4.34315 4.34315C2.84285 5.84344 2 7.87827 2 10C2 12.1217 2.84285 14.1566 4.34315 15.6569C5.84344 17.1571 7.87827 18 10 18ZM17 10C17 11.8565 16.2625 13.637 14.9497 14.9497C13.637 16.2625 11.8565 17 10 17C8.14348 17 6.36301 16.2625 5.05025 14.9497C3.7375 13.637 3 11.8565 3 10C3 8.14348 3.7375 6.36301 5.05025 5.05025C6.36301 3.7375 8.14348 3 10 3C11.8565 3 13.637 3.7375 14.9497 5.05025C16.2625 6.36301 17 8.14348 17 10Z"/>
</svg>
