<svg width="20" height="20" viewBox="0 0 20 20" xmlns="http://www.w3.org/2000/svg">
<path d="M2.9165 6.72147C2.9165 6.1544 3.14975 5.61055 3.56494 5.20956C3.98013 4.80858 4.54325 4.58331 5.13041 4.58331H14.8693C15.4564 4.58331 16.0195 4.80858 16.4347 5.20956C16.8499 5.61055 17.0832 6.1544 17.0832 6.72147V6.72717L9.99866 10.232L2.9165 6.72945V6.72147ZM2.9165 7.6902V13.2785C2.9165 13.8456 3.14975 14.3894 3.56494 14.7904C3.98013 15.1914 4.54325 15.4166 5.13041 15.4166H14.8693C15.4564 15.4166 16.0195 15.1914 16.4347 14.7904C16.8499 14.3894 17.0832 13.8456 17.0832 13.2785V7.68849L10.2006 11.0936C10.1381 11.1245 10.0689 11.1406 9.99866 11.1406C9.92844 11.1406 9.85924 11.1245 9.79675 11.0936L2.9165 7.6902Z"/>
</svg>
