<svg width="26" height="26" viewBox="0 0 26 26" xmlns="http://www.w3.org/2000/svg">
<path fill-rule="evenodd" clip-rule="evenodd" d="M13.3846 24.8787L13.3873 24.8774L13.3939 24.8727L13.4139 24.8574L13.4926 24.8007L13.494 24.7997L13.4942 24.7995C13.5608 24.7502 13.6576 24.6786 13.7793 24.5847C14.0246 24.3967 14.3726 24.12 14.788 23.7647C15.8783 22.8327 16.8978 21.821 17.8381 20.7379C20.0435 18.1872 22.3342 14.5471 22.3342 10.3843C22.3342 7.89754 21.3515 5.5108 19.6021 3.75075C18.7375 2.87965 17.709 2.18816 16.5761 1.71607C15.4431 1.24398 14.228 1.00063 13.0006 1C11.7733 1.00054 10.5582 1.24379 9.4252 1.71576C8.29224 2.18773 7.2638 2.8791 6.39908 3.75008C4.64797 5.51416 3.66582 7.89932 3.66699 10.3849C3.66699 14.5471 5.95773 18.1872 8.16313 20.7379C9.1034 21.821 10.1229 22.8327 11.2132 23.7647C11.6292 24.12 11.9766 24.3967 12.2219 24.5847C12.3422 24.6774 12.4638 24.7686 12.5866 24.858L12.6079 24.8727L12.6139 24.8774L12.6166 24.8787C12.8466 25.0407 13.1546 25.0407 13.3846 24.8787ZM13.4058 13.6667C14.2899 13.6667 15.1378 13.3155 15.7629 12.6904C16.3881 12.0653 16.7393 11.2174 16.7393 10.3333C16.7393 9.44923 16.3881 8.60136 15.7629 7.97622C15.1378 7.35108 14.2899 6.99988 13.4058 6.99988C12.5217 6.99988 11.6739 7.35108 11.0487 7.97622C10.4236 8.60136 10.0724 9.44923 10.0724 10.3333C10.0724 11.2174 10.4236 12.0653 11.0487 12.6904C11.6739 13.3155 12.5217 13.6667 13.4058 13.6667Z"/>
</svg>
