<svg width="16" height="16" viewBox="0 0 16 16" xmlns="http://www.w3.org/2000/svg">
<path fill-rule="evenodd" clip-rule="evenodd" d="M5.9382 3.03554C5.57299 2.67034 5.02179 2.56522 4.54781 2.77037C2.86747 3.49769 2.18795 5.21996 3.03999 6.57621C3.69339 7.61625 4.61196 8.83746 5.88725 10.1128C7.16253 11.388 8.38374 12.3066 9.42379 12.96C10.78 13.812 12.5023 13.1325 13.2296 11.4522C13.4348 10.9782 13.3297 10.427 12.9644 10.0618L12.7347 9.83206C12.2026 9.29997 11.3884 9.17098 10.7179 9.51256L9.8646 9.94728C9.10166 10.3359 8.17522 10.1892 7.56977 9.58372L6.41627 8.43022C5.81082 7.82477 5.66405 6.89834 6.05272 6.1354L6.48744 5.28207C6.82901 4.61157 6.70003 3.79738 6.16793 3.26528L6.63934 2.79388L6.16793 3.26528L5.9382 3.03554ZM6.881 2.09273L6.42169 2.55205L6.881 2.09273L7.11074 2.32247C8.05126 3.26299 8.27925 4.70214 7.67549 5.8873L7.24077 6.74063C7.11429 6.98891 7.16206 7.29039 7.35908 7.48742L8.51258 8.64091C8.70961 8.83794 9.01109 8.8857 9.25936 8.75922L10.1127 8.32451C11.2979 7.72074 12.737 7.94873 13.6775 8.88925L13.9073 9.11899C14.6592 9.87095 14.8757 11.0059 14.4533 11.9818C13.4958 14.194 10.9498 15.4933 8.7145 14.089C7.59545 13.386 6.29484 12.406 4.94444 11.0556C3.59403 9.70515 2.614 8.40454 1.91097 7.2855C0.506689 5.05023 1.80604 2.50424 4.01818 1.54674C4.99412 1.12432 6.12905 1.34078 6.881 2.09273Z"/>
</svg>
