<svg width="20" height="20" viewBox="0 0 20 20" xmlns="http://www.w3.org/2000/svg">
<path d="M14.8026 5.19044C13.5251 3.91731 11.8217 3.21002 10.0236 3.21002C6.28557 3.21002 3.25728 6.2278 3.25728 9.95287C3.25728 11.1317 3.5885 12.3105 4.1563 13.3007L3.20996 16.79L6.80606 15.847C7.79972 16.3656 8.88801 16.6486 10.0236 16.6486C13.7617 16.6486 16.79 13.6308 16.79 9.90572C16.7426 8.16106 16.0802 6.46356 14.8026 5.19044ZM13.2885 12.3577C13.1465 12.7349 12.4841 13.1121 12.1529 13.1593C11.869 13.2064 11.4904 13.2064 11.1119 13.1121C10.8753 13.0178 10.5441 12.9235 10.1656 12.7349C8.46216 12.0276 7.37386 10.3301 7.27923 10.1886C7.1846 10.0943 6.56947 9.29273 6.56947 8.44398C6.56947 7.59523 6.99533 7.21801 7.13728 7.0294C7.27923 6.84079 7.4685 6.84079 7.61045 6.84079C7.70508 6.84079 7.84703 6.84079 7.94167 6.84079C8.0363 6.84079 8.17825 6.79363 8.3202 7.1237C8.46215 7.45377 8.79337 8.30252 8.84069 8.34967C8.88801 8.44398 8.88801 8.53829 8.84069 8.63259C8.79337 8.7269 8.74605 8.8212 8.65142 8.91551C8.55679 9.00981 8.46215 9.15127 8.41484 9.19842C8.3202 9.29273 8.22557 9.38703 8.3202 9.52849C8.41484 9.7171 8.74606 10.2358 9.26654 10.7073C9.92898 11.2731 10.4495 11.4618 10.6387 11.5561C10.828 11.6504 10.9226 11.6032 11.0173 11.5089C11.1119 11.4146 11.4431 11.0374 11.5378 10.8488C11.6324 10.6602 11.7743 10.7073 11.9163 10.7545C12.0583 10.8016 12.91 11.226 13.0519 11.3203C13.2412 11.4146 13.3358 11.4618 13.3831 11.5089C13.4304 11.6504 13.4304 11.9804 13.2885 12.3577Z"/>
</svg>
