<svg width="332" height="317" viewBox="0 0 332 317" fill="none" xmlns="http://www.w3.org/2000/svg">
<path d="M42.662 128.693C34.1773 130.012 27.6451 131.783 22.9235 134.874C18.6279 137.652 15.6103 141.819 13.6933 148.069C11.5632 154.945 12.5928 162.029 15.9653 167.967C19.3734 173.94 25.1956 178.732 32.5798 180.92C57.9629 188.42 78.3759 178.767 98.1499 169.426C115.119 161.404 131.663 153.591 151.259 155.188L154.348 155.431C134.609 145.604 124.385 129.179 114.09 112.649C102.871 94.6616 91.5822 76.5002 67.0156 69.2426C59.6314 67.0549 52.0697 67.8883 45.8216 71.0483C39.6444 74.1389 34.7808 79.5213 32.6508 86.3622C30.7337 92.6128 30.8757 97.6827 32.8638 102.336C35.0648 107.441 39.4669 112.441 45.8216 118.171L55.3358 126.748L42.5555 128.727L42.662 128.693ZM16.0009 124.664C19.7995 122.199 24.166 120.393 29.2427 118.969C25.8346 115.08 23.2075 111.191 21.4325 107.059C18.2374 99.6621 17.8824 91.953 20.7225 82.7855C23.8465 72.611 31.0532 64.6936 40.1414 60.1445C49.1587 55.5955 60.0574 54.3454 70.6722 57.5054C84.9436 61.7072 95.2033 68.687 103.44 77.0558C97.5109 66.9854 93.4993 55.3871 93.2863 40.8372L93.2508 40.7677H93.2863C93.1443 29.9334 97.3689 20.0713 104.327 12.8831C111.321 5.62553 121.083 1.04176 131.982 0.902862L132.053 0.868137V0.902862C141.816 0.798686 149.271 3.22947 155.626 8.22994C159.176 11.0427 162.3 14.5847 165.176 18.8907C167.945 14.5152 170.962 10.8691 174.441 7.98686C180.654 2.81276 188.074 0.173627 197.872 0.0347255L197.943 0V0.0347255C208.771 -0.0694509 218.64 4.23651 225.811 11.2858C232.947 18.335 237.455 28.1276 237.597 38.962L237.633 39.0314H237.597C237.668 45.7682 237.029 51.4979 235.822 56.4983C240.437 53.13 245.585 50.1783 251.407 47.7822C261.632 43.6152 272.601 43.7541 282.045 47.3655C291.559 51.0117 299.546 58.1652 303.736 67.9925C307.499 76.8127 307.96 84.5218 305.546 92.1961C304.197 96.4673 301.996 100.6 298.978 104.836C304.162 105.739 308.741 107.093 312.753 109.177C319.995 112.893 325.285 118.657 329.048 127.512C333.237 137.305 332.811 147.896 328.764 157.063C324.752 166.161 317.119 173.905 306.895 178.072C293.227 183.663 280.802 184.67 269.051 183.35C280.056 187.448 290.565 193.872 300.079 204.88C307.25 213.18 310.41 223.458 309.735 233.355C309.061 243.321 304.481 252.94 296.174 259.781C288.683 265.962 281.299 268.706 273.098 268.775C268.519 268.81 263.833 268.011 258.827 266.483C259.537 271.588 259.572 276.241 258.756 280.651C257.3 288.534 253.324 295.201 245.834 301.382C237.526 308.223 227.089 311.036 216.936 310.029C206.818 309.022 196.984 304.265 189.849 296C180.654 285.374 175.861 274.505 173.447 263.566C172.382 274.366 169.152 285.513 161.98 297.215C156.158 306.695 147.07 313.05 137.13 315.655C127.083 318.294 116.149 317.113 106.67 311.557C98.1144 306.522 92.9668 300.479 90.1977 292.805C88.6357 288.464 87.8902 283.707 87.7481 278.394C82.8845 280.79 78.2339 282.388 73.5833 283.082C65.3826 284.297 57.5369 282.7 48.9457 277.7C39.4669 272.143 33.2543 263.219 30.9112 253.288C28.5682 243.46 30.0592 232.661 35.8458 223.181C45.4666 207.485 58.2114 198.769 72.0567 192.969C59.1344 196.442 45.1116 197.345 28.9232 192.553C18.3084 189.427 9.96568 182.482 4.99556 173.801C0.0254329 165.05 -1.50109 154.563 1.62298 144.423C4.46305 135.256 9.11367 129.005 15.9298 124.595L16.0009 124.664ZM103.582 180.399C98.3274 182.899 93.0023 185.399 87.5706 187.656C92.5408 186.198 97.5819 184.913 102.552 183.663C117.746 179.808 132.621 176.023 143.698 167.273C129.923 167.967 116.894 174.114 103.582 180.399ZM161.519 167.168L157.578 171.301C143.769 185.816 124.989 190.573 105.712 195.47C83.4525 201.13 60.4124 206.964 46.6026 229.501C42.52 236.133 41.4905 243.738 43.1235 250.614C44.7211 257.385 48.9457 263.462 55.3713 267.247C61.229 270.685 66.4476 271.796 71.7372 271.032C77.4529 270.199 83.6655 267.143 91.0142 262.42L101.842 255.475L100.67 268.081C99.8895 276.623 100.067 283.429 101.984 288.777C103.759 293.708 107.203 297.667 113.06 301.105C119.486 304.89 126.977 305.654 133.864 303.848C140.822 302.007 147.177 297.563 151.224 290.965C164.856 268.74 161.626 247.836 158.43 227.035C155.448 207.624 152.502 188.351 161.483 167.168H161.519ZM170.856 225.229L171.459 229.223L171.672 224.188C172.24 210.749 172.808 197.588 169.045 185.677C166.809 198.942 168.832 212.068 170.856 225.264V225.229ZM174.938 168.592L176.429 171.301C185.731 188.281 184.95 206.235 184.169 224.639C183.246 246.099 182.287 268.289 199.398 288.082C204.369 293.847 211.185 297.181 218.143 297.875C225.066 298.57 232.13 296.66 237.739 292.041C242.852 287.839 245.55 283.499 246.437 278.498C247.431 273.046 246.544 266.449 244.378 258.323L241.183 246.099L252.969 251.239C260.815 254.677 267.312 256.656 272.956 256.586C278.104 256.552 282.932 254.677 288.044 250.44C293.653 245.822 296.742 239.293 297.203 232.522C297.665 225.681 295.464 218.562 290.494 212.798C273.915 193.629 252.437 190.678 231.101 187.761C211.469 185.087 191.979 182.413 174.938 168.592ZM232.84 175.641C235.964 176.058 239.053 176.475 242.142 176.961C239.23 176.023 236.319 175.016 233.408 174.044C219.811 169.391 206.286 164.772 192.014 165.154C204.475 171.787 218.604 173.697 232.805 175.641H232.84ZM178.701 154.424C200.286 149.771 218.888 156.091 237.562 162.48C257.904 169.426 278.388 176.405 302.103 166.752C309.203 163.835 314.492 158.487 317.261 152.202C320.03 145.951 320.314 138.798 317.474 132.165C314.918 126.158 311.51 122.338 306.931 119.976C301.925 117.407 295.251 116.261 286.66 115.809L273.737 115.115L282.328 105.67C288.044 99.3843 291.914 93.9324 293.582 88.6541C295.109 83.8273 294.718 78.7574 292.162 72.7151C289.358 66.1173 283.926 61.2557 277.5 58.7902C270.968 56.29 263.336 56.1858 256.235 59.1028C231.527 69.1731 219.918 93.5504 209.942 114.49C201.599 131.992 194.286 147.375 180.725 153.139L178.772 154.459L178.701 154.424ZM198.546 109.281C200.357 105.496 202.203 101.641 204.156 97.7522C195.245 106.746 186.476 118.344 181.115 138.242C187.577 132.269 192.795 121.366 198.546 109.281ZM166.383 146.541L166.986 143.555C174.193 108.17 190.026 93.6546 203.801 81.0145C215.445 70.3191 225.421 61.1863 225.137 39.1009L225.101 39.0314H225.137C225.03 31.5307 221.906 24.7593 216.971 19.8977C212.072 15.0709 205.398 12.1192 198.049 12.2234L197.978 12.2581V12.2234C191.375 12.3275 186.476 13.9944 182.536 17.2933C178.204 20.87 174.654 26.5303 171.033 34.1351L165.566 45.5945L159.779 34.274C155.945 26.7386 152.218 21.1825 147.851 17.7447C143.804 14.55 138.869 12.9873 132.195 13.0915L132.124 13.1262V13.0915C124.847 13.1957 118.279 16.321 113.522 21.252C108.694 26.2525 105.783 33.1281 105.889 40.6635L105.925 40.733H105.889C106.244 65.77 120.941 81.3965 135.532 96.8841C148.916 111.121 162.229 125.289 166.454 146.541H166.383ZM126.267 105.183C124.101 102.857 121.9 100.53 119.77 98.2036C121.474 100.877 123.178 103.551 124.847 106.26C132.337 118.31 139.828 130.325 151.082 138.902C145.757 125.949 136.065 115.601 126.302 105.218L126.267 105.183Z" fill="#C8AC71" fill-opacity="0.1"/>
</svg>
