<svg width="24" height="24" viewBox="0 0 24 24" fill="none" xmlns="http://www.w3.org/2000/svg">
<g filter="url(#filter0_d_132_99848)">
<path d="M6 6H7V7H6V6Z" fill="white"/>
<path d="M6 18L6 17H7V18H6Z" fill="white"/>
<path d="M17 6H18V7H17V6Z" fill="white"/>
<path d="M14 14H13V13H14V14Z" fill="white"/>
<path d="M10 13H11V14H10V13Z" fill="white"/>
<path d="M14 11H13V10L14 10V11Z" fill="white"/>
<path d="M16 9H15V8L16 8V9Z" fill="white"/>
<path d="M11 11H10V10L11 10V11Z" fill="white"/>
<path d="M17 17H18V18H17V17Z" fill="white"/>
<path d="M7 18V19H17V18H7Z" fill="white"/>
<path d="M11 14V15H13V14H11Z" fill="white"/>
<path d="M13 10V9L11 9V10L13 10Z" fill="white"/>
<path d="M10 11H9V13H10V11Z" fill="white"/>
<path d="M14 13H15V11H14V13Z" fill="white"/>
<path d="M18 17H19V7H18V17Z" fill="white"/>
<path d="M7 5V6H17V5H7Z" fill="white"/>
<path d="M5 17H6L6 7H5L5 17Z" fill="white"/>
<path fill-rule="evenodd" clip-rule="evenodd" d="M6.75 4.75H17.25V5.75H18.25V6.75H19.25V17.25H18.25V18.25H17.25V19.25H6.75V18.25H5.75L5.75 17.25H4.75L4.75 6.75H5.75V5.75H6.75V4.75ZM6.75 6.25H6.25V6.75H6.75V6.25ZM6.25 7.25H7.25V6.25H16.75V7.25H17.75V16.75H16.75V17.75H7.25V16.75H6.25L6.25 7.25ZM5.75 7.25H5.25V16.75H5.75L5.75 7.25ZM6.25 17.25L6.25 17.75H6.75V17.25H6.25ZM7.25 18.25V18.75H16.75V18.25H7.25ZM17.25 17.75H17.75V17.25H17.25V17.75ZM18.25 16.75H18.75V7.25H18.25V16.75ZM17.75 6.75V6.25H17.25V6.75H17.75ZM16.75 5.75H7.25V5.25H16.75V5.75ZM15.25 8.25V8.75H15.75V8.25L15.25 8.25ZM16.25 7.75V9.25H14.75V7.75L16.25 7.75ZM13.25 8.75V9.75L14.25 9.75V10.75H15.25V13.25H14.25V14.25H13.25V15.25H10.75V14.25H9.75V13.25H8.75V10.75H9.75V9.75L10.75 9.75V8.75L13.25 8.75ZM10.75 10.25L10.25 10.25V10.75H10.75V10.25ZM10.25 11.25H11.25V10.25L12.75 10.25V11.25H13.75V12.75H12.75V13.75H11.25V12.75H10.25V11.25ZM9.75 11.25H9.25V12.75H9.75V11.25ZM10.25 13.25V13.75H10.75V13.25H10.25ZM11.25 14.25V14.75H12.75V14.25H11.25ZM13.25 13.75H13.75V13.25H13.25V13.75ZM14.25 12.75H14.75V11.25H14.25V12.75ZM13.75 10.75V10.25L13.25 10.25V10.75H13.75ZM12.75 9.75L11.25 9.75V9.25L12.75 9.25V9.75Z" fill="white"/>
</g>
<defs>
<filter id="filter0_d_132_99848" x="-1" y="0" width="25" height="25" filterUnits="userSpaceOnUse" color-interpolation-filters="sRGB">
<feFlood flood-opacity="0" result="BackgroundImageFix"/>
<feColorMatrix in="SourceAlpha" type="matrix" values="0 0 0 0 0 0 0 0 0 0 0 0 0 0 0 0 0 0 127 0" result="hardAlpha"/>
<feOffset dx="-1" dy="1"/>
<feComposite in2="hardAlpha" operator="out"/>
<feColorMatrix type="matrix" values="0 0 0 0 0.329412 0 0 0 0 0.45098 0 0 0 0 0.054902 0 0 0 1 0"/>
<feBlend mode="normal" in2="BackgroundImageFix" result="effect1_dropShadow_132_99848"/>
<feBlend mode="normal" in="SourceGraphic" in2="effect1_dropShadow_132_99848" result="shape"/>
</filter>
</defs>
</svg>
