<svg width="120" height="120" viewBox="0 0 120 120" fill="none" xmlns="http://www.w3.org/2000/svg">
<g clip-path="url(#clip0_1459_5)">
<path d="M120 0H0V120H120V0Z" fill="#193C63"/>
<path d="M60.956 60.356C64.7053 60.356 67.9733 59.9 70.76 58.988C73.5467 58.0253 75.852 56.6827 77.676 54.96C79.5507 53.1867 80.944 51.0587 81.856 48.576C82.768 46.0427 83.224 43.2307 83.224 40.14C83.224 37.2013 82.768 34.5413 81.856 32.16C80.944 29.7787 79.576 27.752 77.752 26.08C75.928 24.408 73.6227 23.1413 70.836 22.28C68.0493 21.368 64.756 20.912 60.956 20.912H45.68V60.356H60.956ZM60.956 5.10399C68.3027 5.10399 74.6613 5.96533 80.032 7.688C85.4027 9.41066 89.836 11.8173 93.332 14.908C96.828 17.9987 99.412 21.6973 101.084 26.004C102.807 30.3107 103.668 35.0227 103.668 40.14C103.668 45.46 102.781 50.3493 101.008 54.808C99.2347 59.216 96.5747 63.016 93.028 66.208C89.4813 69.4 85.0227 71.8827 79.652 73.656C74.332 75.4293 68.1 76.316 60.956 76.316H45.68V115H25.236V5.10399H60.956Z" fill="white"/>
</g>
<defs>
<clipPath id="clip0_1459_5">
<rect width="120" height="120" fill="white"/>
</clipPath>
</defs>
</svg>
