<svg xmlns="http://www.w3.org/2000/svg" xmlns:xlink="http://www.w3.org/1999/xlink" version="1.0" x="0" y="0" width="2400" height="1503.9182140856458" viewBox="105.05827499389649 84.30539871215821 129.88345001220702 81.3892025756836" preserveAspectRatio="xMidYMid meet" color-interpolation-filters="sRGB"><g><defs><linearGradient id="92" x1="0%" y1="0%" x2="100%" y2="0%"><stop offset="0%" stop-color="#fa71cd"></stop> <stop offset="100%" stop-color="#9b59b6"></stop></linearGradient><linearGradient id="93" x1="0%" y1="0%" x2="100%" y2="0%"><stop offset="0%" stop-color="#f9d423"></stop> <stop offset="100%" stop-color="#f83600"></stop></linearGradient><linearGradient id="94" x1="0%" y1="0%" x2="100%" y2="0%"><stop offset="0%" stop-color="#0064d2"></stop> <stop offset="100%" stop-color="#1cb0f6"></stop></linearGradient><linearGradient id="95" x1="0%" y1="0%" x2="100%" y2="0%"><stop offset="0%" stop-color="#f00978"></stop> <stop offset="100%" stop-color="#3f51b1"></stop></linearGradient><linearGradient id="96" x1="0%" y1="0%" x2="100%" y2="0%"><stop offset="0%" stop-color="#7873f5"></stop> <stop offset="100%" stop-color="#ec77ab"></stop></linearGradient><linearGradient id="97" x1="0%" y1="0%" x2="100%" y2="0%"><stop offset="0%" stop-color="#f9d423"></stop> <stop offset="100%" stop-color="#e14fad"></stop></linearGradient><linearGradient id="98" x1="0%" y1="0%" x2="100%" y2="0%"><stop offset="0%" stop-color="#009efd"></stop> <stop offset="100%" stop-color="#2af598"></stop></linearGradient><linearGradient id="99" x1="0%" y1="0%" x2="100%" y2="0%"><stop offset="0%" stop-color="#ffcc00"></stop> <stop offset="100%" stop-color="#00b140"></stop></linearGradient><linearGradient id="100" x1="0%" y1="0%" x2="100%" y2="0%"><stop offset="0%" stop-color="#d51007"></stop> <stop offset="100%" stop-color="#ff8177"></stop></linearGradient><linearGradient id="102" x1="0%" y1="0%" x2="100%" y2="0%"><stop offset="0%" stop-color="#a2b6df"></stop> <stop offset="100%" stop-color="#0c3483"></stop></linearGradient><linearGradient id="103" x1="0%" y1="0%" x2="100%" y2="0%"><stop offset="0%" stop-color="#7ac5d8"></stop> <stop offset="100%" stop-color="#eea2a2"></stop></linearGradient><linearGradient id="104" x1="0%" y1="0%" x2="100%" y2="0%"><stop offset="0%" stop-color="#00ecbc"></stop> <stop offset="100%" stop-color="#007adf"></stop></linearGradient><linearGradient id="105" x1="0%" y1="0%" x2="100%" y2="0%"><stop offset="0%" stop-color="#b88746"></stop> <stop offset="100%" stop-color="#fdf5a6"></stop></linearGradient></defs><g fill="#1d0a5b" class="endsvg" transform="translate(106.33500294038095,85.57876586914062)"> <g class="tp-name"><g><rect stroke-width="2" class="i-icon-bg" x="0" y="0" width="127.33335876464844" height="78.84246826171875" fill-opacity="0"></rect> </g> <g transform="translate(0,0)"><g mask="url(#37e1caee-f234-4494-8a00-755d8ebec67a)"><g><rect stroke-width="2" class="i-icon-bg" x="0" y="0" width="127.33000183105469" height="38.59000015258789" fill="#1d0a5b"></rect> </g> <g transform="translate(5,5)"><g fill="#1d0a5b"><g transform="scale(1)"><path d="M12.94-11.34L5.87-11.34L5.87 0L3.52 0L3.52-27.83L13.00-27.83Q17.34-27.83 19.85-25.62Q22.37-23.40 22.37-19.52L22.37-19.52Q22.37-15.60 19.95-13.47Q17.53-11.34 12.94-11.34L12.94-11.34ZM5.87-25.83L5.87-13.32L13.00-13.32Q16.42-13.32 18.22-14.95Q20.01-16.57 20.01-19.48L20.01-19.48Q20.01-22.37 18.23-24.08Q16.44-25.79 13.15-25.83L13.15-25.83L5.87-25.83ZM48.19-15.73L48.19-12.41Q48.19-8.56 46.86-5.66Q45.53-2.75 43.07-1.19Q40.60 0.38 37.37 0.38L37.37 0.38Q32.50 0.38 29.50-3.11Q26.49-6.59 26.49-12.52L26.49-12.52L26.49-15.39Q26.49-19.19 27.84-22.13Q29.19-25.06 31.66-26.64Q34.12-28.21 37.33-28.21Q40.54-28.21 43.00-26.67Q45.46-25.12 46.80-22.29Q48.13-19.46 48.19-15.73L48.19-15.73ZM45.84-12.48L45.84-15.43Q45.84-20.45 43.56-23.30Q41.29-26.15 37.33-26.15L37.33-26.15Q33.45-26.15 31.15-23.29Q28.85-20.43 28.85-15.31L28.85-15.31L28.85-12.41Q28.85-7.46 31.14-4.56Q33.43-1.66 37.37-1.66L37.37-1.66Q41.37-1.66 43.60-4.52Q45.84-7.38 45.84-12.48L45.84-12.48ZM71.24 0L64.52-11.58L56.43-11.58L56.43 0L54.06 0L54.06-27.83L63.10-27.83Q67.55-27.83 70.06-25.67Q72.56-23.51 72.56-19.63L72.56-19.63Q72.56-16.96 71.00-14.91Q69.43-12.86 66.79-12.08L66.79-12.08L73.75-0.25L73.75 0L71.24 0ZM56.43-25.83L56.43-13.59L63.64-13.59Q66.60-13.59 68.40-15.27Q70.19-16.96 70.19-19.63L70.19-19.63Q70.19-22.58 68.32-24.20Q66.45-25.83 63.06-25.83L63.06-25.83L56.43-25.83ZM96.32-27.83L96.32-25.83L86.79-25.83L86.79 0L84.43 0L84.43-25.83L74.91-25.83L74.91-27.83L96.32-27.83ZM120.85-15.73L120.85-12.41Q120.85-8.56 119.52-5.66Q118.19-2.75 115.73-1.19Q113.26 0.38 110.03 0.38L110.03 0.38Q105.16 0.38 102.15-3.11Q99.15-6.59 99.15-12.52L99.15-12.52L99.15-15.39Q99.15-19.19 100.50-22.13Q101.85-25.06 104.31-26.64Q106.78-28.21 109.99-28.21Q113.20-28.21 115.66-26.67Q118.12-25.12 119.45-22.29Q120.79-19.46 120.85-15.73L120.85-15.73ZM118.50-12.48L118.50-15.43Q118.50-20.45 116.22-23.30Q113.95-26.15 109.99-26.15L109.99-26.15Q106.11-26.15 103.81-23.29Q101.50-20.43 101.50-15.31L101.50-15.31L101.50-12.41Q101.50-7.46 103.80-4.56Q106.09-1.66 110.03-1.66L110.03-1.66Q114.03-1.66 116.26-4.52Q118.50-7.38 118.50-12.48L118.50-12.48Z" transform="translate(-3.517287234042554, 28.214760638297875)"></path></g></g></g></g> <g transform="translate(0, 43.59000015258789) scale(1.2328295687090198)"><g><rect stroke-width="2" class="i-icon-bg" x="0" y="0" width="103.27999877929688" height="28.594758987426758" fill-opacity="0"></rect> </g> <g transform="translate(0,0)"><g fill="#1d0a5b"><g transform="scale(1)"><path d="M25.35-27.83L25.35 0L18.68 0L8.81-17.32L8.81 0L2.10 0L2.10-27.83L8.81-27.83L18.66-10.51L18.66-27.83L25.35-27.83ZM53.16-14.62L53.16-13.34Q53.16-9.27 51.65-6.14Q50.14-3.00 47.36-1.31Q44.58 0.38 41.02 0.38Q37.47 0.38 34.71-1.25Q31.96-2.89 30.42-5.93Q28.88-8.97 28.81-12.90L28.81-12.90L28.81-14.47Q28.81-18.56 30.31-21.69Q31.81-24.81 34.61-26.51Q37.41-28.21 40.98-28.21L40.98-28.21Q44.52-28.21 47.29-26.53Q50.06-24.85 51.60-21.74Q53.14-18.64 53.16-14.62L53.16-14.62ZM46.34-13.23L46.34-14.51Q46.34-18.66 44.95-20.81Q43.56-22.96 40.98-22.96L40.98-22.96Q35.94-22.96 35.65-15.39L35.65-15.39L35.63-13.34Q35.63-9.25 36.99-7.05Q38.35-4.86 41.02-4.86L41.02-4.86Q43.56-4.86 44.94-7.02Q46.32-9.18 46.34-13.23L46.34-13.23ZM61.48-27.83L67.00-7.57L72.54-27.83L80.04-27.83L70.67 0L63.33 0L54.04-27.83L61.48-27.83ZM105.38-14.62L105.38-13.34Q105.38-9.27 103.87-6.14Q102.36-3.00 99.58-1.31Q96.80 0.38 93.25 0.38Q89.69 0.38 86.94-1.25Q84.19-2.89 82.65-5.93Q81.11-8.97 81.03-12.90L81.03-12.90L81.03-14.47Q81.03-18.56 82.53-21.69Q84.03-24.81 86.83-26.51Q89.63-28.21 93.21-28.21L93.21-28.21Q96.74-28.21 99.52-26.53Q102.29-24.85 103.83-21.74Q105.37-18.64 105.38-14.62L105.38-14.62ZM98.56-13.23L98.56-14.51Q98.56-18.66 97.17-20.81Q95.79-22.96 93.21-22.96L93.21-22.96Q88.16-22.96 87.87-15.39L87.87-15.39L87.86-13.34Q87.86-9.25 89.21-7.05Q90.57-4.86 93.25-4.86L93.25-4.86Q95.79-4.86 97.17-7.02Q98.54-9.18 98.56-13.23L98.56-13.23Z" transform="translate(-2.1027260638297873, 28.214760638297875)"></path></g></g></g></g></g></g> </g><mask id="37e1caee-f234-4494-8a00-755d8ebec67a"><g fill="white"><rect stroke-width="2" class="i-icon-bg" x="0" y="0" width="127.33000183105469" height="38.59000015258789"></rect> </g> <g transform="translate(5,5)" fill="black"><g><g transform="scale(1)"><path d="M12.94-11.34L5.87-11.34L5.87 0L3.52 0L3.52-27.83L13.00-27.83Q17.34-27.83 19.85-25.62Q22.37-23.40 22.37-19.52L22.37-19.52Q22.37-15.60 19.95-13.47Q17.53-11.34 12.94-11.34L12.94-11.34ZM5.87-25.83L5.87-13.32L13.00-13.32Q16.42-13.32 18.22-14.95Q20.01-16.57 20.01-19.48L20.01-19.48Q20.01-22.37 18.23-24.08Q16.44-25.79 13.15-25.83L13.15-25.83L5.87-25.83ZM48.19-15.73L48.19-12.41Q48.19-8.56 46.86-5.66Q45.53-2.75 43.07-1.19Q40.60 0.38 37.37 0.38L37.37 0.38Q32.50 0.38 29.50-3.11Q26.49-6.59 26.49-12.52L26.49-12.52L26.49-15.39Q26.49-19.19 27.84-22.13Q29.19-25.06 31.66-26.64Q34.12-28.21 37.33-28.21Q40.54-28.21 43.00-26.67Q45.46-25.12 46.80-22.29Q48.13-19.46 48.19-15.73L48.19-15.73ZM45.84-12.48L45.84-15.43Q45.84-20.45 43.56-23.30Q41.29-26.15 37.33-26.15L37.33-26.15Q33.45-26.15 31.15-23.29Q28.85-20.43 28.85-15.31L28.85-15.31L28.85-12.41Q28.85-7.46 31.14-4.56Q33.43-1.66 37.37-1.66L37.37-1.66Q41.37-1.66 43.60-4.52Q45.84-7.38 45.84-12.48L45.84-12.48ZM71.24 0L64.52-11.58L56.43-11.58L56.43 0L54.06 0L54.06-27.83L63.10-27.83Q67.55-27.83 70.06-25.67Q72.56-23.51 72.56-19.63L72.56-19.63Q72.56-16.96 71.00-14.91Q69.43-12.86 66.79-12.08L66.79-12.08L73.75-0.25L73.75 0L71.24 0ZM56.43-25.83L56.43-13.59L63.64-13.59Q66.60-13.59 68.40-15.27Q70.19-16.96 70.19-19.63L70.19-19.63Q70.19-22.58 68.32-24.20Q66.45-25.83 63.06-25.83L63.06-25.83L56.43-25.83ZM96.32-27.83L96.32-25.83L86.79-25.83L86.79 0L84.43 0L84.43-25.83L74.91-25.83L74.91-27.83L96.32-27.83ZM120.85-15.73L120.85-12.41Q120.85-8.56 119.52-5.66Q118.19-2.75 115.73-1.19Q113.26 0.38 110.03 0.38L110.03 0.38Q105.16 0.38 102.15-3.11Q99.15-6.59 99.15-12.52L99.15-12.52L99.15-15.39Q99.15-19.19 100.50-22.13Q101.85-25.06 104.31-26.64Q106.78-28.21 109.99-28.21Q113.20-28.21 115.66-26.67Q118.12-25.12 119.45-22.29Q120.79-19.46 120.85-15.73L120.85-15.73ZM118.50-12.48L118.50-15.43Q118.50-20.45 116.22-23.30Q113.95-26.15 109.99-26.15L109.99-26.15Q106.11-26.15 103.81-23.29Q101.50-20.43 101.50-15.31L101.50-15.31L101.50-12.41Q101.50-7.46 103.80-4.56Q106.09-1.66 110.03-1.66L110.03-1.66Q114.03-1.66 116.26-4.52Q118.50-7.38 118.50-12.48L118.50-12.48Z" transform="translate(-3.517287234042554, 28.214760638297875)"></path></g></g></g></mask><defs v-gra="od"></defs></g></svg>