<svg width="7" height="4" viewBox="0 0 7 4" fill="none" xmlns="http://www.w3.org/2000/svg">
<path d="M1.38411 0.679908C1.20733 0.467769 0.892046 0.439107 0.679908 0.615889C0.467769 0.792671 0.439107 1.10795 0.615889 1.32009L1.38411 0.679908ZM6.38411 1.32009C6.56089 1.10795 6.53223 0.792671 6.32009 0.615889C6.10795 0.439107 5.79267 0.467769 5.61589 0.679908L6.38411 1.32009ZM2.73178 3.07814L2.34767 3.39823L2.73178 3.07814ZM0.615889 1.32009L2.34767 3.39823L3.11589 2.75804L1.38411 0.679908L0.615889 1.32009ZM4.65233 3.39823L6.38411 1.32009L5.61589 0.679908L3.88411 2.75804L4.65233 3.39823ZM2.34767 3.39823C2.94736 4.11786 4.05264 4.11786 4.65233 3.39823L3.88411 2.75804C3.68421 2.99792 3.31579 2.99792 3.11589 2.75804L2.34767 3.39823Z" fill="white"/>
</svg>
