<svg width="14" height="14" viewBox="0 0 14 14" fill="none" xmlns="http://www.w3.org/2000/svg">
<path d="M11.234 3.36045C10.9936 3.13269 10.6144 3.18164 10.411 3.44299C10.2414 3.66084 10.2826 3.97325 10.4828 4.16337C11.6835 5.30373 12.2599 6.96981 11.9993 8.62431C11.7894 9.9598 11.0718 11.1336 9.9789 11.9296C8.88567 12.7253 7.54838 13.0487 6.21289 12.8376C3.45601 12.4035 1.56571 9.80756 1.99907 7.05047C2.20903 5.71484 2.92684 4.54097 4.01986 3.74513C4.97415 3.05044 6.11449 2.71678 7.27737 2.78296L6.66288 3.42762C6.47729 3.62232 6.48459 3.93058 6.67919 4.11628C6.87399 4.30218 7.18265 4.29482 7.36836 4.09984L8.53236 2.87783L8.53273 2.87841C8.9037 2.48885 8.88952 1.87175 8.50029 1.50044L7.27824 0.336194C7.08334 0.150511 6.77482 0.157958 6.58911 0.35283C6.40333 0.547764 6.4108 0.856403 6.60579 1.04212L7.27867 1.68301C5.884 1.61705 4.51795 2.02274 3.37285 2.85651C2.04249 3.82518 1.16898 5.25387 0.913208 6.87981C0.385631 10.2355 2.68625 13.3957 6.04194 13.9238C6.36628 13.9749 6.69047 14 7.01257 14C8.30514 14 9.56108 13.5937 10.6259 12.8183C11.9564 11.8494 12.8298 10.4208 13.0856 8.79518C13.4032 6.77895 12.6992 4.74822 11.234 3.36045Z"/>
<path d="M5.60768 8.20932C5.28712 8.20932 5.01455 8.09464 4.78998 7.86528C4.56541 7.63796 4.45312 7.33795 4.45312 6.96524C4.45312 6.59457 4.56541 6.29558 4.78998 6.06827C5.01636 5.84095 5.28893 5.72729 5.60768 5.72729C5.81776 5.72729 6.00883 5.77747 6.18088 5.87781C6.35474 5.97611 6.49509 6.11946 6.60195 6.30787C6.7088 6.50242 6.76223 6.72256 6.76223 6.96831C6.76223 7.21405 6.7088 7.43318 6.60195 7.62568C6.49691 7.81613 6.35655 7.96153 6.18088 8.06187C6.00701 8.16017 5.81595 8.20932 5.60768 8.20932ZM6.28637 10.069C6.18538 10.0267 6.13387 9.91385 6.16805 9.80982L7.42956 5.96977C7.46805 5.85258 7.59863 5.7935 7.71207 5.84194C7.81249 5.88482 7.86342 5.9974 7.82932 6.10114L6.56699 9.94092C6.52873 10.0573 6.39936 10.1163 6.28637 10.069ZM5.2192 7.42908C5.32424 7.55195 5.45374 7.61339 5.60768 7.61339C5.76162 7.61339 5.89111 7.55195 5.99615 7.42908C6.103 7.30825 6.15643 7.15466 6.15643 6.96831C6.15643 6.784 6.103 6.62938 5.99615 6.50446C5.8893 6.38364 5.7598 6.32323 5.60768 6.32323C5.45555 6.32323 5.32606 6.38364 5.2192 6.50446C5.11235 6.62938 5.05892 6.784 5.05892 6.96831C5.05892 7.15466 5.11235 7.30825 5.2192 7.42908ZM8.38675 10.1814C8.06619 10.1814 7.79362 10.0678 7.56905 9.84045C7.34448 9.61314 7.2322 9.31312 7.2322 8.94041C7.2322 8.56975 7.34448 8.26973 7.56905 8.04037C7.79362 7.81306 8.06619 7.6994 8.38675 7.6994C8.70911 7.6994 8.98258 7.81306 9.20716 8.04037C9.43173 8.26973 9.54401 8.57077 9.54401 8.94348C9.54582 9.31005 9.43263 9.61007 9.20444 9.84352C8.97625 10.077 8.70368 10.1896 8.38675 10.1814ZM7.99827 9.40426C8.10513 9.52713 8.23462 9.58856 8.38675 9.58856C8.53888 9.58856 8.66927 9.52713 8.77794 9.40426C8.88479 9.28343 8.93821 9.12984 8.93821 8.94348C8.93821 8.75917 8.88479 8.60456 8.77794 8.47964C8.67108 8.35881 8.54069 8.2984 8.38675 8.2984C8.23462 8.2984 8.10513 8.35881 7.99827 8.47964C7.89142 8.60456 7.838 8.75917 7.838 8.94348C7.838 9.12984 7.89142 9.28343 7.99827 9.40426Z"/>
</svg>
