<svg width="14" height="14" viewBox="0 0 14 14" fill="transparent" xmlns="http://www.w3.org/2000/svg">
<path fill-rule="evenodd" clip-rule="evenodd" d="M2.9672 6.35547C3.00397 6.12548 3.23754 5.99206 3.46251 6.05238C3.6875 6.11261 3.81807 6.3439 3.78749 6.57478C3.70055 7.23149 3.81667 7.90285 4.12572 8.49634C4.50005 9.21522 5.13024 9.76774 5.89198 10.0448C6.6536 10.3218 7.49149 10.3033 8.24025 9.99288C8.98892 9.68242 9.59406 9.10269 9.93626 8.36794C10.2785 7.63319 10.3329 6.79692 10.0887 6.02404C9.84454 5.25118 9.31962 4.59791 8.61742 4.19312C7.91521 3.78835 7.08679 3.66146 6.29562 3.83751C5.64247 3.98286 5.05383 4.32597 4.60711 4.81509C4.45003 4.98706 4.18897 5.03595 3.99806 4.90253C3.80714 4.7691 3.75899 4.50446 3.91138 4.32832C4.48251 3.66818 5.25314 3.20539 6.11242 3.01419C7.10954 2.7923 8.15362 2.95222 9.03863 3.46239C9.92363 3.97255 10.5853 4.7959 10.893 5.76992C11.2007 6.74406 11.1322 7.7981 10.7009 8.72407C10.2696 9.65003 9.50687 10.3808 8.56326 10.772C7.61964 11.1633 6.56366 11.1866 5.60361 10.8374C4.64364 10.4882 3.84939 9.79195 3.37761 8.8859C2.97104 8.10516 2.82939 7.21749 2.9672 6.35547Z" />
<path fill-rule="evenodd" clip-rule="evenodd" d="M3.54578 1.67178C3.30733 1.81867 3.07936 1.98036 2.86324 2.15553L3.1484 2.77404C3.60333 3.76073 2.78631 4.85563 1.68196 4.73927L0.987908 4.66614C0.884288 4.91894 0.797031 5.17978 0.727381 5.44747L1.33285 5.78543C2.29654 6.32331 2.29654 7.67669 1.33285 8.21457L0.727381 8.55253C0.797031 8.82021 0.884288 9.08103 0.987908 9.33387L1.68196 9.26072C2.78631 9.14438 3.60333 10.2392 3.1484 11.226L2.86324 11.8445C3.07936 12.0196 3.30733 12.1813 3.54578 12.3282L4.06237 11.8725C4.88557 11.1464 6.20752 11.5646 6.43513 12.6232L6.57784 13.2868C6.71731 13.2956 6.85808 13.3 7 13.3C7.14192 13.3 7.28268 13.2956 7.42216 13.2868L7.56486 12.6232C7.79248 11.5646 9.11445 11.1464 9.93763 11.8725L10.4543 12.3282C10.6927 12.1813 10.9206 12.0196 11.1367 11.8445L10.8516 11.226C10.3967 10.2392 11.2137 9.14438 12.318 9.26072L13.0121 9.33387C13.1157 9.08103 13.203 8.82021 13.2726 8.55253L12.6671 8.21457C11.7035 7.67669 11.7035 6.32331 12.6671 5.78543L13.2726 5.44747C13.203 5.17978 13.1157 4.91894 13.0121 4.66614L12.318 4.73927C11.2137 4.85563 10.3967 3.76073 10.8516 2.77404L11.1367 2.15553C10.9206 1.98036 10.6927 1.81867 10.4543 1.67178L9.93763 2.12748C9.11445 2.85365 7.79248 2.43543 7.56486 1.37683L7.42216 0.713174C7.28268 0.704438 7.14192 0.7 7 0.7C6.85808 0.7 6.71731 0.704438 6.57784 0.713174L6.43513 1.37683C6.20752 2.43544 4.88557 2.85365 4.06237 2.12748L3.54578 1.67178ZM4.01337 1.1397C3.7891 0.941857 3.45965 0.899066 3.20282 1.05491C2.90907 1.23316 2.6295 1.43146 2.36612 1.64786C2.13504 1.83772 2.07526 2.15571 2.19909 2.42428L2.49253 3.06071C2.71999 3.55406 2.31149 4.10152 1.75931 4.04334L1.04497 3.96807C0.744513 3.93641 0.452461 4.08985 0.338524 4.36239C0.209167 4.67179 0.10188 4.99224 0.0185849 5.32188C-0.0535888 5.60749 0.0900612 5.89862 0.352141 6.04492L0.975298 6.39268C1.45715 6.66162 1.45715 7.33838 0.975298 7.60732L0.352141 7.95508C0.0900612 8.10138 -0.0535888 8.39251 0.0185849 8.67811C0.10188 9.00774 0.209167 9.3282 0.338524 9.6376C0.452461 9.91018 0.744513 10.0636 1.04497 10.0319L1.7593 9.95666C2.31149 9.89849 2.71999 10.446 2.49253 10.9392L2.19909 11.5757C2.07526 11.8443 2.13504 12.1623 2.36612 12.3521C2.6295 12.5686 2.90907 12.7669 3.20282 12.9451C3.45965 13.1009 3.7891 13.0582 4.01337 12.8603L4.54507 12.3913C4.95668 12.0282 5.61763 12.2373 5.73144 12.7666L5.87832 13.4497C5.94036 13.7381 6.18113 13.9613 6.48316 13.9822C6.65383 13.994 6.82623 14 7 14C7.17376 14 7.34616 13.994 7.51684 13.9822C7.81886 13.9613 8.05963 13.7381 8.12168 13.4497L8.26856 12.7666C8.38236 12.2373 9.04335 12.0282 9.45494 12.3913L9.98666 12.8603C10.2109 13.0582 10.5404 13.1009 10.7972 12.9451C11.0909 12.7669 11.3705 12.5686 11.6339 12.3521C11.8649 12.1623 11.9248 11.8443 11.8009 11.5757L11.5075 10.9392C11.28 10.446 11.6885 9.89849 12.2407 9.95666L12.9551 10.0319C13.2555 10.0636 13.5475 9.91018 13.6615 9.6376C13.7908 9.3282 13.8981 9.00774 13.9814 8.67811C14.0536 8.39251 13.91 8.10138 13.6478 7.95508L13.0247 7.60732C12.5428 7.33838 12.5428 6.66162 13.0247 6.39268L13.6478 6.04492C13.91 5.89862 14.0536 5.60749 13.9814 5.32188C13.8981 4.99224 13.7908 4.67179 13.6615 4.36239C13.5475 4.08985 13.2555 3.93641 12.9551 3.96807L12.2407 4.04334C11.6885 4.10152 11.28 3.55406 11.5075 3.06071L11.8009 2.42429C11.9248 2.15571 11.8649 1.83772 11.6339 1.64786C11.3705 1.43146 11.0909 1.23316 10.7972 1.05491C10.5404 0.899066 10.2109 0.941857 9.98666 1.1397L9.45494 1.60873C9.04335 1.97181 8.38236 1.76271 8.26856 1.2334L8.12168 0.550375C8.05963 0.26187 7.81886 0.038696 7.51684 0.017815C7.34616 0.00600599 7.17376 0 7 0C6.82623 0 6.65383 0.00600599 6.48316 0.017815C6.18113 0.038696 5.94036 0.26187 5.87832 0.550375L5.73144 1.2334C5.61763 1.76271 4.95668 1.97181 4.54507 1.60873L4.01337 1.1397Z" fill=""/>
</svg>
