<svg width="14" height="14" viewBox="0 0 14 14" fill="none" xmlns="http://www.w3.org/2000/svg">
<path d="M13.4521 3.85697C13.7541 3.85697 13.9989 3.61217 13.9989 3.31018V2.73605C13.9989 1.22739 12.7715 0 11.2629 0C11.2629 0 2.69165 0.00128497 2.67052 0.00377288C1.94905 0.0289801 1.25602 0.338575 0.756466 0.862021C0.244421 1.39853 -0.0225238 2.09635 0.00260136 2.83056C0.00156245 2.84448 0.00101565 10.7172 0.00101565 10.7172C0.00101565 12.5273 1.4737 14 3.28386 14H11.2629C12.7716 14 13.9989 12.7726 13.9989 11.264V7.11248C13.9989 5.60382 12.7716 4.37643 11.2629 4.37643H2.73496C1.85705 4.37643 1.13731 3.69026 1.09638 2.81429C1.07557 2.36888 1.23581 1.94369 1.54754 1.61703C1.86378 1.28568 2.30791 1.09567 2.76602 1.09567C2.78217 1.09567 11.2628 1.09359 11.2628 1.09359C12.1685 1.09359 12.9053 1.83039 12.9053 2.73605V3.31018C12.9054 3.61217 13.1502 3.85697 13.4521 3.85697ZM2.73496 5.47002H11.2629C12.1685 5.47002 12.9053 6.20682 12.9053 7.11248V11.264C12.9053 12.1696 12.1685 12.9064 11.2629 12.9064H3.28386C2.0767 12.9064 1.0946 11.9243 1.0946 10.7172V4.92544C1.55194 5.268 2.1202 5.47002 2.73496 5.47002ZM11.8118 9.18821C11.8118 9.56569 11.5058 9.87171 11.1283 9.87171C10.2216 9.8357 10.2219 8.54059 11.1283 8.50472C11.5058 8.50472 11.8118 8.81074 11.8118 9.18821ZM11.8118 2.73605C11.8118 2.43405 11.567 2.18925 11.265 2.18925H2.73499C2.0095 2.21812 2.01005 3.25422 2.73499 3.28284H11.265C11.5669 3.28284 11.8118 3.03804 11.8118 2.73605Z"/>
</svg>
