<svg width="14" height="14" viewBox="0 0 14 14" fill="none" xmlns="http://www.w3.org/2000/svg">
<path d="M12.1587 0.348008C12.0581 0.288945 11.9334 0.288945 11.8306 0.348008C11.8109 0.358945 11.7934 0.37207 11.7781 0.387383V0.38957H11.7759C11.7584 0.404883 11.7453 0.418008 11.7344 0.435508C11.6906 0.490195 11.6687 0.560195 11.6687 0.632383V2.79801L10.5334 3.45426L9.39812 2.79801L9.39594 1.01738V0.960508V0.630195C9.39594 0.523008 9.34125 0.420195 9.25156 0.361133C9.245 0.356758 9.23844 0.352383 9.23187 0.348008C9.18156 0.317383 9.12469 0.304258 9.06781 0.304258H2.64531C1.29344 0.304258 0.195312 1.40457 0.195312 2.75426V8.41332C0.195312 9.76519 1.29344 10.8633 2.64531 10.8633H3.02375V12.6571C3.02375 13.0836 3.2775 13.4599 3.66906 13.6196C3.79812 13.6721 3.93156 13.6961 4.06062 13.6961C4.32969 13.6961 4.59 13.5889 4.78687 13.3855L7.32219 10.8633H8.90156C8.90594 10.883 8.90812 10.9005 8.9125 10.9202C8.98031 11.2439 9.14 11.5414 9.37625 11.7799C9.7 12.1014 10.1309 12.2808 10.5925 12.283H10.5947C11.0519 12.283 11.4828 12.1036 11.8066 11.7799C12.1172 11.4693 12.2922 11.0602 12.3075 10.6227C12.3097 10.603 12.3097 10.5855 12.3097 10.5658V9.76738V5.92832C12.5394 5.77957 12.745 5.60457 12.9266 5.40988C13.2109 5.10363 13.4341 4.74926 13.5828 4.35988V4.3577C13.7272 3.98801 13.8037 3.58988 13.8037 3.18301C13.8016 2.01488 13.1716 0.927695 12.1587 0.348008ZM8.87531 10.2071H7.18656C7.09906 10.2071 7.01594 10.2421 6.95469 10.3033L4.31875 12.9239C4.15687 13.0902 3.96875 13.0333 3.91625 13.0114C3.85937 12.9874 3.68 12.8977 3.68 12.6571V10.5352C3.68 10.3536 3.53344 10.2071 3.35187 10.2071H2.64531C1.65656 10.2071 0.851562 9.40207 0.851562 8.41332V2.75426C0.851562 1.76551 1.65656 0.960508 2.64531 0.960508H8.13812C8.12062 0.980195 8.10531 0.997695 8.08781 1.01738C7.56281 1.60801 7.26094 2.37582 7.26094 3.18301C7.26094 4.35332 7.87562 5.41644 8.87531 6.00488V10.2071ZM13.1475 3.21363C13.1431 3.56801 13.0644 3.91144 12.9266 4.22863C12.8719 4.35113 12.8084 4.47145 12.7384 4.5852C12.5109 4.94176 12.1959 5.24582 11.8153 5.46238C11.7059 5.52363 11.6403 5.64176 11.6491 5.76863L11.6534 10.1283V10.1305V10.5658C11.6534 10.6511 11.6447 10.7321 11.6228 10.813C11.5791 11.0033 11.4828 11.1761 11.3406 11.3161C11.1416 11.5174 10.8769 11.6268 10.5947 11.6268C10.5947 11.6268 10.5947 11.6268 10.5925 11.6268C10.3081 11.6246 10.0412 11.5152 9.84219 11.3161C9.71312 11.1871 9.62125 11.0339 9.57312 10.8633C9.54469 10.7693 9.53156 10.6686 9.53156 10.568V10.2071V5.81019C9.53156 5.68551 9.46156 5.57395 9.35219 5.51707C8.46625 5.06644 7.91719 4.17394 7.91719 3.18519C7.91719 2.45895 8.22344 1.76988 8.73969 1.28207L8.74187 2.98832C8.74187 3.10426 8.80312 3.21363 8.90594 3.27051L10.3672 4.11707C10.47 4.17613 10.5947 4.17613 10.6975 4.11707L12.1609 3.2727C12.2616 3.21363 12.325 3.10426 12.325 2.98832V2.78488V1.28207C12.8412 1.76988 13.1475 2.45676 13.1475 3.18301V3.21363Z" />
<path d="M2.45898 4.3122H4.57298C4.75433 4.3122 4.90111 4.16541 4.90111 3.98407C4.90111 3.80273 4.75433 3.65594 4.57298 3.65594H2.45898C2.27764 3.65594 2.13086 3.80273 2.13086 3.98407C2.13086 4.16541 2.27764 4.3122 2.45898 4.3122Z" />
<path d="M2.45898 5.91193H5.66673C5.84808 5.91193 5.99486 5.76515 5.99486 5.5838C5.99486 5.40246 5.84808 5.25568 5.66673 5.25568H2.45898C2.27764 5.25568 2.13086 5.40246 2.13086 5.5838C2.13086 5.76515 2.27764 5.91193 2.45898 5.91193Z" />
<path d="M7.19777 6.85541H2.45898C2.27764 6.85541 2.13086 7.00219 2.13086 7.18353C2.13086 7.36488 2.27764 7.51166 2.45898 7.51166H7.19798C7.37933 7.51166 7.52611 7.36488 7.52611 7.18353C7.52611 7.00219 7.37911 6.85541 7.19777 6.85541Z" />
</svg>
