<svg width="14" height="14" viewBox="0 0 14 14" fill="none" xmlns="http://www.w3.org/2000/svg">
<path d="M2.95192 13.5625H11.0483C11.3337 13.5674 11.6095 13.459 11.8151 13.2609C12.0207 13.0629 12.1394 12.7914 12.1451 12.5059V7.37346H12.795C12.9485 7.37514 13.099 7.33035 13.2266 7.24496C13.3542 7.15957 13.4531 7.03758 13.5101 6.89501C13.5646 6.75787 13.5763 6.60745 13.5436 6.46354C13.511 6.31964 13.4356 6.18898 13.3272 6.08878L7.53246 0.646893C7.3883 0.51144 7.19792 0.436035 7.00011 0.436035C6.8023 0.436035 6.61192 0.51144 6.46776 0.646893L0.672635 6.08913C0.564442 6.18935 0.489105 6.31996 0.456528 6.46379C0.42395 6.60762 0.435658 6.75795 0.49011 6.89501C0.54723 7.03758 0.646143 7.15955 0.773854 7.24488C0.901566 7.3302 1.0521 7.37491 1.20569 7.37311H1.85511V12.5056C1.86077 12.7911 1.97941 13.0627 2.18502 13.2608C2.39063 13.4589 2.66643 13.5674 2.95192 13.5625ZM1.51474 6.49846L7.00011 1.34751L12.4855 6.49881H11.7076C11.5916 6.49881 11.4803 6.5449 11.3982 6.62695C11.3162 6.70899 11.2701 6.82027 11.2701 6.93631V12.5063C11.2636 12.5592 11.2369 12.6077 11.1956 12.6415C11.1543 12.6753 11.1016 12.6919 11.0484 12.6879H2.95192C2.89871 12.6919 2.846 12.6753 2.80472 12.6415C2.76343 12.6077 2.73675 12.5592 2.7302 12.5063V6.93596C2.7302 6.81992 2.6841 6.70864 2.60206 6.6266C2.52001 6.54455 2.40873 6.49846 2.2927 6.49846H1.51474Z"/>
<path d="M4.8125 10.9375H9.1875C9.30353 10.9375 9.41481 10.8914 9.49686 10.8094C9.57891 10.7273 9.625 10.616 9.625 10.5C9.625 10.384 9.57891 10.2727 9.49686 10.1906C9.41481 10.1086 9.30353 10.0625 9.1875 10.0625H4.8125C4.69647 10.0625 4.58519 10.1086 4.50314 10.1906C4.42109 10.2727 4.375 10.384 4.375 10.5C4.375 10.616 4.42109 10.7273 4.50314 10.8094C4.58519 10.8914 4.69647 10.9375 4.8125 10.9375Z"/>
<path d="M4.8125 8.3125H9.1875C9.30353 8.3125 9.41481 8.26641 9.49686 8.18436C9.57891 8.10231 9.625 7.99103 9.625 7.875C9.625 7.75897 9.57891 7.64769 9.49686 7.56564C9.41481 7.48359 9.30353 7.4375 9.1875 7.4375H4.8125C4.69647 7.4375 4.58519 7.48359 4.50314 7.56564C4.42109 7.64769 4.375 7.75897 4.375 7.875C4.375 7.99103 4.42109 8.10231 4.50314 8.18436C4.58519 8.26641 4.69647 8.3125 4.8125 8.3125Z"/>
</svg>
