<svg width="14" height="14" viewBox="0 0 14 14" fill="none" xmlns="http://www.w3.org/2000/svg">
<path d="M14 6.94511V9.37864C13.9711 10.1042 12.9349 10.1037 12.9063 9.37864V8.29832L11.1659 10.0388C11.0633 10.1413 10.9242 10.1989 10.7792 10.1989H8.01964L4.37912 13.8395C4.16557 14.053 3.8193 14.053 3.60575 13.8395C3.39217 13.6259 3.39217 13.2796 3.60575 13.0661L7.40644 9.26539C7.50898 9.16283 7.6481 9.10521 7.79313 9.10521H10.5526L12.1659 7.49197H10.9923C10.2667 7.46309 10.2672 6.42687 10.9923 6.39824H13.4532C13.7552 6.39824 14 6.64307 14 6.94511ZM13.4532 11.0192C13.1511 11.0192 12.9063 11.2641 12.9063 11.5661V13.4528C12.9352 14.1783 13.9714 14.1778 14 13.4528V11.5661C14 11.2641 13.7552 11.0192 13.4532 11.0192ZM11.2657 11.0192C10.9637 11.0192 10.7188 11.2641 10.7188 11.5661V13.4528C10.7477 14.1783 11.7839 14.1778 11.8126 13.4528V11.5661C11.8126 11.2641 11.5677 11.0192 11.2657 11.0192ZM9.07825 11.0192C8.77622 11.0192 8.53139 11.2641 8.53139 11.5661V13.4528C8.56027 14.1783 9.59649 14.1778 9.62512 13.4528V11.5661C9.62512 11.2641 9.38029 11.0192 9.07825 11.0192ZM6.8908 12.6872C6.58877 12.6872 6.34394 12.932 6.34394 13.234V13.4528C6.37282 14.1783 7.40904 14.1778 7.43767 13.4528V13.234C7.43767 12.932 7.19284 12.6872 6.8908 12.6872ZM3.88295 11.1416C4.10284 11.1416 4.31024 11.008 4.39367 10.7903C4.50181 10.5084 4.36083 10.1921 4.07881 10.084C-0.682528 8.16133 0.596227 1.17929 5.74248 1.09368C8.00566 1.09368 9.93117 2.70878 10.3209 4.93402C10.373 5.23148 10.6564 5.43043 10.9539 5.37834C11.2513 5.32626 11.4503 5.04284 11.3982 4.74535C11.168 3.43097 10.4779 2.22924 9.4551 1.36156C5.76859 -1.78936 -0.0161492 0.886881 0.000366026 5.74206C-0.0271958 8.07621 1.50448 10.2943 3.68728 11.1052C3.7517 11.1299 3.81785 11.1416 3.88295 11.1416Z"/>
<path d="M7.17486 5.59182C7.45085 5.37836 7.62891 5.0454 7.62891 4.67172C7.62891 4.10552 7.22054 3.63253 6.68125 3.52796V3.22589C6.68125 3.09035 6.57071 2.98047 6.43435 2.98047C6.29799 2.98047 6.18745 3.09035 6.18745 3.22589V3.50622H5.9936H5.35896V3.22589C5.35896 3.09035 5.24841 2.98047 5.11206 2.98047C4.9757 2.98047 4.86515 3.09035 4.86515 3.22589V3.50622H4.64925C4.51289 3.50622 4.40234 3.61611 4.40234 3.75165C4.40234 3.88719 4.51289 3.99707 4.64925 3.99707H4.86515V5.5918V7.18653H4.64925C4.51289 7.18653 4.40234 7.29641 4.40234 7.43196C4.40234 7.5675 4.51289 7.67738 4.64925 7.67738H4.86515V7.95771C4.86515 8.09325 4.9757 8.20313 5.11206 8.20313C5.24841 8.20313 5.35896 8.09325 5.35896 7.95771V7.67738H5.9936H6.18745V7.95771C6.18745 8.09325 6.29799 8.20313 6.43435 8.20313C6.57071 8.20313 6.68125 8.09325 6.68125 7.95771V7.65565C7.22055 7.55107 7.62891 7.07807 7.62891 6.51187C7.62891 6.13817 7.45085 5.80524 7.17486 5.59182ZM5.35894 5.34636V3.99707H5.99358H6.45639C6.83063 3.99707 7.13509 4.29971 7.13509 4.6717C7.13509 5.0437 6.83063 5.34636 6.45639 5.34636H5.35894ZM6.45641 7.18651H5.9936H5.35896V5.83723H6.45641C6.83065 5.83723 7.13511 6.13987 7.13511 6.51185C7.13511 6.88385 6.83065 7.18651 6.45641 7.18651Z"/>
</svg>
