<svg width="18" height="18" viewBox="0 0 18 18" fill="none" xmlns="http://www.w3.org/2000/svg">
<path d="M9 0C4.0329 0 0 4.0329 0 9C0 13.9671 4.0329 18 9 18C13.9671 18 18 13.9671 18 9C18 4.0329 13.9671 0 9 0ZM9 1.8C12.9735 1.8 16.2 5.0265 16.2 9C16.2 12.9735 12.9735 16.2 9 16.2C5.0265 16.2 1.8 12.9735 1.8 9C1.8 5.0265 5.0265 1.8 9 1.8ZM9 11.6937C9.4968 11.6937 9.9 12.0969 9.9 12.5937C9.9 13.0905 9.4968 13.4937 9 13.4937C8.5032 13.4937 8.1 13.0905 8.1 12.5937C8.1 12.0969 8.5032 11.6937 9 11.6937ZM9.9 9.9V4.5C9.9 4.0032 9.4968 3.6 9 3.6C8.5032 3.6 8.1 4.0032 8.1 4.5V9.9C8.1 10.3968 8.5032 10.8 9 10.8C9.4968 10.8 9.9 10.3968 9.9 9.9Z" fill="white"/>
</svg>
