<svg width="24" height="24" viewBox="0 0 24 24" fill="none" xmlns="http://www.w3.org/2000/svg">
<path d="M8.71875 10.4062H15.2812C15.6696 10.4062 15.9844 10.0914 15.9844 9.70312V8.20312C15.9844 6.74198 15.1933 5.46277 14.0174 4.7693C14.5089 4.26263 14.8125 3.57253 14.8125 2.8125C14.8125 1.26169 13.5508 0 12 0C10.4492 0 9.1875 1.26169 9.1875 2.8125C9.1875 3.57253 9.49102 4.26263 9.98264 4.7693C8.80673 5.46281 8.01562 6.74198 8.01562 8.20312V9.70312C8.01562 10.0914 8.33039 10.4062 8.71875 10.4062ZM10.5938 2.8125C10.5938 2.03709 11.2246 1.40625 12 1.40625C12.7754 1.40625 13.4062 2.03709 13.4062 2.8125C13.4062 3.58791 12.7754 4.21875 12 4.21875C11.2246 4.21875 10.5938 3.58791 10.5938 2.8125ZM9.42188 8.20312C9.42188 6.78155 10.5784 5.625 12 5.625C13.4216 5.625 14.5781 6.78155 14.5781 8.20312V9H9.42188V8.20312Z" fill="#AAC1D6"/>
<path d="M22.3125 7.125H18.5625C18.1742 7.125 17.8594 7.43981 17.8594 7.82812V12.9844C17.8594 16.2152 15.2309 18.8438 12 18.8438C8.76914 18.8438 6.14063 16.2152 6.14063 12.9844V7.82812C6.14063 7.43981 5.82581 7.125 5.4375 7.125H1.6875C1.29919 7.125 0.984375 7.43981 0.984375 7.82812V12.9844C0.984375 15.9268 2.13019 18.693 4.21078 20.7736C6.29138 22.8541 9.05761 24 12 24C14.9424 24 17.7086 22.8542 19.7892 20.7736C21.8698 18.693 23.0156 15.9268 23.0156 12.9844V7.82812C23.0156 7.43981 22.7008 7.125 22.3125 7.125ZM19.2656 8.53125H21.6094V10.875H19.2656V8.53125ZM2.39062 8.53125H4.73438V10.875H2.39062V8.53125ZM12 22.5938C6.70139 22.5938 2.39062 18.283 2.39062 12.9844V12.2812H4.73438V12.9844C4.73438 16.9906 7.99373 20.25 12 20.25C16.0063 20.25 19.2656 16.9906 19.2656 12.9844V12.2812H21.6094V12.9844C21.6094 18.283 17.2986 22.5938 12 22.5938Z" fill="#AAC1D6"/>
<path d="M19.0312 3.51564H20.53L19.8525 4.53189C19.6371 4.855 19.7244 5.29155 20.0475 5.50694C20.1674 5.58686 20.3028 5.62511 20.4369 5.62511C20.6641 5.62511 20.8871 5.51514 21.0225 5.31194L22.4288 3.20256C22.5726 2.9868 22.586 2.70939 22.4637 2.48078C22.3414 2.25217 22.1031 2.10944 21.8437 2.10944H20.345L21.0225 1.09319C21.2379 0.770077 21.1506 0.333531 20.8275 0.11814C20.5043 -0.0972038 20.0678 -0.00996946 19.8524 0.313187L18.4462 2.42256C18.3024 2.63833 18.289 2.91573 18.4113 3.14434C18.5336 3.37291 18.7719 3.51564 19.0312 3.51564Z" fill="#AAC1D6"/>
<path d="M2.15625 3.51568H3.65498L2.97745 4.53193C2.76201 4.85503 2.84934 5.29158 3.17245 5.50697C3.29236 5.58689 3.42778 5.62514 3.56184 5.62514C3.78904 5.62514 4.01203 5.51518 4.1475 5.31197L5.55375 3.2026C5.69756 2.98683 5.71096 2.70943 5.58867 2.48082C5.46632 2.25221 5.22806 2.10947 4.9687 2.10947H3.47001L4.1475 1.09322C4.36293 0.770113 4.27561 0.333566 3.9525 0.118175C3.62934 -0.0972155 3.19279 -0.00998113 2.97745 0.313175L1.5712 2.42255C1.42739 2.63832 1.41398 2.91572 1.53628 3.14433C1.65862 3.37294 1.89689 3.51568 2.15625 3.51568Z" fill="#AAC1D6"/>
</svg>
