<svg width="24" height="24" viewBox="0 0 24 24" fill="none" xmlns="http://www.w3.org/2000/svg">
<path d="M23.6646 12.0001C23.6646 7.36177 20.9177 3.16431 16.6667 1.30667C16.1144 1.06536 15.4713 1.31736 15.2302 1.8695C14.989 2.42156 15.241 3.06468 15.7929 3.30591C19.2494 4.81629 21.4828 8.22889 21.4828 12.0001C21.4828 14.9877 20.0778 17.7521 17.7743 19.5225L18.5153 15.7972C18.6328 15.2063 18.2491 14.6319 17.6582 14.5144C17.067 14.3969 16.493 14.7806 16.3754 15.3715L15.1601 21.4808C15.1037 21.7646 15.1622 22.0591 15.323 22.2998C15.4837 22.5404 15.7334 22.7072 16.0171 22.7636L22.1266 23.9788C22.1984 23.9931 22.2701 24 22.3406 24C22.8504 24 23.306 23.6408 23.4093 23.1217C23.5268 22.5308 23.1431 21.9565 22.5522 21.8389L19.2063 21.1735C21.9788 18.9933 23.6646 15.6303 23.6646 12.0001Z" fill="#AAC1D6"/>
<path d="M6.34297 9.48553C6.41483 9.49978 6.48646 9.50669 6.55701 9.50669C7.06682 9.50669 7.52245 9.14749 7.62572 8.62837L8.8409 2.51901C8.95843 1.92811 8.57472 1.35379 7.98382 1.23627L1.87461 0.021083C1.2837 -0.0961516 0.709386 0.287334 0.591788 0.878161C0.474263 1.46913 0.857966 2.04338 1.44887 2.16098L4.7974 2.82693C2.02515 5.0093 0.335938 8.37776 0.335938 12.0001C0.335938 16.6386 3.08288 20.836 7.33401 22.6935C7.47627 22.7556 7.62441 22.785 7.77023 22.785C8.19058 22.785 8.5913 22.5405 8.77043 22.1306C9.01159 21.5785 8.75966 20.9354 8.2076 20.6942C4.75122 19.1839 2.5178 15.7713 2.5178 12.0001C2.5178 9.01986 3.92439 6.25088 6.22669 4.47884L5.4859 8.20278C5.36837 8.79368 5.75207 9.36793 6.34297 9.48553Z" fill="#AAC1D6"/>
</svg>
