<svg width="14" height="12" viewBox="0 0 14 12" fill="none" xmlns="http://www.w3.org/2000/svg">
<path d="M13.0319 5.10639H12.9574V4.36171C12.9574 3.49788 12.317 2.78298 11.4681 2.66384V1.75532C11.4681 0.817025 10.6936 0.0425568 9.75532 0.0425568H1.81702C0.834043 0.0425568 0.0148936 0.831919 0 1.82979V10.2447C0 11.183 0.774468 11.9575 1.71277 11.9575H11.2447C12.183 11.9575 12.9574 11.183 12.9574 10.2447V9.42554H13.0319C13.5681 9.42554 14 8.99363 14 8.45746V6.07448C14 5.5383 13.5681 5.10639 13.0319 5.10639ZM1.04255 1.85958C1.04255 1.42766 1.4 1.08511 1.81702 1.08511H9.74043C10.1128 1.08511 10.4106 1.38298 10.4106 1.75532V2.64894H1.81702C1.4 2.64894 1.04255 2.29149 1.04255 1.85958ZM12.9574 8.38299H10.5C9.88936 8.38299 9.38298 7.8766 9.38298 7.26597C9.38298 6.65533 9.88936 6.14894 10.5 6.14894H12.9574V8.38299Z" fill="white"/>
<path d="M10.7974 8.01064C11.2087 8.01064 11.5421 7.67724 11.5421 7.26596C11.5421 6.85469 11.2087 6.52129 10.7974 6.52129C10.3861 6.52129 10.0527 6.85469 10.0527 7.26596C10.0527 7.67724 10.3861 8.01064 10.7974 8.01064Z" fill="white"/>
</svg>
