<svg width="24" height="22" viewBox="0 0 24 22" fill="none" xmlns="http://www.w3.org/2000/svg">
<path d="M23.0843 3.43898L8.38544 0.328289C7.76355 0.196719 7.14715 0.597938 7.01559 1.21982L6.73633 3.01442L23.6963 6.60343L23.9756 4.80883C24.1072 4.18718 23.7062 3.57058 23.0843 3.43898Z" fill="#AAC1D6"/>
<path d="M16.9024 6.98402C16.7308 6.36574 16.0846 6.00029 15.4665 6.1717L12.6762 6.94634L6.09801 5.55417L5.37456 8.97243L0.854368 10.227C0.236324 10.3985 -0.129129 11.0446 0.0422839 11.6627L2.58967 20.8423C2.76136 21.4603 3.40752 21.826 4.02557 21.6544L18.6377 17.5993C19.2558 17.4276 19.6212 16.7817 19.4498 16.1634L19.0126 14.5876L20.6514 14.934C21.2733 15.0658 21.8897 14.6646 22.0212 14.0427L23.0581 9.14321L17.155 7.89407L16.9024 6.98402ZM18.5899 11.6495L18.9513 9.94153C19.0056 9.6858 19.2592 9.52086 19.5149 9.57486L21.2228 9.93647C21.4787 9.99075 21.6437 10.244 21.5897 10.5L21.2283 12.2079C21.174 12.4637 20.9205 12.6288 20.6648 12.5746L18.9568 12.2132C18.7006 12.1588 18.5357 11.9052 18.5899 11.6495ZM1.10864 11.1431L5.1524 10.0213L14.6936 7.37351L15.7203 7.08826C15.7391 7.0832 15.7578 7.08081 15.776 7.08081C15.8584 7.08081 15.9569 7.13485 15.9857 7.23834L16.1062 7.67246L16.4839 9.03341L1.4568 13.2035L0.958565 11.4086C0.927349 11.296 0.996055 11.1743 1.10864 11.1431ZM18.5335 16.4174C18.5527 16.4871 18.5326 16.5447 18.5121 16.5807C18.492 16.6167 18.4531 16.6638 18.3834 16.683L3.77153 20.738C3.75305 20.7431 3.73407 20.7457 3.7158 20.7457C3.63345 20.7457 3.53497 20.6915 3.50619 20.588L2.02038 15.2336L17.0475 11.0633L17.964 14.3656L18.5335 16.4174Z" fill="#AAC1D6"/>
<path d="M6.13228 16.7838C6.06216 16.5317 5.79898 16.3828 5.54686 16.4527L3.84038 16.9264C3.5885 16.9963 3.4394 17.2597 3.50952 17.5118L3.98301 19.2181C4.05313 19.4702 4.31631 19.6191 4.56843 19.549L6.27491 19.0755C6.52703 19.0056 6.67589 18.7422 6.60601 18.49L6.13228 16.7838Z" fill="#AAC1D6"/>
</svg>
