<svg width="30" height="30" viewBox="0 0 30 30" fill="none" xmlns="http://www.w3.org/2000/svg">
<g filter="url(#filter0_di_1712_9473)">
<path d="M19.2656 10.5312C19.0286 10.5312 18.7942 10.5426 18.5625 10.5635V6.21875C18.5625 4.99948 17.6931 3.89328 16.1144 3.10395C14.6906 2.39206 12.8133 2 10.8281 2C8.83894 2 6.94655 2.39127 5.49952 3.10166C3.88772 3.89305 3 5 3 6.21875V18.9688C3 20.1875 3.88772 21.2945 5.49952 22.0858C6.94655 22.7962 8.83894 23.1875 10.8281 23.1875C11.6254 23.1875 12.4053 23.1238 13.1538 22.9998C14.57 24.8239 16.7829 26 19.2656 26C23.5304 26 27 22.5304 27 18.2656C27 14.0009 23.5304 10.5312 19.2656 10.5312ZM6.1193 4.364C7.359 3.75533 9.07528 3.40625 10.8281 3.40625C14.5574 3.40625 17.1562 4.88848 17.1562 6.21875C17.1562 7.54902 14.5574 9.03125 10.8281 9.03125C9.07528 9.03125 7.359 8.68217 6.1193 8.0735C5.03062 7.53903 4.40625 6.863 4.40625 6.21875C4.40625 5.5745 5.03062 4.89847 6.1193 4.364ZM4.40625 8.66867C4.72144 8.90947 5.0865 9.13306 5.49952 9.33584C6.94655 10.0462 8.83894 10.4375 10.8281 10.4375C12.8133 10.4375 14.6906 10.0454 16.1144 9.33355C16.5062 9.13761 16.8542 8.92217 17.1562 8.69033V10.8236C15.7549 11.2213 14.5144 12.0053 13.5573 13.0524C12.7006 13.2457 11.7837 13.3438 10.8281 13.3438C9.07528 13.3438 7.359 12.9947 6.1193 12.386C5.03062 11.8515 4.40625 11.1755 4.40625 10.5312V8.66867ZM4.40625 12.9812C4.72144 13.222 5.0865 13.4456 5.49952 13.6483C6.94655 14.3587 8.83894 14.75 10.8281 14.75C11.371 14.75 11.9035 14.7209 12.4229 14.6638C11.9609 15.538 11.6615 16.5107 11.5654 17.5417C11.3211 17.5551 11.0748 17.5625 10.8281 17.5625C9.07528 17.5625 7.359 17.2134 6.1193 16.6047C5.03062 16.0703 4.40625 15.3942 4.40625 14.75V12.9812ZM10.8281 21.7812C9.07528 21.7812 7.359 21.4322 6.1193 20.8235C5.03062 20.289 4.40625 19.613 4.40625 18.9688V17.1999C4.72144 17.4407 5.0865 17.6643 5.49952 17.867C6.94655 18.5775 8.83894 18.9688 10.8281 18.9688C11.0733 18.9688 11.3184 18.9626 11.5619 18.9506C11.6482 19.9287 11.9172 20.8551 12.3347 21.6954C11.8444 21.752 11.3408 21.7812 10.8281 21.7812ZM19.2656 24.5938C15.7763 24.5938 12.9375 21.755 12.9375 18.2656C12.9375 14.7763 15.7763 11.9375 19.2656 11.9375C22.755 11.9375 25.5938 14.7763 25.5938 18.2656C25.5938 21.755 22.755 24.5938 19.2656 24.5938Z" fill="#EF8E2E"/>
</g>
<g filter="url(#filter1_di_1712_9473)">
<path d="M21.1557 18.5C21.6689 18.1322 22 17.5584 22 16.9145C22 15.9388 21.2406 15.1237 20.2378 14.9435V14.4229C20.2378 14.1894 20.0322 14 19.7786 14C19.5251 14 19.3195 14.1894 19.3195 14.4229V14.906H18.959H17.7789V14.4229C17.7789 14.1894 17.5733 14 17.3198 14C17.0662 14 16.8606 14.1894 16.8606 14.4229V14.906H16.4591C16.2056 14.906 16 15.0954 16 15.3289C16 15.5625 16.2056 15.7519 16.4591 15.7519H16.8606V18.5V21.2481H16.4591C16.2056 21.2481 16 21.4375 16 21.6711C16 21.9046 16.2056 22.094 16.4591 22.094H16.8606V22.5771C16.8606 22.8106 17.0662 23 17.3198 23C17.5733 23 17.7789 22.8106 17.7789 22.5771V22.094H18.959H19.3195V22.5771C19.3195 22.8106 19.5251 23 19.7786 23C20.0322 23 20.2378 22.8106 20.2378 22.5771V22.0566C21.2406 21.8763 22 21.0612 22 20.0855C22 19.4415 21.6689 18.8678 21.1557 18.5ZM17.7789 18.077V15.7519H18.959H19.8196C20.5155 15.7519 21.0817 16.2734 21.0817 16.9144C21.0817 17.5555 20.5155 18.077 19.8196 18.077H17.7789ZM19.8197 21.2481H18.959H17.7789V18.9229H19.8197C20.5156 18.9229 21.0817 19.4445 21.0817 20.0855C21.0817 20.7265 20.5156 21.2481 19.8197 21.2481Z" fill="#EF8E2E"/>
</g>
<defs>
<filter id="filter0_di_1712_9473" x="0" y="0" width="30" height="30" filterUnits="userSpaceOnUse" color-interpolation-filters="sRGB">
<feFlood flood-opacity="0" result="BackgroundImageFix"/>
<feColorMatrix in="SourceAlpha" type="matrix" values="0 0 0 0 0 0 0 0 0 0 0 0 0 0 0 0 0 0 127 0" result="hardAlpha"/>
<feOffset dy="1"/>
<feGaussianBlur stdDeviation="1.5"/>
<feComposite in2="hardAlpha" operator="out"/>
<feColorMatrix type="matrix" values="0 0 0 0 0 0 0 0 0 0 0 0 0 0 0 0 0 0 0.71 0"/>
<feBlend mode="normal" in2="BackgroundImageFix" result="effect1_dropShadow_1712_9473"/>
<feBlend mode="normal" in="SourceGraphic" in2="effect1_dropShadow_1712_9473" result="shape"/>
<feColorMatrix in="SourceAlpha" type="matrix" values="0 0 0 0 0 0 0 0 0 0 0 0 0 0 0 0 0 0 127 0" result="hardAlpha"/>
<feOffset dy="1"/>
<feGaussianBlur stdDeviation="0.5"/>
<feComposite in2="hardAlpha" operator="arithmetic" k2="-1" k3="1"/>
<feColorMatrix type="matrix" values="0 0 0 0 1 0 0 0 0 0.828293 0 0 0 0 0.6 0 0 0 1 0"/>
<feBlend mode="normal" in2="shape" result="effect2_innerShadow_1712_9473"/>
</filter>
<filter id="filter1_di_1712_9473" x="13" y="12" width="12" height="15" filterUnits="userSpaceOnUse" color-interpolation-filters="sRGB">
<feFlood flood-opacity="0" result="BackgroundImageFix"/>
<feColorMatrix in="SourceAlpha" type="matrix" values="0 0 0 0 0 0 0 0 0 0 0 0 0 0 0 0 0 0 127 0" result="hardAlpha"/>
<feOffset dy="1"/>
<feGaussianBlur stdDeviation="1.5"/>
<feComposite in2="hardAlpha" operator="out"/>
<feColorMatrix type="matrix" values="0 0 0 0 0 0 0 0 0 0 0 0 0 0 0 0 0 0 0.71 0"/>
<feBlend mode="normal" in2="BackgroundImageFix" result="effect1_dropShadow_1712_9473"/>
<feBlend mode="normal" in="SourceGraphic" in2="effect1_dropShadow_1712_9473" result="shape"/>
<feColorMatrix in="SourceAlpha" type="matrix" values="0 0 0 0 0 0 0 0 0 0 0 0 0 0 0 0 0 0 127 0" result="hardAlpha"/>
<feOffset dy="1"/>
<feGaussianBlur stdDeviation="0.5"/>
<feComposite in2="hardAlpha" operator="arithmetic" k2="-1" k3="1"/>
<feColorMatrix type="matrix" values="0 0 0 0 1 0 0 0 0 0.828293 0 0 0 0 0.6 0 0 0 1 0"/>
<feBlend mode="normal" in2="shape" result="effect2_innerShadow_1712_9473"/>
</filter>
</defs>
</svg>
