<svg width="33" height="35" viewBox="0 0 33 35" fill="none" xmlns="http://www.w3.org/2000/svg">
<g filter="url(#filter0_di_1712_9607)">
<path d="M28.7315 3.15349C28.0219 2.44241 27.0783 2.05078 26.0743 2.05078H24.3784V1.70898C24.3784 0.76665 23.6118 0 22.6694 0H10.3647C9.42241 0 8.65576 0.76665 8.65576 1.70898V2.05078H6.95382C4.8852 2.05078 3.20034 3.73557 3.19802 5.80638L3.16992 31.2361C3.16883 32.2411 3.55896 33.1862 4.26846 33.8973C4.97803 34.6084 5.92173 35 6.92572 35H26.0461C28.1148 35 29.7997 33.3152 29.8019 31.2444L29.8301 5.81472C29.8312 4.80963 29.441 3.86449 28.7315 3.15349ZM10.7065 2.05078H22.3276V4.10156H10.7065V2.05078ZM27.7533 31.2421C27.7522 32.1835 26.9864 32.9492 26.0461 32.9492H6.92572C6.46936 32.9492 6.0404 32.7712 5.71788 32.448C5.39536 32.1247 5.21804 31.6952 5.21852 31.2384L5.24661 5.8087C5.24764 4.86732 6.01347 4.10156 6.95382 4.10156H8.65576V4.44336C8.65576 5.38569 9.42241 6.15234 10.3647 6.15234H22.6694C23.6118 6.15234 24.3784 5.38569 24.3784 4.44336V4.10156H26.0743C26.5306 4.10156 26.9596 4.27957 27.2821 4.60277C27.6046 4.92598 27.782 5.35562 27.7815 5.81239L27.7533 31.2421Z" fill="#EF8E2E"/>
</g>
<g filter="url(#filter1_di_1712_9607)">
<path d="M16.8486 13.6719H24.1337C24.7 13.6719 25.1591 13.2128 25.1591 12.6465C25.1591 12.0802 24.7 11.6211 24.1337 11.6211H16.8486C16.2823 11.6211 15.8232 12.0802 15.8232 12.6465C15.8232 13.2128 16.2823 13.6719 16.8486 13.6719Z" fill="#EF8E2E"/>
</g>
<g filter="url(#filter2_di_1712_9607)">
<path d="M16.8486 20.5078H24.1337C24.7 20.5078 25.1591 20.0487 25.1591 19.4824C25.1591 18.9161 24.7 18.457 24.1337 18.457H16.8486C16.2823 18.457 15.8232 18.9161 15.8232 19.4824C15.8232 20.0487 16.2823 20.5078 16.8486 20.5078Z" fill="#EF8E2E"/>
</g>
<g filter="url(#filter3_di_1712_9607)">
<path d="M24.163 25.293H16.8486C16.2823 25.293 15.8232 25.7521 15.8232 26.3184C15.8232 26.8846 16.2823 27.3438 16.8486 27.3438H24.163C24.7293 27.3438 25.1884 26.8846 25.1884 26.3184C25.1884 25.7521 24.7294 25.293 24.163 25.293Z" fill="#EF8E2E"/>
</g>
<g filter="url(#filter4_di_1712_9607)">
<path d="M12.4843 9.85453L10.1196 12.2192L9.56209 11.6616C9.16164 11.2612 8.51243 11.2612 8.11198 11.6616C7.71153 12.062 7.71153 12.7113 8.11198 13.1117L9.39461 14.3944C9.5869 14.5867 9.8477 14.6948 10.1197 14.6948C10.3916 14.6948 10.6524 14.5868 10.8447 14.3944L13.9345 11.3047C14.3349 10.9043 14.3349 10.255 13.9345 9.8546C13.534 9.45408 12.8848 9.45408 12.4843 9.85453Z" fill="#EF8E2E"/>
</g>
<g filter="url(#filter5_di_1712_9607)">
<path d="M12.4843 17.2124L10.1196 19.5771L9.56209 19.0195C9.16164 18.6191 8.51243 18.6191 8.11198 19.0195C7.71153 19.4199 7.71153 20.0691 8.11198 20.4696L9.39461 21.7523C9.5869 21.9446 9.8477 22.0527 10.1197 22.0527C10.3916 22.0527 10.6525 21.9447 10.8447 21.7523L13.9345 18.6626C14.3349 18.2622 14.3349 17.6129 13.9345 17.2125C13.534 16.812 12.8848 16.812 12.4843 17.2124Z" fill="#EF8E2E"/>
</g>
<g filter="url(#filter6_di_1712_9607)">
<path d="M12.4843 24.0483L10.1196 26.413L9.56209 25.8555C9.16164 25.455 8.51243 25.455 8.11198 25.8555C7.71153 26.2559 7.71153 26.9051 8.11198 27.3056L9.39461 28.5883C9.5869 28.7806 9.8477 28.8887 10.1197 28.8887C10.3916 28.8887 10.6525 28.7807 10.8447 28.5883L13.9345 25.4985C14.3349 25.0981 14.3349 24.4488 13.9345 24.0484C13.534 23.6479 12.8848 23.6479 12.4843 24.0483Z" fill="#EF8E2E"/>
</g>
<defs>
<filter id="filter0_di_1712_9607" x="0.169922" y="-2" width="32.6602" height="41" filterUnits="userSpaceOnUse" color-interpolation-filters="sRGB">
<feFlood flood-opacity="0" result="BackgroundImageFix"/>
<feColorMatrix in="SourceAlpha" type="matrix" values="0 0 0 0 0 0 0 0 0 0 0 0 0 0 0 0 0 0 127 0" result="hardAlpha"/>
<feOffset dy="1"/>
<feGaussianBlur stdDeviation="1.5"/>
<feComposite in2="hardAlpha" operator="out"/>
<feColorMatrix type="matrix" values="0 0 0 0 0 0 0 0 0 0 0 0 0 0 0 0 0 0 0.71 0"/>
<feBlend mode="normal" in2="BackgroundImageFix" result="effect1_dropShadow_1712_9607"/>
<feBlend mode="normal" in="SourceGraphic" in2="effect1_dropShadow_1712_9607" result="shape"/>
<feColorMatrix in="SourceAlpha" type="matrix" values="0 0 0 0 0 0 0 0 0 0 0 0 0 0 0 0 0 0 127 0" result="hardAlpha"/>
<feOffset dy="1"/>
<feGaussianBlur stdDeviation="0.5"/>
<feComposite in2="hardAlpha" operator="arithmetic" k2="-1" k3="1"/>
<feColorMatrix type="matrix" values="0 0 0 0 1 0 0 0 0 0.828293 0 0 0 0 0.6 0 0 0 1 0"/>
<feBlend mode="normal" in2="shape" result="effect2_innerShadow_1712_9607"/>
</filter>
<filter id="filter1_di_1712_9607" x="12.8232" y="9.62109" width="15.3359" height="8.05078" filterUnits="userSpaceOnUse" color-interpolation-filters="sRGB">
<feFlood flood-opacity="0" result="BackgroundImageFix"/>
<feColorMatrix in="SourceAlpha" type="matrix" values="0 0 0 0 0 0 0 0 0 0 0 0 0 0 0 0 0 0 127 0" result="hardAlpha"/>
<feOffset dy="1"/>
<feGaussianBlur stdDeviation="1.5"/>
<feComposite in2="hardAlpha" operator="out"/>
<feColorMatrix type="matrix" values="0 0 0 0 0 0 0 0 0 0 0 0 0 0 0 0 0 0 0.71 0"/>
<feBlend mode="normal" in2="BackgroundImageFix" result="effect1_dropShadow_1712_9607"/>
<feBlend mode="normal" in="SourceGraphic" in2="effect1_dropShadow_1712_9607" result="shape"/>
<feColorMatrix in="SourceAlpha" type="matrix" values="0 0 0 0 0 0 0 0 0 0 0 0 0 0 0 0 0 0 127 0" result="hardAlpha"/>
<feOffset dy="1"/>
<feGaussianBlur stdDeviation="0.5"/>
<feComposite in2="hardAlpha" operator="arithmetic" k2="-1" k3="1"/>
<feColorMatrix type="matrix" values="0 0 0 0 1 0 0 0 0 0.828293 0 0 0 0 0.6 0 0 0 1 0"/>
<feBlend mode="normal" in2="shape" result="effect2_innerShadow_1712_9607"/>
</filter>
<filter id="filter2_di_1712_9607" x="12.8232" y="16.457" width="15.3359" height="8.05078" filterUnits="userSpaceOnUse" color-interpolation-filters="sRGB">
<feFlood flood-opacity="0" result="BackgroundImageFix"/>
<feColorMatrix in="SourceAlpha" type="matrix" values="0 0 0 0 0 0 0 0 0 0 0 0 0 0 0 0 0 0 127 0" result="hardAlpha"/>
<feOffset dy="1"/>
<feGaussianBlur stdDeviation="1.5"/>
<feComposite in2="hardAlpha" operator="out"/>
<feColorMatrix type="matrix" values="0 0 0 0 0 0 0 0 0 0 0 0 0 0 0 0 0 0 0.71 0"/>
<feBlend mode="normal" in2="BackgroundImageFix" result="effect1_dropShadow_1712_9607"/>
<feBlend mode="normal" in="SourceGraphic" in2="effect1_dropShadow_1712_9607" result="shape"/>
<feColorMatrix in="SourceAlpha" type="matrix" values="0 0 0 0 0 0 0 0 0 0 0 0 0 0 0 0 0 0 127 0" result="hardAlpha"/>
<feOffset dy="1"/>
<feGaussianBlur stdDeviation="0.5"/>
<feComposite in2="hardAlpha" operator="arithmetic" k2="-1" k3="1"/>
<feColorMatrix type="matrix" values="0 0 0 0 1 0 0 0 0 0.828293 0 0 0 0 0.6 0 0 0 1 0"/>
<feBlend mode="normal" in2="shape" result="effect2_innerShadow_1712_9607"/>
</filter>
<filter id="filter3_di_1712_9607" x="12.8232" y="23.293" width="15.3653" height="8.05078" filterUnits="userSpaceOnUse" color-interpolation-filters="sRGB">
<feFlood flood-opacity="0" result="BackgroundImageFix"/>
<feColorMatrix in="SourceAlpha" type="matrix" values="0 0 0 0 0 0 0 0 0 0 0 0 0 0 0 0 0 0 127 0" result="hardAlpha"/>
<feOffset dy="1"/>
<feGaussianBlur stdDeviation="1.5"/>
<feComposite in2="hardAlpha" operator="out"/>
<feColorMatrix type="matrix" values="0 0 0 0 0 0 0 0 0 0 0 0 0 0 0 0 0 0 0.71 0"/>
<feBlend mode="normal" in2="BackgroundImageFix" result="effect1_dropShadow_1712_9607"/>
<feBlend mode="normal" in="SourceGraphic" in2="effect1_dropShadow_1712_9607" result="shape"/>
<feColorMatrix in="SourceAlpha" type="matrix" values="0 0 0 0 0 0 0 0 0 0 0 0 0 0 0 0 0 0 127 0" result="hardAlpha"/>
<feOffset dy="1"/>
<feGaussianBlur stdDeviation="0.5"/>
<feComposite in2="hardAlpha" operator="arithmetic" k2="-1" k3="1"/>
<feColorMatrix type="matrix" values="0 0 0 0 1 0 0 0 0 0.828293 0 0 0 0 0.6 0 0 0 1 0"/>
<feBlend mode="normal" in2="shape" result="effect2_innerShadow_1712_9607"/>
</filter>
<filter id="filter4_di_1712_9607" x="4.81165" y="7.5542" width="12.4232" height="11.1406" filterUnits="userSpaceOnUse" color-interpolation-filters="sRGB">
<feFlood flood-opacity="0" result="BackgroundImageFix"/>
<feColorMatrix in="SourceAlpha" type="matrix" values="0 0 0 0 0 0 0 0 0 0 0 0 0 0 0 0 0 0 127 0" result="hardAlpha"/>
<feOffset dy="1"/>
<feGaussianBlur stdDeviation="1.5"/>
<feComposite in2="hardAlpha" operator="out"/>
<feColorMatrix type="matrix" values="0 0 0 0 0 0 0 0 0 0 0 0 0 0 0 0 0 0 0.71 0"/>
<feBlend mode="normal" in2="BackgroundImageFix" result="effect1_dropShadow_1712_9607"/>
<feBlend mode="normal" in="SourceGraphic" in2="effect1_dropShadow_1712_9607" result="shape"/>
<feColorMatrix in="SourceAlpha" type="matrix" values="0 0 0 0 0 0 0 0 0 0 0 0 0 0 0 0 0 0 127 0" result="hardAlpha"/>
<feOffset dy="1"/>
<feGaussianBlur stdDeviation="0.5"/>
<feComposite in2="hardAlpha" operator="arithmetic" k2="-1" k3="1"/>
<feColorMatrix type="matrix" values="0 0 0 0 1 0 0 0 0 0.828293 0 0 0 0 0.6 0 0 0 1 0"/>
<feBlend mode="normal" in2="shape" result="effect2_innerShadow_1712_9607"/>
</filter>
<filter id="filter5_di_1712_9607" x="4.81165" y="14.9121" width="12.4232" height="11.1406" filterUnits="userSpaceOnUse" color-interpolation-filters="sRGB">
<feFlood flood-opacity="0" result="BackgroundImageFix"/>
<feColorMatrix in="SourceAlpha" type="matrix" values="0 0 0 0 0 0 0 0 0 0 0 0 0 0 0 0 0 0 127 0" result="hardAlpha"/>
<feOffset dy="1"/>
<feGaussianBlur stdDeviation="1.5"/>
<feComposite in2="hardAlpha" operator="out"/>
<feColorMatrix type="matrix" values="0 0 0 0 0 0 0 0 0 0 0 0 0 0 0 0 0 0 0.71 0"/>
<feBlend mode="normal" in2="BackgroundImageFix" result="effect1_dropShadow_1712_9607"/>
<feBlend mode="normal" in="SourceGraphic" in2="effect1_dropShadow_1712_9607" result="shape"/>
<feColorMatrix in="SourceAlpha" type="matrix" values="0 0 0 0 0 0 0 0 0 0 0 0 0 0 0 0 0 0 127 0" result="hardAlpha"/>
<feOffset dy="1"/>
<feGaussianBlur stdDeviation="0.5"/>
<feComposite in2="hardAlpha" operator="arithmetic" k2="-1" k3="1"/>
<feColorMatrix type="matrix" values="0 0 0 0 1 0 0 0 0 0.828293 0 0 0 0 0.6 0 0 0 1 0"/>
<feBlend mode="normal" in2="shape" result="effect2_innerShadow_1712_9607"/>
</filter>
<filter id="filter6_di_1712_9607" x="4.81165" y="21.748" width="12.4232" height="11.1406" filterUnits="userSpaceOnUse" color-interpolation-filters="sRGB">
<feFlood flood-opacity="0" result="BackgroundImageFix"/>
<feColorMatrix in="SourceAlpha" type="matrix" values="0 0 0 0 0 0 0 0 0 0 0 0 0 0 0 0 0 0 127 0" result="hardAlpha"/>
<feOffset dy="1"/>
<feGaussianBlur stdDeviation="1.5"/>
<feComposite in2="hardAlpha" operator="out"/>
<feColorMatrix type="matrix" values="0 0 0 0 0 0 0 0 0 0 0 0 0 0 0 0 0 0 0.71 0"/>
<feBlend mode="normal" in2="BackgroundImageFix" result="effect1_dropShadow_1712_9607"/>
<feBlend mode="normal" in="SourceGraphic" in2="effect1_dropShadow_1712_9607" result="shape"/>
<feColorMatrix in="SourceAlpha" type="matrix" values="0 0 0 0 0 0 0 0 0 0 0 0 0 0 0 0 0 0 127 0" result="hardAlpha"/>
<feOffset dy="1"/>
<feGaussianBlur stdDeviation="0.5"/>
<feComposite in2="hardAlpha" operator="arithmetic" k2="-1" k3="1"/>
<feColorMatrix type="matrix" values="0 0 0 0 1 0 0 0 0 0.828293 0 0 0 0 0.6 0 0 0 1 0"/>
<feBlend mode="normal" in2="shape" result="effect2_innerShadow_1712_9607"/>
</filter>
</defs>
</svg>
