<svg width="24" height="24" viewBox="0 0 24 24" fill="none" xmlns="http://www.w3.org/2000/svg">
<path d="M23.9956 8.40002C23.956 7.71562 23.142 7.18082 21.514 6.77281C21.5688 6.65281 21.5996 6.52802 21.6 6.39842V3.60001H21.5932C21.45 1.26881 11.8972 1.20001 10.8 1.20001C9.70279 1.20001 0.15 1.26881 0.0068 3.60001H0V3.65201V6.39961C0.002 7.15962 0.982799 7.75442 2.442 8.19722C2.422 8.26362 2.41 8.33122 2.406 8.40002H2.4V8.45202V11.1948C0.827999 11.5996 0.0428 12.1268 0.004 12.8H0V12.852V15.5996C0.0012 16.1288 0.4784 16.5776 1.2592 16.9516C1.2296 17.0328 1.2112 17.1156 1.206 17.2004H1.2V17.2524V20C1.2032 21.3304 4.1988 22.1564 7.5272 22.542C7.5516 22.5468 7.574 22.5568 7.6 22.5568C7.6076 22.5568 7.614 22.5528 7.6216 22.5524C8.2632 22.6248 8.91519 22.6812 9.56039 22.7216C9.57399 22.7232 9.58599 22.7296 9.59999 22.7296C9.60759 22.7296 9.61359 22.7256 9.62079 22.7252C10.44 22.7748 11.246 22.8 12 22.8C12.754 22.8 13.56 22.7748 14.3792 22.7248C14.3864 22.7252 14.3928 22.7292 14.4 22.7292C14.414 22.7292 14.426 22.7224 14.4396 22.7212C15.0848 22.6808 15.7368 22.6248 16.3784 22.552C16.386 22.552 16.3924 22.556 16.4 22.556C16.426 22.556 16.4484 22.546 16.4728 22.5412C19.8012 22.1556 22.7964 21.3292 22.8 19.9984V17.2H22.7936C22.7656 16.7096 22.3476 16.3004 21.522 15.9584C21.5724 15.8428 21.6 15.7228 21.6 15.5984V12.984C23.036 12.5424 23.998 11.9516 24 11.1984V8.40002H23.9956ZM20.7568 15.7284L20.6204 15.848C20.4104 16.0332 20.0604 16.22 19.6 16.4V14.4928C20.0756 14.3272 20.4804 14.1436 20.8 13.9424V15.5976C20.8 15.6388 20.7848 15.6828 20.7568 15.7284ZM11.8104 17.5872C11.752 17.5888 11.6932 17.5896 11.6344 17.5908C11.4916 17.5936 11.3452 17.5944 11.2004 17.5956V15.5976C11.3104 15.5964 11.4204 15.5948 11.5304 15.5928C11.5516 15.5924 11.5728 15.592 11.594 15.5916C11.9968 15.584 12.3996 15.5716 12.8004 15.5532V17.5504C12.7148 17.5548 12.6288 17.5588 12.542 17.5624C12.3012 17.5732 12.058 17.5812 11.8104 17.5872ZM10.0636 17.5928C9.88039 17.5896 9.69799 17.5852 9.51679 17.5796C9.49439 17.5788 9.47199 17.578 9.44959 17.5772C9.2316 17.57 9.01519 17.5608 8.8004 17.5504V15.5536C9.20119 15.5724 9.60399 15.5848 10.0068 15.592C10.028 15.5924 10.0492 15.5928 10.07 15.5932C10.18 15.5952 10.29 15.5968 10.4 15.598V17.5972C10.3224 17.5964 10.2448 17.5964 10.1676 17.5952C10.1324 17.5944 10.0984 17.5932 10.0636 17.5928ZM2.8388 16.6808C2.8256 16.6768 2.8132 16.6732 2.8 16.6696V14.7372C3.1736 14.838 3.5752 14.93 4 15.0136V16.966C3.6328 16.888 3.294 16.806 2.9856 16.722C2.9368 16.708 2.8864 16.6948 2.8388 16.6808ZM11.27 19.9932C11.38 19.9952 11.49 19.9968 11.6 19.998V21.9976C11.0472 21.9924 10.5136 21.9764 9.99999 21.9512V19.954C10.4008 19.9728 10.8036 19.9852 11.2064 19.9924C11.2276 19.9924 11.2488 19.9928 11.27 19.9932ZM12.7936 19.992C13.1964 19.9844 13.5992 19.972 14 19.9536V21.9508C13.4864 21.976 12.9528 21.992 12.4 21.9972V19.9976C12.51 19.9964 12.62 19.9948 12.73 19.9928C12.7512 19.9928 12.7724 19.9924 12.7936 19.992ZM16 19.8112V21.7976C15.6156 21.838 15.2156 21.8736 14.8 21.9028V19.908C15.2056 19.8816 15.6064 19.8492 16 19.8112ZM16.8 19.7248C17.2124 19.6752 17.6128 19.6188 18 19.556V21.52C17.6232 21.5864 17.2228 21.6476 16.8 21.7032V19.7248ZM18.8 19.4132C19.2248 19.3296 19.6264 19.2376 20 19.1368V21.0692C19.6436 21.172 19.2424 21.2716 18.8 21.3656V19.4132ZM5.2 19.4132V21.3656C4.7576 21.2716 4.3564 21.172 4 21.0692V19.1368C4.3736 19.2376 4.7752 19.33 5.2 19.4132ZM6 19.5564C6.3872 19.6192 6.7876 19.6756 7.2 19.7252V21.7036C6.7772 21.648 6.3768 21.5868 6 21.5204V19.5564ZM8 19.8112C8.39359 19.8492 8.79439 19.8816 9.2 19.9084V21.9032C8.7844 21.874 8.3844 21.8384 8 21.798V19.8112ZM7.0076 17.4192C6.9668 17.4152 6.9264 17.4108 6.886 17.4068C6.8572 17.404 6.8288 17.4004 6.8 17.3976V15.4116C7.1936 15.4496 7.5944 15.482 8 15.5088V17.502C7.664 17.478 7.332 17.4508 7.0076 17.4192ZM6 15.3248V17.3032C5.5772 17.2476 5.1768 17.1864 4.8 17.12V15.156C5.1872 15.2188 5.5876 15.2756 6 15.3248ZM13.8664 17.4832C13.7784 17.49 13.6896 17.4968 13.6 17.5032V15.5084C14.0056 15.4816 14.4064 15.4496 14.8 15.4112V17.3976C14.5528 17.4236 14.3 17.448 14.0404 17.4692C13.9824 17.4744 13.9244 17.4788 13.8664 17.4832ZM15.6 17.3032V15.3248C16.0124 15.2752 16.4128 15.2188 16.8 15.156V17.12C16.4232 17.1864 16.0228 17.248 15.6 17.3032ZM17.6 15.0132C18.0248 14.9296 18.4264 14.8376 18.8 14.7368V16.6692C18.4436 16.772 18.0424 16.8716 17.6 16.9656V15.0132ZM12.13 13.186C11.8292 13.1784 11.5352 13.1668 11.2464 13.1528C11.2308 13.152 11.2152 13.1512 11.2 13.1508V11.1536C11.6008 11.1724 12.0036 11.1848 12.4064 11.192C12.4276 11.1924 12.4488 11.1928 12.4696 11.1932C12.5796 11.1952 12.6896 11.1968 12.7996 11.198V13.1952C12.6048 13.1932 12.4084 13.1924 12.2184 13.188C12.1892 13.1872 12.1592 13.1868 12.13 13.186ZM2.8 7.46962V5.53721C3.1736 5.63801 3.5752 5.73001 4 5.81361V7.76602C3.9508 7.75562 3.9 7.74522 3.852 7.73482C3.6392 7.68802 3.4316 7.63922 3.2332 7.58762C3.082 7.54882 2.9384 7.50922 2.8 7.46962ZM10.07 6.39321C10.18 6.39522 10.29 6.39681 10.4 6.39802V8.39522C9.86159 8.39002 9.3264 8.37602 8.79999 8.34962V6.35401C9.20079 6.37282 9.60359 6.38521 10.0064 6.39242C10.0276 6.39242 10.0488 6.39282 10.07 6.39321ZM11.5936 6.39201C11.9964 6.38441 12.3992 6.37201 12.8 6.35361V8.34922C12.732 8.35242 12.6668 8.35722 12.5984 8.36042C12.5928 8.36082 12.5872 8.36082 12.5812 8.36122C12.3128 8.37322 12.0392 8.38202 11.762 8.38842C11.7188 8.38962 11.6756 8.39002 11.6324 8.39122C11.49 8.39402 11.3444 8.39442 11.2 8.39602V6.39802C11.31 6.39681 11.42 6.39522 11.53 6.39321C11.5512 6.39282 11.5724 6.39242 11.5936 6.39201ZM20.7084 6.59282L20.6972 6.59042L20.5516 6.70362C20.3404 6.86802 20.016 7.03442 19.6 7.19522V5.29241C20.0756 5.12681 20.4804 4.94321 20.8 4.74201V6.39721C20.8 6.45801 20.768 6.52362 20.7084 6.59282ZM15.6 8.10082V6.12481C16.0124 6.07521 16.4128 6.01882 16.8 5.95602V7.91682C16.4208 7.98402 16.0216 8.04562 15.6 8.10082ZM17.6 7.76282V5.81361C18.0248 5.73001 18.4264 5.63801 18.8 5.53721V7.46522C18.4416 7.56962 18.038 7.66922 17.6 7.76282ZM14.8 6.21122V8.19522C14.4136 8.23602 14.0136 8.27162 13.6 8.30122V6.30841C14.0056 6.28161 14.4064 6.24921 14.8 6.21122ZM6.8 8.19602V6.21122C7.1936 6.24921 7.5944 6.28161 8 6.30841V8.29962C7.5928 8.27042 7.1912 8.23722 6.8 8.19602ZM6 6.12481V8.10122C5.9208 8.09082 5.8384 8.08242 5.76 8.07162C5.7088 8.06442 5.66 8.05682 5.6096 8.04962C5.3784 8.01642 5.1524 7.98082 4.9308 7.94362C4.8864 7.93602 4.8436 7.92802 4.8 7.92042V5.95641C5.1872 6.01881 5.5876 6.07561 6 6.12481ZM10.3008 13.0956C10.2468 13.0916 10.1924 13.0876 10.1388 13.0836C9.88279 13.0636 9.63279 13.0416 9.38879 13.0172C9.33639 13.012 9.28399 13.0064 9.23199 13.0012C9.22119 13 9.21079 12.9984 9.2 12.9976V11.0112C9.59359 11.0492 9.99439 11.0816 10.4 11.1084V13.102C10.3676 13.0996 10.3332 13.098 10.3008 13.0956ZM7.658 12.7968C7.4996 12.7716 7.3508 12.7444 7.2 12.718V10.7564C7.5872 10.8192 7.9876 10.8756 8.39999 10.9252V12.9036C8.1552 12.8712 7.9156 12.8376 7.6856 12.8016C7.6764 12.7996 7.6672 12.798 7.658 12.7968ZM6.4 10.6132V12.5624C5.958 12.4676 5.5572 12.3668 5.2 12.262V10.3368C5.5736 10.4376 5.9752 10.53 6.4 10.6132ZM4.4 10.0924V11.9928C3.7712 11.75 3.3656 11.502 3.2336 11.2812L3.2068 11.2364C3.2044 11.224 3.2004 11.2108 3.2 11.1984V9.54202C3.5196 9.74322 3.9244 9.92682 4.4 10.0924ZM13.9936 11.192C14.3964 11.1844 14.7992 11.172 15.2 11.1536V13.1488C14.6744 13.1748 14.14 13.1892 13.6 13.1948V11.198C13.71 11.1968 13.82 11.1952 13.93 11.1932C13.9512 11.1928 13.9724 11.1924 13.9936 11.192ZM19.1628 12.7268C18.9872 12.7572 18.81 12.7872 18.628 12.8148C18.5236 12.8308 18.4168 12.846 18.3096 12.8612C18.2084 12.8756 18.1032 12.888 18.0004 12.9012V10.9248C18.4128 10.8752 18.8132 10.8188 19.2004 10.756V12.72C19.1876 12.7224 19.1752 12.7248 19.1628 12.7268ZM16.4544 13.0684C16.3052 13.0808 16.1512 13.0888 16 13.0996V11.1084C16.4056 11.0816 16.8064 11.0496 17.2 11.0112V12.9956C16.9676 13.02 16.7356 13.0444 16.4968 13.0644C16.4824 13.0656 16.4688 13.0672 16.4544 13.0684ZM21.0256 12.3184C20.8264 12.374 20.6156 12.426 20.4004 12.4768C20.3008 12.5 20.1992 12.5232 20.0952 12.5456C20.0644 12.5524 20.0316 12.5584 20.0004 12.5652V10.6136C20.4252 10.53 20.8268 10.438 21.2004 10.3372V12.2696C21.1428 12.2856 21.0848 12.302 21.0256 12.3184ZM23.1956 8.42602C23.1588 8.69762 22.5432 9.05882 21.4444 9.39842C20.0292 9.83562 17.8148 10.236 15.0084 10.36C14.8648 10.366 14.7216 10.372 14.5752 10.3768C14.4556 10.3808 14.3356 10.3844 14.2136 10.3876C13.8824 10.3948 13.5464 10.4 13.2 10.4C12.8536 10.4 12.5176 10.3948 12.1864 10.3872C12.0648 10.3844 11.9448 10.3804 11.8248 10.3764C11.678 10.372 11.5348 10.3656 11.3916 10.3596C8.5852 10.2356 6.3704 9.83522 4.9556 9.39802C3.8656 9.06122 3.2512 8.70282 3.2056 8.43242C3.2076 8.42482 3.2076 8.41842 3.2124 8.40882C3.2396 8.41562 3.27 8.42122 3.2976 8.42802C3.454 8.46522 3.6144 8.50122 3.7776 8.53562C4.5724 8.70682 5.4532 8.84722 6.3916 8.95442C6.3948 8.95442 6.3972 8.95602 6.4 8.95602C6.4008 8.95602 6.4016 8.95562 6.402 8.95562C7.0412 9.02842 7.7044 9.08562 8.38519 9.12602C8.3904 9.12602 8.3948 9.12882 8.39999 9.12882C8.40279 9.12882 8.40479 9.12722 8.40759 9.12722C8.89759 9.15602 9.39399 9.17722 9.89639 9.18842C10.204 9.19602 10.506 9.20002 10.8 9.20002C11.01 9.20002 11.2252 9.19762 11.4424 9.19362C14.3488 9.14882 17.0424 8.80322 18.9168 8.26762C19.0032 8.24322 19.0876 8.21802 19.1708 8.19282C19.2216 8.17722 19.2736 8.16202 19.3228 8.14642C19.4676 8.10002 19.6064 8.05242 19.7404 8.00282C19.7636 7.99402 19.7856 7.98522 19.8088 7.97642C19.922 7.93362 20.0308 7.88922 20.1348 7.84402C20.1648 7.83082 20.1956 7.81802 20.2248 7.80482C20.3356 7.75482 20.4428 7.70362 20.542 7.65042C20.5868 7.62682 20.6256 7.60242 20.6676 7.57842C20.7156 7.55082 20.7636 7.52282 20.808 7.49442C20.8332 7.47842 20.8632 7.46322 20.8872 7.44722C22.678 7.83562 23.15 8.26042 23.1956 8.42602ZM10.8 2.00001C17.3956 2.00001 20.7316 3.03841 20.794 3.63441C20.7456 3.90481 20.1316 4.26201 19.0444 4.59801C17.6292 5.03521 15.4148 5.43561 12.6084 5.55961C12.4648 5.56561 12.3216 5.57161 12.1752 5.57641C12.0556 5.58041 11.9356 5.58401 11.8136 5.58721C11.4824 5.59481 11.1464 5.60001 10.8 5.60001C10.4536 5.60001 10.1176 5.59481 9.78639 5.58721C9.66479 5.58441 9.5448 5.58041 9.42479 5.57641C9.278 5.57201 9.1348 5.56561 8.9916 5.55961C6.1852 5.43561 3.9704 5.03521 2.5556 4.59801C1.468 4.26201 0.8544 3.90481 0.806 3.63441C0.8684 3.03841 4.2044 2.00001 10.8 2.00001ZM0.8 6.39842V4.74201C1.1196 4.94321 1.5244 5.12681 2 5.29241V7.20761C1.222 6.91602 0.8008 6.62362 0.8 6.39842ZM2.7376 11.934C2.7436 11.9404 2.7528 11.946 2.7588 11.9524C3.3064 12.5052 4.4404 12.9396 5.852 13.2636C5.8844 13.2712 5.9188 13.2784 5.9516 13.286C6.0552 13.3092 6.1604 13.332 6.2668 13.354C7.5632 13.63 9.1108 13.8296 10.7968 13.9284C10.798 13.9284 10.7988 13.9288 10.7996 13.9288C10.8004 13.9288 10.8008 13.9284 10.8012 13.9284C11.3428 13.96 11.8968 13.982 12.4624 13.9916C12.7128 13.9968 12.9592 14 13.2 14C13.476 14 13.7592 13.9968 14.0472 13.99C14.5704 13.9792 15.086 13.9576 15.5944 13.928C15.5964 13.928 15.598 13.9292 15.6 13.9292C15.6036 13.9292 15.6064 13.9272 15.61 13.9272C17.3004 13.8276 18.8864 13.626 20.2276 13.336C19.9372 13.488 19.5396 13.6452 19.0444 13.7984C17.5504 14.26 15.1644 14.6804 12.132 14.778C12.042 14.7808 11.9532 14.784 11.862 14.7864C11.764 14.7888 11.6644 14.7904 11.5648 14.7924C11.3132 14.7964 11.06 14.8 10.8 14.8C10.4536 14.8 10.1176 14.7948 9.78639 14.7872C9.66479 14.7844 9.5448 14.7804 9.42479 14.7764C9.278 14.772 9.1348 14.7656 8.9916 14.7596C6.1852 14.6356 3.9704 14.2352 2.5556 13.798C1.4556 13.458 0.839999 13.0964 0.804399 12.8248C0.848799 12.6744 1.2532 12.298 2.7376 11.934ZM0.8 15.5984V13.942C1.1196 14.1432 1.5244 14.3268 2 14.4924V16.4L1.7716 16.3112L1.7668 16.316C1.1388 16.0556 0.8008 15.8 0.8 15.5984ZM2 19.9984V18.342C2.3196 18.5432 2.7244 18.7268 3.2 18.8924V20.8076C2.422 20.516 2.0008 20.2236 2 19.9984ZM20.8 20.8076V18.8928C21.2756 18.7272 21.6804 18.5436 22 18.3424V19.9976C21.9996 20.2228 21.578 20.5156 20.8 20.8076ZM21.9948 17.2308C21.9512 17.5016 21.3368 17.8608 20.2444 18.1984C18.8292 18.6356 16.6148 19.036 13.8084 19.16C13.6648 19.166 13.5216 19.172 13.3752 19.1768C13.2556 19.1808 13.1356 19.1844 13.0136 19.1876C12.6824 19.1948 12.3464 19.2 12 19.2C11.6536 19.2 11.3172 19.1948 10.9856 19.1872C10.8652 19.1844 10.7464 19.1804 10.6276 19.1764C10.48 19.1716 10.336 19.1656 10.1916 19.1596C7.3852 19.0356 5.1708 18.6352 3.7556 18.198C2.6976 17.8712 2.0864 17.524 2.0096 17.256C2.1288 17.2976 2.2524 17.338 2.3792 17.3776C2.392 17.3816 2.4048 17.3856 2.4176 17.3892C2.5256 17.4224 2.636 17.4544 2.7492 17.4856C2.792 17.4976 2.8352 17.5096 2.8788 17.5212C2.9428 17.5384 3.0084 17.5548 3.074 17.5716C4.5308 17.9448 6.3904 18.2092 8.39799 18.328C8.3988 18.328 8.39919 18.3284 8.39999 18.3284C8.4004 18.3284 8.40079 18.328 8.4012 18.328C9.02119 18.3648 9.65439 18.3876 10.2944 18.3952C10.4648 18.3984 10.634 18.4 10.8 18.4C11.0204 18.4 11.246 18.3972 11.4744 18.3932C12.058 18.3836 12.634 18.362 13.1972 18.3284C13.1984 18.3284 13.1992 18.3292 13.2004 18.3292C13.2024 18.3292 13.2036 18.328 13.2056 18.328C13.8916 18.2868 14.5556 18.228 15.1936 18.1548C15.196 18.1548 15.198 18.156 15.2004 18.156C15.2092 18.156 15.2164 18.1516 15.2252 18.1508C15.9356 18.0688 16.6092 17.968 17.2344 17.8508C17.3632 17.8272 17.49 17.8028 17.6156 17.7776C17.6436 17.772 17.6716 17.7664 17.6996 17.7604C18.8808 17.518 19.9032 17.204 20.6048 16.8148C20.6432 16.794 20.6792 16.7724 20.7156 16.7512C20.76 16.7248 20.8024 16.698 20.8436 16.6708C20.882 16.646 20.9264 16.622 20.9616 16.5968C21.7512 16.8784 21.9688 17.1304 21.9948 17.2308ZM22 12.0076V10.0928C22.4756 9.92722 22.8804 9.74362 23.2 9.54242V11.1976C23.1996 11.4228 22.778 11.7156 22 12.0076Z" fill="#AAC1D6"/>
</svg>
