<svg width="20" height="24" viewBox="0 0 20 24" fill="none" xmlns="http://www.w3.org/2000/svg">
<path d="M0.546875 0V24H14.5412L19.4531 19.0881V0L0.546875 0ZM1.95312 1.40625H18.0469V17.7969H13.25V22.5938H1.95308V1.40625H1.95312ZM17.3493 19.2031L14.6562 21.8962V19.2031H17.3493Z" fill="#AAC1D6"/>
<path d="M7 4.29688H13V5.70312H7V4.29688Z" fill="#AAC1D6"/>
<path d="M4.25 7.79688H15.75V9.20312H4.25V7.79688Z" fill="#AAC1D6"/>
<path d="M4.25 10.7969H15.75V12.2031H4.25V10.7969Z" fill="#AAC1D6"/>
<path d="M4.25 13.7969H15.75V15.2031H4.25V13.7969Z" fill="#AAC1D6"/>
<path d="M4.25 17.7969H5.72652V19.2031H4.25V17.7969Z" fill="#AAC1D6"/>
<path d="M7.13281 17.7969H10.0001V19.2031H7.13281V17.7969Z" fill="#AAC1D6"/>
</svg>
