<svg width="17" height="14" viewBox="0 0 17 14" fill="none" xmlns="http://www.w3.org/2000/svg">
<path d="M16.36 7.17859C16.2192 6.99 12.8192 2.58594 8.50013 2.58594C8.09009 2.58684 7.68103 2.62597 7.27826 2.70281C7.20848 2.71439 7.14171 2.73979 7.08188 2.77752C7.02205 2.81524 6.97036 2.86454 6.92983 2.92251C6.8893 2.98048 6.86076 3.04596 6.84588 3.11511C6.83099 3.18426 6.83007 3.25569 6.84316 3.3252C6.85625 3.39471 6.88309 3.46091 6.9221 3.51991C6.96111 3.57891 7.01151 3.62953 7.07035 3.66879C7.12918 3.70805 7.19527 3.73517 7.26472 3.74855C7.33418 3.76193 7.40561 3.76131 7.47482 3.74672C7.8128 3.68224 8.15605 3.64934 8.50013 3.64844C11.6611 3.64844 14.405 6.5225 15.2497 7.5C14.7056 8.12914 14.1094 8.71116 13.4673 9.23984C13.4131 9.28403 13.3681 9.3385 13.335 9.40012C13.3018 9.46173 13.2812 9.52929 13.2743 9.5989C13.2673 9.66851 13.2742 9.73881 13.2945 9.80576C13.3148 9.87271 13.3481 9.935 13.3925 9.98904C13.4369 10.0431 13.4916 10.0878 13.5533 10.1207C13.6151 10.1535 13.6827 10.1739 13.7524 10.1805C13.822 10.1872 13.8923 10.18 13.9591 10.1594C14.026 10.1389 14.0882 10.1053 14.142 10.0606C14.9583 9.39465 15.7018 8.64405 16.36 7.82141C16.4302 7.72898 16.4682 7.61609 16.4682 7.5C16.4682 7.38391 16.4302 7.27102 16.36 7.17859Z" />
<path d="M12.8563 10.2333L10.5188 7.89579L8.1043 5.48126L6.02711 3.40407L3.25399 0.630949C3.15325 0.531617 3.01717 0.476373 2.8757 0.477369C2.73423 0.478365 2.59894 0.535521 2.49961 0.636262C2.40028 0.737002 2.34504 0.873077 2.34603 1.01455C2.34703 1.15602 2.40418 1.2913 2.50493 1.39064L4.76008 3.64579C3.17864 4.55636 1.78136 5.75455 0.640238 7.1786C0.570006 7.27103 0.531982 7.38392 0.531982 7.50001C0.531982 7.6161 0.570006 7.72899 0.640238 7.82142C0.781019 8.01001 4.18102 12.4141 8.50008 12.4141C9.87641 12.3823 11.2202 11.9893 12.3968 11.2745L14.6095 13.4952C14.7091 13.5948 14.8443 13.6509 14.9853 13.6509C15.1263 13.6509 15.2615 13.5948 15.3612 13.4952C15.4609 13.3955 15.5169 13.2603 15.5169 13.1193C15.5169 12.9783 15.4609 12.8431 15.3612 12.7434L12.8563 10.2333ZM7.6554 6.53314L9.46962 8.34735C9.35365 8.47967 9.21175 8.58678 9.05271 8.66204C8.89368 8.73731 8.72088 8.77913 8.54503 8.78491C8.36918 8.79069 8.19401 8.76032 8.03037 8.69567C7.86673 8.63102 7.71811 8.53347 7.59369 8.40905C7.46928 8.28464 7.37173 8.13601 7.30708 7.97238C7.24243 7.80874 7.21205 7.63357 7.21784 7.45772C7.22362 7.28187 7.26544 7.10907 7.3407 6.95004C7.41597 6.791 7.52308 6.6491 7.6554 6.53314ZM8.50008 11.3516C5.33915 11.3516 2.59524 8.47751 1.75055 7.50001C2.81523 6.24968 4.10105 5.20608 5.54368 4.42142L6.90633 5.78142C6.66954 5.99437 6.47859 6.25332 6.34514 6.54247C6.21168 6.83162 6.1385 7.14492 6.13007 7.46328C6.12164 7.78163 6.17813 8.09837 6.29609 8.39418C6.41406 8.68999 6.59103 8.95868 6.81622 9.18387C7.04141 9.40906 7.3101 9.58603 7.60591 9.704C7.90172 9.82196 8.21846 9.87845 8.53681 9.87002C8.85517 9.86159 9.16847 9.78841 9.45762 9.65496C9.74678 9.5215 10.0057 9.33055 10.2187 9.09376L11.6185 10.4936C10.6656 11.0322 9.59439 11.327 8.50008 11.3516Z" />
</svg>
