<svg width="24" height="24" viewBox="0 0 24 24" fill="none" xmlns="http://www.w3.org/2000/svg">
<g clip-path="url(#clip0_468_7095)">
<path d="M20.4134 6.51175L20.4127 6.49307C20.4023 6.26254 20.3953 6.01864 20.3911 5.74728C20.3715 4.42398 19.3196 3.32938 17.9961 3.25541C15.2367 3.10142 13.1021 2.20164 11.2782 0.423873L11.2626 0.409041C10.6677 -0.136428 9.77029 -0.136428 9.1752 0.409041L9.15963 0.423873C7.33573 2.20164 5.20109 3.10142 2.4417 3.25559C1.1184 3.32938 0.0662754 4.42398 0.0466832 5.74747C0.0426549 6.017 0.0355138 6.26089 0.0250768 6.49307L0.0239782 6.53647C-0.0296715 9.35024 -0.0963217 12.8521 1.07518 16.0306C1.71935 17.7786 2.69493 19.298 3.97465 20.5469C5.43217 21.9693 7.34122 23.0985 9.64871 23.9031C9.72378 23.9292 9.80178 23.9505 9.88125 23.9664C9.99331 23.9887 10.1061 23.9999 10.2189 23.9999C10.3317 23.9999 10.4447 23.9887 10.5565 23.9664C10.636 23.9505 10.7146 23.9291 10.79 23.9027C13.0947 23.0967 15.0018 21.9669 16.458 20.5447C17.7372 19.2954 18.7128 17.7756 19.3575 16.0273C20.5334 12.8393 20.4669 9.33083 20.4134 6.51175ZM18.0362 15.5401C16.8006 18.8902 14.2783 21.1909 10.3253 22.5733C10.3112 22.5781 10.2962 22.5823 10.2806 22.5854C10.2398 22.5935 10.1982 22.5935 10.1568 22.5852C10.1414 22.5821 10.1264 22.5781 10.1125 22.5733C6.15525 21.1935 3.63133 18.894 2.39665 15.5438C1.31688 12.6139 1.37804 9.39931 1.43206 6.56338L1.43242 6.54764C1.44341 6.30392 1.45073 6.04867 1.45476 5.76816C1.46355 5.18057 1.93157 4.69443 2.52025 4.66165C4.08177 4.5745 5.45359 4.27274 6.71408 3.73917C7.97293 3.20634 9.09097 2.45524 10.1317 1.44303C10.1847 1.39836 10.2533 1.39817 10.3061 1.44303C11.347 2.45524 12.465 3.20634 13.7237 3.73917C14.9842 4.27274 16.356 4.5745 17.9177 4.66165C18.5064 4.69443 18.9744 5.18057 18.983 5.76834C18.9872 6.05032 18.9946 6.30557 19.0056 6.54764C19.0594 9.38686 19.1191 12.604 18.0362 15.5401Z" fill="#AAC1D6"/>
<path d="M10.2194 6.01917C6.92133 6.01917 4.23828 8.70239 4.23828 12.0003C4.23828 15.2984 6.92133 17.9816 10.2194 17.9816C13.5173 17.9816 16.2006 15.2984 16.2006 12.0003C16.2006 8.70239 13.5173 6.01917 10.2194 6.01917ZM10.2194 16.5732C7.69788 16.5732 5.64655 14.5219 5.64655 12.0003C5.64655 9.47876 7.69788 7.42743 10.2194 7.42743C12.7408 7.42743 14.7921 9.47876 14.7921 12.0003C14.7921 14.5219 12.7408 16.5732 10.2194 16.5732Z" fill="#AAC1D6"/>
<path d="M11.9373 10.1435L9.15919 12.9216L8.40517 12.1675C8.13014 11.8925 7.68428 11.8925 7.40926 12.1675C7.13441 12.4426 7.13441 12.8884 7.40926 13.1633L8.66133 14.4153C8.79884 14.5528 8.97902 14.6215 9.15919 14.6215C9.33937 14.6215 9.51955 14.5528 9.65706 14.4153L12.9332 11.1392C13.208 10.8642 13.208 10.4183 12.9332 10.1435C12.6582 9.86827 12.2123 9.86827 11.9373 10.1435Z" fill="#AAC1D6"/>
</g>
<defs>
<clipPath id="clip0_468_7095">
<rect width="24" height="24" fill="white"/>
</clipPath>
</defs>
</svg>
