<svg width="24" height="22" viewBox="0 0 24 22" fill="none" xmlns="http://www.w3.org/2000/svg">
<path d="M12 8.70312C14.2487 8.70312 16.0781 6.87369 16.0781 4.625C16.0781 2.37631 14.2487 0.546875 12 0.546875C9.75131 0.546875 7.92188 2.37631 7.92188 4.625C7.92188 6.87369 9.75131 8.70312 12 8.70312ZM12 1.95312C13.4733 1.95312 14.6719 3.15172 14.6719 4.625C14.6719 6.09828 13.4733 7.29688 12 7.29688C10.5267 7.29688 9.32812 6.09828 9.32812 4.625C9.32812 3.15172 10.5267 1.95312 12 1.95312Z" fill="#AAC1D6"/>
<path d="M20.25 8.70312C21.6716 8.70312 22.8281 7.54658 22.8281 6.125C22.8281 4.70342 21.6716 3.54688 20.25 3.54688C18.8284 3.54688 17.6719 4.70342 17.6719 6.125C17.6719 7.54658 18.8284 8.70312 20.25 8.70312ZM20.25 4.95312C20.8962 4.95312 21.4219 5.47883 21.4219 6.125C21.4219 6.77117 20.8962 7.29688 20.25 7.29688C19.6038 7.29688 19.0781 6.77117 19.0781 6.125C19.0781 5.47883 19.6038 4.95312 20.25 4.95312Z" fill="#AAC1D6"/>
<path d="M20.8172 10.2969H19.7297C18.4482 10.2969 17.3419 11.054 16.8378 12.1415C15.8 11.0085 14.3092 10.2969 12.6553 10.2969H11.3448C9.69084 10.2969 8.20008 11.0085 7.16222 12.1415C6.65808 11.054 5.55183 10.2969 4.27031 10.2969H3.18281C1.42781 10.2969 0 11.7161 0 13.4605V18.5797C0 19.337 0.618469 19.9531 1.37869 19.9531H5.67839C5.75048 20.7922 6.45605 21.4531 7.31353 21.4531H16.6865C17.544 21.4531 18.2495 20.7922 18.3217 19.9531H22.5722C23.3595 19.9531 24 19.3152 24 18.5309V13.4605C24 11.7161 22.5722 10.2969 20.8172 10.2969ZM1.40625 13.4605C1.40625 12.4915 2.20322 11.7031 3.18281 11.7031H4.27031C5.24991 11.7031 6.04688 12.4915 6.04688 13.4605V13.9419C5.57405 15.173 5.67188 15.9109 5.67188 18.5469H1.40625V13.4605ZM16.9219 19.8115C16.9219 19.9413 16.8163 20.0469 16.6865 20.0469H7.31348C7.18369 20.0469 7.07812 19.9413 7.07812 19.8115V15.9698C7.07812 13.6171 8.99212 11.7031 11.3447 11.7031H12.6552C15.0079 11.7031 16.9219 13.6171 16.9219 15.9697V19.8115ZM22.5938 18.5309C22.5938 18.5552 22.8559 18.5469 18.3281 18.5469C18.3281 15.8914 18.4252 15.171 17.9531 13.9419V13.4605C17.9531 12.4915 18.7501 11.7031 19.7297 11.7031H20.8172C21.7968 11.7031 22.5938 12.4915 22.5938 13.4605V18.5309Z" fill="#AAC1D6"/>
<path d="M3.75 8.70312C5.17158 8.70312 6.32812 7.54658 6.32812 6.125C6.32812 4.70342 5.17158 3.54688 3.75 3.54688C2.32842 3.54688 1.17188 4.70342 1.17188 6.125C1.17188 7.54658 2.32842 8.70312 3.75 8.70312ZM3.75 4.95312C4.39617 4.95312 4.92188 5.47883 4.92188 6.125C4.92188 6.77117 4.39617 7.29688 3.75 7.29688C3.10383 7.29688 2.57812 6.77117 2.57812 6.125C2.57812 5.47883 3.10383 4.95312 3.75 4.95312Z" fill="#AAC1D6"/>
</svg>
