<svg width="26" height="26" viewBox="0 0 26 26" fill="none" xmlns="http://www.w3.org/2000/svg">
<defs>
<filter id="filter0_di_167_7636" x="0" y="0" width="26" height="26" filterUnits="userSpaceOnUse" color-interpolation-filters="sRGB">
<feFlood flood-opacity="0" result="BackgroundImageFix"/>
<feColorMatrix in="SourceAlpha" type="matrix" values="0 0 0 0 0 0 0 0 0 0 0 0 0 0 0 0 0 0 127 0" result="hardAlpha"/>
<feOffset dy="3"/>
<feGaussianBlur stdDeviation="2.5"/>
<feComposite in2="hardAlpha" operator="out"/>
<feColorMatrix type="matrix" values="0 0 0 0 0 0 0 0 0 0 0 0 0 0 0 0 0 0 0.47 0"/>
<feBlend mode="normal" in2="BackgroundImageFix" result="effect1_dropShadow_167_7636"/>
<feBlend mode="normal" in="SourceGraphic" in2="effect1_dropShadow_167_7636" result="shape"/>
<feColorMatrix in="SourceAlpha" type="matrix" values="0 0 0 0 0 0 0 0 0 0 0 0 0 0 0 0 0 0 127 0" result="hardAlpha"/>
<feOffset dy="1"/>
<feGaussianBlur stdDeviation="1.5"/>
<feComposite in2="hardAlpha" operator="arithmetic" k2="-1" k3="1"/>
<feColorMatrix type="matrix" values="0 0 0 0 1 0 0 0 0 0.828293 0 0 0 0 0.6 0 0 0 1 0"/>
<feBlend mode="normal" in2="shape" result="effect2_innerShadow_167_7636"/>
</filter>
</defs>
<g filter="url(#filter0_di_167_7636)">
<path d="M10.334 10C10.334 8.5273 11.5276 7.33312 13.0003 7.33312C14.4731 7.33312 15.6673 8.5273 15.6673 10C15.6673 11.4727 14.4731 12.6669 13.0003 12.6669C11.5276 12.6669 10.334 11.4727 10.334 10ZM8.89225 10C8.89225 12.2688 10.7314 14.1079 13.0003 14.1079C15.2692 14.1079 17.1084 12.2688 17.1084 10C17.1084 7.7312 15.2692 5.8921 13.0003 5.8921C10.7314 5.8921 8.89225 7.7312 8.89225 10ZM16.311 5.72922C16.3109 5.91909 16.3671 6.10471 16.4726 6.26263C16.578 6.42054 16.7279 6.54365 16.9033 6.61638C17.0787 6.68911 17.2717 6.7082 17.4579 6.67123C17.6442 6.63426 17.8153 6.5429 17.9496 6.40869C18.0839 6.27449 18.1754 6.10347 18.2125 5.91726C18.2497 5.73106 18.2307 5.53802 18.1581 5.36258C18.0855 5.18713 17.9625 5.03715 17.8047 4.9316C17.6469 4.82605 17.4613 4.76968 17.2714 4.7696H17.271C17.0165 4.76972 16.7724 4.87085 16.5924 5.05077C16.4124 5.2307 16.3112 5.47471 16.311 5.72922ZM9.76819 16.5118C8.98819 16.4763 8.56424 16.3464 8.2825 16.2366C7.90898 16.0912 7.64247 15.918 7.36227 15.6382C7.08207 15.3584 6.90862 15.0922 6.76385 14.7187C6.65402 14.4371 6.52409 14.013 6.48864 13.233C6.44985 12.3898 6.44211 12.1364 6.44211 10.0001C6.44211 7.86368 6.45049 7.61107 6.48864 6.7671C6.52416 5.98714 6.65504 5.5639 6.76385 5.28147C6.90926 4.90797 7.08245 4.64147 7.36227 4.36128C7.64209 4.08109 7.90834 3.90765 8.2825 3.76288C8.56411 3.65306 8.98819 3.52314 9.76819 3.48768C10.6115 3.4489 10.8648 3.44115 13.0003 3.44115C15.1358 3.44115 15.3894 3.44954 16.2334 3.48768C17.0134 3.5232 17.4367 3.65408 17.7191 3.76288C18.0926 3.90765 18.3591 4.08147 18.6393 4.36128C18.9195 4.64109 19.0923 4.90797 19.2378 5.28147C19.3476 5.56307 19.4775 5.98714 19.513 6.7671C19.5518 7.61107 19.5595 7.86368 19.5595 10.0001C19.5595 12.1364 19.5518 12.3891 19.513 13.233C19.4774 14.013 19.3469 14.4369 19.2378 14.7187C19.0923 15.0922 18.9192 15.3587 18.6393 15.6382C18.3595 15.9178 18.0926 16.0912 17.7191 16.2366C17.4375 16.3464 17.0134 16.4764 16.2334 16.5118C15.3901 16.5506 15.1368 16.5583 13.0003 16.5583C10.8639 16.5583 10.6112 16.5506 9.76819 16.5118ZM9.70195 2.04845C8.85027 2.08723 8.26829 2.22227 7.76005 2.42003C7.23369 2.62426 6.7881 2.89824 6.34284 3.34278C5.89757 3.78733 5.62428 4.2336 5.42005 4.75994C5.22228 5.26848 5.08724 5.85011 5.04845 6.70176C5.00902 7.55475 5 7.82746 5 10C5 12.1725 5.00902 12.4452 5.04845 13.2982C5.08724 14.15 5.22228 14.7315 5.42005 15.2401C5.62428 15.7661 5.89764 16.2129 6.34284 16.6572C6.78804 17.1016 7.23369 17.3752 7.76005 17.58C8.26925 17.7777 8.85027 17.9128 9.70195 17.9516C10.5554 17.9903 10.8277 18 13.0003 18C15.173 18 15.4457 17.991 16.2987 17.9516C17.1504 17.9128 17.732 17.7777 18.2406 17.58C18.7666 17.3752 19.2125 17.1018 19.6578 16.6572C20.1031 16.2127 20.3758 15.7661 20.5806 15.2401C20.7784 14.7315 20.914 14.1499 20.9522 13.2982C20.991 12.4446 21 12.1725 21 10C21 7.82746 20.991 7.55475 20.9522 6.70176C20.9134 5.85005 20.7784 5.26816 20.5806 4.75994C20.3758 4.23392 20.1024 3.78803 19.6578 3.34278C19.2132 2.89754 18.7666 2.62426 18.2412 2.42003C17.732 2.22227 17.1504 2.08659 16.2993 2.04845C15.4463 2.00966 15.1736 2 13.001 2C10.8283 2 10.5554 2.00902 9.70195 2.04845Z" fill="#EF8E2E"/>
</g>
</svg>
