<svg width="14" height="14" viewBox="0 0 14 14" fill="none" xmlns="http://www.w3.org/2000/svg">
<path d="M12.4991 0H5.99905C5.17062 0 4.49905 0.671572 4.49905 1.5V4.5C4.49905 4.77615 4.72291 5.00001 4.99906 5.00001C5.27521 5.00001 5.49907 4.77615 5.49907 4.5V1.5C5.49907 1.22385 5.72293 0.99999 5.99908 0.99999H12.4991C12.7752 0.99999 12.9991 1.22385 12.9991 1.5V12.5C12.9991 12.7762 12.7752 13 12.4991 13H5.99905C5.7229 13 5.49904 12.7762 5.49904 12.5V9.5C5.49904 9.22385 5.27518 8.99999 4.99903 8.99999C4.72288 8.99999 4.49902 9.22385 4.49902 9.5V12.5C4.49902 13.3284 5.1706 14 5.99902 14H12.499C13.3275 14 13.999 13.3284 13.999 12.5V1.5C13.9991 0.671572 13.3275 0 12.4991 0Z" />
<path d="M9.99938 6.50001H1.70641L3.35292 4.8535C3.54476 4.65486 3.53925 4.33834 3.34062 4.1465C3.14685 3.95938 2.83967 3.95938 2.64593 4.1465L0.145913 6.64649C0.0994774 6.69296 0.0627685 6.74818 0.0379248 6.809C-0.0126416 6.93132 -0.0126416 7.06869 0.0379248 7.191C0.0628857 7.25203 0.0997704 7.30743 0.146411 7.35401L2.6464 9.854C2.83823 10.0526 3.15476 10.0581 3.35339 9.8663C3.55202 9.67447 3.55753 9.35795 3.36569 9.15931C3.36168 9.15515 3.35758 9.15105 3.35339 9.14701L1.70641 7.5H9.99941C10.2756 7.5 10.4994 7.27614 10.4994 6.99999C10.4994 6.72384 10.2755 6.50001 9.99938 6.50001Z" />
</svg>
