<svg width="22" height="20" viewBox="0 0 22 20" fill="none" xmlns="http://www.w3.org/2000/svg">
<path d="M19.25 0.25H2.75C2.336 0.25 2 0.586 2 1V10.75C2 10.774 2.01125 10.7943 2.0135 10.8175C1.079 11.7662 0.5 13.066 0.5 14.5C0.5 17.395 2.855 19.75 5.75 19.75C8.12375 19.75 10.1315 18.166 10.7787 16H19.25C20.4905 16 21.5 14.9905 21.5 13.75V10V6.25V2.5C21.5 1.2595 20.4905 0.25 19.25 0.25ZM5.75 18.25C3.68225 18.25 2 16.5677 2 14.5C2 12.4323 3.68225 10.75 5.75 10.75C7.81775 10.75 9.5 12.4323 9.5 14.5C9.5 16.5677 7.81775 18.25 5.75 18.25ZM20 9.25H18.125C17.5047 9.25 17 8.74525 17 8.125C17 7.50475 17.5047 7 18.125 7H20V9.25ZM20 5.5H18.125C16.6775 5.5 15.5 6.6775 15.5 8.125C15.5 9.5725 16.6775 10.75 18.125 10.75H20V13.75C20 14.1632 19.6632 14.5 19.25 14.5H11C11 11.605 8.645 9.25 5.75 9.25C4.94375 9.25 4.18325 9.4375 3.5 9.76375V1.75H19.25C19.6632 1.75 20 2.08675 20 2.5V5.5Z" fill="#AAC1D6"/>
<path d="M8.375 14.5C8.375 14.914 8.039 15.25 7.625 15.25H6.5V16.375C6.5 16.789 6.164 17.125 5.75 17.125C5.336 17.125 5 16.789 5 16.375V15.25H3.875C3.461 15.25 3.125 14.914 3.125 14.5C3.125 14.086 3.461 13.75 3.875 13.75H5V12.625C5 12.211 5.336 11.875 5.75 11.875C6.164 11.875 6.5 12.211 6.5 12.625V13.75H7.625C8.039 13.75 8.375 14.086 8.375 14.5Z" fill="#AAC1D6"/>
</svg>
