<svg width="30" height="30" viewBox="0 0 30 30" fill="none" xmlns="http://www.w3.org/2000/svg">
<g filter="url(#filter0_di_313_4840)">
<path d="M23.4853 5.51469C21.2188 3.24823 18.2053 2 15 2C11.7947 2 8.78119 3.24823 6.51469 5.51469C4.24823 7.78123 3 10.7947 3 14C3 17.2054 4.24823 20.2188 6.51469 22.4853C8.78119 24.7518 11.7947 26 15 26C18.2053 26 21.2188 24.7518 23.4853 22.4853C25.7518 20.2188 27 17.2054 27 14C27 10.7947 25.7518 7.78123 23.4853 5.51469ZM15 24.5938C9.15858 24.5938 4.40625 19.8414 4.40625 14C4.40625 8.15858 9.15858 3.40625 15 3.40625C20.8414 3.40625 25.5938 8.15858 25.5938 14C25.5938 19.8414 20.8414 24.5938 15 24.5938Z" fill="#EF2E2E"/>
</g>
<g filter="url(#filter1_di_313_4840)">
<rect width="2" height="17" rx="1" transform="matrix(-0.707107 -0.707107 -0.707107 0.707107 22 9)" fill="#EF2E2E"/>
</g>
<defs>
<filter id="filter0_di_313_4840" x="0" y="0" width="30" height="30" filterUnits="userSpaceOnUse" color-interpolation-filters="sRGB">
<feFlood flood-opacity="0" result="BackgroundImageFix"/>
<feColorMatrix in="SourceAlpha" type="matrix" values="0 0 0 0 0 0 0 0 0 0 0 0 0 0 0 0 0 0 127 0" result="hardAlpha"/>
<feOffset dy="1"/>
<feGaussianBlur stdDeviation="1.5"/>
<feComposite in2="hardAlpha" operator="out"/>
<feColorMatrix type="matrix" values="0 0 0 0 0 0 0 0 0 0 0 0 0 0 0 0 0 0 0.71 0"/>
<feBlend mode="normal" in2="BackgroundImageFix" result="effect1_dropShadow_313_4840"/>
<feBlend mode="normal" in="SourceGraphic" in2="effect1_dropShadow_313_4840" result="shape"/>
<feColorMatrix in="SourceAlpha" type="matrix" values="0 0 0 0 0 0 0 0 0 0 0 0 0 0 0 0 0 0 127 0" result="hardAlpha"/>
<feOffset dy="1"/>
<feGaussianBlur stdDeviation="0.5"/>
<feComposite in2="hardAlpha" operator="arithmetic" k2="-1" k3="1"/>
<feColorMatrix type="matrix" values="0 0 0 0 1 0 0 0 0 0.6 0 0 0 0 0.6 0 0 0 1 0"/>
<feBlend mode="normal" in2="shape" result="effect2_innerShadow_313_4840"/>
</filter>
<filter id="filter1_di_313_4840" x="5.97852" y="6" width="18.6074" height="18.6066" filterUnits="userSpaceOnUse" color-interpolation-filters="sRGB">
<feFlood flood-opacity="0" result="BackgroundImageFix"/>
<feColorMatrix in="SourceAlpha" type="matrix" values="0 0 0 0 0 0 0 0 0 0 0 0 0 0 0 0 0 0 127 0" result="hardAlpha"/>
<feOffset dy="1"/>
<feGaussianBlur stdDeviation="1.5"/>
<feComposite in2="hardAlpha" operator="out"/>
<feColorMatrix type="matrix" values="0 0 0 0 0 0 0 0 0 0 0 0 0 0 0 0 0 0 0.71 0"/>
<feBlend mode="normal" in2="BackgroundImageFix" result="effect1_dropShadow_313_4840"/>
<feBlend mode="normal" in="SourceGraphic" in2="effect1_dropShadow_313_4840" result="shape"/>
<feColorMatrix in="SourceAlpha" type="matrix" values="0 0 0 0 0 0 0 0 0 0 0 0 0 0 0 0 0 0 127 0" result="hardAlpha"/>
<feOffset dy="1"/>
<feGaussianBlur stdDeviation="0.5"/>
<feComposite in2="hardAlpha" operator="arithmetic" k2="-1" k3="1"/>
<feColorMatrix type="matrix" values="0 0 0 0 1 0 0 0 0 0.6 0 0 0 0 0.6 0 0 0 1 0"/>
<feBlend mode="normal" in2="shape" result="effect2_innerShadow_313_4840"/>
</filter>
</defs>
</svg>
