<svg width="24" height="24" viewBox="0 0 24 24" fill="none" xmlns="http://www.w3.org/2000/svg">
<g clip-path="url(#clip0_468_7146)">
<path d="M22.4834 16.6619L22.1947 16.5022L22.4834 16.3382C22.7423 16.1925 22.9695 15.9967 23.1519 15.7623C23.3343 15.5279 23.4682 15.2595 23.5459 14.9728C23.6235 14.6861 23.6432 14.3868 23.604 14.0924C23.5647 13.798 23.4673 13.5143 23.3173 13.258L22.9364 12.6086C22.6303 12.0937 22.1346 11.7192 21.5556 11.5655C20.9766 11.4118 20.3604 11.4911 19.8392 11.7865L19.5283 11.9535V11.625C19.5247 11.0255 19.2833 10.4519 18.8573 10.0301C18.4313 9.60832 17.8553 9.37272 17.2558 9.37502H16.4941C15.8946 9.37272 15.3186 9.60832 14.8926 10.0301C14.4666 10.4519 14.2253 11.0255 14.2216 11.625L14.1996 11.9506L13.9111 11.7869C13.6627 11.646 13.3899 11.5533 13.1071 11.5136C13.1343 11.4735 13.1623 11.4341 13.1871 11.3917L13.5678 10.7421C13.7178 10.4857 13.8153 10.2021 13.8545 9.90764C13.8938 9.61322 13.874 9.31394 13.7964 9.02723C13.7188 8.74053 13.5849 8.47214 13.4025 8.23773C13.2201 8.00331 12.9928 7.80755 12.734 7.66187L12.4452 7.50223L12.734 7.33817C12.9928 7.19248 13.2201 6.99672 13.4025 6.76231C13.5849 6.52789 13.7188 6.2595 13.7964 5.9728C13.874 5.6861 13.8938 5.38681 13.8545 5.09239C13.8153 4.79797 13.7178 4.51431 13.5678 4.25795L13.1871 3.60864C12.881 3.09365 12.3853 2.71913 11.8063 2.56543C11.2272 2.41174 10.611 2.49111 10.0899 2.78653L9.779 2.95352V2.62502C9.77533 2.02551 9.53401 1.45194 9.10799 1.03013C8.68196 0.608321 8.10601 0.372721 7.5065 0.375017H6.74476C6.14525 0.372721 5.56931 0.608321 5.14328 1.03013C4.71725 1.45194 4.47593 2.02551 4.47226 2.62502L4.45029 2.95059L4.16154 2.78687C3.64042 2.4914 3.02426 2.41191 2.44521 2.56543C1.86616 2.71896 1.37032 3.09328 1.06404 3.60812L0.683302 4.25795C0.533295 4.51431 0.435826 4.79797 0.396576 5.09239C0.357327 5.38681 0.377084 5.6861 0.454695 5.9728C0.532305 6.2595 0.666217 6.52789 0.848622 6.76231C1.03103 6.99672 1.25827 7.19248 1.51711 7.33817L1.80568 7.4978L1.51711 7.66187C1.25827 7.80755 1.03103 8.00331 0.848622 8.23773C0.666217 8.47214 0.532305 8.74053 0.454695 9.02723C0.377084 9.31394 0.357327 9.61322 0.396576 9.90764C0.435826 10.2021 0.533295 10.4857 0.683302 10.7421L1.06415 11.3914C1.37014 11.9065 1.86586 12.281 2.44492 12.4347C3.02397 12.5884 3.6402 12.509 4.16135 12.2135L4.47223 12.0465V12.375C4.4759 12.9745 4.71722 13.5481 5.14324 13.9699C5.56927 14.3917 6.14521 14.6273 6.74473 14.625H7.50643C8.10594 14.6273 8.68188 14.3917 9.10791 13.9699C9.53394 13.5481 9.77526 12.9745 9.77893 12.375L9.8009 12.0494L10.0894 12.2132C10.3378 12.3541 10.6105 12.4469 10.8933 12.4867C10.8662 12.5267 10.8382 12.566 10.8134 12.6083L10.4328 13.258C10.2828 13.5143 10.1853 13.798 10.1461 14.0924C10.1068 14.3868 10.1266 14.6861 10.2042 14.9728C10.2818 15.2595 10.4157 15.5279 10.5981 15.7623C10.7805 15.9967 11.0077 16.1925 11.2666 16.3382L11.5553 16.4978L11.2666 16.6619C11.0077 16.8076 10.7805 17.0033 10.5981 17.2377C10.4157 17.4721 10.2818 17.7405 10.2042 18.0272C10.1266 18.3139 10.1068 18.6132 10.1461 18.9076C10.1853 19.2021 10.2828 19.4857 10.4328 19.7421L10.8136 20.3914C11.1196 20.9065 11.6153 21.2812 12.1944 21.4349C12.7734 21.5886 13.3897 21.5091 13.9108 21.2135L14.2217 21.0465V21.375C14.2254 21.9745 14.4667 22.5481 14.8927 22.9699C15.3187 23.3917 15.8947 23.6273 16.4942 23.625H17.2559C17.8554 23.6273 18.4314 23.3917 18.8574 22.9699C19.2834 22.5481 19.5247 21.9745 19.5284 21.375L19.5504 21.0494L19.8391 21.2132C20.3602 21.5089 20.9764 21.5886 21.5556 21.435C22.1347 21.2815 22.6305 20.907 22.9366 20.3919L23.3175 19.7423C23.4675 19.4859 23.565 19.2022 23.6042 18.9078C23.6435 18.6134 23.6237 18.3141 23.5461 18.0274C23.4685 17.7407 23.3346 17.4723 23.1522 17.2379C22.9698 17.0035 22.7425 16.8077 22.4837 16.6621L22.4834 16.6619ZM10.5421 10.7454C10.3114 10.6125 10.0496 10.5431 9.78337 10.5444C9.51713 10.5456 9.25597 10.6174 9.02649 10.7524C8.79854 10.8826 8.60926 11.0711 8.47795 11.2985C8.34665 11.5258 8.27804 11.784 8.27911 12.0465V12.375C8.27579 12.5768 8.19262 12.769 8.04782 12.9096C7.90302 13.0502 7.70841 13.1277 7.50661 13.125H6.74476C6.54297 13.1277 6.34836 13.0502 6.20356 12.9096C6.05876 12.769 5.97559 12.5768 5.97226 12.375V12.0465C5.97334 11.784 5.90473 11.5258 5.77342 11.2985C5.64212 11.0711 5.45283 10.8826 5.22489 10.7524C4.99562 10.6171 4.73457 10.5452 4.4684 10.5439C4.20223 10.5426 3.94048 10.6119 3.70989 10.7449L3.42058 10.9093C3.2425 11.0112 3.03161 11.0393 2.83305 10.9876C2.6345 10.936 2.46408 10.8086 2.35828 10.6328L1.97743 9.9833C1.92795 9.90002 1.89568 9.80766 1.88254 9.71169C1.86939 9.61571 1.87563 9.51807 1.90089 9.42455C1.92682 9.32809 1.9718 9.2378 2.03318 9.15899C2.09456 9.08019 2.17109 9.01447 2.25826 8.9657L2.5472 8.80164C2.77783 8.67147 2.96971 8.48234 3.10322 8.25363C3.23674 8.02493 3.30707 7.76485 3.30703 7.50002C3.307 7.23519 3.23658 6.97513 3.10301 6.74646C2.96943 6.51779 2.77749 6.32873 2.54683 6.19862L2.25826 6.03455C2.17109 5.98579 2.09456 5.92007 2.03318 5.84127C1.9718 5.76246 1.92682 5.67217 1.90089 5.5757C1.87563 5.48218 1.86939 5.38455 1.88254 5.28857C1.89568 5.1926 1.92795 5.10024 1.97743 5.01695L2.35824 4.36693C2.46415 4.19115 2.6347 4.06386 2.83334 4.01232C3.03198 3.96077 3.2429 3.98909 3.42091 4.09119L3.7091 4.25488C3.93979 4.38783 4.20161 4.45724 4.46786 4.45601C4.73412 4.45479 4.99529 4.38298 5.22474 4.2479C5.45268 4.11761 5.64197 3.92916 5.77327 3.7018C5.90458 3.47443 5.97319 3.21629 5.97211 2.95374V2.62502C5.97544 2.42323 6.05861 2.23099 6.20341 2.09041C6.34821 1.94983 6.54282 1.87238 6.74461 1.87502H7.50631C7.70811 1.87238 7.90272 1.94983 8.04752 2.09041C8.19232 2.23099 8.27549 2.42323 8.27881 2.62502V2.95352C8.27774 3.21607 8.34635 3.47421 8.47766 3.70157C8.60896 3.92894 8.79824 4.11739 9.02619 4.24768C9.25547 4.38285 9.51652 4.45477 9.78268 4.45608C10.0488 4.4574 10.3106 4.38807 10.5412 4.25518L10.8305 4.09074C11.0085 3.98871 11.2195 3.96052 11.4181 4.01221C11.6167 4.06389 11.7871 4.19135 11.8928 4.36723L12.2736 5.01688C12.3231 5.10016 12.3554 5.19252 12.3685 5.2885C12.3817 5.38447 12.3754 5.48211 12.3502 5.57563C12.3242 5.67209 12.2792 5.76238 12.2179 5.84119C12.1565 5.91999 12.08 5.98572 11.9928 6.03448L11.704 6.19854C11.4734 6.32872 11.2815 6.51784 11.148 6.74655C11.0145 6.97526 10.9442 7.23534 10.9442 7.50016C10.9442 7.76499 11.0146 8.02505 11.1482 8.25372C11.2818 8.48239 11.4737 8.67146 11.7044 8.80157L11.9932 8.96563C12.0803 9.01439 12.1569 9.08011 12.2182 9.15892C12.2796 9.23772 12.3246 9.32802 12.3505 9.42448C12.3758 9.518 12.382 9.61564 12.3689 9.71161C12.3557 9.80758 12.3235 9.89995 12.274 9.98323L11.8932 10.6333C11.7874 10.8092 11.6168 10.9366 11.4182 10.9881C11.2195 11.0397 11.0085 11.0113 10.8305 10.909L10.5421 10.7454ZM21.4537 17.8015L21.7425 17.9656C21.8297 18.0144 21.9062 18.0801 21.9676 18.1589C22.0289 18.2377 22.0739 18.328 22.0999 18.4244C22.1251 18.518 22.1313 18.6156 22.1182 18.7116C22.1051 18.8075 22.0728 18.8999 22.0233 18.9832L21.6425 19.6332C21.5367 19.8091 21.3661 19.9364 21.1674 19.988C20.9688 20.0395 20.7578 20.0112 20.5798 19.909L20.2916 19.7453C20.0609 19.6124 19.7991 19.543 19.5329 19.5443C19.2666 19.5455 19.0055 19.6173 18.776 19.7522C18.5481 19.8825 18.3588 20.071 18.2275 20.2983C18.0962 20.5257 18.0275 20.7839 18.0286 21.0464V21.375C18.0253 21.5768 17.9421 21.769 17.7973 21.9096C17.6525 22.0502 17.4579 22.1277 17.2561 22.125H16.4941C16.2923 22.1277 16.0977 22.0502 15.9529 21.9096C15.8081 21.769 15.7249 21.5768 15.7216 21.375V21.0465C15.7227 20.784 15.6541 20.5258 15.5227 20.2985C15.3914 20.0711 15.2022 19.8826 14.9742 19.7524C14.7449 19.6171 14.4839 19.5452 14.2177 19.5439C13.9516 19.5426 13.6898 19.6119 13.4592 19.7449L13.1699 19.9093C12.9918 20.0112 12.7809 20.0393 12.5824 19.9876C12.3838 19.9359 12.2134 19.8086 12.1076 19.6328L11.7268 18.9832C11.6773 18.8999 11.645 18.8075 11.6319 18.7115C11.6188 18.6156 11.625 18.5179 11.6503 18.4244C11.6762 18.3279 11.7212 18.2376 11.7825 18.1588C11.8439 18.08 11.9205 18.0143 12.0076 17.9656L12.2964 17.8015C12.527 17.6713 12.7189 17.4822 12.8524 17.2535C12.9859 17.0248 13.0562 16.7647 13.0562 16.4999C13.0562 16.235 12.9858 15.975 12.8522 15.7463C12.7186 15.5176 12.5267 15.3286 12.296 15.1985L12.0073 15.0344C11.9201 14.9856 11.8435 14.9199 11.7822 14.8411C11.7208 14.7623 11.6758 14.672 11.6499 14.5756C11.6246 14.482 11.6184 14.3844 11.6315 14.2884C11.6447 14.1924 11.6769 14.1001 11.7264 14.0168L12.1072 13.3668C12.2132 13.191 12.3837 13.0637 12.5823 13.0122C12.781 12.9607 12.9919 12.989 13.1699 13.091L13.4581 13.2547C13.6888 13.3877 13.9506 13.4571 14.2169 13.4559C14.4831 13.4546 14.7443 13.3828 14.9737 13.2478C15.2017 13.1175 15.391 12.929 15.5223 12.7016C15.6536 12.4743 15.7222 12.2161 15.7211 11.9536V11.625C15.7244 11.4232 15.8076 11.231 15.9524 11.0904C16.0972 10.9498 16.2918 10.8724 16.4936 10.875H17.2553C17.4571 10.8724 17.6517 10.9498 17.7965 11.0904C17.9413 11.231 18.0245 11.4232 18.0278 11.625V11.9535C18.0267 12.2161 18.0953 12.4742 18.2266 12.7016C18.3579 12.9289 18.5472 13.1174 18.7752 13.2477C19.0045 13.3829 19.2655 13.4548 19.5317 13.4561C19.7978 13.4574 20.0596 13.3881 20.2902 13.2552L20.5795 13.0907C20.7575 12.9886 20.9685 12.9604 21.1671 13.0121C21.3657 13.0638 21.5361 13.1913 21.6418 13.3672L22.0226 14.0169C22.0721 14.1002 22.1043 14.1925 22.1175 14.2885C22.1306 14.3845 22.1244 14.4821 22.0991 14.5756C22.0732 14.6721 22.0282 14.7624 21.9668 14.8412C21.9055 14.92 21.8289 14.9857 21.7418 15.0345L21.4528 15.1985C21.2222 15.3287 21.0303 15.5178 20.8968 15.7465C20.7633 15.9753 20.693 16.2353 20.693 16.5002C20.693 16.765 20.7634 17.0251 20.897 17.2537C21.0306 17.4824 21.2225 17.6715 21.4532 17.8016L21.4537 17.8015ZM9.03748 22.1638C9.01402 22.3443 8.92577 22.51 8.78917 22.6302C8.65257 22.7504 8.47693 22.8169 8.29498 22.8172C8.26229 22.8172 8.22963 22.8152 8.19721 22.8109C7.1961 22.6808 6.23042 22.3548 5.35531 21.8514C4.48021 21.3481 3.71282 20.6773 3.09696 19.8774C2.48111 19.0774 2.02884 18.164 1.766 17.1893C1.50316 16.2146 1.43489 15.1976 1.56508 14.1965C1.57705 14.0983 1.60836 14.0033 1.6572 13.9172C1.70604 13.8311 1.77145 13.7555 1.84964 13.6948C1.92784 13.6341 2.01729 13.5895 2.11282 13.5635C2.20835 13.5375 2.30808 13.5307 2.40625 13.5435C2.50442 13.5563 2.5991 13.5883 2.68482 13.6379C2.77053 13.6874 2.8456 13.7534 2.90568 13.8321C2.96575 13.9108 3.00966 14.0006 3.03486 14.0963C3.06007 14.192 3.06607 14.2918 3.05251 14.3899C2.84097 16.0172 3.2845 17.6618 4.28554 18.9621C5.28659 20.2624 6.76314 21.1118 8.39041 21.3234C8.48809 21.3361 8.5823 21.3679 8.66768 21.417C8.75306 21.4661 8.82793 21.5315 8.88801 21.6096C8.9481 21.6876 8.99222 21.7767 9.01787 21.8718C9.04351 21.9669 9.05018 22.0662 9.03748 22.1638ZM14.3087 1.89002C14.3069 1.79152 14.3244 1.69363 14.3604 1.60193C14.3964 1.51024 14.4501 1.42653 14.5185 1.35559C14.5868 1.28465 14.6685 1.22787 14.7588 1.1885C14.8491 1.14912 14.9463 1.12792 15.0448 1.1261C15.0927 1.12539 15.1414 1.12502 15.1894 1.12502C17.2024 1.12795 19.1342 1.91942 20.5706 3.32975C22.007 4.74009 22.8337 6.65704 22.8734 8.66968C22.8753 8.76817 22.8577 8.86606 22.8217 8.95776C22.7857 9.04946 22.732 9.13317 22.6637 9.20411C22.5953 9.27505 22.5137 9.33183 22.4234 9.3712C22.3331 9.41058 22.2359 9.43178 22.1374 9.43359H22.1231C21.9267 9.43352 21.7381 9.35637 21.5979 9.21873C21.4577 9.08109 21.3772 8.89395 21.3735 8.69754C21.3422 7.05718 20.6609 5.49634 19.4795 4.35794C18.298 3.21955 16.713 2.59672 15.0726 2.62629C14.8741 2.62852 14.6826 2.55254 14.5397 2.41476C14.3968 2.27698 14.3138 2.08848 14.3087 1.89002ZM8.4512 7.29932C8.62923 7.47254 8.77107 7.67941 8.86847 7.90791C8.96588 8.13642 9.01691 8.38199 9.0186 8.63039C9.0203 8.87878 8.97262 9.12503 8.87834 9.35484C8.78405 9.58465 8.64505 9.79343 8.4694 9.96906C8.29374 10.1447 8.08494 10.2837 7.85512 10.3779C7.6253 10.4722 7.37905 10.5198 7.13066 10.5181C6.88227 10.5164 6.63669 10.4653 6.4082 10.3679C6.17971 10.2705 5.97285 10.1286 5.79965 9.95057C5.65901 9.80984 5.58004 9.619 5.5801 9.42004C5.58016 9.22108 5.65926 9.0303 5.79999 8.88965C5.94072 8.74901 6.13156 8.67004 6.33052 8.6701C6.52948 8.67016 6.72026 8.74926 6.8609 8.88999C6.90451 8.93349 6.95817 8.96558 7.01713 8.98339C7.0761 9.00121 7.13854 9.00422 7.19895 8.99215C7.25935 8.98008 7.31585 8.95331 7.36344 8.9142C7.41102 8.87509 7.44824 8.82485 7.47178 8.76793C7.49532 8.71102 7.50447 8.64917 7.49842 8.58787C7.49236 8.52657 7.47128 8.46771 7.43705 8.4165C7.40283 8.36529 7.3565 8.32331 7.30218 8.29427C7.24785 8.26523 7.18721 8.25003 7.12561 8.25002C6.81726 8.25001 6.51367 8.17396 6.24173 8.0286C5.96979 7.88324 5.7379 7.67306 5.56659 7.41667C5.39529 7.16028 5.28986 6.86559 5.25965 6.55872C5.22944 6.25186 5.27537 5.94227 5.39339 5.6574C5.5114 5.37252 5.69786 5.12115 5.93623 4.92555C6.1746 4.72995 6.45753 4.59615 6.75996 4.53602C7.0624 4.47588 7.37499 4.49126 7.67006 4.5808C7.96513 4.67033 8.23356 4.83126 8.45158 5.04932C8.52122 5.119 8.57645 5.20172 8.61412 5.29274C8.65179 5.38377 8.67116 5.48133 8.67113 5.57984C8.6711 5.67836 8.65166 5.7759 8.61393 5.86691C8.57621 5.95791 8.52092 6.04059 8.45124 6.11023C8.38156 6.17987 8.29884 6.2351 8.20781 6.27277C8.11678 6.31044 8.01923 6.32981 7.92071 6.32978C7.8222 6.32975 7.72465 6.31032 7.63365 6.27259C7.54265 6.23486 7.45997 6.17957 7.39033 6.10989C7.3467 6.06642 7.29304 6.03438 7.23408 6.01659C7.17513 5.9988 7.1127 5.99582 7.05231 6.0079C6.99193 6.01999 6.93545 6.04677 6.88788 6.08588C6.84032 6.12499 6.80312 6.17522 6.77959 6.23213C6.75605 6.28903 6.74691 6.35086 6.75296 6.41215C6.75901 6.47343 6.78008 6.53228 6.81429 6.58348C6.8485 6.63469 6.89481 6.67667 6.94911 6.70572C7.00341 6.73476 7.06403 6.74998 7.12561 6.75002C7.37191 6.74939 7.61589 6.79762 7.84342 6.89191C8.07096 6.98619 8.27753 7.12467 8.4512 7.29932ZM18.2005 16.2993C18.3786 16.4725 18.5204 16.6794 18.6178 16.9079C18.7152 17.1364 18.7662 17.382 18.7679 17.6304C18.7696 17.8788 18.7219 18.125 18.6277 18.3548C18.5334 18.5846 18.3944 18.7934 18.2187 18.9691C18.0431 19.1447 17.8343 19.2837 17.6044 19.3779C17.3746 19.4722 17.1284 19.5198 16.88 19.5181C16.6316 19.5164 16.386 19.4653 16.1575 19.3679C15.929 19.2705 15.7222 19.1286 15.549 18.9506C15.4083 18.8098 15.3294 18.619 15.3294 18.42C15.3295 18.2211 15.4086 18.0303 15.5493 17.8897C15.69 17.749 15.8809 17.67 16.0798 17.6701C16.2788 17.6702 16.4696 17.7493 16.6102 17.89C16.6538 17.9335 16.7075 17.9656 16.7665 17.9834C16.8254 18.0012 16.8879 18.0042 16.9483 17.9922C17.0087 17.9801 17.0652 17.9533 17.1128 17.9142C17.1603 17.8751 17.1976 17.8249 17.2211 17.7679C17.2446 17.711 17.2538 17.6492 17.2477 17.5879C17.2417 17.5266 17.2206 17.4677 17.1864 17.4165C17.1522 17.3653 17.1058 17.3233 17.0515 17.2943C16.9972 17.2652 16.9365 17.25 16.8749 17.25C16.5666 17.25 16.263 17.174 15.9911 17.0286C15.7191 16.8832 15.4872 16.6731 15.3159 16.4167C15.1446 16.1603 15.0392 15.8656 15.009 15.5587C14.9788 15.2519 15.0247 14.9423 15.1427 14.6574C15.2607 14.3725 15.4472 14.1212 15.6856 13.9256C15.9239 13.7299 16.2069 13.5962 16.5093 13.536C16.8117 13.4759 17.1243 13.4913 17.4194 13.5808C17.7145 13.6703 17.9829 13.8313 18.2009 14.0493C18.3415 14.19 18.4205 14.3809 18.4205 14.5798C18.4204 14.7788 18.3413 14.9696 18.2006 15.1102C18.0598 15.2509 17.869 15.3298 17.67 15.3298C17.4711 15.3297 17.2803 15.2506 17.1397 15.1099C17.096 15.0664 17.0424 15.0344 16.9834 15.0166C16.9245 14.9988 16.862 14.9958 16.8016 15.0079C16.7413 15.02 16.6848 15.0468 16.6372 15.0859C16.5896 15.125 16.5524 15.1752 16.5289 15.2321C16.5054 15.289 16.4962 15.3509 16.5023 15.4121C16.5083 15.4734 16.5294 15.5323 16.5636 15.5835C16.5978 15.6347 16.6441 15.6767 16.6984 15.7057C16.7527 15.7348 16.8134 15.75 16.8749 15.75C17.1212 15.7494 17.3652 15.7976 17.5927 15.8919C17.8203 15.9862 18.0269 16.1247 18.2005 16.2993Z" fill="#AAC1D6"/>
</g>
<defs>
<clipPath id="clip0_468_7146">
<rect width="24" height="24" fill="white"/>
</clipPath>
</defs>
</svg>
