<svg width="12" height="18" viewBox="0 0 12 18" fill="none" xmlns="http://www.w3.org/2000/svg">
<path d="M5.45117 13.8423C5.29543 13.8423 5.16564 13.8 5.0618 13.7155C4.95797 13.6141 4.90606 13.4789 4.90606 13.3099C4.90606 13.1408 4.90606 12.9718 4.90606 12.8028C4.90606 12.6338 4.90606 12.4648 4.90606 12.2958C4.94067 11.569 5.10507 10.9268 5.39926 10.369C5.69345 9.81127 6.04821 9.30422 6.46353 8.84789C6.89617 8.39155 7.3288 7.96056 7.76143 7.55493C8.19407 7.13239 8.55748 6.70986 8.85167 6.28732C9.16316 5.86479 9.35352 5.4169 9.42274 4.94366C9.49196 4.33521 9.37083 3.82817 9.05933 3.42253C8.74784 3 8.32386 2.67887 7.78739 2.45915C7.25093 2.23944 6.69716 2.12958 6.12608 2.12958C5.2089 2.12958 4.42151 2.3662 3.76391 2.83944C3.12361 3.29577 2.69963 4.07324 2.49197 5.17183C2.44005 5.37465 2.35352 5.51831 2.23239 5.60282C2.11125 5.68732 1.97281 5.72958 1.81706 5.72958H0.571075C0.415328 5.72958 0.276885 5.67887 0.155748 5.57747C0.0519159 5.47606 0 5.34085 0 5.17183C0.0173053 4.47887 0.173053 3.81972 0.467244 3.19437C0.761434 2.56901 1.17676 2.01972 1.71323 1.54648C2.267 1.07324 2.91595 0.701408 3.66007 0.430986C4.42151 0.143662 5.26947 0 6.20396 0C7.25958 0 8.15946 0.143662 8.90358 0.430986C9.66502 0.701408 10.2707 1.07324 10.7206 1.54648C11.1879 2.00282 11.5253 2.50986 11.733 3.06761C11.9407 3.62535 12.0272 4.1831 11.9926 4.74085C11.9407 5.4169 11.7676 6.02535 11.4734 6.5662C11.1792 7.09014 10.8245 7.58028 10.4091 8.03662C9.99382 8.47606 9.56984 8.91549 9.13721 9.35493C8.72188 9.77746 8.35847 10.2254 8.04697 10.6986C7.75278 11.1549 7.58838 11.6535 7.55377 12.1944C7.53646 12.3803 7.51916 12.5662 7.50185 12.7521C7.50185 12.9211 7.50185 13.0901 7.50185 13.2592C7.46724 13.4451 7.39802 13.5887 7.29419 13.6901C7.19036 13.7915 7.04326 13.8423 6.8529 13.8423H5.45117ZM5.24351 18C5.07046 18 4.92336 17.9493 4.80223 17.8479C4.69839 17.7296 4.64648 17.5859 4.64648 17.4169V15.8704C4.64648 15.7014 4.69839 15.5662 4.80223 15.4648C4.92336 15.3465 5.07046 15.2873 5.24351 15.2873H6.93078C7.12114 15.2873 7.26823 15.3465 7.37206 15.4648C7.4932 15.5662 7.55377 15.7014 7.55377 15.8704V17.4169C7.55377 17.5859 7.4932 17.7296 7.37206 17.8479C7.26823 17.9493 7.12114 18 6.93078 18H5.24351Z" fill="#AAC1D6"/>
</svg>
