<svg width="30" height="30" viewBox="0 0 30 30" fill="none" xmlns="http://www.w3.org/2000/svg">
<g filter="url(#filter0_di_127_3222)">
<path d="M24.3913 14.5217C23.5351 14.5217 22.7802 14.9423 22.3043 15.5813C21.8285 14.9423 21.0736 14.5217 20.2174 14.5217C20.1213 14.5217 20.0307 14.5401 19.9372 14.55C20.4609 13.4011 20.7391 12.1551 20.7391 10.8696C20.7391 5.97877 16.7604 2 11.8696 2C6.97877 2 3 5.97877 3 10.8696C3 14.7806 5.55647 18.2032 9.26087 19.3432V25.4783C9.26087 25.7669 9.49397 26 9.78261 26C10.0712 26 10.3043 25.7669 10.3043 25.4783V15.6559C10.3043 15.6549 10.3043 15.6544 10.3043 15.6534V10.8696C10.3043 10.0067 11.0067 9.30435 11.8696 9.30435C12.7324 9.30435 13.4348 10.0067 13.4348 10.8696V15.6534V15.6559V19.2174C13.4348 19.506 13.6679 19.7391 13.9565 19.7391C14.2452 19.7391 14.4783 19.506 14.4783 19.2174V17.1304C14.4783 16.2676 15.1806 15.5652 16.0435 15.5652C16.9063 15.5652 17.6087 16.2676 17.6087 17.1304V21.3043C17.6087 21.593 17.8418 21.8261 18.1304 21.8261C18.4191 21.8261 18.6522 21.593 18.6522 21.3043V17.1304C18.6522 16.8074 18.7508 16.5076 18.9189 16.2582C18.9215 16.2548 18.924 16.2518 18.926 16.2482C19.2083 15.8365 19.6816 15.5652 20.2174 15.5652C21.0802 15.5652 21.7826 16.2676 21.7826 17.1304V21.3043C21.7826 21.593 22.0157 21.8261 22.3043 21.8261C22.593 21.8261 22.8261 21.593 22.8261 21.3043V17.1304C22.8261 16.2676 23.5284 15.5652 24.3913 15.5652C25.2542 15.5652 25.9565 16.2676 25.9565 17.1304V25.4783C25.9565 25.7669 26.1896 26 26.4783 26C26.7669 26 27 25.7669 27 25.4783V17.1304C27 15.6921 25.8297 14.5217 24.3913 14.5217ZM11.8696 8.26087C10.4312 8.26087 9.26087 9.43122 9.26087 10.8696V14.7617C7.97486 13.9009 7.17391 12.4526 7.17391 10.8696C7.17391 8.28023 9.28023 6.17391 11.8696 6.17391C14.4589 6.17391 16.5652 8.28023 16.5652 10.8696C16.5652 12.4526 15.7643 13.9009 14.4783 14.7617V10.8696C14.4783 9.43122 13.3079 8.26087 11.8696 8.26087ZM16.272 14.5447C17.1168 13.533 17.6087 12.2417 17.6087 10.8696C17.6087 7.70525 15.0339 5.13043 11.8696 5.13043C8.70525 5.13043 6.13043 7.70525 6.13043 10.8696C6.13043 13.0342 7.34918 15.0012 9.26087 15.9764V18.2516C6.15744 17.1569 4.04348 14.2125 4.04348 10.8696C4.04348 6.55426 7.55426 3.04348 11.8696 3.04348C16.1849 3.04348 19.6957 6.55426 19.6957 10.8696C19.6957 12.5239 19.1854 14.1075 18.2206 15.4526C18.2112 15.4631 18.203 15.473 18.1946 15.484C18.1712 15.514 18.1488 15.5453 18.1264 15.5762C17.6938 14.9981 17.0307 14.6119 16.272 14.5447Z" fill="#EF8E2E"/>
</g>
<defs>
<filter id="filter0_di_127_3222" x="0" y="0" width="30" height="30" filterUnits="userSpaceOnUse" color-interpolation-filters="sRGB">
    <feFlood flood-opacity="0" result="BackgroundImageFix"/>
    <feColorMatrix in="SourceAlpha" type="matrix" values="0 0 0 0 0 0 0 0 0 0 0 0 0 0 0 0 0 0 127 0" result="hardAlpha"/>
    <feOffset dy="1"/>
    <feGaussianBlur stdDeviation="1.5"/>
    <feComposite in2="hardAlpha" operator="out"/>
    <feColorMatrix type="matrix" values="0 0 0 0 0 0 0 0 0 0 0 0 0 0 0 0 0 0 0.71 0"/>
    <feBlend mode="normal" in2="BackgroundImageFix" result="effect1_dropShadow_127_3222"/>
    <feBlend mode="normal" in="SourceGraphic" in2="effect1_dropShadow_127_3222" result="shape"/>
    <feColorMatrix in="SourceAlpha" type="matrix" values="0 0 0 0 0 0 0 0 0 0 0 0 0 0 0 0 0 0 127 0" result="hardAlpha"/>
    <feOffset dy="1"/>
    <feGaussianBlur stdDeviation="0.5"/>
    <feComposite in2="hardAlpha" operator="arithmetic" k2="-1" k3="1"/>
    <feColorMatrix type="matrix" values="0 0 0 0 1 0 0 0 0 0.828293 0 0 0 0 0.6 0 0 0 1 0"/>
    <feBlend mode="normal" in2="shape" result="effect2_innerShadow_127_3222"/>
</filter>
</defs>
</svg>
