<svg width="19" height="19" viewBox="0 0 19 19" fill="none" xmlns="http://www.w3.org/2000/svg">
<path d="M16.4519 2.54719C16.3718 2.46743 16.2706 2.41221 16.1601 2.38802C16.0497 2.36383 15.9346 2.37167 15.8285 2.41063L2.76599 7.16063C2.65334 7.20336 2.55635 7.27935 2.48791 7.3785C2.41947 7.47766 2.38281 7.5953 2.38281 7.71578C2.38281 7.83627 2.41947 7.9539 2.48791 8.05306C2.55635 8.15222 2.65334 8.22821 2.76599 8.27094L7.8663 10.3075L11.6307 6.53125L12.4679 7.36844L8.68568 11.1506L10.7282 16.2509C10.7722 16.3614 10.8483 16.4561 10.9468 16.5228C11.0452 16.5895 11.1614 16.6251 11.2804 16.625C11.4004 16.6225 11.5168 16.5838 11.6143 16.5138C11.7118 16.4439 11.7858 16.346 11.8266 16.2331L16.5766 3.17063C16.6171 3.06558 16.6268 2.95119 16.6047 2.84081C16.5827 2.73043 16.5297 2.6286 16.4519 2.54719Z" fill="#AAC1D6"/>
</svg>
