<svg width="24" height="24" viewBox="0 0 24 24" fill="none" xmlns="http://www.w3.org/2000/svg">
<path fill-rule="evenodd" clip-rule="evenodd" d="M6.07848 2.86591C5.66971 3.11772 5.27889 3.3949 4.90841 3.6952L5.39726 4.75549C6.17713 6.44696 4.77653 8.32394 2.88336 8.12447L1.69356 7.9991C1.51592 8.43246 1.36634 8.87963 1.24694 9.33852L2.28489 9.91788C3.93692 10.84 3.93692 13.16 2.28489 14.0821L1.24694 14.6615C1.36634 15.1204 1.51592 15.5675 1.69356 16.0009L2.88336 15.8755C4.77653 15.6761 6.17713 17.553 5.39726 19.2445L4.90841 20.3048C5.27889 20.6051 5.66971 20.8823 6.07848 21.134L6.96407 20.3528C8.37527 19.1081 10.6415 19.825 11.0317 21.6397L11.2763 22.7774C11.5154 22.7924 11.7567 22.8 12 22.8C12.2433 22.8 12.4846 22.7924 12.7237 22.7774L12.9683 21.6397C13.3585 19.825 15.6248 19.1081 17.0359 20.3528L17.9216 21.134C18.3303 20.8823 18.7211 20.6051 19.0916 20.3048L18.6028 19.2445C17.8229 17.553 19.2234 15.6761 21.1166 15.8755L22.3064 16.0009C22.4841 15.5675 22.6336 15.1204 22.7531 14.6615L21.7151 14.0821C20.0631 13.16 20.0631 10.84 21.7151 9.91788L22.7531 9.33852C22.6336 8.87963 22.4841 8.43246 22.3064 7.9991L21.1166 8.12447C19.2234 8.32394 17.8229 6.44696 18.6028 4.75549L19.0916 3.6952C18.7211 3.39491 18.3303 3.11772 17.9216 2.86591L17.0359 3.64711C15.6248 4.89198 13.3585 4.17503 12.9683 2.36028L12.7237 1.22258C12.4846 1.20761 12.2433 1.2 12 1.2C11.7567 1.2 11.5154 1.20761 11.2763 1.22258L11.0317 2.36028C10.6415 4.17504 8.37527 4.89198 6.96407 3.64711L6.07848 2.86591ZM6.88007 1.95377C6.4956 1.61461 5.93083 1.54126 5.49054 1.80841C4.98698 2.11398 4.50771 2.45393 4.05621 2.82491C3.66008 3.15038 3.5576 3.69551 3.76988 4.15591L4.2729 5.24694C4.66284 6.09268 3.96255 7.03117 3.01596 6.93144L1.79138 6.8024C1.27631 6.74814 0.775647 7.01117 0.580328 7.47838C0.358572 8.00879 0.174652 8.55812 0.0318598 9.12322C-0.0918665 9.61284 0.154391 10.1119 0.60367 10.3627L1.67194 10.9589C2.49797 11.4199 2.49797 12.5801 1.67194 13.0411L0.60367 13.6373C0.154391 13.8881 -0.0918665 14.3872 0.0318598 14.8768C0.174652 15.4418 0.358572 15.9912 0.580328 16.5216C0.775647 16.9889 1.27631 17.2519 1.79138 17.1976L3.01595 17.0686C3.96255 16.9688 4.66284 17.9074 4.2729 18.753L3.76988 19.844C3.5576 20.3045 3.66008 20.8496 4.05621 21.1751C4.50771 21.5461 4.98698 21.8861 5.49054 22.1916C5.93083 22.4587 6.4956 22.3854 6.88007 22.0463L7.79155 21.2422C8.49716 20.6197 9.63023 20.9783 9.82533 21.8856L10.0771 23.0566C10.1835 23.5511 10.5962 23.9336 11.114 23.9695C11.4066 23.9897 11.7021 24 12 24C12.2979 24 12.5934 23.9897 12.886 23.9695C13.4038 23.9336 13.8165 23.5511 13.9229 23.0566L14.1747 21.8856C14.3698 20.9783 15.5029 20.6197 16.2085 21.2422L17.12 22.0463C17.5044 22.3854 18.0692 22.4587 18.5095 22.1916C19.013 21.8861 19.4923 21.5461 19.9438 21.1751C20.3399 20.8496 20.4424 20.3045 20.2301 19.844L19.7271 18.753C19.3372 17.9074 20.0375 16.9688 20.9841 17.0686L22.2087 17.1976C22.7237 17.2519 23.2243 16.9889 23.4197 16.5216C23.6414 15.9912 23.8253 15.4418 23.9681 14.8768C24.0919 14.3872 23.8456 13.8881 23.3963 13.6373L22.3281 13.0411C21.502 12.5801 21.502 11.4199 22.3281 10.9589L23.3963 10.3627C23.8456 10.1119 24.0919 9.61284 23.9681 9.12322C23.8253 8.55812 23.6414 8.00879 23.4197 7.47838C23.2243 7.01117 22.7237 6.74814 22.2087 6.8024L20.9841 6.93144C20.0375 7.03117 19.3372 6.09268 19.7271 5.24694L20.2301 4.15592C20.4424 3.69551 20.3399 3.15038 19.9438 2.82491C19.4923 2.45393 19.013 2.11398 18.5095 1.80841C18.0692 1.54126 17.5044 1.61461 17.12 1.95377L16.2085 2.75782C15.5029 3.38024 14.3698 3.02178 14.1747 2.1144L13.9229 0.9435C13.8165 0.44892 13.4038 0.066336 12.886 0.03054C12.5934 0.010296 12.2979 0 12 0C11.7021 0 11.4066 0.010296 11.114 0.03054C10.5962 0.066336 10.1835 0.44892 10.0771 0.9435L9.82533 2.1144C9.63023 3.02178 8.49716 3.38024 7.79155 2.75782L6.88007 1.95377Z" fill="#AAC1D6"/>
<path fill-rule="evenodd" clip-rule="evenodd" d="M5.08775 10.8951C5.15079 10.5008 5.55118 10.2721 5.93685 10.3755C6.32254 10.4787 6.54638 10.8752 6.49396 11.271C6.34491 12.3968 6.54398 13.5477 7.07377 14.5651C7.71549 15.7975 8.79582 16.7447 10.1016 17.2196C11.4073 17.6945 12.8437 17.6627 14.1273 17.1306C15.4107 16.5984 16.4481 15.6046 17.0347 14.345C17.6215 13.0854 17.7146 11.6518 17.296 10.3269C16.8775 9.002 15.9776 7.88209 14.7738 7.18817C13.57 6.49427 12.1499 6.27675 10.7936 6.57855C9.67392 6.82772 8.66482 7.41591 7.89902 8.2544C7.62974 8.54921 7.1822 8.63302 6.85493 8.4043C6.52764 8.17557 6.4451 7.7219 6.70634 7.41994C7.68542 6.28827 9.0065 5.49493 10.4795 5.16714C12.1889 4.78677 13.9788 5.06092 15.4959 5.93548C17.0131 6.81005 18.1473 8.22151 18.6748 9.89126C19.2023 11.5612 19.0849 13.3681 18.3455 14.9555C17.6062 16.5429 16.2986 17.7957 14.681 18.4662C13.0634 19.137 11.2531 19.1769 9.60731 18.5784C7.96165 17.9798 6.60007 16.7862 5.7913 15.2329C5.09433 13.8945 4.85151 12.3728 5.08775 10.8951Z" fill="#AAC1D6"/>
</svg>
