<svg width="14" height="16" viewBox="0 0 14 16" fill="none" xmlns="http://www.w3.org/2000/svg">
<path d="M13.4114 1.90259L7.13536 0.0197813C7.04758 -0.00659375 6.95386 -0.00659375 6.86599 0.0197813L0.589922 1.90259C0.391641 1.96206 0.255859 2.14456 0.255859 2.35156V9.25519C0.255859 10.1531 0.619359 11.0723 1.33627 11.9872C1.88383 12.686 2.64133 13.3876 3.58777 14.0727C5.17767 15.2236 6.74324 15.9296 6.80911 15.9591C6.87005 15.9863 6.93533 16 7.00064 16C7.06592 16 7.13124 15.9864 7.19217 15.9591C7.25805 15.9296 8.82358 15.2236 10.4135 14.0727C11.3599 13.3876 12.1174 12.686 12.665 11.9872C13.3819 11.0723 13.7454 10.1532 13.7454 9.25519V2.35156C13.7454 2.14456 13.6096 1.96206 13.4114 1.90259ZM12.8079 9.25519C12.8079 10.8443 11.2134 12.3344 9.87583 13.3046C8.67664 14.1744 7.46049 14.7916 7.00067 15.0133C6.54086 14.7916 5.32467 14.1744 4.12549 13.3046C2.78786 12.3344 1.19336 10.8443 1.19336 9.25519V2.70031L7.00064 0.958125L12.8079 2.70031V9.25519Z" fill="#EF8E2E"/>
</svg>
