<svg width="16" height="16" viewBox="0 0 16 16" fill="none" xmlns="http://www.w3.org/2000/svg">
<path d="M12.8393 3.84051C12.5645 3.58022 12.1312 3.63616 11.8987 3.93485C11.7049 4.18382 11.7519 4.54086 11.9807 4.75814C13.3529 6.06141 14.0117 7.9655 13.7139 9.85635C13.474 11.3826 12.6539 12.7241 11.4049 13.6339C10.1555 14.5432 8.62714 14.9128 7.10087 14.6716C3.95014 14.1755 1.7898 11.2086 2.28507 8.05768C2.52502 6.53124 3.34538 5.18968 4.59454 4.28015C5.68516 3.48621 6.9884 3.10489 8.31741 3.18053L7.61514 3.91728C7.40304 4.1398 7.41138 4.49209 7.63377 4.70432C7.8564 4.91678 8.20916 4.90836 8.42141 4.68554L9.75169 3.28895L9.75211 3.28961L9.83125 3.20649C10.2119 2.80679 10.1967 2.17428 9.79734 1.7933L9.71503 1.71478L8.31841 0.384222C8.09567 0.172012 7.74307 0.180523 7.53083 0.403234C7.31851 0.626017 7.32705 0.978747 7.54989 1.191L8.31889 1.92344C6.725 1.84806 5.1638 2.3117 3.8551 3.26459C2.33469 4.37164 1.33639 6.00443 1.04408 7.86264C0.44114 11.6977 3.07042 15.3094 6.9055 15.9129C7.27617 15.9713 7.64667 16 8.01478 16C9.492 16 10.9274 15.5357 12.1443 14.6494C13.6649 13.5422 14.663 11.9094 14.9553 10.0516C15.3183 7.74737 14.5138 5.42654 12.8393 3.84051Z" fill="#EF8E2E"/>
<path d="M7.75122 6.23477V9.39639L5.96132 10.9247C5.77071 11.0875 5.77071 11.3513 5.96132 11.5141C6.05665 11.5955 6.18153 11.6362 6.30649 11.6362C6.4314 11.6362 6.55633 11.5955 6.65166 11.5141L8.58451 9.86373C8.67603 9.78558 8.72745 9.67955 8.72745 9.56902V6.23477C8.72745 6.00459 8.50892 5.81799 8.23933 5.81799C7.96975 5.81799 7.75122 6.00459 7.75122 6.23477Z" fill="#EF8E2E"/>
</svg>
