<svg width="20" height="20" viewBox="0 0 20 20" fill="none" xmlns="http://www.w3.org/2000/svg">
<path d="M9.99935 1.45825C10.6911 1.45821 11.3567 1.72288 11.8595 2.19798C12.3624 2.67308 12.6644 3.32258 12.7035 4.01325L12.7077 4.16659H17.0827C17.241 4.16663 17.3935 4.22679 17.5092 4.3349C17.6249 4.443 17.6952 4.591 17.706 4.74899C17.7168 4.90697 17.6673 5.06316 17.5673 5.186C17.4674 5.30884 17.3246 5.38917 17.1677 5.41075L17.0827 5.41659H16.4193L15.3527 16.2666C15.2992 16.8075 15.0553 17.3118 14.6643 17.6895C14.2734 18.0671 13.761 18.2935 13.2185 18.3283L13.0718 18.3333H6.92685C6.38307 18.3332 5.85701 18.1399 5.44269 17.7877C5.02837 17.4355 4.75278 16.9474 4.66518 16.4108L4.64602 16.2658L3.57852 5.41659H2.91602C2.76498 5.41658 2.61906 5.36188 2.50524 5.26261C2.39142 5.16334 2.31739 5.02621 2.29685 4.87659L2.29102 4.79159C2.29102 4.64055 2.34572 4.49463 2.44499 4.38081C2.54426 4.26699 2.68139 4.19296 2.83102 4.17242L2.91602 4.16659H7.29102C7.29102 3.44829 7.57636 2.75942 8.08427 2.2515C8.59218 1.74359 9.28105 1.45825 9.99935 1.45825ZM15.1635 5.41659H4.83435L5.89018 16.1433C5.91356 16.3826 6.01904 16.6065 6.1887 16.7769C6.35837 16.9473 6.58178 17.0538 6.82102 17.0783L6.92685 17.0833H13.0718C13.5718 17.0833 13.996 16.7291 14.0927 16.2483L14.1093 16.1433L15.1627 5.41659H15.1635ZM11.4577 7.70825C11.6087 7.70826 11.7546 7.76295 11.8685 7.86222C11.9823 7.96149 12.0563 8.09862 12.0768 8.24825L12.0827 8.33325V14.1666C12.0826 14.3249 12.0225 14.4774 11.9144 14.5931C11.8063 14.7088 11.6583 14.7791 11.5003 14.7899C11.3423 14.8007 11.1861 14.7512 11.0633 14.6512C10.9404 14.5513 10.8601 14.4085 10.8385 14.2516L10.8327 14.1666V8.33325C10.8327 8.16749 10.8985 8.00852 11.0157 7.89131C11.133 7.7741 11.2919 7.70825 11.4577 7.70825ZM8.54102 7.70825C8.69205 7.70826 8.83797 7.76295 8.95179 7.86222C9.06562 7.96149 9.13964 8.09862 9.16018 8.24825L9.16602 8.33325V14.1666C9.16597 14.3249 9.10581 14.4774 8.9977 14.5931C8.8896 14.7088 8.7416 14.7791 8.58362 14.7899C8.42563 14.8007 8.26944 14.7512 8.1466 14.6512C8.02376 14.5513 7.94343 14.4085 7.92185 14.2516L7.91602 14.1666V8.33325C7.91602 8.16749 7.98186 8.00852 8.09907 7.89131C8.21628 7.7741 8.37526 7.70825 8.54102 7.70825ZM9.99935 2.70825C9.63336 2.70827 9.28075 2.84589 9.01152 3.09382C8.7423 3.34174 8.57613 3.68183 8.54602 4.04659L8.54102 4.16659H11.4577C11.4577 3.77981 11.304 3.40888 11.0305 3.13539C10.7571 2.8619 10.3861 2.70825 9.99935 2.70825Z" fill="white"/>
</svg>
