<svg width="100" height="100" viewBox="0 0 100 100" fill="none" xmlns="http://www.w3.org/2000/svg">
<path fill-rule="evenodd" clip-rule="evenodd" d="M36.4453 70.1082C36.4724 73.8049 34.2663 77.1526 30.8588 78.586C27.4512 80.0194 23.5155 79.2552 20.8919 76.6508C18.2684 74.0464 17.4754 70.1164 18.8838 66.6985C20.2921 63.2805 23.6236 61.05 27.3203 61.0499C29.7316 61.041 32.0476 61.9904 33.7589 63.6892C35.4702 65.3879 36.4365 67.6969 36.4453 70.1082V70.1082Z" stroke="#F6CB08" stroke-width="3" stroke-linecap="round" stroke-linejoin="round"/>
<path fill-rule="evenodd" clip-rule="evenodd" d="M79.92 70.1082C79.947 73.8049 77.7409 77.1526 74.3334 78.586C70.9258 80.0194 66.9901 79.2552 64.3665 76.6508C61.743 74.0464 60.95 70.1164 62.3584 66.6985C63.7667 63.2805 67.0982 61.05 70.795 61.0499C73.2062 61.041 75.5222 61.9904 77.2335 63.6892C78.9448 65.3879 79.9111 67.6969 79.92 70.1082Z" stroke="#F6CB08" stroke-width="3" stroke-linecap="round" stroke-linejoin="round"/>
<path d="M60.6003 71.6085C61.4287 71.6085 62.1003 70.9369 62.1003 70.1085C62.1003 69.2801 61.4287 68.6085 60.6003 68.6085V71.6085ZM36.4336 68.6085C35.6052 68.6085 34.9336 69.2801 34.9336 70.1085C34.9336 70.9369 35.6052 71.6085 36.4336 71.6085V68.6085ZM59.099 70.1084C59.099 70.9369 59.7705 71.6084 60.599 71.6084C61.4274 71.6084 62.099 70.9369 62.099 70.1084H59.099ZM62.099 48.1626C62.099 47.3342 61.4274 46.6626 60.599 46.6626C59.7705 46.6626 59.099 47.3342 59.099 48.1626H62.099ZM60.5988 68.6085C59.7704 68.6085 59.0988 69.2801 59.0988 70.1085C59.0988 70.9369 59.7704 71.6085 60.5988 71.6085V68.6085ZM61.6655 71.6085C62.4939 71.6085 63.1655 70.9369 63.1655 70.1085C63.1655 69.2801 62.4939 68.6085 61.6655 68.6085V71.6085ZM79.9096 68.6085C79.0812 68.612 78.4125 69.2864 78.416 70.1149C78.4196 70.9433 79.094 71.612 79.9224 71.6084L79.9096 68.6085ZM89.5827 60.3543L91.0827 60.3472C91.0822 60.2587 91.074 60.1705 91.058 60.0835L89.5827 60.3543ZM88.8205 47.8918C88.671 47.077 87.8892 46.5377 87.0744 46.6873C86.2596 46.8368 85.7203 47.6186 85.8698 48.4334L88.8205 47.8918ZM60.5957 27.1542C59.7673 27.1542 59.0957 27.8258 59.0957 28.6542C59.0957 29.4826 59.7673 30.1542 60.5957 30.1542V27.1542ZM75.8915 28.6542V30.1542C75.9014 30.1542 75.9113 30.1541 75.9212 30.1539L75.8915 28.6542ZM82.8133 31.4604L83.8789 30.4048L82.8133 31.4604ZM85.554 38.4084L84.0547 38.3646C84.0516 38.4698 84.0596 38.5751 84.0786 38.6787L85.554 38.4084ZM85.8661 48.4329C86.0154 49.2478 86.7971 49.7873 87.6119 49.638C88.4268 49.4886 88.9663 48.707 88.817 47.8922L85.8661 48.4329ZM62.091 28.6543C62.091 27.8259 61.4194 27.1543 60.591 27.1543C59.7626 27.1543 59.091 27.8259 59.091 28.6543H62.091ZM59.091 48.1626C59.091 48.991 59.7626 49.6626 60.591 49.6626C61.4194 49.6626 62.091 48.991 62.091 48.1626H59.091ZM59.091 28.6543C59.091 29.4827 59.7626 30.1543 60.591 30.1543C61.4194 30.1543 62.091 29.4827 62.091 28.6543H59.091ZM60.591 25.3209H62.0911L62.091 25.3099L60.591 25.3209ZM56.041 20.8334V22.3335L56.0507 22.3334L56.041 20.8334ZM14.9785 20.8334L14.9646 22.3334H14.9785V20.8334ZM11.7695 22.128L10.7187 21.0577L10.7187 21.0577L11.7695 22.128ZM10.416 25.3126L8.91602 25.2989V25.3126H10.416ZM10.416 65.6251H8.91595L8.91608 65.6389L10.416 65.6251ZM11.7695 68.8097L12.8204 67.7393L12.8204 67.7393L11.7695 68.8097ZM14.9785 70.1043V68.6042L14.9646 68.6043L14.9785 70.1043ZM18.1952 71.6043C19.0236 71.6043 19.6952 70.9327 19.6952 70.1043C19.6952 69.2758 19.0236 68.6043 18.1952 68.6043V71.6043ZM60.5996 46.6627C59.7712 46.6627 59.0996 47.3343 59.0996 48.1627C59.0996 48.9911 59.7712 49.6627 60.5996 49.6627V46.6627ZM87.3496 49.6627C88.178 49.6627 88.8496 48.9911 88.8496 48.1627C88.8496 47.3343 88.178 46.6627 87.3496 46.6627V49.6627ZM60.6003 68.6085H36.4336V71.6085H60.6003V68.6085ZM62.099 70.1084V48.1626H59.099V70.1084H62.099ZM60.5988 71.6085H61.6655V68.6085H60.5988V71.6085ZM79.9224 71.6084C82.8959 71.5957 85.7425 70.4019 87.8356 68.2899L85.7047 66.1782C84.1719 67.7249 82.0872 68.5991 79.9096 68.6085L79.9224 71.6084ZM87.8356 68.2899C89.9287 66.1779 91.0967 63.3207 91.0827 60.3472L88.0827 60.3614C88.093 62.539 87.2376 64.6314 85.7047 66.1782L87.8356 68.2899ZM91.058 60.0835L88.8205 47.8918L85.8698 48.4334L88.1073 60.625L91.058 60.0835ZM60.5957 30.1542H75.8915V27.1542H60.5957V30.1542ZM75.9212 30.1539C78.1048 30.1107 80.2106 30.9645 81.7476 32.5161L83.8789 30.4048C81.764 28.2698 78.8664 27.0951 75.8619 27.1545L75.9212 30.1539ZM81.7476 32.5161C83.2846 34.0677 84.1185 36.1815 84.0547 38.3646L87.0534 38.4522C87.1412 35.4483 85.9938 32.5398 83.8789 30.4048L81.7476 32.5161ZM84.0786 38.6787L85.8661 48.4329L88.817 47.8922L87.0295 38.138L84.0786 38.6787ZM59.091 28.6543V48.1626H62.091V28.6543H59.091ZM62.091 28.6543V25.3209H59.091V28.6543H62.091ZM62.091 25.3099C62.0665 21.9868 59.3544 19.3119 56.0313 19.3335L56.0507 22.3334C57.718 22.3226 59.0788 23.6647 59.0911 25.332L62.091 25.3099ZM56.041 19.3334H14.9785V22.3334H56.041V19.3334ZM14.9924 19.3335C13.3956 19.3187 11.8583 19.9389 10.7187 21.0577L12.8204 23.1984C13.3921 22.6371 14.1634 22.326 14.9646 22.3334L14.9924 19.3335ZM10.7187 21.0577C9.57916 22.1764 8.93073 23.702 8.91608 25.2989L11.916 25.3264C11.9233 24.5252 12.2486 23.7597 12.8204 23.1984L10.7187 21.0577ZM8.91602 25.3126V65.6251H11.916V25.3126H8.91602ZM8.91608 65.6389C8.93073 67.2357 9.57916 68.7613 10.7187 69.8801L12.8204 67.7393C12.2486 67.178 11.9233 66.4125 11.916 65.6113L8.91608 65.6389ZM10.7187 69.8801C11.8582 70.9988 13.3956 71.619 14.9924 71.6042L14.9646 68.6043C14.1634 68.6118 13.3921 68.3006 12.8204 67.7393L10.7187 69.8801ZM14.9785 71.6043H18.1952V68.6043H14.9785V71.6043ZM60.5996 49.6627H87.3496V46.6627H60.5996V49.6627Z" fill="#F6CB08"/>
</svg>
