<svg width="100" height="100" viewBox="0 0 100 100" fill="none" xmlns="http://www.w3.org/2000/svg">
<path fill-rule="evenodd" clip-rule="evenodd" d="M20.834 49.9995C20.8354 38.0727 29.2616 27.8078 40.9594 25.4823C52.6573 23.1568 64.3689 29.4184 68.932 40.4377C73.495 51.4571 69.6387 64.1653 59.7213 70.7905C49.8039 77.4157 36.5876 76.1129 28.1548 67.6786C23.4666 62.9896 20.8332 56.6302 20.834 49.9995Z" stroke="#007E40" stroke-width="3" stroke-linecap="round" stroke-linejoin="round"/>
<path fill-rule="evenodd" clip-rule="evenodd" d="M45.8342 62.4995L53.2008 55.1787C55.1537 53.2422 56.2523 50.606 56.2523 47.8558C56.2523 45.1055 55.1537 42.4693 53.2008 40.5328C49.1232 36.4864 42.5451 36.4864 38.4675 40.5328C36.5146 42.4693 35.416 45.1055 35.416 47.8558C35.416 50.606 36.5146 53.2422 38.4675 55.1787L45.8342 62.4995Z" stroke="#007E40" stroke-width="3" stroke-linecap="round" stroke-linejoin="round"/>
<path d="M64.4668 66.6663L79.1668 79.1663" stroke="#007E40" stroke-width="3" stroke-linecap="round" stroke-linejoin="round"/>
</svg>
