<svg width="100" height="100" viewBox="0 0 100 100" fill="none" xmlns="http://www.w3.org/2000/svg">
<path fill-rule="evenodd" clip-rule="evenodd" d="M37.7468 75.6418C37.7875 77.1164 36.9305 78.4686 35.5797 79.0613C34.2289 79.654 32.6536 79.3691 31.596 78.3407C30.5384 77.3123 30.2095 75.7456 30.7642 74.3787C31.3189 73.0118 32.6466 72.1174 34.1218 72.1168C35.07 72.1035 35.9846 72.4674 36.6644 73.1284C37.3443 73.7895 37.7336 74.6936 37.7468 75.6418Z" stroke="#F2761F" stroke-width="3" stroke-linecap="round" stroke-linejoin="round"/>
<path fill-rule="evenodd" clip-rule="evenodd" d="M59.4968 75.6418C59.5375 77.1164 58.6805 78.4686 57.3297 79.0613C55.9789 79.654 54.4036 79.3691 53.346 78.3407C52.2884 77.3123 51.9595 75.7456 52.5142 74.3787C53.0689 73.0118 54.3966 72.1174 55.8718 72.1168C56.82 72.1035 57.7346 72.4674 58.4144 73.1284C59.0943 73.7895 59.4836 74.6936 59.4968 75.6418Z" stroke="#F2761F" stroke-width="3" stroke-linecap="round" stroke-linejoin="round"/>
<path d="M64.5003 45.6668C65.3287 45.6668 66.0003 44.9953 66.0003 44.1668C66.0003 43.3384 65.3287 42.6668 64.5003 42.6668V45.6668ZM40.6836 42.6668C39.8552 42.6668 39.1836 43.3384 39.1836 44.1668C39.1836 44.9953 39.8552 45.6668 40.6836 45.6668V42.6668ZM56.5586 53.4459C57.387 53.4459 58.0586 52.7743 58.0586 51.9459C58.0586 51.1175 57.387 50.4459 56.5586 50.4459V53.4459ZM40.6836 50.4459C39.8552 50.4459 39.1836 51.1175 39.1836 51.9459C39.1836 52.7743 39.8552 53.4459 40.6836 53.4459V50.4459ZM28.7715 31.9918V30.4918C27.9431 30.4918 27.2715 31.1633 27.2715 31.9918H28.7715ZM79.1131 35.4168L80.6004 35.2218C80.5973 35.1981 80.5936 35.1745 80.5894 35.151L79.1131 35.4168ZM78.8006 37.9168L77.4071 37.3617C77.3983 37.3839 77.39 37.4063 77.3822 37.4288L78.8006 37.9168ZM76.2506 45.3293L77.6374 45.9011C77.6488 45.8735 77.6593 45.8455 77.6691 45.8172L76.2506 45.3293ZM71.5756 56.6668L72.9095 57.353C72.9287 57.3156 72.9464 57.2775 72.9624 57.2386L71.5756 56.6668ZM38.4382 64.8876V63.3876C38.4311 63.3876 38.4241 63.3877 38.417 63.3878L38.4382 64.8876ZM28.7715 55.4918H27.2715C27.2715 55.4989 27.2715 55.5061 27.2716 55.5133L28.7715 55.4918ZM27.2715 31.9918C27.2715 32.8202 27.9431 33.4918 28.7715 33.4918C29.5999 33.4918 30.2715 32.8202 30.2715 31.9918H27.2715ZM28.7715 23.1834H30.2715C30.2715 23.1765 30.2714 23.1695 30.2713 23.1626L28.7715 23.1834ZM26.359 20.8334V22.3334C26.3652 22.3334 26.3713 22.3334 26.3775 22.3333L26.359 20.8334ZM20.834 19.3334C20.0056 19.3334 19.334 20.005 19.334 20.8334C19.334 21.6619 20.0056 22.3334 20.834 22.3334V19.3334ZM64.5003 42.6668H40.6836V45.6668H64.5003V42.6668ZM56.5586 50.4459H40.6836V53.4459H56.5586V50.4459ZM28.7715 33.4918H69.5506V30.4918H28.7715V33.4918ZM69.5506 33.4918C72.1217 33.4918 74.0812 33.3987 75.5684 33.7281C76.265 33.8825 76.709 34.1048 76.9992 34.3693C77.2681 34.6145 77.5128 34.9932 77.6369 35.6826L80.5894 35.151C80.3677 33.9195 79.8509 32.9097 79.0205 32.1525C78.2113 31.4147 77.218 31.0209 76.2173 30.7992C74.3096 30.3765 71.8337 30.4918 69.5506 30.4918V33.4918ZM77.6259 35.6117C77.7035 36.2042 77.6282 36.8066 77.4071 37.3617L80.1942 38.4718C80.6048 37.4409 80.7446 36.3221 80.6004 35.2218L77.6259 35.6117ZM77.3822 37.4288L74.8322 44.8413L77.6691 45.8172L80.2191 38.4047L77.3822 37.4288ZM74.8639 44.7575L70.1889 56.095L72.9624 57.2386L77.6374 45.9011L74.8639 44.7575ZM70.2418 55.9805C69.3298 57.7531 68.6291 59.1017 67.9996 60.1532C67.3694 61.2057 66.8643 61.8666 66.3774 62.3078C65.5185 63.0859 64.5048 63.3876 61.909 63.3876V66.3876C64.6506 66.3876 66.6578 66.1018 68.3916 64.531C69.2011 63.7977 69.8853 62.8438 70.5735 61.6943C71.2623 60.5438 72.009 59.1033 72.9095 57.353L70.2418 55.9805ZM61.909 63.3876H38.4382V66.3876H61.909V63.3876ZM38.417 63.3878C33.9815 63.4502 30.3349 59.9058 30.2713 55.4703L27.2716 55.5133C27.3589 61.6052 32.3674 66.4733 38.4593 66.3875L38.417 63.3878ZM30.2715 55.4918V31.9918H27.2715V55.4918H30.2715ZM30.2715 31.9918V23.1834H27.2715V31.9918H30.2715ZM30.2713 23.1626C30.2415 21.0205 28.4826 19.3071 26.3405 19.3336L26.3775 22.3333C26.8648 22.3273 27.2649 22.717 27.2716 23.2043L30.2713 23.1626ZM26.359 19.3334H20.834V22.3334H26.359V19.3334Z" fill="#F2761F"/>
</svg>
