<svg width="100" height="100" viewBox="0 0 100 100" fill="none" xmlns="http://www.w3.org/2000/svg">
<path fill-rule="evenodd" clip-rule="evenodd" d="M60.4167 29.1666C60.4167 24.5642 56.6857 20.8333 52.0833 20.8333C47.481 20.8333 43.75 24.5642 43.75 29.1666H60.4167Z" stroke="#A7C338" stroke-width="3" stroke-linecap="round" stroke-linejoin="round"/>
<path d="M40.6427 53.1059C40.0569 52.5201 39.1072 52.5201 38.5214 53.1059C37.9356 53.6917 37.9356 54.6415 38.5214 55.2272L40.6427 53.1059ZM47.9154 62.4999L46.8547 63.5606C47.4405 64.1464 48.3902 64.1464 48.976 63.5606L47.9154 62.4999ZM65.6427 46.8939C66.2285 46.3081 66.2285 45.3584 65.6427 44.7726C65.0569 44.1868 64.1072 44.1868 63.5214 44.7726L65.6427 46.8939ZM60.416 27.6665C59.5876 27.6665 58.916 28.3381 58.916 29.1665C58.916 29.9949 59.5876 30.6665 60.416 30.6665V27.6665ZM67.3618 29.1665V30.6665C67.3779 30.6665 67.394 30.6662 67.41 30.6657L67.3618 29.1665ZM74.9993 36.3082H76.4993C76.4993 36.2907 76.499 36.2732 76.4984 36.2558L74.9993 36.3082ZM74.9993 72.0207L76.4985 72.0722C76.4991 72.055 76.4993 72.0379 76.4993 72.0207H74.9993ZM67.3618 79.1665L67.41 77.6673C67.394 77.6668 67.3779 77.6665 67.3618 77.6665V79.1665ZM36.8035 79.1665V77.6665C36.7874 77.6665 36.7714 77.6668 36.7553 77.6673L36.8035 79.1665ZM29.166 72.0248H27.666C27.666 72.0423 27.6663 72.0598 27.6669 72.0772L29.166 72.0248ZM29.166 36.3082L27.6669 36.2558C27.6663 36.2732 27.666 36.2907 27.666 36.3082H29.166ZM36.8035 29.1665L36.7553 30.6657C36.7714 30.6662 36.7874 30.6665 36.8035 30.6665V29.1665ZM43.7493 30.6665C44.5778 30.6665 45.2493 29.9949 45.2493 29.1665C45.2493 28.3381 44.5778 27.6665 43.7493 27.6665V30.6665ZM38.5214 55.2272L46.8547 63.5606L48.976 61.4393L40.6427 53.1059L38.5214 55.2272ZM48.976 63.5606L65.6427 46.8939L63.5214 44.7726L46.8547 61.4393L48.976 63.5606ZM60.416 30.6665H67.3618V27.6665H60.416V30.6665ZM67.41 30.6657C70.6626 30.5612 73.3866 33.1083 73.5003 36.3606L76.4984 36.2558C76.327 31.3509 72.219 27.5096 67.3137 27.6673L67.41 30.6657ZM73.4993 36.3082V72.0207H76.4993V36.3082H73.4993ZM73.5002 71.9691C73.3883 75.2227 70.6639 77.7718 67.41 77.6673L67.3137 80.6657C72.2209 80.8233 76.3297 76.9791 76.4985 72.0722L73.5002 71.9691ZM67.3618 77.6665H36.8035V80.6665H67.3618V77.6665ZM36.7553 77.6673C33.5027 77.7718 30.7788 75.2247 30.6651 71.9724L27.6669 72.0772C27.8384 76.9821 31.9464 80.8234 36.8517 80.6657L36.7553 77.6673ZM30.666 72.0248V36.3082H27.666V72.0248H30.666ZM30.6651 36.3606C30.7788 33.1083 33.5027 30.5612 36.7553 30.6657L36.8517 27.6673C31.9464 27.5096 27.8384 31.3509 27.6669 36.2558L30.6651 36.3606ZM36.8035 30.6665H43.7493V27.6665H36.8035V30.6665Z" fill="#A7C338"/>
</svg>
