<svg width="100" height="100" viewBox="0 0 100 100" fill="none" xmlns="http://www.w3.org/2000/svg">
<path d="M38.5607 57.2727C37.9749 56.6869 37.0251 56.6869 36.4393 57.2727C35.8536 57.8585 35.8536 58.8082 36.4393 59.394L38.5607 57.2727ZM45.8333 66.6667L44.7727 67.7273C45.3585 68.3131 46.3082 68.3131 46.894 67.7273L45.8333 66.6667ZM63.5607 51.0607C64.1464 50.4749 64.1464 49.5251 63.5607 48.9393C62.9749 48.3536 62.0251 48.3536 61.4393 48.9393L63.5607 51.0607ZM19.3728 38.4441C19.1855 39.2511 19.6878 40.0571 20.4948 40.2444C21.3018 40.4317 22.1078 39.9294 22.2951 39.1224L19.3728 38.4441ZM25.0007 20.8333V19.3333C24.3029 19.3333 23.6973 19.8144 23.5395 20.4941L25.0007 20.8333ZM50.0007 22.3333C50.8291 22.3333 51.5007 21.6617 51.5007 20.8333C51.5007 20.0048 50.8291 19.3333 50.0007 19.3333V22.3333ZM22.334 38.7833C22.334 37.9548 21.6624 37.2833 20.834 37.2833C20.0056 37.2833 19.334 37.9548 19.334 38.7833H22.334ZM20.834 79.1666H19.334C19.334 79.995 20.0056 80.6666 20.834 80.6666V79.1666ZM79.1673 79.1666V80.6666C79.9957 80.6666 80.6673 79.995 80.6673 79.1666H79.1673ZM80.6673 38.7833C80.6673 37.9548 79.9957 37.2833 79.1673 37.2833C78.3389 37.2833 77.6673 37.9548 77.6673 38.7833H80.6673ZM20.834 37.2833C20.0056 37.2833 19.334 37.9548 19.334 38.7833C19.334 39.6117 20.0056 40.2833 20.834 40.2833V37.2833ZM50.0007 40.2833C50.8291 40.2833 51.5007 39.6117 51.5007 38.7833C51.5007 37.9548 50.8291 37.2833 50.0007 37.2833V40.2833ZM48.5013 38.7833C48.5013 39.6117 49.1729 40.2833 50.0013 40.2833C50.8297 40.2833 51.5013 39.6117 51.5013 38.7833H48.5013ZM51.5013 20.8333C51.5013 20.0048 50.8297 19.3333 50.0013 19.3333C49.1729 19.3333 48.5013 20.0048 48.5013 20.8333H51.5013ZM50 37.2833C49.1716 37.2833 48.5 37.9549 48.5 38.7833C48.5 39.6117 49.1716 40.2833 50 40.2833V37.2833ZM79.1667 40.2833C79.9951 40.2833 80.6667 39.6117 80.6667 38.7833C80.6667 37.9549 79.9951 37.2833 79.1667 37.2833V40.2833ZM51.5013 38.7832C51.5013 37.9548 50.8297 37.2832 50.0013 37.2832C49.1729 37.2832 48.5013 37.9548 48.5013 38.7832H51.5013ZM48.5013 45.8332C48.5013 46.6616 49.1729 47.3332 50.0013 47.3332C50.8297 47.3332 51.5013 46.6616 51.5013 45.8332H48.5013ZM50 19.3333C49.1716 19.3333 48.5 20.0048 48.5 20.8333C48.5 21.6617 49.1716 22.3333 50 22.3333V19.3333ZM75 20.8333L76.4612 20.4941C76.3034 19.8144 75.6978 19.3333 75 19.3333V20.8333ZM77.7055 39.1224C77.8928 39.9294 78.6989 40.4317 79.5058 40.2444C80.3128 40.0571 80.8151 39.2511 80.6278 38.4441L77.7055 39.1224ZM36.4393 59.394L44.7727 67.7273L46.894 65.606L38.5607 57.2727L36.4393 59.394ZM46.894 67.7273L63.5607 51.0607L61.4393 48.9393L44.7727 65.606L46.894 67.7273ZM22.2951 39.1224L26.4618 21.1724L23.5395 20.4941L19.3728 38.4441L22.2951 39.1224ZM25.0007 22.3333H50.0007V19.3333H25.0007V22.3333ZM19.334 38.7833V79.1666H22.334V38.7833H19.334ZM20.834 80.6666H79.1673V77.6666H20.834V80.6666ZM80.6673 79.1666V38.7833H77.6673V79.1666H80.6673ZM20.834 40.2833H50.0007V37.2833H20.834V40.2833ZM51.5013 38.7833V20.8333H48.5013V38.7833H51.5013ZM50 40.2833H79.1667V37.2833H50V40.2833ZM48.5013 38.7832V45.8332H51.5013V38.7832H48.5013ZM50 22.3333H75V19.3333H50V22.3333ZM73.5388 21.1724L77.7055 39.1224L80.6278 38.4441L76.4612 20.4941L73.5388 21.1724Z" fill="#EEA842"/>
</svg>
