<svg width="100" height="100" viewBox="0 0 100 100" fill="none" xmlns="http://www.w3.org/2000/svg">
<path fill-rule="evenodd" clip-rule="evenodd" d="M38.784 16.6668H61.7881C62.027 16.6668 62.2645 16.6821 62.5006 16.7126C71.8645 17.3674 79.1356 25.1384 79.1673 34.5251V61.3126C79.1329 71.1963 71.1011 79.1852 61.2173 79.1668H38.784C28.8986 79.1852 20.8662 71.1938 20.834 61.3084V34.5251C20.8662 24.6398 28.8986 16.6483 38.784 16.6668Z" stroke="#6EB657" stroke-width="3" stroke-linecap="round" stroke-linejoin="round"/>
<path fill-rule="evenodd" clip-rule="evenodd" d="M40.4755 29.7043L34.263 34.7043C33.6629 35.2762 33.3254 36.0704 33.3301 36.8993C33.3349 37.7282 33.6814 38.5185 34.288 39.0835L38.3005 43.9126L55.0755 64.0835C55.3551 64.4083 55.7297 64.6371 56.1464 64.7376L64.4797 66.6418C65.5816 66.7042 66.5409 65.8965 66.6672 64.8001L66.2797 56.6918C66.2511 56.2756 66.0838 55.881 65.8047 55.571L49.4172 35.8626L45.0005 30.5585C43.9372 29.151 41.9788 28.7813 40.4755 29.7043Z" stroke="#6EB657" stroke-width="3" stroke-linecap="round" stroke-linejoin="round"/>
<path d="M79.1667 36.1916C79.9951 36.1916 80.6667 35.52 80.6667 34.6916C80.6667 33.8631 79.9951 33.1916 79.1667 33.1916V36.1916ZM62.5 34.6916H61C61 35.52 61.6716 36.1916 62.5 36.1916V34.6916ZM64 16.7124C64 15.884 63.3284 15.2124 62.5 15.2124C61.6716 15.2124 61 15.884 61 16.7124H64ZM50.8952 36.1365C51.0374 35.3204 50.491 34.5435 49.6749 34.4013C48.8587 34.2592 48.0819 34.8055 47.9397 35.6216L50.8952 36.1365ZM38.5224 42.4164C37.7031 42.294 36.9396 42.8589 36.8172 43.6783C36.6948 44.4976 37.2598 45.261 38.0792 45.3834L38.5224 42.4164ZM79.1667 33.1916H62.5V36.1916H79.1667V33.1916ZM64 34.6916V16.7124H61V34.6916H64ZM47.9397 35.6216C47.1653 40.0673 42.9854 43.0831 38.5224 42.4164L38.0792 45.3834C44.1529 46.2908 49.8413 42.1865 50.8952 36.1365L47.9397 35.6216Z" fill="#6EB657"/>
</svg>
