<svg width="105" height="97" viewBox="0 0 105 97" fill="none" xmlns="http://www.w3.org/2000/svg">
<path d="M45.1009 29.516C44.8582 29.7506 44.7219 30.0731 44.7219 30.4101C44.7219 30.7471 44.8582 31.0696 45.1009 31.3042C45.3429 31.5388 45.6706 31.6649 46.0076 31.655L45.1009 29.516ZM45.1009 29.516C45.3429 29.2814 45.6706 29.1553 46.0076 29.1653L45.1009 29.516ZM88.0326 25.3685L87.9721 25.3628L79.2236 24.5397L78.9295 24.5121L78.8118 24.2412L75.3131 16.1882L75.3121 16.1859C75.1946 15.9117 74.9245 15.7344 74.6246 15.7363L74.62 15.7363C74.3276 15.7354 74.0642 15.9111 73.9536 16.1795L73.95 16.1882L73.9499 16.1882L70.452 24.2411L70.3343 24.5121L70.0402 24.5397L61.2901 25.3628L61.2803 25.2583L61.2845 25.3633C60.9858 25.3876 60.7316 25.5874 60.6377 25.8705C60.5444 26.1535 60.6294 26.4647 60.8541 26.661L60.8552 26.662L67.4582 32.4659L67.681 32.6618L67.6159 32.9512L65.7137 41.4077L65.6908 41.5128C65.6274 41.8039 65.7421 42.1043 65.9837 42.2789C66.2259 42.4539 66.5491 42.4695 66.8067 42.3187C66.8068 42.3186 66.8069 42.3186 66.807 42.3185L74.3662 37.8475L74.6204 37.6972L74.8748 37.8473L82.4548 42.3192L82.4581 42.3211C82.5685 42.3874 82.6955 42.423 82.8269 42.4241C82.9857 42.4242 83.1404 42.3741 83.2682 42.2812L83.2693 42.2804C83.5092 42.107 83.6212 41.8072 83.554 41.5204L83.5528 41.5155L81.637 32.9506L81.5723 32.6616L81.7948 32.466L88.3954 26.6617C88.3959 26.6613 88.3963 26.6608 88.3968 26.6604C88.6166 26.4629 88.6994 26.1545 88.6081 25.8725L88.0326 25.3685ZM88.0326 25.3685C88.3006 25.4188 88.522 25.6109 88.6078 25.8716L88.0326 25.3685ZM61.2891 18.1491L61.2877 18.1477L53.8557 10.7378C53.855 10.7372 53.8544 10.7366 53.8538 10.7359C53.5674 10.4417 53.5675 9.97297 53.854 9.67883C53.9933 9.54018 54.183 9.46185 54.3807 9.46185C54.5788 9.46185 54.7686 9.54057 54.9083 9.68046L54.9088 9.68099L62.3357 17.095L62.3557 17.1149C62.4839 17.253 62.555 17.4334 62.555 17.6215C62.555 17.8181 62.4766 18.0074 62.3358 18.1479L62.3346 18.1491C62.197 18.2873 62.0086 18.3656 61.8114 18.3656C61.6147 18.3656 61.4269 18.2875 61.2891 18.1491ZM46.0076 31.155H46.0002L45.9928 31.1552C45.7897 31.1612 45.5932 31.0851 45.449 30.9452L45.4484 30.9447C45.3034 30.8046 45.2219 30.612 45.2219 30.4101C45.2219 30.2083 45.3034 30.0157 45.4484 29.8756L45.449 29.875C45.5932 29.7352 45.7897 29.6591 45.9928 29.6651L46.0002 29.6653H46.0076H56.4198C56.8215 29.6811 57.1383 30.0104 57.1383 30.4101C57.1383 30.8099 56.8215 31.1392 56.4198 31.155H46.0076ZM103.782 29.8837C103.91 30.0112 103.986 30.18 103.998 30.3582L103.998 30.4121C103.999 30.6082 103.921 30.7972 103.781 30.936L103.781 30.9366C103.641 31.0763 103.451 31.155 103.253 31.155H92.8364C92.4347 31.1392 92.1179 30.8099 92.1179 30.4101C92.1179 30.0104 92.4347 29.6811 92.8364 29.6653H103.254C103.452 29.6653 103.642 29.7441 103.782 29.8837ZM94.3362 9.68412C94.6146 9.40862 95.0554 9.39314 95.3521 9.6377L95.3989 9.68421C95.5393 9.82394 95.6183 10.0137 95.6183 10.2101C95.6183 10.4073 95.5392 10.597 95.3989 10.7367L95.3984 10.7371L87.9707 18.1453C87.9704 18.1456 87.97 18.146 87.9697 18.1463C87.8258 18.2875 87.6325 18.3664 87.4314 18.366L87.431 18.366C87.1284 18.3655 86.8559 18.1832 86.7405 17.9049L86.7404 17.9047C86.6252 17.6272 86.6886 17.307 86.9021 17.0939L94.3356 9.68473C94.3358 9.68453 94.336 9.68433 94.3362 9.68412ZM74.6238 1.0989L74.625 1.09889C74.8246 1.09752 75.0159 1.1755 75.157 1.31542C75.2989 1.45614 75.3782 1.64652 75.3782 1.843V11.149C75.3623 11.5496 75.0316 11.8688 74.6269 11.8688C74.2222 11.8688 73.8918 11.5496 73.8765 11.1494V1.84412C73.8774 1.43508 74.2102 1.10074 74.6238 1.0989ZM67.1281 32.8415L65.314 40.9064L60.5251 27.0375L67.1281 32.8415ZM65.6074 96.0989V51.0728H83.6374V96.0989H65.6074ZM62.1141 96.0989H44.0772L44.078 61.8208H62.1141V96.0989ZM1 83.3114H19.0385V96.0989H1V83.3114ZM40.5837 72.5646V96.0987H22.5406V72.5646H40.5837Z" fill="url(#paint0_linear_1016_1929)" stroke="#6D95FC"/>
<defs>
<linearGradient id="paint0_linear_1016_1929" x1="72" y1="63.0989" x2="71.9841" y2="48.5989" gradientUnits="userSpaceOnUse">
<stop offset="0.63776" stop-color="#6D95FC"/>
<stop offset="1" stop-color="white"/>
</linearGradient>
</defs>
</svg>
