<svg width="96" height="93" viewBox="0 0 96 93" fill="none" xmlns="http://www.w3.org/2000/svg">
<path fill-rule="evenodd" clip-rule="evenodd" d="M16.5294 62.8819C16.5294 65.3017 14.5616 67.2702 12.1425 67.2702C9.72269 67.2702 7.75419 65.3024 7.75419 62.8819C7.75419 60.4621 9.72341 58.4936 12.1425 58.4936C14.5616 58.495 16.5294 60.4621 16.5294 62.8819ZM5.81443 62.8819C5.81443 66.3697 8.65248 69.2078 12.1411 69.2078C15.6289 69.2078 18.467 66.3697 18.467 62.8819C18.467 59.394 15.6289 56.5553 12.1411 56.5553C8.65248 56.5567 5.81443 59.3947 5.81443 62.8819ZM88.2446 62.8819C88.2446 65.3017 86.2769 67.2702 83.8564 67.2702C81.4387 67.2702 79.4695 65.3024 79.4695 62.8819C79.4695 60.4621 81.4387 58.4936 83.8564 58.4936C86.2769 58.495 88.2446 60.4621 88.2446 62.8819ZM77.5297 62.8819C77.5297 66.3697 80.3685 69.2078 83.8556 69.2078C87.3456 69.2078 90.1823 66.3697 90.1823 62.8819C90.1823 59.394 87.3456 56.5553 83.8556 56.5553C80.3692 56.5567 77.5297 59.3947 77.5297 62.8819ZM47.9995 67.2702C45.5797 67.2702 43.6126 65.3024 43.6126 62.8819C43.6126 60.4621 45.5804 58.4936 47.9995 58.4936C50.4193 58.4936 52.3878 60.4614 52.3878 62.8819C52.3878 65.3024 50.4193 67.2702 47.9995 67.2702ZM47.9995 56.5567C44.5116 56.5567 41.6736 59.3947 41.6736 62.8833C41.6736 66.3712 44.5116 69.2092 47.9995 69.2092C51.4881 69.2092 54.3261 66.3712 54.3261 62.8833C54.3261 59.3947 51.4881 56.5567 47.9995 56.5567ZM93.5641 90.882H74.1522V78.2659C74.1522 76.2588 75.3143 74.4054 77.0905 73.5014C79.0703 74.9183 81.3981 75.6664 83.8549 75.6664C86.3153 75.6664 88.6412 74.9183 90.6194 73.5014C92.3977 74.4046 93.5612 76.2588 93.5612 78.2659L93.5619 90.882H93.5641ZM90.8461 71.479C90.5247 71.3555 90.1597 71.4088 89.8903 71.625C88.159 72.9998 86.0725 73.7282 83.8556 73.7282C81.6415 73.7282 79.5537 72.9991 77.8245 71.625C77.5543 71.4102 77.1908 71.3555 76.8687 71.479C74.084 72.5625 72.2137 75.2883 72.2137 78.2646V91.8498C72.2137 92.3852 72.6475 92.8189 73.1829 92.8189H94.5315C95.0663 92.8189 95.5 92.3838 95.5 91.8498V78.2661C95.5014 75.2899 93.6305 72.5627 90.8458 71.4792L90.8461 71.479ZM57.7066 90.882H38.2964V78.2659C38.2964 76.2588 39.4586 74.4054 41.2369 73.5014C43.2167 74.9183 45.5423 75.6664 48.0006 75.6664C50.4603 75.6664 52.7868 74.9183 54.765 73.5014C56.5433 74.4046 57.7069 76.2588 57.7069 78.2659L57.7066 90.882ZM54.9885 71.479C54.6678 71.3555 54.3043 71.4088 54.0341 71.625C52.3028 72.9998 50.2171 73.7282 48.0009 73.7282C45.7853 73.7282 43.699 72.9991 41.9676 71.625C41.6981 71.4102 41.3346 71.3555 41.0139 71.479C38.2292 72.5625 36.3575 75.2883 36.3575 78.2646V91.8498C36.3575 92.3852 36.7912 92.8189 37.3267 92.8189H58.6771C59.2119 92.8189 59.6463 92.3838 59.6463 91.8498V78.2661C59.6463 75.2899 57.7746 72.5627 54.9892 71.4792L54.9885 71.479ZM21.849 90.882H2.43886V78.2659C2.43886 76.2588 3.60102 74.4054 5.37859 73.5014C7.35841 74.9183 9.68478 75.6664 12.143 75.6664C14.6013 75.6664 16.9286 74.9183 18.9075 73.5014C20.6851 74.4046 21.8472 76.2588 21.8472 78.2659L21.8479 90.882H21.849ZM19.1317 71.479C18.8103 71.3555 18.4474 71.4088 18.1773 71.625C16.446 72.9998 14.3595 73.7282 12.144 73.7282C9.92777 73.7282 7.84213 72.9991 6.11078 71.625C5.84059 71.4102 5.47777 71.3555 5.15635 71.479C2.37167 72.5625 0.5 75.2883 0.5 78.2646V91.8498C0.5 92.3852 0.935112 92.8189 1.47056 92.8189H22.8174C23.3529 92.8189 23.7866 92.3838 23.7866 91.8498V78.2661C23.7873 75.2899 21.9163 72.5627 19.1309 71.4792L19.1317 71.479ZM71.7622 16.7627C72.1825 16.7627 72.5545 16.4911 72.6857 16.0918L73.9875 12.086L75.288 16.0918C75.4178 16.4911 75.7897 16.7627 76.2115 16.7627H80.4243L77.0149 19.2378C76.6753 19.4841 76.5328 19.9221 76.6627 20.3214L77.9652 24.3272L74.5572 21.852C74.3853 21.7306 74.186 21.6675 73.9874 21.6675C73.7874 21.6675 73.5874 21.7292 73.4161 21.852L70.0082 24.3272L71.3107 20.3214C71.4406 19.922 71.2974 19.4841 70.9577 19.2378L67.5498 16.7627H71.7622ZM63.9956 16.576L69.247 20.3916L67.242 26.5665C67.1122 26.9659 67.2533 27.4017 67.5929 27.6501C67.9333 27.8964 68.3936 27.8964 68.7333 27.6501L73.9861 23.8345L79.2375 27.6501C79.4059 27.775 79.6067 27.8346 79.8074 27.8346C80.0074 27.8346 80.2067 27.7736 80.3772 27.6501C80.7169 27.4017 80.8579 26.9658 80.7281 26.5665L78.7231 20.3916L83.974 16.576C84.3143 16.3297 84.4561 15.8918 84.327 15.4924C84.1971 15.0931 83.8252 14.8236 83.4034 14.8236H76.9119L74.9047 8.64865C74.7749 8.24933 74.4051 7.97984 73.9847 7.97984C73.5636 7.97984 73.1917 8.24933 73.0611 8.64865L71.0562 14.8236H64.5625C64.1435 14.8236 63.7716 15.0931 63.641 15.4924C63.5133 15.8918 63.6553 16.3297 63.9956 16.576ZM45.7784 16.7627C46.1988 16.7627 46.5707 16.4911 46.7005 16.0918L48.001 12.0867L49.3035 16.0925C49.4333 16.4918 49.8053 16.7634 50.2256 16.7634H54.4384L51.029 19.2385C50.6894 19.4849 50.5483 19.9228 50.6768 20.3221L51.9793 24.3279L48.5699 21.8528C48.4008 21.7299 48.2008 21.6675 48.0008 21.6675C47.8008 21.6675 47.6014 21.7292 47.4316 21.8521L44.0223 24.3272L45.3248 20.3214C45.4546 19.9221 45.3121 19.4841 44.9725 19.2378L41.5646 16.7627L45.7784 16.7627ZM38.0118 16.576L43.2632 20.3916L41.2575 26.5665C41.1277 26.9659 41.2702 27.4017 41.6105 27.6501C41.9502 27.8964 42.4098 27.8964 42.7495 27.6501L48.0009 23.8353L53.2537 27.6508C53.4235 27.7757 53.6228 27.8354 53.8228 27.8354C54.0228 27.8354 54.2229 27.7743 54.3927 27.6508C54.7331 27.4024 54.8748 26.9666 54.7457 26.5673L52.74 20.3923L57.9908 16.5767C58.3312 16.3304 58.4736 15.8925 58.3438 15.4932C58.214 15.0938 57.842 14.8244 57.4224 14.8244H50.9287L48.923 8.64937C48.7931 8.25004 48.4212 7.98056 48.0008 7.98056C47.5819 7.98056 47.2099 8.25004 47.0787 8.64937L45.0737 14.8244H38.5815C38.1625 14.8244 37.7891 15.0938 37.6593 15.4932C37.5302 15.8918 37.6719 16.3297 38.0116 16.576L38.0118 16.576ZM19.7928 16.7627C20.2132 16.7627 20.5851 16.4911 20.715 16.0918L22.0175 12.086L23.3193 16.0918C23.4491 16.4911 23.8211 16.7627 24.2414 16.7627H28.4542L25.0463 19.2378C24.7059 19.4841 24.5642 19.9221 24.6933 20.3214L25.9958 24.3272L22.5879 21.852C22.4174 21.7306 22.2181 21.6675 22.0181 21.6675C21.818 21.6675 21.618 21.7292 21.4482 21.852L18.0403 24.3272L19.3421 20.3214C19.4719 19.922 19.3309 19.4841 18.9898 19.2378L15.5819 16.7627H19.7928ZM12.0275 16.576L17.2803 20.3916L15.2746 26.5665C15.1448 26.9659 15.2859 27.4017 15.6269 27.6501C15.9673 27.8964 16.4262 27.8964 16.7673 27.6501L22.0187 23.8345L27.2701 27.6501C27.4399 27.775 27.6399 27.8346 27.8399 27.8346C28.0399 27.8346 28.24 27.7736 28.4098 27.6501C28.7494 27.4017 28.8905 26.9658 28.7621 26.5665L26.7564 20.3916L32.0078 16.576C32.3481 16.3297 32.4899 15.8918 32.3607 15.4924C32.2309 15.0931 31.859 14.8236 31.4372 14.8236H24.9457L22.94 8.64865C22.8101 8.24933 22.4382 7.97984 22.0178 7.97984C21.5975 7.97984 21.2255 8.24933 21.0957 8.64865L19.09 14.8236H12.5977C12.1774 14.8236 11.8068 15.0931 11.6756 15.4924C11.5458 15.8918 11.6875 16.3297 12.0272 16.576H12.0275ZM7.09952 8.94345V26.8712C7.09952 30.5255 10.0737 33.4997 13.7272 33.4997H43.597C44.0097 33.4997 44.3781 33.7614 44.5142 34.1516L48.0007 44.2202L51.4885 34.1524C51.6247 33.7622 51.9917 33.5004 52.4058 33.5004H82.2773C85.9316 33.5004 88.9036 30.5262 88.9036 26.872V8.94345C88.9036 5.28923 85.9316 2.31716 82.2773 2.31716H13.7274C10.0732 2.31576 7.09952 5.28779 7.09952 8.94345ZM13.7272 35.4393H42.9071L47.0856 47.4987C47.2217 47.891 47.5874 48.1514 48.0014 48.1514C48.4155 48.1514 48.7832 47.8896 48.9173 47.4987L53.0957 35.4393H82.2756C86.9979 35.4393 90.8409 31.5962 90.8409 26.8718V8.94399C90.8409 4.22099 86.9966 0.378662 82.2756 0.378662H13.7257C9.0027 0.378662 5.16038 4.2217 5.16038 8.94399V26.8718C5.16178 31.5962 9.00424 35.4393 13.7272 35.4393Z" fill="url(#paint0_linear_1016_1924)"/>
<defs>
<linearGradient id="paint0_linear_1016_1924" x1="48" y1="0.378662" x2="48" y2="92.8189" gradientUnits="userSpaceOnUse">
<stop offset="0.452091" stop-color="#6D95FC"/>
<stop offset="0.64115" stop-color="white"/>
</linearGradient>
</defs>
</svg>
