<svg width="91" height="91" viewBox="0 0 91 91" fill="none" xmlns="http://www.w3.org/2000/svg">
<path d="M57.5447 45.8432C56.8295 45.128 55.7001 45.128 54.9848 45.8056L41.9971 58.605L35.8233 52.356C35.108 51.6407 33.9786 51.6407 33.2634 52.3183C32.5482 53.0336 32.5482 54.163 33.2258 54.8782L41.9218 63.7249L57.5069 48.3655C58.2598 47.7255 58.2598 46.5585 57.5446 45.8433L57.5447 45.8432Z" fill="#6D95FC"/>
<path d="M49.5355 14.4679L49.5354 14.4678C48.3662 15.5967 46.8874 16.2675 45.3385 16.2268C43.7354 16.2049 42.2232 15.4374 41.1228 14.3117C40.0219 13.1855 39.2937 11.6604 39.3146 10.0735L39.3147 10.0675L39.3147 10.0675C39.3969 6.82121 42.1796 4.12161 45.4236 4.1215L49.5355 14.4679ZM49.5355 14.4679L49.5417 14.4616M49.5355 14.4679L49.5417 14.4616M49.5417 14.4616C50.7077 13.2956 51.4574 11.7437 51.4574 10.193C51.4574 8.62989 50.8401 7.1098 49.6922 5.96199C48.5557 4.8255 47.0396 4.12156 45.4238 4.1215L49.5417 14.4616ZM54.1091 10.2229L54.109 10.2229V10.2307C54.109 12.4527 53.1206 14.6609 51.4002 16.3464C49.753 17.9211 47.5784 18.8408 45.4612 18.8408H45.3145C40.6579 18.7674 36.6294 14.6264 36.7004 10.0124L36.7004 10.0123C36.7716 5.28218 40.6863 1.46985 45.4236 1.46985H45.4949C47.7703 1.50645 49.9398 2.43069 51.5789 4.10542L51.5789 4.10544L51.5827 4.10925C53.2593 5.78591 54.1445 7.95315 54.1091 10.2229Z" fill="white" stroke="black"/>
<path d="M59.7286 37.7023H59.706C58.969 37.691 58.3775 37.1191 58.3459 36.3855V29.3933V29.3318L58.331 29.272C58.2964 29.1339 58.2159 29.0093 58.1405 28.9139C58.0561 28.8071 57.9435 28.6937 57.8006 28.5794C57.5141 28.3502 57.0946 28.1082 56.5031 27.9042L56.5012 27.9036L56.3401 28.3769L56.5012 27.9036L56.501 27.9035L56.5006 27.9034L56.4986 27.9027L56.4909 27.9001L56.4608 27.8899L56.3449 27.8505L55.9164 27.7051C55.5532 27.5821 55.0482 27.4114 54.4807 27.2206C53.3465 26.8394 51.9602 26.3773 50.959 26.0561L50.6684 25.963L50.4527 26.1787L45.4607 31.1707L40.4687 26.1787L40.2529 25.9629L39.9624 26.0561C38.9612 26.3773 37.5749 26.8394 36.4407 27.2206C35.8732 27.4114 35.3681 27.5821 35.005 27.7051L34.5764 27.8505L34.4605 27.8899L34.4304 27.9001L34.4228 27.9027L34.4216 27.9031C33.2224 28.3032 32.658 28.931 32.5805 29.4732L32.5755 29.5084V29.5439V36.3953C32.5755 37.0979 31.9711 37.7023 31.2685 37.7023C30.5591 37.7023 29.9615 37.1288 29.9615 36.3953V29.6568V29.6495L29.9613 29.6422C29.9298 28.5684 30.5575 26.443 33.6101 25.4254L33.6101 25.4254L33.6121 25.4248L33.452 24.9511L33.6122 25.4247L33.6124 25.4247L33.6131 25.4244L33.616 25.4235L33.6275 25.4196L33.6724 25.4044L33.8442 25.3464L34.4676 25.1361C34.9892 24.9603 35.6983 24.7215 36.4486 24.4699C37.9518 23.9657 39.6121 23.4123 40.2652 23.207L40.2652 23.2071L40.2683 23.2061L41.0317 22.9607L45.145 27.074L45.4985 27.4275L45.8521 27.074L49.9654 22.9607L50.7288 23.2061L50.7319 23.2071C51.3851 23.4123 53.0454 23.9657 54.5486 24.4699C55.2988 24.7215 56.0079 24.9603 56.5295 25.1361L57.1529 25.3464L57.3247 25.4044L57.3696 25.4196L57.3811 25.4235L57.384 25.4244L57.3847 25.4247L57.3849 25.4247L57.5451 24.9511L57.385 25.4248L57.387 25.4254C60.4489 26.4461 61.0984 28.5744 61.0364 29.6274L61.0356 29.6421V29.6568V36.3953C61.0356 37.1047 60.4621 37.7023 59.7286 37.7023Z" fill="white" stroke="black"/>
<path d="M20.6228 66.4934L20.6227 66.4934C19.4522 67.6235 17.9355 68.2931 16.4255 68.2523C14.8225 68.2304 13.3104 67.4629 12.2101 66.3373C11.1092 65.2112 10.3811 63.6861 10.4019 62.0994L20.6228 66.4934ZM20.6228 66.4934L20.629 66.4872M20.6228 66.4934L20.629 66.4872M20.629 66.4872C21.7933 65.3228 22.5426 63.7737 22.5447 62.2251C22.5844 60.6418 21.9156 59.1639 20.7858 57.9938L20.7859 57.9938M20.629 66.4872L20.7859 57.9938M20.7859 57.9938L20.7797 57.9876M20.7859 57.9938L20.7797 57.9876M20.7797 57.9876C19.6446 56.8524 18.1288 56.1471 16.5487 56.1471H16.5111C13.2331 56.1471 10.4432 58.8445 10.4019 62.0991L20.7797 57.9876ZM7.78767 62.0757L7.78767 62.0755C7.85888 57.3454 11.7736 53.5331 16.5109 53.5331H16.5823C18.8577 53.5697 21.0272 54.4939 22.6663 56.1687L22.6662 56.1687L22.67 56.1725C24.3467 57.8491 25.2319 60.0164 25.1964 62.2861L25.1964 62.2861V62.2939C25.1964 64.5159 24.2079 66.7242 22.4876 68.4096C20.8403 69.9843 18.6657 70.904 16.5486 70.904H16.4038C11.7416 70.7941 7.71675 66.6857 7.78767 62.0757Z" fill="white" stroke="black"/>
<path d="M30.817 89.7278H30.7937C30.0646 89.7163 29.5095 89.1536 29.5095 88.421V81.4188V81.3573L29.4945 81.2975C29.46 81.1594 29.3795 81.0348 29.3041 80.9394C29.2197 80.8326 29.107 80.7192 28.9642 80.6049C28.6777 80.3757 28.2581 80.1337 27.6666 79.9297L27.6648 79.9291L27.5037 80.4024L27.6647 79.9291L27.6646 79.929L27.6641 79.9289L27.6622 79.9282L27.6545 79.9256L27.6244 79.9154L27.5085 79.876L27.08 79.7306C26.7168 79.6076 26.2117 79.4369 25.6443 79.2461C24.5101 78.8649 23.1237 78.4028 22.1225 78.0816L21.832 77.9885L21.6163 78.2042L16.6243 83.1962L11.6322 78.2042L11.4165 77.9885L11.126 78.0817C10.1248 78.4028 8.73846 78.8649 7.60427 79.2462C7.03678 79.4369 6.53172 79.6076 6.16853 79.7306L5.74 79.876L5.62411 79.9154L5.59402 79.9256L5.58634 79.9282L5.58519 79.9286C4.38596 80.3287 3.82154 80.9565 3.74408 81.4987L3.73905 81.5339V81.5694V88.4208C3.73905 89.1234 3.13471 89.7278 2.43207 89.7278C1.72263 89.7278 1.12509 89.1543 1.12509 88.4208V81.6823V81.675L1.12488 81.6677C1.09341 80.5939 1.72109 78.4685 4.77371 77.4509L4.77371 77.4509L4.77672 77.4499L4.6156 76.9766L4.77678 77.4499L4.77696 77.4498L4.77768 77.4496L4.78055 77.4486L4.79194 77.4447L4.83656 77.4296L5.00718 77.3715L5.62624 77.1613C6.14429 76.9855 6.84869 76.7467 7.5942 76.4951C9.08819 75.9908 10.7386 75.4376 11.3911 75.2326L11.3911 75.2326L11.3942 75.2316L12.1576 74.9862L16.2709 79.0995L16.626 79.4546L16.9795 79.0979L21.0552 74.9867L21.8172 75.2316L21.8203 75.2326C22.4734 75.4378 24.1337 75.9912 25.6369 76.4954C26.3872 76.747 27.0963 76.9858 27.6179 77.1616L28.2412 77.3719L28.4131 77.4299L28.458 77.4451L28.4695 77.449L28.4724 77.4499L28.4731 77.4502L28.4733 77.4502L28.6334 76.9766L28.4733 77.4503L28.4753 77.4509C31.5373 78.4716 32.1867 80.5999 32.1248 81.653L32.1239 81.6676V81.6823V88.4208C32.1239 89.1302 31.5505 89.7278 30.817 89.7278Z" fill="white" stroke="black"/>
<path d="M78.572 57.9936L78.572 57.9936C79.7103 59.1726 80.331 60.6503 80.331 62.2184C80.331 63.7691 79.5812 65.321 78.4153 66.487L78.4091 66.4933L78.409 66.4932C77.2385 67.6233 75.7218 68.2929 74.2118 68.2521C72.6088 68.2302 71.0967 67.4627 69.9964 66.3371C68.8955 65.211 68.1673 63.6859 68.1882 62.0991C68.1882 62.099 68.1882 62.099 68.1882 62.0989L68.6882 62.1055C68.7258 59.1693 71.2856 56.647 74.2971 56.6469L78.572 57.9936ZM78.572 57.9936L78.5658 57.9874C77.4293 56.8509 75.9132 56.1469 74.2974 56.1469L78.572 57.9936ZM82.945 62.2483L82.9449 62.2483V62.2561C82.9449 64.4781 81.9565 66.6863 80.2362 68.3718C78.5889 69.9465 76.4143 70.8662 74.2971 70.8662H74.1504C69.4938 70.7928 65.4653 66.6518 65.5363 62.0378L65.5363 62.0377C65.6075 57.3076 69.5223 53.4952 74.2596 53.4952H74.3309C76.6063 53.5318 78.7758 54.4561 80.4148 56.1308L80.4148 56.1308L80.4186 56.1346C82.0953 57.8113 82.9805 59.9785 82.945 62.2483Z" fill="white" stroke="black"/>
<path d="M88.5645 89.7278H88.5412C87.8121 89.7163 87.257 89.1536 87.257 88.421V81.4188V81.3573L87.2421 81.2975C87.2075 81.1594 87.1271 81.0348 87.0517 80.9394C86.9673 80.8326 86.8546 80.7192 86.7117 80.6049C86.4252 80.3757 86.0057 80.1337 85.4142 79.9297L85.4123 79.9291L85.2512 80.4024L85.4123 79.9291L85.4122 79.929L85.4117 79.9289L85.4097 79.9282L85.4021 79.9256L85.372 79.9154L85.2561 79.876L84.8276 79.7306C84.4644 79.6076 83.9593 79.4369 83.3918 79.2461C82.2576 78.8649 80.8713 78.4028 79.8701 78.0816L79.5796 77.9885L79.3638 78.2042L74.3718 83.1962L69.3798 78.2042L69.1641 77.9885L68.8735 78.0817C67.8723 78.4028 66.486 78.8649 65.3518 79.2462C64.7843 79.4369 64.2793 79.6076 63.9161 79.7306L63.4876 79.876L63.3717 79.9154L63.3416 79.9256L63.3339 79.9282L63.3327 79.9286C62.1335 80.3287 61.5691 80.9565 61.4916 81.4987L61.4866 81.5339V81.5694V88.4208C61.4866 89.1234 60.8823 89.7278 60.1796 89.7278C59.4702 89.7278 58.8727 89.1543 58.8727 88.4208V81.6823V81.675L58.8724 81.6677C58.841 80.5939 59.4686 78.4685 62.5213 77.4509L62.5213 77.4509L62.5243 77.4499L62.3631 76.9766L62.5243 77.4499L62.5245 77.4498L62.5252 77.4496L62.5281 77.4486L62.5395 77.4447L62.5841 77.4296L62.7547 77.3715L63.3738 77.1613C63.8918 76.9855 64.5962 76.7467 65.3418 76.4951C66.8357 75.9908 68.4861 75.4376 69.1386 75.2326L69.1387 75.2326L69.1417 75.2316L69.9051 74.9862L74.0184 79.0995L74.3735 79.4546L74.7271 79.0979L78.8027 74.9867L79.5647 75.2316L79.5678 75.2326C80.221 75.4378 81.8813 75.9912 83.3845 76.4954C84.1347 76.747 84.8439 76.9858 85.3655 77.1616L85.9888 77.3719L86.1606 77.4299L86.2056 77.4451L86.217 77.449L86.2199 77.4499L86.2206 77.4502L86.2208 77.4502L86.381 76.9766L86.2209 77.4503L86.2229 77.4509C89.2848 78.4716 89.9343 80.5999 89.8724 81.653L89.8715 81.6676V81.6823V88.4208C89.8715 89.1302 89.298 89.7278 88.5645 89.7278Z" fill="white" stroke="black"/>
<path d="M25.3961 38.1265C25.9984 37.4113 26.6384 36.696 27.3159 36.0561C27.6171 35.7926 27.6171 35.3032 27.3536 35.0397C27.0901 34.7385 26.6007 34.7385 26.3372 35.002C25.6219 35.6796 24.9443 36.4325 24.3044 37.1855C24.0409 37.4867 24.0785 37.9384 24.3797 38.2019C24.5303 38.3149 24.6808 38.3525 24.8314 38.3525C25.0573 38.3902 25.2455 38.3147 25.3961 38.1265Z" fill="#6D95FC"/>
<path d="M18.9201 51.4535C19.2589 51.4535 19.5977 51.19 19.6354 50.8512C19.786 49.91 19.9742 49.0065 20.2377 48.103C20.3506 47.7265 20.1248 47.3124 19.7107 47.1995C19.3342 47.0866 18.9201 47.3124 18.8072 47.7265C18.5437 48.6677 18.3554 49.6464 18.2049 50.6628C18.1296 51.0769 18.4307 51.4157 18.8072 51.491C18.8448 51.4533 18.8825 51.4535 18.9201 51.4535Z" fill="#6D95FC"/>
<path d="M20.9904 44.5267C21.2539 44.5267 21.5174 44.3762 21.668 44.1127C22.0445 43.2468 22.4962 42.4186 22.9856 41.5905C23.1738 41.2516 23.0609 40.7999 22.7221 40.6117C22.3833 40.4234 21.9315 40.5364 21.7433 40.8752C21.2539 41.741 20.7645 42.6068 20.3504 43.5103C20.1998 43.8867 20.3504 44.3008 20.7269 44.4891C20.8022 44.4891 20.8775 44.5267 20.9904 44.5267Z" fill="#6D95FC"/>
<path d="M55.9633 78.2375L55.6998 78.3505C55.3233 78.501 55.1727 78.9528 55.3233 79.2916C55.4363 79.5551 55.6998 79.7433 56.0009 79.7433C56.1139 79.7433 56.1892 79.7057 56.3021 79.6681L56.6033 79.5551C56.9797 79.4045 57.1303 78.9528 56.9797 78.5763C56.7539 78.1999 56.3397 78.0493 55.9633 78.2375Z" fill="#6D95FC"/>
<path d="M35.0711 78.351C34.6947 78.2005 34.2806 78.351 34.13 78.7275C33.9794 79.1039 34.13 79.5181 34.5064 79.6686C35.4099 80.0451 36.3511 80.4215 37.2923 80.6851C37.3676 80.7227 37.4429 80.7227 37.5181 80.7227C37.8193 80.7227 38.1205 80.5345 38.1958 80.1957C38.3087 79.8192 38.0828 79.4051 37.7064 79.2922C36.8405 79.0287 35.9369 78.7275 35.0711 78.351Z" fill="#6D95FC"/>
<path d="M51.6729 79.7053C50.7694 79.9311 49.8283 80.1194 48.8871 80.2323C48.473 80.2699 48.2095 80.6464 48.2471 81.0605C48.2847 81.4369 48.6235 81.7005 48.9623 81.7005H49.0753C50.0541 81.5499 51.0328 81.3617 52.0115 81.1358C52.388 81.0229 52.6515 80.6464 52.5386 80.27C52.4633 79.8182 52.0492 79.5924 51.6727 79.7053L51.6729 79.7053Z" fill="#6D95FC"/>
<path d="M41.8464 80.2337C41.4323 80.196 41.0935 80.4595 41.0182 80.8737C40.9806 81.2877 41.2441 81.6266 41.6582 81.7019C42.637 81.8148 43.6158 81.9277 44.6321 81.9277H44.6698C45.0462 81.9277 45.385 81.6266 45.385 81.2125C45.385 80.7984 45.0839 80.4596 44.6698 80.4596C43.7286 80.4219 42.7874 80.3466 41.8464 80.2337Z" fill="#6D95FC"/>
<path d="M69.1766 44.2254C69.2895 44.4889 69.553 44.6395 69.8542 44.6395C69.9671 44.6395 70.0424 44.6019 70.1554 44.5642C70.5318 44.4136 70.6824 43.9619 70.5318 43.6231C70.1177 42.7196 69.666 41.8161 69.1766 40.988C68.9884 40.6492 68.5366 40.5362 68.1978 40.7245C67.859 40.9127 67.7461 41.3645 67.9343 41.7033C68.3861 42.5315 68.8001 43.3596 69.1766 44.2254Z" fill="#6D95FC"/>
<path d="M71.8492 51.0209H71.9621C72.3762 50.9456 72.6397 50.5691 72.5644 50.1927C72.4138 49.2515 72.2256 48.3103 71.9998 47.4068C71.8868 47.0304 71.5104 46.8045 71.0963 46.8798C70.7198 46.9927 70.4939 47.3692 70.5692 47.7833C70.7951 48.6491 70.9833 49.5149 71.1339 50.4184C71.2092 50.7572 71.5104 51.0207 71.8492 51.0207L71.8492 51.0209Z" fill="#6D95FC"/>
<path d="M64.5851 35.1149C64.284 34.8514 63.8322 34.8514 63.5687 35.1149C63.3052 35.416 63.3052 35.8678 63.5687 36.1313C64.2463 36.7713 64.8863 37.4865 65.4886 38.2017C65.6392 38.39 65.8274 38.4652 66.0533 38.4652C66.2039 38.4652 66.3921 38.4276 66.505 38.3147C66.8062 38.0512 66.8438 37.5994 66.618 37.2982C65.978 36.5453 65.3003 35.8302 64.5851 35.1149Z" fill="#6D95FC"/>
</svg>
