<svg width="95" height="109" viewBox="0 0 95 109" fill="none" xmlns="http://www.w3.org/2000/svg">
<path d="M57.2321 103.02C57.7642 102.955 58.2225 102.596 58.4082 102.083C58.6141 101.514 58.4414 100.877 57.9762 100.491C53.6127 96.8719 50.9387 91.6105 50.5887 85.9524C50.2387 80.2942 52.2439 74.743 56.1283 70.6149C60.0128 66.4859 65.432 64.1468 71.1009 64.1521C71.9864 64.153 72.8715 64.2087 73.7499 64.3211C74.1596 64.3724 74.5705 64.246 74.8794 63.9736C75.1888 63.7007 75.3662 63.309 75.3662 62.8972V17.9063C75.3646 16.3539 74.7473 14.866 73.6497 13.7684C72.5521 12.6708 71.0644 12.0535 69.512 12.0519H54.7643C53.9711 12.0519 53.3278 12.6951 53.3278 13.4883V18.3725V18.8725H52.8278H23.0556H22.5556V18.3725V13.4883C22.5556 13.1074 22.4042 12.7418 22.135 12.4725C21.8657 12.2033 21.5001 12.0519 21.1192 12.0519H6.35416C4.8019 12.0535 3.31406 12.6708 2.21651 13.7684C2.21651 13.7684 2.21651 13.7684 2.2165 13.7684M57.2321 103.02L0 17.9058C0.00172906 16.2209 0.671706 14.6061 1.86295 13.4148L2.2165 13.7684M57.2321 103.02H57.0572H6.35465C4.80295 103.018 3.31504 102.401 2.21736 101.303C1.11982 100.205 0.502486 98.7175 0.5 97.166V17.906M57.2321 103.02L0.5 17.906M2.2165 13.7684C1.11895 14.866 0.501661 16.3537 0.5 17.906M2.2165 13.7684L0.5 17.906M6.35392 14.9251V14.9251L6.34944 14.9252C4.71198 14.9397 3.39005 16.2659 3.37969 17.903H3.37968V17.9062L3.37968 97.1668L3.37969 97.1674C3.38176 98.8091 4.70983 100.142 6.35202 100.148H6.35388H52.4408H53.4828L52.8308 99.335C49.1321 94.7239 47.3148 88.8838 47.7447 82.9878C48.1747 77.0918 50.819 71.5767 55.1473 67.5504C59.4758 63.5241 65.1678 61.2845 71.079 61.281C71.3812 61.281 71.6649 61.2812 71.9481 61.2975L72.4769 61.328V60.7983V17.9071V17.9065C72.4748 16.2615 71.1414 14.9282 69.4964 14.9261H69.4958H56.7008H56.2008V15.4261V20.3103C56.2008 20.6912 56.0494 21.0568 55.7802 21.326C55.5109 21.5953 55.1453 21.7467 54.7644 21.7467H21.1193C20.3259 21.7467 19.6829 21.1042 19.6829 20.3103V15.4261V14.9261L19.1829 14.9261L6.35392 14.9251Z" fill="white" stroke="black"/>
<path d="M30.7883 7.43855H30.3711H21.1194C20.3262 7.43855 19.683 8.08176 19.683 8.87497V20.3094C19.683 21.1033 20.3261 21.7458 21.1194 21.7458H54.7645H54.7649C55.5583 21.7458 56.2013 21.1033 56.2013 20.3094V8.87497C56.2013 8.49402 56.05 8.12846 55.7807 7.85919C55.5114 7.58993 55.1459 7.43855 54.7649 7.43855H45.521H45.1038L45.0291 7.02811C44.6233 4.79953 43.1918 2.89182 41.1651 1.87809C39.1387 0.865346 36.7534 0.865343 34.727 1.87808L30.7883 7.43855ZM30.7883 7.43855L30.863 7.02811M30.7883 7.43855L30.863 7.02811M30.863 7.02811C31.2687 4.7996 32.7002 2.89205 34.7268 1.87817L30.863 7.02811ZM22.5558 18.873L22.5558 18.373L22.5555 10.8114L22.5555 10.3114H23.0555H32.1835H32.1859C32.5921 10.3133 32.9799 10.143 33.254 9.84284C33.5226 9.54787 33.6564 9.1562 33.6246 8.76066L33.6241 8.75722C33.6 8.58866 33.6 8.44249 33.6 8.32093V8.31133V8.29847L33.6002 8.29847C33.6393 6.77917 34.4708 5.39115 35.7944 4.64228L22.5558 18.873ZM22.5558 18.873H23.0558H52.8281H53.3281V18.373V10.8114V10.3114H52.8281L43.6689 10.3114L43.6665 10.3114C43.2601 10.3133 42.8714 10.1428 42.5975 9.84284M22.5558 18.873L42.5975 9.84284M42.5975 9.84284C42.3236 9.54201 42.1903 9.14006 42.2301 8.7354L42.2301 8.73522M42.5975 9.84284L42.2301 8.73522M42.2301 8.73522C42.2435 8.59796 42.2515 8.46308 42.2515 8.31133H42.2516M42.2301 8.73522L42.2516 8.31133M42.2516 8.31133L42.2513 8.29879M42.2516 8.31133L42.2513 8.29879M42.2513 8.29879C42.2132 6.77894 41.3804 5.39098 40.0579 4.64228M42.2513 8.29879L40.0579 4.64228M40.0579 4.64228C38.7355 3.89365 37.117 3.89356 35.7946 4.6422L40.0579 4.64228Z" fill="white" stroke="black"/>
<path d="M11.2713 94.2014C10.4781 94.2014 9.83484 93.5582 9.83484 92.7649V22.3035C9.83484 21.5096 10.4779 20.8671 11.2713 20.8671C12.0646 20.8671 12.7077 21.5096 12.7077 22.3035V92.7649C12.7077 93.1456 12.5565 93.5106 12.2866 93.7811C12.0174 94.0501 11.652 94.2014 11.2713 94.2014Z" fill="#6D95FC" stroke="black"/>
<path d="M64.6015 65.1284C63.8083 65.1284 63.165 64.4851 63.165 63.6919V22.3012C63.165 21.508 63.8083 20.8647 64.6015 20.8647C65.3947 20.8647 66.0379 21.508 66.0379 22.3012V63.6919C66.0379 64.0729 65.8865 64.4384 65.6172 64.7077L65.9708 65.0613L65.6172 64.7077C65.348 64.977 64.9824 65.1284 64.6015 65.1284Z" fill="#6D95FC" stroke="black"/>
<path d="M56.2915 69.8885H18.6253C17.8319 69.8885 17.1888 69.246 17.1888 68.452C17.1888 67.6588 17.8321 67.0156 18.6253 67.0156H56.2915C57.0847 67.0156 57.7279 67.6588 57.7279 68.452C57.7279 69.246 57.0848 69.8885 56.2915 69.8885Z" fill="#6D95FC" stroke="black"/>
<path d="M50.9381 77.3799H18.6275C17.8343 77.3799 17.191 76.7367 17.191 75.9435C17.191 75.1496 17.8341 74.5071 18.6275 74.5071H50.9381C51.7314 74.5071 52.3745 75.1496 52.3745 75.9435C52.3745 76.7367 51.7313 77.3799 50.9381 77.3799Z" fill="#6D95FC" stroke="black"/>
<path d="M49.1632 84.8688H18.6253C17.8321 84.8688 17.1888 84.2256 17.1888 83.4324C17.1888 82.6392 17.8321 81.996 18.6253 81.996H49.1632C49.9564 81.996 50.5996 82.6392 50.5996 83.4324C50.5996 84.2256 49.9564 84.8688 49.1632 84.8688Z" fill="#6D95FC" stroke="black"/>
<path d="M50.0285 92.3577H18.6275C17.8343 92.3577 17.191 91.7145 17.191 90.9213C17.191 90.1281 17.8343 89.4849 18.6275 89.4849H50.0285C50.8224 89.4849 51.4649 90.1279 51.4649 90.9213C51.4649 91.7146 50.8224 92.3577 50.0285 92.3577Z" fill="#6D95FC" stroke="black"/>
<path d="M87.6364 101.217L87.6364 101.217C92.0242 96.8304 94.4924 90.8809 94.5 84.6758C94.4999 78.4684 92.0352 72.5152 87.6459 68.1251C83.2565 63.7356 77.3037 61.2692 71.0964 61.2683L87.6364 101.217ZM87.6364 101.217C83.2486 105.605 77.2992 108.073 71.0942 108.079C64.887 108.079 58.9336 105.613 54.5442 101.223M87.6364 101.217L54.5442 101.223M54.5442 101.223C50.1548 96.8338 47.6892 90.8804 47.6892 84.6728M54.5442 101.223L47.6892 84.6728M47.6892 84.6728C47.6892 78.4655 50.1556 72.5119 54.5451 68.1233M47.6892 84.6728L54.5451 68.1233M54.5451 68.1233C58.9354 63.7339 64.8888 61.2683 71.0963 61.2683L54.5451 68.1233ZM71.5946 64.1597V64.1434H71.0946C65.6489 64.1434 60.4266 66.3071 56.5758 70.157L56.5758 70.1571C52.7249 74.008 50.5621 79.2302 50.5621 84.6759C50.5621 90.1216 52.7249 95.3439 56.5758 99.1948L56.5758 99.1949C60.4266 103.045 65.6489 105.209 71.0946 105.209C76.5404 105.209 81.7626 103.045 85.6126 99.1948C89.4635 95.344 91.6272 90.1217 91.6272 84.6759V84.6752C91.6192 79.2332 89.4529 74.0163 85.6039 70.1692C81.8729 66.4399 76.8555 64.2925 71.5946 64.1597Z" fill="white" stroke="black"/>
<path d="M64.8426 92.1107L64.842 92.11L62.4969 89.7676L62.4966 89.7673L62.4961 89.7668L62.496 89.7666C62.2271 89.4978 62.0762 89.1324 62.0762 88.7509C62.0762 88.37 62.2275 88.0046 62.4973 87.7355L62.4975 87.7353C63.0588 87.1747 63.9689 87.1749 64.529 87.7358L64.5292 87.736L65.4974 88.7042L65.851 89.0577L66.2045 88.7042L77.6513 77.2601C78.2158 76.7281 79.103 76.7404 79.6524 77.2897C80.2017 77.8391 80.214 78.7262 79.6821 79.2907L66.8589 92.1139C66.8588 92.114 66.8586 92.1142 66.8585 92.1143C66.5917 92.3796 66.2318 92.5295 65.855 92.5326C65.4749 92.5314 65.1109 92.3795 64.8426 92.1107Z" fill="#6D95FC" stroke="black"/>
<path d="M58.876 96.9013L58.876 96.9013C62.1164 100.142 66.5109 101.962 71.0938 101.962C75.6746 101.957 80.0662 100.136 83.3059 96.8969C86.5449 93.6581 88.3673 89.2664 88.3732 84.6856C88.3739 80.1035 86.5532 75.7079 83.3138 72.4676C80.0732 69.2263 75.6784 67.4056 71.0961 67.4048L58.876 96.9013ZM58.876 96.9013C55.6356 93.6609 53.8158 89.2659 53.8158 84.6827M58.876 96.9013L53.8158 84.6827M71.0946 70.2803H71.0952C74.9144 70.2849 78.5763 71.8036 81.2763 74.5044C81.2763 74.5045 81.2763 74.5045 81.2764 74.5046M71.0946 70.2803L80.9228 74.8581L81.2764 74.5046M71.0946 70.2803C67.2741 70.2803 63.6096 71.7983 60.9076 74.5001L60.9075 74.5001C58.2066 77.2011 56.6886 80.8658 56.6886 84.6862C56.6886 88.5067 58.2066 92.1712 60.9075 94.8732L60.9076 94.8733C63.6094 97.5743 67.2742 99.0922 71.0946 99.0922C74.915 99.0922 78.5795 97.5742 81.2807 94.8733L81.2807 94.8733C83.9826 92.1714 85.5005 88.5067 85.5005 84.6862V84.6857C85.4961 80.8664 83.9773 77.2046 81.2764 74.5046M71.0946 70.2803L81.2764 74.5046M53.8158 84.6827C53.8158 80.1004 55.6364 75.7057 58.8768 72.465M53.8158 84.6827L58.8768 72.465M58.8768 72.465C58.8769 72.465 58.8769 72.465 58.8769 72.465C62.1182 69.2246 66.5131 67.4048 71.096 67.4048L58.8768 72.465Z" fill="white" stroke="black"/>
<path d="M33.1436 56.4494V56.779V61.1049C33.1436 61.8981 33.7869 62.5413 34.5801 62.5413H41.2892C41.6699 62.5413 42.0353 62.39 42.3045 62.121C42.5744 61.8504 42.7256 61.4854 42.7256 61.1048V56.7789V56.4486L43.0295 56.319C44.0038 55.9035 44.9237 55.3715 45.7686 54.7338L45.9023 54.6329H46.0698H46.0707H46.2047L46.3207 54.7L50.0674 56.8637L50.0676 56.8638C50.7545 57.2609 51.6331 57.026 52.0299 56.3401L55.3845 50.5314L33.1436 56.4494ZM33.1436 56.4494L32.8407 56.3195C31.8676 55.9021 30.9486 55.3705 30.1021 54.7356L29.8379 54.5375L29.552 54.7026L25.9214 56.7994M33.1436 56.4494L25.9214 56.7994M25.9214 56.7994H25.9204L25.8043 56.8665C25.4748 57.0569 25.0823 57.1088 24.7145 57.0101L24.5849 57.493L24.7145 57.0101C24.3466 56.9114 24.0328 56.6703 23.8422 56.3405C23.8422 56.3404 23.8422 56.3404 23.8421 56.3404L20.4874 50.5315L25.9214 56.7994ZM19.8607 49.3108L20.3435 49.4404C20.2449 49.808 20.2966 50.2005 20.4872 50.5312L19.8607 49.3108ZM19.8607 49.3108L20.3435 49.4404C20.4422 49.0724 20.6834 48.7587 21.0132 48.568L24.7579 46.407L25.0442 46.2418M19.8607 49.3108L25.0442 46.2418M25.0442 46.2418L25.0044 45.9138M25.0442 46.2418L25.0044 45.9138M25.0044 45.9138C24.877 44.8628 24.877 43.8001 25.0044 42.749L25.0442 42.421M25.0044 45.9138L25.0442 42.421M25.0442 42.421L24.7579 42.2558M25.0442 42.421L24.7579 42.2558M24.7579 42.2558L21.0132 40.0948L24.7579 42.2558ZM20.3435 39.2224L20.3435 39.2225C20.4422 39.5903 20.6832 39.904 21.013 40.0946L20.3435 39.2224ZM20.3435 39.2224C20.2448 38.8547 20.2966 38.4621 20.4874 38.1313L23.8421 32.3224C23.8422 32.3224 23.8422 32.3224 23.8422 32.3223C24.0328 31.9925 24.3466 31.7514 24.7145 31.6527L24.7145 31.6527M20.3435 39.2224L24.7145 31.6527M24.7145 31.6527C25.0823 31.554 25.4748 31.6059 25.8043 31.7963L25.8045 31.7964M24.7145 31.6527L25.8045 31.7964M25.8045 31.7964L29.5512 33.9602L29.6672 34.0272M25.8045 31.7964L29.6672 34.0272M29.6672 34.0272H29.8012M29.6672 34.0272H29.8012M29.8012 34.0272H29.8021H29.969M29.8012 34.0272H29.969M29.969 34.0272L30.1025 33.9268M29.969 34.0272L30.1025 33.9268M30.1025 33.9268C30.9478 33.2914 31.8673 32.76 32.8404 32.3435L33.1436 32.2137M30.1025 33.9268L33.1436 32.2137M33.1436 32.2137V31.8838M33.1436 32.2137V31.8838M33.1436 31.8838V27.5562C33.1436 26.7623 33.7867 26.1198 34.5801 26.1198H41.2892M33.1436 31.8838L41.2892 26.1198M41.2892 26.1198C41.6701 26.1198 42.0357 26.2711 42.305 26.5404C42.5742 26.8097 42.7256 27.1752 42.7256 27.5562V31.1244V31.8812V31.882H43.2252M41.2892 26.1198L43.2252 31.882M43.2252 31.882L43.0294 32.3411C44.0036 32.7565 44.9231 33.2887 45.7696 33.9244L46.0336 34.1226L46.3196 33.9577L50.0672 31.7965L50.0676 31.7963C50.3971 31.6058 50.7896 31.5539 51.1574 31.6526L51.287 31.1697L51.1574 31.6526C51.5254 31.7514 51.8391 31.9925 52.0298 32.3224L55.3846 38.1313L43.2252 31.882ZM54.8589 40.0946C55.1887 39.904 55.4297 39.5903 55.5284 39.2224C55.627 38.8548 55.5753 38.4622 55.3847 38.1315L54.8589 40.0946ZM54.8589 40.0946C54.8588 40.0946 54.8587 40.0947 54.8587 40.0947L51.2283 42.1888H50.7955L50.865 42.7503C50.9299 43.2739 50.9615 43.8012 50.9607 44.3297L50.9607 44.3313C50.9615 44.8597 50.9299 45.3887 50.8673 45.9148L50.8284 46.2421L51.1139 46.4069L54.8586 48.5679C55.1885 48.7586 55.4297 49.0723 55.5284 49.4403C55.627 49.8079 55.5753 50.2004 55.3847 50.5311L54.8589 40.0946ZM36.0155 59.6684L36.0156 59.1683L36.0165 55.4288C36.0165 55.4287 36.0165 55.4287 36.0165 55.4286C36.0164 54.7947 35.602 54.2364 34.9963 54.053L34.9954 54.0528C33.501 53.5974 32.1303 52.8047 30.9896 51.7368L30.9888 51.736C30.5281 51.3028 29.8377 51.2226 29.2895 51.5387L26.0463 53.4118L25.6133 53.6619L25.3633 53.2289L23.9446 50.7719L23.6946 50.3389L24.1277 50.0889L27.3685 48.2183C27.3686 48.2182 27.3687 48.2182 27.3687 48.2182C27.9171 47.9012 28.1932 47.2631 28.049 46.6472L28.0489 46.6468C27.6935 45.1232 27.6935 43.5379 28.0489 42.0143C28.1925 41.3983 27.9164 40.7615 27.3683 40.4445L24.1277 38.574L23.6946 38.324L23.9446 37.891L25.3633 35.434L25.6133 35.001L26.0463 35.2511L29.2895 37.1242C29.2895 37.1242 29.2896 37.1243 29.2896 37.1243C29.8377 37.4403 30.528 37.3601 30.9888 36.9268L30.9896 36.9261C32.1304 35.8582 33.501 35.0655 34.9954 34.6101L34.9963 34.6099C35.6021 34.4265 36.0165 33.8681 36.0165 33.2341V29.4927V28.9927H36.5165H39.3527H39.8527V29.4927V33.2341C39.8527 33.8676 40.2684 34.4269 40.8749 34.6097L40.8765 34.6101C42.3709 35.0655 43.7415 35.8581 44.8822 36.9261L44.8825 36.9263C45.3441 37.3591 46.0345 37.4385 46.5817 37.1219L46.5823 37.1216L49.8257 35.2509L50.2587 35.0012L50.5086 35.434L51.9272 37.8909L52.1772 38.324L51.7441 38.574L48.5035 40.4445C47.9554 40.7615 47.6793 41.3983 47.8229 42.0144L47.8231 42.0151C48.1757 43.5382 48.1756 45.1221 47.8231 46.6459L47.8228 46.6472C47.6786 47.2632 47.9548 47.9013 48.5033 48.2182L51.7441 50.0889L52.1772 50.3388L51.9272 50.7719L50.5086 53.2288L50.2585 53.6619L49.8255 53.4118L46.5823 51.5387L36.0155 59.6684ZM36.0155 59.6684H36.5156M36.0155 59.6684H36.5156M36.5156 59.6684H39.3527H39.8527M36.5156 59.6684H39.8527M39.8527 59.6684V59.1684M39.8527 59.6684V59.1684M39.8527 59.1684V55.4262C39.8527 54.7926 40.2683 54.2334 40.8749 54.0506L40.8759 54.0503M39.8527 59.1684L40.8759 54.0503M40.8759 54.0503C42.3714 53.5967 43.7422 52.8048 44.8823 51.7367L44.883 51.736M40.8759 54.0503L44.883 51.736M44.883 51.736C45.3437 51.3028 46.034 51.2226 46.582 51.5385L44.883 51.736ZM31.3313 37.2911C30.7098 37.8755 29.7787 37.9835 29.0397 37.5573L31.3313 37.2911Z" fill="#6D95FC" stroke="black"/>
<path d="M32.9319 49.3353L32.932 49.3354C34.2586 50.6628 36.0591 51.4096 37.9362 51.4097L32.9319 49.3353ZM32.9319 49.3353C31.6046 48.008 30.8594 46.2075 30.8602 44.3302V44.33M32.9319 49.3353L30.8602 44.33M30.8602 44.33C30.8602 42.4527 31.6063 40.6522 32.9336 39.3256C34.2619 37.9981 36.0617 37.2529 37.9391 37.2529C39.8163 37.2529 41.6169 37.999 42.9444 39.3264C44.2717 40.6536 45.0169 42.4541 45.017 44.3313C45.0154 46.2087 44.2685 48.0086 42.941 49.3352L42.9409 49.3353M30.8602 44.33L42.9409 49.3353M42.9409 49.3353C41.6134 50.6628 39.8137 51.4088 37.9364 51.4097L42.9409 49.3353ZM37.936 40.1258L37.9364 40.1258C39.0519 40.1258 40.1212 40.5683 40.9109 41.3569L40.9111 41.3571C41.6998 42.1459 42.1432 43.2152 42.1442 44.3314V44.3318C42.1442 45.4462 41.7018 46.5168 40.9126 47.305C40.124 48.0934 39.0549 48.5368 37.9395 48.537C37.9393 48.537 37.9392 48.537 37.939 48.537V48.037L37.936 40.1258ZM37.936 40.1258C36.8207 40.1267 35.7512 40.5701 34.9633 41.3591M37.936 40.1258L34.9633 41.3591M34.9633 41.3591C34.1745 42.1479 33.7321 43.2182 33.733 44.3328L34.9633 41.3591Z" fill="#6D95FC" stroke="black"/>
</svg>
