<svg width="15" height="14" viewBox="0 0 15 14" xmlns="http://www.w3.org/2000/svg">
<path d="M1.16687 5.71715C2.76387 9.1954 5.60554 11.9608 9.13849 13.46L9.70482 13.7123C11.0005 14.2896 12.5236 13.851 13.3139 12.6731L14.054 11.57C14.2946 11.2114 14.2213 10.7283 13.8852 10.4571L11.3753 8.43231C11.0067 8.13491 10.4646 8.20418 10.1826 8.58473L9.40612 9.63245C7.41378 8.64966 5.79624 7.03212 4.81345 5.03977L5.86116 4.26334C6.24171 3.98132 6.31098 3.43923 6.01358 3.07058L3.98868 0.560622C3.71756 0.224554 3.23464 0.151248 2.87601 0.391722L1.7653 1.13647C0.580017 1.93123 0.143866 3.46693 0.734476 4.76606L1.16622 5.71574L1.16687 5.71715Z"/>
</svg>
