<svg width="120" height="120" viewBox="0 0 120 120" fill="none" xmlns="http://www.w3.org/2000/svg">
<rect width="120" height="120" rx="60" fill="white"/>
<path d="M84.6343 40.8655L83.9918 39.8866C83.8262 39.6365 83.7722 39.6582 83.8298 39.9519C83.9126 40.3869 84.1286 40.744 84.4777 41.0232C92.0147 53.1501 97.5487 68.1376 93.6182 82.5757C92.7112 85.9256 91.41 88.7534 88.7699 91.1298C81.3733 97.7915 71.2987 100.772 61.5157 101C61.4785 101 61.4418 100.989 61.4105 100.969C61.3792 100.948 61.3549 100.919 61.3408 100.884C61.3267 100.85 61.3235 100.812 61.3316 100.777C61.3397 100.741 61.3587 100.709 61.3861 100.685C69.2093 93.2942 65.1762 84.8325 60.4737 77.3225C60.1174 76.7533 60.1606 76.7225 60.6033 77.2301C64.361 81.5262 70.3215 87.2851 76.282 86.8446C81.8322 86.4349 85.4675 83.4621 87.188 77.9261C87.2092 77.8668 87.2503 77.8167 87.3041 77.7845C87.358 77.7523 87.4213 77.74 87.4832 77.7496C87.5451 77.7593 87.6017 77.7903 87.6434 77.8374C87.6851 77.8844 87.7092 77.9447 87.7117 78.0077C87.6505 82.3256 86.6697 86.4005 84.7692 90.2326C84.3661 91.0446 84.4129 91.0718 84.9096 90.3141C90.1628 82.2603 88.9427 71.7104 84.6721 63.2705C81.5802 57.1653 77.6821 51.622 72.9778 46.6407C69.922 43.4051 64.8037 35.4382 65.5056 30.7995C65.574 30.3391 65.6658 30.3355 65.7809 30.7887C66.2057 32.4564 66.8967 33.9935 67.8542 35.4002C67.9164 35.4936 68.0062 35.565 68.1108 35.6044C68.2155 35.6438 68.3298 35.6492 68.4376 35.6198C68.5454 35.5903 68.6414 35.5277 68.712 35.4405C68.7827 35.3533 68.8244 35.246 68.8314 35.1337C68.9447 33.4153 68.3671 32.0829 67.3089 30.4841C65.0089 27.0146 62.4929 16.9596 71.0126 19.3687C78.6468 21.5294 84.9276 25.7167 89.8551 31.9307C89.9667 32.0721 90.1089 32.17 90.2816 32.2243C95.6266 33.9428 102.289 37.8745 104.951 43.0625C104.984 43.1268 105.001 43.1985 105 43.2712C104.999 43.3438 104.98 43.415 104.944 43.4782C104.909 43.5415 104.858 43.5948 104.797 43.6333C104.736 43.6718 104.666 43.6943 104.594 43.6987L97.4569 44.1011C97.4067 44.1038 97.3579 44.1184 97.3144 44.1437C97.2709 44.169 97.234 44.2043 97.2066 44.2467C97.1792 44.2891 97.1622 44.3374 97.1569 44.3878C97.1516 44.4381 97.1582 44.4889 97.1762 44.5362C101.798 56.5326 101.765 70.3237 95.9128 81.934C95.8876 81.9825 95.8458 82.0207 95.795 82.0414C95.7442 82.0622 95.6879 82.0641 95.6366 82.0469C95.5852 82.0296 95.5422 81.9944 95.5156 81.9476C95.4889 81.9009 95.4804 81.8458 95.4917 81.7926C98.1102 67.3762 93.1917 52.5411 84.6343 40.8655ZM73.7123 34.2214C73.8495 34.1632 73.9718 34.0729 74.072 33.9555C74.1722 33.838 74.2484 33.6958 74.2963 33.537C74.3442 33.3781 74.3629 33.2057 74.3512 33.0295C74.3395 32.8534 74.2977 32.677 74.2282 32.5105C74.0878 32.1741 73.843 31.8981 73.5477 31.7433C73.2525 31.5884 72.9309 31.5673 72.6537 31.6847C72.5164 31.7428 72.3942 31.8332 72.294 31.9506C72.1938 32.068 72.1175 32.2103 72.0696 32.3691C72.0217 32.528 72.0031 32.7004 72.0148 32.8765C72.0265 33.0527 72.0683 33.229 72.1378 33.3956C72.2782 33.732 72.5229 34.0079 72.8182 34.1628C73.1135 34.3177 73.4351 34.3387 73.7123 34.2214Z" fill="#E41E23"/>
<path d="M38.0137 27.2864C33.4948 31.3922 32.1018 38.8206 32.469 44.6448C33.1222 55.1132 40.4811 65.0812 47.0193 72.7326C51.9 78.4481 54.5239 82.369 55.5227 89.2808C55.5803 89.6905 55.5317 89.7031 55.3769 89.3189C54.8586 88.0463 53.714 84.3756 52.2725 84.1091C52.0601 84.0693 51.9468 84.1599 51.9324 84.3811C51.8136 86.6379 52.3211 87.8288 53.6601 89.9334C54.8406 91.7896 55.4597 93.8488 55.5173 96.111C55.6361 100.788 53.957 101.767 49.3031 100.364C41.9244 98.134 35.8487 94.0029 31.076 87.9702C30.9644 87.8288 30.8223 87.7309 30.6495 87.6765C25.0129 85.8928 19.1658 82.233 16.0506 77.007C16.0195 76.9561 16.0021 76.8979 16.0002 76.8382C15.9983 76.7785 16.0119 76.7193 16.0398 76.6665C16.0676 76.6137 16.1086 76.5692 16.1588 76.5374C16.209 76.5055 16.2666 76.4874 16.3259 76.4849L23.6308 76.1369C23.8935 76.126 23.9817 75.9937 23.8953 75.7399C19.4304 62.9169 19.2252 50.7845 24.9319 38.3258C24.948 38.2873 24.9776 38.2561 25.0152 38.2384C25.0527 38.2206 25.0955 38.2175 25.1351 38.2297C25.1748 38.2419 25.2086 38.2685 25.2299 38.3043C25.2512 38.3402 25.2585 38.3827 25.2505 38.4237C22.4862 54.2105 28.5493 70.2311 38.5482 82.2928C38.5806 82.3327 38.6328 82.3526 38.7048 82.3526C38.7768 82.3563 38.7912 82.3291 38.748 82.2711C29.2565 68.5127 21.6763 49.6316 29.0136 33.2955C30.7197 29.4889 35.4438 26.09 38.91 24.3335C45.3348 21.0852 52.0799 19.3939 59.1454 19.2598C59.1839 19.2592 59.2217 19.2704 59.2536 19.2919C59.2856 19.3135 59.3103 19.3443 59.3244 19.3804C59.3385 19.4165 59.3413 19.456 59.3325 19.4937C59.3237 19.5315 59.3036 19.5656 59.275 19.5915C51.6786 26.2478 55.4903 35.9493 60.3872 42.6056C61.0999 43.5735 61.0603 43.6062 60.2684 42.7034C56.5161 38.4019 51.1279 33.0617 45.081 33.078C38.937 33.0943 35.7246 36.64 33.5488 42.0618C33.3544 42.5476 33.2572 42.5294 33.2572 42.0074C33.2518 36.9608 34.9471 31.3215 38.1109 27.3789C38.4637 26.9402 38.4313 26.9094 38.0137 27.2864ZM48.4041 88.4851C48.7065 88.3333 48.9257 88.0445 49.0135 87.6825C49.1013 87.3205 49.0505 86.9148 48.8722 86.5547C48.694 86.1946 48.4029 85.9095 48.063 85.7623C47.7231 85.615 47.3623 85.6176 47.0598 85.7695C46.7574 85.9213 46.5382 86.2101 46.4504 86.5721C46.3626 86.9341 46.4134 87.3398 46.5917 87.6999C46.7699 88.06 47.061 88.3451 47.4009 88.4923C47.7408 88.6396 48.1016 88.637 48.4041 88.4851Z" fill="#363D8D"/>
<path d="M78.1769 65.7393C74.4516 62.1664 73.5662 54.5531 73.469 49.6751C73.469 49.6148 73.4877 49.5558 73.5223 49.5064C73.557 49.4569 73.6058 49.4197 73.662 49.3998C73.7181 49.3799 73.7787 49.3785 73.8352 49.3957C73.8916 49.4129 73.9411 49.4479 73.9765 49.4957L81.4055 59.3985C81.4947 59.5163 81.5494 59.657 81.5637 59.8048C81.578 59.9527 81.5513 60.1019 81.4865 60.2359L78.9166 65.6033C78.8838 65.6697 78.8361 65.7274 78.7774 65.772C78.7187 65.8166 78.6507 65.8467 78.5787 65.8599C78.5067 65.8731 78.4329 65.8691 78.3631 65.8482C78.2933 65.8272 78.2295 65.7899 78.1769 65.7393Z" fill="#E41E23"/>
<path d="M42.5164 54.5206C46.5873 57.43 46.6521 65.3641 47.4133 70.2149C47.4889 70.7116 47.3683 70.766 47.0516 70.3781C44.3917 67.1623 41.9063 63.8143 39.5956 60.3339C39.484 60.1671 39.4714 59.9949 39.5578 59.8173L42.0305 54.6511C42.1421 54.4154 42.3041 54.3719 42.5164 54.5206Z" fill="#363D8D"/>
</svg>
