<svg width="244" height="59" viewBox="0 0 244 59" fill="none" xmlns="http://www.w3.org/2000/svg">
<path d="M78.08 40.4C78.08 41.264 78.272 42.0267 78.656 42.688C79.0507 43.3493 79.5627 43.8667 80.192 44.24C80.8213 44.6133 81.504 44.8 82.24 44.8C82.7733 44.8 83.2587 44.7307 83.696 44.592C84.144 44.4533 84.5493 44.2613 84.912 44.016C85.2747 43.76 85.584 43.4667 85.84 43.136V44.928C85.3707 45.344 84.8587 45.6533 84.304 45.856C83.7493 46.0587 83.0613 46.16 82.24 46.16C81.4613 46.16 80.7307 46.0213 80.048 45.744C79.376 45.456 78.784 45.056 78.272 44.544C77.76 44.0213 77.36 43.408 77.072 42.704C76.784 42 76.64 41.232 76.64 40.4C76.64 39.568 76.784 38.8 77.072 38.096C77.36 37.392 77.76 36.784 78.272 36.272C78.784 35.7493 79.376 35.3493 80.048 35.072C80.7307 34.784 81.4613 34.64 82.24 34.64C83.0613 34.64 83.7493 34.7413 84.304 34.944C84.8587 35.1467 85.3707 35.456 85.84 35.872V37.664C85.584 37.3333 85.2747 37.0453 84.912 36.8C84.5493 36.544 84.144 36.3467 83.696 36.208C83.2587 36.0693 82.7733 36 82.24 36C81.504 36 80.8213 36.1867 80.192 36.56C79.5627 36.9333 79.0507 37.4507 78.656 38.112C78.272 38.7627 78.08 39.5253 78.08 40.4ZM88.3291 42.64V41.552H93.2411C93.1985 41.168 93.0918 40.832 92.9211 40.544C92.7611 40.2453 92.5318 40.016 92.2331 39.856C91.9451 39.6853 91.5878 39.6 91.1611 39.6C90.7345 39.6 90.3451 39.6907 89.9931 39.872C89.6411 40.0533 89.3585 40.3147 89.1451 40.656C88.9425 40.9867 88.8411 41.3813 88.8411 41.84L88.8091 42.32C88.8091 42.8853 88.9051 43.3653 89.0971 43.76C89.2891 44.1547 89.5611 44.4533 89.9131 44.656C90.2651 44.8587 90.6811 44.96 91.1611 44.96C91.5238 44.96 91.8438 44.9067 92.1211 44.8C92.4091 44.6827 92.6651 44.528 92.8891 44.336C93.1131 44.1333 93.3051 43.8987 93.4651 43.632L94.5051 44.288C94.2598 44.6613 93.9878 44.992 93.6891 45.28C93.3905 45.5573 93.0278 45.776 92.6011 45.936C92.1745 46.0853 91.6411 46.16 91.0011 46.16C90.3398 46.16 89.7425 45.9947 89.2091 45.664C88.6865 45.3333 88.2705 44.88 87.9611 44.304C87.6625 43.7173 87.5131 43.056 87.5131 42.32C87.5131 42.1813 87.5185 42.048 87.5291 41.92C87.5398 41.792 87.5558 41.664 87.5771 41.536C87.6838 40.928 87.8971 40.3947 88.2171 39.936C88.5371 39.4773 88.9478 39.12 89.4491 38.864C89.9611 38.608 90.5318 38.48 91.1611 38.48C91.8545 38.48 92.4625 38.6347 92.9851 38.944C93.5078 39.2533 93.9131 39.6907 94.2011 40.256C94.4891 40.8107 94.6331 41.4773 94.6331 42.256C94.6331 42.32 94.6331 42.384 94.6331 42.448C94.6331 42.512 94.6278 42.576 94.6171 42.64H88.3291ZM95.2675 38.64H99.5875V39.84H95.2675V38.64ZM96.7875 38.96H98.0675V46H96.7875V38.96ZM100.872 38.64H102.152V46H100.872V38.64ZM101.624 42.544V41.424H103.912C104.669 41.424 105.304 41.6107 105.816 41.984C106.339 42.3467 106.6 42.9227 106.6 43.712C106.6 44.2347 106.483 44.6667 106.248 45.008C106.013 45.3493 105.693 45.6 105.288 45.76C104.883 45.92 104.424 46 103.912 46H101.624V44.88H103.912C104.221 44.88 104.477 44.8373 104.68 44.752C104.893 44.656 105.053 44.5227 105.16 44.352C105.267 44.1707 105.32 43.9573 105.32 43.712C105.32 43.3387 105.203 43.0507 104.968 42.848C104.733 42.6453 104.381 42.544 103.912 42.544H101.624ZM114.603 49.52H113.323V38.64H114.603V49.52ZM120.763 42.32C120.763 43.1093 120.598 43.792 120.267 44.368C119.936 44.944 119.494 45.3867 118.939 45.696C118.395 46.0053 117.787 46.16 117.115 46.16C116.507 46.16 115.968 46.0053 115.499 45.696C115.04 45.3867 114.678 44.944 114.411 44.368C114.155 43.792 114.027 43.1093 114.027 42.32C114.027 41.52 114.155 40.8373 114.411 40.272C114.678 39.696 115.04 39.2533 115.499 38.944C115.968 38.6347 116.507 38.48 117.115 38.48C117.787 38.48 118.395 38.6347 118.939 38.944C119.494 39.2533 119.936 39.696 120.267 40.272C120.598 40.8373 120.763 41.52 120.763 42.32ZM119.467 42.32C119.467 41.7547 119.35 41.2747 119.115 40.88C118.891 40.4853 118.587 40.1867 118.203 39.984C117.83 39.7813 117.414 39.68 116.955 39.68C116.582 39.68 116.214 39.7813 115.851 39.984C115.488 40.1867 115.19 40.4853 114.955 40.88C114.72 41.2747 114.603 41.7547 114.603 42.32C114.603 42.8853 114.72 43.3653 114.955 43.76C115.19 44.1547 115.488 44.4533 115.851 44.656C116.214 44.8587 116.582 44.96 116.955 44.96C117.414 44.96 117.83 44.8587 118.203 44.656C118.587 44.4533 118.891 44.1547 119.115 43.76C119.35 43.3653 119.467 42.8853 119.467 42.32ZM129.168 38.64H130.448V46H129.168V38.64ZM122.528 38.64H123.808V46H122.528V38.64ZM123.28 42.544V41.424H125.568C126.325 41.424 126.96 41.6107 127.472 41.984C127.995 42.3467 128.256 42.9227 128.256 43.712C128.256 44.2347 128.139 44.6667 127.904 45.008C127.669 45.3493 127.349 45.6 126.944 45.76C126.539 45.92 126.08 46 125.568 46H123.28V44.88H125.568C125.877 44.88 126.133 44.8373 126.336 44.752C126.549 44.656 126.709 44.5227 126.816 44.352C126.923 44.1707 126.976 43.9573 126.976 43.712C126.976 43.3387 126.859 43.0507 126.624 42.848C126.389 42.6453 126.037 42.544 125.568 42.544H123.28ZM136.009 39.68V38.48C136.734 38.48 137.379 38.6453 137.945 38.976C138.521 39.3067 138.974 39.76 139.305 40.336C139.646 40.912 139.817 41.5733 139.817 42.32C139.817 43.056 139.646 43.7173 139.305 44.304C138.974 44.88 138.521 45.3333 137.945 45.664C137.379 45.9947 136.734 46.16 136.009 46.16C135.294 46.16 134.649 45.984 134.073 45.632C133.497 45.2693 133.038 44.7307 132.697 44.016C132.366 43.3013 132.201 42.416 132.201 41.36L133.481 42.32C133.481 42.832 133.593 43.2853 133.817 43.68C134.041 44.0747 134.339 44.3893 134.713 44.624C135.097 44.848 135.529 44.96 136.009 44.96C136.489 44.96 136.915 44.848 137.289 44.624C137.673 44.3893 137.971 44.0747 138.185 43.68C138.409 43.2853 138.521 42.832 138.521 42.32C138.521 41.808 138.409 41.3547 138.185 40.96C137.971 40.5547 137.673 40.24 137.289 40.016C136.915 39.792 136.489 39.68 136.009 39.68ZM132.905 42.32C132.905 41.7227 132.979 41.1893 133.129 40.72C133.278 40.24 133.491 39.8347 133.769 39.504C134.046 39.1733 134.371 38.9227 134.745 38.752C135.129 38.5707 135.55 38.48 136.009 38.48V39.68C135.731 39.68 135.443 39.7387 135.145 39.856C134.846 39.9733 134.569 40.144 134.313 40.368C134.067 40.592 133.865 40.8693 133.705 41.2C133.555 41.52 133.481 41.8933 133.481 42.32H132.905ZM132.201 41.36C132.201 40.3573 132.297 39.472 132.489 38.704C132.681 37.936 133.017 37.2853 133.497 36.752C133.987 36.208 134.659 35.792 135.513 35.504C136.238 35.2587 136.777 34.9653 137.129 34.624C137.491 34.272 137.71 33.904 137.785 33.52H139.049C138.995 33.9893 138.825 34.4213 138.537 34.816C138.249 35.2 137.87 35.536 137.401 35.824C136.942 36.112 136.419 36.352 135.833 36.544C135.171 36.7573 134.654 37.0773 134.281 37.504C133.918 37.9307 133.667 38.416 133.529 38.96C133.39 39.4933 133.321 40.0267 133.321 40.56V42.208L132.201 41.36ZM142.327 42.72V41.52H147.767V42.72H142.327ZM146.935 38.64H148.215V46H146.935V38.64ZM141.575 38.64H142.855V46H141.575V38.64ZM157.262 38.64H158.542V46H157.262V38.64ZM150.622 38.64H151.902V46H150.622V38.64ZM151.374 42.544V41.424H153.662C154.419 41.424 155.054 41.6107 155.566 41.984C156.089 42.3467 156.35 42.9227 156.35 43.712C156.35 44.2347 156.233 44.6667 155.998 45.008C155.763 45.3493 155.443 45.6 155.038 45.76C154.633 45.92 154.174 46 153.662 46H151.374V44.88H153.662C153.971 44.88 154.227 44.8373 154.43 44.752C154.643 44.656 154.803 44.5227 154.91 44.352C155.017 44.1707 155.07 43.9573 155.07 43.712C155.07 43.3387 154.953 43.0507 154.718 42.848C154.483 42.6453 154.131 42.544 153.662 42.544H151.374ZM164.854 38.64H166.294L163.782 42.208L166.454 46H165.014L163.094 43.216L161.174 46H159.734L162.406 42.208L159.894 38.64H161.334L163.094 41.2L164.854 38.64ZM179.442 46L178.242 40.16L178.962 38.08L180.882 46H179.442ZM175.602 44.896L178.962 38.08L179.122 40.64L176.082 46.496L175.602 44.896ZM176.082 46.496L173.09 40.64L173.25 38.08L176.562 44.896L176.082 46.496ZM171.33 46L173.25 38.08L173.97 40.16L172.77 46H171.33ZM182.745 43.84C182.745 44.096 182.814 44.3147 182.953 44.496C183.091 44.6667 183.278 44.8 183.513 44.896C183.747 44.9813 184.009 45.024 184.297 45.024C184.723 45.024 185.102 44.96 185.433 44.832C185.763 44.704 186.019 44.5013 186.201 44.224C186.393 43.9467 186.489 43.5787 186.489 43.12L186.745 43.92C186.745 44.3893 186.617 44.7947 186.361 45.136C186.115 45.4667 185.785 45.7227 185.369 45.904C184.953 46.0747 184.489 46.16 183.977 46.16C183.518 46.16 183.097 46.0747 182.713 45.904C182.329 45.7333 182.019 45.4827 181.785 45.152C181.561 44.8107 181.449 44.3893 181.449 43.888C181.449 43.3653 181.577 42.9227 181.833 42.56C182.089 42.1973 182.451 41.92 182.921 41.728C183.39 41.5253 183.945 41.424 184.585 41.424C185.054 41.424 185.454 41.488 185.785 41.616C186.126 41.7333 186.398 41.872 186.601 42.032C186.803 42.1813 186.942 42.304 187.017 42.4V43.152C186.654 42.896 186.286 42.7093 185.913 42.592C185.539 42.464 185.118 42.4 184.649 42.4C184.222 42.4 183.865 42.4587 183.577 42.576C183.299 42.6933 183.091 42.8587 182.953 43.072C182.814 43.2853 182.745 43.5413 182.745 43.84ZM182.745 40.368L182.121 39.392C182.398 39.1893 182.771 38.9867 183.241 38.784C183.71 38.5813 184.275 38.48 184.937 38.48C185.502 38.48 185.993 38.5707 186.409 38.752C186.835 38.9227 187.166 39.1733 187.401 39.504C187.646 39.8347 187.769 40.24 187.769 40.72V46H186.489V40.72C186.489 40.3467 186.329 40.0693 186.009 39.888C185.699 39.696 185.342 39.6 184.937 39.6C184.585 39.6 184.265 39.648 183.977 39.744C183.689 39.8293 183.438 39.936 183.225 40.064C183.022 40.1813 182.862 40.2827 182.745 40.368ZM190.014 38.64H193.934V39.84H191.294V46H190.014V38.64ZM195.792 43.84C195.792 44.096 195.861 44.3147 196 44.496C196.138 44.6667 196.325 44.8 196.56 44.896C196.794 44.9813 197.056 45.024 197.344 45.024C197.77 45.024 198.149 44.96 198.48 44.832C198.81 44.704 199.066 44.5013 199.248 44.224C199.44 43.9467 199.536 43.5787 199.536 43.12L199.792 43.92C199.792 44.3893 199.664 44.7947 199.408 45.136C199.162 45.4667 198.832 45.7227 198.416 45.904C198 46.0747 197.536 46.16 197.024 46.16C196.565 46.16 196.144 46.0747 195.76 45.904C195.376 45.7333 195.066 45.4827 194.832 45.152C194.608 44.8107 194.496 44.3893 194.496 43.888C194.496 43.3653 194.624 42.9227 194.88 42.56C195.136 42.1973 195.498 41.92 195.968 41.728C196.437 41.5253 196.992 41.424 197.632 41.424C198.101 41.424 198.501 41.488 198.832 41.616C199.173 41.7333 199.445 41.872 199.648 42.032C199.85 42.1813 199.989 42.304 200.064 42.4V43.152C199.701 42.896 199.333 42.7093 198.96 42.592C198.586 42.464 198.165 42.4 197.696 42.4C197.269 42.4 196.912 42.4587 196.624 42.576C196.346 42.6933 196.138 42.8587 196 43.072C195.861 43.2853 195.792 43.5413 195.792 43.84ZM195.792 40.368L195.168 39.392C195.445 39.1893 195.818 38.9867 196.288 38.784C196.757 38.5813 197.322 38.48 197.984 38.48C198.549 38.48 199.04 38.5707 199.456 38.752C199.882 38.9227 200.213 39.1733 200.448 39.504C200.693 39.8347 200.816 40.24 200.816 40.72V46H199.536V40.72C199.536 40.3467 199.376 40.0693 199.056 39.888C198.746 39.696 198.389 39.6 197.984 39.6C197.632 39.6 197.312 39.648 197.024 39.744C196.736 39.8293 196.485 39.936 196.272 40.064C196.069 40.1813 195.909 40.2827 195.792 40.368ZM205.589 42.32V41.52C206.08 41.52 206.432 41.4293 206.645 41.248C206.859 41.056 206.965 40.8267 206.965 40.56C206.965 40.272 206.859 40.048 206.645 39.888C206.432 39.7173 206.133 39.632 205.749 39.632C205.429 39.632 205.163 39.696 204.949 39.824C204.747 39.9413 204.597 40.0907 204.501 40.272C204.405 40.4427 204.357 40.6133 204.357 40.784H203.061C203.061 40.368 203.179 39.984 203.413 39.632C203.648 39.28 203.968 39.0027 204.373 38.8C204.779 38.5867 205.237 38.48 205.749 38.48C206.229 38.48 206.661 38.5707 207.045 38.752C207.429 38.9333 207.728 39.1733 207.941 39.472C208.165 39.7707 208.277 40.1013 208.277 40.464C208.277 40.9973 208.037 41.44 207.557 41.792C207.088 42.144 206.432 42.32 205.589 42.32ZM205.717 46.16C204.853 46.16 204.16 45.9253 203.637 45.456C203.125 44.9867 202.827 44.3947 202.741 43.68H204.037C204.112 44.032 204.272 44.3467 204.517 44.624C204.763 44.9013 205.163 45.04 205.717 45.04C206.059 45.04 206.347 44.992 206.581 44.896C206.827 44.8 207.013 44.6613 207.141 44.48C207.269 44.2987 207.333 44.0907 207.333 43.856C207.333 43.6 207.264 43.3813 207.125 43.2C206.997 43.0187 206.8 42.88 206.533 42.784C206.277 42.688 205.963 42.64 205.589 42.64V41.84C206.507 41.84 207.237 42 207.781 42.32C208.325 42.64 208.597 43.1467 208.597 43.84C208.597 44.32 208.464 44.736 208.197 45.088C207.941 45.4293 207.595 45.696 207.157 45.888C206.72 46.0693 206.24 46.16 205.717 46.16ZM216.673 39.92L210.593 46.56L210.673 44.72L216.753 38.08L216.673 39.92ZM211.873 38.64V44.8L210.593 46.56V38.64H211.873ZM216.753 38.08V46H215.473V39.84L216.753 38.08ZM219.983 42.72V41.52H225.423V42.72H219.983ZM224.591 38.64H225.871V46H224.591V38.64ZM219.231 38.64H220.511V46H219.231V38.64ZM227.638 42.32C227.638 41.5733 227.803 40.912 228.134 40.336C228.475 39.76 228.934 39.3067 229.51 38.976C230.086 38.6453 230.731 38.48 231.446 38.48C232.171 38.48 232.817 38.6453 233.382 38.976C233.958 39.3067 234.411 39.76 234.742 40.336C235.083 40.912 235.254 41.5733 235.254 42.32C235.254 43.056 235.083 43.7173 234.742 44.304C234.411 44.88 233.958 45.3333 233.382 45.664C232.817 45.9947 232.171 46.16 231.446 46.16C230.731 46.16 230.086 45.9947 229.51 45.664C228.934 45.3333 228.475 44.88 228.134 44.304C227.803 43.7173 227.638 43.056 227.638 42.32ZM228.934 42.32C228.934 42.832 229.041 43.2853 229.254 43.68C229.478 44.0747 229.777 44.3893 230.15 44.624C230.534 44.848 230.966 44.96 231.446 44.96C231.926 44.96 232.353 44.848 232.726 44.624C233.11 44.3893 233.409 44.0747 233.622 43.68C233.846 43.2853 233.958 42.832 233.958 42.32C233.958 41.808 233.846 41.3547 233.622 40.96C233.409 40.5547 233.11 40.24 232.726 40.016C232.353 39.792 231.926 39.68 231.446 39.68C230.966 39.68 230.534 39.792 230.15 40.016C229.777 40.24 229.478 40.5547 229.254 40.96C229.041 41.3547 228.934 41.808 228.934 42.32ZM237.765 42.16H239.893C240.405 42.16 240.863 42.2133 241.269 42.32C241.674 42.4267 241.994 42.6133 242.229 42.88C242.463 43.1467 242.581 43.52 242.581 44C242.581 44.5547 242.394 45.0293 242.021 45.424C241.658 45.808 241.055 46 240.213 46H237.765V44.88H239.893C240.373 44.88 240.725 44.7787 240.949 44.576C241.183 44.3733 241.301 44.128 241.301 43.84C241.301 43.6907 241.269 43.5573 241.205 43.44C241.151 43.3227 241.066 43.216 240.949 43.12C240.842 43.024 240.698 42.9547 240.516 42.912C240.346 42.8587 240.138 42.832 239.893 42.832H237.765V42.16ZM237.765 42.48V41.728H239.733C239.925 41.728 240.095 41.7067 240.245 41.664C240.405 41.6107 240.538 41.536 240.645 41.44C240.751 41.344 240.831 41.2373 240.885 41.12C240.949 40.992 240.981 40.8587 240.981 40.72C240.981 40.432 240.869 40.2027 240.645 40.032C240.421 39.8507 240.117 39.76 239.733 39.76H237.765V38.64H239.733C240.191 38.64 240.607 38.7093 240.981 38.848C241.365 38.976 241.674 39.1893 241.909 39.488C242.143 39.776 242.261 40.16 242.261 40.64C242.261 41.056 242.143 41.4027 241.909 41.68C241.674 41.9467 241.365 42.1493 240.981 42.288C240.607 42.416 240.191 42.48 239.733 42.48H237.765ZM237.013 38.64H238.293V46H237.013V38.64Z" fill="#000535"/>
<path d="M77.48 14H80.86V28H77.48V14ZM79.6 16.78V14H82.34C83.5267 14 84.52 14.1867 85.32 14.56C86.1333 14.92 86.7467 15.44 87.16 16.12C87.5733 16.8 87.78 17.62 87.78 18.58C87.78 19.5133 87.5733 20.3267 87.16 21.02C86.7467 21.7 86.1333 22.2267 85.32 22.6C84.52 22.96 83.5267 23.14 82.34 23.14H79.6V20.36H82.34C83.02 20.36 83.5533 20.2067 83.94 19.9C84.3267 19.5933 84.52 19.1533 84.52 18.58C84.52 17.9933 84.3267 17.5467 83.94 17.24C83.5533 16.9333 83.02 16.78 82.34 16.78H79.6ZM99.1103 18.8H102.15V28H99.1103V18.8ZM89.2503 18.8H92.2903V28H89.2503V18.8ZM91.6303 23.86V21.9H94.4903C95.437 21.9 96.2303 22.1333 96.8703 22.6C97.5236 23.0533 97.8503 23.7733 97.8503 24.76C97.8503 25.4133 97.7036 25.9867 97.4103 26.48C97.117 26.9733 96.717 27.3533 96.2103 27.62C95.7036 27.8733 95.1303 28 94.4903 28H91.6303V25.66H93.9503C94.177 25.66 94.3636 25.6267 94.5103 25.56C94.6703 25.4933 94.7903 25.3933 94.8703 25.26C94.9636 25.1133 95.0103 24.9467 95.0103 24.76C95.0103 24.4933 94.917 24.28 94.7303 24.12C94.557 23.9467 94.297 23.86 93.9503 23.86H91.6303ZM109.544 21.08L109.784 18.6C110.771 18.6 111.638 18.8067 112.384 19.22C113.144 19.6333 113.731 20.2 114.144 20.92C114.571 21.64 114.784 22.4667 114.784 23.4C114.784 24.32 114.564 25.1467 114.124 25.88C113.698 26.6 113.091 27.1667 112.304 27.58C111.531 27.9933 110.604 28.2 109.524 28.2C108.471 28.2 107.524 27.98 106.684 27.54C105.858 27.0867 105.204 26.4133 104.724 25.52C104.258 24.6267 104.024 23.52 104.024 22.2L107.364 23.4C107.364 23.88 107.464 24.2933 107.664 24.64C107.864 24.9733 108.124 25.2333 108.444 25.42C108.778 25.6067 109.138 25.7 109.524 25.7C109.924 25.7 110.284 25.6067 110.604 25.42C110.924 25.2333 111.184 24.9733 111.384 24.64C111.584 24.2933 111.684 23.88 111.684 23.4C111.684 22.92 111.584 22.5067 111.384 22.16C111.198 21.8133 110.938 21.5467 110.604 21.36C110.284 21.1733 109.931 21.08 109.544 21.08ZM106.024 23.4C106.024 22.6533 106.111 21.9867 106.284 21.4C106.458 20.8 106.711 20.2933 107.044 19.88C107.378 19.4667 107.771 19.1533 108.224 18.94C108.691 18.7133 109.211 18.6 109.784 18.6L109.544 21.08C109.278 21.08 109.011 21.1333 108.744 21.24C108.478 21.3333 108.238 21.48 108.024 21.68C107.824 21.88 107.664 22.1267 107.544 22.42C107.424 22.7 107.364 23.0267 107.364 23.4H106.024ZM104.024 22.2C104.024 20.9467 104.131 19.8467 104.344 18.9C104.571 17.94 104.971 17.12 105.544 16.44C106.118 15.7467 106.924 15.1867 107.964 14.76C108.871 14.3867 109.564 14.02 110.044 13.66C110.538 13.3 110.831 12.88 110.924 12.4H113.824C113.758 12.9867 113.544 13.5467 113.184 14.08C112.824 14.6133 112.351 15.0933 111.764 15.52C111.191 15.9333 110.538 16.28 109.804 16.56C108.991 16.8667 108.351 17.2533 107.884 17.72C107.431 18.1867 107.111 18.72 106.924 19.32C106.751 19.9067 106.664 20.5333 106.664 21.2L107.164 23.38L104.024 22.2ZM117.612 24.28V22.02H125.052V24.28H117.612ZM123.692 18.8H126.592V28H123.692V18.8ZM116.672 18.8H119.592V28H116.672V18.8ZM138.837 18.8H141.877V28H138.837V18.8ZM128.977 18.8H132.017V28H128.977V18.8ZM131.357 23.86V21.9H134.217C135.164 21.9 135.957 22.1333 136.597 22.6C137.25 23.0533 137.577 23.7733 137.577 24.76C137.577 25.4133 137.43 25.9867 137.137 26.48C136.844 26.9733 136.444 27.3533 135.937 27.62C135.43 27.8733 134.857 28 134.217 28H131.357V25.66H133.677C133.904 25.66 134.09 25.6267 134.237 25.56C134.397 25.4933 134.517 25.3933 134.597 25.26C134.69 25.1133 134.737 24.9467 134.737 24.76C134.737 24.4933 134.644 24.28 134.457 24.12C134.284 23.9467 134.024 23.86 133.677 23.86H131.357ZM153.551 21.4L144.271 28.7L144.371 25.4L153.651 18.1L153.551 21.4ZM147.191 18.8V25.88L144.271 28.7V18.8H147.191ZM153.651 18.1V28H150.751V20.92L153.651 18.1ZM145.831 14.1H147.811C147.811 14.3267 147.864 14.5333 147.971 14.72C148.077 14.8933 148.231 15.0333 148.431 15.14C148.631 15.2333 148.857 15.28 149.111 15.28C149.364 15.28 149.591 15.2333 149.791 15.14C149.991 15.0333 150.144 14.8933 150.251 14.72C150.357 14.5333 150.411 14.3267 150.411 14.1H152.391C152.391 14.6333 152.264 15.1267 152.011 15.58C151.757 16.02 151.384 16.3733 150.891 16.64C150.411 16.8933 149.817 17.02 149.111 17.02C148.417 17.02 147.824 16.8933 147.331 16.64C146.837 16.3733 146.464 16.02 146.211 15.58C145.957 15.1267 145.831 14.6333 145.831 14.1ZM167.883 22.44L165.683 27.4L162.763 26.78L167.883 18.1L173.003 26.78L170.083 27.4L167.883 22.44ZM171.243 28H164.623V29.8H161.683V25.62H174.083V29.8H171.243V28ZM178.224 23.2H181.504C182.144 23.2 182.718 23.2667 183.224 23.4C183.731 23.5333 184.131 23.7667 184.424 24.1C184.718 24.4333 184.864 24.9 184.864 25.5C184.864 26.1933 184.631 26.7867 184.164 27.28C183.711 27.76 182.958 28 181.904 28H178.224V26.1H180.884C181.311 26.1 181.604 26.0067 181.764 25.82C181.938 25.62 182.024 25.4067 182.024 25.18C182.024 25.06 182.004 24.9467 181.964 24.84C181.924 24.7333 181.858 24.64 181.764 24.56C181.684 24.48 181.571 24.4133 181.424 24.36C181.278 24.3067 181.098 24.28 180.884 24.28H178.224V23.2ZM178.224 23.6V22.42H180.684C180.844 22.42 180.978 22.4 181.084 22.36C181.204 22.3067 181.304 22.24 181.384 22.16C181.464 22.08 181.524 21.9867 181.564 21.88C181.604 21.7733 181.624 21.6667 181.624 21.56C181.624 21.32 181.544 21.12 181.384 20.96C181.224 20.7867 180.991 20.7 180.684 20.7H178.224V18.8H181.304C181.878 18.8 182.398 18.8867 182.864 19.06C183.344 19.22 183.731 19.4867 184.024 19.86C184.318 20.22 184.464 20.7 184.464 21.3C184.464 21.82 184.318 22.2533 184.024 22.6C183.731 22.9333 183.344 23.1867 182.864 23.36C182.398 23.52 181.878 23.6 181.304 23.6H178.224ZM176.484 18.8H179.384V28H176.484V18.8ZM186.113 23.4C186.113 22.4267 186.339 21.58 186.793 20.86C187.246 20.14 187.873 19.58 188.673 19.18C189.473 18.78 190.373 18.58 191.373 18.58C192.373 18.58 193.266 18.78 194.053 19.18C194.853 19.58 195.479 20.14 195.933 20.86C196.399 21.58 196.633 22.4267 196.633 23.4C196.633 24.36 196.399 25.2 195.933 25.92C195.479 26.64 194.853 27.2 194.053 27.6C193.266 28 192.373 28.2 191.373 28.2C190.373 28.2 189.473 28 188.673 27.6C187.873 27.2 187.246 26.64 186.793 25.92C186.339 25.2 186.113 24.36 186.113 23.4ZM189.213 23.4C189.213 23.88 189.313 24.2933 189.513 24.64C189.713 24.9733 189.973 25.2333 190.293 25.42C190.613 25.6067 190.973 25.7 191.373 25.7C191.759 25.7 192.113 25.6067 192.433 25.42C192.766 25.2333 193.026 24.9733 193.213 24.64C193.413 24.2933 193.513 23.88 193.513 23.4C193.513 22.92 193.413 22.5067 193.213 22.16C193.026 21.8133 192.766 21.5467 192.433 21.36C192.113 21.1733 191.759 21.08 191.373 21.08C190.973 21.08 190.613 21.1733 190.293 21.36C189.973 21.5467 189.713 21.8133 189.513 22.16C189.313 22.5067 189.213 22.92 189.213 23.4ZM201.45 32.4H198.43V18.8H201.45V32.4ZM208.97 23.4C208.97 24.4667 208.756 25.3667 208.33 26.1C207.916 26.8333 207.376 27.3867 206.71 27.76C206.056 28.1333 205.35 28.32 204.59 28.32C203.79 28.32 203.096 28.12 202.51 27.72C201.936 27.3067 201.496 26.7333 201.19 26C200.883 25.2533 200.73 24.3867 200.73 23.4C200.73 22.4 200.883 21.5333 201.19 20.8C201.496 20.0667 201.936 19.5 202.51 19.1C203.096 18.6867 203.79 18.48 204.59 18.48C205.35 18.48 206.056 18.6667 206.71 19.04C207.376 19.4133 207.916 19.9667 208.33 20.7C208.756 21.42 208.97 22.32 208.97 23.4ZM205.79 23.4C205.79 22.92 205.69 22.5133 205.49 22.18C205.29 21.8467 205.023 21.5933 204.69 21.42C204.356 21.2467 203.99 21.16 203.59 21.16C203.243 21.16 202.903 21.2467 202.57 21.42C202.25 21.58 201.983 21.8267 201.77 22.16C201.556 22.4933 201.45 22.9067 201.45 23.4C201.45 23.8933 201.556 24.3067 201.77 24.64C201.983 24.9733 202.25 25.2267 202.57 25.4C202.903 25.56 203.243 25.64 203.59 25.64C203.99 25.64 204.356 25.5533 204.69 25.38C205.023 25.2067 205.29 24.9533 205.49 24.62C205.69 24.2867 205.79 23.88 205.79 23.4Z" fill="#000535"/>
<path d="M49.3549 15.7325L48.8928 15.0282C48.7738 14.8482 48.735 14.8638 48.7764 15.0751C48.8359 15.3882 48.9912 15.6451 49.2423 15.8459C54.6621 24.5714 58.6416 35.3551 55.8152 45.7435C55.163 48.1538 54.2273 50.1884 52.3288 51.8983C47.0099 56.6915 39.7653 58.8357 32.7303 59C32.7035 59.0003 32.6771 58.9924 32.6546 58.9776C32.6321 58.9627 32.6147 58.9415 32.6045 58.9168C32.5944 58.8921 32.5921 58.8651 32.5979 58.8394C32.6037 58.8137 32.6174 58.7906 32.6371 58.7731C38.2628 53.4556 35.3626 47.3673 31.981 41.9638C31.7247 41.5542 31.7558 41.532 32.0742 41.8972C34.7763 44.9883 39.0625 49.132 43.3487 48.815C47.3399 48.5203 49.954 46.3813 51.1912 42.3981C51.2065 42.3554 51.236 42.3193 51.2748 42.2962C51.3135 42.273 51.359 42.2641 51.4035 42.2711C51.448 42.278 51.4888 42.3003 51.5188 42.3342C51.5487 42.3681 51.5661 42.4114 51.5678 42.4568C51.5238 45.5635 50.8185 48.4955 49.4519 51.2527C49.162 51.837 49.1957 51.8566 49.5529 51.3114C53.3305 45.5166 52.453 37.9258 49.382 31.8531C47.1587 27.4604 44.3556 23.472 40.9727 19.8878C38.7752 17.5597 35.0947 11.8275 35.5994 8.48992C35.6486 8.15864 35.7146 8.15603 35.7974 8.48209C36.1028 9.68201 36.5998 10.788 37.2883 11.8001C37.333 11.8673 37.3976 11.9187 37.4728 11.9471C37.5481 11.9754 37.6303 11.9793 37.7078 11.9581C37.7853 11.937 37.8544 11.8918 37.9052 11.8291C37.9559 11.7664 37.986 11.6892 37.991 11.6084C38.0725 10.372 37.6571 9.41334 36.8961 8.26298C35.2422 5.76662 33.433 -1.46811 39.5595 0.265256C45.0492 1.81993 49.5658 4.83277 53.1092 9.30378C53.1894 9.40551 53.2916 9.47594 53.4159 9.51507C57.2595 10.7515 62.0504 13.5804 63.9645 17.3132C63.9885 17.3595 64.0007 17.4111 63.9999 17.4634C63.9991 17.5156 63.9854 17.5669 63.9599 17.6124C63.9344 17.6579 63.898 17.6963 63.8541 17.724C63.8101 17.7517 63.76 17.7679 63.7082 17.771L58.5756 18.0606C58.5396 18.0625 58.5045 18.073 58.4732 18.0912C58.4419 18.1094 58.4153 18.1348 58.3956 18.1653C58.3759 18.1958 58.3637 18.2306 58.3599 18.2668C58.3561 18.303 58.3608 18.3396 58.3737 18.3736C61.6971 27.0052 61.6738 36.928 57.4653 45.2818C57.4472 45.3167 57.4171 45.3442 57.3806 45.3591C57.344 45.374 57.3036 45.3754 57.2666 45.363C57.2297 45.3506 57.1988 45.3252 57.1796 45.2916C57.1605 45.2579 57.1544 45.2183 57.1624 45.1801C59.0454 34.8073 55.5085 24.1332 49.3549 15.7325ZM41.5009 10.952C41.5996 10.9101 41.6874 10.8451 41.7595 10.7606C41.8316 10.6761 41.8864 10.5738 41.9208 10.4595C41.9553 10.3452 41.9687 10.2211 41.9603 10.0944C41.9519 9.96771 41.9218 9.8408 41.8718 9.72096C41.7709 9.47893 41.5949 9.28036 41.3825 9.16894C41.1702 9.05751 40.9389 9.04236 40.7396 9.1268C40.6409 9.16862 40.553 9.23363 40.4809 9.31812C40.4089 9.40262 40.3541 9.50494 40.3196 9.61925C40.2852 9.73355 40.2718 9.85761 40.2802 9.98433C40.2886 10.1111 40.3186 10.238 40.3686 10.3578C40.4696 10.5998 40.6456 10.7984 40.8579 10.9098C41.0702 11.0212 41.3015 11.0364 41.5009 10.952Z" fill="#E41E23"/>
<path d="M15.8301 5.96229C12.5805 8.91644 11.5788 14.2613 11.8428 18.4519C12.3126 25.984 17.6044 33.1561 22.306 38.6614C25.8157 42.7737 27.7026 45.5948 28.4208 50.568C28.4622 50.8628 28.4273 50.8719 28.316 50.5954C27.9433 49.6798 27.1202 47.0387 26.0836 46.8469C25.9309 46.8182 25.8494 46.8834 25.839 47.0426C25.7536 48.6664 26.1185 49.5233 27.0814 51.0375C27.9303 52.3731 28.3755 53.8547 28.4169 55.4824C28.5024 58.8474 27.2949 59.5517 23.9483 58.5422C18.6423 56.938 14.2732 53.9656 10.8412 49.625C10.7609 49.5233 10.6587 49.4528 10.5345 49.4137C6.48121 48.1303 2.27653 45.497 0.036372 41.7368C0.0139866 41.7002 0.00149048 41.6584 0.000125276 41.6154C-0.00123993 41.5724 0.00857286 41.5298 0.0285892 41.4919C0.0486055 41.4539 0.0781287 41.4219 0.114228 41.3989C0.150328 41.376 0.191748 41.363 0.234375 41.3612L5.4873 41.1108C5.67625 41.103 5.73966 41.0078 5.67754 40.8252C2.46677 31.5988 2.31924 22.8694 6.42297 13.9052C6.4345 13.8775 6.45583 13.8551 6.48283 13.8423C6.50982 13.8296 6.54056 13.8273 6.56909 13.8361C6.59761 13.8449 6.62189 13.864 6.63721 13.8898C6.65254 13.9156 6.65782 13.9462 6.65203 13.9757C4.66423 25.3345 9.0242 36.8615 16.2145 45.5401C16.2378 45.5688 16.2753 45.5831 16.3271 45.5831C16.3788 45.5857 16.3892 45.5662 16.3581 45.5244C9.5328 35.6251 4.08186 22.0399 9.35809 10.2859C10.5849 7.54697 13.9821 5.10148 16.4746 3.83765C21.0947 1.50042 25.9451 0.283545 31.0259 0.18703C31.0536 0.186572 31.0807 0.194638 31.1037 0.210147C31.1267 0.225656 31.1445 0.24787 31.1546 0.273819C31.1647 0.299769 31.1668 0.328217 31.1604 0.35536C31.1541 0.382502 31.1397 0.407046 31.1191 0.42571C25.6565 5.21495 28.3975 12.1954 31.9189 16.9846C32.4314 17.6811 32.4029 17.7045 31.8335 17.055C29.1352 13.96 25.2605 10.1177 20.9122 10.1294C16.494 10.1411 14.184 12.6923 12.6193 16.5933C12.4796 16.9429 12.4097 16.9298 12.4097 16.5542C12.4058 12.9231 13.6249 8.86558 15.9 6.02881C16.1536 5.71318 16.1303 5.69101 15.8301 5.96229ZM23.3018 49.9955C23.5193 49.8862 23.6769 49.6785 23.74 49.418C23.8032 49.1575 23.7666 48.8656 23.6384 48.6065C23.5103 48.3474 23.3009 48.1423 23.0565 48.0364C22.8121 47.9304 22.5526 47.9323 22.3352 48.0415C22.1177 48.1508 21.96 48.3586 21.8969 48.619C21.8338 48.8795 21.8703 49.1714 21.9985 49.4305C22.1267 49.6896 22.336 49.8947 22.5804 50.0007C22.8248 50.1066 23.0843 50.1048 23.3018 49.9955Z" fill="#363D8D"/>
<path d="M44.7114 33.6295C42.0325 31.0588 41.3958 25.581 41.3259 22.0712C41.3259 22.0278 41.3394 21.9853 41.3643 21.9498C41.3892 21.9142 41.4243 21.8874 41.4647 21.8731C41.5051 21.8588 41.5487 21.8578 41.5893 21.8702C41.6299 21.8825 41.6654 21.9077 41.6909 21.9421L47.0331 29.0672C47.0972 29.152 47.1366 29.2532 47.1468 29.3596C47.1571 29.466 47.1379 29.5734 47.0913 29.6698L45.2433 33.5317C45.2197 33.5794 45.1854 33.621 45.1432 33.6531C45.101 33.6852 45.0521 33.7068 45.0003 33.7163C44.9486 33.7259 44.8955 33.723 44.8453 33.7079C44.7951 33.6928 44.7492 33.666 44.7114 33.6295Z" fill="#E41E23"/>
<path d="M19.0681 25.5574C21.9955 27.6507 22.0421 33.3595 22.5895 36.8497C22.6439 37.2071 22.5571 37.2462 22.3294 36.9671C20.4166 34.6533 18.6294 32.2444 16.9677 29.7402C16.8875 29.6202 16.8784 29.4963 16.9406 29.3685L18.7187 25.6513C18.799 25.4818 18.9154 25.4505 19.0681 25.5574Z" fill="#363D8D"/>
</svg>
