<svg width="25" height="36" fill="none" xmlns="http://www.w3.org/2000/svg"><path fill-rule="evenodd" clip-rule="evenodd" d="M4.119.315C4.84.264 5.654.277 6.439.29c.338.005.67.01.99.011L18.542.299c.226 0 .456-.006.69-.01C19.83.274 20.443.26 21.02.33c.6.072 1.217.334 1.711.679.834.582 1.463 1.51 1.64 2.518.081.471.077.966.072 1.45l-.002.296-.008 2.323-.001 19.091.006 3.396c0 .169.003.34.005.51.008.49.016.984-.03 1.464A3.913 3.913 0 0 1 23.691 34c-.674.944-1.635 1.457-2.765 1.642-.324.032-.655.03-.983.027H6.669c-.132 0-.27.003-.413.006l-.288.006c-.649.016-1.348.032-1.918-.048a4.19 4.19 0 0 1-.132-.02l-.03-.006-.03-.006a5.036 5.036 0 0 1-.056-.01l-.015-.004a4.056 4.056 0 0 1-.07-.014l-.029-.007-.031-.008a3.9 3.9 0 0 1-.633-.208 3.908 3.908 0 0 1-.539-.277l-.022-.014-.03-.019a3.849 3.849 0 0 1-.111-.073l-.037-.025a3.635 3.635 0 0 1-.178-.132l-.041-.033-.036-.028a4.564 4.564 0 0 1-.291-.264 4.127 4.127 0 0 1-.176-.188l-.025-.028a3.68 3.68 0 0 1-.103-.125l-.02-.027a3.437 3.437 0 0 1-.032-.04l-.028-.038-.02-.027a3.556 3.556 0 0 1-.066-.094l-.027-.04a3.83 3.83 0 0 1-.328-.604 3.866 3.866 0 0 1-.038-.09l-.015-.036a4.162 4.162 0 0 1-.021-.056l-.012-.032a3.548 3.548 0 0 1-.108-.341l-.012-.045a3.577 3.577 0 0 1-.013-.05l-.008-.037a4.144 4.144 0 0 1-.05-.252l-.005-.032a4.024 4.024 0 0 1-.022-.163c-.056-.465-.054-.942-.052-1.414v-.363l-.003-2.726-.004-21.6v-.19L.55 5.668C.547 5.072.545 4.472.607 3.885c.082-.768.33-1.455.813-2.062l.015-.02.024-.03.023-.028a4.268 4.268 0 0 1 .13-.15l.016-.017a3.66 3.66 0 0 1 .34-.328l.076-.063.019-.015.026-.021.033-.026.024-.018.055-.042.04-.028.04-.03.021-.014.018-.012.044-.03.035-.022a4.227 4.227 0 0 1 .27-.16l.036-.02.033-.016c.019-.01.037-.02.056-.028L2.84.683a3.38 3.38 0 0 1 .224-.1l.092-.036.047-.017.016-.006.03-.01a3.947 3.947 0 0 1 .477-.135l.038-.008A4.46 4.46 0 0 1 4.02.328l.04-.006.059-.007zm.853 3.94a69.29 69.29 0 0 1 1.983.001c.374.004.747.008 1.12.008l6.652.001 3.58-.004a16.169 16.169 0 0 0 .271-.003l.14-.002.137-.003h.014c.455-.01.917-.02 1.359.02a.866.866 0 0 1 .063.007l.014.002a.896.896 0 0 1 .36.143.934.934 0 0 1 .12.096c.237.221.32.525.334.838.015.333.006.671-.003 1.009-.006.23-.011.461-.01.69.001.153.007.343.014.55.018.571.04 1.268-.027 1.657a1.114 1.114 0 0 1-.29.602c-.306.312-.772.299-1.194.287a8.37 8.37 0 0 0-.219-.004l-13.027.005c-.144 0-.29.003-.437.005h-.002c-.411.008-.83.016-1.23-.032-.19-.022-.344-.114-.49-.235-.234-.194-.316-.463-.339-.76a16.122 16.122 0 0 1-.018-1.549c.005-.236.01-.47.01-.702 0-.16-.006-.331-.012-.506-.014-.42-.03-.865.034-1.239.034-.203.111-.402.252-.556.227-.247.522-.305.841-.325zm2.013 17.5c-.433-.266-.886-.323-1.385-.28-.609.148-1.1.45-1.433.992a1.935 1.935 0 0 0-.156.31l-.01.025-.007.018a1.92 1.92 0 0 0-.09.328l-.006.028-.004.024a1.99 1.99 0 0 0 .09.98l.011.034.007.017a2.234 2.234 0 0 0 .122.268l.01.018.013.022.01.018a1.986 1.986 0 0 0 .095.149l.019.025a2.285 2.285 0 0 0 .275.311 2.003 2.003 0 0 0 .277.217l.017.01.037.024c.435.263.892.32 1.388.262.586-.135 1.082-.427 1.405-.947a1.99 1.99 0 0 0 .268-.647 2.08 2.08 0 0 0 .038-.65l-.002-.016-.004-.034a2.048 2.048 0 0 0-.026-.16l-.004-.015-.005-.023a2.144 2.144 0 0 0-.094-.296l-.01-.026a1.537 1.537 0 0 0-.015-.034l-.016-.035a2.03 2.03 0 0 0-.124-.231l-.017-.026-.01-.015a2.068 2.068 0 0 0-.411-.463 2.255 2.255 0 0 0-.253-.182zm-1.4 6.255c.516-.049.982 0 1.426.287a2.115 2.115 0 0 1 .597.573 2.278 2.278 0 0 1 .204.362 2.148 2.148 0 0 1 .148.495c.006.034.01.067.014.1l.003.028.003.03v.01l.003.034a2.044 2.044 0 0 1-.237 1.078 1.928 1.928 0 0 1-.104.174c-.327.49-.837.792-1.408.908-.468.056-.9-.008-1.315-.242a2.073 2.073 0 0 1-.555-.464l-.024-.03a2.757 2.757 0 0 1-.026-.031l-.015-.02-.016-.02-.017-.024a2.064 2.064 0 0 1-.028-.04l-.02-.03a2.291 2.291 0 0 1-.137-.239 2.13 2.13 0 0 1-.127-.33l-.008-.028-.009-.03a1.958 1.958 0 0 1-.061-.695l.002-.021.002-.024a2.002 2.002 0 0 1 .055-.29l.006-.024.01-.033a2.042 2.042 0 0 1 .086-.235l.011-.025.01-.02a1.966 1.966 0 0 1 .095-.176c.322-.544.83-.858 1.432-1.008zM4.003 16.35c-.209.532-.163 1.068.064 1.584.107.243.27.451.45.644a2.189 2.189 0 0 0 .795.47 1.942 1.942 0 0 0 .079.024l.016.004a1.989 1.989 0 0 0 .737.055l.021-.003.027-.003a1.955 1.955 0 0 0 .29-.063l.02-.005.02-.007a2.11 2.11 0 0 0 .147-.053 2.163 2.163 0 0 0 1.26-1.434 2.1 2.1 0 0 0 .035-.161l.005-.032a1.962 1.962 0 0 0 .012-.492l-.003-.032-.004-.025a1.872 1.872 0 0 0-.016-.103l-.007-.035-.004-.02-.005-.022-.003-.015-.005-.02-.005-.02a1.936 1.936 0 0 0-.095-.28l-.012-.027-.008-.02-.009-.018-.013-.028a2.063 2.063 0 0 0-.343-.512l-.017-.019-.009-.01-.023-.024-.022-.022a2.017 2.017 0 0 0-.376-.3l-.028-.018a2.172 2.172 0 0 0-.181-.097l-.011-.006-.022-.01a1.958 1.958 0 0 0-.437-.14l-.03-.006-.028-.005a2.424 2.424 0 0 0-.08-.011l-.019-.002-.017-.002-.02-.002a1.885 1.885 0 0 0-.392 0 1.874 1.874 0 0 0-.194.03l-.013.003-.023.005-.022.005a1.613 1.613 0 0 0-.038.009l-.027.007-.02.006-.013.003a3.624 3.624 0 0 0-.034.01l-.017.006-.03.01a2.472 2.472 0 0 0-.138.051 2.15 2.15 0 0 0-1.165 1.178zm8.386 11.635c.49-.003.931.1 1.327.402a2.348 2.348 0 0 1 .133.11l.026.025a2.454 2.454 0 0 1 .213.23 2.165 2.165 0 0 1 .272.443l.013.027a2.01 2.01 0 0 1 .11.318l.003.012.01.037.012.057.005.023.004.022.008.047.004.028.004.028c.07.545-.1 1.116-.441 1.545-.38.477-.89.704-1.486.775-.474.002-.92-.118-1.303-.406a2.15 2.15 0 0 1-.811-1.411 2.046 2.046 0 0 1 .417-1.509c.371-.482.887-.727 1.48-.803zm1.106-12.716a2.065 2.065 0 0 0-1.242-.24c-.598.123-1.088.401-1.432.918a1.941 1.941 0 0 0-.227.445l-.005.017-.008.023a1.783 1.783 0 0 0-.067.25l-.004.022-.004.023-.002.014a1.649 1.649 0 0 0-.025.238 1.966 1.966 0 0 0 0 .2l.002.029.001.014.003.029.003.028a2.087 2.087 0 0 0 .247.788l.012.023.016.028.01.018.014.022.037.058.02.03a1.69 1.69 0 0 0 .127.168 2.154 2.154 0 0 0 .262.264l.023.02.014.01a2.067 2.067 0 0 0 .17.124c.428.279.897.348 1.399.29.61-.154 1.09-.444 1.417-.998a2.205 2.205 0 0 0 .137-.272 2.261 2.261 0 0 0 .086-.254l.005-.018.004-.017a2.172 2.172 0 0 0 .058-.402l.001-.023v-.02l.001-.037v-.022a1.911 1.911 0 0 0-.043-.403 1.59 1.59 0 0 0-.024-.1 2.138 2.138 0 0 0-.986-1.287zm-1.285 6.208c.467-.045.919.014 1.326.261a2.343 2.343 0 0 1 .172.118l.028.022a2.656 2.656 0 0 1 .13.11 2.31 2.31 0 0 1 .108.107l.017.019.021.023a1.967 1.967 0 0 1 .19.247l.034.054.013.021.008.013a2.484 2.484 0 0 1 .097.184l.008.017.012.028a1.95 1.95 0 0 1 .154.547 2.255 2.255 0 0 1 .013.406 3.008 3.008 0 0 1-.01.101l-.003.03-.002.017-.003.022-.005.032a1.957 1.957 0 0 1-.087.339l-.006.017-.006.018-.007.019a2.073 2.073 0 0 1-.1.224l-.01.02-.008.013-.01.02a2.01 2.01 0 0 1-.052.087c-.332.537-.818.813-1.42.952-.475.044-.92-.016-1.33-.269a2.695 2.695 0 0 1-.088-.056l-.022-.015-.023-.017a1.974 1.974 0 0 1-.274-.237 2.138 2.138 0 0 1-.366-.505l-.01-.022-.014-.027-.008-.016-.013-.029a2.078 2.078 0 0 1-.095-.247l-.009-.026-.005-.02a2.28 2.28 0 0 1-.063-.3 1.977 1.977 0 0 1-.015-.368l.002-.037a2.02 2.02 0 0 1 .318-.95c.335-.529.814-.809 1.413-.947zm7.852.24c-.4-.232-.82-.287-1.274-.243-.599.13-1.091.423-1.427.948a1.988 1.988 0 0 0-.265.613l-.009.037a2.026 2.026 0 0 0-.044.575l.002.028.007.07.004.03.016.101.004.02.004.022a2.169 2.169 0 0 0 .06.228l.01.03a1.977 1.977 0 0 0 .12.287 2.181 2.181 0 0 0 .291.43 2.557 2.557 0 0 0 .103.108l.024.023.018.018a2.03 2.03 0 0 0 .33.252c.412.253.87.324 1.345.269.61-.15 1.092-.423 1.424-.975a1.808 1.808 0 0 0 .141-.276 2.03 2.03 0 0 0 .151-1.01 1.889 1.889 0 0 0-.119-.502 2.08 2.08 0 0 0-.3-.539 2.112 2.112 0 0 0-.18-.206l-.026-.025a2.377 2.377 0 0 0-.237-.2 1.938 1.938 0 0 0-.152-.1l-.02-.012zm-1.078 6.27a2.032 2.032 0 0 1 1.454.537 2.123 2.123 0 0 1 .67 1.47v.038a2.184 2.184 0 0 1-.029.363 1.895 1.895 0 0 1-.106.388l-.01.025-.018.044-.01.025a1.989 1.989 0 0 1-.259.43c-.384.498-.917.739-1.529.813-.483-.011-.919-.13-1.305-.433a1.984 1.984 0 0 1-.3-.29 1.964 1.964 0 0 1-.171-.232l-.015-.023a2.54 2.54 0 0 1-.101-.183 2.05 2.05 0 0 1-.146-.392l-.01-.034a2.556 2.556 0 0 1-.034-.171 2.104 2.104 0 0 1-.013-.555 1.939 1.939 0 0 1 .07-.341 2.111 2.111 0 0 1 .223-.494 2.195 2.195 0 0 1 .15-.21c.38-.474.894-.71 1.49-.776zm1.17-12.658a1.985 1.985 0 0 0-1.325-.298c-.585.104-1.076.386-1.42.88a1.899 1.899 0 0 0-.143.235l-.011.021a1.81 1.81 0 0 0-.114.277 1.905 1.905 0 0 0-.092.456 1.796 1.796 0 0 0-.007.232 2.078 2.078 0 0 0 .343 1.086 2.55 2.55 0 0 0 .126.172 1.912 1.912 0 0 0 .219.232 2.055 2.055 0 0 0 .252.197c.401.27.853.353 1.33.315.623-.128 1.104-.404 1.46-.943a1.83 1.83 0 0 0 .147-.26 2.173 2.173 0 0 0 .132-.376 2.296 2.296 0 0 0 .056-.395 1.844 1.844 0 0 0-.01-.299 1.726 1.726 0 0 0-.03-.197 2.083 2.083 0 0 0-.15-.452l-.017-.038a2.108 2.108 0 0 0-.746-.845z" fill="#00709F"/></svg>