<svg width="26" height="26" fill="none" xmlns="http://www.w3.org/2000/svg"><g clip-path="url(#a)"><path d="M13.379 25.05c6.835 0 12.493-5.659 12.493-12.494 0-6.822-5.67-12.493-12.506-12.493C6.544.063.885 5.732.885 12.556c0 6.835 5.671 12.494 12.494 12.494z" fill="#00709F"/><path d="M13.378 13.218a.852.852 0 0 1-.575-.245L6.58 7.485c.343-.208.71-.294 1.237-.294h11.134c.503 0 .882.098 1.238.307l-6.235 5.475a.83.83 0 0 1-.576.245zm-7.35 3.687c-.11-.245-.17-.515-.17-.907V9.114c0-.404.085-.722.146-.857l4.594 4.055-4.57 4.593zm1.606 1.017c-.441 0-.784-.099-1.03-.258l4.729-4.716.894.797c.355.318.76.477 1.151.477.392 0 .796-.159 1.164-.477l.882-.797 4.728 4.716c-.245.147-.588.258-1.03.258H7.635zm13.106-1.017-4.593-4.594 4.605-4.042c.061.123.135.441.135.845v6.884c0 .38-.05.662-.147.907z" fill="#fff"/></g><defs><clipPath id="a"><path fill="#fff" transform="translate(.885 .05)" d="M0 0h24.988v25H0z"/></clipPath></defs></svg>