<svg width="26" height="26" fill="none" xmlns="http://www.w3.org/2000/svg"><g clip-path="url(#a)"><path d="M13.379 25.05c6.835 0 12.493-5.659 12.493-12.494 0-6.822-5.67-12.493-12.506-12.493C6.544.063.885 5.732.885 12.556c0 6.835 5.671 12.494 12.494 12.494z" fill="#00709F"/><path fill-rule="evenodd" clip-rule="evenodd" d="M17.786 7.359a6.233 6.233 0 1 0-8.814 8.814l4.407 4.407 4.407-4.407a6.233 6.233 0 0 0 0-8.814zM13.38 8.802a2.964 2.964 0 1 0 0 5.927 2.964 2.964 0 0 0 0-5.927z" fill="#fff"/></g><defs><clipPath id="a"><path fill="#fff" transform="translate(.885 .05)" d="M0 0h24.988v25H0z"/></clipPath></defs></svg>