<svg width="26" height="26" fill="none" xmlns="http://www.w3.org/2000/svg"><g clip-path="url(#a)"><path d="M13.379 25.05c6.835 0 12.493-5.659 12.493-12.494 0-6.822-5.67-12.493-12.506-12.493C6.544.063.885 5.732.885 12.556c0 6.835 5.671 12.494 12.494 12.494z" fill="#00709F"/><path d="M4.78 13.769v-.123c0-3.38 4.447-4.96 8.599-4.96s8.599 1.58 8.599 4.96v.123c0 .943-.466 1.678-1.421 1.678-.71 0-1.543-.037-2.964-.465-.809-.245-1.164-.637-1.189-1.532l-.012-.796c0-.134-.073-.233-.257-.294-.429-.135-1.42-.306-2.756-.306-1.335 0-2.327.171-2.756.306-.184.061-.257.16-.257.294l-.012.796c-.013.895-.368 1.287-1.189 1.532-1.42.428-2.253.465-2.964.465-.955 0-1.42-.735-1.42-1.678z" fill="#fff"/></g><defs><clipPath id="a"><path fill="#fff" transform="translate(.885 .05)" d="M0 0h24.988v25H0z"/></clipPath></defs></svg>