<svg width="46" height="20" fill="none" xmlns="http://www.w3.org/2000/svg"><path d="m14.758 1.674-2.565 16.477.227 1.326H9.088l.227-1.326L7.641 7.777 6.018 18.15l.227 1.326H2.948l.227-1.326L.558 1.71 0 .018h3.018l-.175.82 1.745 11.89L6.332.838l-.21-.82h3.054l-.21.82 1.762 11.89L12.473.838l-.21-.82h3.053l-.558 1.656zm10.03 17.803h-7.31l.314-1.204V1.186L17.479 0h7.31l.436 2.685-1.256-.279h-3.49l-.278.28v5.527l.279.279h.977l1.203-.314v3.051l-1.203-.314h-.977l-.28.314v5.51l.28.279h3.489l1.256-.28-.437 2.739zm3.036-18.291L27.51 0h6.384l1.239 1.203V8.51l-1.256 1.203 1.256 1.238v7.323l-1.239 1.204h-6.367l.314-1.204V1.186h-.017zm2.442 1.5v5.527l.279.279h1.866l.28-.28V2.686l-.28-.279h-1.866l-.28.28.001-.001zm2.442 8.543-.279-.279h-1.867l-.279.279v5.51l.28.279h1.848l.28-.28V11.23l.017-.001zM46 14.612l-.314 1.185v3.697h-7.31V9.73l1.204-1.204h3.384l.28-.279v-5.51l-.28-.278h-1.901l-.28.279v.941l.332 1.186h-3.053l.315-1.186V1.238L39.58 0h4.867l1.239 1.238v8.509l-1.239 1.238h-3.384l-.28.279v5.475l.28.279h1.901l.28-.28v-.94l-.315-1.186H46z" fill="#11202C"/></svg>