<svg width="23" height="23" fill="none" xmlns="http://www.w3.org/2000/svg">
<path d="m.5 22.5 1.555-5.646A10.796 10.796 0 0 1 .595 11.4C.595 5.388 5.51.5 11.547.5c2.931 0 5.684 1.135 7.749 3.194 2.07 2.06 3.21 4.8 3.204 7.712 0 6.012-4.917 10.9-10.958 10.9h-.005c-1.834 0-3.635-.46-5.238-1.327L.5 22.5zm6.078-3.492.33.198c1.398.826 3 1.26 4.634 1.265h.005c5.017 0 9.104-4.062 9.104-9.06 0-2.42-.946-4.695-2.663-6.41a9.057 9.057 0 0 0-6.44-2.655C6.53 2.34 2.443 6.403 2.443 11.4c0 1.71.478 3.377 1.392 4.82l.215.345-.92 3.34 3.447-.898z" fill="#00709F"/>
<path d="m.5 22.5 1.555-5.646A10.796 10.796 0 0 1 .595 11.4C.595 5.388 5.51.5 11.547.5c2.931 0 5.684 1.135 7.749 3.194 2.07 2.06 3.21 4.8 3.204 7.712 0 6.012-4.917 10.9-10.958 10.9h-.005c-1.834 0-3.635-.46-5.238-1.327L.5 22.5zm6.078-3.492.33.198c1.398.826 3 1.26 4.634 1.265h.005c5.017 0 9.104-4.062 9.104-9.06 0-2.42-.946-4.695-2.663-6.41a9.057 9.057 0 0 0-6.44-2.655C6.53 2.34 2.443 6.403 2.443 11.4c0 1.71.478 3.377 1.392 4.82l.215.345-.92 3.34 3.447-.898z" fill="#00709F"/>
<path fill-rule="evenodd" clip-rule="evenodd" d="M8.81 6.842c-.205-.455-.42-.465-.615-.47-.158-.006-.341-.006-.525-.006a1.01 1.01 0 0 0-.73.34c-.253.272-.957.93-.957 2.274 0 1.339.983 2.635 1.12 2.818.136.183 1.896 3.022 4.675 4.115 2.31.91 2.784.727 3.283.68.499-.048 1.618-.66 1.849-1.297.226-.638.226-1.182.157-1.297-.068-.115-.252-.183-.525-.319s-1.618-.794-1.87-.888c-.252-.09-.436-.136-.615.136-.183.271-.709.883-.866 1.066-.158.183-.32.204-.594.068-.273-.136-1.156-.423-2.201-1.354-.814-.722-1.366-1.616-1.523-1.887-.158-.272-.016-.419.12-.555.121-.12.274-.319.41-.475.137-.157.184-.272.273-.455.09-.183.048-.34-.02-.476-.069-.13-.605-1.48-.846-2.018z" fill="#00709F"/></svg>