<svg width="19" height="19" fill="none" xmlns="http://www.w3.org/2000/svg"><path d="m.821 18.59 1.285-4.667A8.921 8.921 0 0 1 .9 9.418C.9 4.449 4.962.41 9.95.41c2.423 0 4.697.938 6.403 2.64A8.91 8.91 0 0 1 19 9.422c0 4.968-4.063 9.007-9.055 9.007h-.004a9.093 9.093 0 0 1-4.328-1.097L.821 18.589zm5.022-2.887.274.164a7.572 7.572 0 0 0 3.828 1.046h.005c4.145 0 7.522-3.357 7.522-7.487 0-2-.781-3.88-2.2-5.296A7.484 7.484 0 0 0 9.95 1.935c-4.146-.004-7.523 3.353-7.523 7.483a7.43 7.43 0 0 0 1.15 3.983l.179.285-.76 2.76 2.847-.743z" fill="#FCFCFC"/><path d="m.821 18.59 1.285-4.667A8.921 8.921 0 0 1 .9 9.418C.9 4.449 4.962.41 9.95.41c2.423 0 4.697.938 6.403 2.64A8.91 8.91 0 0 1 19 9.422c0 4.968-4.063 9.007-9.055 9.007h-.004a9.093 9.093 0 0 1-4.328-1.097L.821 18.589zm5.022-2.887.274.164a7.572 7.572 0 0 0 3.828 1.046h.005c4.145 0 7.522-3.357 7.522-7.487 0-2-.781-3.88-2.2-5.296A7.484 7.484 0 0 0 9.95 1.935c-4.146-.004-7.523 3.353-7.523 7.483a7.43 7.43 0 0 0 1.15 3.983l.179.285-.76 2.76 2.847-.743z" fill="url(#a)"/><path fill-rule="evenodd" clip-rule="evenodd" d="M7.688 5.65c-.17-.375-.347-.384-.508-.388-.13-.004-.282-.004-.434-.004a.834.834 0 0 0-.603.28c-.209.225-.79.77-.79 1.88 0 1.106.811 2.177.924 2.328.113.152 1.567 2.497 3.863 3.4 1.91.752 2.3.6 2.713.562.413-.039 1.337-.544 1.528-1.072.187-.526.187-.976.13-1.07-.056-.096-.208-.152-.434-.264-.225-.113-1.337-.657-1.545-.735-.208-.073-.36-.112-.508.113-.152.224-.586.73-.716.88-.13.152-.265.17-.49.057-.226-.112-.955-.35-1.82-1.119-.672-.596-1.128-1.335-1.258-1.56-.13-.224-.013-.345.1-.457.1-.1.225-.264.338-.394.113-.13.152-.224.226-.375.074-.152.04-.281-.017-.394-.057-.108-.5-1.222-.7-1.667z" fill="#FCFCFC"/><defs><linearGradient id="a" x1="9.913" y1="18.587" x2="9.913" y2=".41" gradientUnits="userSpaceOnUse"><stop stop-color="#F9F9F9"/><stop offset="1" stop-color="#fff"/></linearGradient></defs></svg>