<svg width="26" height="26" viewBox="0 0 26 26" fill="none" xmlns="http://www.w3.org/2000/svg">
<g clip-path="url(#clip0_1021_1575)">
<g clip-path="url(#clip1_1021_1575)">
<path d="M0 0H26V26H0V0Z" fill="#FFDF00"/>
<path d="M17.4654 20.3126C17.9891 21.1677 18.6705 21.7962 19.8756 21.7962C20.8879 21.7962 21.5346 21.2903 21.5346 20.5912C21.5346 19.7534 20.8702 19.4567 19.7559 18.9693L19.1451 18.7072C17.382 17.9561 16.2108 17.0151 16.2108 15.0259C16.2108 13.1935 17.607 11.7986 19.7889 11.7986C21.3423 11.7986 22.4591 12.3392 23.2638 13.7548L21.3613 14.9764C20.9424 14.2253 20.4905 13.9294 19.7889 13.9294C19.0733 13.9294 18.6197 14.3833 18.6197 14.9764C18.6197 15.7093 19.0737 16.0061 20.1219 16.46L20.7327 16.7217C22.8086 17.6119 23.9806 18.5194 23.9806 20.5598C23.9806 22.7595 22.2527 23.9646 19.9321 23.9646C17.663 23.9646 16.1971 22.8833 15.4799 21.4661L17.4654 20.3126ZM8.83462 20.5243C9.21843 21.2053 9.5676 21.781 10.407 21.781C11.2097 21.781 11.7161 21.4669 11.7161 20.2458V11.9381H14.1593V20.2787C14.1593 22.8086 12.6761 23.96 10.511 23.96C8.55482 23.96 7.42199 22.9477 6.84583 21.7283L8.83462 20.5243Z" fill="black"/>
</g>
</g>
<defs>
<clipPath id="clip0_1021_1575">
<rect width="26" height="26" fill="white"/>
</clipPath>
<clipPath id="clip1_1021_1575">
<rect width="26" height="26" fill="white"/>
</clipPath>
</defs>
</svg>
