<svg width="26" height="26" viewBox="0 0 26 26" fill="none" xmlns="http://www.w3.org/2000/svg">
<g clip-path="url(#clip0_1021_1605)">
<path d="M12.8508 21C12.765 21 12.6798 20.9774 12.6046 20.9339L11.8207 20.4676C11.7036 20.4018 11.7607 20.3785 11.7994 20.3651C11.9555 20.3102 11.9871 20.2978 12.1538 20.2027C12.1713 20.1927 12.1942 20.1962 12.2121 20.2068L12.8143 20.5659C12.8361 20.5777 12.8669 20.5777 12.8871 20.5659L15.2351 19.2041C15.2569 19.1917 15.271 19.1663 15.271 19.1403V16.4178C15.271 16.3906 15.2569 16.3664 15.2347 16.3528L12.8876 14.9922C12.8658 14.9792 12.837 14.9792 12.8153 14.9922L10.4687 16.3528C10.4459 16.3658 10.4315 16.3912 10.4315 16.4172V19.1397C10.4315 19.1657 10.4456 19.1905 10.4679 19.2029L11.1109 19.5761C11.46 19.7515 11.6734 19.5448 11.6734 19.3369V16.6499C11.6734 16.6115 11.7033 16.582 11.7415 16.582H12.0389C12.076 16.582 12.1065 16.6115 12.1065 16.6499V19.3381C12.1065 19.8058 11.8526 20.0746 11.4112 20.0746C11.2754 20.0746 11.1685 20.0746 10.8699 19.9269L10.254 19.5702C10.1017 19.4816 10.0077 19.3163 10.0077 19.1397V16.4172C10.0077 16.24 10.1017 16.0747 10.254 15.9873L12.6043 14.6249C12.753 14.5404 12.9505 14.5404 13.098 14.6249L15.4455 15.9879C15.5971 16.0759 15.6917 16.2406 15.6917 16.4178V19.1403C15.6917 19.3169 15.5971 19.4816 15.4455 19.5702L13.098 20.9326C13.0228 20.9763 12.9376 20.9988 12.8506 20.9988" fill="#689F63"/>
<path d="M13.5761 19.1241C12.5487 19.1241 12.3333 18.6502 12.3333 18.2528C12.3333 18.215 12.3636 18.1849 12.4013 18.1849H12.7046C12.7381 18.1849 12.7663 18.2094 12.7716 18.2426C12.8174 18.5531 12.9538 18.7098 13.575 18.7098C14.0699 18.7098 14.2803 18.5974 14.2803 18.3337C14.2803 18.182 14.2204 18.0692 13.4516 17.9936C12.8086 17.9298 12.4113 17.7875 12.4113 17.2707C12.4113 16.7947 12.811 16.5113 13.4804 16.5113C14.2321 16.5113 14.6048 16.7735 14.6518 17.3369C14.6535 17.3564 14.6465 17.3753 14.6336 17.3894C14.6206 17.403 14.6024 17.4113 14.5836 17.4113H14.2786C14.2468 17.4113 14.2192 17.3888 14.2127 17.3581C14.1393 17.0316 13.9618 16.927 13.4792 16.927C12.9391 16.927 12.8762 17.116 12.8762 17.2577C12.8762 17.4296 12.9503 17.4798 13.6791 17.5766C14.4008 17.6729 14.7435 17.8087 14.7435 18.3184C14.7435 18.8322 14.3168 19.1269 13.5727 19.1269M16.4326 16.2396H16.5114C16.576 16.2396 16.5884 16.1941 16.5884 16.1676C16.5884 16.0979 16.5408 16.0979 16.5143 16.0979H16.4332L16.4326 16.2396ZM16.3368 16.0164H16.5114C16.5713 16.0164 16.6889 16.0164 16.6889 16.151C16.6889 16.2449 16.6289 16.2644 16.5931 16.2762C16.663 16.281 16.6677 16.327 16.6771 16.392C16.6818 16.4327 16.6895 16.503 16.7036 16.5266H16.596C16.5931 16.503 16.5766 16.3731 16.5766 16.366C16.5696 16.3371 16.5596 16.3229 16.5237 16.3229H16.435V16.5272H16.3368V16.0164ZM16.127 16.2703C16.127 16.4817 16.2969 16.653 16.5055 16.653C16.7159 16.653 16.8858 16.4782 16.8858 16.2703C16.8858 16.0583 16.7136 15.89 16.5049 15.89C16.2992 15.89 16.1264 16.0559 16.1264 16.2697M16.9587 16.2715C16.9587 16.5219 16.7547 16.7262 16.5061 16.7262C16.2593 16.7262 16.0535 16.5243 16.0535 16.2715C16.0535 16.014 16.264 15.8168 16.5061 15.8168C16.75 15.8168 16.9581 16.0146 16.9581 16.2715" fill="#689F63"/>
<path fill-rule="evenodd" clip-rule="evenodd" d="M5.57997 10.3475C5.57997 10.2389 5.52296 10.139 5.42962 10.085L2.94019 8.64581C2.89816 8.62101 2.85108 8.60802 2.80336 8.60625H2.77762C2.72989 8.60802 2.68281 8.62101 2.64008 8.64581L0.150763 10.085C0.0580169 10.1393 0.000183105 10.2391 0.000183105 10.3478L0.0056491 14.2242C0.0056491 14.278 0.033273 14.3282 0.0802923 14.3548C0.126136 14.3831 0.183735 14.3831 0.229579 14.3548L1.70951 13.5032C1.80296 13.4473 1.85997 13.3486 1.85997 13.241V11.43C1.85997 11.3219 1.91699 11.2221 2.01014 11.1684L2.6402 10.8038C2.68699 10.7766 2.73835 10.7631 2.79066 10.7631C2.84215 10.7631 2.89469 10.7765 2.94019 10.8037L3.56995 11.1682C3.66317 11.222 3.72041 11.3218 3.72041 11.4298V13.2407C3.72041 13.3482 3.77819 13.4474 3.87117 13.5029L5.35016 14.3539C5.39659 14.3816 5.45437 14.3816 5.50062 14.3539C5.54623 14.3273 5.57515 14.2771 5.57515 14.2234L5.57997 10.3475ZM17.327 12.3658C17.327 12.3928 17.3128 12.4178 17.2894 12.4311L16.4344 12.9264C16.4112 12.9398 16.3825 12.9398 16.3593 12.9264L15.5042 12.4311C15.4807 12.4177 15.4665 12.3927 15.4665 12.3658V11.3739C15.4665 11.3469 15.4807 11.3219 15.5036 11.3084L16.3582 10.8123C16.3817 10.7987 16.4105 10.7987 16.434 10.8123L17.2891 11.3084C17.3126 11.3219 17.3268 11.3469 17.3268 11.3739L17.327 12.3658ZM17.558 5.01912C17.5114 4.99302 17.4546 4.99373 17.4085 5.02072C17.3627 5.04788 17.3343 5.09749 17.3343 5.15123V8.98987C17.3343 9.02767 17.3144 9.06251 17.2818 9.08141C17.2495 9.10031 17.2092 9.10031 17.1766 9.08141L16.553 8.72052C16.4601 8.66654 16.3458 8.66654 16.2525 8.72052L13.7623 10.1646C13.6692 10.2184 13.6118 10.3182 13.6118 10.4256V13.3147C13.6118 13.4227 13.6692 13.522 13.7623 13.5763L16.2525 15.0214C16.3455 15.0751 16.46 15.0751 16.5533 15.0214L19.0435 13.5757C19.1364 13.5214 19.194 13.4221 19.194 13.3141V6.11396C19.194 6.00435 19.1346 5.90354 19.0394 5.84998L17.558 5.01912ZM25.8507 11.3478C25.9432 11.2938 26.0001 11.1941 26.0001 11.0867V10.3865C26.0001 10.2788 25.9431 10.1794 25.8504 10.1252L23.376 8.68184C23.2826 8.62751 23.168 8.62751 23.0745 8.68184L20.5848 10.1258C20.4914 10.1801 20.4344 10.2793 20.4344 10.3874V13.2752C20.4344 13.3839 20.4926 13.4843 20.586 13.538L23.0598 14.9548C23.1509 15.0073 23.2626 15.0079 23.3549 14.9565L24.8513 14.1209C24.8983 14.0943 24.9283 14.0441 24.9283 13.9898C24.9283 13.9355 24.8995 13.8847 24.8524 13.8581L22.3475 12.4136C22.3005 12.387 22.2717 12.3368 22.2717 12.2831V11.3772C22.2717 11.3231 22.2999 11.2732 22.3469 11.2463L23.1262 10.7945C23.1727 10.7673 23.2297 10.7673 23.2761 10.7945L24.056 11.2463C24.1025 11.2729 24.1313 11.3231 24.1313 11.3768V12.089C24.1313 12.1428 24.1601 12.193 24.2065 12.2201C24.2529 12.2467 24.3105 12.2467 24.357 12.2195L25.8507 11.3478Z" fill="#333333"/>
<path fill-rule="evenodd" clip-rule="evenodd" d="M23.1887 11.2127C23.2063 11.2022 23.2284 11.2022 23.2463 11.2127L23.7241 11.4896C23.742 11.5 23.7529 11.5192 23.7529 11.5398V12.0944C23.7529 12.1151 23.742 12.1342 23.7241 12.1446L23.2463 12.4216C23.2284 12.432 23.2063 12.432 23.1887 12.4216L22.7111 12.1446C22.6929 12.1342 22.6818 12.1151 22.6818 12.0944V11.5398C22.6818 11.5192 22.6923 11.5 22.7106 11.4896L23.1887 11.2127Z" fill="#689F63"/>
<mask id="mask0_1021_1605" style="mask-type:luminance" maskUnits="userSpaceOnUse" x="6" y="8" width="7" height="8">
<path d="M9.44647 8.69629L6.97032 10.1324C6.87757 10.1861 6.82068 10.2853 6.82068 10.3926V13.2667C6.82068 13.374 6.87757 13.4732 6.97032 13.5269L9.44665 14.9641C9.53922 15.0176 9.65336 15.0176 9.74581 14.9641L12.2217 13.5269C12.314 13.4732 12.371 13.3739 12.371 13.2667V10.3926C12.371 10.2853 12.314 10.1861 12.2211 10.1324L9.74558 8.69629C9.69914 8.66953 9.64742 8.65613 9.5957 8.65613C9.54398 8.65613 9.49226 8.66953 9.44583 8.69629" fill="white"/>
</mask>
<g mask="url(#mask0_1021_1605)">
<path d="M14.8733 9.8885L7.89588 6.45203L4.3183 13.7853L11.2955 17.2219L14.8733 9.8885Z" fill="url(#paint0_linear_1021_1605)"/>
</g>
<mask id="mask1_1021_1605" style="mask-type:luminance" maskUnits="userSpaceOnUse" x="6" y="8" width="7" height="8">
<path d="M6.88202 13.4491C6.90571 13.48 6.93533 13.5067 6.97018 13.5268L9.09428 14.7596L9.4481 14.9639C9.501 14.9947 9.5613 15.0076 9.62054 15.0032C9.64029 15.0016 9.66004 14.9979 9.67932 14.9924L12.2909 10.1876C12.2709 10.1658 12.2475 10.1474 12.2213 10.1321L10.6 9.19133L9.74291 8.69585C9.71858 8.68168 9.69219 8.67164 9.66533 8.66455L6.88202 13.4491Z" fill="white"/>
</mask>
<g mask="url(#mask1_1021_1605)">
<path d="M3.86523 10.9049L8.79198 17.6049L15.3077 12.7679L10.3806 6.06799L3.86523 10.9049Z" fill="url(#paint1_linear_1021_1605)"/>
</g>
<mask id="mask2_1021_1605" style="mask-type:luminance" maskUnits="userSpaceOnUse" x="6" y="8" width="7" height="8">
<path d="M9.56613 8.65774C9.52457 8.66187 9.48396 8.67486 9.44652 8.69624L6.97742 10.1282L9.63989 15.0009C9.67692 14.9956 9.71336 14.9832 9.74627 14.964L12.2224 13.5269C12.2988 13.4823 12.3511 13.407 12.367 13.3216L9.65282 8.66264C9.63284 8.65868 9.61285 8.65662 9.59228 8.65662C9.58405 8.65662 9.57582 8.65703 9.5676 8.6578" fill="white"/>
</mask>
<g mask="url(#mask2_1021_1605)">
<path d="M6.97711 8.65662V15.001H12.3657V8.65662H6.97711Z" fill="url(#paint2_linear_1021_1605)"/>
</g>
</g>
<defs>
<linearGradient id="paint0_linear_1021_1605" x1="11.3825" y1="8.16486" x2="7.77746" y2="15.484" gradientUnits="userSpaceOnUse">
<stop offset="0.3" stop-color="#3E863D"/>
<stop offset="0.5" stop-color="#55934F"/>
<stop offset="0.8" stop-color="#5AAD45"/>
</linearGradient>
<linearGradient id="paint1_linear_1021_1605" x1="6.35813" y1="14.2933" x2="12.8961" y2="9.4856" gradientUnits="userSpaceOnUse">
<stop offset="0.57" stop-color="#3E863D"/>
<stop offset="0.72" stop-color="#619857"/>
<stop offset="1" stop-color="#76AC64"/>
</linearGradient>
<linearGradient id="paint2_linear_1021_1605" x1="6.97893" y1="11.829" x2="12.3667" y2="11.829" gradientUnits="userSpaceOnUse">
<stop offset="0.16" stop-color="#6BBF47"/>
<stop offset="0.38" stop-color="#79B461"/>
<stop offset="0.47" stop-color="#75AC64"/>
<stop offset="0.7" stop-color="#659E5A"/>
<stop offset="0.9" stop-color="#3E863D"/>
</linearGradient>
<clipPath id="clip0_1021_1605">
<rect width="26" height="16" fill="white" transform="translate(0 5)"/>
</clipPath>
</defs>
</svg>
