<svg width="26" height="26" viewBox="0 0 26 26" fill="none" xmlns="http://www.w3.org/2000/svg">
<path d="M0 13C0 16.7768 5.82044 19.8385 13 19.8385C20.1795 19.8385 26 16.7768 26 13C26 9.2233 20.1795 6.16151 13 6.16151C5.82044 6.16157 0 9.2233 0 13Z" fill="url(#paint0_radial_1021_1556)"/>
<path d="M12.9999 19.3307C19.8991 19.3307 25.4921 16.4963 25.4921 12.9999C25.4921 9.50365 19.8991 6.66919 12.9999 6.66919C6.10078 6.66919 0.507812 9.50365 0.507812 12.9999C0.507812 16.4964 6.10083 19.3307 12.9999 19.3307Z" fill="#777BB3"/>
<path d="M7.06297 13.7849C7.63022 13.7849 8.05374 13.6803 8.32168 13.474C8.58677 13.2699 8.76985 12.9163 8.86584 12.423C8.95533 11.9619 8.92126 11.64 8.76452 11.4663C8.60431 11.2889 8.25802 11.1989 7.73511 11.1989H6.82849L6.32591 13.785H7.06297V13.7849ZM4.09779 16.9704C4.07698 16.9705 4.05642 16.9659 4.0376 16.957C4.01877 16.9481 4.00214 16.9352 3.9889 16.9192C3.97567 16.9031 3.96615 16.8843 3.96104 16.8641C3.95593 16.844 3.95535 16.8229 3.95935 16.8025L5.29137 9.94935C5.29763 9.91721 5.31487 9.88825 5.34014 9.86743C5.3654 9.8466 5.39712 9.83521 5.42986 9.83521H8.30058C9.20278 9.83521 9.87435 10.0802 10.2964 10.5634C10.7208 11.0492 10.8518 11.7282 10.6858 12.5816C10.6184 12.9292 10.5022 13.2521 10.3407 13.5412C10.1791 13.8306 9.96531 14.0983 9.70546 14.3372C9.3943 14.6284 9.04227 14.8395 8.65993 14.9638C8.28365 15.0863 7.80039 15.1485 7.22358 15.1485H6.06112L5.72912 16.8563C5.72288 16.8884 5.70565 16.9174 5.68039 16.9382C5.65513 16.959 5.62341 16.9704 5.59068 16.9704H4.09779Z" fill="black"/>
<path d="M6.94504 11.3399H7.73528C8.36633 11.3399 8.58557 11.4784 8.6601 11.5609C8.78365 11.6979 8.80694 11.9869 8.72757 12.3963C8.63834 12.8547 8.4729 13.1798 8.23582 13.3623C7.99315 13.5492 7.59851 13.6439 7.06309 13.6439H6.49727L6.94504 11.3399ZM8.3006 9.69421H5.42983C5.36435 9.69422 5.30092 9.71699 5.2504 9.75865C5.19988 9.8003 5.16543 9.85822 5.15294 9.9225L3.82102 16.7757C3.8131 16.8165 3.8143 16.8586 3.82455 16.8989C3.8348 16.9393 3.85383 16.9768 3.88029 17.0089C3.90676 17.041 3.93999 17.0668 3.97761 17.0846C4.01523 17.1023 4.05631 17.1116 4.09791 17.1116H5.59075C5.65623 17.1116 5.71969 17.0888 5.77023 17.0472C5.82076 17.0055 5.85524 16.9476 5.86774 16.8833L6.17747 15.2896H7.22365C7.81525 15.2896 8.31326 15.2251 8.70378 15.0979C9.10538 14.9674 9.47485 14.7462 9.80187 14.4404C10.0724 14.1916 10.2951 13.9123 10.4639 13.6101C10.6327 13.3079 10.754 12.9709 10.8244 12.6085C10.9991 11.7103 10.8572 10.991 10.4027 10.4707C9.95262 9.95549 9.2453 9.69421 8.3006 9.69421ZM6.15499 13.926H7.06309C7.66501 13.926 8.11329 13.8126 8.40787 13.5858C8.70251 13.359 8.9012 12.9805 9.00446 12.45C9.10319 11.9407 9.0582 11.5813 8.86947 11.3719C8.68044 11.1625 8.30243 11.0578 7.73528 11.0578H6.71243L6.15499 13.926ZM8.3006 9.97634C9.16421 9.97634 9.79424 10.203 10.1902 10.6563C10.5862 11.1096 10.7054 11.7423 10.5475 12.5547C10.4824 12.8894 10.3724 13.1953 10.2176 13.4725C10.0626 13.7498 9.86019 14.0035 9.61004 14.2335C9.3119 14.5124 8.98082 14.7112 8.61638 14.8297C8.25199 14.9484 7.78785 15.0074 7.22365 15.0074H5.94486L5.59075 16.8294H4.09791L5.42983 9.97639L8.3006 9.97634Z" fill="white"/>
<path d="M14.1088 15.1485C14.088 15.1485 14.0675 15.1439 14.0486 15.135C14.0298 15.1261 14.0132 15.1132 13.9999 15.0971C13.9867 15.0811 13.9772 15.0623 13.9721 15.0421C13.967 15.022 13.9664 15.0009 13.9703 14.9805L14.5596 11.9482C14.6156 11.6599 14.6018 11.4529 14.5207 11.3655C14.471 11.312 14.3219 11.2224 13.8809 11.2224H12.8135L12.0727 15.0343C12.0664 15.0665 12.0492 15.0954 12.0239 15.1162C11.9987 15.1371 11.9669 15.1485 11.9342 15.1485H10.4531C10.4323 15.1485 10.4117 15.1439 10.3929 15.135C10.3741 15.1261 10.3575 15.1132 10.3442 15.0971C10.331 15.0811 10.3215 15.0623 10.3163 15.0421C10.3112 15.022 10.3106 15.0009 10.3146 14.9805L11.6465 8.12732C11.6528 8.09519 11.67 8.06623 11.6953 8.04541C11.7206 8.02458 11.7523 8.01319 11.785 8.01318H13.2661C13.2869 8.01316 13.3075 8.01774 13.3263 8.02661C13.3452 8.03548 13.3618 8.0484 13.375 8.06447C13.3883 8.08053 13.3978 8.09932 13.4029 8.1195C13.408 8.13968 13.4086 8.16074 13.4046 8.18117L13.0832 9.83517H14.2315C15.1063 9.83517 15.6995 9.98943 16.045 10.3067C16.3972 10.6303 16.507 11.1479 16.3717 11.8451L15.7519 15.0342C15.7456 15.0663 15.7284 15.0953 15.7032 15.1161C15.6779 15.1369 15.6462 15.1483 15.6135 15.1483H14.1088V15.1485Z" fill="black"/>
<path d="M13.2661 7.87219H11.785C11.7195 7.87219 11.6561 7.89497 11.6056 7.93662C11.555 7.97827 11.5206 8.0362 11.5081 8.10047L10.1761 14.9537C10.1682 14.9945 10.1694 15.0366 10.1796 15.0769C10.1899 15.1173 10.2089 15.1548 10.2354 15.1869C10.2619 15.219 10.2951 15.2449 10.3327 15.2626C10.3704 15.2804 10.4115 15.2896 10.4531 15.2895H11.9341C11.9996 15.2895 12.0631 15.2668 12.1136 15.2251C12.1641 15.1835 12.1986 15.1255 12.2111 15.0613L12.9297 11.3634H13.8809C14.3211 11.3634 14.4135 11.4575 14.4172 11.4615C14.4439 11.4902 14.4791 11.6233 14.4211 11.9214L13.8318 14.9536C13.8239 14.9945 13.8251 15.0366 13.8353 15.0769C13.8456 15.1172 13.8646 15.1548 13.8911 15.1869C13.9176 15.219 13.9508 15.2448 13.9885 15.2626C14.0261 15.2803 14.0672 15.2895 14.1088 15.2895H15.6134C15.6789 15.2895 15.7424 15.2667 15.7929 15.2251C15.8435 15.1834 15.8779 15.1255 15.8904 15.0612L16.5101 11.8721C16.6555 11.1235 16.5311 10.562 16.1404 10.2029C15.7677 9.86054 15.1432 9.69413 14.2315 9.69413H13.2543L13.543 8.20806C13.551 8.16722 13.5498 8.12515 13.5395 8.08483C13.5293 8.04451 13.5103 8.00695 13.4839 7.97484C13.4574 7.94275 13.4241 7.9169 13.3865 7.89915C13.3488 7.88141 13.3077 7.8722 13.2661 7.87219ZM13.2661 8.15432L12.912 9.97631H14.2315C15.0618 9.97631 15.6343 10.1212 15.9495 10.4107C16.2647 10.7003 16.3591 11.1696 16.2332 11.8184L15.6134 15.0074H14.1088L14.698 11.9752C14.7651 11.6303 14.7404 11.395 14.6241 11.2695C14.5076 11.1441 14.2598 11.0813 13.8809 11.0813H12.6972L11.9342 15.0074H10.4531L11.7851 8.15432H13.2661Z" fill="white"/>
<path d="M18.7152 13.7849C19.2825 13.7849 19.706 13.6804 19.9739 13.4741C20.239 13.2701 20.4221 12.9165 20.5182 12.4231C20.6076 11.962 20.5736 11.6401 20.4168 11.4664C20.2566 11.2889 19.9103 11.199 19.3875 11.199H18.4809L17.9783 13.7851H18.7152V13.7849ZM15.75 16.9705C15.7292 16.9705 15.7086 16.9659 15.6898 16.957C15.671 16.9481 15.6544 16.9352 15.6411 16.9192C15.6279 16.9031 15.6184 16.8843 15.6133 16.8641C15.6081 16.844 15.6075 16.8229 15.6115 16.8025L16.9435 9.94935C16.9497 9.9172 16.967 9.88824 16.9923 9.86741C17.0175 9.84659 17.0493 9.8352 17.082 9.83521H19.9527C20.855 9.83521 21.5265 10.0802 21.9486 10.5634C22.3729 11.0491 22.5039 11.7281 22.3381 12.5815C22.2704 12.9292 22.1543 13.2521 21.9928 13.5412C21.8312 13.8306 21.6174 14.0983 21.3576 14.3373C21.0465 14.6284 20.6944 14.8395 20.312 14.9637C19.9358 15.0863 19.4525 15.1485 18.8757 15.1485H17.7132L17.3814 16.8563C17.3752 16.8885 17.3579 16.9175 17.3327 16.9383C17.3074 16.9591 17.2756 16.9705 17.2429 16.9705H15.75Z" fill="black"/>
<path d="M18.5971 11.3399H19.3874C20.0185 11.3399 20.2377 11.4784 20.3122 11.5609C20.4358 11.6979 20.4591 11.9869 20.3797 12.3962C20.2905 12.8547 20.125 13.1798 19.888 13.3623C19.6453 13.5492 19.2507 13.6439 18.7152 13.6439H18.1494L18.5971 11.3399ZM19.9527 9.69421H17.082C17.0166 9.69422 16.9531 9.71699 16.9026 9.75865C16.8521 9.8003 16.8176 9.85822 16.8052 9.9225L15.4732 16.7757C15.4653 16.8165 15.4665 16.8586 15.4767 16.8989C15.487 16.9393 15.506 16.9768 15.5325 17.0089C15.5589 17.041 15.5921 17.0668 15.6298 17.0846C15.6674 17.1023 15.7085 17.1116 15.7501 17.1116H17.243C17.3084 17.1116 17.3719 17.0888 17.4224 17.0471C17.4729 17.0055 17.5074 16.9476 17.5199 16.8833L17.8296 15.2896H18.8758C19.4674 15.2896 19.9654 15.2251 20.3559 15.0979C20.7575 14.9674 21.1271 14.7461 21.4541 14.4403C21.7246 14.1915 21.9473 13.9123 22.1161 13.6101C22.2849 13.3079 22.4063 12.9709 22.4766 12.6085C22.6513 11.7102 22.5094 10.9909 22.0549 10.4707C21.6048 9.95549 20.8976 9.69426 19.9528 9.69426M17.8073 13.926H18.7153C19.3172 13.926 19.7655 13.8126 20.0601 13.5858C20.3548 13.359 20.5534 12.9805 20.6566 12.45C20.7555 11.9407 20.7105 11.5813 20.5216 11.3719C20.3327 11.1625 19.9546 11.0578 19.3875 11.0578H18.3646L17.8073 13.926ZM19.9528 9.97634C20.8164 9.97634 21.4464 10.203 21.8424 10.6563C22.2384 11.1096 22.3576 11.7423 22.1996 12.5547C22.1346 12.8894 22.0246 13.1953 21.8698 13.4725C21.7148 13.7498 21.5123 14.0035 21.2622 14.2335C20.9641 14.5124 20.633 14.7112 20.2686 14.8297C19.9042 14.9484 19.4401 15.0074 18.8758 15.0074H17.5971L17.243 16.8294H15.7502L17.0821 9.97639L19.9528 9.97634Z" fill="white"/>
<defs>
<radialGradient id="paint0_radial_1021_1556" cx="0" cy="0" r="1" gradientUnits="userSpaceOnUse" gradientTransform="translate(7.80972 8.5812) scale(21.3429 21.3429)">
<stop stop-color="#AEB2D5"/>
<stop offset="0.3" stop-color="#AEB2D5"/>
<stop offset="0.75" stop-color="#484C89"/>
<stop offset="1" stop-color="#484C89"/>
</radialGradient>
</defs>
</svg>
