<svg width="104" height="97" viewBox="0 0 104 97" fill="none" xmlns="http://www.w3.org/2000/svg">
<path d="M103.345 57.3791C102.953 60.9008 100.328 64.6107 97.2359 66.2733C95.6588 67.1208 94.0681 67.4005 92.3644 67.8471C88.0124 80.5508 77.4189 90.8681 64.57 94.8391C42.2688 101.732 18.7861 89.6521 11.1828 67.8471C10.9648 67.5916 9.41181 67.4517 8.90583 67.3037C-2.07522 64.0538 -2.83151 49.3566 7.65431 45.0871C6.5589 36.5373 5.33968 27.4387 9.90973 19.6583C13.0345 14.3368 18.7376 10.6672 24.6938 9.2629C26.131 8.92392 28.2895 8.91047 29.4253 8.55535C30.0659 8.35627 33.3306 5.68748 34.3883 5.05794C42.8663 0.00284719 51.2474 -0.621305 60.9043 0.823393C78.8696 3.5137 98.4255 14.2938 96.9076 35.1329L95.8956 45.0817C98.404 45.9884 101.023 48.3908 102.175 50.7959C102.621 51.7295 103.235 53.5616 103.345 54.5597C103.424 55.2538 103.424 56.685 103.345 57.3791ZM83.7841 45.3185C78.3986 45.0037 72.9861 44.8988 67.6113 44.2639C56.5926 42.9671 44.753 40.1181 36.162 32.8085C33.7531 37.0108 29.8855 40.2176 25.5846 42.378C23.7518 43.298 21.7601 43.8361 19.9542 44.8073L15.7474 59.3458C17.7095 73.7147 28.9166 85.8211 42.9417 89.262C63.8137 94.3844 84.2901 80.6692 87.8348 59.6901L83.7841 45.3158V45.3185Z" fill="#2B3F5A" fill-opacity="0.5"/>
<path d="M68.0422 49.5772C76.7409 48.4016 78.0085 61.4872 69.7835 62.3912C61.2705 63.3247 59.8548 50.6856 68.0422 49.5772Z" fill="#2B3F5A" fill-opacity="0.5"/>
<path d="M33.5918 49.5772C42.3336 48.3935 43.6955 61.4765 35.3332 62.3912C26.8498 63.3193 25.5902 50.6614 33.5918 49.5772Z" fill="#2B3F5A" fill-opacity="0.5"/>
<path d="M73.1753 71.6513V72.3184C72.0772 76.3216 69.3266 79.1814 65.2329 80.1042C61.29 80.992 55.7995 79.4128 52.7743 76.7386C52.594 76.5799 51.8592 75.7271 51.7785 75.7432C50.2309 77.6264 47.7279 78.8182 45.4509 79.6011C39.379 81.6888 32.0987 79.3213 30.5565 72.5875C30.4839 72.2754 30.2309 71.4145 30.8068 71.5813C31.0329 71.6486 31.843 72.6278 32.1902 72.8726C34.7336 74.6563 38.1948 73.4834 40.4179 71.7346C41.874 70.5886 42.8079 68.926 44.3905 67.9467C46.9312 66.3782 49.9806 66.9728 51.7704 69.3161C51.8457 69.3349 52.4782 68.5816 52.6451 68.439C54.7713 66.5988 57.565 66.6634 59.7801 68.3153C60.8647 69.125 61.621 70.3249 62.6169 71.2342C64.875 73.2977 68.8637 74.8742 71.5847 72.7677C71.9427 72.4906 72.4325 71.7616 72.7636 71.6055C72.917 71.5329 73.0435 71.5598 73.178 71.6486L73.1753 71.6513Z" fill="#2B3F5A" fill-opacity="0.5"/>
</svg>
