<svg width="104" height="97" viewBox="0 0 104 97" fill="none" xmlns="http://www.w3.org/2000/svg">
<path d="M103.534 57.3791C103.141 60.9008 100.517 64.6107 97.4244 66.2733C95.8472 67.1208 94.2566 67.4005 92.5529 67.8471C88.2009 80.5508 77.6074 90.8681 64.7585 94.8391C42.4573 101.732 18.9746 89.6521 11.3713 67.8471C11.1533 67.5916 9.60029 67.4517 9.0943 67.3037C-1.88674 64.0538 -2.64303 49.3566 7.84279 45.0871C6.74737 36.5373 5.52816 27.4387 10.0982 19.6583C13.223 14.3368 18.9261 10.6672 24.8822 9.2629C26.3195 8.92392 28.478 8.91047 29.6138 8.55535C30.2543 8.35627 33.5191 5.68748 34.5768 5.05794C43.0602 0.00284719 51.4386 -0.621305 61.0981 0.823393C79.0635 3.5137 98.6194 14.2938 97.1014 35.1329L96.0895 45.0817C98.5979 45.9884 101.217 48.3908 102.369 50.7959C102.815 51.7295 103.429 53.5616 103.539 54.5597C103.617 55.2538 103.617 56.685 103.539 57.3791H103.534ZM83.9699 45.3185C78.5844 45.0037 73.1719 44.8988 67.7971 44.2639C56.7784 42.9671 44.9388 40.1181 36.3478 32.8085C33.9389 37.0108 30.0713 40.2176 25.7704 42.378C23.9375 43.298 21.9459 43.8361 20.1399 44.8073L15.9332 59.3458C17.8953 73.7147 29.1024 85.8211 43.1275 89.262C63.9995 94.3844 84.4759 80.6692 88.0205 59.6901L83.9699 45.3158V45.3185Z" fill="#2B3F5A" fill-opacity="0.5"/>
<path d="M40.4199 71.1186C42.861 70.6639 43.5473 72.2673 45.3264 73.3704C49.5331 75.9746 54.5338 75.9531 58.7109 73.2923C60.6029 72.0871 61.8491 69.9348 64.4759 71.5463C66.9386 73.0583 65.9185 75.719 64.1395 77.309C58.9773 81.9229 51.1452 82.8483 44.8015 80.341C42.9821 79.6226 38.3905 77.0265 38.0703 74.9872C37.8038 73.2977 38.622 71.4548 40.4199 71.1186Z" fill="#2B3F5A" fill-opacity="0.5"/>
<path d="M68.2277 49.5772C76.9265 48.4016 78.1941 61.4872 69.9691 62.3912C61.4561 63.3247 60.0404 50.6856 68.2277 49.5772Z" fill="#2B3F5A" fill-opacity="0.5"/>
<path d="M33.7774 49.5772C42.5192 48.3935 43.8811 61.4765 35.5188 62.3912C27.0354 63.3193 25.7758 50.6614 33.7774 49.5772Z" fill="#2B3F5A" fill-opacity="0.5"/>
</svg>
