<svg width="120" height="120" viewBox="0 0 120 120" fill="none" xmlns="http://www.w3.org/2000/svg">
<rect width="120" height="120" fill="white"/>
<path d="M24.336 51.107C21.8824 51.4981 19.9938 52.0217 18.629 52.9373C17.3868 53.7597 16.514 54.9934 15.9596 56.8448C15.3438 58.8806 15.6412 60.978 16.6166 62.7362C17.6017 64.505 19.286 65.924 21.4211 66.5716C28.7606 68.7929 34.6632 65.9346 40.3808 63.1685C45.2878 60.7935 50.0712 58.48 55.7379 58.9527L56.6309 59.0247C50.9229 56.1146 47.9668 51.2512 44.9896 46.356C41.7457 41.0305 38.4816 35.6524 31.3781 33.5033C29.243 32.8556 27.0561 33.1023 25.25 34.038C23.4631 34.9532 22.057 36.5469 21.4412 38.5726C20.8868 40.4233 20.9281 41.925 21.5026 43.3027C22.1395 44.814 23.4123 46.2945 25.25 47.9913L28.0009 50.5315L24.3053 51.1176L24.336 51.107ZM16.6272 49.9147C17.7254 49.1845 18.9877 48.6494 20.4561 48.2276C19.4701 47.0766 18.7105 45.9246 18.1973 44.7006C17.2737 42.511 17.171 40.2282 17.9921 37.5135C18.8956 34.5008 20.9789 32.1563 23.607 30.8093C26.215 29.4623 29.3658 29.0921 32.4351 30.0278C36.5624 31.272 39.5291 33.3388 41.9106 35.8169C40.1957 32.835 39.0361 29.4006 38.9747 25.0923L38.9641 25.0717H38.9747C38.9334 21.8635 40.1544 18.9433 42.1667 16.8148C44.1896 14.6658 47.0124 13.3085 50.1633 13.2674L50.1844 13.2571V13.2674C53.0072 13.2365 55.1624 13.9563 57.0002 15.437C58.0265 16.2699 58.93 17.3187 59.7616 18.5937C60.5625 17.2981 61.4353 16.2184 62.4405 15.3649C64.237 13.8329 66.3827 13.0514 69.216 13.0103L69.2362 13V13.0103C72.3678 12.9794 75.2213 14.2545 77.295 16.3418C79.3582 18.4292 80.6617 21.3288 80.7029 24.537L80.7135 24.5576H80.7029C80.7231 26.5523 80.5389 28.249 80.1898 29.7297C81.524 28.7322 83.0126 27.8582 84.6959 27.1488C87.6521 25.9149 90.824 25.956 93.5547 27.0253C96.3056 28.105 98.6153 30.2232 99.8267 33.1331C100.915 35.7449 101.049 38.0277 100.35 40.3003C99.96 41.5647 99.3241 42.7887 98.4512 44.0425C99.9504 44.3105 101.274 44.7112 102.435 45.328C104.528 46.4281 106.058 48.1354 107.146 50.7573C108.357 53.6569 108.235 56.7929 107.065 59.508C105.904 62.202 103.697 64.4944 100.741 65.729C96.7881 67.3844 93.196 67.6822 89.7977 67.2922C92.9802 68.5047 96.0188 70.407 98.7697 73.6669C100.843 76.1245 101.757 79.1682 101.562 82.0986C101.367 85.0491 100.042 87.8978 97.6407 89.9231C95.475 91.7534 93.3389 92.5662 90.9679 92.5864C89.6442 92.5969 88.2889 92.3606 86.8416 91.9081C87.0468 93.4194 87.0574 94.7971 86.8205 96.1037C86.4004 98.4375 85.2503 100.412 83.0845 102.242C80.6818 104.267 77.6643 105.1 74.7283 104.803C71.8029 104.504 68.959 103.095 66.8958 100.648C64.237 97.5017 62.851 94.2831 62.1537 91.0443C61.8458 94.2418 60.9116 97.543 58.8379 101.008C57.1546 103.815 54.5265 105.697 51.6519 106.469C48.7466 107.25 45.5852 106.9 42.8449 105.255C40.3702 103.764 38.8816 101.975 38.0817 99.7018C37.6299 98.4173 37.4141 97.0078 37.3729 95.435C35.9667 96.1441 34.622 96.6178 33.2773 96.8234C30.9062 97.1827 28.6368 96.71 26.1526 95.2295C23.4123 93.5837 21.6158 90.9415 20.9386 88.0006C20.2605 85.0904 20.6921 81.893 22.3649 79.0856C25.1474 74.4384 28.8325 71.8568 32.836 70.1399C29.0991 71.1679 25.0448 71.436 20.3631 70.0169C17.2938 69.0907 14.8815 67.0347 13.4447 64.4637C12.0079 61.8725 11.5657 58.7673 12.4692 55.7648C13.2903 53.0507 14.635 51.1993 16.6061 49.8936L16.6272 49.9147ZM41.9509 66.4179C40.4316 67.1577 38.8922 67.8984 37.322 68.5671C38.7588 68.1348 40.2168 67.7543 41.6536 67.3844C46.0475 66.243 50.3484 65.1218 53.551 62.5306C49.5686 62.7362 45.801 64.5569 41.9509 66.4179ZM58.7046 62.4999L57.5651 63.7239C53.5712 68.0214 48.1413 69.4308 42.5677 70.8806C36.1307 72.5562 29.4684 74.2837 25.4754 80.9572C24.2947 82.921 23.9974 85.1731 24.4693 87.2089C24.9316 89.2141 26.1526 91.0136 28.0115 92.1339C29.7044 93.1523 31.2141 93.4808 32.743 93.2551C34.3956 93.0081 36.1921 92.1031 38.3176 90.7052L41.4483 88.6482L41.1098 92.3808C40.8834 94.9105 40.9352 96.9262 41.4896 98.5095C42.0027 99.9699 42.9983 101.142 44.6922 102.159C46.5501 103.281 48.7159 103.506 50.7081 102.972C52.7194 102.428 54.5572 101.111 55.7274 99.1571C59.6695 92.5768 58.7353 86.3865 57.8116 80.227C56.9493 74.4787 56.0966 68.7727 58.694 62.4999H58.7046ZM61.4037 79.6928L61.5782 80.8746L61.6406 79.3835C61.8046 75.4049 61.9686 71.5071 60.8809 67.981C60.2335 71.9087 60.8186 75.795 61.4037 79.7024V79.6928ZM62.5844 62.9216L63.016 63.7239C65.7055 68.7516 65.4791 74.0675 65.2537 79.518C64.9871 85.8725 64.7099 92.4432 69.6572 98.3039C71.0941 100.01 73.0651 100.998 75.0775 101.204C77.0792 101.409 79.1222 100.843 80.7442 99.4761C82.2222 98.2319 83.002 96.9463 83.2591 95.4658C83.5459 93.8517 83.2898 91.8975 82.6635 89.4917L81.7398 85.8725L85.1477 87.3944C87.4161 88.4118 89.2951 88.9979 90.9266 88.9777C92.4152 88.9671 93.8118 88.4118 95.2899 87.1571C96.9118 85.7899 97.8048 83.8568 97.9381 81.8517C98.0714 79.8264 97.4355 77.7184 95.9977 76.0112C91.2038 70.3349 84.9933 69.4616 78.8239 68.5979C73.1476 67.8062 67.5116 67.0145 62.5844 62.9216ZM79.3275 65.0094C80.231 65.1324 81.124 65.2553 82.017 65.3995C81.1749 65.1218 80.3337 64.8239 79.4915 64.5357C75.5599 63.158 71.6485 61.7908 67.5221 61.9032C71.1257 63.868 75.2108 64.4329 79.317 65.0094H79.3275ZM63.673 58.7259C69.9143 57.3482 75.2933 59.2198 80.6924 61.1115C86.5749 63.1685 92.4977 65.2352 99.3548 62.3769C101.408 61.5131 102.937 59.9298 103.738 58.0678C104.539 56.2174 104.621 54.0989 103.8 52.1351C103.061 50.3567 102.075 49.2249 100.751 48.5264C99.3039 47.7655 97.3731 47.4263 94.8899 47.2918L91.153 47.0862L93.6372 44.2894C95.2898 42.4284 96.4082 40.8143 96.8907 39.2512C97.3329 37.822 97.2197 36.3208 96.4802 34.5316C95.6697 32.5779 94.0986 31.1384 92.2407 30.4083C90.3521 29.6679 88.1451 29.6371 86.0925 30.5008C78.9477 33.4828 75.5906 40.7009 72.7064 46.9017C70.2941 52.0841 68.1792 56.6391 64.2581 58.3455L63.6932 58.7365L63.673 58.7259ZM69.4107 45.3587C69.9344 44.2385 70.4687 43.0971 71.0327 41.9451C68.4564 44.6084 65.9204 48.0431 64.3703 53.9346C66.2388 52.1658 67.7476 48.9376 69.4107 45.3587ZM60.1107 56.3922L60.2853 55.5083C62.3686 45.0302 66.9476 40.7317 70.9301 36.9891C74.2977 33.8221 77.1819 31.1178 77.0994 24.5782L77.0898 24.5576H77.0994C77.0687 22.3366 76.1651 20.3314 74.7389 18.8919C73.3222 17.4626 71.3924 16.5886 69.2669 16.6194L69.2467 16.6297V16.6194C67.337 16.6503 65.9204 17.1439 64.7809 18.1207C63.5292 19.1798 62.5029 20.8558 61.4555 23.1077L59.8748 26.5009L58.201 23.1488C57.0922 20.9175 56.0151 19.2723 54.7519 18.2544C53.5817 17.3084 52.1554 16.8457 50.2256 16.8765L50.2045 16.8868V16.8765C48.1001 16.9074 46.201 17.8328 44.8255 19.2929C43.43 20.7736 42.5878 22.8096 42.6185 25.0409L42.6291 25.0614H42.6185C42.7211 32.4751 46.9712 37.1023 51.1905 41.6886C55.0598 45.9045 58.9099 50.0992 60.1309 56.3922H60.1107ZM48.5106 44.1453C47.8843 43.4564 47.2484 42.7675 46.6326 42.0787C47.1246 42.8703 47.6177 43.662 48.1001 44.4643C50.2659 48.0326 52.4326 51.5903 55.6861 54.1296C54.1467 50.2942 51.344 47.2303 48.5212 44.1559L48.5106 44.1453Z" fill="#C8AC71"/>
</svg>
