<svg width="385" height="66" viewBox="0 0 385 66" fill="none" xmlns="http://www.w3.org/2000/svg">
<path d="M8.6095 26.794C6.89722 27.0688 5.57899 27.4375 4.62613 28.081C3.75925 28.6594 3.15028 29.5269 2.76341 30.8283C2.33355 32.2599 2.54131 33.7348 3.22192 34.9711C3.9097 36.2146 5.08465 37.2123 6.57483 37.6678C11.6973 39.2295 15.8168 37.2196 19.8074 35.2747C23.2319 33.6046 26.5705 31.9779 30.5252 32.3105L31.1485 32.3611C27.1651 30.315 25.1018 26.8953 23.0241 23.4538C20.7602 19.7087 18.482 15.9275 13.5242 14.4164C12.0341 13.961 10.508 14.1345 9.24713 14.7924C8.00053 15.4359 7.01902 16.5565 6.58916 17.9808C6.20228 19.2822 6.23095 20.3377 6.63215 21.3065C7.07634 22.3693 7.96471 23.4104 9.24713 24.6034L11.1672 26.3892L8.58801 26.8013L8.6095 26.794ZM3.22909 25.9554C3.99567 25.4421 4.87688 25.0661 5.90138 24.7697C5.21361 23.9599 4.68345 23.1502 4.32523 22.2898C3.68044 20.7498 3.60879 19.1448 4.18194 17.2361C4.8124 15.1177 6.26676 13.4693 8.10083 12.5222C9.92058 11.5751 12.12 11.3148 14.2622 11.9727C17.1422 12.8475 19.2127 14.3008 20.8748 16.0432C19.6784 13.9465 18.8688 11.5317 18.8258 8.50237L18.8187 8.48791H18.8258C18.7972 6.23218 19.6497 4.17889 21.054 2.6823C22.4653 1.17125 24.4355 0.216897 26.635 0.187978L26.6493 0.180748V0.187978C28.6195 0.166288 30.124 0.672381 31.4064 1.71349C32.1229 2.29911 32.7533 3.03656 33.3336 3.93307C33.8924 3.0221 34.5014 2.26296 35.2035 1.66288C36.4573 0.585622 37.9546 0.0361495 39.932 0.00722991L39.9463 0V0.00722991C42.1314 -0.0144598 44.1231 0.882049 45.5703 2.34972C47.0103 3.81739 47.9202 5.85623 47.9489 8.11196L47.956 8.12642H47.9489C47.9632 9.52902 47.8343 10.722 47.5907 11.7631C48.522 11.0618 49.5609 10.4472 50.7358 9.94835C52.7991 9.08077 55.0129 9.10968 56.9186 9.8616C58.8387 10.6207 60.4506 12.1101 61.296 14.1562C62.0555 15.9926 62.1486 17.5976 61.6614 19.1954C61.3892 20.0847 60.945 20.945 60.336 21.8271C61.382 22.0151 62.3062 22.297 63.1158 22.7308C64.5773 23.5044 65.6448 24.7046 66.4042 26.5482C67.2496 28.5871 67.1636 30.7922 66.3469 32.7009C65.5373 34.5951 63.997 36.2074 61.9337 37.075C59.1754 38.239 56.6679 38.4487 54.2965 38.1739C56.5174 39.027 58.6381 40.3646 60.5581 42.6565C62.0053 44.3844 62.6429 46.5245 62.5068 48.585C62.3707 50.66 61.4465 52.6627 59.77 54.0869C58.2584 55.3739 56.7682 55.945 55.1132 55.9595C54.189 55.9667 53.2433 55.8004 52.2331 55.4823C52.3764 56.5451 52.3836 57.5139 52.2188 58.4321C51.9251 60.0733 51.1227 61.4615 49.611 62.7484C47.9345 64.1727 45.8282 64.7583 43.7792 64.5486C41.7374 64.339 39.7529 63.3485 38.3128 61.6277C36.4573 59.4154 35.4901 57.1524 35.0029 54.875C34.788 57.1235 34.136 59.4443 32.6888 61.8808C31.5139 63.8546 29.6798 65.1776 27.6738 65.7199C25.6463 66.2693 23.4397 66.0235 21.5268 64.8667C19.8002 63.8184 18.7614 62.5604 18.2025 60.9626C17.8873 60.0589 17.7369 59.0684 17.7082 57.9622C16.7267 58.461 15.7882 58.7936 14.8496 58.9382C13.1947 59.1913 11.6114 58.8587 9.87759 57.8176C7.96471 56.6608 6.71095 54.8027 6.23811 52.735C5.76526 50.6889 6.06616 48.4404 7.23395 46.4666C9.17548 43.1987 11.7475 41.384 14.5416 40.1766C11.9338 40.8996 9.10384 41.0876 5.83691 40.0898C3.69477 39.4392 2.01115 37.9932 1.00814 36.1857C0.00513254 34.3638 -0.302932 32.1803 0.32753 30.0692C0.900677 28.1605 1.8392 26.8591 3.21476 25.9409L3.22909 25.9554ZM20.9035 37.5594C19.8432 38.0799 18.7685 38.6005 17.6724 39.0704C18.6754 38.7668 19.6927 38.4993 20.6957 38.239C23.7621 37.4365 26.7639 36.6484 28.9992 34.8265C26.2194 34.9711 23.5901 36.2508 20.9035 37.5594ZM32.5957 34.8048L31.8005 35.6651C29.0135 38.6872 25.2236 39.6777 21.3334 40.6972C16.8413 41.8756 12.1917 43.0903 9.40474 47.7825C8.58084 49.1634 8.37308 50.7467 8.70264 52.1783C9.02504 53.5881 9.87759 54.8533 11.1743 55.6414C12.3565 56.3571 13.4096 56.5885 14.4771 56.4294C15.6306 56.2559 16.8843 55.6197 18.3673 54.6364L20.5524 53.1904L20.316 55.8149C20.1584 57.5934 20.1942 59.0105 20.5811 60.1239C20.9393 61.1506 21.6343 61.9748 22.8164 62.6905C24.1131 63.4786 25.6248 63.6377 27.0147 63.2617C28.4189 62.8785 29.7013 61.9531 30.518 60.5794C33.2691 55.9523 32.6172 51.5999 31.9724 47.2691C31.3706 43.2276 30.776 39.215 32.5885 34.8048H32.5957ZM34.4799 46.8932L34.6017 47.7246L34.6447 46.6763C34.7593 43.8783 34.874 41.1382 34.1145 38.6583C33.6632 41.4202 34.0716 44.1531 34.4799 46.9004V46.8932ZM35.3038 35.1012L35.6047 35.6651C37.4818 39.2006 37.3242 42.9384 37.1665 46.7703C36.9803 51.2384 36.7868 55.8583 40.2401 59.9793C41.2431 61.1795 42.6186 61.8736 44.0228 62.0182C45.4199 62.1628 46.8456 61.7651 47.9775 60.8035C49.0092 59.9287 49.5537 59.025 49.7328 57.9839C49.9334 56.8488 49.7543 55.4751 49.3173 53.7833L48.6725 51.2384L51.051 52.3084C52.6344 53.0242 53.9454 53.4363 55.0845 53.4218C56.1234 53.4146 57.0977 53.0242 58.1294 52.1421C59.2614 51.1805 59.8847 49.8213 59.9778 48.4115C60.0709 46.9872 59.6267 45.505 58.6237 44.3049C55.278 40.314 50.9436 39.6994 46.6378 39.0921C42.6759 38.5354 38.7427 37.9787 35.3038 35.1012ZM46.9889 36.5689C47.6193 36.6556 48.2426 36.7424 48.8659 36.8436C48.2784 36.6484 47.691 36.4387 47.1035 36.2363C44.3595 35.2675 41.6299 34.3059 38.7499 34.3854C41.2646 35.7664 44.116 36.164 46.9817 36.5689H46.9889ZM36.0632 32.1514C40.4192 31.1826 44.1733 32.4984 47.9417 33.8287C52.0469 35.2747 56.1807 36.7279 60.9665 34.718C62.3993 34.1107 63.4668 32.9973 64.0257 31.6887C64.5845 30.3873 64.6418 28.8979 64.0686 27.517C63.5528 26.2663 62.865 25.471 61.9408 24.9793C60.9307 24.4443 59.5838 24.2057 57.85 24.1117L55.2422 23.9671L56.9759 22.0006C58.1294 20.692 58.9103 19.5569 59.247 18.458C59.5551 17.453 59.4763 16.3974 58.9605 15.1394C58.3945 13.7657 57.2983 12.7536 56.0016 12.2402C54.6834 11.7197 53.143 11.698 51.7102 12.3053C46.7238 14.402 44.381 19.4774 42.3679 23.837C40.6842 27.4809 39.2084 30.6837 36.4716 31.8839L36.0776 32.1586L36.0632 32.1514ZM40.0681 22.7525C40.4335 21.9645 40.806 21.1619 41.2001 20.3522C39.4018 22.2247 37.6322 24.6395 36.5504 28.7823C37.8543 27.5387 38.9075 25.2685 40.0681 22.7525ZM33.5772 30.5102L33.699 29.8884C35.1534 22.5212 38.3487 19.4991 41.1284 16.8674C43.4783 14.6406 45.4915 12.7391 45.4342 8.14088L45.427 8.12642H45.4342C45.4127 6.56476 44.7822 5.15492 43.7864 4.14274C42.7977 3.13778 41.4508 2.52324 39.9678 2.54493L39.9535 2.55216V2.54493C38.6209 2.56662 37.6322 2.91365 36.837 3.60049C35.9629 4.34518 35.2465 5.52365 34.5157 7.107L33.4124 9.49287L32.2447 7.13592C31.4709 5.56703 30.7187 4.41024 29.8374 3.69448C29.0207 3.02933 28.0249 2.70399 26.678 2.72568L26.6636 2.73291V2.72568C25.1949 2.74737 23.8695 3.39806 22.9095 4.4247C21.9352 5.46581 21.3477 6.89733 21.3692 8.46622L21.3763 8.48068H21.3692C21.4408 13.6934 24.4069 16.9469 27.3514 20.1714C30.0524 23.1357 32.739 26.0855 33.5915 30.5102H33.5772ZM25.4815 21.8994C25.0445 21.415 24.6003 20.9306 24.1704 20.4462C24.5143 21.0029 24.8582 21.5596 25.195 22.1235C26.7066 24.6323 28.2183 27.1338 30.4894 28.9196C29.4147 26.2229 27.4589 24.0684 25.4887 21.9066L25.4815 21.8994Z" fill="#C8AC71"/>
<path d="M98.7048 9.25586L98.9796 15.0804H98.2836C98.1492 14.0547 97.9661 13.3221 97.7341 12.8825C97.3555 12.1743 96.8488 11.6553 96.2138 11.3256C95.5911 10.9837 94.7668 10.8127 93.7411 10.8127H90.2427V29.7884C90.2427 31.3148 90.4075 32.2672 90.7372 32.6458C91.2012 33.1586 91.9156 33.4151 92.8802 33.4151H93.7411V34.0928H83.2092V33.4151H84.0884C85.1385 33.4151 85.8834 33.0976 86.323 32.4626C86.5916 32.0719 86.726 31.1805 86.726 29.7884V10.8127H83.7404C82.5804 10.8127 81.7561 10.8982 81.2677 11.0692C80.6327 11.3012 80.0894 11.7469 79.6375 12.4063C79.1857 13.0656 78.9171 13.957 78.8316 15.0804H78.1356L78.4287 9.25586H98.7048ZM125.282 34.0928H118.651L110.244 22.4802C109.621 22.5047 109.115 22.5169 108.724 22.5169C108.565 22.5169 108.394 22.5169 108.211 22.5169C108.028 22.5047 107.839 22.4924 107.643 22.4802V29.6969C107.643 31.2599 107.814 32.2306 108.156 32.6092C108.62 33.1464 109.316 33.4151 110.244 33.4151H111.215V34.0928H100.573V33.4151H101.507C102.557 33.4151 103.308 33.0732 103.76 32.3894C104.017 32.0108 104.145 31.1133 104.145 29.6969V13.6518C104.145 12.0888 103.974 11.118 103.632 10.7395C103.156 10.2022 102.447 9.93356 101.507 9.93356H100.573V9.25586H109.621C112.259 9.25586 114.2 9.45123 115.446 9.84198C116.704 10.2205 117.766 10.9287 118.633 11.9667C119.512 12.9924 119.952 14.2196 119.952 15.6482C119.952 17.1746 119.451 18.4995 118.45 19.6229C117.461 20.7463 115.922 21.54 113.834 22.004L118.963 29.1291C120.135 30.7653 121.142 31.8521 121.985 32.3894C122.827 32.9266 123.926 33.2685 125.282 33.4151V34.0928ZM107.643 21.3263C107.875 21.3263 108.077 21.3324 108.248 21.3446C108.419 21.3446 108.559 21.3446 108.669 21.3446C111.038 21.3446 112.821 20.8318 114.017 19.8061C115.226 18.7803 115.831 17.4738 115.831 15.8864C115.831 14.3356 115.342 13.0779 114.365 12.1132C113.401 11.1363 112.118 10.6479 110.519 10.6479C109.811 10.6479 108.852 10.7639 107.643 10.9959V21.3263ZM142.114 25.7772H132.498L130.813 29.6969C130.398 30.6615 130.191 31.382 130.191 31.8582C130.191 32.2367 130.368 32.5725 130.722 32.8656C131.088 33.1464 131.87 33.3296 133.066 33.4151V34.0928H125.245V33.4151C126.283 33.2319 126.955 32.9938 127.26 32.7007C127.883 32.1146 128.573 30.9241 129.33 29.1291L138.067 8.68805H138.708L147.353 29.3488C148.049 31.0095 148.678 32.0902 149.24 32.5908C149.813 33.0793 150.607 33.354 151.621 33.4151V34.0928H141.821V33.4151C142.811 33.3662 143.476 33.2014 143.818 32.9205C144.172 32.6397 144.349 32.2978 144.349 31.8948C144.349 31.3575 144.105 30.5089 143.616 29.3488L142.114 25.7772ZM141.602 24.4218L137.389 14.3844L133.066 24.4218H141.602ZM173.857 9.25586V9.93356C172.977 10.0923 172.312 10.3732 171.86 10.7761C171.213 11.3744 170.639 12.2903 170.138 13.5236L161.475 34.6606H160.797L151.492 13.2488C151.016 12.1498 150.68 11.4782 150.485 11.234C150.18 10.8555 149.801 10.5624 149.349 10.3548C148.91 10.135 148.311 9.99462 147.554 9.93356V9.25586H157.702V9.93356C156.554 10.0435 155.809 10.2388 155.467 10.5197C155.125 10.8005 154.954 11.1608 154.954 11.6003C154.954 12.2109 155.235 13.1633 155.797 14.4577L162.116 29.0192L167.977 14.6409C168.551 13.2244 168.838 12.2414 168.838 11.6919C168.838 11.3378 168.661 11.002 168.307 10.6845C167.953 10.3548 167.354 10.1228 166.512 9.98851C166.451 9.9763 166.347 9.95798 166.2 9.93356V9.25586H173.857ZM182.172 10.6113V20.4288H187.631C189.047 20.4288 189.993 20.2151 190.47 19.7877C191.105 19.226 191.459 18.237 191.532 16.8205H192.21V25.4658H191.532C191.361 24.2569 191.19 23.4815 191.019 23.1396C190.799 22.7122 190.439 22.3764 189.938 22.1322C189.438 21.888 188.668 21.7659 187.631 21.7659H182.172V29.9533C182.172 31.0523 182.221 31.7239 182.319 31.9681C182.416 32.2001 182.587 32.3894 182.832 32.5359C183.076 32.6702 183.54 32.7374 184.224 32.7374H188.436C189.841 32.7374 190.86 32.6397 191.495 32.4443C192.13 32.2489 192.741 31.8643 193.327 31.2904C194.084 30.5333 194.859 29.3916 195.653 27.8652H196.386L194.243 34.0928H175.102V33.4151H175.981C176.567 33.4151 177.123 33.2746 177.648 32.9938C178.039 32.7984 178.301 32.5054 178.436 32.1146C178.582 31.7239 178.656 30.9241 178.656 29.7152V13.5785C178.656 12.0033 178.497 11.0325 178.179 10.6662C177.74 10.1778 177.007 9.93356 175.981 9.93356H175.102V9.25586H194.243L194.517 14.6958H193.803C193.547 13.3892 193.26 12.4917 192.942 12.0033C192.637 11.5149 192.179 11.1424 191.569 10.886C191.08 10.7028 190.219 10.6113 188.986 10.6113H182.172ZM218.768 27.2242L219.373 27.3524L217.248 34.0928H198.016V33.4151H198.95C200 33.4151 200.751 33.0732 201.203 32.3894C201.459 31.9986 201.588 31.095 201.588 29.6785V13.6518C201.588 12.101 201.417 11.1302 201.075 10.7395C200.598 10.2022 199.89 9.93356 198.95 9.93356H198.016V9.25586H209.262V9.93356C207.943 9.92135 207.015 10.0435 206.478 10.2999C205.953 10.5563 205.593 10.8799 205.397 11.2707C205.202 11.6614 205.104 12.5955 205.104 14.073V29.6785C205.104 30.692 205.202 31.3881 205.397 31.7666C205.544 32.023 205.77 32.2123 206.075 32.3344C206.38 32.4565 207.333 32.5176 208.932 32.5176H210.746C212.651 32.5176 213.988 32.3771 214.757 32.0963C215.526 31.8154 216.228 31.3209 216.863 30.6127C217.498 29.8922 218.133 28.7627 218.768 27.2242ZM251.206 8.68805L251.847 16.5274H251.206C250.559 14.5737 249.723 13.1023 248.697 12.1132C247.22 10.6845 245.321 9.97019 243.001 9.97019C239.838 9.97019 237.433 11.2218 235.784 13.725C234.404 15.8375 233.714 18.353 233.714 21.2714C233.714 23.6403 234.172 25.8016 235.088 27.7553C236.004 29.7091 237.201 31.1438 238.678 32.0597C240.168 32.9633 241.694 33.4151 243.257 33.4151C244.173 33.4151 245.058 33.2991 245.913 33.0671C246.768 32.8351 247.592 32.4931 248.386 32.0413V24.8614C248.386 23.6158 248.288 22.8038 248.093 22.4253C247.909 22.0345 247.616 21.7415 247.213 21.5461C246.823 21.3385 246.127 21.2347 245.125 21.2347V20.5387H254.741V21.2347H254.284C253.331 21.2347 252.678 21.5522 252.324 22.1872C252.079 22.639 251.957 23.5304 251.957 24.8614V32.4626C250.553 33.2197 249.167 33.7753 247.8 34.1294C246.432 34.4835 244.912 34.6606 243.239 34.6606C238.44 34.6606 234.795 33.122 232.304 30.0449C230.436 27.737 229.502 25.075 229.502 22.059C229.502 19.8732 230.027 17.779 231.077 15.7765C232.322 13.3953 234.032 11.5637 236.205 10.2816C238.025 9.21922 240.174 8.68805 242.653 8.68805C243.556 8.68805 244.374 8.76132 245.107 8.90785C245.852 9.05438 246.902 9.37797 248.257 9.87861C248.941 10.135 249.399 10.2633 249.631 10.2633C249.863 10.2633 250.059 10.1595 250.217 9.95188C250.388 9.73208 250.492 9.31081 250.529 8.68805H251.206ZM280.641 34.0928H274.01L265.603 22.4802C264.98 22.5047 264.474 22.5169 264.083 22.5169C263.924 22.5169 263.753 22.5169 263.57 22.5169C263.387 22.5047 263.197 22.4924 263.002 22.4802V29.6969C263.002 31.2599 263.173 32.2306 263.515 32.6092C263.979 33.1464 264.675 33.4151 265.603 33.4151H266.574V34.0928H255.932V33.4151H256.866C257.916 33.4151 258.667 33.0732 259.119 32.3894C259.375 32.0108 259.504 31.1133 259.504 29.6969V13.6518C259.504 12.0888 259.333 11.118 258.991 10.7395C258.515 10.2022 257.806 9.93356 256.866 9.93356H255.932V9.25586H264.98C267.618 9.25586 269.559 9.45123 270.805 9.84198C272.063 10.2205 273.125 10.9287 273.992 11.9667C274.871 12.9924 275.311 14.2196 275.311 15.6482C275.311 17.1746 274.81 18.4995 273.809 19.6229C272.82 20.7463 271.281 21.54 269.193 22.004L274.322 29.1291C275.494 30.7653 276.501 31.8521 277.344 32.3894C278.186 32.9266 279.285 33.2685 280.641 33.4151V34.0928ZM263.002 21.3263C263.234 21.3263 263.436 21.3324 263.607 21.3446C263.778 21.3446 263.918 21.3446 264.028 21.3446C266.397 21.3446 268.18 20.8318 269.376 19.8061C270.585 18.7803 271.19 17.4738 271.19 15.8864C271.19 14.3356 270.701 13.0779 269.724 12.1132C268.76 11.1363 267.477 10.6479 265.878 10.6479C265.17 10.6479 264.211 10.7639 263.002 10.9959V21.3263ZM297.473 25.7772H287.857L286.172 29.6969C285.757 30.6615 285.549 31.382 285.549 31.8582C285.549 32.2367 285.727 32.5725 286.081 32.8656C286.447 33.1464 287.228 33.3296 288.425 33.4151V34.0928H280.604V33.4151C281.642 33.2319 282.314 32.9938 282.619 32.7007C283.242 32.1146 283.932 30.9241 284.689 29.1291L293.426 8.68805H294.067L302.712 29.3488C303.408 31.0095 304.037 32.0902 304.598 32.5908C305.172 33.0793 305.966 33.354 306.98 33.4151V34.0928H297.18V33.4151C298.169 33.3662 298.835 33.2014 299.177 32.9205C299.531 32.6397 299.708 32.2978 299.708 31.8948C299.708 31.3575 299.464 30.5089 298.975 29.3488L297.473 25.7772ZM296.961 24.4218L292.748 14.3844L288.425 24.4218H296.961ZM306.925 9.25586H313.665L328.849 27.8835V13.5602C328.849 12.0338 328.678 11.0814 328.336 10.7028C327.885 10.19 327.17 9.93356 326.193 9.93356H325.333V9.25586H333.978V9.93356H333.099C332.049 9.93356 331.304 10.251 330.864 10.886C330.595 11.2768 330.461 12.1682 330.461 13.5602V34.4957H329.802L313.427 14.4943V29.7884C313.427 31.3148 313.592 32.2672 313.921 32.6458C314.385 33.1586 315.1 33.4151 316.064 33.4151H316.944V34.0928H308.298V33.4151H309.159C310.222 33.4151 310.973 33.0976 311.412 32.4626C311.681 32.0719 311.815 31.1805 311.815 29.7884V12.5162C311.095 11.6736 310.545 11.118 310.167 10.8494C309.8 10.5807 309.257 10.3304 308.536 10.0984C308.182 9.98851 307.645 9.93356 306.925 9.93356V9.25586ZM335.168 34.0928V33.4151H336.103C337.153 33.4151 337.898 33.0793 338.337 32.4077C338.606 32.0047 338.74 31.1011 338.74 29.6969V13.6518C338.74 12.101 338.569 11.1302 338.227 10.7395C337.751 10.2022 337.043 9.93356 336.103 9.93356H335.168V9.25586H345.279C348.991 9.25586 351.812 9.67713 353.741 10.5197C355.683 11.3622 357.24 12.7665 358.412 14.7324C359.596 16.6984 360.188 18.9696 360.188 21.5461C360.188 25.0018 359.138 27.8896 357.038 30.2097C354.681 32.7984 351.091 34.0928 346.268 34.0928H335.168ZM342.257 32.2978C343.808 32.6397 345.108 32.8106 346.158 32.8106C348.991 32.8106 351.342 31.8154 353.21 29.8251C355.078 27.8347 356.012 25.1361 356.012 21.7293C356.012 18.298 355.078 15.5933 353.21 13.6151C351.342 11.637 348.942 10.6479 346.012 10.6479C344.913 10.6479 343.661 10.825 342.257 11.1791V32.2978ZM369.475 10.6113V20.4288H374.933C376.35 20.4288 377.296 20.2151 377.772 19.7877C378.407 19.226 378.761 18.237 378.834 16.8205H379.512V25.4658H378.834C378.664 24.2569 378.493 23.4815 378.322 23.1396C378.102 22.7122 377.742 22.3764 377.241 22.1322C376.74 21.888 375.971 21.7659 374.933 21.7659H369.475V29.9533C369.475 31.0523 369.524 31.7239 369.621 31.9681C369.719 32.2001 369.89 32.3894 370.134 32.5359C370.378 32.6702 370.842 32.7374 371.526 32.7374H375.739C377.143 32.7374 378.163 32.6397 378.798 32.4443C379.433 32.2489 380.043 31.8643 380.629 31.2904C381.387 30.5333 382.162 29.3916 382.956 27.8652H383.688L381.545 34.0928H362.405V33.4151H363.284C363.87 33.4151 364.426 33.2746 364.951 32.9938C365.341 32.7984 365.604 32.5054 365.738 32.1146C365.885 31.7239 365.958 30.9241 365.958 29.7152V13.5785C365.958 12.0033 365.799 11.0325 365.482 10.6662C365.042 10.1778 364.31 9.93356 363.284 9.93356H362.405V9.25586H381.545L381.82 14.6958H381.106C380.849 13.3892 380.562 12.4917 380.245 12.0033C379.94 11.5149 379.482 11.1424 378.871 10.886C378.383 10.7028 377.522 10.6113 376.289 10.6113H369.475Z" fill="#2B2A29"/>
<path d="M84.2754 52.1397V51.8642H87.8499V52.1397H87.4701C87.0729 52.1397 86.7676 52.306 86.5541 52.6386C86.4499 52.7925 86.3978 53.15 86.3978 53.711V57.8066C86.3978 58.8194 86.296 59.6063 86.0924 60.1673C85.8939 60.7233 85.4992 61.2023 84.9084 61.6045C84.3226 62.0016 83.5233 62.2002 82.5106 62.2002C81.4085 62.2002 80.5719 62.0091 80.001 61.6268C79.4301 61.2445 79.0255 60.7307 78.7872 60.0853C78.6283 59.6435 78.5489 58.8144 78.5489 57.5981V53.6514C78.5489 53.0308 78.462 52.6237 78.2883 52.4301C78.1195 52.2365 77.844 52.1397 77.4617 52.1397H77.0819V51.8642H81.4457V52.1397H81.0585C80.6414 52.1397 80.3436 52.2713 80.1649 52.5344C80.0407 52.7131 79.9787 53.0854 79.9787 53.6514V58.0524C79.9787 58.4446 80.0134 58.8939 80.0829 59.4002C80.1574 59.9066 80.289 60.3013 80.4776 60.5843C80.6663 60.8672 80.9368 61.1006 81.2893 61.2843C81.6468 61.4679 82.0836 61.5598 82.5999 61.5598C83.2602 61.5598 83.851 61.4158 84.3722 61.1279C84.8935 60.8399 85.2485 60.4726 85.4371 60.0258C85.6307 59.574 85.7276 58.812 85.7276 57.7396V53.6514C85.7276 53.0209 85.658 52.6262 85.519 52.4673C85.3254 52.2489 85.0375 52.1397 84.6552 52.1397H84.2754ZM90.486 56.3843C91.2853 55.4212 92.0473 54.9397 92.7721 54.9397C93.1445 54.9397 93.4647 55.034 93.7328 55.2226C94.0009 55.4063 94.2143 55.7116 94.3732 56.1386C94.4824 56.4365 94.537 56.8932 94.537 57.5088V60.4204C94.537 60.8524 94.5718 61.1453 94.6413 61.2992C94.6959 61.4233 94.7828 61.5201 94.9019 61.5896C95.026 61.6591 95.2519 61.6938 95.5796 61.6938V61.9619H92.2062V61.6938H92.3477C92.6654 61.6938 92.8863 61.6467 93.0104 61.5523C93.1395 61.4531 93.2289 61.3091 93.2785 61.1204C93.2984 61.046 93.3083 60.8126 93.3083 60.4204V57.6279C93.3083 57.0074 93.2264 56.5581 93.0626 56.2801C92.9037 55.9971 92.6331 55.8556 92.2509 55.8556C91.6601 55.8556 91.0718 56.1783 90.486 56.8237V60.4204C90.486 60.8821 90.5133 61.1676 90.5679 61.2768C90.6374 61.4208 90.7317 61.5275 90.8509 61.597C90.975 61.6616 91.2232 61.6938 91.5956 61.6938V61.9619H88.2222V61.6938H88.3711C88.7187 61.6938 88.952 61.607 89.0711 61.4332C89.1952 61.2545 89.2573 60.9169 89.2573 60.4204V57.8886C89.2573 57.0694 89.2374 56.5705 89.1977 56.3918C89.163 56.213 89.1059 56.0914 89.0264 56.0269C88.952 55.9623 88.8502 55.9301 88.7211 55.9301C88.5821 55.9301 88.4158 55.9673 88.2222 56.0418L88.1105 55.7737L90.1658 54.9397H90.486V56.3843ZM97.8583 51.3727C98.0668 51.3727 98.243 51.4471 98.387 51.5961C98.5359 51.7401 98.6104 51.9163 98.6104 52.1248C98.6104 52.3333 98.5359 52.512 98.387 52.661C98.243 52.8099 98.0668 52.8844 97.8583 52.8844C97.6497 52.8844 97.471 52.8099 97.3221 52.661C97.1732 52.512 97.0987 52.3333 97.0987 52.1248C97.0987 51.9163 97.1707 51.7401 97.3146 51.5961C97.4636 51.4471 97.6448 51.3727 97.8583 51.3727ZM98.4763 54.9397V60.4204C98.4763 60.8474 98.5061 61.1328 98.5657 61.2768C98.6302 61.4158 98.7221 61.5201 98.8412 61.5896C98.9653 61.6591 99.1887 61.6938 99.5114 61.6938V61.9619H96.1976V61.6938C96.5303 61.6938 96.7537 61.6616 96.8678 61.597C96.982 61.5325 97.0714 61.4258 97.1359 61.2768C97.2054 61.1279 97.2402 60.8424 97.2402 60.4204V57.7918C97.2402 57.052 97.2178 56.573 97.1732 56.3545C97.1384 56.1957 97.0838 56.0865 97.0093 56.0269C96.9349 55.9623 96.8331 55.9301 96.704 55.9301C96.565 55.9301 96.3962 55.9673 96.1976 56.0418L96.0934 55.7737L98.1487 54.9397H98.4763ZM106.407 54.9397V63.7119C106.407 64.1488 106.437 64.4293 106.496 64.5534C106.556 64.6775 106.648 64.7743 106.772 64.8438C106.901 64.9133 107.149 64.948 107.517 64.948V65.2236H104.076V64.948H104.218C104.496 64.948 104.707 64.9083 104.851 64.8289C104.95 64.7743 105.029 64.675 105.089 64.531C105.149 64.392 105.178 64.119 105.178 63.7119V60.7779C104.727 61.314 104.332 61.6814 103.994 61.88C103.657 62.0736 103.307 62.1704 102.944 62.1704C102.284 62.1704 101.693 61.8701 101.172 61.2694C100.656 60.6687 100.398 59.8644 100.398 58.8566C100.398 57.6999 100.74 56.7591 101.425 56.0343C102.11 55.3045 102.937 54.9397 103.905 54.9397C104.188 54.9397 104.449 54.9794 104.687 55.0588C104.925 55.1382 105.139 55.2574 105.327 55.4162C105.615 55.2772 105.891 55.1184 106.154 54.9397H106.407ZM105.178 60.3087V57.1067C105.178 56.7343 105.129 56.4414 105.029 56.2279C104.935 56.0145 104.764 55.8333 104.516 55.6843C104.267 55.5354 103.987 55.4609 103.674 55.4609C103.118 55.4609 102.642 55.6967 102.244 56.1684C101.847 56.64 101.649 57.3549 101.649 58.313C101.649 59.2315 101.85 59.929 102.252 60.4056C102.659 60.8821 103.148 61.1204 103.719 61.1204C104.012 61.1204 104.272 61.0584 104.501 60.9343C104.729 60.8052 104.955 60.5967 105.178 60.3087ZM113.973 55.1407V59.2736C113.973 60.063 113.99 60.547 114.025 60.7258C114.065 60.8995 114.124 61.0211 114.204 61.0906C114.288 61.1602 114.385 61.1949 114.494 61.1949C114.648 61.1949 114.822 61.1527 115.015 61.0683L115.12 61.3289L113.079 62.1704H112.744V60.7258C112.158 61.3612 111.712 61.7609 111.404 61.9247C111.096 62.0885 110.771 62.1704 110.428 62.1704C110.046 62.1704 109.713 62.0612 109.43 61.8428C109.152 61.6194 108.959 61.3339 108.85 60.9864C108.74 60.6389 108.686 60.1474 108.686 59.5119V56.4662C108.686 56.1435 108.651 55.9201 108.582 55.796C108.512 55.6719 108.408 55.5776 108.269 55.5131C108.135 55.4436 107.889 55.4113 107.532 55.4162V55.1407H109.922V59.7056C109.922 60.341 110.031 60.758 110.25 60.9566C110.473 61.1552 110.741 61.2545 111.054 61.2545C111.267 61.2545 111.508 61.1875 111.776 61.0534C112.049 60.9194 112.372 60.6637 112.744 60.2864V56.4216C112.744 56.0343 112.672 55.7737 112.528 55.6397C112.389 55.5006 112.096 55.4262 111.65 55.4162V55.1407H113.973ZM116.765 57.7098C116.761 58.7226 117.006 59.5169 117.503 60.0928C117.999 60.6687 118.582 60.9566 119.253 60.9566C119.699 60.9566 120.087 60.835 120.414 60.5917C120.747 60.3435 121.025 59.9215 121.248 59.3258L121.479 59.4747C121.375 60.1548 121.072 60.7754 120.571 61.3364C120.069 61.8924 119.441 62.1704 118.687 62.1704C117.868 62.1704 117.165 61.8527 116.579 61.2172C115.998 60.5768 115.708 59.718 115.708 58.6407C115.708 57.474 116.006 56.5655 116.602 55.9152C117.202 55.2599 117.954 54.9322 118.858 54.9322C119.623 54.9322 120.251 55.1854 120.742 55.6918C121.234 56.1932 121.479 56.8659 121.479 57.7098H116.765ZM116.765 57.2779H119.923C119.898 56.8411 119.846 56.5333 119.766 56.3545C119.642 56.0765 119.456 55.8581 119.208 55.6992C118.965 55.5404 118.709 55.4609 118.441 55.4609C118.029 55.4609 117.659 55.6223 117.331 55.945C117.009 56.2627 116.82 56.707 116.765 57.2779ZM128.866 56.5482H133.558V53.6588C133.558 53.1425 133.526 52.8025 133.461 52.6386C133.411 52.5145 133.307 52.4078 133.148 52.3184C132.935 52.1993 132.709 52.1397 132.471 52.1397H132.113V51.8642H136.432V52.1397H136.075C135.837 52.1397 135.611 52.1968 135.397 52.311C135.238 52.3904 135.129 52.512 135.069 52.6759C135.015 52.8347 134.988 53.1624 134.988 53.6588V60.1747C134.988 60.686 135.02 61.0236 135.084 61.1875C135.134 61.3116 135.236 61.4183 135.39 61.5077C135.608 61.6268 135.837 61.6864 136.075 61.6864H136.432V61.9619H132.113V61.6864H132.471C132.883 61.6864 133.183 61.5648 133.372 61.3215C133.496 61.1626 133.558 60.7804 133.558 60.1747V57.0992H128.866V60.1747C128.866 60.686 128.899 61.0236 128.963 61.1875C129.013 61.3116 129.117 61.4183 129.276 61.5077C129.489 61.6268 129.715 61.6864 129.954 61.6864H130.318V61.9619H125.992V61.6864H126.349C126.766 61.6864 127.069 61.5648 127.258 61.3215C127.377 61.1626 127.437 60.7804 127.437 60.1747V53.6588C127.437 53.1425 127.404 52.8025 127.34 52.6386C127.29 52.5145 127.188 52.4078 127.034 52.3184C126.816 52.1993 126.588 52.1397 126.349 52.1397H125.992V51.8642H130.318V52.1397H129.954C129.715 52.1397 129.489 52.1968 129.276 52.311C129.122 52.3904 129.015 52.512 128.956 52.6759C128.896 52.8347 128.866 53.1624 128.866 53.6588V56.5482ZM140.565 54.9397C141.598 54.9397 142.427 55.3319 143.052 56.1162C143.584 56.7864 143.849 57.5559 143.849 58.4247C143.849 59.0354 143.703 59.6534 143.41 60.279C143.117 60.9045 142.712 61.3761 142.196 61.6938C141.685 62.0116 141.114 62.1704 140.483 62.1704C139.456 62.1704 138.639 61.7609 138.033 60.9417C137.522 60.2517 137.266 59.4772 137.266 58.6183C137.266 57.9928 137.42 57.3723 137.728 56.7567C138.041 56.1361 138.45 55.6794 138.957 55.3865C139.463 55.0886 139.999 54.9397 140.565 54.9397ZM140.334 55.4237C140.071 55.4237 139.806 55.5031 139.538 55.662C139.274 55.8159 139.061 56.0889 138.897 56.4811C138.733 56.8733 138.651 57.3772 138.651 57.9928C138.651 58.9857 138.847 59.8421 139.24 60.5619C139.637 61.2818 140.158 61.6417 140.803 61.6417C141.285 61.6417 141.682 61.4431 141.995 61.046C142.308 60.6488 142.464 59.9662 142.464 58.9981C142.464 57.7868 142.203 56.8336 141.682 56.1386C141.33 55.662 140.88 55.4237 140.334 55.4237ZM150.834 55.1407V59.2736C150.834 60.063 150.852 60.547 150.886 60.7258C150.926 60.8995 150.986 61.0211 151.065 61.0906C151.149 61.1602 151.246 61.1949 151.355 61.1949C151.509 61.1949 151.683 61.1527 151.877 61.0683L151.981 61.3289L149.941 62.1704H149.605V60.7258C149.02 61.3612 148.573 61.7609 148.265 61.9247C147.957 62.0885 147.632 62.1704 147.29 62.1704C146.907 62.1704 146.575 62.0612 146.292 61.8428C146.014 61.6194 145.82 61.3339 145.711 60.9864C145.602 60.6389 145.547 60.1474 145.547 59.5119V56.4662C145.547 56.1435 145.512 55.9201 145.443 55.796C145.373 55.6719 145.269 55.5776 145.13 55.5131C144.996 55.4436 144.75 55.4113 144.393 55.4162V55.1407H146.783V59.7056C146.783 60.341 146.892 60.758 147.111 60.9566C147.334 61.1552 147.602 61.2545 147.915 61.2545C148.129 61.2545 148.369 61.1875 148.637 61.0534C148.91 60.9194 149.233 60.6637 149.605 60.2864V56.4216C149.605 56.0343 149.534 55.7737 149.39 55.6397C149.251 55.5006 148.958 55.4262 148.511 55.4162V55.1407H150.834ZM156.888 54.9397V57.263H156.643C156.454 56.5333 156.211 56.0368 155.913 55.7737C155.62 55.5106 155.245 55.379 154.788 55.379C154.441 55.379 154.16 55.4709 153.947 55.6545C153.733 55.8382 153.627 56.0418 153.627 56.2652C153.627 56.5432 153.706 56.7815 153.865 56.9801C154.019 57.1836 154.332 57.3996 154.803 57.6279L155.891 58.1566C156.898 58.6481 157.402 59.296 157.402 60.1002C157.402 60.7208 157.166 61.2222 156.695 61.6045C156.228 61.9818 155.704 62.1704 155.124 62.1704C154.706 62.1704 154.23 62.096 153.694 61.947C153.53 61.8974 153.396 61.8726 153.292 61.8726C153.177 61.8726 153.088 61.9371 153.024 62.0662H152.778V59.6311H153.024C153.163 60.3261 153.428 60.8499 153.82 61.2023C154.213 61.5548 154.652 61.7311 155.138 61.7311C155.481 61.7311 155.759 61.6318 155.972 61.4332C156.191 61.2297 156.3 60.9864 156.3 60.7034C156.3 60.3609 156.178 60.0729 155.935 59.8396C155.697 59.6063 155.218 59.3109 154.498 58.9534C153.778 58.596 153.307 58.2733 153.083 57.9854C152.86 57.7024 152.748 57.3449 152.748 56.913C152.748 56.3521 152.939 55.8829 153.321 55.5056C153.709 55.1283 154.208 54.9397 154.818 54.9397C155.086 54.9397 155.411 54.9968 155.794 55.1109C156.047 55.1854 156.216 55.2226 156.3 55.2226C156.38 55.2226 156.442 55.2053 156.486 55.1705C156.531 55.1358 156.583 55.0588 156.643 54.9397H156.888ZM159.569 57.7098C159.564 58.7226 159.81 59.5169 160.306 60.0928C160.803 60.6687 161.386 60.9566 162.056 60.9566C162.503 60.9566 162.89 60.835 163.218 60.5917C163.551 60.3435 163.829 59.9215 164.052 59.3258L164.283 59.4747C164.179 60.1548 163.876 60.7754 163.374 61.3364C162.873 61.8924 162.245 62.1704 161.49 62.1704C160.671 62.1704 159.969 61.8527 159.383 61.2172C158.802 60.5768 158.512 59.718 158.512 58.6407C158.512 57.474 158.81 56.5655 159.405 55.9152C160.006 55.2599 160.758 54.9322 161.662 54.9322C162.426 54.9322 163.054 55.1854 163.546 55.6918C164.037 56.1932 164.283 56.8659 164.283 57.7098H159.569ZM159.569 57.2779H162.727C162.702 56.8411 162.65 56.5333 162.57 56.3545C162.446 56.0765 162.26 55.8581 162.012 55.6992C161.768 55.5404 161.513 55.4609 161.245 55.4609C160.833 55.4609 160.463 55.6223 160.135 55.945C159.812 56.2627 159.624 56.707 159.569 57.2779ZM169.607 54.9397V57.263H169.362C169.173 56.5333 168.93 56.0368 168.632 55.7737C168.339 55.5106 167.964 55.379 167.507 55.379C167.16 55.379 166.879 55.4709 166.666 55.6545C166.452 55.8382 166.346 56.0418 166.346 56.2652C166.346 56.5432 166.425 56.7815 166.584 56.9801C166.738 57.1836 167.051 57.3996 167.522 57.6279L168.61 58.1566C169.617 58.6481 170.121 59.296 170.121 60.1002C170.121 60.7208 169.885 61.2222 169.414 61.6045C168.947 61.9818 168.423 62.1704 167.843 62.1704C167.425 62.1704 166.949 62.096 166.413 61.947C166.249 61.8974 166.115 61.8726 166.011 61.8726C165.896 61.8726 165.807 61.9371 165.743 62.0662H165.497V59.6311H165.743C165.882 60.3261 166.147 60.8499 166.539 61.2023C166.932 61.5548 167.371 61.7311 167.857 61.7311C168.2 61.7311 168.478 61.6318 168.691 61.4332C168.91 61.2297 169.019 60.9864 169.019 60.7034C169.019 60.3609 168.897 60.0729 168.654 59.8396C168.416 59.6063 167.937 59.3109 167.217 58.9534C166.497 58.596 166.026 58.2733 165.802 57.9854C165.579 57.7024 165.467 57.3449 165.467 56.913C165.467 56.3521 165.658 55.8829 166.04 55.5056C166.428 55.1283 166.927 54.9397 167.537 54.9397C167.805 54.9397 168.13 54.9968 168.513 55.1109C168.766 55.1854 168.935 55.2226 169.019 55.2226C169.099 55.2226 169.161 55.2053 169.205 55.1705C169.25 55.1358 169.302 55.0588 169.362 54.9397H169.607ZM182.259 55.4609H185.387V55.7365C184.955 55.7712 184.635 55.868 184.426 56.0269C184.223 56.1808 183.903 56.6524 183.466 57.4418C183.029 58.2311 182.537 58.9683 181.991 59.6534C182.433 60.1697 182.828 60.5321 183.175 60.7407C183.523 60.9442 183.873 61.046 184.225 61.046C184.568 61.046 184.858 60.9541 185.097 60.7704C185.335 60.5818 185.504 60.3063 185.603 59.9439L185.878 60.1449C185.695 60.8449 185.399 61.3612 184.992 61.6938C184.585 62.0265 184.111 62.1928 183.57 62.1928C183.163 62.1928 182.748 62.0835 182.326 61.8651C181.909 61.6417 181.453 61.2669 180.956 60.7407C180.341 61.2867 179.785 61.6665 179.288 61.88C178.797 62.0885 178.27 62.1928 177.709 62.1928C176.89 62.1928 176.24 61.9743 175.758 61.5375C175.277 61.1006 175.036 60.5793 175.036 59.9736C175.036 59.3729 175.252 58.7747 175.684 58.179C176.116 57.5783 176.927 56.9577 178.119 56.3173C177.886 55.801 177.727 55.379 177.642 55.0514C177.558 54.7187 177.516 54.401 177.516 54.0982C177.516 53.2493 177.829 52.6014 178.454 52.1546C178.941 51.8071 179.494 51.6333 180.115 51.6333C180.705 51.6333 181.187 51.8096 181.559 52.162C181.932 52.5095 182.118 52.939 182.118 53.4503C182.118 53.9766 181.937 54.4382 181.574 54.8354C181.217 55.2326 180.581 55.667 179.668 56.1386C180.298 57.2606 180.956 58.2882 181.641 59.2215C182.515 58.179 182.952 57.3003 182.952 56.5854C182.952 56.357 182.877 56.1535 182.728 55.9748C182.619 55.8407 182.463 55.7613 182.259 55.7365V55.4609ZM179.415 55.6545C180.03 55.3616 180.49 55.029 180.792 54.6567C181.1 54.2843 181.254 53.8698 181.254 53.4131C181.254 53.0556 181.142 52.7603 180.919 52.5269C180.7 52.2936 180.427 52.1769 180.1 52.1769C179.668 52.1769 179.34 52.3283 179.117 52.6312C178.898 52.929 178.789 53.222 178.789 53.5099C178.789 53.7531 178.831 54.0262 178.916 54.329C179 54.6269 179.166 55.0687 179.415 55.6545ZM180.569 60.3087C179.914 59.4151 179.459 58.7623 179.206 58.3503C178.953 57.9382 178.675 57.4269 178.372 56.8162C177.776 57.1588 177.327 57.5361 177.024 57.9481C176.726 58.3602 176.577 58.807 176.577 59.2885C176.577 59.8197 176.749 60.2864 177.091 60.6885C177.434 61.0906 177.896 61.2917 178.476 61.2917C178.789 61.2917 179.09 61.2297 179.377 61.1055C179.67 60.9814 180.068 60.7158 180.569 60.3087ZM196.289 58.5811H192.379L191.694 60.1747C191.526 60.5669 191.441 60.8598 191.441 61.0534C191.441 61.2073 191.513 61.3438 191.657 61.463C191.806 61.5772 192.124 61.6516 192.61 61.6864V61.9619H189.431V61.6864C189.853 61.6119 190.126 61.5151 190.25 61.396C190.503 61.1577 190.783 60.6736 191.091 59.9439L194.643 51.6333H194.904L198.419 60.0332C198.702 60.7084 198.957 61.1477 199.186 61.3513C199.419 61.5499 199.742 61.6616 200.154 61.6864V61.9619H196.17V61.6864C196.572 61.6665 196.842 61.5995 196.982 61.4853C197.125 61.3711 197.197 61.2321 197.197 61.0683C197.197 60.8499 197.098 60.5048 196.9 60.0332L196.289 58.5811ZM196.08 58.03L194.368 53.9492L192.61 58.03H196.08ZM200.318 55.8184L202.418 54.9694H202.701V56.563C203.053 55.9623 203.406 55.5428 203.758 55.3045C204.115 55.0613 204.49 54.9397 204.882 54.9397C205.568 54.9397 206.138 55.2077 206.595 55.7439C207.156 56.3992 207.437 57.2531 207.437 58.3056C207.437 59.4822 207.099 60.4552 206.424 61.2247C205.868 61.8552 205.168 62.1704 204.324 62.1704C203.957 62.1704 203.639 62.1183 203.371 62.014C203.172 61.9396 202.949 61.7906 202.701 61.5672V63.6449C202.701 64.1115 202.728 64.4069 202.782 64.531C202.842 64.6601 202.941 64.7619 203.08 64.8363C203.224 64.9108 203.482 64.948 203.855 64.948V65.2236H200.28V64.948H200.467C200.74 64.953 200.973 64.9009 201.167 64.7917C201.261 64.7371 201.333 64.6477 201.383 64.5236C201.437 64.4044 201.464 64.0966 201.464 63.6002V57.1513C201.464 56.7095 201.445 56.429 201.405 56.3099C201.365 56.1907 201.301 56.1013 201.211 56.0418C201.127 55.9822 201.01 55.9524 200.861 55.9524C200.742 55.9524 200.591 55.9872 200.407 56.0567L200.318 55.8184ZM202.701 57.0024V59.5492C202.701 60.1002 202.723 60.4626 202.768 60.6364C202.837 60.9243 203.006 61.1775 203.274 61.396C203.547 61.6144 203.89 61.7236 204.302 61.7236C204.798 61.7236 205.2 61.53 205.508 61.1428C205.91 60.6364 206.111 59.924 206.111 59.0056C206.111 57.963 205.883 57.1613 205.426 56.6003C205.108 56.213 204.731 56.0194 204.294 56.0194C204.056 56.0194 203.82 56.079 203.587 56.1982C203.408 56.2875 203.113 56.5556 202.701 57.0024ZM212.299 60.9789C211.599 61.5201 211.16 61.8328 210.981 61.9172C210.713 62.0413 210.428 62.1034 210.125 62.1034C209.653 62.1034 209.264 61.9421 208.956 61.6194C208.653 61.2967 208.502 60.8722 208.502 60.346C208.502 60.0134 208.576 59.7254 208.725 59.4822C208.929 59.1446 209.281 58.8268 209.782 58.529C210.289 58.2311 211.128 57.8687 212.299 57.4418V57.1737C212.299 56.4935 212.19 56.0269 211.972 55.7737C211.758 55.5205 211.446 55.3939 211.033 55.3939C210.721 55.3939 210.472 55.4783 210.289 55.6471C210.1 55.8159 210.006 56.0095 210.006 56.2279L210.021 56.6599C210.021 56.8882 209.961 57.0645 209.842 57.1886C209.728 57.3127 209.576 57.3747 209.388 57.3747C209.204 57.3747 209.053 57.3102 208.933 57.1811C208.819 57.052 208.762 56.8758 208.762 56.6524C208.762 56.2255 208.981 55.8333 209.418 55.4758C209.854 55.1184 210.468 54.9397 211.257 54.9397C211.863 54.9397 212.359 55.0414 212.746 55.245C213.039 55.3989 213.255 55.6397 213.394 55.9673C213.483 56.1808 213.528 56.6177 213.528 57.2779V59.5939C213.528 60.2442 213.541 60.6438 213.565 60.7928C213.59 60.9367 213.63 61.0336 213.684 61.0832C213.744 61.1328 213.811 61.1577 213.886 61.1577C213.965 61.1577 214.034 61.1403 214.094 61.1055C214.198 61.041 214.399 60.8598 214.697 60.5619V60.9789C214.141 61.7236 213.61 62.096 213.104 62.096C212.86 62.096 212.667 62.0116 212.523 61.8428C212.379 61.674 212.304 61.386 212.299 60.9789ZM212.299 60.4949V57.896C211.55 58.1939 211.066 58.4049 210.847 58.529C210.455 58.7474 210.175 58.9758 210.006 59.2141C209.837 59.4524 209.753 59.713 209.753 59.996C209.753 60.3534 209.859 60.6513 210.073 60.8896C210.286 61.1229 210.532 61.2396 210.81 61.2396C211.187 61.2396 211.684 60.9914 212.299 60.4949ZM217.207 54.9397V56.4737C217.778 55.451 218.364 54.9397 218.964 54.9397C219.237 54.9397 219.463 55.0241 219.642 55.1928C219.821 55.3567 219.91 55.5478 219.91 55.7662C219.91 55.9599 219.845 56.1237 219.716 56.2577C219.587 56.3918 219.433 56.4588 219.255 56.4588C219.081 56.4588 218.885 56.3744 218.666 56.2056C218.453 56.0318 218.294 55.945 218.19 55.945C218.1 55.945 218.004 55.9946 217.899 56.0939C217.676 56.2974 217.445 56.6325 217.207 57.0992V60.3683C217.207 60.7456 217.254 61.0311 217.348 61.2247C217.413 61.3587 217.527 61.4704 217.691 61.5598C217.855 61.6492 218.09 61.6938 218.398 61.6938V61.9619H214.906V61.6938C215.253 61.6938 215.511 61.6392 215.68 61.53C215.804 61.4506 215.891 61.324 215.941 61.1502C215.966 61.0658 215.978 60.825 215.978 60.4279V57.7843C215.978 56.99 215.961 56.5184 215.926 56.3694C215.896 56.2155 215.837 56.1038 215.747 56.0343C215.663 55.9648 215.556 55.9301 215.427 55.9301C215.273 55.9301 215.099 55.9673 214.906 56.0418L214.831 55.7737L216.894 54.9397H217.207ZM222.271 52.8993V55.1407H223.864V55.662H222.271V60.0853C222.271 60.5272 222.333 60.825 222.457 60.9789C222.586 61.1328 222.75 61.2098 222.948 61.2098C223.112 61.2098 223.271 61.1602 223.425 61.0609C223.579 60.9566 223.698 60.8052 223.782 60.6066H224.073C223.899 61.0931 223.653 61.4605 223.335 61.7087C223.018 61.952 222.69 62.0736 222.352 62.0736C222.124 62.0736 221.901 62.0116 221.682 61.8874C221.464 61.7584 221.302 61.5772 221.198 61.3438C221.094 61.1055 221.042 60.7407 221.042 60.2492V55.662H219.962V55.4162C220.235 55.307 220.513 55.1233 220.796 54.8652C221.084 54.6021 221.34 54.2918 221.563 53.9344C221.677 53.7457 221.836 53.4007 222.04 52.8993H222.271ZM226.56 56.3918C227.056 55.8953 227.349 55.6099 227.439 55.5354C227.662 55.3467 227.903 55.2003 228.161 55.096C228.419 54.9918 228.675 54.9397 228.928 54.9397C229.355 54.9397 229.722 55.0638 230.03 55.312C230.338 55.5602 230.544 55.9201 230.648 56.3918C231.159 55.796 231.591 55.4063 231.944 55.2226C232.296 55.034 232.659 54.9397 233.031 54.9397C233.393 54.9397 233.714 55.034 233.992 55.2226C234.275 55.4063 234.498 55.7092 234.662 56.1311C234.771 56.4191 234.826 56.8708 234.826 57.4864V60.4204C234.826 60.8474 234.858 61.1403 234.923 61.2992C234.972 61.4084 235.064 61.5027 235.198 61.5821C235.332 61.6566 235.551 61.6938 235.853 61.6938V61.9619H232.487V61.6938H232.629C232.922 61.6938 233.15 61.6367 233.314 61.5226C233.428 61.4431 233.51 61.3165 233.56 61.1428C233.58 61.0584 233.59 60.8176 233.59 60.4204V57.4864C233.59 56.9304 233.523 56.5382 233.389 56.3099C233.195 55.9921 232.885 55.8333 232.458 55.8333C232.195 55.8333 231.929 55.9003 231.661 56.0343C231.398 56.1634 231.078 56.4067 230.7 56.7641L230.685 56.846L230.7 57.1662V60.4204C230.7 60.8871 230.725 61.1775 230.775 61.2917C230.829 61.4059 230.929 61.5027 231.073 61.5821C231.217 61.6566 231.462 61.6938 231.81 61.6938V61.9619H228.362V61.6938C228.739 61.6938 228.997 61.6492 229.136 61.5598C229.28 61.4704 229.38 61.3364 229.434 61.1577C229.459 61.0733 229.472 60.8275 229.472 60.4204V57.4864C229.472 56.9304 229.39 56.5308 229.226 56.2875C229.007 55.9698 228.702 55.8109 228.31 55.8109C228.042 55.8109 227.776 55.8829 227.513 56.0269C227.101 56.2453 226.783 56.4911 226.56 56.7641V60.4204C226.56 60.8672 226.59 61.1577 226.649 61.2917C226.714 61.4258 226.806 61.5275 226.925 61.597C227.049 61.6616 227.297 61.6938 227.669 61.6938V61.9619H224.296V61.6938C224.609 61.6938 224.827 61.6616 224.951 61.597C225.075 61.5275 225.17 61.4208 225.234 61.2768C225.299 61.1279 225.331 60.8424 225.331 60.4204V57.8141C225.331 57.0645 225.309 56.5804 225.264 56.362C225.229 56.1982 225.175 56.0865 225.1 56.0269C225.026 55.9623 224.924 55.9301 224.795 55.9301C224.656 55.9301 224.49 55.9673 224.296 56.0418L224.184 55.7737L226.24 54.9397H226.56V56.3918ZM237.551 57.7098C237.546 58.7226 237.792 59.5169 238.288 60.0928C238.785 60.6687 239.368 60.9566 240.038 60.9566C240.485 60.9566 240.872 60.835 241.2 60.5917C241.533 60.3435 241.811 59.9215 242.034 59.3258L242.265 59.4747C242.161 60.1548 241.858 60.7754 241.356 61.3364C240.855 61.8924 240.227 62.1704 239.472 62.1704C238.653 62.1704 237.951 61.8527 237.365 61.2172C236.784 60.5768 236.494 59.718 236.494 58.6407C236.494 57.474 236.792 56.5655 237.387 55.9152C237.988 55.2599 238.74 54.9322 239.644 54.9322C240.408 54.9322 241.036 55.1854 241.528 55.6918C242.019 56.1932 242.265 56.8659 242.265 57.7098H237.551ZM237.551 57.2779H240.709C240.684 56.8411 240.632 56.5333 240.552 56.3545C240.428 56.0765 240.242 55.8581 239.994 55.6992C239.75 55.5404 239.495 55.4609 239.227 55.4609C238.815 55.4609 238.445 55.6223 238.117 55.945C237.794 56.2627 237.606 56.707 237.551 57.2779ZM245.169 56.3843C245.968 55.4212 246.731 54.9397 247.455 54.9397C247.828 54.9397 248.148 55.034 248.416 55.2226C248.684 55.4063 248.898 55.7116 249.056 56.1386C249.166 56.4365 249.22 56.8932 249.22 57.5088V60.4204C249.22 60.8524 249.255 61.1453 249.324 61.2992C249.379 61.4233 249.466 61.5201 249.585 61.5896C249.709 61.6591 249.935 61.6938 250.263 61.6938V61.9619H246.889V61.6938H247.031C247.349 61.6938 247.57 61.6467 247.694 61.5523C247.823 61.4531 247.912 61.3091 247.962 61.1204C247.982 61.046 247.992 60.8126 247.992 60.4204V57.6279C247.992 57.0074 247.91 56.5581 247.746 56.2801C247.587 55.9971 247.316 55.8556 246.934 55.8556C246.343 55.8556 245.755 56.1783 245.169 56.8237V60.4204C245.169 60.8821 245.197 61.1676 245.251 61.2768C245.321 61.4208 245.415 61.5275 245.534 61.597C245.658 61.6616 245.906 61.6938 246.279 61.6938V61.9619H242.905V61.6938H243.054C243.402 61.6938 243.635 61.607 243.754 61.4332C243.878 61.2545 243.941 60.9169 243.941 60.4204V57.8886C243.941 57.0694 243.921 56.5705 243.881 56.3918C243.846 56.213 243.789 56.0914 243.71 56.0269C243.635 55.9623 243.533 55.9301 243.404 55.9301C243.265 55.9301 243.099 55.9673 242.905 56.0418L242.794 55.7737L244.849 54.9397H245.169V56.3843ZM252.787 52.8993V55.1407H254.381V55.662H252.787V60.0853C252.787 60.5272 252.849 60.825 252.973 60.9789C253.102 61.1328 253.266 61.2098 253.465 61.2098C253.629 61.2098 253.788 61.1602 253.941 61.0609C254.095 60.9566 254.214 60.8052 254.299 60.6066H254.589C254.416 61.0931 254.17 61.4605 253.852 61.7087C253.534 61.952 253.207 62.0736 252.869 62.0736C252.641 62.0736 252.417 62.0116 252.199 61.8874C251.98 61.7584 251.819 61.5772 251.715 61.3438C251.611 61.1055 251.558 60.7407 251.558 60.2492V55.662H250.479V55.4162C250.752 55.307 251.03 55.1233 251.313 54.8652C251.601 54.6021 251.856 54.2918 252.08 53.9344C252.194 53.7457 252.353 53.4007 252.556 52.8993H252.787ZM259.459 54.9397V57.263H259.214C259.025 56.5333 258.782 56.0368 258.484 55.7737C258.191 55.5106 257.816 55.379 257.359 55.379C257.012 55.379 256.731 55.4709 256.518 55.6545C256.305 55.8382 256.198 56.0418 256.198 56.2652C256.198 56.5432 256.277 56.7815 256.436 56.9801C256.59 57.1836 256.903 57.3996 257.374 57.6279L258.462 58.1566C259.469 58.6481 259.973 59.296 259.973 60.1002C259.973 60.7208 259.737 61.2222 259.266 61.6045C258.799 61.9818 258.275 62.1704 257.695 62.1704C257.278 62.1704 256.801 62.096 256.265 61.947C256.101 61.8974 255.967 61.8726 255.863 61.8726C255.749 61.8726 255.659 61.9371 255.595 62.0662H255.349V59.6311H255.595C255.734 60.3261 255.999 60.8499 256.391 61.2023C256.784 61.5548 257.223 61.7311 257.709 61.7311C258.052 61.7311 258.33 61.6318 258.544 61.4332C258.762 61.2297 258.871 60.9864 258.871 60.7034C258.871 60.3609 258.75 60.0729 258.506 59.8396C258.268 59.6063 257.789 59.3109 257.069 58.9534C256.349 58.596 255.878 58.2733 255.654 57.9854C255.431 57.7024 255.319 57.3449 255.319 56.913C255.319 56.3521 255.51 55.8829 255.892 55.5056C256.28 55.1283 256.779 54.9397 257.389 54.9397C257.657 54.9397 257.983 54.9968 258.365 55.1109C258.618 55.1854 258.787 55.2226 258.871 55.2226C258.951 55.2226 259.013 55.2053 259.057 55.1705C259.102 55.1358 259.154 55.0588 259.214 54.9397H259.459Z" fill="#2B2A29"/>
</svg>
