<svg width="672" height="431" viewBox="0 0 672 431" fill="none" xmlns="http://www.w3.org/2000/svg">
<rect width="324" height="240" fill="#3E3C38"/>
<rect y="204" width="146" height="36" fill="#161616"/>
<rect x="220" y="12" width="92" height="26" fill="#161616"/>
<rect y="302" width="286" height="16" fill="#3E3C38"/>
<rect y="269" width="16" height="16" fill="#3E3C38"/>
<rect x="22" y="271" width="95" height="12" fill="#3E3C38"/>
<rect y="377" width="16" height="16" fill="#3E3C38"/>
<rect x="22" y="379" width="64" height="12" fill="#3E3C38"/>
<rect x="102" y="377" width="16" height="16" fill="#3E3C38"/>
<rect x="124" y="379" width="64" height="12" fill="#3E3C38"/>
<rect x="204" y="377" width="16" height="16" fill="#3E3C38"/>
<rect x="226" y="379" width="64" height="12" fill="#3E3C38"/>
<rect y="337" width="226" height="16" fill="#3E3C38"/>
<rect x="348" width="324" height="240" fill="#3E3C38"/>
<rect x="348" y="204" width="146" height="36" fill="#161616"/>
<rect x="568" y="12" width="92" height="26" fill="#161616"/>
<rect x="348" y="302" width="286" height="16" fill="#3E3C38"/>
<rect x="348" y="269" width="16" height="16" fill="#3E3C38"/>
<rect x="370" y="271" width="95" height="12" fill="#3E3C38"/>
<rect x="348" y="377" width="16" height="16" fill="#3E3C38"/>
<rect x="370" y="379" width="64" height="12" fill="#3E3C38"/>
<rect x="450" y="377" width="16" height="16" fill="#3E3C38"/>
<rect x="472" y="379" width="64" height="12" fill="#3E3C38"/>
<rect x="552" y="377" width="16" height="16" fill="#3E3C38"/>
<rect x="574" y="379" width="64" height="12" fill="#3E3C38"/>
<rect x="348" y="337" width="226" height="16" fill="#3E3C38"/>
</svg>
