<svg xmlns="http://www.w3.org/2000/svg" version="1.1" xmlns:xlink="http://www.w3.org/1999/xlink" width="512" height="512" x="0" y="0" viewBox="0 0 512 512" xml:space="preserve"><g><path d="M510.634 207.077a8.009 8.009 0 0 0-6.631-3.518h-24.789v-32.414a8.008 8.008 0 0 0-8.008-8.008H276.465l-8.612-8.473a8.006 8.006 0 0 0-5.616-2.299h-20.021l-24.368-23.952a8.008 8.008 0 0 0-5.613-2.297h-30.969v-7.243c0-11.922-9.029-21.771-20.608-23.078V74.398c0-4.423-3.585-8.008-8.008-8.008s-8.008 3.585-8.008 8.008v21.397c-11.594 1.306-20.636 11.155-20.636 23.078v7.243h-55.97a8.007 8.007 0 0 0-4.663 14.518l30.773 22.038-44.604 77.956-6.607 1.005a8.006 8.006 0 0 0-6.552 5.926l-6.602 25.712-21.833.132a8.007 8.007 0 0 0-6.96 11.881l28.119 50.882a8.007 8.007 0 0 0 7.009 4.134h348.747a8.006 8.006 0 0 0 3.512-.811c80.043-39.06 107.127-85.083 123.063-124.952a8.003 8.003 0 0 0-.804-7.46zm-47.436-3.518H418.27v-24.406h44.929v24.406zm-105.306 0v-24.406h44.362v24.406zm-16.016-24.406v24.406h-24.417a8.017 8.017 0 0 0-.652-.734l-24.063-23.672zm-47.161 24.406h-.901c-.403 0-.806.03-1.204.091l-71.405 10.863v-46.132h37.753zm-89.526-35.178v48.569l-47.736 7.262v-55.831zm-65.168-49.507c0-3.978 3.249-7.214 7.242-7.214h10.771c3.979 0 7.215 3.236 7.215 7.214v7.243H140.02v-7.243zm68.936 23.258 10.411 10.233h-112.11L92.97 142.132zm-99.626 26.249h32.106v58.268l-71.686 10.906zm273.673 155.906H40.84l-19.313-34.948 14.525-.088h402.657c-14.609 11.97-32.773 23.713-55.705 35.036zm73.118-51.052H46.326l4.252-16.563 243.842-37.097h197.503c-7.987 17.778-18.65 35.87-35.801 53.66zm-307.768 32.924a8.008 8.008 0 0 1-8.008 8.008H57.263c-4.423 0-8.008-3.585-8.008-8.008s3.585-8.008 8.008-8.008h83.084a8.007 8.007 0 0 1 8.007 8.008zm299.31-63.978a8.008 8.008 0 0 1-8.008 8.008h-97.823c-4.423 0-8.008-3.585-8.008-8.008s3.585-8.008 8.008-8.008h97.823a8.008 8.008 0 0 1 8.008 8.008zm38.865 145.507a8.008 8.008 0 0 1-2.771 10.98c-5.415 3.233-12.673 6.943-20.802 6.943-10.945 0-20.713-6.204-30.159-12.204-7.514-4.772-15.283-9.708-21.572-9.708-6.307 0-14.078 4.938-21.594 9.714-9.438 5.997-19.196 12.198-30.139 12.198-10.96 0-20.729-6.204-30.175-12.204-7.514-4.772-15.283-9.708-21.586-9.708-6.289 0-14.059 4.935-21.573 9.708-9.446 6-19.214 12.204-30.159 12.204-10.964 0-20.733-6.208-30.183-12.211-7.505-4.769-15.266-9.7-21.55-9.7-6.303 0-14.072 4.935-21.586 9.708-9.446 6-19.215 12.204-30.175 12.204-10.945 0-20.713-6.204-30.159-12.204-7.514-4.773-15.283-9.708-21.573-9.708-6.306 0-14.077 4.938-21.592 9.713-9.438 5.997-19.197 12.198-30.14 12.198-8.129 0-15.387-3.71-20.802-6.943a8.008 8.008 0 0 1 8.21-13.751c5.346 3.192 9.347 4.679 12.591 4.679 6.284 0 14.045-4.931 21.55-9.7 9.448-6.003 19.218-12.211 30.182-12.211 10.946 0 20.714 6.204 30.16 12.204 7.514 4.772 15.283 9.708 21.572 9.708 6.304 0 14.073-4.935 21.588-9.708 9.446-6 19.214-12.204 30.173-12.204 10.942 0 20.702 6.201 30.14 12.198 7.516 4.775 15.287 9.713 21.593 9.713 6.289 0 14.059-4.935 21.573-9.708 9.446-6 19.214-12.204 30.159-12.204 10.959 0 20.727 6.204 30.173 12.204 7.515 4.773 15.284 9.708 21.588 9.708 6.284 0 14.045-4.931 21.55-9.7 9.448-6.004 19.218-12.212 30.183-12.212 10.945 0 20.713 6.204 30.159 12.204 7.514 4.772 15.283 9.708 21.572 9.708 3.244 0 7.245-1.487 12.591-4.679a8.01 8.01 0 0 1 10.983 2.771zm0 39.998a8.008 8.008 0 0 1-2.771 10.98c-5.415 3.232-12.673 6.943-20.801 6.943-10.945 0-20.713-6.204-30.159-12.204-7.514-4.772-15.283-9.708-21.572-9.708-6.307 0-14.078 4.938-21.594 9.714-9.438 5.997-19.196 12.198-30.139 12.198-10.96 0-20.729-6.204-30.175-12.204-7.514-4.772-15.283-9.708-21.586-9.708-6.289 0-14.059 4.935-21.573 9.708-9.446 6-19.214 12.204-30.159 12.204-10.964 0-20.733-6.208-30.183-12.211-7.505-4.769-15.266-9.7-21.55-9.7-6.303 0-14.072 4.935-21.586 9.708-9.446 6-19.215 12.204-30.175 12.204-10.945 0-20.713-6.204-30.159-12.204-7.514-4.773-15.283-9.708-21.573-9.708-6.306 0-14.077 4.938-21.592 9.713-9.438 5.997-19.197 12.198-30.14 12.198-8.128 0-15.386-3.71-20.801-6.943a8.007 8.007 0 0 1-2.771-10.98 8.006 8.006 0 0 1 10.98-2.771c5.348 3.192 9.349 4.679 12.592 4.679 6.284 0 14.045-4.931 21.55-9.7 9.448-6.003 19.218-12.211 30.182-12.211 10.946 0 20.714 6.204 30.16 12.204 7.514 4.772 15.283 9.708 21.572 9.708 6.304 0 14.073-4.935 21.588-9.708 9.446-6 19.214-12.204 30.173-12.204 10.942 0 20.702 6.201 30.14 12.198 7.516 4.775 15.287 9.713 21.593 9.713 6.289 0 14.059-4.935 21.573-9.708 9.446-6 19.214-12.204 30.159-12.204 10.959 0 20.727 6.204 30.173 12.204 7.515 4.773 15.284 9.708 21.588 9.708 6.284 0 14.045-4.931 21.55-9.7 9.448-6.004 19.218-12.212 30.183-12.212 10.945 0 20.713 6.204 30.159 12.204 7.514 4.772 15.283 9.708 21.572 9.708 3.243 0 7.244-1.487 12.592-4.679a8.006 8.006 0 0 1 10.98 2.771z" fill="#fff"></path></g></svg>