<svg xmlns="http://www.w3.org/2000/svg" viewBox="1.1200000047683716 1.127516508102417 63.7599983215332 63.752479553222656"><g><path d="M62.07 49.22c.48 0 .88-.39.88-.88v-2.39H64c.48 0 .88-.39.88-.88V40.8c0-.11-.02-.21-.06-.31-.01-.03-.03-.05-.04-.08a.567.567 0 0 0-.12-.18c-.03-.03-.06-.05-.09-.08-.03-.02-.05-.05-.08-.07l-14.56-9.43a.863.863 0 0 0-.95 0l-14.56 9.43c-.03.02-.05.05-.08.07-.03.03-.06.05-.09.08a.94.94 0 0 0-.12.18c-.01.03-.03.05-.04.08-.04.1-.06.2-.06.31v4.27c0 .48.39.88.88.88h1.05v2.39c0 .48.39.88.88.88h.43v6.38h-.43c-.48 0-.88.39-.88.88v2.39h-1.05c-.48 0-.88.39-.88.88V64c0 .48.39.88.88.88H64c.48 0 .88-.39.88-.88v-4.26c0-.48-.39-.88-.88-.88h-1.05v-2.39c0-.48-.39-.88-.88-.88h-.43v-6.38h.43zm-.87-1.75h-4.41v-1.51h4.42v1.51zm-5.3 8.13c-.48 0-.88.39-.88.88v2.39H53.4v-2.39c0-.48-.39-.88-.88-.88h-.43v-6.38h.43c.48 0 .88-.39.88-.88v-2.39h1.63v2.39c0 .48.39.88.88.88h.43v6.38zm-12.05 3.26v-2.39c0-.48-.39-.88-.88-.88h-.43v-6.38h.43c.48 0 .88-.39.88-.88v-2.39h1.63v2.39c0 .48.39.88.88.88h.43v6.38h-.43c-.48 0-.88.39-.88.88v2.39zm6.49-3.26h-1.8v-6.38h1.8zm1.31-8.13h-4.41v-1.51h4.42v1.51zm-4.42 9.88h4.41v1.51h-4.42v-1.51zm2.21-24.92 11.6 7.51h-23.2zm-13.68 9.26h27.37v2.51H35.76zm6.34 4.26v1.51h-4.41v-1.51zm-3.11 3.27h1.8v6.38h-1.8zm-1.3 8.13h4.41v1.51h-4.42v-1.51zm25.43 5.77H35.76v-2.51h27.37v2.51zm-6.34-4.26v-1.51h4.41v1.51zm3.11-3.26h-1.8v-6.38h1.8zM31.93 11.11c-.01-.03-.03-.05-.04-.07a.567.567 0 0 0-.12-.18c-.03-.03-.06-.05-.09-.08-.03-.02-.05-.05-.08-.07L17.04 1.27a.863.863 0 0 0-.95 0L1.53 10.7c-.03.02-.05.05-.08.07-.03.03-.06.05-.09.08a.94.94 0 0 0-.12.18c-.01.03-.03.05-.04.07-.04.1-.06.2-.06.31v4.27c0 .48.39.88.88.88h1.05v2.39c0 .48.39.88.88.88h.43v6.38h-.45c-.48 0-.88.39-.88.88v2.39H2c-.48 0-.88.39-.88.88v4.26c0 .48.39.88.88.88h29.12c.48 0 .88-.39.88-.88v-4.26c0-.48-.39-.88-.88-.88h-1.05v-2.39c0-.48-.39-.88-.88-.88h-.43v-6.38h.43c.48 0 .88-.39.88-.88v-2.39h1.05c.48 0 .88-.39.88-.88v-4.27c-.01-.1-.03-.2-.07-.3zM16.56 3.04l11.6 7.51H4.96zM12.6 16.57v2.39c0 .48.39.88.88.88h.43v6.38h-.43c-.48 0-.88.39-.88.88v2.39h-1.63V27.1c0-.48-.39-.88-.88-.88h-.43v-6.38h.43c.48 0 .88-.39.88-.88v-2.39zm9.55 0v2.39c0 .48.39.88.88.88h.43v6.38h-.43c-.48 0-.88.39-.88.88v2.39h-1.63V27.1c0-.48-.39-.88-.88-.88h-.43v-6.38h.43c.48 0 .88-.39.88-.88v-2.39zm-6.49 3.26h1.8v6.38h-1.8zm-1.31 8.13h4.41v1.51h-4.42v-1.51zm4.42-9.88h-4.41v-1.51h4.42v1.51zm-9.55 0H4.8v-1.51h4.42zm-3.11 1.75h1.8v6.38h-1.8zM4.8 27.96h4.41v1.51H4.8zm25.44 5.78H2.88v-2.51h27.37v2.51zm-6.34-4.26v-1.51h4.41v1.51zm3.11-3.27h-1.8v-6.38h1.8zm1.3-8.13H23.9v-1.51h4.42v1.51zm1.93-3.26H2.88v-2.51h27.37v2.51zM44.05 23.1c-.63 0-1.14-.51-1.14-1.13 0-.48-.39-.88-.88-.88s-.88.39-.88.88c0 1.28.85 2.36 2.01 2.73v.32c0 .48.39.88.88.88s.88-.39.88-.88v-.32a2.876 2.876 0 0 0 2.01-2.73c0-1.59-1.29-2.89-2.89-2.89a1.14 1.14 0 1 1 1.14-1.14c0 .48.39.88.88.88s.88-.39.88-.88c0-1.28-.85-2.36-2.01-2.74v-.32c0-.48-.39-.88-.88-.88s-.88.39-.88.88v.32a2.879 2.879 0 0 0-2.01 2.74c0 1.59 1.29 2.89 2.89 2.89.63 0 1.14.51 1.14 1.14s-.52 1.13-1.14 1.13zM40.7 20.21c0-.48-.39-.88-.88-.88h-.83c-.48 0-.88.39-.88.88s.39.88.88.88h.83c.49-.01.88-.4.88-.88zM48.27 21.08h.83c.48 0 .88-.39.88-.88s-.39-.88-.88-.88h-.83c-.48 0-.88.39-.88.88s.39.88.88.88z" fill="#fff"></path><path d="M44.05 28.53c4.73 0 8.58-3.85 8.58-8.58s-3.85-8.58-8.58-8.58-8.58 3.85-8.58 8.58 3.85 8.58 8.58 8.58zm0-15.4c3.76 0 6.83 3.06 6.83 6.83s-3.06 6.83-6.83 6.83-6.83-3.06-6.83-6.83 3.06-6.83 6.83-6.83zM21.95 42.9c.63 0 1.14.51 1.14 1.14 0 .48.39.88.88.88s.88-.39.88-.88c0-1.28-.85-2.36-2.01-2.74v-.32c0-.48-.39-.88-.88-.88s-.88.39-.88.88v.32a2.879 2.879 0 0 0-2.01 2.74c0 1.59 1.29 2.89 2.89 2.89.63 0 1.14.51 1.14 1.13s-.51 1.14-1.14 1.14-1.14-.51-1.14-1.14c0-.48-.39-.88-.88-.88s-.88.39-.88.88c0 1.28.85 2.36 2.01 2.74v.32c0 .48.39.88.88.88s.88-.39.88-.88v-.32a2.879 2.879 0 0 0 2.01-2.74c0-1.59-1.29-2.88-2.89-2.88a1.14 1.14 0 1 1 0-2.28zM17.73 45.43h-.83c-.48 0-.88.39-.88.88s.39.88.88.88h.83c.48 0 .88-.39.88-.88s-.39-.88-.88-.88zM25.3 46.3c0 .48.39.88.88.88h.83c.48 0 .88-.39.88-.88s-.39-.88-.88-.88h-.83c-.49.01-.88.4-.88.88z" fill="#fff"></path><path d="M21.95 37.47c-4.73 0-8.58 3.85-8.58 8.58s3.85 8.58 8.58 8.58 8.58-3.85 8.58-8.58-3.85-8.58-8.58-8.58zm0 15.41c-3.76 0-6.83-3.06-6.83-6.83s3.06-6.83 6.83-6.83 6.83 3.06 6.83 6.83-3.06 6.83-6.83 6.83z" fill="#fff"></path><path d="M22.9 56.88a.871.871 0 1 0-1.45.97l1.31 1.94C12.99 57.99 5.35 50.07 4 40.16c-.07-.48-.5-.8-.99-.75-.48.07-.81.51-.75.99 1.46 10.72 9.75 19.27 20.33 21.15L20.44 63c-.4.27-.51.81-.24 1.21.17.25.45.39.73.39.17 0 .34-.05.49-.15l3.8-2.56c.19-.13.33-.33.37-.56s0-.46-.13-.66zM43.46 9.1c.17.25.44.38.72.38.17 0 .34-.05.49-.15.4-.27.5-.82.23-1.22l-1.26-1.85c9.58 1.96 17.03 9.8 18.36 19.58.06.44.44.76.87.76.04 0 .08 0 .12-.01.48-.07.81-.51.75-.99-1.46-10.63-9.64-19.13-20.1-21.11l2.24-1.52c.4-.27.5-.82.23-1.22s-.82-.5-1.22-.23L41.11 4.1c-.4.27-.5.82-.23 1.22z" fill="#fff"></path></g></svg>