<svg width="114" height="73" viewBox="0 0 114 73" fill="none" xmlns="http://www.w3.org/2000/svg">
<g opacity="0.7">
<mask id="mask0_1_137" style="mask-type:luminance" maskUnits="userSpaceOnUse" x="42" y="21" width="30" height="31">
<path d="M72 21.5H42V51.5H72V21.5Z" fill="white"/>
</mask>
<g mask="url(#mask0_1_137)">
<path d="M47 42.75V49H44.5V25.25H68.4225C68.5321 25.2498 68.6397 25.2784 68.7347 25.333C68.8298 25.3875 68.9088 25.4661 68.9638 25.5608C69.0189 25.6555 69.0481 25.763 69.0485 25.8726C69.049 25.9821 69.0206 26.0899 68.9662 26.185L64.5 34L68.9662 41.815C69.0206 41.9101 69.049 42.0179 69.0485 42.1274C69.0481 42.237 69.0189 42.3445 68.9638 42.4392C68.9088 42.5339 68.8298 42.6125 68.7347 42.667C68.6397 42.7216 68.5321 42.7502 68.4225 42.75H47ZM47 27.75V40.25H65.1925L61.62 34L65.1925 27.75H47Z" fill="#F9F5E9" stroke="#161616" stroke-width="0.5"/>
</g>
<mask id="mask1_1_137" style="mask-type:luminance" maskUnits="userSpaceOnUse" x="75" y="0" width="39" height="73">
<path d="M75.938 0.5H113.938V72.5H75.938V0.5Z" fill="white"/>
</mask>
<g mask="url(#mask1_1_137)">
<path fill-rule="evenodd" clip-rule="evenodd" d="M85.1455 66.1899C85.3533 66.188 85.5718 66.2014 85.8039 66.232C85.8631 66.2416 85.9243 66.2512 85.9826 66.2617C86.0428 66.2703 86.1001 66.2809 86.1622 66.2904C86.2826 66.3134 86.4098 66.3422 86.536 66.3757C87.0458 66.5117 87.6042 66.7339 88.1625 66.9877C88.7092 67.2242 89.2608 67.4905 89.756 67.7424C90.2493 67.9923 90.6882 68.2318 90.997 68.3927C91.3057 68.5555 91.4922 68.6599 91.4922 68.6599C91.4922 68.6599 91.4436 68.6771 91.3465 68.7135C91.2523 68.7441 91.1174 68.7968 90.9445 68.8437C90.5969 68.9414 90.1094 69.0688 89.5579 69.178C89.419 69.2058 89.2802 69.2364 89.1326 69.2575C88.984 69.2786 88.8325 69.2948 88.682 69.3111C88.3771 69.3427 88.0664 69.3667 87.7547 69.3743C87.1381 69.4002 86.5157 69.3236 85.9816 69.178C84.9135 68.8916 84.1891 68.2432 83.7395 67.704C83.287 67.162 83.0947 66.7061 83.0947 66.7061C83.0947 66.7061 83.4608 66.4724 84.0706 66.3326C84.3745 66.2607 84.7328 66.1899 85.1455 66.1899Z" fill="#F9F5E9"/>
<path fill-rule="evenodd" clip-rule="evenodd" d="M83.5091 61.9987C83.7586 61.608 84.0878 61.2661 84.4286 60.9309C84.5976 60.7642 84.7743 60.6129 84.954 60.4712C85.0453 60.3993 85.1326 60.3323 85.2162 60.2672C85.2997 60.1972 85.3841 60.1302 85.4667 60.067C85.7959 59.8161 86.0969 59.615 86.3144 59.4799C86.5319 59.3334 86.6649 59.2529 86.6649 59.2529C86.6649 59.2529 86.6669 59.4426 86.6543 59.7548C86.6465 60.0737 86.6125 60.4941 86.5436 60.9778C86.4736 61.4605 86.3659 62.0016 86.2105 62.5303C86.0503 63.0417 85.8357 63.5397 85.5735 63.9525C85.5104 64.0559 85.4414 64.1536 85.3705 64.2446C85.3366 64.2915 85.2997 64.3337 85.2618 64.3768C85.2249 64.417 85.189 64.4563 85.1511 64.4946C84.9977 64.6459 84.8375 64.7752 84.6763 64.8853C84.516 64.9964 84.3558 65.0893 84.1985 65.164C84.0431 65.2378 83.8907 65.3039 83.746 65.3422C83.1653 65.504 82.742 65.4763 82.742 65.4763C82.742 65.4763 82.675 64.9869 82.7449 64.3126C82.7798 63.9745 82.8449 63.5905 82.9672 63.1978C82.9973 63.1001 83.0304 62.9996 83.0702 62.9019C83.1042 62.8004 83.144 62.6979 83.1906 62.5964C83.2809 62.3952 83.3838 62.1922 83.5091 61.9987Z" fill="#F9F5E9"/>
<path fill-rule="evenodd" clip-rule="evenodd" d="M91.7754 63.1588C91.8114 63.1243 91.8667 63.0802 91.9337 63.0208C92.0726 62.9021 92.2784 62.745 92.5464 62.5956C92.6833 62.519 92.8309 62.4462 93.0009 62.3792C93.1679 62.3112 93.3553 62.2518 93.5485 62.1905C93.9408 62.0775 94.4011 62.0066 94.9381 62.0171C95.209 62.0229 95.4867 62.0373 95.778 62.065C96.0674 62.0928 96.3674 62.134 96.6675 62.1828C96.9714 62.2307 97.2773 62.2882 97.5735 62.3437C97.8628 62.4022 98.1512 62.4596 98.4241 62.5142C98.9679 62.6282 99.4514 62.7374 99.7961 62.8197C100.147 62.903 100.354 62.9586 100.354 62.9586C100.354 62.9586 100.176 63.0802 99.8709 63.2679C99.7233 63.3618 99.5388 63.47 99.332 63.5878C99.231 63.6462 99.1203 63.7075 99.0048 63.7698C98.8892 63.8301 98.7659 63.8885 98.6387 63.9479C98.3843 64.0657 98.1124 64.1835 97.8318 64.2965C97.689 64.3502 97.5492 64.4038 97.4026 64.4555C97.3297 64.4823 97.2579 64.5082 97.185 64.5312C97.1112 64.5513 97.0365 64.5733 96.9607 64.5944C96.3616 64.7563 95.7537 64.8626 95.2032 64.8607C94.0758 64.829 93.2096 64.4134 92.6241 64.0102C92.3318 63.8138 92.1036 63.6079 91.9512 63.4576C91.7997 63.3082 91.7211 63.2105 91.7211 63.2105C91.7211 63.2105 91.7395 63.1923 91.7754 63.1588Z" fill="#F9F5E9"/>
<path fill-rule="evenodd" clip-rule="evenodd" d="M93.3289 59.9265C93.1881 60.3795 92.9706 60.7549 92.7288 61.0547C92.6104 61.2098 92.4783 61.3343 92.3462 61.4416C92.2152 61.5508 92.0812 61.6437 91.9539 61.7232C91.7015 61.8812 91.4704 61.9808 91.3053 62.0421C91.2228 62.0746 91.1499 62.09 91.1053 62.1015C91.0538 62.1129 91.0295 62.1177 91.0295 62.1177C91.0295 62.1177 90.9781 62.0038 90.9149 61.8093C90.8499 61.613 90.7703 61.3362 90.7071 60.9982C90.577 60.3239 90.5207 59.439 90.7887 58.5732C90.913 58.1288 91.1247 57.6997 91.3723 57.3061C91.6102 56.9048 91.8734 56.5236 92.1316 56.2085C92.2627 56.0534 92.3754 55.8973 92.4851 55.7642C92.5919 55.6291 92.6939 55.5142 92.7784 55.4184C92.9463 55.2269 93.058 55.1187 93.058 55.1187C93.058 55.1187 93.1134 55.3006 93.1862 55.6013C93.259 55.9011 93.3503 56.3263 93.4231 56.81C93.4581 57.0542 93.494 57.3166 93.5144 57.5819C93.5299 57.8434 93.5387 58.1135 93.5338 58.3826C93.5299 58.6527 93.5144 58.9237 93.4814 59.1861C93.4464 59.4457 93.4037 59.7023 93.3289 59.9265Z" fill="#F9F5E9"/>
<path fill-rule="evenodd" clip-rule="evenodd" d="M99.4952 57.102C99.5971 56.9574 99.7418 56.7496 99.9574 56.5331C100.171 56.3167 100.453 56.0916 100.805 55.8819C101.147 55.6674 101.567 55.4758 102.085 55.3436C102.257 55.2986 102.442 55.2613 102.628 55.2239C102.813 55.1856 103.004 55.154 103.202 55.1234C104.177 54.9788 105.283 54.9242 106.116 54.8724C106.959 54.8265 107.562 54.8169 107.562 54.8169C107.562 54.8169 107.356 55.0707 107.005 55.4471C106.665 55.8273 106.14 56.2966 105.558 56.7525C105.467 56.8224 105.376 56.8885 105.286 56.9574C105.239 56.9909 105.193 57.0235 105.144 57.0589C105.096 57.0905 105.047 57.1202 104.998 57.1528C104.801 57.2763 104.6 57.3961 104.396 57.5043C104.194 57.6135 103.99 57.7131 103.783 57.7964C103.579 57.8826 103.38 57.9582 103.171 58.0071C102.081 58.2743 101.131 58.1086 100.449 57.874C99.7603 57.6336 99.3447 57.3405 99.3447 57.3405C99.3447 57.3405 99.3922 57.2486 99.4952 57.102Z" fill="#F9F5E9"/>
<path fill-rule="evenodd" clip-rule="evenodd" d="M99.1354 55.8512C98.9382 56.0705 98.7518 56.2324 98.6042 56.3301C98.4576 56.4287 98.3605 56.4728 98.3605 56.4728C98.3605 56.4728 98.0342 56.0935 97.7225 55.4882C97.404 54.8762 97.0836 54.0334 97.0904 53.1351C97.0865 52.8028 97.1234 52.457 97.1914 52.1247C97.2244 51.96 97.2681 51.7952 97.3157 51.6324C97.3632 51.4753 97.403 51.3087 97.4545 51.1536C97.539 50.8835 97.6342 50.6287 97.7283 50.4008C97.7536 50.3443 97.7788 50.2887 97.8002 50.2332C97.8245 50.1786 97.8429 50.1259 97.8653 50.0723C97.906 49.9679 97.9449 49.8721 97.9837 49.784C98.1371 49.4306 98.2546 49.2161 98.2546 49.2161C98.2546 49.2161 98.5527 49.6605 98.9004 50.3347C98.9887 50.5033 99.08 50.6843 99.1694 50.8796C99.213 50.9764 99.2577 51.0779 99.3004 51.1765C99.3441 51.2771 99.381 51.3796 99.4238 51.484C99.5791 51.8977 99.718 52.3431 99.8112 52.7836C99.85 52.9541 99.8782 53.1217 99.9005 53.2864C99.9209 53.4502 99.9268 53.6082 99.9268 53.7605C99.9268 54.2384 99.8277 54.6531 99.6859 55.0075C99.5335 55.3551 99.3296 55.6319 99.1354 55.8512Z" fill="#F9F5E9"/>
<path fill-rule="evenodd" clip-rule="evenodd" d="M106.751 49.9132C106.54 49.9228 106.342 49.9199 106.157 49.9084C105.427 49.8615 104.943 49.6901 104.943 49.6901C104.943 49.6901 104.961 49.5876 105.017 49.419C105.043 49.3357 105.083 49.238 105.13 49.126C105.173 49.0101 105.228 48.8865 105.297 48.7544C105.44 48.4881 105.635 48.1941 105.918 47.9029C105.983 47.8369 106.055 47.765 106.135 47.6827C106.211 47.608 106.295 47.5352 106.382 47.4624C106.558 47.3178 106.758 47.177 106.984 47.0429C107.212 46.9107 107.463 46.7843 107.734 46.6627C107.989 46.5382 108.266 46.4204 108.545 46.3045C109.103 46.0766 109.689 45.8687 110.221 45.6906C110.744 45.5086 111.204 45.3535 111.543 45.2462C111.88 45.138 112.087 45.0776 112.087 45.0776C112.087 45.0776 112.01 45.2721 111.863 45.5843C111.79 45.7413 111.702 45.931 111.591 46.1331C111.475 46.3371 111.345 46.5564 111.2 46.7881C111.056 47.0199 110.894 47.2593 110.724 47.4997C110.681 47.5582 110.637 47.6185 110.591 47.6769C110.546 47.7334 110.499 47.7909 110.448 47.8512C110.352 47.9671 110.251 48.0801 110.149 48.1903C109.942 48.4144 109.727 48.626 109.507 48.8157C109.396 48.9133 109.286 49.0034 109.169 49.0867C109.051 49.1671 108.932 49.2438 108.811 49.3127C108.331 49.5876 107.849 49.7475 107.4 49.8347C107.174 49.8797 106.956 49.9017 106.751 49.9132Z" fill="#F9F5E9"/>
<path fill-rule="evenodd" clip-rule="evenodd" d="M104.581 47.3618C104.535 47.7306 104.428 48.0543 104.306 48.3177C104.245 48.4498 104.18 48.5657 104.118 48.6663C104.055 48.7668 103.986 48.8502 103.932 48.9153C103.82 49.0494 103.741 49.1174 103.741 49.1174C103.741 49.1174 103.316 48.8396 102.837 48.3397C102.718 48.2161 102.597 48.0782 102.474 47.9279C102.346 47.7737 102.223 47.608 102.107 47.4327C101.875 47.0803 101.668 46.6847 101.537 46.2518C101.503 46.1427 101.479 46.0335 101.452 45.9205C101.424 45.8075 101.402 45.6925 101.382 45.5786C101.345 45.3477 101.32 45.115 101.314 44.8852C101.306 44.4293 101.298 43.9715 101.332 43.5759C101.348 43.3767 101.368 43.19 101.39 43.0243C101.404 42.8557 101.419 42.7063 101.437 42.5837C101.465 42.3338 101.495 42.1863 101.495 42.1863C101.495 42.1863 101.645 42.3098 101.879 42.5272C102.113 42.7437 102.433 43.0549 102.774 43.4304C103.103 43.801 103.448 44.2358 103.747 44.6965C103.9 44.9273 104.04 45.1639 104.164 45.4023C104.282 45.636 104.373 45.8707 104.445 46.1015C104.515 46.3285 104.557 46.5506 104.581 46.7604C104.593 46.8667 104.6 46.9701 104.6 47.0697C104.6 47.1205 104.6 47.1703 104.598 47.2182C104.593 47.2651 104.588 47.313 104.581 47.3618Z" fill="#F9F5E9"/>
<path fill-rule="evenodd" clip-rule="evenodd" d="M111.003 40.4183C110.796 40.561 110.587 40.6788 110.379 40.7784C109.964 40.9757 109.559 41.0945 109.205 41.1663C108.493 41.309 107.979 41.2688 107.979 41.2688C107.979 41.2688 107.919 40.8531 108.053 40.2756C108.082 40.1281 108.138 39.9739 108.188 39.8102C108.24 39.6445 108.309 39.4721 108.398 39.2968C108.485 39.1196 108.597 38.9367 108.73 38.7538C108.797 38.6618 108.868 38.5689 108.947 38.477C108.987 38.431 109.028 38.385 109.071 38.3372C109.11 38.2912 109.152 38.2462 109.198 38.1983C109.896 37.4551 111.026 36.6918 111.917 36.0721C112.369 35.7647 112.779 35.5004 113.077 35.3098C113.375 35.1201 113.562 35.01 113.562 35.01C113.562 35.01 113.536 35.2159 113.477 35.555C113.417 35.894 113.328 36.3614 113.189 36.8785C113.029 37.3967 112.824 37.9636 112.569 38.4971C112.508 38.6302 112.435 38.7605 112.357 38.8888C112.281 39.0143 112.202 39.1407 112.121 39.2595C111.956 39.4989 111.78 39.723 111.592 39.9145C111.4 40.1099 111.212 40.2775 111.003 40.4183Z" fill="#F9F5E9"/>
<path fill-rule="evenodd" clip-rule="evenodd" d="M106.659 41.0245C106.659 41.0245 106.168 40.8646 105.562 40.5054C105.254 40.3244 104.921 40.0965 104.603 39.8187C104.444 39.678 104.29 39.5266 104.144 39.3619C103.992 39.1953 103.845 39.0171 103.717 38.8246C103.587 38.6321 103.475 38.4252 103.376 38.2136C103.277 38.0029 103.207 37.7864 103.121 37.5652C102.959 37.1266 102.851 36.686 102.774 36.2962C102.677 35.9007 102.62 35.5549 102.585 35.3078C102.552 35.0588 102.542 34.9094 102.542 34.9094C102.542 34.9094 102.718 34.9908 103.003 35.1402C103.287 35.2925 103.674 35.5099 104.105 35.7848C104.53 36.0597 105.008 36.3929 105.414 36.7598C105.828 37.1266 106.208 37.5298 106.485 37.9378C106.627 38.1389 106.717 38.341 106.798 38.5383C106.873 38.7346 106.925 38.9281 106.96 39.1148C106.995 39.2997 107.014 39.4778 107.016 39.6444C107.022 39.8101 106.995 39.9672 106.973 40.108C106.873 40.675 106.659 41.0245 106.659 41.0245Z" fill="#F9F5E9"/>
<path fill-rule="evenodd" clip-rule="evenodd" d="M112.121 27.852C112.087 28.0723 112.046 28.2935 111.997 28.51C111.892 28.9419 111.769 29.3509 111.566 29.71C111.308 30.1841 110.988 30.5624 110.651 30.8612C110.313 31.1591 109.969 31.3784 109.642 31.5402C108.992 31.8668 108.485 31.9626 108.485 31.9626C108.485 31.9626 108.442 31.8678 108.4 31.6983C108.359 31.5259 108.292 31.2845 108.266 30.9905C108.238 30.6936 108.244 30.345 108.322 29.9571C108.39 29.5702 108.513 29.1469 108.756 28.6929C108.836 28.5435 108.928 28.3864 109.028 28.2303C109.076 28.1547 109.128 28.0752 109.181 27.9947C109.232 27.9181 109.284 27.8357 109.336 27.7582C109.606 27.3645 109.909 26.9661 110.216 26.5859C110.521 26.2057 110.83 25.8408 111.088 25.5314C111.613 24.907 112.01 24.4731 112.01 24.4731C112.01 24.4731 112.071 24.7921 112.134 25.2882C112.172 25.5372 112.185 25.8341 112.194 26.1559C112.203 26.4777 112.203 26.8282 112.188 27.1854C112.182 27.4028 112.153 27.6289 112.121 27.852Z" fill="#F9F5E9"/>
<path fill-rule="evenodd" clip-rule="evenodd" d="M103.683 30.7366C103.618 30.683 103.557 30.6246 103.496 30.5652C103.433 30.5048 103.368 30.4435 103.308 30.3803C103.182 30.2568 103.07 30.1246 102.961 29.9886C102.855 29.8545 102.753 29.7157 102.658 29.5749C102.558 29.4255 102.468 29.2856 102.381 29.1554C102.224 28.9169 102.088 28.6784 101.97 28.4601C101.911 28.3499 101.858 28.2427 101.809 28.144C101.765 28.0425 101.707 27.9515 101.664 27.8653C101.487 27.5244 101.397 27.2993 101.397 27.2993C101.397 27.2993 101.943 27.3846 102.711 27.5886C102.899 27.6384 103.109 27.6949 103.313 27.7648C103.52 27.8309 103.735 27.9075 103.951 27.9908C104.384 28.1565 104.826 28.3547 105.237 28.5817C105.558 28.7551 105.828 28.9524 106.073 29.1583C106.445 29.4753 106.712 29.8229 106.887 30.161C107.053 30.501 107.14 30.8305 107.18 31.1139C107.219 31.4003 107.226 31.6388 107.198 31.8093C107.177 31.9788 107.146 32.0774 107.146 32.0774C107.146 32.0774 106.631 32.0525 105.948 31.8658C105.265 31.6809 104.381 31.3438 103.683 30.7366Z" fill="#F9F5E9"/>
<path fill-rule="evenodd" clip-rule="evenodd" d="M108.002 21.2552C107.76 21.6335 107.484 21.94 107.223 22.1833C106.7 22.6669 106.242 22.8949 106.242 22.8949C106.242 22.8949 106.173 22.8135 106.077 22.665C105.979 22.5146 105.865 22.2905 105.751 22.0147C105.632 21.7398 105.533 21.4056 105.487 21.0129C105.464 20.8204 105.464 20.6069 105.464 20.3875C105.465 20.1663 105.488 19.9326 105.533 19.6846C105.579 19.4356 105.647 19.1731 105.727 18.905C105.768 18.7709 105.814 18.633 105.86 18.497C105.908 18.3629 105.952 18.2259 106 18.089C106.192 17.5431 106.419 16.9924 106.631 16.4992C106.739 16.2549 106.84 16.0222 106.932 15.8115C107.025 15.6046 107.107 15.4198 107.177 15.2656C107.316 14.9534 107.403 14.7676 107.403 14.7676C107.403 14.7676 107.506 14.9534 107.655 15.2656C107.735 15.4179 107.81 15.6113 107.896 15.8249C107.979 16.0423 108.068 16.2827 108.153 16.5375C108.194 16.6648 108.236 16.798 108.279 16.932C108.318 17.0671 108.359 17.204 108.39 17.3487C108.453 17.6312 108.506 17.9271 108.546 18.2183C108.585 18.5104 108.612 18.8025 108.612 19.0841C108.607 19.3723 108.58 19.651 108.53 19.9106C108.427 20.4325 108.236 20.8788 108.002 21.2552Z" fill="#F9F5E9"/>
<path fill-rule="evenodd" clip-rule="evenodd" d="M100.646 22.6562C100.439 22.5317 100.236 22.3919 100.049 22.2473C99.8593 22.0998 99.6855 21.9475 99.5185 21.7952C99.3505 21.6458 99.1815 21.4983 99.0368 21.3547C98.8883 21.211 98.7562 21.0721 98.6387 20.9476C98.5804 20.8825 98.5251 20.8222 98.4746 20.7676C98.4231 20.712 98.3746 20.6622 98.3319 20.6153C98.1532 20.4276 98.0571 20.3098 98.0571 20.3098C98.0571 20.3098 98.2542 20.2858 98.5834 20.2657C98.9096 20.2446 99.3738 20.2217 99.8826 20.2408C100.392 20.2571 100.969 20.3031 101.533 20.395C101.677 20.4199 101.819 20.4448 101.958 20.4735C102.093 20.5071 102.226 20.5406 102.357 20.5789C102.618 20.6536 102.869 20.7436 103.097 20.8471C103.325 20.9476 103.529 21.0635 103.709 21.189C103.893 21.3135 104.038 21.4543 104.172 21.5922C104.432 21.8737 104.616 22.163 104.746 22.4254C104.87 22.6869 104.923 22.9244 104.954 23.091C104.987 23.2596 104.988 23.3611 104.988 23.3611C104.988 23.3611 104.487 23.476 103.774 23.4789C103.416 23.4827 103.011 23.4578 102.585 23.3841C102.15 23.3142 101.699 23.1954 101.266 23.0029C101.053 22.9043 100.848 22.7874 100.646 22.6562Z" fill="#F9F5E9"/>
<path fill-rule="evenodd" clip-rule="evenodd" d="M102.898 13.0992C102.775 13.5234 102.598 13.8883 102.417 14.1872C102.054 14.7829 101.681 15.1181 101.681 15.1181C101.681 15.1181 101.314 14.8825 100.947 14.4036C100.853 14.2829 100.761 14.1479 100.674 13.9947C100.585 13.8472 100.492 13.6824 100.414 13.5033C100.255 13.1432 100.138 12.7094 100.09 12.2047C100.034 11.7057 100.045 11.1368 100.086 10.5554C100.131 9.9674 100.183 9.39181 100.246 8.8641C100.312 8.33735 100.38 7.87093 100.429 7.53285C100.483 7.19956 100.515 6.99365 100.515 6.99365C100.515 6.99365 100.556 7.02813 100.62 7.10283C100.683 7.17658 100.776 7.28193 100.888 7.41697C101.114 7.68609 101.419 8.06439 101.732 8.50878C102.029 8.96753 102.335 9.49237 102.58 10.0277C102.817 10.5746 102.983 11.1435 103.038 11.6645C103.052 11.7967 103.058 11.9231 103.058 12.0495C103.058 12.175 103.047 12.2995 103.034 12.4201C103.007 12.6615 102.959 12.8885 102.898 13.0992Z" fill="#F9F5E9"/>
<path fill-rule="evenodd" clip-rule="evenodd" d="M96.2047 16.319C96.0892 16.2826 95.9775 16.2414 95.862 16.1964C95.8076 16.1753 95.7522 16.1533 95.6959 16.1303C95.6377 16.1063 95.5833 16.0862 95.526 16.0642C95.0725 15.8851 94.6589 15.6648 94.2986 15.458C93.9267 15.2655 93.6208 15.072 93.4043 14.9322C93.2955 14.8594 93.2101 14.799 93.1538 14.7598C93.0906 14.7196 93.0586 14.6994 93.0586 14.6994C93.0586 14.6994 93.1052 14.6822 93.1907 14.6487C93.2781 14.6161 93.4004 14.573 93.5529 14.5251C93.8578 14.4265 94.2918 14.2972 94.7929 14.1794C95.0453 14.121 95.3114 14.0645 95.5901 14.0166C95.728 13.9936 95.8697 13.9697 96.0096 13.9505C96.1504 13.9342 96.2912 13.9199 96.431 13.9084C96.9971 13.8614 97.5642 13.8633 98.0682 13.9428C98.5644 14.0252 98.9702 14.1976 99.3082 14.3939C99.4781 14.4935 99.6315 14.5998 99.7607 14.7119C99.8908 14.8249 99.9986 14.9417 100.093 15.0519C100.474 15.5001 100.604 15.8842 100.604 15.8842C100.604 15.8842 100.151 16.1245 99.4596 16.3123C99.1149 16.408 98.7119 16.4904 98.2789 16.5297C97.8438 16.5708 97.3933 16.5555 96.9126 16.4875C96.6708 16.4502 96.4359 16.3908 96.2047 16.319Z" fill="#F9F5E9"/>
<path fill-rule="evenodd" clip-rule="evenodd" d="M94.8911 8.23386C94.8008 8.42349 94.7377 8.52884 94.7377 8.52884C94.7377 8.52884 94.7105 8.52118 94.6648 8.50011C94.6173 8.48287 94.5503 8.45605 94.4658 8.41583C94.2978 8.34017 94.0686 8.2195 93.821 8.03657C93.3365 7.66018 92.7383 7.1047 92.3567 6.14984C92.2266 5.83667 92.1081 5.49284 92.0081 5.12507C91.8809 4.66824 91.776 4.18171 91.6847 3.70859C91.5886 3.24697 91.5051 2.79588 91.4371 2.39746C91.3031 1.60446 91.2303 1.03174 91.2303 1.03174C91.2303 1.03174 91.5177 1.20317 91.9469 1.49911C92.1586 1.64373 92.4082 1.82282 92.6713 2.0249C92.9286 2.23752 93.1996 2.47504 93.4656 2.72883C93.6307 2.8859 93.7899 3.04776 93.9453 3.21536C93.9832 3.25654 94.024 3.29773 94.0618 3.34082C94.0968 3.38392 94.1337 3.42798 94.1706 3.47395C94.2405 3.56397 94.3094 3.654 94.3794 3.74498C94.6474 4.10605 94.8746 4.48148 95.0309 4.85212C95.1358 5.09155 95.2009 5.34535 95.2465 5.58095C95.2902 5.81847 95.3125 6.04737 95.3154 6.2686C95.3251 6.7082 95.2611 7.10278 95.1727 7.43799C95.0863 7.77319 94.9785 8.04327 94.8911 8.23386Z" fill="#F9F5E9"/>
<path fill-rule="evenodd" clip-rule="evenodd" d="M88.4492 10.9673C88.1579 10.9118 87.884 10.8448 87.6326 10.7796C87.3791 10.7231 87.149 10.6628 86.9567 10.6082C86.5751 10.4971 86.3391 10.4061 86.3391 10.4061C86.3391 10.4061 86.7732 10.0805 87.4413 9.68399C87.7724 9.4867 88.1647 9.27025 88.5929 9.07009C89.0124 8.87471 89.46 8.70136 89.9086 8.56824C90.2543 8.46672 90.6 8.38723 90.9263 8.35275C91.9216 8.26464 92.7072 8.54621 93.1946 8.8862C93.4442 9.05093 93.6277 9.21662 93.751 9.34112C93.8122 9.40146 93.8578 9.45414 93.887 9.48957C93.9161 9.52884 93.9297 9.54895 93.9297 9.54895C93.9297 9.54895 93.8404 9.6361 93.6733 9.76731C93.5063 9.90044 93.2616 10.0786 92.9577 10.2596C92.6538 10.4444 92.2906 10.6302 91.8876 10.7835C91.6847 10.8582 91.471 10.9281 91.2506 10.9798C91.0302 11.0344 90.8039 11.0708 90.5612 11.1024C89.8572 11.1886 89.127 11.0756 88.4492 10.9673Z" fill="#F9F5E9"/>
<path fill-rule="evenodd" clip-rule="evenodd" d="M78.0518 66.9236C78.2431 66.8996 78.48 66.8718 78.747 66.8402C78.883 66.8201 79.0267 66.8115 79.1762 66.7837C79.3248 66.7579 79.4821 66.7301 79.6452 66.7023C79.9744 66.6468 80.3298 66.5874 80.7075 66.5232C81.0804 66.4418 81.4727 66.3556 81.8776 66.2694C82.0835 66.2215 82.2913 66.1832 82.4972 66.1277C82.703 66.0712 82.9118 66.0156 83.1235 65.9582C83.5439 65.8423 83.976 65.7398 84.3946 65.5952C86.0968 65.0933 87.7242 64.399 88.9244 63.8464C89.2186 63.7018 89.4944 63.5686 89.7342 63.4527C89.8566 63.3943 89.9673 63.3388 90.0712 63.2871C90.1751 63.2353 90.2673 63.1817 90.3518 63.1376C90.6907 62.9528 90.881 62.8465 90.881 62.8465C90.881 62.8465 91.0733 62.7431 91.4132 62.5582C91.7482 62.3676 92.2113 62.0746 92.7726 61.7355C93.8728 61.022 95.3148 60.0222 96.6305 58.8834C97.9521 57.7485 99.1659 56.5092 100.02 55.5371C100.133 55.4203 100.227 55.2986 100.323 55.1847C100.418 55.0707 100.505 54.9653 100.589 54.8629C100.757 54.6617 100.904 54.4846 101.024 54.338C101.147 54.1953 101.23 54.0727 101.29 53.9933C101.351 53.9109 101.385 53.8697 101.385 53.8697C101.385 53.8697 101.512 53.6983 101.738 53.3956C101.849 53.2453 101.993 53.0662 102.14 52.8497C102.286 52.6333 102.453 52.3881 102.631 52.1218C102.723 51.9897 102.817 51.8508 102.912 51.7062C103.011 51.5616 103.097 51.4074 103.194 51.2513C103.387 50.9352 103.585 50.6029 103.792 50.26C103.98 49.9066 104.178 49.5427 104.378 49.174C104.43 49.0801 104.479 48.9872 104.53 48.8953C104.575 48.7985 104.618 48.7028 104.666 48.6079C104.757 48.4164 104.848 48.2239 104.942 48.0304C105.663 46.4885 106.26 44.8929 106.601 43.6661C106.648 43.5138 106.69 43.3672 106.733 43.2293C106.774 43.0905 106.816 42.9593 106.842 42.8347C106.902 42.5838 106.959 42.3635 107 42.1835C107.088 41.8234 107.14 41.6175 107.14 41.6175C107.14 41.6175 107.152 41.5658 107.177 41.469C107.198 41.3752 107.223 41.2296 107.258 41.0467C107.292 40.8657 107.333 40.6463 107.379 40.3916C107.426 40.1397 107.491 39.8543 107.525 39.5382C107.568 39.2241 107.614 38.8841 107.661 38.524C107.673 38.4349 107.688 38.343 107.697 38.2511C107.71 38.1591 107.715 38.0653 107.724 37.9685C107.736 37.7799 107.755 37.5845 107.769 37.3872C107.853 36.599 107.853 35.7533 107.879 34.9095C107.853 34.0639 107.853 33.2191 107.769 32.43C107.755 32.2336 107.736 32.0392 107.724 31.8496C107.715 31.7538 107.71 31.66 107.697 31.568C107.688 31.4751 107.673 31.3832 107.661 31.2932C107.614 30.934 107.568 30.5921 107.525 30.2789C107.491 29.9629 107.426 29.6803 107.379 29.4256C107.333 29.1727 107.292 28.9525 107.258 28.7705C107.223 28.5895 107.198 28.4439 107.177 28.3481C107.152 28.2514 107.14 28.1997 107.14 28.1997C107.14 28.1997 107.088 27.9947 107 27.6346C106.959 27.4546 106.902 27.2362 106.842 26.9853C106.816 26.8598 106.774 26.7267 106.733 26.5888C106.69 26.449 106.648 26.3043 106.601 26.1511C106.26 24.9262 105.663 23.3306 104.942 21.7867C104.848 21.5961 104.757 21.4008 104.666 21.2102C104.618 21.1135 104.575 21.0206 104.53 20.9238C104.479 20.8309 104.43 20.738 104.378 20.6432C104.178 20.2735 103.98 19.9096 103.792 19.5581C103.585 19.2152 103.387 18.8829 103.194 18.5678C103.097 18.4127 103.011 18.2556 102.912 18.1119C102.817 17.9673 102.723 17.8294 102.631 17.6953C102.453 17.4291 102.286 17.1839 102.14 16.9684C101.993 16.752 101.849 16.5738 101.738 16.4225C101.512 16.1208 101.385 15.9494 101.385 15.9494C101.385 15.9494 101.351 15.9063 101.29 15.8249C101.23 15.7454 101.147 15.6228 101.024 15.4801C100.904 15.3345 100.757 15.1583 100.589 14.9553C100.505 14.8537 100.418 14.7465 100.323 14.6306C100.227 14.5195 100.133 14.3979 100.02 14.2801C99.1659 13.3099 97.9521 12.0696 96.6305 10.9337C95.3148 9.79501 93.8728 8.79705 92.7726 8.08067C92.2113 7.7426 91.7482 7.44953 91.4132 7.26086C91.0733 7.07602 90.881 6.96971 90.881 6.96971C90.881 6.96971 90.6907 6.86532 90.3518 6.68047C90.2673 6.63546 90.1751 6.58566 90.0712 6.52915C89.9673 6.47935 89.8566 6.4238 89.7342 6.36538C89.6527 6.32516 89.5692 6.28493 89.4818 6.24375C89.475 6.24375 89.4682 6.24375 89.4604 6.24375C89.2458 6.26195 88.9419 6.27152 88.5855 6.25237C87.866 6.22076 86.9357 6.07423 86.1162 5.63176C85.6918 5.41723 85.2918 5.12608 84.9442 4.81099C84.7742 4.652 84.5975 4.49302 84.4334 4.33499C84.2712 4.17697 84.1227 4.01799 83.9857 3.86475C83.7255 3.55636 83.4818 3.29011 83.3225 3.0909C83.1652 2.8917 83.0759 2.76623 83.0759 2.76623C83.0759 2.76623 83.273 2.75761 83.5993 2.75523C83.9255 2.75283 84.3839 2.7624 84.9005 2.80263C85.0306 2.81412 85.1646 2.8237 85.2996 2.83998C85.4336 2.85626 85.5695 2.87446 85.7054 2.89649C85.9793 2.93767 86.2589 2.99034 86.5357 3.05451C87.0863 3.1838 87.6446 3.35045 88.0718 3.58701C88.5088 3.82069 88.8448 4.10418 89.1011 4.39437C89.3468 4.6884 89.5002 4.99295 89.6119 5.26208C89.7148 5.53024 89.7702 5.76584 89.7906 5.93632C89.7964 5.96888 89.7974 5.99953 89.7993 6.02826C89.8314 6.04454 89.8634 6.06178 89.8964 6.07423C90.0168 6.13553 90.1304 6.19012 90.2372 6.24088C90.3392 6.29834 90.4344 6.34814 90.5208 6.39603C90.8597 6.58087 91.0539 6.68814 91.0539 6.68814C91.0539 6.68814 91.25 6.79349 91.5918 6.97928C91.9268 7.17083 92.3958 7.46581 92.9658 7.81059C94.0777 8.53081 95.5323 9.54025 96.8636 10.6914C98.1968 11.8369 99.4213 13.0896 100.287 14.0703C100.4 14.1891 100.494 14.3145 100.589 14.4266C100.687 14.5415 100.776 14.6497 100.859 14.7532C101.029 14.9572 101.178 15.1353 101.298 15.2828C101.423 15.4274 101.506 15.551 101.569 15.6314C101.629 15.7119 101.663 15.7559 101.663 15.7559C101.663 15.7559 101.793 15.9302 102.022 16.2329C102.133 16.388 102.278 16.5681 102.428 16.7855C102.577 17.0048 102.742 17.2519 102.923 17.5201C103.017 17.6551 103.109 17.7949 103.208 17.9405C103.304 18.0861 103.394 18.2451 103.494 18.4021C103.683 18.7182 103.888 19.0553 104.096 19.4029C104.288 19.7573 104.487 20.1251 104.687 20.5005C104.738 20.5944 104.789 20.6882 104.841 20.7821C104.885 20.8769 104.933 20.9736 104.977 21.0704C105.07 21.2648 105.163 21.4601 105.254 21.6546C105.986 23.2128 106.591 24.8247 106.932 26.062C106.981 26.2162 107.023 26.3628 107.064 26.5045C107.107 26.6463 107.152 26.7765 107.178 26.9048C107.239 27.1567 107.294 27.3789 107.336 27.5609C107.426 27.9229 107.477 28.1317 107.477 28.1317C107.477 28.1317 107.49 28.1844 107.513 28.2811C107.537 28.3788 107.56 28.5244 107.596 28.7073C107.629 28.8912 107.673 29.1153 107.72 29.371C107.765 29.6267 107.831 29.914 107.867 30.232C107.91 30.55 107.957 30.8938 108.004 31.2568C108.015 31.3487 108.03 31.4406 108.041 31.5326C108.053 31.6284 108.058 31.7232 108.067 31.818C108.082 32.0095 108.096 32.204 108.113 32.408C108.197 33.2019 108.197 34.0552 108.227 34.9095C108.197 35.7629 108.197 36.6153 108.113 37.413C108.096 37.6123 108.082 37.8067 108.067 38.0011C108.058 38.0969 108.053 38.1917 108.041 38.2827C108.03 38.3765 108.015 38.4713 108.004 38.5614C107.957 38.9234 107.91 39.2701 107.867 39.5871C107.831 39.9031 107.765 40.1914 107.72 40.4481C107.673 40.7038 107.629 40.925 107.596 41.1099C107.56 41.2938 107.537 41.4384 107.513 41.537C107.49 41.6338 107.477 41.6864 107.477 41.6864C107.477 41.6864 107.426 41.8933 107.336 42.2563C107.294 42.4392 107.239 42.6614 107.178 42.9123C107.152 43.0397 107.107 43.1738 107.064 43.3127C107.023 43.4544 106.981 43.6019 106.932 43.7561C106.591 44.9935 105.986 46.6044 105.254 48.1655C105.163 48.358 105.07 48.5533 104.977 48.7468C104.933 48.8445 104.885 48.9403 104.841 49.036C104.789 49.128 104.738 49.2247 104.687 49.3186C104.487 49.6911 104.288 50.0599 104.096 50.4152C103.888 50.7619 103.683 51.098 103.494 51.416C103.394 51.5731 103.304 51.7311 103.208 51.8767C103.109 52.0213 103.017 52.164 102.923 52.2981C102.742 52.5672 102.577 52.8143 102.428 53.0326C102.278 53.2501 102.133 53.4311 102.022 53.5843C101.793 53.8879 101.663 54.0622 101.663 54.0622C101.663 54.0622 101.629 54.1063 101.569 54.1877C101.506 54.2681 101.423 54.3907 101.298 54.5353C101.178 54.6819 101.029 54.861 100.859 55.0669C100.776 55.1684 100.687 55.2766 100.589 55.3915C100.494 55.5026 100.4 55.6291 100.287 55.7469C99.4213 56.7295 98.1968 57.9812 96.8636 59.1267C95.5323 60.276 94.0777 61.2854 92.9658 62.0085C92.3958 62.3523 91.9268 62.6463 91.5918 62.8388C91.25 63.0256 91.0539 63.13 91.0539 63.13C91.0539 63.13 90.8597 63.2382 90.5208 63.4221C90.4344 63.469 90.3392 63.5207 90.2372 63.5763C90.1304 63.628 90.0168 63.6826 89.8964 63.741C89.6527 63.8598 89.3779 63.9948 89.0769 64.1404C87.864 64.6978 86.2191 65.3988 84.5004 65.9064C84.078 66.052 83.642 66.1545 83.2147 66.2723C83.005 66.3307 82.7923 66.3882 82.5836 66.4437C82.3777 66.5012 82.167 66.5386 81.9611 66.5864C81.5504 66.6755 81.1523 66.7617 80.7765 66.845C80.3968 66.9082 80.0366 66.9686 79.7045 67.0251C79.5384 67.0529 79.3811 67.0816 79.2306 67.1065C79.0772 67.1352 78.9325 67.1458 78.7975 67.1649C78.5247 67.1975 78.2877 67.2243 78.0916 67.2492C77.7032 67.2971 77.4798 67.3239 77.4798 67.3239L77.4439 66.9963C77.4439 66.9963 77.6663 66.9705 78.0518 66.9236Z" fill="#F9F5E9"/>
<path fill-rule="evenodd" clip-rule="evenodd" d="M81.8779 66.6037C81.8779 66.6037 77.1869 67.7836 76.1323 72.0455L76.2644 67.0241L81.5653 66.3374L81.8779 66.6037Z" fill="#F9F5E9"/>
</g>
<mask id="mask2_1_137" style="mask-type:luminance" maskUnits="userSpaceOnUse" x="0" y="0" width="39" height="73">
<path d="M38.0625 0.5H0.0625V72.5H38.0625V0.5Z" fill="white"/>
</mask>
<g mask="url(#mask2_1_137)">
<path fill-rule="evenodd" clip-rule="evenodd" d="M28.8554 66.1899C28.6476 66.188 28.4292 66.2014 28.1971 66.232C28.1379 66.2416 28.0767 66.2512 28.0184 66.2617C27.9582 66.2703 27.9009 66.2809 27.8388 66.2904C27.7184 66.3134 27.5912 66.3422 27.4649 66.3757C26.9551 66.5117 26.3968 66.7339 25.8385 66.9877C25.2918 67.2242 24.7402 67.4905 24.245 67.7424C23.7517 67.9923 23.3128 68.2318 23.004 68.3927C22.6952 68.5555 22.5088 68.6599 22.5088 68.6599C22.5088 68.6599 22.5573 68.6771 22.6544 68.7135C22.7486 68.7441 22.8836 68.7968 23.0565 68.8437C23.4041 68.9414 23.8915 69.0688 24.4431 69.178C24.5819 69.2058 24.7208 69.2364 24.8684 69.2575C25.017 69.2786 25.1684 69.2948 25.319 69.3111C25.6239 69.3427 25.9346 69.3667 26.2463 69.3743C26.8629 69.4002 27.4853 69.3236 28.0194 69.178C29.0875 68.8916 29.8119 68.2432 30.2615 67.704C30.714 67.162 30.9063 66.7061 30.9063 66.7061C30.9063 66.7061 30.5402 66.4724 29.9304 66.3326C29.6264 66.2607 29.2681 66.1899 28.8554 66.1899Z" fill="#F9F5E9"/>
<path fill-rule="evenodd" clip-rule="evenodd" d="M30.4919 61.9987C30.2423 61.608 29.9132 61.2661 29.5723 60.9309C29.4034 60.7642 29.2266 60.6129 29.047 60.4712C28.9557 60.3993 28.8683 60.3323 28.7848 60.2672C28.7013 60.1972 28.6168 60.1302 28.5343 60.067C28.2051 59.8161 27.9041 59.615 27.6866 59.4799C27.4691 59.3334 27.336 59.2529 27.336 59.2529C27.336 59.2529 27.3341 59.4426 27.3467 59.7548C27.3545 60.0737 27.3885 60.4941 27.4574 60.9778C27.5273 61.4605 27.6351 62.0016 27.7905 62.5303C27.9507 63.0417 28.1653 63.5397 28.4275 63.9525C28.4906 64.0559 28.5595 64.1536 28.6304 64.2446C28.6644 64.2915 28.7013 64.3337 28.7392 64.3768C28.7761 64.417 28.812 64.4563 28.8499 64.4946C29.0033 64.6459 29.1635 64.7752 29.3247 64.8853C29.4849 64.9964 29.6452 65.0893 29.8025 65.164C29.9578 65.2378 30.1103 65.3039 30.255 65.3422C30.8356 65.504 31.259 65.4763 31.259 65.4763C31.259 65.4763 31.326 64.9869 31.2561 64.3126C31.2211 63.9745 31.1561 63.5905 31.0337 63.1978C31.0036 63.1001 30.9706 62.9996 30.9308 62.9019C30.8968 62.8004 30.857 62.6979 30.8104 62.5964C30.7201 62.3952 30.6172 62.1922 30.4919 61.9987Z" fill="#F9F5E9"/>
<path fill-rule="evenodd" clip-rule="evenodd" d="M22.2255 63.1588C22.1896 63.1243 22.1343 63.0802 22.0673 63.0208C21.9284 62.9021 21.7225 62.745 21.4545 62.5956C21.3176 62.519 21.17 62.4462 21.0001 62.3792C20.8331 62.3112 20.6457 62.2518 20.4524 62.1905C20.0601 62.0775 19.5999 62.0066 19.0629 62.0171C18.792 62.0229 18.5143 62.0373 18.223 62.065C17.9336 62.0928 17.6335 62.134 17.3335 62.1828C17.0296 62.2307 16.7237 62.2882 16.4275 62.3437C16.1381 62.4022 15.8498 62.4596 15.5769 62.5142C15.0331 62.6282 14.5495 62.7374 14.2048 62.8197C13.8543 62.903 13.6465 62.9586 13.6465 62.9586C13.6465 62.9586 13.8252 63.0802 14.1301 63.2679C14.2777 63.3618 14.4622 63.47 14.669 63.5878C14.77 63.6462 14.8807 63.7075 14.9962 63.7698C15.1118 63.8301 15.2351 63.8885 15.3623 63.9479C15.6167 64.0657 15.8886 64.1835 16.1692 64.2965C16.312 64.3502 16.4518 64.4038 16.5984 64.4555C16.6712 64.4823 16.7431 64.5082 16.8159 64.5312C16.8897 64.5513 16.9645 64.5733 17.0402 64.5944C17.6394 64.7563 18.2472 64.8626 18.7978 64.8607C19.9252 64.829 20.7913 64.4134 21.3769 64.0102C21.6691 63.8138 21.8973 63.6079 22.0498 63.4576C22.2013 63.3082 22.2799 63.2105 22.2799 63.2105C22.2799 63.2105 22.2615 63.1923 22.2255 63.1588Z" fill="#F9F5E9"/>
<path fill-rule="evenodd" clip-rule="evenodd" d="M20.6721 59.9265C20.8129 60.3795 21.0304 60.7549 21.2721 61.0547C21.3906 61.2098 21.5227 61.3343 21.6547 61.4416C21.7858 61.5508 21.9198 61.6437 22.047 61.7232C22.2995 61.8812 22.5306 61.9808 22.6957 62.0421C22.7782 62.0746 22.851 62.09 22.8957 62.1015C22.9472 62.1129 22.9715 62.1177 22.9715 62.1177C22.9715 62.1177 23.0229 62.0038 23.086 61.8093C23.1511 61.613 23.2307 61.3362 23.2938 60.9982C23.424 60.3239 23.4803 59.439 23.2123 58.5732C23.088 58.1288 22.8763 57.6997 22.6287 57.3061C22.3908 56.9048 22.1276 56.5236 21.8693 56.2085C21.7382 56.0534 21.6256 55.8973 21.5159 55.7642C21.4091 55.6291 21.3071 55.5142 21.2226 55.4184C21.0546 55.2269 20.943 55.1187 20.943 55.1187C20.943 55.1187 20.8876 55.3006 20.8148 55.6013C20.742 55.9011 20.6507 56.3263 20.5779 56.81C20.5429 57.0542 20.507 57.3166 20.4866 57.5819C20.471 57.8434 20.4623 58.1135 20.4672 58.3826C20.471 58.6527 20.4866 58.9237 20.5196 59.1861C20.5546 59.4457 20.5973 59.7023 20.6721 59.9265Z" fill="#F9F5E9"/>
<path fill-rule="evenodd" clip-rule="evenodd" d="M14.5058 57.102C14.4038 56.9574 14.2592 56.7496 14.0436 56.5331C13.83 56.3167 13.5484 56.0916 13.1959 55.8819C12.8541 55.6674 12.4336 55.4758 11.9161 55.3436C11.7442 55.2986 11.5587 55.2613 11.3733 55.2239C11.1878 55.1856 10.9975 55.154 10.7994 55.1234C9.82447 54.9788 8.71749 54.9242 7.88532 54.8724C7.04149 54.8265 6.43945 54.8169 6.43945 54.8169C6.43945 54.8169 6.64531 55.0707 6.99585 55.4471C7.33571 55.8273 7.86104 56.2966 8.44269 56.7525C8.53397 56.8224 8.62524 56.8885 8.71458 56.9574C8.76216 56.9909 8.8078 57.0235 8.85732 57.0589C8.9049 57.0905 8.95442 57.1202 9.00297 57.1528C9.20009 57.2763 9.4011 57.3961 9.60501 57.5043C9.80699 57.6135 10.0109 57.7131 10.2177 57.7964C10.4217 57.8826 10.6207 57.9582 10.8305 58.0071C11.92 58.2743 12.8696 58.1086 13.5523 57.874C14.2407 57.6336 14.6563 57.3405 14.6563 57.3405C14.6563 57.3405 14.6087 57.2486 14.5058 57.102Z" fill="#F9F5E9"/>
<path fill-rule="evenodd" clip-rule="evenodd" d="M14.8656 55.8512C15.0627 56.0705 15.2492 56.2324 15.3968 56.3301C15.5434 56.4287 15.6405 56.4728 15.6405 56.4728C15.6405 56.4728 15.9668 56.0935 16.2785 55.4882C16.597 54.8762 16.9174 54.0334 16.9106 53.1351C16.9145 52.8028 16.8776 52.457 16.8096 52.1247C16.7766 51.96 16.7329 51.7952 16.6853 51.6324C16.6377 51.4753 16.5979 51.3087 16.5465 51.1536C16.462 50.8835 16.3668 50.6287 16.2726 50.4008C16.2474 50.3443 16.2221 50.2887 16.2008 50.2332C16.1765 50.1786 16.1581 50.1259 16.1357 50.0723C16.0949 49.9679 16.0561 49.8721 16.0173 49.784C15.8638 49.4306 15.7463 49.2161 15.7463 49.2161C15.7463 49.2161 15.4482 49.6605 15.1006 50.3347C15.0122 50.5033 14.921 50.6843 14.8316 50.8796C14.7879 50.9764 14.7433 51.0779 14.7005 51.1765C14.6568 51.2771 14.6199 51.3796 14.5772 51.484C14.4218 51.8977 14.283 52.3431 14.1898 52.7836C14.1509 52.9541 14.1228 53.1217 14.1004 53.2864C14.08 53.4502 14.0742 53.6082 14.0742 53.7605C14.0742 54.2384 14.1733 54.6531 14.315 55.0075C14.4675 55.3551 14.6714 55.6319 14.8656 55.8512Z" fill="#F9F5E9"/>
<path fill-rule="evenodd" clip-rule="evenodd" d="M7.24988 49.9132C7.46059 49.9228 7.65868 49.9199 7.84415 49.9084C8.57436 49.8615 9.05794 49.6901 9.05794 49.6901C9.05794 49.6901 9.03949 49.5876 8.98414 49.419C8.95792 49.3357 8.91811 49.238 8.87053 49.126C8.8278 49.0101 8.77343 48.8865 8.70351 48.7544C8.56077 48.4881 8.36559 48.1941 8.08302 47.9029C8.01796 47.8369 7.94611 47.765 7.86551 47.6827C7.78977 47.608 7.70626 47.5352 7.61887 47.4624C7.44311 47.3178 7.24308 47.177 7.01683 47.0429C6.78864 46.9107 6.53811 46.7843 6.26719 46.6627C6.01181 46.5382 5.73507 46.4204 5.45638 46.3045C4.89804 46.0766 4.31154 45.8687 3.78038 45.6906C3.257 45.5086 2.79673 45.3535 2.45784 45.2462C2.12089 45.138 1.91406 45.0776 1.91406 45.0776C1.91406 45.0776 1.99077 45.2721 2.13837 45.5843C2.2112 45.7413 2.29859 45.931 2.41026 46.1331C2.52581 46.3371 2.65593 46.5564 2.80061 46.7881C2.9453 47.0199 3.10649 47.2593 3.27739 47.4997C3.32012 47.5582 3.36381 47.6185 3.41042 47.6769C3.45509 47.7334 3.5017 47.7909 3.55316 47.8512C3.64929 47.9671 3.75028 48.0801 3.85224 48.1903C4.05907 48.4144 4.27367 48.626 4.49409 48.8157C4.60479 48.9133 4.71452 49.0034 4.83201 49.0867C4.95048 49.1671 5.06894 49.2438 5.19032 49.3127C5.67001 49.5876 6.15164 49.7475 6.60123 49.8347C6.82651 49.8797 7.04499 49.9017 7.24988 49.9132Z" fill="#F9F5E9"/>
<path fill-rule="evenodd" clip-rule="evenodd" d="M9.41982 47.3618C9.46643 47.7306 9.57324 48.0543 9.69462 48.3177C9.75579 48.4498 9.82085 48.5657 9.883 48.6663C9.94612 48.7668 10.0151 48.8502 10.0694 48.9153C10.1811 49.0494 10.2598 49.1174 10.2598 49.1174C10.2598 49.1174 10.6851 48.8396 11.1638 48.3397C11.2832 48.2161 11.4036 48.0782 11.527 47.9279C11.6551 47.7737 11.7775 47.608 11.894 47.4327C12.1261 47.0803 12.3329 46.6847 12.464 46.2518C12.498 46.1427 12.5223 46.0335 12.5494 45.9205C12.5766 45.8075 12.599 45.6925 12.6194 45.5786C12.6563 45.3477 12.6805 45.115 12.6873 44.8852C12.6951 44.4293 12.7029 43.9715 12.6689 43.5759C12.6533 43.3767 12.633 43.19 12.6106 43.0243C12.597 42.8557 12.5825 42.7063 12.564 42.5837C12.5359 42.3338 12.5058 42.1863 12.5058 42.1863C12.5058 42.1863 12.3562 42.3098 12.1222 42.5272C11.8882 42.7437 11.5677 43.0549 11.2269 43.4304C10.8977 43.801 10.553 44.2358 10.2539 44.6965C10.1005 44.9273 9.96068 45.1639 9.83736 45.4023C9.71889 45.636 9.62762 45.8707 9.55576 46.1015C9.48585 46.3285 9.44409 46.5506 9.41982 46.7604C9.40816 46.8667 9.40137 46.9701 9.40137 47.0697C9.40137 47.1205 9.40137 47.1703 9.40331 47.2182C9.40816 47.2651 9.41302 47.313 9.41982 47.3618Z" fill="#F9F5E9"/>
<path fill-rule="evenodd" clip-rule="evenodd" d="M2.99812 40.4183C3.20495 40.561 3.41372 40.6788 3.62152 40.7784C4.03712 40.9757 4.44204 41.0945 4.79647 41.1663C5.50823 41.309 6.02191 41.2688 6.02191 41.2688C6.02191 41.2688 6.08211 40.8531 5.94811 40.2756C5.91898 40.1281 5.86266 39.9739 5.81314 39.8102C5.7607 39.6445 5.69176 39.4721 5.6034 39.2968C5.516 39.1196 5.40433 38.9367 5.2713 38.7538C5.2043 38.6618 5.13342 38.5689 5.05379 38.477C5.01398 38.431 4.9732 38.385 4.9295 38.3372C4.89066 38.2912 4.8489 38.2462 4.80327 38.1983C4.10509 37.4551 2.97481 36.6918 2.08438 36.0721C1.63188 35.7647 1.2221 35.5004 0.923998 35.3098C0.625891 35.1201 0.439453 35.01 0.439453 35.01C0.439453 35.01 0.4647 35.2159 0.523933 35.555C0.584137 35.894 0.673472 36.3614 0.812329 36.8785C0.971578 37.3967 1.17744 37.9636 1.43185 38.4971C1.49302 38.6302 1.56585 38.7605 1.64353 38.8888C1.72024 39.0143 1.7989 39.1407 1.88046 39.2595C2.04457 39.4989 2.22129 39.723 2.4087 39.9145C2.60097 40.1099 2.78935 40.2775 2.99812 40.4183Z" fill="#F9F5E9"/>
<path fill-rule="evenodd" clip-rule="evenodd" d="M7.34157 41.0245C7.34157 41.0245 7.83291 40.8646 8.43883 40.5054C8.74665 40.3244 9.07971 40.0965 9.39821 39.8187C9.55746 39.678 9.71088 39.5266 9.85654 39.3619C10.009 39.1953 10.1556 39.0171 10.2838 38.8246C10.4139 38.6321 10.5256 38.4252 10.6246 38.2136C10.7237 38.0029 10.7936 37.7864 10.88 37.5652C11.0422 37.1266 11.15 36.686 11.2267 36.2962C11.3238 35.9007 11.3811 35.5549 11.416 35.3078C11.449 35.0588 11.4587 34.9094 11.4587 34.9094C11.4587 34.9094 11.283 34.9908 10.9985 35.1402C10.714 35.2925 10.3265 35.5099 9.89635 35.7848C9.47104 36.0597 8.99329 36.3929 8.5874 36.7598C8.17277 37.1266 7.7931 37.5298 7.51635 37.9378C7.37361 38.1389 7.28428 38.341 7.20271 38.5383C7.12794 38.7346 7.0755 38.9281 7.04055 39.1148C7.00559 39.2997 6.98714 39.4778 6.9852 39.6444C6.97937 39.8101 7.00559 39.9672 7.02792 40.108C7.12794 40.675 7.34157 41.0245 7.34157 41.0245Z" fill="#F9F5E9"/>
<path fill-rule="evenodd" clip-rule="evenodd" d="M1.88047 27.852C1.91445 28.0723 1.95523 28.2935 2.00379 28.51C2.10866 28.9419 2.23198 29.3509 2.43492 29.71C2.69322 30.1841 3.01269 30.5624 3.34964 30.8612C3.68755 31.1591 4.03227 31.3784 4.35854 31.5402C5.00913 31.8668 5.516 31.9626 5.516 31.9626C5.516 31.9626 5.55873 31.8678 5.60146 31.6983C5.64224 31.5259 5.70924 31.2845 5.73449 30.9905C5.76265 30.6936 5.75682 30.345 5.67914 29.9571C5.61117 29.5702 5.48785 29.1469 5.24509 28.6929C5.16449 28.5435 5.07321 28.3864 4.9732 28.2303C4.92465 28.1547 4.87318 28.0752 4.81978 27.9947C4.76928 27.9181 4.71685 27.8357 4.66538 27.7582C4.39544 27.3645 4.0915 26.9661 3.78466 26.5859C3.47975 26.2057 3.17097 25.8408 2.91267 25.5314C2.38831 24.907 1.99116 24.4731 1.99116 24.4731C1.99116 24.4731 1.92999 24.7921 1.86687 25.2882C1.829 25.5372 1.81638 25.8341 1.80667 26.1559C1.79793 26.4777 1.79793 26.8282 1.81346 27.1854C1.81929 27.4028 1.84842 27.6289 1.88047 27.852Z" fill="#F9F5E9"/>
<path fill-rule="evenodd" clip-rule="evenodd" d="M10.3177 30.7366C10.3828 30.683 10.4439 30.6246 10.5051 30.5652C10.5682 30.5048 10.6333 30.4435 10.6925 30.3803C10.8188 30.2568 10.9314 30.1246 11.0402 29.9886C11.146 29.8545 11.248 29.7157 11.3431 29.5749C11.4431 29.4255 11.5334 29.2856 11.6199 29.1554C11.7772 28.9169 11.9131 28.6784 12.0306 28.4601C12.0898 28.3499 12.1432 28.2427 12.1918 28.144C12.2365 28.0425 12.2938 27.9515 12.3374 27.8653C12.5142 27.5244 12.6035 27.2993 12.6035 27.2993C12.6035 27.2993 12.0578 27.3846 11.2897 27.5886C11.1023 27.6384 10.8916 27.6949 10.6877 27.7648C10.4808 27.8309 10.2662 27.9075 10.0497 27.9908C9.61662 28.1565 9.1748 28.3547 8.76406 28.5817C8.44264 28.7551 8.1727 28.9524 7.928 29.1583C7.55609 29.4753 7.28906 29.8229 7.11427 30.161C6.94823 30.501 6.86083 30.8305 6.82102 31.1139C6.78218 31.4003 6.77538 31.6388 6.80257 31.8093C6.82394 31.9788 6.85501 32.0774 6.85501 32.0774C6.85501 32.0774 7.36965 32.0525 8.05326 31.8658C8.7359 31.6809 9.61953 31.3438 10.3177 30.7366Z" fill="#F9F5E9"/>
<path fill-rule="evenodd" clip-rule="evenodd" d="M5.99945 21.2552C6.24124 21.6335 6.51701 21.94 6.77822 22.1833C7.30063 22.6669 7.75896 22.8949 7.75896 22.8949C7.75896 22.8949 7.8279 22.8135 7.92403 22.665C8.02211 22.5146 8.13572 22.2905 8.2503 22.0147C8.36877 21.7398 8.46781 21.4056 8.51442 21.0129C8.53675 20.8204 8.53675 20.6069 8.53675 20.3875C8.53578 20.1663 8.51248 19.9326 8.46781 19.6846C8.42217 19.4356 8.3542 19.1731 8.2736 18.905C8.23282 18.7709 8.18718 18.633 8.14057 18.497C8.09299 18.3629 8.0493 18.2259 8.00074 18.089C7.80848 17.5431 7.58223 16.9924 7.36958 16.4992C7.26179 16.2549 7.1608 16.0222 7.06856 15.8115C6.97631 15.6046 6.89377 15.4198 6.82386 15.2656C6.685 14.9534 6.59761 14.7676 6.59761 14.7676C6.59761 14.7676 6.49468 14.9534 6.34611 15.2656C6.26551 15.4179 6.19074 15.6113 6.10529 15.8249C6.02178 16.0423 5.93342 16.2827 5.84797 16.5375C5.80719 16.6648 5.76543 16.798 5.72174 16.932C5.68289 17.0671 5.64211 17.204 5.61104 17.3487C5.54792 17.6312 5.49451 17.9271 5.4547 18.2183C5.41586 18.5104 5.38867 18.8025 5.38867 19.0841C5.39353 19.3723 5.42072 19.651 5.47121 19.9106C5.57414 20.4325 5.76543 20.8788 5.99945 21.2552Z" fill="#F9F5E9"/>
<path fill-rule="evenodd" clip-rule="evenodd" d="M13.3551 22.6562C13.562 22.5317 13.7649 22.3919 13.9523 22.2473C14.1417 22.0998 14.3155 21.9475 14.4825 21.7952C14.6505 21.6458 14.8195 21.4983 14.9641 21.3547C15.1127 21.211 15.2448 21.0721 15.3623 20.9476C15.4205 20.8825 15.4759 20.8222 15.5264 20.7676C15.5778 20.712 15.6264 20.6622 15.6691 20.6153C15.8478 20.4276 15.9439 20.3098 15.9439 20.3098C15.9439 20.3098 15.7468 20.2858 15.4176 20.2657C15.0913 20.2446 14.6272 20.2217 14.1184 20.2408C13.6086 20.2571 13.0318 20.3031 12.4676 20.395C12.3239 20.4199 12.1821 20.4448 12.0433 20.4735C11.9083 20.5071 11.7753 20.5406 11.6442 20.5789C11.383 20.6536 11.1315 20.7436 10.9043 20.8471C10.6761 20.9476 10.4722 21.0635 10.2915 21.189C10.108 21.3135 9.96333 21.4543 9.82933 21.5922C9.5691 21.8737 9.3846 22.163 9.25448 22.4254C9.13116 22.6869 9.07775 22.9244 9.04668 23.091C9.01367 23.2596 9.0127 23.3611 9.0127 23.3611C9.0127 23.3611 9.51375 23.476 10.2265 23.4789C10.5848 23.4827 10.9897 23.4578 11.416 23.3841C11.851 23.3142 12.3016 23.1954 12.7347 23.0029C12.9483 22.9043 13.1532 22.7874 13.3551 22.6562Z" fill="#F9F5E9"/>
<path fill-rule="evenodd" clip-rule="evenodd" d="M11.1026 13.0992C11.2259 13.5234 11.4027 13.8883 11.5842 14.1872C11.9474 14.7829 12.3203 15.1181 12.3203 15.1181C12.3203 15.1181 12.6873 14.8825 13.0544 14.4036C13.1476 14.2829 13.2398 14.1479 13.3272 13.9947C13.4156 13.8472 13.5088 13.6824 13.5865 13.5033C13.7458 13.1432 13.8633 12.7094 13.9108 12.2047C13.9672 11.7057 13.9565 11.1368 13.9147 10.5554C13.87 9.9674 13.8176 9.39181 13.7545 8.8641C13.6894 8.33735 13.6215 7.87093 13.5719 7.53285C13.5176 7.19956 13.4855 6.99365 13.4855 6.99365C13.4855 6.99365 13.4447 7.02813 13.3806 7.10283C13.3175 7.17658 13.2253 7.28193 13.1126 7.41697C12.8874 7.68609 12.5825 8.06439 12.2688 8.50878C11.9717 8.96753 11.6658 9.49237 11.4211 10.0277C11.1842 10.5746 11.0181 11.1435 10.9628 11.6645C10.9492 11.7967 10.9434 11.9231 10.9434 12.0495C10.9434 12.175 10.954 12.2995 10.9667 12.4201C10.9939 12.6615 11.0424 12.8885 11.1026 13.0992Z" fill="#F9F5E9"/>
<path fill-rule="evenodd" clip-rule="evenodd" d="M17.7962 16.319C17.9118 16.2826 18.0235 16.2414 18.139 16.1964C18.1934 16.1753 18.2487 16.1533 18.3051 16.1303C18.3633 16.1063 18.4177 16.0862 18.475 16.0642C18.9285 15.8851 19.3421 15.6648 19.7024 15.458C20.0743 15.2655 20.3801 15.072 20.5967 14.9322C20.7054 14.8594 20.7909 14.799 20.8472 14.7598C20.9103 14.7196 20.9424 14.6994 20.9424 14.6994C20.9424 14.6994 20.8958 14.6822 20.8103 14.6487C20.7229 14.6161 20.6006 14.573 20.4481 14.5251C20.1432 14.4265 19.7092 14.2972 19.2081 14.1794C18.9556 14.121 18.6896 14.0645 18.4109 14.0166C18.273 13.9936 18.1312 13.9697 17.9914 13.9505C17.8506 13.9342 17.7098 13.9199 17.57 13.9084C17.0039 13.8614 16.4368 13.8633 15.9328 13.9428C15.4366 14.0252 15.0307 14.1976 14.6928 14.3939C14.5229 14.4935 14.3695 14.5998 14.2403 14.7119C14.1102 14.8249 14.0024 14.9417 13.9082 15.0519C13.5266 15.5001 13.3975 15.8842 13.3975 15.8842C13.3975 15.8842 13.85 16.1245 14.5413 16.3123C14.8861 16.408 15.289 16.4904 15.7221 16.5297C16.1571 16.5708 16.6077 16.5555 17.0883 16.4875C17.3301 16.4502 17.5651 16.3908 17.7962 16.319Z" fill="#F9F5E9"/>
<path fill-rule="evenodd" clip-rule="evenodd" d="M19.1099 8.23386C19.2002 8.42349 19.2633 8.52884 19.2633 8.52884C19.2633 8.52884 19.2905 8.52118 19.3361 8.50011C19.3837 8.48287 19.4507 8.45605 19.5352 8.41583C19.7032 8.34017 19.9323 8.2195 20.18 8.03657C20.6645 7.66018 21.2627 7.1047 21.6443 6.14984C21.7744 5.83667 21.8929 5.49284 21.9929 5.12507C22.1201 4.66824 22.225 4.18171 22.3162 3.70859C22.4124 3.24697 22.4959 2.79588 22.5638 2.39746C22.6978 1.60446 22.7707 1.03174 22.7707 1.03174C22.7707 1.03174 22.4832 1.20317 22.0541 1.49911C21.8424 1.64373 21.5928 1.82282 21.3297 2.0249C21.0723 2.23752 20.8014 2.47504 20.5354 2.72883C20.3703 2.8859 20.211 3.04776 20.0557 3.21536C20.0178 3.25654 19.977 3.29773 19.9391 3.34082C19.9042 3.38392 19.8673 3.42798 19.8304 3.47395C19.7605 3.56397 19.6915 3.654 19.6216 3.74498C19.3536 4.10605 19.1264 4.48148 18.9701 4.85212C18.8652 5.09155 18.8001 5.34535 18.7545 5.58095C18.7108 5.81847 18.6885 6.04737 18.6855 6.2686C18.6758 6.7082 18.7399 7.10278 18.8283 7.43799C18.9147 7.77319 19.0225 8.04327 19.1099 8.23386Z" fill="#F9F5E9"/>
<path fill-rule="evenodd" clip-rule="evenodd" d="M25.5518 10.9673C25.8431 10.9118 26.1169 10.8448 26.3684 10.7796C26.6219 10.7231 26.852 10.6628 27.0443 10.6082C27.4259 10.4971 27.6618 10.4061 27.6618 10.4061C27.6618 10.4061 27.2278 10.0805 26.5597 9.68399C26.2286 9.4867 25.8363 9.27025 25.4081 9.07009C24.9886 8.87471 24.5409 8.70136 24.0923 8.56824C23.7466 8.46672 23.401 8.38723 23.0747 8.35275C22.0794 8.26464 21.2938 8.54621 20.8064 8.8862C20.5568 9.05093 20.3733 9.21662 20.25 9.34112C20.1888 9.40146 20.1431 9.45414 20.114 9.48957C20.0849 9.52884 20.0713 9.54895 20.0713 9.54895C20.0713 9.54895 20.1606 9.6361 20.3276 9.76731C20.4947 9.90044 20.7394 10.0786 21.0433 10.2596C21.3472 10.4444 21.7104 10.6302 22.1134 10.7835C22.3163 10.8582 22.5299 10.9281 22.7504 10.9798C22.9708 11.0344 23.197 11.0708 23.4398 11.1024C24.1438 11.1886 24.874 11.0756 25.5518 10.9673Z" fill="#F9F5E9"/>
<path fill-rule="evenodd" clip-rule="evenodd" d="M35.9492 66.9236C35.7579 66.8996 35.521 66.8718 35.2539 66.8402C35.118 66.8201 34.9743 66.8115 34.8247 66.7837C34.6762 66.7579 34.5189 66.7301 34.3557 66.7023C34.0266 66.6468 33.6712 66.5874 33.2934 66.5232C32.9206 66.4418 32.5283 66.3556 32.1233 66.2694C31.9175 66.2215 31.7097 66.1832 31.5038 66.1277C31.298 66.0712 31.0892 66.0156 30.8775 65.9582C30.4571 65.8423 30.0249 65.7398 29.6064 65.5952C27.9042 65.0933 26.2768 64.399 25.0766 63.8464C24.7823 63.7018 24.5066 63.5686 24.2667 63.4527C24.1444 63.3943 24.0337 63.3388 23.9298 63.2871C23.8259 63.2353 23.7336 63.1817 23.6492 63.1376C23.3103 62.9528 23.1199 62.8465 23.1199 62.8465C23.1199 62.8465 22.9277 62.7431 22.5878 62.5582C22.2528 62.3676 21.7896 62.0746 21.2284 61.7355C20.1282 61.022 18.6862 60.0222 17.3705 58.8834C16.0489 57.7485 14.8351 56.5092 13.9806 55.5371C13.868 55.4203 13.7738 55.2986 13.6776 55.1847C13.5834 55.0707 13.4961 54.9653 13.4116 54.8629C13.2436 54.6617 13.097 54.4846 12.9766 54.338C12.8542 54.1953 12.7707 54.0727 12.7105 53.9933C12.6503 53.9109 12.6163 53.8697 12.6163 53.8697C12.6163 53.8697 12.4891 53.6983 12.2628 53.3956C12.1521 53.2453 12.0084 53.0662 11.8608 52.8497C11.7152 52.6333 11.5482 52.3881 11.3695 52.1218C11.2782 51.9897 11.184 51.8508 11.0889 51.7062C10.9898 51.5616 10.9044 51.4074 10.8073 51.2513C10.614 50.9352 10.4159 50.6029 10.2091 50.26C10.0207 49.9066 9.82264 49.5427 9.62261 49.174C9.57115 49.0801 9.52162 48.9872 9.47113 48.8953C9.42646 48.7985 9.38277 48.7028 9.33519 48.6079C9.24391 48.4164 9.15263 48.2239 9.05941 48.0304C8.33794 46.4885 7.74075 44.8929 7.39992 43.6661C7.35331 43.5138 7.31059 43.3672 7.26786 43.2293C7.22708 43.0905 7.18532 42.9593 7.1591 42.8347C7.0989 42.5838 7.04161 42.3635 7.00083 42.1835C6.91343 41.8234 6.861 41.6175 6.861 41.6175C6.861 41.6175 6.84935 41.5658 6.8241 41.469C6.80274 41.3752 6.77846 41.2296 6.74253 41.0467C6.70855 40.8657 6.66776 40.6463 6.62212 40.3916C6.57454 40.1397 6.50948 39.8543 6.4755 39.5382C6.43277 39.2241 6.38713 38.8841 6.33955 38.524C6.3279 38.4349 6.31334 38.343 6.30363 38.2511C6.291 38.1591 6.28615 38.0653 6.27741 37.9685C6.26478 37.7799 6.24634 37.5845 6.23177 37.3872C6.14826 36.599 6.14826 35.7533 6.12204 34.9095C6.14826 34.0639 6.14826 33.2191 6.23177 32.43C6.24634 32.2336 6.26478 32.0392 6.27741 31.8496C6.28615 31.7538 6.291 31.66 6.30363 31.568C6.31334 31.4751 6.3279 31.3832 6.33955 31.2932C6.38713 30.934 6.43277 30.5921 6.4755 30.2789C6.50948 29.9629 6.57454 29.6803 6.62212 29.4256C6.66776 29.1727 6.70855 28.9525 6.74253 28.7705C6.77846 28.5895 6.80274 28.4439 6.8241 28.3481C6.84935 28.2514 6.861 28.1997 6.861 28.1997C6.861 28.1997 6.91343 27.9947 7.00083 27.6346C7.04161 27.4546 7.0989 27.2362 7.1591 26.9853C7.18532 26.8598 7.22708 26.7267 7.26786 26.5888C7.31059 26.449 7.35331 26.3043 7.39992 26.1511C7.74075 24.9262 8.33794 23.3306 9.05941 21.7867C9.15263 21.5961 9.24391 21.4008 9.33519 21.2102C9.38277 21.1135 9.42646 21.0206 9.47113 20.9238C9.52162 20.8309 9.57115 20.738 9.62261 20.6432C9.82264 20.2735 10.0207 19.9096 10.2091 19.5581C10.4159 19.2152 10.614 18.8829 10.8073 18.5678C10.9044 18.4127 10.9898 18.2556 11.0889 18.1119C11.184 17.9673 11.2782 17.8294 11.3695 17.6953C11.5482 17.4291 11.7152 17.1839 11.8608 16.9684C12.0084 16.752 12.1521 16.5738 12.2628 16.4225C12.4891 16.1208 12.6163 15.9494 12.6163 15.9494C12.6163 15.9494 12.6503 15.9063 12.7105 15.8249C12.7707 15.7454 12.8542 15.6228 12.9766 15.4801C13.097 15.3345 13.2436 15.1583 13.4116 14.9553C13.4961 14.8537 13.5834 14.7465 13.6776 14.6306C13.7738 14.5195 13.868 14.3979 13.9806 14.2801C14.8351 13.3099 16.0489 12.0696 17.3705 10.9337C18.6862 9.79501 20.1282 8.79705 21.2284 8.08067C21.7896 7.7426 22.2528 7.44953 22.5878 7.26086C22.9277 7.07602 23.1199 6.96971 23.1199 6.96971C23.1199 6.96971 23.3103 6.86532 23.6492 6.68047C23.7336 6.63546 23.8259 6.58566 23.9298 6.52915C24.0337 6.47935 24.1444 6.4238 24.2667 6.36538C24.3483 6.32516 24.4318 6.28493 24.5192 6.24375C24.526 6.24375 24.5328 6.24375 24.5406 6.24375C24.7552 6.26195 25.0591 6.27152 25.4155 6.25237C26.135 6.22076 27.0652 6.07423 27.8848 5.63176C28.3091 5.41723 28.7092 5.12608 29.0568 4.81099C29.2268 4.652 29.4035 4.49302 29.5676 4.33499C29.7297 4.17697 29.8783 4.01799 30.0152 3.86475C30.2755 3.55636 30.5192 3.29011 30.6784 3.0909C30.8358 2.8917 30.9251 2.76623 30.9251 2.76623C30.9251 2.76623 30.728 2.75761 30.4017 2.75523C30.0754 2.75283 29.6171 2.7624 29.1005 2.80263C28.9704 2.81412 28.8364 2.8237 28.7014 2.83998C28.5674 2.85626 28.4315 2.87446 28.2955 2.89649C28.0217 2.93767 27.742 2.99034 27.4653 3.05451C26.9147 3.1838 26.3564 3.35045 25.9291 3.58701C25.4922 3.82069 25.1562 4.10418 24.8998 4.39437C24.6542 4.6884 24.5007 4.99295 24.3891 5.26208C24.2861 5.53024 24.2308 5.76584 24.2104 5.93632C24.2046 5.96888 24.2036 5.99953 24.2017 6.02826C24.1696 6.04454 24.1376 6.06178 24.1046 6.07423C23.9842 6.13553 23.8705 6.19012 23.7637 6.24088C23.6618 6.29834 23.5666 6.34814 23.4802 6.39603C23.1413 6.58087 22.9471 6.68814 22.9471 6.68814C22.9471 6.68814 22.7509 6.79349 22.4091 6.97928C22.0741 7.17083 21.6051 7.46581 21.0351 7.81059C19.9233 8.53081 18.4687 9.54025 17.1374 10.6914C15.8042 11.8369 14.5797 13.0896 13.7136 14.0703C13.6009 14.1891 13.5067 14.3145 13.4116 14.4266C13.3135 14.5415 13.2251 14.6497 13.1416 14.7532C12.9717 14.9572 12.8231 15.1353 12.7027 15.2828C12.5784 15.4274 12.4949 15.551 12.4318 15.6314C12.3716 15.7119 12.3376 15.7559 12.3376 15.7559C12.3376 15.7559 12.2075 15.9302 11.9793 16.2329C11.8676 16.388 11.7229 16.5681 11.5734 16.7855C11.4239 17.0048 11.2588 17.2519 11.0782 17.5201C10.984 17.6551 10.8917 17.7949 10.7927 17.9405C10.6966 18.0861 10.6072 18.2451 10.5072 18.4021C10.3179 18.7182 10.113 19.0553 9.90518 19.4029C9.71292 19.7573 9.51385 20.1251 9.31382 20.5005C9.26333 20.5944 9.21186 20.6882 9.1604 20.7821C9.11573 20.8769 9.06815 20.9736 9.02348 21.0704C8.93124 21.2648 8.83802 21.4601 8.74674 21.6546C8.01458 23.2128 7.40963 24.8247 7.0688 26.062C7.02025 26.2162 6.97752 26.3628 6.93674 26.5045C6.89401 26.6463 6.84935 26.7765 6.82313 26.9048C6.76195 27.1567 6.7066 27.3789 6.66485 27.5609C6.57454 27.9229 6.52405 28.1317 6.52405 28.1317C6.52405 28.1317 6.51143 28.1844 6.48812 28.2811C6.46385 28.3788 6.44054 28.5244 6.40461 28.7073C6.3716 28.8912 6.3279 29.1153 6.28129 29.371C6.23565 29.6267 6.16962 29.914 6.1337 30.232C6.09097 30.55 6.04436 30.8938 5.99678 31.2568C5.9861 31.3487 5.97056 31.4406 5.95988 31.5326C5.94823 31.6284 5.94337 31.7232 5.93366 31.818C5.9191 32.0095 5.90453 32.204 5.88802 32.408C5.80355 33.2019 5.80354 34.0552 5.77441 34.9095C5.80354 35.7629 5.80355 36.6153 5.88802 37.413C5.90453 37.6123 5.9191 37.8067 5.93366 38.0011C5.94337 38.0969 5.94823 38.1917 5.95988 38.2827C5.97056 38.3765 5.9861 38.4713 5.99678 38.5614C6.04436 38.9234 6.09097 39.2701 6.1337 39.5871C6.16962 39.9031 6.23565 40.1914 6.28129 40.4481C6.3279 40.7038 6.3716 40.925 6.40461 41.1099C6.44054 41.2938 6.46385 41.4384 6.48812 41.537C6.51143 41.6338 6.52405 41.6864 6.52405 41.6864C6.52405 41.6864 6.57454 41.8933 6.66485 42.2563C6.7066 42.4392 6.76195 42.6614 6.82313 42.9123C6.84935 43.0397 6.89401 43.1738 6.93674 43.3127C6.97752 43.4544 7.02025 43.6019 7.0688 43.7561C7.40963 44.9935 8.01458 46.6044 8.74674 48.1655C8.83802 48.358 8.93124 48.5533 9.02348 48.7468C9.06815 48.8445 9.11573 48.9403 9.1604 49.036C9.21186 49.128 9.26333 49.2247 9.31382 49.3186C9.51385 49.6911 9.71292 50.0599 9.90518 50.4152C10.113 50.7619 10.3179 51.098 10.5072 51.416C10.6072 51.5731 10.6966 51.7311 10.7927 51.8767C10.8917 52.0213 10.984 52.164 11.0782 52.2981C11.2588 52.5672 11.4239 52.8143 11.5734 53.0326C11.7229 53.2501 11.8676 53.4311 11.9793 53.5843C12.2075 53.8879 12.3376 54.0622 12.3376 54.0622C12.3376 54.0622 12.3716 54.1063 12.4318 54.1877C12.4949 54.2681 12.5784 54.3907 12.7027 54.5353C12.8231 54.6819 12.9717 54.861 13.1416 55.0669C13.2251 55.1684 13.3135 55.2766 13.4116 55.3915C13.5067 55.5026 13.6009 55.6291 13.7136 55.7469C14.5797 56.7295 15.8042 57.9812 17.1374 59.1267C18.4687 60.276 19.9233 61.2854 21.0351 62.0085C21.6051 62.3523 22.0741 62.6463 22.4091 62.8388C22.7509 63.0256 22.9471 63.13 22.9471 63.13C22.9471 63.13 23.1413 63.2382 23.4802 63.4221C23.5666 63.469 23.6618 63.5207 23.7637 63.5763C23.8705 63.628 23.9842 63.6826 24.1046 63.741C24.3483 63.8598 24.6231 63.9948 24.9241 64.1404C26.1369 64.6978 27.7819 65.3988 29.5006 65.9064C29.923 66.052 30.359 66.1545 30.7862 66.2723C30.996 66.3307 31.2086 66.3882 31.4174 66.4437C31.6233 66.5012 31.834 66.5386 32.0398 66.5864C32.4506 66.6755 32.8487 66.7617 33.2245 66.845C33.6042 66.9082 33.9644 66.9686 34.2965 67.0251C34.4626 67.0529 34.6199 67.0816 34.7704 67.1065C34.9238 67.1352 35.0685 67.1458 35.2034 67.1649C35.4763 67.1975 35.7132 67.2243 35.9094 67.2492C36.2978 67.2971 36.5211 67.3239 36.5211 67.3239L36.5571 66.9963C36.5571 66.9963 36.3347 66.9705 35.9492 66.9236Z" fill="#F9F5E9"/>
<path fill-rule="evenodd" clip-rule="evenodd" d="M32.123 66.6037C32.123 66.6037 36.8141 67.7836 37.8686 72.0455L37.7366 67.0241L32.4357 66.3374L32.123 66.6037Z" fill="#F9F5E9"/>
</g>
</g>
</svg>
