<svg width="114" height="75" viewBox="0 0 114 75" fill="none" xmlns="http://www.w3.org/2000/svg">
<g clip-path="url(#clip0_1_253)">
<g opacity="0.7">
<mask id="mask0_1_253" style="mask-type:luminance" maskUnits="userSpaceOnUse" x="42" y="21" width="30" height="31">
<path d="M72 21.5H42V51.5H72V21.5Z" fill="white"/>
</mask>
<g mask="url(#mask0_1_253)">
<path d="M48.091 25.25H65.9086C66.1058 25.25 66.3002 25.2966 66.476 25.3861C66.6517 25.4756 66.8038 25.6055 66.9198 25.765L71.6985 32.335C71.7835 32.4519 71.8253 32.5946 71.8169 32.7389C71.8085 32.8832 71.7503 33.02 71.6523 33.1262L57.4585 48.5025C57.3461 48.6241 57.19 48.696 57.0245 48.7026C56.8591 48.7091 56.6978 48.6498 56.576 48.5375C56.5673 48.53 51.826 43.3937 42.3473 33.1262C42.2493 33.02 42.1911 32.8832 42.1827 32.7389C42.1743 32.5946 42.2161 32.4519 42.301 32.335L47.0798 25.765C47.1958 25.6055 47.3479 25.4756 47.5236 25.3861C47.6994 25.2966 47.8938 25.25 48.091 25.25ZM48.7285 27.75L45.2285 32.5625L56.9998 45.3125L68.771 32.5625L65.271 27.75H48.7285Z" fill="#F9F5E9" stroke="#161616" stroke-width="0.5"/>
</g>
<mask id="mask1_1_253" style="mask-type:luminance" maskUnits="userSpaceOnUse" x="75" y="0" width="39" height="73">
<path d="M75.938 0.5H113.938V72.5H75.938V0.5Z" fill="white"/>
</mask>
<g mask="url(#mask1_1_253)">
<path fill-rule="evenodd" clip-rule="evenodd" d="M85.1455 66.1899C85.3533 66.188 85.5718 66.2014 85.8039 66.232C85.8631 66.2416 85.9243 66.2512 85.9826 66.2617C86.0428 66.2703 86.1001 66.2809 86.1622 66.2904C86.2826 66.3134 86.4098 66.3422 86.536 66.3757C87.0458 66.5117 87.6042 66.7339 88.1625 66.9877C88.7092 67.2242 89.2608 67.4905 89.756 67.7424C90.2493 67.9923 90.6882 68.2318 90.997 68.3927C91.3057 68.5555 91.4922 68.6599 91.4922 68.6599C91.4922 68.6599 91.4436 68.6771 91.3465 68.7135C91.2523 68.7441 91.1174 68.7968 90.9445 68.8437C90.5969 68.9414 90.1094 69.0688 89.5579 69.178C89.419 69.2058 89.2802 69.2364 89.1326 69.2575C88.984 69.2786 88.8325 69.2948 88.682 69.3111C88.3771 69.3427 88.0664 69.3667 87.7547 69.3743C87.1381 69.4002 86.5157 69.3236 85.9816 69.178C84.9135 68.8916 84.1891 68.2432 83.7395 67.704C83.287 67.162 83.0947 66.7061 83.0947 66.7061C83.0947 66.7061 83.4608 66.4724 84.0706 66.3326C84.3745 66.2607 84.7328 66.1899 85.1455 66.1899Z" fill="#F9F5E9"/>
<path fill-rule="evenodd" clip-rule="evenodd" d="M83.509 61.9987C83.7585 61.608 84.0877 61.2661 84.4285 60.9309C84.5975 60.7642 84.7743 60.6129 84.954 60.4712C85.0453 60.3993 85.1325 60.3323 85.2161 60.2672C85.2996 60.1972 85.384 60.1302 85.4666 60.067C85.7958 59.8161 86.0968 59.615 86.3143 59.4799C86.5318 59.3334 86.6648 59.2529 86.6648 59.2529C86.6648 59.2529 86.6668 59.4426 86.6542 59.7548C86.6464 60.0737 86.6124 60.4941 86.5435 60.9778C86.4735 61.4605 86.3659 62.0016 86.2105 62.5303C86.0503 63.0417 85.8356 63.5397 85.5734 63.9525C85.5103 64.0559 85.4413 64.1536 85.3704 64.2446C85.3365 64.2915 85.2997 64.3337 85.2618 64.3768C85.2249 64.417 85.1889 64.4563 85.151 64.4946C84.9976 64.6459 84.8374 64.7752 84.6762 64.8853C84.5159 64.9964 84.3557 65.0893 84.1984 65.164C84.043 65.2378 83.8907 65.3039 83.7459 65.3422C83.1653 65.504 82.7419 65.4763 82.7419 65.4763C82.7419 65.4763 82.675 64.9869 82.7449 64.3126C82.7798 63.9745 82.8448 63.5905 82.9671 63.1978C82.9972 63.1001 83.0303 62.9996 83.0701 62.9019C83.1041 62.8004 83.1439 62.6979 83.1905 62.5964C83.2808 62.3952 83.3837 62.1922 83.509 61.9987Z" fill="#F9F5E9"/>
<path fill-rule="evenodd" clip-rule="evenodd" d="M91.7754 63.1588C91.8114 63.1243 91.8667 63.0802 91.9337 63.0208C92.0726 62.9021 92.2784 62.745 92.5464 62.5956C92.6833 62.519 92.8309 62.4462 93.0009 62.3792C93.1679 62.3112 93.3553 62.2518 93.5485 62.1905C93.9408 62.0775 94.4011 62.0066 94.9381 62.0171C95.209 62.0229 95.4867 62.0373 95.778 62.065C96.0674 62.0928 96.3674 62.134 96.6675 62.1828C96.9714 62.2307 97.2773 62.2882 97.5735 62.3437C97.8628 62.4022 98.1512 62.4596 98.4241 62.5142C98.9679 62.6282 99.4514 62.7374 99.7961 62.8197C100.147 62.903 100.354 62.9586 100.354 62.9586C100.354 62.9586 100.176 63.0802 99.8709 63.2679C99.7233 63.3618 99.5388 63.47 99.332 63.5878C99.231 63.6462 99.1203 63.7075 99.0048 63.7698C98.8892 63.8301 98.7659 63.8885 98.6387 63.9479C98.3843 64.0657 98.1124 64.1835 97.8318 64.2965C97.689 64.3502 97.5492 64.4038 97.4026 64.4555C97.3297 64.4823 97.2579 64.5082 97.185 64.5312C97.1112 64.5513 97.0365 64.5733 96.9607 64.5944C96.3616 64.7563 95.7537 64.8626 95.2032 64.8607C94.0758 64.829 93.2096 64.4134 92.6241 64.0102C92.3318 63.8138 92.1036 63.6079 91.9512 63.4576C91.7997 63.3082 91.7211 63.2105 91.7211 63.2105C91.7211 63.2105 91.7395 63.1923 91.7754 63.1588Z" fill="#F9F5E9"/>
<path fill-rule="evenodd" clip-rule="evenodd" d="M93.3288 59.9265C93.188 60.3795 92.9705 60.7549 92.7287 61.0547C92.6103 61.2098 92.4782 61.3343 92.3461 61.4416C92.2151 61.5508 92.0811 61.6437 91.9538 61.7232C91.7014 61.8812 91.4703 61.9808 91.3052 62.0421C91.2227 62.0746 91.1498 62.09 91.1052 62.1015C91.0537 62.1129 91.0294 62.1177 91.0294 62.1177C91.0294 62.1177 90.978 62.0038 90.9148 61.8093C90.8498 61.613 90.7702 61.3362 90.707 60.9982C90.5769 60.3239 90.5206 59.439 90.7886 58.5732C90.9129 58.1288 91.1246 57.6997 91.3722 57.3061C91.6101 56.9048 91.8733 56.5236 92.1315 56.2085C92.2626 56.0534 92.3753 55.8973 92.485 55.7642C92.5918 55.6291 92.6938 55.5142 92.7783 55.4184C92.9462 55.2269 93.0579 55.1187 93.0579 55.1187C93.0579 55.1187 93.1133 55.3006 93.1861 55.6013C93.2589 55.9011 93.3502 56.3263 93.423 56.81C93.458 57.0542 93.4939 57.3166 93.5143 57.5819C93.5298 57.8434 93.5386 58.1135 93.5337 58.3826C93.5298 58.6527 93.5143 58.9237 93.4813 59.1861C93.4463 59.4457 93.4036 59.7023 93.3288 59.9265Z" fill="#F9F5E9"/>
<path fill-rule="evenodd" clip-rule="evenodd" d="M99.4952 57.102C99.5971 56.9574 99.7418 56.7496 99.9574 56.5331C100.171 56.3167 100.453 56.0916 100.805 55.8819C101.147 55.6674 101.567 55.4758 102.085 55.3436C102.257 55.2986 102.442 55.2613 102.628 55.2239C102.813 55.1856 103.004 55.154 103.202 55.1234C104.177 54.9788 105.283 54.9242 106.116 54.8724C106.959 54.8265 107.562 54.8169 107.562 54.8169C107.562 54.8169 107.356 55.0707 107.005 55.4471C106.665 55.8273 106.14 56.2966 105.558 56.7525C105.467 56.8224 105.376 56.8885 105.286 56.9574C105.239 56.9909 105.193 57.0235 105.144 57.0589C105.096 57.0905 105.047 57.1202 104.998 57.1528C104.801 57.2763 104.6 57.3961 104.396 57.5043C104.194 57.6135 103.99 57.7131 103.783 57.7964C103.579 57.8826 103.38 57.9582 103.171 58.0071C102.081 58.2743 101.131 58.1086 100.449 57.874C99.7603 57.6336 99.3447 57.3405 99.3447 57.3405C99.3447 57.3405 99.3922 57.2486 99.4952 57.102Z" fill="#F9F5E9"/>
<path fill-rule="evenodd" clip-rule="evenodd" d="M99.1354 55.8512C98.9382 56.0705 98.7518 56.2324 98.6042 56.3301C98.4576 56.4287 98.3605 56.4728 98.3605 56.4728C98.3605 56.4728 98.0342 56.0935 97.7225 55.4882C97.404 54.8762 97.0836 54.0334 97.0904 53.1351C97.0865 52.8028 97.1234 52.457 97.1914 52.1247C97.2244 51.96 97.2681 51.7952 97.3157 51.6324C97.3632 51.4753 97.403 51.3087 97.4545 51.1536C97.539 50.8835 97.6342 50.6287 97.7283 50.4008C97.7536 50.3443 97.7788 50.2887 97.8002 50.2332C97.8245 50.1786 97.8429 50.1259 97.8653 50.0723C97.906 49.9679 97.9449 49.8721 97.9837 49.784C98.1371 49.4306 98.2546 49.2161 98.2546 49.2161C98.2546 49.2161 98.5527 49.6605 98.9004 50.3347C98.9887 50.5033 99.08 50.6843 99.1694 50.8796C99.213 50.9764 99.2577 51.0779 99.3004 51.1765C99.3441 51.2771 99.381 51.3796 99.4238 51.484C99.5791 51.8977 99.718 52.3431 99.8112 52.7836C99.85 52.9541 99.8782 53.1217 99.9005 53.2864C99.9209 53.4502 99.9268 53.6082 99.9268 53.7605C99.9268 54.2384 99.8277 54.6531 99.6859 55.0075C99.5335 55.3551 99.3296 55.6319 99.1354 55.8512Z" fill="#F9F5E9"/>
<path fill-rule="evenodd" clip-rule="evenodd" d="M106.751 49.9132C106.54 49.9228 106.342 49.9199 106.157 49.9084C105.427 49.8615 104.943 49.6901 104.943 49.6901C104.943 49.6901 104.961 49.5876 105.017 49.419C105.043 49.3357 105.083 49.238 105.13 49.126C105.173 49.0101 105.228 48.8865 105.297 48.7544C105.44 48.4881 105.635 48.1941 105.918 47.9029C105.983 47.8369 106.055 47.765 106.135 47.6827C106.211 47.608 106.295 47.5352 106.382 47.4624C106.558 47.3178 106.758 47.177 106.984 47.0429C107.212 46.9107 107.463 46.7843 107.734 46.6627C107.989 46.5382 108.266 46.4204 108.545 46.3045C109.103 46.0766 109.689 45.8687 110.221 45.6906C110.744 45.5086 111.204 45.3535 111.543 45.2462C111.88 45.138 112.087 45.0776 112.087 45.0776C112.087 45.0776 112.01 45.2721 111.863 45.5843C111.79 45.7413 111.702 45.931 111.591 46.1331C111.475 46.3371 111.345 46.5564 111.2 46.7881C111.056 47.0199 110.894 47.2593 110.724 47.4997C110.681 47.5582 110.637 47.6185 110.591 47.6769C110.546 47.7334 110.499 47.7909 110.448 47.8512C110.352 47.9671 110.251 48.0801 110.149 48.1903C109.942 48.4144 109.727 48.626 109.507 48.8157C109.396 48.9133 109.286 49.0034 109.169 49.0867C109.051 49.1671 108.932 49.2438 108.811 49.3127C108.331 49.5876 107.849 49.7475 107.4 49.8347C107.174 49.8797 106.956 49.9017 106.751 49.9132Z" fill="#F9F5E9"/>
<path fill-rule="evenodd" clip-rule="evenodd" d="M104.581 47.3618C104.535 47.7306 104.428 48.0543 104.306 48.3177C104.245 48.4498 104.18 48.5657 104.118 48.6663C104.055 48.7668 103.986 48.8502 103.932 48.9153C103.82 49.0494 103.741 49.1174 103.741 49.1174C103.741 49.1174 103.316 48.8396 102.837 48.3397C102.718 48.2161 102.597 48.0782 102.474 47.9279C102.346 47.7737 102.223 47.608 102.107 47.4327C101.875 47.0803 101.668 46.6847 101.537 46.2518C101.503 46.1427 101.479 46.0335 101.452 45.9205C101.424 45.8075 101.402 45.6925 101.382 45.5786C101.345 45.3477 101.32 45.115 101.314 44.8852C101.306 44.4293 101.298 43.9715 101.332 43.5759C101.348 43.3767 101.368 43.19 101.39 43.0243C101.404 42.8557 101.419 42.7063 101.437 42.5837C101.465 42.3338 101.495 42.1863 101.495 42.1863C101.495 42.1863 101.645 42.3098 101.879 42.5272C102.113 42.7437 102.433 43.0549 102.774 43.4304C103.103 43.801 103.448 44.2358 103.747 44.6965C103.9 44.9273 104.04 45.1639 104.164 45.4023C104.282 45.636 104.373 45.8707 104.445 46.1015C104.515 46.3285 104.557 46.5506 104.581 46.7604C104.593 46.8667 104.6 46.9701 104.6 47.0697C104.6 47.1205 104.6 47.1703 104.598 47.2182C104.593 47.2651 104.588 47.313 104.581 47.3618Z" fill="#F9F5E9"/>
<path fill-rule="evenodd" clip-rule="evenodd" d="M111.003 40.4183C110.796 40.561 110.587 40.6788 110.379 40.7784C109.964 40.9757 109.559 41.0945 109.205 41.1663C108.493 41.309 107.979 41.2688 107.979 41.2688C107.979 41.2688 107.919 40.8531 108.053 40.2756C108.082 40.1281 108.138 39.9739 108.188 39.8102C108.24 39.6445 108.309 39.4721 108.398 39.2968C108.485 39.1196 108.597 38.9367 108.73 38.7538C108.797 38.6618 108.868 38.5689 108.947 38.477C108.987 38.431 109.028 38.385 109.071 38.3372C109.11 38.2912 109.152 38.2462 109.198 38.1983C109.896 37.4551 111.026 36.6918 111.917 36.0721C112.369 35.7647 112.779 35.5004 113.077 35.3098C113.375 35.1201 113.562 35.01 113.562 35.01C113.562 35.01 113.536 35.2159 113.477 35.555C113.417 35.894 113.328 36.3614 113.189 36.8785C113.029 37.3967 112.824 37.9636 112.569 38.4971C112.508 38.6302 112.435 38.7605 112.357 38.8888C112.281 39.0143 112.202 39.1407 112.121 39.2595C111.956 39.4989 111.78 39.723 111.592 39.9145C111.4 40.1099 111.212 40.2775 111.003 40.4183Z" fill="#F9F5E9"/>
<path fill-rule="evenodd" clip-rule="evenodd" d="M106.659 41.0245C106.659 41.0245 106.168 40.8646 105.562 40.5054C105.254 40.3244 104.921 40.0965 104.603 39.8187C104.444 39.678 104.29 39.5266 104.144 39.3619C103.992 39.1953 103.845 39.0171 103.717 38.8246C103.587 38.6321 103.475 38.4252 103.376 38.2136C103.277 38.0029 103.207 37.7864 103.121 37.5652C102.959 37.1266 102.851 36.686 102.774 36.2962C102.677 35.9007 102.62 35.5549 102.585 35.3078C102.552 35.0588 102.542 34.9094 102.542 34.9094C102.542 34.9094 102.718 34.9908 103.003 35.1402C103.287 35.2925 103.674 35.5099 104.105 35.7848C104.53 36.0597 105.008 36.3929 105.414 36.7598C105.828 37.1266 106.208 37.5298 106.485 37.9378C106.627 38.1389 106.717 38.341 106.798 38.5383C106.873 38.7346 106.925 38.9281 106.96 39.1148C106.995 39.2997 107.014 39.4778 107.016 39.6444C107.022 39.8101 106.995 39.9672 106.973 40.108C106.873 40.675 106.659 41.0245 106.659 41.0245Z" fill="#F9F5E9"/>
<path fill-rule="evenodd" clip-rule="evenodd" d="M112.121 27.852C112.087 28.0723 112.046 28.2935 111.997 28.51C111.892 28.9419 111.769 29.3509 111.566 29.71C111.308 30.1841 110.988 30.5624 110.651 30.8612C110.313 31.1591 109.969 31.3784 109.642 31.5402C108.992 31.8668 108.485 31.9626 108.485 31.9626C108.485 31.9626 108.442 31.8678 108.4 31.6983C108.359 31.5259 108.292 31.2845 108.266 30.9905C108.238 30.6936 108.244 30.345 108.322 29.9571C108.39 29.5702 108.513 29.1469 108.756 28.6929C108.836 28.5435 108.928 28.3864 109.028 28.2303C109.076 28.1547 109.128 28.0752 109.181 27.9947C109.232 27.9181 109.284 27.8357 109.336 27.7582C109.606 27.3645 109.909 26.9661 110.216 26.5859C110.521 26.2057 110.83 25.8408 111.088 25.5314C111.613 24.907 112.01 24.4731 112.01 24.4731C112.01 24.4731 112.071 24.7921 112.134 25.2882C112.172 25.5372 112.185 25.8341 112.194 26.1559C112.203 26.4777 112.203 26.8282 112.188 27.1854C112.182 27.4028 112.153 27.6289 112.121 27.852Z" fill="#F9F5E9"/>
<path fill-rule="evenodd" clip-rule="evenodd" d="M103.683 30.7366C103.618 30.683 103.557 30.6246 103.496 30.5652C103.433 30.5048 103.368 30.4435 103.308 30.3803C103.182 30.2568 103.07 30.1246 102.961 29.9886C102.855 29.8545 102.753 29.7157 102.658 29.5749C102.558 29.4255 102.468 29.2856 102.381 29.1554C102.224 28.9169 102.088 28.6784 101.97 28.4601C101.911 28.3499 101.858 28.2427 101.809 28.144C101.765 28.0425 101.707 27.9515 101.664 27.8653C101.487 27.5244 101.397 27.2993 101.397 27.2993C101.397 27.2993 101.943 27.3846 102.711 27.5886C102.899 27.6384 103.109 27.6949 103.313 27.7648C103.52 27.8309 103.735 27.9075 103.951 27.9908C104.384 28.1565 104.826 28.3547 105.237 28.5817C105.558 28.7551 105.828 28.9524 106.073 29.1583C106.445 29.4753 106.712 29.8229 106.887 30.161C107.053 30.501 107.14 30.8305 107.18 31.1139C107.219 31.4003 107.226 31.6388 107.198 31.8093C107.177 31.9788 107.146 32.0774 107.146 32.0774C107.146 32.0774 106.631 32.0525 105.948 31.8658C105.265 31.6809 104.381 31.3438 103.683 30.7366Z" fill="#F9F5E9"/>
<path fill-rule="evenodd" clip-rule="evenodd" d="M108.002 21.2552C107.76 21.6335 107.484 21.94 107.223 22.1833C106.7 22.6669 106.242 22.8949 106.242 22.8949C106.242 22.8949 106.173 22.8135 106.077 22.665C105.979 22.5146 105.865 22.2905 105.751 22.0147C105.632 21.7398 105.533 21.4056 105.487 21.0129C105.464 20.8204 105.464 20.6069 105.464 20.3875C105.465 20.1663 105.488 19.9326 105.533 19.6846C105.579 19.4356 105.647 19.1731 105.727 18.905C105.768 18.7709 105.814 18.633 105.86 18.497C105.908 18.3629 105.952 18.2259 106 18.089C106.192 17.5431 106.419 16.9924 106.631 16.4992C106.739 16.2549 106.84 16.0222 106.932 15.8115C107.025 15.6046 107.107 15.4198 107.177 15.2656C107.316 14.9534 107.403 14.7676 107.403 14.7676C107.403 14.7676 107.506 14.9534 107.655 15.2656C107.735 15.4179 107.81 15.6113 107.896 15.8249C107.979 16.0423 108.068 16.2827 108.153 16.5375C108.194 16.6648 108.236 16.798 108.279 16.932C108.318 17.0671 108.359 17.204 108.39 17.3487C108.453 17.6312 108.506 17.9271 108.546 18.2183C108.585 18.5104 108.612 18.8025 108.612 19.0841C108.607 19.3723 108.58 19.651 108.53 19.9106C108.427 20.4325 108.236 20.8788 108.002 21.2552Z" fill="#F9F5E9"/>
<path fill-rule="evenodd" clip-rule="evenodd" d="M100.646 22.6562C100.439 22.5317 100.236 22.3919 100.049 22.2473C99.8593 22.0998 99.6855 21.9475 99.5185 21.7952C99.3505 21.6458 99.1815 21.4983 99.0368 21.3547C98.8883 21.211 98.7562 21.0721 98.6387 20.9476C98.5804 20.8825 98.5251 20.8222 98.4746 20.7676C98.4231 20.712 98.3746 20.6622 98.3319 20.6153C98.1532 20.4276 98.0571 20.3098 98.0571 20.3098C98.0571 20.3098 98.2542 20.2858 98.5834 20.2657C98.9096 20.2446 99.3738 20.2217 99.8826 20.2408C100.392 20.2571 100.969 20.3031 101.533 20.395C101.677 20.4199 101.819 20.4448 101.958 20.4735C102.093 20.5071 102.226 20.5406 102.357 20.5789C102.618 20.6536 102.869 20.7436 103.097 20.8471C103.325 20.9476 103.529 21.0635 103.709 21.189C103.893 21.3135 104.038 21.4543 104.172 21.5922C104.432 21.8737 104.616 22.163 104.746 22.4254C104.87 22.6869 104.923 22.9244 104.954 23.091C104.987 23.2596 104.988 23.3611 104.988 23.3611C104.988 23.3611 104.487 23.476 103.774 23.4789C103.416 23.4827 103.011 23.4578 102.585 23.3841C102.15 23.3142 101.699 23.1954 101.266 23.0029C101.053 22.9043 100.848 22.7874 100.646 22.6562Z" fill="#F9F5E9"/>
<path fill-rule="evenodd" clip-rule="evenodd" d="M102.898 13.0992C102.775 13.5234 102.598 13.8883 102.417 14.1872C102.054 14.7829 101.681 15.1181 101.681 15.1181C101.681 15.1181 101.314 14.8825 100.947 14.4036C100.853 14.2829 100.761 14.1479 100.674 13.9947C100.585 13.8472 100.492 13.6824 100.414 13.5033C100.255 13.1432 100.138 12.7094 100.09 12.2047C100.034 11.7057 100.045 11.1368 100.086 10.5554C100.131 9.9674 100.183 9.39181 100.246 8.8641C100.312 8.33735 100.38 7.87093 100.429 7.53285C100.483 7.19956 100.515 6.99365 100.515 6.99365C100.515 6.99365 100.556 7.02813 100.62 7.10283C100.683 7.17658 100.776 7.28193 100.888 7.41697C101.114 7.68609 101.419 8.06439 101.732 8.50878C102.029 8.96753 102.335 9.49237 102.58 10.0277C102.817 10.5746 102.983 11.1435 103.038 11.6645C103.052 11.7967 103.058 11.9231 103.058 12.0495C103.058 12.175 103.047 12.2995 103.034 12.4201C103.007 12.6615 102.959 12.8885 102.898 13.0992Z" fill="#F9F5E9"/>
<path fill-rule="evenodd" clip-rule="evenodd" d="M96.2047 16.319C96.0892 16.2826 95.9775 16.2414 95.862 16.1964C95.8076 16.1753 95.7522 16.1533 95.6959 16.1303C95.6377 16.1063 95.5833 16.0862 95.526 16.0642C95.0725 15.8851 94.6589 15.6648 94.2986 15.458C93.9267 15.2655 93.6208 15.072 93.4043 14.9322C93.2955 14.8594 93.2101 14.799 93.1538 14.7598C93.0906 14.7196 93.0586 14.6994 93.0586 14.6994C93.0586 14.6994 93.1052 14.6822 93.1907 14.6487C93.2781 14.6161 93.4004 14.573 93.5529 14.5251C93.8578 14.4265 94.2918 14.2972 94.7929 14.1794C95.0453 14.121 95.3114 14.0645 95.5901 14.0166C95.728 13.9936 95.8697 13.9697 96.0096 13.9505C96.1504 13.9342 96.2912 13.9199 96.431 13.9084C96.9971 13.8614 97.5642 13.8633 98.0682 13.9428C98.5644 14.0252 98.9702 14.1976 99.3082 14.3939C99.4781 14.4935 99.6315 14.5998 99.7607 14.7119C99.8908 14.8249 99.9986 14.9417 100.093 15.0519C100.474 15.5001 100.604 15.8842 100.604 15.8842C100.604 15.8842 100.151 16.1245 99.4596 16.3123C99.1149 16.408 98.7119 16.4904 98.2789 16.5297C97.8438 16.5708 97.3933 16.5555 96.9126 16.4875C96.6708 16.4502 96.4359 16.3908 96.2047 16.319Z" fill="#F9F5E9"/>
<path fill-rule="evenodd" clip-rule="evenodd" d="M94.8911 8.23386C94.8008 8.42349 94.7377 8.52884 94.7377 8.52884C94.7377 8.52884 94.7105 8.52118 94.6648 8.50011C94.6173 8.48287 94.5503 8.45605 94.4658 8.41583C94.2978 8.34017 94.0686 8.2195 93.821 8.03657C93.3365 7.66018 92.7383 7.1047 92.3567 6.14984C92.2266 5.83667 92.1081 5.49284 92.0081 5.12507C91.8809 4.66824 91.776 4.18171 91.6847 3.70859C91.5886 3.24697 91.5051 2.79588 91.4371 2.39746C91.3031 1.60446 91.2303 1.03174 91.2303 1.03174C91.2303 1.03174 91.5177 1.20317 91.9469 1.49911C92.1586 1.64373 92.4082 1.82282 92.6713 2.0249C92.9286 2.23752 93.1996 2.47504 93.4656 2.72883C93.6307 2.8859 93.7899 3.04776 93.9453 3.21536C93.9832 3.25654 94.024 3.29773 94.0618 3.34082C94.0968 3.38392 94.1337 3.42798 94.1706 3.47395C94.2405 3.56397 94.3094 3.654 94.3794 3.74498C94.6474 4.10605 94.8746 4.48148 95.0309 4.85212C95.1358 5.09155 95.2009 5.34535 95.2465 5.58095C95.2902 5.81847 95.3125 6.04737 95.3154 6.2686C95.3251 6.7082 95.2611 7.10278 95.1727 7.43799C95.0863 7.77319 94.9785 8.04327 94.8911 8.23386Z" fill="#F9F5E9"/>
<path fill-rule="evenodd" clip-rule="evenodd" d="M88.4492 10.9673C88.1579 10.9118 87.8839 10.8448 87.6325 10.7796C87.379 10.7231 87.1489 10.6628 86.9566 10.6082C86.575 10.4971 86.3391 10.4061 86.3391 10.4061C86.3391 10.4061 86.7731 10.0805 87.4412 9.68399C87.7723 9.4867 88.1646 9.27025 88.5928 9.07009C89.0123 8.87471 89.4599 8.70136 89.9085 8.56824C90.2542 8.46672 90.5999 8.38723 90.9262 8.35275C91.9215 8.26464 92.7071 8.54621 93.1945 8.8862C93.4441 9.05093 93.6276 9.21662 93.7509 9.34112C93.8121 9.40146 93.8577 9.45414 93.8869 9.48957C93.916 9.52884 93.9296 9.54895 93.9296 9.54895C93.9296 9.54895 93.8403 9.6361 93.6732 9.76731C93.5062 9.90044 93.2615 10.0786 92.9576 10.2596C92.6537 10.4444 92.2906 10.6302 91.8876 10.7835C91.6847 10.8582 91.4709 10.9281 91.2505 10.9798C91.0301 11.0344 90.8038 11.0708 90.5611 11.1024C89.8571 11.1886 89.127 11.0756 88.4492 10.9673Z" fill="#F9F5E9"/>
<path fill-rule="evenodd" clip-rule="evenodd" d="M78.0518 66.9236C78.2431 66.8996 78.4799 66.8718 78.7469 66.8402C78.8829 66.8201 79.0266 66.8115 79.1761 66.7837C79.3247 66.7579 79.482 66.7301 79.6451 66.7023C79.9743 66.6468 80.3297 66.5874 80.7074 66.5232C81.0803 66.4418 81.4726 66.3556 81.8775 66.2694C82.0834 66.2215 82.2912 66.1832 82.4971 66.1277C82.7029 66.0712 82.9117 66.0156 83.1234 65.9582C83.5438 65.8423 83.9759 65.7398 84.3945 65.5952C86.0967 65.0933 87.7241 64.399 88.9243 63.8464C89.2185 63.7018 89.4943 63.5686 89.7341 63.4527C89.8565 63.3943 89.9672 63.3388 90.0711 63.2871C90.175 63.2353 90.2672 63.1817 90.3517 63.1376C90.6906 62.9528 90.8809 62.8465 90.8809 62.8465C90.8809 62.8465 91.0732 62.7431 91.4131 62.5582C91.7481 62.3676 92.2112 62.0746 92.7725 61.7355C93.8727 61.022 95.3147 60.0222 96.6304 58.8834C97.952 57.7485 99.1658 56.5092 100.02 55.5371C100.133 55.4203 100.227 55.2986 100.323 55.1847C100.418 55.0707 100.505 54.9653 100.589 54.8629C100.757 54.6617 100.904 54.4846 101.024 54.338C101.147 54.1953 101.23 54.0727 101.29 53.9933C101.351 53.9109 101.385 53.8697 101.385 53.8697C101.385 53.8697 101.512 53.6983 101.738 53.3956C101.849 53.2453 101.993 53.0662 102.14 52.8497C102.286 52.6333 102.453 52.3881 102.631 52.1218C102.723 51.9897 102.817 51.8508 102.912 51.7062C103.011 51.5616 103.097 51.4074 103.194 51.2513C103.387 50.9352 103.585 50.6029 103.792 50.26C103.98 49.9066 104.178 49.5427 104.378 49.174C104.43 49.0801 104.479 48.9872 104.53 48.8953C104.575 48.7985 104.618 48.7028 104.666 48.6079C104.757 48.4164 104.848 48.2239 104.942 48.0304C105.663 46.4885 106.26 44.8929 106.601 43.6661C106.648 43.5138 106.69 43.3672 106.733 43.2293C106.774 43.0905 106.816 42.9593 106.842 42.8347C106.902 42.5838 106.959 42.3635 107 42.1835C107.088 41.8234 107.14 41.6175 107.14 41.6175C107.14 41.6175 107.152 41.5658 107.177 41.469C107.198 41.3752 107.223 41.2296 107.258 41.0467C107.292 40.8657 107.333 40.6463 107.379 40.3916C107.426 40.1397 107.491 39.8543 107.525 39.5382C107.568 39.2241 107.614 38.8841 107.661 38.524C107.673 38.4349 107.688 38.343 107.697 38.2511C107.71 38.1591 107.715 38.0653 107.724 37.9685C107.736 37.7799 107.755 37.5845 107.769 37.3872C107.853 36.599 107.853 35.7533 107.879 34.9095C107.853 34.0639 107.853 33.2191 107.769 32.43C107.755 32.2336 107.736 32.0392 107.724 31.8496C107.715 31.7538 107.71 31.66 107.697 31.568C107.688 31.4751 107.673 31.3832 107.661 31.2932C107.614 30.934 107.568 30.5921 107.525 30.2789C107.491 29.9629 107.426 29.6803 107.379 29.4256C107.333 29.1727 107.292 28.9525 107.258 28.7705C107.223 28.5895 107.198 28.4439 107.177 28.3481C107.152 28.2514 107.14 28.1997 107.14 28.1997C107.14 28.1997 107.088 27.9947 107 27.6346C106.959 27.4546 106.902 27.2362 106.842 26.9853C106.816 26.8598 106.774 26.7267 106.733 26.5888C106.69 26.449 106.648 26.3043 106.601 26.1511C106.26 24.9262 105.663 23.3306 104.942 21.7867C104.848 21.5961 104.757 21.4008 104.666 21.2102C104.618 21.1135 104.575 21.0206 104.53 20.9238C104.479 20.8309 104.43 20.738 104.378 20.6432C104.178 20.2735 103.98 19.9096 103.792 19.5581C103.585 19.2152 103.387 18.8829 103.194 18.5678C103.097 18.4127 103.011 18.2556 102.912 18.1119C102.817 17.9673 102.723 17.8294 102.631 17.6953C102.453 17.4291 102.286 17.1839 102.14 16.9684C101.993 16.752 101.849 16.5738 101.738 16.4225C101.512 16.1208 101.385 15.9494 101.385 15.9494C101.385 15.9494 101.351 15.9063 101.29 15.8249C101.23 15.7454 101.147 15.6228 101.024 15.4801C100.904 15.3345 100.757 15.1583 100.589 14.9553C100.505 14.8537 100.418 14.7465 100.323 14.6306C100.227 14.5195 100.133 14.3979 100.02 14.2801C99.1658 13.3099 97.952 12.0696 96.6304 10.9337C95.3147 9.79501 93.8727 8.79705 92.7725 8.08067C92.2112 7.7426 91.7481 7.44953 91.4131 7.26086C91.0732 7.07602 90.8809 6.96971 90.8809 6.96971C90.8809 6.96971 90.6906 6.86532 90.3517 6.68047C90.2672 6.63546 90.175 6.58566 90.0711 6.52915C89.9672 6.47935 89.8565 6.4238 89.7341 6.36538C89.6526 6.32516 89.5691 6.28493 89.4817 6.24375C89.4749 6.24375 89.4682 6.24375 89.4604 6.24375C89.2458 6.26195 88.9418 6.27152 88.5854 6.25237C87.8659 6.22076 86.9356 6.07423 86.1161 5.63176C85.6917 5.41723 85.2917 5.12608 84.9441 4.81099C84.7741 4.652 84.5974 4.49302 84.4333 4.33499C84.2711 4.17697 84.1226 4.01799 83.9856 3.86475C83.7254 3.55636 83.4817 3.29011 83.3224 3.0909C83.1651 2.8917 83.0758 2.76623 83.0758 2.76623C83.0758 2.76623 83.2729 2.75761 83.5992 2.75523C83.9254 2.75283 84.3838 2.7624 84.9004 2.80263C85.0305 2.81412 85.1645 2.8237 85.2995 2.83998C85.4335 2.85626 85.5694 2.87446 85.7053 2.89649C85.9792 2.93767 86.2588 2.99034 86.5356 3.05451C87.0862 3.1838 87.6445 3.35045 88.0717 3.58701C88.5087 3.82069 88.8447 4.10418 89.101 4.39437C89.3467 4.6884 89.5001 4.99295 89.6118 5.26208C89.7147 5.53024 89.7702 5.76584 89.7906 5.93632C89.7964 5.96888 89.7973 5.99953 89.7992 6.02826C89.8313 6.04454 89.8633 6.06178 89.8963 6.07423C90.0167 6.13553 90.1303 6.19012 90.2371 6.24088C90.3391 6.29834 90.4343 6.34814 90.5207 6.39603C90.8596 6.58087 91.0538 6.68814 91.0538 6.68814C91.0538 6.68814 91.2499 6.79349 91.5917 6.97928C91.9267 7.17083 92.3957 7.46581 92.9657 7.81059C94.0776 8.53081 95.5322 9.54025 96.8635 10.6914C98.1967 11.8369 99.4212 13.0896 100.287 14.0703C100.4 14.1891 100.494 14.3145 100.589 14.4266C100.687 14.5415 100.776 14.6497 100.859 14.7532C101.029 14.9572 101.178 15.1353 101.298 15.2828C101.423 15.4274 101.506 15.551 101.569 15.6314C101.629 15.7119 101.663 15.7559 101.663 15.7559C101.663 15.7559 101.793 15.9302 102.022 16.2329C102.133 16.388 102.278 16.5681 102.428 16.7855C102.577 17.0048 102.742 17.2519 102.923 17.5201C103.017 17.6551 103.109 17.7949 103.208 17.9405C103.304 18.0861 103.394 18.2451 103.494 18.4021C103.683 18.7182 103.888 19.0553 104.096 19.4029C104.288 19.7573 104.487 20.1251 104.687 20.5005C104.738 20.5944 104.789 20.6882 104.841 20.7821C104.885 20.8769 104.933 20.9736 104.977 21.0704C105.07 21.2648 105.163 21.4601 105.254 21.6546C105.986 23.2128 106.591 24.8247 106.932 26.062C106.981 26.2162 107.023 26.3628 107.064 26.5045C107.107 26.6463 107.152 26.7765 107.178 26.9048C107.239 27.1567 107.294 27.3789 107.336 27.5609C107.426 27.9229 107.477 28.1317 107.477 28.1317C107.477 28.1317 107.49 28.1844 107.513 28.2811C107.537 28.3788 107.56 28.5244 107.596 28.7073C107.629 28.8912 107.673 29.1153 107.72 29.371C107.765 29.6267 107.831 29.914 107.867 30.232C107.91 30.55 107.957 30.8938 108.004 31.2568C108.015 31.3487 108.03 31.4406 108.041 31.5326C108.053 31.6284 108.058 31.7232 108.067 31.818C108.082 32.0095 108.096 32.204 108.113 32.408C108.197 33.2019 108.197 34.0552 108.227 34.9095C108.197 35.7629 108.197 36.6153 108.113 37.413C108.096 37.6123 108.082 37.8067 108.067 38.0011C108.058 38.0969 108.053 38.1917 108.041 38.2827C108.03 38.3765 108.015 38.4713 108.004 38.5614C107.957 38.9234 107.91 39.2701 107.867 39.5871C107.831 39.9031 107.765 40.1914 107.72 40.4481C107.673 40.7038 107.629 40.925 107.596 41.1099C107.56 41.2938 107.537 41.4384 107.513 41.537C107.49 41.6338 107.477 41.6864 107.477 41.6864C107.477 41.6864 107.426 41.8933 107.336 42.2563C107.294 42.4392 107.239 42.6614 107.178 42.9123C107.152 43.0397 107.107 43.1738 107.064 43.3127C107.023 43.4544 106.981 43.6019 106.932 43.7561C106.591 44.9935 105.986 46.6044 105.254 48.1655C105.163 48.358 105.07 48.5533 104.977 48.7468C104.933 48.8445 104.885 48.9403 104.841 49.036C104.789 49.128 104.738 49.2247 104.687 49.3186C104.487 49.6911 104.288 50.0599 104.096 50.4152C103.888 50.7619 103.683 51.098 103.494 51.416C103.394 51.5731 103.304 51.7311 103.208 51.8767C103.109 52.0213 103.017 52.164 102.923 52.2981C102.742 52.5672 102.577 52.8143 102.428 53.0326C102.278 53.2501 102.133 53.4311 102.022 53.5843C101.793 53.8879 101.663 54.0622 101.663 54.0622C101.663 54.0622 101.629 54.1063 101.569 54.1877C101.506 54.2681 101.423 54.3907 101.298 54.5353C101.178 54.6819 101.029 54.861 100.859 55.0669C100.776 55.1684 100.687 55.2766 100.589 55.3915C100.494 55.5026 100.4 55.6291 100.287 55.7469C99.4212 56.7295 98.1967 57.9812 96.8635 59.1267C95.5322 60.276 94.0776 61.2854 92.9657 62.0085C92.3957 62.3523 91.9267 62.6463 91.5917 62.8388C91.2499 63.0256 91.0538 63.13 91.0538 63.13C91.0538 63.13 90.8596 63.2382 90.5207 63.4221C90.4343 63.469 90.3391 63.5207 90.2371 63.5763C90.1303 63.628 90.0167 63.6826 89.8963 63.741C89.6526 63.8598 89.3778 63.9948 89.0768 64.1404C87.8639 64.6978 86.219 65.3988 84.5003 65.9064C84.0779 66.052 83.6419 66.1545 83.2146 66.2723C83.0049 66.3307 82.7922 66.3882 82.5835 66.4437C82.3776 66.5012 82.1669 66.5386 81.961 66.5864C81.5503 66.6755 81.1522 66.7617 80.7764 66.845C80.3967 66.9082 80.0365 66.9686 79.7044 67.0251C79.5383 67.0529 79.381 67.0816 79.2305 67.1065C79.0771 67.1352 78.9324 67.1458 78.7974 67.1649C78.5246 67.1975 78.2876 67.2243 78.0915 67.2492C77.7031 67.2971 77.4797 67.3239 77.4797 67.3239L77.4438 66.9963C77.4438 66.9963 77.6663 66.9705 78.0518 66.9236Z" fill="#F9F5E9"/>
<path fill-rule="evenodd" clip-rule="evenodd" d="M81.8779 66.6037C81.8779 66.6037 77.1869 67.7836 76.1323 72.0455L76.2644 67.0241L81.5653 66.3374L81.8779 66.6037Z" fill="#F9F5E9"/>
</g>
<mask id="mask2_1_253" style="mask-type:luminance" maskUnits="userSpaceOnUse" x="0" y="1" width="39" height="73">
<path d="M38.0625 1.5H0.0625V73.5H38.0625V1.5Z" fill="white"/>
</mask>
<g mask="url(#mask2_1_253)">
<path fill-rule="evenodd" clip-rule="evenodd" d="M28.8554 67.1899C28.6476 67.188 28.4292 67.2014 28.1971 67.232C28.1379 67.2416 28.0767 67.2512 28.0184 67.2617C27.9582 67.2703 27.9009 67.2809 27.8388 67.2904C27.7184 67.3134 27.5912 67.3422 27.4649 67.3757C26.9551 67.5117 26.3968 67.7339 25.8385 67.9877C25.2918 68.2242 24.7402 68.4905 24.245 68.7424C23.7517 68.9923 23.3128 69.2318 23.004 69.3927C22.6952 69.5555 22.5088 69.6599 22.5088 69.6599C22.5088 69.6599 22.5573 69.6771 22.6544 69.7135C22.7486 69.7441 22.8836 69.7968 23.0565 69.8437C23.4041 69.9414 23.8915 70.0688 24.4431 70.178C24.5819 70.2058 24.7208 70.2364 24.8684 70.2575C25.017 70.2786 25.1684 70.2948 25.319 70.3111C25.6239 70.3427 25.9346 70.3667 26.2463 70.3743C26.8629 70.4002 27.4853 70.3236 28.0194 70.178C29.0875 69.8916 29.8119 69.2432 30.2615 68.704C30.714 68.162 30.9063 67.7061 30.9063 67.7061C30.9063 67.7061 30.5402 67.4724 29.9304 67.3326C29.6264 67.2607 29.2681 67.1899 28.8554 67.1899Z" fill="#F9F5E9"/>
<path fill-rule="evenodd" clip-rule="evenodd" d="M30.4919 62.9987C30.2423 62.608 29.9132 62.2661 29.5723 61.9309C29.4034 61.7642 29.2266 61.6129 29.047 61.4712C28.9557 61.3993 28.8683 61.3323 28.7848 61.2672C28.7013 61.1972 28.6168 61.1302 28.5343 61.067C28.2051 60.8161 27.9041 60.615 27.6866 60.4799C27.4691 60.3334 27.336 60.2529 27.336 60.2529C27.336 60.2529 27.3341 60.4426 27.3467 60.7548C27.3545 61.0737 27.3885 61.4941 27.4574 61.9778C27.5273 62.4605 27.6351 63.0016 27.7905 63.5303C27.9507 64.0417 28.1653 64.5397 28.4275 64.9525C28.4906 65.0559 28.5595 65.1536 28.6304 65.2446C28.6644 65.2915 28.7013 65.3337 28.7392 65.3768C28.7761 65.417 28.812 65.4563 28.8499 65.4946C29.0033 65.6459 29.1635 65.7752 29.3247 65.8853C29.4849 65.9964 29.6452 66.0893 29.8025 66.164C29.9578 66.2378 30.1103 66.3039 30.255 66.3422C30.8356 66.504 31.259 66.4763 31.259 66.4763C31.259 66.4763 31.326 65.9869 31.2561 65.3126C31.2211 64.9745 31.1561 64.5905 31.0337 64.1978C31.0036 64.1001 30.9706 63.9996 30.9308 63.9019C30.8968 63.8004 30.857 63.6979 30.8104 63.5964C30.7201 63.3952 30.6172 63.1922 30.4919 62.9987Z" fill="#F9F5E9"/>
<path fill-rule="evenodd" clip-rule="evenodd" d="M22.2255 64.1588C22.1896 64.1243 22.1343 64.0802 22.0673 64.0208C21.9284 63.9021 21.7225 63.745 21.4545 63.5956C21.3176 63.519 21.17 63.4462 21.0001 63.3792C20.8331 63.3112 20.6457 63.2518 20.4524 63.1905C20.0601 63.0775 19.5999 63.0066 19.0629 63.0171C18.792 63.0229 18.5143 63.0373 18.223 63.065C17.9336 63.0928 17.6335 63.134 17.3335 63.1828C17.0296 63.2307 16.7237 63.2882 16.4275 63.3437C16.1381 63.4022 15.8498 63.4596 15.5769 63.5142C15.0331 63.6282 14.5495 63.7374 14.2048 63.8197C13.8543 63.903 13.6465 63.9586 13.6465 63.9586C13.6465 63.9586 13.8252 64.0802 14.1301 64.2679C14.2777 64.3618 14.4622 64.47 14.669 64.5878C14.77 64.6462 14.8807 64.7075 14.9962 64.7698C15.1118 64.8301 15.2351 64.8885 15.3623 64.9479C15.6167 65.0657 15.8886 65.1835 16.1692 65.2965C16.312 65.3502 16.4518 65.4038 16.5984 65.4555C16.6712 65.4823 16.7431 65.5082 16.8159 65.5312C16.8897 65.5513 16.9645 65.5733 17.0402 65.5944C17.6394 65.7563 18.2472 65.8626 18.7978 65.8607C19.9252 65.829 20.7913 65.4134 21.3769 65.0102C21.6691 64.8138 21.8973 64.6079 22.0498 64.4576C22.2013 64.3082 22.2799 64.2105 22.2799 64.2105C22.2799 64.2105 22.2615 64.1923 22.2255 64.1588Z" fill="#F9F5E9"/>
<path fill-rule="evenodd" clip-rule="evenodd" d="M20.6721 60.9265C20.8129 61.3795 21.0304 61.7549 21.2721 62.0547C21.3906 62.2098 21.5227 62.3343 21.6547 62.4416C21.7858 62.5508 21.9198 62.6437 22.047 62.7232C22.2995 62.8812 22.5306 62.9808 22.6957 63.0421C22.7782 63.0746 22.851 63.09 22.8957 63.1015C22.9472 63.1129 22.9715 63.1177 22.9715 63.1177C22.9715 63.1177 23.0229 63.0038 23.086 62.8093C23.1511 62.613 23.2307 62.3362 23.2938 61.9982C23.424 61.3239 23.4803 60.439 23.2123 59.5732C23.088 59.1288 22.8763 58.6997 22.6287 58.3061C22.3908 57.9048 22.1276 57.5236 21.8693 57.2085C21.7382 57.0534 21.6256 56.8973 21.5159 56.7642C21.4091 56.6291 21.3071 56.5142 21.2226 56.4184C21.0546 56.2269 20.943 56.1187 20.943 56.1187C20.943 56.1187 20.8876 56.3006 20.8148 56.6013C20.742 56.9011 20.6507 57.3263 20.5779 57.81C20.5429 58.0542 20.507 58.3166 20.4866 58.5819C20.471 58.8434 20.4623 59.1135 20.4672 59.3826C20.471 59.6527 20.4866 59.9237 20.5196 60.1861C20.5546 60.4457 20.5973 60.7023 20.6721 60.9265Z" fill="#F9F5E9"/>
<path fill-rule="evenodd" clip-rule="evenodd" d="M14.5058 58.102C14.4038 57.9574 14.2592 57.7496 14.0436 57.5331C13.83 57.3167 13.5484 57.0916 13.1959 56.8819C12.8541 56.6674 12.4336 56.4758 11.9161 56.3436C11.7442 56.2986 11.5587 56.2613 11.3733 56.2239C11.1878 56.1856 10.9975 56.154 10.7994 56.1234C9.82447 55.9788 8.71749 55.9242 7.88532 55.8724C7.04149 55.8265 6.43945 55.8169 6.43945 55.8169C6.43945 55.8169 6.64531 56.0707 6.99585 56.4471C7.33571 56.8273 7.86104 57.2966 8.44269 57.7525C8.53397 57.8224 8.62524 57.8885 8.71458 57.9574C8.76216 57.9909 8.8078 58.0235 8.85732 58.0589C8.9049 58.0905 8.95442 58.1202 9.00297 58.1528C9.20009 58.2763 9.4011 58.3961 9.60501 58.5043C9.80699 58.6135 10.0109 58.7131 10.2177 58.7964C10.4217 58.8826 10.6207 58.9582 10.8305 59.0071C11.92 59.2743 12.8696 59.1086 13.5523 58.874C14.2407 58.6336 14.6563 58.3405 14.6563 58.3405C14.6563 58.3405 14.6087 58.2486 14.5058 58.102Z" fill="#F9F5E9"/>
<path fill-rule="evenodd" clip-rule="evenodd" d="M14.8656 56.8512C15.0627 57.0705 15.2492 57.2324 15.3968 57.3301C15.5434 57.4287 15.6405 57.4728 15.6405 57.4728C15.6405 57.4728 15.9668 57.0935 16.2785 56.4882C16.597 55.8762 16.9174 55.0334 16.9106 54.1351C16.9145 53.8028 16.8776 53.457 16.8096 53.1247C16.7766 52.96 16.7329 52.7952 16.6853 52.6324C16.6377 52.4753 16.5979 52.3087 16.5465 52.1536C16.462 51.8835 16.3668 51.6287 16.2726 51.4008C16.2474 51.3443 16.2221 51.2887 16.2008 51.2332C16.1765 51.1786 16.1581 51.1259 16.1357 51.0723C16.0949 50.9679 16.0561 50.8721 16.0173 50.784C15.8638 50.4306 15.7463 50.2161 15.7463 50.2161C15.7463 50.2161 15.4482 50.6605 15.1006 51.3347C15.0122 51.5033 14.921 51.6843 14.8316 51.8796C14.7879 51.9764 14.7433 52.0779 14.7005 52.1765C14.6568 52.2771 14.6199 52.3796 14.5772 52.484C14.4218 52.8977 14.283 53.3431 14.1898 53.7836C14.1509 53.9541 14.1228 54.1217 14.1004 54.2864C14.08 54.4502 14.0742 54.6082 14.0742 54.7605C14.0742 55.2384 14.1733 55.6531 14.315 56.0075C14.4675 56.3551 14.6714 56.6319 14.8656 56.8512Z" fill="#F9F5E9"/>
<path fill-rule="evenodd" clip-rule="evenodd" d="M7.24988 50.9132C7.46059 50.9228 7.65868 50.9199 7.84415 50.9084C8.57436 50.8615 9.05794 50.6901 9.05794 50.6901C9.05794 50.6901 9.03949 50.5876 8.98414 50.419C8.95792 50.3357 8.91811 50.238 8.87053 50.126C8.8278 50.0101 8.77343 49.8865 8.70351 49.7544C8.56077 49.4881 8.36559 49.1941 8.08302 48.9029C8.01796 48.8369 7.94611 48.765 7.86551 48.6827C7.78977 48.608 7.70626 48.5352 7.61887 48.4624C7.44311 48.3178 7.24308 48.177 7.01683 48.0429C6.78864 47.9107 6.53811 47.7843 6.26719 47.6627C6.01181 47.5382 5.73507 47.4204 5.45638 47.3045C4.89804 47.0766 4.31154 46.8687 3.78038 46.6906C3.257 46.5086 2.79673 46.3535 2.45784 46.2462C2.12089 46.138 1.91406 46.0776 1.91406 46.0776C1.91406 46.0776 1.99077 46.2721 2.13837 46.5843C2.2112 46.7413 2.29859 46.931 2.41026 47.1331C2.52581 47.3371 2.65593 47.5564 2.80061 47.7881C2.9453 48.0199 3.10649 48.2593 3.27739 48.4997C3.32012 48.5582 3.36381 48.6185 3.41042 48.6769C3.45509 48.7334 3.5017 48.7909 3.55316 48.8512C3.64929 48.9671 3.75028 49.0801 3.85224 49.1903C4.05907 49.4144 4.27367 49.626 4.49409 49.8157C4.60479 49.9133 4.71452 50.0034 4.83201 50.0867C4.95048 50.1671 5.06894 50.2438 5.19032 50.3127C5.67001 50.5876 6.15164 50.7475 6.60123 50.8347C6.82651 50.8797 7.04499 50.9017 7.24988 50.9132Z" fill="#F9F5E9"/>
<path fill-rule="evenodd" clip-rule="evenodd" d="M9.41982 48.3618C9.46643 48.7306 9.57324 49.0543 9.69462 49.3177C9.75579 49.4498 9.82085 49.5657 9.883 49.6663C9.94612 49.7668 10.0151 49.8502 10.0694 49.9153C10.1811 50.0494 10.2598 50.1174 10.2598 50.1174C10.2598 50.1174 10.6851 49.8396 11.1638 49.3397C11.2832 49.2161 11.4036 49.0782 11.527 48.9279C11.6551 48.7737 11.7775 48.608 11.894 48.4327C12.1261 48.0803 12.3329 47.6847 12.464 47.2518C12.498 47.1427 12.5223 47.0335 12.5494 46.9205C12.5766 46.8075 12.599 46.6925 12.6194 46.5786C12.6563 46.3477 12.6805 46.115 12.6873 45.8852C12.6951 45.4293 12.7029 44.9715 12.6689 44.5759C12.6533 44.3767 12.633 44.19 12.6106 44.0243C12.597 43.8557 12.5825 43.7063 12.564 43.5837C12.5359 43.3338 12.5058 43.1863 12.5058 43.1863C12.5058 43.1863 12.3562 43.3098 12.1222 43.5272C11.8882 43.7437 11.5677 44.0549 11.2269 44.4304C10.8977 44.801 10.553 45.2358 10.2539 45.6965C10.1005 45.9273 9.96068 46.1639 9.83736 46.4023C9.71889 46.636 9.62762 46.8707 9.55576 47.1015C9.48585 47.3285 9.44409 47.5506 9.41982 47.7604C9.40816 47.8667 9.40137 47.9701 9.40137 48.0697C9.40137 48.1205 9.40137 48.1703 9.40331 48.2182C9.40816 48.2651 9.41302 48.313 9.41982 48.3618Z" fill="#F9F5E9"/>
<path fill-rule="evenodd" clip-rule="evenodd" d="M2.99812 41.4183C3.20495 41.561 3.41372 41.6788 3.62152 41.7784C4.03712 41.9757 4.44204 42.0945 4.79647 42.1663C5.50823 42.309 6.02191 42.2688 6.02191 42.2688C6.02191 42.2688 6.08211 41.8531 5.94811 41.2756C5.91898 41.1281 5.86266 40.9739 5.81314 40.8102C5.7607 40.6445 5.69176 40.4721 5.6034 40.2968C5.516 40.1196 5.40433 39.9367 5.2713 39.7538C5.2043 39.6618 5.13342 39.5689 5.05379 39.477C5.01398 39.431 4.9732 39.385 4.9295 39.3372C4.89066 39.2912 4.8489 39.2462 4.80327 39.1983C4.10509 38.4551 2.97481 37.6918 2.08438 37.0721C1.63188 36.7647 1.2221 36.5004 0.923998 36.3098C0.625891 36.1201 0.439453 36.01 0.439453 36.01C0.439453 36.01 0.4647 36.2159 0.523933 36.555C0.584137 36.894 0.673472 37.3614 0.812329 37.8785C0.971578 38.3967 1.17744 38.9636 1.43185 39.4971C1.49302 39.6302 1.56585 39.7605 1.64353 39.8888C1.72024 40.0143 1.7989 40.1407 1.88046 40.2595C2.04457 40.4989 2.22129 40.723 2.4087 40.9145C2.60097 41.1099 2.78935 41.2775 2.99812 41.4183Z" fill="#F9F5E9"/>
<path fill-rule="evenodd" clip-rule="evenodd" d="M7.34157 42.0245C7.34157 42.0245 7.83291 41.8646 8.43883 41.5054C8.74665 41.3244 9.07971 41.0965 9.39821 40.8187C9.55746 40.678 9.71088 40.5266 9.85654 40.3619C10.009 40.1953 10.1556 40.0171 10.2838 39.8246C10.4139 39.6321 10.5256 39.4252 10.6246 39.2136C10.7237 39.0029 10.7936 38.7864 10.88 38.5652C11.0422 38.1266 11.15 37.686 11.2267 37.2962C11.3238 36.9007 11.3811 36.5549 11.416 36.3078C11.449 36.0588 11.4587 35.9094 11.4587 35.9094C11.4587 35.9094 11.283 35.9908 10.9985 36.1402C10.714 36.2925 10.3265 36.5099 9.89635 36.7848C9.47104 37.0597 8.99329 37.3929 8.5874 37.7598C8.17277 38.1266 7.7931 38.5298 7.51635 38.9378C7.37361 39.1389 7.28428 39.341 7.20271 39.5383C7.12794 39.7346 7.0755 39.9281 7.04055 40.1148C7.00559 40.2997 6.98714 40.4778 6.9852 40.6444C6.97937 40.8101 7.00559 40.9672 7.02792 41.108C7.12794 41.675 7.34157 42.0245 7.34157 42.0245Z" fill="#F9F5E9"/>
<path fill-rule="evenodd" clip-rule="evenodd" d="M1.88047 28.852C1.91445 29.0723 1.95523 29.2935 2.00379 29.51C2.10866 29.9419 2.23198 30.3509 2.43492 30.71C2.69322 31.1841 3.01269 31.5624 3.34964 31.8612C3.68755 32.1591 4.03227 32.3784 4.35854 32.5402C5.00913 32.8668 5.516 32.9626 5.516 32.9626C5.516 32.9626 5.55873 32.8678 5.60146 32.6983C5.64224 32.5259 5.70924 32.2845 5.73449 31.9905C5.76265 31.6936 5.75682 31.345 5.67914 30.9571C5.61117 30.5702 5.48785 30.1469 5.24509 29.6929C5.16449 29.5435 5.07321 29.3864 4.9732 29.2303C4.92465 29.1547 4.87318 29.0752 4.81978 28.9947C4.76928 28.9181 4.71685 28.8357 4.66538 28.7582C4.39544 28.3645 4.0915 27.9661 3.78466 27.5859C3.47975 27.2057 3.17097 26.8408 2.91267 26.5314C2.38831 25.907 1.99116 25.4731 1.99116 25.4731C1.99116 25.4731 1.92999 25.7921 1.86687 26.2882C1.829 26.5372 1.81638 26.8341 1.80667 27.1559C1.79793 27.4777 1.79793 27.8282 1.81346 28.1854C1.81929 28.4028 1.84842 28.6289 1.88047 28.852Z" fill="#F9F5E9"/>
<path fill-rule="evenodd" clip-rule="evenodd" d="M10.3177 31.7366C10.3828 31.683 10.4439 31.6246 10.5051 31.5652C10.5682 31.5048 10.6333 31.4435 10.6925 31.3803C10.8188 31.2568 10.9314 31.1246 11.0402 30.9886C11.146 30.8545 11.248 30.7157 11.3431 30.5749C11.4431 30.4255 11.5334 30.2856 11.6199 30.1554C11.7772 29.9169 11.9131 29.6784 12.0306 29.4601C12.0898 29.3499 12.1432 29.2427 12.1918 29.144C12.2365 29.0425 12.2938 28.9515 12.3374 28.8653C12.5142 28.5244 12.6035 28.2993 12.6035 28.2993C12.6035 28.2993 12.0578 28.3846 11.2897 28.5886C11.1023 28.6384 10.8916 28.6949 10.6877 28.7648C10.4808 28.8309 10.2662 28.9075 10.0497 28.9908C9.61662 29.1565 9.1748 29.3547 8.76406 29.5817C8.44264 29.7551 8.1727 29.9524 7.928 30.1583C7.55609 30.4753 7.28906 30.8229 7.11427 31.161C6.94823 31.501 6.86083 31.8305 6.82102 32.1139C6.78218 32.4003 6.77538 32.6388 6.80257 32.8093C6.82394 32.9788 6.85501 33.0774 6.85501 33.0774C6.85501 33.0774 7.36965 33.0525 8.05326 32.8658C8.7359 32.6809 9.61953 32.3438 10.3177 31.7366Z" fill="#F9F5E9"/>
<path fill-rule="evenodd" clip-rule="evenodd" d="M5.99945 22.2552C6.24124 22.6335 6.51701 22.94 6.77822 23.1833C7.30063 23.6669 7.75896 23.8949 7.75896 23.8949C7.75896 23.8949 7.8279 23.8135 7.92403 23.665C8.02211 23.5146 8.13572 23.2905 8.2503 23.0147C8.36877 22.7398 8.46781 22.4056 8.51442 22.0129C8.53675 21.8204 8.53675 21.6069 8.53675 21.3875C8.53578 21.1663 8.51248 20.9326 8.46781 20.6846C8.42217 20.4356 8.3542 20.1731 8.2736 19.905C8.23282 19.7709 8.18718 19.633 8.14057 19.497C8.09299 19.3629 8.0493 19.2259 8.00074 19.089C7.80848 18.5431 7.58223 17.9924 7.36958 17.4992C7.26179 17.2549 7.1608 17.0222 7.06856 16.8115C6.97631 16.6046 6.89377 16.4198 6.82386 16.2656C6.685 15.9534 6.59761 15.7676 6.59761 15.7676C6.59761 15.7676 6.49468 15.9534 6.34611 16.2656C6.26551 16.4179 6.19074 16.6113 6.10529 16.8249C6.02178 17.0423 5.93342 17.2827 5.84797 17.5375C5.80719 17.6648 5.76543 17.798 5.72174 17.932C5.68289 18.0671 5.64211 18.204 5.61104 18.3487C5.54792 18.6312 5.49451 18.9271 5.4547 19.2183C5.41586 19.5104 5.38867 19.8025 5.38867 20.0841C5.39353 20.3723 5.42072 20.651 5.47121 20.9106C5.57414 21.4325 5.76543 21.8788 5.99945 22.2552Z" fill="#F9F5E9"/>
<path fill-rule="evenodd" clip-rule="evenodd" d="M13.3551 23.6562C13.562 23.5317 13.7649 23.3919 13.9523 23.2473C14.1417 23.0998 14.3155 22.9475 14.4825 22.7952C14.6505 22.6458 14.8195 22.4983 14.9641 22.3547C15.1127 22.211 15.2448 22.0721 15.3623 21.9476C15.4205 21.8825 15.4759 21.8222 15.5264 21.7676C15.5778 21.712 15.6264 21.6622 15.6691 21.6153C15.8478 21.4276 15.9439 21.3098 15.9439 21.3098C15.9439 21.3098 15.7468 21.2858 15.4176 21.2657C15.0913 21.2446 14.6272 21.2217 14.1184 21.2408C13.6086 21.2571 13.0318 21.3031 12.4676 21.395C12.3239 21.4199 12.1821 21.4448 12.0433 21.4735C11.9083 21.5071 11.7753 21.5406 11.6442 21.5789C11.383 21.6536 11.1315 21.7436 10.9043 21.8471C10.6761 21.9476 10.4722 22.0635 10.2915 22.189C10.108 22.3135 9.96333 22.4543 9.82933 22.5922C9.5691 22.8737 9.3846 23.163 9.25448 23.4254C9.13116 23.6869 9.07775 23.9244 9.04668 24.091C9.01367 24.2596 9.0127 24.3611 9.0127 24.3611C9.0127 24.3611 9.51374 24.476 10.2265 24.4789C10.5848 24.4827 10.9897 24.4578 11.416 24.3841C11.851 24.3142 12.3016 24.1954 12.7347 24.0029C12.9483 23.9043 13.1532 23.7874 13.3551 23.6562Z" fill="#F9F5E9"/>
<path fill-rule="evenodd" clip-rule="evenodd" d="M11.1026 14.0992C11.2259 14.5234 11.4027 14.8883 11.5842 15.1872C11.9474 15.7829 12.3203 16.1181 12.3203 16.1181C12.3203 16.1181 12.6873 15.8825 13.0544 15.4036C13.1476 15.2829 13.2398 15.1479 13.3272 14.9947C13.4156 14.8472 13.5088 14.6824 13.5865 14.5033C13.7458 14.1432 13.8633 13.7094 13.9108 13.2047C13.9672 12.7057 13.9565 12.1368 13.9147 11.5554C13.87 10.9674 13.8176 10.3918 13.7545 9.8641C13.6894 9.33735 13.6215 8.87093 13.5719 8.53285C13.5176 8.19956 13.4855 7.99365 13.4855 7.99365C13.4855 7.99365 13.4447 8.02813 13.3806 8.10283C13.3175 8.17658 13.2253 8.28193 13.1126 8.41697C12.8874 8.68609 12.5825 9.06439 12.2688 9.50878C11.9717 9.96753 11.6658 10.4924 11.4211 11.0277C11.1842 11.5746 11.0181 12.1435 10.9628 12.6645C10.9492 12.7967 10.9434 12.9231 10.9434 13.0495C10.9434 13.175 10.954 13.2995 10.9667 13.4201C10.9939 13.6615 11.0424 13.8885 11.1026 14.0992Z" fill="#F9F5E9"/>
<path fill-rule="evenodd" clip-rule="evenodd" d="M17.7962 17.319C17.9118 17.2826 18.0235 17.2414 18.139 17.1964C18.1934 17.1753 18.2487 17.1533 18.3051 17.1303C18.3633 17.1063 18.4177 17.0862 18.475 17.0642C18.9285 16.8851 19.3421 16.6648 19.7024 16.458C20.0743 16.2655 20.3801 16.072 20.5967 15.9322C20.7054 15.8594 20.7909 15.799 20.8472 15.7598C20.9103 15.7196 20.9424 15.6994 20.9424 15.6994C20.9424 15.6994 20.8958 15.6822 20.8103 15.6487C20.7229 15.6161 20.6006 15.573 20.4481 15.5251C20.1432 15.4265 19.7092 15.2972 19.2081 15.1794C18.9556 15.121 18.6896 15.0645 18.4109 15.0166C18.273 14.9936 18.1312 14.9697 17.9914 14.9505C17.8506 14.9342 17.7098 14.9199 17.57 14.9084C17.0039 14.8614 16.4368 14.8633 15.9328 14.9428C15.4366 15.0252 15.0307 15.1976 14.6928 15.3939C14.5229 15.4935 14.3695 15.5998 14.2403 15.7119C14.1102 15.8249 14.0024 15.9417 13.9082 16.0519C13.5266 16.5001 13.3975 16.8842 13.3975 16.8842C13.3975 16.8842 13.85 17.1245 14.5413 17.3123C14.8861 17.408 15.289 17.4904 15.7221 17.5297C16.1571 17.5708 16.6077 17.5555 17.0883 17.4875C17.3301 17.4502 17.5651 17.3908 17.7962 17.319Z" fill="#F9F5E9"/>
<path fill-rule="evenodd" clip-rule="evenodd" d="M19.1099 9.23386C19.2002 9.42349 19.2633 9.52884 19.2633 9.52884C19.2633 9.52884 19.2905 9.52118 19.3361 9.50011C19.3837 9.48287 19.4507 9.45605 19.5352 9.41583C19.7032 9.34017 19.9323 9.2195 20.18 9.03657C20.6645 8.66018 21.2627 8.1047 21.6443 7.14984C21.7744 6.83667 21.8929 6.49284 21.9929 6.12507C22.1201 5.66824 22.225 5.18171 22.3162 4.70859C22.4124 4.24697 22.4959 3.79588 22.5638 3.39746C22.6978 2.60446 22.7707 2.03174 22.7707 2.03174C22.7707 2.03174 22.4832 2.20317 22.0541 2.49911C21.8424 2.64373 21.5928 2.82282 21.3297 3.0249C21.0723 3.23752 20.8014 3.47504 20.5354 3.72883C20.3703 3.8859 20.211 4.04776 20.0557 4.21536C20.0178 4.25654 19.977 4.29773 19.9391 4.34082C19.9042 4.38392 19.8673 4.42798 19.8304 4.47395C19.7605 4.56397 19.6915 4.654 19.6216 4.74498C19.3536 5.10605 19.1264 5.48148 18.9701 5.85212C18.8652 6.09155 18.8001 6.34535 18.7545 6.58095C18.7108 6.81847 18.6885 7.04737 18.6855 7.2686C18.6758 7.7082 18.7399 8.10278 18.8283 8.43799C18.9147 8.77319 19.0225 9.04327 19.1099 9.23386Z" fill="#F9F5E9"/>
<path fill-rule="evenodd" clip-rule="evenodd" d="M25.5518 11.9673C25.8431 11.9118 26.1169 11.8448 26.3684 11.7796C26.6219 11.7231 26.852 11.6628 27.0443 11.6082C27.4259 11.4971 27.6618 11.4061 27.6618 11.4061C27.6618 11.4061 27.2278 11.0805 26.5597 10.684C26.2286 10.4867 25.8363 10.2702 25.4081 10.0701C24.9886 9.87471 24.5409 9.70136 24.0923 9.56824C23.7466 9.46672 23.401 9.38723 23.0747 9.35275C22.0794 9.26464 21.2938 9.54621 20.8064 9.8862C20.5568 10.0509 20.3733 10.2166 20.25 10.3411C20.1888 10.4015 20.1431 10.4541 20.114 10.4896C20.0849 10.5288 20.0713 10.549 20.0713 10.549C20.0713 10.549 20.1606 10.6361 20.3276 10.7673C20.4947 10.9004 20.7394 11.0786 21.0433 11.2596C21.3472 11.4444 21.7104 11.6302 22.1134 11.7835C22.3163 11.8582 22.5299 11.9281 22.7504 11.9798C22.9708 12.0344 23.197 12.0708 23.4398 12.1024C24.1438 12.1886 24.874 12.0756 25.5518 11.9673Z" fill="#F9F5E9"/>
<path fill-rule="evenodd" clip-rule="evenodd" d="M35.9492 67.9236C35.7579 67.8996 35.521 67.8718 35.2539 67.8402C35.118 67.8201 34.9743 67.8115 34.8247 67.7837C34.6762 67.7579 34.5189 67.7301 34.3557 67.7023C34.0266 67.6468 33.6712 67.5874 33.2934 67.5232C32.9206 67.4418 32.5283 67.3556 32.1233 67.2694C31.9175 67.2215 31.7097 67.1832 31.5038 67.1277C31.298 67.0712 31.0892 67.0156 30.8775 66.9582C30.4571 66.8423 30.0249 66.7398 29.6064 66.5952C27.9042 66.0933 26.2768 65.399 25.0766 64.8464C24.7823 64.7018 24.5066 64.5686 24.2667 64.4527C24.1444 64.3943 24.0337 64.3388 23.9298 64.2871C23.8259 64.2353 23.7336 64.1817 23.6492 64.1376C23.3103 63.9528 23.1199 63.8465 23.1199 63.8465C23.1199 63.8465 22.9277 63.7431 22.5878 63.5582C22.2528 63.3676 21.7896 63.0746 21.2284 62.7355C20.1282 62.022 18.6862 61.0222 17.3705 59.8834C16.0489 58.7485 14.8351 57.5092 13.9806 56.5371C13.868 56.4203 13.7738 56.2986 13.6776 56.1847C13.5834 56.0707 13.4961 55.9653 13.4116 55.8629C13.2436 55.6617 13.097 55.4846 12.9766 55.338C12.8542 55.1953 12.7707 55.0727 12.7105 54.9933C12.6503 54.9109 12.6163 54.8697 12.6163 54.8697C12.6163 54.8697 12.4891 54.6983 12.2628 54.3956C12.1521 54.2453 12.0084 54.0662 11.8608 53.8497C11.7152 53.6333 11.5482 53.3881 11.3695 53.1218C11.2782 52.9897 11.184 52.8508 11.0889 52.7062C10.9898 52.5616 10.9044 52.4074 10.8073 52.2513C10.614 51.9352 10.4159 51.6029 10.2091 51.26C10.0207 50.9066 9.82264 50.5427 9.62261 50.174C9.57115 50.0801 9.52162 49.9872 9.47113 49.8953C9.42646 49.7985 9.38277 49.7028 9.33519 49.6079C9.24391 49.4164 9.15263 49.2239 9.05941 49.0304C8.33794 47.4885 7.74075 45.8929 7.39992 44.6661C7.35331 44.5138 7.31059 44.3672 7.26786 44.2293C7.22708 44.0905 7.18532 43.9593 7.1591 43.8347C7.0989 43.5838 7.04161 43.3635 7.00083 43.1835C6.91343 42.8234 6.861 42.6175 6.861 42.6175C6.861 42.6175 6.84935 42.5658 6.8241 42.469C6.80274 42.3752 6.77846 42.2296 6.74253 42.0467C6.70855 41.8657 6.66776 41.6463 6.62212 41.3916C6.57454 41.1397 6.50948 40.8543 6.4755 40.5382C6.43277 40.2241 6.38713 39.8841 6.33955 39.524C6.3279 39.4349 6.31334 39.343 6.30363 39.2511C6.291 39.1591 6.28615 39.0653 6.27741 38.9685C6.26478 38.7799 6.24634 38.5845 6.23177 38.3872C6.14826 37.599 6.14826 36.7533 6.12204 35.9095C6.14826 35.0639 6.14826 34.2191 6.23177 33.43C6.24634 33.2336 6.26478 33.0392 6.27741 32.8496C6.28615 32.7538 6.291 32.66 6.30363 32.568C6.31334 32.4751 6.3279 32.3832 6.33955 32.2932C6.38713 31.934 6.43277 31.5921 6.4755 31.2789C6.50948 30.9629 6.57454 30.6803 6.62212 30.4256C6.66776 30.1727 6.70855 29.9525 6.74253 29.7705C6.77846 29.5895 6.80274 29.4439 6.8241 29.3481C6.84935 29.2514 6.861 29.1997 6.861 29.1997C6.861 29.1997 6.91343 28.9947 7.00083 28.6346C7.04161 28.4546 7.0989 28.2362 7.1591 27.9853C7.18532 27.8598 7.22708 27.7267 7.26786 27.5888C7.31059 27.449 7.35331 27.3043 7.39992 27.1511C7.74075 25.9262 8.33794 24.3306 9.05941 22.7867C9.15263 22.5961 9.24391 22.4008 9.33519 22.2102C9.38277 22.1135 9.42646 22.0206 9.47113 21.9238C9.52162 21.8309 9.57115 21.738 9.62261 21.6432C9.82264 21.2735 10.0207 20.9096 10.2091 20.5581C10.4159 20.2152 10.614 19.8829 10.8073 19.5678C10.9044 19.4127 10.9898 19.2556 11.0889 19.1119C11.184 18.9673 11.2782 18.8294 11.3695 18.6953C11.5482 18.4291 11.7152 18.1839 11.8608 17.9684C12.0084 17.752 12.1521 17.5738 12.2628 17.4225C12.4891 17.1208 12.6163 16.9494 12.6163 16.9494C12.6163 16.9494 12.6503 16.9063 12.7105 16.8249C12.7707 16.7454 12.8542 16.6228 12.9766 16.4801C13.097 16.3345 13.2436 16.1583 13.4116 15.9553C13.4961 15.8537 13.5834 15.7465 13.6776 15.6306C13.7738 15.5195 13.868 15.3979 13.9806 15.2801C14.8351 14.3099 16.0489 13.0696 17.3705 11.9337C18.6862 10.795 20.1282 9.79705 21.2284 9.08067C21.7896 8.7426 22.2528 8.44953 22.5878 8.26086C22.9277 8.07602 23.1199 7.96971 23.1199 7.96971C23.1199 7.96971 23.3103 7.86532 23.6492 7.68047C23.7336 7.63546 23.8259 7.58566 23.9298 7.52915C24.0337 7.47935 24.1444 7.4238 24.2667 7.36538C24.3483 7.32516 24.4318 7.28493 24.5192 7.24375C24.526 7.24375 24.5328 7.24375 24.5406 7.24375C24.7552 7.26195 25.0591 7.27152 25.4155 7.25237C26.135 7.22076 27.0652 7.07423 27.8848 6.63176C28.3091 6.41723 28.7092 6.12608 29.0568 5.81099C29.2268 5.652 29.4035 5.49302 29.5676 5.33499C29.7297 5.17697 29.8783 5.01799 30.0152 4.86475C30.2755 4.55636 30.5192 4.29011 30.6784 4.0909C30.8358 3.8917 30.9251 3.76623 30.9251 3.76623C30.9251 3.76623 30.728 3.75761 30.4017 3.75523C30.0754 3.75283 29.6171 3.7624 29.1005 3.80263C28.9704 3.81412 28.8364 3.8237 28.7014 3.83998C28.5674 3.85626 28.4315 3.87446 28.2955 3.89649C28.0217 3.93767 27.742 3.99034 27.4653 4.05451C26.9147 4.1838 26.3564 4.35045 25.9291 4.58701C25.4922 4.82069 25.1562 5.10418 24.8998 5.39437C24.6542 5.6884 24.5007 5.99295 24.3891 6.26208C24.2861 6.53024 24.2308 6.76584 24.2104 6.93632C24.2046 6.96888 24.2036 6.99953 24.2017 7.02826C24.1696 7.04454 24.1376 7.06178 24.1046 7.07423C23.9842 7.13553 23.8705 7.19012 23.7637 7.24088C23.6618 7.29834 23.5666 7.34814 23.4802 7.39603C23.1413 7.58087 22.9471 7.68814 22.9471 7.68814C22.9471 7.68814 22.7509 7.79349 22.4091 7.97928C22.0741 8.17083 21.6051 8.46581 21.0351 8.81059C19.9233 9.53081 18.4687 10.5403 17.1374 11.6914C15.8042 12.8369 14.5797 14.0896 13.7136 15.0703C13.6009 15.1891 13.5067 15.3145 13.4116 15.4266C13.3135 15.5415 13.2251 15.6497 13.1416 15.7532C12.9717 15.9572 12.8231 16.1353 12.7027 16.2828C12.5784 16.4274 12.4949 16.551 12.4318 16.6314C12.3716 16.7119 12.3376 16.7559 12.3376 16.7559C12.3376 16.7559 12.2075 16.9302 11.9793 17.2329C11.8676 17.388 11.7229 17.5681 11.5734 17.7855C11.4239 18.0048 11.2588 18.2519 11.0782 18.5201C10.984 18.6551 10.8917 18.7949 10.7927 18.9405C10.6966 19.0861 10.6072 19.2451 10.5072 19.4021C10.3179 19.7182 10.113 20.0553 9.90518 20.4029C9.71292 20.7573 9.51385 21.1251 9.31382 21.5005C9.26333 21.5944 9.21186 21.6882 9.1604 21.7821C9.11573 21.8769 9.06815 21.9736 9.02348 22.0704C8.93124 22.2648 8.83802 22.4601 8.74674 22.6546C8.01458 24.2128 7.40963 25.8247 7.0688 27.062C7.02025 27.2162 6.97752 27.3628 6.93674 27.5045C6.89401 27.6463 6.84935 27.7765 6.82313 27.9048C6.76195 28.1567 6.7066 28.3789 6.66485 28.5609C6.57454 28.9229 6.52405 29.1317 6.52405 29.1317C6.52405 29.1317 6.51143 29.1844 6.48812 29.2811C6.46385 29.3788 6.44054 29.5244 6.40461 29.7073C6.3716 29.8912 6.3279 30.1153 6.28129 30.371C6.23565 30.6267 6.16962 30.914 6.1337 31.232C6.09097 31.55 6.04436 31.8938 5.99678 32.2568C5.9861 32.3487 5.97056 32.4406 5.95988 32.5326C5.94823 32.6284 5.94337 32.7232 5.93366 32.818C5.9191 33.0095 5.90453 33.204 5.88802 33.408C5.80355 34.2019 5.80354 35.0552 5.77441 35.9095C5.80354 36.7629 5.80355 37.6153 5.88802 38.413C5.90453 38.6123 5.9191 38.8067 5.93366 39.0011C5.94337 39.0969 5.94823 39.1917 5.95988 39.2827C5.97056 39.3765 5.9861 39.4713 5.99678 39.5614C6.04436 39.9234 6.09097 40.2701 6.1337 40.5871C6.16962 40.9031 6.23565 41.1914 6.28129 41.4481C6.3279 41.7038 6.3716 41.925 6.40461 42.1099C6.44054 42.2938 6.46385 42.4384 6.48812 42.537C6.51143 42.6338 6.52405 42.6864 6.52405 42.6864C6.52405 42.6864 6.57454 42.8933 6.66485 43.2563C6.7066 43.4392 6.76195 43.6614 6.82313 43.9123C6.84935 44.0397 6.89401 44.1738 6.93674 44.3127C6.97752 44.4544 7.02025 44.6019 7.0688 44.7561C7.40963 45.9935 8.01458 47.6044 8.74674 49.1655C8.83802 49.358 8.93124 49.5533 9.02348 49.7468C9.06815 49.8445 9.11573 49.9403 9.1604 50.036C9.21186 50.128 9.26333 50.2247 9.31382 50.3186C9.51385 50.6911 9.71292 51.0599 9.90518 51.4152C10.113 51.7619 10.3179 52.098 10.5072 52.416C10.6072 52.5731 10.6966 52.7311 10.7927 52.8767C10.8917 53.0213 10.984 53.164 11.0782 53.2981C11.2588 53.5672 11.4239 53.8143 11.5734 54.0326C11.7229 54.2501 11.8676 54.4311 11.9793 54.5843C12.2075 54.8879 12.3376 55.0622 12.3376 55.0622C12.3376 55.0622 12.3716 55.1063 12.4318 55.1877C12.4949 55.2681 12.5784 55.3907 12.7027 55.5353C12.8231 55.6819 12.9717 55.861 13.1416 56.0669C13.2251 56.1684 13.3135 56.2766 13.4116 56.3915C13.5067 56.5026 13.6009 56.6291 13.7136 56.7469C14.5797 57.7295 15.8042 58.9812 17.1374 60.1267C18.4687 61.276 19.9233 62.2854 21.0351 63.0085C21.6051 63.3523 22.0741 63.6463 22.4091 63.8388C22.7509 64.0256 22.9471 64.13 22.9471 64.13C22.9471 64.13 23.1413 64.2382 23.4802 64.4221C23.5666 64.469 23.6618 64.5207 23.7637 64.5763C23.8705 64.628 23.9842 64.6826 24.1046 64.741C24.3483 64.8598 24.6231 64.9948 24.9241 65.1404C26.1369 65.6978 27.7819 66.3988 29.5006 66.9064C29.923 67.052 30.359 67.1545 30.7862 67.2723C30.996 67.3307 31.2086 67.3882 31.4174 67.4437C31.6233 67.5012 31.834 67.5386 32.0398 67.5864C32.4506 67.6755 32.8487 67.7617 33.2245 67.845C33.6042 67.9082 33.9644 67.9686 34.2965 68.0251C34.4626 68.0529 34.6199 68.0816 34.7704 68.1065C34.9238 68.1352 35.0685 68.1458 35.2034 68.1649C35.4763 68.1975 35.7132 68.2243 35.9094 68.2492C36.2978 68.2971 36.5211 68.3239 36.5211 68.3239L36.5571 67.9963C36.5571 67.9963 36.3347 67.9705 35.9492 67.9236Z" fill="#F9F5E9"/>
<path fill-rule="evenodd" clip-rule="evenodd" d="M32.123 67.6037C32.123 67.6037 36.8141 68.7836 37.8686 73.0455L37.7366 68.0241L32.4357 67.3374L32.123 67.6037Z" fill="#F9F5E9"/>
</g>
</g>
</g>
<defs>
<clipPath id="clip0_1_253">
<rect width="114" height="74" fill="white" transform="translate(0 0.5)"/>
</clipPath>
</defs>
</svg>
