<svg width="114" height="75" viewBox="0 0 114 75" fill="none" xmlns="http://www.w3.org/2000/svg">
<g clip-path="url(#clip0_1_193)">
<g clip-path="url(#clip1_1_193)">
<g clip-path="url(#clip2_1_193)">
<g opacity="0.7">
<mask id="mask0_1_193" style="mask-type:luminance" maskUnits="userSpaceOnUse" x="42" y="22" width="30" height="31">
<path d="M72 22.5H42V52.5H72V22.5Z" fill="white"/>
</mask>
<g mask="url(#mask0_1_193)">
<path d="M46.7287 26.0325L57 23.75L67.2712 26.0325C67.5488 26.0942 67.7971 26.2487 67.975 26.4705C68.153 26.6923 68.25 26.9681 68.25 27.2525V39.7362C68.2499 40.9709 67.945 42.1865 67.3624 43.275C66.7797 44.3636 65.9373 45.2914 64.91 45.9762L57 51.25L49.09 45.9762C48.0628 45.2915 47.2206 44.3639 46.6379 43.2756C46.0553 42.1873 45.7503 40.972 45.75 39.7375V27.2525C45.75 26.9681 45.847 26.6923 46.025 26.4705C46.2029 26.2487 46.4512 26.0942 46.7287 26.0325ZM48.25 28.255V39.7362C48.25 40.5593 48.4532 41.3697 48.8416 42.0954C49.2299 42.8211 49.7914 43.4396 50.4763 43.8963L57 48.2463L63.5238 43.8963C64.2084 43.4398 64.7698 42.8214 65.1581 42.0959C65.5465 41.3705 65.7498 40.5604 65.75 39.7375V28.255L57 26.3125L48.25 28.255Z" fill="#F9F5E9" stroke="#161616" stroke-width="0.5"/>
</g>
<mask id="mask1_1_193" style="mask-type:luminance" maskUnits="userSpaceOnUse" x="75" y="0" width="39" height="73">
<path d="M75.938 0.5H113.938V72.5H75.938V0.5Z" fill="white"/>
</mask>
<g mask="url(#mask1_1_193)">
<path fill-rule="evenodd" clip-rule="evenodd" d="M85.1455 66.1899C85.3533 66.188 85.5718 66.2014 85.8039 66.232C85.8631 66.2416 85.9243 66.2512 85.9826 66.2617C86.0428 66.2703 86.1001 66.2809 86.1622 66.2904C86.2826 66.3134 86.4098 66.3422 86.536 66.3757C87.0458 66.5117 87.6042 66.7339 88.1625 66.9877C88.7092 67.2242 89.2608 67.4905 89.756 67.7424C90.2493 67.9923 90.6882 68.2318 90.997 68.3927C91.3057 68.5555 91.4922 68.6599 91.4922 68.6599C91.4922 68.6599 91.4436 68.6771 91.3465 68.7135C91.2523 68.7441 91.1174 68.7968 90.9445 68.8437C90.5969 68.9414 90.1094 69.0688 89.5579 69.178C89.419 69.2058 89.2802 69.2364 89.1326 69.2575C88.984 69.2786 88.8325 69.2948 88.682 69.3111C88.3771 69.3427 88.0664 69.3667 87.7547 69.3743C87.1381 69.4002 86.5157 69.3236 85.9816 69.178C84.9135 68.8916 84.1891 68.2432 83.7395 67.704C83.287 67.162 83.0947 66.7061 83.0947 66.7061C83.0947 66.7061 83.4608 66.4724 84.0706 66.3326C84.3745 66.2607 84.7328 66.1899 85.1455 66.1899Z" fill="#F9F5E9"/>
<path fill-rule="evenodd" clip-rule="evenodd" d="M83.5091 61.9987C83.7586 61.608 84.0878 61.2661 84.4286 60.9309C84.5976 60.7642 84.7743 60.6129 84.954 60.4712C85.0453 60.3993 85.1326 60.3323 85.2162 60.2672C85.2997 60.1972 85.3841 60.1302 85.4667 60.067C85.7959 59.8161 86.0969 59.615 86.3144 59.4799C86.5319 59.3334 86.6649 59.2529 86.6649 59.2529C86.6649 59.2529 86.6669 59.4426 86.6543 59.7548C86.6465 60.0737 86.6125 60.4941 86.5436 60.9778C86.4736 61.4605 86.3659 62.0016 86.2105 62.5303C86.0503 63.0417 85.8357 63.5397 85.5735 63.9525C85.5104 64.0559 85.4414 64.1536 85.3705 64.2446C85.3366 64.2915 85.2997 64.3337 85.2618 64.3768C85.2249 64.417 85.189 64.4563 85.1511 64.4946C84.9977 64.6459 84.8375 64.7752 84.6763 64.8853C84.516 64.9964 84.3558 65.0893 84.1985 65.164C84.0431 65.2378 83.8907 65.3039 83.746 65.3422C83.1653 65.504 82.742 65.4763 82.742 65.4763C82.742 65.4763 82.675 64.9869 82.7449 64.3126C82.7798 63.9745 82.8449 63.5905 82.9672 63.1978C82.9973 63.1001 83.0304 62.9996 83.0702 62.9019C83.1042 62.8004 83.144 62.6979 83.1906 62.5964C83.2809 62.3952 83.3838 62.1922 83.5091 61.9987Z" fill="#F9F5E9"/>
<path fill-rule="evenodd" clip-rule="evenodd" d="M91.7754 63.1588C91.8114 63.1243 91.8667 63.0802 91.9337 63.0208C92.0726 62.9021 92.2784 62.745 92.5464 62.5956C92.6833 62.519 92.8309 62.4462 93.0009 62.3792C93.1679 62.3112 93.3553 62.2518 93.5485 62.1905C93.9408 62.0775 94.4011 62.0066 94.9381 62.0171C95.209 62.0229 95.4867 62.0373 95.778 62.065C96.0674 62.0928 96.3674 62.134 96.6675 62.1828C96.9714 62.2307 97.2773 62.2882 97.5735 62.3437C97.8628 62.4022 98.1512 62.4596 98.4241 62.5142C98.9679 62.6282 99.4514 62.7374 99.7961 62.8197C100.147 62.903 100.354 62.9586 100.354 62.9586C100.354 62.9586 100.176 63.0802 99.8709 63.2679C99.7233 63.3618 99.5388 63.47 99.332 63.5878C99.231 63.6462 99.1203 63.7075 99.0048 63.7698C98.8892 63.8301 98.7659 63.8885 98.6387 63.9479C98.3843 64.0657 98.1124 64.1835 97.8318 64.2965C97.689 64.3502 97.5492 64.4038 97.4026 64.4555C97.3297 64.4823 97.2579 64.5082 97.185 64.5312C97.1112 64.5513 97.0365 64.5733 96.9607 64.5944C96.3616 64.7563 95.7537 64.8626 95.2032 64.8607C94.0758 64.829 93.2096 64.4134 92.6241 64.0102C92.3318 63.8138 92.1036 63.6079 91.9512 63.4576C91.7997 63.3082 91.7211 63.2105 91.7211 63.2105C91.7211 63.2105 91.7395 63.1923 91.7754 63.1588Z" fill="#F9F5E9"/>
<path fill-rule="evenodd" clip-rule="evenodd" d="M93.3289 59.9265C93.1881 60.3795 92.9706 60.7549 92.7288 61.0547C92.6104 61.2098 92.4783 61.3343 92.3462 61.4416C92.2152 61.5508 92.0812 61.6437 91.9539 61.7232C91.7015 61.8812 91.4704 61.9808 91.3053 62.0421C91.2228 62.0746 91.1499 62.09 91.1053 62.1015C91.0538 62.1129 91.0295 62.1177 91.0295 62.1177C91.0295 62.1177 90.9781 62.0038 90.9149 61.8093C90.8499 61.613 90.7703 61.3362 90.7071 60.9982C90.577 60.3239 90.5207 59.439 90.7887 58.5732C90.913 58.1288 91.1247 57.6997 91.3723 57.3061C91.6102 56.9048 91.8734 56.5236 92.1316 56.2085C92.2627 56.0534 92.3754 55.8973 92.4851 55.7642C92.5919 55.6291 92.6939 55.5142 92.7784 55.4184C92.9463 55.2269 93.058 55.1187 93.058 55.1187C93.058 55.1187 93.1134 55.3006 93.1862 55.6013C93.259 55.9011 93.3503 56.3263 93.4231 56.81C93.4581 57.0542 93.494 57.3166 93.5144 57.5819C93.5299 57.8434 93.5387 58.1135 93.5338 58.3826C93.5299 58.6527 93.5144 58.9237 93.4814 59.1861C93.4464 59.4457 93.4037 59.7023 93.3289 59.9265Z" fill="#F9F5E9"/>
<path fill-rule="evenodd" clip-rule="evenodd" d="M99.4952 57.102C99.5971 56.9574 99.7418 56.7496 99.9574 56.5331C100.171 56.3167 100.453 56.0916 100.805 55.8819C101.147 55.6674 101.567 55.4758 102.085 55.3436C102.257 55.2986 102.442 55.2613 102.628 55.2239C102.813 55.1856 103.004 55.154 103.202 55.1234C104.177 54.9788 105.283 54.9242 106.116 54.8724C106.959 54.8265 107.562 54.8169 107.562 54.8169C107.562 54.8169 107.356 55.0707 107.005 55.4471C106.665 55.8273 106.14 56.2966 105.558 56.7525C105.467 56.8224 105.376 56.8885 105.286 56.9574C105.239 56.9909 105.193 57.0235 105.144 57.0589C105.096 57.0905 105.047 57.1202 104.998 57.1528C104.801 57.2763 104.6 57.3961 104.396 57.5043C104.194 57.6135 103.99 57.7131 103.783 57.7964C103.579 57.8826 103.38 57.9582 103.171 58.0071C102.081 58.2743 101.131 58.1086 100.449 57.874C99.7603 57.6336 99.3447 57.3405 99.3447 57.3405C99.3447 57.3405 99.3922 57.2486 99.4952 57.102Z" fill="#F9F5E9"/>
<path fill-rule="evenodd" clip-rule="evenodd" d="M99.1354 55.8512C98.9382 56.0705 98.7518 56.2324 98.6042 56.3301C98.4576 56.4287 98.3605 56.4728 98.3605 56.4728C98.3605 56.4728 98.0342 56.0935 97.7225 55.4882C97.404 54.8762 97.0836 54.0334 97.0904 53.1351C97.0865 52.8028 97.1234 52.457 97.1914 52.1247C97.2244 51.96 97.2681 51.7952 97.3157 51.6324C97.3632 51.4753 97.403 51.3087 97.4545 51.1536C97.539 50.8835 97.6342 50.6287 97.7283 50.4008C97.7536 50.3443 97.7788 50.2887 97.8002 50.2332C97.8245 50.1786 97.8429 50.1259 97.8653 50.0723C97.906 49.9679 97.9449 49.8721 97.9837 49.784C98.1371 49.4306 98.2546 49.2161 98.2546 49.2161C98.2546 49.2161 98.5527 49.6605 98.9004 50.3347C98.9887 50.5033 99.08 50.6843 99.1694 50.8796C99.213 50.9764 99.2577 51.0779 99.3004 51.1765C99.3441 51.2771 99.381 51.3796 99.4238 51.484C99.5791 51.8977 99.718 52.3431 99.8112 52.7836C99.85 52.9541 99.8782 53.1217 99.9005 53.2864C99.9209 53.4502 99.9268 53.6082 99.9268 53.7605C99.9268 54.2384 99.8277 54.6531 99.6859 55.0075C99.5335 55.3551 99.3296 55.6319 99.1354 55.8512Z" fill="#F9F5E9"/>
<path fill-rule="evenodd" clip-rule="evenodd" d="M106.751 49.9132C106.54 49.9228 106.342 49.9199 106.157 49.9084C105.427 49.8615 104.943 49.6901 104.943 49.6901C104.943 49.6901 104.961 49.5876 105.017 49.419C105.043 49.3357 105.083 49.238 105.13 49.126C105.173 49.0101 105.228 48.8865 105.297 48.7544C105.44 48.4881 105.635 48.1941 105.918 47.9029C105.983 47.8369 106.055 47.765 106.135 47.6827C106.211 47.608 106.295 47.5352 106.382 47.4624C106.558 47.3178 106.758 47.177 106.984 47.0429C107.212 46.9107 107.463 46.7843 107.734 46.6627C107.989 46.5382 108.266 46.4204 108.545 46.3045C109.103 46.0766 109.689 45.8687 110.221 45.6906C110.744 45.5086 111.204 45.3535 111.543 45.2462C111.88 45.138 112.087 45.0776 112.087 45.0776C112.087 45.0776 112.01 45.2721 111.863 45.5843C111.79 45.7413 111.702 45.931 111.591 46.1331C111.475 46.3371 111.345 46.5564 111.2 46.7881C111.056 47.0199 110.894 47.2593 110.724 47.4997C110.681 47.5582 110.637 47.6185 110.591 47.6769C110.546 47.7334 110.499 47.7909 110.448 47.8512C110.352 47.9671 110.251 48.0801 110.149 48.1903C109.942 48.4144 109.727 48.626 109.507 48.8157C109.396 48.9133 109.286 49.0034 109.169 49.0867C109.051 49.1671 108.932 49.2438 108.811 49.3127C108.331 49.5876 107.849 49.7475 107.4 49.8347C107.174 49.8797 106.956 49.9017 106.751 49.9132Z" fill="#F9F5E9"/>
<path fill-rule="evenodd" clip-rule="evenodd" d="M104.581 47.3618C104.535 47.7306 104.428 48.0543 104.306 48.3177C104.245 48.4498 104.18 48.5657 104.118 48.6663C104.055 48.7668 103.986 48.8502 103.932 48.9153C103.82 49.0494 103.741 49.1174 103.741 49.1174C103.741 49.1174 103.316 48.8396 102.837 48.3397C102.718 48.2161 102.597 48.0782 102.474 47.9279C102.346 47.7737 102.223 47.608 102.107 47.4327C101.875 47.0803 101.668 46.6847 101.537 46.2518C101.503 46.1427 101.479 46.0335 101.452 45.9205C101.424 45.8075 101.402 45.6925 101.382 45.5786C101.345 45.3477 101.32 45.115 101.314 44.8852C101.306 44.4293 101.298 43.9715 101.332 43.5759C101.348 43.3767 101.368 43.19 101.39 43.0243C101.404 42.8557 101.419 42.7063 101.437 42.5837C101.465 42.3338 101.495 42.1863 101.495 42.1863C101.495 42.1863 101.645 42.3098 101.879 42.5272C102.113 42.7437 102.433 43.0549 102.774 43.4304C103.103 43.801 103.448 44.2358 103.747 44.6965C103.9 44.9273 104.04 45.1639 104.164 45.4023C104.282 45.636 104.373 45.8707 104.445 46.1015C104.515 46.3285 104.557 46.5506 104.581 46.7604C104.593 46.8667 104.6 46.9701 104.6 47.0697C104.6 47.1205 104.6 47.1703 104.598 47.2182C104.593 47.2651 104.588 47.313 104.581 47.3618Z" fill="#F9F5E9"/>
<path fill-rule="evenodd" clip-rule="evenodd" d="M111.003 40.4183C110.796 40.561 110.587 40.6788 110.379 40.7784C109.964 40.9757 109.559 41.0945 109.205 41.1663C108.493 41.309 107.979 41.2688 107.979 41.2688C107.979 41.2688 107.919 40.8531 108.053 40.2756C108.082 40.1281 108.138 39.9739 108.188 39.8102C108.24 39.6445 108.309 39.4721 108.398 39.2968C108.485 39.1196 108.597 38.9367 108.73 38.7538C108.797 38.6618 108.868 38.5689 108.947 38.477C108.987 38.431 109.028 38.385 109.071 38.3372C109.11 38.2912 109.152 38.2462 109.198 38.1983C109.896 37.4551 111.026 36.6918 111.917 36.0721C112.369 35.7647 112.779 35.5004 113.077 35.3098C113.375 35.1201 113.562 35.01 113.562 35.01C113.562 35.01 113.536 35.2159 113.477 35.555C113.417 35.894 113.328 36.3614 113.189 36.8785C113.029 37.3967 112.824 37.9636 112.569 38.4971C112.508 38.6302 112.435 38.7605 112.357 38.8888C112.281 39.0143 112.202 39.1407 112.121 39.2595C111.956 39.4989 111.78 39.723 111.592 39.9145C111.4 40.1099 111.212 40.2775 111.003 40.4183Z" fill="#F9F5E9"/>
<path fill-rule="evenodd" clip-rule="evenodd" d="M106.659 41.0245C106.659 41.0245 106.168 40.8646 105.562 40.5054C105.254 40.3244 104.921 40.0965 104.603 39.8187C104.444 39.678 104.29 39.5266 104.144 39.3619C103.992 39.1953 103.845 39.0171 103.717 38.8246C103.587 38.6321 103.475 38.4252 103.376 38.2136C103.277 38.0029 103.207 37.7864 103.121 37.5652C102.959 37.1266 102.851 36.686 102.774 36.2962C102.677 35.9007 102.62 35.5549 102.585 35.3078C102.552 35.0588 102.542 34.9094 102.542 34.9094C102.542 34.9094 102.718 34.9908 103.003 35.1402C103.287 35.2925 103.674 35.5099 104.105 35.7848C104.53 36.0597 105.008 36.3929 105.414 36.7598C105.828 37.1266 106.208 37.5298 106.485 37.9378C106.627 38.1389 106.717 38.341 106.798 38.5383C106.873 38.7346 106.925 38.9281 106.96 39.1148C106.995 39.2997 107.014 39.4778 107.016 39.6444C107.022 39.8101 106.995 39.9672 106.973 40.108C106.873 40.675 106.659 41.0245 106.659 41.0245Z" fill="#F9F5E9"/>
<path fill-rule="evenodd" clip-rule="evenodd" d="M112.121 27.852C112.087 28.0723 112.046 28.2935 111.997 28.51C111.892 28.9419 111.769 29.3509 111.566 29.71C111.308 30.1841 110.988 30.5624 110.651 30.8612C110.313 31.1591 109.969 31.3784 109.642 31.5402C108.992 31.8668 108.485 31.9626 108.485 31.9626C108.485 31.9626 108.442 31.8678 108.4 31.6983C108.359 31.5259 108.292 31.2845 108.266 30.9905C108.238 30.6936 108.244 30.345 108.322 29.9571C108.39 29.5702 108.513 29.1469 108.756 28.6929C108.836 28.5435 108.928 28.3864 109.028 28.2303C109.076 28.1547 109.128 28.0752 109.181 27.9947C109.232 27.9181 109.284 27.8357 109.336 27.7582C109.606 27.3645 109.909 26.9661 110.216 26.5859C110.521 26.2057 110.83 25.8408 111.088 25.5314C111.613 24.907 112.01 24.4731 112.01 24.4731C112.01 24.4731 112.071 24.7921 112.134 25.2882C112.172 25.5372 112.185 25.8341 112.194 26.1559C112.203 26.4777 112.203 26.8282 112.188 27.1854C112.182 27.4028 112.153 27.6289 112.121 27.852Z" fill="#F9F5E9"/>
<path fill-rule="evenodd" clip-rule="evenodd" d="M103.683 30.7366C103.618 30.683 103.557 30.6246 103.496 30.5652C103.433 30.5048 103.368 30.4435 103.308 30.3803C103.182 30.2568 103.07 30.1246 102.961 29.9886C102.855 29.8545 102.753 29.7157 102.658 29.5749C102.558 29.4255 102.468 29.2856 102.381 29.1554C102.224 28.9169 102.088 28.6784 101.97 28.4601C101.911 28.3499 101.858 28.2427 101.809 28.144C101.765 28.0425 101.707 27.9515 101.664 27.8653C101.487 27.5244 101.397 27.2993 101.397 27.2993C101.397 27.2993 101.943 27.3846 102.711 27.5886C102.899 27.6384 103.109 27.6949 103.313 27.7648C103.52 27.8309 103.735 27.9075 103.951 27.9908C104.384 28.1565 104.826 28.3547 105.237 28.5817C105.558 28.7551 105.828 28.9524 106.073 29.1583C106.445 29.4753 106.712 29.8229 106.887 30.161C107.053 30.501 107.14 30.8305 107.18 31.1139C107.219 31.4003 107.226 31.6388 107.198 31.8093C107.177 31.9788 107.146 32.0774 107.146 32.0774C107.146 32.0774 106.631 32.0525 105.948 31.8658C105.265 31.6809 104.381 31.3438 103.683 30.7366Z" fill="#F9F5E9"/>
<path fill-rule="evenodd" clip-rule="evenodd" d="M108.002 21.2552C107.76 21.6335 107.484 21.94 107.223 22.1833C106.7 22.6669 106.242 22.8949 106.242 22.8949C106.242 22.8949 106.173 22.8135 106.077 22.665C105.979 22.5146 105.865 22.2905 105.751 22.0147C105.632 21.7398 105.533 21.4056 105.487 21.0129C105.464 20.8204 105.464 20.6069 105.464 20.3875C105.465 20.1663 105.488 19.9326 105.533 19.6846C105.579 19.4356 105.647 19.1731 105.727 18.905C105.768 18.7709 105.814 18.633 105.86 18.497C105.908 18.3629 105.952 18.2259 106 18.089C106.192 17.5431 106.419 16.9924 106.631 16.4992C106.739 16.2549 106.84 16.0222 106.932 15.8115C107.025 15.6046 107.107 15.4198 107.177 15.2656C107.316 14.9534 107.403 14.7676 107.403 14.7676C107.403 14.7676 107.506 14.9534 107.655 15.2656C107.735 15.4179 107.81 15.6113 107.896 15.8249C107.979 16.0423 108.068 16.2827 108.153 16.5375C108.194 16.6648 108.236 16.798 108.279 16.932C108.318 17.0671 108.359 17.204 108.39 17.3487C108.453 17.6312 108.506 17.9271 108.546 18.2183C108.585 18.5104 108.612 18.8025 108.612 19.0841C108.607 19.3723 108.58 19.651 108.53 19.9106C108.427 20.4325 108.236 20.8788 108.002 21.2552Z" fill="#F9F5E9"/>
<path fill-rule="evenodd" clip-rule="evenodd" d="M100.646 22.6562C100.439 22.5317 100.236 22.3919 100.049 22.2473C99.8593 22.0998 99.6855 21.9475 99.5185 21.7952C99.3505 21.6458 99.1815 21.4983 99.0368 21.3547C98.8883 21.211 98.7562 21.0721 98.6387 20.9476C98.5804 20.8825 98.5251 20.8222 98.4746 20.7676C98.4231 20.712 98.3746 20.6622 98.3319 20.6153C98.1532 20.4276 98.0571 20.3098 98.0571 20.3098C98.0571 20.3098 98.2542 20.2858 98.5834 20.2657C98.9096 20.2446 99.3738 20.2217 99.8826 20.2408C100.392 20.2571 100.969 20.3031 101.533 20.395C101.677 20.4199 101.819 20.4448 101.958 20.4735C102.093 20.5071 102.226 20.5406 102.357 20.5789C102.618 20.6536 102.869 20.7436 103.097 20.8471C103.325 20.9476 103.529 21.0635 103.709 21.189C103.893 21.3135 104.038 21.4543 104.172 21.5922C104.432 21.8737 104.616 22.163 104.746 22.4254C104.87 22.6869 104.923 22.9244 104.954 23.091C104.987 23.2596 104.988 23.3611 104.988 23.3611C104.988 23.3611 104.487 23.476 103.774 23.4789C103.416 23.4827 103.011 23.4578 102.585 23.3841C102.15 23.3142 101.699 23.1954 101.266 23.0029C101.053 22.9043 100.848 22.7874 100.646 22.6562Z" fill="#F9F5E9"/>
<path fill-rule="evenodd" clip-rule="evenodd" d="M102.898 13.0992C102.775 13.5234 102.598 13.8883 102.417 14.1872C102.054 14.7829 101.681 15.1181 101.681 15.1181C101.681 15.1181 101.314 14.8825 100.947 14.4036C100.853 14.2829 100.761 14.1479 100.674 13.9947C100.585 13.8472 100.492 13.6824 100.414 13.5033C100.255 13.1432 100.138 12.7094 100.09 12.2047C100.034 11.7057 100.045 11.1368 100.086 10.5554C100.131 9.9674 100.183 9.39181 100.246 8.8641C100.312 8.33735 100.38 7.87093 100.429 7.53285C100.483 7.19956 100.515 6.99365 100.515 6.99365C100.515 6.99365 100.556 7.02813 100.62 7.10283C100.683 7.17658 100.776 7.28193 100.888 7.41697C101.114 7.68609 101.419 8.06439 101.732 8.50878C102.029 8.96753 102.335 9.49237 102.58 10.0277C102.817 10.5746 102.983 11.1435 103.038 11.6645C103.052 11.7967 103.058 11.9231 103.058 12.0495C103.058 12.175 103.047 12.2995 103.034 12.4201C103.007 12.6615 102.959 12.8885 102.898 13.0992Z" fill="#F9F5E9"/>
<path fill-rule="evenodd" clip-rule="evenodd" d="M96.2047 16.319C96.0892 16.2826 95.9775 16.2414 95.862 16.1964C95.8076 16.1753 95.7522 16.1533 95.6959 16.1303C95.6377 16.1063 95.5833 16.0862 95.526 16.0642C95.0725 15.8851 94.6589 15.6648 94.2986 15.458C93.9267 15.2655 93.6208 15.072 93.4043 14.9322C93.2955 14.8594 93.2101 14.799 93.1538 14.7598C93.0906 14.7196 93.0586 14.6994 93.0586 14.6994C93.0586 14.6994 93.1052 14.6822 93.1907 14.6487C93.2781 14.6161 93.4004 14.573 93.5529 14.5251C93.8578 14.4265 94.2918 14.2972 94.7929 14.1794C95.0453 14.121 95.3114 14.0645 95.5901 14.0166C95.728 13.9936 95.8697 13.9697 96.0096 13.9505C96.1504 13.9342 96.2912 13.9199 96.431 13.9084C96.9971 13.8614 97.5642 13.8633 98.0682 13.9428C98.5644 14.0252 98.9702 14.1976 99.3082 14.3939C99.4781 14.4935 99.6315 14.5998 99.7607 14.7119C99.8908 14.8249 99.9986 14.9417 100.093 15.0519C100.474 15.5001 100.604 15.8842 100.604 15.8842C100.604 15.8842 100.151 16.1245 99.4596 16.3123C99.1149 16.408 98.7119 16.4904 98.2789 16.5297C97.8438 16.5708 97.3933 16.5555 96.9126 16.4875C96.6708 16.4502 96.4359 16.3908 96.2047 16.319Z" fill="#F9F5E9"/>
<path fill-rule="evenodd" clip-rule="evenodd" d="M94.8911 8.23386C94.8008 8.42349 94.7377 8.52884 94.7377 8.52884C94.7377 8.52884 94.7105 8.52118 94.6648 8.50011C94.6173 8.48287 94.5503 8.45605 94.4658 8.41583C94.2978 8.34017 94.0686 8.2195 93.821 8.03657C93.3365 7.66018 92.7383 7.1047 92.3567 6.14984C92.2266 5.83667 92.1081 5.49284 92.0081 5.12507C91.8809 4.66824 91.776 4.18171 91.6847 3.70859C91.5886 3.24697 91.5051 2.79588 91.4371 2.39746C91.3031 1.60446 91.2303 1.03174 91.2303 1.03174C91.2303 1.03174 91.5177 1.20317 91.9469 1.49911C92.1586 1.64373 92.4082 1.82282 92.6713 2.0249C92.9286 2.23752 93.1996 2.47504 93.4656 2.72883C93.6307 2.8859 93.7899 3.04776 93.9453 3.21536C93.9832 3.25654 94.024 3.29773 94.0618 3.34082C94.0968 3.38392 94.1337 3.42798 94.1706 3.47395C94.2405 3.56397 94.3094 3.654 94.3794 3.74498C94.6474 4.10605 94.8746 4.48148 95.0309 4.85212C95.1358 5.09155 95.2009 5.34535 95.2465 5.58095C95.2902 5.81847 95.3125 6.04737 95.3154 6.2686C95.3251 6.7082 95.2611 7.10278 95.1727 7.43799C95.0863 7.77319 94.9785 8.04327 94.8911 8.23386Z" fill="#F9F5E9"/>
<path fill-rule="evenodd" clip-rule="evenodd" d="M88.4492 10.9673C88.1579 10.9118 87.884 10.8448 87.6326 10.7796C87.3791 10.7231 87.149 10.6628 86.9567 10.6082C86.5751 10.4971 86.3391 10.4061 86.3391 10.4061C86.3391 10.4061 86.7732 10.0805 87.4413 9.68399C87.7724 9.4867 88.1647 9.27025 88.5929 9.07009C89.0124 8.87471 89.46 8.70136 89.9086 8.56824C90.2543 8.46672 90.6 8.38723 90.9263 8.35275C91.9216 8.26464 92.7072 8.54621 93.1946 8.8862C93.4442 9.05093 93.6277 9.21662 93.751 9.34112C93.8122 9.40146 93.8578 9.45414 93.887 9.48957C93.9161 9.52884 93.9297 9.54895 93.9297 9.54895C93.9297 9.54895 93.8404 9.6361 93.6733 9.76731C93.5063 9.90044 93.2616 10.0786 92.9577 10.2596C92.6538 10.4444 92.2906 10.6302 91.8876 10.7835C91.6847 10.8582 91.471 10.9281 91.2506 10.9798C91.0302 11.0344 90.8039 11.0708 90.5612 11.1024C89.8572 11.1886 89.127 11.0756 88.4492 10.9673Z" fill="#F9F5E9"/>
<path fill-rule="evenodd" clip-rule="evenodd" d="M78.0518 66.9236C78.2431 66.8996 78.48 66.8718 78.747 66.8402C78.883 66.8201 79.0267 66.8115 79.1762 66.7837C79.3248 66.7579 79.4821 66.7301 79.6452 66.7023C79.9744 66.6468 80.3298 66.5874 80.7075 66.5232C81.0804 66.4418 81.4727 66.3556 81.8776 66.2694C82.0835 66.2215 82.2913 66.1832 82.4972 66.1277C82.703 66.0712 82.9118 66.0156 83.1235 65.9582C83.5439 65.8423 83.976 65.7398 84.3946 65.5952C86.0968 65.0933 87.7242 64.399 88.9244 63.8464C89.2186 63.7018 89.4944 63.5686 89.7342 63.4527C89.8566 63.3943 89.9673 63.3388 90.0712 63.2871C90.1751 63.2353 90.2673 63.1817 90.3518 63.1376C90.6907 62.9528 90.881 62.8465 90.881 62.8465C90.881 62.8465 91.0733 62.7431 91.4132 62.5582C91.7482 62.3676 92.2113 62.0746 92.7726 61.7355C93.8728 61.022 95.3148 60.0222 96.6305 58.8834C97.9521 57.7485 99.1659 56.5092 100.02 55.5371C100.133 55.4203 100.227 55.2986 100.323 55.1847C100.418 55.0707 100.505 54.9653 100.589 54.8629C100.757 54.6617 100.904 54.4846 101.024 54.338C101.147 54.1953 101.23 54.0727 101.29 53.9933C101.351 53.9109 101.385 53.8697 101.385 53.8697C101.385 53.8697 101.512 53.6983 101.738 53.3956C101.849 53.2453 101.993 53.0662 102.14 52.8497C102.286 52.6333 102.453 52.3881 102.631 52.1218C102.723 51.9897 102.817 51.8508 102.912 51.7062C103.011 51.5616 103.097 51.4074 103.194 51.2513C103.387 50.9352 103.585 50.6029 103.792 50.26C103.98 49.9066 104.178 49.5427 104.378 49.174C104.43 49.0801 104.479 48.9872 104.53 48.8953C104.575 48.7985 104.618 48.7028 104.666 48.6079C104.757 48.4164 104.848 48.2239 104.942 48.0304C105.663 46.4885 106.26 44.8929 106.601 43.6661C106.648 43.5138 106.69 43.3672 106.733 43.2293C106.774 43.0905 106.816 42.9593 106.842 42.8347C106.902 42.5838 106.959 42.3635 107 42.1835C107.088 41.8234 107.14 41.6175 107.14 41.6175C107.14 41.6175 107.152 41.5658 107.177 41.469C107.198 41.3752 107.223 41.2296 107.258 41.0467C107.292 40.8657 107.333 40.6463 107.379 40.3916C107.426 40.1397 107.491 39.8543 107.525 39.5382C107.568 39.2241 107.614 38.8841 107.661 38.524C107.673 38.4349 107.688 38.343 107.697 38.2511C107.71 38.1591 107.715 38.0653 107.724 37.9685C107.736 37.7799 107.755 37.5845 107.769 37.3872C107.853 36.599 107.853 35.7533 107.879 34.9095C107.853 34.0639 107.853 33.2191 107.769 32.43C107.755 32.2336 107.736 32.0392 107.724 31.8496C107.715 31.7538 107.71 31.66 107.697 31.568C107.688 31.4751 107.673 31.3832 107.661 31.2932C107.614 30.934 107.568 30.5921 107.525 30.2789C107.491 29.9629 107.426 29.6803 107.379 29.4256C107.333 29.1727 107.292 28.9525 107.258 28.7705C107.223 28.5895 107.198 28.4439 107.177 28.3481C107.152 28.2514 107.14 28.1997 107.14 28.1997C107.14 28.1997 107.088 27.9947 107 27.6346C106.959 27.4546 106.902 27.2362 106.842 26.9853C106.816 26.8598 106.774 26.7267 106.733 26.5888C106.69 26.449 106.648 26.3043 106.601 26.1511C106.26 24.9262 105.663 23.3306 104.942 21.7867C104.848 21.5961 104.757 21.4008 104.666 21.2102C104.618 21.1135 104.575 21.0206 104.53 20.9238C104.479 20.8309 104.43 20.738 104.378 20.6432C104.178 20.2735 103.98 19.9096 103.792 19.5581C103.585 19.2152 103.387 18.8829 103.194 18.5678C103.097 18.4127 103.011 18.2556 102.912 18.1119C102.817 17.9673 102.723 17.8294 102.631 17.6953C102.453 17.4291 102.286 17.1839 102.14 16.9684C101.993 16.752 101.849 16.5738 101.738 16.4225C101.512 16.1208 101.385 15.9494 101.385 15.9494C101.385 15.9494 101.351 15.9063 101.29 15.8249C101.23 15.7454 101.147 15.6228 101.024 15.4801C100.904 15.3345 100.757 15.1583 100.589 14.9553C100.505 14.8537 100.418 14.7465 100.323 14.6306C100.227 14.5195 100.133 14.3979 100.02 14.2801C99.1659 13.3099 97.9521 12.0696 96.6305 10.9337C95.3148 9.79501 93.8728 8.79705 92.7726 8.08067C92.2113 7.7426 91.7482 7.44953 91.4132 7.26086C91.0733 7.07602 90.881 6.96971 90.881 6.96971C90.881 6.96971 90.6907 6.86532 90.3518 6.68047C90.2673 6.63546 90.1751 6.58566 90.0712 6.52915C89.9673 6.47935 89.8566 6.4238 89.7342 6.36538C89.6527 6.32516 89.5692 6.28493 89.4818 6.24375C89.475 6.24375 89.4682 6.24375 89.4604 6.24375C89.2458 6.26195 88.9419 6.27152 88.5855 6.25237C87.866 6.22076 86.9357 6.07423 86.1162 5.63176C85.6918 5.41723 85.2918 5.12608 84.9442 4.81099C84.7742 4.652 84.5975 4.49302 84.4334 4.33499C84.2712 4.17697 84.1227 4.01799 83.9857 3.86475C83.7255 3.55636 83.4818 3.29011 83.3225 3.0909C83.1652 2.8917 83.0759 2.76623 83.0759 2.76623C83.0759 2.76623 83.273 2.75761 83.5993 2.75523C83.9255 2.75283 84.3839 2.7624 84.9005 2.80263C85.0306 2.81412 85.1646 2.8237 85.2996 2.83998C85.4336 2.85626 85.5695 2.87446 85.7054 2.89649C85.9793 2.93767 86.2589 2.99034 86.5357 3.05451C87.0863 3.1838 87.6446 3.35045 88.0718 3.58701C88.5088 3.82069 88.8448 4.10418 89.1011 4.39437C89.3468 4.6884 89.5002 4.99295 89.6119 5.26208C89.7148 5.53024 89.7702 5.76584 89.7906 5.93632C89.7964 5.96888 89.7974 5.99953 89.7993 6.02826C89.8314 6.04454 89.8634 6.06178 89.8964 6.07423C90.0168 6.13553 90.1304 6.19012 90.2372 6.24088C90.3392 6.29834 90.4344 6.34814 90.5208 6.39603C90.8597 6.58087 91.0539 6.68814 91.0539 6.68814C91.0539 6.68814 91.25 6.79349 91.5918 6.97928C91.9268 7.17083 92.3958 7.46581 92.9658 7.81059C94.0777 8.53081 95.5323 9.54025 96.8636 10.6914C98.1968 11.8369 99.4213 13.0896 100.287 14.0703C100.4 14.1891 100.494 14.3145 100.589 14.4266C100.687 14.5415 100.776 14.6497 100.859 14.7532C101.029 14.9572 101.178 15.1353 101.298 15.2828C101.423 15.4274 101.506 15.551 101.569 15.6314C101.629 15.7119 101.663 15.7559 101.663 15.7559C101.663 15.7559 101.793 15.9302 102.022 16.2329C102.133 16.388 102.278 16.5681 102.428 16.7855C102.577 17.0048 102.742 17.2519 102.923 17.5201C103.017 17.6551 103.109 17.7949 103.208 17.9405C103.304 18.0861 103.394 18.2451 103.494 18.4021C103.683 18.7182 103.888 19.0553 104.096 19.4029C104.288 19.7573 104.487 20.1251 104.687 20.5005C104.738 20.5944 104.789 20.6882 104.841 20.7821C104.885 20.8769 104.933 20.9736 104.977 21.0704C105.07 21.2648 105.163 21.4601 105.254 21.6546C105.986 23.2128 106.591 24.8247 106.932 26.062C106.981 26.2162 107.023 26.3628 107.064 26.5045C107.107 26.6463 107.152 26.7765 107.178 26.9048C107.239 27.1567 107.294 27.3789 107.336 27.5609C107.426 27.9229 107.477 28.1317 107.477 28.1317C107.477 28.1317 107.49 28.1844 107.513 28.2811C107.537 28.3788 107.56 28.5244 107.596 28.7073C107.629 28.8912 107.673 29.1153 107.72 29.371C107.765 29.6267 107.831 29.914 107.867 30.232C107.91 30.55 107.957 30.8938 108.004 31.2568C108.015 31.3487 108.03 31.4406 108.041 31.5326C108.053 31.6284 108.058 31.7232 108.067 31.818C108.082 32.0095 108.096 32.204 108.113 32.408C108.197 33.2019 108.197 34.0552 108.227 34.9095C108.197 35.7629 108.197 36.6153 108.113 37.413C108.096 37.6123 108.082 37.8067 108.067 38.0011C108.058 38.0969 108.053 38.1917 108.041 38.2827C108.03 38.3765 108.015 38.4713 108.004 38.5614C107.957 38.9234 107.91 39.2701 107.867 39.5871C107.831 39.9031 107.765 40.1914 107.72 40.4481C107.673 40.7038 107.629 40.925 107.596 41.1099C107.56 41.2938 107.537 41.4384 107.513 41.537C107.49 41.6338 107.477 41.6864 107.477 41.6864C107.477 41.6864 107.426 41.8933 107.336 42.2563C107.294 42.4392 107.239 42.6614 107.178 42.9123C107.152 43.0397 107.107 43.1738 107.064 43.3127C107.023 43.4544 106.981 43.6019 106.932 43.7561C106.591 44.9935 105.986 46.6044 105.254 48.1655C105.163 48.358 105.07 48.5533 104.977 48.7468C104.933 48.8445 104.885 48.9403 104.841 49.036C104.789 49.128 104.738 49.2247 104.687 49.3186C104.487 49.6911 104.288 50.0599 104.096 50.4152C103.888 50.7619 103.683 51.098 103.494 51.416C103.394 51.5731 103.304 51.7311 103.208 51.8767C103.109 52.0213 103.017 52.164 102.923 52.2981C102.742 52.5672 102.577 52.8143 102.428 53.0326C102.278 53.2501 102.133 53.4311 102.022 53.5843C101.793 53.8879 101.663 54.0622 101.663 54.0622C101.663 54.0622 101.629 54.1063 101.569 54.1877C101.506 54.2681 101.423 54.3907 101.298 54.5353C101.178 54.6819 101.029 54.861 100.859 55.0669C100.776 55.1684 100.687 55.2766 100.589 55.3915C100.494 55.5026 100.4 55.6291 100.287 55.7469C99.4213 56.7295 98.1968 57.9812 96.8636 59.1267C95.5323 60.276 94.0777 61.2854 92.9658 62.0085C92.3958 62.3523 91.9268 62.6463 91.5918 62.8388C91.25 63.0256 91.0539 63.13 91.0539 63.13C91.0539 63.13 90.8597 63.2382 90.5208 63.4221C90.4344 63.469 90.3392 63.5207 90.2372 63.5763C90.1304 63.628 90.0168 63.6826 89.8964 63.741C89.6527 63.8598 89.3779 63.9948 89.0769 64.1404C87.864 64.6978 86.2191 65.3988 84.5004 65.9064C84.078 66.052 83.642 66.1545 83.2147 66.2723C83.005 66.3307 82.7923 66.3882 82.5836 66.4437C82.3777 66.5012 82.167 66.5386 81.9611 66.5864C81.5504 66.6755 81.1523 66.7617 80.7765 66.845C80.3968 66.9082 80.0366 66.9686 79.7045 67.0251C79.5384 67.0529 79.3811 67.0816 79.2306 67.1065C79.0772 67.1352 78.9325 67.1458 78.7975 67.1649C78.5247 67.1975 78.2877 67.2243 78.0916 67.2492C77.7032 67.2971 77.4798 67.3239 77.4798 67.3239L77.4439 66.9963C77.4439 66.9963 77.6663 66.9705 78.0518 66.9236Z" fill="#F9F5E9"/>
<path fill-rule="evenodd" clip-rule="evenodd" d="M81.8779 66.6037C81.8779 66.6037 77.1869 67.7836 76.1323 72.0455L76.2644 67.0241L81.5653 66.3374L81.8779 66.6037Z" fill="#F9F5E9"/>
</g>
<mask id="mask2_1_193" style="mask-type:luminance" maskUnits="userSpaceOnUse" x="0" y="2" width="39" height="73">
<path d="M38.0625 2.5H0.0625V74.5H38.0625V2.5Z" fill="white"/>
</mask>
<g mask="url(#mask2_1_193)">
<path fill-rule="evenodd" clip-rule="evenodd" d="M28.8554 68.1899C28.6476 68.188 28.4292 68.2014 28.1971 68.232C28.1379 68.2416 28.0767 68.2512 28.0184 68.2617C27.9582 68.2703 27.9009 68.2809 27.8388 68.2904C27.7184 68.3134 27.5912 68.3422 27.4649 68.3757C26.9551 68.5117 26.3968 68.7339 25.8385 68.9877C25.2918 69.2242 24.7402 69.4905 24.245 69.7424C23.7517 69.9923 23.3128 70.2318 23.004 70.3927C22.6952 70.5555 22.5088 70.6599 22.5088 70.6599C22.5088 70.6599 22.5573 70.6771 22.6544 70.7135C22.7486 70.7441 22.8836 70.7968 23.0565 70.8437C23.4041 70.9414 23.8915 71.0688 24.4431 71.178C24.5819 71.2058 24.7208 71.2364 24.8684 71.2575C25.017 71.2786 25.1684 71.2948 25.319 71.3111C25.6239 71.3427 25.9346 71.3667 26.2463 71.3743C26.8629 71.4002 27.4853 71.3236 28.0194 71.178C29.0875 70.8916 29.8119 70.2432 30.2615 69.704C30.714 69.162 30.9063 68.7061 30.9063 68.7061C30.9063 68.7061 30.5402 68.4724 29.9304 68.3326C29.6264 68.2607 29.2681 68.1899 28.8554 68.1899Z" fill="#F9F5E9"/>
<path fill-rule="evenodd" clip-rule="evenodd" d="M30.4919 63.9987C30.2423 63.608 29.9132 63.2661 29.5723 62.9309C29.4034 62.7642 29.2266 62.6129 29.047 62.4712C28.9557 62.3993 28.8683 62.3323 28.7848 62.2672C28.7013 62.1972 28.6168 62.1302 28.5343 62.067C28.2051 61.8161 27.9041 61.615 27.6866 61.4799C27.4691 61.3334 27.336 61.2529 27.336 61.2529C27.336 61.2529 27.3341 61.4426 27.3467 61.7548C27.3545 62.0737 27.3885 62.4941 27.4574 62.9778C27.5273 63.4605 27.6351 64.0016 27.7905 64.5303C27.9507 65.0417 28.1653 65.5397 28.4275 65.9525C28.4906 66.0559 28.5595 66.1536 28.6304 66.2446C28.6644 66.2915 28.7013 66.3337 28.7392 66.3768C28.7761 66.417 28.812 66.4563 28.8499 66.4946C29.0033 66.6459 29.1635 66.7752 29.3247 66.8853C29.4849 66.9964 29.6452 67.0893 29.8025 67.164C29.9578 67.2378 30.1103 67.3039 30.255 67.3422C30.8356 67.504 31.259 67.4763 31.259 67.4763C31.259 67.4763 31.326 66.9869 31.2561 66.3126C31.2211 65.9745 31.1561 65.5905 31.0337 65.1978C31.0036 65.1001 30.9706 64.9996 30.9308 64.9019C30.8968 64.8004 30.857 64.6979 30.8104 64.5964C30.7201 64.3952 30.6172 64.1922 30.4919 63.9987Z" fill="#F9F5E9"/>
<path fill-rule="evenodd" clip-rule="evenodd" d="M22.2255 65.1588C22.1896 65.1243 22.1343 65.0802 22.0673 65.0208C21.9284 64.9021 21.7225 64.745 21.4545 64.5956C21.3176 64.519 21.17 64.4462 21.0001 64.3792C20.8331 64.3112 20.6457 64.2518 20.4524 64.1905C20.0601 64.0775 19.5999 64.0066 19.0629 64.0171C18.792 64.0229 18.5143 64.0373 18.223 64.065C17.9336 64.0928 17.6335 64.134 17.3335 64.1828C17.0296 64.2307 16.7237 64.2882 16.4275 64.3437C16.1381 64.4022 15.8498 64.4596 15.5769 64.5142C15.0331 64.6282 14.5495 64.7374 14.2048 64.8197C13.8543 64.903 13.6465 64.9586 13.6465 64.9586C13.6465 64.9586 13.8252 65.0802 14.1301 65.2679C14.2777 65.3618 14.4622 65.47 14.669 65.5878C14.77 65.6462 14.8807 65.7075 14.9962 65.7698C15.1118 65.8301 15.2351 65.8885 15.3623 65.9479C15.6167 66.0657 15.8886 66.1835 16.1692 66.2965C16.312 66.3502 16.4518 66.4038 16.5984 66.4555C16.6712 66.4823 16.7431 66.5082 16.8159 66.5312C16.8897 66.5513 16.9645 66.5733 17.0402 66.5944C17.6394 66.7563 18.2472 66.8626 18.7978 66.8607C19.9252 66.829 20.7913 66.4134 21.3769 66.0102C21.6691 65.8138 21.8973 65.6079 22.0498 65.4576C22.2013 65.3082 22.2799 65.2105 22.2799 65.2105C22.2799 65.2105 22.2615 65.1923 22.2255 65.1588Z" fill="#F9F5E9"/>
<path fill-rule="evenodd" clip-rule="evenodd" d="M20.6721 61.9265C20.8129 62.3795 21.0304 62.7549 21.2721 63.0547C21.3906 63.2098 21.5227 63.3343 21.6547 63.4416C21.7858 63.5508 21.9198 63.6437 22.047 63.7232C22.2995 63.8812 22.5306 63.9808 22.6957 64.0421C22.7782 64.0746 22.851 64.09 22.8957 64.1015C22.9472 64.1129 22.9715 64.1177 22.9715 64.1177C22.9715 64.1177 23.0229 64.0038 23.086 63.8093C23.1511 63.613 23.2307 63.3362 23.2938 62.9982C23.424 62.3239 23.4803 61.439 23.2123 60.5732C23.088 60.1288 22.8763 59.6997 22.6287 59.3061C22.3908 58.9048 22.1276 58.5236 21.8693 58.2085C21.7382 58.0534 21.6256 57.8973 21.5159 57.7642C21.4091 57.6291 21.3071 57.5142 21.2226 57.4184C21.0546 57.2269 20.943 57.1187 20.943 57.1187C20.943 57.1187 20.8876 57.3006 20.8148 57.6013C20.742 57.9011 20.6507 58.3263 20.5779 58.81C20.5429 59.0542 20.507 59.3166 20.4866 59.5819C20.471 59.8434 20.4623 60.1135 20.4672 60.3826C20.471 60.6527 20.4866 60.9237 20.5196 61.1861C20.5546 61.4457 20.5973 61.7023 20.6721 61.9265Z" fill="#F9F5E9"/>
<path fill-rule="evenodd" clip-rule="evenodd" d="M14.5058 59.102C14.4038 58.9574 14.2592 58.7496 14.0436 58.5331C13.83 58.3167 13.5484 58.0916 13.1959 57.8819C12.8541 57.6674 12.4336 57.4758 11.9161 57.3436C11.7442 57.2986 11.5587 57.2613 11.3733 57.2239C11.1878 57.1856 10.9975 57.154 10.7994 57.1234C9.82447 56.9788 8.71749 56.9242 7.88532 56.8724C7.04149 56.8265 6.43945 56.8169 6.43945 56.8169C6.43945 56.8169 6.64531 57.0707 6.99585 57.4471C7.33571 57.8273 7.86104 58.2966 8.44269 58.7525C8.53397 58.8224 8.62524 58.8885 8.71458 58.9574C8.76216 58.9909 8.8078 59.0235 8.85732 59.0589C8.9049 59.0905 8.95442 59.1202 9.00297 59.1528C9.20009 59.2763 9.4011 59.3961 9.60501 59.5043C9.80699 59.6135 10.0109 59.7131 10.2177 59.7964C10.4217 59.8826 10.6207 59.9582 10.8305 60.0071C11.92 60.2743 12.8696 60.1086 13.5523 59.874C14.2407 59.6336 14.6563 59.3405 14.6563 59.3405C14.6563 59.3405 14.6087 59.2486 14.5058 59.102Z" fill="#F9F5E9"/>
<path fill-rule="evenodd" clip-rule="evenodd" d="M14.8656 57.8512C15.0627 58.0705 15.2492 58.2324 15.3968 58.3301C15.5434 58.4287 15.6405 58.4728 15.6405 58.4728C15.6405 58.4728 15.9668 58.0935 16.2785 57.4882C16.597 56.8762 16.9174 56.0334 16.9106 55.1351C16.9145 54.8028 16.8776 54.457 16.8096 54.1247C16.7766 53.96 16.7329 53.7952 16.6853 53.6324C16.6377 53.4753 16.5979 53.3087 16.5465 53.1536C16.462 52.8835 16.3668 52.6287 16.2726 52.4008C16.2474 52.3443 16.2221 52.2887 16.2008 52.2332C16.1765 52.1786 16.1581 52.1259 16.1357 52.0723C16.0949 51.9679 16.0561 51.8721 16.0173 51.784C15.8638 51.4306 15.7463 51.2161 15.7463 51.2161C15.7463 51.2161 15.4482 51.6605 15.1006 52.3347C15.0122 52.5033 14.921 52.6843 14.8316 52.8796C14.7879 52.9764 14.7433 53.0779 14.7005 53.1765C14.6568 53.2771 14.6199 53.3796 14.5772 53.484C14.4218 53.8977 14.283 54.3431 14.1898 54.7836C14.1509 54.9541 14.1228 55.1217 14.1004 55.2864C14.08 55.4502 14.0742 55.6082 14.0742 55.7605C14.0742 56.2384 14.1733 56.6531 14.315 57.0075C14.4675 57.3551 14.6714 57.6319 14.8656 57.8512Z" fill="#F9F5E9"/>
<path fill-rule="evenodd" clip-rule="evenodd" d="M7.24988 51.9132C7.46059 51.9228 7.65868 51.9199 7.84415 51.9084C8.57436 51.8615 9.05794 51.6901 9.05794 51.6901C9.05794 51.6901 9.03949 51.5876 8.98414 51.419C8.95792 51.3357 8.91811 51.238 8.87053 51.126C8.8278 51.0101 8.77343 50.8865 8.70351 50.7544C8.56077 50.4881 8.36559 50.1941 8.08302 49.9029C8.01796 49.8369 7.94611 49.765 7.86551 49.6827C7.78977 49.608 7.70626 49.5352 7.61887 49.4624C7.44311 49.3178 7.24308 49.177 7.01683 49.0429C6.78864 48.9107 6.53811 48.7843 6.26719 48.6627C6.01181 48.5382 5.73507 48.4204 5.45638 48.3045C4.89804 48.0766 4.31154 47.8687 3.78038 47.6906C3.257 47.5086 2.79673 47.3535 2.45784 47.2462C2.12089 47.138 1.91406 47.0776 1.91406 47.0776C1.91406 47.0776 1.99077 47.2721 2.13837 47.5843C2.2112 47.7413 2.29859 47.931 2.41026 48.1331C2.52581 48.3371 2.65593 48.5564 2.80061 48.7881C2.9453 49.0199 3.10649 49.2593 3.27739 49.4997C3.32012 49.5582 3.36381 49.6185 3.41042 49.6769C3.45509 49.7334 3.5017 49.7909 3.55316 49.8512C3.64929 49.9671 3.75028 50.0801 3.85224 50.1903C4.05907 50.4144 4.27367 50.626 4.49409 50.8157C4.60479 50.9133 4.71452 51.0034 4.83201 51.0867C4.95048 51.1671 5.06894 51.2438 5.19032 51.3127C5.67001 51.5876 6.15164 51.7475 6.60123 51.8347C6.82651 51.8797 7.04499 51.9017 7.24988 51.9132Z" fill="#F9F5E9"/>
<path fill-rule="evenodd" clip-rule="evenodd" d="M9.41982 49.3618C9.46643 49.7306 9.57324 50.0543 9.69462 50.3177C9.75579 50.4498 9.82085 50.5657 9.883 50.6663C9.94612 50.7668 10.0151 50.8502 10.0694 50.9153C10.1811 51.0494 10.2598 51.1174 10.2598 51.1174C10.2598 51.1174 10.6851 50.8396 11.1638 50.3397C11.2832 50.2161 11.4036 50.0782 11.527 49.9279C11.6551 49.7737 11.7775 49.608 11.894 49.4327C12.1261 49.0803 12.3329 48.6847 12.464 48.2518C12.498 48.1427 12.5223 48.0335 12.5494 47.9205C12.5766 47.8075 12.599 47.6925 12.6194 47.5786C12.6563 47.3477 12.6805 47.115 12.6873 46.8852C12.6951 46.4293 12.7029 45.9715 12.6689 45.5759C12.6533 45.3767 12.633 45.19 12.6106 45.0243C12.597 44.8557 12.5825 44.7063 12.564 44.5837C12.5359 44.3338 12.5058 44.1863 12.5058 44.1863C12.5058 44.1863 12.3562 44.3098 12.1222 44.5272C11.8882 44.7437 11.5677 45.0549 11.2269 45.4304C10.8977 45.801 10.553 46.2358 10.2539 46.6965C10.1005 46.9273 9.96068 47.1639 9.83736 47.4023C9.71889 47.636 9.62762 47.8707 9.55576 48.1015C9.48585 48.3285 9.44409 48.5506 9.41982 48.7604C9.40816 48.8667 9.40137 48.9701 9.40137 49.0697C9.40137 49.1205 9.40137 49.1703 9.40331 49.2182C9.40816 49.2651 9.41302 49.313 9.41982 49.3618Z" fill="#F9F5E9"/>
<path fill-rule="evenodd" clip-rule="evenodd" d="M2.99812 42.4183C3.20495 42.561 3.41372 42.6788 3.62152 42.7784C4.03712 42.9757 4.44204 43.0945 4.79647 43.1663C5.50823 43.309 6.02191 43.2688 6.02191 43.2688C6.02191 43.2688 6.08211 42.8531 5.94811 42.2756C5.91898 42.1281 5.86266 41.9739 5.81314 41.8102C5.7607 41.6445 5.69176 41.4721 5.6034 41.2968C5.516 41.1196 5.40433 40.9367 5.2713 40.7538C5.2043 40.6618 5.13342 40.5689 5.05379 40.477C5.01398 40.431 4.9732 40.385 4.9295 40.3372C4.89066 40.2912 4.8489 40.2462 4.80327 40.1983C4.10509 39.4551 2.97481 38.6918 2.08438 38.0721C1.63188 37.7647 1.2221 37.5004 0.923998 37.3098C0.625891 37.1201 0.439453 37.01 0.439453 37.01C0.439453 37.01 0.4647 37.2159 0.523933 37.555C0.584137 37.894 0.673472 38.3614 0.812329 38.8785C0.971578 39.3967 1.17744 39.9636 1.43185 40.4971C1.49302 40.6302 1.56585 40.7605 1.64353 40.8888C1.72024 41.0143 1.7989 41.1407 1.88046 41.2595C2.04457 41.4989 2.22129 41.723 2.4087 41.9145C2.60097 42.1099 2.78935 42.2775 2.99812 42.4183Z" fill="#F9F5E9"/>
<path fill-rule="evenodd" clip-rule="evenodd" d="M7.34157 43.0245C7.34157 43.0245 7.83291 42.8646 8.43883 42.5054C8.74665 42.3244 9.07971 42.0965 9.39821 41.8187C9.55746 41.678 9.71088 41.5266 9.85654 41.3619C10.009 41.1953 10.1556 41.0171 10.2838 40.8246C10.4139 40.6321 10.5256 40.4252 10.6246 40.2136C10.7237 40.0029 10.7936 39.7864 10.88 39.5652C11.0422 39.1266 11.15 38.686 11.2267 38.2962C11.3238 37.9007 11.3811 37.5549 11.416 37.3078C11.449 37.0588 11.4587 36.9094 11.4587 36.9094C11.4587 36.9094 11.283 36.9908 10.9985 37.1402C10.714 37.2925 10.3265 37.5099 9.89635 37.7848C9.47104 38.0597 8.99329 38.3929 8.5874 38.7598C8.17277 39.1266 7.7931 39.5298 7.51635 39.9378C7.37361 40.1389 7.28428 40.341 7.20271 40.5383C7.12794 40.7346 7.0755 40.9281 7.04055 41.1148C7.00559 41.2997 6.98714 41.4778 6.9852 41.6444C6.97937 41.8101 7.00559 41.9672 7.02792 42.108C7.12794 42.675 7.34157 43.0245 7.34157 43.0245Z" fill="#F9F5E9"/>
<path fill-rule="evenodd" clip-rule="evenodd" d="M1.88047 29.852C1.91445 30.0723 1.95523 30.2935 2.00379 30.51C2.10866 30.9419 2.23198 31.3509 2.43492 31.71C2.69322 32.1841 3.01269 32.5624 3.34964 32.8612C3.68755 33.1591 4.03227 33.3784 4.35854 33.5402C5.00913 33.8668 5.516 33.9626 5.516 33.9626C5.516 33.9626 5.55873 33.8678 5.60146 33.6983C5.64224 33.5259 5.70924 33.2845 5.73449 32.9905C5.76265 32.6936 5.75682 32.345 5.67914 31.9571C5.61117 31.5702 5.48785 31.1469 5.24509 30.6929C5.16449 30.5435 5.07321 30.3864 4.9732 30.2303C4.92465 30.1547 4.87318 30.0752 4.81978 29.9947C4.76928 29.9181 4.71685 29.8357 4.66538 29.7582C4.39544 29.3645 4.0915 28.9661 3.78466 28.5859C3.47975 28.2057 3.17097 27.8408 2.91267 27.5314C2.38831 26.907 1.99116 26.4731 1.99116 26.4731C1.99116 26.4731 1.92999 26.7921 1.86687 27.2882C1.829 27.5372 1.81638 27.8341 1.80667 28.1559C1.79793 28.4777 1.79793 28.8282 1.81346 29.1854C1.81929 29.4028 1.84842 29.6289 1.88047 29.852Z" fill="#F9F5E9"/>
<path fill-rule="evenodd" clip-rule="evenodd" d="M10.3177 32.7366C10.3828 32.683 10.4439 32.6246 10.5051 32.5652C10.5682 32.5048 10.6333 32.4435 10.6925 32.3803C10.8188 32.2568 10.9314 32.1246 11.0402 31.9886C11.146 31.8545 11.248 31.7157 11.3431 31.5749C11.4431 31.4255 11.5334 31.2856 11.6199 31.1554C11.7772 30.9169 11.9131 30.6784 12.0306 30.4601C12.0898 30.3499 12.1432 30.2427 12.1918 30.144C12.2365 30.0425 12.2938 29.9515 12.3374 29.8653C12.5142 29.5244 12.6035 29.2993 12.6035 29.2993C12.6035 29.2993 12.0578 29.3846 11.2897 29.5886C11.1023 29.6384 10.8916 29.6949 10.6877 29.7648C10.4808 29.8309 10.2662 29.9075 10.0497 29.9908C9.61662 30.1565 9.1748 30.3547 8.76406 30.5817C8.44264 30.7551 8.1727 30.9524 7.928 31.1583C7.55609 31.4753 7.28906 31.8229 7.11427 32.161C6.94823 32.501 6.86083 32.8305 6.82102 33.1139C6.78218 33.4003 6.77538 33.6388 6.80257 33.8093C6.82394 33.9788 6.85501 34.0774 6.85501 34.0774C6.85501 34.0774 7.36965 34.0525 8.05326 33.8658C8.7359 33.6809 9.61953 33.3438 10.3177 32.7366Z" fill="#F9F5E9"/>
<path fill-rule="evenodd" clip-rule="evenodd" d="M5.99945 23.2552C6.24124 23.6335 6.51701 23.94 6.77822 24.1833C7.30063 24.6669 7.75896 24.8949 7.75896 24.8949C7.75896 24.8949 7.8279 24.8135 7.92403 24.665C8.02211 24.5146 8.13572 24.2905 8.2503 24.0147C8.36877 23.7398 8.46781 23.4056 8.51442 23.0129C8.53675 22.8204 8.53675 22.6069 8.53675 22.3875C8.53578 22.1663 8.51248 21.9326 8.46781 21.6846C8.42217 21.4356 8.3542 21.1731 8.2736 20.905C8.23282 20.7709 8.18718 20.633 8.14057 20.497C8.09299 20.3629 8.0493 20.2259 8.00074 20.089C7.80848 19.5431 7.58223 18.9924 7.36958 18.4992C7.26179 18.2549 7.1608 18.0222 7.06856 17.8115C6.97631 17.6046 6.89377 17.4198 6.82386 17.2656C6.685 16.9534 6.59761 16.7676 6.59761 16.7676C6.59761 16.7676 6.49468 16.9534 6.34611 17.2656C6.26551 17.4179 6.19074 17.6113 6.10529 17.8249C6.02178 18.0423 5.93342 18.2827 5.84797 18.5375C5.80719 18.6648 5.76543 18.798 5.72174 18.932C5.68289 19.0671 5.64211 19.204 5.61104 19.3487C5.54792 19.6312 5.49451 19.9271 5.4547 20.2183C5.41586 20.5104 5.38867 20.8025 5.38867 21.0841C5.39353 21.3723 5.42072 21.651 5.47121 21.9106C5.57414 22.4325 5.76543 22.8788 5.99945 23.2552Z" fill="#F9F5E9"/>
<path fill-rule="evenodd" clip-rule="evenodd" d="M13.3551 24.6562C13.562 24.5317 13.7649 24.3919 13.9523 24.2473C14.1417 24.0998 14.3155 23.9475 14.4825 23.7952C14.6505 23.6458 14.8195 23.4983 14.9641 23.3547C15.1127 23.211 15.2448 23.0721 15.3623 22.9476C15.4205 22.8825 15.4759 22.8222 15.5264 22.7676C15.5778 22.712 15.6264 22.6622 15.6691 22.6153C15.8478 22.4276 15.9439 22.3098 15.9439 22.3098C15.9439 22.3098 15.7468 22.2858 15.4176 22.2657C15.0913 22.2446 14.6272 22.2217 14.1184 22.2408C13.6086 22.2571 13.0318 22.3031 12.4676 22.395C12.3239 22.4199 12.1821 22.4448 12.0433 22.4735C11.9083 22.5071 11.7753 22.5406 11.6442 22.5789C11.383 22.6536 11.1315 22.7436 10.9043 22.8471C10.6761 22.9476 10.4722 23.0635 10.2915 23.189C10.108 23.3135 9.96333 23.4543 9.82933 23.5922C9.5691 23.8737 9.3846 24.163 9.25448 24.4254C9.13116 24.6869 9.07775 24.9244 9.04668 25.091C9.01367 25.2596 9.0127 25.3611 9.0127 25.3611C9.0127 25.3611 9.51374 25.476 10.2265 25.4789C10.5848 25.4827 10.9897 25.4578 11.416 25.3841C11.851 25.3142 12.3016 25.1954 12.7347 25.0029C12.9483 24.9043 13.1532 24.7874 13.3551 24.6562Z" fill="#F9F5E9"/>
<path fill-rule="evenodd" clip-rule="evenodd" d="M11.1026 15.0992C11.2259 15.5234 11.4027 15.8883 11.5842 16.1872C11.9474 16.7829 12.3203 17.1181 12.3203 17.1181C12.3203 17.1181 12.6873 16.8825 13.0544 16.4036C13.1476 16.2829 13.2398 16.1479 13.3272 15.9947C13.4156 15.8472 13.5088 15.6824 13.5865 15.5033C13.7458 15.1432 13.8633 14.7094 13.9108 14.2047C13.9672 13.7057 13.9565 13.1368 13.9147 12.5554C13.87 11.9674 13.8176 11.3918 13.7545 10.8641C13.6894 10.3374 13.6215 9.87093 13.5719 9.53285C13.5176 9.19956 13.4855 8.99365 13.4855 8.99365C13.4855 8.99365 13.4447 9.02813 13.3806 9.10283C13.3175 9.17658 13.2253 9.28193 13.1126 9.41697C12.8874 9.68609 12.5825 10.0644 12.2688 10.5088C11.9717 10.9675 11.6658 11.4924 11.4211 12.0277C11.1842 12.5746 11.0181 13.1435 10.9628 13.6645C10.9492 13.7967 10.9434 13.9231 10.9434 14.0495C10.9434 14.175 10.954 14.2995 10.9667 14.4201C10.9939 14.6615 11.0424 14.8885 11.1026 15.0992Z" fill="#F9F5E9"/>
<path fill-rule="evenodd" clip-rule="evenodd" d="M17.7962 18.319C17.9118 18.2826 18.0235 18.2414 18.139 18.1964C18.1934 18.1753 18.2487 18.1533 18.3051 18.1303C18.3633 18.1063 18.4177 18.0862 18.475 18.0642C18.9285 17.8851 19.3421 17.6648 19.7024 17.458C20.0743 17.2655 20.3801 17.072 20.5967 16.9322C20.7054 16.8594 20.7909 16.799 20.8472 16.7598C20.9103 16.7196 20.9424 16.6994 20.9424 16.6994C20.9424 16.6994 20.8958 16.6822 20.8103 16.6487C20.7229 16.6161 20.6006 16.573 20.4481 16.5251C20.1432 16.4265 19.7092 16.2972 19.2081 16.1794C18.9556 16.121 18.6896 16.0645 18.4109 16.0166C18.273 15.9936 18.1312 15.9697 17.9914 15.9505C17.8506 15.9342 17.7098 15.9199 17.57 15.9084C17.0039 15.8614 16.4368 15.8633 15.9328 15.9428C15.4366 16.0252 15.0307 16.1976 14.6928 16.3939C14.5229 16.4935 14.3695 16.5998 14.2403 16.7119C14.1102 16.8249 14.0024 16.9417 13.9082 17.0519C13.5266 17.5001 13.3975 17.8842 13.3975 17.8842C13.3975 17.8842 13.85 18.1245 14.5413 18.3123C14.8861 18.408 15.289 18.4904 15.7221 18.5297C16.1571 18.5708 16.6077 18.5555 17.0883 18.4875C17.3301 18.4502 17.5651 18.3908 17.7962 18.319Z" fill="#F9F5E9"/>
<path fill-rule="evenodd" clip-rule="evenodd" d="M19.1099 10.2339C19.2002 10.4235 19.2633 10.5288 19.2633 10.5288C19.2633 10.5288 19.2905 10.5212 19.3361 10.5001C19.3837 10.4829 19.4507 10.456 19.5352 10.4158C19.7032 10.3402 19.9323 10.2195 20.18 10.0366C20.6645 9.66018 21.2627 9.1047 21.6443 8.14984C21.7744 7.83667 21.8929 7.49284 21.9929 7.12507C22.1201 6.66824 22.225 6.18171 22.3162 5.70859C22.4124 5.24697 22.4959 4.79588 22.5638 4.39746C22.6978 3.60446 22.7707 3.03174 22.7707 3.03174C22.7707 3.03174 22.4832 3.20317 22.0541 3.49911C21.8424 3.64373 21.5928 3.82282 21.3297 4.0249C21.0723 4.23752 20.8014 4.47504 20.5354 4.72883C20.3703 4.8859 20.211 5.04776 20.0557 5.21536C20.0178 5.25654 19.977 5.29773 19.9391 5.34082C19.9042 5.38392 19.8673 5.42798 19.8304 5.47395C19.7605 5.56397 19.6915 5.654 19.6216 5.74498C19.3536 6.10605 19.1264 6.48148 18.9701 6.85212C18.8652 7.09155 18.8001 7.34535 18.7545 7.58095C18.7108 7.81847 18.6885 8.04737 18.6855 8.2686C18.6758 8.7082 18.7399 9.10278 18.8283 9.43799C18.9147 9.77319 19.0225 10.0433 19.1099 10.2339Z" fill="#F9F5E9"/>
<path fill-rule="evenodd" clip-rule="evenodd" d="M25.5518 12.9673C25.8431 12.9118 26.1169 12.8448 26.3684 12.7796C26.6219 12.7231 26.852 12.6628 27.0443 12.6082C27.4259 12.4971 27.6618 12.4061 27.6618 12.4061C27.6618 12.4061 27.2278 12.0805 26.5597 11.684C26.2286 11.4867 25.8363 11.2703 25.4081 11.0701C24.9886 10.8747 24.5409 10.7014 24.0923 10.5682C23.7466 10.4667 23.401 10.3872 23.0747 10.3527C22.0794 10.2646 21.2938 10.5462 20.8064 10.8862C20.5568 11.0509 20.3733 11.2166 20.25 11.3411C20.1888 11.4015 20.1431 11.4541 20.114 11.4896C20.0849 11.5288 20.0713 11.549 20.0713 11.549C20.0713 11.549 20.1606 11.6361 20.3276 11.7673C20.4947 11.9004 20.7394 12.0786 21.0433 12.2596C21.3472 12.4444 21.7104 12.6302 22.1134 12.7835C22.3163 12.8582 22.5299 12.9281 22.7504 12.9798C22.9708 13.0344 23.197 13.0708 23.4398 13.1024C24.1438 13.1886 24.874 13.0756 25.5518 12.9673Z" fill="#F9F5E9"/>
<path fill-rule="evenodd" clip-rule="evenodd" d="M35.9492 68.9236C35.7579 68.8996 35.521 68.8718 35.2539 68.8402C35.118 68.8201 34.9743 68.8115 34.8247 68.7837C34.6762 68.7579 34.5189 68.7301 34.3557 68.7023C34.0266 68.6468 33.6712 68.5874 33.2934 68.5232C32.9206 68.4418 32.5283 68.3556 32.1233 68.2694C31.9175 68.2215 31.7097 68.1832 31.5038 68.1277C31.298 68.0712 31.0892 68.0156 30.8775 67.9582C30.4571 67.8423 30.0249 67.7398 29.6064 67.5952C27.9042 67.0933 26.2768 66.399 25.0766 65.8464C24.7823 65.7018 24.5066 65.5686 24.2667 65.4527C24.1444 65.3943 24.0337 65.3388 23.9298 65.2871C23.8259 65.2353 23.7336 65.1817 23.6492 65.1376C23.3103 64.9528 23.1199 64.8465 23.1199 64.8465C23.1199 64.8465 22.9277 64.7431 22.5878 64.5582C22.2528 64.3676 21.7896 64.0746 21.2284 63.7355C20.1282 63.022 18.6862 62.0222 17.3705 60.8834C16.0489 59.7485 14.8351 58.5092 13.9806 57.5371C13.868 57.4203 13.7738 57.2986 13.6776 57.1847C13.5834 57.0707 13.4961 56.9653 13.4116 56.8629C13.2436 56.6617 13.097 56.4846 12.9766 56.338C12.8542 56.1953 12.7707 56.0727 12.7105 55.9933C12.6503 55.9109 12.6163 55.8697 12.6163 55.8697C12.6163 55.8697 12.4891 55.6983 12.2628 55.3956C12.1521 55.2453 12.0084 55.0662 11.8608 54.8497C11.7152 54.6333 11.5482 54.3881 11.3695 54.1218C11.2782 53.9897 11.184 53.8508 11.0889 53.7062C10.9898 53.5616 10.9044 53.4074 10.8073 53.2513C10.614 52.9352 10.4159 52.6029 10.2091 52.26C10.0207 51.9066 9.82264 51.5427 9.62261 51.174C9.57115 51.0801 9.52162 50.9872 9.47113 50.8953C9.42646 50.7985 9.38277 50.7028 9.33519 50.6079C9.24391 50.4164 9.15263 50.2239 9.05941 50.0304C8.33794 48.4885 7.74075 46.8929 7.39992 45.6661C7.35331 45.5138 7.31059 45.3672 7.26786 45.2293C7.22708 45.0905 7.18532 44.9593 7.1591 44.8347C7.0989 44.5838 7.04161 44.3635 7.00083 44.1835C6.91343 43.8234 6.861 43.6175 6.861 43.6175C6.861 43.6175 6.84935 43.5658 6.8241 43.469C6.80274 43.3752 6.77846 43.2296 6.74253 43.0467C6.70855 42.8657 6.66776 42.6463 6.62212 42.3916C6.57454 42.1397 6.50948 41.8543 6.4755 41.5382C6.43277 41.2241 6.38713 40.8841 6.33955 40.524C6.3279 40.4349 6.31334 40.343 6.30363 40.2511C6.291 40.1591 6.28615 40.0653 6.27741 39.9685C6.26478 39.7799 6.24634 39.5845 6.23177 39.3872C6.14826 38.599 6.14826 37.7533 6.12204 36.9095C6.14826 36.0639 6.14826 35.2191 6.23177 34.43C6.24634 34.2336 6.26478 34.0392 6.27741 33.8496C6.28615 33.7538 6.291 33.66 6.30363 33.568C6.31334 33.4751 6.3279 33.3832 6.33955 33.2932C6.38713 32.934 6.43277 32.5921 6.4755 32.2789C6.50948 31.9629 6.57454 31.6803 6.62212 31.4256C6.66776 31.1727 6.70855 30.9525 6.74253 30.7705C6.77846 30.5895 6.80274 30.4439 6.8241 30.3481C6.84935 30.2514 6.861 30.1997 6.861 30.1997C6.861 30.1997 6.91343 29.9947 7.00083 29.6346C7.04161 29.4546 7.0989 29.2362 7.1591 28.9853C7.18532 28.8598 7.22708 28.7267 7.26786 28.5888C7.31059 28.449 7.35331 28.3043 7.39992 28.1511C7.74075 26.9262 8.33794 25.3306 9.05941 23.7867C9.15263 23.5961 9.24391 23.4008 9.33519 23.2102C9.38277 23.1135 9.42646 23.0206 9.47113 22.9238C9.52162 22.8309 9.57115 22.738 9.62261 22.6432C9.82264 22.2735 10.0207 21.9096 10.2091 21.5581C10.4159 21.2152 10.614 20.8829 10.8073 20.5678C10.9044 20.4127 10.9898 20.2556 11.0889 20.1119C11.184 19.9673 11.2782 19.8294 11.3695 19.6953C11.5482 19.4291 11.7152 19.1839 11.8608 18.9684C12.0084 18.752 12.1521 18.5738 12.2628 18.4225C12.4891 18.1208 12.6163 17.9494 12.6163 17.9494C12.6163 17.9494 12.6503 17.9063 12.7105 17.8249C12.7707 17.7454 12.8542 17.6228 12.9766 17.4801C13.097 17.3345 13.2436 17.1583 13.4116 16.9553C13.4961 16.8537 13.5834 16.7465 13.6776 16.6306C13.7738 16.5195 13.868 16.3979 13.9806 16.2801C14.8351 15.3099 16.0489 14.0696 17.3705 12.9337C18.6862 11.795 20.1282 10.7971 21.2284 10.0807C21.7896 9.7426 22.2528 9.44953 22.5878 9.26086C22.9277 9.07602 23.1199 8.96971 23.1199 8.96971C23.1199 8.96971 23.3103 8.86532 23.6492 8.68047C23.7336 8.63546 23.8259 8.58566 23.9298 8.52915C24.0337 8.47935 24.1444 8.4238 24.2667 8.36538C24.3483 8.32516 24.4318 8.28493 24.5192 8.24375C24.526 8.24375 24.5328 8.24375 24.5406 8.24375C24.7552 8.26195 25.0591 8.27152 25.4155 8.25237C26.135 8.22076 27.0652 8.07423 27.8848 7.63176C28.3091 7.41723 28.7092 7.12608 29.0568 6.81099C29.2268 6.652 29.4035 6.49302 29.5676 6.33499C29.7297 6.17697 29.8783 6.01799 30.0152 5.86475C30.2755 5.55636 30.5192 5.29011 30.6784 5.0909C30.8358 4.8917 30.9251 4.76623 30.9251 4.76623C30.9251 4.76623 30.728 4.75761 30.4017 4.75523C30.0754 4.75283 29.6171 4.7624 29.1005 4.80263C28.9704 4.81412 28.8364 4.8237 28.7014 4.83998C28.5674 4.85626 28.4315 4.87446 28.2955 4.89649C28.0217 4.93767 27.742 4.99034 27.4653 5.05451C26.9147 5.1838 26.3564 5.35045 25.9291 5.58701C25.4922 5.82069 25.1562 6.10418 24.8998 6.39437C24.6542 6.6884 24.5007 6.99295 24.3891 7.26208C24.2861 7.53024 24.2308 7.76584 24.2104 7.93632C24.2046 7.96888 24.2036 7.99953 24.2017 8.02826C24.1696 8.04454 24.1376 8.06178 24.1046 8.07423C23.9842 8.13553 23.8705 8.19012 23.7637 8.24088C23.6618 8.29834 23.5666 8.34814 23.4802 8.39603C23.1413 8.58087 22.9471 8.68814 22.9471 8.68814C22.9471 8.68814 22.7509 8.79349 22.4091 8.97928C22.0741 9.17083 21.6051 9.46581 21.0351 9.81059C19.9233 10.5308 18.4687 11.5403 17.1374 12.6914C15.8042 13.8369 14.5797 15.0896 13.7136 16.0703C13.6009 16.1891 13.5067 16.3145 13.4116 16.4266C13.3135 16.5415 13.2251 16.6497 13.1416 16.7532C12.9717 16.9572 12.8231 17.1353 12.7027 17.2828C12.5784 17.4274 12.4949 17.551 12.4318 17.6314C12.3716 17.7119 12.3376 17.7559 12.3376 17.7559C12.3376 17.7559 12.2075 17.9302 11.9793 18.2329C11.8676 18.388 11.7229 18.5681 11.5734 18.7855C11.4239 19.0048 11.2588 19.2519 11.0782 19.5201C10.984 19.6551 10.8917 19.7949 10.7927 19.9405C10.6966 20.0861 10.6072 20.2451 10.5072 20.4021C10.3179 20.7182 10.113 21.0553 9.90518 21.4029C9.71292 21.7573 9.51385 22.1251 9.31382 22.5005C9.26333 22.5944 9.21186 22.6882 9.1604 22.7821C9.11573 22.8769 9.06815 22.9736 9.02348 23.0704C8.93124 23.2648 8.83802 23.4601 8.74674 23.6546C8.01458 25.2128 7.40963 26.8247 7.0688 28.062C7.02025 28.2162 6.97752 28.3628 6.93674 28.5045C6.89401 28.6463 6.84935 28.7765 6.82313 28.9048C6.76195 29.1567 6.7066 29.3789 6.66485 29.5609C6.57454 29.9229 6.52405 30.1317 6.52405 30.1317C6.52405 30.1317 6.51143 30.1844 6.48812 30.2811C6.46385 30.3788 6.44054 30.5244 6.40461 30.7073C6.3716 30.8912 6.3279 31.1153 6.28129 31.371C6.23565 31.6267 6.16962 31.914 6.1337 32.232C6.09097 32.55 6.04436 32.8938 5.99678 33.2568C5.9861 33.3487 5.97056 33.4406 5.95988 33.5326C5.94823 33.6284 5.94337 33.7232 5.93366 33.818C5.9191 34.0095 5.90453 34.204 5.88802 34.408C5.80355 35.2019 5.80354 36.0552 5.77441 36.9095C5.80354 37.7629 5.80355 38.6153 5.88802 39.413C5.90453 39.6123 5.9191 39.8067 5.93366 40.0011C5.94337 40.0969 5.94823 40.1917 5.95988 40.2827C5.97056 40.3765 5.9861 40.4713 5.99678 40.5614C6.04436 40.9234 6.09097 41.2701 6.1337 41.5871C6.16962 41.9031 6.23565 42.1914 6.28129 42.4481C6.3279 42.7038 6.3716 42.925 6.40461 43.1099C6.44054 43.2938 6.46385 43.4384 6.48812 43.537C6.51143 43.6338 6.52405 43.6864 6.52405 43.6864C6.52405 43.6864 6.57454 43.8933 6.66485 44.2563C6.7066 44.4392 6.76195 44.6614 6.82313 44.9123C6.84935 45.0397 6.89401 45.1738 6.93674 45.3127C6.97752 45.4544 7.02025 45.6019 7.0688 45.7561C7.40963 46.9935 8.01458 48.6044 8.74674 50.1655C8.83802 50.358 8.93124 50.5533 9.02348 50.7468C9.06815 50.8445 9.11573 50.9403 9.1604 51.036C9.21186 51.128 9.26333 51.2247 9.31382 51.3186C9.51385 51.6911 9.71292 52.0599 9.90518 52.4152C10.113 52.7619 10.3179 53.098 10.5072 53.416C10.6072 53.5731 10.6966 53.7311 10.7927 53.8767C10.8917 54.0213 10.984 54.164 11.0782 54.2981C11.2588 54.5672 11.4239 54.8143 11.5734 55.0326C11.7229 55.2501 11.8676 55.4311 11.9793 55.5843C12.2075 55.8879 12.3376 56.0622 12.3376 56.0622C12.3376 56.0622 12.3716 56.1063 12.4318 56.1877C12.4949 56.2681 12.5784 56.3907 12.7027 56.5353C12.8231 56.6819 12.9717 56.861 13.1416 57.0669C13.2251 57.1684 13.3135 57.2766 13.4116 57.3915C13.5067 57.5026 13.6009 57.6291 13.7136 57.7469C14.5797 58.7295 15.8042 59.9812 17.1374 61.1267C18.4687 62.276 19.9233 63.2854 21.0351 64.0085C21.6051 64.3523 22.0741 64.6463 22.4091 64.8388C22.7509 65.0256 22.9471 65.13 22.9471 65.13C22.9471 65.13 23.1413 65.2382 23.4802 65.4221C23.5666 65.469 23.6618 65.5207 23.7637 65.5763C23.8705 65.628 23.9842 65.6826 24.1046 65.741C24.3483 65.8598 24.6231 65.9948 24.9241 66.1404C26.1369 66.6978 27.7819 67.3988 29.5006 67.9064C29.923 68.052 30.359 68.1545 30.7862 68.2723C30.996 68.3307 31.2086 68.3882 31.4174 68.4437C31.6233 68.5012 31.834 68.5386 32.0398 68.5864C32.4506 68.6755 32.8487 68.7617 33.2245 68.845C33.6042 68.9082 33.9644 68.9686 34.2965 69.0251C34.4626 69.0529 34.6199 69.0816 34.7704 69.1065C34.9238 69.1352 35.0685 69.1458 35.2034 69.1649C35.4763 69.1975 35.7132 69.2243 35.9094 69.2492C36.2978 69.2971 36.5211 69.3239 36.5211 69.3239L36.5571 68.9963C36.5571 68.9963 36.3347 68.9705 35.9492 68.9236Z" fill="#F9F5E9"/>
<path fill-rule="evenodd" clip-rule="evenodd" d="M32.123 68.6037C32.123 68.6037 36.8141 69.7836 37.8686 74.0455L37.7366 69.0241L32.4357 68.3374L32.123 68.6037Z" fill="#F9F5E9"/>
</g>
</g>
</g>
</g>
</g>
<defs>
<clipPath id="clip0_1_193">
<rect width="114" height="74" fill="white" transform="translate(0 0.5)"/>
</clipPath>
<clipPath id="clip1_1_193">
<rect width="114" height="74" fill="white" transform="translate(0 0.5)"/>
</clipPath>
<clipPath id="clip2_1_193">
<rect width="114" height="74" fill="white" transform="translate(0 0.5)"/>
</clipPath>
</defs>
</svg>
