<svg width="114" height="75" viewBox="0 0 114 75" fill="none" xmlns="http://www.w3.org/2000/svg">
<g opacity="0.7">
<mask id="mask0_1_77" style="mask-type:luminance" maskUnits="userSpaceOnUse" x="42" y="17" width="30" height="31">
<path d="M72 17.5H42V47.5H72V17.5Z" fill="white"/>
</mask>
<g mask="url(#mask0_1_77)">
<path d="M44.5 42.5H69.5V45H44.5V42.5ZM47 32.5H49.5V41.25H47V32.5ZM53.25 32.5H55.75V41.25H53.25V32.5ZM58.25 32.5H60.75V41.25H58.25V32.5ZM64.5 32.5H67V41.25H64.5V32.5ZM44.5 26.25L57 20L69.5 26.25V31.25H44.5V26.25ZM47 27.795V28.75H67V27.795L57 22.795L47 27.795ZM57 27.5C56.6685 27.5 56.3505 27.3683 56.1161 27.1339C55.8817 26.8995 55.75 26.5815 55.75 26.25C55.75 25.9185 55.8817 25.6005 56.1161 25.3661C56.3505 25.1317 56.6685 25 57 25C57.3315 25 57.6495 25.1317 57.8839 25.3661C58.1183 25.6005 58.25 25.9185 58.25 26.25C58.25 26.5815 58.1183 26.8995 57.8839 27.1339C57.6495 27.3683 57.3315 27.5 57 27.5Z" fill="#F9F5E9" stroke="#161616" stroke-width="0.5"/>
</g>
<mask id="mask1_1_77" style="mask-type:luminance" maskUnits="userSpaceOnUse" x="76" y="1" width="38" height="73">
<path d="M76 1.5H114V73.5H76V1.5Z" fill="white"/>
</mask>
<g mask="url(#mask1_1_77)">
<path fill-rule="evenodd" clip-rule="evenodd" d="M85.2071 67.1899C85.4149 67.188 85.6333 67.2014 85.8654 67.232C85.9246 67.2416 85.9858 67.2512 86.0441 67.2617C86.1043 67.2703 86.1616 67.2809 86.2237 67.2904C86.3441 67.3134 86.4713 67.3422 86.5976 67.3757C87.1074 67.5117 87.6657 67.7339 88.224 67.9877C88.7707 68.2242 89.3223 68.4905 89.8175 68.7424C90.3108 68.9923 90.7497 69.2318 91.0585 69.3927C91.3673 69.5555 91.5537 69.6599 91.5537 69.6599C91.5537 69.6599 91.5052 69.6771 91.4081 69.7135C91.3139 69.7441 91.1789 69.7968 91.006 69.8437C90.6584 69.9414 90.171 70.0688 89.6194 70.178C89.4806 70.2058 89.3417 70.2364 89.1941 70.2575C89.0455 70.2786 88.8941 70.2948 88.7435 70.3111C88.4386 70.3427 88.1279 70.3667 87.8162 70.3743C87.1996 70.4002 86.5772 70.3236 86.0431 70.178C84.975 69.8916 84.2506 69.2432 83.801 68.704C83.3485 68.162 83.1562 67.7061 83.1562 67.7061C83.1562 67.7061 83.5223 67.4724 84.1321 67.3326C84.4361 67.2607 84.7944 67.1899 85.2071 67.1899Z" fill="#F9F5E9"/>
<path fill-rule="evenodd" clip-rule="evenodd" d="M83.5706 62.9987C83.8202 62.608 84.1493 62.2661 84.4902 61.9309C84.6591 61.7642 84.8359 61.6129 85.0155 61.4712C85.1068 61.3993 85.1942 61.3323 85.2777 61.2672C85.3612 61.1972 85.4457 61.1302 85.5282 61.067C85.8574 60.8161 86.1584 60.615 86.3759 60.4799C86.5934 60.3334 86.7265 60.2529 86.7265 60.2529C86.7265 60.2529 86.7284 60.4426 86.7158 60.7548C86.708 61.0737 86.674 61.4941 86.6051 61.9778C86.5352 62.4605 86.4274 63.0016 86.272 63.5303C86.1118 64.0417 85.8972 64.5397 85.635 64.9525C85.5719 65.0559 85.503 65.1536 85.4321 65.2446C85.3981 65.2915 85.3612 65.3337 85.3233 65.3768C85.2864 65.417 85.2505 65.4563 85.2126 65.4946C85.0592 65.6459 84.899 65.7752 84.7378 65.8853C84.5776 65.9964 84.4173 66.0893 84.26 66.164C84.1047 66.2378 83.9522 66.3039 83.8075 66.3422C83.2269 66.504 82.8035 66.4763 82.8035 66.4763C82.8035 66.4763 82.7365 65.9869 82.8064 65.3126C82.8414 64.9745 82.9064 64.5905 83.0288 64.1978C83.0589 64.1001 83.0919 63.9996 83.1317 63.9019C83.1657 63.8004 83.2055 63.6979 83.2521 63.5964C83.3424 63.3952 83.4453 63.1922 83.5706 62.9987Z" fill="#F9F5E9"/>
<path fill-rule="evenodd" clip-rule="evenodd" d="M91.837 64.1588C91.8729 64.1243 91.9282 64.0802 91.9952 64.0208C92.1341 63.9021 92.34 63.745 92.608 63.5956C92.7449 63.519 92.8925 63.4462 93.0624 63.3792C93.2294 63.3112 93.4168 63.2518 93.6101 63.1905C94.0024 63.0775 94.4626 63.0066 94.9996 63.0171C95.2705 63.0229 95.5482 63.0373 95.8395 63.065C96.1289 63.0928 96.429 63.134 96.729 63.1828C97.0329 63.2307 97.3388 63.2882 97.635 63.3437C97.9244 63.4022 98.2127 63.4596 98.4856 63.5142C99.0294 63.6282 99.513 63.7374 99.8577 63.8197C100.208 63.903 100.416 63.9586 100.416 63.9586C100.416 63.9586 100.237 64.0802 99.9324 64.2679C99.7848 64.3618 99.6003 64.47 99.3935 64.5878C99.2925 64.6462 99.1818 64.7075 99.0663 64.7698C98.9507 64.8301 98.8274 64.8885 98.7002 64.9479C98.4458 65.0657 98.1739 65.1835 97.8933 65.2965C97.7505 65.3502 97.6107 65.4038 97.4641 65.4555C97.3913 65.4823 97.3194 65.5082 97.2466 65.5312C97.1728 65.5513 97.098 65.5733 97.0223 65.5944C96.4231 65.7563 95.8153 65.8626 95.2647 65.8607C94.1373 65.829 93.2712 65.4134 92.6856 65.0102C92.3934 64.8138 92.1652 64.6079 92.0127 64.4576C91.8612 64.3082 91.7826 64.2105 91.7826 64.2105C91.7826 64.2105 91.801 64.1923 91.837 64.1588Z" fill="#F9F5E9"/>
<path fill-rule="evenodd" clip-rule="evenodd" d="M93.3904 60.9265C93.2496 61.3795 93.0321 61.7549 92.7904 62.0547C92.6719 62.2098 92.5398 62.3343 92.4078 62.4416C92.2767 62.5508 92.1427 62.6437 92.0155 62.7232C91.763 62.8812 91.5319 62.9808 91.3668 63.0421C91.2843 63.0746 91.2115 63.09 91.1668 63.1015C91.1153 63.1129 91.091 63.1177 91.091 63.1177C91.091 63.1177 91.0396 63.0038 90.9765 62.8093C90.9114 62.613 90.8318 62.3362 90.7687 61.9982C90.6385 61.3239 90.5822 60.439 90.8502 59.5732C90.9745 59.1288 91.1862 58.6997 91.4338 58.3061C91.6717 57.9048 91.9349 57.5236 92.1932 57.2085C92.3243 57.0534 92.4369 56.8973 92.5466 56.7642C92.6534 56.6291 92.7554 56.5142 92.8399 56.4184C93.0079 56.2269 93.1195 56.1187 93.1195 56.1187C93.1195 56.1187 93.1749 56.3006 93.2477 56.6013C93.3205 56.9011 93.4118 57.3263 93.4846 57.81C93.5196 58.0542 93.5555 58.3166 93.5759 58.5819C93.5915 58.8434 93.6002 59.1135 93.5953 59.3826C93.5915 59.6527 93.5759 59.9237 93.5429 60.1861C93.5079 60.4457 93.4652 60.7023 93.3904 60.9265Z" fill="#F9F5E9"/>
<path fill-rule="evenodd" clip-rule="evenodd" d="M99.5567 58.102C99.6587 57.9574 99.8033 57.7496 100.019 57.5331C100.233 57.3167 100.514 57.0916 100.867 56.8819C101.208 56.6674 101.629 56.4758 102.146 56.3436C102.318 56.2986 102.504 56.2613 102.689 56.2239C102.875 56.1856 103.065 56.154 103.263 56.1234C104.238 55.9788 105.345 55.9242 106.177 55.8724C107.021 55.8265 107.623 55.8169 107.623 55.8169C107.623 55.8169 107.417 56.0707 107.067 56.4471C106.727 56.8273 106.201 57.2966 105.62 57.7525C105.529 57.8224 105.437 57.8885 105.348 57.9574C105.3 57.9909 105.255 58.0235 105.205 58.0589C105.158 58.0905 105.108 58.1202 105.06 58.1528C104.862 58.2763 104.661 58.3961 104.457 58.5043C104.256 58.6135 104.052 58.7131 103.845 58.7964C103.641 58.8826 103.442 58.9582 103.232 59.0071C102.143 59.2743 101.193 59.1086 100.51 58.874C99.8218 58.6336 99.4062 58.3405 99.4062 58.3405C99.4062 58.3405 99.4538 58.2486 99.5567 58.102Z" fill="#F9F5E9"/>
<path fill-rule="evenodd" clip-rule="evenodd" d="M99.1969 56.8512C98.9998 57.0705 98.8133 57.2324 98.6657 57.3301C98.5191 57.4287 98.422 57.4728 98.422 57.4728C98.422 57.4728 98.0957 57.0935 97.784 56.4882C97.4655 55.8762 97.1451 55.0334 97.1519 54.1351C97.148 53.8028 97.1849 53.457 97.2529 53.1247C97.2859 52.96 97.3296 52.7952 97.3772 52.6324C97.4248 52.4753 97.4646 52.3087 97.516 52.1536C97.6005 51.8835 97.6957 51.6287 97.7899 51.4008C97.8151 51.3443 97.8404 51.2887 97.8617 51.2332C97.886 51.1786 97.9044 51.1259 97.9268 51.0723C97.9676 50.9679 98.0064 50.8721 98.0452 50.784C98.1987 50.4306 98.3162 50.2161 98.3162 50.2161C98.3162 50.2161 98.6143 50.6605 98.9619 51.3347C99.0503 51.5033 99.1415 51.6843 99.2309 51.8796C99.2746 51.9764 99.3192 52.0779 99.362 52.1765C99.4057 52.2771 99.4426 52.3796 99.4853 52.484C99.6407 52.8977 99.7795 53.3431 99.8727 53.7836C99.9116 53.9541 99.9397 54.1217 99.9621 54.2864C99.9825 54.4502 99.9883 54.6082 99.9883 54.7605C99.9883 55.2384 99.8892 55.6531 99.7475 56.0075C99.595 56.3551 99.3911 56.6319 99.1969 56.8512Z" fill="#F9F5E9"/>
<path fill-rule="evenodd" clip-rule="evenodd" d="M106.813 50.9132C106.602 50.9228 106.404 50.9199 106.218 50.9084C105.488 50.8615 105.005 50.6901 105.005 50.6901C105.005 50.6901 105.023 50.5876 105.078 50.419C105.105 50.3357 105.144 50.238 105.192 50.126C105.235 50.0101 105.289 49.8865 105.359 49.7544C105.502 49.4881 105.697 49.1941 105.979 48.9029C106.045 48.8369 106.116 48.765 106.197 48.6827C106.273 48.608 106.356 48.5352 106.444 48.4624C106.619 48.3178 106.819 48.177 107.046 48.0429C107.274 47.9107 107.524 47.7843 107.795 47.6627C108.051 47.5382 108.327 47.4204 108.606 47.3045C109.164 47.0766 109.751 46.8687 110.282 46.6906C110.806 46.5086 111.266 46.3535 111.605 46.2462C111.942 46.138 112.148 46.0776 112.148 46.0776C112.148 46.0776 112.072 46.2721 111.924 46.5843C111.851 46.7413 111.764 46.931 111.652 47.1331C111.537 47.3371 111.407 47.5564 111.262 47.7881C111.117 48.0199 110.956 48.2593 110.785 48.4997C110.742 48.5582 110.699 48.6185 110.652 48.6769C110.607 48.7334 110.561 48.7909 110.509 48.8512C110.413 48.9671 110.312 49.0801 110.21 49.1903C110.003 49.4144 109.789 49.626 109.568 49.8157C109.458 49.9133 109.348 50.0034 109.23 50.0867C109.112 50.1671 108.994 50.2438 108.872 50.3127C108.392 50.5876 107.911 50.7475 107.461 50.8347C107.236 50.8797 107.018 50.9017 106.813 50.9132Z" fill="#F9F5E9"/>
<path fill-rule="evenodd" clip-rule="evenodd" d="M104.643 48.3618C104.596 48.7306 104.489 49.0543 104.368 49.3177C104.307 49.4498 104.242 49.5657 104.18 49.6663C104.116 49.7668 104.047 49.8502 103.993 49.9153C103.881 50.0494 103.803 50.1174 103.803 50.1174C103.803 50.1174 103.377 49.8396 102.899 49.3397C102.779 49.2161 102.659 49.0782 102.536 48.9279C102.407 48.7737 102.285 48.608 102.168 48.4327C101.936 48.0803 101.73 47.6847 101.599 47.2518C101.565 47.1427 101.54 47.0335 101.513 46.9205C101.486 46.8075 101.464 46.6925 101.443 46.5786C101.406 46.3477 101.382 46.115 101.375 45.8852C101.367 45.4293 101.36 44.9715 101.394 44.5759C101.409 44.3767 101.43 44.19 101.452 44.0243C101.465 43.8557 101.48 43.7063 101.498 43.5837C101.527 43.3338 101.557 43.1863 101.557 43.1863C101.557 43.1863 101.706 43.3098 101.94 43.5272C102.174 43.7437 102.495 44.0549 102.836 44.4304C103.165 44.801 103.509 45.2358 103.809 45.6965C103.962 45.9273 104.102 46.1639 104.225 46.4023C104.344 46.636 104.435 46.8707 104.507 47.1015C104.577 47.3285 104.618 47.5506 104.643 47.7604C104.654 47.8667 104.661 47.9701 104.661 48.0697C104.661 48.1205 104.661 48.1703 104.659 48.2182C104.654 48.2651 104.649 48.313 104.643 48.3618Z" fill="#F9F5E9"/>
<path fill-rule="evenodd" clip-rule="evenodd" d="M111.064 41.4183C110.858 41.561 110.649 41.6788 110.441 41.7784C110.025 41.9757 109.62 42.0945 109.266 42.1663C108.554 42.309 108.041 42.2688 108.041 42.2688C108.041 42.2688 107.98 41.8531 108.114 41.2756C108.144 41.1281 108.2 40.9739 108.249 40.8102C108.302 40.6445 108.371 40.4721 108.459 40.2968C108.546 40.1196 108.658 39.9367 108.791 39.7538C108.858 39.6618 108.929 39.5689 109.009 39.477C109.049 39.431 109.089 39.385 109.133 39.3372C109.172 39.2912 109.214 39.2462 109.259 39.1983C109.957 38.4551 111.088 37.6918 111.978 37.0721C112.431 36.7647 112.84 36.5004 113.139 36.3098C113.437 36.1201 113.623 36.01 113.623 36.01C113.623 36.01 113.598 36.2159 113.539 36.555C113.478 36.894 113.389 37.3614 113.25 37.8785C113.091 38.3967 112.885 38.9636 112.631 39.4971C112.569 39.6302 112.497 39.7605 112.419 39.8888C112.342 40.0143 112.264 40.1407 112.182 40.2595C112.018 40.4989 111.841 40.723 111.654 40.9145C111.462 41.1099 111.273 41.2775 111.064 41.4183Z" fill="#F9F5E9"/>
<path fill-rule="evenodd" clip-rule="evenodd" d="M106.721 42.0245C106.721 42.0245 106.23 41.8646 105.624 41.5054C105.316 41.3244 104.983 41.0965 104.664 40.8187C104.505 40.678 104.352 40.5266 104.206 40.3619C104.054 40.1953 103.907 40.0171 103.779 39.8246C103.649 39.6321 103.537 39.4252 103.438 39.2136C103.339 39.0029 103.269 38.7864 103.182 38.5652C103.02 38.1266 102.913 37.686 102.836 37.2962C102.739 36.9007 102.681 36.5549 102.646 36.3078C102.613 36.0588 102.604 35.9094 102.604 35.9094C102.604 35.9094 102.78 35.9908 103.064 36.1402C103.349 36.2925 103.736 36.5099 104.166 36.7848C104.591 37.0597 105.069 37.3929 105.475 37.7598C105.89 38.1266 106.269 38.5298 106.546 38.9378C106.689 39.1389 106.778 39.341 106.86 39.5383C106.935 39.7346 106.987 39.9281 107.022 40.1148C107.057 40.2997 107.075 40.4778 107.077 40.6444C107.083 40.8101 107.057 40.9672 107.035 41.108C106.935 41.675 106.721 42.0245 106.721 42.0245Z" fill="#F9F5E9"/>
<path fill-rule="evenodd" clip-rule="evenodd" d="M112.182 28.852C112.148 29.0723 112.107 29.2935 112.059 29.51C111.954 29.9419 111.831 30.3509 111.628 30.71C111.369 31.1841 111.05 31.5624 110.713 31.8612C110.375 32.1591 110.03 32.3784 109.704 32.5402C109.053 32.8668 108.546 32.9626 108.546 32.9626C108.546 32.9626 108.504 32.8678 108.461 32.6983C108.42 32.5259 108.353 32.2845 108.328 31.9905C108.3 31.6936 108.306 31.345 108.383 30.9571C108.451 30.5702 108.575 30.1469 108.817 29.6929C108.898 29.5435 108.989 29.3864 109.089 29.2303C109.138 29.1547 109.189 29.0752 109.243 28.9947C109.293 28.9181 109.346 28.8357 109.397 28.7582C109.667 28.3645 109.971 27.9661 110.278 27.5859C110.583 27.2057 110.892 26.8408 111.15 26.5314C111.674 25.907 112.071 25.4731 112.071 25.4731C112.071 25.4731 112.133 25.7921 112.196 26.2882C112.233 26.5372 112.246 26.8341 112.256 27.1559C112.265 27.4777 112.265 27.8282 112.249 28.1854C112.243 28.4028 112.214 28.6289 112.182 28.852Z" fill="#F9F5E9"/>
<path fill-rule="evenodd" clip-rule="evenodd" d="M103.745 31.7366C103.68 31.683 103.619 31.6246 103.557 31.5652C103.494 31.5048 103.429 31.4435 103.37 31.3803C103.244 31.2568 103.131 31.1246 103.022 30.9886C102.917 30.8545 102.815 30.7157 102.719 30.5749C102.619 30.4255 102.529 30.2856 102.443 30.1554C102.285 29.9169 102.149 29.6784 102.032 29.4601C101.973 29.3499 101.919 29.2427 101.871 29.144C101.826 29.0425 101.769 28.9515 101.725 28.8653C101.548 28.5244 101.459 28.2993 101.459 28.2993C101.459 28.2993 102.005 28.3846 102.773 28.5886C102.96 28.6384 103.171 28.6949 103.375 28.7648C103.582 28.8309 103.796 28.9075 104.013 28.9908C104.446 29.1565 104.888 29.3547 105.298 29.5817C105.62 29.7551 105.89 29.9524 106.135 30.1583C106.506 30.4753 106.773 30.8229 106.948 31.161C107.114 31.501 107.202 31.8305 107.241 32.1139C107.28 32.4003 107.287 32.6388 107.26 32.8093C107.239 32.9788 107.207 33.0774 107.207 33.0774C107.207 33.0774 106.693 33.0525 106.009 32.8658C105.327 32.6809 104.443 32.3438 103.745 31.7366Z" fill="#F9F5E9"/>
<path fill-rule="evenodd" clip-rule="evenodd" d="M108.063 22.2552C107.821 22.6335 107.545 22.94 107.284 23.1833C106.762 23.6669 106.304 23.8949 106.304 23.8949C106.304 23.8949 106.235 23.8135 106.138 23.665C106.04 23.5146 105.927 23.2905 105.812 23.0147C105.694 22.7398 105.595 22.4056 105.548 22.0129C105.526 21.8204 105.526 21.6069 105.526 21.3875C105.527 21.1663 105.55 20.9326 105.595 20.6846C105.64 20.4356 105.708 20.1731 105.789 19.905C105.83 19.7709 105.875 19.633 105.922 19.497C105.97 19.3629 106.013 19.2259 106.062 19.089C106.254 18.5431 106.48 17.9924 106.693 17.4992C106.801 17.2549 106.902 17.0222 106.994 16.8115C107.086 16.6046 107.169 16.4198 107.239 16.2656C107.378 15.9534 107.465 15.7676 107.465 15.7676C107.465 15.7676 107.568 15.9534 107.716 16.2656C107.797 16.4179 107.872 16.6113 107.957 16.8249C108.041 17.0423 108.129 17.2827 108.215 17.5375C108.255 17.6648 108.297 17.798 108.341 17.932C108.38 18.0671 108.42 18.204 108.451 18.3487C108.515 18.6312 108.568 18.9271 108.608 19.2183C108.647 19.5104 108.674 19.8025 108.674 20.0841C108.669 20.3723 108.642 20.651 108.591 20.9106C108.488 21.4325 108.297 21.8788 108.063 22.2552Z" fill="#F9F5E9"/>
<path fill-rule="evenodd" clip-rule="evenodd" d="M100.707 23.6562C100.501 23.5317 100.298 23.3919 100.11 23.2473C99.9208 23.0998 99.747 22.9475 99.58 22.7952C99.412 22.6458 99.243 22.4983 99.0984 22.3547C98.9498 22.211 98.8177 22.0721 98.7002 21.9476C98.642 21.8825 98.5866 21.8222 98.5361 21.7676C98.4847 21.712 98.4361 21.6622 98.3934 21.6153C98.2147 21.4276 98.1186 21.3098 98.1186 21.3098C98.1186 21.3098 98.3157 21.2858 98.6449 21.2657C98.9712 21.2446 99.4353 21.2217 99.9441 21.2408C100.454 21.2571 101.031 21.3031 101.595 21.395C101.739 21.4199 101.88 21.4448 102.019 21.4735C102.154 21.5071 102.287 21.5406 102.418 21.5789C102.68 21.6536 102.931 21.7436 103.158 21.8471C103.386 21.9476 103.59 22.0635 103.771 22.189C103.954 22.3135 104.099 22.4543 104.233 22.5922C104.493 22.8737 104.678 23.163 104.808 23.4254C104.931 23.6869 104.985 23.9244 105.016 24.091C105.049 24.2596 105.05 24.3611 105.05 24.3611C105.05 24.3611 104.549 24.476 103.836 24.4789C103.478 24.4827 103.073 24.4578 102.647 24.3841C102.211 24.3142 101.761 24.1954 101.328 24.0029C101.114 23.9043 100.909 23.7874 100.707 23.6562Z" fill="#F9F5E9"/>
<path fill-rule="evenodd" clip-rule="evenodd" d="M102.96 14.0992C102.837 14.5234 102.66 14.8883 102.478 15.1872C102.115 15.7829 101.742 16.1181 101.742 16.1181C101.742 16.1181 101.375 15.8825 101.008 15.4036C100.915 15.2829 100.823 15.1479 100.735 14.9947C100.647 14.8472 100.554 14.6824 100.476 14.5033C100.317 14.1432 100.199 13.7094 100.152 13.2047C100.095 12.7057 100.106 12.1368 100.148 11.5554C100.192 10.9674 100.245 10.3918 100.308 9.8641C100.373 9.33735 100.441 8.87093 100.491 8.53285C100.545 8.19956 100.577 7.99365 100.577 7.99365C100.577 7.99365 100.618 8.02813 100.682 8.10283C100.745 8.17658 100.837 8.28193 100.95 8.41697C101.175 8.68609 101.48 9.06439 101.794 9.50878C102.091 9.96753 102.397 10.4924 102.641 11.0277C102.878 11.5746 103.044 12.1435 103.1 12.6645C103.113 12.7967 103.119 12.9231 103.119 13.0495C103.119 13.175 103.108 13.2995 103.096 13.4201C103.069 13.6615 103.02 13.8885 102.96 14.0992Z" fill="#F9F5E9"/>
<path fill-rule="evenodd" clip-rule="evenodd" d="M96.2663 17.319C96.1507 17.2826 96.039 17.2414 95.9235 17.1964C95.8691 17.1753 95.8138 17.1533 95.7574 17.1303C95.6992 17.1063 95.6448 17.0862 95.5875 17.0642C95.134 16.8851 94.7204 16.6648 94.3601 16.458C93.9882 16.2655 93.6824 16.072 93.4658 15.9322C93.3571 15.8594 93.2716 15.799 93.2153 15.7598C93.1522 15.7196 93.1201 15.6994 93.1201 15.6994C93.1201 15.6994 93.1667 15.6822 93.2522 15.6487C93.3396 15.6161 93.4619 15.573 93.6144 15.5251C93.9193 15.4265 94.3533 15.2972 94.8544 15.1794C95.1069 15.121 95.3729 15.0645 95.6516 15.0166C95.7895 14.9936 95.9313 14.9697 96.0711 14.9505C96.2119 14.9342 96.3527 14.9199 96.4925 14.9084C97.0586 14.8614 97.6257 14.8633 98.1297 14.9428C98.6259 15.0252 99.0318 15.1976 99.3697 15.3939C99.5396 15.4935 99.693 15.5998 99.8222 15.7119C99.9523 15.8249 100.06 15.9417 100.154 16.0519C100.536 16.5001 100.665 16.8842 100.665 16.8842C100.665 16.8842 100.213 17.1245 99.5212 17.3123C99.1764 17.408 98.7735 17.4904 98.3404 17.5297C97.9054 17.5708 97.4548 17.5555 96.9742 17.4875C96.7324 17.4502 96.4974 17.3908 96.2663 17.319Z" fill="#F9F5E9"/>
<path fill-rule="evenodd" clip-rule="evenodd" d="M94.9526 9.23386C94.8623 9.42349 94.7992 9.52884 94.7992 9.52884C94.7992 9.52884 94.772 9.52118 94.7264 9.50011C94.6788 9.48287 94.6118 9.45605 94.5273 9.41583C94.3593 9.34017 94.1302 9.2195 93.8825 9.03657C93.398 8.66018 92.7998 8.1047 92.4182 7.14984C92.2881 6.83667 92.1696 6.49284 92.0696 6.12507C91.9424 5.66824 91.8375 5.18171 91.7463 4.70859C91.6501 4.24697 91.5666 3.79588 91.4987 3.39746C91.3647 2.60446 91.2918 2.03174 91.2918 2.03174C91.2918 2.03174 91.5793 2.20317 92.0084 2.49911C92.2201 2.64373 92.4697 2.82282 92.7328 3.0249C92.9902 3.23752 93.2611 3.47504 93.5271 3.72883C93.6922 3.8859 93.8515 4.04776 94.0068 4.21536C94.0447 4.25654 94.0855 4.29773 94.1234 4.34082C94.1583 4.38392 94.1952 4.42798 94.2321 4.47395C94.302 4.56397 94.371 4.654 94.4409 4.74498C94.7089 5.10605 94.9361 5.48148 95.0924 5.85212C95.1973 6.09155 95.2624 6.34535 95.308 6.58095C95.3517 6.81847 95.374 7.04737 95.377 7.2686C95.3867 7.7082 95.3226 8.10278 95.2342 8.43799C95.1478 8.77319 95.04 9.04327 94.9526 9.23386Z" fill="#F9F5E9"/>
<path fill-rule="evenodd" clip-rule="evenodd" d="M88.5107 11.9673C88.2194 11.9118 87.9456 11.8448 87.6941 11.7796C87.4406 11.7231 87.2105 11.6628 87.0182 11.6082C86.6366 11.4971 86.4007 11.4061 86.4007 11.4061C86.4007 11.4061 86.8347 11.0805 87.5028 10.684C87.8339 10.4867 88.2262 10.2702 88.6544 10.0701C89.0739 9.87471 89.5216 9.70136 89.9702 9.56824C90.3159 9.46672 90.6615 9.38723 90.9878 9.35275C91.9831 9.26464 92.7687 9.54621 93.2561 9.8862C93.5057 10.0509 93.6892 10.2166 93.8125 10.3411C93.8737 10.4015 93.9194 10.4541 93.9485 10.4896C93.9776 10.5288 93.9912 10.549 93.9912 10.549C93.9912 10.549 93.9019 10.6361 93.7349 10.7673C93.5678 10.9004 93.3231 11.0786 93.0192 11.2596C92.7153 11.4444 92.3521 11.6302 91.9491 11.7835C91.7462 11.8582 91.5326 11.9281 91.3121 11.9798C91.0917 12.0344 90.8655 12.0708 90.6227 12.1024C89.9187 12.1886 89.1885 12.0756 88.5107 11.9673Z" fill="#F9F5E9"/>
<path fill-rule="evenodd" clip-rule="evenodd" d="M78.1133 67.9236C78.3046 67.8996 78.5415 67.8718 78.8086 67.8402C78.9445 67.8201 79.0882 67.8115 79.2378 67.7837C79.3863 67.7579 79.5436 67.7301 79.7068 67.7023C80.0359 67.6468 80.3913 67.5874 80.7691 67.5232C81.1419 67.4418 81.5342 67.3556 81.9392 67.2694C82.145 67.2215 82.3528 67.1832 82.5587 67.1277C82.7645 67.0712 82.9733 67.0156 83.185 66.9582C83.6054 66.8423 84.0376 66.7398 84.4561 66.5952C86.1583 66.0933 87.7857 65.399 88.9859 64.8464C89.2802 64.7018 89.5559 64.5686 89.7958 64.4527C89.9181 64.3943 90.0288 64.3388 90.1327 64.2871C90.2366 64.2353 90.3289 64.1817 90.4133 64.1376C90.7522 63.9528 90.9426 63.8465 90.9426 63.8465C90.9426 63.8465 91.1348 63.7431 91.4747 63.5582C91.8097 63.3676 92.2729 63.0746 92.8341 62.7355C93.9343 62.022 95.3763 61.0222 96.692 59.8834C98.0136 58.7485 99.2274 57.5092 100.082 56.5371C100.195 56.4203 100.289 56.2986 100.385 56.1847C100.479 56.0707 100.566 55.9653 100.651 55.8629C100.819 55.6617 100.966 55.4846 101.086 55.338C101.208 55.1953 101.292 55.0727 101.352 54.9933C101.412 54.9109 101.446 54.8697 101.446 54.8697C101.446 54.8697 101.573 54.6983 101.8 54.3956C101.91 54.2453 102.054 54.0662 102.202 53.8497C102.347 53.6333 102.514 53.3881 102.693 53.1218C102.784 52.9897 102.878 52.8508 102.974 52.7062C103.073 52.5616 103.158 52.4074 103.255 52.2513C103.448 51.9352 103.647 51.6029 103.853 51.26C104.042 50.9066 104.24 50.5427 104.44 50.174C104.491 50.0801 104.541 49.9872 104.591 49.8953C104.636 49.7985 104.68 49.7028 104.727 49.6079C104.819 49.4164 104.91 49.2239 105.003 49.0304C105.725 47.4885 106.322 45.8929 106.663 44.6661C106.709 44.5138 106.752 44.3672 106.795 44.2293C106.835 44.0905 106.877 43.9593 106.903 43.8347C106.964 43.5838 107.021 43.3635 107.062 43.1835C107.149 42.8234 107.202 42.6175 107.202 42.6175C107.202 42.6175 107.213 42.5658 107.238 42.469C107.26 42.3752 107.284 42.2296 107.32 42.0467C107.354 41.8657 107.395 41.6463 107.44 41.3916C107.488 41.1397 107.553 40.8543 107.587 40.5382C107.63 40.2241 107.675 39.8841 107.723 39.524C107.735 39.4349 107.749 39.343 107.759 39.2511C107.771 39.1591 107.776 39.0653 107.785 38.9685C107.798 38.7799 107.816 38.5845 107.831 38.3872C107.914 37.599 107.914 36.7533 107.94 35.9095C107.914 35.0639 107.914 34.2191 107.831 33.43C107.816 33.2336 107.798 33.0392 107.785 32.8496C107.776 32.7538 107.771 32.66 107.759 32.568C107.749 32.4751 107.735 32.3832 107.723 32.2932C107.675 31.934 107.63 31.5921 107.587 31.2789C107.553 30.9629 107.488 30.6803 107.44 30.4256C107.395 30.1727 107.354 29.9525 107.32 29.7705C107.284 29.5895 107.26 29.4439 107.238 29.3481C107.213 29.2514 107.202 29.1997 107.202 29.1997C107.202 29.1997 107.149 28.9947 107.062 28.6346C107.021 28.4546 106.964 28.2362 106.903 27.9853C106.877 27.8598 106.835 27.7267 106.795 27.5888C106.752 27.449 106.709 27.3043 106.663 27.1511C106.322 25.9262 105.725 24.3306 105.003 22.7867C104.91 22.5961 104.819 22.4008 104.727 22.2102C104.68 22.1135 104.636 22.0206 104.591 21.9238C104.541 21.8309 104.491 21.738 104.44 21.6432C104.24 21.2735 104.042 20.9096 103.853 20.5581C103.647 20.2152 103.448 19.8829 103.255 19.5678C103.158 19.4127 103.073 19.2556 102.974 19.1119C102.878 18.9673 102.784 18.8294 102.693 18.6953C102.514 18.4291 102.347 18.1839 102.202 17.9684C102.054 17.752 101.91 17.5738 101.8 17.4225C101.573 17.1208 101.446 16.9494 101.446 16.9494C101.446 16.9494 101.412 16.9063 101.352 16.8249C101.292 16.7454 101.208 16.6228 101.086 16.4801C100.966 16.3345 100.819 16.1583 100.651 15.9553C100.566 15.8537 100.479 15.7465 100.385 15.6306C100.289 15.5195 100.195 15.3979 100.082 15.2801C99.2274 14.3099 98.0136 13.0696 96.692 11.9337C95.3763 10.795 93.9343 9.79705 92.8341 9.08067C92.2729 8.7426 91.8097 8.44953 91.4747 8.26086C91.1348 8.07602 90.9426 7.96971 90.9426 7.96971C90.9426 7.96971 90.7522 7.86532 90.4133 7.68047C90.3289 7.63546 90.2366 7.58566 90.1327 7.52915C90.0288 7.47935 89.9181 7.4238 89.7958 7.36538C89.7142 7.32516 89.6307 7.28493 89.5433 7.24375C89.5365 7.24375 89.5297 7.24375 89.5219 7.24375C89.3073 7.26195 89.0034 7.27152 88.647 7.25237C87.9275 7.22076 86.9973 7.07423 86.1777 6.63176C85.7534 6.41723 85.3533 6.12608 85.0057 5.81099C84.8357 5.652 84.659 5.49302 84.4949 5.33499C84.3328 5.17697 84.1842 5.01799 84.0473 4.86475C83.787 4.55636 83.5433 4.29011 83.3841 4.0909C83.2267 3.8917 83.1374 3.76623 83.1374 3.76623C83.1374 3.76623 83.3345 3.75761 83.6608 3.75523C83.9871 3.75283 84.4454 3.7624 84.962 3.80263C85.0921 3.81412 85.2261 3.8237 85.3611 3.83998C85.4951 3.85626 85.631 3.87446 85.767 3.89649C86.0408 3.93767 86.3205 3.99034 86.5972 4.05451C87.1478 4.1838 87.7061 4.35045 88.1334 4.58701C88.5703 4.82069 88.9063 5.10418 89.1627 5.39437C89.4083 5.6884 89.5618 5.99295 89.6734 6.26208C89.7764 6.53024 89.8317 6.76584 89.8521 6.93632C89.8579 6.96888 89.8589 6.99953 89.8608 7.02826C89.8929 7.04454 89.9249 7.06178 89.9579 7.07423C90.0783 7.13553 90.192 7.19012 90.2988 7.24088C90.4007 7.29834 90.4959 7.34814 90.5823 7.39603C90.9212 7.58087 91.1154 7.68814 91.1154 7.68814C91.1154 7.68814 91.3116 7.79349 91.6534 7.97928C91.9884 8.17083 92.4574 8.46581 93.0274 8.81059C94.1392 9.53081 95.5938 10.5403 96.9251 11.6914C98.2583 12.8369 99.4828 14.0896 100.349 15.0703C100.462 15.1891 100.556 15.3145 100.651 15.4266C100.749 15.5415 100.837 15.6497 100.921 15.7532C101.091 15.9572 101.239 16.1353 101.36 16.2828C101.484 16.4274 101.568 16.551 101.631 16.6314C101.691 16.7119 101.725 16.7559 101.725 16.7559C101.725 16.7559 101.855 16.9302 102.083 17.2329C102.195 17.388 102.34 17.5681 102.489 17.7855C102.639 18.0048 102.804 18.2519 102.984 18.5201C103.079 18.6551 103.171 18.7949 103.27 18.9405C103.366 19.0861 103.455 19.2451 103.555 19.4021C103.745 19.7182 103.95 20.0553 104.157 20.4029C104.35 20.7573 104.549 21.1251 104.749 21.5005C104.799 21.5944 104.851 21.6882 104.902 21.7821C104.947 21.8769 104.994 21.9736 105.039 22.0704C105.131 22.2648 105.224 22.4601 105.316 22.6546C106.048 24.2128 106.653 25.8247 106.994 27.062C107.042 27.2162 107.085 27.3628 107.126 27.5045C107.168 27.6463 107.213 27.7765 107.239 27.9048C107.301 28.1567 107.356 28.3789 107.398 28.5609C107.488 28.9229 107.538 29.1317 107.538 29.1317C107.538 29.1317 107.551 29.1844 107.574 29.2811C107.599 29.3788 107.622 29.5244 107.658 29.7073C107.691 29.8912 107.735 30.1153 107.781 30.371C107.827 30.6267 107.893 30.914 107.929 31.232C107.972 31.55 108.018 31.8938 108.066 32.2568C108.076 32.3487 108.092 32.4406 108.103 32.5326C108.114 32.6284 108.119 32.7232 108.129 32.818C108.143 33.0095 108.158 33.204 108.174 33.408C108.259 34.2019 108.259 35.0552 108.288 35.9095C108.259 36.7629 108.259 37.6153 108.174 38.413C108.158 38.6123 108.143 38.8067 108.129 39.0011C108.119 39.0969 108.114 39.1917 108.103 39.2827C108.092 39.3765 108.076 39.4713 108.066 39.5614C108.018 39.9234 107.972 40.2701 107.929 40.5871C107.893 40.9031 107.827 41.1914 107.781 41.4481C107.735 41.7038 107.691 41.925 107.658 42.1099C107.622 42.2938 107.599 42.4384 107.574 42.537C107.551 42.6338 107.538 42.6864 107.538 42.6864C107.538 42.6864 107.488 42.8933 107.398 43.2563C107.356 43.4392 107.301 43.6614 107.239 43.9123C107.213 44.0397 107.168 44.1738 107.126 44.3127C107.085 44.4544 107.042 44.6019 106.994 44.7561C106.653 45.9935 106.048 47.6044 105.316 49.1655C105.224 49.358 105.131 49.5533 105.039 49.7468C104.994 49.8445 104.947 49.9403 104.902 50.036C104.851 50.128 104.799 50.2247 104.749 50.3186C104.549 50.6911 104.35 51.0599 104.157 51.4152C103.95 51.7619 103.745 52.098 103.555 52.416C103.455 52.5731 103.366 52.7311 103.27 52.8767C103.171 53.0213 103.079 53.164 102.984 53.2981C102.804 53.5672 102.639 53.8143 102.489 54.0326C102.34 54.2501 102.195 54.4311 102.083 54.5843C101.855 54.8879 101.725 55.0622 101.725 55.0622C101.725 55.0622 101.691 55.1063 101.631 55.1877C101.568 55.2681 101.484 55.3907 101.36 55.5353C101.239 55.6819 101.091 55.861 100.921 56.0669C100.837 56.1684 100.749 56.2766 100.651 56.3915C100.556 56.5026 100.462 56.6291 100.349 56.7469C99.4828 57.7295 98.2583 58.9812 96.9251 60.1267C95.5938 61.276 94.1392 62.2854 93.0274 63.0085C92.4574 63.3523 91.9884 63.6463 91.6534 63.8388C91.3116 64.0256 91.1154 64.13 91.1154 64.13C91.1154 64.13 90.9212 64.2382 90.5823 64.4221C90.4959 64.469 90.4007 64.5207 90.2988 64.5763C90.192 64.628 90.0783 64.6826 89.9579 64.741C89.7142 64.8598 89.4394 64.9948 89.1384 65.1404C87.9256 65.6978 86.2806 66.3988 84.5619 66.9064C84.1395 67.052 83.7035 67.1545 83.2763 67.2723C83.0665 67.3307 82.8539 67.3882 82.6451 67.4437C82.4392 67.5012 82.2285 67.5386 82.0227 67.5864C81.6119 67.6755 81.2138 67.7617 80.838 67.845C80.4583 67.9082 80.0981 67.9686 79.766 68.0251C79.5999 68.0529 79.4426 68.0816 79.2921 68.1065C79.1387 68.1352 78.994 68.1458 78.8591 68.1649C78.5862 68.1975 78.3493 68.2243 78.1531 68.2492C77.7647 68.2971 77.5414 68.3239 77.5414 68.3239L77.5054 67.9963C77.5054 67.9963 77.7278 67.9705 78.1133 67.9236Z" fill="#F9F5E9"/>
<path fill-rule="evenodd" clip-rule="evenodd" d="M81.9395 67.6037C81.9395 67.6037 77.2484 68.7836 76.1939 73.0455L76.3259 68.0241L81.6268 67.3374L81.9395 67.6037Z" fill="#F9F5E9"/>
</g>
<mask id="mask2_1_77" style="mask-type:luminance" maskUnits="userSpaceOnUse" x="0" y="0" width="38" height="73">
<path d="M38 0.5H0V72.5H38V0.5Z" fill="white"/>
</mask>
<g mask="url(#mask2_1_77)">
<path fill-rule="evenodd" clip-rule="evenodd" d="M28.7929 66.1899C28.5851 66.188 28.3667 66.2014 28.1346 66.232C28.0754 66.2416 28.0142 66.2512 27.9559 66.2617C27.8957 66.2703 27.8384 66.2809 27.7763 66.2904C27.6559 66.3134 27.5287 66.3422 27.4024 66.3757C26.8926 66.5117 26.3343 66.7339 25.776 66.9877C25.2293 67.2242 24.6777 67.4905 24.1825 67.7424C23.6892 67.9923 23.2503 68.2318 22.9415 68.3927C22.6327 68.5555 22.4463 68.6599 22.4463 68.6599C22.4463 68.6599 22.4948 68.6771 22.5919 68.7135C22.6861 68.7441 22.8211 68.7968 22.994 68.8437C23.3416 68.9414 23.829 69.0688 24.3806 69.178C24.5194 69.2058 24.6583 69.2364 24.8059 69.2575C24.9545 69.2786 25.1059 69.2948 25.2565 69.3111C25.5614 69.3427 25.8721 69.3667 26.1838 69.3743C26.8004 69.4002 27.4228 69.3236 27.9569 69.178C29.025 68.8916 29.7494 68.2432 30.199 67.704C30.6515 67.162 30.8438 66.7061 30.8438 66.7061C30.8438 66.7061 30.4777 66.4724 29.8679 66.3326C29.5639 66.2607 29.2056 66.1899 28.7929 66.1899Z" fill="#F9F5E9"/>
<path fill-rule="evenodd" clip-rule="evenodd" d="M30.4294 61.9987C30.1798 61.608 29.8507 61.2661 29.5098 60.9309C29.3409 60.7642 29.1641 60.6129 28.9845 60.4712C28.8932 60.3993 28.8058 60.3323 28.7223 60.2672C28.6388 60.1972 28.5543 60.1302 28.4718 60.067C28.1426 59.8161 27.8416 59.615 27.6241 59.4799C27.4066 59.3334 27.2735 59.2529 27.2735 59.2529C27.2735 59.2529 27.2716 59.4426 27.2842 59.7548C27.292 60.0737 27.326 60.4941 27.3949 60.9778C27.4648 61.4605 27.5726 62.0016 27.728 62.5303C27.8882 63.0417 28.1028 63.5397 28.365 63.9525C28.4281 64.0559 28.497 64.1536 28.5679 64.2446C28.6019 64.2915 28.6388 64.3337 28.6767 64.3768C28.7136 64.417 28.7495 64.4563 28.7874 64.4946C28.9408 64.6459 29.101 64.7752 29.2622 64.8853C29.4224 64.9964 29.5827 65.0893 29.74 65.164C29.8953 65.2378 30.0478 65.3039 30.1925 65.3422C30.7731 65.504 31.1965 65.4763 31.1965 65.4763C31.1965 65.4763 31.2635 64.9869 31.1936 64.3126C31.1586 63.9745 31.0936 63.5905 30.9712 63.1978C30.9411 63.1001 30.9081 62.9996 30.8683 62.9019C30.8343 62.8004 30.7945 62.6979 30.7479 62.5964C30.6576 62.3952 30.5547 62.1922 30.4294 61.9987Z" fill="#F9F5E9"/>
<path fill-rule="evenodd" clip-rule="evenodd" d="M22.163 63.1588C22.1271 63.1243 22.0718 63.0802 22.0048 63.0208C21.8659 62.9021 21.66 62.745 21.392 62.5956C21.2551 62.519 21.1075 62.4462 20.9376 62.3792C20.7706 62.3112 20.5832 62.2518 20.3899 62.1905C19.9976 62.0775 19.5374 62.0066 19.0004 62.0171C18.7295 62.0229 18.4518 62.0373 18.1605 62.065C17.8711 62.0928 17.571 62.134 17.271 62.1828C16.9671 62.2307 16.6612 62.2882 16.365 62.3437C16.0756 62.4022 15.7873 62.4596 15.5144 62.5142C14.9706 62.6282 14.487 62.7374 14.1423 62.8197C13.7918 62.903 13.584 62.9586 13.584 62.9586C13.584 62.9586 13.7627 63.0802 14.0676 63.2679C14.2152 63.3618 14.3997 63.47 14.6065 63.5878C14.7075 63.6462 14.8182 63.7075 14.9337 63.7698C15.0493 63.8301 15.1726 63.8885 15.2998 63.9479C15.5542 64.0657 15.8261 64.1835 16.1067 64.2965C16.2495 64.3502 16.3893 64.4038 16.5359 64.4555C16.6087 64.4823 16.6806 64.5082 16.7534 64.5312C16.8272 64.5513 16.902 64.5733 16.9777 64.5944C17.5769 64.7563 18.1847 64.8626 18.7353 64.8607C19.8627 64.829 20.7288 64.4134 21.3144 64.0102C21.6066 63.8138 21.8348 63.6079 21.9873 63.4576C22.1388 63.3082 22.2174 63.2105 22.2174 63.2105C22.2174 63.2105 22.199 63.1923 22.163 63.1588Z" fill="#F9F5E9"/>
<path fill-rule="evenodd" clip-rule="evenodd" d="M20.6096 59.9265C20.7504 60.3795 20.9679 60.7549 21.2096 61.0547C21.3281 61.2098 21.4602 61.3343 21.5922 61.4416C21.7233 61.5508 21.8573 61.6437 21.9845 61.7232C22.237 61.8812 22.4681 61.9808 22.6332 62.0421C22.7157 62.0746 22.7885 62.09 22.8332 62.1015C22.8847 62.1129 22.909 62.1177 22.909 62.1177C22.909 62.1177 22.9604 62.0038 23.0235 61.8093C23.0886 61.613 23.1682 61.3362 23.2313 60.9982C23.3615 60.3239 23.4178 59.439 23.1498 58.5732C23.0255 58.1288 22.8138 57.6997 22.5662 57.3061C22.3283 56.9048 22.0651 56.5236 21.8068 56.2085C21.6757 56.0534 21.5631 55.8973 21.4534 55.7642C21.3466 55.6291 21.2446 55.5142 21.1601 55.4184C20.9921 55.2269 20.8805 55.1187 20.8805 55.1187C20.8805 55.1187 20.8251 55.3006 20.7523 55.6013C20.6795 55.9011 20.5882 56.3263 20.5154 56.81C20.4804 57.0542 20.4445 57.3166 20.4241 57.5819C20.4085 57.8434 20.3998 58.1135 20.4047 58.3826C20.4085 58.6527 20.4241 58.9237 20.4571 59.1861C20.4921 59.4457 20.5348 59.7023 20.6096 59.9265Z" fill="#F9F5E9"/>
<path fill-rule="evenodd" clip-rule="evenodd" d="M14.4433 57.102C14.3413 56.9574 14.1967 56.7496 13.9811 56.5331C13.7675 56.3167 13.4859 56.0916 13.1334 55.8819C12.7916 55.6674 12.3711 55.4758 11.8536 55.3436C11.6817 55.2986 11.4962 55.2613 11.3108 55.2239C11.1253 55.1856 10.935 55.154 10.7369 55.1234C9.76197 54.9788 8.65499 54.9242 7.82282 54.8724C6.97899 54.8265 6.37695 54.8169 6.37695 54.8169C6.37695 54.8169 6.58281 55.0707 6.93335 55.4471C7.27321 55.8273 7.79854 56.2966 8.38019 56.7525C8.47147 56.8224 8.56274 56.8885 8.65208 56.9574C8.69966 56.9909 8.7453 57.0235 8.79482 57.0589C8.8424 57.0905 8.89192 57.1202 8.94047 57.1528C9.13759 57.2763 9.3386 57.3961 9.54251 57.5043C9.74449 57.6135 9.9484 57.7131 10.1552 57.7964C10.3592 57.8826 10.5582 57.9582 10.768 58.0071C11.8575 58.2743 12.8071 58.1086 13.4898 57.874C14.1782 57.6336 14.5938 57.3405 14.5938 57.3405C14.5938 57.3405 14.5462 57.2486 14.4433 57.102Z" fill="#F9F5E9"/>
<path fill-rule="evenodd" clip-rule="evenodd" d="M14.8031 55.8512C15.0002 56.0705 15.1867 56.2324 15.3343 56.3301C15.4809 56.4287 15.578 56.4728 15.578 56.4728C15.578 56.4728 15.9043 56.0935 16.216 55.4882C16.5345 54.8762 16.8549 54.0334 16.8481 53.1351C16.852 52.8028 16.8151 52.457 16.7471 52.1247C16.7141 51.96 16.6704 51.7952 16.6228 51.6324C16.5752 51.4753 16.5354 51.3087 16.484 51.1536C16.3995 50.8835 16.3043 50.6287 16.2101 50.4008C16.1849 50.3443 16.1596 50.2887 16.1383 50.2332C16.114 50.1786 16.0956 50.1259 16.0732 50.0723C16.0324 49.9679 15.9936 49.8721 15.9548 49.784C15.8013 49.4306 15.6838 49.2161 15.6838 49.2161C15.6838 49.2161 15.3857 49.6605 15.0381 50.3347C14.9497 50.5033 14.8585 50.6843 14.7691 50.8796C14.7254 50.9764 14.6808 51.0779 14.638 51.1765C14.5943 51.2771 14.5574 51.3796 14.5147 51.484C14.3593 51.8977 14.2205 52.3431 14.1273 52.7836C14.0884 52.9541 14.0603 53.1217 14.0379 53.2864C14.0175 53.4502 14.0117 53.6082 14.0117 53.7605C14.0117 54.2384 14.1108 54.6531 14.2525 55.0075C14.405 55.3551 14.6089 55.6319 14.8031 55.8512Z" fill="#F9F5E9"/>
<path fill-rule="evenodd" clip-rule="evenodd" d="M7.18738 49.9132C7.39809 49.9228 7.59618 49.9199 7.78165 49.9084C8.51186 49.8615 8.99544 49.6901 8.99544 49.6901C8.99544 49.6901 8.97699 49.5876 8.92164 49.419C8.89542 49.3357 8.85561 49.238 8.80803 49.126C8.7653 49.0101 8.71093 48.8865 8.64101 48.7544C8.49827 48.4881 8.30309 48.1941 8.02052 47.9029C7.95546 47.8369 7.88361 47.765 7.80301 47.6827C7.72727 47.608 7.64376 47.5352 7.55637 47.4624C7.38061 47.3178 7.18058 47.177 6.95433 47.0429C6.72614 46.9107 6.47561 46.7843 6.20469 46.6627C5.94931 46.5382 5.67257 46.4204 5.39388 46.3045C4.83554 46.0766 4.24904 45.8687 3.71788 45.6906C3.1945 45.5086 2.73423 45.3535 2.39534 45.2462C2.05839 45.138 1.85156 45.0776 1.85156 45.0776C1.85156 45.0776 1.92827 45.2721 2.07587 45.5843C2.1487 45.7413 2.23609 45.931 2.34776 46.1331C2.46331 46.3371 2.59343 46.5564 2.73811 46.7881C2.8828 47.0199 3.04399 47.2593 3.21489 47.4997C3.25762 47.5582 3.30131 47.6185 3.34792 47.6769C3.39259 47.7334 3.4392 47.7909 3.49066 47.8512C3.58679 47.9671 3.68778 48.0801 3.78974 48.1903C3.99657 48.4144 4.21117 48.626 4.43159 48.8157C4.54229 48.9133 4.65202 49.0034 4.76951 49.0867C4.88798 49.1671 5.00644 49.2438 5.12782 49.3127C5.60751 49.5876 6.08914 49.7475 6.53873 49.8347C6.76401 49.8797 6.98249 49.9017 7.18738 49.9132Z" fill="#F9F5E9"/>
<path fill-rule="evenodd" clip-rule="evenodd" d="M9.35732 47.3618C9.40393 47.7306 9.51074 48.0543 9.63212 48.3177C9.69329 48.4498 9.75835 48.5657 9.8205 48.6663C9.88362 48.7668 9.95256 48.8502 10.0069 48.9153C10.1186 49.0494 10.1973 49.1174 10.1973 49.1174C10.1973 49.1174 10.6226 48.8396 11.1013 48.3397C11.2207 48.2161 11.3411 48.0782 11.4645 47.9279C11.5926 47.7737 11.715 47.608 11.8315 47.4327C12.0636 47.0803 12.2704 46.6847 12.4015 46.2518C12.4355 46.1427 12.4598 46.0335 12.4869 45.9205C12.5141 45.8075 12.5365 45.6925 12.5569 45.5786C12.5938 45.3477 12.618 45.115 12.6248 44.8852C12.6326 44.4293 12.6404 43.9715 12.6064 43.5759C12.5908 43.3767 12.5705 43.19 12.5481 43.0243C12.5345 42.8557 12.52 42.7063 12.5015 42.5837C12.4734 42.3338 12.4433 42.1863 12.4433 42.1863C12.4433 42.1863 12.2937 42.3098 12.0597 42.5272C11.8257 42.7437 11.5052 43.0549 11.1644 43.4304C10.8352 43.801 10.4905 44.2358 10.1914 44.6965C10.038 44.9273 9.89818 45.1639 9.77486 45.4023C9.65639 45.636 9.56512 45.8707 9.49326 46.1015C9.42335 46.3285 9.38159 46.5506 9.35732 46.7604C9.34566 46.8667 9.33887 46.9701 9.33887 47.0697C9.33887 47.1205 9.33887 47.1703 9.34081 47.2182C9.34566 47.2651 9.35052 47.313 9.35732 47.3618Z" fill="#F9F5E9"/>
<path fill-rule="evenodd" clip-rule="evenodd" d="M2.93562 40.4183C3.14245 40.561 3.35122 40.6788 3.55902 40.7784C3.97462 40.9757 4.37954 41.0945 4.73397 41.1663C5.44573 41.309 5.95941 41.2688 5.95941 41.2688C5.95941 41.2688 6.01961 40.8531 5.88561 40.2756C5.85648 40.1281 5.80016 39.9739 5.75064 39.8102C5.6982 39.6445 5.62926 39.4721 5.5409 39.2968C5.4535 39.1196 5.34183 38.9367 5.2088 38.7538C5.1418 38.6618 5.07092 38.5689 4.99129 38.477C4.95148 38.431 4.9107 38.385 4.867 38.3372C4.82816 38.2912 4.7864 38.2462 4.74077 38.1983C4.04259 37.4551 2.91231 36.6918 2.02188 36.0721C1.56938 35.7647 1.1596 35.5004 0.861498 35.3098C0.563391 35.1201 0.376953 35.01 0.376953 35.01C0.376953 35.01 0.4022 35.2159 0.461433 35.555C0.521637 35.894 0.610972 36.3614 0.749829 36.8785C0.909078 37.3967 1.11494 37.9636 1.36935 38.4971C1.43052 38.6302 1.50335 38.7605 1.58103 38.8888C1.65774 39.0143 1.7364 39.1407 1.81796 39.2595C1.98207 39.4989 2.15879 39.723 2.3462 39.9145C2.53847 40.1099 2.72685 40.2775 2.93562 40.4183Z" fill="#F9F5E9"/>
<path fill-rule="evenodd" clip-rule="evenodd" d="M7.27907 41.0245C7.27907 41.0245 7.77041 40.8646 8.37633 40.5054C8.68415 40.3244 9.01721 40.0965 9.33571 39.8187C9.49496 39.678 9.64838 39.5266 9.79404 39.3619C9.94649 39.1953 10.0931 39.0171 10.2213 38.8246C10.3514 38.6321 10.4631 38.4252 10.5621 38.2136C10.6612 38.0029 10.7311 37.7864 10.8175 37.5652C10.9797 37.1266 11.0875 36.686 11.1642 36.2962C11.2613 35.9007 11.3186 35.5549 11.3535 35.3078C11.3865 35.0588 11.3962 34.9094 11.3962 34.9094C11.3962 34.9094 11.2205 34.9908 10.936 35.1402C10.6515 35.2925 10.264 35.5099 9.83385 35.7848C9.40854 36.0597 8.93079 36.3929 8.5249 36.7598C8.11027 37.1266 7.7306 37.5298 7.45385 37.9378C7.31111 38.1389 7.22178 38.341 7.14021 38.5383C7.06544 38.7346 7.013 38.9281 6.97805 39.1148C6.94309 39.2997 6.92464 39.4778 6.9227 39.6444C6.91687 39.8101 6.94309 39.9672 6.96542 40.108C7.06544 40.675 7.27907 41.0245 7.27907 41.0245Z" fill="#F9F5E9"/>
<path fill-rule="evenodd" clip-rule="evenodd" d="M1.81797 27.852C1.85195 28.0723 1.89273 28.2935 1.94129 28.51C2.04616 28.9419 2.16948 29.3509 2.37242 29.71C2.63072 30.1841 2.95019 30.5624 3.28714 30.8612C3.62505 31.1591 3.96977 31.3784 4.29604 31.5402C4.94663 31.8668 5.4535 31.9626 5.4535 31.9626C5.4535 31.9626 5.49623 31.8678 5.53896 31.6983C5.57974 31.5259 5.64674 31.2845 5.67199 30.9905C5.70015 30.6936 5.69432 30.345 5.61664 29.9571C5.54867 29.5702 5.42535 29.1469 5.18259 28.6929C5.10199 28.5435 5.01071 28.3864 4.9107 28.2303C4.86215 28.1547 4.81068 28.0752 4.75728 27.9947C4.70678 27.9181 4.65435 27.8357 4.60288 27.7582C4.33294 27.3645 4.029 26.9661 3.72216 26.5859C3.41725 26.2057 3.10847 25.8408 2.85017 25.5314C2.32581 24.907 1.92866 24.4731 1.92866 24.4731C1.92866 24.4731 1.86749 24.7921 1.80437 25.2882C1.7665 25.5372 1.75388 25.8341 1.74417 26.1559C1.73543 26.4777 1.73543 26.8282 1.75096 27.1854C1.75679 27.4028 1.78592 27.6289 1.81797 27.852Z" fill="#F9F5E9"/>
<path fill-rule="evenodd" clip-rule="evenodd" d="M10.2552 30.7366C10.3203 30.683 10.3814 30.6246 10.4426 30.5652C10.5057 30.5048 10.5708 30.4435 10.63 30.3803C10.7563 30.2568 10.8689 30.1246 10.9777 29.9886C11.0835 29.8545 11.1855 29.7157 11.2806 29.5749C11.3806 29.4255 11.4709 29.2856 11.5574 29.1554C11.7147 28.9169 11.8506 28.6784 11.9681 28.4601C12.0273 28.3499 12.0807 28.2427 12.1293 28.144C12.174 28.0425 12.2313 27.9515 12.2749 27.8653C12.4517 27.5244 12.541 27.2993 12.541 27.2993C12.541 27.2993 11.9953 27.3846 11.2272 27.5886C11.0398 27.6384 10.8291 27.6949 10.6252 27.7648C10.4183 27.8309 10.2037 27.9075 9.9872 27.9908C9.55412 28.1565 9.1123 28.3547 8.70156 28.5817C8.38014 28.7551 8.1102 28.9524 7.8655 29.1583C7.49359 29.4753 7.22656 29.8229 7.05177 30.161C6.88573 30.501 6.79833 30.8305 6.75852 31.1139C6.71968 31.4003 6.71288 31.6388 6.74007 31.8093C6.76144 31.9788 6.79251 32.0774 6.79251 32.0774C6.79251 32.0774 7.30715 32.0525 7.99076 31.8658C8.6734 31.6809 9.55703 31.3438 10.2552 30.7366Z" fill="#F9F5E9"/>
<path fill-rule="evenodd" clip-rule="evenodd" d="M5.93695 21.2552C6.17874 21.6335 6.45451 21.94 6.71572 22.1833C7.23813 22.6669 7.69646 22.8949 7.69646 22.8949C7.69646 22.8949 7.7654 22.8135 7.86153 22.665C7.95961 22.5146 8.07322 22.2905 8.1878 22.0147C8.30627 21.7398 8.40531 21.4056 8.45192 21.0129C8.47425 20.8204 8.47425 20.6069 8.47425 20.3875C8.47328 20.1663 8.44998 19.9326 8.40531 19.6846C8.35967 19.4356 8.2917 19.1731 8.2111 18.905C8.17032 18.7709 8.12468 18.633 8.07807 18.497C8.03049 18.3629 7.9868 18.2259 7.93824 18.089C7.74598 17.5431 7.51973 16.9924 7.30708 16.4992C7.19929 16.2549 7.0983 16.0222 7.00606 15.8115C6.91381 15.6046 6.83127 15.4198 6.76136 15.2656C6.6225 14.9534 6.53511 14.7676 6.53511 14.7676C6.53511 14.7676 6.43218 14.9534 6.28361 15.2656C6.20301 15.4179 6.12824 15.6113 6.04279 15.8249C5.95928 16.0423 5.87092 16.2827 5.78547 16.5375C5.74469 16.6648 5.70293 16.798 5.65924 16.932C5.62039 17.0671 5.57961 17.204 5.54854 17.3487C5.48542 17.6312 5.43201 17.9271 5.3922 18.2183C5.35336 18.5104 5.32617 18.8025 5.32617 19.0841C5.33103 19.3723 5.35822 19.651 5.40871 19.9106C5.51164 20.4325 5.70293 20.8788 5.93695 21.2552Z" fill="#F9F5E9"/>
<path fill-rule="evenodd" clip-rule="evenodd" d="M13.2926 22.6562C13.4995 22.5317 13.7024 22.3919 13.8898 22.2473C14.0792 22.0998 14.253 21.9475 14.42 21.7952C14.588 21.6458 14.757 21.4983 14.9016 21.3547C15.0502 21.211 15.1823 21.0721 15.2998 20.9476C15.358 20.8825 15.4134 20.8222 15.4639 20.7676C15.5153 20.712 15.5639 20.6622 15.6066 20.6153C15.7853 20.4276 15.8814 20.3098 15.8814 20.3098C15.8814 20.3098 15.6843 20.2858 15.3551 20.2657C15.0288 20.2446 14.5647 20.2217 14.0559 20.2408C13.5461 20.2571 12.9693 20.3031 12.4051 20.395C12.2614 20.4199 12.1196 20.4448 11.9808 20.4735C11.8458 20.5071 11.7128 20.5406 11.5817 20.5789C11.3205 20.6536 11.069 20.7436 10.8418 20.8471C10.6136 20.9476 10.4097 21.0635 10.229 21.189C10.0455 21.3135 9.90083 21.4543 9.76683 21.5922C9.5066 21.8737 9.3221 22.163 9.19198 22.4254C9.06866 22.6869 9.01525 22.9244 8.98418 23.091C8.95117 23.2596 8.9502 23.3611 8.9502 23.3611C8.9502 23.3611 9.45124 23.476 10.164 23.4789C10.5223 23.4827 10.9272 23.4578 11.3535 23.3841C11.7885 23.3142 12.2391 23.1954 12.6722 23.0029C12.8858 22.9043 13.0907 22.7874 13.2926 22.6562Z" fill="#F9F5E9"/>
<path fill-rule="evenodd" clip-rule="evenodd" d="M11.0401 13.0992C11.1634 13.5234 11.3402 13.8883 11.5217 14.1872C11.8849 14.7829 12.2578 15.1181 12.2578 15.1181C12.2578 15.1181 12.6248 14.8825 12.9919 14.4036C13.0851 14.2829 13.1773 14.1479 13.2647 13.9947C13.3531 13.8472 13.4463 13.6824 13.524 13.5033C13.6833 13.1432 13.8008 12.7094 13.8483 12.2047C13.9047 11.7057 13.894 11.1368 13.8522 10.5554C13.8075 9.9674 13.7551 9.39181 13.692 8.8641C13.6269 8.33735 13.559 7.87093 13.5094 7.53285C13.4551 7.19956 13.423 6.99365 13.423 6.99365C13.423 6.99365 13.3822 7.02813 13.3181 7.10283C13.255 7.17658 13.1628 7.28193 13.0501 7.41697C12.8249 7.68609 12.52 8.06439 12.2063 8.50878C11.9092 8.96753 11.6033 9.49237 11.3586 10.0277C11.1217 10.5746 10.9556 11.1435 10.9003 11.6645C10.8867 11.7967 10.8809 11.9231 10.8809 12.0495C10.8809 12.175 10.8915 12.2995 10.9042 12.4201C10.9314 12.6615 10.9799 12.8885 11.0401 13.0992Z" fill="#F9F5E9"/>
<path fill-rule="evenodd" clip-rule="evenodd" d="M17.7337 16.319C17.8493 16.2826 17.961 16.2414 18.0765 16.1964C18.1309 16.1753 18.1862 16.1533 18.2426 16.1303C18.3008 16.1063 18.3552 16.0862 18.4125 16.0642C18.866 15.8851 19.2796 15.6648 19.6399 15.458C20.0118 15.2655 20.3176 15.072 20.5342 14.9322C20.6429 14.8594 20.7284 14.799 20.7847 14.7598C20.8478 14.7196 20.8799 14.6994 20.8799 14.6994C20.8799 14.6994 20.8333 14.6822 20.7478 14.6487C20.6604 14.6161 20.5381 14.573 20.3856 14.5251C20.0807 14.4265 19.6467 14.2972 19.1456 14.1794C18.8931 14.121 18.6271 14.0645 18.3484 14.0166C18.2105 13.9936 18.0687 13.9697 17.9289 13.9505C17.7881 13.9342 17.6473 13.9199 17.5075 13.9084C16.9414 13.8614 16.3743 13.8633 15.8703 13.9428C15.3741 14.0252 14.9682 14.1976 14.6303 14.3939C14.4604 14.4935 14.307 14.5998 14.1778 14.7119C14.0477 14.8249 13.9399 14.9417 13.8457 15.0519C13.4641 15.5001 13.335 15.8842 13.335 15.8842C13.335 15.8842 13.7875 16.1245 14.4788 16.3123C14.8236 16.408 15.2265 16.4904 15.6596 16.5297C16.0946 16.5708 16.5452 16.5555 17.0258 16.4875C17.2676 16.4502 17.5026 16.3908 17.7337 16.319Z" fill="#F9F5E9"/>
<path fill-rule="evenodd" clip-rule="evenodd" d="M19.0474 8.23386C19.1377 8.42349 19.2008 8.52884 19.2008 8.52884C19.2008 8.52884 19.228 8.52118 19.2736 8.50011C19.3212 8.48287 19.3882 8.45605 19.4727 8.41583C19.6407 8.34017 19.8698 8.2195 20.1175 8.03657C20.602 7.66018 21.2002 7.1047 21.5818 6.14984C21.7119 5.83667 21.8304 5.49284 21.9304 5.12507C22.0576 4.66824 22.1625 4.18171 22.2537 3.70859C22.3499 3.24697 22.4334 2.79588 22.5013 2.39746C22.6353 1.60446 22.7082 1.03174 22.7082 1.03174C22.7082 1.03174 22.4207 1.20317 21.9916 1.49911C21.7799 1.64373 21.5303 1.82282 21.2672 2.0249C21.0098 2.23752 20.7389 2.47504 20.4729 2.72883C20.3078 2.8859 20.1485 3.04776 19.9932 3.21536C19.9553 3.25654 19.9145 3.29773 19.8766 3.34082C19.8417 3.38392 19.8048 3.42798 19.7679 3.47395C19.698 3.56397 19.629 3.654 19.5591 3.74498C19.2911 4.10605 19.0639 4.48148 18.9076 4.85212C18.8027 5.09155 18.7376 5.34535 18.692 5.58095C18.6483 5.81847 18.626 6.04737 18.623 6.2686C18.6133 6.7082 18.6774 7.10278 18.7658 7.43799C18.8522 7.77319 18.96 8.04327 19.0474 8.23386Z" fill="#F9F5E9"/>
<path fill-rule="evenodd" clip-rule="evenodd" d="M25.4893 10.9673C25.7806 10.9118 26.0544 10.8448 26.3059 10.7796C26.5594 10.7231 26.7895 10.6628 26.9818 10.6082C27.3634 10.4971 27.5993 10.4061 27.5993 10.4061C27.5993 10.4061 27.1653 10.0805 26.4972 9.68399C26.1661 9.4867 25.7738 9.27025 25.3456 9.07009C24.9261 8.87471 24.4784 8.70136 24.0298 8.56824C23.6841 8.46672 23.3385 8.38723 23.0122 8.35275C22.0169 8.26464 21.2313 8.54621 20.7439 8.8862C20.4943 9.05093 20.3108 9.21662 20.1875 9.34112C20.1263 9.40146 20.0806 9.45414 20.0515 9.48957C20.0224 9.52884 20.0088 9.54895 20.0088 9.54895C20.0088 9.54895 20.0981 9.6361 20.2651 9.76731C20.4322 9.90044 20.6769 10.0786 20.9808 10.2596C21.2847 10.4444 21.6479 10.6302 22.0509 10.7835C22.2538 10.8582 22.4674 10.9281 22.6879 10.9798C22.9083 11.0344 23.1345 11.0708 23.3773 11.1024C24.0813 11.1886 24.8115 11.0756 25.4893 10.9673Z" fill="#F9F5E9"/>
<path fill-rule="evenodd" clip-rule="evenodd" d="M35.8867 66.9236C35.6954 66.8996 35.4585 66.8718 35.1914 66.8402C35.0555 66.8201 34.9118 66.8115 34.7622 66.7837C34.6137 66.7579 34.4564 66.7301 34.2932 66.7023C33.9641 66.6468 33.6087 66.5874 33.2309 66.5232C32.8581 66.4418 32.4658 66.3556 32.0608 66.2694C31.855 66.2215 31.6472 66.1832 31.4413 66.1277C31.2355 66.0712 31.0267 66.0156 30.815 65.9582C30.3946 65.8423 29.9624 65.7398 29.5439 65.5952C27.8417 65.0933 26.2143 64.399 25.0141 63.8464C24.7198 63.7018 24.4441 63.5686 24.2042 63.4527C24.0819 63.3943 23.9712 63.3388 23.8673 63.2871C23.7634 63.2353 23.6711 63.1817 23.5867 63.1376C23.2478 62.9528 23.0574 62.8465 23.0574 62.8465C23.0574 62.8465 22.8652 62.7431 22.5253 62.5582C22.1903 62.3676 21.7271 62.0746 21.1659 61.7355C20.0657 61.022 18.6237 60.0222 17.308 58.8834C15.9864 57.7485 14.7726 56.5092 13.9181 55.5371C13.8055 55.4203 13.7113 55.2986 13.6151 55.1847C13.5209 55.0707 13.4336 54.9653 13.3491 54.8629C13.1811 54.6617 13.0345 54.4846 12.9141 54.338C12.7917 54.1953 12.7082 54.0727 12.648 53.9933C12.5878 53.9109 12.5538 53.8697 12.5538 53.8697C12.5538 53.8697 12.4266 53.6983 12.2003 53.3956C12.0896 53.2453 11.9459 53.0662 11.7983 52.8497C11.6527 52.6333 11.4857 52.3881 11.307 52.1218C11.2157 51.9897 11.1215 51.8508 11.0264 51.7062C10.9273 51.5616 10.8419 51.4074 10.7448 51.2513C10.5515 50.9352 10.3534 50.6029 10.1466 50.26C9.95823 49.9066 9.76014 49.5427 9.56011 49.174C9.50865 49.0801 9.45912 48.9872 9.40863 48.8953C9.36396 48.7985 9.32027 48.7028 9.27269 48.6079C9.18141 48.4164 9.09013 48.2239 8.99691 48.0304C8.27544 46.4885 7.67825 44.8929 7.33742 43.6661C7.29081 43.5138 7.24809 43.3672 7.20536 43.2293C7.16458 43.0905 7.12282 42.9593 7.0966 42.8347C7.0364 42.5838 6.97911 42.3635 6.93833 42.1835C6.85093 41.8234 6.7985 41.6175 6.7985 41.6175C6.7985 41.6175 6.78685 41.5658 6.7616 41.469C6.74024 41.3752 6.71596 41.2296 6.68003 41.0467C6.64605 40.8657 6.60526 40.6463 6.55962 40.3916C6.51204 40.1397 6.44698 39.8543 6.413 39.5382C6.37027 39.2241 6.32463 38.8841 6.27705 38.524C6.2654 38.4349 6.25084 38.343 6.24113 38.2511C6.2285 38.1591 6.22365 38.0653 6.21491 37.9685C6.20228 37.7799 6.18384 37.5845 6.16927 37.3872C6.08576 36.599 6.08576 35.7533 6.05954 34.9095C6.08576 34.0639 6.08576 33.2191 6.16927 32.43C6.18384 32.2336 6.20228 32.0392 6.21491 31.8496C6.22365 31.7538 6.2285 31.66 6.24113 31.568C6.25084 31.4751 6.2654 31.3832 6.27705 31.2932C6.32463 30.934 6.37027 30.5921 6.413 30.2789C6.44698 29.9629 6.51204 29.6803 6.55962 29.4256C6.60526 29.1727 6.64605 28.9525 6.68003 28.7705C6.71596 28.5895 6.74024 28.4439 6.7616 28.3481C6.78685 28.2514 6.7985 28.1997 6.7985 28.1997C6.7985 28.1997 6.85093 27.9947 6.93833 27.6346C6.97911 27.4546 7.0364 27.2362 7.0966 26.9853C7.12282 26.8598 7.16458 26.7267 7.20536 26.5888C7.24809 26.449 7.29081 26.3043 7.33742 26.1511C7.67825 24.9262 8.27544 23.3306 8.99691 21.7867C9.09013 21.5961 9.18141 21.4008 9.27269 21.2102C9.32027 21.1135 9.36396 21.0206 9.40863 20.9238C9.45912 20.8309 9.50865 20.738 9.56011 20.6432C9.76014 20.2735 9.95823 19.9096 10.1466 19.5581C10.3534 19.2152 10.5515 18.8829 10.7448 18.5678C10.8419 18.4127 10.9273 18.2556 11.0264 18.1119C11.1215 17.9673 11.2157 17.8294 11.307 17.6953C11.4857 17.4291 11.6527 17.1839 11.7983 16.9684C11.9459 16.752 12.0896 16.5738 12.2003 16.4225C12.4266 16.1208 12.5538 15.9494 12.5538 15.9494C12.5538 15.9494 12.5878 15.9063 12.648 15.8249C12.7082 15.7454 12.7917 15.6228 12.9141 15.4801C13.0345 15.3345 13.1811 15.1583 13.3491 14.9553C13.4336 14.8537 13.5209 14.7465 13.6151 14.6306C13.7113 14.5195 13.8055 14.3979 13.9181 14.2801C14.7726 13.3099 15.9864 12.0696 17.308 10.9337C18.6237 9.79501 20.0657 8.79705 21.1659 8.08067C21.7271 7.7426 22.1903 7.44953 22.5253 7.26086C22.8652 7.07602 23.0574 6.96971 23.0574 6.96971C23.0574 6.96971 23.2478 6.86532 23.5867 6.68047C23.6711 6.63546 23.7634 6.58566 23.8673 6.52915C23.9712 6.47935 24.0819 6.4238 24.2042 6.36538C24.2858 6.32516 24.3693 6.28493 24.4567 6.24375C24.4635 6.24375 24.4703 6.24375 24.4781 6.24375C24.6927 6.26195 24.9966 6.27152 25.353 6.25237C26.0725 6.22076 27.0027 6.07423 27.8223 5.63176C28.2466 5.41723 28.6467 5.12608 28.9943 4.81099C29.1643 4.652 29.341 4.49302 29.5051 4.33499C29.6672 4.17697 29.8158 4.01799 29.9527 3.86475C30.213 3.55636 30.4567 3.29011 30.6159 3.0909C30.7733 2.8917 30.8626 2.76623 30.8626 2.76623C30.8626 2.76623 30.6655 2.75761 30.3392 2.75523C30.0129 2.75283 29.5546 2.7624 29.038 2.80263C28.9079 2.81412 28.7739 2.8237 28.6389 2.83998C28.5049 2.85626 28.369 2.87446 28.233 2.89649C27.9592 2.93767 27.6795 2.99034 27.4028 3.05451C26.8522 3.1838 26.2939 3.35045 25.8666 3.58701C25.4297 3.82069 25.0937 4.10418 24.8373 4.39437C24.5917 4.6884 24.4382 4.99295 24.3266 5.26208C24.2236 5.53024 24.1683 5.76584 24.1479 5.93632C24.1421 5.96888 24.1411 5.99953 24.1392 6.02826C24.1071 6.04454 24.0751 6.06178 24.0421 6.07423C23.9217 6.13553 23.808 6.19012 23.7012 6.24088C23.5993 6.29834 23.5041 6.34814 23.4177 6.39603C23.0788 6.58087 22.8846 6.68814 22.8846 6.68814C22.8846 6.68814 22.6884 6.79349 22.3466 6.97928C22.0116 7.17083 21.5426 7.46581 20.9726 7.81059C19.8608 8.53081 18.4062 9.54025 17.0749 10.6914C15.7417 11.8369 14.5172 13.0896 13.6511 14.0703C13.5384 14.1891 13.4442 14.3145 13.3491 14.4266C13.251 14.5415 13.1626 14.6497 13.0791 14.7532C12.9092 14.9572 12.7606 15.1353 12.6402 15.2828C12.5159 15.4274 12.4324 15.551 12.3693 15.6314C12.3091 15.7119 12.2751 15.7559 12.2751 15.7559C12.2751 15.7559 12.145 15.9302 11.9168 16.2329C11.8051 16.388 11.6604 16.5681 11.5109 16.7855C11.3614 17.0048 11.1963 17.2519 11.0157 17.5201C10.9215 17.6551 10.8292 17.7949 10.7302 17.9405C10.6341 18.0861 10.5447 18.2451 10.4447 18.4021C10.2554 18.7182 10.0505 19.0553 9.84268 19.4029C9.65042 19.7573 9.45135 20.1251 9.25132 20.5005C9.20083 20.5944 9.14936 20.6882 9.0979 20.7821C9.05323 20.8769 9.00565 20.9736 8.96098 21.0704C8.86874 21.2648 8.77552 21.4601 8.68424 21.6546C7.95208 23.2128 7.34713 24.8247 7.0063 26.062C6.95775 26.2162 6.91502 26.3628 6.87424 26.5045C6.83151 26.6463 6.78685 26.7765 6.76063 26.9048C6.69945 27.1567 6.6441 27.3789 6.60235 27.5609C6.51204 27.9229 6.46155 28.1317 6.46155 28.1317C6.46155 28.1317 6.44893 28.1844 6.42562 28.2811C6.40135 28.3788 6.37804 28.5244 6.34211 28.7073C6.3091 28.8912 6.2654 29.1153 6.21879 29.371C6.17315 29.6267 6.10712 29.914 6.0712 30.232C6.02847 30.55 5.98186 30.8938 5.93428 31.2568C5.9236 31.3487 5.90806 31.4406 5.89738 31.5326C5.88573 31.6284 5.88087 31.7232 5.87116 31.818C5.8566 32.0095 5.84203 32.204 5.82552 32.408C5.74105 33.2019 5.74104 34.0552 5.71191 34.9095C5.74104 35.7629 5.74105 36.6153 5.82552 37.413C5.84203 37.6123 5.8566 37.8067 5.87116 38.0011C5.88087 38.0969 5.88573 38.1917 5.89738 38.2827C5.90806 38.3765 5.9236 38.4713 5.93428 38.5614C5.98186 38.9234 6.02847 39.2701 6.0712 39.5871C6.10712 39.9031 6.17315 40.1914 6.21879 40.4481C6.2654 40.7038 6.3091 40.925 6.34211 41.1099C6.37804 41.2938 6.40135 41.4384 6.42562 41.537C6.44893 41.6338 6.46155 41.6864 6.46155 41.6864C6.46155 41.6864 6.51204 41.8933 6.60235 42.2563C6.6441 42.4392 6.69945 42.6614 6.76063 42.9123C6.78685 43.0397 6.83151 43.1738 6.87424 43.3127C6.91502 43.4544 6.95775 43.6019 7.0063 43.7561C7.34713 44.9935 7.95208 46.6044 8.68424 48.1655C8.77552 48.358 8.86874 48.5533 8.96098 48.7468C9.00565 48.8445 9.05323 48.9403 9.0979 49.036C9.14936 49.128 9.20083 49.2247 9.25132 49.3186C9.45135 49.6911 9.65042 50.0599 9.84268 50.4152C10.0505 50.7619 10.2554 51.098 10.4447 51.416C10.5447 51.5731 10.6341 51.7311 10.7302 51.8767C10.8292 52.0213 10.9215 52.164 11.0157 52.2981C11.1963 52.5672 11.3614 52.8143 11.5109 53.0326C11.6604 53.2501 11.8051 53.4311 11.9168 53.5843C12.145 53.8879 12.2751 54.0622 12.2751 54.0622C12.2751 54.0622 12.3091 54.1063 12.3693 54.1877C12.4324 54.2681 12.5159 54.3907 12.6402 54.5353C12.7606 54.6819 12.9092 54.861 13.0791 55.0669C13.1626 55.1684 13.251 55.2766 13.3491 55.3915C13.4442 55.5026 13.5384 55.6291 13.6511 55.7469C14.5172 56.7295 15.7417 57.9812 17.0749 59.1267C18.4062 60.276 19.8608 61.2854 20.9726 62.0085C21.5426 62.3523 22.0116 62.6463 22.3466 62.8388C22.6884 63.0256 22.8846 63.13 22.8846 63.13C22.8846 63.13 23.0788 63.2382 23.4177 63.4221C23.5041 63.469 23.5993 63.5207 23.7012 63.5763C23.808 63.628 23.9217 63.6826 24.0421 63.741C24.2858 63.8598 24.5606 63.9948 24.8616 64.1404C26.0744 64.6978 27.7194 65.3988 29.4381 65.9064C29.8605 66.052 30.2965 66.1545 30.7237 66.2723C30.9335 66.3307 31.1461 66.3882 31.3549 66.4437C31.5608 66.5012 31.7715 66.5386 31.9773 66.5864C32.3881 66.6755 32.7862 66.7617 33.162 66.845C33.5417 66.9082 33.9019 66.9686 34.234 67.0251C34.4001 67.0529 34.5574 67.0816 34.7079 67.1065C34.8613 67.1352 35.006 67.1458 35.1409 67.1649C35.4138 67.1975 35.6507 67.2243 35.8469 67.2492C36.2353 67.2971 36.4586 67.3239 36.4586 67.3239L36.4946 66.9963C36.4946 66.9963 36.2722 66.9705 35.8867 66.9236Z" fill="#F9F5E9"/>
<path fill-rule="evenodd" clip-rule="evenodd" d="M32.0605 66.6037C32.0605 66.6037 36.7516 67.7836 37.8061 72.0455L37.6741 67.0241L32.3732 66.3374L32.0605 66.6037Z" fill="#F9F5E9"/>
</g>
</g>
</svg>
