<svg width="50" height="53" viewBox="0 0 50 53" fill="none" xmlns="http://www.w3.org/2000/svg">
<g id="Frame" clip-path="url(#clip0_207_180)">
<g id="Group">
<path id="Vector" d="M24.6755 42.925L24.6755 42.925C23.8342 43.0977 23.2547 42.0586 23.878 41.4355C23.878 41.4355 23.878 41.4355 23.878 41.4355M24.6755 42.925L23.984 41.5416L23.878 41.4355M24.6755 42.925L24.6765 42.9248C25.1094 42.8331 25.3843 42.4613 25.3843 42.0601C25.3843 41.2744 24.4301 40.8832 23.878 41.4355M24.6755 42.925L23.878 41.4355M42.631 49.5596L42.631 49.5598C42.778 50.5969 42.5755 51.4983 42.0346 52.1423C41.4928 52.7874 40.6319 53.1501 39.5127 53.1501H31.4089C30.9214 53.1501 30.5263 52.755 30.5263 52.2674C30.5263 51.7799 30.9214 51.3848 31.4089 51.3848H34.2104V43.5251C34.2104 43.5251 34.2104 43.5251 34.2104 43.5251C34.2104 43.4091 34.2332 43.2944 34.2776 43.1873C34.3219 43.0802 34.3869 42.9829 34.4689 42.9009C34.5509 42.819 34.6482 42.7539 34.7553 42.7096C34.8623 42.6652 34.9771 42.6424 35.093 42.6424L42.631 49.5596ZM42.631 49.5596C42.6287 49.5435 42.626 49.5275 42.6229 49.5116L42.6228 49.511M42.631 49.5596L42.6228 49.511M42.6228 49.511L41.8288 45.5235M42.6228 49.511L41.5723 45.2887M27.9251 43.6193H31.4741C31.7082 43.6193 31.9327 43.7123 32.0982 43.8778C32.2637 44.0433 32.3567 44.2678 32.3567 44.5019L27.9251 43.6193ZM27.9251 43.6193C27.9251 43.6193 27.9251 43.6193 27.9251 43.6193M27.9251 43.6193H27.9251M41.5723 45.2887L41.697 45.2054C41.7614 45.3017 41.8062 45.4098 41.8288 45.5235M41.5723 45.2887C41.6258 45.3687 41.6629 45.4584 41.6817 45.5528M41.5723 45.2887L41.6817 45.5528M41.5723 45.2887L41.697 45.2054C41.6326 45.109 41.5498 45.0263 41.4534 44.9619C41.3571 44.8975 41.2489 44.8527 41.1352 44.8302C41.0216 44.8076 40.9046 44.8076 40.7909 44.8303C40.7909 44.8303 40.7909 44.8303 40.7909 44.8303L40.8202 44.9774M41.5723 45.2887L35.0931 42.6424C35.209 42.6424 35.3237 42.6652 35.4308 42.7096C35.5379 42.7539 35.6352 42.819 35.7172 42.9009C35.7991 42.9829 35.8641 43.0802 35.9085 43.1873C35.9528 43.2944 35.9757 43.4091 35.9756 43.5251C35.9756 43.5251 35.9756 43.5251 35.9756 43.5251V51.3848H39.5126C40.0711 51.3848 40.4409 51.2639 40.6563 51.0319C40.8691 50.8026 40.9659 50.4267 40.8864 49.8297L40.0977 45.8682L40.0977 45.8682L40.2448 45.8389C40.226 45.7446 40.2259 45.6474 40.2447 45.5531C40.2634 45.4587 40.3006 45.369 40.354 45.289C40.4074 45.209 40.4761 45.1403 40.5561 45.0868C40.6361 45.0333 40.7258 44.9962 40.8202 44.9774M41.5723 45.2887C41.5188 45.2087 41.4501 45.14 41.3701 45.0866C41.2901 45.0332 41.2004 44.996 41.106 44.9773C41.0117 44.9586 40.9145 44.9586 40.8202 44.9774M41.5723 45.2887L40.8202 44.9774M41.8288 45.5235L41.6817 45.5528M41.8288 45.5235L41.8288 45.5235L41.6817 45.5528M27.9251 43.6193C27.8092 43.6193 27.6944 43.6421 27.5873 43.6864M27.9251 43.6193L27.5873 43.6864M27.5873 43.6864C27.4802 43.7308 27.3829 43.7958 27.3009 43.8778M27.5873 43.6864L27.3009 43.8778M27.3009 43.8778C27.219 43.9597 27.154 44.057 27.1096 44.1641M27.3009 43.8778L27.1096 44.1641M27.1096 44.1641C27.0653 44.2712 27.0424 44.386 27.0424 44.5019L27.1096 44.1641ZM24.6768 43.6366L24.6768 43.6366L24.6741 43.636C24.3971 43.5819 24.1577 43.6449 23.9769 43.7828C23.7992 43.9184 23.6871 44.1194 23.6452 44.3294C23.6034 44.5394 23.6299 44.7681 23.7419 44.9619C23.8557 45.1587 24.0521 45.3096 24.3284 45.367C24.6208 45.4283 24.9323 45.3246 25.1263 45.1253C25.6121 44.6386 25.3839 43.7879 24.6768 43.6366ZM24.1308 48.6948C23.9413 48.7237 23.7746 48.8314 23.6871 49.0488L25.2353 49.8772L25.2368 49.8749C25.3738 49.6663 25.4111 49.4245 25.3665 49.2118L25.2197 49.2425L25.3671 49.2149C25.3619 49.1868 25.3499 49.1671 25.3453 49.1598C25.3393 49.1503 25.3333 49.1429 25.3293 49.1382C25.3211 49.1287 25.3125 49.1205 25.3058 49.1146C25.292 49.1021 25.2751 49.0888 25.2571 49.0755C25.2205 49.0485 25.1709 49.0154 25.1125 48.9803C24.9959 48.9103 24.8372 48.828 24.6679 48.7684C24.5016 48.71 24.3088 48.6677 24.1308 48.6948ZM25.2349 46.4534C24.8042 45.8 23.7812 46.0055 23.6367 46.7715C23.4787 47.535 24.3409 48.1149 24.9914 47.6776C25.402 47.4057 25.5035 46.8478 25.2349 46.4534ZM27.9251 45.3845H31.4741L27.0424 44.5019C27.0424 44.6178 27.0653 44.7326 27.1096 44.8397C27.154 44.9468 27.219 45.0441 27.3009 45.126C27.3829 45.208 27.4802 45.273 27.5873 45.3174C27.6944 45.3617 27.8092 45.3845 27.9251 45.3845C27.9251 45.3845 27.9251 45.3845 27.9251 45.3845ZM31.4741 45.3845C31.59 45.3845 31.7048 45.3617 31.8119 45.3174C31.9189 45.273 32.0163 45.208 32.0982 45.126C32.1802 45.0441 32.2452 44.9468 32.2895 44.8397L32.151 44.7823L32.2895 44.8397C32.3339 44.7326 32.3567 44.6178 32.3567 44.5019L31.4741 45.3845Z" fill="white" stroke="white" stroke-width="0.3"/>
<g id="Vector_2">
<mask id="path-2-outside-1_207_180" maskUnits="userSpaceOnUse" x="5.47241" y="2" width="36" height="52" fill="black">
<rect fill="white" x="5.47241" y="2" width="36" height="52"/>
<path d="M41.0129 42.1957C40.3746 39.0041 40.351 36.4509 37.3762 35.2113C36.9727 35.0468 37.0302 35.0986 36.5907 34.9564L31.1186 33.0557L29.2892 31.8016V30.3858C32.0284 28.7122 33.6619 26.0388 33.9689 23.1159C36.2063 23.2195 37.7493 21.0827 36.8174 19.2227V13.2505C36.8174 8.93152 34.4685 7.42878 33.7508 7.07078C31.3479 4.20232 27.7249 2.90203 23.9995 3.00574C23.9562 3.0197 17.0568 2.88494 13.4559 9.44236C13.3648 9.61245 13.3445 9.81161 13.3994 9.99658C13.4543 10.1816 13.5799 10.3374 13.749 10.4303C13.9181 10.5232 14.1171 10.5456 14.3026 10.4927C14.4882 10.4398 14.6454 10.3158 14.7401 10.1477C15.2229 9.26892 15.7286 8.61082 16.3468 7.93816C20.9104 3.0365 28.9888 3.52312 32.7235 8.1279C32.8056 8.22926 32.9134 8.30684 33.0356 8.35261C33.0587 8.3613 35.3522 9.26599 35.3522 13.2506V17.8737C34.9208 17.6919 34.4535 17.6139 34.0251 17.6267V15.8666C34.0251 12.7263 31.2248 10.3306 27.9001 11.328C23.864 12.5389 22.6413 16.6679 17.2568 14.8389C16.9655 14.7403 16.6549 14.7123 16.3507 14.7573C16.0465 14.8023 15.7574 14.9191 15.5071 15.0978C14.4048 15.8877 14.7698 17.1342 14.7014 17.6268C14.2709 17.6139 13.8076 17.6909 13.3743 17.8738V15.4539C13.3743 14.2928 13.5521 13.5017 13.6202 13.1378C13.6532 12.9488 13.6107 12.7544 13.502 12.5964C13.3932 12.4384 13.2269 12.3294 13.0386 12.2927C12.8503 12.256 12.6551 12.2946 12.495 12.4002C12.3349 12.5058 12.2226 12.67 12.1821 12.8575C11.7346 15.0856 11.9838 15.8099 11.9092 19.2231C11.7339 19.5731 11.6353 19.9624 11.6353 20.3727C11.6353 21.9429 13.063 23.1946 14.7577 23.1163C15.0835 26.2297 16.945 29.0195 19.711 30.544V31.8051L17.8833 33.0654L12.4125 34.9568C12.0812 35.0746 10.7451 35.3452 9.67668 36.6406C9.18283 37.2397 8.83439 37.9681 8.66193 38.8205C6.58635 49.6392 6.37961 49.473 6.49924 50.5811C6.57756 51.3084 7.02561 53 9.49055 53H27.9898C28.086 53 28.1812 52.981 28.2701 52.9442C28.359 52.9074 28.4398 52.8535 28.5078 52.7854C28.5759 52.7174 28.6298 52.6366 28.6666 52.5477C28.7035 52.4588 28.7224 52.3636 28.7224 52.2674C28.7224 52.1711 28.7035 52.0759 28.6666 51.987C28.6298 51.8981 28.5759 51.8173 28.5078 51.7493C28.4398 51.6813 28.359 51.6273 28.2701 51.5905C28.1812 51.5537 28.086 51.5347 27.9898 51.5347H14.6428V43.525C14.6428 43.1203 14.3148 42.7924 13.9102 42.7924C13.5056 42.7924 13.1776 43.1203 13.1776 43.525V51.5347H9.49055C8.36779 51.5347 7.79963 51.0637 7.96867 49.805C10.2444 38.38 10.1143 38.9451 10.2444 38.5764C10.4891 37.883 10.9283 37.3257 11.5301 36.9212C12.3219 36.3863 12.2602 36.6461 17.7891 34.6477L19.4173 38.8546C19.6438 39.4394 20.1986 39.7968 20.7944 39.7968C21.5508 39.7968 21.8406 39.305 23.219 38.3914L23.4746 38.9707C23.8672 39.8604 25.1349 39.8621 25.5283 38.9707L25.784 38.3914C27.1221 39.2754 27.4203 39.7759 28.191 39.7759C28.7933 39.7759 29.3677 39.417 29.6027 38.8093L31.2138 34.6399C36.009 36.3051 36.8094 36.5626 36.8993 36.5904C36.882 36.5855 36.852 36.5784 36.8984 36.601C37.3894 36.83 37.6679 37.0612 37.658 37.0539C38.9735 38.1148 38.8588 39.0007 39.5761 42.482C39.6092 42.6481 39.6988 42.7976 39.8296 42.905C39.9605 43.0125 40.1245 43.0714 40.2939 43.0716C40.7578 43.0715 41.1029 42.6475 41.0129 42.1957ZM34.0252 19.0944C34.9412 19.0455 35.6263 19.6795 35.6263 20.3724C35.6263 21.1341 34.8627 21.6963 34.0252 21.6519V19.0944ZM14.7016 21.6519C13.8587 21.6965 13.1005 21.1292 13.1005 20.3724C13.1005 19.6651 13.8033 19.0463 14.7016 19.0944V21.6519ZM16.9568 25.5863C15.8609 23.2795 16.2337 21.7126 16.1667 18.5005V16.6662C16.1667 16.3429 16.4845 16.1236 16.7857 16.226C22.9192 18.3095 24.8105 13.7844 28.3213 12.7311C30.5824 12.0531 32.5602 13.5501 32.5602 15.8664C32.5602 15.8805 32.5733 22.1162 32.5255 22.8254C32.2277 26.126 29.9675 28.0836 30.3392 27.6843C30.1955 27.7844 28.3763 30.1532 24.4124 30.2698C20.982 30.2454 18.1925 28.2542 16.9568 25.5863ZM20.7933 38.3309L20.7837 38.3255L19.1093 33.9992L20.2207 33.233L22.5471 37.0698L20.7933 38.3309ZM24.8171 36.9538C24.8149 36.9586 24.8117 36.9649 24.808 36.9734L24.5014 37.6683C24.0348 36.6124 24.7722 37.9153 21.1761 31.9787V31.1967C24.2273 32.2604 26.7704 31.4167 26.8719 31.4064L26.8829 31.4032L26.883 31.4034C27.0925 31.3368 27.2853 31.304 27.8241 31.0964V31.983C24.6696 37.1927 24.8478 36.8896 24.8171 36.9538ZM28.168 38.3013L26.4556 37.0698L28.7817 33.2302L29.8932 33.9922C28.1501 38.5028 28.2375 38.3513 28.168 38.3013Z"/>
</mask>
<path d="M41.0129 42.1957C40.3746 39.0041 40.351 36.4509 37.3762 35.2113C36.9727 35.0468 37.0302 35.0986 36.5907 34.9564L31.1186 33.0557L29.2892 31.8016V30.3858C32.0284 28.7122 33.6619 26.0388 33.9689 23.1159C36.2063 23.2195 37.7493 21.0827 36.8174 19.2227V13.2505C36.8174 8.93152 34.4685 7.42878 33.7508 7.07078C31.3479 4.20232 27.7249 2.90203 23.9995 3.00574C23.9562 3.0197 17.0568 2.88494 13.4559 9.44236C13.3648 9.61245 13.3445 9.81161 13.3994 9.99658C13.4543 10.1816 13.5799 10.3374 13.749 10.4303C13.9181 10.5232 14.1171 10.5456 14.3026 10.4927C14.4882 10.4398 14.6454 10.3158 14.7401 10.1477C15.2229 9.26892 15.7286 8.61082 16.3468 7.93816C20.9104 3.0365 28.9888 3.52312 32.7235 8.1279C32.8056 8.22926 32.9134 8.30684 33.0356 8.35261C33.0587 8.3613 35.3522 9.26599 35.3522 13.2506V17.8737C34.9208 17.6919 34.4535 17.6139 34.0251 17.6267V15.8666C34.0251 12.7263 31.2248 10.3306 27.9001 11.328C23.864 12.5389 22.6413 16.6679 17.2568 14.8389C16.9655 14.7403 16.6549 14.7123 16.3507 14.7573C16.0465 14.8023 15.7574 14.9191 15.5071 15.0978C14.4048 15.8877 14.7698 17.1342 14.7014 17.6268C14.2709 17.6139 13.8076 17.6909 13.3743 17.8738V15.4539C13.3743 14.2928 13.5521 13.5017 13.6202 13.1378C13.6532 12.9488 13.6107 12.7544 13.502 12.5964C13.3932 12.4384 13.2269 12.3294 13.0386 12.2927C12.8503 12.256 12.6551 12.2946 12.495 12.4002C12.3349 12.5058 12.2226 12.67 12.1821 12.8575C11.7346 15.0856 11.9838 15.8099 11.9092 19.2231C11.7339 19.5731 11.6353 19.9624 11.6353 20.3727C11.6353 21.9429 13.063 23.1946 14.7577 23.1163C15.0835 26.2297 16.945 29.0195 19.711 30.544V31.8051L17.8833 33.0654L12.4125 34.9568C12.0812 35.0746 10.7451 35.3452 9.67668 36.6406C9.18283 37.2397 8.83439 37.9681 8.66193 38.8205C6.58635 49.6392 6.37961 49.473 6.49924 50.5811C6.57756 51.3084 7.02561 53 9.49055 53H27.9898C28.086 53 28.1812 52.981 28.2701 52.9442C28.359 52.9074 28.4398 52.8535 28.5078 52.7854C28.5759 52.7174 28.6298 52.6366 28.6666 52.5477C28.7035 52.4588 28.7224 52.3636 28.7224 52.2674C28.7224 52.1711 28.7035 52.0759 28.6666 51.987C28.6298 51.8981 28.5759 51.8173 28.5078 51.7493C28.4398 51.6813 28.359 51.6273 28.2701 51.5905C28.1812 51.5537 28.086 51.5347 27.9898 51.5347H14.6428V43.525C14.6428 43.1203 14.3148 42.7924 13.9102 42.7924C13.5056 42.7924 13.1776 43.1203 13.1776 43.525V51.5347H9.49055C8.36779 51.5347 7.79963 51.0637 7.96867 49.805C10.2444 38.38 10.1143 38.9451 10.2444 38.5764C10.4891 37.883 10.9283 37.3257 11.5301 36.9212C12.3219 36.3863 12.2602 36.6461 17.7891 34.6477L19.4173 38.8546C19.6438 39.4394 20.1986 39.7968 20.7944 39.7968C21.5508 39.7968 21.8406 39.305 23.219 38.3914L23.4746 38.9707C23.8672 39.8604 25.1349 39.8621 25.5283 38.9707L25.784 38.3914C27.1221 39.2754 27.4203 39.7759 28.191 39.7759C28.7933 39.7759 29.3677 39.417 29.6027 38.8093L31.2138 34.6399C36.009 36.3051 36.8094 36.5626 36.8993 36.5904C36.882 36.5855 36.852 36.5784 36.8984 36.601C37.3894 36.83 37.6679 37.0612 37.658 37.0539C38.9735 38.1148 38.8588 39.0007 39.5761 42.482C39.6092 42.6481 39.6988 42.7976 39.8296 42.905C39.9605 43.0125 40.1245 43.0714 40.2939 43.0716C40.7578 43.0715 41.1029 42.6475 41.0129 42.1957ZM34.0252 19.0944C34.9412 19.0455 35.6263 19.6795 35.6263 20.3724C35.6263 21.1341 34.8627 21.6963 34.0252 21.6519V19.0944ZM14.7016 21.6519C13.8587 21.6965 13.1005 21.1292 13.1005 20.3724C13.1005 19.6651 13.8033 19.0463 14.7016 19.0944V21.6519ZM16.9568 25.5863C15.8609 23.2795 16.2337 21.7126 16.1667 18.5005V16.6662C16.1667 16.3429 16.4845 16.1236 16.7857 16.226C22.9192 18.3095 24.8105 13.7844 28.3213 12.7311C30.5824 12.0531 32.5602 13.5501 32.5602 15.8664C32.5602 15.8805 32.5733 22.1162 32.5255 22.8254C32.2277 26.126 29.9675 28.0836 30.3392 27.6843C30.1955 27.7844 28.3763 30.1532 24.4124 30.2698C20.982 30.2454 18.1925 28.2542 16.9568 25.5863ZM20.7933 38.3309L20.7837 38.3255L19.1093 33.9992L20.2207 33.233L22.5471 37.0698L20.7933 38.3309ZM24.8171 36.9538C24.8149 36.9586 24.8117 36.9649 24.808 36.9734L24.5014 37.6683C24.0348 36.6124 24.7722 37.9153 21.1761 31.9787V31.1967C24.2273 32.2604 26.7704 31.4167 26.8719 31.4064L26.8829 31.4032L26.883 31.4034C27.0925 31.3368 27.2853 31.304 27.8241 31.0964V31.983C24.6696 37.1927 24.8478 36.8896 24.8171 36.9538ZM28.168 38.3013L26.4556 37.0698L28.7817 33.2302L29.8932 33.9922C28.1501 38.5028 28.2375 38.3513 28.168 38.3013Z" fill="white"/>
<path d="M41.0129 42.1957C40.3746 39.0041 40.351 36.4509 37.3762 35.2113C36.9727 35.0468 37.0302 35.0986 36.5907 34.9564L31.1186 33.0557L29.2892 31.8016V30.3858C32.0284 28.7122 33.6619 26.0388 33.9689 23.1159C36.2063 23.2195 37.7493 21.0827 36.8174 19.2227V13.2505C36.8174 8.93152 34.4685 7.42878 33.7508 7.07078C31.3479 4.20232 27.7249 2.90203 23.9995 3.00574C23.9562 3.0197 17.0568 2.88494 13.4559 9.44236C13.3648 9.61245 13.3445 9.81161 13.3994 9.99658C13.4543 10.1816 13.5799 10.3374 13.749 10.4303C13.9181 10.5232 14.1171 10.5456 14.3026 10.4927C14.4882 10.4398 14.6454 10.3158 14.7401 10.1477C15.2229 9.26892 15.7286 8.61082 16.3468 7.93816C20.9104 3.0365 28.9888 3.52312 32.7235 8.1279C32.8056 8.22926 32.9134 8.30684 33.0356 8.35261C33.0587 8.3613 35.3522 9.26599 35.3522 13.2506V17.8737C34.9208 17.6919 34.4535 17.6139 34.0251 17.6267V15.8666C34.0251 12.7263 31.2248 10.3306 27.9001 11.328C23.864 12.5389 22.6413 16.6679 17.2568 14.8389C16.9655 14.7403 16.6549 14.7123 16.3507 14.7573C16.0465 14.8023 15.7574 14.9191 15.5071 15.0978C14.4048 15.8877 14.7698 17.1342 14.7014 17.6268C14.2709 17.6139 13.8076 17.6909 13.3743 17.8738V15.4539C13.3743 14.2928 13.5521 13.5017 13.6202 13.1378C13.6532 12.9488 13.6107 12.7544 13.502 12.5964C13.3932 12.4384 13.2269 12.3294 13.0386 12.2927C12.8503 12.256 12.6551 12.2946 12.495 12.4002C12.3349 12.5058 12.2226 12.67 12.1821 12.8575C11.7346 15.0856 11.9838 15.8099 11.9092 19.2231C11.7339 19.5731 11.6353 19.9624 11.6353 20.3727C11.6353 21.9429 13.063 23.1946 14.7577 23.1163C15.0835 26.2297 16.945 29.0195 19.711 30.544V31.8051L17.8833 33.0654L12.4125 34.9568C12.0812 35.0746 10.7451 35.3452 9.67668 36.6406C9.18283 37.2397 8.83439 37.9681 8.66193 38.8205C6.58635 49.6392 6.37961 49.473 6.49924 50.5811C6.57756 51.3084 7.02561 53 9.49055 53H27.9898C28.086 53 28.1812 52.981 28.2701 52.9442C28.359 52.9074 28.4398 52.8535 28.5078 52.7854C28.5759 52.7174 28.6298 52.6366 28.6666 52.5477C28.7035 52.4588 28.7224 52.3636 28.7224 52.2674C28.7224 52.1711 28.7035 52.0759 28.6666 51.987C28.6298 51.8981 28.5759 51.8173 28.5078 51.7493C28.4398 51.6813 28.359 51.6273 28.2701 51.5905C28.1812 51.5537 28.086 51.5347 27.9898 51.5347H14.6428V43.525C14.6428 43.1203 14.3148 42.7924 13.9102 42.7924C13.5056 42.7924 13.1776 43.1203 13.1776 43.525V51.5347H9.49055C8.36779 51.5347 7.79963 51.0637 7.96867 49.805C10.2444 38.38 10.1143 38.9451 10.2444 38.5764C10.4891 37.883 10.9283 37.3257 11.5301 36.9212C12.3219 36.3863 12.2602 36.6461 17.7891 34.6477L19.4173 38.8546C19.6438 39.4394 20.1986 39.7968 20.7944 39.7968C21.5508 39.7968 21.8406 39.305 23.219 38.3914L23.4746 38.9707C23.8672 39.8604 25.1349 39.8621 25.5283 38.9707L25.784 38.3914C27.1221 39.2754 27.4203 39.7759 28.191 39.7759C28.7933 39.7759 29.3677 39.417 29.6027 38.8093L31.2138 34.6399C36.009 36.3051 36.8094 36.5626 36.8993 36.5904C36.882 36.5855 36.852 36.5784 36.8984 36.601C37.3894 36.83 37.6679 37.0612 37.658 37.0539C38.9735 38.1148 38.8588 39.0007 39.5761 42.482C39.6092 42.6481 39.6988 42.7976 39.8296 42.905C39.9605 43.0125 40.1245 43.0714 40.2939 43.0716C40.7578 43.0715 41.1029 42.6475 41.0129 42.1957ZM34.0252 19.0944C34.9412 19.0455 35.6263 19.6795 35.6263 20.3724C35.6263 21.1341 34.8627 21.6963 34.0252 21.6519V19.0944ZM14.7016 21.6519C13.8587 21.6965 13.1005 21.1292 13.1005 20.3724C13.1005 19.6651 13.8033 19.0463 14.7016 19.0944V21.6519ZM16.9568 25.5863C15.8609 23.2795 16.2337 21.7126 16.1667 18.5005V16.6662C16.1667 16.3429 16.4845 16.1236 16.7857 16.226C22.9192 18.3095 24.8105 13.7844 28.3213 12.7311C30.5824 12.0531 32.5602 13.5501 32.5602 15.8664C32.5602 15.8805 32.5733 22.1162 32.5255 22.8254C32.2277 26.126 29.9675 28.0836 30.3392 27.6843C30.1955 27.7844 28.3763 30.1532 24.4124 30.2698C20.982 30.2454 18.1925 28.2542 16.9568 25.5863ZM20.7933 38.3309L20.7837 38.3255L19.1093 33.9992L20.2207 33.233L22.5471 37.0698L20.7933 38.3309ZM24.8171 36.9538C24.8149 36.9586 24.8117 36.9649 24.808 36.9734L24.5014 37.6683C24.0348 36.6124 24.7722 37.9153 21.1761 31.9787V31.1967C24.2273 32.2604 26.7704 31.4167 26.8719 31.4064L26.8829 31.4032L26.883 31.4034C27.0925 31.3368 27.2853 31.304 27.8241 31.0964V31.983C24.6696 37.1927 24.8478 36.8896 24.8171 36.9538ZM28.168 38.3013L26.4556 37.0698L28.7817 33.2302L29.8932 33.9922C28.1501 38.5028 28.2375 38.3513 28.168 38.3013Z" stroke="white" stroke-width="0.6" mask="url(#path-2-outside-1_207_180)"/>
</g>
</g>
</g>
<defs>
<clipPath id="clip0_207_180">
<rect width="50" height="53" fill="white"/>
</clipPath>
</defs>
</svg>
