<svg width="65" height="65" viewBox="0 0 65 65" fill="none" xmlns="http://www.w3.org/2000/svg">
<g id="Frame">
<g id="Group">
<path id="Vector" d="M42.8121 15.1431L39.7507 13.9699C39.3358 13.811 38.8904 14.1172 38.8904 14.5615V48.9455H42.8121V15.1431ZM42.8121 15.1431H52.8856C53.9165 15.143 54.9259 15.4373 55.7952 15.9913C56.6645 16.5453 57.3575 17.336 57.7929 18.2704L62.6435 28.6808C62.9425 29.3226 63.0975 30.0221 63.0975 30.7301V42.2674M59.8975 48.9455H53.9181M51.3588 44.4648H59.8975" stroke="white" stroke-width="1.9043" stroke-miterlimit="10" stroke-linecap="round" stroke-linejoin="round"/>
<path id="Vector_2" d="M0.952148 10.8534H33.1132C33.8129 10.8534 34.3803 11.4207 34.3803 12.1205V39.8257M5.32264 48.9456H0.952148M38.8904 48.9456H26.9016M38.7639 39.9847H14.4917M10.0445 39.9847H0.952148M21.2862 54.145C18.4209 54.0651 16.1218 51.719 16.1218 48.8333C16.1218 45.8994 18.5009 43.5203 21.4348 43.5203C24.3687 43.5203 26.7478 45.8994 26.7478 48.8333C26.7478 50.2057 26.2272 51.4562 25.3741 52.3994M63.7945 50.126H60.2763C60.2091 50.126 60.1447 50.0993 60.0971 50.0517C60.0496 50.0042 60.0229 49.9398 60.0229 49.8726V42.736C60.0229 42.5961 60.1364 42.4826 60.2763 42.4826H63.7945C63.9344 42.4826 64.0479 42.5961 64.0479 42.736V49.8726C64.0479 49.9398 64.0212 50.0042 63.9736 50.0517C63.9261 50.0993 63.8617 50.126 63.7945 50.126Z" stroke="white" stroke-width="1.9043" stroke-miterlimit="10" stroke-linecap="round" stroke-linejoin="round"/>
<path id="Vector_3" d="M21.4348 50.5442C22.3795 50.5442 23.1453 49.7783 23.1453 48.8336C23.1453 47.8889 22.3795 47.123 21.4348 47.123C20.49 47.123 19.7242 47.8889 19.7242 48.8336C19.7242 49.7783 20.49 50.5442 21.4348 50.5442Z" stroke="white" stroke-width="1.9043" stroke-miterlimit="10" stroke-linecap="round" stroke-linejoin="round"/>
<path id="Vector_4" d="M10.8088 54.1466C13.7431 54.1466 16.1218 51.7679 16.1218 48.8336C16.1218 45.8993 13.7431 43.5206 10.8088 43.5206C7.87449 43.5206 5.49578 45.8993 5.49578 48.8336C5.49578 51.7679 7.87449 54.1466 10.8088 54.1466Z" stroke="white" stroke-width="1.9043" stroke-miterlimit="10" stroke-linecap="round" stroke-linejoin="round"/>
<path id="Vector_5" d="M10.8086 50.5442C11.7534 50.5442 12.5192 49.7783 12.5192 48.8336C12.5192 47.8889 11.7534 47.123 10.8086 47.123C9.86392 47.123 9.09808 47.8889 9.09808 48.8336C9.09808 49.7783 9.86392 50.5442 10.8086 50.5442Z" stroke="white" stroke-width="1.9043" stroke-miterlimit="10" stroke-linecap="round" stroke-linejoin="round"/>
<path id="Vector_6" d="M26.2337 18.6629V15.305C26.2337 14.9559 26.518 14.6715 26.8672 14.6715H29.6563C30.0067 14.6715 30.2898 14.9559 30.2898 15.305V35.3738C30.2898 35.7241 30.0067 36.0073 29.6563 36.0073H26.8672C26.518 36.0073 26.2337 35.7241 26.2337 35.3738V23.1088M19.01 14.6716H21.7989C21.8822 14.6716 21.9646 14.688 22.0414 14.7198C22.1183 14.7517 22.1882 14.7983 22.247 14.8572C22.3059 14.916 22.3525 14.9859 22.3844 15.0628C22.4162 15.1396 22.4326 15.222 22.4326 15.3053V35.3738C22.4326 35.457 22.4162 35.5394 22.3844 35.6163C22.3525 35.6931 22.3059 35.763 22.247 35.8218C22.1882 35.8807 22.1183 35.9273 22.0414 35.9592C21.9646 35.991 21.8822 36.0074 21.7989 36.0074H19.01C18.9268 36.0074 18.8444 35.991 18.7675 35.9592C18.6907 35.9273 18.6208 35.8807 18.562 35.8218C18.5031 35.763 18.4564 35.6931 18.4246 35.6163C18.3928 35.5394 18.3764 35.457 18.3764 35.3738V15.3053C18.3764 15.1372 18.4432 14.9761 18.562 14.8573C18.6809 14.7384 18.842 14.6717 19.01 14.6716ZM11.1527 14.6716H13.9416C14.0248 14.6716 14.1072 14.688 14.1841 14.7198C14.2609 14.7517 14.3308 14.7983 14.3896 14.8572C14.4485 14.916 14.4951 14.9859 14.527 15.0628C14.5588 15.1396 14.5752 15.222 14.5752 15.3053V35.3738C14.5752 35.457 14.5588 35.5394 14.527 35.6163C14.4951 35.6931 14.4485 35.763 14.3896 35.8218C14.3308 35.8807 14.2609 35.9273 14.1841 35.9592C14.1072 35.991 14.0248 36.0074 13.9416 36.0074H11.1527C11.0694 36.0074 10.987 35.991 10.9102 35.9592C10.8333 35.9273 10.7634 35.8807 10.7046 35.8218C10.6457 35.763 10.5991 35.6931 10.5672 35.6163C10.5354 35.5394 10.519 35.457 10.519 35.3738V15.3053C10.5191 15.1372 10.5858 14.9761 10.7046 14.8573C10.8235 14.7384 10.9846 14.6717 11.1527 14.6716ZM3.29527 14.6716H6.08418C6.16739 14.6716 6.24979 14.688 6.32667 14.7198C6.40355 14.7517 6.47341 14.7983 6.53225 14.8572C6.59109 14.916 6.63776 14.9859 6.6696 15.0628C6.70144 15.1396 6.71782 15.222 6.7178 15.3053V35.3738C6.71782 35.457 6.70144 35.5394 6.6696 35.6163C6.63776 35.6931 6.59109 35.763 6.53225 35.8218C6.47341 35.8807 6.40355 35.9273 6.32667 35.9592C6.24979 35.991 6.16739 36.0074 6.08418 36.0074H3.29527C3.21206 36.0074 3.12965 35.991 3.05277 35.9592C2.97589 35.9273 2.90603 35.8807 2.84719 35.8218C2.78835 35.763 2.74168 35.6931 2.70984 35.6163C2.67801 35.5394 2.66163 35.457 2.66165 35.3738V15.3053C2.66168 15.1372 2.72845 14.9761 2.84727 14.8573C2.96609 14.7384 3.12723 14.6717 3.29527 14.6716Z" stroke="white" stroke-width="1.9043" stroke-miterlimit="10" stroke-linecap="round" stroke-linejoin="round"/>
<path id="Vector_7" d="M48.1252 54.1466C51.0595 54.1466 53.4382 51.7679 53.4382 48.8336C53.4382 45.8993 51.0595 43.5206 48.1252 43.5206C45.1909 43.5206 42.8122 45.8993 42.8122 48.8336C42.8122 51.7679 45.1909 54.1466 48.1252 54.1466Z" stroke="white" stroke-width="1.9043" stroke-miterlimit="10" stroke-linecap="round" stroke-linejoin="round"/>
<path id="Vector_8" d="M48.1253 50.5442C49.07 50.5442 49.8358 49.7783 49.8358 48.8336C49.8358 47.8889 49.07 47.123 48.1253 47.123C47.1806 47.123 46.4147 47.8889 46.4147 48.8336C46.4147 49.7783 47.1806 50.5442 48.1253 50.5442Z" stroke="white" stroke-width="1.9043" stroke-miterlimit="10" stroke-linecap="round" stroke-linejoin="round"/>
<path id="Vector_9" d="M58.4142 20.0525H43.0661M53.9183 30.7158V33.0606H62.8266M53.9183 26.2699V23.8489H60.2647M53.9182 36.7847H57.1278M46.4938 23.8485H50.2367V33.0606H46.4938V23.8485Z" stroke="white" stroke-width="1.9043" stroke-miterlimit="10" stroke-linecap="round" stroke-linejoin="round"/>
</g>
</g>
</svg>
