<svg width="70" height="70" viewBox="0 0 70 70" fill="none" xmlns="http://www.w3.org/2000/svg">
<g id="Frame" clip-path="url(#clip0_1_15732)">
<g id="Group">
<path id="Vector" d="M69.701 35.7518C69.5293 35.4798 69.2913 35.2559 69.0094 35.101C68.7275 34.9461 68.4109 34.8653 68.0892 34.8661H59.4213C57.8761 34.8661 56.6188 36.1233 56.6188 37.6685C56.6188 37.6991 56.6163 37.7292 56.6128 37.7588V31.1505C56.6128 30.201 55.8402 29.4284 54.8908 29.4284H47.3861V21.7515C47.3861 21.0202 46.7911 20.4252 46.0597 20.4252H28.2047C27.4734 20.4252 26.8782 21.0202 26.8782 21.7515V38.4166H23.7021V32.3543C24.4473 32.3526 25.0529 31.7461 25.0529 31.0005V28.4913C25.0529 27.7447 24.4455 27.1373 23.6989 27.1373H20.6448V19.5878C20.6448 18.7423 19.957 18.0545 19.1114 18.0545H14.7047V13.0101C14.7047 12.7349 14.5953 12.4708 14.4007 12.2762C14.206 12.0815 13.942 11.9722 13.6667 11.9722C13.3914 11.9722 13.1274 12.0815 12.9327 12.2762C12.7381 12.4708 12.6287 12.7349 12.6287 13.0101V18.0546H8.22202C7.37655 18.0546 6.68872 18.7425 6.68872 19.5879V27.1374H3.63442C2.8878 27.1374 2.28036 27.7449 2.28036 28.4915V31.0007C2.28036 31.7462 2.88602 32.3528 3.63114 32.3545V38.4167H1.77792C1.51311 38.4162 1.25155 38.475 1.0125 38.5889C0.773446 38.7029 0.562997 38.869 0.396647 39.075C0.229774 39.2799 0.11099 39.5196 0.049044 39.7765C-0.0129018 40.0333 -0.0164306 40.3008 0.0387177 40.5592C0.784792 44.0903 2.59153 47.5341 5.2637 50.5182C5.40205 50.6738 5.49499 50.8643 5.53235 51.0691C5.5426 51.1238 5.54848 51.1786 5.55081 51.2331C5.55108 51.2392 5.5519 51.2453 5.55204 51.2513C5.5531 51.3027 5.55072 51.3542 5.54493 51.4053C5.54383 51.415 5.54397 51.4248 5.5426 51.4345C5.53579 51.4817 5.52601 51.5284 5.51335 51.5744C5.51006 51.5867 5.50856 51.5991 5.50487 51.6113C5.48778 51.6685 5.46659 51.7245 5.44047 51.7791L3.7643 55.2882C3.47938 55.8849 3.51971 56.5752 3.87245 57.1345C4.22518 57.6938 4.83044 58.0277 5.49174 58.0277H59.0024C59.739 58.0277 60.4174 57.5969 60.7305 56.9301L69.8174 37.5871C69.9549 37.2964 70.0164 36.9754 69.996 36.6544C69.9757 36.3334 69.8742 36.0229 69.701 35.7518ZM47.3859 31.4826H54.5587V38.4167H47.3859V31.4826ZM38.159 22.4793H45.3319V29.4284H38.159V22.4793ZM38.159 31.4826H45.3319V38.4167H38.159V31.4826ZM28.9323 22.4793H36.1051V29.4284H28.9323V22.4793ZM28.9323 31.4826H36.1051V38.4167H28.9323V31.4826ZM8.74278 20.1087H18.5908V27.1374H8.74278V20.1087ZM4.33456 29.1915H22.9987V30.3005H11.383C11.1106 30.3005 10.8493 30.4088 10.6567 30.6014C10.4641 30.794 10.3559 31.0552 10.3559 31.3276C10.3559 31.6 10.4641 31.8612 10.6567 32.0538C10.8493 32.2464 11.1106 32.3546 11.383 32.3546H21.6481V38.4167H5.68534V32.3546H6.55336C6.82575 32.3546 7.08698 32.2464 7.27959 32.0538C7.47219 31.8612 7.5804 31.6 7.5804 31.3276C7.5804 31.0552 7.47219 30.794 7.27959 30.6014C7.08698 30.4088 6.82575 30.3005 6.55336 30.3005H4.33456V29.1915ZM61.792 49.8404H51.6108C51.4759 49.8404 51.3424 49.867 51.2178 49.9186C51.0932 49.9702 50.9799 50.0458 50.8846 50.1412C50.7892 50.2366 50.7136 50.3498 50.6619 50.4744C50.6103 50.599 50.5838 50.7326 50.5838 50.8674C50.5838 51.0023 50.6103 51.1358 50.6619 51.2605C50.7136 51.3851 50.7892 51.4983 50.8846 51.5936C50.9799 51.689 51.0932 51.7647 51.2178 51.8163C51.3424 51.8679 51.4759 51.8945 51.6108 51.8945H60.827L58.9106 55.9737H5.71337L7.29397 52.6645C7.32665 52.5961 7.35618 52.5269 7.38366 52.4571C7.39227 52.4352 7.39965 52.413 7.40786 52.3912C7.42563 52.343 7.44286 52.2949 7.45817 52.2462C7.46678 52.2192 7.47444 52.192 7.48237 52.1647C7.50387 52.0906 7.52261 52.0157 7.53856 51.9401C7.5417 51.9249 7.54594 51.9098 7.54895 51.8946H46.7811C47.0535 51.8946 47.3147 51.7864 47.5073 51.5938C47.6999 51.4012 47.8081 51.1399 47.8081 50.8676C47.8081 50.5952 47.6999 50.3339 47.5073 50.1413C47.3147 49.9487 47.0535 49.8405 46.7811 49.8405H7.26471C7.13882 49.5901 6.98056 49.3573 6.79399 49.1482C4.41221 46.4883 2.842 43.5707 2.12272 40.4708L55.5856 40.486C55.6435 40.486 55.8153 40.4801 55.8704 40.4708C57.4156 40.4708 58.6727 39.2137 58.6727 37.6685C58.673 37.4701 58.7519 37.2799 58.8922 37.1396C59.0325 36.9993 59.2227 36.9204 59.4211 36.9202H67.8615L61.792 49.8404Z" fill="white"/>
</g>
</g>
<defs>
<clipPath id="clip0_1_15732">
<rect width="70" height="70" fill="white"/>
</clipPath>
</defs>
</svg>
