<svg width="36" height="49" viewBox="0 0 36 49" fill="none" xmlns="http://www.w3.org/2000/svg">
<g id="Frame" clip-path="url(#clip0_207_53)">
<g id="Group">
<g id="Group_2">
<path id="Vector" d="M3.92383 18.1836C3.92383 26.0992 10.3637 32.5391 18.2793 32.5391C26.1949 32.5391 32.6348 26.0992 32.6348 18.1836C32.6348 10.268 26.1949 3.82812 18.2793 3.82812C10.3637 3.82812 3.92383 10.268 3.92383 18.1836ZM18.2793 5.74219C25.1397 5.74219 30.7207 11.3232 30.7207 18.1836C30.7207 25.044 25.1397 30.625 18.2793 30.625C11.4189 30.625 5.83789 25.044 5.83789 18.1836C5.83789 11.3232 11.4189 5.74219 18.2793 5.74219Z" fill="white"/>
<path id="Vector_2" d="M9.41618 16.4774L13.1258 20.1324L12.2723 25.2694C12.2432 25.4448 12.2635 25.6248 12.3309 25.7892C12.3983 25.9537 12.5102 26.0962 12.6541 26.2006C12.7979 26.305 12.9679 26.3673 13.1451 26.3806C13.3223 26.3939 13.4997 26.3576 13.6575 26.2758L18.2792 23.8758L22.9007 26.2758C23.0585 26.3577 23.2358 26.3941 23.413 26.3808C23.5903 26.3675 23.7603 26.3052 23.904 26.2007C24.0479 26.0963 24.1598 25.9538 24.2272 25.7893C24.2946 25.6249 24.3149 25.4449 24.2858 25.2695L23.4323 20.1324L27.1418 16.4774C27.2685 16.3528 27.358 16.1952 27.4001 16.0226C27.4422 15.8499 27.4354 15.6689 27.3804 15.4998C27.3254 15.3308 27.2244 15.1805 27.0888 15.0656C26.9532 14.9507 26.7883 14.8758 26.6125 14.8493L21.4643 14.0744L19.1349 9.41599C19.0555 9.257 18.9333 9.12327 18.7822 9.02981C18.631 8.93635 18.4568 8.88684 18.2791 8.88684C18.1013 8.88684 17.9271 8.93635 17.7759 9.02981C17.6248 9.12327 17.5026 9.257 17.4232 9.41599L15.0938 14.0744L9.94561 14.8493C9.76987 14.8758 9.60498 14.9507 9.46939 15.0656C9.33381 15.1805 9.23289 15.3308 9.17794 15.4999C9.12299 15.6689 9.11618 15.8498 9.15828 16.0225C9.20037 16.1952 9.28961 16.3527 9.41618 16.4774ZM15.8702 15.8931C16.1783 15.8468 16.4444 15.6534 16.5839 15.3749L18.2792 11.984L19.9746 15.375C20.0433 15.5123 20.144 15.631 20.2682 15.7212C20.3924 15.8113 20.5365 15.8703 20.6883 15.8932L24.4353 16.4573L21.735 19.1172C21.6257 19.225 21.544 19.3575 21.4965 19.5035C21.4491 19.6495 21.4375 19.8047 21.4625 19.9562L22.0838 23.6949L18.72 21.9483C18.5837 21.8776 18.4325 21.8407 18.279 21.8407C18.1255 21.8407 17.9743 21.8776 17.8381 21.9483L14.4743 23.6949L15.0956 19.9562C15.1208 19.8047 15.1092 19.6494 15.0618 19.5034C15.0144 19.3574 14.9325 19.2249 14.8231 19.1172L12.1232 16.4573L15.8702 15.8931Z" fill="white"/>
<path id="Vector_3" d="M13.7689 0.564144C5.71826 2.61908 0.0957031 9.86457 0.0957031 18.1836C0.0957031 23.3504 2.26816 28.219 6.08165 31.6669L0.31582 41.8282C0.225073 41.9882 0.18238 42.1711 0.192853 42.3548C0.203325 42.5385 0.26652 42.7152 0.37487 42.8639C0.48322 43.0127 0.632134 43.127 0.803784 43.1933C0.975433 43.2595 1.16254 43.2749 1.34271 43.2376L7.89053 41.8779L10.1919 48.363C10.2532 48.5358 10.3629 48.6873 10.5078 48.7995C10.6528 48.9118 10.8269 48.98 11.0096 48.9961C11.1922 49.0122 11.3756 48.9755 11.5379 48.8904C11.7003 48.8052 11.8348 48.6752 11.9254 48.5158L18.2793 37.3455L24.6327 48.5158C24.7163 48.6627 24.8372 48.7848 24.9832 48.8698C25.1292 48.9548 25.2952 48.9995 25.4641 48.9996C25.4922 48.9996 25.5206 48.9984 25.5486 48.9962C25.7313 48.98 25.9054 48.9117 26.0504 48.7994C26.1954 48.6872 26.3051 48.5357 26.3666 48.363L28.6676 41.8779L35.2154 43.2376C35.5833 43.3139 35.9619 43.1677 36.1832 42.8642C36.2917 42.7155 36.355 42.5386 36.3655 42.3549C36.3759 42.1711 36.3332 41.9882 36.2423 41.8282L30.4767 31.6669C34.2902 28.2189 36.4626 23.3504 36.4626 18.1836C36.4626 9.86448 30.84 2.61908 22.7898 0.564144C22.668 0.53301 22.5413 0.526173 22.4169 0.544023C22.2925 0.561873 22.1728 0.604059 22.0647 0.668173C21.9566 0.732286 21.8622 0.817071 21.7868 0.917682C21.7115 1.01829 21.6567 1.13276 21.6257 1.25455C21.4948 1.76675 21.8039 2.28785 22.3162 2.41868C29.5184 4.25723 34.5488 10.7401 34.5488 18.1836C34.5488 27.2428 27.1913 34.4531 18.2793 34.4531C9.36091 34.4531 2.00977 27.2369 2.00977 18.1836C2.00977 10.7401 7.03983 4.25723 14.2422 2.41868C14.7544 2.28785 15.0635 1.76675 14.9331 1.25455C14.9021 1.13275 14.8473 1.01827 14.7719 0.917655C14.6966 0.817036 14.6022 0.732247 14.4941 0.668132C14.3859 0.604017 14.2663 0.561834 14.1418 0.543991C14.0174 0.526148 13.8907 0.532996 13.7689 0.564144ZM11.2963 45.7513L9.41556 40.4513C9.33823 40.2333 9.18456 40.0507 8.98299 39.9372C8.78141 39.8238 8.54557 39.7872 8.31909 39.8342L3.02441 40.9336L7.58753 32.8916C10.2481 34.8258 13.3984 36.0042 16.6744 36.2958L11.2963 45.7513ZM28.2391 39.8342C28.0126 39.7873 27.7768 39.8239 27.5752 39.9374C27.3737 40.0508 27.22 40.2334 27.1427 40.4514L25.2623 45.7513L19.8838 36.2958C23.1602 36.0042 26.3102 34.8258 28.9712 32.8916L33.5343 40.9335L28.2391 39.8342Z" fill="white"/>
</g>
</g>
</g>
<defs>
<clipPath id="clip0_207_53">
<rect width="36" height="49" fill="white"/>
</clipPath>
</defs>
</svg>
