<svg width="50" height="50" viewBox="0 0 50 50" fill="none" xmlns="http://www.w3.org/2000/svg">
<g id="Frame" clip-path="url(#clip0_207_106)">
<g id="Group">
<path id="Vector" d="M3.71637 29.302V44.5367C3.71637 45.7233 4.6818 46.6888 5.86832 46.6888C7.05504 46.6888 8.02037 45.7233 8.02037 44.5367V29.302C8.02037 28.1153 7.05504 27.1499 5.86832 27.1499C4.6817 27.1499 3.71637 28.1153 3.71637 29.302ZM6.5527 29.302V44.5367C6.5527 44.9141 6.24567 45.221 5.86832 45.221C5.49098 45.221 5.18405 44.9141 5.18405 44.5367V29.302C5.18405 28.9246 5.49098 28.6176 5.86832 28.6176C6.24567 28.6176 6.5527 28.9246 6.5527 29.302ZM12.2456 27.1499C11.0588 27.1499 10.0935 28.1161 10.0935 29.3037V44.535C10.0935 45.7226 11.0589 46.6888 12.2456 46.6888C13.4323 46.6888 14.3976 45.7226 14.3976 44.535V29.3037C14.3977 28.1161 13.4323 27.1499 12.2456 27.1499ZM12.9299 44.535C12.9299 44.9133 12.6229 45.221 12.2456 45.221C11.8682 45.221 11.5612 44.9132 11.5612 44.535V29.3037C11.5612 28.9254 11.8682 28.6176 12.2456 28.6176C12.6229 28.6176 12.9299 28.9254 12.9299 29.3037V44.535ZM16.4709 29.302V44.5367C16.4709 45.7233 17.4362 46.6888 18.6228 46.6888C19.8095 46.6888 20.7749 45.7233 20.7749 44.5367V29.302C20.7749 28.1153 19.8094 27.1499 18.6228 27.1499C17.4362 27.1499 16.4709 28.1153 16.4709 29.302ZM19.3071 29.302V44.5367C19.3071 44.9141 19.0001 45.221 18.6227 45.221C18.2454 45.221 17.9384 44.9141 17.9384 44.5367V29.302C17.9384 28.9246 18.2454 28.6176 18.6227 28.6176C19.0001 28.6176 19.3071 28.9246 19.3071 29.302ZM22.848 29.3037V44.535C22.848 45.7226 23.8133 46.6888 25.0001 46.6888C26.1868 46.6888 27.1521 45.7226 27.1521 44.535V29.3037C27.1521 28.1161 26.1868 27.1499 25.0001 27.1499C23.8133 27.1499 22.848 28.1161 22.848 29.3037ZM25.6844 29.3037V44.535C25.6844 44.9133 25.3774 45.221 25.0001 45.221C24.6227 45.221 24.3157 44.9132 24.3157 44.535V29.3037C24.3157 28.9254 24.6227 28.6176 25.0001 28.6176C25.3774 28.6176 25.6844 28.9254 25.6844 29.3037ZM29.2253 29.302V44.5367C29.2253 45.7233 30.1907 46.6888 31.3773 46.6888C32.5639 46.6888 33.5293 45.7233 33.5293 44.5367V29.302C33.5293 28.1153 32.5639 27.1499 31.3773 27.1499C30.1907 27.1499 29.2253 28.1153 29.2253 29.302ZM32.0616 29.302V44.5367C32.0616 44.9141 31.7547 45.221 31.3773 45.221C31 45.221 30.6929 44.9141 30.6929 44.5367V29.302C30.6929 28.9246 31 28.6176 31.3773 28.6176C31.7547 28.6176 32.0616 28.9246 32.0616 29.302ZM39.9066 44.535V29.3037C39.9066 28.1161 38.9412 27.1499 37.7546 27.1499C36.5678 27.1499 35.6025 28.1161 35.6025 29.3037V44.535C35.6025 45.7226 36.5678 46.6888 37.7546 46.6888C38.9412 46.6888 39.9066 45.7226 39.9066 44.535ZM37.0702 44.535V29.3037C37.0702 28.9254 37.3772 28.6176 37.7546 28.6176C38.1319 28.6176 38.4389 28.9254 38.4389 29.3037V44.535C38.4389 44.9133 38.1319 45.221 37.7546 45.221C37.3772 45.2211 37.0702 44.9133 37.0702 44.535ZM46.2838 44.5367V29.302C46.2838 28.1153 45.3184 27.1499 44.1318 27.1499C42.9451 27.1499 41.9798 28.1153 41.9798 29.302V44.5367C41.9798 45.7233 42.9451 46.6888 44.1318 46.6888C45.3184 46.6888 46.2838 45.7233 46.2838 44.5367ZM43.4474 44.5367V29.302C43.4474 28.9246 43.7545 28.6176 44.1318 28.6176C44.5091 28.6176 44.8161 28.9246 44.8161 29.302V44.5367C44.8159 44.7181 44.7437 44.8921 44.6154 45.0203C44.4871 45.1486 44.3132 45.2208 44.1318 45.221C43.7545 45.2211 43.4474 44.9141 43.4474 44.5367Z" fill="white"/>
<g id="Vector_2">
<mask id="path-2-outside-1_207_106" maskUnits="userSpaceOnUse" x="-1" y="-1" width="52" height="52" fill="black">
<rect fill="white" x="-1" y="-1" width="52" height="52"/>
<path d="M49.2661 20.5113H45.0509V19.5515C45.0509 18.213 43.9628 17.1239 42.6254 17.1239C41.9535 17.1239 41.3448 17.3988 40.9052 17.8421L27.5224 10.963C27.8932 10.4709 28.1112 9.88063 28.1491 9.26562C28.2244 8.05215 27.6169 6.92412 26.5637 6.32178C26.1245 6.07051 25.8287 5.61494 25.7533 5.096H28.0008C29.4853 5.096 30.6928 3.88838 30.6928 2.404V0.733887C30.6928 0.539248 30.6155 0.352581 30.4778 0.21495C30.3402 0.07732 30.1535 0 29.9589 0L20.0409 0C19.8463 0 19.6596 0.07732 19.522 0.21495C19.3844 0.352581 19.307 0.539248 19.307 0.733887V2.404C19.307 3.88838 20.5146 5.096 21.999 5.096H24.2777C24.3614 6.14277 24.9413 7.08467 25.835 7.5958C26.3992 7.91856 26.7246 8.52354 26.6843 9.1748C26.658 9.59824 26.4658 9.98496 26.1745 10.2703L25.3354 9.83897C25.2317 9.78559 25.1167 9.75774 25 9.75774C24.8832 9.75774 24.7682 9.78559 24.6645 9.83897L23.8204 10.2728C23.4932 9.95215 23.3122 9.52549 23.3122 9.06553C23.3122 8.87089 23.2349 8.68422 23.0973 8.54659C22.9596 8.40896 22.773 8.33164 22.5783 8.33164C22.3837 8.33164 22.197 8.40896 22.0594 8.54659C21.9218 8.68422 21.8444 8.87089 21.8444 9.06553C21.8444 9.75166 22.0717 10.4189 22.4787 10.9624L9.09482 17.8422C8.65518 17.3989 8.04639 17.124 7.37461 17.124C6.03721 17.124 4.94912 18.213 4.94912 19.5516V20.5114H0.733887C0.539248 20.5114 0.352581 20.5887 0.21495 20.7264C0.07732 20.864 0 21.0507 0 21.2453L0 49.2662C2.58978e-05 49.4608 0.0773573 49.6475 0.214985 49.7851C0.352613 49.9227 0.539265 50 0.733887 50H34.2631C34.4577 50 34.6444 49.9227 34.782 49.7851C34.9197 49.6474 34.997 49.4608 34.997 49.2661C34.997 49.0715 34.9197 48.8848 34.782 48.7472C34.6444 48.6096 34.4577 48.5322 34.2631 48.5322H1.46768V25.3064H11.1143C11.3089 25.3064 11.4956 25.2291 11.6332 25.0915C11.7708 24.9539 11.8481 24.7672 11.8481 24.5726C11.8481 24.3779 11.7708 24.1913 11.6332 24.0536C11.4956 23.916 11.3089 23.8387 11.1143 23.8387H1.46768V21.9791H31.3276C31.5223 21.9791 31.7089 21.9018 31.8466 21.7642C31.9842 21.6265 32.0615 21.4399 32.0615 21.2452C32.0615 21.0506 31.9842 20.8639 31.8466 20.7263C31.7089 20.5886 31.5223 20.5113 31.3276 20.5113H9.7999V19.5515C9.7999 19.4138 9.78779 19.279 9.76572 19.1476L23.7415 11.9636C24.5362 12.3102 25.4623 12.3086 26.2569 11.9628L40.2343 19.1476C40.2117 19.281 40.2003 19.4161 40.2001 19.5515V20.5113H34.2631C34.0684 20.5113 33.8818 20.5886 33.7442 20.7263C33.6065 20.8639 33.5292 21.0506 33.5292 21.2452C33.5292 21.4399 33.6065 21.6265 33.7442 21.7642C33.8818 21.9018 34.0684 21.9791 34.2631 21.9791H48.5322V23.8387H14.0497C13.8551 23.8387 13.6684 23.916 13.5308 24.0536C13.3931 24.1913 13.3158 24.3779 13.3158 24.5726C13.3158 24.7672 13.3931 24.9539 13.5308 25.0915C13.6684 25.2291 13.8551 25.3064 14.0497 25.3064H48.5323V48.5323H37.1985C37.0039 48.5323 36.8172 48.6096 36.6796 48.7473C36.542 48.8849 36.4646 49.0716 36.4646 49.2662C36.4646 49.4609 36.542 49.6475 36.6796 49.7851C36.8172 49.9228 37.0039 50.0001 37.1985 50.0001H49.2661C49.4608 50.0001 49.6474 49.9228 49.785 49.7851C49.9227 49.6475 50 49.4609 50 49.2662V21.2452C50 21.0506 49.9227 20.8639 49.785 20.7263C49.6474 20.5886 49.4608 20.5113 49.2661 20.5113ZM20.7748 2.40391V1.46768H29.2252V2.40391C29.2252 3.079 28.676 3.62822 28.0009 3.62822H21.9991C21.324 3.62822 20.7748 3.079 20.7748 2.40391ZM6.4168 20.5113V19.5515C6.4168 19.0223 6.84639 18.5917 7.37451 18.5917C7.90254 18.5917 8.33213 19.0223 8.33213 19.5515V20.5113H6.4168ZM41.6678 19.5515C41.6678 19.0223 42.0974 18.5917 42.6254 18.5917C43.1535 18.5917 43.5831 19.0223 43.5831 19.5515V20.5113H41.6678V19.5515Z"/>
</mask>
<path d="M49.2661 20.5113H45.0509V19.5515C45.0509 18.213 43.9628 17.1239 42.6254 17.1239C41.9535 17.1239 41.3448 17.3988 40.9052 17.8421L27.5224 10.963C27.8932 10.4709 28.1112 9.88063 28.1491 9.26562C28.2244 8.05215 27.6169 6.92412 26.5637 6.32178C26.1245 6.07051 25.8287 5.61494 25.7533 5.096H28.0008C29.4853 5.096 30.6928 3.88838 30.6928 2.404V0.733887C30.6928 0.539248 30.6155 0.352581 30.4778 0.21495C30.3402 0.07732 30.1535 0 29.9589 0L20.0409 0C19.8463 0 19.6596 0.07732 19.522 0.21495C19.3844 0.352581 19.307 0.539248 19.307 0.733887V2.404C19.307 3.88838 20.5146 5.096 21.999 5.096H24.2777C24.3614 6.14277 24.9413 7.08467 25.835 7.5958C26.3992 7.91856 26.7246 8.52354 26.6843 9.1748C26.658 9.59824 26.4658 9.98496 26.1745 10.2703L25.3354 9.83897C25.2317 9.78559 25.1167 9.75774 25 9.75774C24.8832 9.75774 24.7682 9.78559 24.6645 9.83897L23.8204 10.2728C23.4932 9.95215 23.3122 9.52549 23.3122 9.06553C23.3122 8.87089 23.2349 8.68422 23.0973 8.54659C22.9596 8.40896 22.773 8.33164 22.5783 8.33164C22.3837 8.33164 22.197 8.40896 22.0594 8.54659C21.9218 8.68422 21.8444 8.87089 21.8444 9.06553C21.8444 9.75166 22.0717 10.4189 22.4787 10.9624L9.09482 17.8422C8.65518 17.3989 8.04639 17.124 7.37461 17.124C6.03721 17.124 4.94912 18.213 4.94912 19.5516V20.5114H0.733887C0.539248 20.5114 0.352581 20.5887 0.21495 20.7264C0.07732 20.864 0 21.0507 0 21.2453L0 49.2662C2.58978e-05 49.4608 0.0773573 49.6475 0.214985 49.7851C0.352613 49.9227 0.539265 50 0.733887 50H34.2631C34.4577 50 34.6444 49.9227 34.782 49.7851C34.9197 49.6474 34.997 49.4608 34.997 49.2661C34.997 49.0715 34.9197 48.8848 34.782 48.7472C34.6444 48.6096 34.4577 48.5322 34.2631 48.5322H1.46768V25.3064H11.1143C11.3089 25.3064 11.4956 25.2291 11.6332 25.0915C11.7708 24.9539 11.8481 24.7672 11.8481 24.5726C11.8481 24.3779 11.7708 24.1913 11.6332 24.0536C11.4956 23.916 11.3089 23.8387 11.1143 23.8387H1.46768V21.9791H31.3276C31.5223 21.9791 31.7089 21.9018 31.8466 21.7642C31.9842 21.6265 32.0615 21.4399 32.0615 21.2452C32.0615 21.0506 31.9842 20.8639 31.8466 20.7263C31.7089 20.5886 31.5223 20.5113 31.3276 20.5113H9.7999V19.5515C9.7999 19.4138 9.78779 19.279 9.76572 19.1476L23.7415 11.9636C24.5362 12.3102 25.4623 12.3086 26.2569 11.9628L40.2343 19.1476C40.2117 19.281 40.2003 19.4161 40.2001 19.5515V20.5113H34.2631C34.0684 20.5113 33.8818 20.5886 33.7442 20.7263C33.6065 20.8639 33.5292 21.0506 33.5292 21.2452C33.5292 21.4399 33.6065 21.6265 33.7442 21.7642C33.8818 21.9018 34.0684 21.9791 34.2631 21.9791H48.5322V23.8387H14.0497C13.8551 23.8387 13.6684 23.916 13.5308 24.0536C13.3931 24.1913 13.3158 24.3779 13.3158 24.5726C13.3158 24.7672 13.3931 24.9539 13.5308 25.0915C13.6684 25.2291 13.8551 25.3064 14.0497 25.3064H48.5323V48.5323H37.1985C37.0039 48.5323 36.8172 48.6096 36.6796 48.7473C36.542 48.8849 36.4646 49.0716 36.4646 49.2662C36.4646 49.4609 36.542 49.6475 36.6796 49.7851C36.8172 49.9228 37.0039 50.0001 37.1985 50.0001H49.2661C49.4608 50.0001 49.6474 49.9228 49.785 49.7851C49.9227 49.6475 50 49.4609 50 49.2662V21.2452C50 21.0506 49.9227 20.8639 49.785 20.7263C49.6474 20.5886 49.4608 20.5113 49.2661 20.5113ZM20.7748 2.40391V1.46768H29.2252V2.40391C29.2252 3.079 28.676 3.62822 28.0009 3.62822H21.9991C21.324 3.62822 20.7748 3.079 20.7748 2.40391ZM6.4168 20.5113V19.5515C6.4168 19.0223 6.84639 18.5917 7.37451 18.5917C7.90254 18.5917 8.33213 19.0223 8.33213 19.5515V20.5113H6.4168ZM41.6678 19.5515C41.6678 19.0223 42.0974 18.5917 42.6254 18.5917C43.1535 18.5917 43.5831 19.0223 43.5831 19.5515V20.5113H41.6678V19.5515Z" fill="white"/>
<path d="M49.2661 20.5113H45.0509V19.5515C45.0509 18.213 43.9628 17.1239 42.6254 17.1239C41.9535 17.1239 41.3448 17.3988 40.9052 17.8421L27.5224 10.963C27.8932 10.4709 28.1112 9.88063 28.1491 9.26562C28.2244 8.05215 27.6169 6.92412 26.5637 6.32178C26.1245 6.07051 25.8287 5.61494 25.7533 5.096H28.0008C29.4853 5.096 30.6928 3.88838 30.6928 2.404V0.733887C30.6928 0.539248 30.6155 0.352581 30.4778 0.21495C30.3402 0.07732 30.1535 0 29.9589 0L20.0409 0C19.8463 0 19.6596 0.07732 19.522 0.21495C19.3844 0.352581 19.307 0.539248 19.307 0.733887V2.404C19.307 3.88838 20.5146 5.096 21.999 5.096H24.2777C24.3614 6.14277 24.9413 7.08467 25.835 7.5958C26.3992 7.91856 26.7246 8.52354 26.6843 9.1748C26.658 9.59824 26.4658 9.98496 26.1745 10.2703L25.3354 9.83897C25.2317 9.78559 25.1167 9.75774 25 9.75774C24.8832 9.75774 24.7682 9.78559 24.6645 9.83897L23.8204 10.2728C23.4932 9.95215 23.3122 9.52549 23.3122 9.06553C23.3122 8.87089 23.2349 8.68422 23.0973 8.54659C22.9596 8.40896 22.773 8.33164 22.5783 8.33164C22.3837 8.33164 22.197 8.40896 22.0594 8.54659C21.9218 8.68422 21.8444 8.87089 21.8444 9.06553C21.8444 9.75166 22.0717 10.4189 22.4787 10.9624L9.09482 17.8422C8.65518 17.3989 8.04639 17.124 7.37461 17.124C6.03721 17.124 4.94912 18.213 4.94912 19.5516V20.5114H0.733887C0.539248 20.5114 0.352581 20.5887 0.21495 20.7264C0.07732 20.864 0 21.0507 0 21.2453L0 49.2662C2.58978e-05 49.4608 0.0773573 49.6475 0.214985 49.7851C0.352613 49.9227 0.539265 50 0.733887 50H34.2631C34.4577 50 34.6444 49.9227 34.782 49.7851C34.9197 49.6474 34.997 49.4608 34.997 49.2661C34.997 49.0715 34.9197 48.8848 34.782 48.7472C34.6444 48.6096 34.4577 48.5322 34.2631 48.5322H1.46768V25.3064H11.1143C11.3089 25.3064 11.4956 25.2291 11.6332 25.0915C11.7708 24.9539 11.8481 24.7672 11.8481 24.5726C11.8481 24.3779 11.7708 24.1913 11.6332 24.0536C11.4956 23.916 11.3089 23.8387 11.1143 23.8387H1.46768V21.9791H31.3276C31.5223 21.9791 31.7089 21.9018 31.8466 21.7642C31.9842 21.6265 32.0615 21.4399 32.0615 21.2452C32.0615 21.0506 31.9842 20.8639 31.8466 20.7263C31.7089 20.5886 31.5223 20.5113 31.3276 20.5113H9.7999V19.5515C9.7999 19.4138 9.78779 19.279 9.76572 19.1476L23.7415 11.9636C24.5362 12.3102 25.4623 12.3086 26.2569 11.9628L40.2343 19.1476C40.2117 19.281 40.2003 19.4161 40.2001 19.5515V20.5113H34.2631C34.0684 20.5113 33.8818 20.5886 33.7442 20.7263C33.6065 20.8639 33.5292 21.0506 33.5292 21.2452C33.5292 21.4399 33.6065 21.6265 33.7442 21.7642C33.8818 21.9018 34.0684 21.9791 34.2631 21.9791H48.5322V23.8387H14.0497C13.8551 23.8387 13.6684 23.916 13.5308 24.0536C13.3931 24.1913 13.3158 24.3779 13.3158 24.5726C13.3158 24.7672 13.3931 24.9539 13.5308 25.0915C13.6684 25.2291 13.8551 25.3064 14.0497 25.3064H48.5323V48.5323H37.1985C37.0039 48.5323 36.8172 48.6096 36.6796 48.7473C36.542 48.8849 36.4646 49.0716 36.4646 49.2662C36.4646 49.4609 36.542 49.6475 36.6796 49.7851C36.8172 49.9228 37.0039 50.0001 37.1985 50.0001H49.2661C49.4608 50.0001 49.6474 49.9228 49.785 49.7851C49.9227 49.6475 50 49.4609 50 49.2662V21.2452C50 21.0506 49.9227 20.8639 49.785 20.7263C49.6474 20.5886 49.4608 20.5113 49.2661 20.5113ZM20.7748 2.40391V1.46768H29.2252V2.40391C29.2252 3.079 28.676 3.62822 28.0009 3.62822H21.9991C21.324 3.62822 20.7748 3.079 20.7748 2.40391ZM6.4168 20.5113V19.5515C6.4168 19.0223 6.84639 18.5917 7.37451 18.5917C7.90254 18.5917 8.33213 19.0223 8.33213 19.5515V20.5113H6.4168ZM41.6678 19.5515C41.6678 19.0223 42.0974 18.5917 42.6254 18.5917C43.1535 18.5917 43.5831 19.0223 43.5831 19.5515V20.5113H41.6678V19.5515Z" stroke="white" stroke-width="0.6" mask="url(#path-2-outside-1_207_106)"/>
</g>
</g>
</g>
<defs>
<clipPath id="clip0_207_106">
<rect width="50" height="50" fill="white"/>
</clipPath>
</defs>
</svg>
