<svg width="18" height="20" viewBox="0 0 18 20" xmlns="http://www.w3.org/2000/svg">
<path d="M9 19.1668C8.06806 19.1668 7.1132 18.9988 6.13542 18.6627C5.15764 18.3266 4.27153 17.8682 3.47708 17.2877C2.68264 16.7071 2.02936 16.0272 1.51725 15.2481C1.00514 14.4689 0.74939 13.6363 0.750001 12.7502V10.0002L4.41667 12.7502L2.99583 14.171C3.43889 14.9502 4.14167 15.6224 5.10417 16.1877C6.06667 16.7529 7.05972 17.112 8.08333 17.2647V9.0835H5.33333V7.25016H8.08333V6.17308C7.54861 5.97447 7.10922 5.64202 6.76517 5.17575C6.42111 4.70947 6.24939 4.17872 6.25 3.5835C6.25 2.81961 6.51736 2.1703 7.05208 1.63558C7.58681 1.10086 8.23611 0.833496 9 0.833496C9.76389 0.833496 10.4132 1.10086 10.9479 1.63558C11.4826 2.1703 11.75 2.81961 11.75 3.5835C11.75 4.17933 11.578 4.71038 11.2339 5.17666C10.8899 5.64294 10.4508 5.97477 9.91667 6.17216V7.25016H12.6667V9.0835H9.91667V17.2647C10.9403 17.112 11.9333 16.7529 12.8958 16.1877C13.8583 15.6224 14.5611 14.9502 15.0042 14.171L13.5833 12.7502L17.25 10.0002V12.7502C17.25 13.6363 16.9939 14.4689 16.4818 15.2481C15.9697 16.0272 15.3168 16.7071 14.5229 17.2877C13.7285 17.8682 12.8424 18.3266 11.8646 18.6627C10.8868 18.9988 9.93195 19.1668 9 19.1668ZM9 4.50016C9.25972 4.50016 9.47758 4.41216 9.65358 4.23616C9.82959 4.06016 9.91728 3.84261 9.91667 3.5835C9.91667 3.32377 9.82867 3.10591 9.65267 2.92991C9.47667 2.75391 9.25911 2.66622 9 2.66683C8.74028 2.66683 8.52242 2.75483 8.34642 2.93083C8.17042 3.10683 8.08272 3.32439 8.08333 3.5835C8.08333 3.84322 8.17133 4.06108 8.34733 4.23708C8.52333 4.41308 8.74089 4.50077 9 4.50016Z" />
</svg>
