<svg width="48" height="33" viewBox="0 0 48 33" xmlns="http://www.w3.org/2000/svg">
<path d="M23.8333 9.75C22.1094 9.75 20.4561 10.4348 19.2371 11.6538C18.0182 12.8728 17.3333 14.5261 17.3333 16.25C17.3333 17.9739 18.0182 19.6272 19.2371 20.8462C20.4561 22.0652 22.1094 22.75 23.8333 22.75C25.5572 22.75 27.2105 22.0652 28.4295 20.8462C29.6485 19.6272 30.3333 17.9739 30.3333 16.25C30.3333 14.5261 29.6485 12.8728 28.4295 11.6538C27.2105 10.4348 25.5572 9.75 23.8333 9.75ZM23.8333 27.0833C20.9602 27.0833 18.2047 25.942 16.173 23.9103C14.1414 21.8787 13 19.1232 13 16.25C13 13.3768 14.1414 10.6213 16.173 8.58968C18.2047 6.55803 20.9602 5.41667 23.8333 5.41667C26.7065 5.41667 29.462 6.55803 31.4937 8.58968C33.5253 10.6213 34.6667 13.3768 34.6667 16.25C34.6667 19.1232 33.5253 21.8787 31.4937 23.9103C29.462 25.942 26.7065 27.0833 23.8333 27.0833ZM23.8333 0C13 0 3.74833 6.73833 0 16.25C3.74833 25.7617 13 32.5 23.8333 32.5C34.6667 32.5 43.9183 25.7617 47.6667 16.25C43.9183 6.73833 34.6667 0 23.8333 0Z"/>
</svg>
