<svg width="10" height="14" viewBox="0 0 10 14" xmlns="http://www.w3.org/2000/svg">
<path d="M5.00004 6.66683C4.55801 6.66683 4.13409 6.49123 3.82153 6.17867C3.50897 5.86611 3.33337 5.44219 3.33337 5.00016C3.33337 4.55814 3.50897 4.13421 3.82153 3.82165C4.13409 3.50909 4.55801 3.3335 5.00004 3.3335C5.44207 3.3335 5.86599 3.50909 6.17855 3.82165C6.49111 4.13421 6.66671 4.55814 6.66671 5.00016C6.66671 5.21903 6.6236 5.43576 6.53984 5.63797C6.45608 5.84018 6.33332 6.02391 6.17855 6.17867C6.02379 6.33344 5.84006 6.4562 5.63785 6.53996C5.43564 6.62372 5.21891 6.66683 5.00004 6.66683ZM5.00004 0.333496C3.76236 0.333496 2.57538 0.825161 1.70021 1.70033C0.825039 2.5755 0.333374 3.76249 0.333374 5.00016C0.333374 8.50016 5.00004 13.6668 5.00004 13.6668C5.00004 13.6668 9.66671 8.50016 9.66671 5.00016C9.66671 3.76249 9.17504 2.5755 8.29987 1.70033C7.4247 0.825161 6.23772 0.333496 5.00004 0.333496Z"/>
</svg>
