<svg width="16" height="16" viewBox="0 0 16 16" xmlns="http://www.w3.org/2000/svg">
<g>
<path d="M7.99967 1.33325C4.31967 1.33325 1.33301 4.31992 1.33301 7.99992C1.33301 11.6799 4.31967 14.6666 7.99967 14.6666C11.6797 14.6666 14.6663 11.6799 14.6663 7.99992C14.6663 4.31992 11.6797 1.33325 7.99967 1.33325ZM11.093 5.86659C10.993 6.91992 10.5597 9.47992 10.3397 10.6599C10.2463 11.1599 10.0597 11.3266 9.88634 11.3466C9.49967 11.3799 9.20634 11.0933 8.83301 10.8466C8.24634 10.4599 7.91301 10.2199 7.34634 9.84659C6.68634 9.41325 7.11301 9.17325 7.49301 8.78659C7.59301 8.68659 9.29967 7.13325 9.33301 6.99325C9.33764 6.97205 9.33702 6.95003 9.33121 6.92912C9.3254 6.90821 9.31458 6.88903 9.29967 6.87325C9.25967 6.83992 9.20634 6.85325 9.15967 6.85992C9.09967 6.87325 8.16634 7.49325 6.34634 8.71992C6.07967 8.89992 5.83967 8.99325 5.62634 8.98659C5.38634 8.97992 4.93301 8.85325 4.59301 8.73992C4.17301 8.60659 3.84634 8.53325 3.87301 8.29992C3.88634 8.17992 4.05301 8.05992 4.36634 7.93325C6.31301 7.08659 7.60634 6.52659 8.25301 6.25992C10.1063 5.48659 10.4863 5.35325 10.7397 5.35325C10.793 5.35325 10.9197 5.36659 10.9997 5.43325C11.0663 5.48659 11.0863 5.55992 11.093 5.61325C11.0863 5.65325 11.0997 5.77325 11.093 5.86659Z"/>
</g>
</svg>
