<svg width="16" height="16" viewBox="0 0 16 16" xmlns="http://www.w3.org/2000/svg">
<g>
<path d="M8.00066 1.33325C11.6827 1.33325 14.6673 4.31792 14.6673 7.99992C14.6673 11.6819 11.6827 14.6666 8.00066 14.6666C6.82251 14.6685 5.6651 14.3567 4.64733 13.7633L1.33666 14.6666L2.23799 11.3546C1.64406 10.3365 1.33203 9.17858 1.33399 7.99992C1.33399 4.31792 4.31866 1.33325 8.00066 1.33325ZM5.72866 4.86659L5.59533 4.87192C5.50901 4.87718 5.42465 4.89985 5.34733 4.93859C5.27501 4.97954 5.20899 5.03074 5.15133 5.09059C5.07133 5.16592 5.02599 5.23125 4.97733 5.29459C4.73074 5.61519 4.59798 6.00879 4.59999 6.41325C4.60133 6.73992 4.68666 7.05792 4.81999 7.35525C5.09266 7.95659 5.54133 8.59325 6.13333 9.18325C6.27599 9.32525 6.41599 9.46792 6.56666 9.60059C7.30225 10.2482 8.17883 10.7153 9.12666 10.9646L9.50533 11.0226C9.62866 11.0293 9.75199 11.0199 9.87599 11.0139C10.0702 11.0039 10.2597 10.9513 10.4313 10.8599C10.5186 10.8149 10.6038 10.766 10.6867 10.7133C10.6867 10.7133 10.7153 10.6946 10.77 10.6533C10.86 10.5866 10.9153 10.5393 10.99 10.4613C11.0453 10.4039 11.0933 10.3366 11.13 10.2599C11.182 10.1513 11.234 9.94392 11.2553 9.77125C11.2713 9.63925 11.2667 9.56725 11.2647 9.52259C11.262 9.45125 11.2027 9.37725 11.138 9.34592L10.75 9.17192C10.75 9.17192 10.17 8.91925 9.81533 8.75792C9.77821 8.74171 9.73845 8.73245 9.69799 8.73059C9.65238 8.7259 9.60629 8.73103 9.56283 8.74564C9.51936 8.76024 9.47953 8.78398 9.44599 8.81525C9.44266 8.81392 9.39799 8.85192 8.91599 9.43592C8.88833 9.47309 8.85022 9.50119 8.80653 9.51662C8.76284 9.53206 8.71554 9.53413 8.67066 9.52259C8.62723 9.51094 8.58468 9.49624 8.54333 9.47859C8.46066 9.44392 8.43199 9.43058 8.37533 9.40659C7.99271 9.23962 7.63845 9.01402 7.32533 8.73792C7.24133 8.66459 7.16333 8.58459 7.08333 8.50725C6.82105 8.25607 6.59248 7.97192 6.40333 7.66192L6.36399 7.59859C6.33574 7.55603 6.3129 7.51012 6.29599 7.46192C6.27066 7.36392 6.33666 7.28525 6.33666 7.28525C6.33666 7.28525 6.49866 7.10792 6.57399 7.01192C6.64733 6.91859 6.70933 6.82792 6.74933 6.76325C6.82799 6.63659 6.85266 6.50659 6.81133 6.40592C6.62466 5.94992 6.43133 5.49592 6.23266 5.04525C6.19333 4.95592 6.07666 4.89192 5.97066 4.87925C5.93466 4.87525 5.89866 4.87125 5.86266 4.86859C5.77313 4.86414 5.68342 4.86503 5.59399 4.87125L5.72799 4.86592L5.72866 4.86659Z"/>
</g>
</svg>
