<svg width="223" height="70" viewBox="0 0 223 70" fill="none" xmlns="http://www.w3.org/2000/svg">
<path d="M0 30.44L6.59305 26.4339V65.5524H0V30.44Z" fill="#5652E8"/>
<path d="M11.3881 5.27341L17.9811 0.820404V65.5522H11.3881V5.27341Z" fill="#2ACBB3"/>
<path d="M23.3754 11.5318L29.9684 16.2498V65.5526H23.3754V11.5318Z" fill="#5652E8"/>
<path d="M34.7634 26.8994L41.3565 30.495V65.5522H34.7634V26.8994Z" fill="#2ACBB3"/>
<path d="M63.3657 65.5527C60.7967 65.5527 58.7781 64.9851 57.3101 63.8499C55.8754 62.7146 54.8578 61.1183 54.2573 59.0607C53.6567 56.9676 53.3564 54.5553 53.3564 51.8237V35.0084C53.3564 32.2414 53.64 29.8468 54.2072 27.8247C54.8078 25.8026 55.8421 24.2417 57.3101 23.142C58.8115 22.0068 60.9134 21.4391 63.6159 21.4391C66.0515 21.4391 67.97 21.9181 69.3713 22.8759C70.8059 23.8337 71.8402 25.235 72.4741 27.0797C73.108 28.9244 73.425 31.1771 73.425 33.8378V35.3277H69.8217V33.8378C69.8217 31.7802 69.6382 30.0774 69.2712 28.7293C68.9375 27.3813 68.337 26.3702 67.4695 25.6962C66.602 25.0222 65.3342 24.6851 63.666 24.6851C61.7976 24.6851 60.3963 25.1108 59.4621 25.9622C58.5279 26.8137 57.9107 27.9843 57.6104 29.4743C57.3435 30.9643 57.21 32.6671 57.21 34.5827V52.3026C57.21 54.3957 57.3768 56.1872 57.7105 57.6772C58.0775 59.1316 58.7281 60.2668 59.6623 61.0828C60.6298 61.8632 61.9811 62.2535 63.716 62.2535C65.4176 62.2535 66.7188 61.8632 67.6196 61.0828C68.5205 60.2668 69.1544 59.1139 69.5214 57.6239C69.8884 56.134 70.0719 54.3247 70.0719 52.1962V47.141H64.0663V45.2912H73.5751V64.9673H71.1229L70.6725 60.0717C70.172 61.7036 69.3379 63.0339 68.1701 64.0627C67.0358 65.056 65.4343 65.5527 63.3657 65.5527Z" fill="#5652E8"/>
<path d="M77.627 65.5527L77.627 21.4391H91.4125V23.5117H82.3637V42.1962H91.4125V44.1805H82.3637V63.8943H91.4125L91.4125 65.5527L77.627 65.5527Z" fill="#5652E8"/>
<path d="M101.011 65.5527V23.4909H95.4644V21.4391H110.169V23.4909H105.262V65.5527H101.011Z" fill="#5652E8"/>
<path d="M120.278 65.5524V21.4388H129.84C132.375 21.4388 134.36 21.8927 135.794 22.8004C137.262 23.6718 138.312 24.9607 138.946 26.6671C139.58 28.3373 139.897 30.3342 139.897 32.6578C139.897 34.2917 139.73 35.8347 139.396 37.287C139.063 38.7393 138.496 39.9738 137.695 40.9904C136.895 42.007 135.761 42.6787 134.293 43.0055L140.497 65.5524H136.795L130.591 43.0055L124.647 42.9827L124.487 65.5524H120.278ZM124.487 40.827H129.64C131.341 40.827 132.659 40.5184 133.593 39.9012C134.527 39.2839 135.194 38.3763 135.594 37.1781C135.994 35.98 136.194 34.4732 136.194 32.6578C136.194 29.9348 135.761 27.9016 134.893 26.5582C134.026 25.2148 132.308 24.5431 129.74 24.5431H124.487V40.827Z" fill="#5652E8"/>
<path d="M144.549 65.5524L144.549 21.4388H158.334V23.5114H149.237V42.1959H158.334V44.1802H149.237V63.894H158.334L158.334 65.5524L144.549 65.5524Z" fill="#5652E8"/>
<path d="M162.386 65.5524L170.841 21.4388H174.438L183.524 65.5524H178.994L177.786 59.9099L176.277 52.4722H167.253L165.087 65.5524H162.386ZM167.834 50.7389H175.673L173.559 38.8791L171.445 27.0813L167.834 50.7389Z" fill="#5652E8"/>
<path d="M187.576 65.5524V21.4388H192.222V63.757H200.442V65.5524H187.576Z" fill="#5652E8"/>
<path d="M209.694 65.5524V23.4906H204.494V21.4388H218.28V23.4906H213.68V65.5524H209.694Z" fill="#5652E8"/>
</svg>
