<svg viewBox="0 0 20 20" xmlns="http://www.w3.org/2000/svg">
<path d="M16.6667 17.5C15.5084 17.5 14.3501 17.1083 13.3334 16.4C11.3001 17.825 8.70007 17.825 6.66674 16.4C5.65007 17.1083 4.49174 17.5 3.3334 17.5H1.66674V19.1666H3.3334C4.4834 19.1666 5.61674 18.875 6.66674 18.3416C8.76674 19.4166 11.2334 19.4166 13.3334 18.3416C14.3834 18.8833 15.5167 19.1666 16.6667 19.1666H18.3334V17.5H16.6667ZM3.29174 15.8333H3.3334C4.66674 15.8333 5.85007 15.1 6.66674 14.1666C7.4834 15.1 8.66674 15.8333 10.0001 15.8333C11.3334 15.8333 12.5167 15.1 13.3334 14.1666C14.1501 15.1 15.3334 15.8333 16.6667 15.8333H16.7084L18.2834 10.2666C18.3501 10.05 18.3334 9.81665 18.2334 9.61665C18.1334 9.41665 17.9501 9.26665 17.7334 9.19998L16.6667 8.84998V4.99998C16.6667 4.08331 15.9167 3.33331 15.0001 3.33331H12.5001V0.833313H7.50007V3.33331H5.00007C4.0834 3.33331 3.3334 4.08331 3.3334 4.99998V8.84998L2.2584 9.19998C2.04174 9.26665 1.8584 9.41665 1.7584 9.61665C1.6584 9.81665 1.6334 10.05 1.7084 10.2666L3.29174 15.8333ZM5.00007 4.99998H15.0001V8.30831L10.0001 6.66665L5.00007 8.30831V4.99998Z" fill="#B2B5C2"></path>
</svg>