<svg width="169" height="155" viewBox="0 0 169 155" fill="none" xmlns="http://www.w3.org/2000/svg">
<rect width="123" height="4" transform="translate(23)" fill="white"/>
<rect width="123" height="4" transform="translate(23 4)" fill="#42344E"/>
<rect width="123" height="4" transform="translate(23 147)" fill="#42344E"/>
<rect width="123" height="4" transform="translate(23)" fill="#1D1230"/>
<rect width="123" height="4" transform="translate(23 151)" fill="#1D1230"/>
<rect width="131" height="4.00001" transform="translate(0 143) rotate(-90)" fill="#1D1230"/>
<rect width="123" height="4.00001" transform="translate(4 139) rotate(-90)" fill="#42344E"/>
<rect width="123" height="4.00001" transform="translate(161 139) rotate(-90)" fill="#42344E"/>
<rect width="131" height="4.00001" transform="translate(165 143) rotate(-90)" fill="#1D1230"/>
<rect width="11" height="4" transform="translate(12 4)" fill="#1D1230"/>
<rect width="11" height="4" transform="translate(12 147)" fill="#1D1230"/>
<rect width="11" height="4" transform="translate(12 143)" fill="#42344E"/>
<rect width="11" height="4" transform="translate(146 147)" fill="#1D1230"/>
<rect width="11" height="4" transform="translate(146 143)" fill="#42344E"/>
<rect width="11" height="4" transform="translate(146 8)" fill="#42344E"/>
<rect width="11" height="4" transform="translate(12 8)" fill="#42344E"/>
<rect width="11" height="4" transform="translate(146 4)" fill="#1D1230"/>
<rect width="8" height="4" transform="translate(4 8)" fill="white"/>
<rect width="8" height="4" transform="translate(4 8)" fill="#1D1230"/>
<rect width="8" height="4" transform="translate(4 12)" fill="#42344E"/>
<rect width="8" height="4" transform="translate(4 143)" fill="#1D1230"/>
<rect width="8" height="4" transform="translate(4 139)" fill="#42344E"/>
<rect width="8" height="4" transform="translate(157 143)" fill="#1D1230"/>
<rect width="8" height="4" transform="translate(157 139)" fill="#42344E"/>
<rect width="8" height="4" transform="translate(157 12)" fill="#42344E"/>
<rect width="8" height="4" transform="translate(157 8)" fill="#1D1230"/>
</svg>
