<svg width="25" height="24" viewBox="0 0 25 24" xmlns="http://www.w3.org/2000/svg">
<path d="M19.5006 9.03795C19.5203 9.58988 19.9837 10.0214 20.5356 10.0017C21.0875 9.98207 21.519 9.51871 21.4994 8.96677L19.5006 9.03795ZM16.214 5.00236V6.00236C16.2251 6.00236 16.2363 6.00217 16.2474 6.0018L16.214 5.00236ZM9.786 5.00236L9.7526 6.0018C9.76373 6.00217 9.77486 6.00236 9.786 6.00236V5.00236ZM4.50063 8.96677C4.48098 9.51871 4.91248 9.98207 5.46441 10.0017C6.01635 10.0214 6.47971 9.58988 6.49937 9.03795L4.50063 8.96677ZM21.5 9.00236C21.5 8.45008 21.0523 8.00236 20.5 8.00236C19.9477 8.00236 19.5 8.45008 19.5 9.00236H21.5ZM20.5 15.0024L21.4994 15.0379C21.4998 15.0261 21.5 15.0142 21.5 15.0024H20.5ZM16.214 19.0024L16.2474 18.0029C16.2363 18.0025 16.2251 18.0024 16.214 18.0024V19.0024ZM9.786 19.0024V18.0024C9.77486 18.0024 9.76373 18.0025 9.7526 18.0029L9.786 19.0024ZM5.5 15.0024H4.5C4.5 15.0142 4.50021 15.0261 4.50063 15.0379L5.5 15.0024ZM6.5 9.00236C6.5 8.45008 6.05228 8.00236 5.5 8.00236C4.94772 8.00236 4.5 8.45008 4.5 9.00236H6.5ZM21.0044 9.86583C21.4813 9.58726 21.642 8.97484 21.3635 8.49796C21.0849 8.02108 20.4725 7.86032 19.9956 8.13889L21.0044 9.86583ZM15.236 12.0774L14.7316 11.2139L14.7233 11.2188L15.236 12.0774ZM10.764 12.0774L11.2768 11.2188L11.2684 11.2139L10.764 12.0774ZM6.0044 8.13889C5.52752 7.86032 4.9151 8.02108 4.63653 8.49796C4.35796 8.97484 4.51872 9.58726 4.9956 9.86583L6.0044 8.13889ZM21.4994 8.96677C21.3983 6.1287 19.0189 3.90805 16.1806 4.00292L16.2474 6.0018C17.9834 5.94378 19.4388 7.30204 19.5006 9.03795L21.4994 8.96677ZM16.214 4.00236H9.786V6.00236H16.214V4.00236ZM9.8194 4.00292C6.98111 3.90805 4.60169 6.1287 4.50063 8.96677L6.49937 9.03795C6.56118 7.30204 8.01655 5.94378 9.7526 6.0018L9.8194 4.00292ZM19.5 9.00236V15.0024H21.5V9.00236H19.5ZM19.5006 14.9668C19.4388 16.7027 17.9834 18.0609 16.2474 18.0029L16.1806 20.0018C19.0189 20.0967 21.3983 17.876 21.4994 15.0379L19.5006 14.9668ZM16.214 18.0024H9.786V20.0024H16.214V18.0024ZM9.7526 18.0029C8.01655 18.0609 6.56118 16.7027 6.49937 14.9668L4.50063 15.0379C4.60169 17.876 6.98111 20.0967 9.8194 20.0018L9.7526 18.0029ZM6.5 15.0024V9.00236H4.5V15.0024H6.5ZM19.9956 8.13889L14.7316 11.2139L15.7404 12.9408L21.0044 9.86583L19.9956 8.13889ZM14.7233 11.2188C13.6619 11.8527 12.3381 11.8527 11.2767 11.2188L10.2513 12.9359C11.9443 13.947 14.0557 13.947 15.7487 12.9359L14.7233 11.2188ZM11.2684 11.2139L6.0044 8.13889L4.9956 9.86583L10.2596 12.9408L11.2684 11.2139Z"/>
</svg>
