<svg width="24" height="24" viewBox="0 0 24 24" xmlns="http://www.w3.org/2000/svg">
<path d="M18.6476 14.1905L18.6362 14.1789C18.6344 14.1771 18.6325 14.1752 18.6306 14.1735L17.2865 12.8295C16.9088 12.4516 16.4065 12.2435 15.8722 12.2435C15.3412 12.2435 14.8415 12.4492 14.4645 12.8227C14.4617 12.8252 14.4592 12.828 14.4564 12.8306L13.7421 13.5451L10.4527 10.2554L11.1668 9.54109C11.1695 9.53851 11.1721 9.53579 11.1746 9.53321C11.9479 8.75284 11.9459 7.48886 11.1681 6.71101L9.82604 5.36884L9.81873 5.36153C9.44101 4.98451 8.93912 4.77686 8.40554 4.77686C7.87361 4.77686 7.37336 4.98325 6.99615 5.35764C6.99104 5.36279 6.98593 5.36795 6.98097 5.37325L6.36465 5.98937C6.17029 6.18363 5.97601 6.37797 5.78181 6.5724C4.83001 7.52396 4.60759 9.04103 5.15542 10.8441C5.65712 12.4955 6.76107 14.2326 8.26361 15.7354C10.3613 17.833 12.9302 19.136 14.9677 19.136C15.9753 19.136 16.8258 18.8183 17.4238 18.2201C17.4363 18.2079 17.7804 17.8638 18.1888 17.4553L18.6362 17.0079L18.6385 17.0056C19.4071 16.2345 19.4144 14.9841 18.6594 14.2037C18.6556 14.1992 18.6516 14.1948 18.6475 14.1905H18.6476ZM17.6469 16.0084C17.6427 16.0126 17.6385 16.0168 17.6342 16.0212L17.1947 16.4609C16.7931 16.8624 16.454 17.2015 16.4322 17.2231C16.096 17.5593 15.6033 17.7298 14.9677 17.7298C13.3148 17.7298 11.0738 16.5566 9.25811 14.7411C7.91579 13.3988 6.93672 11.8697 6.50092 10.4352C6.11678 9.1712 6.21709 8.12565 6.77668 7.56611L7.35897 6.98382L7.98498 6.35781C7.98737 6.35542 7.98957 6.35321 7.99178 6.35082C8.10243 6.24289 8.25101 6.18267 8.40559 6.18311C8.48379 6.18293 8.56126 6.19828 8.63348 6.22827C8.70571 6.25826 8.77126 6.30229 8.82634 6.35781L10.1737 7.70528C10.4053 7.93689 10.4053 8.31371 10.1737 8.54537C10.1733 8.54575 10.1729 8.54631 10.1724 8.54664V8.54682L8.96092 9.75826C8.68647 10.0329 8.68647 10.478 8.96092 10.7527L13.2451 15.0366C13.3103 15.1019 13.3878 15.1538 13.4731 15.1891C13.5584 15.2245 13.6498 15.2427 13.7422 15.2426C13.9288 15.2426 14.1077 15.1685 14.2395 15.0366L15.4433 13.8325C15.4476 13.8285 15.4518 13.8241 15.4561 13.8199C15.567 13.7106 15.7165 13.6494 15.8723 13.6498C16.0308 13.6498 16.1799 13.7117 16.2921 13.8237L17.6359 15.1674L17.6388 15.1705C17.6403 15.1719 17.6418 15.1734 17.6431 15.1749C17.8716 15.4047 17.8727 15.7769 17.6469 16.0084Z"/>
</svg>
