<svg width="20" height="20" viewBox="0 0 20 20" xmlns="http://www.w3.org/2000/svg">
<path d="M14.8036 5.19044C13.5261 3.91731 11.8226 3.21002 10.0246 3.21002C6.28655 3.21002 3.25825 6.2278 3.25825 9.95287C3.25825 11.1317 3.58947 12.3105 4.15728 13.3007L3.21094 16.79L6.80703 15.847C7.80069 16.3656 8.88898 16.6486 10.0246 16.6486C13.7626 16.6486 16.7909 13.6308 16.7909 9.90572C16.7436 8.16106 16.0812 6.46356 14.8036 5.19044ZM13.2895 12.3577C13.1475 12.7349 12.4851 13.1121 12.1539 13.1593C11.87 13.2064 11.4914 13.2064 11.1129 13.1121C10.8763 13.0178 10.5451 12.9235 10.1665 12.7349C8.46313 12.0276 7.37484 10.3301 7.28021 10.1886C7.18557 10.0943 6.57045 9.29273 6.57045 8.44398C6.57045 7.59523 6.9963 7.21801 7.13825 7.0294C7.2802 6.84079 7.46947 6.84079 7.61142 6.84079C7.70606 6.84079 7.84801 6.84079 7.94264 6.84079C8.03728 6.84079 8.17923 6.79363 8.32118 7.1237C8.46313 7.45377 8.79435 8.30252 8.84167 8.34967C8.88898 8.44398 8.88898 8.53829 8.84167 8.63259C8.79435 8.7269 8.74703 8.8212 8.6524 8.91551C8.55776 9.00981 8.46313 9.15127 8.41581 9.19842C8.32118 9.29273 8.22655 9.38703 8.32118 9.52849C8.41581 9.7171 8.74703 10.2358 9.26752 10.7073C9.92996 11.2731 10.4504 11.4618 10.6397 11.5561C10.829 11.6504 10.9236 11.6032 11.0183 11.5089C11.1129 11.4146 11.4441 11.0374 11.5387 10.8488C11.6334 10.6602 11.7753 10.7073 11.9173 10.7545C12.0592 10.8016 12.9109 11.226 13.0529 11.3203C13.2422 11.4146 13.3368 11.4618 13.3841 11.5089C13.4314 11.6504 13.4314 11.9804 13.2895 12.3577Z"/>
</svg>
