<svg width="1506" height="455" viewBox="0 0 1506 455" fill="none" xmlns="http://www.w3.org/2000/svg">
<path d="M1493.72 0.985367V4.92463L12.2772 4.92461V0.985352L1493.72 0.985367Z" fill="#030500"/>
<path d="M1493.72 4.92463V8.86388H12.2772V4.92461L1493.72 4.92463Z" fill="#7C8CD9"/>
<path d="M12.2772 8.87059V227.992V447.113L4.09241 447.107V8.86382L12.2772 8.87059Z" fill="#7C8CD9"/>
<path d="M12.2772 8.87059L1501.91 12.8031H1497.82V8.86388L12.2772 8.87059Z" fill="#030500"/>
<path d="M1497.82 4.92461V8.86388H1493.72V4.92463L1497.82 4.92461Z" fill="#030500"/>
<path d="M1506 12.8031V443.167H1501.91V12.8031H1506Z" fill="#030500"/>
<path d="M4.09241 12.8032V443.167H0V12.8032H4.09241Z" fill="#030500"/>
<path d="M8.18481 8.86391V12.8032H4.09241V8.86382L8.18481 8.86391Z" fill="#030500"/>
<path d="M12.2772 4.92461V8.86388L8.18481 8.86391V4.92464L12.2772 4.92461Z" fill="#030500"/>
<path d="M1493.72 451.046V454.985H12.2772V451.046H1493.72Z" fill="#030500"/>
<path d="M1493.72 447.107V451.046H12.2772V447.107H1493.72Z" fill="#42415E"/>
<path d="M1501.91 443.167L12.2772 447.113L1497.82 447.107V443.167H1501.91Z" fill="#030500"/>
<path d="M1501.91 439.228V443.167H1497.82V439.228H1501.91Z" fill="#42415E"/>
<path d="M1501.91 435.289V439.228H1497.82V435.289H1501.91Z" fill="#58649E"/>
<path d="M1497.82 447.107V451.046H1493.72V447.107H1497.82Z" fill="#030500"/>
<path d="M1497.82 443.167V447.107H1493.72V443.167H1497.82Z" fill="#42415E"/>
<path d="M1497.82 439.228V443.167H1493.72V439.228H1497.82Z" fill="#58649E"/>
<path d="M1493.72 443.167V447.107H12.2772V443.167H1493.72Z" fill="#58649E"/>
<path d="M8.18481 443.167V447.107L4.09241 447.107V443.167H8.18481Z" fill="#030500"/>
<path d="M8.18481 439.228V443.167H4.09241V439.228H8.18481Z" fill="#42415E"/>
<path d="M12.2772 447.107V451.046H8.18481V447.107H12.2772Z" fill="#030500"/>
<path d="M12.2772 443.167V447.107H8.18481V443.167H12.2772Z" fill="#42415E"/>
<path d="M8.18481 435.289V439.228H4.09241V435.289H8.18481Z" fill="#58649E"/>
<path d="M12.2772 439.228V443.167H8.18481V439.228H12.2772Z" fill="#58649E"/>
<path d="M1501.91 8.86388V12.8031H1497.82V8.86388H1501.91Z" fill="#030500"/>
<path d="M1501.91 443.167V447.107L1497.82 447.107V443.167H1501.91Z" fill="#030500"/>
<path d="M1501.91 12.8031L1502.18 227.885L1501.91 443.167H1497.82H1493.72L1494.01 12.8031H1501.91Z" fill="#7C8CD9"/>
</svg>
