<svg width="34" height="15" viewBox="0 0 34 15" fill="none" xmlns="http://www.w3.org/2000/svg">
<path d="M4.67989 13.8111V12.3111H2.97988V9.27775H1.26099V3.09442H3.16878V9.11109H4.86878V12.1444H6.41767V9.11109H8.11767V3.09442H10.0443V9.27775H8.30656V12.3111H6.60656V13.8111H4.67989ZM18.2349 13.8111V12.3111H16.516V10.6278H18.4238V12.1444H23.3726V9.27775H18.2349V7.77775H16.516V4.61109H18.2349V3.09442H23.5615V4.61109H25.2993V6.27775H23.3726V4.77775H18.4238V7.62775H23.5615V9.11109H25.2993V12.3111H23.5615V13.8111H18.2349Z" fill="white"/>
<path d="M12.3289 13.8111V3.09442H14.2366V13.8111H12.3289Z" fill="#6385E3"/>
<path d="M25.6304 2.42777V2.01666L27.557 1.28333V1.72777L26.2285 2.22222L27.557 2.71666V3.1611L25.6304 2.42777ZM29.5365 0.277771H30.1347L28.3969 4.16666H27.7988L29.5365 0.277771ZM30.3719 2.71666L31.7005 2.22222L30.3719 1.72777V1.28333L32.2987 2.01666V2.42777L30.3719 3.1611V2.71666Z" fill="#6D95FC"/>
</svg>
