<svg width="206" height="53" viewBox="0 0 206 53" fill="none" xmlns="http://www.w3.org/2000/svg">
<path d="M24.9385 48.72V43.32H19.5385V32.4H14.0785V10.14H20.1385V31.8H25.5385V42.72H30.4585V31.8H35.8585V10.14H41.9785V32.4H36.4585V43.32H31.0585V48.72H24.9385ZM67.9955 48.72V43.32H62.5355V37.26H68.5955V42.72H84.3155V32.4H67.9955V27H62.5355V15.6H67.9955V10.14H84.9155V15.6H90.4355V21.6H84.3155V16.2H68.5955V26.46H84.9155V31.8H90.4355V43.32H84.9155V48.72H67.9955ZM97.6918 48.72V21H103.752V48.72H97.6918ZM97.6918 16.2V10.14H103.752V16.2H97.6918ZM120.036 48.72V43.32H114.636V27H109.176V21H114.636V10.14H120.636V21H137.076V27H120.636V42.72H136.476V37.26H142.536V43.32H137.076V48.72H120.036ZM153.425 48.72V43.32H147.965V26.46H153.425V21H170.345V26.46H175.865V32.4H169.745V27H154.025V31.8H164.945V37.86H154.025V42.72H169.745V37.2H175.865V43.26H170.345V48.72H153.425Z" fill="white"/>
<path d="M49.2348 48.72V10.14H55.2948V48.72H49.2348Z" fill="#6385E3"/>
<path d="M179.405 8.74V7.26L185.525 4.62V6.22L181.305 8L185.525 9.78V11.38L179.405 8.74ZM191.813 0.999999H193.713L188.193 15H186.293L191.813 0.999999ZM194.467 9.78L198.687 8L194.467 6.22V4.62L200.587 7.26V8.74L194.467 11.38V9.78Z" fill="#6D95FC"/>
</svg>
