<svg width="120" height="120" viewBox="0 0 120 120" fill="none" xmlns="http://www.w3.org/2000/svg">
<path fill-rule="evenodd" clip-rule="evenodd" d="M119.368 119.368H0V0H119.368V119.368Z" fill="white"/>
<path fill-rule="evenodd" clip-rule="evenodd" d="M66.9472 64.4211H64.4209V114.526H74.1051C76.2104 112 77.8946 109.263 79.1577 106.105C85.263 90.7369 79.9998 73.6843 66.9472 64.4211ZM81.263 114.526H114.526V93.6843C99.9998 93.0527 86.7367 101.474 81.263 114.526ZM77.0525 64.4211C82.7367 79.579 98.3156 89.0527 114.526 86.7369V64.4211H77.0525Z" fill="#D60B52"/>
<path fill-rule="evenodd" clip-rule="evenodd" d="M90.5262 101.895C95.5788 104.842 99.9998 109.263 102.947 114.526H114.526V93.6843C105.474 93.2632 97.0525 96.4211 90.5262 101.895ZM64.4209 92.2106V114.526H74.1051C76.2104 112 77.8946 109.263 79.1577 106.105C81.8946 99.579 82.5262 92.6317 81.0525 86.1054C75.9998 89.6843 70.3156 91.7896 64.4209 92.2106ZM101.895 64.4211H77.0525C80.4209 73.6843 87.7893 80.8422 96.4209 84.4211C96.2104 77.2633 98.1051 70.3159 101.895 64.4211Z" fill="#A61F5E"/>
<path fill-rule="evenodd" clip-rule="evenodd" d="M41.8943 89.4738C48.4206 82.7369 53.0524 74.1054 54.9472 64.4211H4.8418V114.526H54.9472C52.8419 105.053 48.2101 96.4211 41.8943 89.4738Z" fill="#64B8E1"/>
<path fill-rule="evenodd" clip-rule="evenodd" d="M40.6312 64.4211H4.8418V73.4738C13.6839 73.4738 22.1048 75.7896 29.2627 79.7896C33.6838 75.3685 37.6838 70.1054 40.6312 64.4211ZM29.2627 99.158C21.8943 103.158 13.6839 105.474 4.8418 105.474V114.526H40.6312C37.6838 108.842 33.6838 103.579 29.2627 99.158Z" fill="#BEE2E9"/>
<path fill-rule="evenodd" clip-rule="evenodd" d="M4.8418 73.6843V84.4212C9.05232 85.6843 13.0523 87.5791 16.6312 89.6843C21.2627 86.9475 25.4733 83.7896 29.2627 80.0001C21.8943 75.7896 13.6839 73.6843 4.8418 73.6843ZM4.8418 94.737V105.474C13.6839 105.474 22.1048 103.158 29.2627 99.158C25.4733 95.3685 21.2627 92.2106 16.6312 89.4738C12.8418 91.5791 8.8418 93.4738 4.8418 94.737Z" fill="#0085BA"/>
<path fill-rule="evenodd" clip-rule="evenodd" d="M64.4209 54.9477H114.526V33.2632H64.4209V54.9477ZM64.4209 4.84229V28.6319H114.526V4.84229H64.4209Z" fill="#BCCF00"/>
<path fill-rule="evenodd" clip-rule="evenodd" d="M64.4209 48.0001H114.526V37.6845H64.4209V48.0001ZM64.4209 4.84229V22.5264H114.526V4.84229H64.4209Z" fill="#3AAA35"/>
<path fill-rule="evenodd" clip-rule="evenodd" d="M30.7366 39.7898C27.3682 37.6845 24.6312 34.9477 22.5259 31.7898C21.6838 28.2108 22.1049 24.4213 24.2101 21.0529C28.2101 14.5265 36.8417 12.4212 43.5785 16.4212C50.1049 20.4212 52.2101 29.0529 48.2101 35.7898C47.5785 36.8424 46.7364 37.6843 45.8943 38.5264C43.5785 40.0001 41.0522 41.0529 38.3154 41.2634C44.6312 41.895 50.9472 39.1582 54.9472 33.895V4.84229H4.8418V54.9477H54.9472V41.6843C47.1577 44.8422 38.3156 44.4213 30.7366 39.7898Z" fill="#FBBA00"/>
<path fill-rule="evenodd" clip-rule="evenodd" d="M20.2102 27.5789C18.7365 21.6841 19.3681 14.9474 22.947 9.26319C23.9996 7.57898 25.2627 5.89475 26.7364 4.63159H21.0522C17.2629 12 17.0523 20.4211 20.2102 27.5789ZM47.368 54.9473H54.9472V49.8946C52.6314 51.7894 50.1048 53.4736 47.368 54.9473ZM7.78914 4.84214H4.8418V9.05267C5.05232 8.84214 5.05232 8.63163 5.26285 8.42111C5.89443 7.15795 6.73651 5.89477 7.78914 4.84214ZM4.8418 42.1052V54.9473H18.7365C17.8944 54.5262 16.8418 53.8946 15.9997 53.4736C11.1576 50.5262 7.36811 46.5262 4.8418 42.1052Z" fill="#F39200"/>
<path fill-rule="evenodd" clip-rule="evenodd" d="M30.7368 39.7898C18.7367 32.4213 14.7367 17.0528 21.0525 4.84229H13.4736C5.26304 18.1054 9.47359 35.3685 22.5263 43.579C32.8421 49.8948 45.8947 48.8422 54.9473 41.6843C47.1578 44.8422 38.3157 44.4213 30.7368 39.7898ZM49.6842 6.31599C48.6315 5.68441 47.5789 5.26334 46.7368 4.84229H32.8421C29.0526 6.31597 25.8947 8.84229 23.5789 12.4212C21.8947 15.1581 21.0525 18.1055 20.842 21.2634C21.2631 19.5792 21.8947 17.8949 22.7368 16.4212C27.3684 8.84229 37.4736 6.31597 45.2631 11.1581C52.8421 15.7897 55.3684 25.895 50.5263 33.6845C47.7894 38.3161 42.9473 40.8424 38.1052 41.2634C44.421 41.895 50.7368 39.1582 54.7368 33.895V10.9475C53.4736 9.05279 51.7894 7.57915 49.6842 6.31599Z" fill="#EF7D00"/>
</svg>
