<svg width="81" height="57" viewBox="0 0 81 57" fill="none" xmlns="http://www.w3.org/2000/svg">
<path d="M42.1996 56.9314H41.2394L41.075 55.8419H39.9072L39.7428 56.9314H38.8691L39.838 50.9263H41.2307L42.1996 56.9314ZM40.0283 55.0269H40.9453L40.4868 51.99L40.0283 55.0269Z" fill="#263640"/>
<path d="M34.7139 50.9263H37.655V51.7841H36.6602V56.9314H35.7087V51.7841H34.7139V50.9263Z" fill="#263640"/>
<path d="M31.3959 55.5502C31.3959 55.7675 31.4391 55.922 31.5256 56.0135C31.6179 56.0993 31.739 56.1422 31.889 56.1422C32.0389 56.1422 32.1571 56.0993 32.2436 56.0135C32.3359 55.922 32.382 55.7675 32.382 55.5502V52.3075C32.382 52.0901 32.3359 51.9386 32.2436 51.8528C32.1571 51.7613 32.0389 51.7155 31.889 51.7155C31.739 51.7155 31.6179 51.7613 31.5256 51.8528C31.4391 51.9386 31.3959 52.0901 31.3959 52.3075V55.5502ZM30.4443 52.3675C30.4443 51.8814 30.5683 51.5096 30.8163 51.2523C31.0643 50.9892 31.4218 50.8577 31.889 50.8577C32.3561 50.8577 32.7136 50.9892 32.9616 51.2523C33.2096 51.5096 33.3336 51.8814 33.3336 52.3675V55.4902C33.3336 55.9763 33.2096 56.3509 32.9616 56.614C32.7136 56.8713 32.3561 57 31.889 57C31.4218 57 31.0643 56.8713 30.8163 56.614C30.5683 56.3509 30.4443 55.9763 30.4443 55.4902V52.3675Z" fill="#263640"/>
<path d="M27.6416 50.9263C28.1203 50.9263 28.4749 51.0521 28.7056 51.3037C28.9421 51.5554 29.0603 51.9243 29.0603 52.4104V53.191C29.0603 53.6772 28.9421 54.0461 28.7056 54.2977C28.4749 54.5493 28.1203 54.6752 27.6416 54.6752H27.1918V56.9314H26.2402V50.9263H27.6416ZM27.1918 51.7841V53.8173H27.6416C27.7916 53.8173 27.9069 53.7773 27.9876 53.6972C28.0684 53.6171 28.1087 53.4684 28.1087 53.2511V52.3503C28.1087 52.133 28.0684 51.9843 27.9876 51.9042C27.9069 51.8242 27.7916 51.7841 27.6416 51.7841H27.1918Z" fill="#263640"/>
<path d="M22.6625 55.5502C22.6625 55.7675 22.7057 55.922 22.7922 56.0135C22.8845 56.0993 23.0056 56.1422 23.1556 56.1422C23.3055 56.1422 23.4237 56.0993 23.5102 56.0135C23.6025 55.922 23.6486 55.7675 23.6486 55.5502V52.3075C23.6486 52.0901 23.6025 51.9386 23.5102 51.8528C23.4237 51.7613 23.3055 51.7155 23.1556 51.7155C23.0056 51.7155 22.8845 51.7613 22.7922 51.8528C22.7057 51.9386 22.6625 52.0901 22.6625 52.3075V55.5502ZM21.7109 52.3675C21.7109 51.8814 21.8349 51.5096 22.0829 51.2523C22.3309 50.9892 22.6884 50.8577 23.1556 50.8577C23.6227 50.8577 23.9802 50.9892 24.2282 51.2523C24.4762 51.5096 24.6002 51.8814 24.6002 52.3675V55.4902C24.6002 55.9763 24.4762 56.3509 24.2282 56.614C23.9802 56.8713 23.6227 57 23.1556 57C22.6884 57 22.3309 56.8713 22.0829 56.614C21.8349 56.3509 21.7109 55.9763 21.7109 55.4902V52.3675Z" fill="#263640"/>
<path d="M18.6899 50.9263C19.1858 50.9263 19.5434 51.0407 19.7625 51.2694C19.9875 51.4982 20.0999 51.8442 20.0999 52.3074V52.5219C20.0999 52.8307 20.0509 53.0852 19.9529 53.2854C19.8548 53.4856 19.6991 53.6343 19.4857 53.7315C19.7452 53.8287 19.9269 53.9889 20.0307 54.2119C20.1403 54.4292 20.1951 54.698 20.1951 55.0183V55.5073C20.1951 55.9706 20.074 56.3251 19.8318 56.5711C19.5895 56.8113 19.2291 56.9314 18.7504 56.9314H17.2539V50.9263H18.6899ZM18.2055 54.2291V56.0735H18.7504C18.9119 56.0735 19.033 56.0306 19.1138 55.9448C19.2003 55.859 19.2435 55.7046 19.2435 55.4816V54.9583C19.2435 54.678 19.1945 54.4864 19.0965 54.3835C19.0042 54.2805 18.8485 54.2291 18.6293 54.2291H18.2055ZM18.2055 51.7841V53.3712H18.5774C18.7562 53.3712 18.8946 53.3254 18.9927 53.2339C19.0965 53.1424 19.1484 52.9766 19.1484 52.7364V52.4018C19.1484 52.1845 19.108 52.0272 19.0273 51.93C18.9523 51.8328 18.8312 51.7841 18.6639 51.7841H18.2055Z" fill="#263640"/>
<path d="M77.5297 46.4381H78.8359V47.2959H77.5297V49.0546H79.1733V49.9124H76.5781V43.9073H79.1733V44.7652H77.5297V46.4381Z" fill="#263640"/>
<path d="M72.9814 49.9124H72.0039V43.9073H72.8517V47.5018L73.8292 43.9073H75.0229V49.9124H74.1665V45.563L72.9814 49.9124Z" fill="#263640"/>
<path d="M68.8033 47.519L68.5092 48.068V49.9124H67.5576V43.9073H68.5092V46.5239L69.7721 43.9073H70.7064L69.3829 46.5839L70.7064 49.9124H69.7289L68.8033 47.519Z" fill="#263640"/>
<path d="M66.0893 47.6734V48.4712C66.0893 48.9574 65.9682 49.332 65.726 49.5951C65.4895 49.8524 65.1378 49.9811 64.6706 49.9811C64.2035 49.9811 63.8488 49.8524 63.6066 49.5951C63.3702 49.332 63.252 48.9574 63.252 48.4712V45.3486C63.252 44.8625 63.3702 44.4907 63.6066 44.2334C63.8488 43.9703 64.2035 43.8387 64.6706 43.8387C65.1378 43.8387 65.4895 43.9703 65.726 44.2334C65.9682 44.4907 66.0893 44.8625 66.0893 45.3486V45.932H65.1897V45.2885C65.1897 45.0712 65.1435 44.9197 65.0513 44.8339C64.9647 44.7424 64.8465 44.6966 64.6966 44.6966C64.5466 44.6966 64.4255 44.7424 64.3333 44.8339C64.2468 44.9197 64.2035 45.0712 64.2035 45.2885V48.5313C64.2035 48.7486 64.2468 48.9002 64.3333 48.986C64.4255 49.0718 64.5466 49.1147 64.6966 49.1147C64.8465 49.1147 64.9647 49.0718 65.0513 48.986C65.1435 48.9002 65.1897 48.7486 65.1897 48.5313V47.6734H66.0893Z" fill="#263640"/>
<path d="M60.266 46.4381H61.5722V47.2959H60.266V49.0546H61.9096V49.9124H59.3145V43.9073H61.9096V44.7652H60.266V46.4381Z" fill="#263640"/>
<path d="M55.8217 43.9073V46.2236C55.8217 46.4409 55.8649 46.5925 55.9514 46.6783C56.0437 46.7641 56.1648 46.807 56.3147 46.807C56.4589 46.807 56.5743 46.7698 56.6608 46.6954C56.7473 46.6154 56.7963 46.481 56.8078 46.2922V43.9073H57.7594V49.9124H56.8078V47.6048C56.7271 47.6334 56.6435 47.6534 56.557 47.6648C56.4762 47.6705 56.3868 47.6734 56.2888 47.6734C55.8217 47.6734 55.467 47.5447 55.2248 47.2874C54.9883 47.0243 54.8701 46.6497 54.8701 46.1635V43.9073H55.8217Z" fill="#263640"/>
<path d="M51.4912 49.9124H50.5137V43.9073H51.3614V47.5018L52.3389 43.9073H53.5327V49.9124H52.6763V45.563L51.4912 49.9124Z" fill="#263640"/>
<path d="M46.2715 43.9073H49.2126V44.7652H48.2178V49.9124H47.2663V44.7652H46.2715V43.9073Z" fill="#263640"/>
<path d="M45.2308 49.9124H44.2706L44.1063 48.8229H42.9384L42.7741 49.9124H41.9004L42.8692 43.9073H44.262L45.2308 49.9124ZM43.0596 48.008H43.9765L43.518 44.9711L43.0596 48.008Z" fill="#263640"/>
<path d="M38.6307 48.171L39.2794 43.9073H40.603V49.9124H39.7033V45.6059L39.0459 49.9124H38.1462L37.4369 45.666V49.9124H36.6064V43.9073H37.93L38.6307 48.171Z" fill="#263640"/>
<path d="M33.2025 48.5313C33.2025 48.7486 33.2458 48.903 33.3323 48.9945C33.4246 49.0803 33.5457 49.1232 33.6956 49.1232C33.8455 49.1232 33.9638 49.0803 34.0503 48.9945C34.1426 48.903 34.1887 48.7486 34.1887 48.5313V45.2885C34.1887 45.0712 34.1426 44.9197 34.0503 44.8339C33.9638 44.7424 33.8455 44.6966 33.6956 44.6966C33.5457 44.6966 33.4246 44.7424 33.3323 44.8339C33.2458 44.9197 33.2025 45.0712 33.2025 45.2885V48.5313ZM32.251 45.3486C32.251 44.8625 32.375 44.4907 32.6229 44.2334C32.8709 43.9703 33.2285 43.8387 33.6956 43.8387C34.1627 43.8387 34.5203 43.9703 34.7683 44.2334C35.0162 44.4907 35.1402 44.8625 35.1402 45.3486V48.4712C35.1402 48.9574 35.0162 49.332 34.7683 49.5951C34.5203 49.8524 34.1627 49.9811 33.6956 49.9811C33.2285 49.9811 32.8709 49.8524 32.6229 49.5951C32.375 49.332 32.251 48.9574 32.251 48.4712V45.3486Z" fill="#263640"/>
<path d="M28.0957 43.9073H31.0369V44.7652H30.0421V49.9124H29.0905V44.7652H28.0957V43.9073Z" fill="#263640"/>
<path d="M25.4204 43.9073C25.9163 43.9073 26.2739 44.0217 26.493 44.2505C26.7179 44.4793 26.8304 44.8253 26.8304 45.2885V45.503C26.8304 45.8118 26.7814 46.0663 26.6833 46.2665C26.5853 46.4667 26.4296 46.6154 26.2162 46.7126C26.4757 46.8098 26.6574 46.9699 26.7612 47.193C26.8708 47.4103 26.9255 47.6791 26.9255 47.9994V48.4884C26.9255 48.9516 26.8044 49.3062 26.5622 49.5521C26.32 49.7923 25.9596 49.9124 25.4809 49.9124H23.9844V43.9073H25.4204ZM24.9359 47.2102V49.0546H25.4809C25.6424 49.0546 25.7635 49.0117 25.8442 48.9259C25.9307 48.8401 25.974 48.6857 25.974 48.4626V47.9393C25.974 47.6591 25.925 47.4675 25.8269 47.3646C25.7347 47.2616 25.5789 47.2102 25.3598 47.2102H24.9359ZM24.9359 44.7652V46.3523H25.3079C25.4867 46.3523 25.6251 46.3065 25.7231 46.215C25.8269 46.1235 25.8788 45.9577 25.8788 45.7175V45.3829C25.8788 45.1656 25.8385 45.0083 25.7577 44.9111C25.6828 44.8138 25.5616 44.7652 25.3944 44.7652H24.9359Z" fill="#263640"/>
<path d="M22.684 49.9124H21.7237L21.5594 48.8229H20.3916L20.2272 49.9124H19.3535L20.3224 43.9073H21.7151L22.684 49.9124ZM20.5127 48.008H21.4296L20.9712 44.9711L20.5127 48.008Z" fill="#263640"/>
<path fill-rule="evenodd" clip-rule="evenodd" d="M49.1505 33.9249H46.0049V42.5037H71.5631C80.5 42.5037 84.9321 25.3461 73.9224 20.277C82 17.5 80.5 4.48316e-05 69.5971 4.48316e-05C60.7993 -5.60395e-05 32.2427 4.48316e-05 32.2427 4.48316e-05L35.3884 8.96869H49.1505V33.9249ZM0 56.9315H12.5825L19.267 32.7551H27.9175L30.2767 42.5037H43.2524V33.9249H40.5L29 4.48316e-05H18.5L0 56.9315ZM20.0537 25.736H26.7382L23.5925 10.5283L20.0537 25.736ZM59.3738 7.01885H62.9616C66.192 7.01885 68.8107 9.63759 68.8107 12.868C68.8107 16.0984 66.192 18.7171 62.9616 18.7171H59.3738V7.01885ZM64.5344 23.3964H59.3738V35.0946H64.5344C67.7648 35.0946 70.3835 32.4759 70.3835 29.2455C70.3835 26.0151 67.7648 23.3964 64.5344 23.3964Z" fill="#DE2A10"/>
</svg>
