<svg width="347" height="57" viewBox="0 0 347 57" fill="none" xmlns="http://www.w3.org/2000/svg">
<path fill-rule="evenodd" clip-rule="evenodd" d="M56.7 56.7H0V0H56.7V56.7Z" fill="white"/>
<path fill-rule="evenodd" clip-rule="evenodd" d="M31.7996 30.6001H30.5996V54.4001H35.1996C36.1996 53.2001 36.9996 51.9001 37.5996 50.4001C40.4996 43.1001 37.9996 35.0001 31.7996 30.6001ZM38.5996 54.4001H54.3996V44.5001C47.4996 44.2001 41.1996 48.2001 38.5996 54.4001ZM36.5996 30.6001C39.2996 37.8001 46.6996 42.3001 54.3996 41.2001V30.6001H36.5996Z" fill="#D60B52"/>
<path fill-rule="evenodd" clip-rule="evenodd" d="M42.9996 48.4001C45.3996 49.8001 47.4996 51.9001 48.8996 54.4001H54.3996V44.5001C50.0996 44.3001 46.0996 45.8001 42.9996 48.4001ZM30.5996 43.8001V54.4001H35.1996C36.1996 53.2001 36.9996 51.9001 37.5996 50.4001C38.8996 47.3001 39.1996 44.0001 38.4996 40.9001C36.0996 42.6001 33.3996 43.6001 30.5996 43.8001ZM48.3996 30.6001H36.5996C38.1996 35.0001 41.6996 38.4001 45.7996 40.1001C45.6996 36.7001 46.5996 33.4001 48.3996 30.6001Z" fill="#A61F5E"/>
<path fill-rule="evenodd" clip-rule="evenodd" d="M19.8998 42.5001C22.9998 39.3001 25.1999 35.2001 26.0999 30.6001H2.2998V54.4001H26.0999C25.0999 49.9001 22.8998 45.8001 19.8998 42.5001Z" fill="#64B8E1"/>
<path fill-rule="evenodd" clip-rule="evenodd" d="M19.2998 30.6001H2.2998V34.9001C6.4998 34.9001 10.4998 36.0001 13.8998 37.9001C15.9998 35.8001 17.8998 33.3001 19.2998 30.6001ZM13.8998 47.1001C10.3998 49.0001 6.4998 50.1001 2.2998 50.1001V54.4001H19.2998C17.8998 51.7001 15.9998 49.2001 13.8998 47.1001Z" fill="#BEE2E9"/>
<path fill-rule="evenodd" clip-rule="evenodd" d="M2.2998 35V40.1C4.2998 40.7 6.19979 41.6 7.89979 42.6C10.0998 41.3 12.0998 39.8 13.8998 38C10.3998 36 6.4998 35 2.2998 35ZM2.2998 45V50.1C6.4998 50.1 10.4998 49 13.8998 47.1C12.0998 45.3 10.0998 43.8 7.89979 42.5C6.09979 43.5 4.1998 44.4 2.2998 45Z" fill="#0085BA"/>
<path fill-rule="evenodd" clip-rule="evenodd" d="M30.5996 26.1001H54.3996V15.8H30.5996V26.1001ZM30.5996 2.30005V13.6001H54.3996V2.30005H30.5996Z" fill="#BCCF00"/>
<path fill-rule="evenodd" clip-rule="evenodd" d="M30.5996 22.8H54.3996V17.9001H30.5996V22.8ZM30.5996 2.30005V10.7H54.3996V2.30005H30.5996Z" fill="#3AAA35"/>
<path fill-rule="evenodd" clip-rule="evenodd" d="M14.5999 18.9001C12.9999 17.9001 11.6998 16.6001 10.6998 15.1001C10.2998 13.4001 10.4998 11.6001 11.4998 10.0001C13.3998 6.90006 17.4998 5.90005 20.6998 7.80005C23.7998 9.70005 24.7998 13.8001 22.8998 17.0001C22.5998 17.5001 22.1998 17.9 21.7998 18.3C20.6998 19 19.4998 19.5001 18.1998 19.6001C21.1998 19.9001 24.1999 18.6001 26.0999 16.1001V2.30005H2.2998V26.1001H26.0999V19.8C22.3999 21.3 18.1999 21.1001 14.5999 18.9001Z" fill="#FBBA00"/>
<path fill-rule="evenodd" clip-rule="evenodd" d="M9.5998 13.0999C8.89981 10.2999 9.19979 7.09996 10.8998 4.39996C11.3998 3.59996 11.9998 2.79995 12.6998 2.19995H9.99975C8.1998 5.69995 8.0998 9.69998 9.5998 13.0999ZM22.4998 26.0999H26.0999V23.6999C24.9999 24.5999 23.7998 25.3999 22.4998 26.0999ZM3.69979 2.29996H2.2998V4.29996C2.3998 4.19996 2.3998 4.09997 2.4998 3.99997C2.7998 3.39997 3.19979 2.79996 3.69979 2.29996ZM2.2998 19.9999V26.0999H8.89979C8.49979 25.8999 7.9998 25.5999 7.5998 25.3999C5.2998 23.9999 3.4998 22.0999 2.2998 19.9999Z" fill="#F39200"/>
<path fill-rule="evenodd" clip-rule="evenodd" d="M14.6001 18.9001C8.9001 15.4001 7.0001 8.10005 10.0001 2.30005H6.40009C2.50009 8.60005 4.5001 16.8 10.7001 20.7C15.6001 23.7 21.8001 23.2 26.1001 19.8C22.4001 21.3 18.2001 21.1001 14.6001 18.9001ZM23.6001 3.00006C23.1001 2.70006 22.6001 2.50005 22.2001 2.30005H15.6001C13.8001 3.00005 12.3001 4.20005 11.2001 5.90005C10.4001 7.20006 10.0001 8.60007 9.90009 10.1001C10.1001 9.30007 10.4001 8.50005 10.8001 7.80005C13.0001 4.20005 17.8001 3.00005 21.5001 5.30005C25.1001 7.50005 26.3001 12.3001 24.0001 16.0001C22.7001 18.2001 20.4001 19.4001 18.1001 19.6001C21.1001 19.9001 24.1001 18.6001 26.0001 16.1001V5.20004C25.4001 4.30004 24.6001 3.60006 23.6001 3.00006Z" fill="#EF7D00"/>
<path d="M65 28.6985H347" stroke="#263640"/>
<path d="M346 46.0432H344.322V41.8872H340.205V46.0432H338.527V36.6824H340.205V40.4582H344.322V36.6824H346V46.0432Z" fill="#263640"/>
<path d="M334.322 37.9671C333.894 37.9671 333.513 38.0457 333.181 38.2031C332.849 38.3604 332.565 38.5876 332.329 38.8848C332.102 39.182 331.927 39.5403 331.805 39.9598C331.691 40.3794 331.634 40.8513 331.634 41.3758C331.634 42.0837 331.73 42.6912 331.923 43.1981C332.115 43.6963 332.408 44.0809 332.801 44.3518C333.203 44.6228 333.706 44.7582 334.309 44.7582C334.711 44.7582 335.095 44.7189 335.463 44.6402C335.838 44.5528 336.232 44.4392 336.642 44.2994V45.7284C336.258 45.8857 335.869 45.9994 335.476 46.0693C335.091 46.1392 334.645 46.1742 334.138 46.1742C333.177 46.1742 332.382 45.9775 331.752 45.5842C331.123 45.1821 330.655 44.6228 330.349 43.9061C330.044 43.1806 329.891 42.3328 329.891 41.3627C329.891 40.6547 329.987 40.0079 330.179 39.4223C330.38 38.8367 330.664 38.3298 331.031 37.9015C331.407 37.4732 331.87 37.1411 332.421 36.9051C332.972 36.6691 333.605 36.5511 334.322 36.5511C334.794 36.5511 335.257 36.608 335.712 36.7216C336.175 36.8265 336.608 36.975 337.01 37.1673L336.433 38.5439C336.101 38.3953 335.755 38.2642 335.397 38.1506C335.047 38.0282 334.689 37.9671 334.322 37.9671Z" fill="#263640"/>
<path d="M328.479 46.0432H323.156V36.6824H328.479V38.0852H324.834V40.4713H328.243V41.8741H324.834V44.6273H328.479V46.0432Z" fill="#263640"/>
<path d="M319.168 46.0432H317.489V38.0983H314.802V36.6824H321.855V38.0983H319.168V46.0432Z" fill="#263640"/>
<path d="M313.568 42.7394C313.568 43.3861 313.429 43.9717 313.149 44.4962C312.878 45.0118 312.463 45.4226 311.903 45.7285C311.344 46.0257 310.636 46.1743 309.78 46.1743C308.565 46.1743 307.643 45.8596 307.013 45.2303C306.384 44.5923 306.069 43.7532 306.069 42.7131V36.6824H307.747V42.5427C307.747 43.3031 307.922 43.8625 308.272 44.2208C308.621 44.5704 309.142 44.7453 309.832 44.7453C310.321 44.7453 310.715 44.6622 311.012 44.4962C311.318 44.3301 311.541 44.081 311.681 43.7489C311.829 43.408 311.903 43.0016 311.903 42.5296V36.6824H313.568V42.7394Z" fill="#263640"/>
<path d="M299.198 46.0432V36.6824H300.876V44.6273H304.783V46.0432H299.198Z" fill="#263640"/>
<path d="M296.315 46.0432L295.463 43.5653H291.937L291.097 46.0432H289.314L292.749 36.6431H294.663L298.098 46.0432H296.315ZM294.218 39.7109C294.183 39.5885 294.13 39.4225 294.06 39.2127C293.99 39.0029 293.921 38.7888 293.851 38.5703C293.789 38.343 293.741 38.1551 293.706 38.0065C293.663 38.1813 293.606 38.3824 293.536 38.6096C293.475 38.8369 293.414 39.051 293.352 39.252C293.3 39.4531 293.256 39.606 293.221 39.7109L292.395 42.1232H295.031L294.218 39.7109Z" fill="#263640"/>
<path d="M279.005 46.0432V36.6824H280.683V40.4188H281.837C282.711 40.4188 283.419 40.5412 283.961 40.7859C284.511 41.0219 284.913 41.3497 285.167 41.7692C285.42 42.1887 285.547 42.6607 285.547 43.1851C285.547 43.7795 285.416 44.2908 285.154 44.719C284.891 45.1386 284.489 45.4663 283.947 45.7023C283.406 45.9296 282.711 46.0432 281.863 46.0432H279.005ZM281.771 44.6535C282.427 44.6535 282.934 44.5399 283.292 44.3126C283.659 44.0854 283.843 43.7095 283.843 43.1851C283.843 42.8268 283.751 42.5514 283.567 42.3592C283.392 42.1581 283.139 42.0183 282.807 41.9396C282.484 41.8522 282.081 41.8085 281.601 41.8085H280.683V44.6535H281.771Z" fill="#263640"/>
<path d="M276.691 46.0432H275.013V38.0983H272.47C272.417 38.5353 272.361 39.0029 272.299 39.5011C272.238 39.9906 272.173 40.4844 272.103 40.9826C272.033 41.472 271.963 41.9396 271.893 42.3854C271.823 42.8224 271.753 43.207 271.683 43.5391C271.57 44.0985 271.421 44.5792 271.238 44.9812C271.063 45.3745 270.818 45.6717 270.503 45.8727C270.197 46.0738 269.8 46.1743 269.31 46.1743C269.144 46.1743 268.983 46.1612 268.825 46.135C268.668 46.1087 268.524 46.0738 268.393 46.0301V44.6404C268.506 44.6841 268.62 44.719 268.733 44.7453C268.847 44.7715 268.969 44.7846 269.101 44.7846C269.31 44.7846 269.476 44.7103 269.599 44.5617C269.73 44.4131 269.839 44.1946 269.926 43.9062C270.014 43.609 270.097 43.2463 270.176 42.818C270.228 42.5908 270.285 42.2761 270.346 41.8741C270.407 41.472 270.477 41.0001 270.556 40.4582C270.643 39.9163 270.731 39.3263 270.818 38.6883C270.914 38.0415 271.002 37.3729 271.08 36.6824H276.691V46.0432Z" fill="#263640"/>
<path d="M267.689 46.0432H262.366V36.6824H267.689V38.0852H264.044V40.4713H267.453V41.8741H264.044V44.6273H267.689V46.0432Z" fill="#263640"/>
<path d="M258.377 46.0432H256.698V38.0983H254.011V36.6824H261.064V38.0983H258.377V46.0432Z" fill="#263640"/>
<path d="M244.641 36.6824H246.161V41.4414C246.161 41.6599 246.157 41.9047 246.148 42.1756C246.148 42.4378 246.144 42.6957 246.135 42.9491C246.126 43.2026 246.113 43.4255 246.096 43.6178C246.087 43.81 246.078 43.9455 246.07 44.0242H246.122L250.763 36.6824H252.73V46.0432H251.209V41.3234C251.209 41.0875 251.213 40.8296 251.222 40.5499C251.231 40.2702 251.24 39.9993 251.248 39.7371C251.266 39.4749 251.279 39.2476 251.288 39.0554C251.305 38.8543 251.318 38.7145 251.327 38.6358H251.274L246.62 46.0432H244.641V36.6824Z" fill="#263640"/>
<path d="M238.884 36.6824C239.697 36.6824 240.379 36.761 240.929 36.9184C241.48 37.0669 241.891 37.3117 242.162 37.6525C242.441 37.9934 242.581 38.4523 242.581 39.0291C242.581 39.3875 242.52 39.7109 242.398 39.9993C242.275 40.2877 242.096 40.5237 241.86 40.7073C241.633 40.8908 241.349 41.0132 241.008 41.0743V41.1399C241.358 41.2011 241.668 41.3147 241.939 41.4808C242.219 41.6381 242.437 41.8697 242.594 42.1756C242.76 42.4728 242.843 42.8661 242.843 43.3556C242.843 43.9237 242.708 44.4088 242.437 44.8108C242.166 45.2129 241.777 45.5188 241.27 45.7285C240.772 45.9383 240.178 46.0432 239.487 46.0432H236.065V36.6824H238.884ZM239.107 40.4975C239.771 40.4975 240.226 40.3926 240.471 40.1828C240.724 39.9731 240.851 39.6628 240.851 39.252C240.851 38.8325 240.702 38.5309 240.405 38.3474C240.108 38.1638 239.631 38.0721 238.976 38.0721H237.744V40.4975H239.107ZM237.744 41.8479V44.6404H239.264C239.946 44.6404 240.418 44.5093 240.68 44.2471C240.951 43.9849 241.087 43.6352 241.087 43.1982C241.087 42.9185 241.03 42.6782 240.916 42.4772C240.803 42.2761 240.606 42.1232 240.326 42.0183C240.047 41.9047 239.666 41.8479 239.186 41.8479H237.744Z" fill="#263640"/>
<path d="M233.183 46.0432L232.33 43.5653H228.804L227.965 46.0432H226.182L229.617 36.6431H231.531L234.966 46.0432H233.183ZM231.085 39.7109C231.05 39.5885 230.998 39.4225 230.928 39.2127C230.858 39.0029 230.788 38.7888 230.718 38.5703C230.657 38.343 230.609 38.1551 230.574 38.0065C230.53 38.1813 230.473 38.3824 230.403 38.6096C230.342 38.8369 230.281 39.051 230.22 39.252C230.167 39.4531 230.123 39.606 230.089 39.7109L229.263 42.1232H231.898L231.085 39.7109Z" fill="#263640"/>
<path d="M224.333 46.0432H222.654V38.0983H219.967V36.6824H227.02V38.0983H224.333V46.0432Z" fill="#263640"/>
<path d="M216.771 37.9671C216.343 37.9671 215.963 38.0457 215.631 38.2031C215.298 38.3604 215.014 38.5876 214.778 38.8848C214.551 39.182 214.376 39.5403 214.254 39.9598C214.14 40.3794 214.084 40.8513 214.084 41.3758C214.084 42.0837 214.18 42.6912 214.372 43.1981C214.564 43.6963 214.857 44.0809 215.25 44.3518C215.652 44.6228 216.155 44.7582 216.758 44.7582C217.16 44.7582 217.545 44.7189 217.912 44.6402C218.288 44.5528 218.681 44.4392 219.092 44.2994V45.7284C218.707 45.8857 218.318 45.9994 217.925 46.0693C217.54 46.1392 217.095 46.1742 216.588 46.1742C215.626 46.1742 214.831 45.9775 214.202 45.5842C213.572 45.1821 213.105 44.6228 212.799 43.9061C212.493 43.1806 212.34 42.3328 212.34 41.3627C212.34 40.6547 212.436 40.0079 212.628 39.4223C212.829 38.8367 213.113 38.3298 213.48 37.9015C213.856 37.4732 214.32 37.1411 214.87 36.9051C215.421 36.6691 216.054 36.5511 216.771 36.5511C217.243 36.5511 217.706 36.608 218.161 36.7216C218.624 36.8265 219.057 36.975 219.459 37.1673L218.882 38.5439C218.55 38.3953 218.205 38.2642 217.846 38.1506C217.497 38.0282 217.138 37.9671 216.771 37.9671Z" fill="#263640"/>
<path d="M210.198 36.6824V44.6141H211.431V48.6653H209.805V46.0432H203.735V48.6653H202.109V44.6141H202.83C203.101 44.1072 203.359 43.5609 203.604 42.9754C203.857 42.381 204.085 41.7517 204.286 41.0875C204.495 40.4232 204.675 39.724 204.823 38.9898C204.981 38.2469 205.099 37.4777 205.177 36.6824H210.198ZM206.541 38.1114C206.488 38.5834 206.401 39.0991 206.278 39.6584C206.156 40.2178 206.008 40.7903 205.833 41.3759C205.667 41.9615 205.479 42.534 205.269 43.0933C205.059 43.644 204.836 44.1509 204.6 44.6141H208.533V38.1114H206.541Z" fill="#263640"/>
<path d="M201.407 46.0432H196.084V36.6824H201.407V38.0852H197.762V40.4713H201.171V41.8741H197.762V44.6273H201.407V46.0432Z" fill="#263640"/>
<path d="M190.89 36.6824C192.105 36.6824 192.988 36.9358 193.538 37.4428C194.098 37.9497 194.378 38.6489 194.378 39.5404C194.378 39.9425 194.316 40.3271 194.194 40.6941C194.072 41.0525 193.866 41.3759 193.578 41.6643C193.289 41.9527 192.909 42.18 192.437 42.3461C191.974 42.5121 191.397 42.5952 190.707 42.5952H189.776V46.0432H188.098V36.6824H190.89ZM190.785 38.0721H189.776V41.2055H190.536C190.991 41.2055 191.375 41.153 191.69 41.0481C192.013 40.9345 192.258 40.7597 192.424 40.5237C192.59 40.2877 192.673 39.9818 192.673 39.606C192.673 39.0903 192.52 38.7057 192.214 38.4523C191.908 38.1988 191.432 38.0721 190.785 38.0721Z" fill="#263640"/>
<path d="M178.524 46.0432V36.6824H185.788V46.0432H184.109V38.0983H180.203V46.0432H178.524Z" fill="#263640"/>
<path d="M171.962 33.667C171.927 34.1127 171.809 34.5017 171.608 34.8338C171.407 35.1572 171.101 35.4063 170.69 35.5811C170.288 35.7559 169.746 35.8433 169.064 35.8433C168.374 35.8433 167.828 35.7603 167.426 35.5942C167.024 35.4194 166.735 35.1703 166.56 34.8469C166.394 34.5235 166.294 34.1302 166.259 33.667H167.74C167.784 34.1477 167.906 34.4667 168.107 34.624C168.317 34.7814 168.649 34.86 169.104 34.86C169.488 34.86 169.799 34.777 170.035 34.6109C170.271 34.4361 170.41 34.1215 170.454 33.667H171.962ZM164.869 36.6824H166.39V41.4414C166.39 41.6599 166.386 41.9047 166.377 42.1756C166.377 42.4378 166.372 42.6957 166.364 42.9491C166.355 43.2026 166.342 43.4255 166.324 43.6178C166.316 43.8101 166.307 43.9455 166.298 44.0242H166.351L170.992 36.6824H172.958V46.0432H171.437V41.3234C171.437 41.0875 171.442 40.8296 171.451 40.5499C171.459 40.2702 171.468 39.9993 171.477 39.7371C171.494 39.4749 171.507 39.2476 171.516 39.0554C171.534 38.8543 171.547 38.7145 171.555 38.6358H171.503L166.849 46.0432H164.869V36.6824Z" fill="#263640"/>
<path d="M153.362 46.0432V36.6824H155.04V40.4188H155.984C156.85 40.4188 157.549 40.5412 158.082 40.7859C158.624 41.0219 159.017 41.3497 159.262 41.7692C159.515 42.1887 159.642 42.6607 159.642 43.1851C159.642 43.7795 159.511 44.2908 159.249 44.719C158.995 45.1386 158.598 45.4663 158.056 45.7023C157.523 45.9296 156.837 46.0432 155.997 46.0432H153.362ZM155.919 44.6535C156.566 44.6535 157.059 44.5399 157.4 44.3126C157.75 44.0854 157.925 43.7095 157.925 43.1851C157.925 42.8268 157.846 42.5514 157.689 42.3592C157.531 42.1581 157.291 42.0183 156.968 41.9396C156.653 41.861 156.264 41.8216 155.801 41.8216H155.04V44.6535H155.919ZM160.888 46.0432V36.6824H162.566V46.0432H160.888Z" fill="#263640"/>
<path d="M151.057 46.0432H149.379V41.8872H145.262V46.0432H143.584V36.6824H145.262V40.4582H149.379V36.6824H151.057V46.0432Z" fill="#263640"/>
<path d="M135.329 46.0432V36.6824H137.007V40.4188H138.161C139.035 40.4188 139.743 40.5412 140.285 40.7859C140.835 41.0219 141.238 41.3497 141.491 41.7692C141.744 42.1887 141.871 42.6607 141.871 43.1851C141.871 43.7795 141.74 44.2908 141.478 44.719C141.216 45.1386 140.814 45.4663 140.272 45.7023C139.73 45.9296 139.035 46.0432 138.187 46.0432H135.329ZM138.095 44.6535C138.751 44.6535 139.258 44.5399 139.616 44.3126C139.983 44.0854 140.167 43.7095 140.167 43.1851C140.167 42.8268 140.075 42.5514 139.892 42.3592C139.717 42.1581 139.463 42.0183 139.131 41.9396C138.808 41.8522 138.406 41.8085 137.925 41.8085H137.007V44.6535H138.095Z" fill="#263640"/>
<path d="M133.016 46.0432H131.338V38.0983H128.794C128.742 38.5353 128.685 39.0029 128.624 39.5011C128.563 39.9906 128.497 40.4844 128.427 40.9826C128.357 41.472 128.287 41.9396 128.217 42.3854C128.147 42.8224 128.077 43.207 128.007 43.5391C127.894 44.0985 127.745 44.5792 127.562 44.9812C127.387 45.3745 127.142 45.6717 126.828 45.8727C126.522 46.0738 126.124 46.1743 125.635 46.1743C125.468 46.1743 125.307 46.1612 125.149 46.135C124.992 46.1087 124.848 46.0738 124.717 46.0301V44.6404C124.83 44.6841 124.944 44.719 125.058 44.7453C125.171 44.7715 125.294 44.7846 125.425 44.7846C125.635 44.7846 125.801 44.7103 125.923 44.5617C126.054 44.4131 126.163 44.1946 126.251 43.9062C126.338 43.609 126.421 43.2463 126.5 42.818C126.552 42.5908 126.609 42.2761 126.67 41.8741C126.731 41.472 126.801 41.0001 126.88 40.4582C126.967 39.9163 127.055 39.3263 127.142 38.6883C127.238 38.0415 127.326 37.3729 127.404 36.6824H133.016V46.0432Z" fill="#263640"/>
<path d="M122.988 46.0432L122.136 43.5653H118.609L117.77 46.0432H115.987L119.422 36.6431H121.336L124.771 46.0432H122.988ZM120.891 39.7109C120.856 39.5885 120.803 39.4225 120.733 39.2127C120.663 39.0029 120.593 38.7888 120.523 38.5703C120.462 38.343 120.414 38.1551 120.379 38.0065C120.336 38.1813 120.279 38.3824 120.209 38.6096C120.148 38.8369 120.086 39.051 120.025 39.252C119.973 39.4531 119.929 39.606 119.894 39.7109L119.068 42.1232H121.703L120.891 39.7109Z" fill="#263640"/>
<path d="M106.826 36.6824H108.347V41.4414C108.347 41.6599 108.343 41.9047 108.334 42.1756C108.334 42.4378 108.329 42.6957 108.321 42.9491C108.312 43.2026 108.299 43.4255 108.281 43.6178C108.273 43.81 108.264 43.9455 108.255 44.0242H108.308L112.949 36.6824H114.915V46.0432H113.394V41.3234C113.394 41.0875 113.399 40.8296 113.408 40.5499C113.416 40.2702 113.425 39.9993 113.434 39.7371C113.451 39.4749 113.464 39.2476 113.473 39.0554C113.491 38.8543 113.504 38.7145 113.512 38.6358H113.46L108.806 46.0432H106.826V36.6824Z" fill="#263640"/>
<path d="M105.48 44.6666V48.6653H103.854V46.0432H96.9189V36.6824H98.5971V44.6141H102.504V36.6824H104.182V44.6666H105.48Z" fill="#263640"/>
<path d="M86.5391 36.6824H88.0599V41.4414C88.0599 41.6599 88.0555 41.9047 88.0468 42.1756C88.0468 42.4378 88.0424 42.6957 88.0336 42.9491C88.0249 43.2026 88.0118 43.4255 87.9943 43.6178C87.9856 43.81 87.9768 43.9455 87.9681 44.0242H88.0205L92.6616 36.6824H94.6282V46.0432H93.1074V41.3234C93.1074 41.0875 93.1117 40.8296 93.1205 40.5499C93.1292 40.2702 93.1379 39.9993 93.1467 39.7371C93.1642 39.4749 93.1773 39.2476 93.186 39.0554C93.2035 38.8543 93.2166 38.7145 93.2254 38.6358H93.1729L88.5187 46.0432H86.5391V36.6824Z" fill="#263640"/>
<path d="M80.7199 36.5511V37.7049C81.7425 37.7311 82.551 37.9059 83.1453 38.2293C83.7484 38.5439 84.1767 38.9635 84.4301 39.4879C84.6923 40.0035 84.8235 40.5717 84.8235 41.1922C84.8235 41.5943 84.7579 42.0051 84.6268 42.4246C84.4957 42.8354 84.2728 43.2112 83.9582 43.5521C83.6435 43.893 83.224 44.1726 82.6996 44.3912C82.1752 44.6009 81.5153 44.7145 80.7199 44.732V46.1742H79.1729V44.732C78.3688 44.7145 77.7002 44.5965 77.167 44.378C76.6426 44.1595 76.2274 43.8798 75.9215 43.539C75.6156 43.1894 75.3971 42.8092 75.266 42.3984C75.1349 41.9876 75.0693 41.5855 75.0693 41.1922C75.0693 40.7377 75.1393 40.3051 75.2791 39.8943C75.4277 39.4748 75.6593 39.1077 75.974 38.793C76.2973 38.4696 76.7212 38.2118 77.2457 38.0195C77.7701 37.8272 78.4125 37.7223 79.1729 37.7049V36.5511H80.7199ZM79.1729 39.0421C78.5523 39.0683 78.0585 39.1732 77.6914 39.3568C77.3331 39.5403 77.0752 39.7894 76.9179 40.1041C76.7606 40.41 76.6819 40.7683 76.6819 41.1791C76.6819 41.6161 76.7693 42.0007 76.9441 42.3328C77.1189 42.6562 77.3899 42.9097 77.757 43.0932C78.1241 43.2768 78.596 43.3817 79.1729 43.4079V39.0421ZM80.7199 43.4079C81.3055 43.3817 81.7818 43.2768 82.1489 43.0932C82.516 42.9009 82.7826 42.6431 82.9487 42.3197C83.1235 41.9963 83.2109 41.6161 83.2109 41.1791C83.2109 40.7683 83.1322 40.41 82.9749 40.1041C82.8263 39.7894 82.5685 39.5403 82.2014 39.3568C81.8343 39.1732 81.3405 39.0683 80.7199 39.0421V43.4079Z" fill="#263640"/>
<path d="M73.8102 41.3497C73.8102 42.0752 73.7184 42.735 73.5349 43.3294C73.36 43.915 73.0891 44.4219 72.722 44.8502C72.3637 45.2785 71.9048 45.6062 71.3454 45.8335C70.7948 46.0607 70.148 46.1743 69.4051 46.1743C68.6534 46.1743 67.9979 46.0607 67.4385 45.8335C66.8879 45.5975 66.4334 45.2697 66.0751 44.8502C65.7167 44.4219 65.4458 43.9106 65.2622 43.3163C65.0874 42.7219 65 42.062 65 41.3366C65 40.3664 65.1573 39.523 65.472 38.8063C65.7954 38.0896 66.2804 37.5346 66.9272 37.1413C67.5827 36.7392 68.4131 36.5382 69.4182 36.5382C70.4058 36.5382 71.2231 36.7392 71.8698 37.1413C72.5166 37.5346 73.0017 38.094 73.3251 38.8194C73.6485 39.5361 73.8102 40.3795 73.8102 41.3497ZM66.7699 41.3497C66.7699 42.0577 66.8617 42.6651 67.0452 43.1721C67.2375 43.679 67.5259 44.0679 67.9105 44.3389C68.3038 44.6098 68.802 44.7453 69.4051 44.7453C70.0256 44.7453 70.5282 44.6098 70.9128 44.3389C71.2973 44.0679 71.5814 43.679 71.765 43.1721C71.9485 42.6651 72.0403 42.0577 72.0403 41.3497C72.0403 40.2921 71.8349 39.4618 71.4241 38.8587C71.0133 38.2557 70.3447 37.9541 69.4182 37.9541C68.8064 37.9541 68.3038 38.0896 67.9105 38.3605C67.5259 38.6315 67.2375 39.0204 67.0452 39.5274C66.8617 40.0343 66.7699 40.6418 66.7699 41.3497Z" fill="#263640"/>
<path d="M342.746 23.7856L341.685 20.3186H336.383L335.322 23.7856H331.998L337.137 9.16309H340.91L346.07 23.7856H342.746ZM339.891 14.3432C339.823 14.112 339.734 13.8197 339.625 13.4662C339.517 13.1127 339.408 12.7524 339.299 12.3853C339.19 12.0182 339.102 11.6987 339.034 11.4268C338.966 11.6987 338.871 12.0386 338.748 12.4465C338.64 12.8408 338.531 13.2215 338.422 13.5886C338.327 13.9421 338.252 14.1936 338.198 14.3432L337.158 17.7286H340.951L339.891 14.3432Z" fill="#263640"/>
<path d="M329.269 23.7856H326.19V11.7939H322.233V9.22424H333.226V11.7939H329.269V23.7856Z" fill="#263640"/>
<path d="M321.467 16.4846C321.467 17.6131 321.324 18.6396 321.038 19.5641C320.766 20.475 320.345 21.2636 319.774 21.9298C319.216 22.596 318.496 23.1059 317.612 23.4594C316.742 23.8129 315.715 23.9896 314.533 23.9896C313.35 23.9896 312.316 23.8129 311.433 23.4594C310.563 23.0923 309.842 22.5824 309.271 21.9298C308.713 21.2636 308.292 20.4682 308.007 19.5437C307.735 18.6192 307.599 17.5927 307.599 16.4642C307.599 14.9551 307.843 13.643 308.333 12.5282C308.836 11.4133 309.597 10.5499 310.617 9.93812C311.65 9.31271 312.962 9 314.553 9C316.13 9 317.429 9.31271 318.448 9.93812C319.468 10.5499 320.223 11.4201 320.712 12.5486C321.215 13.6634 321.467 14.9754 321.467 16.4846ZM310.841 16.4846C310.841 17.5043 310.97 18.3812 311.229 19.1154C311.487 19.8496 311.888 20.4139 312.432 20.8081C312.976 21.2024 313.676 21.3996 314.533 21.3996C315.416 21.3996 316.123 21.2024 316.654 20.8081C317.197 20.4139 317.592 19.8496 317.836 19.1154C318.095 18.3812 318.224 17.5043 318.224 16.4846C318.224 14.9483 317.938 13.745 317.367 12.8749C316.796 12.0047 315.858 11.5696 314.553 11.5696C313.683 11.5696 312.976 11.7668 312.432 12.1611C311.888 12.5554 311.487 13.1196 311.229 13.8538C310.97 14.588 310.841 15.4649 310.841 16.4846Z" fill="#263640"/>
<path d="M300.299 9.22424C302.176 9.22424 303.542 9.63212 304.398 10.4479C305.269 11.25 305.704 12.3581 305.704 13.7721C305.704 14.4111 305.609 15.0229 305.418 15.6076C305.228 16.1786 304.908 16.6953 304.46 17.1575C304.025 17.6062 303.447 17.9597 302.726 18.218C302.006 18.4763 301.115 18.6055 300.055 18.6055H298.729V23.7856H295.649V9.22424H300.299ZM300.136 11.7531H298.729V16.0766H299.749C300.333 16.0766 300.836 16.0019 301.258 15.8523C301.679 15.7027 302.006 15.4648 302.237 15.1385C302.468 14.8122 302.583 14.3907 302.583 13.8741C302.583 13.1535 302.386 12.6232 301.992 12.2833C301.598 11.9298 300.979 11.7531 300.136 11.7531Z" fill="#263640"/>
<path d="M292.837 16.4846C292.837 17.6131 292.694 18.6396 292.408 19.5641C292.136 20.475 291.715 21.2636 291.144 21.9298C290.587 22.596 289.866 23.1059 288.982 23.4594C288.112 23.8129 287.086 23.9896 285.903 23.9896C284.72 23.9896 283.687 23.8129 282.803 23.4594C281.933 23.0923 281.212 22.5824 280.641 21.9298C280.084 21.2636 279.662 20.4682 279.377 19.5437C279.105 18.6192 278.969 17.5927 278.969 16.4642C278.969 14.9551 279.213 13.643 279.703 12.5282C280.206 11.4133 280.967 10.5499 281.987 9.93812C283.02 9.31271 284.332 9 285.923 9C287.5 9 288.799 9.31271 289.818 9.93812C290.838 10.5499 291.593 11.4201 292.082 12.5486C292.585 13.6634 292.837 14.9754 292.837 16.4846ZM282.211 16.4846C282.211 17.5043 282.341 18.3812 282.599 19.1154C282.857 19.8496 283.258 20.4139 283.802 20.8081C284.346 21.2024 285.046 21.3996 285.903 21.3996C286.786 21.3996 287.493 21.2024 288.024 20.8081C288.568 20.4139 288.962 19.8496 289.207 19.1154C289.465 18.3812 289.594 17.5043 289.594 16.4846C289.594 14.9483 289.309 13.745 288.737 12.8749C288.166 12.0047 287.228 11.5696 285.923 11.5696C285.053 11.5696 284.346 11.7668 283.802 12.1611C283.258 12.5554 282.857 13.1196 282.599 13.8538C282.341 14.588 282.211 15.4649 282.211 16.4846Z" fill="#263640"/>
<path d="M270.651 9.22424C271.942 9.22424 273.023 9.34661 273.893 9.59134C274.777 9.82247 275.436 10.21 275.871 10.7538C276.32 11.284 276.544 12.0046 276.544 12.9156C276.544 13.4594 276.456 13.9557 276.279 14.4043C276.103 14.853 275.844 15.2201 275.504 15.5056C275.178 15.7911 274.777 15.9747 274.301 16.0562V16.1582C274.791 16.2534 275.232 16.4233 275.627 16.6681C276.021 16.9128 276.334 17.2663 276.565 17.7285C276.796 18.1908 276.911 18.8026 276.911 19.564C276.911 20.4478 276.694 21.2091 276.259 21.8481C275.837 22.4736 275.226 22.9562 274.423 23.2961C273.621 23.6224 272.67 23.7856 271.568 23.7856H266.123V9.22424H270.651ZM270.997 14.9957C271.895 14.9957 272.513 14.853 272.853 14.5675C273.207 14.282 273.383 13.8673 273.383 13.3234C273.383 12.766 273.179 12.3649 272.772 12.1202C272.364 11.8755 271.718 11.7531 270.834 11.7531H269.203V14.9957H270.997ZM269.203 17.443V21.2363H271.222C272.146 21.2363 272.792 21.0596 273.159 20.7061C273.526 20.339 273.71 19.8563 273.71 19.2581C273.71 18.891 273.628 18.5715 273.465 18.2996C273.315 18.0277 273.05 17.8169 272.67 17.6674C272.289 17.5178 271.772 17.443 271.12 17.443H269.203Z" fill="#263640"/>
<path d="M258.203 23.7856H249.821V9.22424H258.203V11.7531H252.901V14.955H257.836V17.4838H252.901V21.2363H258.203V23.7856Z" fill="#263640"/>
<path d="M233.236 9.22424H236.01V16.2602C236.01 16.6001 236.003 16.9808 235.99 17.4022C235.976 17.8237 235.962 18.2384 235.949 18.6463C235.935 19.0406 235.922 19.3873 235.908 19.6864C235.894 19.9719 235.881 20.169 235.867 20.2778H235.928L242.658 9.22424H246.35V23.7856H243.596V16.7904C243.596 16.4233 243.603 16.0222 243.617 15.5872C243.63 15.1385 243.644 14.7102 243.658 14.3024C243.685 13.8945 243.705 13.541 243.719 13.2419C243.746 12.9292 243.766 12.7252 243.78 12.63H243.698L236.948 23.7856H233.236V9.22424Z" fill="#263640"/>
<path d="M231.608 23.7856H228.1L222.818 16.4029V23.7856H219.738V9.22424H222.818V16.2806L228.039 9.22424H231.322L226.02 16.2194L231.608 23.7856Z" fill="#263640"/>
<path d="M213.136 11.5899C212.551 11.5899 212.028 11.7055 211.565 11.9366C211.117 12.1677 210.736 12.5008 210.423 12.9359C210.111 13.3574 209.873 13.874 209.71 14.4859C209.56 15.0977 209.485 15.7843 209.485 16.5457C209.485 17.579 209.608 18.4627 209.852 19.1969C210.111 19.9175 210.512 20.4681 211.056 20.8488C211.599 21.2295 212.293 21.4198 213.136 21.4198C213.734 21.4198 214.325 21.3518 214.91 21.2159C215.508 21.0799 216.154 20.8896 216.847 20.6449V23.2349C216.208 23.4932 215.576 23.6836 214.951 23.8059C214.325 23.9283 213.625 23.9895 212.85 23.9895C211.355 23.9895 210.117 23.6836 209.138 23.0717C208.173 22.4463 207.459 21.5762 206.997 20.4613C206.535 19.3328 206.304 18.0208 206.304 16.5253C206.304 15.424 206.453 14.4179 206.752 13.5069C207.051 12.5824 207.487 11.7871 208.058 11.1208C208.642 10.4546 209.356 9.93799 210.199 9.5709C211.056 9.20381 212.034 9.02026 213.136 9.02026C213.856 9.02026 214.577 9.11544 215.297 9.30578C216.032 9.48253 216.732 9.72726 217.398 10.04L216.399 12.5484C215.855 12.2901 215.304 12.0658 214.747 11.8754C214.203 11.6851 213.666 11.5899 213.136 11.5899Z" fill="#263640"/>
<path d="M204.131 23.7856H195.749V9.22424H204.131V11.7531H198.829V14.955H203.764V17.4838H198.829V21.2363H204.131V23.7856Z" fill="#263640"/>
<path d="M192.291 23.7856H189.211V18.1568C188.355 18.4559 187.566 18.6803 186.846 18.8298C186.139 18.9794 185.425 19.0542 184.704 19.0542C183.345 19.0542 182.277 18.7279 181.502 18.0752C180.741 17.409 180.36 16.4641 180.36 15.2405V9.22424H183.44V14.3635C183.44 15.0705 183.603 15.6008 183.929 15.9543C184.256 16.3078 184.806 16.4845 185.581 16.4845C186.152 16.4845 186.723 16.4233 187.294 16.301C187.865 16.1786 188.504 15.9951 189.211 15.7503V9.22424H192.291V23.7856Z" fill="#263640"/>
<path d="M164.53 9.22424H167.304V16.2602C167.304 16.6001 167.297 16.9808 167.283 17.4022C167.27 17.8237 167.256 18.2384 167.243 18.6463C167.229 19.0406 167.215 19.3873 167.202 19.6864C167.188 19.9719 167.175 20.169 167.161 20.2778H167.222L173.952 9.22424H177.644V23.7856H174.89V16.7904C174.89 16.4233 174.897 16.0222 174.911 15.5872C174.924 15.1385 174.938 14.7102 174.952 14.3024C174.979 13.8945 174.999 13.541 175.013 13.2419C175.04 12.9292 175.06 12.7252 175.074 12.63H174.992L168.242 23.7856H164.53V9.22424Z" fill="#263640"/>
<path d="M158.532 23.7856H155.453V11.7939H151.496V9.22424H162.488V11.7939H158.532V23.7856Z" fill="#263640"/>
<path d="M149.393 23.7856L148.333 20.3186H143.03L141.97 23.7856H138.646L143.785 9.16309H147.558L152.717 23.7856H149.393ZM146.538 14.3432C146.47 14.112 146.382 13.8197 146.273 13.4662C146.164 13.1127 146.055 12.7524 145.947 12.3853C145.838 12.0182 145.749 11.6987 145.681 11.4268C145.613 11.6987 145.518 12.0386 145.396 12.4465C145.287 12.8408 145.178 13.2215 145.07 13.5886C144.974 13.9421 144.9 14.1936 144.845 14.3432L143.805 17.7286H147.598L146.538 14.3432Z" fill="#263640"/>
<path d="M127.605 23.7856L124.098 12.3649H124.016C124.03 12.6368 124.05 13.0447 124.077 13.5886C124.104 14.1324 124.132 14.717 124.159 15.3424C124.186 15.9543 124.199 16.5117 124.199 17.0148V23.7856H121.446V9.22424H125.647L129.094 20.3594H129.155L132.806 9.22424H137.007V23.7856H134.131V16.8924C134.131 16.4301 134.138 15.8999 134.152 15.3017C134.179 14.7034 134.199 14.1392 134.213 13.609C134.24 13.0651 134.261 12.6572 134.274 12.3853H134.193L130.44 23.7856H127.605Z" fill="#263640"/>
<path d="M118.634 16.4846C118.634 17.6131 118.491 18.6396 118.205 19.5641C117.933 20.475 117.512 21.2636 116.941 21.9298C116.383 22.596 115.663 23.1059 114.779 23.4594C113.909 23.8129 112.882 23.9896 111.7 23.9896C110.517 23.9896 109.483 23.8129 108.6 23.4594C107.73 23.0923 107.009 22.5824 106.438 21.9298C105.88 21.2636 105.459 20.4682 105.174 19.5437C104.902 18.6192 104.766 17.5927 104.766 16.4642C104.766 14.9551 105.01 13.643 105.5 12.5282C106.003 11.4133 106.764 10.5499 107.784 9.93812C108.817 9.31271 110.129 9 111.72 9C113.297 9 114.596 9.31271 115.615 9.93812C116.635 10.5499 117.39 11.4201 117.879 12.5486C118.382 13.6634 118.634 14.9754 118.634 16.4846ZM108.008 16.4846C108.008 17.5043 108.137 18.3812 108.396 19.1154C108.654 19.8496 109.055 20.4139 109.599 20.8081C110.143 21.2024 110.843 21.3996 111.7 21.3996C112.583 21.3996 113.29 21.2024 113.821 20.8081C114.364 20.4139 114.759 19.8496 115.003 19.1154C115.262 18.3812 115.391 17.5043 115.391 16.4846C115.391 14.9483 115.105 13.745 114.534 12.8749C113.963 12.0047 113.025 11.5696 111.72 11.5696C110.85 11.5696 110.143 11.7668 109.599 12.1611C109.055 12.5554 108.654 13.1196 108.396 13.8538C108.137 14.588 108.008 15.4649 108.008 16.4846Z" fill="#263640"/>
<path d="M99.8191 23.7856H96.7396V11.7939H92.7832V9.22424H103.776V11.7939H99.8191V23.7856Z" fill="#263640"/>
<path d="M85.2394 9.22424C86.531 9.22424 87.6119 9.34661 88.482 9.59134C89.3658 9.82247 90.0252 10.21 90.4603 10.7538C90.9089 11.284 91.1333 12.0046 91.1333 12.9156C91.1333 13.4594 91.0449 13.9557 90.8681 14.4043C90.6914 14.853 90.4331 15.2201 90.0932 15.5056C89.7669 15.7911 89.3658 15.9747 88.8899 16.0562V16.1582C89.3794 16.2534 89.8212 16.4233 90.2155 16.6681C90.6098 16.9128 90.9225 17.2663 91.1537 17.7285C91.3848 18.1908 91.5003 18.8026 91.5003 19.564C91.5003 20.4478 91.2828 21.2091 90.8477 21.8481C90.4263 22.4736 89.8144 22.9562 89.0123 23.2961C88.2101 23.6224 87.2584 23.7856 86.1571 23.7856H80.7119V9.22424H85.2394ZM85.5861 14.9957C86.4834 14.9957 87.102 14.853 87.4419 14.5675C87.7954 14.282 87.9722 13.8673 87.9722 13.3234C87.9722 12.766 87.7682 12.3649 87.3604 12.1202C86.9525 11.8755 86.3067 11.7531 85.4229 11.7531H83.7914V14.9957H85.5861ZM83.7914 17.443V21.2363H85.8104C86.7349 21.2363 87.3808 21.0596 87.7479 20.7061C88.1149 20.339 88.2985 19.8563 88.2985 19.2581C88.2985 18.891 88.2169 18.5715 88.0538 18.2996C87.9042 18.0277 87.6391 17.8169 87.2584 17.6674C86.8777 17.5178 86.3611 17.443 85.7084 17.443H83.7914Z" fill="#263640"/>
<path d="M75.7476 23.7856L74.6872 20.3186H69.3847L68.3242 23.7856H65L70.1393 9.16309H73.9122L79.0719 23.7856H75.7476ZM72.8925 14.3432C72.8245 14.112 72.7361 13.8197 72.6274 13.4662C72.5186 13.1127 72.4098 12.7524 72.3011 12.3853C72.1923 12.0182 72.1039 11.6987 72.0359 11.4268C71.968 11.6987 71.8728 12.0386 71.7504 12.4465C71.6417 12.8408 71.5329 13.2215 71.4241 13.5886C71.3289 13.9421 71.2542 14.1936 71.1998 14.3432L70.1597 17.7286H73.953L72.8925 14.3432Z" fill="#263640"/>
</svg>
