<svg width="32" height="32" viewBox="0 0 32 32" fill="none" xmlns="http://www.w3.org/2000/svg">
<path d="M10.1403 9.09241L10.1403 9.09245C9.04623 10.1704 8.20992 11.4816 7.69385 12.9282C7.17777 14.3747 6.99526 15.9192 7.15995 17.4462L7.16034 17.4498L7.16028 17.4498C7.17793 17.686 7.10295 17.9197 6.95121 18.1015C6.79948 18.2833 6.58292 18.3989 6.34742 18.4238C6.11192 18.4487 5.87599 18.3809 5.68962 18.2348L5.75817 18.1473L5.68962 18.2348C5.50325 18.0887 5.38108 17.8758 5.349 17.6412L5.34857 17.638L5.34861 17.638C5.15478 15.8385 5.37002 14.0184 5.97823 12.3137C6.58645 10.609 7.57194 9.06377 8.86109 7.79336C13.6044 3.11473 21.2555 3.19118 25.9494 7.95128C30.6433 12.7114 30.6132 20.361 25.8683 25.0396C23.6716 27.2086 20.7235 28.4475 17.6369 28.4988M10.1403 9.09241L17.6351 28.3877M10.1403 9.09241C14.1619 5.12622 20.6595 5.18108 24.652 9.23051C28.6444 13.28 28.6106 19.776 24.5891 23.7422L24.589 23.7423C22.7261 25.5842 20.2239 26.6354 17.6045 26.6766L17.6042 26.6766C16.6121 26.6949 15.6226 26.5696 14.6664 26.3046L14.6662 26.3046C14.4333 26.2403 14.1844 26.2712 13.9742 26.3905C13.764 26.5097 13.6098 26.7076 13.5456 26.9405C13.4813 27.1735 13.5122 27.4224 13.6315 27.6326C13.7507 27.8427 13.9485 27.9969 14.1814 28.0612M10.1403 9.09241L14.2111 27.9541M17.6369 28.4988L17.6351 28.3877M17.6369 28.4988C17.637 28.4988 17.6371 28.4988 17.6371 28.4988L17.6351 28.3877M17.6369 28.4988C16.47 28.5202 15.3062 28.3728 14.1814 28.0612M17.6351 28.3877C16.4788 28.4089 15.3256 28.2629 14.2111 27.9541M14.1814 28.0612C14.1815 28.0612 14.1815 28.0612 14.1815 28.0612L14.2111 27.9541M14.1814 28.0612L14.2111 27.9541" fill="#E5754C" stroke="#E5754C" stroke-width="0.222222"/>
<path d="M6.92794 18.5486L6.92775 18.5488C6.84807 18.6381 6.75158 18.7108 6.6438 18.7628C6.53603 18.8147 6.41907 18.845 6.2996 18.8517C6.18014 18.8585 6.06051 18.8417 5.94756 18.8022C5.83465 18.7628 5.73061 18.7015 5.64137 18.6218L5.64141 18.6219L6.92794 18.5486ZM6.92794 18.5486C7.00741 18.4591 7.06847 18.3549 7.10764 18.2418C7.1468 18.1287 7.1633 18.009 7.15619 17.8895C7.14908 17.7701 7.11851 17.6532 7.06621 17.5455C7.01394 17.4379 6.94097 17.3416 6.85149 17.2622C6.85146 17.2622 6.85144 17.2622 6.85141 17.2621L4.10157 14.8161C4.01401 14.7303 3.91005 14.6631 3.79589 14.6185C3.68083 14.5735 3.55781 14.5523 3.43433 14.5564C3.31084 14.5604 3.18946 14.5895 3.07758 14.6419C2.96569 14.6943 2.86564 14.7689 2.78349 14.8612C2.70135 14.9535 2.63883 15.0616 2.59975 15.1788C2.56066 15.296 2.54582 15.4199 2.55613 15.543C2.56644 15.6661 2.60168 15.7859 2.65971 15.8949C2.71729 16.0032 2.79611 16.0986 2.89145 16.1757L5.64126 18.6217L6.92794 18.5486Z" fill="#E5754C" stroke="#E5754C" stroke-width="0.222222"/>
<path d="M5.51643 18.44C5.58822 18.5357 5.67816 18.6164 5.78111 18.6773C5.88406 18.7383 5.99802 18.7784 6.11647 18.7953C6.23491 18.8122 6.35553 18.8057 6.47144 18.776C6.58734 18.7463 6.69626 18.694 6.79198 18.6222L9.99198 16.2222C10.1853 16.0773 10.3131 15.8614 10.3473 15.6222C10.3814 15.383 10.3192 15.14 10.1742 14.9467C10.0292 14.7534 9.81338 14.6256 9.57417 14.5914C9.33495 14.5572 9.09196 14.6195 8.89865 14.7645L5.69865 17.1645C5.50534 17.3095 5.37754 17.5253 5.34336 17.7645C5.30919 18.0037 5.37144 18.2467 5.51643 18.44ZM17.7376 10.8491C17.5667 10.6782 17.335 10.5822 17.0933 10.5822C16.8517 10.5822 16.6199 10.6782 16.4491 10.8491C16.2782 11.02 16.1822 11.2517 16.1822 11.4934V17.0934C16.1822 17.335 16.2782 17.5667 16.4491 17.7376C16.6199 17.9085 16.8517 18.0045 17.0933 18.0045C17.335 18.0045 17.5667 17.9085 17.7376 17.7376C17.9084 17.5667 18.0044 17.335 18.0044 17.0934V11.4934C18.0044 11.2517 17.9084 11.02 17.7376 10.8491Z" fill="#E5754C" stroke="#E5754C" stroke-width="0.222222"/>
<path d="M22.5411 17.7372C22.712 17.5664 22.808 17.3346 22.808 17.093C22.808 16.8513 22.712 16.6196 22.5411 16.4487C22.3703 16.2778 22.1385 16.1819 21.8969 16.1819H17.0969C16.8552 16.1819 16.6235 16.2778 16.4526 16.4487C16.2818 16.6196 16.1858 16.8513 16.1858 17.093C16.1858 17.3346 16.2818 17.5664 16.4526 17.7372C16.6235 17.9081 16.8552 18.0041 17.0969 18.0041H21.8969C22.1385 18.0041 22.3703 17.9081 22.5411 17.7372Z" fill="#E5754C" stroke="#E5754C" stroke-width="0.222222"/>
</svg>
