<svg width="220" height="92" viewBox="0 0 220 92" fill="none" xmlns="http://www.w3.org/2000/svg">
<g clip-path="url(#clip0_357_1619)">
<path d="M64.194 39.9704C64.6557 38.6704 65.3149 37.5249 66.1718 36.5558C67.0287 35.5865 68.0392 34.8155 69.1601 34.2868C70.3026 33.736 71.5111 33.4717 72.8072 33.4717C74.3674 33.4717 75.8615 33.8462 77.2676 34.6172C78.6738 35.3662 79.8163 36.4016 80.6732 37.7014L78.6518 39.001C77.9049 38.0758 77.048 37.3709 76.1031 36.8422C75.1582 36.3355 74.2574 36.0711 73.3785 36.0711C71.9723 36.0711 70.8738 36.6439 70.0606 37.8114C69.2477 38.979 68.8524 40.4988 68.8524 42.3934V83.9849C68.8524 85.5489 69.2037 86.7823 69.907 87.6859C70.6102 88.589 71.6647 89.0296 73.0709 89.0296C73.6201 89.0296 74.1477 88.9855 74.697 88.9193C75.2462 88.8314 75.7735 88.699 76.3227 88.4787V64.5108H72.6756V62.0657H81.3544V89.1175C80.8052 89.4481 80.1899 89.7562 79.4866 90.0868C78.7838 90.4174 78.0585 90.6598 77.3336 90.858C76.6084 91.0562 75.8835 91.2103 75.1802 91.3427C74.477 91.4747 73.7961 91.5409 73.1588 91.5409C71.7527 91.5409 70.4562 91.2765 69.2697 90.7256C68.0832 90.1751 67.0507 89.4481 66.1938 88.5008C65.3369 87.5535 64.6557 86.4521 64.216 85.2183C63.7548 83.9628 63.5352 82.6191 63.5352 81.1651V44.134C63.5352 42.6799 63.7548 41.2921 64.216 39.9925L64.194 39.9704Z" fill="white"/>
<path d="M99.8771 34.1104V36.5556H92.0108V60.6778H98.251V63.1229H92.0108V88.4565H99.8771V90.9017H86.6719V34.1104H99.8771Z" fill="white"/>
<path d="M120.378 36.5556H113.567V90.9017H108.14V36.5556H101.328V34.1104H120.378V36.5556Z" fill="white"/>
<path d="M137.705 33.9365C139.112 33.9365 140.386 34.2009 141.551 34.7076C142.715 35.2142 143.704 35.9412 144.517 36.8664C145.33 37.7915 145.967 38.915 146.429 40.2811C146.89 41.6469 147.109 43.1226 147.109 44.7528V52.3971C147.109 53.8511 146.934 55.1507 146.582 56.2521C146.231 57.3535 145.747 58.3449 145.132 59.226C144.517 60.0854 143.748 60.79 142.869 61.2968C141.968 61.8035 141.001 62.1562 139.903 62.3103V63.2134C140.65 63.3675 141.375 63.6098 142.056 63.9405C142.737 64.2707 143.286 64.7333 143.726 65.3283C144.165 65.9229 144.517 66.6279 144.78 67.4432C145.044 68.2581 145.242 69.0951 145.352 69.9545L148.186 90.7499H142.671L139.749 68.0158C139.705 67.3108 139.595 66.6941 139.419 66.1873C139.266 65.6806 139.068 65.218 138.848 64.7995C138.628 64.4031 138.343 64.0945 137.947 63.8963C137.552 63.6981 137.2 63.6098 136.804 63.6098H135.113V90.7499H129.773V33.9806H137.705V33.9365ZM141.748 44.9073C141.748 41.8231 141.441 39.6199 140.848 38.3203C140.254 37.0206 139.178 36.3598 137.596 36.3598H135.091V61.1427H137.683C138.387 61.1427 139.002 60.9886 139.551 60.7021C140.1 60.4157 140.496 59.931 140.76 59.2701C141.023 58.6093 141.265 57.7503 141.441 56.6706C141.639 55.5913 141.727 54.3137 141.727 52.8597V44.9073H141.748Z" fill="white"/>
<path d="M165.986 33.9365V36.3818H158.12V60.5039H164.36V62.949H158.12V88.2827H165.986V90.7278H152.781V33.9586H165.986V33.9365Z" fill="white"/>
<path d="M173.765 33.9365H177.17L185.52 90.7061H179.939L177.588 73.9636H172.007L170.073 90.7061H167.48L173.809 33.9365H173.765ZM173.853 55.1287L172.227 71.5406H177.17L174.907 55.1287L174.819 51.8683H173.853V55.1287Z" fill="white"/>
<path d="M193.933 33.9365V88.2827H200.898V90.7278H188.594V33.9586H193.933V33.9365Z" fill="white"/>
<path d="M219.949 36.3818H213.137V90.7278H207.71V36.3818H200.898V33.9365H219.949V36.3818Z" fill="white"/>
<path fill-rule="evenodd" clip-rule="evenodd" d="M45.6387 91.8054V43.0237L39.0469 36.415V91.8054H45.6387Z" fill="#E1562C"/>
<path fill-rule="evenodd" clip-rule="evenodd" d="M32.6073 91.8057V22.6249L26.3672 16.3686L26.0156 16.0161V91.8057H32.6073Z" fill="#E1562C"/>
<path fill-rule="evenodd" clip-rule="evenodd" d="M19.5995 91.8052V0.242323L19.3578 0L15.7104 3.67889L14.6996 4.6702L13.0078 6.36644V91.8052H19.5995Z" fill="#E1562C"/>
<path fill-rule="evenodd" clip-rule="evenodd" d="M6.59165 91.8054V36.1719L0 42.7807V91.8054H6.59165Z" fill="#E1562C"/>
</g>
<defs>
<clipPath id="clip0_357_1619">
<rect width="220" height="92" fill="white"/>
</clipPath>
</defs>
</svg>
