<svg width="16" height="17" viewBox="0 0 16 17" xmlns="http://www.w3.org/2000/svg">
<path fill-rule="evenodd" clip-rule="evenodd" d="M14.3541 5.14604C14.4006 5.19248 14.4376 5.24766 14.4628 5.30841C14.488 5.36915 14.501 5.43427 14.501 5.50004C14.501 5.56581 14.488 5.63093 14.4628 5.69167C14.4376 5.75242 14.4006 5.80759 14.3541 5.85404L8.35408 11.854C8.30764 11.9006 8.25246 11.9375 8.19172 11.9628C8.13097 11.988 8.06585 12.0009 8.00008 12.0009C7.93432 12.0009 7.86919 11.988 7.80845 11.9628C7.7477 11.9375 7.69253 11.9006 7.64608 11.854L1.64608 5.85404C1.5522 5.76015 1.49945 5.63281 1.49945 5.50004C1.49945 5.36726 1.5522 5.23993 1.64608 5.14604C1.73997 5.05215 1.86731 4.99941 2.00008 4.99941C2.13286 4.99941 2.2602 5.05215 2.35408 5.14604L8.00008 10.793L13.6461 5.14604C13.6925 5.09948 13.7477 5.06253 13.8084 5.03733C13.8692 5.01212 13.9343 4.99915 14.0001 4.99915C14.0659 4.99915 14.131 5.01212 14.1917 5.03733C14.2525 5.06253 14.3076 5.09948 14.3541 5.14604Z"/>
</svg>
