<svg width="14" height="8" viewBox="0 0 14 8" xmlns="http://www.w3.org/2000/svg">
<path d="M14.0002 1.12042C13.9381 1.42797 13.748 1.64597 13.5345 1.86008C11.606 3.79098 9.68143 5.72188 7.75294 7.65668C7.45028 7.96033 7.09718 8.08879 6.68587 7.94086C6.53842 7.88636 6.39097 7.78904 6.27844 7.67614C4.28786 5.69074 2.30505 3.69755 0.322232 1.70437C0.0195707 1.40461 -0.0813162 1.04256 0.0700142 0.637698C0.209704 0.260083 0.500724 0.0459709 0.900391 0.00314848C1.22633 -0.0279951 1.49407 0.100472 1.71913 0.330156C2.18088 0.793416 2.63875 1.24889 3.09662 1.70826C4.35771 2.97347 5.62267 4.24257 6.88376 5.50777C6.91868 5.54281 6.94973 5.58174 7.02345 5.67128C7.06225 5.6012 7.08166 5.5467 7.11658 5.50777C8.83166 3.7832 10.5506 2.06252 12.2657 0.337942C12.5606 0.0459709 12.9021 -0.0786033 13.3095 0.0498638C13.6315 0.15108 13.845 0.369085 13.9458 0.6922C13.9614 0.742808 13.9808 0.793416 13.9963 0.847917C14.0002 0.937455 14.0002 1.02699 14.0002 1.12042Z"/>
</svg>
