<svg width="21" height="20" viewBox="0 0 21 20" xmlns="http://www.w3.org/2000/svg">
<path fill-rule="evenodd" clip-rule="evenodd" d="M4.27778 0C4.9221 0 5.44444 0.537247 5.44444 1.2V3.20001H7.38889C8.0332 3.20001 8.55556 3.73728 8.55556 4.40001C8.55556 5.06276 8.0332 5.60001 7.38889 5.60001H5.44444V7.60002C5.44444 8.26274 4.9221 8.80002 4.27778 8.80002C3.63345 8.80002 3.11111 8.26274 3.11111 7.60002V5.60001H1.16667C0.52234 5.60001 0 5.06276 0 4.40001C0 3.73728 0.52234 3.20001 1.16667 3.20001H3.11111V1.2C3.11111 0.537247 3.63345 0 4.27778 0ZM12.4444 4.39999C12.4444 3.73724 12.9668 3.2 13.6111 3.2H19.8333C20.4776 3.2 21 3.73724 21 4.39999C21 5.06273 20.4776 5.59999 19.8333 5.59999H13.6111C12.9668 5.59999 12.4444 5.06273 12.4444 4.39999ZM12.4444 14C12.4444 13.3373 12.9668 12.8 13.6111 12.8H19.8333C20.4776 12.8 21 13.3373 21 14C21 14.6627 20.4776 15.2 19.8333 15.2H13.6111C12.9668 15.2 12.4444 14.6627 12.4444 14ZM1.11949 13.1515C1.57509 12.6829 2.3138 12.6829 2.7694 13.1515L4.27779 14.7029L5.78615 13.1515C6.24176 12.6829 6.98046 12.6829 7.43602 13.1515C7.89164 13.6202 7.89164 14.3799 7.43602 14.8485L5.92771 16.4L7.43602 17.9515C7.89164 18.4202 7.89164 19.1798 7.43602 19.6485C6.98043 20.1171 6.24174 20.1171 5.78614 19.6485L4.27779 18.0971L2.76942 19.6485C2.31381 20.1171 1.57512 20.1171 1.1195 19.6485C0.663895 19.1798 0.663895 18.4202 1.1195 17.9515L2.62788 16.4L1.11949 14.8485C0.66388 14.3799 0.66388 13.6202 1.11949 13.1515ZM12.4444 18.8C12.4444 18.1373 12.9668 17.6 13.6111 17.6H19.8333C20.4776 17.6 21 18.1373 21 18.8C21 19.4627 20.4776 20 19.8333 20H13.6111C12.9668 20 12.4444 19.4627 12.4444 18.8Z"/>
</svg>
