<svg width="47" height="20" viewBox="0 0 47 20" fill="none" xmlns="http://www.w3.org/2000/svg">
<g opacity="0.5">
<path d="M14.8486 1.67951L12.272 18.2578L12.501 19.6035H9.15153L9.38056 18.2578L7.71057 7.81643L6.0883 18.2578L6.31732 19.6035H2.96781L3.19683 18.2578L0.563024 1.70814L0 0.00927734H3.04415L2.86284 0.830078L4.61871 12.7985L6.37458 0.830078L6.16464 0.00927734H9.23742L9.02748 0.830078L10.8024 12.7985L12.5583 0.830078L12.3484 0.00927734H15.4211L14.8486 1.67951Z" fill="white"/>
<path d="M24.9353 19.6035H17.5874L17.8928 18.3914V1.19276L17.5874 0.00927734H24.9353L25.3743 2.71983L24.1146 2.4335H20.6124L20.3262 2.71983V8.29364L20.6124 8.57997H21.5953L22.8073 8.27455V11.3478L21.5953 11.0424H20.6124L20.3262 11.3287V16.8739L20.6124 17.1602H24.1146L25.3743 16.8739L24.9353 19.6035Z" fill="white"/>
<path d="M27.9987 1.19277L27.6934 0.00927734H34.1156L35.3562 1.2214V8.57052L34.0966 9.78265L35.3562 11.0234V18.4012L34.1156 19.6133H27.6934L27.9987 18.4012V1.19277ZM30.4512 2.71032V8.28419L30.7375 8.57052H32.6174L32.9037 8.28419V2.71032L32.6174 2.42399H30.7375L30.4512 2.71032ZM32.9037 11.3002L32.6174 11.0139H30.7375L30.4512 11.3002V16.8454L30.7375 17.1318H32.6174L32.9037 16.8454V11.3002Z" fill="white"/>
<path d="M46.2827 14.7074L45.9773 15.8909V19.6035H38.6294V9.80176L39.8413 8.58966H43.2481L43.5344 8.30334V2.75824L43.2481 2.47191H41.3395L41.0532 2.75824V3.71264L41.3872 4.89611H38.3145L38.6198 3.71264V1.24073L39.8318 0H44.7272L45.9678 1.24073V9.80176L44.7272 11.0425H41.3204L41.0342 11.3288V16.8453L41.3204 17.1316H43.229L43.5153 16.8453V15.8909L43.2099 14.7074H46.2827Z" fill="white"/>
</g>
</svg>
