<svg width="27" height="18" viewBox="0 0 27 18" xmlns="http://www.w3.org/2000/svg">
<g>
<path d="M25.8354 2.88187C25.5393 1.78824 24.667 0.926961 23.5591 0.634666C21.5514 0.103455 13.5002 0.103455 13.5002 0.103455C13.5002 0.103455 5.44904 0.103455 3.44126 0.634666C2.33335 0.926961 1.46079 1.78824 1.16489 2.88187C0.626953 4.86412 0.626953 9.00006 0.626953 9.00006C0.626953 9.00006 0.626953 13.1358 1.16489 15.1182C1.46079 16.212 2.33335 17.073 3.44115 17.3657C5.44893 17.8967 13.5001 17.8967 13.5001 17.8967C13.5001 17.8967 21.5513 17.8967 23.559 17.3657C24.6669 17.0732 25.5392 16.212 25.8353 15.1184C26.3734 13.1359 26.3734 9.00017 26.3734 9.00017C26.3734 9.00017 26.3734 4.86423 25.8353 2.88198"/>
<path d="M10.8667 12.7551L17.5959 9.00028L10.8667 5.245V12.7551Z" fill="white"/>
</g>
</svg>
