<svg width="24" height="24" viewBox="0 0 24 24" xmlns="http://www.w3.org/2000/svg">
<path d="M7.289 4.90761C10.4236 4.63513 13.576 4.63512 16.7106 4.90761L18.2209 5.03889C19.2263 5.12629 20.0873 5.72596 20.5335 6.58374C20.5905 6.69347 20.5478 6.82633 20.4426 6.89144L14.1766 10.7704C12.8328 11.6023 11.1383 11.6197 9.77753 10.8157L3.46971 7.08833C3.3678 7.02811 3.32102 6.90415 3.36695 6.79505C3.7751 5.82548 4.69273 5.1333 5.77877 5.0389L7.289 4.90761Z"/>
<path d="M3.36181 8.76688C3.20585 8.67472 3.00685 8.7739 2.98867 8.95414C2.73493 11.4698 2.79634 14.0092 3.1729 16.5133C3.37141 17.8334 4.44882 18.8455 5.77877 18.9611L7.289 19.0924C10.4236 19.3649 13.576 19.3649 16.7107 19.0924L18.2209 18.9611C19.5508 18.8455 20.6282 17.8334 20.8268 16.5133C21.2143 13.9363 21.268 11.3217 20.988 8.73428C20.9684 8.55276 20.766 8.45541 20.6107 8.55151L14.9662 12.0458C13.148 13.1713 10.8554 13.1949 9.01444 12.1071L3.36181 8.76688Z"/>
</svg>
