<svg xmlns="http://www.w3.org/2000/svg" viewBox="7.1959991455078125 10.604000091552734 49.608001708984375 42.792022705078125"><g><path d="M55.804 24.597h-30a1 1 0 0 0-1 1v20a1 1 0 0 0 1 1h15.784l3.556 6.29a.998.998 0 0 0 1.74 0l3.555-6.29h5.365a1 1 0 0 0 1-1v-20a1 1 0 0 0-1-1zm-5.893 17H31.696a1 1 0 1 1 0-2h18.215a1 1 0 1 1 0 2zm0-5H31.696a1 1 0 1 1 0-2h18.215a1 1 0 1 1 0 2zm0-5H34.995a1 1 0 1 1 0-2h14.916a1 1 0 1 1 0 2z"></path><path d="M39.196 22.597V11.604a1 1 0 0 0-1-1h-30a1 1 0 0 0-1 1v20a1 1 0 0 0 1 1h4.365l3.555 6.292a.998.998 0 0 0 1.74 0l3.556-6.292h1.392v-7.007c0-1.655 1.345-3 3-3zm-19.904 5.007h-5.203a1 1 0 1 1 0-2h5.203a1 1 0 1 1 0 2zm0-5h-5.203a1 1 0 1 1 0-2h5.203a1 1 0 1 1 0 2zm-5.203-5a1 1 0 1 1 0-2h14.916a1 1 0 1 1 0 2z"></path></g></svg>