<svg width="24" height="24" viewBox="0 0 24 24" xmlns="http://www.w3.org/2000/svg">
<path d="M12.0002 8.74998C10.2053 8.74998 8.75018 10.2051 8.75018 12C8.75018 13.7949 10.2053 15.25 12.0002 15.25C13.7951 15.25 15.2502 13.7949 15.2502 12C15.2502 10.2051 13.7951 8.74998 12.0002 8.74998Z"/>
<path fill-rule="evenodd" clip-rule="evenodd" d="M6.76972 3.08145C10.2178 2.69607 13.7825 2.69607 17.2307 3.08145C19.1291 3.29363 20.6603 4.78941 20.8831 6.69446C21.2954 10.2195 21.2954 13.7805 20.8831 17.3055C20.6603 19.2106 19.1291 20.7063 17.2307 20.9185C13.7825 21.3039 10.2178 21.3039 6.76972 20.9185C4.87132 20.7063 3.34013 19.2106 3.11732 17.3055C2.70504 13.7805 2.70504 10.2195 3.11732 6.69446C3.34013 4.7894 4.87132 3.29363 6.76972 3.08145ZM17.0002 5.99998C16.4479 5.99998 16.0002 6.4477 16.0002 6.99998C16.0002 7.55227 16.4479 7.99998 17.0002 7.99998C17.5525 7.99998 18.0002 7.55227 18.0002 6.99998C18.0002 6.4477 17.5525 5.99998 17.0002 5.99998ZM7.25018 12C7.25018 9.37663 9.37683 7.24998 12.0002 7.24998C14.6235 7.24998 16.7502 9.37663 16.7502 12C16.7502 14.6233 14.6235 16.75 12.0002 16.75C9.37683 16.75 7.25018 14.6233 7.25018 12Z"/>
</svg>
