<svg xmlns="http://www.w3.org/2000/svg" viewBox="7.920997619628906 8.609003067016602 48.15998840332031 46.782005310058594"><path d="M54.899 29.763a5.53 5.53 0 0 0-4.386-2.14h-9.221a1.55 1.55 0 0 1-1.173-.529 1.55 1.55 0 0 1-.38-1.23l.768-6.141c.352-2.812-.522-5.645-2.398-7.77s-4.578-3.344-7.413-3.344a4.955 4.955 0 0 0-4.947 4.806l-.622 4.872a11.948 11.948 0 0 1-2.976 6.5l-3.615 4.025h-5.615c-2.757 0-5 2.243-5 5v16.579c0 2.757 2.243 5 5 5h33.433a5.557 5.557 0 0 0 5.399-4.215l4.159-16.637a5.533 5.533 0 0 0-1.013-4.775zM17.427 51.391H12.92c-.551 0-1-.449-1-1V33.812c0-.551.449-1 1-1h4.507zm34.604-17.822-4.159 16.637a1.563 1.563 0 0 1-1.518 1.186H21.427V31.578l3.699-4.118a15.925 15.925 0 0 0 3.968-8.667l.636-4.982c.011-.083.016-.168.016-.253a.95.95 0 0 1 .949-.949 5.887 5.887 0 0 1 5.842 6.617l-.768 6.141a5.563 5.563 0 0 0 5.522 6.255h9.221c.485 0 .935.219 1.233.602.299.383.402.873.285 1.344z"></path></svg>