<svg width="21" height="20" viewBox="0 0 21 20" xmlns="http://www.w3.org/2000/svg">
<path d="M17.03 14.0887C17.3994 10.5392 17.3994 6.96084 17.03 3.41127C16.9145 2.30101 15.6344 1.73861 14.7385 2.40453L11.3188 4.94654C10.2409 5.74785 8.93342 6.18056 7.59025 6.18056H4.39925C3.93901 6.18056 3.56592 6.55365 3.56592 7.01389V10.4861C3.56592 10.9464 3.93901 11.3194 4.39925 11.3194L7.59025 11.3194C8.93342 11.3194 10.2409 11.7522 11.3188 12.5535L14.7385 15.0955C15.6344 15.7614 16.9145 15.199 17.03 14.0887Z" />
<path d="M8.0771 13.1683C8.12497 12.9813 8.08371 12.7826 7.96531 12.6301C7.84692 12.4776 7.66469 12.3884 7.47162 12.3884L5.80495 12.3884C5.56822 12.3884 5.3518 12.5221 5.24593 12.7338L4.4126 14.4005C4.27029 14.6851 4.36455 15.0312 4.63153 15.2044L6.40984 16.3577C6.57868 16.4672 6.78992 16.4887 6.97736 16.4155C7.1648 16.3423 7.30552 16.1833 7.35541 15.9883L8.0771 13.1683Z"/>
</svg>
