<svg width="20" height="20" viewBox="0 0 20 20" xmlns="http://www.w3.org/2000/svg">
<path fill-rule="evenodd" clip-rule="evenodd" d="M14.1993 13.0203C15.2261 11.7367 15.8401 10.1084 15.8401 8.33676C15.8401 4.19274 12.4807 0.833344 8.33667 0.833344C4.19265 0.833344 0.833252 4.19274 0.833252 8.33676C0.833252 12.4808 4.19265 15.8402 8.33667 15.8402C10.1083 15.8402 11.7366 15.2262 13.0202 14.1994L17.7433 18.9225C18.0689 19.2481 18.5968 19.2481 18.9224 18.9225C19.248 18.5969 19.248 18.069 18.9224 17.7434L14.1993 13.0203ZM8.33667 14.1811C5.10892 14.1811 2.49231 11.5645 2.49231 8.33676C2.49231 5.10901 5.10892 2.4924 8.33667 2.4924C11.5644 2.4924 14.181 5.10901 14.181 8.33676C14.181 11.5645 11.5644 14.1811 8.33667 14.1811Z" />
</svg>
