<svg width="20" height="20" viewBox="0 0 20 20" xmlns="http://www.w3.org/2000/svg">
<path d="M14.5832 2.08333C13.2025 2.08333 12.0832 3.20262 12.0832 4.58333C12.0832 4.80373 12.1117 5.01746 12.1652 5.22105C12.1062 5.23325 12.0479 5.25427 11.9922 5.28464L9.69513 6.53761L6.77309 8.20734C6.74322 8.22441 6.7153 8.24357 6.68939 8.26453C6.31655 8.04353 5.88134 7.91667 5.4165 7.91667C4.03579 7.91667 2.9165 9.03595 2.9165 10.4167C2.9165 11.7974 4.03579 12.9167 5.4165 12.9167C6.1449 12.9167 6.80053 12.6052 7.25746 12.1081L9.69629 13.463L12.1583 14.8059C12.1092 15.0014 12.0832 15.206 12.0832 15.4167C12.0832 16.7974 13.2025 17.9167 14.5832 17.9167C15.9639 17.9167 17.0832 16.7974 17.0832 15.4167C17.0832 14.036 15.9639 12.9167 14.5832 12.9167C13.8628 12.9167 13.2136 13.2213 12.7574 13.7089L10.3012 12.3691L7.84675 11.0055C7.89235 10.8167 7.9165 10.6195 7.9165 10.4167C7.9165 9.96692 7.79775 9.54492 7.58988 9.1803L10.3046 7.62905L12.5908 6.38201C12.6467 6.35154 12.696 6.31378 12.7383 6.27055C13.1954 6.77007 13.8527 7.08333 14.5832 7.08333C15.9639 7.08333 17.0832 5.96404 17.0832 4.58333C17.0832 3.20262 15.9639 2.08333 14.5832 2.08333Z"/>
</svg>
