<svg width="21" height="20" viewBox="0 0 21 20" fill="none" xmlns="http://www.w3.org/2000/svg">
<path d="M11.2207 2.49686C10.8996 1.9434 10.1003 1.9434 9.77915 2.49686L7.51744 6.39462C7.35879 6.66802 7.08459 6.8546 6.77203 6.90181L2.53344 7.54199C1.82154 7.64952 1.57182 8.54836 2.12624 9.00769L5.28382 11.6237C5.5761 11.8659 5.71353 12.2478 5.64253 12.6207L4.81656 16.9583C4.68599 17.644 5.40581 18.1768 6.02344 17.8516L10.0146 15.75C10.3184 15.5901 10.6815 15.5901 10.9852 15.75L14.9764 17.8516C15.594 18.1768 16.3139 17.644 16.1833 16.9583L15.3573 12.6207C15.2863 12.2478 15.4238 11.8659 15.716 11.6237L18.8736 9.00769C19.428 8.54836 19.1783 7.64952 18.4664 7.54199L14.2278 6.90181C13.9153 6.8546 13.6411 6.66802 13.4824 6.39462L11.2207 2.49686Z" stroke="#1F58E0" stroke-width="2" stroke-linejoin="round"/>
</svg>
