<svg width="19" height="20" viewBox="0 0 19 20" xmlns="http://www.w3.org/2000/svg">
<path d="M0.821289 19.0891L2.10614 14.4234C1.31179 13.0539 0.895081 11.503 0.899422 9.91753C0.899422 4.94943 4.96232 0.910156 9.9498 0.910156C12.3719 0.910156 14.6464 1.84761 16.3523 3.54973C18.0626 5.25184 19.0045 7.51556 19.0002 9.92185C19.0002 14.8899 14.9373 18.9292 9.94546 18.9292H9.94112C8.42621 18.9292 6.93735 18.549 5.61343 17.8319L0.821289 19.0891ZM5.84349 16.2032L6.11695 16.3674C7.27158 17.05 8.5955 17.4085 9.94546 17.4129H9.9498C14.0952 17.4129 17.4722 14.0562 17.4722 9.92617C17.4722 7.92597 16.6909 6.04673 15.2715 4.62975C13.8521 3.21276 11.9595 2.43514 9.9498 2.43514C5.80442 2.43082 2.42735 5.78753 2.42735 9.91753C2.42735 11.3302 2.82236 12.7083 3.57764 13.9006L3.75561 14.1858L2.99598 16.9463L5.84349 16.2032Z" />
<path d="M0.821289 19.0891L2.10614 14.4234C1.31179 13.0539 0.895081 11.503 0.899422 9.91753C0.899422 4.94943 4.96232 0.910156 9.9498 0.910156C12.3719 0.910156 14.6464 1.84761 16.3523 3.54973C18.0626 5.25184 19.0045 7.51556 19.0002 9.92185C19.0002 14.8899 14.9373 18.9292 9.94546 18.9292H9.94112C8.42621 18.9292 6.93735 18.549 5.61343 17.8319L0.821289 19.0891ZM5.84349 16.2032L6.11695 16.3674C7.27158 17.05 8.5955 17.4085 9.94546 17.4129H9.9498C14.0952 17.4129 17.4722 14.0562 17.4722 9.92617C17.4722 7.92597 16.6909 6.04673 15.2715 4.62975C13.8521 3.21276 11.9595 2.43514 9.9498 2.43514C5.80442 2.43082 2.42735 5.78753 2.42735 9.91753C2.42735 11.3302 2.82236 12.7083 3.57764 13.9006L3.75561 14.1858L2.99598 16.9463L5.84349 16.2032Z" />
<path fill-rule="evenodd" clip-rule="evenodd" d="M7.68784 6.14996C7.51855 5.77412 7.34058 5.76548 7.17998 5.76116C7.04976 5.75684 6.89783 5.75684 6.74591 5.75684C6.59398 5.75684 6.3509 5.813 6.14255 6.03764C5.93419 6.26229 5.35254 6.80662 5.35254 7.91688C5.35254 9.02282 6.16425 10.0942 6.27711 10.2454C6.38997 10.3966 7.84411 12.7424 10.1403 13.6453C12.0503 14.397 12.4409 14.2458 12.8533 14.2069C13.2657 14.168 14.1902 13.6626 14.3812 13.1355C14.5679 12.6085 14.5679 12.1592 14.5114 12.0642C14.455 11.9691 14.3031 11.913 14.0774 11.8006C13.8516 11.6883 12.7404 11.144 12.5321 11.0662C12.3237 10.9928 12.1718 10.9539 12.0242 11.1785C11.8723 11.4032 11.4382 11.9086 11.308 12.0598C11.1778 12.211 11.0432 12.2283 10.8175 12.116C10.5918 12.0037 9.86253 11.7661 8.99873 10.9971C8.32592 10.4009 7.87015 9.66219 7.73993 9.43755C7.60971 9.2129 7.72691 9.09194 7.83976 8.97962C7.9396 8.88025 8.06548 8.71609 8.17834 8.58649C8.2912 8.45689 8.33026 8.36185 8.40406 8.21064C8.47785 8.05944 8.44312 7.92984 8.38669 7.81751C8.33026 7.70951 7.88751 6.59493 7.68784 6.14996Z" />
</svg>
