<svg width="24" height="24" viewBox="0 0 24 24" xmlns="http://www.w3.org/2000/svg">
<path fill-rule="evenodd" clip-rule="evenodd" d="M6.98901 4.89052C10.3247 4.62955 13.6756 4.62955 17.0113 4.89052L19.252 5.06582C20.5001 5.16346 21.5211 6.09886 21.7274 7.33363C22.2436 10.4231 22.2436 13.5769 21.7274 16.6664C21.5211 17.9011 20.5001 18.8365 19.252 18.9342L17.0113 19.1095C13.6756 19.3704 10.3247 19.3704 6.989 19.1095L4.7483 18.9342C3.50023 18.8365 2.47921 17.9011 2.2729 16.6664C1.75669 13.5769 1.75669 10.4231 2.2729 7.33363C2.47921 6.09886 3.50023 5.16346 4.7483 5.06582L6.98901 4.89052ZM10.0001 14.4701V9.52986C10.0001 9.29667 10.2545 9.15263 10.4545 9.27261L14.5714 11.7428C14.7656 11.8593 14.7656 12.1407 14.5714 12.2572L10.4545 14.7274C10.2545 14.8474 10.0001 14.7033 10.0001 14.4701Z" />
</svg>
