<svg width="512" height="512" viewBox="0 0 512 512" fill="none" xmlns="http://www.w3.org/2000/svg">
<rect width="512" height="512" rx="30" fill="#161616"/>
<path fill-rule="evenodd" clip-rule="evenodd" d="M336.568 313.563H341.98L349.144 217.714C342.392 214.879 335.574 212.362 328.843 210.223L336.568 313.563Z" fill="#F9F5E9"/>
<path fill-rule="evenodd" clip-rule="evenodd" d="M308.475 313.562H313.89L321.774 208.146C314.675 206.135 307.44 204.44 300.215 203.094L308.475 313.562Z" fill="#F9F5E9"/>
<path fill-rule="evenodd" clip-rule="evenodd" d="M280.39 313.561H285.804L294.142 202.05C286.837 200.887 279.357 200.05 271.866 199.565L280.39 313.561Z" fill="#F9F5E9"/>
<path fill-rule="evenodd" clip-rule="evenodd" d="M224.21 313.562H229.625L238.14 199.691C230.757 200.233 223.287 201.133 215.898 202.374L224.21 313.562Z" fill="#F9F5E9"/>
<path fill-rule="evenodd" clip-rule="evenodd" d="M111.865 313.563H117.28L122.843 239.192C117.426 242.796 112.16 246.609 107.152 250.55L111.865 313.563Z" fill="#F9F5E9"/>
<path fill-rule="evenodd" clip-rule="evenodd" d="M168.035 313.562H173.449L181.125 210.906C174.174 213.175 167.393 215.726 160.927 218.503L168.035 313.562Z" fill="#F9F5E9"/>
<path fill-rule="evenodd" clip-rule="evenodd" d="M139.95 313.562H145.365L152.174 222.512C145.993 225.472 139.851 228.748 133.876 232.277L139.95 313.562Z" fill="#F9F5E9"/>
<path fill-rule="evenodd" clip-rule="evenodd" d="M196.127 313.561H201.539L209.773 203.451C202.652 204.838 195.436 206.599 188.287 208.693L196.127 313.561Z" fill="#F9F5E9"/>
<path fill-rule="evenodd" clip-rule="evenodd" d="M364.649 313.564H370.064L376.222 231.159C370.27 227.725 364.076 224.498 357.77 221.554L364.649 313.564Z" fill="#F9F5E9"/>
<path fill-rule="evenodd" clip-rule="evenodd" d="M243.767 199.354L252.303 313.562H257.72L266.267 199.252C257.908 198.887 252.264 198.916 243.767 199.354Z" fill="#F9F5E9"/>
<path fill-rule="evenodd" clip-rule="evenodd" d="M83.7723 313.562H89.1868L92.9973 262.589C88.9233 266.352 84.8494 270.387 80.8616 274.62L83.7723 313.562Z" fill="#F9F5E9"/>
<path fill-rule="evenodd" clip-rule="evenodd" d="M420.83 313.562H426.244L429.301 272.659C425.42 268.632 421.25 264.618 416.873 260.69L420.83 313.562Z" fill="#F9F5E9"/>
<path fill-rule="evenodd" clip-rule="evenodd" d="M392.744 313.562H398.159L402.981 249.065C397.979 245.202 392.64 241.426 387.08 237.816L392.744 313.562Z" fill="#F9F5E9"/>
<path fill-rule="evenodd" clip-rule="evenodd" d="M62.7862 313.562L63.6234 294.63C59.6355 300.031 54.5679 307.775 51 313.562H62.7862Z" fill="#F9F5E9"/>
<path fill-rule="evenodd" clip-rule="evenodd" d="M447.237 313.561H461C456.819 306.774 451.011 298.055 446.181 291.718L447.237 313.561Z" fill="#F9F5E9"/>
</svg>
