<svg width="120" height="120" viewBox="0 0 120 120" fill="none" xmlns="http://www.w3.org/2000/svg">
<g clip-path="url(#clip0_2070_2501)">
<rect width="120" height="120" fill="#2F2483"/>
<mask id="mask0_2070_2501" style="mask-type:luminance" maskUnits="userSpaceOnUse" x="-170" y="6" width="538" height="328">
<path d="M-101.192 139.862C-83.6273 120.615 -65.6279 101.324 -59.3281 94.9915L-58.7947 94.4555C-57.4484 93.1016 -54.6516 90.282 -50.0665 90.282C-48.5576 90.282 -47.0512 90.5995 -45.5957 91.232L-45.2096 91.3971L-44.8387 91.5978C-41.8514 93.2286 -39.2629 95.4462 -36.7608 97.5902C-35.5415 98.6291 -34.3019 99.6934 -33.1512 100.552C-32.8743 100.306 -32.605 100.064 -32.384 99.8611C-31.8048 99.3353 -31.2511 98.8323 -30.7227 98.3853C-29.224 97.0593 -27.6541 95.6367 -26.0614 94.1964C-22.9928 91.4174 -19.8201 88.5419 -16.8862 86.0728C-13.2308 82.9661 -9.68461 82.1659 -7.33745 81.6376C-6.88783 81.536 -6.49412 81.4471 -6.15119 81.3556C-6.0826 81.2896 -5.99624 81.2108 -5.89717 81.1118C-2.94035 77.906 2.10707 72.381 6.9665 67.0542C10.9191 62.7282 14.7497 58.5343 17.2493 55.8137C18.8395 54.0635 22.6346 49.895 28.5025 49.895C30.4661 49.895 32.422 50.3929 34.1799 51.3378C36.2755 52.4098 38.1807 53.9492 39.8471 55.4505C44.4195 51.2236 50.638 45.3303 57.113 39.1931C70.4542 26.5453 84.2476 13.4657 90.8166 8.10077L92.5643 6.67822L94.7717 6.22358C95.4906 6.07624 96.2196 6.00001 96.9461 6.00001C100.871 6.00001 103.421 8.09822 104.262 8.78662C105.636 9.93734 106.762 11.1262 107.757 12.1804C109.264 13.7401 110.935 15.5588 112.701 17.4843C115.53 20.5631 118.736 24.0508 121.302 26.4717C121.889 27.0178 122.762 27.4318 124.388 28.1736C125.374 28.6232 126.491 29.1313 127.701 29.7866L127.866 29.8781L128.028 29.9721C131.079 31.7883 133.711 34.072 136.253 36.2769C137.206 37.105 138.171 37.9432 139.172 38.7587C139.172 38.7587 149.033 47.1135 151.147 48.8993C152.912 47.2862 159.814 40.956 159.814 40.956C161.727 39.1982 163.718 37.3641 165.53 35.9085C167.226 34.5394 170.795 31.6537 175.665 31.6537C178.02 31.6537 180.334 32.3192 182.536 33.63C185.714 35.4843 188.391 38.4081 191.3 41.7587C192.131 42.6808 192.961 43.6207 193.792 44.5605C195.428 46.4149 196.97 48.1676 198.53 49.7654C199.952 51.2108 201.377 52.2371 203.028 53.4234C205.071 54.8866 207.382 56.5478 209.806 59.1008C212.153 61.6029 214.119 64.2219 216.019 66.7468C217.038 68.1033 218.003 69.3861 218.966 70.5673L219.032 70.6511C220.256 72.1981 220.759 72.4242 220.779 72.4318L220.965 72.4572C221.226 72.4953 221.559 72.5106 222.054 72.5106C222.324 72.5106 222.59 72.508 222.85 72.5029C223.193 72.4979 223.525 72.4928 223.853 72.4928C225.804 72.4928 230.994 72.4928 235.233 77.0626L235.439 77.2836L235.627 77.5174C239.005 81.6808 243.06 87.3886 246.977 92.9085C249.547 96.5207 251.968 99.9399 254.005 102.638L254.13 102.805C254.13 102.805 254.399 103.191 254.463 103.283C254.491 103.283 254.988 103.278 255.222 103.275L255.626 103.265L256.03 103.293C264.199 103.831 268.726 109.933 271.718 113.969C271.779 114.048 271.838 114.132 271.899 114.208C272.719 113.611 273.593 112.958 274.454 112.311C276.463 110.807 278.539 109.252 280.383 108.084C282.593 106.623 285.606 104.977 289.398 104.977C291.989 104.977 295.787 105.765 299.262 109.491C369.893 237.49 347.696 146.159 367.573 330.013C342.093 325.977 355.109 328.355 329.518 325.376L329.516 325.371C326.013 312.716 319.068 302.944 319.068 302.944L309.811 249.455L299.785 190.618L300.392 182.416L185.275 153.147L-6.37473 155.494L-47.5872 227.238L-61.9776 227.682L-80.3129 231.709L-88.5876 241.1L-119.893 241.323L-121.444 288.559L-139.771 288.307C-139.771 288.307 -136.232 307.771 -131.681 315.86C-130.089 318.691 -127.284 323.493 -125.921 326.71C-132.587 327.925 -140.479 329.834 -147.104 330.757C-158.628 332.36 -157.7 332.144 -169.2 333.966C-159.558 159.551 -169.332 237.61 -101.192 139.862Z" fill="white"/>
</mask>
<g mask="url(#mask0_2070_2501)">
<path d="M-101.192 139.862C-83.6273 120.615 -65.6279 101.324 -59.3281 94.9915L-58.7947 94.4555C-57.4484 93.1016 -54.6516 90.282 -50.0665 90.282C-48.5576 90.282 -47.0512 90.5995 -45.5957 91.232L-45.2096 91.3971L-44.8387 91.5978C-41.8514 93.2286 -39.2629 95.4462 -36.7608 97.5902C-35.5415 98.6291 -34.3019 99.6934 -33.1512 100.552C-32.8743 100.306 -32.605 100.064 -32.384 99.8611C-31.8048 99.3353 -31.2511 98.8323 -30.7227 98.3853C-29.224 97.0593 -27.6541 95.6367 -26.0614 94.1964C-22.9928 91.4174 -19.8201 88.5419 -16.8862 86.0728C-13.2308 82.9661 -9.68461 82.1659 -7.33745 81.6376C-6.88783 81.536 -6.49412 81.4471 -6.15119 81.3556C-6.0826 81.2896 -5.99624 81.2108 -5.89717 81.1118C-2.94035 77.906 2.10707 72.381 6.9665 67.0542C10.9191 62.7282 14.7497 58.5343 17.2493 55.8137C18.8395 54.0635 22.6346 49.895 28.5025 49.895C30.4661 49.895 32.422 50.3929 34.1799 51.3378C36.2755 52.4098 38.1807 53.9492 39.8471 55.4505C44.4195 51.2236 50.638 45.3303 57.113 39.1931C70.4542 26.5453 84.2476 13.4657 90.8166 8.10077L92.5643 6.67822L94.7717 6.22358C95.4906 6.07624 96.2196 6.00001 96.9461 6.00001C100.871 6.00001 103.421 8.09822 104.262 8.78662C105.636 9.93734 106.762 11.1262 107.757 12.1804C109.264 13.7401 110.935 15.5588 112.701 17.4843C115.53 20.5631 118.736 24.0508 121.302 26.4717C121.889 27.0178 122.762 27.4318 124.388 28.1736C125.374 28.6232 126.491 29.1313 127.701 29.7866L127.866 29.8781L128.028 29.9721C131.079 31.7883 133.711 34.072 136.253 36.2769C137.206 37.105 138.171 37.9432 139.172 38.7587C139.172 38.7587 149.033 47.1135 151.147 48.8993C152.912 47.2862 159.814 40.956 159.814 40.956C161.727 39.1982 163.718 37.3641 165.53 35.9085C167.226 34.5394 170.795 31.6537 175.665 31.6537C178.02 31.6537 180.334 32.3192 182.536 33.63C185.714 35.4843 188.391 38.4081 191.3 41.7587C192.131 42.6808 192.961 43.6207 193.792 44.5605C195.428 46.4149 196.97 48.1676 198.53 49.7654C199.952 51.2108 201.377 52.2371 203.028 53.4234C205.071 54.8866 207.382 56.5478 209.806 59.1008C212.153 61.6029 214.119 64.2219 216.019 66.7468C217.038 68.1033 218.003 69.3861 218.966 70.5673L219.032 70.6511C220.256 72.1981 220.759 72.4242 220.779 72.4318L220.965 72.4572C221.226 72.4953 221.559 72.5106 222.054 72.5106C222.324 72.5106 222.59 72.508 222.85 72.5029C223.193 72.4979 223.525 72.4928 223.853 72.4928C225.804 72.4928 230.994 72.4928 235.233 77.0626L235.439 77.2836L235.627 77.5174C239.005 81.6808 243.06 87.3886 246.977 92.9085C249.547 96.5207 251.968 99.9399 254.005 102.638L254.13 102.805C254.13 102.805 254.399 103.191 254.463 103.283C254.491 103.283 254.988 103.278 255.222 103.275L255.626 103.265L256.03 103.293C264.199 103.831 268.726 109.933 271.718 113.969C271.779 114.048 271.838 114.132 271.899 114.208C272.719 113.611 273.593 112.958 274.454 112.311C276.463 110.807 278.539 109.252 280.383 108.084C282.593 106.623 285.606 104.977 289.398 104.977C291.989 104.977 295.787 105.765 299.262 109.491C369.893 237.49 347.696 146.159 367.573 330.013C342.093 325.977 355.109 328.355 329.518 325.376L329.516 325.371C326.013 312.716 319.068 302.944 319.068 302.944L309.811 249.455L299.785 190.618L300.392 182.416L185.275 153.147L-6.37473 155.494L-47.5872 227.238L-61.9776 227.682L-80.3129 231.709L-88.5876 241.1L-119.893 241.323L-121.444 288.559L-139.771 288.307C-139.771 288.307 -136.232 307.771 -131.681 315.86C-130.089 318.691 -127.284 323.493 -125.921 326.71C-132.587 327.925 -140.479 329.834 -147.104 330.757C-158.628 332.36 -157.7 332.144 -169.2 333.966C-159.558 159.551 -169.332 237.61 -101.192 139.862Z" fill="url(#paint0_linear_2070_2501)"/>
</g>
<path d="M46.4477 60.2365C53.3829 52.5319 72.8746 36.2525 85.5515 24.3204C89.5032 20.7659 92.4762 18.0116 93.6146 17.0743C93.7716 16.9522 93.8972 16.865 93.9835 16.8276C94.0961 16.7752 94.1537 16.7977 94.1563 16.8924L94.1537 16.9123C90.4977 24.9734 83.8033 37.4216 79.5402 45.9214C77.2476 50.2611 73.9266 54.526 71.375 58.7709C69.9461 61.2859 73.767 57.5894 77.5224 54.6406C83.7327 49.5532 91.7695 42.9602 97.5977 38.1843C98.511 37.4914 102.259 34.0591 101.481 36.5243C95.258 51.0438 83.204 62.2481 71.2755 72.8641C69.3049 74.5018 66.9444 76.8 64.3326 76.8C62.5242 76.7925 60.6818 75.4141 58.4835 73.2704C56.0942 70.885 53.0296 68.001 50.6167 65.7627C48.879 64.1275 47.5522 62.8662 46.9031 61.9365C46.4347 61.2635 46.2907 60.7425 46.4477 60.2365Z" fill="white"/>
<path d="M108.787 63.6674C108.782 64.3847 107.128 65.6725 106.299 66.4609C98.1706 73.419 89.2105 79.9168 79.9951 85.4475C78.9261 86.0718 77.5833 86.8087 76.5986 87.2323C75.8008 87.5775 75.3005 87.6877 75.1873 87.5285C75.1557 86.794 76.6828 85.6115 77.4911 84.8354C83.8866 79.3659 90.9378 74.2318 97.9836 69.5947C100.919 67.6924 104.076 65.6211 107.202 64.086C108.081 63.6722 108.637 63.5106 108.774 63.6478L108.787 63.6674Z" fill="white"/>
<path d="M-3.41064 90.1555C-0.229306 87.0684 2.83721 82.7673 6.68665 81.701L6.79363 81.6725C9.91755 81.0499 12.0106 81.4779 14.7196 78.7904C18.77 75.0651 25.8582 66.953 29.6267 63.9904C33.3222 61.5778 31.7119 71.07 31.1639 72.7017C29.9633 76.9744 27.1526 80.4662 24.2244 83.8439C20.4298 88.2722 16.1471 92.6252 12.2298 97.108C8.12986 102.234 5.62445 103.23 -0.542483 100.571C-7.96212 97.3 -10.5249 96.9679 -3.41064 90.1555Z" fill="white"/>
<path d="M97.6303 133.386L97.6808 133.457C97.9683 134.66 109.426 143.712 106.404 143.634C95.701 140.04 75.5854 130.245 65.6461 126.717C60.5516 125.532 72.4606 138.201 70.9019 140.06C69.3206 140.711 65.1114 137.844 62.5263 136.089C56.7559 132.056 55.1368 124.851 51.6312 118.891C50.181 116.52 48.5165 113.565 45.9692 112.437C44.2442 111.738 42.3174 112.539 39.6945 114.337C37.7273 115.682 35.2557 117.43 32.7438 119.175C28.9733 121.718 25.1827 124.661 21.6292 126.773C20.2194 127.419 22.0857 124.762 22.2976 124.293C25.3341 119.195 30.8069 110.528 33.5887 105.634C33.8736 105.052 33.8534 104.88 33.2557 105.315C24.5245 112.303 -5.79272 137.884 -15.785 145.736C-18.2969 147.322 -16.1986 142.033 -15.8985 140.463C-15.3638 138.343 -14.4281 135.769 -14.5038 133.786C-14.7308 131.256 -17.4848 133.394 -18.8265 134.113C-24.201 137.547 -34.0898 143.966 -38.0418 146.493C-42.4226 149.363 -38.5714 146.091 -35.4769 143.051C-29.7948 137.613 -23.0862 131.16 -17.2377 125.567C-13.722 122.341 -12.2365 120.129 -9.2706 120.449C-6.12563 120.727 -2.72343 123.721 0.338303 122.143C5.05448 118.427 9.1225 113.876 16.3809 107.149C22.0252 101.744 29.0641 95.0346 34.2973 90.0299C37.5659 87.0994 38.6957 85.3847 40.9025 84.1133C42.0021 83.399 45.0739 86.251 46.6426 87.3831C53.0864 92.3651 65.2854 101.845 70.6195 105.936C71.3988 106.496 72.3597 107.174 73.1718 107.144C74.0343 107.139 74.4933 106.465 75.202 106.1C78.7328 104.611 83.6558 111.645 87.1009 112.802C88.831 113.339 87.1211 110.069 88.256 110.287C96.9595 116.009 113.943 129.98 125.216 138.315C128.878 141.162 131.486 143.028 131.587 143.368C125.938 141.977 110.127 135.681 101.265 132.697C100.024 132.315 95.5698 130.532 97.6303 133.386Z" fill="white"/>
</g>
<defs>
<linearGradient id="paint0_linear_2070_2501" x1="-169.203" y1="169.984" x2="367.571" y2="169.984" gradientUnits="userSpaceOnUse">
<stop stop-color="#12A26F"/>
<stop offset="1" stop-color="#00C7F0"/>
</linearGradient>
<clipPath id="clip0_2070_2501">
<rect width="120" height="120" fill="white"/>
</clipPath>
</defs>
</svg>
