<svg width="180" height="109" viewBox="0 0 180 109" fill="none" xmlns="http://www.w3.org/2000/svg">
<path d="M0 108.138V101.402H1.75077C2.15575 100.878 2.45953 100.193 2.66212 99.3473C2.86471 98.4661 2.9657 97.394 2.9657 96.1314C2.9657 95.5241 2.942 94.8868 2.89439 94.2199C2.84658 93.5528 2.77506 92.8383 2.68005 92.0759H16.4725V101.402H18.7593V108.138H14.4359V105.476H4.32366V108.138H0ZM7.19993 96.0781C7.21206 96.4352 7.21781 96.7747 7.21781 97.0964C7.21781 98.4304 7.08697 99.538 6.8248 100.419C6.70567 100.801 6.56886 101.14 6.41385 101.438H11.8632V96.0781H7.19993ZM30.6403 105.476V100.669H28.0319L24.4587 105.476H19.0631L24.6015 98.3826L19.2418 92.0759H24.2441L27.9068 96.596H30.6403V92.0759H35.2141V96.596H37.9476L41.6101 92.0759H46.6124L41.2527 98.3826L46.7911 105.476H41.3955L37.8225 100.669H35.2141V105.476H30.6403ZM47.5952 105.476V92.0759H52.1687V100.741L57.4212 92.0759H63.4422V105.476H58.8684V96.5247L53.4373 105.476H47.5952ZM80.4505 92.0759V105.476H75.8414V96.1494H70.1955V105.476H65.5864V92.0759H80.4505ZM97.4588 92.0759V105.476H92.8497V96.1494H87.2038V105.476H82.5947V92.0759H97.4588ZM99.603 105.476V92.0759H104.177V100.741L109.43 92.0759H115.45V105.476H110.877V96.5247L105.445 105.476H99.603ZM117.594 92.0759H122.203V96.596H127.92V92.0759H132.53V105.476H127.92V100.669H122.203V105.476H117.594V92.0759ZM145.394 92.0759V96.1853H139.283V105.476H134.674V92.0759H145.394ZM145.84 105.69C145.388 105.69 144.974 105.583 144.599 105.368C144.223 105.154 143.928 104.859 143.714 104.484C143.5 104.109 143.393 103.695 143.393 103.242C143.393 102.778 143.5 102.361 143.714 101.992C143.928 101.622 144.223 101.331 144.599 101.116C144.974 100.902 145.388 100.795 145.84 100.795C146.305 100.795 146.722 100.902 147.091 101.116C147.46 101.331 147.752 101.622 147.966 101.992C148.181 102.361 148.288 102.778 148.288 103.242C148.288 103.695 148.181 104.109 147.966 104.484C147.752 104.859 147.46 105.154 147.091 105.368C146.722 105.583 146.305 105.69 145.84 105.69ZM157.65 92.0759C158.865 92.0759 159.904 92.2754 160.767 92.6744C161.631 93.0736 162.289 93.6394 162.742 94.3718C163.194 95.1043 163.421 95.9647 163.421 96.9536C163.421 97.942 163.194 98.8026 162.742 99.5351C162.289 100.268 161.631 100.833 160.767 101.232C159.904 101.631 158.865 101.831 157.65 101.831H154.452V105.476H149.842V92.0759H157.65ZM154.452 98.2398H157.346C157.799 98.2398 158.15 98.1267 158.4 97.9003C158.65 97.6741 158.775 97.3583 158.775 96.9536C158.775 96.5364 158.65 96.218 158.4 95.9975C158.15 95.7772 157.799 95.6669 157.346 95.6669H154.452V98.2398ZM167.423 105.476L169.102 102.528L163.117 92.0759H168.191L171.621 98.1504L175.033 92.0759H180L172.389 105.476H167.423Z" fill="#2F2483"/>
<mask id="mask0_2001_39" style="mask-type:luminance" maskUnits="userSpaceOnUse" x="34" y="0" width="112" height="69">
<path d="M48.6251 27.8031C52.2734 23.8054 56.0119 19.7988 57.3203 18.4835L57.4311 18.3722C57.7107 18.091 58.2916 17.5054 59.2439 17.5054C59.5573 17.5054 59.8702 17.5713 60.1725 17.7027L60.2527 17.737L60.3297 17.7786C60.9502 18.1174 61.4878 18.578 62.0075 19.0233C62.2608 19.2391 62.5182 19.4601 62.7572 19.6384C62.8147 19.5873 62.8707 19.5371 62.9166 19.4949C63.0369 19.3857 63.1519 19.2813 63.2616 19.1884C63.5729 18.913 63.899 18.6175 64.2298 18.3184C64.8671 17.7412 65.5261 17.1439 66.1355 16.6311C66.8947 15.9859 67.6312 15.8197 68.1187 15.7099C68.2121 15.6888 68.2939 15.6704 68.3651 15.6514C68.3794 15.6376 68.3973 15.6213 68.4179 15.6007C69.032 14.9349 70.0803 13.7873 71.0896 12.681C71.9106 11.7825 72.7062 10.9114 73.2254 10.3463C73.5557 9.98281 74.3439 9.11701 75.5627 9.11701C75.9705 9.11701 76.3767 9.22042 76.7418 9.41669C77.1771 9.63934 77.5728 9.95907 77.9189 10.2709C78.8686 9.39295 80.1602 8.16892 81.505 6.89423C84.276 4.2673 87.1409 1.55067 88.5053 0.436378L88.8682 0.140915L89.3267 0.0464859C89.476 0.0158844 89.6275 5.34058e-05 89.7784 5.34058e-05C90.5935 5.34058e-05 91.1232 0.435852 91.2979 0.578827C91.5833 0.817833 91.817 1.06476 92.0238 1.28371C92.3367 1.60766 92.6839 1.98541 93.0505 2.38534C93.6383 3.02479 94.3041 3.74919 94.837 4.252C94.9589 4.36543 95.1404 4.45143 95.478 4.60549C95.6828 4.69888 95.9149 4.8044 96.166 4.94052L96.2003 4.95951L96.2341 4.97903C96.8677 5.35627 97.4143 5.83059 97.9425 6.28855C98.1403 6.46054 98.3408 6.63464 98.5487 6.804C98.5487 6.804 100.597 8.53929 101.036 8.91019C101.402 8.57517 102.836 7.26038 102.836 7.26038C103.233 6.89528 103.647 6.51435 104.023 6.21203C104.376 5.92766 105.117 5.3283 106.128 5.3283C106.617 5.3283 107.098 5.46653 107.555 5.73878C108.215 6.12392 108.771 6.73119 109.376 7.4271C109.548 7.61862 109.721 7.81384 109.893 8.00905C110.233 8.3942 110.553 8.75824 110.877 9.0901C111.173 9.39031 111.469 9.60347 111.812 9.84986C112.236 10.1538 112.716 10.4988 113.219 11.029C113.707 11.5487 114.115 12.0927 114.51 12.6171C114.721 12.8989 114.922 13.1653 115.122 13.4106L115.135 13.428C115.39 13.7494 115.494 13.7963 115.498 13.7979L115.537 13.8032C115.591 13.8111 115.66 13.8143 115.763 13.8143C115.819 13.8143 115.875 13.8137 115.928 13.8127C116 13.8116 116.069 13.8106 116.137 13.8106C116.542 13.8106 117.62 13.8106 118.5 14.7597L118.543 14.8056L118.582 14.8542C119.284 15.7189 120.126 16.9044 120.94 18.0509C121.474 18.8011 121.976 19.5113 122.399 20.0716L122.425 20.1064C122.425 20.1064 122.481 20.1866 122.494 20.2056C122.5 20.2056 122.604 20.2046 122.652 20.204L122.736 20.2019L122.82 20.2077C124.517 20.3196 125.457 21.5869 126.078 22.4252C126.091 22.4416 126.103 22.459 126.116 22.4748C126.286 22.3508 126.468 22.2153 126.647 22.0807C127.064 21.7684 127.495 21.4455 127.878 21.2028C128.337 20.8994 128.963 20.5575 129.751 20.5575C130.289 20.5575 131.077 20.7211 131.799 21.4951C146.469 48.0804 141.859 29.111 145.987 67.2972C140.695 66.459 143.399 66.953 138.083 66.3341L138.083 66.3331C137.355 63.7048 135.913 61.6752 135.913 61.6752L133.99 50.5654L131.908 38.3451L132.034 36.6415L108.124 30.5624L68.3187 31.0499L59.7589 45.951L56.77 46.0433L52.9618 46.8796L51.2431 48.8301L44.741 48.8765L44.4189 58.6874L40.6124 58.6351C40.6124 58.6351 41.3475 62.6776 42.2926 64.3577C42.6232 64.9457 43.2058 65.9431 43.489 66.6114C42.1045 66.8636 40.4654 67.2601 39.0893 67.4518C36.6957 67.7848 36.8886 67.7399 34.5 68.1183C36.5026 31.8925 34.4726 48.1052 48.6251 27.8031Z" fill="white"/>
</mask>
<g mask="url(#mask0_2001_39)">
<path d="M48.6251 27.8031C52.2734 23.8054 56.0119 19.7988 57.3203 18.4835L57.4311 18.3722C57.7107 18.091 58.2916 17.5054 59.2439 17.5054C59.5573 17.5054 59.8702 17.5713 60.1725 17.7027L60.2527 17.737L60.3297 17.7786C60.9502 18.1174 61.4878 18.578 62.0075 19.0233C62.2608 19.2391 62.5182 19.4601 62.7572 19.6384C62.8147 19.5873 62.8707 19.5371 62.9166 19.4949C63.0369 19.3857 63.1519 19.2813 63.2616 19.1884C63.5729 18.913 63.899 18.6175 64.2298 18.3184C64.8671 17.7412 65.5261 17.1439 66.1355 16.6311C66.8947 15.9859 67.6312 15.8197 68.1187 15.7099C68.2121 15.6888 68.2939 15.6704 68.3651 15.6514C68.3794 15.6376 68.3973 15.6213 68.4179 15.6007C69.032 14.9349 70.0803 13.7873 71.0896 12.681C71.9106 11.7825 72.7062 10.9114 73.2254 10.3463C73.5557 9.98281 74.3439 9.11701 75.5627 9.11701C75.9705 9.11701 76.3767 9.22042 76.7418 9.41669C77.1771 9.63934 77.5728 9.95907 77.9189 10.2709C78.8686 9.39295 80.1602 8.16892 81.505 6.89423C84.276 4.2673 87.1409 1.55067 88.5053 0.436378L88.8682 0.140915L89.3267 0.0464859C89.476 0.0158844 89.6275 5.34058e-05 89.7784 5.34058e-05C90.5935 5.34058e-05 91.1232 0.435852 91.2979 0.578827C91.5833 0.817833 91.817 1.06476 92.0238 1.28371C92.3367 1.60766 92.6839 1.98541 93.0505 2.38534C93.6383 3.02479 94.3041 3.74919 94.837 4.252C94.9589 4.36543 95.1404 4.45143 95.478 4.60549C95.6828 4.69888 95.9149 4.8044 96.166 4.94052L96.2003 4.95951L96.2341 4.97903C96.8677 5.35627 97.4143 5.83059 97.9425 6.28855C98.1403 6.46054 98.3408 6.63464 98.5487 6.804C98.5487 6.804 100.597 8.53929 101.036 8.91019C101.402 8.57517 102.836 7.26038 102.836 7.26038C103.233 6.89528 103.647 6.51435 104.023 6.21203C104.376 5.92766 105.117 5.3283 106.128 5.3283C106.617 5.3283 107.098 5.46653 107.555 5.73878C108.215 6.12392 108.771 6.73119 109.376 7.4271C109.548 7.61862 109.721 7.81384 109.893 8.00905C110.233 8.3942 110.553 8.75824 110.877 9.0901C111.173 9.39031 111.469 9.60347 111.812 9.84986C112.236 10.1538 112.716 10.4988 113.219 11.029C113.707 11.5487 114.115 12.0927 114.51 12.6171C114.721 12.8989 114.922 13.1653 115.122 13.4106L115.135 13.428C115.39 13.7494 115.494 13.7963 115.498 13.7979L115.537 13.8032C115.591 13.8111 115.66 13.8143 115.763 13.8143C115.819 13.8143 115.875 13.8137 115.928 13.8127C116 13.8116 116.069 13.8106 116.137 13.8106C116.542 13.8106 117.62 13.8106 118.5 14.7597L118.543 14.8056L118.582 14.8542C119.284 15.7189 120.126 16.9044 120.94 18.0509C121.474 18.8011 121.976 19.5113 122.399 20.0716L122.425 20.1064C122.425 20.1064 122.481 20.1866 122.494 20.2056C122.5 20.2056 122.604 20.2046 122.652 20.204L122.736 20.2019L122.82 20.2077C124.517 20.3196 125.457 21.5869 126.078 22.4252C126.091 22.4416 126.103 22.459 126.116 22.4748C126.286 22.3508 126.468 22.2153 126.647 22.0807C127.064 21.7684 127.495 21.4455 127.878 21.2028C128.337 20.8994 128.963 20.5575 129.751 20.5575C130.289 20.5575 131.077 20.7211 131.799 21.4951C146.469 48.0804 141.859 29.111 145.987 67.2972C140.695 66.459 143.399 66.953 138.083 66.3341L138.083 66.3331C137.355 63.7048 135.913 61.6752 135.913 61.6752L133.99 50.5654L131.908 38.3451L132.034 36.6415L108.124 30.5624L68.3187 31.0499L59.7589 45.951L56.77 46.0433L52.9618 46.8796L51.2431 48.8301L44.741 48.8765L44.4189 58.6874L40.6124 58.6351C40.6124 58.6351 41.3475 62.6776 42.2926 64.3577C42.6232 64.9457 43.2058 65.9431 43.489 66.6114C42.1045 66.8636 40.4654 67.2601 39.0893 67.4518C36.6957 67.7848 36.8886 67.7399 34.5 68.1183C36.5026 31.8925 34.4726 48.1052 48.6251 27.8031Z" fill="url(#paint0_linear_2001_39)"/>
</g>
<path d="M55.9139 29.8443C55.7603 29.8327 55.8231 29.6101 55.8215 29.4977C55.83 29.3964 55.8368 29.2961 55.8184 29.2334C55.7287 28.9754 55.0876 29.5499 54.9114 29.656C53.5043 30.6668 51.4883 32.3689 50.0715 33.2484C49.3874 33.4436 51.4121 31.0747 51.4259 30.8457C51.6419 30.2722 48.7325 32.074 48.3685 32.1304C48.2374 32.1621 48.3821 32.0302 48.4411 31.9574C49.948 30.478 56.6889 23.2657 58.7845 21.3563C59.3327 21.3964 56.5918 26.1854 56.6989 26.6001C56.7786 27.0311 58.86 25.4737 59.0009 25.9928L59.003 26.0034C59.0399 26.6085 56.4183 29.7319 55.9139 29.8443Z" fill="white"/>
<path d="M104.701 10.5003C105.226 10.0107 105.983 9.32274 106.504 8.85107C106.9 8.49968 107.132 8.34298 107.198 8.46011L107.203 8.46855C107.293 8.783 107.097 9.39186 107.16 10.0181C107.224 11.02 107.843 11.8426 108.507 12.6498C108.656 12.8287 108.812 13.0065 108.97 13.1774C109.475 13.7625 110.005 14.0712 109.991 14.5133C109.891 14.8842 109.455 15.0203 109.117 15.1543C108.445 15.3981 107.725 15.3812 107.176 14.8852C106.435 14.2484 105.686 13.3985 104.968 12.74C104.04 11.85 103.625 11.4817 104.701 10.5003Z" fill="white"/>
<path d="M79.5365 11.2216C80.9347 9.59075 84.8643 6.14498 87.42 3.61935C88.2166 2.86699 88.816 2.28399 89.0455 2.08562C89.0772 2.05976 89.1025 2.0413 89.1199 2.03338C89.1426 2.0223 89.1542 2.02705 89.1547 2.0471L89.1542 2.05132C88.4171 3.75758 87.0675 6.39243 86.2081 8.19155C85.7459 9.1101 85.0764 10.0128 84.5619 10.9113C84.2739 11.4437 85.0442 10.6613 85.8013 10.0371C87.0533 8.96026 88.6735 7.56475 89.8485 6.55387C90.0326 6.4072 90.7882 5.68069 90.6315 6.20249C89.3768 9.27577 86.9467 11.6473 84.5419 13.8944C84.1446 14.241 83.6687 14.7275 83.1422 14.7275C82.7776 14.7259 82.4062 14.4341 81.963 13.9804C81.4813 13.4755 80.8635 12.865 80.377 12.3913C80.0267 12.0451 79.7592 11.7782 79.6283 11.5814C79.5339 11.4389 79.5049 11.3287 79.5365 11.2216Z" fill="white"/>
<path d="M92.1584 11.9385C92.1573 12.0931 91.826 12.3706 91.6598 12.5405C90.0311 14.0399 88.2356 15.4402 86.389 16.632C86.1748 16.7666 85.9058 16.9254 85.7084 17.0167C85.5486 17.091 85.4483 17.1148 85.4256 17.0805C85.4193 16.9222 85.7253 16.6674 85.8873 16.5001C87.1688 15.3215 88.5818 14.2151 89.9936 13.2158C90.5819 12.8059 91.2145 12.3595 91.8407 12.0287C92.017 11.9395 92.1283 11.9047 92.1557 11.9343L92.1584 11.9385Z" fill="white"/>
<path d="M68.7752 17.556C69.4184 16.9281 70.0383 16.0533 70.8165 15.8365L70.8381 15.8307C71.4697 15.7041 71.8928 15.7911 72.4405 15.2445C73.2593 14.4869 74.6923 12.8371 75.4541 12.2346C76.2012 11.7439 75.8757 13.6744 75.7649 14.0062C75.5222 14.8752 74.954 15.5854 74.362 16.2723C73.5949 17.1729 72.7291 18.0582 71.9371 18.9699C71.1083 20.0125 70.6018 20.2151 69.355 19.6743C67.8551 19.009 67.337 18.9414 68.7752 17.556Z" fill="white"/>
<path d="M89.8596 26.2376L89.8702 26.2523C89.9303 26.5029 92.3272 28.3886 91.6952 28.3722C89.456 27.6236 85.2479 25.5833 83.1686 24.8484C82.1028 24.6015 84.5942 27.2405 84.2681 27.6278C83.9373 27.7634 83.0567 27.1661 82.5159 26.8005C81.3088 25.9606 80.9701 24.4595 80.2367 23.2181C79.9333 22.7243 79.5851 22.1085 79.0522 21.8738C78.6913 21.7281 78.2883 21.8949 77.7396 22.2695C77.328 22.5496 76.811 22.9137 76.2855 23.2772C75.4967 23.8069 74.7037 24.42 73.9603 24.86C73.6654 24.9945 74.0558 24.4411 74.1002 24.3435C74.7354 23.2814 75.8803 21.4759 76.4622 20.4566C76.5219 20.3353 76.5176 20.2994 76.3926 20.3901C74.566 21.8458 68.2237 27.1746 66.1334 28.8101C65.6079 29.1404 66.0468 28.0388 66.1096 27.7117C66.2215 27.2701 66.4172 26.734 66.4014 26.3209C66.3539 25.7938 65.7778 26.2391 65.4971 26.389C64.3728 27.1044 62.304 28.4413 61.4773 28.9679C60.5608 29.5657 61.3665 28.884 62.0139 28.2509C63.2025 27.1181 64.606 25.7738 65.8295 24.6088C66.565 23.9367 66.8757 23.4761 67.4962 23.5426C68.1541 23.6006 68.8658 24.2242 69.5063 23.8955C70.4929 23.1215 71.344 22.1734 72.8624 20.7721C74.0432 19.6462 75.5157 18.2486 76.6105 17.2061C77.2943 16.5956 77.5306 16.2384 77.9923 15.9736C78.2223 15.8248 78.8649 16.4189 79.1931 16.6547C80.5411 17.6925 83.0931 19.6673 84.209 20.5194C84.372 20.636 84.5731 20.7774 84.7429 20.7711C84.9234 20.77 85.0194 20.6297 85.1677 20.5537C85.9063 20.2435 86.9362 21.7086 87.6569 21.9497C88.0188 22.0616 87.6611 21.3804 87.8985 21.4258C89.7193 22.6177 93.2722 25.5279 95.6305 27.2643C96.3966 27.8573 96.9422 28.2461 96.9633 28.3168C95.7814 28.0272 92.4739 26.7156 90.6199 26.094C90.3603 26.0144 89.4286 25.6429 89.8596 26.2376Z" fill="white"/>
<path d="M124.802 30.5123C123.761 30.0301 122.518 29.3669 121.444 28.8182L121.427 28.8097C119.27 27.5962 114.965 25.0215 112.666 23.7141C112.429 23.5912 111.936 23.3279 112.157 23.7178C112.974 24.8743 114.309 26.2493 115.423 27.5894C116.297 28.5618 116.715 29.2466 115.816 28.6636C115.387 28.3919 114.803 27.8833 114.399 27.5978C113.466 26.9346 113.92 27.6326 114.368 28.3502C114.865 29.1337 116.201 31.0515 116.436 31.5195C116.555 31.8123 116.021 31.3491 115.928 31.2847C114.897 30.4759 114.065 29.532 113.139 28.4911C112.628 27.9598 112.072 27.2348 111.467 26.8761C110.957 26.6703 111.597 27.9455 111.672 28.1972C112.033 29.0946 112.113 29.6064 111.456 28.9337C110.045 27.5224 105.844 23.3132 103.916 21.3832C103.519 21.0297 103.107 20.4404 102.902 20.5934C102.839 20.653 102.788 20.7538 102.705 20.8013C102.61 20.8604 102.485 20.8387 102.38 20.7944C101.983 20.6134 101.533 20.1291 101.121 19.6168C100.748 19.1478 100.5 18.5948 100.394 18.006C100.248 17.1534 100.186 16.266 99.6599 15.5437C99.0949 14.6246 95.4845 11.2142 98.9181 13.715C99.652 14.2347 100.496 14.8504 101.029 15.2124C101.432 15.4783 101.716 15.6297 101.801 15.0462C101.891 14.6558 102.113 14.7581 102.493 14.9976C104.118 16.0819 108.762 19.2185 110.55 20.4114C111.094 20.7992 111.28 20.6177 111.767 20.3048C112.638 19.8505 113.637 21.3547 114.217 21.6254C114.868 21.9947 114.292 20.7285 114.523 20.6804C116.469 22.3661 121.973 27.7603 124.785 30.3883C124.848 30.4506 124.976 30.5809 124.802 30.5123Z" fill="white"/>
<path d="M133.854 30.8188C132.211 29.8601 130.148 28.6382 128.513 27.6796C128.103 27.4015 127.008 26.9425 127.226 26.6075L127.232 26.5927C127.351 26.3605 127.587 26.1838 127.793 26.0113C128.203 25.691 128.752 25.2747 129.113 25.1481C129.738 24.9234 129.792 25.6942 129.915 26.1426C130.011 26.5278 130.227 26.8549 130.503 27.144C131.427 28.119 133.23 29.9556 133.985 30.7623C134.192 30.9887 134.092 30.9554 133.854 30.8188Z" fill="white"/>
<mask id="mask1_2001_39" style="mask-type:luminance" maskUnits="userSpaceOnUse" x="78" y="73" width="5" height="11">
<path d="M82.2264 83.0304C80.555 80.5107 80.4157 76.1633 80.5803 73.7654H78.6393C78.8851 76.5192 79.8089 81.2512 82.2264 83.0304Z" fill="white"/>
</mask>
<g mask="url(#mask1_2001_39)">
<path d="M82.2264 83.0304C80.555 80.5107 80.4157 76.1633 80.5803 73.7654H78.6393C78.8851 76.5192 79.8089 81.2512 82.2264 83.0304Z" fill="#2F2483"/>
</g>
<mask id="mask2_2001_39" style="mask-type:luminance" maskUnits="userSpaceOnUse" x="80" y="73" width="5" height="11">
<path d="M84.2044 83.0304C82.5329 80.5107 82.3936 76.1633 82.5572 73.7654H80.6161C80.8631 76.5192 81.7869 81.2512 84.2044 83.0304Z" fill="white"/>
</mask>
<g mask="url(#mask2_2001_39)">
<path d="M84.2044 83.0304C82.5329 80.5107 82.3936 76.1633 82.5572 73.7654H80.6161C80.8631 76.5192 81.7869 81.2512 84.2044 83.0304Z" fill="#2F2483"/>
</g>
<mask id="mask3_2001_39" style="mask-type:luminance" maskUnits="userSpaceOnUse" x="77" y="73" width="4" height="11">
<path d="M78.6487 80.7737C79.1394 81.9396 79.7519 82.7908 80.3571 83.1908C78.5828 80.6987 78.435 76.2143 78.6034 73.7655H77.3951C77.4189 76.4225 77.861 78.904 78.6487 80.7737Z" fill="white"/>
</mask>
<g mask="url(#mask3_2001_39)">
<path d="M78.6487 80.7737C79.1394 81.9396 79.7519 82.7908 80.3571 83.1908C78.5828 80.6987 78.435 76.2143 78.6034 73.7655H77.3951C77.4189 76.4225 77.861 78.904 78.6487 80.7737Z" fill="#2F2483"/>
</g>
<mask id="mask4_2001_39" style="mask-type:luminance" maskUnits="userSpaceOnUse" x="82" y="73" width="5" height="11">
<path d="M84.1754 73.7655H82.5941C82.8421 76.5395 83.7765 81.3217 86.2335 83.0702C86.2536 83.0822 86.2742 83.0929 86.2942 83.104C86.3665 83.1003 86.4604 83.0947 86.5717 83.0883C85.0338 81.0456 84.2091 77.3505 84.1754 73.7655Z" fill="white"/>
</mask>
<g mask="url(#mask4_2001_39)">
<path d="M84.1754 73.7655H82.5941C82.8421 76.5395 83.7765 81.3217 86.2335 83.0702C86.2536 83.0822 86.2742 83.0929 86.2942 83.104C86.3665 83.1003 86.4604 83.0947 86.5717 83.0883C85.0338 81.0456 84.2091 77.3505 84.1754 73.7655Z" fill="#2F2483"/>
</g>
<mask id="mask5_2001_39" style="mask-type:luminance" maskUnits="userSpaceOnUse" x="41" y="65" width="12" height="19">
<path d="M50.8105 80.7925C49.8965 78.6219 49.3679 75.792 49.3052 72.7678C49.3015 72.5658 49.299 72.3637 49.299 72.1606C49.299 70.9301 49.3765 69.7273 49.5245 68.5808H49.3679C46.4036 68.5808 43.7899 67.1905 42.4429 65.0739C41.8366 66.9576 41.4419 69.3823 41.4419 72.1606C41.4419 78.0842 43.2327 82.4058 45.0547 83.2803C42.7957 80.4667 42.6115 75.0165 42.8118 72.1606C43.0814 75.453 43.7878 79.4255 45.9667 82.1816C46.0559 82.2863 46.1559 82.3963 46.2635 82.5039C44.5119 79.5527 44.3756 74.7716 44.5585 72.1606C44.828 75.453 45.5345 79.4255 47.7134 82.1816C47.8024 82.2863 47.9025 82.3963 48.0101 82.5039C46.2587 79.5527 46.1223 74.7716 46.3047 72.1606C46.5745 75.453 47.2807 79.4255 49.4598 82.1816C49.5488 82.2863 49.649 82.3963 49.7565 82.5039C48.005 79.5527 47.869 74.7716 48.0513 72.1606C48.3211 75.453 49.0276 79.4255 51.2062 82.1816C51.428 82.4417 51.7116 82.7317 52.0289 82.9493C51.579 82.3669 51.1693 81.6451 50.8105 80.7925Z" fill="white"/>
</mask>
<g mask="url(#mask5_2001_39)">
<path d="M50.8105 80.7925C49.8965 78.6219 49.3679 75.792 49.3052 72.7678C49.3015 72.5658 49.299 72.3637 49.299 72.1606C49.299 70.9301 49.3765 69.7273 49.5245 68.5808H49.3679C46.4036 68.5808 43.7899 67.1905 42.4429 65.0739C41.8366 66.9576 41.4419 69.3823 41.4419 72.1606C41.4419 78.0842 43.2327 82.4058 45.0547 83.2803C42.7957 80.4667 42.6115 75.0165 42.8118 72.1606C43.0814 75.453 43.7878 79.4255 45.9667 82.1816C46.0559 82.2863 46.1559 82.3963 46.2635 82.5039C44.5119 79.5527 44.3756 74.7716 44.5585 72.1606C44.828 75.453 45.5345 79.4255 47.7134 82.1816C47.8024 82.2863 47.9025 82.3963 48.0101 82.5039C46.2587 79.5527 46.1223 74.7716 46.3047 72.1606C46.5745 75.453 47.2807 79.4255 49.4598 82.1816C49.5488 82.2863 49.649 82.3963 49.7565 82.5039C48.005 79.5527 47.869 74.7716 48.0513 72.1606C48.3211 75.453 49.0276 79.4255 51.2062 82.1816C51.428 82.4417 51.7116 82.7317 52.0289 82.9493C51.579 82.3669 51.1693 81.6451 50.8105 80.7925Z" fill="#2F2483"/>
</g>
<mask id="mask6_2001_39" style="mask-type:luminance" maskUnits="userSpaceOnUse" x="130" y="63" width="8" height="21">
<path d="M131.003 71.2962C131.004 71.2859 131.008 71.2773 131.01 71.2674C131.405 68.9564 132.418 67.0783 134.008 67.0783C136.099 67.0783 137.194 70.3272 137.194 73.5373C137.194 76.7464 136.099 79.9955 134.008 79.9955C132.418 79.9955 131.405 78.1174 131.01 75.8064C131.008 75.7965 131.004 75.7878 131.003 75.7775C130.995 75.7371 130.991 75.6957 130.985 75.6555C130.967 75.5424 130.95 75.429 130.936 75.3138C130.927 75.2497 130.919 75.1848 130.912 75.1195C130.897 74.9898 130.883 74.8596 130.872 74.7281C130.869 74.6809 130.865 74.6337 130.862 74.5865C130.85 74.4354 130.841 74.2834 130.834 74.1311C130.833 74.1092 130.833 74.087 130.833 74.0657C130.826 73.8895 130.822 73.7135 130.822 73.5373C130.822 73.3611 130.826 73.1846 130.833 73.0086C130.833 72.9868 130.833 72.9645 130.834 72.9425C130.841 72.7904 130.85 72.6387 130.862 72.4871C130.865 72.4398 130.869 72.3929 130.872 72.3457C130.883 72.2146 130.897 72.0845 130.912 71.9549C130.919 71.8894 130.927 71.824 130.936 71.7591C130.95 71.6454 130.967 71.5322 130.984 71.4194C130.991 71.3787 130.995 71.337 131.003 71.2962ZM130.305 73.5373C130.305 76.2802 130.751 78.8504 131.56 80.7737C132.254 82.422 133.192 83.4463 134.008 83.4463C135.756 83.4463 137.711 79.2082 137.711 73.5373C137.711 70.7936 137.265 68.2233 136.456 66.3001C135.762 64.6517 134.824 63.6279 134.008 63.6279C132.478 63.6279 130.791 66.8726 130.392 71.4831C130.364 71.8121 130.342 72.1486 130.327 72.491C130.313 72.8339 130.305 73.1824 130.305 73.5373Z" fill="white"/>
</mask>
<g mask="url(#mask6_2001_39)">
<path d="M131.003 71.2962C131.004 71.2859 131.008 71.2773 131.01 71.2674C131.405 68.9564 132.418 67.0783 134.008 67.0783C136.099 67.0783 137.194 70.3272 137.194 73.5373C137.194 76.7464 136.099 79.9955 134.008 79.9955C132.418 79.9955 131.405 78.1174 131.01 75.8064C131.008 75.7965 131.004 75.7878 131.003 75.7775C130.995 75.7371 130.991 75.6957 130.985 75.6555C130.967 75.5424 130.95 75.429 130.936 75.3138C130.927 75.2497 130.919 75.1848 130.912 75.1195C130.897 74.9898 130.883 74.8596 130.872 74.7281C130.869 74.6809 130.865 74.6337 130.862 74.5865C130.85 74.4354 130.841 74.2834 130.834 74.1311C130.833 74.1092 130.833 74.087 130.833 74.0657C130.826 73.8895 130.822 73.7135 130.822 73.5373C130.822 73.3611 130.826 73.1846 130.833 73.0086C130.833 72.9868 130.833 72.9645 130.834 72.9425C130.841 72.7904 130.85 72.6387 130.862 72.4871C130.865 72.4398 130.869 72.3929 130.872 72.3457C130.883 72.2146 130.897 72.0845 130.912 71.9549C130.919 71.8894 130.927 71.824 130.936 71.7591C130.95 71.6454 130.967 71.5322 130.984 71.4194C130.991 71.3787 130.995 71.337 131.003 71.2962ZM130.305 73.5373C130.305 76.2802 130.751 78.8504 131.56 80.7737C132.254 82.422 133.192 83.4463 134.008 83.4463C135.756 83.4463 137.711 79.2082 137.711 73.5373C137.711 70.7936 137.265 68.2233 136.456 66.3001C135.762 64.6517 134.824 63.6279 134.008 63.6279C132.478 63.6279 130.791 66.8726 130.392 71.4831C130.364 71.8121 130.342 72.1486 130.327 72.491C130.313 72.8339 130.305 73.1824 130.305 73.5373Z" fill="#2F2483"/>
</g>
<mask id="mask7_2001_39" style="mask-type:luminance" maskUnits="userSpaceOnUse" x="122" y="71" width="4" height="2">
<path d="M125.054 72.0177C125.054 71.7743 124.566 71.4917 123.937 71.4917C123.677 71.4917 123.442 71.5404 123.254 71.6146C123.059 71.6919 122.915 71.7989 122.854 71.9056C122.852 71.9076 122.851 71.9095 122.85 71.9114C122.842 71.9266 122.836 71.9417 122.831 71.9567C122.83 71.96 122.829 71.9629 122.827 71.9662C122.823 71.9831 122.82 72.0008 122.82 72.0177C122.82 72.0398 122.826 72.0639 122.833 72.087C122.835 72.0895 122.836 72.0919 122.836 72.0946C122.866 72.1663 122.935 72.2417 123.036 72.3095C123.043 72.3141 123.05 72.319 123.057 72.3227C123.086 72.3417 123.118 72.3588 123.151 72.3757C123.167 72.3833 123.182 72.3903 123.197 72.3969C123.222 72.4084 123.248 72.4184 123.275 72.4284C123.3 72.4381 123.326 72.4476 123.353 72.4557C123.381 72.465 123.411 72.4732 123.442 72.4814C123.459 72.4857 123.476 72.4909 123.494 72.4946C123.542 72.5053 123.592 72.5146 123.643 72.5216C123.737 72.5357 123.835 72.5435 123.937 72.5435C124.566 72.5435 125.054 72.2607 125.054 72.0177Z" fill="white"/>
</mask>
<g mask="url(#mask7_2001_39)">
<path d="M125.054 72.0177C125.054 71.7743 124.566 71.4917 123.937 71.4917C123.677 71.4917 123.442 71.5404 123.254 71.6146C123.059 71.6919 122.915 71.7989 122.854 71.9056C122.852 71.9076 122.851 71.9095 122.85 71.9114C122.842 71.9266 122.836 71.9417 122.831 71.9567C122.83 71.96 122.829 71.9629 122.827 71.9662C122.823 71.9831 122.82 72.0008 122.82 72.0177C122.82 72.0398 122.826 72.0639 122.833 72.087C122.835 72.0895 122.836 72.0919 122.836 72.0946C122.866 72.1663 122.935 72.2417 123.036 72.3095C123.043 72.3141 123.05 72.319 123.057 72.3227C123.086 72.3417 123.118 72.3588 123.151 72.3757C123.167 72.3833 123.182 72.3903 123.197 72.3969C123.222 72.4084 123.248 72.4184 123.275 72.4284C123.3 72.4381 123.326 72.4476 123.353 72.4557C123.381 72.465 123.411 72.4732 123.442 72.4814C123.459 72.4857 123.476 72.4909 123.494 72.4946C123.542 72.5053 123.592 72.5146 123.643 72.5216C123.737 72.5357 123.835 72.5435 123.937 72.5435C124.566 72.5435 125.054 72.2607 125.054 72.0177Z" fill="#2F2483"/>
</g>
<mask id="mask8_2001_39" style="mask-type:luminance" maskUnits="userSpaceOnUse" x="123" y="73" width="4" height="11">
<path d="M123.486 73.7629L123.256 73.7479C123.5 76.4993 124.422 81.2475 126.845 83.0298C125.125 80.4384 125.027 75.9121 125.213 73.5641C124.839 73.7081 124.405 73.7906 123.937 73.7906C123.782 73.7906 123.632 73.7807 123.486 73.7629Z" fill="white"/>
</mask>
<g mask="url(#mask8_2001_39)">
<path d="M123.486 73.7629L123.256 73.7479C123.5 76.4993 124.422 81.2475 126.845 83.0298C125.125 80.4384 125.027 75.9121 125.213 73.5641C124.839 73.7081 124.405 73.7906 123.937 73.7906C123.782 73.7906 123.632 73.7807 123.486 73.7629Z" fill="#2F2483"/>
</g>
<mask id="mask9_2001_39" style="mask-type:luminance" maskUnits="userSpaceOnUse" x="122" y="73" width="3" height="11">
<path d="M123.319 80.7736C123.783 81.8752 124.355 82.6957 124.928 83.1202C123.194 80.6081 123.054 76.1676 123.223 73.746L122.066 73.6698C122.079 76.3634 122.523 78.8817 123.319 80.7736Z" fill="white"/>
</mask>
<g mask="url(#mask9_2001_39)">
<path d="M123.319 80.7736C123.783 81.8752 124.355 82.6957 124.928 83.1202C123.194 80.6081 123.054 76.1676 123.223 73.746L122.066 73.6698C122.079 76.3634 122.523 78.8817 123.319 80.7736Z" fill="#2F2483"/>
</g>
<mask id="mask10_2001_39" style="mask-type:luminance" maskUnits="userSpaceOnUse" x="125" y="63" width="7" height="21">
<path d="M128.844 73.5373C128.844 69.6617 129.773 65.6124 131.534 63.6275H130.686L127.282 71.094C127.172 71.3352 126.901 71.4918 126.602 71.4918C126.58 71.4918 126.559 71.491 126.537 71.4894L126.398 71.4786C126.473 71.6478 126.514 71.829 126.514 72.0178C126.514 72.689 125.997 73.261 125.217 73.5629C125.435 76.2808 126.343 81.2065 128.822 83.0305C127.096 80.4283 127.003 75.8771 127.192 73.5373C127.409 76.2689 128.326 81.2726 130.851 83.0702C130.872 83.0822 130.892 83.0929 130.912 83.104C130.995 83.0997 131.107 83.0933 131.241 83.0859C129.671 80.999 128.844 77.1908 128.844 73.5373Z" fill="white"/>
</mask>
<g mask="url(#mask10_2001_39)">
<path d="M128.844 73.5373C128.844 69.6617 129.773 65.6124 131.534 63.6275H130.686L127.282 71.094C127.172 71.3352 126.901 71.4918 126.602 71.4918C126.58 71.4918 126.559 71.491 126.537 71.4894L126.398 71.4786C126.473 71.6478 126.514 71.829 126.514 72.0178C126.514 72.689 125.997 73.261 125.217 73.5629C125.435 76.2808 126.343 81.2065 128.822 83.0305C127.096 80.4283 127.003 75.8771 127.192 73.5373C127.409 76.2689 128.326 81.2726 130.851 83.0702C130.872 83.0822 130.892 83.0929 130.912 83.104C130.995 83.0997 131.107 83.0933 131.241 83.0859C129.671 80.999 128.844 77.1908 128.844 73.5373Z" fill="#2F2483"/>
</g>
<mask id="mask11_2001_39" style="mask-type:luminance" maskUnits="userSpaceOnUse" x="132" y="68" width="4" height="11">
<path d="M134.008 78.7478C134.524 78.7478 135.733 76.975 135.733 73.5373C135.733 70.0988 134.524 68.3258 134.008 68.3258C133.66 68.3258 132.995 69.1351 132.6 70.7179C133.409 71.0879 133.78 72.3154 133.78 73.5373C133.78 74.7584 133.409 75.9863 132.6 76.3559C132.995 77.9387 133.66 78.7478 134.008 78.7478Z" fill="white"/>
</mask>
<g mask="url(#mask11_2001_39)">
<path d="M134.008 78.7478C134.524 78.7478 135.733 76.975 135.733 73.5373C135.733 70.0988 134.524 68.3258 134.008 68.3258C133.66 68.3258 132.995 69.1351 132.6 70.7179C133.409 71.0879 133.78 72.3154 133.78 73.5373C133.78 74.7584 133.409 75.9863 132.6 76.3559C132.995 77.9387 133.66 78.7478 134.008 78.7478Z" fill="#2F2483"/>
</g>
<mask id="mask12_2001_39" style="mask-type:luminance" maskUnits="userSpaceOnUse" x="132" y="73" width="1" height="2">
<path d="M132.293 74.0575C132.31 73.8996 132.319 73.7259 132.319 73.5373C132.319 73.3483 132.31 73.175 132.293 73.0168C132.286 73.1886 132.282 73.3624 132.282 73.5373C132.282 73.7115 132.286 73.8852 132.293 74.0575Z" fill="white"/>
</mask>
<g mask="url(#mask12_2001_39)">
<path d="M132.293 74.0575C132.31 73.8996 132.319 73.7259 132.319 73.5373C132.319 73.3483 132.31 73.175 132.293 73.0168C132.286 73.1886 132.282 73.3624 132.282 73.5373C132.282 73.7115 132.286 73.8852 132.293 74.0575Z" fill="#2F2483"/>
</g>
<mask id="mask13_2001_39" style="mask-type:luminance" maskUnits="userSpaceOnUse" x="110" y="35" width="7" height="13">
<path d="M114.841 36.7707L111.008 35.9735L110.204 46.2739L116.023 47.2198L114.841 36.7707Z" fill="white"/>
</mask>
<g mask="url(#mask13_2001_39)">
<path d="M114.841 36.7707L111.008 35.9735L110.204 46.2739L116.023 47.2198L114.841 36.7707Z" fill="#2F2483"/>
</g>
<mask id="mask14_2001_39" style="mask-type:luminance" maskUnits="userSpaceOnUse" x="47" y="51" width="5" height="6">
<path d="M49.5989 53.1111C48.5707 53.3728 48.3363 54.4739 48.6628 55.2875C47.8562 54.8786 47.7412 53.8329 48.2842 53.1897C48.6872 52.6574 49.6321 52.4215 50.2436 52.8262C50.429 52.9476 50.5692 53.1037 50.6368 53.2789C50.2627 53.0979 49.8987 53.0473 49.5989 53.1111ZM49.65 51.9082C48.427 51.9082 47.4326 52.9734 47.4326 54.2834C47.4326 55.5924 48.427 56.6584 49.65 56.6584C50.8717 56.6584 51.867 55.5924 51.867 54.2834C51.867 52.9734 50.8717 51.9082 49.65 51.9082Z" fill="white"/>
</mask>
<g mask="url(#mask14_2001_39)">
<path d="M49.5989 53.1111C48.5707 53.3728 48.3363 54.4739 48.6628 55.2875C47.8562 54.8786 47.7412 53.8329 48.2842 53.1897C48.6872 52.6574 49.6321 52.4215 50.2436 52.8262C50.429 52.9476 50.5692 53.1037 50.6368 53.2789C50.2627 53.0979 49.8987 53.0473 49.5989 53.1111ZM49.65 51.9082C48.427 51.9082 47.4326 52.9734 47.4326 54.2834C47.4326 55.5924 48.427 56.6584 49.65 56.6584C50.8717 56.6584 51.867 55.5924 51.867 54.2834C51.867 52.9734 50.8717 51.9082 49.65 51.9082Z" fill="#2F2483"/>
</g>
<mask id="mask15_2001_39" style="mask-type:luminance" maskUnits="userSpaceOnUse" x="126" y="39" width="7" height="11">
<path d="M126.693 39.2367L127.812 49.1361L132.326 49.87L130.755 40.0814L126.693 39.2367Z" fill="white"/>
</mask>
<g mask="url(#mask15_2001_39)">
<path d="M126.693 39.2367L127.812 49.1361L132.326 49.87L130.755 40.0814L126.693 39.2367Z" fill="#2F2483"/>
</g>
<mask id="mask16_2001_39" style="mask-type:luminance" maskUnits="userSpaceOnUse" x="135" y="60" width="1" height="1">
<path d="M135.415 60.1312L135.235 60.0564L135.385 60.4169L135.415 60.1312Z" fill="white"/>
</mask>
<g mask="url(#mask16_2001_39)">
<path d="M135.415 60.1312L135.235 60.0564L135.385 60.4169L135.415 60.1312Z" fill="#2F2483"/>
</g>
<mask id="mask17_2001_39" style="mask-type:luminance" maskUnits="userSpaceOnUse" x="118" y="37" width="7" height="12">
<path d="M124.146 48.5404L123.007 38.4701L118.527 37.5378L119.688 47.8155L124.146 48.5404Z" fill="white"/>
</mask>
<g mask="url(#mask17_2001_39)">
<path d="M124.146 48.5404L123.007 38.4701L118.527 37.5378L119.688 47.8155L124.146 48.5404Z" fill="#2F2483"/>
</g>
<mask id="mask18_2001_39" style="mask-type:luminance" maskUnits="userSpaceOnUse" x="64" y="34" width="43" height="10">
<path d="M67.7617 37.8617L67.5348 38.2574H98.5668L66.8041 39.5321L66.553 39.9706H96.5619L65.846 41.203L65.5711 41.6832H94.556L64.8884 42.8734L64.4357 43.6627H105.134L106.355 34.3843H69.755L69.4986 34.8322H102.578L68.7193 36.1908L68.5167 36.5448H100.572L67.7617 37.8617Z" fill="white"/>
</mask>
<g mask="url(#mask18_2001_39)">
<path d="M67.7617 37.8617L67.5348 38.2574H98.5668L66.8041 39.5321L66.553 39.9706H96.5619L65.846 41.203L65.5711 41.6832H94.556L64.8884 42.8734L64.4357 43.6627H105.134L106.355 34.3843H69.755L69.4986 34.8322H102.578L68.7193 36.1908L68.5167 36.5448H100.572L67.7617 37.8617Z" fill="#2F2483"/>
</g>
<mask id="mask19_2001_39" style="mask-type:luminance" maskUnits="userSpaceOnUse" x="55" y="52" width="25" height="6">
<path d="M78.9511 52.9016C78.8846 52.5022 78.4783 52.2004 78.0056 52.2004H56.6388C56.2209 52.2004 55.8627 52.4299 55.735 52.7597H78.1396L55.5467 53.6661L55.391 54.4728H76.1342L55.229 55.3111L55.0602 56.1854H74.1293L55.1008 56.9483C55.1335 57.0044 55.1742 57.0578 55.2232 57.1068C55.4047 57.2892 55.6701 57.3945 55.9508 57.3945H78.5955C78.8767 57.3945 79.132 57.295 79.3162 57.1138C79.5003 56.9333 79.5794 56.7023 79.5409 56.4653L78.9511 52.9016Z" fill="white"/>
</mask>
<g mask="url(#mask19_2001_39)">
<path d="M78.9511 52.9016C78.8846 52.5022 78.4783 52.2004 78.0056 52.2004H56.6388C56.2209 52.2004 55.8627 52.4299 55.735 52.7597H78.1396L55.5467 53.6661L55.391 54.4728H76.1342L55.229 55.3111L55.0602 56.1854H74.1293L55.1008 56.9483C55.1335 57.0044 55.1742 57.0578 55.2232 57.1068C55.4047 57.2892 55.6701 57.3945 55.9508 57.3945H78.5955C78.8767 57.3945 79.132 57.295 79.3162 57.1138C79.5003 56.9333 79.5794 56.7023 79.5409 56.4653L78.9511 52.9016Z" fill="#2F2483"/>
</g>
<mask id="mask20_2001_39" style="mask-type:luminance" maskUnits="userSpaceOnUse" x="52" y="31" width="82" height="37">
<path d="M106.756 44.356C106.714 44.6715 106.403 44.91 106.031 44.91H63.5091C63.2569 44.91 63.0226 44.7987 62.8891 44.6161C62.7562 44.4341 62.7419 44.2051 62.8532 44.0115L66.3407 37.9283C66.3433 37.9193 66.3454 37.9108 66.3486 37.9024C66.3613 37.8839 66.375 37.8655 66.3876 37.8465L68.8869 33.4864C69.0098 33.2722 69.2641 33.1376 69.5432 33.1376H107.416C107.624 33.1376 107.821 33.2131 107.96 33.345C108.099 33.4774 108.164 33.6542 108.141 33.8309L106.756 44.356ZM108.868 49.6373L131.456 52.7597L111.832 51.972L111.816 52.1345L128.381 54.4243L111.664 53.7526L111.622 54.1974L125.305 56.0889L111.495 55.5349L111.427 56.2606L122.23 57.7536L111.328 57.3158L111.233 58.3238L119.155 59.4184L111.16 59.0975L110.791 63.004L108.868 49.6373ZM109.852 35.1504C109.867 34.9668 109.975 34.7985 110.149 34.6898C110.323 34.5806 110.545 34.5426 110.754 34.5864L115.935 35.6638C116.237 35.7266 116.459 35.9461 116.488 36.2104L117.814 47.9284C117.836 48.1236 117.749 48.3167 117.579 48.4492C117.443 48.5547 117.267 48.6122 117.086 48.6122C117.042 48.6122 116.996 48.608 116.95 48.6006L109.539 47.3966C109.177 47.3375 108.923 47.0568 108.948 46.7424L109.852 35.1504ZM117.466 36.2531C117.645 36.1207 117.887 36.07 118.117 36.1175L124.1 37.3627C124.403 37.4255 124.625 37.6449 124.655 37.9087L125.937 49.249C125.959 49.4437 125.872 49.6373 125.703 49.7692C125.566 49.8747 125.39 49.9323 125.21 49.9323C125.165 49.9323 125.119 49.9286 125.073 49.9212L119.122 48.9535C118.803 48.9018 118.562 48.6766 118.531 48.4012L117.217 36.7839C117.195 36.5829 117.287 36.385 117.466 36.2531ZM101.172 53.4767L106.476 54.7883C108.137 55.1988 109.284 56.5172 109.266 57.9941L109.244 59.9159L110.346 66.3679L123.526 67.6036L126.689 60.3878C127.513 58.506 129.862 57.4374 132.151 57.8997L133.918 58.2564L132.78 51.1742L127.245 50.2741C126.926 50.2224 126.685 49.9966 126.655 49.7212L125.384 38.4828C125.361 38.2812 125.453 38.0834 125.632 37.9509C125.81 37.8185 126.054 37.7689 126.283 37.8164L130.785 38.7534L130.559 37.3474L108.221 31.883L68.9608 32.4644L61.1443 46.0992H95.324L56.7784 47.3834L53.7009 47.9437L52.6047 49.0142H90.3112L90.3081 49.0116C90.3745 49.0111 106.561 48.8211 106.856 48.8148C106.86 48.8148 106.861 48.8148 106.856 48.8148C106.625 48.8201 96.663 50.4794 93.881 50.9431C93.8899 50.9827 93.8957 51.0223 93.8957 51.0624V59.2824L95.64 55.7334C96.5459 53.8908 98.9238 52.9211 101.172 53.4767Z" fill="white"/>
</mask>
<g mask="url(#mask20_2001_39)">
<path d="M106.756 44.356C106.714 44.6715 106.403 44.91 106.031 44.91H63.5091C63.2569 44.91 63.0226 44.7987 62.8891 44.6161C62.7562 44.4341 62.7419 44.2051 62.8532 44.0115L66.3407 37.9283C66.3433 37.9193 66.3454 37.9108 66.3486 37.9024C66.3613 37.8839 66.375 37.8655 66.3876 37.8465L68.8869 33.4864C69.0098 33.2722 69.2641 33.1376 69.5432 33.1376H107.416C107.624 33.1376 107.821 33.2131 107.96 33.345C108.099 33.4774 108.164 33.6542 108.141 33.8309L106.756 44.356ZM108.868 49.6373L131.456 52.7597L111.832 51.972L111.816 52.1345L128.381 54.4243L111.664 53.7526L111.622 54.1974L125.305 56.0889L111.495 55.5349L111.427 56.2606L122.23 57.7536L111.328 57.3158L111.233 58.3238L119.155 59.4184L111.16 59.0975L110.791 63.004L108.868 49.6373ZM109.852 35.1504C109.867 34.9668 109.975 34.7985 110.149 34.6898C110.323 34.5806 110.545 34.5426 110.754 34.5864L115.935 35.6638C116.237 35.7266 116.459 35.9461 116.488 36.2104L117.814 47.9284C117.836 48.1236 117.749 48.3167 117.579 48.4492C117.443 48.5547 117.267 48.6122 117.086 48.6122C117.042 48.6122 116.996 48.608 116.95 48.6006L109.539 47.3966C109.177 47.3375 108.923 47.0568 108.948 46.7424L109.852 35.1504ZM117.466 36.2531C117.645 36.1207 117.887 36.07 118.117 36.1175L124.1 37.3627C124.403 37.4255 124.625 37.6449 124.655 37.9087L125.937 49.249C125.959 49.4437 125.872 49.6373 125.703 49.7692C125.566 49.8747 125.39 49.9323 125.21 49.9323C125.165 49.9323 125.119 49.9286 125.073 49.9212L119.122 48.9535C118.803 48.9018 118.562 48.6766 118.531 48.4012L117.217 36.7839C117.195 36.5829 117.287 36.385 117.466 36.2531ZM101.172 53.4767L106.476 54.7883C108.137 55.1988 109.284 56.5172 109.266 57.9941L109.244 59.9159L110.346 66.3679L123.526 67.6036L126.689 60.3878C127.513 58.506 129.862 57.4374 132.151 57.8997L133.918 58.2564L132.78 51.1742L127.245 50.2741C126.926 50.2224 126.685 49.9966 126.655 49.7212L125.384 38.4828C125.361 38.2812 125.453 38.0834 125.632 37.9509C125.81 37.8185 126.054 37.7689 126.283 37.8164L130.785 38.7534L130.559 37.3474L108.221 31.883L68.9608 32.4644L61.1443 46.0992H95.324L56.7784 47.3834L53.7009 47.9437L52.6047 49.0142H90.3112L90.3081 49.0116C90.3745 49.0111 106.561 48.8211 106.856 48.8148C106.86 48.8148 106.861 48.8148 106.856 48.8148C106.625 48.8201 96.663 50.4794 93.881 50.9431C93.8899 50.9827 93.8957 51.0223 93.8957 51.0624V59.2824L95.64 55.7334C96.5459 53.8908 98.9238 52.9211 101.172 53.4767Z" fill="#2F2483"/>
</g>
<mask id="mask21_2001_39" style="mask-type:luminance" maskUnits="userSpaceOnUse" x="95" y="54" width="9" height="6">
<path d="M101.012 56.6596C101.589 55.9341 102.547 55.5006 103.575 55.5006H103.861L100.522 54.6743C98.9867 54.2945 97.3617 54.9577 96.7434 56.2167L95.2107 59.3341H97.2968L99.8573 58.1097L101.012 56.6596Z" fill="white"/>
</mask>
<g mask="url(#mask21_2001_39)">
<path d="M101.012 56.6596C101.589 55.9341 102.547 55.5006 103.575 55.5006H103.861L100.522 54.6743C98.9867 54.2945 97.3617 54.9577 96.7434 56.2167L95.2107 59.3341H97.2968L99.8573 58.1097L101.012 56.6596Z" fill="#2F2483"/>
</g>
<mask id="mask22_2001_39" style="mask-type:luminance" maskUnits="userSpaceOnUse" x="82" y="51" width="7" height="6">
<path d="M84.0266 53.0589C84.7246 52.4078 86.1866 52.4706 86.6356 53.2789C86.2198 53.1101 85.822 53.062 85.4601 53.1085C84.2698 53.2546 83.7269 54.3821 84.2846 55.2875C83.3397 54.9023 83.2658 53.6561 84.0266 53.0589ZM88.2411 54.2834C88.2411 52.9734 86.9933 51.9082 85.4601 51.9082C83.9274 51.9082 82.6791 52.9734 82.6791 54.2834C82.6791 55.5924 83.9274 56.6584 85.4601 56.6584C86.9933 56.6584 88.2411 55.5924 88.2411 54.2834Z" fill="white"/>
</mask>
<g mask="url(#mask22_2001_39)">
<path d="M84.0266 53.0589C84.7246 52.4078 86.1866 52.4706 86.6356 53.2789C86.2198 53.1101 85.822 53.062 85.4601 53.1085C84.2698 53.2546 83.7269 54.3821 84.2846 55.2875C83.3397 54.9023 83.2658 53.6561 84.0266 53.0589ZM88.2411 54.2834C88.2411 52.9734 86.9933 51.9082 85.4601 51.9082C83.9274 51.9082 82.6791 52.9734 82.6791 54.2834C82.6791 55.5924 83.9274 56.6584 85.4601 56.6584C86.9933 56.6584 88.2411 55.5924 88.2411 54.2834Z" fill="#2F2483"/>
</g>
<mask id="mask23_2001_39" style="mask-type:luminance" maskUnits="userSpaceOnUse" x="46" y="50" width="47" height="10">
<path d="M85.7036 57.9053C83.3653 57.9053 81.4633 56.2808 81.4633 54.2834C81.4633 52.2859 83.3653 50.6603 85.7036 50.6603C88.0425 50.6603 89.9445 52.2859 89.9445 54.2834C89.9445 56.2808 88.0425 57.9053 85.7036 57.9053ZM80.6624 57.9318C80.2034 58.3828 79.5391 58.6421 78.839 58.6421H56.1944C55.4837 58.6421 54.8126 58.3766 54.3536 57.9135C53.894 57.4512 53.6967 56.8426 53.8122 56.2437L54.5002 52.68C54.6939 51.6797 55.6958 50.9537 56.8823 50.9537H78.2492C79.4447 50.9537 80.473 51.7155 80.6403 52.7275L81.2301 56.2909C81.3282 56.8822 81.1214 57.4807 80.6624 57.9318ZM49.8936 57.9053C47.8656 57.9053 46.2154 56.2808 46.2154 54.2834C46.2154 52.2859 47.8656 50.6603 49.8936 50.6603C51.9213 50.6603 53.5706 52.2859 53.5706 54.2834C53.5706 56.2808 51.9213 57.9053 49.8936 57.9053ZM92.4348 51.2734L91.5326 50.2609H46.9064L46.1014 50.9848V59.3341H92.4348V51.2734Z" fill="white"/>
</mask>
<g mask="url(#mask23_2001_39)">
<path d="M85.7036 57.9053C83.3653 57.9053 81.4633 56.2808 81.4633 54.2834C81.4633 52.2859 83.3653 50.6603 85.7036 50.6603C88.0425 50.6603 89.9445 52.2859 89.9445 54.2834C89.9445 56.2808 88.0425 57.9053 85.7036 57.9053ZM80.6624 57.9318C80.2034 58.3828 79.5391 58.6421 78.839 58.6421H56.1944C55.4837 58.6421 54.8126 58.3766 54.3536 57.9135C53.894 57.4512 53.6967 56.8426 53.8122 56.2437L54.5002 52.68C54.6939 51.6797 55.6958 50.9537 56.8823 50.9537H78.2492C79.4447 50.9537 80.473 51.7155 80.6403 52.7275L81.2301 56.2909C81.3282 56.8822 81.1214 57.4807 80.6624 57.9318ZM49.8936 57.9053C47.8656 57.9053 46.2154 56.2808 46.2154 54.2834C46.2154 52.2859 47.8656 50.6603 49.8936 50.6603C51.9213 50.6603 53.5706 52.2859 53.5706 54.2834C53.5706 56.2808 51.9213 57.9053 49.8936 57.9053ZM92.4348 51.2734L91.5326 50.2609H46.9064L46.1014 50.9848V59.3341H92.4348V51.2734Z" fill="#2F2483"/>
</g>
<mask id="mask24_2001_39" style="mask-type:luminance" maskUnits="userSpaceOnUse" x="110" y="59" width="23" height="12">
<path d="M130.421 60.7719C130.448 60.7139 130.477 60.6573 130.508 60.6018C130.519 60.5822 130.532 60.5641 130.544 60.5447C130.565 60.5093 130.587 60.4747 130.611 60.4408C130.626 60.4188 130.642 60.3974 130.659 60.3759C130.681 60.3462 130.704 60.3174 130.727 60.2892C130.746 60.2671 130.765 60.2457 130.784 60.2236C130.807 60.1979 130.831 60.1734 130.856 60.1482C130.878 60.127 130.898 60.1053 130.921 60.0839C130.945 60.0614 130.97 60.04 130.995 60.018C131.02 59.9971 131.043 59.9763 131.068 59.9563C131.093 59.937 131.119 59.9186 131.145 59.8998C131.203 59.8576 131.261 59.8179 131.322 59.7801C131.341 59.7688 131.359 59.7562 131.378 59.7455C131.412 59.7253 131.447 59.7078 131.483 59.6896C131.506 59.6777 131.529 59.6651 131.552 59.6536C131.588 59.6367 131.624 59.621 131.66 59.6053C131.684 59.5946 131.709 59.5839 131.733 59.5745C131.77 59.5594 131.808 59.5456 131.845 59.533C131.871 59.5233 131.895 59.5153 131.921 59.507C131.96 59.4951 131.998 59.4831 132.037 59.4724C132.063 59.4656 132.089 59.4592 132.116 59.4531C132.155 59.4427 132.195 59.4335 132.234 59.4254C132.261 59.4203 132.287 59.416 132.314 59.4117C132.389 59.399 132.466 59.3888 132.542 59.3813C132.571 59.3788 132.6 59.3749 132.629 59.3731C132.663 59.3712 132.698 59.3706 132.732 59.37C132.762 59.3685 132.792 59.3669 132.822 59.3669C132.823 59.3669 132.823 59.3669 132.823 59.3669L131.571 59.1134C129.997 58.7941 128.38 59.5309 127.813 60.8253L124.452 68.4953C124.335 68.7632 124.021 68.9274 123.689 68.8965L110.321 67.6439L110.555 69.0132L120.502 69.7743L122.8 69.9505C122.801 69.9505 122.801 69.9505 122.801 69.9505L126.12 70.2046L130.421 60.7719Z" fill="white"/>
</mask>
<g mask="url(#mask24_2001_39)">
<path d="M130.421 60.7719C130.448 60.7139 130.477 60.6573 130.508 60.6018C130.519 60.5822 130.532 60.5641 130.544 60.5447C130.565 60.5093 130.587 60.4747 130.611 60.4408C130.626 60.4188 130.642 60.3974 130.659 60.3759C130.681 60.3462 130.704 60.3174 130.727 60.2892C130.746 60.2671 130.765 60.2457 130.784 60.2236C130.807 60.1979 130.831 60.1734 130.856 60.1482C130.878 60.127 130.898 60.1053 130.921 60.0839C130.945 60.0614 130.97 60.04 130.995 60.018C131.02 59.9971 131.043 59.9763 131.068 59.9563C131.093 59.937 131.119 59.9186 131.145 59.8998C131.203 59.8576 131.261 59.8179 131.322 59.7801C131.341 59.7688 131.359 59.7562 131.378 59.7455C131.412 59.7253 131.447 59.7078 131.483 59.6896C131.506 59.6777 131.529 59.6651 131.552 59.6536C131.588 59.6367 131.624 59.621 131.66 59.6053C131.684 59.5946 131.709 59.5839 131.733 59.5745C131.77 59.5594 131.808 59.5456 131.845 59.533C131.871 59.5233 131.895 59.5153 131.921 59.507C131.96 59.4951 131.998 59.4831 132.037 59.4724C132.063 59.4656 132.089 59.4592 132.116 59.4531C132.155 59.4427 132.195 59.4335 132.234 59.4254C132.261 59.4203 132.287 59.416 132.314 59.4117C132.389 59.399 132.466 59.3888 132.542 59.3813C132.571 59.3788 132.6 59.3749 132.629 59.3731C132.663 59.3712 132.698 59.3706 132.732 59.37C132.762 59.3685 132.792 59.3669 132.822 59.3669C132.823 59.3669 132.823 59.3669 132.823 59.3669L131.571 59.1134C129.997 58.7941 128.38 59.5309 127.813 60.8253L124.452 68.4953C124.335 68.7632 124.021 68.9274 123.689 68.8965L110.321 67.6439L110.555 69.0132L120.502 69.7743L122.8 69.9505C122.801 69.9505 122.801 69.9505 122.801 69.9505L126.12 70.2046L130.421 60.7719Z" fill="#2F2483"/>
</g>
<mask id="mask25_2001_39" style="mask-type:luminance" maskUnits="userSpaceOnUse" x="99" y="60" width="9" height="24">
<path d="M107.119 72.1606C107.119 75.7487 105.914 79.3813 103.612 79.3813C101.861 79.3813 100.746 77.2799 100.311 74.696C100.31 74.691 100.309 74.6873 100.307 74.6821C100.304 74.6607 100.302 74.638 100.298 74.6162C100.271 74.4513 100.247 74.2846 100.226 74.1166C100.22 74.075 100.216 74.0336 100.211 73.9921C100.191 73.8227 100.173 73.6523 100.159 73.4806C100.156 73.4441 100.154 73.4077 100.151 73.371C100.137 73.1892 100.126 73.0068 100.118 72.8238C100.117 72.8042 100.117 72.7853 100.116 72.7659C100.108 72.5645 100.105 72.362 100.105 72.1606C100.105 71.9586 100.108 71.7566 100.116 71.5547C100.117 71.5359 100.117 71.5165 100.118 71.4967C100.126 71.3137 100.137 71.1313 100.151 70.9502C100.154 70.9129 100.156 70.8764 100.159 70.8399C100.173 70.6683 100.191 70.4976 100.211 70.3286C100.216 70.287 100.22 70.2453 100.226 70.2045C100.247 70.0353 100.271 69.8684 100.298 69.7031C100.302 69.6819 100.304 69.6596 100.307 69.6384C100.309 69.6339 100.31 69.6296 100.311 69.6252C100.746 67.0406 101.861 64.939 103.612 64.939C105.914 64.939 107.119 68.5721 107.119 72.1606ZM103.612 60.8742C101.586 60.8742 99.3291 65.5091 99.3291 72.1606C99.3291 78.8108 101.586 83.4463 103.612 83.4463C105.637 83.4463 107.895 78.8115 107.895 72.1606C107.895 71.8908 107.889 71.622 107.882 71.3546C107.88 71.3055 107.878 71.2579 107.877 71.2093C107.848 70.363 107.782 69.5287 107.677 68.7202C107.674 68.6978 107.673 68.6751 107.673 68.6518C107.673 68.6518 107.673 68.6518 107.673 68.6512C107.056 63.9352 105.257 60.8742 103.612 60.8742Z" fill="white"/>
</mask>
<g mask="url(#mask25_2001_39)">
<path d="M107.119 72.1606C107.119 75.7487 105.914 79.3813 103.612 79.3813C101.861 79.3813 100.746 77.2799 100.311 74.696C100.31 74.691 100.309 74.6873 100.307 74.6821C100.304 74.6607 100.302 74.638 100.298 74.6162C100.271 74.4513 100.247 74.2846 100.226 74.1166C100.22 74.075 100.216 74.0336 100.211 73.9921C100.191 73.8227 100.173 73.6523 100.159 73.4806C100.156 73.4441 100.154 73.4077 100.151 73.371C100.137 73.1892 100.126 73.0068 100.118 72.8238C100.117 72.8042 100.117 72.7853 100.116 72.7659C100.108 72.5645 100.105 72.362 100.105 72.1606C100.105 71.9586 100.108 71.7566 100.116 71.5547C100.117 71.5359 100.117 71.5165 100.118 71.4967C100.126 71.3137 100.137 71.1313 100.151 70.9502C100.154 70.9129 100.156 70.8764 100.159 70.8399C100.173 70.6683 100.191 70.4976 100.211 70.3286C100.216 70.287 100.22 70.2453 100.226 70.2045C100.247 70.0353 100.271 69.8684 100.298 69.7031C100.302 69.6819 100.304 69.6596 100.307 69.6384C100.309 69.6339 100.31 69.6296 100.311 69.6252C100.746 67.0406 101.861 64.939 103.612 64.939C105.914 64.939 107.119 68.5721 107.119 72.1606ZM103.612 60.8742C101.586 60.8742 99.3291 65.5091 99.3291 72.1606C99.3291 78.8108 101.586 83.4463 103.612 83.4463C105.637 83.4463 107.895 78.8115 107.895 72.1606C107.895 71.8908 107.889 71.622 107.882 71.3546C107.88 71.3055 107.878 71.2579 107.877 71.2093C107.848 70.363 107.782 69.5287 107.677 68.7202C107.674 68.6978 107.673 68.6751 107.673 68.6518C107.673 68.6518 107.673 68.6518 107.673 68.6512C107.056 63.9352 105.257 60.8742 103.612 60.8742Z" fill="#2F2483"/>
</g>
<mask id="mask26_2001_39" style="mask-type:luminance" maskUnits="userSpaceOnUse" x="90" y="60" width="12" height="24">
<path d="M100.689 83.0625C100.203 82.4603 99.7623 81.7017 99.3798 80.7924C98.4655 78.6218 97.9368 75.7919 97.874 72.7677C97.8709 72.5657 97.8682 72.3636 97.8682 72.1606C97.8682 68.909 98.4053 65.8434 99.3798 63.5279C99.8483 62.415 100.404 61.5228 101.023 60.8742H97.8197L96.8616 63.7111C95.9826 66.3108 93.3393 68.1994 90.2497 68.5292C90.0972 69.651 90.0107 70.8671 90.0107 72.1606C90.0107 77.6624 91.5555 81.7821 93.2369 83.0423C91.1497 80.1685 90.9804 74.9377 91.1751 72.1606C91.4441 75.4529 92.1506 79.4254 94.3296 82.1815C94.4188 82.2862 94.519 82.3962 94.6266 82.5038C92.8761 79.5526 92.7389 74.7715 92.9214 72.1606C93.191 75.4529 93.8975 79.4254 96.0765 82.1815C96.1657 82.2862 96.2659 82.3962 96.373 82.5038C94.6219 79.5526 94.4852 74.7715 94.6678 72.1606C94.9385 75.4529 95.6439 79.4254 97.8229 82.1815C97.912 82.2862 98.0123 82.3962 98.1194 82.5038C96.3688 79.5526 96.2316 74.7715 96.4152 72.1606C96.6848 75.4529 97.3902 79.4254 99.5692 82.1815C99.8346 82.4925 100.188 82.8455 100.583 83.0675L100.689 83.0625Z" fill="white"/>
</mask>
<g mask="url(#mask26_2001_39)">
<path d="M100.689 83.0625C100.203 82.4603 99.7623 81.7017 99.3798 80.7924C98.4655 78.6218 97.9368 75.7919 97.874 72.7677C97.8709 72.5657 97.8682 72.3636 97.8682 72.1606C97.8682 68.909 98.4053 65.8434 99.3798 63.5279C99.8483 62.415 100.404 61.5228 101.023 60.8742H97.8197L96.8616 63.7111C95.9826 66.3108 93.3393 68.1994 90.2497 68.5292C90.0972 69.651 90.0107 70.8671 90.0107 72.1606C90.0107 77.6624 91.5555 81.7821 93.2369 83.0423C91.1497 80.1685 90.9804 74.9377 91.1751 72.1606C91.4441 75.4529 92.1506 79.4254 94.3296 82.1815C94.4188 82.2862 94.519 82.3962 94.6266 82.5038C92.8761 79.5526 92.7389 74.7715 92.9214 72.1606C93.191 75.4529 93.8975 79.4254 96.0765 82.1815C96.1657 82.2862 96.2659 82.3962 96.373 82.5038C94.6219 79.5526 94.4852 74.7715 94.6678 72.1606C94.9385 75.4529 95.6439 79.4254 97.8229 82.1815C97.912 82.2862 98.0123 82.3962 98.1194 82.5038C96.3688 79.5526 96.2316 74.7715 96.4152 72.1606C96.6848 75.4529 97.3902 79.4254 99.5692 82.1815C99.8346 82.4925 100.188 82.8455 100.583 83.0675L100.689 83.0625Z" fill="#2F2483"/>
</g>
<mask id="mask27_2001_39" style="mask-type:luminance" maskUnits="userSpaceOnUse" x="101" y="66" width="5" height="13">
<path d="M103.258 72.1605C103.258 73.5484 102.837 74.9472 101.912 75.307C102.36 77.154 103.138 78.1338 103.612 78.1338C104.307 78.1338 105.658 76.0254 105.658 72.1605C105.658 68.2951 104.307 66.1869 103.612 66.1869C103.138 66.1869 102.36 67.1663 101.912 69.0137C102.837 69.374 103.258 70.7719 103.258 72.1605Z" fill="white"/>
</mask>
<g mask="url(#mask27_2001_39)">
<path d="M103.258 72.1605C103.258 73.5484 102.837 74.9472 101.912 75.307C102.36 77.154 103.138 78.1338 103.612 78.1338C104.307 78.1338 105.658 76.0254 105.658 72.1605C105.658 68.2951 104.307 66.1869 103.612 66.1869C103.138 66.1869 102.36 67.1663 101.912 69.0137C102.837 69.374 103.258 70.7719 103.258 72.1605Z" fill="#2F2483"/>
</g>
<mask id="mask28_2001_39" style="mask-type:luminance" maskUnits="userSpaceOnUse" x="101" y="70" width="1" height="4">
<path d="M101.624 70.8267C101.585 71.2628 101.565 71.7084 101.565 72.1605C101.565 72.6123 101.585 73.0577 101.624 73.4938C101.722 73.1552 101.797 72.7042 101.797 72.1605C101.797 71.6162 101.722 71.1653 101.624 70.8267Z" fill="white"/>
</mask>
<g mask="url(#mask28_2001_39)">
<path d="M101.624 70.8267C101.585 71.2628 101.565 71.7084 101.565 72.1605C101.565 72.6123 101.585 73.0577 101.624 73.4938C101.722 73.1552 101.797 72.7042 101.797 72.1605C101.797 71.6162 101.722 71.1653 101.624 70.8267Z" fill="#2F2483"/>
</g>
<mask id="mask29_2001_39" style="mask-type:luminance" maskUnits="userSpaceOnUse" x="42" y="60" width="55" height="8">
<path d="M93.7287 61.6733C93.9587 61.6733 94.1745 61.7652 94.3127 61.9218C94.4504 62.0784 94.4942 62.2816 94.4304 62.4698L94.2304 63.0625C93.5984 64.9341 91.5639 66.2416 89.2826 66.2416H49.3679C46.844 66.2416 44.7085 64.6989 44.2895 62.5735L44.2557 62.4008C44.2194 62.22 44.2792 62.0344 44.4183 61.8942C44.557 61.7538 44.7611 61.6733 44.976 61.6733H93.7287ZM43.0298 62.7549C43.5523 65.4079 46.2181 67.333 49.3679 67.333H89.2826C92.1295 67.333 94.6683 65.7018 95.4582 63.3657L96.3989 60.5818H94.1122H92.9214H45.1279H42.6012L43.0298 62.7549Z" fill="white"/>
</mask>
<g mask="url(#mask29_2001_39)">
<path d="M93.7287 61.6733C93.9587 61.6733 94.1745 61.7652 94.3127 61.9218C94.4504 62.0784 94.4942 62.2816 94.4304 62.4698L94.2304 63.0625C93.5984 64.9341 91.5639 66.2416 89.2826 66.2416H49.3679C46.844 66.2416 44.7085 64.6989 44.2895 62.5735L44.2557 62.4008C44.2194 62.22 44.2792 62.0344 44.4183 61.8942C44.557 61.7538 44.7611 61.6733 44.976 61.6733H93.7287ZM43.0298 62.7549C43.5523 65.4079 46.2181 67.333 49.3679 67.333H89.2826C92.1295 67.333 94.6683 65.7018 95.4582 63.3657L96.3989 60.5818H94.1122H92.9214H45.1279H42.6012L43.0298 62.7549Z" fill="#2F2483"/>
</g>
<mask id="mask30_2001_39" style="mask-type:luminance" maskUnits="userSpaceOnUse" x="45" y="62" width="48" height="3">
<path d="M45.9003 62.9204C46.4205 64.1502 47.7875 64.9939 49.3679 64.9939H89.2826C90.8327 64.9939 92.2239 64.1514 92.7489 62.9204H45.9003Z" fill="white"/>
</mask>
<g mask="url(#mask30_2001_39)">
<path d="M45.9003 62.9204C46.4205 64.1502 47.7875 64.9939 49.3679 64.9939H89.2826C90.8327 64.9939 92.2239 64.1514 92.7489 62.9204H45.9003Z" fill="#2F2483"/>
</g>
<mask id="mask31_2001_39" style="mask-type:luminance" maskUnits="userSpaceOnUse" x="109" y="69" width="13" height="4">
<path d="M109.349 71.5825L121.41 72.3757C121.377 72.2599 121.36 72.1404 121.36 72.0178C121.36 71.6919 121.482 71.3848 121.706 71.1194L109.85 70.2114C109.594 70.192 109.375 70.0599 109.264 69.8717C109.309 70.4347 109.338 71.0062 109.349 71.5825Z" fill="white"/>
</mask>
<g mask="url(#mask31_2001_39)">
<path d="M109.349 71.5825L121.41 72.3757C121.377 72.2599 121.36 72.1404 121.36 72.0178C121.36 71.6919 121.482 71.3848 121.706 71.1194L109.85 70.2114C109.594 70.192 109.375 70.0599 109.264 69.8717C109.309 70.4347 109.338 71.0062 109.349 71.5825Z" fill="#2F2483"/>
</g>
<path d="M53.9174 41.4072C53.7633 41.3962 53.8261 41.173 53.8246 41.0606C53.833 40.9593 53.8399 40.8596 53.8214 40.7963C53.7317 40.5388 53.0901 41.1128 52.9144 41.2189C44.2064 47.4752 51.6174 42.8766 46.3714 43.6933C46.2405 43.725 46.3853 43.5936 46.444 43.5203C47.9509 42.0409 54.6919 34.8286 56.7876 32.9192C57.3347 32.9593 56.8635 37.0371 57.0039 37.5558L57.0055 37.5668C57.0429 38.1715 54.4213 41.2949 53.9174 41.4072Z" fill="white"/>
<defs>
<linearGradient id="paint0_linear_2001_39" x1="34.4994" y1="34.0594" x2="145.987" y2="34.0594" gradientUnits="userSpaceOnUse">
<stop stop-color="#12A26F"/>
<stop offset="1" stop-color="#00C7F0"/>
</linearGradient>
</defs>
</svg>
