<svg width="120" height="120" viewBox="0 0 120 120" fill="none" xmlns="http://www.w3.org/2000/svg">
<rect width="120" height="120" fill="#319995"/>
<path d="M15.4545 55.549L24.5864 55.9941C25.1261 51.1223 26.6716 46.4153 29.1252 42.1709C31.5788 37.9265 34.8871 34.237 38.8409 31.3356L33.8518 23.6799C32.6491 21.5435 33.2727 18.8284 35.5 17.5821C37.7273 16.3803 40.3555 17.0925 41.6027 19.229L45.7455 27.3298C50.2484 25.3954 55.0985 24.3978 60 24.3978C64.9015 24.3978 69.7516 25.3954 74.2545 27.3298L78.3973 19.229C79.6445 17.0925 82.2727 16.3803 84.5 17.5821C86.7273 18.8284 87.3509 21.5435 86.1482 23.6799L81.1591 31.3356C85.1129 34.237 88.4212 37.9265 90.8748 42.1709C93.3284 46.4153 94.874 51.1223 95.4136 55.9941L104.545 55.549C105.727 55.549 106.86 56.018 107.695 56.8527C108.531 57.6874 109 58.8195 109 60C109 61.1805 108.531 62.3126 107.695 63.1473C106.86 63.982 105.727 64.451 104.545 64.451L95.4136 64.0059C94.874 68.8777 93.3284 73.5847 90.8748 77.8291C88.4212 82.0735 85.1129 85.763 81.1591 88.6644L86.1482 96.32C87.3509 98.4565 86.7273 101.172 84.5 102.418C82.2727 103.62 79.6445 102.908 78.3973 100.771L74.2545 92.6702C69.7516 94.6046 64.9015 95.6022 60 95.6022C55.0985 95.6022 50.2484 94.6046 45.7455 92.6702L41.6027 100.771C40.3555 102.908 37.7273 103.62 35.5 102.418C33.2727 101.172 32.6491 98.4565 33.8518 96.32L38.8409 88.6644C34.8871 85.763 31.5788 82.0735 29.1252 77.8291C26.6716 73.5847 25.1261 68.8777 24.5864 64.0059L15.4545 64.451C14.2731 64.451 13.1401 63.982 12.3047 63.1473C11.4693 62.3126 11 61.1805 11 60C11 58.8195 11.4693 57.6874 12.3047 56.8527C13.1401 56.018 14.2731 55.549 15.4545 55.549ZM46.9482 57.1069C47.5273 54.3918 48.9973 51.9882 51.0909 50.1633L43.6964 38.8578C38.1075 43.1438 34.4408 49.4634 33.4955 56.4392L46.9482 57.1069ZM60 46.647C61.4255 46.647 62.7618 46.8696 64.0091 47.2702L70.1564 35.297C67.0382 34.0062 63.6082 33.2941 60 33.2941C56.3918 33.2941 52.9618 34.0062 49.8436 35.297L55.9909 47.2702C57.2382 46.8696 58.5745 46.647 60 46.647ZM73.0518 57.1069L86.5045 56.4392C85.5592 49.4634 81.8925 43.1438 76.3036 38.8578L68.9091 50.1633C71.0027 51.9882 72.4727 54.3918 73.0518 57.1069ZM73.0518 62.8931C72.4727 65.6082 71.0027 68.0118 68.9091 69.8367L76.3036 81.1422C81.8925 76.8562 85.5592 70.5366 86.5045 63.5608L73.0518 62.8931ZM60 73.353C58.5745 73.353 57.2382 73.1304 55.9464 72.7298L49.8436 84.703C52.9618 85.9938 56.3918 86.7059 60 86.7059C63.6082 86.7059 67.0382 85.9938 70.1564 84.703L64.0536 72.7298C62.7618 73.1304 61.4255 73.353 60 73.353ZM46.9482 62.8931L33.4955 63.5608C34.4755 70.6824 38.2173 76.9583 43.6964 81.1422L51.0909 69.8367C48.9973 68.0118 47.5273 65.6082 46.9482 62.8931Z" fill="white"/>
</svg>
