<svg width="86" height="84" viewBox="0 0 86 84" fill="none" xmlns="http://www.w3.org/2000/svg">
<g clip-path="url(#clip0_56_11936)">
<path d="M78.2774 39.8504L79.3629 32.1106L78.724 31.988C78.6347 31.9744 72.9732 30.9251 63.1413 30.1757C62.2756 28.05 61.0939 26.0877 59.6304 24.364C62.5505 22.0475 64.9552 19.9354 65.1819 17.8029C65.2369 17.2578 64.1719 16.2563 63.6223 16.2563C61.4099 16.2563 59.2525 18.6682 56.8822 21.6524C53.5636 18.8998 49.4138 17.1148 44.8723 16.7128C45.2776 13.0609 45.4631 9.9064 44.1096 8.24398C43.7592 7.81475 42.2889 7.85563 41.8973 8.24398C40.3445 9.78376 40.5231 12.9723 40.9697 16.7128C36.4076 17.1148 32.2509 18.9066 28.9255 21.6728C26.6238 18.8249 24.5145 16.488 22.3846 16.2631C21.8349 16.2086 20.825 17.2647 20.825 17.8097C20.825 19.9831 23.2022 22.0952 26.1635 24.4117C24.7138 26.1354 23.5389 28.084 22.68 30.1961C12.9374 30.9456 7.33099 31.9812 7.24167 31.9948L6.6027 32.1174L7.68826 39.864L0 42.0511L3.31166 48.6871L4.04682 56.4201L23.2022 53.286L23.2503 53.2997V53.2792V53.2656V47.597C24.061 49.2594 25.071 50.8128 26.2665 52.2096C23.3946 54.492 21.0448 56.5768 20.8181 58.6889C20.7631 59.234 21.8281 60.2355 22.3777 60.2355C24.5695 60.2355 26.6994 57.8713 29.0423 54.9348C32.3814 57.6669 36.5588 59.4315 41.1277 59.7995C40.7224 63.4513 40.5369 66.5922 41.8904 68.2546C42.2408 68.6839 43.7111 68.643 44.1027 68.2546C45.6624 66.708 45.4769 63.5195 45.0303 59.7722C49.5718 59.3362 53.7079 57.5102 57.0058 54.7373C59.335 57.626 61.4649 60.0107 63.6154 60.2355C64.1651 60.29 65.175 59.234 65.175 58.6889C65.175 56.4951 62.736 54.3557 59.7266 52.0052C60.9358 50.554 61.9527 48.946 62.7497 47.2155V53.2724V53.2929L62.7978 53.2792L81.9532 56.4133L82.6883 48.6803L86 42.0443L78.2774 39.8436V39.8504ZM56.4012 26.919C57.1776 27.8251 57.8441 28.8198 58.4212 29.8691C56.786 29.7737 55.0614 29.6919 53.2613 29.6306C53.7217 29.215 54.1889 28.7994 54.6629 28.3838C55.2332 27.8864 55.8172 27.3959 56.4012 26.9258V26.919ZM44.1027 25.0453C44.1302 24.3981 44.1646 23.744 44.2058 23.0899C44.2539 22.3132 44.3226 21.5365 44.405 20.7666C48.1702 21.08 51.6055 22.5721 54.3331 24.8614C53.8591 25.4473 53.3713 26.0332 52.8766 26.6056C52.4575 27.0825 52.0383 27.5594 51.6192 28.0227C50.9734 27.8864 50.2726 28.0704 49.771 28.5678C49.5031 28.8335 49.3451 29.1605 49.2626 29.5012C47.5655 29.4603 45.7998 29.4398 43.9791 29.433C43.9791 29.0719 43.9859 28.7108 43.9997 28.3361C44.5631 27.9818 44.9341 27.3618 44.9341 26.6464C44.9341 25.9856 44.6043 25.3996 44.1027 25.0317V25.0453ZM41.4644 20.7666C41.5537 21.5365 41.6293 22.3132 41.6843 23.0899C41.7324 23.7236 41.7736 24.3504 41.8079 24.9772C41.2583 25.3383 40.8873 25.9515 40.8873 26.6532C40.8873 27.4163 41.3201 28.0704 41.9454 28.4111C41.9522 28.7585 41.9591 29.0992 41.966 29.4398C40.1109 29.4398 38.3108 29.4671 36.5794 29.508C36.4901 29.2082 36.332 28.9289 36.0984 28.6904C35.6244 28.2203 34.9785 28.0363 34.3601 28.1317C33.9204 27.6548 33.4807 27.171 33.041 26.6805C32.5119 26.0809 31.9966 25.4746 31.4882 24.8546C34.2296 22.5585 37.6718 21.0664 41.4575 20.7598L41.4644 20.7666ZM29.4064 26.9258C30.0316 27.4231 30.6569 27.9273 31.2615 28.4451C31.7149 28.8335 32.1684 29.2286 32.615 29.6238C30.7874 29.6919 29.0491 29.7737 27.3933 29.8691C27.9704 28.8198 28.6369 27.8251 29.4064 26.919V26.9258ZM42.9828 30.7957C62.1039 30.7957 74.8902 32.7238 77.8239 33.2144L75.962 46.4865C73.4473 45.8597 64.5636 44.1291 42.9828 44.1291C21.4021 44.1291 12.5183 45.8597 10.0037 46.4865L8.14173 33.2144C11.0755 32.7238 23.848 30.7957 42.9828 30.7957ZM5.27666 54.8326L4.6583 48.3056L1.96501 42.9095L7.88064 41.2267L8.87002 48.2715L8.95247 48.2443L8.93872 48.2715L20.5295 52.3458L5.28353 54.8395L5.27666 54.8326ZM21.8762 51.3715L11.2129 47.6243C12.9581 47.2564 16.3109 46.6909 21.8762 46.2344V51.3715ZM29.4889 49.6614C28.5064 48.5236 27.675 47.2564 27.0086 45.8937C28.8293 45.7915 30.8149 45.7098 32.986 45.6416C32.8074 46.0095 32.7387 46.4183 32.8005 46.8135C32.3196 47.2495 31.8317 47.6856 31.3371 48.1216C30.7324 48.6463 30.1141 49.1641 29.4889 49.6682V49.6614ZM41.8904 51.4533C41.8629 52.1005 41.8286 52.7546 41.7873 53.4087C41.7392 54.1854 41.6705 54.9689 41.5881 55.7456C37.8023 55.4663 34.3395 54.0014 31.5913 51.7258C32.086 51.1058 32.5944 50.4926 33.1234 49.8931C33.5425 49.4161 33.9617 48.9392 34.3808 48.4759C35.0266 48.6122 35.7274 48.4282 36.229 47.9309C36.7718 47.3926 36.9298 46.6295 36.7305 45.9482C36.8611 45.812 36.9847 45.6893 37.1153 45.5531C38.6749 45.5258 40.317 45.5122 42.0347 45.5054C42.0347 46.3502 42.0209 47.2359 42.0072 48.1557C41.4438 48.51 41.0728 49.13 41.0728 49.8454C41.0728 50.5063 41.4026 51.0922 41.9041 51.4601L41.8904 51.4533ZM44.5287 55.7184C44.4463 54.9553 44.3638 54.1786 44.3089 53.4087C44.2608 52.7751 44.2195 52.1482 44.1852 51.5214C44.7348 51.1603 45.1059 50.5471 45.1059 49.8454C45.1059 49.0823 44.673 48.4282 44.0478 48.0876C44.0203 47.1882 44.0066 46.323 43.9997 45.5054C45.7311 45.5054 47.3869 45.5258 48.9534 45.5531C49.0908 45.6893 49.2145 45.8188 49.3519 45.955C49.2076 46.6023 49.3863 47.3041 49.8947 47.8082C50.3688 48.2783 51.0146 48.4623 51.633 48.3669C52.0727 48.8438 52.5124 49.3276 52.9521 49.8181C53.4537 50.3836 53.9484 50.9696 54.4293 51.5555C51.7154 53.872 48.2938 55.3845 44.5287 55.7252V55.7184ZM56.4837 49.4843C55.8928 49.0142 55.3088 48.5372 54.7316 48.0467C54.2507 47.6311 53.7698 47.2155 53.3026 46.7999C53.385 46.4183 53.3369 46.0164 53.1926 45.6484C55.2263 45.7098 57.0951 45.7915 58.8197 45.8801C58.1876 47.1746 57.4112 48.3873 56.4837 49.4843ZM64.1238 46.2412C69.6959 46.6977 73.0419 47.2632 74.7734 47.6311L64.1238 51.3715V46.2344V46.2412ZM81.3417 48.3124L80.7233 54.8395L65.4774 52.3458L77.0681 48.2715V48.2579L77.0956 48.2715L78.085 41.2199L84.0419 42.9164L81.3486 48.3124H81.3417Z" fill="white"/>
<path d="M23.9787 40.2183C23.9512 39.9049 23.8275 39.6665 23.6008 39.5029C23.374 39.3394 23.0992 39.2032 22.7694 39.0941C22.4396 38.9919 22.0892 38.8897 21.7114 38.808C21.3335 38.7194 20.9831 38.5968 20.6464 38.4401C20.3097 38.2834 20.028 38.0654 19.7944 37.7928C19.5608 37.5203 19.4234 37.1456 19.3822 36.6755C19.3272 36.0214 19.5196 35.4763 19.9662 35.0335C20.4128 34.5906 21.093 34.3317 21.993 34.25C22.5152 34.2023 22.9962 34.2023 23.4359 34.2431C23.8756 34.284 24.226 34.3522 24.4871 34.4544L24.2123 35.4559C24.013 35.3809 23.7107 35.3196 23.3191 35.2788C22.9275 35.2379 22.4946 35.2379 22.0274 35.2788C21.4984 35.3264 21.1136 35.4695 20.8731 35.7148C20.6327 35.9601 20.5227 36.2258 20.5433 36.5119C20.5708 36.8117 20.6945 37.0434 20.9212 37.2069C21.148 37.3704 21.4228 37.5135 21.7526 37.6225C22.0824 37.7383 22.4396 37.8405 22.8107 37.9427C23.1885 38.0449 23.5458 38.1744 23.8756 38.3379C24.2054 38.5014 24.494 38.7126 24.7276 38.9783C24.9612 39.2372 25.0986 39.5915 25.1398 40.0276C25.1742 40.3887 25.1329 40.7225 25.0161 41.0291C24.8993 41.3357 24.7207 41.6014 24.4802 41.833C24.2398 42.0647 23.9306 42.2487 23.5664 42.3985C23.2023 42.5416 22.7832 42.637 22.316 42.6779C21.677 42.7324 21.1411 42.7324 20.6945 42.6779C20.2479 42.6234 19.9044 42.5484 19.6708 42.4599L19.9662 41.4243C20.1655 41.4992 20.4678 41.5741 20.8731 41.6355C21.2785 41.6968 21.7114 41.7104 22.1854 41.6695C22.4603 41.6423 22.7076 41.6014 22.9343 41.5265C23.1611 41.4583 23.3603 41.3629 23.5252 41.2471C23.6901 41.1313 23.8138 40.9882 23.8962 40.8179C23.9787 40.6476 24.013 40.4568 23.9924 40.2319L23.9787 40.2183Z" fill="white"/>
<path d="M21.4425 42.8755C21.154 42.8755 20.8998 42.8618 20.6662 42.8278C20.2058 42.7665 19.8486 42.6915 19.6081 42.5961L19.4638 42.5416L19.8554 41.1722L20.0341 41.2403C20.2264 41.3152 20.515 41.3834 20.9066 41.4447C21.2914 41.506 21.7174 41.5196 22.1777 41.4788C22.4388 41.4583 22.6793 41.4106 22.8923 41.3425C23.0984 41.2812 23.2839 41.1926 23.435 41.0836C23.5793 40.9814 23.6824 40.8588 23.7511 40.7157C23.8198 40.5794 23.8473 40.4091 23.8267 40.2183C23.8061 39.9526 23.703 39.7618 23.5175 39.6256C23.3114 39.4757 23.0434 39.3462 22.7342 39.244C22.4113 39.1418 22.0609 39.0465 21.6899 38.9579C21.3051 38.8693 20.941 38.7399 20.5906 38.5832C20.2333 38.4196 19.931 38.188 19.6768 37.895C19.4157 37.5952 19.2645 37.1865 19.2233 36.6823C19.1615 35.9805 19.3745 35.381 19.8623 34.904C20.3364 34.4339 21.0578 34.1546 21.9922 34.0728C22.5144 34.0251 23.0159 34.0251 23.4625 34.066C23.916 34.1069 24.287 34.1818 24.5618 34.2908L24.7061 34.3453L24.342 35.6739L24.1633 35.6058C23.9778 35.5377 23.6893 35.4763 23.3114 35.4355C22.9335 35.3946 22.5075 35.3946 22.054 35.4355C21.5731 35.4763 21.2158 35.6058 21.0028 35.8238C20.7967 36.035 20.7005 36.253 20.728 36.4915C20.7486 36.7368 20.8517 36.9276 21.0372 37.0638C21.2502 37.2205 21.5113 37.35 21.8273 37.459C22.1571 37.5748 22.5144 37.677 22.8785 37.7724C23.2633 37.8746 23.6343 38.0108 23.9778 38.1812C24.3351 38.3515 24.6374 38.5832 24.8847 38.8625C25.1458 39.1487 25.297 39.537 25.3382 40.0139C25.3726 40.4023 25.3313 40.7634 25.2077 41.0836C25.084 41.4106 24.8916 41.7036 24.6237 41.9489C24.3626 42.1942 24.0397 42.3917 23.6549 42.5484C23.277 42.6983 22.8373 42.7937 22.3495 42.8414C22.0334 42.8687 21.738 42.8823 21.4632 42.8823L21.4425 42.8755ZM19.876 42.3304C20.089 42.3917 20.3707 42.4462 20.7074 42.4871C21.1402 42.5416 21.6693 42.5416 22.2945 42.4871C22.748 42.4462 23.1533 42.3577 23.4969 42.2214C23.8404 42.0851 24.129 41.908 24.3557 41.6968C24.5824 41.4856 24.7473 41.2335 24.8504 40.961C24.9535 40.6816 24.9947 40.3682 24.9603 40.0344C24.926 39.6324 24.8023 39.3122 24.5962 39.0805C24.3763 38.8352 24.1084 38.6308 23.7923 38.481C23.4694 38.3243 23.119 38.1948 22.7548 38.0994C22.3838 38.004 22.0197 37.895 21.683 37.7792C21.3395 37.6634 21.0441 37.5135 20.8036 37.3363C20.5356 37.1388 20.3845 36.8662 20.357 36.5188C20.3295 36.1781 20.4532 35.8647 20.7349 35.5853C21.0097 35.3128 21.4357 35.1493 21.9991 35.1016C22.4731 35.0607 22.9197 35.0607 23.3251 35.1016C23.6343 35.1357 23.8885 35.1766 24.0809 35.2311L24.2664 34.5566C24.0397 34.4884 23.7511 34.4407 23.4076 34.4067C22.9747 34.3658 22.5006 34.3726 21.9991 34.4135C21.1471 34.4884 20.5013 34.7337 20.0822 35.1493C19.6699 35.5581 19.4913 36.0486 19.5462 36.655C19.5875 37.0843 19.7111 37.4317 19.9241 37.677C20.144 37.9291 20.4119 38.1335 20.7211 38.2766C21.044 38.4265 21.3945 38.5491 21.7517 38.6308C22.1296 38.7194 22.4869 38.8148 22.8236 38.9238C23.1671 39.0328 23.4694 39.1827 23.703 39.353C23.971 39.5506 24.1221 39.83 24.1496 40.1911C24.1702 40.4432 24.1358 40.668 24.0397 40.8656C23.9435 41.0563 23.7992 41.2267 23.6137 41.3629C23.435 41.4924 23.2152 41.5946 22.9747 41.6695C22.7342 41.7445 22.4731 41.7922 22.1914 41.8194C21.7036 41.8603 21.2502 41.8467 20.8379 41.7854C20.5219 41.7377 20.2745 41.6832 20.0753 41.6218L19.876 42.3304Z" fill="white"/>
<path d="M28.3822 38.3515L27.812 38.3856L28.0387 42.0647L26.8707 42.1328L26.3691 34.0388L27.5372 33.9706L27.7708 37.6906L28.2998 37.493L31.0137 33.7526L32.3397 33.6708L29.619 37.3159L29.0968 37.7451L29.7632 38.1676L33.2398 41.7377L31.7695 41.8262L28.3822 38.3447V38.3515Z" fill="white"/>
<path d="M26.7136 42.3168L26.1914 33.8821L27.703 33.7935L27.9297 37.459L28.1908 37.3636L30.9253 33.6027L32.7048 33.4937L29.7641 37.4385L29.3931 37.7451L29.8672 38.0449L33.6323 41.908L31.7154 42.0238L28.3282 38.5423L28.0053 38.5627L28.232 42.2418L26.7204 42.3372L26.7136 42.3168ZM26.5556 34.2023L27.0365 41.9557L27.861 41.908L27.6342 38.2289L28.4587 38.1812L31.846 41.6627L32.8628 41.6014L29.6473 38.297L28.8091 37.7724L29.5168 37.2001L31.9902 33.8752L31.1108 33.9297L28.4106 37.6497L27.6205 37.9427L27.3869 34.1614L26.5624 34.2091L26.5556 34.2023Z" fill="white"/>
<path d="M36.2004 38.4742L33.0742 33.6368L34.4415 33.5959L36.5989 36.9684L36.8187 37.7043H36.8393L37.0386 36.9344L38.8799 33.4596L40.1166 33.4188L37.3684 38.4333L37.4714 41.615L36.3034 41.6491L36.2004 38.4742Z" fill="white"/>
<path d="M36.1391 41.8194L36.0292 38.5218L32.7656 33.4733L34.5314 33.4188L36.7575 36.9139L36.8124 37.0979L36.8674 36.8799L38.7706 33.2757L40.4058 33.2212L37.5407 38.4537L37.6507 41.7581L36.1391 41.8058V41.8194ZM33.384 33.7935L36.3727 38.4197L36.4689 41.4652L37.2934 41.4379L37.1972 38.3788L37.2178 38.3379L39.8218 33.5891L38.9836 33.6163L37.1903 37.0025L36.9773 37.861H36.7163L36.6544 37.7451L36.4414 37.0366L34.3527 33.7662L33.384 33.8003V33.7935Z" fill="white"/>
<path d="M46.7897 41.5265L41.4375 41.5128L41.4581 33.4051H42.6261L42.6055 40.4977L46.7897 40.5113V41.5333V41.5265Z" fill="white"/>
<path d="M46.9614 41.6968L41.2656 41.6832L41.2931 33.2348H42.8047L42.784 40.3273L46.9683 40.341V41.7036L46.9614 41.6968ZM41.6092 41.3425L46.6179 41.3561V40.6748L42.4405 40.6612L42.4611 33.5755H41.6366L41.616 41.3425H41.6092Z" fill="white"/>
<path d="M48.9386 34.2568L48.0041 34.2295L48.0316 33.4664L51.0685 33.5618L51.041 34.3249L50.1066 34.2977L49.8936 40.8724L50.828 40.8996L50.8005 41.6627L47.7637 41.5673L47.7912 40.8043L48.7256 40.8315L48.9386 34.2568Z" fill="white"/>
<path d="M50.9663 41.8399L47.5859 41.7309L47.6203 40.6271L48.5547 40.6544L48.7539 34.4203L47.8195 34.393L47.8539 33.2893L51.2343 33.3983L51.1999 34.5021L50.2655 34.4748L50.0662 40.7089L51.0007 40.7361L50.9663 41.8399ZM47.9432 41.4038L50.6365 41.4924L50.6502 41.07L49.7158 41.0427L49.9426 34.1273L50.877 34.1546L50.8907 33.7322L48.1974 33.6436L48.1837 34.066L49.1181 34.0933L48.8914 41.0087L47.957 40.9814L47.9432 41.4038Z" fill="white"/>
<path d="M54.5932 36.6823L53.9611 35.5036H53.9131L53.9818 36.6414L53.6657 41.7854L52.5664 41.7172L53.068 33.5073L53.7207 33.5482L57.5614 39.0465L58.1591 40.1638H58.2141L58.1385 39.0805L58.4546 33.9502L59.547 34.0183L59.0454 42.2282L58.3927 42.1874L54.5795 36.6755L54.5932 36.6823Z" fill="white"/>
<path d="M59.224 42.4122L58.317 42.3577L54.442 36.764L54.1328 36.1849L54.1603 36.6414L53.8305 41.9761L52.3945 41.8876L52.9167 33.337L53.8236 33.3915L57.7124 38.9579L58.0079 39.5098L57.9804 39.101L58.3033 33.7799L59.7393 33.8684L59.2171 42.419L59.224 42.4122ZM58.5025 42.0307L58.901 42.0579L59.382 34.1887L58.6262 34.141L58.3239 39.101L58.4132 40.3546L58.0628 40.3342L57.417 39.135L53.6381 33.7185L53.2396 33.6913L52.7587 41.5605L53.5144 41.6082L53.8168 36.6346L53.7343 35.3196L54.071 35.3401L54.7443 36.5937L58.5094 42.0307H58.5025Z" fill="white"/>
<path d="M61.8259 34.2091L66.7453 34.6451L66.656 35.6603L62.8978 35.3265L62.6779 37.7588L66.1132 38.0654L66.0239 39.0805L62.5886 38.7739L62.355 41.3698L66.1682 41.7104L66.0789 42.7256L61.0977 42.2827L61.8259 34.2091Z" fill="white"/>
<path d="M66.231 42.9095L60.9062 42.4394L61.662 34.0251L66.9249 34.4884L66.8013 35.8443L63.043 35.5104L62.8575 37.6021L66.286 37.9087L66.1623 39.2645L62.727 38.9579L62.5209 41.2131L66.3341 41.5537L66.2104 42.9095H66.231ZM61.2841 42.126L65.9218 42.5348L65.9837 41.8603L62.1704 41.5197L62.4384 38.5832L65.8669 38.8898L65.9287 38.2153L62.4934 37.9087L62.7407 35.1357L66.499 35.4695L66.5608 34.795L61.9849 34.393L61.291 42.126H61.2841Z" fill="white"/>
<path d="M12.7657 20.4805L11.8519 22.1156L12.7176 23.1649L12.3878 23.7644L9.07617 19.7038L9.24794 19.3904L14.4765 20.0104L14.1261 20.644L12.7657 20.4805ZM11.4603 21.666L12.1817 20.3783L10.7183 20.2011L9.9831 20.0104V20.024L10.5396 20.5418L11.4603 21.6728V21.666Z" fill="white"/>
<path d="M10.9659 16.7945C11.0483 16.6174 11.1445 16.4334 11.2682 16.2427C11.3918 16.0519 11.5155 15.8679 11.6461 15.6908C11.7835 15.5068 11.9415 15.3229 12.1133 15.1594C12.285 14.989 12.4774 14.8596 12.6835 14.7642C12.8896 14.6688 13.1095 14.6279 13.3362 14.6416C13.5698 14.6552 13.8103 14.7506 14.0576 14.9277C14.2913 15.098 14.4561 15.2888 14.5523 15.5C14.6485 15.7112 14.6966 15.9293 14.6829 16.1541C14.676 16.3789 14.621 16.6106 14.5249 16.8422C14.4287 17.0739 14.305 17.2919 14.147 17.5031C14.1332 17.5235 14.1057 17.5576 14.0714 17.6053C14.037 17.653 13.9958 17.6939 13.9615 17.7416C13.9271 17.7893 13.8859 17.837 13.8447 17.8778C13.8034 17.9187 13.776 17.9528 13.7553 17.9732L15.2119 19.0293L14.8066 19.5811L10.959 16.7945H10.9659ZM12.1407 16.0246C12.0652 16.1268 11.9965 16.2222 11.9346 16.3176C11.8659 16.413 11.8247 16.4948 11.8041 16.5561L13.2744 17.6189C13.2744 17.6189 13.3225 17.5781 13.3568 17.5372C13.3912 17.4963 13.4256 17.4554 13.4599 17.4077C13.4943 17.3668 13.5286 17.3191 13.563 17.2783C13.5904 17.2374 13.6179 17.2033 13.6317 17.1829C13.7279 17.0534 13.8172 16.9104 13.8928 16.7673C13.9683 16.6242 14.0164 16.4811 14.0302 16.3312C14.0439 16.1813 14.0302 16.0383 13.9683 15.902C13.9065 15.7657 13.7966 15.6295 13.6317 15.5068C13.4874 15.3978 13.3431 15.3433 13.1988 15.3365C13.0545 15.3365 12.924 15.3569 12.7935 15.4183C12.6629 15.4796 12.5461 15.5613 12.4362 15.6704C12.3262 15.7794 12.2232 15.8952 12.1339 16.011L12.1407 16.0246Z" fill="white"/>
<path d="M13.7481 13.1018L15.7269 10.9897L16.1666 11.3985L14.655 13.0064L15.7131 13.9875L17.0941 12.5158L17.5338 12.9246L16.1528 14.3963L17.2865 15.4387L18.8187 13.8035L19.2584 14.2123L17.2522 16.3449L13.7344 13.095L13.7481 13.1018Z" fill="white"/>
<path d="M20.9837 9.94045L19.1011 11.4802L20.4684 13.1222L19.9393 13.5583L16.875 9.87913L17.404 9.44308L18.7095 11.0169L20.592 9.47715L19.2866 7.9033L19.8156 7.46725L22.88 11.1464L22.3509 11.5824L20.9837 9.94045Z" fill="white"/>
<path d="M27.8408 9.10242L27.4355 9.34769L26.8789 8.65956L23.7528 10.54L24.1169 11.344L23.7116 11.5892L22.942 10.3288L23.4024 10.0563C23.4093 9.99495 23.4024 9.85868 23.3818 9.66791C23.3612 9.47033 23.2993 9.21143 23.1963 8.87758C23.0932 8.55055 22.9352 8.15538 22.7222 7.69208C22.5092 7.22879 22.2206 6.70417 21.8496 6.11142L24.3024 4.63977L26.4804 8.20989L27.0713 7.8556L27.8408 9.11604V9.10242ZM25.8964 8.55055L24.0345 5.49823L22.7153 6.29538C22.9489 6.7178 23.1482 7.09934 23.3131 7.44681C23.478 7.79428 23.6085 8.10088 23.7116 8.38022C23.8146 8.65956 23.8902 8.90483 23.9383 9.12286C23.9864 9.34088 24.0139 9.52483 24.0207 9.68835L25.8964 8.56417V8.55055Z" fill="white"/>
<path d="M29.8053 5.95472L28.0739 6.69054L28.1151 8.04637L27.483 8.3189L27.373 3.09999L27.7028 2.95691L31.4542 6.62241L30.7878 6.90857L29.8121 5.95472H29.8053ZM28.0395 6.09779L29.3999 5.51867L28.3556 4.48988L27.8952 3.89032H27.8815L28.012 4.6534L28.0395 6.10461V6.09779Z" fill="white"/>
<path d="M35.9815 2.22109L35.9059 1.69648H35.8784L35.6723 2.29604L33.9409 5.8866L33.5286 5.97517L32.498 1.31494L33.1714 1.17186L33.8584 4.27187L33.9134 4.78967H33.9478L34.1676 4.1833L35.8853 0.579111L36.3044 0.49054L37.3419 5.15077L36.6685 5.29385L35.9815 2.21428V2.22109Z" fill="white"/>
<path d="M43.2849 0.61318L40.942 0.65406L41.0107 4.82374L40.3236 4.83737L40.248 0.0681242L43.9651 0.00680542L44.0406 4.77605L43.3536 4.78967L43.2849 0.619994V0.61318Z" fill="white"/>
<path d="M45.6972 0.163514C45.8965 0.143075 46.1026 0.143075 46.3293 0.149888C46.556 0.163514 46.7759 0.177141 46.9958 0.204393C47.2294 0.231646 47.463 0.279339 47.6966 0.347471C47.9302 0.415603 48.1363 0.517801 48.3218 0.647251C48.5073 0.776702 48.6447 0.947032 48.7478 1.15143C48.8508 1.35582 48.8852 1.61473 48.844 1.91451C48.8096 2.20066 48.7272 2.43231 48.5829 2.62308C48.4455 2.80704 48.2737 2.95693 48.0676 3.05912C47.8615 3.16132 47.6347 3.22945 47.3874 3.25671C47.1401 3.28396 46.879 3.28396 46.6248 3.25671C46.5973 3.25671 46.556 3.24989 46.5011 3.23627C46.4461 3.22945 46.3843 3.21583 46.3224 3.20901C46.2606 3.2022 46.2056 3.18858 46.1438 3.17495C46.0888 3.16132 46.0476 3.15451 46.0201 3.1477L45.8071 4.91913L45.127 4.83737L45.6903 0.149888L45.6972 0.163514ZM46.9477 0.803955C46.824 0.790329 46.7072 0.776702 46.5904 0.769889C46.4736 0.763076 46.3843 0.763076 46.3156 0.769889L46.1026 2.56176C46.1026 2.56176 46.1576 2.5822 46.2125 2.58901C46.2675 2.59583 46.3224 2.60945 46.3774 2.61627C46.4324 2.62989 46.4873 2.63671 46.5423 2.64352C46.5973 2.65033 46.6316 2.65715 46.6591 2.65715C46.824 2.67759 46.9889 2.6844 47.1469 2.67759C47.3118 2.67759 47.4561 2.64352 47.6004 2.5822C47.7447 2.52088 47.8546 2.43912 47.9508 2.31649C48.047 2.19385 48.1088 2.03714 48.1294 1.83275C48.15 1.65561 48.1294 1.50571 48.0676 1.37626C48.0058 1.24681 47.9164 1.15143 47.7996 1.06967C47.6828 0.987912 47.5523 0.926593 47.4011 0.885713C47.25 0.844834 47.0988 0.810768 46.9545 0.797142L46.9477 0.803955Z" fill="white"/>
<path d="M49.4406 2.98418C49.5368 2.60264 49.6742 2.28242 49.846 2.00989C50.0178 1.73737 50.2239 1.51934 50.4506 1.36264C50.6842 1.20594 50.9453 1.10374 51.2339 1.06286C51.5224 1.02198 51.8316 1.04242 52.1545 1.12418C52.5049 1.21275 52.8004 1.34901 53.034 1.53297C53.2676 1.71693 53.4462 1.93495 53.5699 2.18704C53.6936 2.43913 53.7554 2.72528 53.7691 3.0455C53.776 3.35891 53.7417 3.69957 53.6455 4.05385C53.5493 4.43539 53.4119 4.75561 53.2401 5.02814C53.0683 5.30067 52.8622 5.51869 52.6286 5.67539C52.395 5.8321 52.1339 5.9343 51.8454 5.97518C51.5568 6.01605 51.2476 5.99562 50.9247 5.91386C50.5674 5.82528 50.2788 5.68902 50.0452 5.50506C49.8116 5.32111 49.6399 5.10309 49.5231 4.851C49.4063 4.59891 49.3376 4.31275 49.3307 3.99935C49.317 3.68594 49.3582 3.34528 49.4544 2.99099L49.4406 2.98418ZM50.1483 3.16132C50.0865 3.41341 50.0521 3.65187 50.0521 3.88352C50.0521 4.11517 50.0865 4.32638 50.1552 4.52396C50.2239 4.72155 50.3338 4.88506 50.485 5.02814C50.6361 5.17122 50.8285 5.2666 51.069 5.32792C51.5018 5.43693 51.8797 5.37561 52.2026 5.15078C52.5324 4.91913 52.7729 4.49671 52.9378 3.8699C52.9996 3.62462 53.034 3.38616 53.034 3.15451C53.034 2.92286 52.9996 2.71165 52.9309 2.51407C52.8622 2.31649 52.7523 2.15297 52.6011 2.00989C52.45 1.86682 52.2576 1.76462 52.0103 1.7033C51.5843 1.59429 51.2064 1.65561 50.8766 1.88726C50.5468 2.1189 50.3063 2.54814 50.1483 3.16132Z" fill="white"/>
<path d="M55.6311 5.05538L55.3219 4.92592L54.4837 6.92901L53.8516 6.6701L55.6929 2.26196L56.325 2.52086L55.4799 4.54439L55.8097 4.57845L58.2213 3.29757L58.9427 3.59735L56.5517 4.83054L56.167 4.91911L56.4074 5.31428L57.3144 8.09406L56.5174 7.76703L55.6379 5.05538H55.6311Z" fill="white"/>
<path d="M60.7501 8.59144L59.1149 7.65122L58.0431 8.48925L57.4453 8.14859L61.6021 4.94638L61.9112 5.12352L61.183 10.2947L60.5508 9.93364L60.7432 8.58463L60.7501 8.59144ZM59.5752 7.26968L60.86 8.00551L61.0661 6.56111L61.2723 5.83891H61.2585L60.7226 6.38397L59.5683 7.26968H59.5752Z" fill="white"/>
<path d="M66.5279 9.06837L65.2224 8.11453L62.7215 11.4666L62.1719 11.0646L64.6728 7.71255L63.3674 6.7587L63.7246 6.27496L66.8851 8.59145L66.5279 9.07519V9.06837Z" fill="white"/>
<path d="M67.8208 16.1337L67.3467 15.6431L68.8308 14.2396L68.2124 13.8172L65.952 14.1919L65.4023 13.6196L67.4154 13.3062L67.9445 13.422C67.8414 13.2721 67.7658 13.1154 67.7178 12.9587C67.6628 12.802 67.6422 12.6453 67.649 12.4818C67.649 12.3251 67.6903 12.1684 67.759 12.0185C67.8277 11.8686 67.9376 11.7187 68.0888 11.5824C68.288 11.3917 68.4941 11.269 68.7071 11.2145C68.9201 11.16 69.1331 11.1532 69.3392 11.2009C69.5453 11.2486 69.7583 11.3372 69.9645 11.4802C70.1706 11.6233 70.3698 11.7868 70.5553 11.9844C70.6721 12.1071 70.7958 12.2433 70.9264 12.4C71.0569 12.5567 71.1668 12.7134 71.263 12.8769L67.8208 16.1405V16.1337ZM70.0881 12.366C69.9782 12.2501 69.8614 12.1479 69.7377 12.0662C69.6141 11.9776 69.4904 11.9163 69.3667 11.8822C69.243 11.8482 69.1125 11.8482 68.982 11.8822C68.8514 11.9095 68.7209 11.9912 68.5903 12.1139C68.4667 12.2297 68.3911 12.3455 68.3499 12.475C68.3086 12.5976 68.3018 12.7271 68.3292 12.8565C68.3567 12.986 68.4117 13.1154 68.4873 13.2449C68.5628 13.3743 68.6659 13.4969 68.7827 13.6196L69.1194 13.9671L70.3973 12.7611C70.3698 12.6998 70.3286 12.6453 70.2805 12.5908C70.2324 12.5363 70.1706 12.4613 70.0881 12.3796V12.366Z" fill="white"/>
<path d="M71.2837 16.5697L72.2525 13.9125L72.7334 14.5666L72.0739 16.3244L71.8609 16.7059L72.2868 16.6174L74.2038 16.5561L74.6504 17.1624L71.8196 17.2101L70.8165 20.0376L70.3424 19.3972L71.0158 17.4963L71.2288 17.0807L70.7753 17.1692L68.7278 17.2101L68.2812 16.6038L71.2837 16.5561V16.5697Z" fill="white"/>
<path d="M76.3953 21.4207L75.6052 20.0172L71.9363 22.0543L71.5996 21.4616L75.2685 19.4244L74.4784 18.0209L75.0075 17.7279L76.9244 21.1277L76.3953 21.4207Z" fill="white"/>
<path d="M20.5499 67.7028C20.4331 67.7845 20.3025 67.8459 20.1651 67.8935C20.0277 67.9412 19.8834 67.9617 19.7323 67.9549C19.5811 67.9549 19.43 67.914 19.2788 67.8527C19.1276 67.7845 18.9765 67.6823 18.8253 67.5393L18.7841 67.5665C18.8734 67.7232 18.9353 67.8867 18.9765 68.0502C19.0108 68.2206 19.0177 68.3841 18.9902 68.5476C18.9628 68.7111 18.894 68.8678 18.7979 69.0177C18.7017 69.1676 18.5574 69.3107 18.3719 69.4333C18.1245 69.6037 17.8703 69.6922 17.6161 69.699C17.3619 69.699 17.1145 69.6582 16.8672 69.5492C16.6267 69.4401 16.3931 69.2903 16.1733 69.0927C15.9534 68.8951 15.7542 68.6702 15.5824 68.425C15.5274 68.3432 15.4518 68.241 15.3557 68.1048C15.2663 67.9753 15.1702 67.8322 15.0671 67.6755C14.9709 67.5188 14.8747 67.3621 14.7785 67.1986C14.6823 67.0351 14.6068 66.8784 14.5449 66.7353L19.217 63.5195C19.2994 63.6012 19.3819 63.7034 19.4781 63.8124C19.5742 63.9214 19.6773 64.0441 19.7804 64.1735C19.8834 64.303 19.9865 64.4393 20.0964 64.5823C20.1995 64.7254 20.3025 64.8617 20.4056 65.0047C20.5705 65.2364 20.7148 65.4749 20.8316 65.7269C20.9552 65.9722 21.0377 66.2175 21.072 66.456C21.1064 66.6944 21.0927 66.9261 21.0102 67.1373C20.9346 67.3553 20.7766 67.5461 20.5361 67.7096L20.5499 67.7028ZM16.3863 67.8527C16.4756 67.9753 16.5718 68.0911 16.6748 68.1865C16.7779 68.2887 16.8878 68.3637 16.9977 68.4113C17.1077 68.4659 17.2245 68.4863 17.3413 68.4863C17.4581 68.4863 17.5749 68.4386 17.6917 68.3637C17.836 68.2615 17.9322 68.1524 17.9734 68.0298C18.0146 67.9072 18.0215 67.7845 17.994 67.6551C17.9665 67.5256 17.9115 67.3962 17.8428 67.2599C17.7673 67.1305 17.6848 67.001 17.6024 66.8784L17.2176 66.3265L15.9878 67.1782C15.9878 67.1782 16.0152 67.2531 16.0496 67.3076C16.0839 67.3621 16.1183 67.4234 16.1595 67.4848C16.2007 67.5461 16.242 67.6142 16.2901 67.6823C16.3313 67.7505 16.3725 67.805 16.4069 67.8527H16.3863ZM18.1864 66.1494C18.2345 66.2175 18.2894 66.2924 18.3581 66.3878C18.4268 66.4764 18.4818 66.5513 18.5368 66.6058C18.7292 66.7557 18.9215 66.8579 19.1139 66.9193C19.3063 66.9806 19.4918 66.9465 19.6636 66.8307C19.7804 66.7489 19.8559 66.6604 19.8972 66.5582C19.9315 66.456 19.9453 66.3538 19.9246 66.2448C19.904 66.1357 19.8697 66.0199 19.8078 65.9109C19.7529 65.7951 19.6842 65.6861 19.6086 65.5839C19.5193 65.4544 19.43 65.3386 19.3544 65.2296C19.2788 65.1206 19.2101 65.0456 19.1551 64.9911L17.9528 65.8223L18.1864 66.1562V66.1494Z" fill="white"/>
<path d="M25.5793 72.1927L23.7792 70.5847L20.6393 74.0527L19.7324 73.2419L23.5869 68.9836L26.3008 71.3955L25.5862 72.1858L25.5793 72.1927Z" fill="white"/>
<path d="M26.4106 71.4568L29.5093 73.494L28.9184 74.3797L26.8366 73.0103L26.1427 74.0459L28.0321 75.2927L27.4412 76.1784L25.5518 74.9316L24.8304 76.0081L26.9466 77.3979L26.3557 78.2837L23.2227 76.2193L26.4106 71.45V71.4568Z" fill="white"/>
<path d="M32.5726 76.0762L31.3565 75.5448C31.1228 76.0081 30.903 76.4237 30.7106 76.7916C30.5114 77.1595 30.3259 77.4865 30.1403 77.7727C29.9548 78.0588 29.7762 78.2973 29.5907 78.5017C29.4052 78.7061 29.2128 78.8696 29.0136 78.9922C28.883 79.074 28.7525 79.1285 28.6219 79.1626C28.4914 79.1966 28.3608 79.2103 28.2372 79.2035C28.1135 79.2035 27.9967 79.183 27.8868 79.1558C27.7768 79.1285 27.6806 79.0944 27.5982 79.0604C27.4677 79.0059 27.3715 78.9514 27.3028 78.8969C27.2409 78.8424 27.1722 78.781 27.1035 78.7061L27.6326 77.8272C27.6807 77.8681 27.7425 77.9089 27.8181 77.943C27.9005 77.9771 27.9967 77.9975 28.0998 77.9975C28.2028 77.9975 28.3059 77.9634 28.4158 77.9021C28.5464 77.8272 28.6838 77.7045 28.8418 77.5206C28.9929 77.3435 29.1647 77.0982 29.3502 76.7916C29.5357 76.485 29.7487 76.1103 29.9755 75.6674C30.2022 75.2245 30.4564 74.7067 30.7312 74.1072L34.1185 75.5856L31.7962 80.825L30.6763 80.3413L32.5657 76.0762H32.5726Z" fill="white"/>
<path d="M34.7794 75.7696L38.3933 76.6485L38.1391 77.6773L35.7138 77.0845L35.4115 78.2905L37.6101 78.8287L37.3559 79.8575L35.1573 79.3193L34.8481 80.5729L37.3146 81.1725L37.0604 82.2013L33.4121 81.3155L34.7862 75.756L34.7794 75.7696Z" fill="white"/>
<path d="M42.2392 80.3549L39.9376 80.205L39.7864 82.5624L38.5703 82.4806L38.9413 76.7711L40.1574 76.8529L40.0063 79.1489L42.3079 79.2988L42.4591 77.0028L43.6752 77.0845L43.3042 82.794L42.0881 82.7191L42.2461 80.3617L42.2392 80.3549Z" fill="white"/>
<path d="M50.6645 83.0257L49.8056 83.1415L49.5377 82.1536L45.5321 82.685V83.707L44.6801 83.8228L44.3984 81.7652L45.058 81.6766C45.0924 81.6085 45.1405 81.4722 45.2092 81.261C45.271 81.0498 45.326 80.75 45.3672 80.3617C45.4084 79.9801 45.429 79.5032 45.4222 78.9377C45.4222 78.3722 45.3535 77.7114 45.2367 76.9483L48.9606 76.4509L49.5858 81.0703L50.369 80.9681L50.6507 83.0257H50.6645ZM48.3903 81.2338L47.9093 77.6705L46.5215 77.8544C46.6177 78.7878 46.6383 79.5577 46.5833 80.1709C46.5283 80.7841 46.4528 81.227 46.3497 81.5063L48.3903 81.2338Z" fill="white"/>
<path d="M52.368 75.4221L53.4467 75.0133L54.3536 77.3707L54.6147 77.1527L54.9651 74.441L56.2568 73.9505L55.7896 76.812L55.4942 77.2276L56.1057 77.3707L58.5722 79.1966L57.1912 79.7213L54.9514 77.9362L54.6216 78.0588L55.5079 80.3617L54.4292 80.7705L53.5086 78.379L53.2543 78.5971L52.7734 81.3973L51.4336 81.9015L52.0726 78.9922L52.4093 78.5153L51.8596 78.3927L49.4961 76.5122L50.829 76.0081L52.9108 77.8204L53.2406 77.6977L52.368 75.4289V75.4221Z" fill="white"/>
<path d="M60.9153 73.8346L60.5649 73.1942L60.5305 73.2146L60.5924 74.0595L60.3931 77.9771L59.6373 78.4744L56.4219 73.7188L57.4387 73.0443L59.1701 75.6061L59.5274 76.2806L59.5686 76.2533L59.5137 75.3744L59.7267 71.5182L60.4893 71.014L63.7048 75.7696L62.6879 76.4441L60.9153 73.821V73.8346Z" fill="white"/>
<path d="M64.4129 71.8724L64.1862 72.0973L65.9038 73.8142L65.0381 74.6658L60.9707 70.6052L61.8364 69.7535L63.6228 71.5386L63.7396 71.2524L63.2655 68.3432L64.2549 67.3689L64.6602 70.3463L64.5434 70.8981L65.1275 70.7823L68.5216 71.2252L67.4497 72.2812L64.406 71.8656L64.4129 71.8724Z" fill="white"/>
<path d="M64.5694 66.9329L66.7268 63.9283L67.5993 64.5483L66.1496 66.565L67.1733 67.2872L68.4856 65.4544L69.3582 66.0744L68.0391 67.9072L69.0971 68.6566L70.5675 66.6058L71.44 67.2258L69.262 70.2645L64.5625 66.9465L64.5694 66.9329Z" fill="white"/>
</g>
<defs>
<clipPath id="clip0_56_11936">
<rect width="86" height="84" fill="white"/>
</clipPath>
</defs>
</svg>
