<svg width="130" height="127" viewBox="0 0 130 127" fill="none" xmlns="http://www.w3.org/2000/svg">
<g clip-path="url(#clip0_56_12225)">
<path d="M118.326 60.2502L119.967 48.5484L119.001 48.363C118.866 48.3424 110.308 46.756 95.4462 45.6229C94.1376 42.4091 92.3512 39.4424 90.139 36.8363C94.553 33.334 98.1881 30.1407 98.5308 26.9165C98.6139 26.0924 97.0041 24.5782 96.1732 24.5782C92.829 24.5782 89.5678 28.2247 85.9847 32.7365C80.9683 28.5749 74.6952 25.8761 67.8302 25.2683C68.4429 19.7471 68.7233 14.9777 66.6773 12.4643C66.1476 11.8154 63.9251 11.8772 63.3331 12.4643C60.9859 14.7923 61.2559 19.6131 61.931 25.2683C55.0348 25.8761 48.7513 28.5852 43.7245 32.7674C40.2453 28.4616 37.0568 24.9284 33.8372 24.5885C33.0063 24.5061 31.4796 26.1027 31.4796 26.9268C31.4796 30.2128 35.0731 33.4061 39.5494 36.9084C37.358 39.5145 35.582 42.4606 34.2838 45.6538C19.5566 46.7869 11.0817 48.3527 10.9467 48.3733L9.98083 48.5587L11.6218 60.2708L0 63.5774L5.00599 73.6105L6.11728 85.302L35.0731 80.5636L35.1458 80.5842V80.5533V80.5327V71.9624C36.3713 74.4758 37.8981 76.8244 39.7052 78.9361C35.3639 82.3869 31.8119 85.539 31.4692 88.7322C31.3861 89.5563 32.9959 91.0705 33.8268 91.0705C37.1399 91.0705 40.3595 87.4961 43.9011 83.0564C48.9486 87.1871 55.2632 89.855 62.1699 90.4113C61.5571 95.9326 61.2767 100.681 63.3227 103.195C63.8524 103.844 66.0749 103.782 66.6669 103.195C69.0245 100.856 68.7441 96.0356 68.069 90.3701C74.9341 89.7108 81.1864 86.9502 86.1716 82.7577C89.6924 87.1253 92.912 90.7306 96.1628 91.0705C96.9937 91.153 98.5204 89.5563 98.5204 88.7322C98.5204 85.4154 94.8334 82.1809 90.2844 78.6271C92.1123 76.433 93.6494 74.0019 94.8542 71.3855V80.543V80.5739L94.9269 80.5533L123.883 85.2917L124.994 73.6002L130 63.5671L118.326 60.2399V60.2502ZM85.2577 40.6991C86.4313 42.0691 87.4387 43.5731 88.3111 45.1594C85.8393 45.0152 83.2324 44.8916 80.5113 44.7989C81.2072 44.1705 81.9134 43.5422 82.63 42.9138C83.4921 42.1618 84.3748 41.4202 85.2577 40.7094V40.6991ZM66.6669 37.8664C66.7085 36.8878 66.7604 35.8989 66.8227 34.91C66.8954 33.7357 66.9993 32.5614 67.1239 31.3974C72.8154 31.8712 78.0083 34.1271 82.1315 37.5882C81.4149 38.4741 80.6775 39.36 79.9297 40.2253C79.2962 40.9463 78.6626 41.6674 78.0291 42.3679C77.0528 42.1618 75.9935 42.44 75.2353 43.1919C74.8302 43.5937 74.5914 44.0881 74.4667 44.6031C71.9014 44.5413 69.2322 44.5104 66.48 44.5001C66.48 43.9542 66.4904 43.4082 66.5111 42.8417C67.3628 42.306 67.9236 41.3687 67.9236 40.2871C67.9236 39.2879 67.4251 38.402 66.6669 37.8458V37.8664ZM62.6788 31.3974C62.8138 32.5614 62.928 33.7357 63.0111 34.91C63.0838 35.868 63.1461 36.8157 63.1981 37.7633C62.3672 38.3093 61.8063 39.2364 61.8063 40.2974C61.8063 41.4511 62.4607 42.44 63.4058 42.955C63.4162 43.4804 63.4265 43.9954 63.4369 44.5104C60.6327 44.5104 57.9116 44.5516 55.2944 44.6135C55.1594 44.1602 54.9205 43.7379 54.5674 43.3773C53.8508 42.6666 52.8745 42.3885 51.9398 42.5327C51.2751 41.8116 50.6104 41.0802 49.9457 40.3386C49.146 39.4321 48.367 38.5153 47.5985 37.5779C51.7424 34.1065 56.9458 31.8506 62.6684 31.3871L62.6788 31.3974ZM44.4515 40.7094C45.3967 41.4614 46.3418 42.2236 47.2557 43.0065C47.9412 43.5937 48.6267 44.1911 49.3018 44.7886C46.5391 44.8916 43.9115 45.0152 41.4085 45.1594C42.2809 43.5731 43.2883 42.0691 44.4515 40.6991V40.7094ZM64.974 46.5603C93.8779 46.5603 113.206 49.4755 117.641 50.2171L114.826 70.2833C111.025 69.3356 97.5961 66.7192 64.974 66.7192C32.352 66.7192 18.9231 69.3356 15.1218 70.2833L12.3073 50.2171C16.742 49.4755 36.0494 46.5603 64.974 46.5603ZM7.97635 82.9019L7.04162 73.0337L2.97036 64.8753L11.9126 62.331L13.4082 72.9822L13.5328 72.9409L13.512 72.9822L31.033 79.1421L7.98674 82.9122L7.97635 82.9019ZM33.0686 77.6691L16.9497 72.0036C19.5878 71.4473 24.6561 70.5923 33.0686 69.9022V77.6691ZM44.5762 75.0835C43.091 73.3633 41.8343 71.4473 40.8269 69.3871C43.5791 69.2326 46.5807 69.109 49.8626 69.006C49.5926 69.5622 49.4887 70.1803 49.5822 70.7778C48.8552 71.437 48.1178 72.0963 47.37 72.7555C46.456 73.5487 45.5213 74.3316 44.5762 75.0938V75.0835ZM63.3227 77.7927C63.2811 78.7713 63.2292 79.7601 63.1669 80.749C63.0942 81.9233 62.9903 83.1079 62.8657 84.2822C57.1431 83.8599 51.9086 81.6452 47.7543 78.2047C48.502 77.2673 49.2706 76.3403 50.0703 75.4338C50.7038 74.7127 51.3374 73.9916 51.9709 73.2912C52.9472 73.4972 54.0066 73.2191 54.7647 72.4671C55.5852 71.6533 55.8241 70.4996 55.5229 69.4695C55.7202 69.2635 55.9072 69.0781 56.1045 68.8721C58.4621 68.8309 60.9443 68.8103 63.5408 68.8C63.5408 70.0773 63.52 71.4164 63.4992 72.807C62.6476 73.3427 62.0868 74.2801 62.0868 75.3617C62.0868 76.3609 62.5853 77.2467 63.3435 77.803L63.3227 77.7927ZM67.3109 84.241C67.1862 83.0873 67.0616 81.913 66.9785 80.749C66.9058 79.7911 66.8435 78.8434 66.7916 77.8957C67.6224 77.3497 68.1833 76.4227 68.1833 75.3617C68.1833 74.208 67.529 73.2191 66.5838 72.704C66.5423 71.3443 66.5215 70.0361 66.5111 68.8C69.1284 68.8 71.6314 68.8309 73.9994 68.8721C74.2071 69.0781 74.394 69.2738 74.6017 69.4798C74.3836 70.4584 74.6537 71.5194 75.4222 72.2817C76.1389 72.9925 77.1151 73.2706 78.0499 73.1264C78.7146 73.8474 79.3792 74.5788 80.0439 75.3205C80.8021 76.1754 81.5499 77.0613 82.2769 77.9472C78.1745 81.4495 73.0023 83.7363 67.3109 84.2514V84.241ZM85.3823 74.8157C84.4891 74.1049 83.6063 73.3839 82.7339 72.6422C82.0069 72.0139 81.2799 71.3855 80.5736 70.7572C80.6983 70.1803 80.6255 69.5726 80.4074 69.0163C83.4817 69.109 86.3066 69.2326 88.9135 69.3665C87.958 71.3237 86.7844 73.1573 85.3823 74.8157ZM96.9314 69.9125C105.354 70.6026 110.412 71.4576 113.029 72.0139L96.9314 77.6691V69.9022V69.9125ZM122.958 73.044L122.024 82.9122L98.9774 79.1421L116.498 72.9822V72.9616L116.54 72.9822L118.035 62.3207L127.04 64.8856L122.969 73.044H122.958Z" fill="#39314C"/>
<path d="M36.2452 60.8066C36.2036 60.3327 36.0167 59.9722 35.674 59.725C35.3312 59.4778 34.9158 59.2717 34.4173 59.1069C33.9188 58.9524 33.3891 58.7979 32.8179 58.6743C32.2466 58.5404 31.7169 58.355 31.208 58.118C30.6991 57.8811 30.2733 57.5515 29.9202 57.1395C29.5671 56.7274 29.3594 56.1609 29.297 55.4501C29.2139 54.4612 29.5048 53.6371 30.1798 52.9676C30.8549 52.298 31.8831 51.9066 33.2437 51.783C34.033 51.7109 34.76 51.7109 35.4247 51.7727C36.0894 51.8345 36.6191 51.9375 37.0137 52.092L36.5983 53.6062C36.2971 53.4929 35.8401 53.4002 35.2481 53.3384C34.6561 53.2766 34.0018 53.2766 33.2956 53.3384C32.4959 53.4105 31.9143 53.6268 31.5508 53.9977C31.1873 54.3685 31.0211 54.7702 31.0523 55.2029C31.0938 55.6561 31.2807 56.0064 31.6235 56.2536C31.9662 56.5008 32.3816 56.7171 32.8802 56.8819C33.3787 57.057 33.9188 57.2116 34.4796 57.3661C35.0508 57.5206 35.5909 57.7163 36.0894 57.9635C36.5879 58.2107 37.0241 58.5301 37.3773 58.9318C37.7304 59.3232 37.9381 59.8589 38.0004 60.5182C38.0523 61.0641 37.99 61.5688 37.8135 62.0324C37.6369 62.4959 37.3669 62.8977 37.0034 63.2479C36.6399 63.5981 36.1725 63.8762 35.622 64.1029C35.0716 64.3192 34.438 64.4634 33.7318 64.5252C32.7659 64.6076 31.9558 64.6076 31.2807 64.5252C30.6057 64.4428 30.0864 64.3295 29.7332 64.1956L30.1798 62.6298C30.481 62.7431 30.938 62.8565 31.5508 62.9492C32.1635 63.0419 32.8179 63.0625 33.5345 63.0007C33.9499 62.9595 34.3238 62.8977 34.6665 62.7844C35.0093 62.6813 35.3105 62.5371 35.5597 62.362C35.809 62.1869 35.9959 61.9706 36.1206 61.7131C36.2452 61.4555 36.2971 61.1671 36.266 60.8272L36.2452 60.8066Z" fill="#39314C"/>
<path d="M32.4134 64.8237C31.9772 64.8237 31.5929 64.8031 31.2398 64.7516C30.5439 64.6589 30.0039 64.5456 29.6404 64.4014L29.4222 64.3189L30.0142 62.2485L30.2843 62.3515C30.5751 62.4648 31.0113 62.5678 31.6033 62.6605C32.1849 62.7532 32.8288 62.7738 33.5247 62.712C33.9193 62.6811 34.2828 62.609 34.6048 62.506C34.9164 62.4133 35.1968 62.2794 35.4253 62.1146C35.6434 61.96 35.7992 61.7746 35.903 61.5583C36.0069 61.3523 36.0484 61.0948 36.0173 60.8063C35.9861 60.4046 35.8303 60.1162 35.5499 59.9102C35.2383 59.6835 34.8333 59.4878 34.3659 59.3333C33.8778 59.1788 33.3481 59.0346 32.7873 58.9007C32.2057 58.7668 31.6552 58.571 31.1255 58.3341C30.5855 58.0869 30.1285 57.7367 29.7442 57.2937C29.3495 56.8405 29.1211 56.2224 29.0587 55.4602C28.9653 54.3992 29.2872 53.4927 30.0246 52.7716C30.7413 52.0609 31.8318 51.6385 33.2442 51.5149C34.0336 51.4428 34.7917 51.4428 35.4668 51.5046C36.1523 51.5664 36.7131 51.6797 37.1286 51.8445L37.3467 51.927L36.7962 53.9356L36.5262 53.8326C36.2458 53.7296 35.8096 53.6369 35.2383 53.5751C34.6671 53.5133 34.0232 53.5133 33.3377 53.5751C32.6107 53.6369 32.0706 53.8326 31.7487 54.1623C31.4371 54.4816 31.2917 54.8112 31.3332 55.1717C31.3644 55.5426 31.5202 55.831 31.8006 56.037C32.1226 56.2739 32.5172 56.4697 32.995 56.6345C33.4935 56.8096 34.0336 56.9641 34.584 57.1083C35.1656 57.2628 35.7265 57.4688 36.2458 57.7264C36.7858 57.9839 37.2428 58.3341 37.6167 58.7565C38.0114 59.1891 38.2399 59.7762 38.3022 60.4973C38.3541 61.0845 38.2918 61.6304 38.1048 62.1146C37.9179 62.609 37.6271 63.0519 37.222 63.4228C36.8274 63.7936 36.3392 64.0923 35.7576 64.3292C35.1864 64.5559 34.5217 64.7001 33.7843 64.7722C33.3066 64.8134 32.86 64.834 32.4445 64.834L32.4134 64.8237ZM30.0454 63.9996C30.3674 64.0923 30.7932 64.1747 31.3021 64.2365C31.9564 64.3189 32.7561 64.3189 33.7012 64.2365C34.3867 64.1747 34.9995 64.0408 35.5188 63.8348C36.0381 63.6288 36.4743 63.361 36.817 63.0416C37.1597 62.7223 37.409 62.3412 37.5648 61.9291C37.7206 61.5068 37.7829 61.033 37.731 60.5282C37.679 59.9205 37.4921 59.4363 37.1805 59.0861C36.8481 58.7153 36.4431 58.4062 35.9654 58.1796C35.4772 57.9427 34.9475 57.747 34.3971 57.6028C33.8362 57.4585 33.2858 57.2937 32.7769 57.1186C32.2576 56.9435 31.811 56.7169 31.4475 56.449C31.0424 56.1503 30.814 55.7383 30.7724 55.2129C30.7309 54.6979 30.9178 54.2241 31.3436 53.8017C31.7591 53.3897 32.403 53.1425 33.2546 53.0704C33.9713 53.0085 34.6463 53.0085 35.2591 53.0704C35.7265 53.1219 36.1108 53.1837 36.4016 53.2661L36.682 52.2463C36.3392 52.1433 35.903 52.0712 35.3837 52.0197C34.7294 51.9579 34.0128 51.9682 33.2546 52.03C31.9668 52.1433 30.9905 52.5141 30.357 53.1425C29.7338 53.7605 29.4638 54.5022 29.5469 55.419C29.6092 56.0679 29.7961 56.5933 30.1181 56.9641C30.4505 57.3452 30.8555 57.6543 31.3229 57.8706C31.811 58.0972 32.3407 58.2826 32.8807 58.4062C33.452 58.5401 33.992 58.6843 34.5009 58.8492C35.0202 59.014 35.4772 59.2406 35.8303 59.4981C36.2354 59.7968 36.4639 60.2192 36.5054 60.7651C36.5366 61.1463 36.4846 61.4862 36.3392 61.7849C36.1938 62.0733 35.9757 62.3309 35.6953 62.5369C35.4253 62.7326 35.0929 62.8871 34.7294 63.0004C34.3659 63.1137 33.9713 63.1858 33.5454 63.2271C32.808 63.2889 32.1226 63.2683 31.4994 63.1755C31.0217 63.1034 30.6478 63.021 30.3466 62.9283L30.0454 63.9996Z" fill="#39314C"/>
<path d="M42.9024 57.984L42.0404 58.0355L42.3831 63.5979L40.6175 63.701L39.8594 51.4635L41.625 51.3605L41.9781 56.9848L42.7778 56.686L46.8802 51.0308L48.8847 50.9072L44.7719 56.4182L43.9826 57.0672L44.99 57.7058L50.2452 63.1035L48.0227 63.2374L42.9024 57.9737V57.984Z" fill="#39314C"/>
<path d="M40.3792 63.9793L39.5898 51.2268L41.8747 51.0929L42.2175 56.6348L42.6121 56.4906L46.7457 50.8045L49.4357 50.6396L44.9905 56.6039L44.4297 57.0674L45.1463 57.5207L50.8378 63.3613L47.9401 63.5364L42.8199 58.2726L42.3317 58.3035L42.6745 63.866L40.3896 64.0102L40.3792 63.9793ZM40.1403 51.7109L40.8673 63.4334L42.1136 63.3613L41.7709 57.7988L43.0172 57.7267L48.1374 62.9904L49.6745 62.8977L44.8139 57.9018L43.5469 57.1086L44.6166 56.2433L48.3555 51.2165L47.0261 51.2989L42.9445 56.9232L41.7501 57.3661L41.397 51.6491L40.1507 51.7212L40.1403 51.7109Z" fill="#39314C"/>
<path d="M54.7217 58.1696L49.9961 50.856L52.0629 50.7942L55.324 55.8931L55.6564 57.0056H55.6876L55.9887 55.8416L58.7722 50.5882L60.6416 50.5264L56.4873 58.1078L56.6431 62.9184L54.8775 62.9699L54.7217 58.1696Z" fill="#39314C"/>
<path d="M54.6288 63.2273L54.4626 58.2417L49.5293 50.6087L52.1985 50.5263L55.5635 55.8106L55.6466 56.0888L55.7297 55.7591L58.6066 50.3099L61.0784 50.2275L56.7475 58.1386L56.9137 63.1346L54.6288 63.2067V63.2273ZM50.464 51.0928L54.9819 58.0871L55.1273 62.6916L56.3736 62.6504L56.2282 58.0253L56.2593 57.9635L60.1956 50.7838L58.9285 50.825L56.2178 55.9445L55.8958 57.2425H55.5012L55.4077 57.0673L55.0857 55.9961L51.9284 51.0516L50.464 51.1031V51.0928Z" fill="#39314C"/>
<path d="M70.7273 62.7841L62.6367 62.7635L62.6679 50.5054H64.4335L64.4023 61.2286L70.7273 61.2492V62.7944V62.7841Z" fill="#39314C"/>
<path d="M70.9868 63.0418L62.377 63.0212L62.4185 50.248H64.7034L64.6722 60.9713L70.9972 60.9919V63.0521L70.9868 63.0418ZM62.8962 62.5061L70.4675 62.5267V61.4966L64.1529 61.476L64.1841 50.7631H62.9378L62.9066 62.5061H62.8962Z" fill="#39314C"/>
<path d="M73.9772 51.793L72.5647 51.7518L72.6062 50.5981L77.1968 50.7424L77.1552 51.8961L75.7428 51.8549L75.4208 61.7952L76.8333 61.8364L76.7917 62.9901L72.2012 62.8459L72.2427 61.6922L73.6552 61.7334L73.9772 51.793Z" fill="#39314C"/>
<path d="M77.0415 63.2582L71.9316 63.0934L71.9836 61.4246L73.396 61.4658L73.6972 52.0405L72.2848 51.9993L72.3367 50.3306L77.4465 50.4954L77.3946 52.1641L75.9821 52.1229L75.6809 61.5483L77.0934 61.5895L77.0415 63.2582ZM72.4717 62.599L76.543 62.7329L76.5637 62.0942L75.1513 62.053L75.494 51.5976L76.9065 51.6388L76.9272 51.0001L72.856 50.8662L72.8352 51.5049L74.2477 51.5461L73.905 62.0015L72.4925 61.9603L72.4717 62.599Z" fill="#39314C"/>
<path d="M82.5248 55.4599L81.5693 53.6778H81.4966L81.6004 55.3981L81.1227 63.1753L79.4609 63.0723L80.2191 50.6597L81.2058 50.7215L87.0115 59.0343L87.915 60.7237H87.9981L87.8839 59.0858L88.3616 51.3292L90.013 51.4322L89.2548 63.8448L88.2682 63.783L82.504 55.4496L82.5248 55.4599Z" fill="#39314C"/>
<path d="M89.5247 64.1232L88.1538 64.0408L82.2962 55.5837L81.8288 54.7081L81.8703 55.3983L81.3718 63.4639L79.2012 63.33L79.9905 50.4023L81.3614 50.4847L87.2398 58.9006L87.6864 59.735L87.6449 59.1169L88.133 51.0719L90.3037 51.2058L89.5143 64.1335L89.5247 64.1232ZM88.4342 63.5463L89.0366 63.5875L89.7636 51.69L88.6212 51.6179L88.1642 59.1169L88.2992 61.0123L87.7695 60.9814L86.7932 59.1684L81.081 50.9792L80.4786 50.938L79.7516 62.8355L80.8941 62.9077L81.351 55.388L81.2264 53.3999L81.7353 53.4308L82.7531 55.3262L88.4446 63.5463H88.4342Z" fill="#39314C"/>
<path d="M93.4622 51.7212L100.899 52.3804L100.763 53.9153L95.0824 53.4105L94.7501 57.088L99.943 57.5515L99.808 59.0863L94.6151 58.6228L94.2619 62.5475L100.026 63.0625L99.8911 64.5973L92.3613 63.9278L93.4622 51.7212Z" fill="#39314C"/>
<path d="M100.119 64.8753L92.0703 64.1645L93.2128 51.4429L101.168 52.1433L100.981 54.1932L95.3003 53.6885L95.0199 56.8509L100.202 57.3144L100.016 59.3643L94.8226 58.9007L94.511 62.3103L100.275 62.8254L100.088 64.8753H100.119ZM92.6415 63.6907L99.652 64.3087L99.7455 63.2889L93.9813 62.7739L94.3864 58.3342L99.5689 58.7977L99.6624 57.7779L94.4694 57.3144L94.8433 53.1219L100.524 53.6267L100.618 52.6069L93.7009 51.9991L92.6519 63.6907H92.6415Z" fill="#39314C"/>
<path d="M19.2979 30.9646L17.9166 33.4368L19.2252 35.0231L18.7267 35.9296L13.7207 29.7902L13.9804 29.3164L21.884 30.2538L21.3543 31.2118L19.2979 30.9646ZM17.3246 32.7569L18.4151 30.81L16.2029 30.5422L15.0916 30.2538V30.2744L15.9329 31.0573L17.3246 32.7672V32.7569Z" fill="#39314C"/>
<path d="M16.5768 25.3918C16.7014 25.1239 16.8468 24.8458 17.0338 24.5574C17.2207 24.269 17.4077 23.9908 17.605 23.723C17.8127 23.4449 18.0516 23.1668 18.3112 22.9195C18.5709 22.662 18.8617 22.4663 19.1733 22.3221C19.4848 22.1779 19.8172 22.1161 20.1599 22.1367C20.513 22.1573 20.8765 22.3015 21.2504 22.5693C21.6036 22.8268 21.8528 23.1153 21.9982 23.4346C22.1436 23.7539 22.2163 24.0835 22.1956 24.4235C22.1852 24.7634 22.1021 25.1136 21.9567 25.4639C21.8113 25.8141 21.6243 26.1437 21.3855 26.4631C21.3647 26.494 21.3231 26.5455 21.2712 26.6176C21.2193 26.6897 21.157 26.7515 21.105 26.8236C21.0531 26.8957 20.9908 26.9678 20.9285 27.0296C20.8662 27.0914 20.8246 27.1429 20.7935 27.1738L22.9953 28.7705L22.3825 29.6048L16.5664 25.3918H16.5768ZM18.3528 24.2278C18.2385 24.3823 18.1347 24.5265 18.0412 24.6707C17.9373 24.8149 17.875 24.9385 17.8439 25.0312L20.0664 26.6382C20.0664 26.6382 20.1391 26.5764 20.1911 26.5146C20.243 26.4528 20.2949 26.3909 20.3469 26.3188C20.3988 26.257 20.4507 26.1849 20.5027 26.1231C20.5442 26.0613 20.5857 26.0098 20.6065 25.9789C20.7519 25.7832 20.8869 25.5669 21.0012 25.3506C21.1154 25.1342 21.1881 24.9179 21.2089 24.6913C21.2297 24.4647 21.2089 24.2484 21.1154 24.0423C21.0219 23.8363 20.8558 23.6303 20.6065 23.4449C20.3884 23.2801 20.1703 23.1977 19.9522 23.1874C19.7341 23.1874 19.5368 23.2183 19.3394 23.311C19.1421 23.4037 18.9655 23.5273 18.7994 23.6921C18.6332 23.8569 18.4774 24.032 18.3424 24.2072L18.3528 24.2278Z" fill="#39314C"/>
<path d="M20.7825 19.8085L23.7736 16.6152L24.4383 17.2333L22.1534 19.6643L23.7529 21.1476L25.8404 18.9226L26.5051 19.5407L24.4175 21.7657L26.1312 23.3417L28.4473 20.8695L29.112 21.4876L26.0793 24.7118L20.7617 19.7982L20.7825 19.8085Z" fill="#39314C"/>
<path d="M31.7186 15.0288L28.8728 17.3568L30.9396 19.8393L30.1399 20.4986L25.5078 14.9361L26.3075 14.2768L28.2808 16.6563L31.1266 14.3283L29.1533 11.9488L29.953 11.2896L34.5851 16.852L33.7854 17.5113L31.7186 15.0288Z" fill="#39314C"/>
<path d="M42.0838 13.7617L41.4711 14.1326L40.6298 13.0922L35.9042 15.9352L36.4547 17.1507L35.8419 17.5216L34.6787 15.6159L35.3746 15.2039C35.3849 15.1112 35.3746 14.9051 35.3434 14.6167C35.3122 14.318 35.2188 13.9266 35.063 13.4218C34.9072 12.9274 34.6683 12.3299 34.3464 11.6295C34.0244 10.929 33.5882 10.1358 33.0273 9.23965L36.7351 7.01465L40.0274 12.4123L40.9206 11.8767L42.0838 13.7823V13.7617ZM39.1446 12.9274L36.3301 8.31256L34.336 9.51777C34.6891 10.1564 34.9903 10.7333 35.2395 11.2586C35.4888 11.784 35.6861 12.2475 35.8419 12.6698C35.9977 13.0922 36.112 13.463 36.1847 13.7926C36.2574 14.1223 36.2989 14.4004 36.3093 14.6476L39.1446 12.948V12.9274Z" fill="#39314C"/>
<path d="M45.0555 9.0031L42.4383 10.1156L42.5006 12.1655L41.5451 12.5775L41.3789 4.68702L41.8774 4.4707L47.5481 10.0126L46.5407 10.4452L45.0659 9.0031H45.0555ZM42.3863 9.21942L44.4427 8.34385L42.8641 6.78841L42.1682 5.88193H42.1475L42.3448 7.03563L42.3863 9.22972V9.21942Z" fill="#39314C"/>
<path d="M54.3926 3.35813L54.2783 2.56496H54.2368L53.9252 3.47144L51.308 8.90002L50.6848 9.03393L49.127 1.98811L50.1448 1.77179L51.1834 6.45871L51.2664 7.24157H51.3184L51.6507 6.32479L54.2472 0.875611L54.8807 0.741699L56.449 7.78752L55.4312 8.00384L54.3926 3.34783V3.35813Z" fill="#39314C"/>
<path d="M65.4324 0.927035L61.8908 0.988841L61.9946 7.293L60.956 7.3136L60.8418 0.102962L66.4606 0.0102539L66.5748 7.22089L65.5362 7.24149L65.4324 0.937336V0.927035Z" fill="#39314C"/>
<path d="M69.0769 0.246977C69.3781 0.216075 69.6896 0.216075 70.0324 0.226376C70.3751 0.246977 70.7075 0.267579 71.0398 0.308783C71.3929 0.349987 71.746 0.422093 72.0992 0.525102C72.4523 0.628111 72.7639 0.782625 73.0443 0.978342C73.3247 1.17406 73.5324 1.43158 73.6882 1.74061C73.844 2.04964 73.8959 2.44107 73.8336 2.89431C73.7817 3.32695 73.657 3.67718 73.4389 3.96561C73.2312 4.24373 72.9716 4.47035 72.66 4.62486C72.3484 4.77938 72.0057 4.88239 71.6318 4.92359C71.2579 4.96479 70.8632 4.96479 70.479 4.92359C70.4374 4.92359 70.3751 4.91329 70.292 4.89269C70.2089 4.88239 70.1155 4.86179 70.022 4.85148C69.9285 4.84118 69.8454 4.82058 69.752 4.79998C69.6689 4.77938 69.6066 4.76908 69.565 4.75878L69.243 7.43701L68.2148 7.3134L69.0665 0.226376L69.0769 0.246977ZM70.9671 1.21526C70.7802 1.19466 70.6036 1.17406 70.427 1.16376C70.2505 1.15346 70.1155 1.15346 70.0116 1.16376L69.6896 3.8729C69.6896 3.8729 69.7727 3.9038 69.8558 3.9141C69.9389 3.9244 70.022 3.945 70.1051 3.95531C70.1882 3.97591 70.2712 3.98621 70.3543 3.99651C70.4374 4.00681 70.4894 4.01711 70.5309 4.01711C70.7802 4.04801 71.0294 4.05831 71.2683 4.04801C71.5176 4.04801 71.7357 3.99651 71.9538 3.9038C72.1719 3.81109 72.338 3.68748 72.4834 3.50207C72.6288 3.31665 72.7223 3.07973 72.7535 2.7707C72.7846 2.50288 72.7535 2.27626 72.66 2.08054C72.5665 1.88482 72.4315 1.74061 72.2549 1.617C72.0784 1.49339 71.8811 1.40068 71.6526 1.33887C71.4241 1.27707 71.1956 1.22556 70.9775 1.20496L70.9671 1.21526Z" fill="#39314C"/>
<path d="M74.7384 4.51193C74.8838 3.93508 75.0915 3.45094 75.3512 3.0389C75.6108 2.62686 75.9224 2.29724 76.2651 2.06031C76.6183 1.82339 77.0129 1.66888 77.4491 1.60707C77.8853 1.54527 78.3527 1.57617 78.8408 1.69978C79.3705 1.83369 79.8171 2.03971 80.1702 2.31784C80.5234 2.59596 80.7934 2.92559 80.9803 3.30672C81.1673 3.68786 81.2608 4.1205 81.2815 4.60464C81.2919 5.07848 81.24 5.59353 81.0946 6.12917C80.9492 6.70602 80.7415 7.19017 80.4818 7.6022C80.2222 8.01424 79.9106 8.34387 79.5575 8.58079C79.2043 8.81771 78.8097 8.97222 78.3735 9.03403C77.9373 9.09583 77.4699 9.06493 76.9818 8.94132C76.4417 8.80741 76.0055 8.60139 75.6524 8.32327C75.2993 8.04514 75.0396 7.71551 74.8631 7.33438C74.6865 6.95325 74.5826 6.52061 74.5723 6.04677C74.5515 5.57292 74.6138 5.05788 74.7592 4.52223L74.7384 4.51193ZM75.8082 4.77975C75.7147 5.16089 75.6628 5.52142 75.6628 5.87165C75.6628 6.22188 75.7147 6.54121 75.8186 6.83994C75.9224 7.13866 76.0886 7.38588 76.3171 7.6022C76.5456 7.81852 76.8364 7.96273 77.1999 8.05544C77.8542 8.22026 78.4254 8.12755 78.9135 7.78762C79.4121 7.43739 79.7756 6.79873 80.0248 5.85105C80.1183 5.48022 80.1702 5.11968 80.1702 4.76945C80.1702 4.41922 80.1183 4.09989 80.0145 3.80117C79.9106 3.50244 79.7444 3.25522 79.5159 3.0389C79.2874 2.82258 78.9966 2.66807 78.6227 2.57536C77.9788 2.41055 77.4076 2.50325 76.9091 2.85348C76.4106 3.20372 76.047 3.85267 75.8082 4.77975Z" fill="#39314C"/>
<path d="M84.0962 7.6433L83.6288 7.44758L82.3618 10.476L81.4062 10.0846L84.1897 3.41992L85.1452 3.81136L83.8677 6.87073L84.3662 6.92223L88.0117 4.98566L89.1022 5.4389L85.4879 7.30336L84.9063 7.43728L85.2698 8.03473L86.6407 12.2375L85.436 11.7431L84.1066 7.6433H84.0962Z" fill="#39314C"/>
<path d="M91.8335 12.9895L89.3617 11.568L87.7415 12.835L86.8379 12.3199L93.1213 7.47852L93.5887 7.74634L92.4878 15.5647L91.5323 15.0188L91.8231 12.9792L91.8335 12.9895ZM90.0575 10.9911L91.9997 12.1036L92.3112 9.91983L92.6228 8.82793H92.6021L91.792 9.65201L90.0471 10.9911H90.0575Z" fill="#39314C"/>
<path d="M100.567 13.7107L98.5938 12.2685L94.8133 17.3366L93.9824 16.7288L97.7629 11.6608L95.7896 10.2187L96.3296 9.4873L101.107 12.9896L100.567 13.721V13.7107Z" fill="#39314C"/>
<path d="M102.519 24.3923L101.802 23.6506L104.046 21.5287L103.111 20.89L99.6941 21.4566L98.8633 20.5913L101.906 20.1174L102.706 20.2925C102.55 20.0659 102.436 19.829 102.363 19.5921C102.28 19.3552 102.249 19.1182 102.259 18.871C102.259 18.6341 102.322 18.3972 102.426 18.1706C102.529 17.9439 102.696 17.7173 102.924 17.5113C103.225 17.2229 103.537 17.0375 103.859 16.9551C104.181 16.8726 104.503 16.8623 104.814 16.9345C105.126 17.0066 105.448 17.1405 105.76 17.3568C106.071 17.5731 106.372 17.8203 106.653 18.1191C106.829 18.3045 107.016 18.5105 107.214 18.7474C107.411 18.9843 107.577 19.2213 107.722 19.4685L102.519 24.4026V24.3923ZM105.946 18.6959C105.78 18.5208 105.604 18.3663 105.417 18.2427C105.23 18.1088 105.043 18.016 104.856 17.9645C104.669 17.913 104.472 17.913 104.274 17.9645C104.077 18.0057 103.88 18.1294 103.682 18.3148C103.495 18.4899 103.381 18.665 103.319 18.8607C103.257 19.0461 103.246 19.2419 103.288 19.4376C103.329 19.6333 103.412 19.829 103.527 20.0247C103.641 20.2204 103.797 20.4059 103.973 20.5913L104.482 21.1166L106.414 19.2934C106.372 19.2007 106.31 19.1182 106.237 19.0358C106.165 18.9534 106.071 18.8401 105.946 18.7165V18.6959Z" fill="#39314C"/>
<path d="M107.753 25.0515L109.218 21.0342L109.945 22.0231L108.948 24.6807L108.626 25.2576L109.27 25.1236L112.167 25.0309L112.843 25.9477L108.564 26.0198L107.047 30.2947L106.331 29.3264L107.348 26.4525L107.67 25.8241L106.985 25.958L103.89 26.0198L103.215 25.103L107.753 25.0309V25.0515Z" fill="#39314C"/>
<path d="M115.482 32.3858L114.287 30.2638L108.741 33.3438L108.232 32.4476L113.778 29.3677L112.584 27.2457L113.384 26.8027L116.281 31.9429L115.482 32.3858Z" fill="#39314C"/>
<path d="M31.0636 102.36C30.887 102.484 30.6897 102.576 30.482 102.648C30.2743 102.72 30.0562 102.751 29.8277 102.741C29.5992 102.741 29.3707 102.679 29.1422 102.587C28.9137 102.484 28.6852 102.329 28.4567 102.113L28.3944 102.154C28.5294 102.391 28.6229 102.638 28.6852 102.885C28.7371 103.143 28.7475 103.39 28.706 103.637C28.6644 103.884 28.5606 104.121 28.4152 104.348C28.2698 104.575 28.0517 104.791 27.7713 104.976C27.3974 105.234 27.0131 105.368 26.6288 105.378C26.2445 105.378 25.8706 105.316 25.4968 105.151C25.1332 104.987 24.7801 104.76 24.4478 104.461C24.1154 104.163 23.8142 103.823 23.5546 103.452C23.4715 103.328 23.3573 103.174 23.2119 102.968C23.0768 102.772 22.9314 102.556 22.7757 102.319C22.6303 102.082 22.4849 101.845 22.3394 101.598C22.194 101.35 22.0798 101.113 21.9863 100.897L29.0487 96.0352C29.1734 96.1588 29.298 96.3133 29.4434 96.4781C29.5888 96.6429 29.7446 96.8283 29.9004 97.024C30.0562 97.2198 30.2119 97.4258 30.3781 97.6421C30.5339 97.8584 30.6897 98.0644 30.8455 98.2808C31.0947 98.631 31.3128 98.9915 31.4894 99.3726C31.6763 99.7435 31.801 100.114 31.8529 100.475C31.9048 100.835 31.8841 101.186 31.7594 101.505C31.6452 101.835 31.4063 102.123 31.0428 102.37L31.0636 102.36ZM24.7697 102.587C24.9048 102.772 25.0502 102.947 25.2059 103.091C25.3617 103.246 25.5279 103.359 25.6941 103.431C25.8603 103.514 26.0368 103.545 26.2134 103.545C26.3899 103.545 26.5665 103.472 26.7431 103.359C26.9612 103.205 27.1066 103.04 27.1689 102.854C27.2312 102.669 27.2416 102.484 27.2 102.288C27.1585 102.092 27.0754 101.896 26.9715 101.69C26.8573 101.495 26.7327 101.299 26.608 101.114L26.0264 100.279L24.1674 101.567C24.1674 101.567 24.2089 101.68 24.2608 101.762C24.3128 101.845 24.3647 101.938 24.427 102.03C24.4893 102.123 24.5516 102.226 24.6243 102.329C24.6867 102.432 24.749 102.514 24.8009 102.587H24.7697ZM27.4908 100.011C27.5635 100.114 27.6466 100.228 27.7505 100.372C27.8543 100.506 27.9374 100.619 28.0205 100.701C28.3113 100.928 28.6021 101.083 28.8929 101.175C29.1837 101.268 29.4642 101.217 29.7238 101.041C29.9004 100.918 30.0146 100.784 30.0769 100.629C30.1289 100.475 30.1496 100.32 30.1185 100.156C30.0873 99.9907 30.0354 99.8156 29.9419 99.6508C29.8588 99.4757 29.755 99.3108 29.6407 99.1563C29.5057 98.9606 29.3707 98.7855 29.2564 98.6207C29.1422 98.4559 29.0383 98.3426 28.9552 98.2601L27.1377 99.5169L27.4908 100.022V100.011Z" fill="#39314C"/>
<path d="M38.6665 109.148L35.9454 106.717L31.1991 111.96L29.8281 110.734L35.6546 104.296L39.757 107.943L38.6769 109.138L38.6665 109.148Z" fill="#39314C"/>
<path d="M39.9226 108.036L44.6066 111.116L43.7134 112.455L40.5665 110.384L39.5175 111.95L42.3736 113.835L41.4804 115.174L38.6243 113.289L37.5338 114.917L40.7327 117.018L39.8395 118.357L35.1035 115.236L39.9226 108.025V108.036Z" fill="#39314C"/>
<path d="M49.2398 115.02L47.4015 114.216C47.0484 114.917 46.716 115.545 46.4252 116.102C46.1241 116.658 45.8436 117.152 45.5632 117.585C45.2828 118.018 45.0128 118.378 44.7323 118.687C44.4519 118.996 44.1611 119.243 43.8599 119.429C43.6626 119.552 43.4653 119.635 43.2679 119.686C43.0706 119.738 42.8733 119.758 42.6863 119.748C42.4994 119.748 42.3228 119.717 42.1566 119.676C41.9905 119.635 41.8451 119.583 41.7204 119.532C41.5231 119.449 41.3777 119.367 41.2738 119.285C41.1804 119.202 41.0765 119.109 40.9727 118.996L41.7724 117.667C41.8451 117.729 41.9385 117.791 42.0528 117.842C42.1774 117.894 42.3228 117.925 42.4786 117.925C42.6344 117.925 42.7902 117.873 42.9564 117.781C43.1537 117.667 43.3614 117.482 43.6003 117.204C43.8288 116.936 44.0884 116.565 44.3688 116.102C44.6493 115.638 44.9712 115.071 45.314 114.402C45.6567 113.732 46.041 112.949 46.4564 112.043L51.5766 114.278L48.0662 122.2L46.3733 121.468L49.2294 115.02H49.2398Z" fill="#39314C"/>
<path d="M52.5726 114.556L58.0356 115.885L57.6513 117.441L53.9851 116.544L53.5281 118.368L56.8516 119.181L56.4674 120.737L53.1439 119.923L52.6765 121.818L56.405 122.725L56.0208 124.28L50.5059 122.941L52.583 114.536L52.5726 114.556Z" fill="#39314C"/>
<path d="M63.8527 121.489L60.3734 121.262L60.1449 124.826L58.3066 124.702L58.8675 116.07L60.7058 116.194L60.4773 119.665L63.9566 119.892L64.185 116.421L66.0233 116.544L65.4625 125.176L63.6242 125.063L63.8631 121.499L63.8527 121.489Z" fill="#39314C"/>
<path d="M76.5852 125.527L75.287 125.702L74.8819 124.208L68.8269 125.012V126.557L67.5391 126.732L67.1133 123.621L68.1103 123.487C68.1623 123.384 68.235 123.178 68.3388 122.859C68.4323 122.54 68.5154 122.086 68.5777 121.499C68.64 120.922 68.6712 120.201 68.6608 119.346C68.6608 118.491 68.5569 117.492 68.3804 116.338L74.0095 115.586L74.9546 122.57L76.1386 122.416L76.5644 125.527H76.5852ZM73.1475 122.818L72.4205 117.43L70.3225 117.708C70.4679 119.12 70.4991 120.284 70.416 121.211C70.3329 122.138 70.2187 122.807 70.0629 123.23L73.1475 122.818Z" fill="#39314C"/>
<path d="M79.1597 114.031L80.7902 113.413L82.1612 116.977L82.5558 116.647L83.0855 112.547L85.0381 111.806L84.3318 116.132L83.8852 116.76L84.8096 116.977L88.5381 119.737L86.4505 120.531L83.0647 117.832L82.5662 118.017L83.906 121.499L82.2754 122.117L80.8837 118.501L80.4994 118.831L79.7724 123.065L77.7472 123.827L78.7131 119.428L79.222 118.707L78.3911 118.522L74.8184 115.679L76.8332 114.917L79.9801 117.657L80.4787 117.471L79.1597 114.041V114.031Z" fill="#39314C"/>
<path d="M92.0814 111.631L91.5517 110.662L91.4998 110.693L91.5933 111.971L91.2921 117.894L90.1497 118.646L85.2891 111.456L86.8262 110.436L89.4434 114.309L89.9835 115.329L90.0458 115.288L89.9627 113.959L90.2847 108.128L91.4375 107.366L96.2981 114.556L94.761 115.576L92.0814 111.61V111.631Z" fill="#39314C"/>
<path d="M97.3674 108.664L97.0247 109.004L99.6211 111.6L98.3125 112.887L92.1641 106.748L93.4727 105.46L96.173 108.159L96.3496 107.727L95.6329 103.328L97.1285 101.855L97.7413 106.356L97.5647 107.191L98.4475 107.016L103.578 107.685L101.958 109.282L97.357 108.654L97.3674 108.664Z" fill="#39314C"/>
<path d="M97.6061 101.196L100.867 96.6533L102.186 97.5907L99.9948 100.64L101.542 101.732L103.526 98.9607L104.845 99.8981L102.851 102.669L104.45 103.802L106.673 100.702L107.992 101.639L104.7 106.233L97.5957 101.217L97.6061 101.196Z" fill="#39314C"/>
</g>
<defs>
<clipPath id="clip0_56_12225">
<rect width="130" height="127" fill="white"/>
</clipPath>
</defs>
</svg>
