<svg width="8" height="15" viewBox="0 0 8 15" xmlns="http://www.w3.org/2000/svg">
<path d="M0.802024 1.79737L5.9894 7.068C6.10317 7.183 6.16698 7.33823 6.16698 7.5C6.16698 7.66176 6.10317 7.817 5.9894 7.932L0.803149 13.2026C0.689439 13.3183 0.625722 13.4741 0.625722 13.6363C0.625722 13.7985 0.689438 13.9543 0.803149 14.07C0.858698 14.127 0.925091 14.1723 0.998414 14.2032C1.07174 14.2341 1.15051 14.25 1.23009 14.25C1.30966 14.25 1.38843 14.2341 1.46176 14.2032C1.53508 14.1723 1.60147 14.127 1.65702 14.07L6.84327 8.8005C7.18407 8.45341 7.375 7.98642 7.375 7.5C7.375 7.01357 7.18407 6.54659 6.84327 6.1995L1.65702 0.929998C1.60146 0.872846 1.53499 0.827416 1.46157 0.796394C1.38814 0.765373 1.30924 0.749389 1.22952 0.749389C1.14981 0.749389 1.07091 0.765373 0.997481 0.796394C0.924053 0.827416 0.857591 0.872846 0.802024 0.929998C0.688314 1.04571 0.624598 1.20145 0.624598 1.36369C0.624598 1.52592 0.688314 1.68166 0.802024 1.79737Z"/>
</svg>
