<svg width="20" height="14" viewBox="0 0 20 14" xmlns="http://www.w3.org/2000/svg">
<path fill-rule="evenodd" clip-rule="evenodd" d="M19.7071 6.29289C20.0976 6.68342 20.0976 7.31658 19.7071 7.70711L13.7071 13.7071C13.3166 14.0976 12.6834 14.0976 12.2929 13.7071C11.9024 13.3166 11.9024 12.6834 12.2929 12.2929L16.5858 8L1 8C0.447715 8 -3.30121e-07 7.55228 -3.0598e-07 7C-2.81839e-07 6.44771 0.447715 6 1 6L16.5858 6L12.2929 1.70711C11.9024 1.31658 11.9024 0.683417 12.2929 0.292893C12.6834 -0.0976314 13.3166 -0.0976314 13.7071 0.292893L19.7071 6.29289Z"/>
</svg>
