<svg width="28" height="28" viewBox="0 0 28 28" xmlns="http://www.w3.org/2000/svg">
<path d="M8 23H10.25V20H13.25V17.75H10.25V14.75H8V17.75H5V20H8V23ZM15.5 21.875H23V19.625H15.5V21.875ZM15.5 18.125H23V15.875H15.5V18.125ZM17.15 12.425L19.25 10.325L21.35 12.425L22.925 10.85L20.825 8.675L22.925 6.575L21.35 5L19.25 7.1L17.15 5L15.575 6.575L17.675 8.675L15.575 10.85L17.15 12.425ZM5.375 9.8H12.875V7.55H5.375V9.8ZM3.5 27.5C2.675 27.5 1.9685 27.2065 1.3805 26.6195C0.792502 26.0325 0.499003 25.326 0.500003 24.5V3.5C0.500003 2.675 0.794003 1.969 1.382 1.382C1.97 0.795 2.676 0.501 3.5 0.5H24.5C25.325 0.5 26.0315 0.794 26.6195 1.382C27.2075 1.97 27.501 2.676 27.5 3.5V24.5C27.5 25.325 27.2065 26.0315 26.6195 26.6195C26.0325 27.2075 25.326 27.501 24.5 27.5H3.5Z"/>
</svg>
