<svg width="14" height="14" viewBox="0 0 14 14" xmlns="http://www.w3.org/2000/svg">
<path d="M6.99967 0.333496C6.12419 0.333496 5.25729 0.505935 4.44845 0.840966C3.63961 1.176 2.90469 1.66706 2.28563 2.28612C1.03539 3.53636 0.333008 5.23205 0.333008 7.00016C0.333008 8.76827 1.03539 10.464 2.28563 11.7142C2.90469 12.3333 3.63961 12.8243 4.44845 13.1594C5.25729 13.4944 6.12419 13.6668 6.99967 13.6668C8.76778 13.6668 10.4635 12.9645 11.7137 11.7142C12.964 10.464 13.6663 8.76827 13.6663 7.00016C13.6663 6.12468 13.4939 5.25778 13.1589 4.44894C12.8238 3.6401 12.3328 2.90517 11.7137 2.28612C11.0947 1.66706 10.3597 1.176 9.5509 0.840966C8.74206 0.505935 7.87515 0.333496 6.99967 0.333496ZM9.79967 9.80016L6.33301 7.66683V3.66683H7.33301V7.1335L10.333 8.9335L9.79967 9.80016Z"/>
</svg>
