<svg width="12" height="14" viewBox="0 0 12 14" xmlns="http://www.w3.org/2000/svg">
<path fill-rule="evenodd" clip-rule="evenodd" d="M6.00033 0.333496V3.70283C6.00033 3.9855 6.00032 4.26083 6.03099 4.4875C6.06499 4.74283 6.14899 5.03416 6.39099 5.27616C6.63299 5.51816 6.92433 5.60216 7.18033 5.63616C7.40699 5.66683 7.68166 5.66683 7.96432 5.66683H11.3337V9.66683C11.3337 11.5522 11.3337 12.4955 10.7477 13.0808C10.1623 13.6668 9.21899 13.6668 7.33366 13.6668H4.66699C2.78166 13.6668 1.83833 13.6668 1.25299 13.0808C0.666992 12.4955 0.666992 11.5522 0.666992 9.66683V4.3335C0.666992 2.44816 0.666992 1.50483 1.25299 0.919496C1.83833 0.333496 2.78166 0.333496 4.66699 0.333496H6.00033ZM7.33366 0.33683V3.66683C7.33366 4.00016 7.33499 4.18283 7.35232 4.3095V4.31416L7.35766 4.31483C7.48433 4.33216 7.66699 4.3335 8.00033 4.3335H11.3303C11.3237 4.05883 11.3017 3.8775 11.2323 3.70883C11.131 3.46416 10.9383 3.27083 10.5523 2.8855L8.78166 1.11483C8.39633 0.729496 8.20366 0.536163 7.95833 0.434829C7.78966 0.364829 7.60832 0.343496 7.33366 0.33683ZM3.33366 7.66683C3.33366 7.49002 3.4039 7.32045 3.52892 7.19542C3.65395 7.0704 3.82351 7.00016 4.00033 7.00016H8.00033C8.17714 7.00016 8.34671 7.0704 8.47173 7.19542C8.59675 7.32045 8.66699 7.49002 8.66699 7.66683C8.66699 7.84364 8.59675 8.01321 8.47173 8.13823C8.34671 8.26326 8.17714 8.3335 8.00033 8.3335H4.00033C3.82351 8.3335 3.65395 8.26326 3.52892 8.13823C3.4039 8.01321 3.33366 7.84364 3.33366 7.66683ZM4.00033 9.66683C3.82351 9.66683 3.65395 9.73707 3.52892 9.86209C3.4039 9.98711 3.33366 10.1567 3.33366 10.3335C3.33366 10.5103 3.4039 10.6799 3.52892 10.8049C3.65395 10.9299 3.82351 11.0002 4.00033 11.0002H6.66699C6.8438 11.0002 7.01337 10.9299 7.1384 10.8049C7.26342 10.6799 7.33366 10.5103 7.33366 10.3335C7.33366 10.1567 7.26342 9.98711 7.1384 9.86209C7.01337 9.73707 6.8438 9.66683 6.66699 9.66683H4.00033Z"/>
</svg>
