<svg width="24" height="23" viewBox="0 0 24 23" xmlns="http://www.w3.org/2000/svg">
<path d="M12 2.07831C15.0482 2.07831 15.4639 2.07831 16.7108 2.07831C17.8193 2.07831 18.3735 2.35542 18.7892 2.49398C19.3434 2.77108 19.759 2.90964 20.1747 3.3253C20.5904 3.74096 20.8675 4.15663 21.006 4.71084C21.1446 5.12651 21.2831 5.68072 21.4217 6.78916C21.4217 8.03615 21.4217 8.31325 21.4217 11.5C21.4217 14.6867 21.4217 14.9639 21.4217 16.2108C21.4217 17.3193 21.1446 17.8735 21.006 18.2892C20.7289 18.8434 20.5904 19.259 20.1747 19.6747C19.759 20.0904 19.3434 20.3675 18.7892 20.506C18.3735 20.6446 17.8193 20.7831 16.7108 20.9217C15.4639 20.9217 15.1867 20.9217 12 20.9217C8.81325 20.9217 8.53615 20.9217 7.28916 20.9217C6.18072 20.9217 5.62651 20.6446 5.21084 20.506C4.65663 20.2289 4.24096 20.0904 3.8253 19.6747C3.40964 19.259 3.13253 18.8434 2.99398 18.2892C2.85542 17.8735 2.71687 17.3193 2.57831 16.2108C2.57831 14.9639 2.57831 14.6867 2.57831 11.5C2.57831 8.31325 2.57831 8.03615 2.57831 6.78916C2.57831 5.68072 2.85542 5.12651 2.99398 4.71084C3.27108 4.15663 3.40964 3.74096 3.8253 3.3253C4.24096 2.90964 4.65663 2.63253 5.21084 2.49398C5.62651 2.35542 6.18072 2.21687 7.28916 2.07831C8.53615 2.07831 8.95181 2.07831 12 2.07831ZM12 0C8.81325 0 8.53615 0 7.28916 0C6.04217 0 5.21084 0.277109 4.51807 0.554218C3.8253 0.831326 3.13253 1.24699 2.43976 1.93976C1.74699 2.63253 1.46988 3.18675 1.05422 4.01807C0.777109 4.71084 0.638554 5.54217 0.5 6.78916C0.5 8.03615 0.5 8.45181 0.5 11.5C0.5 14.6867 0.5 14.9639 0.5 16.2108C0.5 17.4578 0.777109 18.2892 1.05422 18.9819C1.33133 19.6747 1.74699 20.3675 2.43976 21.0602C3.13253 21.753 3.68675 22.0301 4.51807 22.4458C5.21084 22.7229 6.04217 22.8614 7.28916 23C8.53615 23 8.95181 23 12 23C15.0482 23 15.4639 23 16.7108 23C17.9578 23 18.7892 22.7229 19.4819 22.4458C20.1747 22.1687 20.8675 21.753 21.5602 21.0602C22.253 20.3675 22.5301 19.8133 22.9458 18.9819C23.2229 18.2892 23.3614 17.4578 23.5 16.2108C23.5 14.9639 23.5 14.5482 23.5 11.5C23.5 8.45181 23.5 8.03615 23.5 6.78916C23.5 5.54217 23.2229 4.71084 22.9458 4.01807C22.6687 3.3253 22.253 2.63253 21.5602 1.93976C20.8675 1.24699 20.3133 0.96988 19.4819 0.554218C18.7892 0.277109 17.9578 0.138554 16.7108 0C15.4639 0 15.1867 0 12 0Z"/>
<path d="M12 5.54217C8.6747 5.54217 6.04217 8.1747 6.04217 11.5C6.04217 14.8253 8.6747 17.4578 12 17.4578C15.3253 17.4578 17.9578 14.8253 17.9578 11.5C17.9578 8.1747 15.3253 5.54217 12 5.54217ZM12 15.3795C9.92169 15.3795 8.12048 13.7169 8.12048 11.5C8.12048 9.42169 9.78313 7.62048 12 7.62048C14.0783 7.62048 15.8795 9.28313 15.8795 11.5C15.8795 13.5783 14.0783 15.3795 12 15.3795Z"/>
<path d="M18.0964 6.78916C18.8616 6.78916 19.4819 6.16883 19.4819 5.40362C19.4819 4.6384 18.8616 4.01807 18.0964 4.01807C17.3312 4.01807 16.7108 4.6384 16.7108 5.40362C16.7108 6.16883 17.3312 6.78916 18.0964 6.78916Z"/>
</svg>
