<svg width="47" height="20" viewBox="0 0 47 20" xmlns="http://www.w3.org/2000/svg">
<path d="M14.8486 1.67976L12.272 18.258L12.501 19.6038H9.15153L9.38056 18.258L7.71057 7.81668L6.0883 18.258L6.31732 19.6038H2.96781L3.19683 18.258L0.563024 1.70839L0 0.00952148H3.04415L2.86284 0.830323L4.61871 12.7987L6.37458 0.830323L6.16464 0.00952148H9.23742L9.02748 0.830323L10.8024 12.7987L12.5583 0.830323L12.3484 0.00952148H15.4211L14.8486 1.67976Z"/>
<path d="M24.9338 19.6038H17.5859L17.8913 18.3916V1.193L17.5859 0.00952148H24.9338L25.3728 2.72007L24.1132 2.43375H20.611L20.3247 2.72007V8.29389L20.611 8.58021H21.5939L22.8058 8.2748V11.348L21.5939 11.0426H20.611L20.3247 11.3289V16.8741L20.611 17.1604H24.1132L25.3728 16.8741L24.9338 19.6038Z"/>
<path d="M28.0007 1.19302L27.6953 0.00952148H34.1176L35.3582 1.22165V8.57076L34.0985 9.78289L35.3582 11.0237V18.4014L34.1176 19.6135H27.6953L28.0007 18.4014V1.19302ZM30.4532 2.71056V8.28444L30.7395 8.57076H32.6194L32.9057 8.28444V2.71056L32.6194 2.42423H30.7395L30.4532 2.71056ZM32.9057 11.3004L32.6194 11.0141H30.7395L30.4532 11.3004V16.8457L30.7395 17.132H32.6194L32.9057 16.8457V11.3004Z"/>
<path d="M46.2808 14.7074L45.9754 15.8909V19.6035H38.6274V9.80176L39.8394 8.58966H43.2461L43.5324 8.30334V2.75824L43.2461 2.47191H41.3376L41.0513 2.75824V3.71264L41.3853 4.89611H38.3125L38.6179 3.71264V1.24073L39.8298 0H44.7253L45.9659 1.24073V9.80176L44.7253 11.0425H41.3185L41.0322 11.3288V16.8453L41.3185 17.1316H43.2271L43.5133 16.8453V15.8909L43.208 14.7074H46.2808Z"/>
</svg>
