<svg width="26" height="17" viewBox="0 0 26 17" xmlns="http://www.w3.org/2000/svg">
<path d="M0.503571 3.32505C0.54889 2.42999 0.991636 1.58461 1.73951 0.965142C2.48738 0.345677 3.48266 -6.25422e-05 4.51786 8.48594e-09H21.4821C22.5173 -6.25422e-05 23.5126 0.345677 24.2605 0.965142C25.0084 1.58461 25.4511 2.42999 25.4964 3.32505L24.1786 3.95868L13 9.16764L1.82143 3.95868L0.503571 3.32505ZM0.5 5.09073V13.5227C0.5 14.445 0.923309 15.3294 1.6768 15.9815C2.4303 16.6336 3.45226 17 4.51786 17H21.4821C22.5477 17 23.5697 16.6336 24.3232 15.9815C25.0767 15.3294 25.5 14.445 25.5 13.5227V5.09073L25.0304 5.31714L13.4232 10.7262C13.2931 10.7868 13.1477 10.8185 13 10.8185C12.8523 10.8185 12.7069 10.7868 12.5768 10.7262L0.958929 5.31173L0.5 5.09073Z"/>
</svg>
