<svg width="12" height="15" viewBox="0 0 12 15" xmlns="http://www.w3.org/2000/svg">
<path fill-rule="evenodd" clip-rule="evenodd" d="M6.23691 14.848L6.23855 14.8472L6.24266 14.8443L6.25496 14.8348L6.30338 14.7997L6.30415 14.7992C6.34516 14.7687 6.40478 14.7243 6.47979 14.6661C6.63077 14.5498 6.84493 14.3787 7.10053 14.1588C7.77148 13.5824 8.39888 12.9565 8.97751 12.2865C10.3347 10.7086 11.7444 8.45685 11.7444 5.88176C11.7444 4.34346 11.1396 2.86703 10.0631 1.77827C9.53097 1.23941 8.8981 0.811652 8.2009 0.519621C7.50369 0.227589 6.75591 0.0770472 6.0006 0.0766602C5.24531 0.0769932 4.49755 0.22747 3.80035 0.51943C3.10314 0.81139 2.47026 1.23907 1.93812 1.77786C0.860517 2.86911 0.256114 4.34457 0.256837 5.88217C0.256837 8.45685 1.66652 10.7086 3.02369 12.2865C3.60232 12.9565 4.22971 13.5824 4.90067 14.1588C5.15667 14.3787 5.37042 14.5498 5.5214 14.6661C5.59546 14.7235 5.67027 14.7798 5.74582 14.8352L5.75895 14.8443L5.76264 14.8472L5.76428 14.848C5.90583 14.9482 6.09537 14.9482 6.23691 14.848ZM6.24959 7.91219C6.79364 7.91219 7.3154 7.69494 7.7001 7.30823C8.08481 6.92152 8.30093 6.39703 8.30093 5.85014C8.30093 5.30325 8.08481 4.77876 7.7001 4.39205C7.3154 4.00534 6.79364 3.78809 6.24959 3.78809C5.70554 3.78809 5.18377 4.00534 4.79907 4.39205C4.41437 4.77876 4.19824 5.30325 4.19824 5.85014C4.19824 6.39703 4.41437 6.92152 4.79907 7.30823C5.18377 7.69494 5.70554 7.91219 6.24959 7.91219Z"/>
</svg>
