<svg width="22" height="21" viewBox="0 0 22 21" xmlns="http://www.w3.org/2000/svg">
<path fill-rule="evenodd" clip-rule="evenodd" d="M17.6214 20.1305C18.6357 19.9861 20.6643 18.8309 21.099 17.6758C21.5337 16.5206 21.5337 15.5098 21.3888 15.0767C21.2439 14.9323 20.9541 14.7879 20.3745 14.4991C19.9398 14.2103 17.3316 12.9107 16.8969 12.7663C16.4622 12.6219 16.0276 12.4776 15.7378 13.0551C15.448 13.6327 14.4337 14.7879 14.1439 15.0767C13.8541 15.3655 13.5643 15.5099 12.9847 15.2211C12.8968 15.1773 12.7857 15.1269 12.6532 15.0668C11.9119 14.7306 10.5037 14.092 8.78264 12.6219C7.18875 11.178 6.17447 9.58965 5.88467 9.01207C5.59487 8.57888 5.88466 8.29009 6.17446 8.0013C6.23448 7.94149 6.31936 7.83213 6.4188 7.70401C6.55943 7.52282 6.72919 7.3041 6.89895 7.13493C7.18875 6.84614 7.33365 6.55735 7.47855 6.26856C7.62345 5.97977 7.62345 5.69098 7.47855 5.40219C7.383 5.30697 6.9094 4.14433 6.47324 3.07361C6.24798 2.52062 6.03271 1.99215 5.88467 1.64792C5.4961 0.744399 5.10753 0.763908 4.82245 0.77822C4.78861 0.779919 4.75623 0.781545 4.72548 0.781545H3.7112C3.2765 0.781545 2.69691 0.781544 2.26221 1.35912C2.2047 1.43554 2.13197 1.52206 2.04906 1.62071C1.50528 2.26764 0.523438 3.43574 0.523438 5.69098C0.523438 8.29009 2.40712 10.7448 2.69691 11.0336C2.70495 11.0456 2.71533 11.0613 2.72803 11.0805C3.17307 11.7529 6.46408 16.7251 11.5357 18.8309C12.3439 19.2336 13.0817 19.496 13.6999 19.7158C13.9684 19.8112 14.2143 19.8987 14.4337 19.9861C15.5929 20.2749 16.752 20.2749 17.6214 20.1305Z"/>
</svg>
