<svg width="26" height="17" viewBox="0 0 26 17" xmlns="http://www.w3.org/2000/svg">
<path d="M14.1295 16.5502C5.48546 16.5502 0.555043 10.5067 0.349609 0.450195H4.67953C4.82175 7.83138 8.01388 10.9579 10.5423 11.6025V0.450195H14.6194V6.81606C17.1162 6.54209 19.7394 3.64119 20.6244 0.450195H24.7015C24.368 2.10513 23.7033 3.6721 22.7489 5.05307C21.7944 6.43405 20.5709 7.59932 19.1547 8.47602C20.7355 9.27708 22.1317 10.4109 23.2513 11.8027C24.3708 13.1945 25.1883 14.8126 25.6496 16.5502H21.1617C20.7475 15.0409 19.9058 13.6899 18.742 12.6664C17.5782 11.643 16.1441 10.9926 14.6194 10.7967V16.5502H14.1295Z"/>
</svg>
