<svg width="25" height="25" viewBox="0 0 25 25" xmlns="http://www.w3.org/2000/svg">
<path d="M20.6158 3.52187C18.3439 1.25781 15.3146 0 12.1171 0C5.46951 0 0.084145 5.36667 0.084145 11.9911C0.084145 14.0875 0.673171 16.1839 1.68293 17.9448L0 24.15L6.39512 22.4729C8.1622 23.3953 10.0976 23.8984 12.1171 23.8984C18.7646 23.8984 24.15 18.5318 24.15 11.9073C24.0659 8.80469 22.8878 5.78594 20.6158 3.52187ZM17.9232 16.2677C17.6707 16.9385 16.4927 17.6094 15.9037 17.6932C15.3988 17.7771 14.7256 17.7771 14.0524 17.6094C13.6317 17.4417 13.0427 17.274 12.3695 16.9385C9.34024 15.6807 7.40488 12.662 7.23659 12.4104C7.06829 12.2427 5.97439 10.8172 5.97439 9.30781C5.97439 7.79844 6.73171 7.1276 6.98415 6.79219C7.23658 6.45677 7.57317 6.45677 7.82561 6.45677C7.9939 6.45677 8.24634 6.45677 8.41463 6.45677C8.58292 6.45677 8.83536 6.37292 9.0878 6.9599C9.34024 7.54688 9.92927 9.05625 10.0134 9.1401C10.0976 9.30781 10.0976 9.47552 10.0134 9.64323C9.92927 9.81094 9.84512 9.97865 9.67682 10.1464C9.50853 10.3141 9.34024 10.5656 9.25609 10.6495C9.0878 10.8172 8.91951 10.9849 9.0878 11.2365C9.2561 11.5719 9.84512 12.4943 10.7707 13.3328C11.9488 14.3391 12.8744 14.6745 13.211 14.8422C13.5476 15.0099 13.7158 14.926 13.8841 14.7583C14.0524 14.5906 14.6415 13.9198 14.8098 13.5844C14.978 13.249 15.2305 13.3328 15.4829 13.4167C15.7354 13.5005 17.25 14.2552 17.5024 14.4229C17.839 14.5906 18.0073 14.6745 18.0915 14.7583C18.1756 15.0099 18.1756 15.5969 17.9232 16.2677Z"/>
</svg>
