<svg width="245" height="245" viewBox="0 0 245 245" fill="none" xmlns="http://www.w3.org/2000/svg">
<g id="Vector">
<g id="Vector_2">
<mask id="path-1-outside-1_372_112" maskUnits="userSpaceOnUse" x="0" y="0" width="245" height="245" fill="black">
<rect fill="white" width="245" height="245"/>
<path d="M236.804 124.255L238.242 124.327L238.113 126.898C238.072 127.713 237.88 128.43 237.537 129.05C237.204 129.682 236.747 130.169 236.165 130.513C235.583 130.868 234.902 131.026 234.123 130.987C233.356 130.948 232.695 130.723 232.139 130.311C231.594 129.911 231.182 129.379 230.903 128.717C230.635 128.066 230.522 127.334 230.563 126.519L230.692 123.948L232.13 124.02L232.001 126.591C231.974 127.13 232.034 127.608 232.181 128.024C232.34 128.452 232.587 128.789 232.924 129.034C233.259 129.291 233.685 129.433 234.2 129.459C234.715 129.485 235.153 129.386 235.512 129.164C235.871 128.954 236.145 128.643 236.334 128.232C236.534 127.834 236.648 127.365 236.675 126.826L236.804 124.255ZM243.318 123.735L242.98 130.476L241.542 130.404L241.803 125.191L230.657 124.631L230.734 123.103L243.318 123.735Z"/>
<path d="M236.231 136.401C235.298 136.234 234.429 136.286 233.625 136.557C232.819 136.839 232.139 137.297 231.587 137.929C231.035 138.562 230.679 139.327 230.518 140.225C230.356 141.135 230.425 141.976 230.725 142.749C231.024 143.534 231.503 144.192 232.164 144.725C232.822 145.269 233.618 145.625 234.551 145.792C235.484 145.959 236.354 145.901 237.16 145.619C237.965 145.348 238.643 144.897 239.195 144.264C239.745 143.643 240.101 142.878 240.264 141.968C240.424 141.07 240.355 140.229 240.057 139.444C239.758 138.66 239.28 137.995 238.622 137.45C237.961 136.918 237.164 136.568 236.231 136.401ZM236.516 134.806C237.426 134.969 238.237 135.273 238.95 135.717C239.672 136.176 240.267 136.739 240.732 137.407C241.209 138.078 241.539 138.826 241.721 139.65C241.914 140.477 241.93 141.34 241.77 142.238C241.607 143.147 241.293 143.95 240.827 144.647C240.371 145.358 239.802 145.945 239.122 146.409C238.454 146.874 237.702 147.191 236.868 147.358C236.043 147.54 235.176 147.549 234.266 147.387C233.368 147.226 232.558 146.917 231.835 146.458C231.111 146.012 230.51 145.453 230.032 144.783C229.567 144.114 229.237 143.367 229.044 142.54C228.86 141.726 228.85 140.865 229.012 139.956C229.173 139.058 229.481 138.254 229.938 137.543C230.406 136.834 230.974 136.247 231.642 135.781C232.323 135.318 233.081 134.997 233.918 134.817C234.752 134.649 235.618 134.646 236.516 134.806Z"/>
<path d="M236.424 162.43L224.425 158.586L224.891 157.129L235.519 160.534L237.222 155.22L230.708 153.133C229.977 152.898 229.333 152.566 228.778 152.136C228.219 151.718 227.822 151.225 227.588 150.659C227.35 150.104 227.335 149.501 227.544 148.849L228.795 149.25C228.711 149.513 228.718 149.767 228.816 150.013C228.913 150.258 229.083 150.495 229.325 150.724C229.578 150.956 229.888 151.169 230.255 151.362C230.621 151.555 231.033 151.725 231.49 151.871L239.032 154.288L236.424 162.43Z"/>
<path d="M234.341 167.997L233.709 169.39L222.236 164.18L222.869 162.787L234.341 167.997ZM228.091 166.088L229.402 166.683L228.338 169.027C228.001 169.77 227.559 170.367 227.012 170.817C226.47 171.283 225.866 171.568 225.199 171.674C224.527 171.79 223.835 171.687 223.125 171.365C222.426 171.047 221.893 170.595 221.528 170.007C221.168 169.435 220.98 168.79 220.964 168.071C220.954 167.367 221.117 166.644 221.455 165.901L222.519 163.558L223.83 164.153L222.766 166.497C222.542 166.988 222.423 167.455 222.407 167.896C222.398 168.353 222.504 168.757 222.727 169.108C222.944 169.471 223.288 169.758 223.758 169.972C224.228 170.185 224.671 170.254 225.087 170.18C225.498 170.116 225.867 169.928 226.193 169.615C226.526 169.318 226.804 168.923 227.027 168.432L228.091 166.088Z"/>
<path d="M212.546 184.892L221.984 190.848L221.167 192.142L210.512 185.417L218.437 172.859L229.093 179.584L228.276 180.878L218.838 174.922L216.101 179.26L225.538 185.216L224.722 186.51L215.284 180.554L212.546 184.892Z"/>
<path d="M207.343 189.419L208.439 190.353L204.319 195.19L203.223 194.256L207.343 189.419ZM215.839 196.655L216.936 197.588L212.816 202.426L211.719 201.492L215.839 196.655ZM212.002 193.387L213.098 194.321L209.212 198.884L208.116 197.95L212.002 193.387ZM217.484 196.944L216.492 198.109L206.899 189.94L207.891 188.775L217.484 196.944Z"/>
<path d="M198.358 208.181C197.767 207.439 197.08 206.905 196.298 206.577C195.506 206.257 194.693 206.152 193.861 206.263C193.029 206.373 192.256 206.713 191.543 207.281C190.82 207.857 190.316 208.534 190.032 209.313C189.738 210.1 189.663 210.911 189.807 211.747C189.942 212.591 190.305 213.383 190.896 214.125C191.487 214.866 192.178 215.397 192.97 215.717C193.753 216.045 194.56 216.154 195.393 216.043C196.215 215.94 196.988 215.6 197.711 215.024C198.424 214.456 198.928 213.779 199.222 212.992C199.516 212.206 199.595 211.391 199.46 210.547C199.316 209.711 198.948 208.922 198.358 208.181ZM199.625 207.171C200.201 207.894 200.609 208.658 200.851 209.462C201.091 210.283 201.166 211.099 201.074 211.908C200.99 212.727 200.744 213.506 200.335 214.246C199.935 214.994 199.378 215.653 198.664 216.221C197.942 216.797 197.175 217.193 196.365 217.408C195.553 217.641 194.739 217.707 193.922 217.606C193.112 217.514 192.339 217.256 191.601 216.831C190.862 216.422 190.204 215.857 189.629 215.134C189.061 214.421 188.656 213.653 188.416 212.832C188.167 212.018 188.084 211.202 188.168 210.383C188.26 209.574 188.506 208.795 188.907 208.046C189.306 207.314 189.867 206.66 190.589 206.084C191.303 205.516 192.065 205.116 192.877 204.883C193.697 204.66 194.511 204.594 195.321 204.686C196.137 204.787 196.919 205.046 197.666 205.464C198.404 205.889 199.057 206.458 199.625 207.171Z"/>
<path d="M178.829 221.882L179.487 223.163L171.801 227.11L171.143 225.829L178.829 221.882ZM175.017 231.125L173.656 231.824L167.899 220.616L169.26 219.917L175.017 231.125ZM182.542 227.259L181.181 227.958L175.424 216.75L176.785 216.051L182.542 227.259Z"/>
<path d="M164.237 226.335L164.215 227.873L158.961 229.755L157.967 228.581L164.237 226.335ZM163.151 233.072L163.464 227.645L163.49 227.291L163.759 222.491L165.369 221.915L164.323 236.343L154.354 225.86L155.964 225.283L159.149 228.731L159.406 229.022L163.151 233.072Z"/>
<path d="M151.145 233.329C150.942 232.378 150.55 231.585 149.972 230.948C149.382 230.314 148.696 229.865 147.916 229.603C147.136 229.341 146.341 229.297 145.531 229.471C144.944 229.597 144.427 229.787 143.979 230.043C143.519 230.301 143.118 230.608 142.777 230.964C142.439 231.331 142.168 231.727 141.964 232.151L141.541 230.18C141.959 229.611 142.449 229.15 143.012 228.796C143.574 228.442 144.307 228.169 145.21 227.975C146.067 227.791 146.903 227.771 147.719 227.915C148.527 228.073 149.272 228.373 149.956 228.816C150.643 229.27 151.227 229.85 151.71 230.556C152.193 231.263 152.533 232.074 152.729 232.989C152.926 233.904 152.949 234.783 152.798 235.625C152.647 236.467 152.351 237.23 151.909 237.915C151.469 238.61 150.912 239.19 150.238 239.654C149.555 240.132 148.786 240.462 147.929 240.646C147.026 240.84 146.245 240.891 145.587 240.799C144.929 240.707 144.293 240.488 143.679 240.141L143.256 238.17C143.615 238.473 144.023 238.717 144.48 238.901C144.94 239.097 145.432 239.218 145.958 239.265C146.471 239.314 147.022 239.276 147.608 239.15C148.418 238.977 149.125 238.61 149.729 238.051C150.333 237.492 150.774 236.802 151.052 235.981C151.321 235.175 151.352 234.291 151.145 233.329Z"/>
<path d="M122.083 236.788L122.038 238.227L119.465 238.148C118.65 238.123 117.929 237.944 117.303 237.613C116.664 237.293 116.168 236.846 115.814 236.27C115.447 235.695 115.276 235.017 115.3 234.238C115.324 233.47 115.536 232.804 115.938 232.24C116.327 231.688 116.851 231.266 117.508 230.974C118.153 230.694 118.883 230.566 119.699 230.592L122.271 230.671L122.227 232.11L119.654 232.031C119.115 232.014 118.638 232.084 118.225 232.239C117.8 232.406 117.468 232.66 117.229 233C116.979 233.341 116.845 233.769 116.829 234.285C116.813 234.8 116.92 235.236 117.149 235.591C117.366 235.946 117.682 236.214 118.097 236.395C118.499 236.587 118.97 236.692 119.51 236.709L122.083 236.788ZM122.728 243.291L115.981 243.083L116.026 241.643L121.243 241.805L121.588 230.65L123.117 230.697L122.728 243.291Z"/>
<path d="M110.056 236.429C110.202 235.492 110.13 234.625 109.841 233.827C109.54 233.027 109.067 232.359 108.422 231.822C107.776 231.284 107.003 230.946 106.102 230.806C105.189 230.664 104.349 230.752 103.584 231.07C102.806 231.387 102.158 231.881 101.641 232.554C101.112 233.225 100.775 234.029 100.629 234.965C100.484 235.902 100.561 236.77 100.862 237.57C101.151 238.368 101.618 239.035 102.264 239.573C102.897 240.108 103.67 240.447 104.583 240.588C105.484 240.728 106.324 240.64 107.102 240.324C107.879 240.007 108.533 239.514 109.062 238.843C109.579 238.17 109.911 237.366 110.056 236.429ZM111.657 236.677C111.515 237.59 111.23 238.408 110.802 239.131C110.361 239.864 109.811 240.471 109.154 240.952C108.494 241.445 107.754 241.791 106.934 241.992C106.111 242.204 105.25 242.24 104.349 242.1C103.435 241.959 102.625 241.663 101.918 241.213C101.197 240.773 100.597 240.219 100.118 239.549C99.637 238.892 99.3032 238.148 99.1164 237.317C98.9159 236.497 98.8865 235.63 99.0283 234.717C99.1682 233.816 99.459 232.998 99.9007 232.266C100.33 231.531 100.875 230.917 101.534 230.424C102.192 229.944 102.932 229.597 103.754 229.385C104.563 229.182 105.424 229.152 106.337 229.294C107.238 229.434 108.049 229.724 108.77 230.163C109.489 230.615 110.089 231.17 110.57 231.827C111.049 232.497 111.388 233.247 111.587 234.08C111.773 234.91 111.797 235.776 111.657 236.677Z"/>
<path d="M83.8357 237.086L87.4526 225.017L88.9183 225.456L85.7147 236.146L91.0599 237.748L93.0233 231.196C93.2438 230.46 93.5637 229.811 93.9831 229.247C94.3909 228.681 94.8758 228.275 95.4378 228.03C95.9883 227.781 96.5911 227.755 97.2464 227.952L96.8692 229.21C96.6048 229.131 96.3508 229.143 96.1071 229.245C95.8635 229.347 95.6296 229.522 95.4056 229.768C95.1781 230.025 94.9713 230.339 94.7852 230.709C94.5991 231.079 94.4372 231.494 94.2994 231.954L92.0259 239.541L83.8357 237.086Z"/>
<path d="M78.4581 235.171L77.0512 234.57L82.0028 222.984L83.4097 223.585L78.4581 235.171ZM80.2267 228.88L79.6608 230.204L77.2939 229.193C76.5436 228.872 75.9373 228.443 75.4751 227.907C74.9971 227.376 74.6979 226.778 74.5775 226.114C74.446 225.444 74.5335 224.751 74.8401 224.033C75.1419 223.327 75.5825 222.785 76.162 222.406C76.7257 222.033 77.3668 221.831 78.0853 221.799C78.788 221.773 79.5145 221.92 80.2649 222.241L82.6318 223.253L82.0659 224.577L79.699 223.565C79.2024 223.353 78.7336 223.244 78.2924 223.238C77.8354 223.239 77.4337 223.354 77.0873 223.584C76.7299 223.81 76.4498 224.16 76.247 224.635C76.0442 225.109 75.9848 225.554 76.0687 225.968C76.1416 226.377 76.3382 226.742 76.6583 227.062C76.9628 227.387 77.3633 227.656 77.8598 227.869L80.2267 228.88Z"/>
<path d="M61.0136 213.641L55.2316 223.187L53.923 222.394L60.451 211.617L73.1525 219.311L66.6245 230.088L65.3159 229.295L71.0978 219.75L66.71 217.092L60.9281 226.637L59.6194 225.844L65.4014 216.299L61.0136 213.641Z"/>
<path d="M56.4345 208.552L55.521 209.665L50.6093 205.634L51.5228 204.521L56.4345 208.552ZM49.3546 217.179L48.4411 218.292L43.5294 214.261L44.4429 213.148L49.3546 217.179ZM52.552 213.283L51.6384 214.396L47.005 210.593L47.9186 209.48L52.552 213.283ZM49.095 218.828L47.9123 217.858L55.9058 208.118L57.0885 209.088L49.095 218.828Z"/>
<path d="M37.5437 199.957C38.2743 199.353 38.7963 198.657 39.1097 197.868C39.4155 197.07 39.5054 196.256 39.3796 195.426C39.2537 194.596 38.9002 193.83 38.3191 193.127C37.7303 192.415 37.0439 191.923 36.2598 191.653C35.4681 191.373 34.6555 191.313 33.8222 191.473C32.9811 191.623 32.1953 192.001 31.4647 192.605C30.7341 193.209 30.2159 193.91 29.9101 194.708C29.5967 195.496 29.5029 196.305 29.6288 197.136C29.747 197.956 30.1005 198.723 30.6893 199.435C31.2704 200.138 31.9568 200.629 32.7486 200.909C33.5403 201.188 34.3567 201.253 35.1977 201.103C36.0311 200.943 36.8131 200.561 37.5437 199.957ZM38.576 201.206C37.8638 201.794 37.1078 202.217 36.3079 202.474C35.491 202.729 34.6771 202.818 33.8662 202.741C33.046 202.672 32.2625 202.44 31.5158 202.045C30.7598 201.658 30.0913 201.113 29.5101 200.41C28.9213 199.698 28.5117 198.939 28.2813 198.133C28.034 197.325 27.9534 196.512 28.0395 195.694C28.1164 194.883 28.3606 194.105 28.7722 193.359C29.1669 192.613 29.7203 191.945 30.4324 191.356C31.1353 190.775 31.8951 190.357 32.712 190.102C33.5212 189.838 34.3359 189.74 35.1561 189.81C35.967 189.886 36.7505 190.118 37.5065 190.505C38.2456 190.891 38.9095 191.44 39.4983 192.152C40.0794 192.855 40.4936 193.61 40.741 194.417C40.979 195.233 41.0596 196.046 40.9827 196.857C40.8966 197.675 40.6516 198.462 40.2476 199.216C39.8361 199.961 39.2788 200.625 38.576 201.206Z"/>
<path d="M23.5247 180.783L22.2562 181.465L18.167 173.854L19.4355 173.172L23.5247 180.783ZM14.2128 177.143L13.4887 175.795L24.5881 169.832L25.3123 171.179L14.2128 177.143ZM18.2168 184.595L17.4927 183.247L28.5921 177.284L29.3162 178.632L18.2168 184.595Z"/>
<path d="M18.8161 166.378L17.2782 166.384L15.2983 161.167L16.453 160.151L18.8161 166.378ZM12.0601 165.418L17.4922 165.629L17.8462 165.648L22.6503 165.827L23.257 167.426L8.81216 166.651L19.1057 156.487L19.7124 158.086L16.3249 161.335L16.0395 161.598L12.0601 165.418Z"/>
<path d="M11.5437 153.412C12.49 153.19 13.276 152.783 13.9016 152.193C14.5245 151.591 14.9596 150.897 15.2068 150.112C15.454 149.326 15.483 148.531 15.2939 147.725C15.1569 147.141 14.9562 146.627 14.692 146.183C14.425 145.728 14.1105 145.334 13.7486 145C13.3751 144.668 12.9743 144.405 12.5464 144.209L14.5091 143.749C15.0853 144.156 15.5556 144.637 15.9201 145.193C16.2846 145.748 16.5724 146.476 16.7835 147.375C16.9835 148.228 17.0194 149.064 16.8911 149.883C16.7483 150.693 16.4623 151.444 16.0331 152.136C15.5922 152.832 15.0232 153.427 14.3262 153.924C13.6291 154.42 12.8249 154.775 11.9137 154.989C11.0024 155.203 10.1243 155.242 9.27919 155.108C8.43412 154.973 7.66542 154.691 6.97308 154.262C6.26907 153.836 5.67885 153.29 5.20242 152.625C4.71157 151.951 4.36611 151.188 4.16603 150.335C3.95498 149.436 3.88919 148.656 3.96864 147.997C4.04809 147.337 4.25533 146.697 4.59036 146.076L6.55307 145.615C6.25669 145.981 6.02073 146.394 5.84522 146.854C5.65802 147.317 5.54604 147.811 5.50928 148.338C5.46977 148.852 5.51854 149.402 5.65559 149.986C5.8447 150.792 6.22456 151.492 6.79517 152.085C7.36578 152.678 8.06395 153.106 8.8897 153.369C9.70102 153.622 10.5857 153.636 11.5437 153.412Z"/>
<path d="M7.48936 124.476L6.04946 124.459L6.07927 121.886C6.08872 121.07 6.25311 120.345 6.57246 119.713C6.87994 119.069 7.31782 118.564 7.88609 118.198C8.4545 117.821 9.12867 117.637 9.90862 117.646C10.6766 117.654 11.3463 117.854 11.9178 118.245C12.4775 118.623 12.9095 119.138 13.214 119.79C13.5066 120.429 13.6482 121.157 13.6388 121.973L13.609 124.547L12.169 124.53L12.1989 121.956C12.2051 121.416 12.1266 120.941 11.9633 120.532C11.7882 120.11 11.528 119.782 11.1826 119.55C10.8375 119.306 10.4069 119.181 9.8909 119.175C9.37494 119.17 8.94158 119.284 8.59082 119.52C8.24021 119.744 7.97847 120.065 7.80562 120.483C7.62091 120.889 7.52542 121.362 7.51917 121.902L7.48936 124.476ZM1 125.247L1.07817 118.497L2.51807 118.514L2.45762 123.734L13.6169 123.863L13.5992 125.393L1 125.247Z"/>
<path d="M7.55688 112.697C8.49627 112.824 9.36202 112.736 10.1541 112.431C10.9478 112.115 11.6071 111.63 12.132 110.974C12.6568 110.319 12.9806 109.539 13.1032 108.635C13.2274 107.72 13.123 106.882 12.7901 106.123C12.4589 105.351 11.952 104.713 11.2696 104.209C10.5888 103.693 9.77874 103.371 8.83934 103.243C7.89995 103.116 7.0334 103.21 6.23969 103.526C5.4476 103.831 4.78911 104.311 4.26425 104.966C3.74099 105.609 3.41726 106.389 3.29304 107.305C3.17044 108.208 3.27479 109.046 3.60607 109.817C3.93736 110.589 4.4434 111.233 5.12419 111.749C5.80659 112.253 6.61748 112.569 7.55688 112.697ZM7.3391 114.302C6.42349 114.178 5.60019 113.909 4.86922 113.495C4.12796 113.067 3.51066 112.529 3.01732 111.881C2.51209 111.231 2.15137 110.498 1.93517 109.682C1.70708 108.864 1.65433 108.003 1.77693 107.099C1.90114 106.183 2.18135 105.368 2.61754 104.652C3.04345 103.922 3.58646 103.312 4.24655 102.82C4.89476 102.327 5.63224 101.979 6.45899 101.776C7.27546 101.56 8.14151 101.514 9.05712 101.638C9.96084 101.761 10.7833 102.036 11.5246 102.463C12.2675 102.879 12.8915 103.412 13.3967 104.061C13.8901 104.71 14.2508 105.443 14.4789 106.261C14.6967 107.065 14.7435 107.926 14.6193 108.841C14.4967 109.745 14.2224 110.561 13.7965 111.291C13.3587 112.019 12.8157 112.629 12.1675 113.122C11.5074 113.614 10.7632 113.967 9.93481 114.182C9.10806 114.385 8.24282 114.425 7.3391 114.302Z"/>
<path d="M6.39316 86.2596L18.5292 89.6474L18.1178 91.121L7.36876 88.1204L5.86846 93.4949L12.4566 95.334C13.1963 95.5405 13.8517 95.8481 14.4229 96.2567C14.9973 96.6537 15.4123 97.1309 15.6679 97.6881C15.9267 98.2338 15.9641 98.8361 15.7802 99.4949L14.5146 99.1416C14.5888 98.8757 14.5725 98.622 14.4655 98.3803C14.3585 98.1387 14.1799 97.9082 13.9297 97.6888C13.6679 97.4662 13.3502 97.2654 12.9766 97.0864C12.603 96.9073 12.185 96.7533 11.7227 96.6242L4.09431 94.4947L6.39316 86.2596Z"/>
<path d="M8.11815 80.9707L8.69303 79.5528L20.3698 84.2871L19.7949 85.705L8.11815 80.9707ZM14.4412 82.6214L13.1067 82.0804L14.0739 79.695C14.3805 78.9388 14.7978 78.3246 15.3259 77.8524C15.8474 77.3646 16.4394 77.0543 17.1019 76.9215C17.7688 76.7775 18.4637 76.8521 19.1866 77.1452C19.8983 77.4338 20.4489 77.8642 20.8384 78.4365C21.2213 78.9931 21.4356 79.6303 21.4813 80.3481C21.5203 81.0502 21.3865 81.7794 21.0799 82.5356L20.1128 84.921L18.7783 84.3799L19.7454 81.9945C19.9483 81.4941 20.0486 81.0232 20.0462 80.582C20.0372 80.1252 19.9143 79.7257 19.6775 79.3837C19.4451 79.0305 19.0899 78.757 18.6117 78.5631C18.1335 78.3692 17.6881 78.3181 17.2754 78.4097C16.8672 78.4903 16.5064 78.6936 16.1929 79.0197C15.8728 79.3302 15.6113 79.7356 15.4084 80.236L14.4412 82.6214Z"/>
<path d="M29.3594 62.9301L19.7092 57.3248L20.4776 56.0018L31.373 62.3304L23.9143 75.1713L13.019 68.8428L13.7874 67.5197L23.4376 73.1251L26.0142 68.6891L16.3641 63.0838L17.1325 61.7608L26.7827 67.3661L29.3594 62.9301Z"/>
<path d="M34.2925 58.2804L33.1629 57.3873L37.1038 52.4031L38.2334 53.2962L34.2925 58.2804ZM25.5383 51.3588L24.4087 50.4657L28.3496 45.4814L29.4791 46.3745L25.5383 51.3588ZM29.4918 54.4847L28.3622 53.5916L32.0798 48.8897L33.2094 49.7828L29.4918 54.4847ZM23.884 51.1293L24.8329 49.9291L34.7167 57.7439L33.7678 58.9441L23.884 51.1293Z"/>
<path d="M42.2663 39.4137C42.8862 40.1309 43.5937 40.6376 44.3889 40.9337C45.1931 41.222 46.0089 41.2942 46.8361 41.1502C47.6633 41.0063 48.422 40.6361 49.112 40.0398C49.8111 39.4356 50.2872 38.7386 50.5404 37.9488C50.8027 37.1512 50.8449 36.3375 50.6671 35.5078C50.4984 34.6703 50.1041 33.8929 49.4842 33.1756C48.8643 32.4584 48.1523 31.9556 47.348 31.6673C46.5528 31.3712 45.7416 31.2951 44.9144 31.4391C44.0963 31.5752 43.3376 31.9453 42.6385 32.5495C41.9485 33.1459 41.4724 33.8428 41.2101 34.6405C40.9478 35.4381 40.9011 36.2557 41.0698 37.0933C41.2476 37.923 41.6464 38.6964 42.2663 39.4137ZM41.0406 40.473C40.4364 39.7739 39.9973 39.0272 39.7234 38.2331C39.4506 37.422 39.3438 36.6103 39.403 35.7978C39.4543 34.9763 39.6691 34.188 40.0474 33.4328C40.4179 32.6686 40.9481 31.9883 41.6381 31.3919C42.3372 30.7877 43.0871 30.3617 43.8879 30.1137C44.6899 29.8488 45.501 29.7505 46.3213 29.8187C47.1338 29.8779 47.9169 30.1051 48.6709 30.5003C49.426 30.8786 50.1057 31.4172 50.7099 32.1163C51.3062 32.8064 51.7408 33.5569 52.0135 34.368C52.2953 35.1712 52.4106 35.9836 52.3593 36.8051C52.3001 37.6175 52.0853 38.4059 51.7149 39.1701C51.3457 39.9174 50.8115 40.5932 50.1124 41.1974C49.4224 41.7937 48.6764 42.2244 47.8744 42.4892C47.0645 42.7451 46.2534 42.8434 45.441 42.7842C44.6207 42.716 43.829 42.4882 43.066 42.1008C42.3121 41.7056 41.637 41.163 41.0406 40.473Z"/>
<path d="M61.4773 24.702L60.7724 23.4462L68.3067 19.2173L69.0116 20.473L61.4773 24.702ZM64.9451 15.3245L66.2793 14.5756L72.4466 25.5631L71.1124 26.312L64.9451 15.3245ZM57.5678 19.4653L58.902 18.7165L65.0693 29.704L63.7351 30.4528L57.5678 19.4653Z"/>
<path d="M75.6531 19.7538L75.6182 18.2162L80.7972 16.139L81.8344 17.2744L75.6531 19.7538ZM76.4857 12.981L76.3772 18.4161L76.3642 18.7704L76.2751 23.577L74.688 24.2136L75.1924 9.75672L85.5471 19.858L83.96 20.4946L80.6478 17.1686L80.3801 16.8881L76.4857 12.981Z"/>
<path d="M88.5472 12.1782C88.7872 13.1201 89.2083 13.8982 89.8106 14.5125C90.4245 15.1239 91.1264 15.5457 91.9162 15.7779C92.7059 16.0101 93.502 16.024 94.3044 15.8196C94.8858 15.6715 95.3956 15.4611 95.8339 15.1885C96.2838 14.9129 96.6724 14.591 96.9996 14.2228C97.3239 13.843 97.5796 13.4373 97.7669 13.0057L98.2646 14.9593C97.8685 15.5432 97.3962 16.0226 96.8478 16.3976C96.2994 16.7726 95.5775 17.0741 94.6821 17.3023C93.8332 17.5185 92.9981 17.5703 92.1769 17.4575C91.3643 17.3302 90.6078 17.0585 89.9074 16.6426C89.2041 16.215 88.5977 15.6574 88.0882 14.9699C87.5787 14.2824 87.2084 13.4852 86.9774 12.5781C86.7463 11.6711 86.69 10.7938 86.8084 9.94637C86.9269 9.0989 87.1941 8.32498 87.61 7.62461C88.0231 6.91261 88.5574 6.31212 89.2129 5.82314C89.8772 5.31957 90.6337 4.95965 91.4826 4.74339C92.378 4.51528 93.1562 4.43467 93.8172 4.50157C94.4781 4.56846 95.1222 4.76349 95.7494 5.08666L96.2471 7.04026C95.8762 6.75087 95.459 6.52281 94.9955 6.35608C94.529 6.17771 94.0323 6.07516 93.5054 6.04841C92.9901 6.0187 92.4418 6.07791 91.8603 6.22604C91.058 6.43045 90.3656 6.82354 89.7832 7.40533C89.2008 7.98712 88.7863 8.6933 88.5397 9.52388C88.3018 10.3399 88.3043 11.2246 88.5472 12.1782Z"/>
<path d="M116.81 7.54794L116.794 6.10803L119.368 6.07822C120.184 6.06877 120.911 6.21636 121.551 6.52097C122.202 6.81345 122.717 7.23951 123.096 7.79917C123.486 8.35868 123.686 9.02841 123.695 9.80836C123.704 10.5763 123.52 11.2505 123.142 11.8309C122.777 12.3992 122.272 12.843 121.628 13.1625C120.995 13.4699 120.271 13.6283 119.455 13.6377L116.881 13.6675L116.865 12.2276L119.438 12.1978C119.978 12.1916 120.451 12.1021 120.857 11.9294C121.275 11.7445 121.596 11.4768 121.82 11.1262C122.056 10.7754 122.171 10.342 122.165 9.82608C122.159 9.31011 122.034 8.87953 121.79 8.53434C121.558 8.189 121.231 7.93477 120.809 7.77164C120.399 7.59638 119.924 7.51187 119.384 7.51813L116.81 7.54794ZM115.889 1.07817L122.639 1L122.656 2.4399L117.436 2.50035L117.565 13.6596L116.035 13.6773L115.889 1.07817Z"/>
<path d="M129.001 7.3273C128.892 8.26897 128.997 9.13285 129.316 9.91896C129.648 10.7064 130.146 11.3563 130.811 11.8685C131.477 12.3806 132.262 12.6894 133.168 12.7946C134.086 12.9012 134.922 12.7808 135.675 12.4333C136.44 12.0873 137.068 11.5683 137.559 10.8763C138.062 10.1857 138.368 9.36962 138.477 8.42795C138.587 7.48628 138.476 6.62171 138.145 5.83422C137.825 5.04811 137.333 4.39897 136.667 3.88679C136.014 3.37599 135.228 3.06729 134.31 2.96068C133.405 2.85546 132.569 2.97587 131.804 3.32192C131.039 3.66797 130.405 4.18628 129.902 4.87685C129.411 5.56881 129.111 6.38563 129.001 7.3273ZM127.392 7.14039C127.499 6.22256 127.752 5.39425 128.152 4.65546C128.565 3.90613 129.091 3.27861 129.729 2.77291C130.369 2.25529 131.096 1.88056 131.908 1.64871C132.721 1.40495 133.581 1.33568 134.487 1.4409C135.405 1.5475 136.226 1.81198 136.95 2.23435C137.687 2.64617 138.308 3.17735 138.812 3.82788C139.318 4.46649 139.68 5.19715 139.899 6.01986C140.131 6.83203 140.193 7.69703 140.087 8.61486C139.981 9.52077 139.722 10.3484 139.309 11.0977C138.908 11.8484 138.387 12.4826 137.747 13.0002C137.108 13.5059 136.382 13.8806 135.569 14.1244C134.769 14.3576 133.91 14.421 132.992 14.3144C132.086 14.2091 131.264 13.9506 130.527 13.5388C129.791 13.115 129.17 12.5839 128.664 11.9452C128.16 11.2947 127.792 10.5574 127.562 9.73332C127.343 8.91061 127.287 8.0463 127.392 7.14039Z"/>
<path d="M155.723 5.68561L152.566 17.8837L151.085 17.5004L153.881 6.69633L148.479 5.29825L146.765 11.9201C146.573 12.6636 146.277 13.3247 145.88 13.9035C145.494 14.4854 145.024 14.9093 144.472 15.1754C143.932 15.4446 143.33 15.4934 142.668 15.3221L142.997 14.05C143.264 14.1191 143.518 14.0979 143.757 13.9864C143.997 13.8749 144.224 13.6919 144.439 13.4376C144.656 13.1716 144.851 12.8502 145.023 12.4732C145.195 12.0963 145.341 11.6754 145.461 11.2108L147.445 3.54338L155.723 5.68561Z"/>
<path d="M161.065 7.30565L162.494 7.85388L157.979 19.6172L156.551 19.069L161.065 7.30565ZM159.533 13.6585L160.049 12.3141L162.452 13.2364C163.214 13.5288 163.836 13.9346 164.318 14.4538C164.816 14.9661 165.137 15.5521 165.282 16.212C165.438 16.8761 165.377 17.5723 165.097 18.3005C164.822 19.0175 164.402 19.5761 163.837 19.9762C163.288 20.3695 162.655 20.5957 161.938 20.6547C161.237 20.7069 160.505 20.5868 159.743 20.2944L157.34 19.3721L157.856 18.0277L160.259 18.9501C160.764 19.1436 161.236 19.235 161.677 19.2243C162.134 19.2068 162.531 19.0764 162.869 18.8332C163.217 18.5943 163.484 18.234 163.669 17.7523C163.854 17.2705 163.897 16.8242 163.797 16.4133C163.709 16.0067 163.499 15.6498 163.167 15.3424C162.851 15.0282 162.441 14.7743 161.936 14.5808L159.533 13.6585Z"/>
<path d="M179.636 28.2668L185.062 18.515L186.399 19.2589L180.273 30.2691L167.296 23.0484L173.423 12.0382L174.76 12.7822L169.334 22.534L173.816 25.0285L179.243 15.2766L180.58 16.0205L175.153 25.7724L179.636 28.2668Z"/>
<path d="M184.401 33.1376L185.273 31.992L190.329 35.8413L189.456 36.987L184.401 33.1376ZM191.162 24.2587L192.034 23.113L197.09 26.9624L196.217 28.108L191.162 24.2587ZM188.109 28.2685L188.981 27.1229L193.75 30.7541L192.877 31.8998L188.109 28.2685ZM191.361 22.6005L192.578 23.5274L184.945 33.552L183.728 32.6251L191.361 22.6005Z"/>
<path d="M203.44 40.8141C202.734 41.4469 202.24 42.1636 201.958 42.964C201.685 43.7734 201.627 44.5903 201.786 45.4147C201.945 46.2392 202.329 46.991 202.938 47.67C203.555 48.358 204.26 48.8214 205.055 49.0602C205.857 49.3079 206.671 49.3354 207.498 49.1425C208.332 48.9586 209.102 48.5502 209.808 47.9174C210.514 47.2846 211.003 46.5635 211.277 45.7541C211.559 44.9537 211.62 44.1413 211.461 43.3168C211.31 42.5012 210.926 41.7495 210.309 41.0615C209.701 40.3824 208.995 39.919 208.193 39.6713C207.391 39.4236 206.572 39.3917 205.738 39.5756C204.912 39.7685 204.145 40.1813 203.44 40.8141ZM202.358 39.6079C203.046 38.9911 203.785 38.5385 204.574 38.2501C205.38 37.9627 206.189 37.8412 207.003 37.8856C207.825 37.9219 208.617 38.1224 209.379 38.4869C210.15 38.8433 210.84 39.3611 211.449 40.0402C212.065 40.7282 212.505 41.4702 212.768 42.2663C213.047 43.0634 213.16 43.8726 213.107 44.694C213.062 45.5074 212.849 46.2946 212.468 47.0556C212.104 47.8175 211.577 48.5068 210.889 49.1236C210.21 49.7324 209.468 50.1805 208.662 50.468C207.864 50.7644 207.054 50.8944 206.231 50.858C205.418 50.8136 204.626 50.6132 203.855 50.2567C203.101 49.9011 202.416 49.3794 201.799 48.6914C201.19 48.0123 200.746 47.2743 200.467 46.4772C200.196 45.6721 200.083 44.8629 200.127 44.0495C200.181 43.2281 200.394 42.4325 200.767 41.6626C201.149 40.9016 201.679 40.2167 202.358 39.6079Z"/>
<path d="M218.472 59.7498L219.714 59.0219L224.081 66.477L222.839 67.2048L218.472 59.7498ZM227.911 63.0442L228.685 64.3644L217.813 70.7331L217.039 69.4129L227.911 63.0442ZM223.635 55.7445L224.409 57.0646L213.537 63.4333L212.763 62.1131L223.635 55.7445Z"/>
<path d="M223.686 73.8804L225.223 73.8168L227.396 78.956L226.281 80.0143L223.686 73.8804ZM230.473 74.5862L225.037 74.5794L224.683 74.5729L219.875 74.5738L219.209 72.9988L233.673 73.2329L223.767 83.7746L223.101 82.1997L226.364 78.8258L226.64 78.553L230.473 74.5862Z"/>
<path d="M231.466 86.5868C230.529 86.8446 229.759 87.2805 229.156 87.8943C228.557 88.5197 228.148 89.2295 227.931 90.0235C227.714 90.8175 227.715 91.6137 227.935 92.4121C228.094 92.9906 228.314 93.4963 228.595 93.9294C228.879 94.3739 229.208 94.7563 229.582 95.0765C229.968 95.3935 230.379 95.6415 230.814 95.8205L228.87 96.3552C228.279 95.9703 227.79 95.5072 227.405 94.966C227.02 94.4248 226.704 93.7088 226.459 92.8179C226.227 91.9732 226.159 91.1393 226.257 90.316C226.368 89.5012 226.626 88.7397 227.028 88.0316C227.442 87.3202 227.988 86.7034 228.666 86.1809C229.344 85.6584 230.134 85.2731 231.036 85.0249C231.939 84.7766 232.815 84.7037 233.664 84.806C234.514 84.9083 235.293 85.1608 236.001 85.5634C236.721 85.9629 237.331 86.4857 237.833 87.1318C238.349 87.7864 238.723 88.536 238.955 89.3806C239.2 90.2715 239.296 91.0481 239.241 91.7102C239.187 92.3723 239.004 93.02 238.693 93.6532L236.749 94.1879C237.031 93.8115 237.252 93.3901 237.41 92.9235C237.579 92.4537 237.672 91.9551 237.689 91.4278C237.709 90.9121 237.639 90.3649 237.48 89.7864C237.26 88.9881 236.854 88.3033 236.262 87.732C235.669 87.1608 234.955 86.7597 234.12 86.529C233.299 86.3066 232.415 86.3259 231.466 86.5868Z"/>
</mask>
<path d="M236.804 124.255L238.242 124.327L238.113 126.898C238.072 127.713 237.88 128.43 237.537 129.05C237.204 129.682 236.747 130.169 236.165 130.513C235.583 130.868 234.902 131.026 234.123 130.987C233.356 130.948 232.695 130.723 232.139 130.311C231.594 129.911 231.182 129.379 230.903 128.717C230.635 128.066 230.522 127.334 230.563 126.519L230.692 123.948L232.13 124.02L232.001 126.591C231.974 127.13 232.034 127.608 232.181 128.024C232.34 128.452 232.587 128.789 232.924 129.034C233.259 129.291 233.685 129.433 234.2 129.459C234.715 129.485 235.153 129.386 235.512 129.164C235.871 128.954 236.145 128.643 236.334 128.232C236.534 127.834 236.648 127.365 236.675 126.826L236.804 124.255ZM243.318 123.735L242.98 130.476L241.542 130.404L241.803 125.191L230.657 124.631L230.734 123.103L243.318 123.735Z" fill="white"/>
<path d="M236.231 136.401C235.298 136.234 234.429 136.286 233.625 136.557C232.819 136.839 232.139 137.297 231.587 137.929C231.035 138.562 230.679 139.327 230.518 140.225C230.356 141.135 230.425 141.976 230.725 142.749C231.024 143.534 231.503 144.192 232.164 144.725C232.822 145.269 233.618 145.625 234.551 145.792C235.484 145.959 236.354 145.901 237.16 145.619C237.965 145.348 238.643 144.897 239.195 144.264C239.745 143.643 240.101 142.878 240.264 141.968C240.424 141.07 240.355 140.229 240.057 139.444C239.758 138.66 239.28 137.995 238.622 137.45C237.961 136.918 237.164 136.568 236.231 136.401ZM236.516 134.806C237.426 134.969 238.237 135.273 238.95 135.717C239.672 136.176 240.267 136.739 240.732 137.407C241.209 138.078 241.539 138.826 241.721 139.65C241.914 140.477 241.93 141.34 241.77 142.238C241.607 143.147 241.293 143.95 240.827 144.647C240.371 145.358 239.802 145.945 239.122 146.409C238.454 146.874 237.702 147.191 236.868 147.358C236.043 147.54 235.176 147.549 234.266 147.387C233.368 147.226 232.558 146.917 231.835 146.458C231.111 146.012 230.51 145.453 230.032 144.783C229.567 144.114 229.237 143.367 229.044 142.54C228.86 141.726 228.85 140.865 229.012 139.956C229.173 139.058 229.481 138.254 229.938 137.543C230.406 136.834 230.974 136.247 231.642 135.781C232.323 135.318 233.081 134.997 233.918 134.817C234.752 134.649 235.618 134.646 236.516 134.806Z" fill="white"/>
<path d="M236.424 162.43L224.425 158.586L224.891 157.129L235.519 160.534L237.222 155.22L230.708 153.133C229.977 152.898 229.333 152.566 228.778 152.136C228.219 151.718 227.822 151.225 227.588 150.659C227.35 150.104 227.335 149.501 227.544 148.849L228.795 149.25C228.711 149.513 228.718 149.767 228.816 150.013C228.913 150.258 229.083 150.495 229.325 150.724C229.578 150.956 229.888 151.169 230.255 151.362C230.621 151.555 231.033 151.725 231.49 151.871L239.032 154.288L236.424 162.43Z" fill="white"/>
<path d="M234.341 167.997L233.709 169.39L222.236 164.18L222.869 162.787L234.341 167.997ZM228.091 166.088L229.402 166.683L228.338 169.027C228.001 169.77 227.559 170.367 227.012 170.817C226.47 171.283 225.866 171.568 225.199 171.674C224.527 171.79 223.835 171.687 223.125 171.365C222.426 171.047 221.893 170.595 221.528 170.007C221.168 169.435 220.98 168.79 220.964 168.071C220.954 167.367 221.117 166.644 221.455 165.901L222.519 163.558L223.83 164.153L222.766 166.497C222.542 166.988 222.423 167.455 222.407 167.896C222.398 168.353 222.504 168.757 222.727 169.108C222.944 169.471 223.288 169.758 223.758 169.972C224.228 170.185 224.671 170.254 225.087 170.18C225.498 170.116 225.867 169.928 226.193 169.615C226.526 169.318 226.804 168.923 227.027 168.432L228.091 166.088Z" fill="white"/>
<path d="M212.546 184.892L221.984 190.848L221.167 192.142L210.512 185.417L218.437 172.859L229.093 179.584L228.276 180.878L218.838 174.922L216.101 179.26L225.538 185.216L224.722 186.51L215.284 180.554L212.546 184.892Z" fill="white"/>
<path d="M207.343 189.419L208.439 190.353L204.319 195.19L203.223 194.256L207.343 189.419ZM215.839 196.655L216.936 197.588L212.816 202.426L211.719 201.492L215.839 196.655ZM212.002 193.387L213.098 194.321L209.212 198.884L208.116 197.95L212.002 193.387ZM217.484 196.944L216.492 198.109L206.899 189.94L207.891 188.775L217.484 196.944Z" fill="white"/>
<path d="M198.358 208.181C197.767 207.439 197.08 206.905 196.298 206.577C195.506 206.257 194.693 206.152 193.861 206.263C193.029 206.373 192.256 206.713 191.543 207.281C190.82 207.857 190.316 208.534 190.032 209.313C189.738 210.1 189.663 210.911 189.807 211.747C189.942 212.591 190.305 213.383 190.896 214.125C191.487 214.866 192.178 215.397 192.97 215.717C193.753 216.045 194.56 216.154 195.393 216.043C196.215 215.94 196.988 215.6 197.711 215.024C198.424 214.456 198.928 213.779 199.222 212.992C199.516 212.206 199.595 211.391 199.46 210.547C199.316 209.711 198.948 208.922 198.358 208.181ZM199.625 207.171C200.201 207.894 200.609 208.658 200.851 209.462C201.091 210.283 201.166 211.099 201.074 211.908C200.99 212.727 200.744 213.506 200.335 214.246C199.935 214.994 199.378 215.653 198.664 216.221C197.942 216.797 197.175 217.193 196.365 217.408C195.553 217.641 194.739 217.707 193.922 217.606C193.112 217.514 192.339 217.256 191.601 216.831C190.862 216.422 190.204 215.857 189.629 215.134C189.061 214.421 188.656 213.653 188.416 212.832C188.167 212.018 188.084 211.202 188.168 210.383C188.26 209.574 188.506 208.795 188.907 208.046C189.306 207.314 189.867 206.66 190.589 206.084C191.303 205.516 192.065 205.116 192.877 204.883C193.697 204.66 194.511 204.594 195.321 204.686C196.137 204.787 196.919 205.046 197.666 205.464C198.404 205.889 199.057 206.458 199.625 207.171Z" fill="white"/>
<path d="M178.829 221.882L179.487 223.163L171.801 227.11L171.143 225.829L178.829 221.882ZM175.017 231.125L173.656 231.824L167.899 220.616L169.26 219.917L175.017 231.125ZM182.542 227.259L181.181 227.958L175.424 216.75L176.785 216.051L182.542 227.259Z" fill="white"/>
<path d="M164.237 226.335L164.215 227.873L158.961 229.755L157.967 228.581L164.237 226.335ZM163.151 233.072L163.464 227.645L163.49 227.291L163.759 222.491L165.369 221.915L164.323 236.343L154.354 225.86L155.964 225.283L159.149 228.731L159.406 229.022L163.151 233.072Z" fill="white"/>
<path d="M151.145 233.329C150.942 232.378 150.55 231.585 149.972 230.948C149.382 230.314 148.696 229.865 147.916 229.603C147.136 229.341 146.341 229.297 145.531 229.471C144.944 229.597 144.427 229.787 143.979 230.043C143.519 230.301 143.118 230.608 142.777 230.964C142.439 231.331 142.168 231.727 141.964 232.151L141.541 230.18C141.959 229.611 142.449 229.15 143.012 228.796C143.574 228.442 144.307 228.169 145.21 227.975C146.067 227.791 146.903 227.771 147.719 227.915C148.527 228.073 149.272 228.373 149.956 228.816C150.643 229.27 151.227 229.85 151.71 230.556C152.193 231.263 152.533 232.074 152.729 232.989C152.926 233.904 152.949 234.783 152.798 235.625C152.647 236.467 152.351 237.23 151.909 237.915C151.469 238.61 150.912 239.19 150.238 239.654C149.555 240.132 148.786 240.462 147.929 240.646C147.026 240.84 146.245 240.891 145.587 240.799C144.929 240.707 144.293 240.488 143.679 240.141L143.256 238.17C143.615 238.473 144.023 238.717 144.48 238.901C144.94 239.097 145.432 239.218 145.958 239.265C146.471 239.314 147.022 239.276 147.608 239.15C148.418 238.977 149.125 238.61 149.729 238.051C150.333 237.492 150.774 236.802 151.052 235.981C151.321 235.175 151.352 234.291 151.145 233.329Z" fill="white"/>
<path d="M122.083 236.788L122.038 238.227L119.465 238.148C118.65 238.123 117.929 237.944 117.303 237.613C116.664 237.293 116.168 236.846 115.814 236.27C115.447 235.695 115.276 235.017 115.3 234.238C115.324 233.47 115.536 232.804 115.938 232.24C116.327 231.688 116.851 231.266 117.508 230.974C118.153 230.694 118.883 230.566 119.699 230.592L122.271 230.671L122.227 232.11L119.654 232.031C119.115 232.014 118.638 232.084 118.225 232.239C117.8 232.406 117.468 232.66 117.229 233C116.979 233.341 116.845 233.769 116.829 234.285C116.813 234.8 116.92 235.236 117.149 235.591C117.366 235.946 117.682 236.214 118.097 236.395C118.499 236.587 118.97 236.692 119.51 236.709L122.083 236.788ZM122.728 243.291L115.981 243.083L116.026 241.643L121.243 241.805L121.588 230.65L123.117 230.697L122.728 243.291Z" fill="white"/>
<path d="M110.056 236.429C110.202 235.492 110.13 234.625 109.841 233.827C109.54 233.027 109.067 232.359 108.422 231.822C107.776 231.284 107.003 230.946 106.102 230.806C105.189 230.664 104.349 230.752 103.584 231.07C102.806 231.387 102.158 231.881 101.641 232.554C101.112 233.225 100.775 234.029 100.629 234.965C100.484 235.902 100.561 236.77 100.862 237.57C101.151 238.368 101.618 239.035 102.264 239.573C102.897 240.108 103.67 240.447 104.583 240.588C105.484 240.728 106.324 240.64 107.102 240.324C107.879 240.007 108.533 239.514 109.062 238.843C109.579 238.17 109.911 237.366 110.056 236.429ZM111.657 236.677C111.515 237.59 111.23 238.408 110.802 239.131C110.361 239.864 109.811 240.471 109.154 240.952C108.494 241.445 107.754 241.791 106.934 241.992C106.111 242.204 105.25 242.24 104.349 242.1C103.435 241.959 102.625 241.663 101.918 241.213C101.197 240.773 100.597 240.219 100.118 239.549C99.637 238.892 99.3032 238.148 99.1164 237.317C98.9159 236.497 98.8865 235.63 99.0283 234.717C99.1682 233.816 99.459 232.998 99.9007 232.266C100.33 231.531 100.875 230.917 101.534 230.424C102.192 229.944 102.932 229.597 103.754 229.385C104.563 229.182 105.424 229.152 106.337 229.294C107.238 229.434 108.049 229.724 108.77 230.163C109.489 230.615 110.089 231.17 110.57 231.827C111.049 232.497 111.388 233.247 111.587 234.08C111.773 234.91 111.797 235.776 111.657 236.677Z" fill="white"/>
<path d="M83.8357 237.086L87.4526 225.017L88.9183 225.456L85.7147 236.146L91.0599 237.748L93.0233 231.196C93.2438 230.46 93.5637 229.811 93.9831 229.247C94.3909 228.681 94.8758 228.275 95.4378 228.03C95.9883 227.781 96.5911 227.755 97.2464 227.952L96.8692 229.21C96.6048 229.131 96.3508 229.143 96.1071 229.245C95.8635 229.347 95.6296 229.522 95.4056 229.768C95.1781 230.025 94.9713 230.339 94.7852 230.709C94.5991 231.079 94.4372 231.494 94.2994 231.954L92.0259 239.541L83.8357 237.086Z" fill="white"/>
<path d="M78.4581 235.171L77.0512 234.57L82.0028 222.984L83.4097 223.585L78.4581 235.171ZM80.2267 228.88L79.6608 230.204L77.2939 229.193C76.5436 228.872 75.9373 228.443 75.4751 227.907C74.9971 227.376 74.6979 226.778 74.5775 226.114C74.446 225.444 74.5335 224.751 74.8401 224.033C75.1419 223.327 75.5825 222.785 76.162 222.406C76.7257 222.033 77.3668 221.831 78.0853 221.799C78.788 221.773 79.5145 221.92 80.2649 222.241L82.6318 223.253L82.0659 224.577L79.699 223.565C79.2024 223.353 78.7336 223.244 78.2924 223.238C77.8354 223.239 77.4337 223.354 77.0873 223.584C76.7299 223.81 76.4498 224.16 76.247 224.635C76.0442 225.109 75.9848 225.554 76.0687 225.968C76.1416 226.377 76.3382 226.742 76.6583 227.062C76.9628 227.387 77.3633 227.656 77.8598 227.869L80.2267 228.88Z" fill="white"/>
<path d="M61.0136 213.641L55.2316 223.187L53.923 222.394L60.451 211.617L73.1525 219.311L66.6245 230.088L65.3159 229.295L71.0978 219.75L66.71 217.092L60.9281 226.637L59.6194 225.844L65.4014 216.299L61.0136 213.641Z" fill="white"/>
<path d="M56.4345 208.552L55.521 209.665L50.6093 205.634L51.5228 204.521L56.4345 208.552ZM49.3546 217.179L48.4411 218.292L43.5294 214.261L44.4429 213.148L49.3546 217.179ZM52.552 213.283L51.6384 214.396L47.005 210.593L47.9186 209.48L52.552 213.283ZM49.095 218.828L47.9123 217.858L55.9058 208.118L57.0885 209.088L49.095 218.828Z" fill="white"/>
<path d="M37.5437 199.957C38.2743 199.353 38.7963 198.657 39.1097 197.868C39.4155 197.07 39.5054 196.256 39.3796 195.426C39.2537 194.596 38.9002 193.83 38.3191 193.127C37.7303 192.415 37.0439 191.923 36.2598 191.653C35.4681 191.373 34.6555 191.313 33.8222 191.473C32.9811 191.623 32.1953 192.001 31.4647 192.605C30.7341 193.209 30.2159 193.91 29.9101 194.708C29.5967 195.496 29.5029 196.305 29.6288 197.136C29.747 197.956 30.1005 198.723 30.6893 199.435C31.2704 200.138 31.9568 200.629 32.7486 200.909C33.5403 201.188 34.3567 201.253 35.1977 201.103C36.0311 200.943 36.8131 200.561 37.5437 199.957ZM38.576 201.206C37.8638 201.794 37.1078 202.217 36.3079 202.474C35.491 202.729 34.6771 202.818 33.8662 202.741C33.046 202.672 32.2625 202.44 31.5158 202.045C30.7598 201.658 30.0913 201.113 29.5101 200.41C28.9213 199.698 28.5117 198.939 28.2813 198.133C28.034 197.325 27.9534 196.512 28.0395 195.694C28.1164 194.883 28.3606 194.105 28.7722 193.359C29.1669 192.613 29.7203 191.945 30.4324 191.356C31.1353 190.775 31.8951 190.357 32.712 190.102C33.5212 189.838 34.3359 189.74 35.1561 189.81C35.967 189.886 36.7505 190.118 37.5065 190.505C38.2456 190.891 38.9095 191.44 39.4983 192.152C40.0794 192.855 40.4936 193.61 40.741 194.417C40.979 195.233 41.0596 196.046 40.9827 196.857C40.8966 197.675 40.6516 198.462 40.2476 199.216C39.8361 199.961 39.2788 200.625 38.576 201.206Z" fill="white"/>
<path d="M23.5247 180.783L22.2562 181.465L18.167 173.854L19.4355 173.172L23.5247 180.783ZM14.2128 177.143L13.4887 175.795L24.5881 169.832L25.3123 171.179L14.2128 177.143ZM18.2168 184.595L17.4927 183.247L28.5921 177.284L29.3162 178.632L18.2168 184.595Z" fill="white"/>
<path d="M18.8161 166.378L17.2782 166.384L15.2983 161.167L16.453 160.151L18.8161 166.378ZM12.0601 165.418L17.4922 165.629L17.8462 165.648L22.6503 165.827L23.257 167.426L8.81216 166.651L19.1057 156.487L19.7124 158.086L16.3249 161.335L16.0395 161.598L12.0601 165.418Z" fill="white"/>
<path d="M11.5437 153.412C12.49 153.19 13.276 152.783 13.9016 152.193C14.5245 151.591 14.9596 150.897 15.2068 150.112C15.454 149.326 15.483 148.531 15.2939 147.725C15.1569 147.141 14.9562 146.627 14.692 146.183C14.425 145.728 14.1105 145.334 13.7486 145C13.3751 144.668 12.9743 144.405 12.5464 144.209L14.5091 143.749C15.0853 144.156 15.5556 144.637 15.9201 145.193C16.2846 145.748 16.5724 146.476 16.7835 147.375C16.9835 148.228 17.0194 149.064 16.8911 149.883C16.7483 150.693 16.4623 151.444 16.0331 152.136C15.5922 152.832 15.0232 153.427 14.3262 153.924C13.6291 154.42 12.8249 154.775 11.9137 154.989C11.0024 155.203 10.1243 155.242 9.27919 155.108C8.43412 154.973 7.66542 154.691 6.97308 154.262C6.26907 153.836 5.67885 153.29 5.20242 152.625C4.71157 151.951 4.36611 151.188 4.16603 150.335C3.95498 149.436 3.88919 148.656 3.96864 147.997C4.04809 147.337 4.25533 146.697 4.59036 146.076L6.55307 145.615C6.25669 145.981 6.02073 146.394 5.84522 146.854C5.65802 147.317 5.54604 147.811 5.50928 148.338C5.46977 148.852 5.51854 149.402 5.65559 149.986C5.8447 150.792 6.22456 151.492 6.79517 152.085C7.36578 152.678 8.06395 153.106 8.8897 153.369C9.70102 153.622 10.5857 153.636 11.5437 153.412Z" fill="white"/>
<path d="M7.48936 124.476L6.04946 124.459L6.07927 121.886C6.08872 121.07 6.25311 120.345 6.57246 119.713C6.87994 119.069 7.31782 118.564 7.88609 118.198C8.4545 117.821 9.12867 117.637 9.90862 117.646C10.6766 117.654 11.3463 117.854 11.9178 118.245C12.4775 118.623 12.9095 119.138 13.214 119.79C13.5066 120.429 13.6482 121.157 13.6388 121.973L13.609 124.547L12.169 124.53L12.1989 121.956C12.2051 121.416 12.1266 120.941 11.9633 120.532C11.7882 120.11 11.528 119.782 11.1826 119.55C10.8375 119.306 10.4069 119.181 9.8909 119.175C9.37494 119.17 8.94158 119.284 8.59082 119.52C8.24021 119.744 7.97847 120.065 7.80562 120.483C7.62091 120.889 7.52542 121.362 7.51917 121.902L7.48936 124.476ZM1 125.247L1.07817 118.497L2.51807 118.514L2.45762 123.734L13.6169 123.863L13.5992 125.393L1 125.247Z" fill="white"/>
<path d="M7.55688 112.697C8.49627 112.824 9.36202 112.736 10.1541 112.431C10.9478 112.115 11.6071 111.63 12.132 110.974C12.6568 110.319 12.9806 109.539 13.1032 108.635C13.2274 107.72 13.123 106.882 12.7901 106.123C12.4589 105.351 11.952 104.713 11.2696 104.209C10.5888 103.693 9.77874 103.371 8.83934 103.243C7.89995 103.116 7.0334 103.21 6.23969 103.526C5.4476 103.831 4.78911 104.311 4.26425 104.966C3.74099 105.609 3.41726 106.389 3.29304 107.305C3.17044 108.208 3.27479 109.046 3.60607 109.817C3.93736 110.589 4.4434 111.233 5.12419 111.749C5.80659 112.253 6.61748 112.569 7.55688 112.697ZM7.3391 114.302C6.42349 114.178 5.60019 113.909 4.86922 113.495C4.12796 113.067 3.51066 112.529 3.01732 111.881C2.51209 111.231 2.15137 110.498 1.93517 109.682C1.70708 108.864 1.65433 108.003 1.77693 107.099C1.90114 106.183 2.18135 105.368 2.61754 104.652C3.04345 103.922 3.58646 103.312 4.24655 102.82C4.89476 102.327 5.63224 101.979 6.45899 101.776C7.27546 101.56 8.14151 101.514 9.05712 101.638C9.96084 101.761 10.7833 102.036 11.5246 102.463C12.2675 102.879 12.8915 103.412 13.3967 104.061C13.8901 104.71 14.2508 105.443 14.4789 106.261C14.6967 107.065 14.7435 107.926 14.6193 108.841C14.4967 109.745 14.2224 110.561 13.7965 111.291C13.3587 112.019 12.8157 112.629 12.1675 113.122C11.5074 113.614 10.7632 113.967 9.93481 114.182C9.10806 114.385 8.24282 114.425 7.3391 114.302Z" fill="white"/>
<path d="M6.39316 86.2596L18.5292 89.6474L18.1178 91.121L7.36876 88.1204L5.86846 93.4949L12.4566 95.334C13.1963 95.5405 13.8517 95.8481 14.4229 96.2567C14.9973 96.6537 15.4123 97.1309 15.6679 97.6881C15.9267 98.2338 15.9641 98.8361 15.7802 99.4949L14.5146 99.1416C14.5888 98.8757 14.5725 98.622 14.4655 98.3803C14.3585 98.1387 14.1799 97.9082 13.9297 97.6888C13.6679 97.4662 13.3502 97.2654 12.9766 97.0864C12.603 96.9073 12.185 96.7533 11.7227 96.6242L4.09431 94.4947L6.39316 86.2596Z" fill="white"/>
<path d="M8.11815 80.9707L8.69303 79.5528L20.3698 84.2871L19.7949 85.705L8.11815 80.9707ZM14.4412 82.6214L13.1067 82.0804L14.0739 79.695C14.3805 78.9388 14.7978 78.3246 15.3259 77.8524C15.8474 77.3646 16.4394 77.0543 17.1019 76.9215C17.7688 76.7775 18.4637 76.8521 19.1866 77.1452C19.8983 77.4338 20.4489 77.8642 20.8384 78.4365C21.2213 78.9931 21.4356 79.6303 21.4813 80.3481C21.5203 81.0502 21.3865 81.7794 21.0799 82.5356L20.1128 84.921L18.7783 84.3799L19.7454 81.9945C19.9483 81.4941 20.0486 81.0232 20.0462 80.582C20.0372 80.1252 19.9143 79.7257 19.6775 79.3837C19.4451 79.0305 19.0899 78.757 18.6117 78.5631C18.1335 78.3692 17.6881 78.3181 17.2754 78.4097C16.8672 78.4903 16.5064 78.6936 16.1929 79.0197C15.8728 79.3302 15.6113 79.7356 15.4084 80.236L14.4412 82.6214Z" fill="white"/>
<path d="M29.3594 62.9301L19.7092 57.3248L20.4776 56.0018L31.373 62.3304L23.9143 75.1713L13.019 68.8428L13.7874 67.5197L23.4376 73.1251L26.0142 68.6891L16.3641 63.0838L17.1325 61.7608L26.7827 67.3661L29.3594 62.9301Z" fill="white"/>
<path d="M34.2925 58.2804L33.1629 57.3873L37.1038 52.4031L38.2334 53.2962L34.2925 58.2804ZM25.5383 51.3588L24.4087 50.4657L28.3496 45.4814L29.4791 46.3745L25.5383 51.3588ZM29.4918 54.4847L28.3622 53.5916L32.0798 48.8897L33.2094 49.7828L29.4918 54.4847ZM23.884 51.1293L24.8329 49.9291L34.7167 57.7439L33.7678 58.9441L23.884 51.1293Z" fill="white"/>
<path d="M42.2663 39.4137C42.8862 40.1309 43.5937 40.6376 44.3889 40.9337C45.1931 41.222 46.0089 41.2942 46.8361 41.1502C47.6633 41.0063 48.422 40.6361 49.112 40.0398C49.8111 39.4356 50.2872 38.7386 50.5404 37.9488C50.8027 37.1512 50.8449 36.3375 50.6671 35.5078C50.4984 34.6703 50.1041 33.8929 49.4842 33.1756C48.8643 32.4584 48.1523 31.9556 47.348 31.6673C46.5528 31.3712 45.7416 31.2951 44.9144 31.4391C44.0963 31.5752 43.3376 31.9453 42.6385 32.5495C41.9485 33.1459 41.4724 33.8428 41.2101 34.6405C40.9478 35.4381 40.9011 36.2557 41.0698 37.0933C41.2476 37.923 41.6464 38.6964 42.2663 39.4137ZM41.0406 40.473C40.4364 39.7739 39.9973 39.0272 39.7234 38.2331C39.4506 37.422 39.3438 36.6103 39.403 35.7978C39.4543 34.9763 39.6691 34.188 40.0474 33.4328C40.4179 32.6686 40.9481 31.9883 41.6381 31.3919C42.3372 30.7877 43.0871 30.3617 43.8879 30.1137C44.6899 29.8488 45.501 29.7505 46.3213 29.8187C47.1338 29.8779 47.9169 30.1051 48.6709 30.5003C49.426 30.8786 50.1057 31.4172 50.7099 32.1163C51.3062 32.8064 51.7408 33.5569 52.0135 34.368C52.2953 35.1712 52.4106 35.9836 52.3593 36.8051C52.3001 37.6175 52.0853 38.4059 51.7149 39.1701C51.3457 39.9174 50.8115 40.5932 50.1124 41.1974C49.4224 41.7937 48.6764 42.2244 47.8744 42.4892C47.0645 42.7451 46.2534 42.8434 45.441 42.7842C44.6207 42.716 43.829 42.4882 43.066 42.1008C42.3121 41.7056 41.637 41.163 41.0406 40.473Z" fill="white"/>
<path d="M61.4773 24.702L60.7724 23.4462L68.3067 19.2173L69.0116 20.473L61.4773 24.702ZM64.9451 15.3245L66.2793 14.5756L72.4466 25.5631L71.1124 26.312L64.9451 15.3245ZM57.5678 19.4653L58.902 18.7165L65.0693 29.704L63.7351 30.4528L57.5678 19.4653Z" fill="white"/>
<path d="M75.6531 19.7538L75.6182 18.2162L80.7972 16.139L81.8344 17.2744L75.6531 19.7538ZM76.4857 12.981L76.3772 18.4161L76.3642 18.7704L76.2751 23.577L74.688 24.2136L75.1924 9.75672L85.5471 19.858L83.96 20.4946L80.6478 17.1686L80.3801 16.8881L76.4857 12.981Z" fill="white"/>
<path d="M88.5472 12.1782C88.7872 13.1201 89.2083 13.8982 89.8106 14.5125C90.4245 15.1239 91.1264 15.5457 91.9162 15.7779C92.7059 16.0101 93.502 16.024 94.3044 15.8196C94.8858 15.6715 95.3956 15.4611 95.8339 15.1885C96.2838 14.9129 96.6724 14.591 96.9996 14.2228C97.3239 13.843 97.5796 13.4373 97.7669 13.0057L98.2646 14.9593C97.8685 15.5432 97.3962 16.0226 96.8478 16.3976C96.2994 16.7726 95.5775 17.0741 94.6821 17.3023C93.8332 17.5185 92.9981 17.5703 92.1769 17.4575C91.3643 17.3302 90.6078 17.0585 89.9074 16.6426C89.2041 16.215 88.5977 15.6574 88.0882 14.9699C87.5787 14.2824 87.2084 13.4852 86.9774 12.5781C86.7463 11.6711 86.69 10.7938 86.8084 9.94637C86.9269 9.0989 87.1941 8.32498 87.61 7.62461C88.0231 6.91261 88.5574 6.31212 89.2129 5.82314C89.8772 5.31957 90.6337 4.95965 91.4826 4.74339C92.378 4.51528 93.1562 4.43467 93.8172 4.50157C94.4781 4.56846 95.1222 4.76349 95.7494 5.08666L96.2471 7.04026C95.8762 6.75087 95.459 6.52281 94.9955 6.35608C94.529 6.17771 94.0323 6.07516 93.5054 6.04841C92.9901 6.0187 92.4418 6.07791 91.8603 6.22604C91.058 6.43045 90.3656 6.82354 89.7832 7.40533C89.2008 7.98712 88.7863 8.6933 88.5397 9.52388C88.3018 10.3399 88.3043 11.2246 88.5472 12.1782Z" fill="white"/>
<path d="M116.81 7.54794L116.794 6.10803L119.368 6.07822C120.184 6.06877 120.911 6.21636 121.551 6.52097C122.202 6.81345 122.717 7.23951 123.096 7.79917C123.486 8.35868 123.686 9.02841 123.695 9.80836C123.704 10.5763 123.52 11.2505 123.142 11.8309C122.777 12.3992 122.272 12.843 121.628 13.1625C120.995 13.4699 120.271 13.6283 119.455 13.6377L116.881 13.6675L116.865 12.2276L119.438 12.1978C119.978 12.1916 120.451 12.1021 120.857 11.9294C121.275 11.7445 121.596 11.4768 121.82 11.1262C122.056 10.7754 122.171 10.342 122.165 9.82608C122.159 9.31011 122.034 8.87953 121.79 8.53434C121.558 8.189 121.231 7.93477 120.809 7.77164C120.399 7.59638 119.924 7.51187 119.384 7.51813L116.81 7.54794ZM115.889 1.07817L122.639 1L122.656 2.4399L117.436 2.50035L117.565 13.6596L116.035 13.6773L115.889 1.07817Z" fill="white"/>
<path d="M129.001 7.3273C128.892 8.26897 128.997 9.13285 129.316 9.91896C129.648 10.7064 130.146 11.3563 130.811 11.8685C131.477 12.3806 132.262 12.6894 133.168 12.7946C134.086 12.9012 134.922 12.7808 135.675 12.4333C136.44 12.0873 137.068 11.5683 137.559 10.8763C138.062 10.1857 138.368 9.36962 138.477 8.42795C138.587 7.48628 138.476 6.62171 138.145 5.83422C137.825 5.04811 137.333 4.39897 136.667 3.88679C136.014 3.37599 135.228 3.06729 134.31 2.96068C133.405 2.85546 132.569 2.97587 131.804 3.32192C131.039 3.66797 130.405 4.18628 129.902 4.87685C129.411 5.56881 129.111 6.38563 129.001 7.3273ZM127.392 7.14039C127.499 6.22256 127.752 5.39425 128.152 4.65546C128.565 3.90613 129.091 3.27861 129.729 2.77291C130.369 2.25529 131.096 1.88056 131.908 1.64871C132.721 1.40495 133.581 1.33568 134.487 1.4409C135.405 1.5475 136.226 1.81198 136.95 2.23435C137.687 2.64617 138.308 3.17735 138.812 3.82788C139.318 4.46649 139.68 5.19715 139.899 6.01986C140.131 6.83203 140.193 7.69703 140.087 8.61486C139.981 9.52077 139.722 10.3484 139.309 11.0977C138.908 11.8484 138.387 12.4826 137.747 13.0002C137.108 13.5059 136.382 13.8806 135.569 14.1244C134.769 14.3576 133.91 14.421 132.992 14.3144C132.086 14.2091 131.264 13.9506 130.527 13.5388C129.791 13.115 129.17 12.5839 128.664 11.9452C128.16 11.2947 127.792 10.5574 127.562 9.73332C127.343 8.91061 127.287 8.0463 127.392 7.14039Z" fill="white"/>
<path d="M155.723 5.68561L152.566 17.8837L151.085 17.5004L153.881 6.69633L148.479 5.29825L146.765 11.9201C146.573 12.6636 146.277 13.3247 145.88 13.9035C145.494 14.4854 145.024 14.9093 144.472 15.1754C143.932 15.4446 143.33 15.4934 142.668 15.3221L142.997 14.05C143.264 14.1191 143.518 14.0979 143.757 13.9864C143.997 13.8749 144.224 13.6919 144.439 13.4376C144.656 13.1716 144.851 12.8502 145.023 12.4732C145.195 12.0963 145.341 11.6754 145.461 11.2108L147.445 3.54338L155.723 5.68561Z" fill="white"/>
<path d="M161.065 7.30565L162.494 7.85388L157.979 19.6172L156.551 19.069L161.065 7.30565ZM159.533 13.6585L160.049 12.3141L162.452 13.2364C163.214 13.5288 163.836 13.9346 164.318 14.4538C164.816 14.9661 165.137 15.5521 165.282 16.212C165.438 16.8761 165.377 17.5723 165.097 18.3005C164.822 19.0175 164.402 19.5761 163.837 19.9762C163.288 20.3695 162.655 20.5957 161.938 20.6547C161.237 20.7069 160.505 20.5868 159.743 20.2944L157.34 19.3721L157.856 18.0277L160.259 18.9501C160.764 19.1436 161.236 19.235 161.677 19.2243C162.134 19.2068 162.531 19.0764 162.869 18.8332C163.217 18.5943 163.484 18.234 163.669 17.7523C163.854 17.2705 163.897 16.8242 163.797 16.4133C163.709 16.0067 163.499 15.6498 163.167 15.3424C162.851 15.0282 162.441 14.7743 161.936 14.5808L159.533 13.6585Z" fill="white"/>
<path d="M179.636 28.2668L185.062 18.515L186.399 19.2589L180.273 30.2691L167.296 23.0484L173.423 12.0382L174.76 12.7822L169.334 22.534L173.816 25.0285L179.243 15.2766L180.58 16.0205L175.153 25.7724L179.636 28.2668Z" fill="white"/>
<path d="M184.401 33.1376L185.273 31.992L190.329 35.8413L189.456 36.987L184.401 33.1376ZM191.162 24.2587L192.034 23.113L197.09 26.9624L196.217 28.108L191.162 24.2587ZM188.109 28.2685L188.981 27.1229L193.75 30.7541L192.877 31.8998L188.109 28.2685ZM191.361 22.6005L192.578 23.5274L184.945 33.552L183.728 32.6251L191.361 22.6005Z" fill="white"/>
<path d="M203.44 40.8141C202.734 41.4469 202.24 42.1636 201.958 42.964C201.685 43.7734 201.627 44.5903 201.786 45.4147C201.945 46.2392 202.329 46.991 202.938 47.67C203.555 48.358 204.26 48.8214 205.055 49.0602C205.857 49.3079 206.671 49.3354 207.498 49.1425C208.332 48.9586 209.102 48.5502 209.808 47.9174C210.514 47.2846 211.003 46.5635 211.277 45.7541C211.559 44.9537 211.62 44.1413 211.461 43.3168C211.31 42.5012 210.926 41.7495 210.309 41.0615C209.701 40.3824 208.995 39.919 208.193 39.6713C207.391 39.4236 206.572 39.3917 205.738 39.5756C204.912 39.7685 204.145 40.1813 203.44 40.8141ZM202.358 39.6079C203.046 38.9911 203.785 38.5385 204.574 38.2501C205.38 37.9627 206.189 37.8412 207.003 37.8856C207.825 37.9219 208.617 38.1224 209.379 38.4869C210.15 38.8433 210.84 39.3611 211.449 40.0402C212.065 40.7282 212.505 41.4702 212.768 42.2663C213.047 43.0634 213.16 43.8726 213.107 44.694C213.062 45.5074 212.849 46.2946 212.468 47.0556C212.104 47.8175 211.577 48.5068 210.889 49.1236C210.21 49.7324 209.468 50.1805 208.662 50.468C207.864 50.7644 207.054 50.8944 206.231 50.858C205.418 50.8136 204.626 50.6132 203.855 50.2567C203.101 49.9011 202.416 49.3794 201.799 48.6914C201.19 48.0123 200.746 47.2743 200.467 46.4772C200.196 45.6721 200.083 44.8629 200.127 44.0495C200.181 43.2281 200.394 42.4325 200.767 41.6626C201.149 40.9016 201.679 40.2167 202.358 39.6079Z" fill="white"/>
<path d="M218.472 59.7498L219.714 59.0219L224.081 66.477L222.839 67.2048L218.472 59.7498ZM227.911 63.0442L228.685 64.3644L217.813 70.7331L217.039 69.4129L227.911 63.0442ZM223.635 55.7445L224.409 57.0646L213.537 63.4333L212.763 62.1131L223.635 55.7445Z" fill="white"/>
<path d="M223.686 73.8804L225.223 73.8168L227.396 78.956L226.281 80.0143L223.686 73.8804ZM230.473 74.5862L225.037 74.5794L224.683 74.5729L219.875 74.5738L219.209 72.9988L233.673 73.2329L223.767 83.7746L223.101 82.1997L226.364 78.8258L226.64 78.553L230.473 74.5862Z" fill="white"/>
<path d="M231.466 86.5868C230.529 86.8446 229.759 87.2805 229.156 87.8943C228.557 88.5197 228.148 89.2295 227.931 90.0235C227.714 90.8175 227.715 91.6137 227.935 92.4121C228.094 92.9906 228.314 93.4963 228.595 93.9294C228.879 94.3739 229.208 94.7563 229.582 95.0765C229.968 95.3935 230.379 95.6415 230.814 95.8205L228.87 96.3552C228.279 95.9703 227.79 95.5072 227.405 94.966C227.02 94.4248 226.704 93.7088 226.459 92.8179C226.227 91.9732 226.159 91.1393 226.257 90.316C226.368 89.5012 226.626 88.7397 227.028 88.0316C227.442 87.3202 227.988 86.7034 228.666 86.1809C229.344 85.6584 230.134 85.2731 231.036 85.0249C231.939 84.7766 232.815 84.7037 233.664 84.806C234.514 84.9083 235.293 85.1608 236.001 85.5634C236.721 85.9629 237.331 86.4857 237.833 87.1318C238.349 87.7864 238.723 88.536 238.955 89.3806C239.2 90.2715 239.296 91.0481 239.241 91.7102C239.187 92.3723 239.004 93.02 238.693 93.6532L236.749 94.1879C237.031 93.8115 237.252 93.3901 237.41 92.9235C237.579 92.4537 237.672 91.9551 237.689 91.4278C237.709 90.9121 237.639 90.3649 237.48 89.7864C237.26 88.9881 236.854 88.3033 236.262 87.732C235.669 87.1608 234.955 86.7597 234.12 86.529C233.299 86.3066 232.415 86.3259 231.466 86.5868Z" fill="white"/>
<path d="M236.804 124.255L238.242 124.327L238.113 126.898C238.072 127.713 237.88 128.43 237.537 129.05C237.204 129.682 236.747 130.169 236.165 130.513C235.583 130.868 234.902 131.026 234.123 130.987C233.356 130.948 232.695 130.723 232.139 130.311C231.594 129.911 231.182 129.379 230.903 128.717C230.635 128.066 230.522 127.334 230.563 126.519L230.692 123.948L232.13 124.02L232.001 126.591C231.974 127.13 232.034 127.608 232.181 128.024C232.34 128.452 232.587 128.789 232.924 129.034C233.259 129.291 233.685 129.433 234.2 129.459C234.715 129.485 235.153 129.386 235.512 129.164C235.871 128.954 236.145 128.643 236.334 128.232C236.534 127.834 236.648 127.365 236.675 126.826L236.804 124.255ZM243.318 123.735L242.98 130.476L241.542 130.404L241.803 125.191L230.657 124.631L230.734 123.103L243.318 123.735Z" stroke="white" stroke-width="1.4" mask="url(#path-1-outside-1_372_112)"/>
<path d="M236.231 136.401C235.298 136.234 234.429 136.286 233.625 136.557C232.819 136.839 232.139 137.297 231.587 137.929C231.035 138.562 230.679 139.327 230.518 140.225C230.356 141.135 230.425 141.976 230.725 142.749C231.024 143.534 231.503 144.192 232.164 144.725C232.822 145.269 233.618 145.625 234.551 145.792C235.484 145.959 236.354 145.901 237.16 145.619C237.965 145.348 238.643 144.897 239.195 144.264C239.745 143.643 240.101 142.878 240.264 141.968C240.424 141.07 240.355 140.229 240.057 139.444C239.758 138.66 239.28 137.995 238.622 137.45C237.961 136.918 237.164 136.568 236.231 136.401ZM236.516 134.806C237.426 134.969 238.237 135.273 238.95 135.717C239.672 136.176 240.267 136.739 240.732 137.407C241.209 138.078 241.539 138.826 241.721 139.65C241.914 140.477 241.93 141.34 241.77 142.238C241.607 143.147 241.293 143.95 240.827 144.647C240.371 145.358 239.802 145.945 239.122 146.409C238.454 146.874 237.702 147.191 236.868 147.358C236.043 147.54 235.176 147.549 234.266 147.387C233.368 147.226 232.558 146.917 231.835 146.458C231.111 146.012 230.51 145.453 230.032 144.783C229.567 144.114 229.237 143.367 229.044 142.54C228.86 141.726 228.85 140.865 229.012 139.956C229.173 139.058 229.481 138.254 229.938 137.543C230.406 136.834 230.974 136.247 231.642 135.781C232.323 135.318 233.081 134.997 233.918 134.817C234.752 134.649 235.618 134.646 236.516 134.806Z" stroke="white" stroke-width="1.4" mask="url(#path-1-outside-1_372_112)"/>
<path d="M236.424 162.43L224.425 158.586L224.891 157.129L235.519 160.534L237.222 155.22L230.708 153.133C229.977 152.898 229.333 152.566 228.778 152.136C228.219 151.718 227.822 151.225 227.588 150.659C227.35 150.104 227.335 149.501 227.544 148.849L228.795 149.25C228.711 149.513 228.718 149.767 228.816 150.013C228.913 150.258 229.083 150.495 229.325 150.724C229.578 150.956 229.888 151.169 230.255 151.362C230.621 151.555 231.033 151.725 231.49 151.871L239.032 154.288L236.424 162.43Z" stroke="white" stroke-width="1.4" mask="url(#path-1-outside-1_372_112)"/>
<path d="M234.341 167.997L233.709 169.39L222.236 164.18L222.869 162.787L234.341 167.997ZM228.091 166.088L229.402 166.683L228.338 169.027C228.001 169.77 227.559 170.367 227.012 170.817C226.47 171.283 225.866 171.568 225.199 171.674C224.527 171.79 223.835 171.687 223.125 171.365C222.426 171.047 221.893 170.595 221.528 170.007C221.168 169.435 220.98 168.79 220.964 168.071C220.954 167.367 221.117 166.644 221.455 165.901L222.519 163.558L223.83 164.153L222.766 166.497C222.542 166.988 222.423 167.455 222.407 167.896C222.398 168.353 222.504 168.757 222.727 169.108C222.944 169.471 223.288 169.758 223.758 169.972C224.228 170.185 224.671 170.254 225.087 170.18C225.498 170.116 225.867 169.928 226.193 169.615C226.526 169.318 226.804 168.923 227.027 168.432L228.091 166.088Z" stroke="white" stroke-width="1.4" mask="url(#path-1-outside-1_372_112)"/>
<path d="M212.546 184.892L221.984 190.848L221.167 192.142L210.512 185.417L218.437 172.859L229.093 179.584L228.276 180.878L218.838 174.922L216.101 179.26L225.538 185.216L224.722 186.51L215.284 180.554L212.546 184.892Z" stroke="white" stroke-width="1.4" mask="url(#path-1-outside-1_372_112)"/>
<path d="M207.343 189.419L208.439 190.353L204.319 195.19L203.223 194.256L207.343 189.419ZM215.839 196.655L216.936 197.588L212.816 202.426L211.719 201.492L215.839 196.655ZM212.002 193.387L213.098 194.321L209.212 198.884L208.116 197.95L212.002 193.387ZM217.484 196.944L216.492 198.109L206.899 189.94L207.891 188.775L217.484 196.944Z" stroke="white" stroke-width="1.4" mask="url(#path-1-outside-1_372_112)"/>
<path d="M198.358 208.181C197.767 207.439 197.08 206.905 196.298 206.577C195.506 206.257 194.693 206.152 193.861 206.263C193.029 206.373 192.256 206.713 191.543 207.281C190.82 207.857 190.316 208.534 190.032 209.313C189.738 210.1 189.663 210.911 189.807 211.747C189.942 212.591 190.305 213.383 190.896 214.125C191.487 214.866 192.178 215.397 192.97 215.717C193.753 216.045 194.56 216.154 195.393 216.043C196.215 215.94 196.988 215.6 197.711 215.024C198.424 214.456 198.928 213.779 199.222 212.992C199.516 212.206 199.595 211.391 199.46 210.547C199.316 209.711 198.948 208.922 198.358 208.181ZM199.625 207.171C200.201 207.894 200.609 208.658 200.851 209.462C201.091 210.283 201.166 211.099 201.074 211.908C200.99 212.727 200.744 213.506 200.335 214.246C199.935 214.994 199.378 215.653 198.664 216.221C197.942 216.797 197.175 217.193 196.365 217.408C195.553 217.641 194.739 217.707 193.922 217.606C193.112 217.514 192.339 217.256 191.601 216.831C190.862 216.422 190.204 215.857 189.629 215.134C189.061 214.421 188.656 213.653 188.416 212.832C188.167 212.018 188.084 211.202 188.168 210.383C188.26 209.574 188.506 208.795 188.907 208.046C189.306 207.314 189.867 206.66 190.589 206.084C191.303 205.516 192.065 205.116 192.877 204.883C193.697 204.66 194.511 204.594 195.321 204.686C196.137 204.787 196.919 205.046 197.666 205.464C198.404 205.889 199.057 206.458 199.625 207.171Z" stroke="white" stroke-width="1.4" mask="url(#path-1-outside-1_372_112)"/>
<path d="M178.829 221.882L179.487 223.163L171.801 227.11L171.143 225.829L178.829 221.882ZM175.017 231.125L173.656 231.824L167.899 220.616L169.26 219.917L175.017 231.125ZM182.542 227.259L181.181 227.958L175.424 216.75L176.785 216.051L182.542 227.259Z" stroke="white" stroke-width="1.4" mask="url(#path-1-outside-1_372_112)"/>
<path d="M164.237 226.335L164.215 227.873L158.961 229.755L157.967 228.581L164.237 226.335ZM163.151 233.072L163.464 227.645L163.49 227.291L163.759 222.491L165.369 221.915L164.323 236.343L154.354 225.86L155.964 225.283L159.149 228.731L159.406 229.022L163.151 233.072Z" stroke="white" stroke-width="1.4" mask="url(#path-1-outside-1_372_112)"/>
<path d="M151.145 233.329C150.942 232.378 150.55 231.585 149.972 230.948C149.382 230.314 148.696 229.865 147.916 229.603C147.136 229.341 146.341 229.297 145.531 229.471C144.944 229.597 144.427 229.787 143.979 230.043C143.519 230.301 143.118 230.608 142.777 230.964C142.439 231.331 142.168 231.727 141.964 232.151L141.541 230.18C141.959 229.611 142.449 229.15 143.012 228.796C143.574 228.442 144.307 228.169 145.21 227.975C146.067 227.791 146.903 227.771 147.719 227.915C148.527 228.073 149.272 228.373 149.956 228.816C150.643 229.27 151.227 229.85 151.71 230.556C152.193 231.263 152.533 232.074 152.729 232.989C152.926 233.904 152.949 234.783 152.798 235.625C152.647 236.467 152.351 237.23 151.909 237.915C151.469 238.61 150.912 239.19 150.238 239.654C149.555 240.132 148.786 240.462 147.929 240.646C147.026 240.84 146.245 240.891 145.587 240.799C144.929 240.707 144.293 240.488 143.679 240.141L143.256 238.17C143.615 238.473 144.023 238.717 144.48 238.901C144.94 239.097 145.432 239.218 145.958 239.265C146.471 239.314 147.022 239.276 147.608 239.15C148.418 238.977 149.125 238.61 149.729 238.051C150.333 237.492 150.774 236.802 151.052 235.981C151.321 235.175 151.352 234.291 151.145 233.329Z" stroke="white" stroke-width="1.4" mask="url(#path-1-outside-1_372_112)"/>
<path d="M122.083 236.788L122.038 238.227L119.465 238.148C118.65 238.123 117.929 237.944 117.303 237.613C116.664 237.293 116.168 236.846 115.814 236.27C115.447 235.695 115.276 235.017 115.3 234.238C115.324 233.47 115.536 232.804 115.938 232.24C116.327 231.688 116.851 231.266 117.508 230.974C118.153 230.694 118.883 230.566 119.699 230.592L122.271 230.671L122.227 232.11L119.654 232.031C119.115 232.014 118.638 232.084 118.225 232.239C117.8 232.406 117.468 232.66 117.229 233C116.979 233.341 116.845 233.769 116.829 234.285C116.813 234.8 116.92 235.236 117.149 235.591C117.366 235.946 117.682 236.214 118.097 236.395C118.499 236.587 118.97 236.692 119.51 236.709L122.083 236.788ZM122.728 243.291L115.981 243.083L116.026 241.643L121.243 241.805L121.588 230.65L123.117 230.697L122.728 243.291Z" stroke="white" stroke-width="1.4" mask="url(#path-1-outside-1_372_112)"/>
<path d="M110.056 236.429C110.202 235.492 110.13 234.625 109.841 233.827C109.54 233.027 109.067 232.359 108.422 231.822C107.776 231.284 107.003 230.946 106.102 230.806C105.189 230.664 104.349 230.752 103.584 231.07C102.806 231.387 102.158 231.881 101.641 232.554C101.112 233.225 100.775 234.029 100.629 234.965C100.484 235.902 100.561 236.77 100.862 237.57C101.151 238.368 101.618 239.035 102.264 239.573C102.897 240.108 103.67 240.447 104.583 240.588C105.484 240.728 106.324 240.64 107.102 240.324C107.879 240.007 108.533 239.514 109.062 238.843C109.579 238.17 109.911 237.366 110.056 236.429ZM111.657 236.677C111.515 237.59 111.23 238.408 110.802 239.131C110.361 239.864 109.811 240.471 109.154 240.952C108.494 241.445 107.754 241.791 106.934 241.992C106.111 242.204 105.25 242.24 104.349 242.1C103.435 241.959 102.625 241.663 101.918 241.213C101.197 240.773 100.597 240.219 100.118 239.549C99.637 238.892 99.3032 238.148 99.1164 237.317C98.9159 236.497 98.8865 235.63 99.0283 234.717C99.1682 233.816 99.459 232.998 99.9007 232.266C100.33 231.531 100.875 230.917 101.534 230.424C102.192 229.944 102.932 229.597 103.754 229.385C104.563 229.182 105.424 229.152 106.337 229.294C107.238 229.434 108.049 229.724 108.77 230.163C109.489 230.615 110.089 231.17 110.57 231.827C111.049 232.497 111.388 233.247 111.587 234.08C111.773 234.91 111.797 235.776 111.657 236.677Z" stroke="white" stroke-width="1.4" mask="url(#path-1-outside-1_372_112)"/>
<path d="M83.8357 237.086L87.4526 225.017L88.9183 225.456L85.7147 236.146L91.0599 237.748L93.0233 231.196C93.2438 230.46 93.5637 229.811 93.9831 229.247C94.3909 228.681 94.8758 228.275 95.4378 228.03C95.9883 227.781 96.5911 227.755 97.2464 227.952L96.8692 229.21C96.6048 229.131 96.3508 229.143 96.1071 229.245C95.8635 229.347 95.6296 229.522 95.4056 229.768C95.1781 230.025 94.9713 230.339 94.7852 230.709C94.5991 231.079 94.4372 231.494 94.2994 231.954L92.0259 239.541L83.8357 237.086Z" stroke="white" stroke-width="1.4" mask="url(#path-1-outside-1_372_112)"/>
<path d="M78.4581 235.171L77.0512 234.57L82.0028 222.984L83.4097 223.585L78.4581 235.171ZM80.2267 228.88L79.6608 230.204L77.2939 229.193C76.5436 228.872 75.9373 228.443 75.4751 227.907C74.9971 227.376 74.6979 226.778 74.5775 226.114C74.446 225.444 74.5335 224.751 74.8401 224.033C75.1419 223.327 75.5825 222.785 76.162 222.406C76.7257 222.033 77.3668 221.831 78.0853 221.799C78.788 221.773 79.5145 221.92 80.2649 222.241L82.6318 223.253L82.0659 224.577L79.699 223.565C79.2024 223.353 78.7336 223.244 78.2924 223.238C77.8354 223.239 77.4337 223.354 77.0873 223.584C76.7299 223.81 76.4498 224.16 76.247 224.635C76.0442 225.109 75.9848 225.554 76.0687 225.968C76.1416 226.377 76.3382 226.742 76.6583 227.062C76.9628 227.387 77.3633 227.656 77.8598 227.869L80.2267 228.88Z" stroke="white" stroke-width="1.4" mask="url(#path-1-outside-1_372_112)"/>
<path d="M61.0136 213.641L55.2316 223.187L53.923 222.394L60.451 211.617L73.1525 219.311L66.6245 230.088L65.3159 229.295L71.0978 219.75L66.71 217.092L60.9281 226.637L59.6194 225.844L65.4014 216.299L61.0136 213.641Z" stroke="white" stroke-width="1.4" mask="url(#path-1-outside-1_372_112)"/>
<path d="M56.4345 208.552L55.521 209.665L50.6093 205.634L51.5228 204.521L56.4345 208.552ZM49.3546 217.179L48.4411 218.292L43.5294 214.261L44.4429 213.148L49.3546 217.179ZM52.552 213.283L51.6384 214.396L47.005 210.593L47.9186 209.48L52.552 213.283ZM49.095 218.828L47.9123 217.858L55.9058 208.118L57.0885 209.088L49.095 218.828Z" stroke="white" stroke-width="1.4" mask="url(#path-1-outside-1_372_112)"/>
<path d="M37.5437 199.957C38.2743 199.353 38.7963 198.657 39.1097 197.868C39.4155 197.07 39.5054 196.256 39.3796 195.426C39.2537 194.596 38.9002 193.83 38.3191 193.127C37.7303 192.415 37.0439 191.923 36.2598 191.653C35.4681 191.373 34.6555 191.313 33.8222 191.473C32.9811 191.623 32.1953 192.001 31.4647 192.605C30.7341 193.209 30.2159 193.91 29.9101 194.708C29.5967 195.496 29.5029 196.305 29.6288 197.136C29.747 197.956 30.1005 198.723 30.6893 199.435C31.2704 200.138 31.9568 200.629 32.7486 200.909C33.5403 201.188 34.3567 201.253 35.1977 201.103C36.0311 200.943 36.8131 200.561 37.5437 199.957ZM38.576 201.206C37.8638 201.794 37.1078 202.217 36.3079 202.474C35.491 202.729 34.6771 202.818 33.8662 202.741C33.046 202.672 32.2625 202.44 31.5158 202.045C30.7598 201.658 30.0913 201.113 29.5101 200.41C28.9213 199.698 28.5117 198.939 28.2813 198.133C28.034 197.325 27.9534 196.512 28.0395 195.694C28.1164 194.883 28.3606 194.105 28.7722 193.359C29.1669 192.613 29.7203 191.945 30.4324 191.356C31.1353 190.775 31.8951 190.357 32.712 190.102C33.5212 189.838 34.3359 189.74 35.1561 189.81C35.967 189.886 36.7505 190.118 37.5065 190.505C38.2456 190.891 38.9095 191.44 39.4983 192.152C40.0794 192.855 40.4936 193.61 40.741 194.417C40.979 195.233 41.0596 196.046 40.9827 196.857C40.8966 197.675 40.6516 198.462 40.2476 199.216C39.8361 199.961 39.2788 200.625 38.576 201.206Z" stroke="white" stroke-width="1.4" mask="url(#path-1-outside-1_372_112)"/>
<path d="M23.5247 180.783L22.2562 181.465L18.167 173.854L19.4355 173.172L23.5247 180.783ZM14.2128 177.143L13.4887 175.795L24.5881 169.832L25.3123 171.179L14.2128 177.143ZM18.2168 184.595L17.4927 183.247L28.5921 177.284L29.3162 178.632L18.2168 184.595Z" stroke="white" stroke-width="1.4" mask="url(#path-1-outside-1_372_112)"/>
<path d="M18.8161 166.378L17.2782 166.384L15.2983 161.167L16.453 160.151L18.8161 166.378ZM12.0601 165.418L17.4922 165.629L17.8462 165.648L22.6503 165.827L23.257 167.426L8.81216 166.651L19.1057 156.487L19.7124 158.086L16.3249 161.335L16.0395 161.598L12.0601 165.418Z" stroke="white" stroke-width="1.4" mask="url(#path-1-outside-1_372_112)"/>
<path d="M11.5437 153.412C12.49 153.19 13.276 152.783 13.9016 152.193C14.5245 151.591 14.9596 150.897 15.2068 150.112C15.454 149.326 15.483 148.531 15.2939 147.725C15.1569 147.141 14.9562 146.627 14.692 146.183C14.425 145.728 14.1105 145.334 13.7486 145C13.3751 144.668 12.9743 144.405 12.5464 144.209L14.5091 143.749C15.0853 144.156 15.5556 144.637 15.9201 145.193C16.2846 145.748 16.5724 146.476 16.7835 147.375C16.9835 148.228 17.0194 149.064 16.8911 149.883C16.7483 150.693 16.4623 151.444 16.0331 152.136C15.5922 152.832 15.0232 153.427 14.3262 153.924C13.6291 154.42 12.8249 154.775 11.9137 154.989C11.0024 155.203 10.1243 155.242 9.27919 155.108C8.43412 154.973 7.66542 154.691 6.97308 154.262C6.26907 153.836 5.67885 153.29 5.20242 152.625C4.71157 151.951 4.36611 151.188 4.16603 150.335C3.95498 149.436 3.88919 148.656 3.96864 147.997C4.04809 147.337 4.25533 146.697 4.59036 146.076L6.55307 145.615C6.25669 145.981 6.02073 146.394 5.84522 146.854C5.65802 147.317 5.54604 147.811 5.50928 148.338C5.46977 148.852 5.51854 149.402 5.65559 149.986C5.8447 150.792 6.22456 151.492 6.79517 152.085C7.36578 152.678 8.06395 153.106 8.8897 153.369C9.70102 153.622 10.5857 153.636 11.5437 153.412Z" stroke="white" stroke-width="1.4" mask="url(#path-1-outside-1_372_112)"/>
<path d="M7.48936 124.476L6.04946 124.459L6.07927 121.886C6.08872 121.07 6.25311 120.345 6.57246 119.713C6.87994 119.069 7.31782 118.564 7.88609 118.198C8.4545 117.821 9.12867 117.637 9.90862 117.646C10.6766 117.654 11.3463 117.854 11.9178 118.245C12.4775 118.623 12.9095 119.138 13.214 119.79C13.5066 120.429 13.6482 121.157 13.6388 121.973L13.609 124.547L12.169 124.53L12.1989 121.956C12.2051 121.416 12.1266 120.941 11.9633 120.532C11.7882 120.11 11.528 119.782 11.1826 119.55C10.8375 119.306 10.4069 119.181 9.8909 119.175C9.37494 119.17 8.94158 119.284 8.59082 119.52C8.24021 119.744 7.97847 120.065 7.80562 120.483C7.62091 120.889 7.52542 121.362 7.51917 121.902L7.48936 124.476ZM1 125.247L1.07817 118.497L2.51807 118.514L2.45762 123.734L13.6169 123.863L13.5992 125.393L1 125.247Z" stroke="white" stroke-width="1.4" mask="url(#path-1-outside-1_372_112)"/>
<path d="M7.55688 112.697C8.49627 112.824 9.36202 112.736 10.1541 112.431C10.9478 112.115 11.6071 111.63 12.132 110.974C12.6568 110.319 12.9806 109.539 13.1032 108.635C13.2274 107.72 13.123 106.882 12.7901 106.123C12.4589 105.351 11.952 104.713 11.2696 104.209C10.5888 103.693 9.77874 103.371 8.83934 103.243C7.89995 103.116 7.0334 103.21 6.23969 103.526C5.4476 103.831 4.78911 104.311 4.26425 104.966C3.74099 105.609 3.41726 106.389 3.29304 107.305C3.17044 108.208 3.27479 109.046 3.60607 109.817C3.93736 110.589 4.4434 111.233 5.12419 111.749C5.80659 112.253 6.61748 112.569 7.55688 112.697ZM7.3391 114.302C6.42349 114.178 5.60019 113.909 4.86922 113.495C4.12796 113.067 3.51066 112.529 3.01732 111.881C2.51209 111.231 2.15137 110.498 1.93517 109.682C1.70708 108.864 1.65433 108.003 1.77693 107.099C1.90114 106.183 2.18135 105.368 2.61754 104.652C3.04345 103.922 3.58646 103.312 4.24655 102.82C4.89476 102.327 5.63224 101.979 6.45899 101.776C7.27546 101.56 8.14151 101.514 9.05712 101.638C9.96084 101.761 10.7833 102.036 11.5246 102.463C12.2675 102.879 12.8915 103.412 13.3967 104.061C13.8901 104.71 14.2508 105.443 14.4789 106.261C14.6967 107.065 14.7435 107.926 14.6193 108.841C14.4967 109.745 14.2224 110.561 13.7965 111.291C13.3587 112.019 12.8157 112.629 12.1675 113.122C11.5074 113.614 10.7632 113.967 9.93481 114.182C9.10806 114.385 8.24282 114.425 7.3391 114.302Z" stroke="white" stroke-width="1.4" mask="url(#path-1-outside-1_372_112)"/>
<path d="M6.39316 86.2596L18.5292 89.6474L18.1178 91.121L7.36876 88.1204L5.86846 93.4949L12.4566 95.334C13.1963 95.5405 13.8517 95.8481 14.4229 96.2567C14.9973 96.6537 15.4123 97.1309 15.6679 97.6881C15.9267 98.2338 15.9641 98.8361 15.7802 99.4949L14.5146 99.1416C14.5888 98.8757 14.5725 98.622 14.4655 98.3803C14.3585 98.1387 14.1799 97.9082 13.9297 97.6888C13.6679 97.4662 13.3502 97.2654 12.9766 97.0864C12.603 96.9073 12.185 96.7533 11.7227 96.6242L4.09431 94.4947L6.39316 86.2596Z" stroke="white" stroke-width="1.4" mask="url(#path-1-outside-1_372_112)"/>
<path d="M8.11815 80.9707L8.69303 79.5528L20.3698 84.2871L19.7949 85.705L8.11815 80.9707ZM14.4412 82.6214L13.1067 82.0804L14.0739 79.695C14.3805 78.9388 14.7978 78.3246 15.3259 77.8524C15.8474 77.3646 16.4394 77.0543 17.1019 76.9215C17.7688 76.7775 18.4637 76.8521 19.1866 77.1452C19.8983 77.4338 20.4489 77.8642 20.8384 78.4365C21.2213 78.9931 21.4356 79.6303 21.4813 80.3481C21.5203 81.0502 21.3865 81.7794 21.0799 82.5356L20.1128 84.921L18.7783 84.3799L19.7454 81.9945C19.9483 81.4941 20.0486 81.0232 20.0462 80.582C20.0372 80.1252 19.9143 79.7257 19.6775 79.3837C19.4451 79.0305 19.0899 78.757 18.6117 78.5631C18.1335 78.3692 17.6881 78.3181 17.2754 78.4097C16.8672 78.4903 16.5064 78.6936 16.1929 79.0197C15.8728 79.3302 15.6113 79.7356 15.4084 80.236L14.4412 82.6214Z" stroke="white" stroke-width="1.4" mask="url(#path-1-outside-1_372_112)"/>
<path d="M29.3594 62.9301L19.7092 57.3248L20.4776 56.0018L31.373 62.3304L23.9143 75.1713L13.019 68.8428L13.7874 67.5197L23.4376 73.1251L26.0142 68.6891L16.3641 63.0838L17.1325 61.7608L26.7827 67.3661L29.3594 62.9301Z" stroke="white" stroke-width="1.4" mask="url(#path-1-outside-1_372_112)"/>
<path d="M34.2925 58.2804L33.1629 57.3873L37.1038 52.4031L38.2334 53.2962L34.2925 58.2804ZM25.5383 51.3588L24.4087 50.4657L28.3496 45.4814L29.4791 46.3745L25.5383 51.3588ZM29.4918 54.4847L28.3622 53.5916L32.0798 48.8897L33.2094 49.7828L29.4918 54.4847ZM23.884 51.1293L24.8329 49.9291L34.7167 57.7439L33.7678 58.9441L23.884 51.1293Z" stroke="white" stroke-width="1.4" mask="url(#path-1-outside-1_372_112)"/>
<path d="M42.2663 39.4137C42.8862 40.1309 43.5937 40.6376 44.3889 40.9337C45.1931 41.222 46.0089 41.2942 46.8361 41.1502C47.6633 41.0063 48.422 40.6361 49.112 40.0398C49.8111 39.4356 50.2872 38.7386 50.5404 37.9488C50.8027 37.1512 50.8449 36.3375 50.6671 35.5078C50.4984 34.6703 50.1041 33.8929 49.4842 33.1756C48.8643 32.4584 48.1523 31.9556 47.348 31.6673C46.5528 31.3712 45.7416 31.2951 44.9144 31.4391C44.0963 31.5752 43.3376 31.9453 42.6385 32.5495C41.9485 33.1459 41.4724 33.8428 41.2101 34.6405C40.9478 35.4381 40.9011 36.2557 41.0698 37.0933C41.2476 37.923 41.6464 38.6964 42.2663 39.4137ZM41.0406 40.473C40.4364 39.7739 39.9973 39.0272 39.7234 38.2331C39.4506 37.422 39.3438 36.6103 39.403 35.7978C39.4543 34.9763 39.6691 34.188 40.0474 33.4328C40.4179 32.6686 40.9481 31.9883 41.6381 31.3919C42.3372 30.7877 43.0871 30.3617 43.8879 30.1137C44.6899 29.8488 45.501 29.7505 46.3213 29.8187C47.1338 29.8779 47.9169 30.1051 48.6709 30.5003C49.426 30.8786 50.1057 31.4172 50.7099 32.1163C51.3062 32.8064 51.7408 33.5569 52.0135 34.368C52.2953 35.1712 52.4106 35.9836 52.3593 36.8051C52.3001 37.6175 52.0853 38.4059 51.7149 39.1701C51.3457 39.9174 50.8115 40.5932 50.1124 41.1974C49.4224 41.7937 48.6764 42.2244 47.8744 42.4892C47.0645 42.7451 46.2534 42.8434 45.441 42.7842C44.6207 42.716 43.829 42.4882 43.066 42.1008C42.3121 41.7056 41.637 41.163 41.0406 40.473Z" stroke="white" stroke-width="1.4" mask="url(#path-1-outside-1_372_112)"/>
<path d="M61.4773 24.702L60.7724 23.4462L68.3067 19.2173L69.0116 20.473L61.4773 24.702ZM64.9451 15.3245L66.2793 14.5756L72.4466 25.5631L71.1124 26.312L64.9451 15.3245ZM57.5678 19.4653L58.902 18.7165L65.0693 29.704L63.7351 30.4528L57.5678 19.4653Z" stroke="white" stroke-width="1.4" mask="url(#path-1-outside-1_372_112)"/>
<path d="M75.6531 19.7538L75.6182 18.2162L80.7972 16.139L81.8344 17.2744L75.6531 19.7538ZM76.4857 12.981L76.3772 18.4161L76.3642 18.7704L76.2751 23.577L74.688 24.2136L75.1924 9.75672L85.5471 19.858L83.96 20.4946L80.6478 17.1686L80.3801 16.8881L76.4857 12.981Z" stroke="white" stroke-width="1.4" mask="url(#path-1-outside-1_372_112)"/>
<path d="M88.5472 12.1782C88.7872 13.1201 89.2083 13.8982 89.8106 14.5125C90.4245 15.1239 91.1264 15.5457 91.9162 15.7779C92.7059 16.0101 93.502 16.024 94.3044 15.8196C94.8858 15.6715 95.3956 15.4611 95.8339 15.1885C96.2838 14.9129 96.6724 14.591 96.9996 14.2228C97.3239 13.843 97.5796 13.4373 97.7669 13.0057L98.2646 14.9593C97.8685 15.5432 97.3962 16.0226 96.8478 16.3976C96.2994 16.7726 95.5775 17.0741 94.6821 17.3023C93.8332 17.5185 92.9981 17.5703 92.1769 17.4575C91.3643 17.3302 90.6078 17.0585 89.9074 16.6426C89.2041 16.215 88.5977 15.6574 88.0882 14.9699C87.5787 14.2824 87.2084 13.4852 86.9774 12.5781C86.7463 11.6711 86.69 10.7938 86.8084 9.94637C86.9269 9.0989 87.1941 8.32498 87.61 7.62461C88.0231 6.91261 88.5574 6.31212 89.2129 5.82314C89.8772 5.31957 90.6337 4.95965 91.4826 4.74339C92.378 4.51528 93.1562 4.43467 93.8172 4.50157C94.4781 4.56846 95.1222 4.76349 95.7494 5.08666L96.2471 7.04026C95.8762 6.75087 95.459 6.52281 94.9955 6.35608C94.529 6.17771 94.0323 6.07516 93.5054 6.04841C92.9901 6.0187 92.4418 6.07791 91.8603 6.22604C91.058 6.43045 90.3656 6.82354 89.7832 7.40533C89.2008 7.98712 88.7863 8.6933 88.5397 9.52388C88.3018 10.3399 88.3043 11.2246 88.5472 12.1782Z" stroke="white" stroke-width="1.4" mask="url(#path-1-outside-1_372_112)"/>
<path d="M116.81 7.54794L116.794 6.10803L119.368 6.07822C120.184 6.06877 120.911 6.21636 121.551 6.52097C122.202 6.81345 122.717 7.23951 123.096 7.79917C123.486 8.35868 123.686 9.02841 123.695 9.80836C123.704 10.5763 123.52 11.2505 123.142 11.8309C122.777 12.3992 122.272 12.843 121.628 13.1625C120.995 13.4699 120.271 13.6283 119.455 13.6377L116.881 13.6675L116.865 12.2276L119.438 12.1978C119.978 12.1916 120.451 12.1021 120.857 11.9294C121.275 11.7445 121.596 11.4768 121.82 11.1262C122.056 10.7754 122.171 10.342 122.165 9.82608C122.159 9.31011 122.034 8.87953 121.79 8.53434C121.558 8.189 121.231 7.93477 120.809 7.77164C120.399 7.59638 119.924 7.51187 119.384 7.51813L116.81 7.54794ZM115.889 1.07817L122.639 1L122.656 2.4399L117.436 2.50035L117.565 13.6596L116.035 13.6773L115.889 1.07817Z" stroke="white" stroke-width="1.4" mask="url(#path-1-outside-1_372_112)"/>
<path d="M129.001 7.3273C128.892 8.26897 128.997 9.13285 129.316 9.91896C129.648 10.7064 130.146 11.3563 130.811 11.8685C131.477 12.3806 132.262 12.6894 133.168 12.7946C134.086 12.9012 134.922 12.7808 135.675 12.4333C136.44 12.0873 137.068 11.5683 137.559 10.8763C138.062 10.1857 138.368 9.36962 138.477 8.42795C138.587 7.48628 138.476 6.62171 138.145 5.83422C137.825 5.04811 137.333 4.39897 136.667 3.88679C136.014 3.37599 135.228 3.06729 134.31 2.96068C133.405 2.85546 132.569 2.97587 131.804 3.32192C131.039 3.66797 130.405 4.18628 129.902 4.87685C129.411 5.56881 129.111 6.38563 129.001 7.3273ZM127.392 7.14039C127.499 6.22256 127.752 5.39425 128.152 4.65546C128.565 3.90613 129.091 3.27861 129.729 2.77291C130.369 2.25529 131.096 1.88056 131.908 1.64871C132.721 1.40495 133.581 1.33568 134.487 1.4409C135.405 1.5475 136.226 1.81198 136.95 2.23435C137.687 2.64617 138.308 3.17735 138.812 3.82788C139.318 4.46649 139.68 5.19715 139.899 6.01986C140.131 6.83203 140.193 7.69703 140.087 8.61486C139.981 9.52077 139.722 10.3484 139.309 11.0977C138.908 11.8484 138.387 12.4826 137.747 13.0002C137.108 13.5059 136.382 13.8806 135.569 14.1244C134.769 14.3576 133.91 14.421 132.992 14.3144C132.086 14.2091 131.264 13.9506 130.527 13.5388C129.791 13.115 129.17 12.5839 128.664 11.9452C128.16 11.2947 127.792 10.5574 127.562 9.73332C127.343 8.91061 127.287 8.0463 127.392 7.14039Z" stroke="white" stroke-width="1.4" mask="url(#path-1-outside-1_372_112)"/>
<path d="M155.723 5.68561L152.566 17.8837L151.085 17.5004L153.881 6.69633L148.479 5.29825L146.765 11.9201C146.573 12.6636 146.277 13.3247 145.88 13.9035C145.494 14.4854 145.024 14.9093 144.472 15.1754C143.932 15.4446 143.33 15.4934 142.668 15.3221L142.997 14.05C143.264 14.1191 143.518 14.0979 143.757 13.9864C143.997 13.8749 144.224 13.6919 144.439 13.4376C144.656 13.1716 144.851 12.8502 145.023 12.4732C145.195 12.0963 145.341 11.6754 145.461 11.2108L147.445 3.54338L155.723 5.68561Z" stroke="white" stroke-width="1.4" mask="url(#path-1-outside-1_372_112)"/>
<path d="M161.065 7.30565L162.494 7.85388L157.979 19.6172L156.551 19.069L161.065 7.30565ZM159.533 13.6585L160.049 12.3141L162.452 13.2364C163.214 13.5288 163.836 13.9346 164.318 14.4538C164.816 14.9661 165.137 15.5521 165.282 16.212C165.438 16.8761 165.377 17.5723 165.097 18.3005C164.822 19.0175 164.402 19.5761 163.837 19.9762C163.288 20.3695 162.655 20.5957 161.938 20.6547C161.237 20.7069 160.505 20.5868 159.743 20.2944L157.34 19.3721L157.856 18.0277L160.259 18.9501C160.764 19.1436 161.236 19.235 161.677 19.2243C162.134 19.2068 162.531 19.0764 162.869 18.8332C163.217 18.5943 163.484 18.234 163.669 17.7523C163.854 17.2705 163.897 16.8242 163.797 16.4133C163.709 16.0067 163.499 15.6498 163.167 15.3424C162.851 15.0282 162.441 14.7743 161.936 14.5808L159.533 13.6585Z" stroke="white" stroke-width="1.4" mask="url(#path-1-outside-1_372_112)"/>
<path d="M179.636 28.2668L185.062 18.515L186.399 19.2589L180.273 30.2691L167.296 23.0484L173.423 12.0382L174.76 12.7822L169.334 22.534L173.816 25.0285L179.243 15.2766L180.58 16.0205L175.153 25.7724L179.636 28.2668Z" stroke="white" stroke-width="1.4" mask="url(#path-1-outside-1_372_112)"/>
<path d="M184.401 33.1376L185.273 31.992L190.329 35.8413L189.456 36.987L184.401 33.1376ZM191.162 24.2587L192.034 23.113L197.09 26.9624L196.217 28.108L191.162 24.2587ZM188.109 28.2685L188.981 27.1229L193.75 30.7541L192.877 31.8998L188.109 28.2685ZM191.361 22.6005L192.578 23.5274L184.945 33.552L183.728 32.6251L191.361 22.6005Z" stroke="white" stroke-width="1.4" mask="url(#path-1-outside-1_372_112)"/>
<path d="M203.44 40.8141C202.734 41.4469 202.24 42.1636 201.958 42.964C201.685 43.7734 201.627 44.5903 201.786 45.4147C201.945 46.2392 202.329 46.991 202.938 47.67C203.555 48.358 204.26 48.8214 205.055 49.0602C205.857 49.3079 206.671 49.3354 207.498 49.1425C208.332 48.9586 209.102 48.5502 209.808 47.9174C210.514 47.2846 211.003 46.5635 211.277 45.7541C211.559 44.9537 211.62 44.1413 211.461 43.3168C211.31 42.5012 210.926 41.7495 210.309 41.0615C209.701 40.3824 208.995 39.919 208.193 39.6713C207.391 39.4236 206.572 39.3917 205.738 39.5756C204.912 39.7685 204.145 40.1813 203.44 40.8141ZM202.358 39.6079C203.046 38.9911 203.785 38.5385 204.574 38.2501C205.38 37.9627 206.189 37.8412 207.003 37.8856C207.825 37.9219 208.617 38.1224 209.379 38.4869C210.15 38.8433 210.84 39.3611 211.449 40.0402C212.065 40.7282 212.505 41.4702 212.768 42.2663C213.047 43.0634 213.16 43.8726 213.107 44.694C213.062 45.5074 212.849 46.2946 212.468 47.0556C212.104 47.8175 211.577 48.5068 210.889 49.1236C210.21 49.7324 209.468 50.1805 208.662 50.468C207.864 50.7644 207.054 50.8944 206.231 50.858C205.418 50.8136 204.626 50.6132 203.855 50.2567C203.101 49.9011 202.416 49.3794 201.799 48.6914C201.19 48.0123 200.746 47.2743 200.467 46.4772C200.196 45.6721 200.083 44.8629 200.127 44.0495C200.181 43.2281 200.394 42.4325 200.767 41.6626C201.149 40.9016 201.679 40.2167 202.358 39.6079Z" stroke="white" stroke-width="1.4" mask="url(#path-1-outside-1_372_112)"/>
<path d="M218.472 59.7498L219.714 59.0219L224.081 66.477L222.839 67.2048L218.472 59.7498ZM227.911 63.0442L228.685 64.3644L217.813 70.7331L217.039 69.4129L227.911 63.0442ZM223.635 55.7445L224.409 57.0646L213.537 63.4333L212.763 62.1131L223.635 55.7445Z" stroke="white" stroke-width="1.4" mask="url(#path-1-outside-1_372_112)"/>
<path d="M223.686 73.8804L225.223 73.8168L227.396 78.956L226.281 80.0143L223.686 73.8804ZM230.473 74.5862L225.037 74.5794L224.683 74.5729L219.875 74.5738L219.209 72.9988L233.673 73.2329L223.767 83.7746L223.101 82.1997L226.364 78.8258L226.64 78.553L230.473 74.5862Z" stroke="white" stroke-width="1.4" mask="url(#path-1-outside-1_372_112)"/>
<path d="M231.466 86.5868C230.529 86.8446 229.759 87.2805 229.156 87.8943C228.557 88.5197 228.148 89.2295 227.931 90.0235C227.714 90.8175 227.715 91.6137 227.935 92.4121C228.094 92.9906 228.314 93.4963 228.595 93.9294C228.879 94.3739 229.208 94.7563 229.582 95.0765C229.968 95.3935 230.379 95.6415 230.814 95.8205L228.87 96.3552C228.279 95.9703 227.79 95.5072 227.405 94.966C227.02 94.4248 226.704 93.7088 226.459 92.8179C226.227 91.9732 226.159 91.1393 226.257 90.316C226.368 89.5012 226.626 88.7397 227.028 88.0316C227.442 87.3202 227.988 86.7034 228.666 86.1809C229.344 85.6584 230.134 85.2731 231.036 85.0249C231.939 84.7766 232.815 84.7037 233.664 84.806C234.514 84.9083 235.293 85.1608 236.001 85.5634C236.721 85.9629 237.331 86.4857 237.833 87.1318C238.349 87.7864 238.723 88.536 238.955 89.3806C239.2 90.2715 239.296 91.0481 239.241 91.7102C239.187 92.3723 239.004 93.02 238.693 93.6532L236.749 94.1879C237.031 93.8115 237.252 93.3901 237.41 92.9235C237.579 92.4537 237.672 91.9551 237.689 91.4278C237.709 90.9121 237.639 90.3649 237.48 89.7864C237.26 88.9881 236.854 88.3033 236.262 87.732C235.669 87.1608 234.955 86.7597 234.12 86.529C233.299 86.3066 232.415 86.3259 231.466 86.5868Z" stroke="white" stroke-width="1.4" mask="url(#path-1-outside-1_372_112)"/>
</g>
</g>
</svg>
