<svg width="28" height="12" viewBox="0 0 28 12" fill="none" xmlns="http://www.w3.org/2000/svg">
<path d="M26.7801 5.21885L22.2507 0.907818C21.8867 0.560024 21.2559 0.560024 20.8919 0.907818C20.7059 1.08576 20.6007 1.32841 20.6007 1.57914C20.6007 1.82988 20.7059 2.07252 20.8919 2.25047L23.8603 5.08135H0.970567C0.525714 5.08135 0.161743 5.44532 0.161743 5.89017C0.161743 6.33502 0.525714 6.69899 0.970567 6.69899H23.8684L20.9 9.52988C20.7139 9.70782 20.6088 9.95047 20.6088 10.2012C20.6088 10.46 20.7139 10.6946 20.9 10.8725C21.086 11.0505 21.3367 11.1394 21.5794 11.1394C21.822 11.1394 22.0728 11.0505 22.2588 10.8725L26.7882 6.56149C26.9742 6.38355 27.0794 6.14091 27.0794 5.89017C27.0794 5.63944 26.9742 5.40488 26.7801 5.21885Z"/>
</svg>
